<?xml version="1.0" encoding="utf-8" standalone="no"?>
<!DOCTYPE svg PUBLIC "-//W3C//DTD SVG 1.1//EN"
  "http://www.w3.org/Graphics/SVG/1.1/DTD/svg11.dtd">
<svg xmlns:xlink="http://www.w3.org/1999/xlink" width="496.158125pt" height="278.09pt" viewBox="0 0 496.158125 278.09" xmlns="http://www.w3.org/2000/svg" version="1.1">
 <metadata>
  <rdf:RDF xmlns:dc="http://purl.org/dc/elements/1.1/" xmlns:cc="http://creativecommons.org/ns#" xmlns:rdf="http://www.w3.org/1999/02/22-rdf-syntax-ns#">
   <cc:Work>
    <dc:type rdf:resource="http://purl.org/dc/dcmitype/StillImage"/>
    <dc:date>2025-10-01T16:45:16.263795</dc:date>
    <dc:format>image/svg+xml</dc:format>
    <dc:creator>
     <cc:Agent>
      <dc:title>Matplotlib v3.8.4, https://matplotlib.org/</dc:title>
     </cc:Agent>
    </dc:creator>
   </cc:Work>
  </rdf:RDF>
 </metadata>
 <defs>
  <style type="text/css">*{stroke-linejoin: round; stroke-linecap: butt}</style>
 </defs>
 <g id="figure_1">
  <g id="patch_1">
   <path d="M 0 278.09 
L 496.158125 278.09 
L 496.158125 0 
L 0 0 
z
" style="fill: #ffffff"/>
  </g>
  <g id="axes_1">
   <g id="patch_2">
    <path d="M 59.255625 238.598125 
L 482.595625 238.598125 
L 482.595625 22.318125 
L 59.255625 22.318125 
z
" style="fill: #ffffff"/>
   </g>
   <g id="matplotlib.axis_1">
    <g id="xtick_1">
     <g id="line2d_1">
      <path d="M 59.255625 238.598125 
L 59.255625 22.318125 
" clip-path="url(#pdc45634cb7)" style="fill: none; stroke-dasharray: 2.96,1.28; stroke-dashoffset: 0; stroke: #b0b0b0; stroke-opacity: 0.3; stroke-width: 0.8"/>
     </g>
     <g id="line2d_2">
      <defs>
       <path id="mcce012e4e8" d="M 0 0 
L 0 3.5 
" style="stroke: #000000; stroke-width: 0.8"/>
      </defs>
      <g>
       <use xlink:href="#mcce012e4e8" x="59.255625" y="238.598125" style="stroke: #000000; stroke-width: 0.8"/>
      </g>
     </g>
     <g id="text_1">
      <!-- 0 -->
      <g transform="translate(56.074375 253.196563) scale(0.1 -0.1)">
       <defs>
        <path id="DejaVuSans-30" d="M 2034 4250 
Q 1547 4250 1301 3770 
Q 1056 3291 1056 2328 
Q 1056 1369 1301 889 
Q 1547 409 2034 409 
Q 2525 409 2770 889 
Q 3016 1369 3016 2328 
Q 3016 3291 2770 3770 
Q 2525 4250 2034 4250 
z
M 2034 4750 
Q 2819 4750 3233 4129 
Q 3647 3509 3647 2328 
Q 3647 1150 3233 529 
Q 2819 -91 2034 -91 
Q 1250 -91 836 529 
Q 422 1150 422 2328 
Q 422 3509 836 4129 
Q 1250 4750 2034 4750 
z
" transform="scale(0.015625)"/>
       </defs>
       <use xlink:href="#DejaVuSans-30"/>
      </g>
     </g>
    </g>
    <g id="xtick_2">
     <g id="line2d_3">
      <path d="M 143.923625 238.598125 
L 143.923625 22.318125 
" clip-path="url(#pdc45634cb7)" style="fill: none; stroke-dasharray: 2.96,1.28; stroke-dashoffset: 0; stroke: #b0b0b0; stroke-opacity: 0.3; stroke-width: 0.8"/>
     </g>
     <g id="line2d_4">
      <g>
       <use xlink:href="#mcce012e4e8" x="143.923625" y="238.598125" style="stroke: #000000; stroke-width: 0.8"/>
      </g>
     </g>
     <g id="text_2">
      <!-- 10 -->
      <g transform="translate(137.561125 253.196563) scale(0.1 -0.1)">
       <defs>
        <path id="DejaVuSans-31" d="M 794 531 
L 1825 531 
L 1825 4091 
L 703 3866 
L 703 4441 
L 1819 4666 
L 2450 4666 
L 2450 531 
L 3481 531 
L 3481 0 
L 794 0 
L 794 531 
z
" transform="scale(0.015625)"/>
       </defs>
       <use xlink:href="#DejaVuSans-31"/>
       <use xlink:href="#DejaVuSans-30" x="63.623047"/>
      </g>
     </g>
    </g>
    <g id="xtick_3">
     <g id="line2d_5">
      <path d="M 228.591625 238.598125 
L 228.591625 22.318125 
" clip-path="url(#pdc45634cb7)" style="fill: none; stroke-dasharray: 2.96,1.28; stroke-dashoffset: 0; stroke: #b0b0b0; stroke-opacity: 0.3; stroke-width: 0.8"/>
     </g>
     <g id="line2d_6">
      <g>
       <use xlink:href="#mcce012e4e8" x="228.591625" y="238.598125" style="stroke: #000000; stroke-width: 0.8"/>
      </g>
     </g>
     <g id="text_3">
      <!-- 20 -->
      <g transform="translate(222.229125 253.196563) scale(0.1 -0.1)">
       <defs>
        <path id="DejaVuSans-32" d="M 1228 531 
L 3431 531 
L 3431 0 
L 469 0 
L 469 531 
Q 828 903 1448 1529 
Q 2069 2156 2228 2338 
Q 2531 2678 2651 2914 
Q 2772 3150 2772 3378 
Q 2772 3750 2511 3984 
Q 2250 4219 1831 4219 
Q 1534 4219 1204 4116 
Q 875 4013 500 3803 
L 500 4441 
Q 881 4594 1212 4672 
Q 1544 4750 1819 4750 
Q 2544 4750 2975 4387 
Q 3406 4025 3406 3419 
Q 3406 3131 3298 2873 
Q 3191 2616 2906 2266 
Q 2828 2175 2409 1742 
Q 1991 1309 1228 531 
z
" transform="scale(0.015625)"/>
       </defs>
       <use xlink:href="#DejaVuSans-32"/>
       <use xlink:href="#DejaVuSans-30" x="63.623047"/>
      </g>
     </g>
    </g>
    <g id="xtick_4">
     <g id="line2d_7">
      <path d="M 313.259625 238.598125 
L 313.259625 22.318125 
" clip-path="url(#pdc45634cb7)" style="fill: none; stroke-dasharray: 2.96,1.28; stroke-dashoffset: 0; stroke: #b0b0b0; stroke-opacity: 0.3; stroke-width: 0.8"/>
     </g>
     <g id="line2d_8">
      <g>
       <use xlink:href="#mcce012e4e8" x="313.259625" y="238.598125" style="stroke: #000000; stroke-width: 0.8"/>
      </g>
     </g>
     <g id="text_4">
      <!-- 30 -->
      <g transform="translate(306.897125 253.196563) scale(0.1 -0.1)">
       <defs>
        <path id="DejaVuSans-33" d="M 2597 2516 
Q 3050 2419 3304 2112 
Q 3559 1806 3559 1356 
Q 3559 666 3084 287 
Q 2609 -91 1734 -91 
Q 1441 -91 1130 -33 
Q 819 25 488 141 
L 488 750 
Q 750 597 1062 519 
Q 1375 441 1716 441 
Q 2309 441 2620 675 
Q 2931 909 2931 1356 
Q 2931 1769 2642 2001 
Q 2353 2234 1838 2234 
L 1294 2234 
L 1294 2753 
L 1863 2753 
Q 2328 2753 2575 2939 
Q 2822 3125 2822 3475 
Q 2822 3834 2567 4026 
Q 2313 4219 1838 4219 
Q 1578 4219 1281 4162 
Q 984 4106 628 3988 
L 628 4550 
Q 988 4650 1302 4700 
Q 1616 4750 1894 4750 
Q 2613 4750 3031 4423 
Q 3450 4097 3450 3541 
Q 3450 3153 3228 2886 
Q 3006 2619 2597 2516 
z
" transform="scale(0.015625)"/>
       </defs>
       <use xlink:href="#DejaVuSans-33"/>
       <use xlink:href="#DejaVuSans-30" x="63.623047"/>
      </g>
     </g>
    </g>
    <g id="xtick_5">
     <g id="line2d_9">
      <path d="M 397.927625 238.598125 
L 397.927625 22.318125 
" clip-path="url(#pdc45634cb7)" style="fill: none; stroke-dasharray: 2.96,1.28; stroke-dashoffset: 0; stroke: #b0b0b0; stroke-opacity: 0.3; stroke-width: 0.8"/>
     </g>
     <g id="line2d_10">
      <g>
       <use xlink:href="#mcce012e4e8" x="397.927625" y="238.598125" style="stroke: #000000; stroke-width: 0.8"/>
      </g>
     </g>
     <g id="text_5">
      <!-- 40 -->
      <g transform="translate(391.565125 253.196563) scale(0.1 -0.1)">
       <defs>
        <path id="DejaVuSans-34" d="M 2419 4116 
L 825 1625 
L 2419 1625 
L 2419 4116 
z
M 2253 4666 
L 3047 4666 
L 3047 1625 
L 3713 1625 
L 3713 1100 
L 3047 1100 
L 3047 0 
L 2419 0 
L 2419 1100 
L 313 1100 
L 313 1709 
L 2253 4666 
z
" transform="scale(0.015625)"/>
       </defs>
       <use xlink:href="#DejaVuSans-34"/>
       <use xlink:href="#DejaVuSans-30" x="63.623047"/>
      </g>
     </g>
    </g>
    <g id="xtick_6">
     <g id="line2d_11">
      <path d="M 482.595625 238.598125 
L 482.595625 22.318125 
" clip-path="url(#pdc45634cb7)" style="fill: none; stroke-dasharray: 2.96,1.28; stroke-dashoffset: 0; stroke: #b0b0b0; stroke-opacity: 0.3; stroke-width: 0.8"/>
     </g>
     <g id="line2d_12">
      <g>
       <use xlink:href="#mcce012e4e8" x="482.595625" y="238.598125" style="stroke: #000000; stroke-width: 0.8"/>
      </g>
     </g>
     <g id="text_6">
      <!-- 50 -->
      <g transform="translate(476.233125 253.196563) scale(0.1 -0.1)">
       <defs>
        <path id="DejaVuSans-35" d="M 691 4666 
L 3169 4666 
L 3169 4134 
L 1269 4134 
L 1269 2991 
Q 1406 3038 1543 3061 
Q 1681 3084 1819 3084 
Q 2600 3084 3056 2656 
Q 3513 2228 3513 1497 
Q 3513 744 3044 326 
Q 2575 -91 1722 -91 
Q 1428 -91 1123 -41 
Q 819 9 494 109 
L 494 744 
Q 775 591 1075 516 
Q 1375 441 1709 441 
Q 2250 441 2565 725 
Q 2881 1009 2881 1497 
Q 2881 1984 2565 2268 
Q 2250 2553 1709 2553 
Q 1456 2553 1204 2497 
Q 953 2441 691 2322 
L 691 4666 
z
" transform="scale(0.015625)"/>
       </defs>
       <use xlink:href="#DejaVuSans-35"/>
       <use xlink:href="#DejaVuSans-30" x="63.623047"/>
      </g>
     </g>
    </g>
    <g id="text_7">
     <!-- $k$ -->
     <g transform="translate(267.445625 268.394375) scale(0.12 -0.12)">
      <defs>
       <path id="DejaVuSans-Oblique-6b" d="M 1172 4863 
L 1747 4863 
L 1197 2028 
L 3169 3500 
L 3916 3500 
L 1716 1825 
L 3322 0 
L 2625 0 
L 1131 1709 
L 800 0 
L 225 0 
L 1172 4863 
z
" transform="scale(0.015625)"/>
      </defs>
      <use xlink:href="#DejaVuSans-Oblique-6b" transform="translate(0 0.015625)"/>
     </g>
    </g>
   </g>
   <g id="matplotlib.axis_2">
    <g id="ytick_1">
     <g id="line2d_13">
      <path d="M 59.255625 228.767216 
L 482.595625 228.767216 
" clip-path="url(#pdc45634cb7)" style="fill: none; stroke-dasharray: 2.96,1.28; stroke-dashoffset: 0; stroke: #b0b0b0; stroke-opacity: 0.3; stroke-width: 0.8"/>
     </g>
     <g id="line2d_14">
      <defs>
       <path id="m77af0118d0" d="M 0 0 
L -3.5 0 
" style="stroke: #000000; stroke-width: 0.8"/>
      </defs>
      <g>
       <use xlink:href="#m77af0118d0" x="59.255625" y="228.767216" style="stroke: #000000; stroke-width: 0.8"/>
      </g>
     </g>
     <g id="text_8">
      <!-- 0.000 -->
      <g transform="translate(23.6275 232.566435) scale(0.1 -0.1)">
       <defs>
        <path id="DejaVuSans-2e" d="M 684 794 
L 1344 794 
L 1344 0 
L 684 0 
L 684 794 
z
" transform="scale(0.015625)"/>
       </defs>
       <use xlink:href="#DejaVuSans-30"/>
       <use xlink:href="#DejaVuSans-2e" x="63.623047"/>
       <use xlink:href="#DejaVuSans-30" x="95.410156"/>
       <use xlink:href="#DejaVuSans-30" x="159.033203"/>
       <use xlink:href="#DejaVuSans-30" x="222.65625"/>
      </g>
     </g>
    </g>
    <g id="ytick_2">
     <g id="line2d_15">
      <path d="M 59.255625 181.674876 
L 482.595625 181.674876 
" clip-path="url(#pdc45634cb7)" style="fill: none; stroke-dasharray: 2.96,1.28; stroke-dashoffset: 0; stroke: #b0b0b0; stroke-opacity: 0.3; stroke-width: 0.8"/>
     </g>
     <g id="line2d_16">
      <g>
       <use xlink:href="#m77af0118d0" x="59.255625" y="181.674876" style="stroke: #000000; stroke-width: 0.8"/>
      </g>
     </g>
     <g id="text_9">
      <!-- 0.002 -->
      <g transform="translate(23.6275 185.474094) scale(0.1 -0.1)">
       <use xlink:href="#DejaVuSans-30"/>
       <use xlink:href="#DejaVuSans-2e" x="63.623047"/>
       <use xlink:href="#DejaVuSans-30" x="95.410156"/>
       <use xlink:href="#DejaVuSans-30" x="159.033203"/>
       <use xlink:href="#DejaVuSans-32" x="222.65625"/>
      </g>
     </g>
    </g>
    <g id="ytick_3">
     <g id="line2d_17">
      <path d="M 59.255625 134.582535 
L 482.595625 134.582535 
" clip-path="url(#pdc45634cb7)" style="fill: none; stroke-dasharray: 2.96,1.28; stroke-dashoffset: 0; stroke: #b0b0b0; stroke-opacity: 0.3; stroke-width: 0.8"/>
     </g>
     <g id="line2d_18">
      <g>
       <use xlink:href="#m77af0118d0" x="59.255625" y="134.582535" style="stroke: #000000; stroke-width: 0.8"/>
      </g>
     </g>
     <g id="text_10">
      <!-- 0.004 -->
      <g transform="translate(23.6275 138.381754) scale(0.1 -0.1)">
       <use xlink:href="#DejaVuSans-30"/>
       <use xlink:href="#DejaVuSans-2e" x="63.623047"/>
       <use xlink:href="#DejaVuSans-30" x="95.410156"/>
       <use xlink:href="#DejaVuSans-30" x="159.033203"/>
       <use xlink:href="#DejaVuSans-34" x="222.65625"/>
      </g>
     </g>
    </g>
    <g id="ytick_4">
     <g id="line2d_19">
      <path d="M 59.255625 87.490195 
L 482.595625 87.490195 
" clip-path="url(#pdc45634cb7)" style="fill: none; stroke-dasharray: 2.96,1.28; stroke-dashoffset: 0; stroke: #b0b0b0; stroke-opacity: 0.3; stroke-width: 0.8"/>
     </g>
     <g id="line2d_20">
      <g>
       <use xlink:href="#m77af0118d0" x="59.255625" y="87.490195" style="stroke: #000000; stroke-width: 0.8"/>
      </g>
     </g>
     <g id="text_11">
      <!-- 0.006 -->
      <g transform="translate(23.6275 91.289414) scale(0.1 -0.1)">
       <defs>
        <path id="DejaVuSans-36" d="M 2113 2584 
Q 1688 2584 1439 2293 
Q 1191 2003 1191 1497 
Q 1191 994 1439 701 
Q 1688 409 2113 409 
Q 2538 409 2786 701 
Q 3034 994 3034 1497 
Q 3034 2003 2786 2293 
Q 2538 2584 2113 2584 
z
M 3366 4563 
L 3366 3988 
Q 3128 4100 2886 4159 
Q 2644 4219 2406 4219 
Q 1781 4219 1451 3797 
Q 1122 3375 1075 2522 
Q 1259 2794 1537 2939 
Q 1816 3084 2150 3084 
Q 2853 3084 3261 2657 
Q 3669 2231 3669 1497 
Q 3669 778 3244 343 
Q 2819 -91 2113 -91 
Q 1303 -91 875 529 
Q 447 1150 447 2328 
Q 447 3434 972 4092 
Q 1497 4750 2381 4750 
Q 2619 4750 2861 4703 
Q 3103 4656 3366 4563 
z
" transform="scale(0.015625)"/>
       </defs>
       <use xlink:href="#DejaVuSans-30"/>
       <use xlink:href="#DejaVuSans-2e" x="63.623047"/>
       <use xlink:href="#DejaVuSans-30" x="95.410156"/>
       <use xlink:href="#DejaVuSans-30" x="159.033203"/>
       <use xlink:href="#DejaVuSans-36" x="222.65625"/>
      </g>
     </g>
    </g>
    <g id="ytick_5">
     <g id="line2d_21">
      <path d="M 59.255625 40.397855 
L 482.595625 40.397855 
" clip-path="url(#pdc45634cb7)" style="fill: none; stroke-dasharray: 2.96,1.28; stroke-dashoffset: 0; stroke: #b0b0b0; stroke-opacity: 0.3; stroke-width: 0.8"/>
     </g>
     <g id="line2d_22">
      <g>
       <use xlink:href="#m77af0118d0" x="59.255625" y="40.397855" style="stroke: #000000; stroke-width: 0.8"/>
      </g>
     </g>
     <g id="text_12">
      <!-- 0.008 -->
      <g transform="translate(23.6275 44.197073) scale(0.1 -0.1)">
       <defs>
        <path id="DejaVuSans-38" d="M 2034 2216 
Q 1584 2216 1326 1975 
Q 1069 1734 1069 1313 
Q 1069 891 1326 650 
Q 1584 409 2034 409 
Q 2484 409 2743 651 
Q 3003 894 3003 1313 
Q 3003 1734 2745 1975 
Q 2488 2216 2034 2216 
z
M 1403 2484 
Q 997 2584 770 2862 
Q 544 3141 544 3541 
Q 544 4100 942 4425 
Q 1341 4750 2034 4750 
Q 2731 4750 3128 4425 
Q 3525 4100 3525 3541 
Q 3525 3141 3298 2862 
Q 3072 2584 2669 2484 
Q 3125 2378 3379 2068 
Q 3634 1759 3634 1313 
Q 3634 634 3220 271 
Q 2806 -91 2034 -91 
Q 1263 -91 848 271 
Q 434 634 434 1313 
Q 434 1759 690 2068 
Q 947 2378 1403 2484 
z
M 1172 3481 
Q 1172 3119 1398 2916 
Q 1625 2713 2034 2713 
Q 2441 2713 2670 2916 
Q 2900 3119 2900 3481 
Q 2900 3844 2670 4047 
Q 2441 4250 2034 4250 
Q 1625 4250 1398 4047 
Q 1172 3844 1172 3481 
z
" transform="scale(0.015625)"/>
       </defs>
       <use xlink:href="#DejaVuSans-30"/>
       <use xlink:href="#DejaVuSans-2e" x="63.623047"/>
       <use xlink:href="#DejaVuSans-30" x="95.410156"/>
       <use xlink:href="#DejaVuSans-30" x="159.033203"/>
       <use xlink:href="#DejaVuSans-38" x="222.65625"/>
      </g>
     </g>
    </g>
    <g id="text_13">
     <!-- |n̂(k)|² -->
     <g transform="translate(16.798125 148.865) rotate(-90) scale(0.12 -0.12)">
      <defs>
       <path id="DejaVuSans-7c" d="M 1344 4891 
L 1344 -1509 
L 813 -1509 
L 813 4891 
L 1344 4891 
z
" transform="scale(0.015625)"/>
       <path id="DejaVuSans-6e" d="M 3513 2113 
L 3513 0 
L 2938 0 
L 2938 2094 
Q 2938 2591 2744 2837 
Q 2550 3084 2163 3084 
Q 1697 3084 1428 2787 
Q 1159 2491 1159 1978 
L 1159 0 
L 581 0 
L 581 3500 
L 1159 3500 
L 1159 2956 
Q 1366 3272 1645 3428 
Q 1925 3584 2291 3584 
Q 2894 3584 3203 3211 
Q 3513 2838 3513 2113 
z
" transform="scale(0.015625)"/>
       <path id="DejaVuSans-302" d="M -1831 5119 
L -1369 5119 
L -603 3944 
L -1038 3944 
L -1600 4709 
L -2163 3944 
L -2597 3944 
L -1831 5119 
z
M -1600 3584 
L -1600 3584 
z
" transform="scale(0.015625)"/>
       <path id="DejaVuSans-28" d="M 1984 4856 
Q 1566 4138 1362 3434 
Q 1159 2731 1159 2009 
Q 1159 1288 1364 580 
Q 1569 -128 1984 -844 
L 1484 -844 
Q 1016 -109 783 600 
Q 550 1309 550 2009 
Q 550 2706 781 3412 
Q 1013 4119 1484 4856 
L 1984 4856 
z
" transform="scale(0.015625)"/>
       <path id="DejaVuSans-6b" d="M 581 4863 
L 1159 4863 
L 1159 1991 
L 2875 3500 
L 3609 3500 
L 1753 1863 
L 3688 0 
L 2938 0 
L 1159 1709 
L 1159 0 
L 581 0 
L 581 4863 
z
" transform="scale(0.015625)"/>
       <path id="DejaVuSans-29" d="M 513 4856 
L 1013 4856 
Q 1481 4119 1714 3412 
Q 1947 2706 1947 2009 
Q 1947 1309 1714 600 
Q 1481 -109 1013 -844 
L 513 -844 
Q 928 -128 1133 580 
Q 1338 1288 1338 2009 
Q 1338 2731 1133 3434 
Q 928 4138 513 4856 
z
" transform="scale(0.015625)"/>
       <path id="DejaVuSans-b2" d="M 838 2444 
L 2163 2444 
L 2163 2088 
L 294 2088 
L 294 2431 
Q 400 2528 597 2703 
Q 1672 3656 1672 3950 
Q 1672 4156 1509 4282 
Q 1347 4409 1081 4409 
Q 919 4409 728 4354 
Q 538 4300 313 4191 
L 313 4575 
Q 553 4663 761 4706 
Q 969 4750 1147 4750 
Q 1600 4750 1872 4544 
Q 2144 4338 2144 4000 
Q 2144 3566 1109 2678 
Q 934 2528 838 2444 
z
" transform="scale(0.015625)"/>
      </defs>
      <use xlink:href="#DejaVuSans-7c"/>
      <use xlink:href="#DejaVuSans-6e" x="33.691406"/>
      <use xlink:href="#DejaVuSans-302" x="97.070312"/>
      <use xlink:href="#DejaVuSans-28" x="97.070312"/>
      <use xlink:href="#DejaVuSans-6b" x="136.083984"/>
      <use xlink:href="#DejaVuSans-29" x="193.994141"/>
      <use xlink:href="#DejaVuSans-7c" x="233.007812"/>
      <use xlink:href="#DejaVuSans-b2" x="266.699219"/>
     </g>
    </g>
   </g>
   <g id="line2d_23">
    <path d="M 64.575472 228.764825 
L 117.773946 228.767212 
L 165.652572 228.756722 
L 170.972419 227.650139 
L 176.292266 228.527644 
L 181.612114 218.422909 
L 186.931961 227.180098 
L 192.251808 218.120178 
L 197.571656 226.878819 
L 202.891503 227.000932 
L 208.21135 225.891731 
L 213.531198 227.411485 
L 218.851045 227.089284 
L 224.170892 227.733865 
L 229.49074 228.171617 
L 240.130434 228.603975 
L 256.089976 228.746879 
L 288.00906 228.76129 
L 293.328908 228.572954 
L 298.648755 228.710401 
L 303.968602 227.98665 
L 309.28845 228.504984 
L 314.608297 228.088078 
L 319.928144 228.486911 
L 325.247992 228.638253 
L 330.567839 228.571351 
L 335.887686 228.706644 
L 346.527381 228.495953 
L 351.847228 228.654674 
L 357.167076 228.495319 
L 362.486923 228.744837 
L 399.725854 228.740428 
L 479.523565 228.765033 
L 497.158125 228.759541 
L 497.158125 228.759541 
" clip-path="url(#pdc45634cb7)" style="fill: none; stroke: #e41a1c; stroke-linecap: square"/>
   </g>
   <g id="line2d_24">
    <path d="M 192.251808 218.120178 
" clip-path="url(#pdc45634cb7)" style="fill: none; stroke: #e41a1c; stroke-width: 1.5; stroke-linecap: square"/>
    <defs>
     <path id="m3b5dec2e36" d="M 0 2.5 
C 0.663008 2.5 1.29895 2.236584 1.767767 1.767767 
C 2.236584 1.29895 2.5 0.663008 2.5 0 
C 2.5 -0.663008 2.236584 -1.29895 1.767767 -1.767767 
C 1.29895 -2.236584 0.663008 -2.5 0 -2.5 
C -0.663008 -2.5 -1.29895 -2.236584 -1.767767 -1.767767 
C -2.236584 -1.29895 -2.5 -0.663008 -2.5 0 
C -2.5 0.663008 -2.236584 1.29895 -1.767767 1.767767 
C -1.29895 2.236584 -0.663008 2.5 0 2.5 
z
" style="stroke: #ffffff"/>
    </defs>
    <g clip-path="url(#pdc45634cb7)">
     <use xlink:href="#m3b5dec2e36" x="192.251808" y="218.120178" style="fill: #e41a1c; stroke: #ffffff"/>
    </g>
   </g>
   <g id="line2d_25">
    <path d="M 84.656025 238.598125 
L 84.656025 22.318125 
" clip-path="url(#pdc45634cb7)" style="fill: none; stroke-dasharray: 1,1.65; stroke-dashoffset: 0; stroke: #000000; stroke-opacity: 0.5"/>
   </g>
   <g id="line2d_26">
    <path d="M 101.589625 238.598125 
L 101.589625 22.318125 
" clip-path="url(#pdc45634cb7)" style="fill: none; stroke-dasharray: 1,1.65; stroke-dashoffset: 0; stroke: #000000; stroke-opacity: 0.5"/>
   </g>
   <g id="line2d_27">
    <path d="M 64.575472 205.211911 
L 69.89532 205.212098 
L 75.215167 204.758507 
L 80.535014 205.169865 
L 85.854862 204.734424 
L 91.174709 205.020022 
L 96.494556 205.169591 
L 101.814404 204.9227 
L 107.134251 205.140425 
L 117.773946 204.997469 
L 123.093793 205.186401 
L 128.41364 205.186146 
L 133.733488 205.05692 
L 139.053335 205.215752 
L 149.69303 205.122667 
L 155.012877 205.208893 
L 170.972419 205.016389 
L 176.292266 204.739272 
L 181.612114 202.718165 
L 186.931961 201.832054 
L 192.251808 201.575609 
L 197.571656 200.055555 
L 202.891503 201.701498 
L 208.21135 204.790312 
L 213.531198 203.280331 
L 218.851045 203.807046 
L 224.170892 198.838149 
L 229.49074 204.261406 
L 234.810587 204.542816 
L 240.130434 204.155983 
L 245.450282 204.629609 
L 250.770129 204.924538 
L 256.089976 203.833361 
L 261.409824 205.167084 
L 266.729671 202.818641 
L 272.049518 205.019269 
L 277.369366 204.751034 
L 282.689213 205.214692 
L 288.00906 204.875663 
L 303.968602 205.107855 
L 309.28845 205.051264 
L 314.608297 205.116516 
L 319.928144 204.683824 
L 325.247992 204.985599 
L 330.567839 204.742563 
L 341.207534 205.085822 
L 351.847228 205.033329 
L 357.167076 205.157371 
L 362.486923 204.703119 
L 378.446465 205.109478 
L 394.406007 205.220105 
L 399.725854 204.954044 
L 405.045702 205.18088 
L 463.564023 205.120149 
L 479.523565 205.1965 
L 484.843412 205.123157 
L 495.483107 205.214264 
L 497.158125 205.211728 
L 497.158125 205.211728 
" clip-path="url(#pdc45634cb7)" style="fill: none; stroke: #377eb8; stroke-linecap: square"/>
   </g>
   <g id="line2d_28">
    <path d="M 224.170892 198.838149 
" clip-path="url(#pdc45634cb7)" style="fill: none; stroke: #377eb8; stroke-width: 1.5; stroke-linecap: square"/>
    <defs>
     <path id="m02c5b555ad" d="M 0 2.5 
C 0.663008 2.5 1.29895 2.236584 1.767767 1.767767 
C 2.236584 1.29895 2.5 0.663008 2.5 0 
C 2.5 -0.663008 2.236584 -1.29895 1.767767 -1.767767 
C 1.29895 -2.236584 0.663008 -2.5 0 -2.5 
C -0.663008 -2.5 -1.29895 -2.236584 -1.767767 -1.767767 
C -2.236584 -1.29895 -2.5 -0.663008 -2.5 0 
C -2.5 0.663008 -2.236584 1.29895 -1.767767 1.767767 
C -1.29895 2.236584 -0.663008 2.5 0 2.5 
z
" style="stroke: #ffffff"/>
    </defs>
    <g clip-path="url(#pdc45634cb7)">
     <use xlink:href="#m02c5b555ad" x="224.170892" y="198.838149" style="fill: #377eb8; stroke: #ffffff"/>
    </g>
   </g>
   <g id="line2d_29">
    <path d="M 84.656025 238.598125 
L 84.656025 22.318125 
" clip-path="url(#pdc45634cb7)" style="fill: none; stroke-dasharray: 1,1.65; stroke-dashoffset: 0; stroke: #000000; stroke-opacity: 0.5"/>
   </g>
   <g id="line2d_30">
    <path d="M 101.589625 238.598125 
L 101.589625 22.318125 
" clip-path="url(#pdc45634cb7)" style="fill: none; stroke-dasharray: 1,1.65; stroke-dashoffset: 0; stroke: #000000; stroke-opacity: 0.5"/>
   </g>
   <g id="line2d_31">
    <path d="M 64.575472 181.673811 
L 107.134251 181.671347 
L 112.454098 137.894328 
L 117.773946 181.671267 
L 160.332724 181.672988 
L 165.652572 176.307655 
L 170.972419 181.673149 
L 213.531198 181.673896 
L 218.851045 180.48318 
L 224.170892 181.674018 
L 266.729671 181.674383 
L 272.049518 181.345474 
L 277.369366 181.674456 
L 497.158125 181.674874 
L 497.158125 181.674874 
" clip-path="url(#pdc45634cb7)" style="fill: none; stroke: #4daf4a; stroke-linecap: square"/>
   </g>
   <g id="line2d_32">
    <path d="M 112.454098 137.894328 
" clip-path="url(#pdc45634cb7)" style="fill: none; stroke: #4daf4a; stroke-width: 1.5; stroke-linecap: square"/>
    <defs>
     <path id="m016955bc3e" d="M 0 2.5 
C 0.663008 2.5 1.29895 2.236584 1.767767 1.767767 
C 2.236584 1.29895 2.5 0.663008 2.5 0 
C 2.5 -0.663008 2.236584 -1.29895 1.767767 -1.767767 
C 1.29895 -2.236584 0.663008 -2.5 0 -2.5 
C -0.663008 -2.5 -1.29895 -2.236584 -1.767767 -1.767767 
C -2.236584 -1.29895 -2.5 -0.663008 -2.5 0 
C -2.5 0.663008 -2.236584 1.29895 -1.767767 1.767767 
C -1.29895 2.236584 -0.663008 2.5 0 2.5 
z
" style="stroke: #ffffff"/>
    </defs>
    <g clip-path="url(#pdc45634cb7)">
     <use xlink:href="#m016955bc3e" x="112.454098" y="137.894328" style="fill: #4daf4a; stroke: #ffffff"/>
    </g>
   </g>
   <g id="line2d_33">
    <path d="M 84.656025 238.598125 
L 84.656025 22.318125 
" clip-path="url(#pdc45634cb7)" style="fill: none; stroke-dasharray: 1,1.65; stroke-dashoffset: 0; stroke: #000000; stroke-opacity: 0.5"/>
   </g>
   <g id="line2d_34">
    <path d="M 101.589625 238.598125 
L 101.589625 22.318125 
" clip-path="url(#pdc45634cb7)" style="fill: none; stroke-dasharray: 1,1.65; stroke-dashoffset: 0; stroke: #000000; stroke-opacity: 0.5"/>
   </g>
   <g id="line2d_35">
    <path d="M 64.575472 158.101725 
L 123.093793 158.128653 
L 497.158125 158.128705 
L 497.158125 158.128705 
" clip-path="url(#pdc45634cb7)" style="fill: none; stroke: #984ea3; stroke-linecap: square"/>
   </g>
   <g id="line2d_36">
    <path d="M 64.575472 158.101725 
" clip-path="url(#pdc45634cb7)" style="fill: none; stroke: #984ea3; stroke-width: 1.5; stroke-linecap: square"/>
    <defs>
     <path id="m74a3a3d409" d="M 0 2.5 
C 0.663008 2.5 1.29895 2.236584 1.767767 1.767767 
C 2.236584 1.29895 2.5 0.663008 2.5 0 
C 2.5 -0.663008 2.236584 -1.29895 1.767767 -1.767767 
C 1.29895 -2.236584 0.663008 -2.5 0 -2.5 
C -0.663008 -2.5 -1.29895 -2.236584 -1.767767 -1.767767 
C -2.236584 -1.29895 -2.5 -0.663008 -2.5 0 
C -2.5 0.663008 -2.236584 1.29895 -1.767767 1.767767 
C -1.29895 2.236584 -0.663008 2.5 0 2.5 
z
" style="stroke: #ffffff"/>
    </defs>
    <g clip-path="url(#pdc45634cb7)">
     <use xlink:href="#m74a3a3d409" x="64.575472" y="158.101725" style="fill: #984ea3; stroke: #ffffff"/>
    </g>
   </g>
   <g id="line2d_37">
    <path d="M 84.656025 238.598125 
L 84.656025 22.318125 
" clip-path="url(#pdc45634cb7)" style="fill: none; stroke-dasharray: 1,1.65; stroke-dashoffset: 0; stroke: #000000; stroke-opacity: 0.5"/>
   </g>
   <g id="line2d_38">
    <path d="M 101.589625 238.598125 
L 101.589625 22.318125 
" clip-path="url(#pdc45634cb7)" style="fill: none; stroke-dasharray: 1,1.65; stroke-dashoffset: 0; stroke: #000000; stroke-opacity: 0.5"/>
   </g>
   <g id="line2d_39">
    <path d="M 64.575472 134.560721 
L 96.494556 134.550867 
L 101.814404 133.882696 
L 107.134251 134.447226 
L 117.773946 134.568568 
L 149.69303 134.507271 
L 165.652572 134.393219 
L 170.972419 133.78307 
L 176.292266 134.265232 
L 181.612114 134.563028 
L 186.931961 133.59242 
L 192.251808 134.055853 
L 197.571656 133.343348 
L 202.891503 133.114496 
L 208.21135 131.921622 
L 213.531198 132.769134 
L 218.851045 130.262907 
L 224.170892 133.359308 
L 229.49074 132.862795 
L 234.810587 130.747025 
L 240.130434 129.117716 
L 245.450282 134.500066 
L 250.770129 132.260382 
L 256.089976 133.569669 
L 261.409824 133.59329 
L 266.729671 134.093463 
L 272.049518 132.809001 
L 277.369366 134.382364 
L 282.689213 134.272144 
L 293.328908 134.463002 
L 309.28845 134.558274 
L 314.608297 134.210009 
L 319.928144 134.573109 
L 357.167076 134.396352 
L 362.486923 134.259977 
L 367.80677 134.538265 
L 373.126618 134.502706 
L 378.446465 134.283759 
L 383.766312 134.176273 
L 389.08616 134.553066 
L 405.045702 134.41714 
L 410.365549 134.579309 
L 415.685397 134.396697 
L 426.325091 134.581658 
L 431.644939 134.246429 
L 436.964786 134.497193 
L 442.284633 134.562433 
L 447.604481 134.46582 
L 452.924328 134.582247 
L 497.158125 134.505797 
L 497.158125 134.505797 
" clip-path="url(#pdc45634cb7)" style="fill: none; stroke: #ff7f00; stroke-linecap: square"/>
   </g>
   <g id="line2d_40">
    <path d="M 240.130434 129.117716 
" clip-path="url(#pdc45634cb7)" style="fill: none; stroke: #ff7f00; stroke-width: 1.5; stroke-linecap: square"/>
    <defs>
     <path id="m86785c8734" d="M 0 2.5 
C 0.663008 2.5 1.29895 2.236584 1.767767 1.767767 
C 2.236584 1.29895 2.5 0.663008 2.5 0 
C 2.5 -0.663008 2.236584 -1.29895 1.767767 -1.767767 
C 1.29895 -2.236584 0.663008 -2.5 0 -2.5 
C -0.663008 -2.5 -1.29895 -2.236584 -1.767767 -1.767767 
C -2.236584 -1.29895 -2.5 -0.663008 -2.5 0 
C -2.5 0.663008 -2.236584 1.29895 -1.767767 1.767767 
C -1.29895 2.236584 -0.663008 2.5 0 2.5 
z
" style="stroke: #ffffff"/>
    </defs>
    <g clip-path="url(#pdc45634cb7)">
     <use xlink:href="#m86785c8734" x="240.130434" y="129.117716" style="fill: #ff7f00; stroke: #ffffff"/>
    </g>
   </g>
   <g id="line2d_41">
    <path d="M 101.589625 238.598125 
L 101.589625 22.318125 
" clip-path="url(#pdc45634cb7)" style="fill: none; stroke-dasharray: 1,1.65; stroke-dashoffset: 0; stroke: #000000; stroke-opacity: 0.5"/>
   </g>
   <g id="line2d_42">
    <path d="M 126.990025 238.598125 
L 126.990025 22.318125 
" clip-path="url(#pdc45634cb7)" style="fill: none; stroke-dasharray: 1,1.65; stroke-dashoffset: 0; stroke: #000000; stroke-opacity: 0.5"/>
   </g>
   <g id="line2d_43">
    <path d="M 64.575472 111.031483 
L 91.174709 111.014742 
L 139.053335 111.036292 
L 208.21135 110.821351 
L 213.531198 110.145085 
L 218.851045 109.874884 
L 224.170892 108.540864 
L 229.49074 109.186905 
L 234.810587 107.540284 
L 240.130434 109.59688 
L 245.450282 109.189965 
L 250.770129 110.857332 
L 256.089976 101.99774 
L 261.409824 109.265461 
L 266.729671 109.925138 
L 272.049518 108.732581 
L 277.369366 110.951997 
L 282.689213 110.27206 
L 288.00906 110.993415 
L 298.648755 110.930455 
L 303.968602 111.031558 
L 309.28845 110.887024 
L 325.247992 110.99247 
L 383.766312 110.886426 
L 389.08616 110.767868 
L 394.406007 110.76908 
L 399.725854 110.913496 
L 431.644939 110.975617 
L 436.964786 111.030329 
L 442.284633 110.699909 
L 447.604481 111.003279 
L 452.924328 110.876117 
L 458.244175 111.031232 
L 463.564023 110.99295 
L 468.88387 110.69491 
L 474.203717 111.02852 
L 479.523565 110.852806 
L 484.843412 111.007909 
L 497.158125 111.011749 
L 497.158125 111.011749 
" clip-path="url(#pdc45634cb7)" style="fill: none; stroke: #a65628; stroke-linecap: square"/>
   </g>
   <g id="line2d_44">
    <path d="M 256.089976 101.99774 
" clip-path="url(#pdc45634cb7)" style="fill: none; stroke: #a65628; stroke-width: 1.5; stroke-linecap: square"/>
    <defs>
     <path id="m922d47805d" d="M 0 2.5 
C 0.663008 2.5 1.29895 2.236584 1.767767 1.767767 
C 2.236584 1.29895 2.5 0.663008 2.5 0 
C 2.5 -0.663008 2.236584 -1.29895 1.767767 -1.767767 
C 1.29895 -2.236584 0.663008 -2.5 0 -2.5 
C -0.663008 -2.5 -1.29895 -2.236584 -1.767767 -1.767767 
C -2.236584 -1.29895 -2.5 -0.663008 -2.5 0 
C -2.5 0.663008 -2.236584 1.29895 -1.767767 1.767767 
C -1.29895 2.236584 -0.663008 2.5 0 2.5 
z
" style="stroke: #ffffff"/>
    </defs>
    <g clip-path="url(#pdc45634cb7)">
     <use xlink:href="#m922d47805d" x="256.089976" y="101.99774" style="fill: #a65628; stroke: #ffffff"/>
    </g>
   </g>
   <g id="line2d_45">
    <path d="M 126.990025 238.598125 
L 126.990025 22.318125 
" clip-path="url(#pdc45634cb7)" style="fill: none; stroke-dasharray: 1,1.65; stroke-dashoffset: 0; stroke: #000000; stroke-opacity: 0.5"/>
   </g>
   <g id="line2d_46">
    <path d="M 169.324025 238.598125 
L 169.324025 22.318125 
" clip-path="url(#pdc45634cb7)" style="fill: none; stroke-dasharray: 1,1.65; stroke-dashoffset: 0; stroke: #000000; stroke-opacity: 0.5"/>
   </g>
   <g id="line2d_47">
    <path d="M 64.575472 87.479831 
L 69.89532 87.467961 
L 75.215167 87.284898 
L 80.535014 87.477931 
L 107.134251 87.434565 
L 128.41364 87.459331 
L 155.012877 87.479241 
L 170.972419 87.478113 
L 202.891503 87.475599 
L 213.531198 87.48269 
L 218.851045 87.129329 
L 224.170892 87.200576 
L 229.49074 87.009641 
L 234.810587 86.501874 
L 240.130434 86.867795 
L 245.450282 85.987489 
L 250.770129 87.079307 
L 256.089976 83.323651 
L 261.409824 87.434405 
L 266.729671 87.125797 
L 272.049518 87.181107 
L 277.369366 87.364626 
L 282.689213 84.415546 
L 288.00906 86.387885 
L 293.328908 86.509284 
L 298.648755 85.858821 
L 303.968602 87.381669 
L 309.28845 85.311141 
L 314.608297 87.219229 
L 319.928144 86.989784 
L 325.247992 86.639265 
L 330.567839 87.349317 
L 373.126618 87.481861 
L 394.406007 87.387476 
L 399.725854 87.482377 
L 405.045702 87.407231 
L 421.005244 87.425113 
L 497.158125 87.464816 
L 497.158125 87.464816 
" clip-path="url(#pdc45634cb7)" style="fill: none; stroke: #f781bf; stroke-linecap: square"/>
   </g>
   <g id="line2d_48">
    <path d="M 256.089976 83.323651 
" clip-path="url(#pdc45634cb7)" style="fill: none; stroke: #f781bf; stroke-width: 1.5; stroke-linecap: square"/>
    <defs>
     <path id="me20258e117" d="M 0 2.5 
C 0.663008 2.5 1.29895 2.236584 1.767767 1.767767 
C 2.236584 1.29895 2.5 0.663008 2.5 0 
C 2.5 -0.663008 2.236584 -1.29895 1.767767 -1.767767 
C 1.29895 -2.236584 0.663008 -2.5 0 -2.5 
C -0.663008 -2.5 -1.29895 -2.236584 -1.767767 -1.767767 
C -2.236584 -1.29895 -2.5 -0.663008 -2.5 0 
C -2.5 0.663008 -2.236584 1.29895 -1.767767 1.767767 
C -1.29895 2.236584 -0.663008 2.5 0 2.5 
z
" style="stroke: #ffffff"/>
    </defs>
    <g clip-path="url(#pdc45634cb7)">
     <use xlink:href="#me20258e117" x="256.089976" y="83.323651" style="fill: #f781bf; stroke: #ffffff"/>
    </g>
   </g>
   <g id="line2d_49">
    <path d="M 169.324025 238.598125 
L 169.324025 22.318125 
" clip-path="url(#pdc45634cb7)" style="fill: none; stroke-dasharray: 1,1.65; stroke-dashoffset: 0; stroke: #000000; stroke-opacity: 0.5"/>
   </g>
   <g id="line2d_50">
    <path d="M 237.058425 238.598125 
L 237.058425 22.318125 
" clip-path="url(#pdc45634cb7)" style="fill: none; stroke-dasharray: 1,1.65; stroke-dashoffset: 0; stroke: #000000; stroke-opacity: 0.5"/>
   </g>
   <g id="line2d_51">
    <path d="M 64.575472 63.943542 
L 80.535014 63.912666 
L 85.854862 63.257977 
L 91.174709 63.937588 
L 112.454098 63.715528 
L 117.773946 63.942299 
L 128.41364 63.915688 
L 160.332724 63.856935 
L 170.972419 63.931537 
L 202.891503 63.933847 
L 208.21135 63.849978 
L 218.851045 63.872341 
L 224.170892 63.825824 
L 229.49074 63.918695 
L 250.770129 63.862761 
L 256.089976 63.574222 
L 261.409824 63.800798 
L 266.729671 62.881575 
L 272.049518 63.678537 
L 277.369366 63.603047 
L 282.689213 53.412579 
L 288.00906 63.856682 
L 293.328908 63.677228 
L 298.648755 63.8056 
L 303.968602 63.684107 
L 309.28845 61.604565 
L 314.608297 63.724276 
L 319.928144 63.672429 
L 325.247992 63.307634 
L 330.567839 63.793523 
L 335.887686 63.849268 
L 341.207534 63.659221 
L 346.527381 63.81359 
L 373.126618 63.931356 
L 378.446465 63.87334 
L 389.08616 63.928509 
L 399.725854 63.940039 
L 431.644939 63.936804 
L 497.158125 63.912819 
L 497.158125 63.912819 
" clip-path="url(#pdc45634cb7)" style="fill: none; stroke: #999999; stroke-linecap: square"/>
   </g>
   <g id="line2d_52">
    <path d="M 282.689213 53.412579 
" clip-path="url(#pdc45634cb7)" style="fill: none; stroke: #999999; stroke-width: 1.5; stroke-linecap: square"/>
    <defs>
     <path id="m12198512fb" d="M 0 2.5 
C 0.663008 2.5 1.29895 2.236584 1.767767 1.767767 
C 2.236584 1.29895 2.5 0.663008 2.5 0 
C 2.5 -0.663008 2.236584 -1.29895 1.767767 -1.767767 
C 1.29895 -2.236584 0.663008 -2.5 0 -2.5 
C -0.663008 -2.5 -1.29895 -2.236584 -1.767767 -1.767767 
C -2.236584 -1.29895 -2.5 -0.663008 -2.5 0 
C -2.5 0.663008 -2.236584 1.29895 -1.767767 1.767767 
C -1.29895 2.236584 -0.663008 2.5 0 2.5 
z
" style="stroke: #ffffff"/>
    </defs>
    <g clip-path="url(#pdc45634cb7)">
     <use xlink:href="#m12198512fb" x="282.689213" y="53.412579" style="fill: #999999; stroke: #ffffff"/>
    </g>
   </g>
   <g id="line2d_53">
    <path d="M 237.058425 238.598125 
L 237.058425 22.318125 
" clip-path="url(#pdc45634cb7)" style="fill: none; stroke-dasharray: 1,1.65; stroke-dashoffset: 0; stroke: #000000; stroke-opacity: 0.5"/>
   </g>
   <g id="line2d_54">
    <path d="M 347.126825 238.598125 
L 347.126825 22.318125 
" clip-path="url(#pdc45634cb7)" style="fill: none; stroke-dasharray: 1,1.65; stroke-dashoffset: 0; stroke: #000000; stroke-opacity: 0.5"/>
   </g>
   <g id="line2d_55">
    <path d="M 64.575472 40.397854 
L 123.093793 40.397853 
L 128.41364 40.275951 
L 133.733488 40.39783 
L 165.652572 40.397819 
L 170.972419 40.282984 
L 176.292266 40.397852 
L 234.810587 40.39784 
L 240.130434 39.746873 
L 245.450282 40.397798 
L 277.369366 40.397505 
L 282.689213 39.358364 
L 288.00906 40.397843 
L 319.928144 40.397765 
L 325.247992 40.256836 
L 330.567839 40.397713 
L 346.527381 40.39767 
L 351.847228 32.149034 
L 357.167076 40.397661 
L 497.158125 40.397836 
L 497.158125 40.397836 
" clip-path="url(#pdc45634cb7)" style="fill: none; stroke: #e41a1c; stroke-linecap: square"/>
   </g>
   <g id="line2d_56">
    <path d="M 351.847228 32.149034 
" clip-path="url(#pdc45634cb7)" style="fill: none; stroke: #e41a1c; stroke-width: 1.5; stroke-linecap: square"/>
    <g clip-path="url(#pdc45634cb7)">
     <use xlink:href="#m3b5dec2e36" x="351.847228" y="32.149034" style="fill: #e41a1c; stroke: #ffffff"/>
    </g>
   </g>
   <g id="line2d_57">
    <path d="M 347.126825 238.598125 
L 347.126825 22.318125 
" clip-path="url(#pdc45634cb7)" style="fill: none; stroke-dasharray: 1,1.65; stroke-dashoffset: 0; stroke: #000000; stroke-opacity: 0.5"/>
   </g>
   <g id="line2d_58">
    <path clip-path="url(#pdc45634cb7)" style="fill: none; stroke-dasharray: 1,1.65; stroke-dashoffset: 0; stroke: #000000; stroke-opacity: 0.5"/>
   </g>
   <g id="patch_3">
    <path d="M 59.255625 238.598125 
L 59.255625 22.318125 
" style="fill: none; stroke: #000000; stroke-width: 0.8; stroke-linejoin: miter; stroke-linecap: square"/>
   </g>
   <g id="patch_4">
    <path d="M 59.255625 238.598125 
L 482.595625 238.598125 
" style="fill: none; stroke: #000000; stroke-width: 0.8; stroke-linejoin: miter; stroke-linecap: square"/>
   </g>
   <g id="text_14">
    <!-- Combined spectra -->
    <g transform="translate(216.112812 16.318125) scale(0.12 -0.12)">
     <defs>
      <path id="DejaVuSans-43" d="M 4122 4306 
L 4122 3641 
Q 3803 3938 3442 4084 
Q 3081 4231 2675 4231 
Q 1875 4231 1450 3742 
Q 1025 3253 1025 2328 
Q 1025 1406 1450 917 
Q 1875 428 2675 428 
Q 3081 428 3442 575 
Q 3803 722 4122 1019 
L 4122 359 
Q 3791 134 3420 21 
Q 3050 -91 2638 -91 
Q 1578 -91 968 557 
Q 359 1206 359 2328 
Q 359 3453 968 4101 
Q 1578 4750 2638 4750 
Q 3056 4750 3426 4639 
Q 3797 4528 4122 4306 
z
" transform="scale(0.015625)"/>
      <path id="DejaVuSans-6f" d="M 1959 3097 
Q 1497 3097 1228 2736 
Q 959 2375 959 1747 
Q 959 1119 1226 758 
Q 1494 397 1959 397 
Q 2419 397 2687 759 
Q 2956 1122 2956 1747 
Q 2956 2369 2687 2733 
Q 2419 3097 1959 3097 
z
M 1959 3584 
Q 2709 3584 3137 3096 
Q 3566 2609 3566 1747 
Q 3566 888 3137 398 
Q 2709 -91 1959 -91 
Q 1206 -91 779 398 
Q 353 888 353 1747 
Q 353 2609 779 3096 
Q 1206 3584 1959 3584 
z
" transform="scale(0.015625)"/>
      <path id="DejaVuSans-6d" d="M 3328 2828 
Q 3544 3216 3844 3400 
Q 4144 3584 4550 3584 
Q 5097 3584 5394 3201 
Q 5691 2819 5691 2113 
L 5691 0 
L 5113 0 
L 5113 2094 
Q 5113 2597 4934 2840 
Q 4756 3084 4391 3084 
Q 3944 3084 3684 2787 
Q 3425 2491 3425 1978 
L 3425 0 
L 2847 0 
L 2847 2094 
Q 2847 2600 2669 2842 
Q 2491 3084 2119 3084 
Q 1678 3084 1418 2786 
Q 1159 2488 1159 1978 
L 1159 0 
L 581 0 
L 581 3500 
L 1159 3500 
L 1159 2956 
Q 1356 3278 1631 3431 
Q 1906 3584 2284 3584 
Q 2666 3584 2933 3390 
Q 3200 3197 3328 2828 
z
" transform="scale(0.015625)"/>
      <path id="DejaVuSans-62" d="M 3116 1747 
Q 3116 2381 2855 2742 
Q 2594 3103 2138 3103 
Q 1681 3103 1420 2742 
Q 1159 2381 1159 1747 
Q 1159 1113 1420 752 
Q 1681 391 2138 391 
Q 2594 391 2855 752 
Q 3116 1113 3116 1747 
z
M 1159 2969 
Q 1341 3281 1617 3432 
Q 1894 3584 2278 3584 
Q 2916 3584 3314 3078 
Q 3713 2572 3713 1747 
Q 3713 922 3314 415 
Q 2916 -91 2278 -91 
Q 1894 -91 1617 61 
Q 1341 213 1159 525 
L 1159 0 
L 581 0 
L 581 4863 
L 1159 4863 
L 1159 2969 
z
" transform="scale(0.015625)"/>
      <path id="DejaVuSans-69" d="M 603 3500 
L 1178 3500 
L 1178 0 
L 603 0 
L 603 3500 
z
M 603 4863 
L 1178 4863 
L 1178 4134 
L 603 4134 
L 603 4863 
z
" transform="scale(0.015625)"/>
      <path id="DejaVuSans-65" d="M 3597 1894 
L 3597 1613 
L 953 1613 
Q 991 1019 1311 708 
Q 1631 397 2203 397 
Q 2534 397 2845 478 
Q 3156 559 3463 722 
L 3463 178 
Q 3153 47 2828 -22 
Q 2503 -91 2169 -91 
Q 1331 -91 842 396 
Q 353 884 353 1716 
Q 353 2575 817 3079 
Q 1281 3584 2069 3584 
Q 2775 3584 3186 3129 
Q 3597 2675 3597 1894 
z
M 3022 2063 
Q 3016 2534 2758 2815 
Q 2500 3097 2075 3097 
Q 1594 3097 1305 2825 
Q 1016 2553 972 2059 
L 3022 2063 
z
" transform="scale(0.015625)"/>
      <path id="DejaVuSans-64" d="M 2906 2969 
L 2906 4863 
L 3481 4863 
L 3481 0 
L 2906 0 
L 2906 525 
Q 2725 213 2448 61 
Q 2172 -91 1784 -91 
Q 1150 -91 751 415 
Q 353 922 353 1747 
Q 353 2572 751 3078 
Q 1150 3584 1784 3584 
Q 2172 3584 2448 3432 
Q 2725 3281 2906 2969 
z
M 947 1747 
Q 947 1113 1208 752 
Q 1469 391 1925 391 
Q 2381 391 2643 752 
Q 2906 1113 2906 1747 
Q 2906 2381 2643 2742 
Q 2381 3103 1925 3103 
Q 1469 3103 1208 2742 
Q 947 2381 947 1747 
z
" transform="scale(0.015625)"/>
      <path id="DejaVuSans-20" transform="scale(0.015625)"/>
      <path id="DejaVuSans-73" d="M 2834 3397 
L 2834 2853 
Q 2591 2978 2328 3040 
Q 2066 3103 1784 3103 
Q 1356 3103 1142 2972 
Q 928 2841 928 2578 
Q 928 2378 1081 2264 
Q 1234 2150 1697 2047 
L 1894 2003 
Q 2506 1872 2764 1633 
Q 3022 1394 3022 966 
Q 3022 478 2636 193 
Q 2250 -91 1575 -91 
Q 1294 -91 989 -36 
Q 684 19 347 128 
L 347 722 
Q 666 556 975 473 
Q 1284 391 1588 391 
Q 1994 391 2212 530 
Q 2431 669 2431 922 
Q 2431 1156 2273 1281 
Q 2116 1406 1581 1522 
L 1381 1569 
Q 847 1681 609 1914 
Q 372 2147 372 2553 
Q 372 3047 722 3315 
Q 1072 3584 1716 3584 
Q 2034 3584 2315 3537 
Q 2597 3491 2834 3397 
z
" transform="scale(0.015625)"/>
      <path id="DejaVuSans-70" d="M 1159 525 
L 1159 -1331 
L 581 -1331 
L 581 3500 
L 1159 3500 
L 1159 2969 
Q 1341 3281 1617 3432 
Q 1894 3584 2278 3584 
Q 2916 3584 3314 3078 
Q 3713 2572 3713 1747 
Q 3713 922 3314 415 
Q 2916 -91 2278 -91 
Q 1894 -91 1617 61 
Q 1341 213 1159 525 
z
M 3116 1747 
Q 3116 2381 2855 2742 
Q 2594 3103 2138 3103 
Q 1681 3103 1420 2742 
Q 1159 2381 1159 1747 
Q 1159 1113 1420 752 
Q 1681 391 2138 391 
Q 2594 391 2855 752 
Q 3116 1113 3116 1747 
z
" transform="scale(0.015625)"/>
      <path id="DejaVuSans-63" d="M 3122 3366 
L 3122 2828 
Q 2878 2963 2633 3030 
Q 2388 3097 2138 3097 
Q 1578 3097 1268 2742 
Q 959 2388 959 1747 
Q 959 1106 1268 751 
Q 1578 397 2138 397 
Q 2388 397 2633 464 
Q 2878 531 3122 666 
L 3122 134 
Q 2881 22 2623 -34 
Q 2366 -91 2075 -91 
Q 1284 -91 818 406 
Q 353 903 353 1747 
Q 353 2603 823 3093 
Q 1294 3584 2113 3584 
Q 2378 3584 2631 3529 
Q 2884 3475 3122 3366 
z
" transform="scale(0.015625)"/>
      <path id="DejaVuSans-74" d="M 1172 4494 
L 1172 3500 
L 2356 3500 
L 2356 3053 
L 1172 3053 
L 1172 1153 
Q 1172 725 1289 603 
Q 1406 481 1766 481 
L 2356 481 
L 2356 0 
L 1766 0 
Q 1100 0 847 248 
Q 594 497 594 1153 
L 594 3053 
L 172 3053 
L 172 3500 
L 594 3500 
L 594 4494 
L 1172 4494 
z
" transform="scale(0.015625)"/>
      <path id="DejaVuSans-72" d="M 2631 2963 
Q 2534 3019 2420 3045 
Q 2306 3072 2169 3072 
Q 1681 3072 1420 2755 
Q 1159 2438 1159 1844 
L 1159 0 
L 581 0 
L 581 3500 
L 1159 3500 
L 1159 2956 
Q 1341 3275 1631 3429 
Q 1922 3584 2338 3584 
Q 2397 3584 2469 3576 
Q 2541 3569 2628 3553 
L 2631 2963 
z
" transform="scale(0.015625)"/>
      <path id="DejaVuSans-61" d="M 2194 1759 
Q 1497 1759 1228 1600 
Q 959 1441 959 1056 
Q 959 750 1161 570 
Q 1363 391 1709 391 
Q 2188 391 2477 730 
Q 2766 1069 2766 1631 
L 2766 1759 
L 2194 1759 
z
M 3341 1997 
L 3341 0 
L 2766 0 
L 2766 531 
Q 2569 213 2275 61 
Q 1981 -91 1556 -91 
Q 1019 -91 701 211 
Q 384 513 384 1019 
Q 384 1609 779 1909 
Q 1175 2209 1959 2209 
L 2766 2209 
L 2766 2266 
Q 2766 2663 2505 2880 
Q 2244 3097 1772 3097 
Q 1472 3097 1187 3025 
Q 903 2953 641 2809 
L 641 3341 
Q 956 3463 1253 3523 
Q 1550 3584 1831 3584 
Q 2591 3584 2966 3190 
Q 3341 2797 3341 1997 
z
" transform="scale(0.015625)"/>
     </defs>
     <use xlink:href="#DejaVuSans-43"/>
     <use xlink:href="#DejaVuSans-6f" x="69.824219"/>
     <use xlink:href="#DejaVuSans-6d" x="131.005859"/>
     <use xlink:href="#DejaVuSans-62" x="228.417969"/>
     <use xlink:href="#DejaVuSans-69" x="291.894531"/>
     <use xlink:href="#DejaVuSans-6e" x="319.677734"/>
     <use xlink:href="#DejaVuSans-65" x="383.056641"/>
     <use xlink:href="#DejaVuSans-64" x="444.580078"/>
     <use xlink:href="#DejaVuSans-20" x="508.056641"/>
     <use xlink:href="#DejaVuSans-73" x="539.84375"/>
     <use xlink:href="#DejaVuSans-70" x="591.943359"/>
     <use xlink:href="#DejaVuSans-65" x="655.419922"/>
     <use xlink:href="#DejaVuSans-63" x="716.943359"/>
     <use xlink:href="#DejaVuSans-74" x="771.923828"/>
     <use xlink:href="#DejaVuSans-72" x="811.132812"/>
     <use xlink:href="#DejaVuSans-61" x="852.246094"/>
    </g>
   </g>
   <g id="legend_1">
    <g id="line2d_59">
     <path d="M 180.595625 178.678125 
L 188.595625 178.678125 
L 196.595625 178.678125 
" style="fill: none; stroke: #e41a1c; stroke-linecap: square"/>
    </g>
    <g id="text_15">
     <!-- $\cos(3x) + \cos(5x)$ (t=t_final) -->
     <g transform="translate(202.995625 181.478125) scale(0.08 -0.08)">
      <defs>
       <path id="DejaVuSans-Oblique-78" d="M 3841 3500 
L 2234 1784 
L 3219 0 
L 2559 0 
L 1819 1388 
L 531 0 
L -166 0 
L 1556 1844 
L 641 3500 
L 1300 3500 
L 1972 2234 
L 3144 3500 
L 3841 3500 
z
" transform="scale(0.015625)"/>
       <path id="DejaVuSans-2b" d="M 2944 4013 
L 2944 2272 
L 4684 2272 
L 4684 1741 
L 2944 1741 
L 2944 0 
L 2419 0 
L 2419 1741 
L 678 1741 
L 678 2272 
L 2419 2272 
L 2419 4013 
L 2944 4013 
z
" transform="scale(0.015625)"/>
       <path id="DejaVuSans-3d" d="M 678 2906 
L 4684 2906 
L 4684 2381 
L 678 2381 
L 678 2906 
z
M 678 1631 
L 4684 1631 
L 4684 1100 
L 678 1100 
L 678 1631 
z
" transform="scale(0.015625)"/>
       <path id="DejaVuSans-5f" d="M 3263 -1063 
L 3263 -1509 
L -63 -1509 
L -63 -1063 
L 3263 -1063 
z
" transform="scale(0.015625)"/>
       <path id="DejaVuSans-66" d="M 2375 4863 
L 2375 4384 
L 1825 4384 
Q 1516 4384 1395 4259 
Q 1275 4134 1275 3809 
L 1275 3500 
L 2222 3500 
L 2222 3053 
L 1275 3053 
L 1275 0 
L 697 0 
L 697 3053 
L 147 3053 
L 147 3500 
L 697 3500 
L 697 3744 
Q 697 4328 969 4595 
Q 1241 4863 1831 4863 
L 2375 4863 
z
" transform="scale(0.015625)"/>
       <path id="DejaVuSans-6c" d="M 603 4863 
L 1178 4863 
L 1178 0 
L 603 0 
L 603 4863 
z
" transform="scale(0.015625)"/>
      </defs>
      <use xlink:href="#DejaVuSans-63" transform="translate(0 0.015625)"/>
      <use xlink:href="#DejaVuSans-6f" transform="translate(54.980469 0.015625)"/>
      <use xlink:href="#DejaVuSans-73" transform="translate(116.162109 0.015625)"/>
      <use xlink:href="#DejaVuSans-28" transform="translate(168.261719 0.015625)"/>
      <use xlink:href="#DejaVuSans-33" transform="translate(207.275391 0.015625)"/>
      <use xlink:href="#DejaVuSans-Oblique-78" transform="translate(270.898438 0.015625)"/>
      <use xlink:href="#DejaVuSans-29" transform="translate(330.078125 0.015625)"/>
      <use xlink:href="#DejaVuSans-2b" transform="translate(388.574219 0.015625)"/>
      <use xlink:href="#DejaVuSans-63" transform="translate(491.845703 0.015625)"/>
      <use xlink:href="#DejaVuSans-6f" transform="translate(546.826172 0.015625)"/>
      <use xlink:href="#DejaVuSans-73" transform="translate(608.007812 0.015625)"/>
      <use xlink:href="#DejaVuSans-28" transform="translate(660.107422 0.015625)"/>
      <use xlink:href="#DejaVuSans-35" transform="translate(699.121094 0.015625)"/>
      <use xlink:href="#DejaVuSans-Oblique-78" transform="translate(762.744141 0.015625)"/>
      <use xlink:href="#DejaVuSans-29" transform="translate(821.923828 0.015625)"/>
      <use xlink:href="#DejaVuSans-20" transform="translate(860.9375 0.015625)"/>
      <use xlink:href="#DejaVuSans-28" transform="translate(892.724609 0.015625)"/>
      <use xlink:href="#DejaVuSans-74" transform="translate(931.738281 0.015625)"/>
      <use xlink:href="#DejaVuSans-3d" transform="translate(970.947266 0.015625)"/>
      <use xlink:href="#DejaVuSans-74" transform="translate(1054.736328 0.015625)"/>
      <use xlink:href="#DejaVuSans-5f" transform="translate(1093.945312 0.015625)"/>
      <use xlink:href="#DejaVuSans-66" transform="translate(1143.945312 0.015625)"/>
      <use xlink:href="#DejaVuSans-69" transform="translate(1179.150391 0.015625)"/>
      <use xlink:href="#DejaVuSans-6e" transform="translate(1206.933594 0.015625)"/>
      <use xlink:href="#DejaVuSans-61" transform="translate(1270.3125 0.015625)"/>
      <use xlink:href="#DejaVuSans-6c" transform="translate(1331.591797 0.015625)"/>
      <use xlink:href="#DejaVuSans-29" transform="translate(1359.375 0.015625)"/>
     </g>
    </g>
    <g id="line2d_60">
     <path d="M 180.595625 190.678125 
L 188.595625 190.678125 
L 196.595625 190.678125 
" style="fill: none; stroke: #377eb8; stroke-linecap: square"/>
    </g>
    <g id="text_16">
     <!-- $\cos(3x) + \cos(5x)$ (t=t_final) -->
     <g transform="translate(202.995625 193.478125) scale(0.08 -0.08)">
      <use xlink:href="#DejaVuSans-63" transform="translate(0 0.015625)"/>
      <use xlink:href="#DejaVuSans-6f" transform="translate(54.980469 0.015625)"/>
      <use xlink:href="#DejaVuSans-73" transform="translate(116.162109 0.015625)"/>
      <use xlink:href="#DejaVuSans-28" transform="translate(168.261719 0.015625)"/>
      <use xlink:href="#DejaVuSans-33" transform="translate(207.275391 0.015625)"/>
      <use xlink:href="#DejaVuSans-Oblique-78" transform="translate(270.898438 0.015625)"/>
      <use xlink:href="#DejaVuSans-29" transform="translate(330.078125 0.015625)"/>
      <use xlink:href="#DejaVuSans-2b" transform="translate(388.574219 0.015625)"/>
      <use xlink:href="#DejaVuSans-63" transform="translate(491.845703 0.015625)"/>
      <use xlink:href="#DejaVuSans-6f" transform="translate(546.826172 0.015625)"/>
      <use xlink:href="#DejaVuSans-73" transform="translate(608.007812 0.015625)"/>
      <use xlink:href="#DejaVuSans-28" transform="translate(660.107422 0.015625)"/>
      <use xlink:href="#DejaVuSans-35" transform="translate(699.121094 0.015625)"/>
      <use xlink:href="#DejaVuSans-Oblique-78" transform="translate(762.744141 0.015625)"/>
      <use xlink:href="#DejaVuSans-29" transform="translate(821.923828 0.015625)"/>
      <use xlink:href="#DejaVuSans-20" transform="translate(860.9375 0.015625)"/>
      <use xlink:href="#DejaVuSans-28" transform="translate(892.724609 0.015625)"/>
      <use xlink:href="#DejaVuSans-74" transform="translate(931.738281 0.015625)"/>
      <use xlink:href="#DejaVuSans-3d" transform="translate(970.947266 0.015625)"/>
      <use xlink:href="#DejaVuSans-74" transform="translate(1054.736328 0.015625)"/>
      <use xlink:href="#DejaVuSans-5f" transform="translate(1093.945312 0.015625)"/>
      <use xlink:href="#DejaVuSans-66" transform="translate(1143.945312 0.015625)"/>
      <use xlink:href="#DejaVuSans-69" transform="translate(1179.150391 0.015625)"/>
      <use xlink:href="#DejaVuSans-6e" transform="translate(1206.933594 0.015625)"/>
      <use xlink:href="#DejaVuSans-61" transform="translate(1270.3125 0.015625)"/>
      <use xlink:href="#DejaVuSans-6c" transform="translate(1331.591797 0.015625)"/>
      <use xlink:href="#DejaVuSans-29" transform="translate(1359.375 0.015625)"/>
     </g>
    </g>
    <g id="line2d_61">
     <path d="M 180.595625 202.678125 
L 188.595625 202.678125 
L 196.595625 202.678125 
" style="fill: none; stroke: #4daf4a; stroke-linecap: square"/>
    </g>
    <g id="text_17">
     <!-- $\cos(3x) + \cos(5x)$ (t=t_final) -->
     <g transform="translate(202.995625 205.478125) scale(0.08 -0.08)">
      <use xlink:href="#DejaVuSans-63" transform="translate(0 0.015625)"/>
      <use xlink:href="#DejaVuSans-6f" transform="translate(54.980469 0.015625)"/>
      <use xlink:href="#DejaVuSans-73" transform="translate(116.162109 0.015625)"/>
      <use xlink:href="#DejaVuSans-28" transform="translate(168.261719 0.015625)"/>
      <use xlink:href="#DejaVuSans-33" transform="translate(207.275391 0.015625)"/>
      <use xlink:href="#DejaVuSans-Oblique-78" transform="translate(270.898438 0.015625)"/>
      <use xlink:href="#DejaVuSans-29" transform="translate(330.078125 0.015625)"/>
      <use xlink:href="#DejaVuSans-2b" transform="translate(388.574219 0.015625)"/>
      <use xlink:href="#DejaVuSans-63" transform="translate(491.845703 0.015625)"/>
      <use xlink:href="#DejaVuSans-6f" transform="translate(546.826172 0.015625)"/>
      <use xlink:href="#DejaVuSans-73" transform="translate(608.007812 0.015625)"/>
      <use xlink:href="#DejaVuSans-28" transform="translate(660.107422 0.015625)"/>
      <use xlink:href="#DejaVuSans-35" transform="translate(699.121094 0.015625)"/>
      <use xlink:href="#DejaVuSans-Oblique-78" transform="translate(762.744141 0.015625)"/>
      <use xlink:href="#DejaVuSans-29" transform="translate(821.923828 0.015625)"/>
      <use xlink:href="#DejaVuSans-20" transform="translate(860.9375 0.015625)"/>
      <use xlink:href="#DejaVuSans-28" transform="translate(892.724609 0.015625)"/>
      <use xlink:href="#DejaVuSans-74" transform="translate(931.738281 0.015625)"/>
      <use xlink:href="#DejaVuSans-3d" transform="translate(970.947266 0.015625)"/>
      <use xlink:href="#DejaVuSans-74" transform="translate(1054.736328 0.015625)"/>
      <use xlink:href="#DejaVuSans-5f" transform="translate(1093.945312 0.015625)"/>
      <use xlink:href="#DejaVuSans-66" transform="translate(1143.945312 0.015625)"/>
      <use xlink:href="#DejaVuSans-69" transform="translate(1179.150391 0.015625)"/>
      <use xlink:href="#DejaVuSans-6e" transform="translate(1206.933594 0.015625)"/>
      <use xlink:href="#DejaVuSans-61" transform="translate(1270.3125 0.015625)"/>
      <use xlink:href="#DejaVuSans-6c" transform="translate(1331.591797 0.015625)"/>
      <use xlink:href="#DejaVuSans-29" transform="translate(1359.375 0.015625)"/>
     </g>
    </g>
    <g id="line2d_62">
     <path d="M 180.595625 214.678125 
L 188.595625 214.678125 
L 196.595625 214.678125 
" style="fill: none; stroke: #984ea3; stroke-linecap: square"/>
    </g>
    <g id="text_18">
     <!-- $\cos(3x) + \cos(5x)$ (t=t_final) -->
     <g transform="translate(202.995625 217.478125) scale(0.08 -0.08)">
      <use xlink:href="#DejaVuSans-63" transform="translate(0 0.015625)"/>
      <use xlink:href="#DejaVuSans-6f" transform="translate(54.980469 0.015625)"/>
      <use xlink:href="#DejaVuSans-73" transform="translate(116.162109 0.015625)"/>
      <use xlink:href="#DejaVuSans-28" transform="translate(168.261719 0.015625)"/>
      <use xlink:href="#DejaVuSans-33" transform="translate(207.275391 0.015625)"/>
      <use xlink:href="#DejaVuSans-Oblique-78" transform="translate(270.898438 0.015625)"/>
      <use xlink:href="#DejaVuSans-29" transform="translate(330.078125 0.015625)"/>
      <use xlink:href="#DejaVuSans-2b" transform="translate(388.574219 0.015625)"/>
      <use xlink:href="#DejaVuSans-63" transform="translate(491.845703 0.015625)"/>
      <use xlink:href="#DejaVuSans-6f" transform="translate(546.826172 0.015625)"/>
      <use xlink:href="#DejaVuSans-73" transform="translate(608.007812 0.015625)"/>
      <use xlink:href="#DejaVuSans-28" transform="translate(660.107422 0.015625)"/>
      <use xlink:href="#DejaVuSans-35" transform="translate(699.121094 0.015625)"/>
      <use xlink:href="#DejaVuSans-Oblique-78" transform="translate(762.744141 0.015625)"/>
      <use xlink:href="#DejaVuSans-29" transform="translate(821.923828 0.015625)"/>
      <use xlink:href="#DejaVuSans-20" transform="translate(860.9375 0.015625)"/>
      <use xlink:href="#DejaVuSans-28" transform="translate(892.724609 0.015625)"/>
      <use xlink:href="#DejaVuSans-74" transform="translate(931.738281 0.015625)"/>
      <use xlink:href="#DejaVuSans-3d" transform="translate(970.947266 0.015625)"/>
      <use xlink:href="#DejaVuSans-74" transform="translate(1054.736328 0.015625)"/>
      <use xlink:href="#DejaVuSans-5f" transform="translate(1093.945312 0.015625)"/>
      <use xlink:href="#DejaVuSans-66" transform="translate(1143.945312 0.015625)"/>
      <use xlink:href="#DejaVuSans-69" transform="translate(1179.150391 0.015625)"/>
      <use xlink:href="#DejaVuSans-6e" transform="translate(1206.933594 0.015625)"/>
      <use xlink:href="#DejaVuSans-61" transform="translate(1270.3125 0.015625)"/>
      <use xlink:href="#DejaVuSans-6c" transform="translate(1331.591797 0.015625)"/>
      <use xlink:href="#DejaVuSans-29" transform="translate(1359.375 0.015625)"/>
     </g>
    </g>
    <g id="line2d_63">
     <path d="M 180.595625 226.678125 
L 188.595625 226.678125 
L 196.595625 226.678125 
" style="fill: none; stroke: #ff7f00; stroke-linecap: square"/>
    </g>
    <g id="text_19">
     <!-- $\cos(5x) + \cos(8x)$ (t=t_final) -->
     <g transform="translate(202.995625 229.478125) scale(0.08 -0.08)">
      <use xlink:href="#DejaVuSans-63" transform="translate(0 0.015625)"/>
      <use xlink:href="#DejaVuSans-6f" transform="translate(54.980469 0.015625)"/>
      <use xlink:href="#DejaVuSans-73" transform="translate(116.162109 0.015625)"/>
      <use xlink:href="#DejaVuSans-28" transform="translate(168.261719 0.015625)"/>
      <use xlink:href="#DejaVuSans-35" transform="translate(207.275391 0.015625)"/>
      <use xlink:href="#DejaVuSans-Oblique-78" transform="translate(270.898438 0.015625)"/>
      <use xlink:href="#DejaVuSans-29" transform="translate(330.078125 0.015625)"/>
      <use xlink:href="#DejaVuSans-2b" transform="translate(388.574219 0.015625)"/>
      <use xlink:href="#DejaVuSans-63" transform="translate(491.845703 0.015625)"/>
      <use xlink:href="#DejaVuSans-6f" transform="translate(546.826172 0.015625)"/>
      <use xlink:href="#DejaVuSans-73" transform="translate(608.007812 0.015625)"/>
      <use xlink:href="#DejaVuSans-28" transform="translate(660.107422 0.015625)"/>
      <use xlink:href="#DejaVuSans-38" transform="translate(699.121094 0.015625)"/>
      <use xlink:href="#DejaVuSans-Oblique-78" transform="translate(762.744141 0.015625)"/>
      <use xlink:href="#DejaVuSans-29" transform="translate(821.923828 0.015625)"/>
      <use xlink:href="#DejaVuSans-20" transform="translate(860.9375 0.015625)"/>
      <use xlink:href="#DejaVuSans-28" transform="translate(892.724609 0.015625)"/>
      <use xlink:href="#DejaVuSans-74" transform="translate(931.738281 0.015625)"/>
      <use xlink:href="#DejaVuSans-3d" transform="translate(970.947266 0.015625)"/>
      <use xlink:href="#DejaVuSans-74" transform="translate(1054.736328 0.015625)"/>
      <use xlink:href="#DejaVuSans-5f" transform="translate(1093.945312 0.015625)"/>
      <use xlink:href="#DejaVuSans-66" transform="translate(1143.945312 0.015625)"/>
      <use xlink:href="#DejaVuSans-69" transform="translate(1179.150391 0.015625)"/>
      <use xlink:href="#DejaVuSans-6e" transform="translate(1206.933594 0.015625)"/>
      <use xlink:href="#DejaVuSans-61" transform="translate(1270.3125 0.015625)"/>
      <use xlink:href="#DejaVuSans-6c" transform="translate(1331.591797 0.015625)"/>
      <use xlink:href="#DejaVuSans-29" transform="translate(1359.375 0.015625)"/>
     </g>
    </g>
    <g id="line2d_64">
     <path d="M 330.915625 178.678125 
L 338.915625 178.678125 
L 346.915625 178.678125 
" style="fill: none; stroke: #a65628; stroke-linecap: square"/>
    </g>
    <g id="text_20">
     <!-- $\cos(8x) + \cos(13x)$ (t=t_final) -->
     <g transform="translate(353.315625 181.478125) scale(0.08 -0.08)">
      <use xlink:href="#DejaVuSans-63" transform="translate(0 0.015625)"/>
      <use xlink:href="#DejaVuSans-6f" transform="translate(54.980469 0.015625)"/>
      <use xlink:href="#DejaVuSans-73" transform="translate(116.162109 0.015625)"/>
      <use xlink:href="#DejaVuSans-28" transform="translate(168.261719 0.015625)"/>
      <use xlink:href="#DejaVuSans-38" transform="translate(207.275391 0.015625)"/>
      <use xlink:href="#DejaVuSans-Oblique-78" transform="translate(270.898438 0.015625)"/>
      <use xlink:href="#DejaVuSans-29" transform="translate(330.078125 0.015625)"/>
      <use xlink:href="#DejaVuSans-2b" transform="translate(388.574219 0.015625)"/>
      <use xlink:href="#DejaVuSans-63" transform="translate(491.845703 0.015625)"/>
      <use xlink:href="#DejaVuSans-6f" transform="translate(546.826172 0.015625)"/>
      <use xlink:href="#DejaVuSans-73" transform="translate(608.007812 0.015625)"/>
      <use xlink:href="#DejaVuSans-28" transform="translate(660.107422 0.015625)"/>
      <use xlink:href="#DejaVuSans-31" transform="translate(699.121094 0.015625)"/>
      <use xlink:href="#DejaVuSans-33" transform="translate(762.744141 0.015625)"/>
      <use xlink:href="#DejaVuSans-Oblique-78" transform="translate(826.367188 0.015625)"/>
      <use xlink:href="#DejaVuSans-29" transform="translate(885.546875 0.015625)"/>
      <use xlink:href="#DejaVuSans-20" transform="translate(924.560547 0.015625)"/>
      <use xlink:href="#DejaVuSans-28" transform="translate(956.347656 0.015625)"/>
      <use xlink:href="#DejaVuSans-74" transform="translate(995.361328 0.015625)"/>
      <use xlink:href="#DejaVuSans-3d" transform="translate(1034.570312 0.015625)"/>
      <use xlink:href="#DejaVuSans-74" transform="translate(1118.359375 0.015625)"/>
      <use xlink:href="#DejaVuSans-5f" transform="translate(1157.568359 0.015625)"/>
      <use xlink:href="#DejaVuSans-66" transform="translate(1207.568359 0.015625)"/>
      <use xlink:href="#DejaVuSans-69" transform="translate(1242.773438 0.015625)"/>
      <use xlink:href="#DejaVuSans-6e" transform="translate(1270.556641 0.015625)"/>
      <use xlink:href="#DejaVuSans-61" transform="translate(1333.935547 0.015625)"/>
      <use xlink:href="#DejaVuSans-6c" transform="translate(1395.214844 0.015625)"/>
      <use xlink:href="#DejaVuSans-29" transform="translate(1422.998047 0.015625)"/>
     </g>
    </g>
    <g id="line2d_65">
     <path d="M 330.915625 190.678125 
L 338.915625 190.678125 
L 346.915625 190.678125 
" style="fill: none; stroke: #f781bf; stroke-linecap: square"/>
    </g>
    <g id="text_21">
     <!-- $\cos(13x) + \cos(21x)$ (t=t_final) -->
     <g transform="translate(353.315625 193.478125) scale(0.08 -0.08)">
      <use xlink:href="#DejaVuSans-63" transform="translate(0 0.015625)"/>
      <use xlink:href="#DejaVuSans-6f" transform="translate(54.980469 0.015625)"/>
      <use xlink:href="#DejaVuSans-73" transform="translate(116.162109 0.015625)"/>
      <use xlink:href="#DejaVuSans-28" transform="translate(168.261719 0.015625)"/>
      <use xlink:href="#DejaVuSans-31" transform="translate(207.275391 0.015625)"/>
      <use xlink:href="#DejaVuSans-33" transform="translate(270.898438 0.015625)"/>
      <use xlink:href="#DejaVuSans-Oblique-78" transform="translate(334.521484 0.015625)"/>
      <use xlink:href="#DejaVuSans-29" transform="translate(393.701172 0.015625)"/>
      <use xlink:href="#DejaVuSans-2b" transform="translate(452.197266 0.015625)"/>
      <use xlink:href="#DejaVuSans-63" transform="translate(555.46875 0.015625)"/>
      <use xlink:href="#DejaVuSans-6f" transform="translate(610.449219 0.015625)"/>
      <use xlink:href="#DejaVuSans-73" transform="translate(671.630859 0.015625)"/>
      <use xlink:href="#DejaVuSans-28" transform="translate(723.730469 0.015625)"/>
      <use xlink:href="#DejaVuSans-32" transform="translate(762.744141 0.015625)"/>
      <use xlink:href="#DejaVuSans-31" transform="translate(826.367188 0.015625)"/>
      <use xlink:href="#DejaVuSans-Oblique-78" transform="translate(889.990234 0.015625)"/>
      <use xlink:href="#DejaVuSans-29" transform="translate(949.169922 0.015625)"/>
      <use xlink:href="#DejaVuSans-20" transform="translate(988.183594 0.015625)"/>
      <use xlink:href="#DejaVuSans-28" transform="translate(1019.970703 0.015625)"/>
      <use xlink:href="#DejaVuSans-74" transform="translate(1058.984375 0.015625)"/>
      <use xlink:href="#DejaVuSans-3d" transform="translate(1098.193359 0.015625)"/>
      <use xlink:href="#DejaVuSans-74" transform="translate(1181.982422 0.015625)"/>
      <use xlink:href="#DejaVuSans-5f" transform="translate(1221.191406 0.015625)"/>
      <use xlink:href="#DejaVuSans-66" transform="translate(1271.191406 0.015625)"/>
      <use xlink:href="#DejaVuSans-69" transform="translate(1306.396484 0.015625)"/>
      <use xlink:href="#DejaVuSans-6e" transform="translate(1334.179688 0.015625)"/>
      <use xlink:href="#DejaVuSans-61" transform="translate(1397.558594 0.015625)"/>
      <use xlink:href="#DejaVuSans-6c" transform="translate(1458.837891 0.015625)"/>
      <use xlink:href="#DejaVuSans-29" transform="translate(1486.621094 0.015625)"/>
     </g>
    </g>
    <g id="line2d_66">
     <path d="M 330.915625 202.678125 
L 338.915625 202.678125 
L 346.915625 202.678125 
" style="fill: none; stroke: #999999; stroke-linecap: square"/>
    </g>
    <g id="text_22">
     <!-- $\cos(21x) + \cos(34x)$ (t=t_final) -->
     <g transform="translate(353.315625 205.478125) scale(0.08 -0.08)">
      <use xlink:href="#DejaVuSans-63" transform="translate(0 0.015625)"/>
      <use xlink:href="#DejaVuSans-6f" transform="translate(54.980469 0.015625)"/>
      <use xlink:href="#DejaVuSans-73" transform="translate(116.162109 0.015625)"/>
      <use xlink:href="#DejaVuSans-28" transform="translate(168.261719 0.015625)"/>
      <use xlink:href="#DejaVuSans-32" transform="translate(207.275391 0.015625)"/>
      <use xlink:href="#DejaVuSans-31" transform="translate(270.898438 0.015625)"/>
      <use xlink:href="#DejaVuSans-Oblique-78" transform="translate(334.521484 0.015625)"/>
      <use xlink:href="#DejaVuSans-29" transform="translate(393.701172 0.015625)"/>
      <use xlink:href="#DejaVuSans-2b" transform="translate(452.197266 0.015625)"/>
      <use xlink:href="#DejaVuSans-63" transform="translate(555.46875 0.015625)"/>
      <use xlink:href="#DejaVuSans-6f" transform="translate(610.449219 0.015625)"/>
      <use xlink:href="#DejaVuSans-73" transform="translate(671.630859 0.015625)"/>
      <use xlink:href="#DejaVuSans-28" transform="translate(723.730469 0.015625)"/>
      <use xlink:href="#DejaVuSans-33" transform="translate(762.744141 0.015625)"/>
      <use xlink:href="#DejaVuSans-34" transform="translate(826.367188 0.015625)"/>
      <use xlink:href="#DejaVuSans-Oblique-78" transform="translate(889.990234 0.015625)"/>
      <use xlink:href="#DejaVuSans-29" transform="translate(949.169922 0.015625)"/>
      <use xlink:href="#DejaVuSans-20" transform="translate(988.183594 0.015625)"/>
      <use xlink:href="#DejaVuSans-28" transform="translate(1019.970703 0.015625)"/>
      <use xlink:href="#DejaVuSans-74" transform="translate(1058.984375 0.015625)"/>
      <use xlink:href="#DejaVuSans-3d" transform="translate(1098.193359 0.015625)"/>
      <use xlink:href="#DejaVuSans-74" transform="translate(1181.982422 0.015625)"/>
      <use xlink:href="#DejaVuSans-5f" transform="translate(1221.191406 0.015625)"/>
      <use xlink:href="#DejaVuSans-66" transform="translate(1271.191406 0.015625)"/>
      <use xlink:href="#DejaVuSans-69" transform="translate(1306.396484 0.015625)"/>
      <use xlink:href="#DejaVuSans-6e" transform="translate(1334.179688 0.015625)"/>
      <use xlink:href="#DejaVuSans-61" transform="translate(1397.558594 0.015625)"/>
      <use xlink:href="#DejaVuSans-6c" transform="translate(1458.837891 0.015625)"/>
      <use xlink:href="#DejaVuSans-29" transform="translate(1486.621094 0.015625)"/>
     </g>
    </g>
    <g id="line2d_67">
     <path d="M 330.915625 214.678125 
L 338.915625 214.678125 
L 346.915625 214.678125 
" style="fill: none; stroke: #e41a1c; stroke-linecap: square"/>
    </g>
    <g id="text_23">
     <!-- $\cos(34x) + \cos(55x)$ (t=t_final) -->
     <g transform="translate(353.315625 217.478125) scale(0.08 -0.08)">
      <use xlink:href="#DejaVuSans-63" transform="translate(0 0.015625)"/>
      <use xlink:href="#DejaVuSans-6f" transform="translate(54.980469 0.015625)"/>
      <use xlink:href="#DejaVuSans-73" transform="translate(116.162109 0.015625)"/>
      <use xlink:href="#DejaVuSans-28" transform="translate(168.261719 0.015625)"/>
      <use xlink:href="#DejaVuSans-33" transform="translate(207.275391 0.015625)"/>
      <use xlink:href="#DejaVuSans-34" transform="translate(270.898438 0.015625)"/>
      <use xlink:href="#DejaVuSans-Oblique-78" transform="translate(334.521484 0.015625)"/>
      <use xlink:href="#DejaVuSans-29" transform="translate(393.701172 0.015625)"/>
      <use xlink:href="#DejaVuSans-2b" transform="translate(452.197266 0.015625)"/>
      <use xlink:href="#DejaVuSans-63" transform="translate(555.46875 0.015625)"/>
      <use xlink:href="#DejaVuSans-6f" transform="translate(610.449219 0.015625)"/>
      <use xlink:href="#DejaVuSans-73" transform="translate(671.630859 0.015625)"/>
      <use xlink:href="#DejaVuSans-28" transform="translate(723.730469 0.015625)"/>
      <use xlink:href="#DejaVuSans-35" transform="translate(762.744141 0.015625)"/>
      <use xlink:href="#DejaVuSans-35" transform="translate(826.367188 0.015625)"/>
      <use xlink:href="#DejaVuSans-Oblique-78" transform="translate(889.990234 0.015625)"/>
      <use xlink:href="#DejaVuSans-29" transform="translate(949.169922 0.015625)"/>
      <use xlink:href="#DejaVuSans-20" transform="translate(988.183594 0.015625)"/>
      <use xlink:href="#DejaVuSans-28" transform="translate(1019.970703 0.015625)"/>
      <use xlink:href="#DejaVuSans-74" transform="translate(1058.984375 0.015625)"/>
      <use xlink:href="#DejaVuSans-3d" transform="translate(1098.193359 0.015625)"/>
      <use xlink:href="#DejaVuSans-74" transform="translate(1181.982422 0.015625)"/>
      <use xlink:href="#DejaVuSans-5f" transform="translate(1221.191406 0.015625)"/>
      <use xlink:href="#DejaVuSans-66" transform="translate(1271.191406 0.015625)"/>
      <use xlink:href="#DejaVuSans-69" transform="translate(1306.396484 0.015625)"/>
      <use xlink:href="#DejaVuSans-6e" transform="translate(1334.179688 0.015625)"/>
      <use xlink:href="#DejaVuSans-61" transform="translate(1397.558594 0.015625)"/>
      <use xlink:href="#DejaVuSans-6c" transform="translate(1458.837891 0.015625)"/>
      <use xlink:href="#DejaVuSans-29" transform="translate(1486.621094 0.015625)"/>
     </g>
    </g>
   </g>
  </g>
 </g>
 <defs>
  <clipPath id="pdc45634cb7">
   <rect x="59.255625" y="22.318125" width="423.34" height="216.28"/>
  </clipPath>
 </defs>
</svg>
