<?xml version="1.0" encoding="utf-8" standalone="no"?>
<!DOCTYPE svg PUBLIC "-//W3C//DTD SVG 1.1//EN"
  "http://www.w3.org/Graphics/SVG/1.1/DTD/svg11.dtd">
<svg xmlns:xlink="http://www.w3.org/1999/xlink" width="496.158125pt" height="278.09pt" viewBox="0 0 496.158125 278.09" xmlns="http://www.w3.org/2000/svg" version="1.1">
 <metadata>
  <rdf:RDF xmlns:dc="http://purl.org/dc/elements/1.1/" xmlns:cc="http://creativecommons.org/ns#" xmlns:rdf="http://www.w3.org/1999/02/22-rdf-syntax-ns#">
   <cc:Work>
    <dc:type rdf:resource="http://purl.org/dc/dcmitype/StillImage"/>
    <dc:date>2025-09-25T12:09:40.871351</dc:date>
    <dc:format>image/svg+xml</dc:format>
    <dc:creator>
     <cc:Agent>
      <dc:title>Matplotlib v3.8.4, https://matplotlib.org/</dc:title>
     </cc:Agent>
    </dc:creator>
   </cc:Work>
  </rdf:RDF>
 </metadata>
 <defs>
  <style type="text/css">*{stroke-linejoin: round; stroke-linecap: butt}</style>
 </defs>
 <g id="figure_1">
  <g id="patch_1">
   <path d="M 0 278.09 
L 496.158125 278.09 
L 496.158125 0 
L 0 0 
z
" style="fill: #ffffff"/>
  </g>
  <g id="axes_1">
   <g id="patch_2">
    <path d="M 59.255625 238.598125 
L 482.595625 238.598125 
L 482.595625 22.318125 
L 59.255625 22.318125 
z
" style="fill: #ffffff"/>
   </g>
   <g id="matplotlib.axis_1">
    <g id="xtick_1">
     <g id="line2d_1">
      <path d="M 59.255625 238.598125 
L 59.255625 22.318125 
" clip-path="url(#pb105284854)" style="fill: none; stroke-dasharray: 2.96,1.28; stroke-dashoffset: 0; stroke: #b0b0b0; stroke-opacity: 0.3; stroke-width: 0.8"/>
     </g>
     <g id="line2d_2">
      <defs>
       <path id="mf22208393f" d="M 0 0 
L 0 3.5 
" style="stroke: #000000; stroke-width: 0.8"/>
      </defs>
      <g>
       <use xlink:href="#mf22208393f" x="59.255625" y="238.598125" style="stroke: #000000; stroke-width: 0.8"/>
      </g>
     </g>
     <g id="text_1">
      <!-- 0 -->
      <g transform="translate(56.074375 253.196563) scale(0.1 -0.1)">
       <defs>
        <path id="DejaVuSans-30" d="M 2034 4250 
Q 1547 4250 1301 3770 
Q 1056 3291 1056 2328 
Q 1056 1369 1301 889 
Q 1547 409 2034 409 
Q 2525 409 2770 889 
Q 3016 1369 3016 2328 
Q 3016 3291 2770 3770 
Q 2525 4250 2034 4250 
z
M 2034 4750 
Q 2819 4750 3233 4129 
Q 3647 3509 3647 2328 
Q 3647 1150 3233 529 
Q 2819 -91 2034 -91 
Q 1250 -91 836 529 
Q 422 1150 422 2328 
Q 422 3509 836 4129 
Q 1250 4750 2034 4750 
z
" transform="scale(0.015625)"/>
       </defs>
       <use xlink:href="#DejaVuSans-30"/>
      </g>
     </g>
    </g>
    <g id="xtick_2">
     <g id="line2d_3">
      <path d="M 143.923625 238.598125 
L 143.923625 22.318125 
" clip-path="url(#pb105284854)" style="fill: none; stroke-dasharray: 2.96,1.28; stroke-dashoffset: 0; stroke: #b0b0b0; stroke-opacity: 0.3; stroke-width: 0.8"/>
     </g>
     <g id="line2d_4">
      <g>
       <use xlink:href="#mf22208393f" x="143.923625" y="238.598125" style="stroke: #000000; stroke-width: 0.8"/>
      </g>
     </g>
     <g id="text_2">
      <!-- 10 -->
      <g transform="translate(137.561125 253.196563) scale(0.1 -0.1)">
       <defs>
        <path id="DejaVuSans-31" d="M 794 531 
L 1825 531 
L 1825 4091 
L 703 3866 
L 703 4441 
L 1819 4666 
L 2450 4666 
L 2450 531 
L 3481 531 
L 3481 0 
L 794 0 
L 794 531 
z
" transform="scale(0.015625)"/>
       </defs>
       <use xlink:href="#DejaVuSans-31"/>
       <use xlink:href="#DejaVuSans-30" x="63.623047"/>
      </g>
     </g>
    </g>
    <g id="xtick_3">
     <g id="line2d_5">
      <path d="M 228.591625 238.598125 
L 228.591625 22.318125 
" clip-path="url(#pb105284854)" style="fill: none; stroke-dasharray: 2.96,1.28; stroke-dashoffset: 0; stroke: #b0b0b0; stroke-opacity: 0.3; stroke-width: 0.8"/>
     </g>
     <g id="line2d_6">
      <g>
       <use xlink:href="#mf22208393f" x="228.591625" y="238.598125" style="stroke: #000000; stroke-width: 0.8"/>
      </g>
     </g>
     <g id="text_3">
      <!-- 20 -->
      <g transform="translate(222.229125 253.196563) scale(0.1 -0.1)">
       <defs>
        <path id="DejaVuSans-32" d="M 1228 531 
L 3431 531 
L 3431 0 
L 469 0 
L 469 531 
Q 828 903 1448 1529 
Q 2069 2156 2228 2338 
Q 2531 2678 2651 2914 
Q 2772 3150 2772 3378 
Q 2772 3750 2511 3984 
Q 2250 4219 1831 4219 
Q 1534 4219 1204 4116 
Q 875 4013 500 3803 
L 500 4441 
Q 881 4594 1212 4672 
Q 1544 4750 1819 4750 
Q 2544 4750 2975 4387 
Q 3406 4025 3406 3419 
Q 3406 3131 3298 2873 
Q 3191 2616 2906 2266 
Q 2828 2175 2409 1742 
Q 1991 1309 1228 531 
z
" transform="scale(0.015625)"/>
       </defs>
       <use xlink:href="#DejaVuSans-32"/>
       <use xlink:href="#DejaVuSans-30" x="63.623047"/>
      </g>
     </g>
    </g>
    <g id="xtick_4">
     <g id="line2d_7">
      <path d="M 313.259625 238.598125 
L 313.259625 22.318125 
" clip-path="url(#pb105284854)" style="fill: none; stroke-dasharray: 2.96,1.28; stroke-dashoffset: 0; stroke: #b0b0b0; stroke-opacity: 0.3; stroke-width: 0.8"/>
     </g>
     <g id="line2d_8">
      <g>
       <use xlink:href="#mf22208393f" x="313.259625" y="238.598125" style="stroke: #000000; stroke-width: 0.8"/>
      </g>
     </g>
     <g id="text_4">
      <!-- 30 -->
      <g transform="translate(306.897125 253.196563) scale(0.1 -0.1)">
       <defs>
        <path id="DejaVuSans-33" d="M 2597 2516 
Q 3050 2419 3304 2112 
Q 3559 1806 3559 1356 
Q 3559 666 3084 287 
Q 2609 -91 1734 -91 
Q 1441 -91 1130 -33 
Q 819 25 488 141 
L 488 750 
Q 750 597 1062 519 
Q 1375 441 1716 441 
Q 2309 441 2620 675 
Q 2931 909 2931 1356 
Q 2931 1769 2642 2001 
Q 2353 2234 1838 2234 
L 1294 2234 
L 1294 2753 
L 1863 2753 
Q 2328 2753 2575 2939 
Q 2822 3125 2822 3475 
Q 2822 3834 2567 4026 
Q 2313 4219 1838 4219 
Q 1578 4219 1281 4162 
Q 984 4106 628 3988 
L 628 4550 
Q 988 4650 1302 4700 
Q 1616 4750 1894 4750 
Q 2613 4750 3031 4423 
Q 3450 4097 3450 3541 
Q 3450 3153 3228 2886 
Q 3006 2619 2597 2516 
z
" transform="scale(0.015625)"/>
       </defs>
       <use xlink:href="#DejaVuSans-33"/>
       <use xlink:href="#DejaVuSans-30" x="63.623047"/>
      </g>
     </g>
    </g>
    <g id="xtick_5">
     <g id="line2d_9">
      <path d="M 397.927625 238.598125 
L 397.927625 22.318125 
" clip-path="url(#pb105284854)" style="fill: none; stroke-dasharray: 2.96,1.28; stroke-dashoffset: 0; stroke: #b0b0b0; stroke-opacity: 0.3; stroke-width: 0.8"/>
     </g>
     <g id="line2d_10">
      <g>
       <use xlink:href="#mf22208393f" x="397.927625" y="238.598125" style="stroke: #000000; stroke-width: 0.8"/>
      </g>
     </g>
     <g id="text_5">
      <!-- 40 -->
      <g transform="translate(391.565125 253.196563) scale(0.1 -0.1)">
       <defs>
        <path id="DejaVuSans-34" d="M 2419 4116 
L 825 1625 
L 2419 1625 
L 2419 4116 
z
M 2253 4666 
L 3047 4666 
L 3047 1625 
L 3713 1625 
L 3713 1100 
L 3047 1100 
L 3047 0 
L 2419 0 
L 2419 1100 
L 313 1100 
L 313 1709 
L 2253 4666 
z
" transform="scale(0.015625)"/>
       </defs>
       <use xlink:href="#DejaVuSans-34"/>
       <use xlink:href="#DejaVuSans-30" x="63.623047"/>
      </g>
     </g>
    </g>
    <g id="xtick_6">
     <g id="line2d_11">
      <path d="M 482.595625 238.598125 
L 482.595625 22.318125 
" clip-path="url(#pb105284854)" style="fill: none; stroke-dasharray: 2.96,1.28; stroke-dashoffset: 0; stroke: #b0b0b0; stroke-opacity: 0.3; stroke-width: 0.8"/>
     </g>
     <g id="line2d_12">
      <g>
       <use xlink:href="#mf22208393f" x="482.595625" y="238.598125" style="stroke: #000000; stroke-width: 0.8"/>
      </g>
     </g>
     <g id="text_6">
      <!-- 50 -->
      <g transform="translate(476.233125 253.196563) scale(0.1 -0.1)">
       <defs>
        <path id="DejaVuSans-35" d="M 691 4666 
L 3169 4666 
L 3169 4134 
L 1269 4134 
L 1269 2991 
Q 1406 3038 1543 3061 
Q 1681 3084 1819 3084 
Q 2600 3084 3056 2656 
Q 3513 2228 3513 1497 
Q 3513 744 3044 326 
Q 2575 -91 1722 -91 
Q 1428 -91 1123 -41 
Q 819 9 494 109 
L 494 744 
Q 775 591 1075 516 
Q 1375 441 1709 441 
Q 2250 441 2565 725 
Q 2881 1009 2881 1497 
Q 2881 1984 2565 2268 
Q 2250 2553 1709 2553 
Q 1456 2553 1204 2497 
Q 953 2441 691 2322 
L 691 4666 
z
" transform="scale(0.015625)"/>
       </defs>
       <use xlink:href="#DejaVuSans-35"/>
       <use xlink:href="#DejaVuSans-30" x="63.623047"/>
      </g>
     </g>
    </g>
    <g id="text_7">
     <!-- $k$ -->
     <g transform="translate(267.445625 268.394375) scale(0.12 -0.12)">
      <defs>
       <path id="DejaVuSans-Oblique-6b" d="M 1172 4863 
L 1747 4863 
L 1197 2028 
L 3169 3500 
L 3916 3500 
L 1716 1825 
L 3322 0 
L 2625 0 
L 1131 1709 
L 800 0 
L 225 0 
L 1172 4863 
z
" transform="scale(0.015625)"/>
      </defs>
      <use xlink:href="#DejaVuSans-Oblique-6b" transform="translate(0 0.015625)"/>
     </g>
    </g>
   </g>
   <g id="matplotlib.axis_2">
    <g id="ytick_1">
     <g id="line2d_13">
      <path d="M 59.255625 228.767216 
L 482.595625 228.767216 
" clip-path="url(#pb105284854)" style="fill: none; stroke-dasharray: 2.96,1.28; stroke-dashoffset: 0; stroke: #b0b0b0; stroke-opacity: 0.3; stroke-width: 0.8"/>
     </g>
     <g id="line2d_14">
      <defs>
       <path id="m8b36fe21f2" d="M 0 0 
L -3.5 0 
" style="stroke: #000000; stroke-width: 0.8"/>
      </defs>
      <g>
       <use xlink:href="#m8b36fe21f2" x="59.255625" y="228.767216" style="stroke: #000000; stroke-width: 0.8"/>
      </g>
     </g>
     <g id="text_8">
      <!-- 0.000 -->
      <g transform="translate(23.6275 232.566435) scale(0.1 -0.1)">
       <defs>
        <path id="DejaVuSans-2e" d="M 684 794 
L 1344 794 
L 1344 0 
L 684 0 
L 684 794 
z
" transform="scale(0.015625)"/>
       </defs>
       <use xlink:href="#DejaVuSans-30"/>
       <use xlink:href="#DejaVuSans-2e" x="63.623047"/>
       <use xlink:href="#DejaVuSans-30" x="95.410156"/>
       <use xlink:href="#DejaVuSans-30" x="159.033203"/>
       <use xlink:href="#DejaVuSans-30" x="222.65625"/>
      </g>
     </g>
    </g>
    <g id="ytick_2">
     <g id="line2d_15">
      <path d="M 59.255625 190.610578 
L 482.595625 190.610578 
" clip-path="url(#pb105284854)" style="fill: none; stroke-dasharray: 2.96,1.28; stroke-dashoffset: 0; stroke: #b0b0b0; stroke-opacity: 0.3; stroke-width: 0.8"/>
     </g>
     <g id="line2d_16">
      <g>
       <use xlink:href="#m8b36fe21f2" x="59.255625" y="190.610578" style="stroke: #000000; stroke-width: 0.8"/>
      </g>
     </g>
     <g id="text_9">
      <!-- 0.001 -->
      <g transform="translate(23.6275 194.409797) scale(0.1 -0.1)">
       <use xlink:href="#DejaVuSans-30"/>
       <use xlink:href="#DejaVuSans-2e" x="63.623047"/>
       <use xlink:href="#DejaVuSans-30" x="95.410156"/>
       <use xlink:href="#DejaVuSans-30" x="159.033203"/>
       <use xlink:href="#DejaVuSans-31" x="222.65625"/>
      </g>
     </g>
    </g>
    <g id="ytick_3">
     <g id="line2d_17">
      <path d="M 59.255625 152.453941 
L 482.595625 152.453941 
" clip-path="url(#pb105284854)" style="fill: none; stroke-dasharray: 2.96,1.28; stroke-dashoffset: 0; stroke: #b0b0b0; stroke-opacity: 0.3; stroke-width: 0.8"/>
     </g>
     <g id="line2d_18">
      <g>
       <use xlink:href="#m8b36fe21f2" x="59.255625" y="152.453941" style="stroke: #000000; stroke-width: 0.8"/>
      </g>
     </g>
     <g id="text_10">
      <!-- 0.002 -->
      <g transform="translate(23.6275 156.253159) scale(0.1 -0.1)">
       <use xlink:href="#DejaVuSans-30"/>
       <use xlink:href="#DejaVuSans-2e" x="63.623047"/>
       <use xlink:href="#DejaVuSans-30" x="95.410156"/>
       <use xlink:href="#DejaVuSans-30" x="159.033203"/>
       <use xlink:href="#DejaVuSans-32" x="222.65625"/>
      </g>
     </g>
    </g>
    <g id="ytick_4">
     <g id="line2d_19">
      <path d="M 59.255625 114.297303 
L 482.595625 114.297303 
" clip-path="url(#pb105284854)" style="fill: none; stroke-dasharray: 2.96,1.28; stroke-dashoffset: 0; stroke: #b0b0b0; stroke-opacity: 0.3; stroke-width: 0.8"/>
     </g>
     <g id="line2d_20">
      <g>
       <use xlink:href="#m8b36fe21f2" x="59.255625" y="114.297303" style="stroke: #000000; stroke-width: 0.8"/>
      </g>
     </g>
     <g id="text_11">
      <!-- 0.003 -->
      <g transform="translate(23.6275 118.096522) scale(0.1 -0.1)">
       <use xlink:href="#DejaVuSans-30"/>
       <use xlink:href="#DejaVuSans-2e" x="63.623047"/>
       <use xlink:href="#DejaVuSans-30" x="95.410156"/>
       <use xlink:href="#DejaVuSans-30" x="159.033203"/>
       <use xlink:href="#DejaVuSans-33" x="222.65625"/>
      </g>
     </g>
    </g>
    <g id="ytick_5">
     <g id="line2d_21">
      <path d="M 59.255625 76.140666 
L 482.595625 76.140666 
" clip-path="url(#pb105284854)" style="fill: none; stroke-dasharray: 2.96,1.28; stroke-dashoffset: 0; stroke: #b0b0b0; stroke-opacity: 0.3; stroke-width: 0.8"/>
     </g>
     <g id="line2d_22">
      <g>
       <use xlink:href="#m8b36fe21f2" x="59.255625" y="76.140666" style="stroke: #000000; stroke-width: 0.8"/>
      </g>
     </g>
     <g id="text_12">
      <!-- 0.004 -->
      <g transform="translate(23.6275 79.939884) scale(0.1 -0.1)">
       <use xlink:href="#DejaVuSans-30"/>
       <use xlink:href="#DejaVuSans-2e" x="63.623047"/>
       <use xlink:href="#DejaVuSans-30" x="95.410156"/>
       <use xlink:href="#DejaVuSans-30" x="159.033203"/>
       <use xlink:href="#DejaVuSans-34" x="222.65625"/>
      </g>
     </g>
    </g>
    <g id="ytick_6">
     <g id="line2d_23">
      <path d="M 59.255625 37.984028 
L 482.595625 37.984028 
" clip-path="url(#pb105284854)" style="fill: none; stroke-dasharray: 2.96,1.28; stroke-dashoffset: 0; stroke: #b0b0b0; stroke-opacity: 0.3; stroke-width: 0.8"/>
     </g>
     <g id="line2d_24">
      <g>
       <use xlink:href="#m8b36fe21f2" x="59.255625" y="37.984028" style="stroke: #000000; stroke-width: 0.8"/>
      </g>
     </g>
     <g id="text_13">
      <!-- 0.005 -->
      <g transform="translate(23.6275 41.783247) scale(0.1 -0.1)">
       <use xlink:href="#DejaVuSans-30"/>
       <use xlink:href="#DejaVuSans-2e" x="63.623047"/>
       <use xlink:href="#DejaVuSans-30" x="95.410156"/>
       <use xlink:href="#DejaVuSans-30" x="159.033203"/>
       <use xlink:href="#DejaVuSans-35" x="222.65625"/>
      </g>
     </g>
    </g>
    <g id="text_14">
     <!-- |n̂(k)|² -->
     <g transform="translate(16.798125 148.865) rotate(-90) scale(0.12 -0.12)">
      <defs>
       <path id="DejaVuSans-7c" d="M 1344 4891 
L 1344 -1509 
L 813 -1509 
L 813 4891 
L 1344 4891 
z
" transform="scale(0.015625)"/>
       <path id="DejaVuSans-6e" d="M 3513 2113 
L 3513 0 
L 2938 0 
L 2938 2094 
Q 2938 2591 2744 2837 
Q 2550 3084 2163 3084 
Q 1697 3084 1428 2787 
Q 1159 2491 1159 1978 
L 1159 0 
L 581 0 
L 581 3500 
L 1159 3500 
L 1159 2956 
Q 1366 3272 1645 3428 
Q 1925 3584 2291 3584 
Q 2894 3584 3203 3211 
Q 3513 2838 3513 2113 
z
" transform="scale(0.015625)"/>
       <path id="DejaVuSans-302" d="M -1831 5119 
L -1369 5119 
L -603 3944 
L -1038 3944 
L -1600 4709 
L -2163 3944 
L -2597 3944 
L -1831 5119 
z
M -1600 3584 
L -1600 3584 
z
" transform="scale(0.015625)"/>
       <path id="DejaVuSans-28" d="M 1984 4856 
Q 1566 4138 1362 3434 
Q 1159 2731 1159 2009 
Q 1159 1288 1364 580 
Q 1569 -128 1984 -844 
L 1484 -844 
Q 1016 -109 783 600 
Q 550 1309 550 2009 
Q 550 2706 781 3412 
Q 1013 4119 1484 4856 
L 1984 4856 
z
" transform="scale(0.015625)"/>
       <path id="DejaVuSans-6b" d="M 581 4863 
L 1159 4863 
L 1159 1991 
L 2875 3500 
L 3609 3500 
L 1753 1863 
L 3688 0 
L 2938 0 
L 1159 1709 
L 1159 0 
L 581 0 
L 581 4863 
z
" transform="scale(0.015625)"/>
       <path id="DejaVuSans-29" d="M 513 4856 
L 1013 4856 
Q 1481 4119 1714 3412 
Q 1947 2706 1947 2009 
Q 1947 1309 1714 600 
Q 1481 -109 1013 -844 
L 513 -844 
Q 928 -128 1133 580 
Q 1338 1288 1338 2009 
Q 1338 2731 1133 3434 
Q 928 4138 513 4856 
z
" transform="scale(0.015625)"/>
       <path id="DejaVuSans-b2" d="M 838 2444 
L 2163 2444 
L 2163 2088 
L 294 2088 
L 294 2431 
Q 400 2528 597 2703 
Q 1672 3656 1672 3950 
Q 1672 4156 1509 4282 
Q 1347 4409 1081 4409 
Q 919 4409 728 4354 
Q 538 4300 313 4191 
L 313 4575 
Q 553 4663 761 4706 
Q 969 4750 1147 4750 
Q 1600 4750 1872 4544 
Q 2144 4338 2144 4000 
Q 2144 3566 1109 2678 
Q 934 2528 838 2444 
z
" transform="scale(0.015625)"/>
      </defs>
      <use xlink:href="#DejaVuSans-7c"/>
      <use xlink:href="#DejaVuSans-6e" x="33.691406"/>
      <use xlink:href="#DejaVuSans-302" x="97.070312"/>
      <use xlink:href="#DejaVuSans-28" x="97.070312"/>
      <use xlink:href="#DejaVuSans-6b" x="136.083984"/>
      <use xlink:href="#DejaVuSans-29" x="193.994141"/>
      <use xlink:href="#DejaVuSans-7c" x="233.007812"/>
      <use xlink:href="#DejaVuSans-b2" x="266.699219"/>
     </g>
    </g>
   </g>
   <g id="line2d_25">
    <path d="M 64.575472 228.56337 
L 75.215167 228.049958 
L 80.535014 228.752656 
L 91.174709 228.387701 
L 96.494556 228.463416 
L 101.814404 227.909826 
L 107.134251 228.021765 
L 112.454098 228.292949 
L 117.773946 228.189927 
L 123.093793 227.452282 
L 128.41364 228.14749 
L 133.733488 224.268008 
L 139.053335 218.537538 
L 144.373182 213.970547 
L 149.69303 217.831377 
L 160.332724 228.249345 
L 165.652572 228.396417 
L 176.292266 228.031838 
L 181.612114 228.352724 
L 192.251808 228.516981 
L 197.571656 228.322679 
L 202.891503 228.449801 
L 208.21135 228.181597 
L 213.531198 228.523419 
L 218.851045 227.346404 
L 224.170892 228.621604 
L 229.49074 228.51735 
L 234.810587 228.603558 
L 240.130434 227.22466 
L 245.450282 228.456631 
L 250.770129 228.746147 
L 266.729671 228.748551 
L 277.369366 228.736241 
L 282.689213 228.640471 
L 288.00906 228.763406 
L 293.328908 228.673234 
L 298.648755 228.298319 
L 303.968602 228.708251 
L 341.207534 228.756052 
L 373.126618 228.749985 
L 378.446465 228.654366 
L 389.08616 228.745215 
L 415.685397 228.750179 
L 497.158125 228.766513 
L 497.158125 228.766513 
" clip-path="url(#pb105284854)" style="fill: none; stroke: #e41a1c; stroke-linecap: square"/>
   </g>
   <g id="line2d_26">
    <path d="M 144.373182 213.970547 
" clip-path="url(#pb105284854)" style="fill: none; stroke: #e41a1c; stroke-width: 1.5; stroke-linecap: square"/>
    <defs>
     <path id="m9e78f5639f" d="M 0 2.5 
C 0.663008 2.5 1.29895 2.236584 1.767767 1.767767 
C 2.236584 1.29895 2.5 0.663008 2.5 0 
C 2.5 -0.663008 2.236584 -1.29895 1.767767 -1.767767 
C 1.29895 -2.236584 0.663008 -2.5 0 -2.5 
C -0.663008 -2.5 -1.29895 -2.236584 -1.767767 -1.767767 
C -2.236584 -1.29895 -2.5 -0.663008 -2.5 0 
C -2.5 0.663008 -2.236584 1.29895 -1.767767 1.767767 
C -1.29895 2.236584 -0.663008 2.5 0 2.5 
z
" style="stroke: #ffffff"/>
    </defs>
    <g clip-path="url(#pb105284854)">
     <use xlink:href="#m9e78f5639f" x="144.373182" y="213.970547" style="fill: #e41a1c; stroke: #ffffff"/>
    </g>
   </g>
   <g id="line2d_27">
    <path d="M 84.656025 238.598125 
L 84.656025 22.318125 
" clip-path="url(#pb105284854)" style="fill: none; stroke-dasharray: 1,1.65; stroke-dashoffset: 0; stroke: #000000; stroke-opacity: 0.5"/>
   </g>
   <g id="line2d_28">
    <path d="M 101.589625 238.598125 
L 101.589625 22.318125 
" clip-path="url(#pb105284854)" style="fill: none; stroke-dasharray: 1,1.65; stroke-dashoffset: 0; stroke: #000000; stroke-opacity: 0.5"/>
   </g>
   <g id="line2d_29">
    <path d="M 64.575472 190.606143 
L 69.89532 190.580787 
L 75.215167 190.39476 
L 80.535014 190.431973 
L 85.854862 189.915941 
L 91.174709 190.561992 
L 101.814404 190.054689 
L 107.134251 190.483499 
L 112.454098 190.605096 
L 117.773946 190.392963 
L 123.093793 190.551951 
L 128.41364 189.708751 
L 133.733488 186.514886 
L 139.053335 188.719368 
L 144.373182 187.713235 
L 149.69303 189.875099 
L 155.012877 189.718888 
L 160.332724 174.687896 
L 165.652572 188.48859 
L 170.972419 185.809933 
L 176.292266 189.412921 
L 181.612114 188.13548 
L 186.931961 189.655295 
L 192.251808 190.440625 
L 197.571656 190.233543 
L 202.891503 190.451991 
L 208.21135 190.347445 
L 213.531198 190.585583 
L 218.851045 190.534068 
L 224.170892 190.604181 
L 229.49074 190.356783 
L 234.810587 189.863742 
L 240.130434 190.415471 
L 245.450282 190.232978 
L 250.770129 190.553391 
L 261.409824 190.218194 
L 266.729671 190.523431 
L 277.369366 190.346654 
L 282.689213 190.563413 
L 497.158125 190.607544 
L 497.158125 190.607544 
" clip-path="url(#pb105284854)" style="fill: none; stroke: #377eb8; stroke-linecap: square"/>
   </g>
   <g id="line2d_30">
    <path d="M 160.332724 174.687896 
" clip-path="url(#pb105284854)" style="fill: none; stroke: #377eb8; stroke-width: 1.5; stroke-linecap: square"/>
    <defs>
     <path id="ma1eb45672c" d="M 0 2.5 
C 0.663008 2.5 1.29895 2.236584 1.767767 1.767767 
C 2.236584 1.29895 2.5 0.663008 2.5 0 
C 2.5 -0.663008 2.236584 -1.29895 1.767767 -1.767767 
C 1.29895 -2.236584 0.663008 -2.5 0 -2.5 
C -0.663008 -2.5 -1.29895 -2.236584 -1.767767 -1.767767 
C -2.236584 -1.29895 -2.5 -0.663008 -2.5 0 
C -2.5 0.663008 -2.236584 1.29895 -1.767767 1.767767 
C -1.29895 2.236584 -0.663008 2.5 0 2.5 
z
" style="stroke: #ffffff"/>
    </defs>
    <g clip-path="url(#pb105284854)">
     <use xlink:href="#ma1eb45672c" x="160.332724" y="174.687896" style="fill: #377eb8; stroke: #ffffff"/>
    </g>
   </g>
   <g id="line2d_31">
    <path d="M 101.589625 238.598125 
L 101.589625 22.318125 
" clip-path="url(#pb105284854)" style="fill: none; stroke-dasharray: 1,1.65; stroke-dashoffset: 0; stroke: #000000; stroke-opacity: 0.5"/>
   </g>
   <g id="line2d_32">
    <path d="M 126.990025 238.598125 
L 126.990025 22.318125 
" clip-path="url(#pb105284854)" style="fill: none; stroke-dasharray: 1,1.65; stroke-dashoffset: 0; stroke: #000000; stroke-opacity: 0.5"/>
   </g>
   <g id="line2d_33">
    <path d="M 64.575472 152.404891 
L 75.215167 152.358765 
L 85.854862 152.438226 
L 91.174709 152.371395 
L 101.814404 152.420667 
L 117.773946 152.201679 
L 123.093793 152.108766 
L 128.41364 152.249782 
L 133.733488 152.126995 
L 139.053335 150.669721 
L 144.373182 151.262863 
L 149.69303 150.179188 
L 155.012877 147.239558 
L 160.332724 148.532894 
L 165.652572 147.415837 
L 170.972419 136.047503 
L 176.292266 152.27465 
L 181.612114 151.033145 
L 186.931961 152.160931 
L 192.251808 152.424504 
L 213.531198 152.44933 
L 229.49074 152.302972 
L 234.810587 152.127418 
L 245.450282 152.151784 
L 250.770129 152.440103 
L 256.089976 152.298098 
L 261.409824 152.429953 
L 266.729671 152.102472 
L 272.049518 152.306217 
L 277.369366 152.208875 
L 282.689213 151.69485 
L 288.00906 152.429873 
L 293.328908 152.220412 
L 298.648755 152.42127 
L 319.928144 152.441083 
L 383.766312 152.429976 
L 497.158125 152.44897 
L 497.158125 152.44897 
" clip-path="url(#pb105284854)" style="fill: none; stroke: #4daf4a; stroke-linecap: square"/>
   </g>
   <g id="line2d_34">
    <path d="M 170.972419 136.047503 
" clip-path="url(#pb105284854)" style="fill: none; stroke: #4daf4a; stroke-width: 1.5; stroke-linecap: square"/>
    <defs>
     <path id="m3208ad61ff" d="M 0 2.5 
C 0.663008 2.5 1.29895 2.236584 1.767767 1.767767 
C 2.236584 1.29895 2.5 0.663008 2.5 0 
C 2.5 -0.663008 2.236584 -1.29895 1.767767 -1.767767 
C 1.29895 -2.236584 0.663008 -2.5 0 -2.5 
C -0.663008 -2.5 -1.29895 -2.236584 -1.767767 -1.767767 
C -2.236584 -1.29895 -2.5 -0.663008 -2.5 0 
C -2.5 0.663008 -2.236584 1.29895 -1.767767 1.767767 
C -1.29895 2.236584 -0.663008 2.5 0 2.5 
z
" style="stroke: #ffffff"/>
    </defs>
    <g clip-path="url(#pb105284854)">
     <use xlink:href="#m3208ad61ff" x="170.972419" y="136.047503" style="fill: #4daf4a; stroke: #ffffff"/>
    </g>
   </g>
   <g id="line2d_35">
    <path d="M 126.990025 238.598125 
L 126.990025 22.318125 
" clip-path="url(#pb105284854)" style="fill: none; stroke-dasharray: 1,1.65; stroke-dashoffset: 0; stroke: #000000; stroke-opacity: 0.5"/>
   </g>
   <g id="line2d_36">
    <path d="M 169.324025 238.598125 
L 169.324025 22.318125 
" clip-path="url(#pb105284854)" style="fill: none; stroke-dasharray: 1,1.65; stroke-dashoffset: 0; stroke: #000000; stroke-opacity: 0.5"/>
   </g>
   <g id="line2d_37">
    <path d="M 64.575472 114.292242 
L 96.494556 114.297148 
L 101.814404 114.061359 
L 107.134251 114.297026 
L 123.093793 114.296641 
L 128.41364 113.811116 
L 133.733488 114.295145 
L 139.053335 114.295395 
L 144.373182 113.699676 
L 149.69303 114.295152 
L 165.652572 114.15192 
L 170.972419 81.217293 
L 176.292266 114.185009 
L 181.612114 114.290098 
L 213.531198 114.268156 
L 234.810587 114.29647 
L 240.130434 114.215094 
L 250.770129 114.294901 
L 256.089976 114.158385 
L 261.409824 114.294525 
L 277.369366 114.260613 
L 282.689213 112.151955 
L 288.00906 114.26856 
L 303.968602 114.295921 
L 314.608297 114.296214 
L 389.08616 114.288973 
L 394.406007 114.073288 
L 399.725854 114.290793 
L 497.158125 114.296558 
L 497.158125 114.296558 
" clip-path="url(#pb105284854)" style="fill: none; stroke: #984ea3; stroke-linecap: square"/>
   </g>
   <g id="line2d_38">
    <path d="M 170.972419 81.217293 
" clip-path="url(#pb105284854)" style="fill: none; stroke: #984ea3; stroke-width: 1.5; stroke-linecap: square"/>
    <defs>
     <path id="m567f474249" d="M 0 2.5 
C 0.663008 2.5 1.29895 2.236584 1.767767 1.767767 
C 2.236584 1.29895 2.5 0.663008 2.5 0 
C 2.5 -0.663008 2.236584 -1.29895 1.767767 -1.767767 
C 1.29895 -2.236584 0.663008 -2.5 0 -2.5 
C -0.663008 -2.5 -1.29895 -2.236584 -1.767767 -1.767767 
C -2.236584 -1.29895 -2.5 -0.663008 -2.5 0 
C -2.5 0.663008 -2.236584 1.29895 -1.767767 1.767767 
C -1.29895 2.236584 -0.663008 2.5 0 2.5 
z
" style="stroke: #ffffff"/>
    </defs>
    <g clip-path="url(#pb105284854)">
     <use xlink:href="#m567f474249" x="170.972419" y="81.217293" style="fill: #984ea3; stroke: #ffffff"/>
    </g>
   </g>
   <g id="line2d_39">
    <path d="M 169.324025 238.598125 
L 169.324025 22.318125 
" clip-path="url(#pb105284854)" style="fill: none; stroke-dasharray: 1,1.65; stroke-dashoffset: 0; stroke: #000000; stroke-opacity: 0.5"/>
   </g>
   <g id="line2d_40">
    <path d="M 237.058425 238.598125 
L 237.058425 22.318125 
" clip-path="url(#pb105284854)" style="fill: none; stroke-dasharray: 1,1.65; stroke-dashoffset: 0; stroke: #000000; stroke-opacity: 0.5"/>
   </g>
   <g id="line2d_41">
    <path d="M 64.575472 76.10931 
L 69.89532 75.709481 
L 75.215167 73.421482 
L 80.535014 75.307418 
L 85.854862 73.173179 
L 91.174709 75.999976 
L 96.494556 76.135646 
L 101.814404 73.910691 
L 107.134251 75.422357 
L 112.454098 75.771727 
L 117.773946 74.680139 
L 123.093793 74.930771 
L 128.41364 73.979611 
L 133.733488 74.97992 
L 139.053335 69.686672 
L 144.373182 73.582691 
L 149.69303 72.517047 
L 155.012877 69.924374 
L 160.332724 75.016791 
L 165.652572 73.442954 
L 170.972419 73.671655 
L 176.292266 75.958437 
L 181.612114 73.118479 
L 186.931961 75.36202 
L 192.251808 75.656794 
L 197.571656 74.995789 
L 202.891503 76.045626 
L 208.21135 75.953228 
L 213.531198 76.093156 
L 218.851045 76.066621 
L 224.170892 75.287072 
L 229.49074 76.114954 
L 234.810587 75.971869 
L 240.130434 75.550585 
L 245.450282 75.773113 
L 250.770129 75.365385 
L 256.089976 76.041419 
L 266.729671 76.113948 
L 272.049518 75.908103 
L 277.369366 76.070011 
L 282.689213 75.972342 
L 303.968602 76.101458 
L 431.644939 76.138312 
L 497.158125 76.139341 
L 497.158125 76.139341 
" clip-path="url(#pb105284854)" style="fill: none; stroke: #ff7f00; stroke-linecap: square"/>
   </g>
   <g id="line2d_42">
    <path d="M 139.053335 69.686672 
" clip-path="url(#pb105284854)" style="fill: none; stroke: #ff7f00; stroke-width: 1.5; stroke-linecap: square"/>
    <defs>
     <path id="m7a719849aa" d="M 0 2.5 
C 0.663008 2.5 1.29895 2.236584 1.767767 1.767767 
C 2.236584 1.29895 2.5 0.663008 2.5 0 
C 2.5 -0.663008 2.236584 -1.29895 1.767767 -1.767767 
C 1.29895 -2.236584 0.663008 -2.5 0 -2.5 
C -0.663008 -2.5 -1.29895 -2.236584 -1.767767 -1.767767 
C -2.236584 -1.29895 -2.5 -0.663008 -2.5 0 
C -2.5 0.663008 -2.236584 1.29895 -1.767767 1.767767 
C -1.29895 2.236584 -0.663008 2.5 0 2.5 
z
" style="stroke: #ffffff"/>
    </defs>
    <g clip-path="url(#pb105284854)">
     <use xlink:href="#m7a719849aa" x="139.053335" y="69.686672" style="fill: #ff7f00; stroke: #ffffff"/>
    </g>
   </g>
   <g id="line2d_43">
    <path d="M 237.058425 238.598125 
L 237.058425 22.318125 
" clip-path="url(#pb105284854)" style="fill: none; stroke-dasharray: 1,1.65; stroke-dashoffset: 0; stroke: #000000; stroke-opacity: 0.5"/>
   </g>
   <g id="line2d_44">
    <path d="M 347.126825 238.598125 
L 347.126825 22.318125 
" clip-path="url(#pb105284854)" style="fill: none; stroke-dasharray: 1,1.65; stroke-dashoffset: 0; stroke: #000000; stroke-opacity: 0.5"/>
   </g>
   <g id="line2d_45">
    <path d="M 64.575472 37.97751 
L 69.89532 37.958494 
L 75.215167 37.228105 
L 80.535014 37.977475 
L 85.854862 36.341956 
L 91.174709 37.883705 
L 96.494556 37.764206 
L 101.814404 37.366306 
L 107.134251 37.957934 
L 117.773946 37.683916 
L 123.093793 37.931111 
L 128.41364 33.406509 
L 133.733488 37.851575 
L 139.053335 37.2373 
L 144.373182 35.553969 
L 149.69303 37.820459 
L 155.012877 32.149034 
L 160.332724 37.772158 
L 165.652572 37.6638 
L 170.972419 33.716316 
L 176.292266 37.843927 
L 181.612114 37.74572 
L 186.931961 36.821594 
L 192.251808 37.863657 
L 197.571656 34.631609 
L 202.891503 37.856088 
L 213.531198 37.933293 
L 218.851045 37.970796 
L 224.170892 37.060769 
L 229.49074 37.95548 
L 234.810587 37.741985 
L 240.130434 37.086751 
L 245.450282 37.982844 
L 266.729671 37.875138 
L 272.049518 37.980535 
L 282.689213 37.884036 
L 288.00906 37.983215 
L 293.328908 37.819397 
L 303.968602 37.951559 
L 319.928144 37.951099 
L 357.167076 37.983341 
L 373.126618 37.93978 
L 405.045702 37.981118 
L 497.158125 37.982596 
L 497.158125 37.982596 
" clip-path="url(#pb105284854)" style="fill: none; stroke: #a65628; stroke-linecap: square"/>
   </g>
   <g id="line2d_46">
    <path d="M 155.012877 32.149034 
" clip-path="url(#pb105284854)" style="fill: none; stroke: #a65628; stroke-width: 1.5; stroke-linecap: square"/>
    <defs>
     <path id="mda341d984e" d="M 0 2.5 
C 0.663008 2.5 1.29895 2.236584 1.767767 1.767767 
C 2.236584 1.29895 2.5 0.663008 2.5 0 
C 2.5 -0.663008 2.236584 -1.29895 1.767767 -1.767767 
C 1.29895 -2.236584 0.663008 -2.5 0 -2.5 
C -0.663008 -2.5 -1.29895 -2.236584 -1.767767 -1.767767 
C -2.236584 -1.29895 -2.5 -0.663008 -2.5 0 
C -2.5 0.663008 -2.236584 1.29895 -1.767767 1.767767 
C -1.29895 2.236584 -0.663008 2.5 0 2.5 
z
" style="stroke: #ffffff"/>
    </defs>
    <g clip-path="url(#pb105284854)">
     <use xlink:href="#mda341d984e" x="155.012877" y="32.149034" style="fill: #a65628; stroke: #ffffff"/>
    </g>
   </g>
   <g id="line2d_47">
    <path d="M 347.126825 238.598125 
L 347.126825 22.318125 
" clip-path="url(#pb105284854)" style="fill: none; stroke-dasharray: 1,1.65; stroke-dashoffset: 0; stroke: #000000; stroke-opacity: 0.5"/>
   </g>
   <g id="line2d_48">
    <path clip-path="url(#pb105284854)" style="fill: none; stroke-dasharray: 1,1.65; stroke-dashoffset: 0; stroke: #000000; stroke-opacity: 0.5"/>
   </g>
   <g id="patch_3">
    <path d="M 59.255625 238.598125 
L 59.255625 22.318125 
" style="fill: none; stroke: #000000; stroke-width: 0.8; stroke-linejoin: miter; stroke-linecap: square"/>
   </g>
   <g id="patch_4">
    <path d="M 59.255625 238.598125 
L 482.595625 238.598125 
" style="fill: none; stroke: #000000; stroke-width: 0.8; stroke-linejoin: miter; stroke-linecap: square"/>
   </g>
   <g id="text_15">
    <!-- Combined spectra -->
    <g transform="translate(216.112812 16.318125) scale(0.12 -0.12)">
     <defs>
      <path id="DejaVuSans-43" d="M 4122 4306 
L 4122 3641 
Q 3803 3938 3442 4084 
Q 3081 4231 2675 4231 
Q 1875 4231 1450 3742 
Q 1025 3253 1025 2328 
Q 1025 1406 1450 917 
Q 1875 428 2675 428 
Q 3081 428 3442 575 
Q 3803 722 4122 1019 
L 4122 359 
Q 3791 134 3420 21 
Q 3050 -91 2638 -91 
Q 1578 -91 968 557 
Q 359 1206 359 2328 
Q 359 3453 968 4101 
Q 1578 4750 2638 4750 
Q 3056 4750 3426 4639 
Q 3797 4528 4122 4306 
z
" transform="scale(0.015625)"/>
      <path id="DejaVuSans-6f" d="M 1959 3097 
Q 1497 3097 1228 2736 
Q 959 2375 959 1747 
Q 959 1119 1226 758 
Q 1494 397 1959 397 
Q 2419 397 2687 759 
Q 2956 1122 2956 1747 
Q 2956 2369 2687 2733 
Q 2419 3097 1959 3097 
z
M 1959 3584 
Q 2709 3584 3137 3096 
Q 3566 2609 3566 1747 
Q 3566 888 3137 398 
Q 2709 -91 1959 -91 
Q 1206 -91 779 398 
Q 353 888 353 1747 
Q 353 2609 779 3096 
Q 1206 3584 1959 3584 
z
" transform="scale(0.015625)"/>
      <path id="DejaVuSans-6d" d="M 3328 2828 
Q 3544 3216 3844 3400 
Q 4144 3584 4550 3584 
Q 5097 3584 5394 3201 
Q 5691 2819 5691 2113 
L 5691 0 
L 5113 0 
L 5113 2094 
Q 5113 2597 4934 2840 
Q 4756 3084 4391 3084 
Q 3944 3084 3684 2787 
Q 3425 2491 3425 1978 
L 3425 0 
L 2847 0 
L 2847 2094 
Q 2847 2600 2669 2842 
Q 2491 3084 2119 3084 
Q 1678 3084 1418 2786 
Q 1159 2488 1159 1978 
L 1159 0 
L 581 0 
L 581 3500 
L 1159 3500 
L 1159 2956 
Q 1356 3278 1631 3431 
Q 1906 3584 2284 3584 
Q 2666 3584 2933 3390 
Q 3200 3197 3328 2828 
z
" transform="scale(0.015625)"/>
      <path id="DejaVuSans-62" d="M 3116 1747 
Q 3116 2381 2855 2742 
Q 2594 3103 2138 3103 
Q 1681 3103 1420 2742 
Q 1159 2381 1159 1747 
Q 1159 1113 1420 752 
Q 1681 391 2138 391 
Q 2594 391 2855 752 
Q 3116 1113 3116 1747 
z
M 1159 2969 
Q 1341 3281 1617 3432 
Q 1894 3584 2278 3584 
Q 2916 3584 3314 3078 
Q 3713 2572 3713 1747 
Q 3713 922 3314 415 
Q 2916 -91 2278 -91 
Q 1894 -91 1617 61 
Q 1341 213 1159 525 
L 1159 0 
L 581 0 
L 581 4863 
L 1159 4863 
L 1159 2969 
z
" transform="scale(0.015625)"/>
      <path id="DejaVuSans-69" d="M 603 3500 
L 1178 3500 
L 1178 0 
L 603 0 
L 603 3500 
z
M 603 4863 
L 1178 4863 
L 1178 4134 
L 603 4134 
L 603 4863 
z
" transform="scale(0.015625)"/>
      <path id="DejaVuSans-65" d="M 3597 1894 
L 3597 1613 
L 953 1613 
Q 991 1019 1311 708 
Q 1631 397 2203 397 
Q 2534 397 2845 478 
Q 3156 559 3463 722 
L 3463 178 
Q 3153 47 2828 -22 
Q 2503 -91 2169 -91 
Q 1331 -91 842 396 
Q 353 884 353 1716 
Q 353 2575 817 3079 
Q 1281 3584 2069 3584 
Q 2775 3584 3186 3129 
Q 3597 2675 3597 1894 
z
M 3022 2063 
Q 3016 2534 2758 2815 
Q 2500 3097 2075 3097 
Q 1594 3097 1305 2825 
Q 1016 2553 972 2059 
L 3022 2063 
z
" transform="scale(0.015625)"/>
      <path id="DejaVuSans-64" d="M 2906 2969 
L 2906 4863 
L 3481 4863 
L 3481 0 
L 2906 0 
L 2906 525 
Q 2725 213 2448 61 
Q 2172 -91 1784 -91 
Q 1150 -91 751 415 
Q 353 922 353 1747 
Q 353 2572 751 3078 
Q 1150 3584 1784 3584 
Q 2172 3584 2448 3432 
Q 2725 3281 2906 2969 
z
M 947 1747 
Q 947 1113 1208 752 
Q 1469 391 1925 391 
Q 2381 391 2643 752 
Q 2906 1113 2906 1747 
Q 2906 2381 2643 2742 
Q 2381 3103 1925 3103 
Q 1469 3103 1208 2742 
Q 947 2381 947 1747 
z
" transform="scale(0.015625)"/>
      <path id="DejaVuSans-20" transform="scale(0.015625)"/>
      <path id="DejaVuSans-73" d="M 2834 3397 
L 2834 2853 
Q 2591 2978 2328 3040 
Q 2066 3103 1784 3103 
Q 1356 3103 1142 2972 
Q 928 2841 928 2578 
Q 928 2378 1081 2264 
Q 1234 2150 1697 2047 
L 1894 2003 
Q 2506 1872 2764 1633 
Q 3022 1394 3022 966 
Q 3022 478 2636 193 
Q 2250 -91 1575 -91 
Q 1294 -91 989 -36 
Q 684 19 347 128 
L 347 722 
Q 666 556 975 473 
Q 1284 391 1588 391 
Q 1994 391 2212 530 
Q 2431 669 2431 922 
Q 2431 1156 2273 1281 
Q 2116 1406 1581 1522 
L 1381 1569 
Q 847 1681 609 1914 
Q 372 2147 372 2553 
Q 372 3047 722 3315 
Q 1072 3584 1716 3584 
Q 2034 3584 2315 3537 
Q 2597 3491 2834 3397 
z
" transform="scale(0.015625)"/>
      <path id="DejaVuSans-70" d="M 1159 525 
L 1159 -1331 
L 581 -1331 
L 581 3500 
L 1159 3500 
L 1159 2969 
Q 1341 3281 1617 3432 
Q 1894 3584 2278 3584 
Q 2916 3584 3314 3078 
Q 3713 2572 3713 1747 
Q 3713 922 3314 415 
Q 2916 -91 2278 -91 
Q 1894 -91 1617 61 
Q 1341 213 1159 525 
z
M 3116 1747 
Q 3116 2381 2855 2742 
Q 2594 3103 2138 3103 
Q 1681 3103 1420 2742 
Q 1159 2381 1159 1747 
Q 1159 1113 1420 752 
Q 1681 391 2138 391 
Q 2594 391 2855 752 
Q 3116 1113 3116 1747 
z
" transform="scale(0.015625)"/>
      <path id="DejaVuSans-63" d="M 3122 3366 
L 3122 2828 
Q 2878 2963 2633 3030 
Q 2388 3097 2138 3097 
Q 1578 3097 1268 2742 
Q 959 2388 959 1747 
Q 959 1106 1268 751 
Q 1578 397 2138 397 
Q 2388 397 2633 464 
Q 2878 531 3122 666 
L 3122 134 
Q 2881 22 2623 -34 
Q 2366 -91 2075 -91 
Q 1284 -91 818 406 
Q 353 903 353 1747 
Q 353 2603 823 3093 
Q 1294 3584 2113 3584 
Q 2378 3584 2631 3529 
Q 2884 3475 3122 3366 
z
" transform="scale(0.015625)"/>
      <path id="DejaVuSans-74" d="M 1172 4494 
L 1172 3500 
L 2356 3500 
L 2356 3053 
L 1172 3053 
L 1172 1153 
Q 1172 725 1289 603 
Q 1406 481 1766 481 
L 2356 481 
L 2356 0 
L 1766 0 
Q 1100 0 847 248 
Q 594 497 594 1153 
L 594 3053 
L 172 3053 
L 172 3500 
L 594 3500 
L 594 4494 
L 1172 4494 
z
" transform="scale(0.015625)"/>
      <path id="DejaVuSans-72" d="M 2631 2963 
Q 2534 3019 2420 3045 
Q 2306 3072 2169 3072 
Q 1681 3072 1420 2755 
Q 1159 2438 1159 1844 
L 1159 0 
L 581 0 
L 581 3500 
L 1159 3500 
L 1159 2956 
Q 1341 3275 1631 3429 
Q 1922 3584 2338 3584 
Q 2397 3584 2469 3576 
Q 2541 3569 2628 3553 
L 2631 2963 
z
" transform="scale(0.015625)"/>
      <path id="DejaVuSans-61" d="M 2194 1759 
Q 1497 1759 1228 1600 
Q 959 1441 959 1056 
Q 959 750 1161 570 
Q 1363 391 1709 391 
Q 2188 391 2477 730 
Q 2766 1069 2766 1631 
L 2766 1759 
L 2194 1759 
z
M 3341 1997 
L 3341 0 
L 2766 0 
L 2766 531 
Q 2569 213 2275 61 
Q 1981 -91 1556 -91 
Q 1019 -91 701 211 
Q 384 513 384 1019 
Q 384 1609 779 1909 
Q 1175 2209 1959 2209 
L 2766 2209 
L 2766 2266 
Q 2766 2663 2505 2880 
Q 2244 3097 1772 3097 
Q 1472 3097 1187 3025 
Q 903 2953 641 2809 
L 641 3341 
Q 956 3463 1253 3523 
Q 1550 3584 1831 3584 
Q 2591 3584 2966 3190 
Q 3341 2797 3341 1997 
z
" transform="scale(0.015625)"/>
     </defs>
     <use xlink:href="#DejaVuSans-43"/>
     <use xlink:href="#DejaVuSans-6f" x="69.824219"/>
     <use xlink:href="#DejaVuSans-6d" x="131.005859"/>
     <use xlink:href="#DejaVuSans-62" x="228.417969"/>
     <use xlink:href="#DejaVuSans-69" x="291.894531"/>
     <use xlink:href="#DejaVuSans-6e" x="319.677734"/>
     <use xlink:href="#DejaVuSans-65" x="383.056641"/>
     <use xlink:href="#DejaVuSans-64" x="444.580078"/>
     <use xlink:href="#DejaVuSans-20" x="508.056641"/>
     <use xlink:href="#DejaVuSans-73" x="539.84375"/>
     <use xlink:href="#DejaVuSans-70" x="591.943359"/>
     <use xlink:href="#DejaVuSans-65" x="655.419922"/>
     <use xlink:href="#DejaVuSans-63" x="716.943359"/>
     <use xlink:href="#DejaVuSans-74" x="771.923828"/>
     <use xlink:href="#DejaVuSans-72" x="811.132812"/>
     <use xlink:href="#DejaVuSans-61" x="852.246094"/>
    </g>
   </g>
   <g id="legend_1">
    <g id="line2d_49">
     <path d="M 175.475625 32.798125 
L 183.475625 32.798125 
L 191.475625 32.798125 
" style="fill: none; stroke: #e41a1c; stroke-linecap: square"/>
    </g>
    <g id="text_16">
     <!-- $\cos(3x) + \cos(5x)$ (t=t_final) -->
     <g transform="translate(197.875625 35.598125) scale(0.08 -0.08)">
      <defs>
       <path id="DejaVuSans-Oblique-78" d="M 3841 3500 
L 2234 1784 
L 3219 0 
L 2559 0 
L 1819 1388 
L 531 0 
L -166 0 
L 1556 1844 
L 641 3500 
L 1300 3500 
L 1972 2234 
L 3144 3500 
L 3841 3500 
z
" transform="scale(0.015625)"/>
       <path id="DejaVuSans-2b" d="M 2944 4013 
L 2944 2272 
L 4684 2272 
L 4684 1741 
L 2944 1741 
L 2944 0 
L 2419 0 
L 2419 1741 
L 678 1741 
L 678 2272 
L 2419 2272 
L 2419 4013 
L 2944 4013 
z
" transform="scale(0.015625)"/>
       <path id="DejaVuSans-3d" d="M 678 2906 
L 4684 2906 
L 4684 2381 
L 678 2381 
L 678 2906 
z
M 678 1631 
L 4684 1631 
L 4684 1100 
L 678 1100 
L 678 1631 
z
" transform="scale(0.015625)"/>
       <path id="DejaVuSans-5f" d="M 3263 -1063 
L 3263 -1509 
L -63 -1509 
L -63 -1063 
L 3263 -1063 
z
" transform="scale(0.015625)"/>
       <path id="DejaVuSans-66" d="M 2375 4863 
L 2375 4384 
L 1825 4384 
Q 1516 4384 1395 4259 
Q 1275 4134 1275 3809 
L 1275 3500 
L 2222 3500 
L 2222 3053 
L 1275 3053 
L 1275 0 
L 697 0 
L 697 3053 
L 147 3053 
L 147 3500 
L 697 3500 
L 697 3744 
Q 697 4328 969 4595 
Q 1241 4863 1831 4863 
L 2375 4863 
z
" transform="scale(0.015625)"/>
       <path id="DejaVuSans-6c" d="M 603 4863 
L 1178 4863 
L 1178 0 
L 603 0 
L 603 4863 
z
" transform="scale(0.015625)"/>
      </defs>
      <use xlink:href="#DejaVuSans-63" transform="translate(0 0.015625)"/>
      <use xlink:href="#DejaVuSans-6f" transform="translate(54.980469 0.015625)"/>
      <use xlink:href="#DejaVuSans-73" transform="translate(116.162109 0.015625)"/>
      <use xlink:href="#DejaVuSans-28" transform="translate(168.261719 0.015625)"/>
      <use xlink:href="#DejaVuSans-33" transform="translate(207.275391 0.015625)"/>
      <use xlink:href="#DejaVuSans-Oblique-78" transform="translate(270.898438 0.015625)"/>
      <use xlink:href="#DejaVuSans-29" transform="translate(330.078125 0.015625)"/>
      <use xlink:href="#DejaVuSans-2b" transform="translate(388.574219 0.015625)"/>
      <use xlink:href="#DejaVuSans-63" transform="translate(491.845703 0.015625)"/>
      <use xlink:href="#DejaVuSans-6f" transform="translate(546.826172 0.015625)"/>
      <use xlink:href="#DejaVuSans-73" transform="translate(608.007812 0.015625)"/>
      <use xlink:href="#DejaVuSans-28" transform="translate(660.107422 0.015625)"/>
      <use xlink:href="#DejaVuSans-35" transform="translate(699.121094 0.015625)"/>
      <use xlink:href="#DejaVuSans-Oblique-78" transform="translate(762.744141 0.015625)"/>
      <use xlink:href="#DejaVuSans-29" transform="translate(821.923828 0.015625)"/>
      <use xlink:href="#DejaVuSans-20" transform="translate(860.9375 0.015625)"/>
      <use xlink:href="#DejaVuSans-28" transform="translate(892.724609 0.015625)"/>
      <use xlink:href="#DejaVuSans-74" transform="translate(931.738281 0.015625)"/>
      <use xlink:href="#DejaVuSans-3d" transform="translate(970.947266 0.015625)"/>
      <use xlink:href="#DejaVuSans-74" transform="translate(1054.736328 0.015625)"/>
      <use xlink:href="#DejaVuSans-5f" transform="translate(1093.945312 0.015625)"/>
      <use xlink:href="#DejaVuSans-66" transform="translate(1143.945312 0.015625)"/>
      <use xlink:href="#DejaVuSans-69" transform="translate(1179.150391 0.015625)"/>
      <use xlink:href="#DejaVuSans-6e" transform="translate(1206.933594 0.015625)"/>
      <use xlink:href="#DejaVuSans-61" transform="translate(1270.3125 0.015625)"/>
      <use xlink:href="#DejaVuSans-6c" transform="translate(1331.591797 0.015625)"/>
      <use xlink:href="#DejaVuSans-29" transform="translate(1359.375 0.015625)"/>
     </g>
    </g>
    <g id="line2d_50">
     <path d="M 175.475625 44.798125 
L 183.475625 44.798125 
L 191.475625 44.798125 
" style="fill: none; stroke: #377eb8; stroke-linecap: square"/>
    </g>
    <g id="text_17">
     <!-- $\cos(5x) + \cos(8x)$ (t=t_final) -->
     <g transform="translate(197.875625 47.598125) scale(0.08 -0.08)">
      <defs>
       <path id="DejaVuSans-38" d="M 2034 2216 
Q 1584 2216 1326 1975 
Q 1069 1734 1069 1313 
Q 1069 891 1326 650 
Q 1584 409 2034 409 
Q 2484 409 2743 651 
Q 3003 894 3003 1313 
Q 3003 1734 2745 1975 
Q 2488 2216 2034 2216 
z
M 1403 2484 
Q 997 2584 770 2862 
Q 544 3141 544 3541 
Q 544 4100 942 4425 
Q 1341 4750 2034 4750 
Q 2731 4750 3128 4425 
Q 3525 4100 3525 3541 
Q 3525 3141 3298 2862 
Q 3072 2584 2669 2484 
Q 3125 2378 3379 2068 
Q 3634 1759 3634 1313 
Q 3634 634 3220 271 
Q 2806 -91 2034 -91 
Q 1263 -91 848 271 
Q 434 634 434 1313 
Q 434 1759 690 2068 
Q 947 2378 1403 2484 
z
M 1172 3481 
Q 1172 3119 1398 2916 
Q 1625 2713 2034 2713 
Q 2441 2713 2670 2916 
Q 2900 3119 2900 3481 
Q 2900 3844 2670 4047 
Q 2441 4250 2034 4250 
Q 1625 4250 1398 4047 
Q 1172 3844 1172 3481 
z
" transform="scale(0.015625)"/>
      </defs>
      <use xlink:href="#DejaVuSans-63" transform="translate(0 0.015625)"/>
      <use xlink:href="#DejaVuSans-6f" transform="translate(54.980469 0.015625)"/>
      <use xlink:href="#DejaVuSans-73" transform="translate(116.162109 0.015625)"/>
      <use xlink:href="#DejaVuSans-28" transform="translate(168.261719 0.015625)"/>
      <use xlink:href="#DejaVuSans-35" transform="translate(207.275391 0.015625)"/>
      <use xlink:href="#DejaVuSans-Oblique-78" transform="translate(270.898438 0.015625)"/>
      <use xlink:href="#DejaVuSans-29" transform="translate(330.078125 0.015625)"/>
      <use xlink:href="#DejaVuSans-2b" transform="translate(388.574219 0.015625)"/>
      <use xlink:href="#DejaVuSans-63" transform="translate(491.845703 0.015625)"/>
      <use xlink:href="#DejaVuSans-6f" transform="translate(546.826172 0.015625)"/>
      <use xlink:href="#DejaVuSans-73" transform="translate(608.007812 0.015625)"/>
      <use xlink:href="#DejaVuSans-28" transform="translate(660.107422 0.015625)"/>
      <use xlink:href="#DejaVuSans-38" transform="translate(699.121094 0.015625)"/>
      <use xlink:href="#DejaVuSans-Oblique-78" transform="translate(762.744141 0.015625)"/>
      <use xlink:href="#DejaVuSans-29" transform="translate(821.923828 0.015625)"/>
      <use xlink:href="#DejaVuSans-20" transform="translate(860.9375 0.015625)"/>
      <use xlink:href="#DejaVuSans-28" transform="translate(892.724609 0.015625)"/>
      <use xlink:href="#DejaVuSans-74" transform="translate(931.738281 0.015625)"/>
      <use xlink:href="#DejaVuSans-3d" transform="translate(970.947266 0.015625)"/>
      <use xlink:href="#DejaVuSans-74" transform="translate(1054.736328 0.015625)"/>
      <use xlink:href="#DejaVuSans-5f" transform="translate(1093.945312 0.015625)"/>
      <use xlink:href="#DejaVuSans-66" transform="translate(1143.945312 0.015625)"/>
      <use xlink:href="#DejaVuSans-69" transform="translate(1179.150391 0.015625)"/>
      <use xlink:href="#DejaVuSans-6e" transform="translate(1206.933594 0.015625)"/>
      <use xlink:href="#DejaVuSans-61" transform="translate(1270.3125 0.015625)"/>
      <use xlink:href="#DejaVuSans-6c" transform="translate(1331.591797 0.015625)"/>
      <use xlink:href="#DejaVuSans-29" transform="translate(1359.375 0.015625)"/>
     </g>
    </g>
    <g id="line2d_51">
     <path d="M 175.475625 56.798125 
L 183.475625 56.798125 
L 191.475625 56.798125 
" style="fill: none; stroke: #4daf4a; stroke-linecap: square"/>
    </g>
    <g id="text_18">
     <!-- $\cos(8x) + \cos(13x)$ (t=t_final) -->
     <g transform="translate(197.875625 59.598125) scale(0.08 -0.08)">
      <use xlink:href="#DejaVuSans-63" transform="translate(0 0.015625)"/>
      <use xlink:href="#DejaVuSans-6f" transform="translate(54.980469 0.015625)"/>
      <use xlink:href="#DejaVuSans-73" transform="translate(116.162109 0.015625)"/>
      <use xlink:href="#DejaVuSans-28" transform="translate(168.261719 0.015625)"/>
      <use xlink:href="#DejaVuSans-38" transform="translate(207.275391 0.015625)"/>
      <use xlink:href="#DejaVuSans-Oblique-78" transform="translate(270.898438 0.015625)"/>
      <use xlink:href="#DejaVuSans-29" transform="translate(330.078125 0.015625)"/>
      <use xlink:href="#DejaVuSans-2b" transform="translate(388.574219 0.015625)"/>
      <use xlink:href="#DejaVuSans-63" transform="translate(491.845703 0.015625)"/>
      <use xlink:href="#DejaVuSans-6f" transform="translate(546.826172 0.015625)"/>
      <use xlink:href="#DejaVuSans-73" transform="translate(608.007812 0.015625)"/>
      <use xlink:href="#DejaVuSans-28" transform="translate(660.107422 0.015625)"/>
      <use xlink:href="#DejaVuSans-31" transform="translate(699.121094 0.015625)"/>
      <use xlink:href="#DejaVuSans-33" transform="translate(762.744141 0.015625)"/>
      <use xlink:href="#DejaVuSans-Oblique-78" transform="translate(826.367188 0.015625)"/>
      <use xlink:href="#DejaVuSans-29" transform="translate(885.546875 0.015625)"/>
      <use xlink:href="#DejaVuSans-20" transform="translate(924.560547 0.015625)"/>
      <use xlink:href="#DejaVuSans-28" transform="translate(956.347656 0.015625)"/>
      <use xlink:href="#DejaVuSans-74" transform="translate(995.361328 0.015625)"/>
      <use xlink:href="#DejaVuSans-3d" transform="translate(1034.570312 0.015625)"/>
      <use xlink:href="#DejaVuSans-74" transform="translate(1118.359375 0.015625)"/>
      <use xlink:href="#DejaVuSans-5f" transform="translate(1157.568359 0.015625)"/>
      <use xlink:href="#DejaVuSans-66" transform="translate(1207.568359 0.015625)"/>
      <use xlink:href="#DejaVuSans-69" transform="translate(1242.773438 0.015625)"/>
      <use xlink:href="#DejaVuSans-6e" transform="translate(1270.556641 0.015625)"/>
      <use xlink:href="#DejaVuSans-61" transform="translate(1333.935547 0.015625)"/>
      <use xlink:href="#DejaVuSans-6c" transform="translate(1395.214844 0.015625)"/>
      <use xlink:href="#DejaVuSans-29" transform="translate(1422.998047 0.015625)"/>
     </g>
    </g>
    <g id="line2d_52">
     <path d="M 330.915625 32.798125 
L 338.915625 32.798125 
L 346.915625 32.798125 
" style="fill: none; stroke: #984ea3; stroke-linecap: square"/>
    </g>
    <g id="text_19">
     <!-- $\cos(13x) + \cos(21x)$ (t=t_final) -->
     <g transform="translate(353.315625 35.598125) scale(0.08 -0.08)">
      <use xlink:href="#DejaVuSans-63" transform="translate(0 0.015625)"/>
      <use xlink:href="#DejaVuSans-6f" transform="translate(54.980469 0.015625)"/>
      <use xlink:href="#DejaVuSans-73" transform="translate(116.162109 0.015625)"/>
      <use xlink:href="#DejaVuSans-28" transform="translate(168.261719 0.015625)"/>
      <use xlink:href="#DejaVuSans-31" transform="translate(207.275391 0.015625)"/>
      <use xlink:href="#DejaVuSans-33" transform="translate(270.898438 0.015625)"/>
      <use xlink:href="#DejaVuSans-Oblique-78" transform="translate(334.521484 0.015625)"/>
      <use xlink:href="#DejaVuSans-29" transform="translate(393.701172 0.015625)"/>
      <use xlink:href="#DejaVuSans-2b" transform="translate(452.197266 0.015625)"/>
      <use xlink:href="#DejaVuSans-63" transform="translate(555.46875 0.015625)"/>
      <use xlink:href="#DejaVuSans-6f" transform="translate(610.449219 0.015625)"/>
      <use xlink:href="#DejaVuSans-73" transform="translate(671.630859 0.015625)"/>
      <use xlink:href="#DejaVuSans-28" transform="translate(723.730469 0.015625)"/>
      <use xlink:href="#DejaVuSans-32" transform="translate(762.744141 0.015625)"/>
      <use xlink:href="#DejaVuSans-31" transform="translate(826.367188 0.015625)"/>
      <use xlink:href="#DejaVuSans-Oblique-78" transform="translate(889.990234 0.015625)"/>
      <use xlink:href="#DejaVuSans-29" transform="translate(949.169922 0.015625)"/>
      <use xlink:href="#DejaVuSans-20" transform="translate(988.183594 0.015625)"/>
      <use xlink:href="#DejaVuSans-28" transform="translate(1019.970703 0.015625)"/>
      <use xlink:href="#DejaVuSans-74" transform="translate(1058.984375 0.015625)"/>
      <use xlink:href="#DejaVuSans-3d" transform="translate(1098.193359 0.015625)"/>
      <use xlink:href="#DejaVuSans-74" transform="translate(1181.982422 0.015625)"/>
      <use xlink:href="#DejaVuSans-5f" transform="translate(1221.191406 0.015625)"/>
      <use xlink:href="#DejaVuSans-66" transform="translate(1271.191406 0.015625)"/>
      <use xlink:href="#DejaVuSans-69" transform="translate(1306.396484 0.015625)"/>
      <use xlink:href="#DejaVuSans-6e" transform="translate(1334.179688 0.015625)"/>
      <use xlink:href="#DejaVuSans-61" transform="translate(1397.558594 0.015625)"/>
      <use xlink:href="#DejaVuSans-6c" transform="translate(1458.837891 0.015625)"/>
      <use xlink:href="#DejaVuSans-29" transform="translate(1486.621094 0.015625)"/>
     </g>
    </g>
    <g id="line2d_53">
     <path d="M 330.915625 44.798125 
L 338.915625 44.798125 
L 346.915625 44.798125 
" style="fill: none; stroke: #ff7f00; stroke-linecap: square"/>
    </g>
    <g id="text_20">
     <!-- $\cos(21x) + \cos(34x)$ (t=t_final) -->
     <g transform="translate(353.315625 47.598125) scale(0.08 -0.08)">
      <use xlink:href="#DejaVuSans-63" transform="translate(0 0.015625)"/>
      <use xlink:href="#DejaVuSans-6f" transform="translate(54.980469 0.015625)"/>
      <use xlink:href="#DejaVuSans-73" transform="translate(116.162109 0.015625)"/>
      <use xlink:href="#DejaVuSans-28" transform="translate(168.261719 0.015625)"/>
      <use xlink:href="#DejaVuSans-32" transform="translate(207.275391 0.015625)"/>
      <use xlink:href="#DejaVuSans-31" transform="translate(270.898438 0.015625)"/>
      <use xlink:href="#DejaVuSans-Oblique-78" transform="translate(334.521484 0.015625)"/>
      <use xlink:href="#DejaVuSans-29" transform="translate(393.701172 0.015625)"/>
      <use xlink:href="#DejaVuSans-2b" transform="translate(452.197266 0.015625)"/>
      <use xlink:href="#DejaVuSans-63" transform="translate(555.46875 0.015625)"/>
      <use xlink:href="#DejaVuSans-6f" transform="translate(610.449219 0.015625)"/>
      <use xlink:href="#DejaVuSans-73" transform="translate(671.630859 0.015625)"/>
      <use xlink:href="#DejaVuSans-28" transform="translate(723.730469 0.015625)"/>
      <use xlink:href="#DejaVuSans-33" transform="translate(762.744141 0.015625)"/>
      <use xlink:href="#DejaVuSans-34" transform="translate(826.367188 0.015625)"/>
      <use xlink:href="#DejaVuSans-Oblique-78" transform="translate(889.990234 0.015625)"/>
      <use xlink:href="#DejaVuSans-29" transform="translate(949.169922 0.015625)"/>
      <use xlink:href="#DejaVuSans-20" transform="translate(988.183594 0.015625)"/>
      <use xlink:href="#DejaVuSans-28" transform="translate(1019.970703 0.015625)"/>
      <use xlink:href="#DejaVuSans-74" transform="translate(1058.984375 0.015625)"/>
      <use xlink:href="#DejaVuSans-3d" transform="translate(1098.193359 0.015625)"/>
      <use xlink:href="#DejaVuSans-74" transform="translate(1181.982422 0.015625)"/>
      <use xlink:href="#DejaVuSans-5f" transform="translate(1221.191406 0.015625)"/>
      <use xlink:href="#DejaVuSans-66" transform="translate(1271.191406 0.015625)"/>
      <use xlink:href="#DejaVuSans-69" transform="translate(1306.396484 0.015625)"/>
      <use xlink:href="#DejaVuSans-6e" transform="translate(1334.179688 0.015625)"/>
      <use xlink:href="#DejaVuSans-61" transform="translate(1397.558594 0.015625)"/>
      <use xlink:href="#DejaVuSans-6c" transform="translate(1458.837891 0.015625)"/>
      <use xlink:href="#DejaVuSans-29" transform="translate(1486.621094 0.015625)"/>
     </g>
    </g>
    <g id="line2d_54">
     <path d="M 330.915625 56.798125 
L 338.915625 56.798125 
L 346.915625 56.798125 
" style="fill: none; stroke: #a65628; stroke-linecap: square"/>
    </g>
    <g id="text_21">
     <!-- $\cos(34x) + \cos(55x)$ (t=t_final) -->
     <g transform="translate(353.315625 59.598125) scale(0.08 -0.08)">
      <use xlink:href="#DejaVuSans-63" transform="translate(0 0.015625)"/>
      <use xlink:href="#DejaVuSans-6f" transform="translate(54.980469 0.015625)"/>
      <use xlink:href="#DejaVuSans-73" transform="translate(116.162109 0.015625)"/>
      <use xlink:href="#DejaVuSans-28" transform="translate(168.261719 0.015625)"/>
      <use xlink:href="#DejaVuSans-33" transform="translate(207.275391 0.015625)"/>
      <use xlink:href="#DejaVuSans-34" transform="translate(270.898438 0.015625)"/>
      <use xlink:href="#DejaVuSans-Oblique-78" transform="translate(334.521484 0.015625)"/>
      <use xlink:href="#DejaVuSans-29" transform="translate(393.701172 0.015625)"/>
      <use xlink:href="#DejaVuSans-2b" transform="translate(452.197266 0.015625)"/>
      <use xlink:href="#DejaVuSans-63" transform="translate(555.46875 0.015625)"/>
      <use xlink:href="#DejaVuSans-6f" transform="translate(610.449219 0.015625)"/>
      <use xlink:href="#DejaVuSans-73" transform="translate(671.630859 0.015625)"/>
      <use xlink:href="#DejaVuSans-28" transform="translate(723.730469 0.015625)"/>
      <use xlink:href="#DejaVuSans-35" transform="translate(762.744141 0.015625)"/>
      <use xlink:href="#DejaVuSans-35" transform="translate(826.367188 0.015625)"/>
      <use xlink:href="#DejaVuSans-Oblique-78" transform="translate(889.990234 0.015625)"/>
      <use xlink:href="#DejaVuSans-29" transform="translate(949.169922 0.015625)"/>
      <use xlink:href="#DejaVuSans-20" transform="translate(988.183594 0.015625)"/>
      <use xlink:href="#DejaVuSans-28" transform="translate(1019.970703 0.015625)"/>
      <use xlink:href="#DejaVuSans-74" transform="translate(1058.984375 0.015625)"/>
      <use xlink:href="#DejaVuSans-3d" transform="translate(1098.193359 0.015625)"/>
      <use xlink:href="#DejaVuSans-74" transform="translate(1181.982422 0.015625)"/>
      <use xlink:href="#DejaVuSans-5f" transform="translate(1221.191406 0.015625)"/>
      <use xlink:href="#DejaVuSans-66" transform="translate(1271.191406 0.015625)"/>
      <use xlink:href="#DejaVuSans-69" transform="translate(1306.396484 0.015625)"/>
      <use xlink:href="#DejaVuSans-6e" transform="translate(1334.179688 0.015625)"/>
      <use xlink:href="#DejaVuSans-61" transform="translate(1397.558594 0.015625)"/>
      <use xlink:href="#DejaVuSans-6c" transform="translate(1458.837891 0.015625)"/>
      <use xlink:href="#DejaVuSans-29" transform="translate(1486.621094 0.015625)"/>
     </g>
    </g>
   </g>
  </g>
 </g>
 <defs>
  <clipPath id="pb105284854">
   <rect x="59.255625" y="22.318125" width="423.34" height="216.28"/>
  </clipPath>
 </defs>
</svg>
