<?xml version="1.0" encoding="utf-8" standalone="no"?>
<!DOCTYPE svg PUBLIC "-//W3C//DTD SVG 1.1//EN"
  "http://www.w3.org/Graphics/SVG/1.1/DTD/svg11.dtd">
<svg xmlns:xlink="http://www.w3.org/1999/xlink" width="720pt" height="864pt" viewBox="0 0 720 864" xmlns="http://www.w3.org/2000/svg" version="1.1">
 <metadata>
  <rdf:RDF xmlns:dc="http://purl.org/dc/elements/1.1/" xmlns:cc="http://creativecommons.org/ns#" xmlns:rdf="http://www.w3.org/1999/02/22-rdf-syntax-ns#">
   <cc:Work>
    <dc:type rdf:resource="http://purl.org/dc/dcmitype/StillImage"/>
    <dc:date>2025-09-21T17:58:02.372585</dc:date>
    <dc:format>image/svg+xml</dc:format>
    <dc:creator>
     <cc:Agent>
      <dc:title>Matplotlib v3.8.4, https://matplotlib.org/</dc:title>
     </cc:Agent>
    </dc:creator>
   </cc:Work>
  </rdf:RDF>
 </metadata>
 <defs>
  <style type="text/css">*{stroke-linejoin: round; stroke-linecap: butt}</style>
 </defs>
 <g id="figure_1">
  <g id="patch_1">
   <path d="M 0 864 
L 720 864 
L 720 0 
L 0 0 
z
" style="fill: #ffffff"/>
  </g>
  <g id="axes_1">
   <g id="patch_2">
    <path d="M 52.30649 830.64351 
L 716.99976 830.64351 
L 716.99976 20.94822 
L 52.30649 20.94822 
z
" style="fill: #ffffff"/>
   </g>
   <g id="matplotlib.axis_1">
    <g id="xtick_1">
     <g id="line2d_1">
      <defs>
       <path id="ma094d0ecce" d="M 0 0 
L 0 3.5 
" style="stroke: #000000; stroke-width: 0.8"/>
      </defs>
      <g>
       <use xlink:href="#ma094d0ecce" x="82.51982" y="830.64351" style="stroke: #000000; stroke-width: 0.8"/>
      </g>
     </g>
     <g id="text_1">
      <!-- 0 -->
      <g transform="translate(79.33857 845.241948) scale(0.1 -0.1)">
       <defs>
        <path id="DejaVuSans-30" d="M 2034 4250 
Q 1547 4250 1301 3770 
Q 1056 3291 1056 2328 
Q 1056 1369 1301 889 
Q 1547 409 2034 409 
Q 2525 409 2770 889 
Q 3016 1369 3016 2328 
Q 3016 3291 2770 3770 
Q 2525 4250 2034 4250 
z
M 2034 4750 
Q 2819 4750 3233 4129 
Q 3647 3509 3647 2328 
Q 3647 1150 3233 529 
Q 2819 -91 2034 -91 
Q 1250 -91 836 529 
Q 422 1150 422 2328 
Q 422 3509 836 4129 
Q 1250 4750 2034 4750 
z
" transform="scale(0.015625)"/>
       </defs>
       <use xlink:href="#DejaVuSans-30"/>
      </g>
     </g>
    </g>
    <g id="xtick_2">
     <g id="line2d_2">
      <g>
       <use xlink:href="#ma094d0ecce" x="203.52216" y="830.64351" style="stroke: #000000; stroke-width: 0.8"/>
      </g>
     </g>
     <g id="text_2">
      <!-- 2 -->
      <g transform="translate(200.34091 845.241948) scale(0.1 -0.1)">
       <defs>
        <path id="DejaVuSans-32" d="M 1228 531 
L 3431 531 
L 3431 0 
L 469 0 
L 469 531 
Q 828 903 1448 1529 
Q 2069 2156 2228 2338 
Q 2531 2678 2651 2914 
Q 2772 3150 2772 3378 
Q 2772 3750 2511 3984 
Q 2250 4219 1831 4219 
Q 1534 4219 1204 4116 
Q 875 4013 500 3803 
L 500 4441 
Q 881 4594 1212 4672 
Q 1544 4750 1819 4750 
Q 2544 4750 2975 4387 
Q 3406 4025 3406 3419 
Q 3406 3131 3298 2873 
Q 3191 2616 2906 2266 
Q 2828 2175 2409 1742 
Q 1991 1309 1228 531 
z
" transform="scale(0.015625)"/>
       </defs>
       <use xlink:href="#DejaVuSans-32"/>
      </g>
     </g>
    </g>
    <g id="xtick_3">
     <g id="line2d_3">
      <g>
       <use xlink:href="#ma094d0ecce" x="324.524499" y="830.64351" style="stroke: #000000; stroke-width: 0.8"/>
      </g>
     </g>
     <g id="text_3">
      <!-- 4 -->
      <g transform="translate(321.343249 845.241948) scale(0.1 -0.1)">
       <defs>
        <path id="DejaVuSans-34" d="M 2419 4116 
L 825 1625 
L 2419 1625 
L 2419 4116 
z
M 2253 4666 
L 3047 4666 
L 3047 1625 
L 3713 1625 
L 3713 1100 
L 3047 1100 
L 3047 0 
L 2419 0 
L 2419 1100 
L 313 1100 
L 313 1709 
L 2253 4666 
z
" transform="scale(0.015625)"/>
       </defs>
       <use xlink:href="#DejaVuSans-34"/>
      </g>
     </g>
    </g>
    <g id="xtick_4">
     <g id="line2d_4">
      <g>
       <use xlink:href="#ma094d0ecce" x="445.526839" y="830.64351" style="stroke: #000000; stroke-width: 0.8"/>
      </g>
     </g>
     <g id="text_4">
      <!-- 6 -->
      <g transform="translate(442.345589 845.241948) scale(0.1 -0.1)">
       <defs>
        <path id="DejaVuSans-36" d="M 2113 2584 
Q 1688 2584 1439 2293 
Q 1191 2003 1191 1497 
Q 1191 994 1439 701 
Q 1688 409 2113 409 
Q 2538 409 2786 701 
Q 3034 994 3034 1497 
Q 3034 2003 2786 2293 
Q 2538 2584 2113 2584 
z
M 3366 4563 
L 3366 3988 
Q 3128 4100 2886 4159 
Q 2644 4219 2406 4219 
Q 1781 4219 1451 3797 
Q 1122 3375 1075 2522 
Q 1259 2794 1537 2939 
Q 1816 3084 2150 3084 
Q 2853 3084 3261 2657 
Q 3669 2231 3669 1497 
Q 3669 778 3244 343 
Q 2819 -91 2113 -91 
Q 1303 -91 875 529 
Q 447 1150 447 2328 
Q 447 3434 972 4092 
Q 1497 4750 2381 4750 
Q 2619 4750 2861 4703 
Q 3103 4656 3366 4563 
z
" transform="scale(0.015625)"/>
       </defs>
       <use xlink:href="#DejaVuSans-36"/>
      </g>
     </g>
    </g>
    <g id="xtick_5">
     <g id="line2d_5">
      <g>
       <use xlink:href="#ma094d0ecce" x="566.529178" y="830.64351" style="stroke: #000000; stroke-width: 0.8"/>
      </g>
     </g>
     <g id="text_5">
      <!-- 8 -->
      <g transform="translate(563.347928 845.241948) scale(0.1 -0.1)">
       <defs>
        <path id="DejaVuSans-38" d="M 2034 2216 
Q 1584 2216 1326 1975 
Q 1069 1734 1069 1313 
Q 1069 891 1326 650 
Q 1584 409 2034 409 
Q 2484 409 2743 651 
Q 3003 894 3003 1313 
Q 3003 1734 2745 1975 
Q 2488 2216 2034 2216 
z
M 1403 2484 
Q 997 2584 770 2862 
Q 544 3141 544 3541 
Q 544 4100 942 4425 
Q 1341 4750 2034 4750 
Q 2731 4750 3128 4425 
Q 3525 4100 3525 3541 
Q 3525 3141 3298 2862 
Q 3072 2584 2669 2484 
Q 3125 2378 3379 2068 
Q 3634 1759 3634 1313 
Q 3634 634 3220 271 
Q 2806 -91 2034 -91 
Q 1263 -91 848 271 
Q 434 634 434 1313 
Q 434 1759 690 2068 
Q 947 2378 1403 2484 
z
M 1172 3481 
Q 1172 3119 1398 2916 
Q 1625 2713 2034 2713 
Q 2441 2713 2670 2916 
Q 2900 3119 2900 3481 
Q 2900 3844 2670 4047 
Q 2441 4250 2034 4250 
Q 1625 4250 1398 4047 
Q 1172 3844 1172 3481 
z
" transform="scale(0.015625)"/>
       </defs>
       <use xlink:href="#DejaVuSans-38"/>
      </g>
     </g>
    </g>
    <g id="xtick_6">
     <g id="line2d_6">
      <g>
       <use xlink:href="#ma094d0ecce" x="687.531518" y="830.64351" style="stroke: #000000; stroke-width: 0.8"/>
      </g>
     </g>
     <g id="text_6">
      <!-- 10 -->
      <g transform="translate(681.169018 845.241948) scale(0.1 -0.1)">
       <defs>
        <path id="DejaVuSans-31" d="M 794 531 
L 1825 531 
L 1825 4091 
L 703 3866 
L 703 4441 
L 1819 4666 
L 2450 4666 
L 2450 531 
L 3481 531 
L 3481 0 
L 794 0 
L 794 531 
z
" transform="scale(0.015625)"/>
       </defs>
       <use xlink:href="#DejaVuSans-31"/>
       <use xlink:href="#DejaVuSans-30" x="63.623047"/>
      </g>
     </g>
    </g>
    <g id="text_7">
     <!-- x -->
     <g transform="translate(381.69375 858.920072) scale(0.1 -0.1)">
      <defs>
       <path id="DejaVuSans-78" d="M 3513 3500 
L 2247 1797 
L 3578 0 
L 2900 0 
L 1881 1375 
L 863 0 
L 184 0 
L 1544 1831 
L 300 3500 
L 978 3500 
L 1906 2253 
L 2834 3500 
L 3513 3500 
z
" transform="scale(0.015625)"/>
      </defs>
      <use xlink:href="#DejaVuSans-78"/>
     </g>
    </g>
   </g>
   <g id="matplotlib.axis_2">
    <g id="ytick_1">
     <g id="line2d_7">
      <defs>
       <path id="me49c6ff38c" d="M 0 0 
L -3.5 0 
" style="stroke: #000000; stroke-width: 0.8"/>
      </defs>
      <g>
       <use xlink:href="#me49c6ff38c" x="52.30649" y="797.677904" style="stroke: #000000; stroke-width: 0.8"/>
      </g>
     </g>
     <g id="text_8">
      <!-- 0.125 -->
      <g transform="translate(16.678365 801.477123) scale(0.1 -0.1)">
       <defs>
        <path id="DejaVuSans-2e" d="M 684 794 
L 1344 794 
L 1344 0 
L 684 0 
L 684 794 
z
" transform="scale(0.015625)"/>
        <path id="DejaVuSans-35" d="M 691 4666 
L 3169 4666 
L 3169 4134 
L 1269 4134 
L 1269 2991 
Q 1406 3038 1543 3061 
Q 1681 3084 1819 3084 
Q 2600 3084 3056 2656 
Q 3513 2228 3513 1497 
Q 3513 744 3044 326 
Q 2575 -91 1722 -91 
Q 1428 -91 1123 -41 
Q 819 9 494 109 
L 494 744 
Q 775 591 1075 516 
Q 1375 441 1709 441 
Q 2250 441 2565 725 
Q 2881 1009 2881 1497 
Q 2881 1984 2565 2268 
Q 2250 2553 1709 2553 
Q 1456 2553 1204 2497 
Q 953 2441 691 2322 
L 691 4666 
z
" transform="scale(0.015625)"/>
       </defs>
       <use xlink:href="#DejaVuSans-30"/>
       <use xlink:href="#DejaVuSans-2e" x="63.623047"/>
       <use xlink:href="#DejaVuSans-31" x="95.410156"/>
       <use xlink:href="#DejaVuSans-32" x="159.033203"/>
       <use xlink:href="#DejaVuSans-35" x="222.65625"/>
      </g>
     </g>
    </g>
    <g id="ytick_2">
     <g id="line2d_8">
      <g>
       <use xlink:href="#me49c6ff38c" x="52.30649" y="688.492972" style="stroke: #000000; stroke-width: 0.8"/>
      </g>
     </g>
     <g id="text_9">
      <!-- 0.150 -->
      <g transform="translate(16.678365 692.292191) scale(0.1 -0.1)">
       <use xlink:href="#DejaVuSans-30"/>
       <use xlink:href="#DejaVuSans-2e" x="63.623047"/>
       <use xlink:href="#DejaVuSans-31" x="95.410156"/>
       <use xlink:href="#DejaVuSans-35" x="159.033203"/>
       <use xlink:href="#DejaVuSans-30" x="222.65625"/>
      </g>
     </g>
    </g>
    <g id="ytick_3">
     <g id="line2d_9">
      <g>
       <use xlink:href="#me49c6ff38c" x="52.30649" y="579.30804" style="stroke: #000000; stroke-width: 0.8"/>
      </g>
     </g>
     <g id="text_10">
      <!-- 0.175 -->
      <g transform="translate(16.678365 583.107259) scale(0.1 -0.1)">
       <defs>
        <path id="DejaVuSans-37" d="M 525 4666 
L 3525 4666 
L 3525 4397 
L 1831 0 
L 1172 0 
L 2766 4134 
L 525 4134 
L 525 4666 
z
" transform="scale(0.015625)"/>
       </defs>
       <use xlink:href="#DejaVuSans-30"/>
       <use xlink:href="#DejaVuSans-2e" x="63.623047"/>
       <use xlink:href="#DejaVuSans-31" x="95.410156"/>
       <use xlink:href="#DejaVuSans-37" x="159.033203"/>
       <use xlink:href="#DejaVuSans-35" x="222.65625"/>
      </g>
     </g>
    </g>
    <g id="ytick_4">
     <g id="line2d_10">
      <g>
       <use xlink:href="#me49c6ff38c" x="52.30649" y="470.123108" style="stroke: #000000; stroke-width: 0.8"/>
      </g>
     </g>
     <g id="text_11">
      <!-- 0.200 -->
      <g transform="translate(16.678365 473.922326) scale(0.1 -0.1)">
       <use xlink:href="#DejaVuSans-30"/>
       <use xlink:href="#DejaVuSans-2e" x="63.623047"/>
       <use xlink:href="#DejaVuSans-32" x="95.410156"/>
       <use xlink:href="#DejaVuSans-30" x="159.033203"/>
       <use xlink:href="#DejaVuSans-30" x="222.65625"/>
      </g>
     </g>
    </g>
    <g id="ytick_5">
     <g id="line2d_11">
      <g>
       <use xlink:href="#me49c6ff38c" x="52.30649" y="360.938176" style="stroke: #000000; stroke-width: 0.8"/>
      </g>
     </g>
     <g id="text_12">
      <!-- 0.225 -->
      <g transform="translate(16.678365 364.737394) scale(0.1 -0.1)">
       <use xlink:href="#DejaVuSans-30"/>
       <use xlink:href="#DejaVuSans-2e" x="63.623047"/>
       <use xlink:href="#DejaVuSans-32" x="95.410156"/>
       <use xlink:href="#DejaVuSans-32" x="159.033203"/>
       <use xlink:href="#DejaVuSans-35" x="222.65625"/>
      </g>
     </g>
    </g>
    <g id="ytick_6">
     <g id="line2d_12">
      <g>
       <use xlink:href="#me49c6ff38c" x="52.30649" y="251.753243" style="stroke: #000000; stroke-width: 0.8"/>
      </g>
     </g>
     <g id="text_13">
      <!-- 0.250 -->
      <g transform="translate(16.678365 255.552462) scale(0.1 -0.1)">
       <use xlink:href="#DejaVuSans-30"/>
       <use xlink:href="#DejaVuSans-2e" x="63.623047"/>
       <use xlink:href="#DejaVuSans-32" x="95.410156"/>
       <use xlink:href="#DejaVuSans-35" x="159.033203"/>
       <use xlink:href="#DejaVuSans-30" x="222.65625"/>
      </g>
     </g>
    </g>
    <g id="ytick_7">
     <g id="line2d_13">
      <g>
       <use xlink:href="#me49c6ff38c" x="52.30649" y="142.568311" style="stroke: #000000; stroke-width: 0.8"/>
      </g>
     </g>
     <g id="text_14">
      <!-- 0.275 -->
      <g transform="translate(16.678365 146.36753) scale(0.1 -0.1)">
       <use xlink:href="#DejaVuSans-30"/>
       <use xlink:href="#DejaVuSans-2e" x="63.623047"/>
       <use xlink:href="#DejaVuSans-32" x="95.410156"/>
       <use xlink:href="#DejaVuSans-37" x="159.033203"/>
       <use xlink:href="#DejaVuSans-35" x="222.65625"/>
      </g>
     </g>
    </g>
    <g id="ytick_8">
     <g id="line2d_14">
      <g>
       <use xlink:href="#me49c6ff38c" x="52.30649" y="33.383379" style="stroke: #000000; stroke-width: 0.8"/>
      </g>
     </g>
     <g id="text_15">
      <!-- 0.300 -->
      <g transform="translate(16.678365 37.182598) scale(0.1 -0.1)">
       <defs>
        <path id="DejaVuSans-33" d="M 2597 2516 
Q 3050 2419 3304 2112 
Q 3559 1806 3559 1356 
Q 3559 666 3084 287 
Q 2609 -91 1734 -91 
Q 1441 -91 1130 -33 
Q 819 25 488 141 
L 488 750 
Q 750 597 1062 519 
Q 1375 441 1716 441 
Q 2309 441 2620 675 
Q 2931 909 2931 1356 
Q 2931 1769 2642 2001 
Q 2353 2234 1838 2234 
L 1294 2234 
L 1294 2753 
L 1863 2753 
Q 2328 2753 2575 2939 
Q 2822 3125 2822 3475 
Q 2822 3834 2567 4026 
Q 2313 4219 1838 4219 
Q 1578 4219 1281 4162 
Q 984 4106 628 3988 
L 628 4550 
Q 988 4650 1302 4700 
Q 1616 4750 1894 4750 
Q 2613 4750 3031 4423 
Q 3450 4097 3450 3541 
Q 3450 3153 3228 2886 
Q 3006 2619 2597 2516 
z
" transform="scale(0.015625)"/>
       </defs>
       <use xlink:href="#DejaVuSans-30"/>
       <use xlink:href="#DejaVuSans-2e" x="63.623047"/>
       <use xlink:href="#DejaVuSans-33" x="95.410156"/>
       <use xlink:href="#DejaVuSans-30" x="159.033203"/>
       <use xlink:href="#DejaVuSans-30" x="222.65625"/>
      </g>
     </g>
    </g>
    <g id="text_16">
     <!-- $\delta n \sim \cos(3x) + \cos(5x) + \cos(8x)$ -->
     <g transform="translate(10.598678 505.845865) rotate(-90) scale(0.1 -0.1)">
      <defs>
       <path id="DejaVuSans-Oblique-3b4" d="M 3472 4053 
Q 3197 4272 2450 4272 
Q 1659 4272 1588 3906 
Q 1531 3619 2328 3469 
Q 2953 3353 3253 3003 
Q 3616 2581 3447 1716 
Q 3284 888 2763 400 
Q 2238 -91 1488 -91 
Q 741 -91 406 400 
Q 72 888 241 1747 
Q 363 2384 891 2900 
Q 1097 3100 1353 3213 
Q 913 3459 1000 3900 
Q 1166 4750 2544 4750 
Q 3234 4750 3566 4531 
L 3472 4053 
z
M 1753 3056 
Q 1525 2966 1306 2738 
Q 969 2384 847 1747 
Q 722 1113 919 756 
Q 1119 397 1584 397 
Q 2044 397 2381 759 
Q 2722 1122 2838 1716 
Q 2956 2338 2731 2638 
Q 2491 2959 2103 2994 
Q 1906 3013 1753 3056 
z
" transform="scale(0.015625)"/>
       <path id="DejaVuSans-Oblique-6e" d="M 3566 2113 
L 3156 0 
L 2578 0 
L 2988 2091 
Q 3016 2238 3031 2350 
Q 3047 2463 3047 2528 
Q 3047 2791 2881 2937 
Q 2716 3084 2419 3084 
Q 1956 3084 1622 2776 
Q 1288 2469 1184 1941 
L 800 0 
L 225 0 
L 903 3500 
L 1478 3500 
L 1363 2950 
Q 1603 3253 1940 3418 
Q 2278 3584 2650 3584 
Q 3113 3584 3367 3334 
Q 3622 3084 3622 2631 
Q 3622 2519 3608 2391 
Q 3594 2263 3566 2113 
z
" transform="scale(0.015625)"/>
       <path id="DejaVuSans-223c" d="M 4684 2556 
L 4684 1997 
Q 4356 1753 4076 1645 
Q 3797 1538 3494 1538 
Q 3150 1538 2694 1722 
Q 2663 1734 2641 1744 
Q 2622 1750 2575 1769 
Q 2091 1959 1797 1959 
Q 1522 1959 1253 1840 
Q 984 1722 678 1459 
L 678 2019 
Q 1006 2263 1286 2370 
Q 1566 2478 1869 2478 
Q 2213 2478 2672 2294 
Q 2706 2278 2722 2272 
Q 2741 2266 2788 2247 
Q 3272 2056 3566 2056 
Q 3834 2056 4098 2173 
Q 4363 2291 4684 2556 
z
" transform="scale(0.015625)"/>
       <path id="DejaVuSans-63" d="M 3122 3366 
L 3122 2828 
Q 2878 2963 2633 3030 
Q 2388 3097 2138 3097 
Q 1578 3097 1268 2742 
Q 959 2388 959 1747 
Q 959 1106 1268 751 
Q 1578 397 2138 397 
Q 2388 397 2633 464 
Q 2878 531 3122 666 
L 3122 134 
Q 2881 22 2623 -34 
Q 2366 -91 2075 -91 
Q 1284 -91 818 406 
Q 353 903 353 1747 
Q 353 2603 823 3093 
Q 1294 3584 2113 3584 
Q 2378 3584 2631 3529 
Q 2884 3475 3122 3366 
z
" transform="scale(0.015625)"/>
       <path id="DejaVuSans-6f" d="M 1959 3097 
Q 1497 3097 1228 2736 
Q 959 2375 959 1747 
Q 959 1119 1226 758 
Q 1494 397 1959 397 
Q 2419 397 2687 759 
Q 2956 1122 2956 1747 
Q 2956 2369 2687 2733 
Q 2419 3097 1959 3097 
z
M 1959 3584 
Q 2709 3584 3137 3096 
Q 3566 2609 3566 1747 
Q 3566 888 3137 398 
Q 2709 -91 1959 -91 
Q 1206 -91 779 398 
Q 353 888 353 1747 
Q 353 2609 779 3096 
Q 1206 3584 1959 3584 
z
" transform="scale(0.015625)"/>
       <path id="DejaVuSans-73" d="M 2834 3397 
L 2834 2853 
Q 2591 2978 2328 3040 
Q 2066 3103 1784 3103 
Q 1356 3103 1142 2972 
Q 928 2841 928 2578 
Q 928 2378 1081 2264 
Q 1234 2150 1697 2047 
L 1894 2003 
Q 2506 1872 2764 1633 
Q 3022 1394 3022 966 
Q 3022 478 2636 193 
Q 2250 -91 1575 -91 
Q 1294 -91 989 -36 
Q 684 19 347 128 
L 347 722 
Q 666 556 975 473 
Q 1284 391 1588 391 
Q 1994 391 2212 530 
Q 2431 669 2431 922 
Q 2431 1156 2273 1281 
Q 2116 1406 1581 1522 
L 1381 1569 
Q 847 1681 609 1914 
Q 372 2147 372 2553 
Q 372 3047 722 3315 
Q 1072 3584 1716 3584 
Q 2034 3584 2315 3537 
Q 2597 3491 2834 3397 
z
" transform="scale(0.015625)"/>
       <path id="DejaVuSans-28" d="M 1984 4856 
Q 1566 4138 1362 3434 
Q 1159 2731 1159 2009 
Q 1159 1288 1364 580 
Q 1569 -128 1984 -844 
L 1484 -844 
Q 1016 -109 783 600 
Q 550 1309 550 2009 
Q 550 2706 781 3412 
Q 1013 4119 1484 4856 
L 1984 4856 
z
" transform="scale(0.015625)"/>
       <path id="DejaVuSans-Oblique-78" d="M 3841 3500 
L 2234 1784 
L 3219 0 
L 2559 0 
L 1819 1388 
L 531 0 
L -166 0 
L 1556 1844 
L 641 3500 
L 1300 3500 
L 1972 2234 
L 3144 3500 
L 3841 3500 
z
" transform="scale(0.015625)"/>
       <path id="DejaVuSans-29" d="M 513 4856 
L 1013 4856 
Q 1481 4119 1714 3412 
Q 1947 2706 1947 2009 
Q 1947 1309 1714 600 
Q 1481 -109 1013 -844 
L 513 -844 
Q 928 -128 1133 580 
Q 1338 1288 1338 2009 
Q 1338 2731 1133 3434 
Q 928 4138 513 4856 
z
" transform="scale(0.015625)"/>
       <path id="DejaVuSans-2b" d="M 2944 4013 
L 2944 2272 
L 4684 2272 
L 4684 1741 
L 2944 1741 
L 2944 0 
L 2419 0 
L 2419 1741 
L 678 1741 
L 678 2272 
L 2419 2272 
L 2419 4013 
L 2944 4013 
z
" transform="scale(0.015625)"/>
      </defs>
      <use xlink:href="#DejaVuSans-Oblique-3b4" transform="translate(0 0.125)"/>
      <use xlink:href="#DejaVuSans-Oblique-6e" transform="translate(61.181641 0.125)"/>
      <use xlink:href="#DejaVuSans-223c" transform="translate(144.042969 0.125)"/>
      <use xlink:href="#DejaVuSans-63" transform="translate(247.314453 0.125)"/>
      <use xlink:href="#DejaVuSans-6f" transform="translate(302.294922 0.125)"/>
      <use xlink:href="#DejaVuSans-73" transform="translate(363.476562 0.125)"/>
      <use xlink:href="#DejaVuSans-28" transform="translate(415.576172 0.125)"/>
      <use xlink:href="#DejaVuSans-33" transform="translate(454.589844 0.125)"/>
      <use xlink:href="#DejaVuSans-Oblique-78" transform="translate(518.212891 0.125)"/>
      <use xlink:href="#DejaVuSans-29" transform="translate(577.392578 0.125)"/>
      <use xlink:href="#DejaVuSans-2b" transform="translate(635.888672 0.125)"/>
      <use xlink:href="#DejaVuSans-63" transform="translate(739.160156 0.125)"/>
      <use xlink:href="#DejaVuSans-6f" transform="translate(794.140625 0.125)"/>
      <use xlink:href="#DejaVuSans-73" transform="translate(855.322266 0.125)"/>
      <use xlink:href="#DejaVuSans-28" transform="translate(907.421875 0.125)"/>
      <use xlink:href="#DejaVuSans-35" transform="translate(946.435547 0.125)"/>
      <use xlink:href="#DejaVuSans-Oblique-78" transform="translate(1010.058594 0.125)"/>
      <use xlink:href="#DejaVuSans-29" transform="translate(1069.238281 0.125)"/>
      <use xlink:href="#DejaVuSans-2b" transform="translate(1127.734375 0.125)"/>
      <use xlink:href="#DejaVuSans-63" transform="translate(1231.005859 0.125)"/>
      <use xlink:href="#DejaVuSans-6f" transform="translate(1285.986328 0.125)"/>
      <use xlink:href="#DejaVuSans-73" transform="translate(1347.167969 0.125)"/>
      <use xlink:href="#DejaVuSans-28" transform="translate(1399.267578 0.125)"/>
      <use xlink:href="#DejaVuSans-38" transform="translate(1438.28125 0.125)"/>
      <use xlink:href="#DejaVuSans-Oblique-78" transform="translate(1501.904297 0.125)"/>
      <use xlink:href="#DejaVuSans-29" transform="translate(1561.083984 0.125)"/>
     </g>
    </g>
   </g>
   <g id="line2d_15">
    <path d="M 82.51982 208.079271 
L 83.264909 208.233538 
L 84.009997 208.696131 
L 84.755085 209.466425 
L 85.500174 210.543381 
L 86.245262 211.925543 
L 86.99035 213.611045 
L 88.480527 217.882565 
L 89.970703 223.334888 
L 91.46088 229.938607 
L 92.951057 237.658122 
L 94.441233 246.451851 
L 95.93141 256.272467 
L 98.166675 272.811876 
L 100.40194 291.342094 
L 102.637204 311.639884 
L 105.617558 341.028962 
L 109.342999 380.614999 
L 114.558617 438.993988 
L 121.264412 513.629432 
L 124.989853 552.271528 
L 127.970207 580.664837 
L 130.205471 600.118755 
L 132.440736 617.759418 
L 134.676001 633.401727 
L 136.166178 642.640471 
L 137.656354 650.880369 
L 139.146531 658.087517 
L 140.636708 664.234088 
L 142.126884 669.298463 
L 143.617061 673.265327 
L 144.362149 674.834147 
L 145.107237 676.125732 
L 145.852326 677.139961 
L 146.597414 677.877113 
L 147.342502 678.337862 
L 148.087591 678.523277 
L 148.832679 678.434823 
L 149.577767 678.074349 
L 150.322856 677.444094 
L 151.067944 676.546677 
L 151.813032 675.385093 
L 152.55812 673.962709 
L 154.048297 670.350829 
L 155.538474 665.745157 
L 157.02865 660.185323 
L 158.518827 653.716197 
L 160.009003 646.387602 
L 162.244268 633.90349 
L 164.479533 619.810513 
L 166.714798 604.328861 
L 169.695151 581.935977 
L 173.420593 551.968594 
L 183.851829 466.239877 
L 186.832182 443.863292 
L 189.067447 428.337127 
L 191.302712 414.11336 
L 193.537977 401.372339 
L 195.773242 390.270928 
L 197.263418 383.846841 
L 198.753595 378.242654 
L 200.243771 373.485061 
L 201.733948 369.595049 
L 203.224125 366.587789 
L 203.969213 365.418324 
L 204.714301 364.472565 
L 205.45939 363.750746 
L 206.204478 363.252732 
L 206.949566 362.978016 
L 207.694654 362.925724 
L 208.439743 363.094614 
L 209.184831 363.483083 
L 209.929919 364.089164 
L 210.675008 364.910535 
L 211.420096 365.944522 
L 212.910272 368.637908 
L 214.400449 372.141062 
L 215.890626 376.420444 
L 217.380802 381.437456 
L 218.870979 387.148707 
L 221.106244 396.91135 
L 223.341509 407.9483 
L 225.576774 420.06203 
L 228.557127 437.518331 
L 233.027657 465.393376 
L 238.988363 502.727884 
L 241.968716 520.184186 
L 244.203981 532.297916 
L 246.439246 543.334865 
L 248.674511 553.097508 
L 250.164687 558.80876 
L 251.654864 563.825772 
L 253.145041 568.105153 
L 254.635217 571.608307 
L 256.125394 574.301693 
L 256.870482 575.33568 
L 257.61557 576.157052 
L 258.360659 576.763133 
L 259.105747 577.151601 
L 259.850835 577.320491 
L 260.595924 577.268199 
L 261.341012 576.993483 
L 262.0861 576.495469 
L 262.831188 575.773651 
L 263.576277 574.827892 
L 264.321365 573.658426 
L 265.811542 570.651166 
L 267.301718 566.761154 
L 268.791895 562.003561 
L 270.282071 556.399375 
L 271.772248 549.975288 
L 273.262425 542.763554 
L 275.497689 530.552863 
L 277.732954 516.80442 
L 279.968219 501.690993 
L 282.948572 479.755825 
L 286.674014 450.20185 
L 299.340515 346.89402 
L 302.320868 325.453312 
L 304.556133 310.872138 
L 306.791398 297.828369 
L 308.281575 290.090181 
L 309.771751 283.184795 
L 311.261928 277.16439 
L 312.752104 272.076349 
L 314.242281 267.962958 
L 315.732458 264.861122 
L 316.477546 263.699538 
L 317.222634 262.802121 
L 317.967722 262.171866 
L 318.712811 261.811393 
L 319.457899 261.722938 
L 320.202987 261.908354 
L 320.948076 262.369103 
L 321.693164 263.106254 
L 322.438252 264.120484 
L 323.18334 265.412068 
L 323.928429 266.980888 
L 325.418605 270.947752 
L 326.908782 276.012127 
L 328.398959 282.158698 
L 329.889135 289.365846 
L 331.379312 297.605744 
L 332.869488 306.844488 
L 335.104753 322.486798 
L 337.340018 340.12746 
L 339.575283 359.581379 
L 342.555636 387.974687 
L 345.535989 418.658793 
L 349.261431 459.294358 
L 361.182844 591.519314 
L 364.163197 621.489232 
L 367.14355 648.904122 
L 369.378815 667.43434 
L 371.61408 683.973749 
L 373.849345 698.322679 
L 375.339521 706.584864 
L 376.829698 713.75131 
L 378.319874 719.783398 
L 379.810051 724.648602 
L 381.300228 728.320673 
L 382.045316 729.702835 
L 382.790404 730.77979 
L 383.535493 731.550084 
L 384.280581 732.012678 
L 385.025669 732.166945 
L 385.770757 732.012678 
L 386.515846 731.550084 
L 387.260934 730.77979 
L 388.006022 729.702835 
L 388.751111 728.320673 
L 389.496199 726.63517 
L 390.986376 722.36365 
L 392.476552 716.911327 
L 393.966729 710.307609 
L 395.456905 702.588094 
L 396.947082 693.794364 
L 398.437258 683.973749 
L 400.672523 667.43434 
L 402.907788 648.904122 
L 405.143053 628.606332 
L 408.123406 599.217254 
L 411.848848 559.631217 
L 417.064466 501.252228 
L 423.770261 426.616784 
L 427.495702 387.974687 
L 430.476055 359.581379 
L 432.71132 340.12746 
L 434.946585 322.486798 
L 437.18185 306.844488 
L 438.672027 297.605744 
L 440.162203 289.365846 
L 441.65238 282.158698 
L 443.142556 276.012127 
L 444.632733 270.947752 
L 446.12291 266.980888 
L 446.867998 265.412068 
L 447.613086 264.120484 
L 448.358174 263.106254 
L 449.103263 262.369103 
L 449.848351 261.908354 
L 450.593439 261.722938 
L 451.338528 261.811393 
L 452.083616 262.171866 
L 452.828704 262.802121 
L 453.573792 263.699538 
L 454.318881 264.861122 
L 455.063969 266.283506 
L 456.554146 269.895387 
L 458.044322 274.501058 
L 459.534499 280.060892 
L 461.024675 286.530018 
L 462.514852 293.858614 
L 464.750117 306.342725 
L 466.985382 320.435703 
L 469.220647 335.917355 
L 472.201 358.310238 
L 475.926441 388.277622 
L 486.357678 474.006338 
L 489.338031 496.382923 
L 491.573296 511.909088 
L 493.808561 526.132856 
L 496.043825 538.873876 
L 498.27909 549.975288 
L 499.769267 556.399375 
L 501.259444 562.003561 
L 502.74962 566.761154 
L 504.239797 570.651166 
L 505.729973 573.658426 
L 506.475062 574.827892 
L 507.22015 575.773651 
L 507.965238 576.495469 
L 508.710326 576.993483 
L 509.455415 577.268199 
L 510.200503 577.320491 
L 510.945591 577.151601 
L 511.69068 576.763133 
L 512.435768 576.157052 
L 513.180856 575.33568 
L 513.925945 574.301693 
L 515.416121 571.608307 
L 516.906298 568.105153 
L 518.396474 563.825772 
L 519.886651 558.80876 
L 521.376828 553.097508 
L 523.612092 543.334865 
L 525.847357 532.297916 
L 528.082622 520.184186 
L 531.062975 502.727884 
L 535.533505 474.852839 
L 541.494212 437.518331 
L 544.474565 420.06203 
L 546.70983 407.9483 
L 548.945095 396.91135 
L 551.180359 387.148707 
L 552.670536 381.437456 
L 554.160713 376.420444 
L 555.650889 372.141062 
L 557.141066 368.637908 
L 558.631242 365.944522 
L 559.376331 364.910535 
L 560.121419 364.089164 
L 560.866507 363.483083 
L 561.611596 363.094614 
L 562.356684 362.925724 
L 563.101772 362.978016 
L 563.84686 363.252732 
L 564.591949 363.750746 
L 565.337037 364.472565 
L 566.082125 365.418324 
L 566.827214 366.587789 
L 568.31739 369.595049 
L 569.807567 373.485061 
L 571.297743 378.242654 
L 572.78792 383.846841 
L 574.278097 390.270928 
L 575.768273 397.482661 
L 578.003538 409.693353 
L 580.238803 423.441796 
L 582.474068 438.555223 
L 585.454421 460.490391 
L 589.179863 490.044366 
L 601.846364 593.352195 
L 604.826717 614.792904 
L 607.061982 629.374077 
L 609.297247 642.417846 
L 610.787423 650.156035 
L 612.2776 657.06142 
L 613.767776 663.081826 
L 615.257953 668.169866 
L 616.74813 672.283257 
L 618.238306 675.385093 
L 618.983394 676.546677 
L 619.728483 677.444094 
L 620.473571 678.074349 
L 621.218659 678.434823 
L 621.963748 678.523277 
L 622.708836 678.337862 
L 623.453924 677.877113 
L 624.199013 677.139961 
L 624.944101 676.125732 
L 625.689189 674.834147 
L 626.434277 673.265327 
L 627.924454 669.298463 
L 629.414631 664.234088 
L 630.904807 658.087517 
L 632.394984 650.880369 
L 633.88516 642.640471 
L 635.375337 633.401727 
L 637.610602 617.759418 
L 639.845867 600.118755 
L 642.081132 580.664837 
L 645.061485 552.271528 
L 648.041838 521.587423 
L 651.76728 480.951858 
L 663.688692 348.726901 
L 666.669046 318.756984 
L 669.649399 291.342094 
L 671.884664 272.811876 
L 674.119928 256.272467 
L 676.355193 241.923536 
L 677.84537 233.661351 
L 679.335547 226.494905 
L 680.825723 220.462817 
L 682.3159 215.597613 
L 683.806076 211.925543 
L 684.551165 210.543381 
L 685.296253 209.466425 
L 686.041341 208.696131 
L 686.78643 208.233538 
L 686.78643 208.233538 
" clip-path="url(#p122cff03ac)" style="fill: none; stroke: #1f77b4; stroke-width: 1.5; stroke-linecap: square"/>
   </g>
   <g id="line2d_16">
    <path d="M 82.51982 558.556795 
L 83.264909 598.887084 
L 84.009997 631.041625 
L 84.755085 655.720037 
L 85.500174 673.763932 
L 86.245262 686.015631 
L 86.99035 693.254963 
L 87.735439 696.178901 
L 88.480527 695.391498 
L 89.225615 691.410554 
L 89.970703 684.68056 
L 90.715792 675.577931 
L 91.46088 664.42228 
L 92.951057 637.010276 
L 94.441233 604.193565 
L 96.676498 547.60021 
L 98.911763 484.918344 
L 105.617558 288.188424 
L 106.362646 270.571223 
L 107.107734 256.35137 
L 107.852823 247.144543 
L 108.597911 245.272524 
L 109.342999 253.663603 
L 110.088087 274.831628 
L 110.833176 309.228685 
L 112.323352 405.502379 
L 113.813529 506.727974 
L 114.558617 550.274424 
L 115.303706 587.106975 
L 116.048794 616.977023 
L 116.793882 640.172566 
L 117.53897 657.246982 
L 118.284059 668.851794 
L 119.029147 675.642964 
L 119.774235 678.234367 
L 120.519324 677.178466 
L 121.264412 672.961707 
L 122.0095 666.006534 
L 122.754589 656.677411 
L 123.499677 645.28861 
L 124.989853 617.374174 
L 126.48003 584.009192 
L 128.715295 526.531205 
L 130.95056 462.951188 
L 137.656354 267.145028 
L 138.401443 251.688228 
L 139.146531 241.008274 
L 139.891619 237.473135 
L 140.636708 244.310672 
L 141.381796 264.700129 
L 142.126884 299.829517 
L 142.871973 347.470001 
L 145.852326 561.252119 
L 146.597414 602.072094 
L 147.342502 635.431613 
L 148.087591 661.663258 
L 148.832679 681.390281 
L 149.577767 695.33666 
L 150.322856 704.221412 
L 151.067944 708.711398 
L 151.813032 709.40213 
L 152.55812 706.812658 
L 153.303209 701.391327 
L 154.048297 693.522899 
L 154.793385 683.536027 
L 156.283562 658.292576 
L 157.773738 627.465773 
L 159.263915 592.396467 
L 161.49918 533.988244 
L 164.479533 448.943622 
L 173.420593 186.522178 
L 174.165681 171.459517 
L 174.910769 161.375252 
L 175.655858 158.882704 
L 176.400946 167.911458 
L 177.146034 192.81108 
L 177.891123 235.715824 
L 178.636211 294.226998 
L 181.616564 555.541421 
L 182.361652 605.086604 
L 183.106741 645.763474 
L 183.851829 678.133815 
L 184.596917 703.048914 
L 185.342005 721.434 
L 186.087094 734.167678 
L 186.832182 742.044493 
L 187.57727 745.762349 
L 188.322359 745.915104 
L 189.067447 743.010609 
L 189.812535 737.482019 
L 190.557624 729.690872 
L 191.302712 719.946116 
L 192.792888 695.610534 
L 194.283065 666.143423 
L 195.773242 632.77703 
L 198.008507 577.386398 
L 200.98886 496.894839 
L 205.45939 368.774442 
L 212.165184 175.390956 
L 213.655361 136.328083 
L 214.400449 119.256714 
L 215.145537 105.425538 
L 215.890626 96.638247 
L 216.635714 95.614906 
L 217.380802 106.563567 
L 218.125891 134.534928 
L 218.870979 182.539717 
L 219.616067 248.482515 
L 222.59642 546.402484 
L 223.341509 603.365569 
L 224.086597 650.466934 
L 224.831685 688.393445 
L 225.576774 718.136443 
L 226.321862 740.755962 
L 227.06695 757.245619 
L 227.812038 768.491518 
L 228.557127 775.268443 
L 229.302215 778.231079 
L 230.047303 777.932743 
L 230.792392 774.845346 
L 231.53748 769.360724 
L 232.282568 761.809097 
L 233.027657 752.474596 
L 234.517833 729.365634 
L 236.00801 701.549003 
L 238.243275 653.356506 
L 240.478539 599.702467 
L 243.458893 522.747335 
L 248.674511 380.752561 
L 255.380305 197.992107 
L 257.61557 143.32219 
L 258.360659 128.241809 
L 259.105747 116.526405 
L 259.850835 110.10706 
L 260.595924 111.849223 
L 261.341012 125.84366 
L 262.0861 156.471793 
L 262.831188 205.703229 
L 264.321365 344.96176 
L 265.811542 491.722618 
L 267.301718 608.920211 
L 268.046806 653.569929 
L 268.791895 689.538364 
L 269.536983 717.742312 
L 270.282071 739.164087 
L 271.02716 754.729368 
L 271.772248 765.269426 
L 272.517336 771.512101 
L 273.262425 774.075154 
L 274.007513 773.483865 
L 274.752601 770.186114 
L 275.497689 764.55539 
L 276.242778 756.908336 
L 276.987866 747.516879 
L 278.478043 724.375284 
L 279.968219 696.592549 
L 282.203484 648.502842 
L 284.438749 594.951619 
L 287.419102 518.0615 
L 291.889632 396.440076 
L 300.085603 172.601196 
L 301.57578 136.851909 
L 302.320868 121.796805 
L 303.065956 110.307842 
L 303.811045 104.43031 
L 304.556133 107.224087 
L 305.301221 123.024606 
L 306.04631 156.242891 
L 306.791398 208.417073 
L 308.281575 352.010607 
L 309.771751 499.700135 
L 310.516839 562.590597 
L 311.261928 615.97991 
L 312.007016 659.967005 
L 312.752104 695.267107 
L 313.497193 722.84191 
L 314.242281 743.693124 
L 314.987369 758.751736 
L 315.732458 768.849314 
L 316.477546 774.708881 
L 317.222634 776.941546 
L 317.967722 776.06767 
L 318.712811 772.528975 
L 319.457899 766.692971 
L 320.202987 758.872827 
L 320.948076 749.336161 
L 322.438252 725.973917 
L 323.928429 698.047282 
L 326.163694 649.853913 
L 328.398959 596.304852 
L 331.379312 519.550939 
L 336.59493 377.864775 
L 344.790901 154.735583 
L 347.026166 99.241155 
L 347.771254 83.131877 
L 348.516343 69.654454 
L 349.261431 60.477191 
L 350.006519 58.074245 
L 350.751607 66.210385 
L 351.496696 89.941688 
L 352.241784 133.555616 
L 352.986872 197.092254 
L 356.712314 578.265082 
L 357.457402 632.223313 
L 358.20249 676.375214 
L 358.947579 711.671598 
L 359.692667 739.205173 
L 360.437755 760.039735 
L 361.182844 775.135535 
L 361.927932 785.337878 
L 362.67302 791.369526 
L 363.418109 793.839179 
L 364.163197 793.264637 
L 364.908285 790.079767 
L 365.653373 784.64671 
L 366.398462 777.274972 
L 367.14355 768.224497 
L 368.633727 745.932196 
L 370.123903 719.176481 
L 372.359168 672.872208 
L 374.594433 621.306418 
L 377.574786 547.250066 
L 382.045316 430.043214 
L 392.476552 154.528485 
L 394.711817 100.758098 
L 396.201994 71.400181 
L 396.947082 61.620174 
L 397.69217 57.752551 
L 398.437258 63.014198 
L 399.182347 81.995296 
L 399.927435 119.329027 
L 400.672523 176.489381 
L 402.1627 330.939921 
L 403.652877 487.846365 
L 404.397965 554.382051 
L 405.143053 610.875181 
L 405.888141 657.524646 
L 406.63323 695.13463 
L 407.378318 724.736138 
L 408.123406 747.379952 
L 408.868495 764.039889 
L 409.613583 775.582021 
L 410.358671 782.753848 
L 411.10376 786.190427 
L 411.848848 786.431308 
L 412.593936 783.930295 
L 413.339024 779.068332 
L 414.084113 772.168924 
L 414.829201 763.50458 
L 416.319378 741.769574 
L 417.809554 715.336219 
L 419.299731 685.290565 
L 421.534996 635.180933 
L 424.515349 561.895214 
L 428.24079 464.139106 
L 440.907291 125.449068 
L 442.397468 93.494227 
L 443.142556 81.910139 
L 443.887645 75.549178 
L 444.632733 77.206075 
L 445.377821 91.144369 
L 446.12291 122.144165 
L 446.867998 172.587425 
L 448.358174 317.209655 
L 449.848351 470.961292 
L 451.338528 594.098496 
L 452.083616 641.098188 
L 452.828704 679.035068 
L 453.573792 708.869423 
L 454.318881 731.628855 
L 455.063969 748.286735 
L 455.809057 759.711693 
L 456.554146 766.664079 
L 457.299234 769.793371 
L 458.044322 769.646958 
L 458.789411 766.691269 
L 459.534499 761.318665 
L 460.279587 753.85734 
L 461.024675 744.588909 
L 462.514852 721.544679 
L 464.005029 693.697808 
L 465.495205 662.16318 
L 467.73047 609.733448 
L 470.710823 533.279084 
L 475.181353 410.768753 
L 484.122413 161.426811 
L 485.612589 124.221482 
L 486.357678 108.240693 
L 487.102766 95.567383 
L 487.847854 87.942941 
L 488.592942 88.058373 
L 489.338031 100.003442 
L 490.083119 128.458284 
L 490.828207 175.99695 
L 491.573296 240.445988 
L 494.553649 530.20973 
L 495.298737 585.80841 
L 496.043825 631.813466 
L 496.788914 668.836532 
L 497.534002 697.804754 
L 498.27909 719.72851 
L 499.024179 735.566699 
L 499.769267 746.181118 
L 500.514355 752.329719 
L 501.259444 754.656802 
L 502.004532 753.70852 
L 502.74962 749.952101 
L 503.494708 743.777229 
L 504.239797 735.512516 
L 504.984885 725.441284 
L 506.475062 700.789084 
L 507.965238 671.338366 
L 510.200503 620.536443 
L 512.435768 564.100259 
L 515.416121 483.1987 
L 520.631739 333.795259 
L 525.847357 184.732841 
L 527.337534 146.690913 
L 528.082622 130.55945 
L 528.827711 118.049128 
L 529.572799 111.13206 
L 530.317887 112.744467 
L 531.062975 127.006116 
L 531.808064 158.020612 
L 532.553152 207.122153 
L 534.043329 342.714717 
L 535.533505 482.423481 
L 536.278593 541.841077 
L 537.023682 592.113865 
L 537.76877 633.27986 
L 538.513858 665.988669 
L 539.258947 691.142294 
L 540.004035 709.692913 
L 540.749123 722.536457 
L 541.494212 730.477638 
L 542.2393 734.218749 
L 542.984388 734.358719 
L 543.729476 731.408287 
L 544.474565 725.800962 
L 545.219653 717.901242 
L 545.964741 708.019403 
L 547.454918 683.324782 
L 548.945095 653.393179 
L 550.435271 619.46162 
L 552.670536 563.039328 
L 555.650889 480.842224 
L 560.121419 349.569501 
L 564.591949 217.616166 
L 566.082125 177.97632 
L 566.827214 161.083212 
L 567.572302 147.797599 
L 568.31739 140.048859 
L 569.062479 140.719107 
L 569.807567 153.778363 
L 570.552655 183.015251 
L 571.297743 229.446279 
L 572.78792 357.284799 
L 574.278097 488.658216 
L 575.023185 544.424483 
L 575.768273 591.487409 
L 576.513362 629.855704 
L 577.25845 660.122915 
L 578.003538 683.133343 
L 578.748626 699.785849 
L 579.493715 710.929565 
L 580.238803 717.332384 
L 580.983891 719.666558 
L 581.72898 718.50519 
L 582.474068 714.340261 
L 583.219156 707.590888 
L 583.964245 698.608154 
L 584.709333 687.693263 
L 586.199509 661.0562 
L 587.689686 629.312482 
L 589.924951 574.689667 
L 592.160216 514.166982 
L 595.140569 427.686938 
L 603.33654 184.780477 
L 604.081629 167.321642 
L 604.826717 153.473803 
L 605.571805 145.159754 
L 606.316893 145.277318 
L 607.061982 157.859248 
L 607.80707 186.756537 
L 608.552158 232.976125 
L 610.042335 360.47916 
L 611.532512 491.324167 
L 612.2776 546.757057 
L 613.022688 593.463642 
L 613.767776 631.468522 
L 614.512865 661.377886 
L 615.257953 684.042033 
L 616.003041 700.364083 
L 616.74813 711.196647 
L 617.493218 717.306843 
L 618.238306 719.36675 
L 618.983394 717.950409 
L 619.728483 713.54718 
L 620.473571 706.574789 
L 621.218659 697.384768 
L 621.963748 686.275471 
L 623.453924 659.285458 
L 624.944101 627.230517 
L 627.179366 572.21018 
L 629.414631 511.35958 
L 633.140072 402.175267 
L 640.590955 178.634506 
L 642.081132 142.880158 
L 642.82622 130.441913 
L 643.571308 124.324507 
L 644.316397 127.872169 
L 645.061485 145.472988 
L 645.806573 180.664682 
L 646.551661 233.298118 
L 650.277103 556.180594 
L 651.022191 601.728176 
L 651.76728 638.44368 
L 652.512368 667.077884 
L 653.257456 688.555558 
L 654.002544 703.80676 
L 654.747633 713.688035 
L 655.492721 718.963382 
L 656.237809 720.292894 
L 656.982898 718.237208 
L 657.727986 713.276552 
L 658.473074 705.816518 
L 659.218163 696.197611 
L 660.708339 671.609494 
L 662.198516 641.359473 
L 663.688692 606.808781 
L 665.923957 549.075595 
L 668.90431 464.720953 
L 673.37484 330.067055 
L 677.100282 218.690943 
L 678.590458 179.772896 
L 679.335547 164.160838 
L 680.080635 153.077703 
L 680.825723 148.819353 
L 681.570811 154.735422 
L 682.3159 174.717369 
L 683.060988 211.177587 
L 683.806076 262.847336 
L 686.78643 509.737484 
L 686.78643 509.737484 
" clip-path="url(#p122cff03ac)" style="fill: none; stroke: #ff7f0e; stroke-width: 1.5; stroke-linecap: square"/>
   </g>
   <g id="patch_3">
    <path d="M 52.30649 830.64351 
L 52.30649 20.94822 
" style="fill: none; stroke: #000000; stroke-width: 0.8; stroke-linejoin: miter; stroke-linecap: square"/>
   </g>
   <g id="patch_4">
    <path d="M 716.99976 830.64351 
L 716.99976 20.94822 
" style="fill: none; stroke: #000000; stroke-width: 0.8; stroke-linejoin: miter; stroke-linecap: square"/>
   </g>
   <g id="patch_5">
    <path d="M 52.30649 830.64351 
L 716.99976 830.64351 
" style="fill: none; stroke: #000000; stroke-width: 0.8; stroke-linejoin: miter; stroke-linecap: square"/>
   </g>
   <g id="patch_6">
    <path d="M 52.30649 20.94822 
L 716.99976 20.94822 
" style="fill: none; stroke: #000000; stroke-width: 0.8; stroke-linejoin: miter; stroke-linecap: square"/>
   </g>
   <g id="legend_1">
    <g id="patch_7">
     <path d="M 663.23726 50.83322 
L 711.39976 50.83322 
Q 712.99976 50.83322 712.99976 49.23322 
L 712.99976 26.54822 
Q 712.99976 24.94822 711.39976 24.94822 
L 663.23726 24.94822 
Q 661.63726 24.94822 661.63726 26.54822 
L 661.63726 49.23322 
Q 661.63726 50.83322 663.23726 50.83322 
z
" style="fill: #ffffff; opacity: 0.8; stroke: #cccccc; stroke-linejoin: miter"/>
    </g>
    <g id="line2d_17">
     <path d="M 664.83726 31.42697 
L 672.83726 31.42697 
L 680.83726 31.42697 
" style="fill: none; stroke: #1f77b4; stroke-width: 1.5; stroke-linecap: square"/>
    </g>
    <g id="text_17">
     <!-- t=0.0 -->
     <g transform="translate(687.23726 34.22697) scale(0.08 -0.08)">
      <defs>
       <path id="DejaVuSans-74" d="M 1172 4494 
L 1172 3500 
L 2356 3500 
L 2356 3053 
L 1172 3053 
L 1172 1153 
Q 1172 725 1289 603 
Q 1406 481 1766 481 
L 2356 481 
L 2356 0 
L 1766 0 
Q 1100 0 847 248 
Q 594 497 594 1153 
L 594 3053 
L 172 3053 
L 172 3500 
L 594 3500 
L 594 4494 
L 1172 4494 
z
" transform="scale(0.015625)"/>
       <path id="DejaVuSans-3d" d="M 678 2906 
L 4684 2906 
L 4684 2381 
L 678 2381 
L 678 2906 
z
M 678 1631 
L 4684 1631 
L 4684 1100 
L 678 1100 
L 678 1631 
z
" transform="scale(0.015625)"/>
      </defs>
      <use xlink:href="#DejaVuSans-74"/>
      <use xlink:href="#DejaVuSans-3d" x="39.208984"/>
      <use xlink:href="#DejaVuSans-30" x="122.998047"/>
      <use xlink:href="#DejaVuSans-2e" x="186.621094"/>
      <use xlink:href="#DejaVuSans-30" x="218.408203"/>
     </g>
    </g>
    <g id="line2d_18">
     <path d="M 664.83726 43.16947 
L 672.83726 43.16947 
L 680.83726 43.16947 
" style="fill: none; stroke: #ff7f0e; stroke-width: 1.5; stroke-linecap: square"/>
    </g>
    <g id="text_18">
     <!-- t=5.0 -->
     <g transform="translate(687.23726 45.96947) scale(0.08 -0.08)">
      <use xlink:href="#DejaVuSans-74"/>
      <use xlink:href="#DejaVuSans-3d" x="39.208984"/>
      <use xlink:href="#DejaVuSans-35" x="122.998047"/>
      <use xlink:href="#DejaVuSans-2e" x="186.621094"/>
      <use xlink:href="#DejaVuSans-30" x="218.408203"/>
     </g>
    </g>
   </g>
  </g>
  <g id="text_19">
   <!-- Density snapshots for modes m=1..5  [seed_modes_1to5] -->
   <g transform="translate(185.743125 12.118365) scale(0.12 -0.12)">
    <defs>
     <path id="DejaVuSans-44" d="M 1259 4147 
L 1259 519 
L 2022 519 
Q 2988 519 3436 956 
Q 3884 1394 3884 2338 
Q 3884 3275 3436 3711 
Q 2988 4147 2022 4147 
L 1259 4147 
z
M 628 4666 
L 1925 4666 
Q 3281 4666 3915 4102 
Q 4550 3538 4550 2338 
Q 4550 1131 3912 565 
Q 3275 0 1925 0 
L 628 0 
L 628 4666 
z
" transform="scale(0.015625)"/>
     <path id="DejaVuSans-65" d="M 3597 1894 
L 3597 1613 
L 953 1613 
Q 991 1019 1311 708 
Q 1631 397 2203 397 
Q 2534 397 2845 478 
Q 3156 559 3463 722 
L 3463 178 
Q 3153 47 2828 -22 
Q 2503 -91 2169 -91 
Q 1331 -91 842 396 
Q 353 884 353 1716 
Q 353 2575 817 3079 
Q 1281 3584 2069 3584 
Q 2775 3584 3186 3129 
Q 3597 2675 3597 1894 
z
M 3022 2063 
Q 3016 2534 2758 2815 
Q 2500 3097 2075 3097 
Q 1594 3097 1305 2825 
Q 1016 2553 972 2059 
L 3022 2063 
z
" transform="scale(0.015625)"/>
     <path id="DejaVuSans-6e" d="M 3513 2113 
L 3513 0 
L 2938 0 
L 2938 2094 
Q 2938 2591 2744 2837 
Q 2550 3084 2163 3084 
Q 1697 3084 1428 2787 
Q 1159 2491 1159 1978 
L 1159 0 
L 581 0 
L 581 3500 
L 1159 3500 
L 1159 2956 
Q 1366 3272 1645 3428 
Q 1925 3584 2291 3584 
Q 2894 3584 3203 3211 
Q 3513 2838 3513 2113 
z
" transform="scale(0.015625)"/>
     <path id="DejaVuSans-69" d="M 603 3500 
L 1178 3500 
L 1178 0 
L 603 0 
L 603 3500 
z
M 603 4863 
L 1178 4863 
L 1178 4134 
L 603 4134 
L 603 4863 
z
" transform="scale(0.015625)"/>
     <path id="DejaVuSans-79" d="M 2059 -325 
Q 1816 -950 1584 -1140 
Q 1353 -1331 966 -1331 
L 506 -1331 
L 506 -850 
L 844 -850 
Q 1081 -850 1212 -737 
Q 1344 -625 1503 -206 
L 1606 56 
L 191 3500 
L 800 3500 
L 1894 763 
L 2988 3500 
L 3597 3500 
L 2059 -325 
z
" transform="scale(0.015625)"/>
     <path id="DejaVuSans-20" transform="scale(0.015625)"/>
     <path id="DejaVuSans-61" d="M 2194 1759 
Q 1497 1759 1228 1600 
Q 959 1441 959 1056 
Q 959 750 1161 570 
Q 1363 391 1709 391 
Q 2188 391 2477 730 
Q 2766 1069 2766 1631 
L 2766 1759 
L 2194 1759 
z
M 3341 1997 
L 3341 0 
L 2766 0 
L 2766 531 
Q 2569 213 2275 61 
Q 1981 -91 1556 -91 
Q 1019 -91 701 211 
Q 384 513 384 1019 
Q 384 1609 779 1909 
Q 1175 2209 1959 2209 
L 2766 2209 
L 2766 2266 
Q 2766 2663 2505 2880 
Q 2244 3097 1772 3097 
Q 1472 3097 1187 3025 
Q 903 2953 641 2809 
L 641 3341 
Q 956 3463 1253 3523 
Q 1550 3584 1831 3584 
Q 2591 3584 2966 3190 
Q 3341 2797 3341 1997 
z
" transform="scale(0.015625)"/>
     <path id="DejaVuSans-70" d="M 1159 525 
L 1159 -1331 
L 581 -1331 
L 581 3500 
L 1159 3500 
L 1159 2969 
Q 1341 3281 1617 3432 
Q 1894 3584 2278 3584 
Q 2916 3584 3314 3078 
Q 3713 2572 3713 1747 
Q 3713 922 3314 415 
Q 2916 -91 2278 -91 
Q 1894 -91 1617 61 
Q 1341 213 1159 525 
z
M 3116 1747 
Q 3116 2381 2855 2742 
Q 2594 3103 2138 3103 
Q 1681 3103 1420 2742 
Q 1159 2381 1159 1747 
Q 1159 1113 1420 752 
Q 1681 391 2138 391 
Q 2594 391 2855 752 
Q 3116 1113 3116 1747 
z
" transform="scale(0.015625)"/>
     <path id="DejaVuSans-68" d="M 3513 2113 
L 3513 0 
L 2938 0 
L 2938 2094 
Q 2938 2591 2744 2837 
Q 2550 3084 2163 3084 
Q 1697 3084 1428 2787 
Q 1159 2491 1159 1978 
L 1159 0 
L 581 0 
L 581 4863 
L 1159 4863 
L 1159 2956 
Q 1366 3272 1645 3428 
Q 1925 3584 2291 3584 
Q 2894 3584 3203 3211 
Q 3513 2838 3513 2113 
z
" transform="scale(0.015625)"/>
     <path id="DejaVuSans-66" d="M 2375 4863 
L 2375 4384 
L 1825 4384 
Q 1516 4384 1395 4259 
Q 1275 4134 1275 3809 
L 1275 3500 
L 2222 3500 
L 2222 3053 
L 1275 3053 
L 1275 0 
L 697 0 
L 697 3053 
L 147 3053 
L 147 3500 
L 697 3500 
L 697 3744 
Q 697 4328 969 4595 
Q 1241 4863 1831 4863 
L 2375 4863 
z
" transform="scale(0.015625)"/>
     <path id="DejaVuSans-72" d="M 2631 2963 
Q 2534 3019 2420 3045 
Q 2306 3072 2169 3072 
Q 1681 3072 1420 2755 
Q 1159 2438 1159 1844 
L 1159 0 
L 581 0 
L 581 3500 
L 1159 3500 
L 1159 2956 
Q 1341 3275 1631 3429 
Q 1922 3584 2338 3584 
Q 2397 3584 2469 3576 
Q 2541 3569 2628 3553 
L 2631 2963 
z
" transform="scale(0.015625)"/>
     <path id="DejaVuSans-6d" d="M 3328 2828 
Q 3544 3216 3844 3400 
Q 4144 3584 4550 3584 
Q 5097 3584 5394 3201 
Q 5691 2819 5691 2113 
L 5691 0 
L 5113 0 
L 5113 2094 
Q 5113 2597 4934 2840 
Q 4756 3084 4391 3084 
Q 3944 3084 3684 2787 
Q 3425 2491 3425 1978 
L 3425 0 
L 2847 0 
L 2847 2094 
Q 2847 2600 2669 2842 
Q 2491 3084 2119 3084 
Q 1678 3084 1418 2786 
Q 1159 2488 1159 1978 
L 1159 0 
L 581 0 
L 581 3500 
L 1159 3500 
L 1159 2956 
Q 1356 3278 1631 3431 
Q 1906 3584 2284 3584 
Q 2666 3584 2933 3390 
Q 3200 3197 3328 2828 
z
" transform="scale(0.015625)"/>
     <path id="DejaVuSans-64" d="M 2906 2969 
L 2906 4863 
L 3481 4863 
L 3481 0 
L 2906 0 
L 2906 525 
Q 2725 213 2448 61 
Q 2172 -91 1784 -91 
Q 1150 -91 751 415 
Q 353 922 353 1747 
Q 353 2572 751 3078 
Q 1150 3584 1784 3584 
Q 2172 3584 2448 3432 
Q 2725 3281 2906 2969 
z
M 947 1747 
Q 947 1113 1208 752 
Q 1469 391 1925 391 
Q 2381 391 2643 752 
Q 2906 1113 2906 1747 
Q 2906 2381 2643 2742 
Q 2381 3103 1925 3103 
Q 1469 3103 1208 2742 
Q 947 2381 947 1747 
z
" transform="scale(0.015625)"/>
     <path id="DejaVuSans-5b" d="M 550 4863 
L 1875 4863 
L 1875 4416 
L 1125 4416 
L 1125 -397 
L 1875 -397 
L 1875 -844 
L 550 -844 
L 550 4863 
z
" transform="scale(0.015625)"/>
     <path id="DejaVuSans-5f" d="M 3263 -1063 
L 3263 -1509 
L -63 -1509 
L -63 -1063 
L 3263 -1063 
z
" transform="scale(0.015625)"/>
     <path id="DejaVuSans-5d" d="M 1947 4863 
L 1947 -844 
L 622 -844 
L 622 -397 
L 1369 -397 
L 1369 4416 
L 622 4416 
L 622 4863 
L 1947 4863 
z
" transform="scale(0.015625)"/>
    </defs>
    <use xlink:href="#DejaVuSans-44"/>
    <use xlink:href="#DejaVuSans-65" x="77.001953"/>
    <use xlink:href="#DejaVuSans-6e" x="138.525391"/>
    <use xlink:href="#DejaVuSans-73" x="201.904297"/>
    <use xlink:href="#DejaVuSans-69" x="254.003906"/>
    <use xlink:href="#DejaVuSans-74" x="281.787109"/>
    <use xlink:href="#DejaVuSans-79" x="320.996094"/>
    <use xlink:href="#DejaVuSans-20" x="380.175781"/>
    <use xlink:href="#DejaVuSans-73" x="411.962891"/>
    <use xlink:href="#DejaVuSans-6e" x="464.0625"/>
    <use xlink:href="#DejaVuSans-61" x="527.441406"/>
    <use xlink:href="#DejaVuSans-70" x="588.720703"/>
    <use xlink:href="#DejaVuSans-73" x="652.197266"/>
    <use xlink:href="#DejaVuSans-68" x="704.296875"/>
    <use xlink:href="#DejaVuSans-6f" x="767.675781"/>
    <use xlink:href="#DejaVuSans-74" x="828.857422"/>
    <use xlink:href="#DejaVuSans-73" x="868.066406"/>
    <use xlink:href="#DejaVuSans-20" x="920.166016"/>
    <use xlink:href="#DejaVuSans-66" x="951.953125"/>
    <use xlink:href="#DejaVuSans-6f" x="987.158203"/>
    <use xlink:href="#DejaVuSans-72" x="1048.339844"/>
    <use xlink:href="#DejaVuSans-20" x="1089.453125"/>
    <use xlink:href="#DejaVuSans-6d" x="1121.240234"/>
    <use xlink:href="#DejaVuSans-6f" x="1218.652344"/>
    <use xlink:href="#DejaVuSans-64" x="1279.833984"/>
    <use xlink:href="#DejaVuSans-65" x="1343.310547"/>
    <use xlink:href="#DejaVuSans-73" x="1404.833984"/>
    <use xlink:href="#DejaVuSans-20" x="1456.933594"/>
    <use xlink:href="#DejaVuSans-6d" x="1488.720703"/>
    <use xlink:href="#DejaVuSans-3d" x="1586.132812"/>
    <use xlink:href="#DejaVuSans-31" x="1669.921875"/>
    <use xlink:href="#DejaVuSans-2e" x="1733.544922"/>
    <use xlink:href="#DejaVuSans-2e" x="1765.332031"/>
    <use xlink:href="#DejaVuSans-35" x="1797.119141"/>
    <use xlink:href="#DejaVuSans-20" x="1860.742188"/>
    <use xlink:href="#DejaVuSans-20" x="1892.529297"/>
    <use xlink:href="#DejaVuSans-5b" x="1924.316406"/>
    <use xlink:href="#DejaVuSans-73" x="1963.330078"/>
    <use xlink:href="#DejaVuSans-65" x="2015.429688"/>
    <use xlink:href="#DejaVuSans-65" x="2076.953125"/>
    <use xlink:href="#DejaVuSans-64" x="2138.476562"/>
    <use xlink:href="#DejaVuSans-5f" x="2201.953125"/>
    <use xlink:href="#DejaVuSans-6d" x="2251.953125"/>
    <use xlink:href="#DejaVuSans-6f" x="2349.365234"/>
    <use xlink:href="#DejaVuSans-64" x="2410.546875"/>
    <use xlink:href="#DejaVuSans-65" x="2474.023438"/>
    <use xlink:href="#DejaVuSans-73" x="2535.546875"/>
    <use xlink:href="#DejaVuSans-5f" x="2587.646484"/>
    <use xlink:href="#DejaVuSans-31" x="2637.646484"/>
    <use xlink:href="#DejaVuSans-74" x="2701.269531"/>
    <use xlink:href="#DejaVuSans-6f" x="2740.478516"/>
    <use xlink:href="#DejaVuSans-35" x="2801.660156"/>
    <use xlink:href="#DejaVuSans-5d" x="2865.283203"/>
   </g>
  </g>
 </g>
 <defs>
  <clipPath id="p122cff03ac">
   <rect x="52.30649" y="20.94822" width="664.69327" height="809.69529"/>
  </clipPath>
 </defs>
</svg>
