<?xml version="1.0" encoding="utf-8" standalone="no"?>
<!DOCTYPE svg PUBLIC "-//W3C//DTD SVG 1.1//EN"
  "http://www.w3.org/Graphics/SVG/1.1/DTD/svg11.dtd">
<svg xmlns:xlink="http://www.w3.org/1999/xlink" width="720pt" height="864pt" viewBox="0 0 720 864" xmlns="http://www.w3.org/2000/svg" version="1.1">
 <metadata>
  <rdf:RDF xmlns:dc="http://purl.org/dc/elements/1.1/" xmlns:cc="http://creativecommons.org/ns#" xmlns:rdf="http://www.w3.org/1999/02/22-rdf-syntax-ns#">
   <cc:Work>
    <dc:type rdf:resource="http://purl.org/dc/dcmitype/StillImage"/>
    <dc:date>2025-09-29T12:39:11.544783</dc:date>
    <dc:format>image/svg+xml</dc:format>
    <dc:creator>
     <cc:Agent>
      <dc:title>Matplotlib v3.8.4, https://matplotlib.org/</dc:title>
     </cc:Agent>
    </dc:creator>
   </cc:Work>
  </rdf:RDF>
 </metadata>
 <defs>
  <style type="text/css">*{stroke-linejoin: round; stroke-linecap: butt}</style>
 </defs>
 <g id="figure_1">
  <g id="patch_1">
   <path d="M 0 864 
L 720 864 
L 720 0 
L 0 0 
z
" style="fill: #ffffff"/>
  </g>
  <g id="axes_1">
   <g id="patch_2">
    <path d="M 52.30649 830.64351 
L 716.99976 830.64351 
L 716.99976 20.94822 
L 52.30649 20.94822 
z
" style="fill: #ffffff"/>
   </g>
   <g id="matplotlib.axis_1">
    <g id="xtick_1">
     <g id="line2d_1">
      <defs>
       <path id="m713d4874a2" d="M 0 0 
L 0 3.5 
" style="stroke: #000000; stroke-width: 0.8"/>
      </defs>
      <g>
       <use xlink:href="#m713d4874a2" x="82.51982" y="830.64351" style="stroke: #000000; stroke-width: 0.8"/>
      </g>
     </g>
     <g id="text_1">
      <!-- 0 -->
      <g transform="translate(79.33857 845.241948) scale(0.1 -0.1)">
       <defs>
        <path id="DejaVuSans-30" d="M 2034 4250 
Q 1547 4250 1301 3770 
Q 1056 3291 1056 2328 
Q 1056 1369 1301 889 
Q 1547 409 2034 409 
Q 2525 409 2770 889 
Q 3016 1369 3016 2328 
Q 3016 3291 2770 3770 
Q 2525 4250 2034 4250 
z
M 2034 4750 
Q 2819 4750 3233 4129 
Q 3647 3509 3647 2328 
Q 3647 1150 3233 529 
Q 2819 -91 2034 -91 
Q 1250 -91 836 529 
Q 422 1150 422 2328 
Q 422 3509 836 4129 
Q 1250 4750 2034 4750 
z
" transform="scale(0.015625)"/>
       </defs>
       <use xlink:href="#DejaVuSans-30"/>
      </g>
     </g>
    </g>
    <g id="xtick_2">
     <g id="line2d_2">
      <g>
       <use xlink:href="#m713d4874a2" x="203.453125" y="830.64351" style="stroke: #000000; stroke-width: 0.8"/>
      </g>
     </g>
     <g id="text_2">
      <!-- 2 -->
      <g transform="translate(200.271875 845.241948) scale(0.1 -0.1)">
       <defs>
        <path id="DejaVuSans-32" d="M 1228 531 
L 3431 531 
L 3431 0 
L 469 0 
L 469 531 
Q 828 903 1448 1529 
Q 2069 2156 2228 2338 
Q 2531 2678 2651 2914 
Q 2772 3150 2772 3378 
Q 2772 3750 2511 3984 
Q 2250 4219 1831 4219 
Q 1534 4219 1204 4116 
Q 875 4013 500 3803 
L 500 4441 
Q 881 4594 1212 4672 
Q 1544 4750 1819 4750 
Q 2544 4750 2975 4387 
Q 3406 4025 3406 3419 
Q 3406 3131 3298 2873 
Q 3191 2616 2906 2266 
Q 2828 2175 2409 1742 
Q 1991 1309 1228 531 
z
" transform="scale(0.015625)"/>
       </defs>
       <use xlink:href="#DejaVuSans-32"/>
      </g>
     </g>
    </g>
    <g id="xtick_3">
     <g id="line2d_3">
      <g>
       <use xlink:href="#m713d4874a2" x="324.386429" y="830.64351" style="stroke: #000000; stroke-width: 0.8"/>
      </g>
     </g>
     <g id="text_3">
      <!-- 4 -->
      <g transform="translate(321.205179 845.241948) scale(0.1 -0.1)">
       <defs>
        <path id="DejaVuSans-34" d="M 2419 4116 
L 825 1625 
L 2419 1625 
L 2419 4116 
z
M 2253 4666 
L 3047 4666 
L 3047 1625 
L 3713 1625 
L 3713 1100 
L 3047 1100 
L 3047 0 
L 2419 0 
L 2419 1100 
L 313 1100 
L 313 1709 
L 2253 4666 
z
" transform="scale(0.015625)"/>
       </defs>
       <use xlink:href="#DejaVuSans-34"/>
      </g>
     </g>
    </g>
    <g id="xtick_4">
     <g id="line2d_4">
      <g>
       <use xlink:href="#m713d4874a2" x="445.319733" y="830.64351" style="stroke: #000000; stroke-width: 0.8"/>
      </g>
     </g>
     <g id="text_4">
      <!-- 6 -->
      <g transform="translate(442.138483 845.241948) scale(0.1 -0.1)">
       <defs>
        <path id="DejaVuSans-36" d="M 2113 2584 
Q 1688 2584 1439 2293 
Q 1191 2003 1191 1497 
Q 1191 994 1439 701 
Q 1688 409 2113 409 
Q 2538 409 2786 701 
Q 3034 994 3034 1497 
Q 3034 2003 2786 2293 
Q 2538 2584 2113 2584 
z
M 3366 4563 
L 3366 3988 
Q 3128 4100 2886 4159 
Q 2644 4219 2406 4219 
Q 1781 4219 1451 3797 
Q 1122 3375 1075 2522 
Q 1259 2794 1537 2939 
Q 1816 3084 2150 3084 
Q 2853 3084 3261 2657 
Q 3669 2231 3669 1497 
Q 3669 778 3244 343 
Q 2819 -91 2113 -91 
Q 1303 -91 875 529 
Q 447 1150 447 2328 
Q 447 3434 972 4092 
Q 1497 4750 2381 4750 
Q 2619 4750 2861 4703 
Q 3103 4656 3366 4563 
z
" transform="scale(0.015625)"/>
       </defs>
       <use xlink:href="#DejaVuSans-36"/>
      </g>
     </g>
    </g>
    <g id="xtick_5">
     <g id="line2d_5">
      <g>
       <use xlink:href="#m713d4874a2" x="566.253037" y="830.64351" style="stroke: #000000; stroke-width: 0.8"/>
      </g>
     </g>
     <g id="text_5">
      <!-- 8 -->
      <g transform="translate(563.071787 845.241948) scale(0.1 -0.1)">
       <defs>
        <path id="DejaVuSans-38" d="M 2034 2216 
Q 1584 2216 1326 1975 
Q 1069 1734 1069 1313 
Q 1069 891 1326 650 
Q 1584 409 2034 409 
Q 2484 409 2743 651 
Q 3003 894 3003 1313 
Q 3003 1734 2745 1975 
Q 2488 2216 2034 2216 
z
M 1403 2484 
Q 997 2584 770 2862 
Q 544 3141 544 3541 
Q 544 4100 942 4425 
Q 1341 4750 2034 4750 
Q 2731 4750 3128 4425 
Q 3525 4100 3525 3541 
Q 3525 3141 3298 2862 
Q 3072 2584 2669 2484 
Q 3125 2378 3379 2068 
Q 3634 1759 3634 1313 
Q 3634 634 3220 271 
Q 2806 -91 2034 -91 
Q 1263 -91 848 271 
Q 434 634 434 1313 
Q 434 1759 690 2068 
Q 947 2378 1403 2484 
z
M 1172 3481 
Q 1172 3119 1398 2916 
Q 1625 2713 2034 2713 
Q 2441 2713 2670 2916 
Q 2900 3119 2900 3481 
Q 2900 3844 2670 4047 
Q 2441 4250 2034 4250 
Q 1625 4250 1398 4047 
Q 1172 3844 1172 3481 
z
" transform="scale(0.015625)"/>
       </defs>
       <use xlink:href="#DejaVuSans-38"/>
      </g>
     </g>
    </g>
    <g id="xtick_6">
     <g id="line2d_6">
      <g>
       <use xlink:href="#m713d4874a2" x="687.186341" y="830.64351" style="stroke: #000000; stroke-width: 0.8"/>
      </g>
     </g>
     <g id="text_6">
      <!-- 10 -->
      <g transform="translate(680.823841 845.241948) scale(0.1 -0.1)">
       <defs>
        <path id="DejaVuSans-31" d="M 794 531 
L 1825 531 
L 1825 4091 
L 703 3866 
L 703 4441 
L 1819 4666 
L 2450 4666 
L 2450 531 
L 3481 531 
L 3481 0 
L 794 0 
L 794 531 
z
" transform="scale(0.015625)"/>
       </defs>
       <use xlink:href="#DejaVuSans-31"/>
       <use xlink:href="#DejaVuSans-30" x="63.623047"/>
      </g>
     </g>
    </g>
    <g id="text_7">
     <!-- x -->
     <g transform="translate(381.69375 858.920072) scale(0.1 -0.1)">
      <defs>
       <path id="DejaVuSans-78" d="M 3513 3500 
L 2247 1797 
L 3578 0 
L 2900 0 
L 1881 1375 
L 863 0 
L 184 0 
L 1544 1831 
L 300 3500 
L 978 3500 
L 1906 2253 
L 2834 3500 
L 3513 3500 
z
" transform="scale(0.015625)"/>
      </defs>
      <use xlink:href="#DejaVuSans-78"/>
     </g>
    </g>
   </g>
   <g id="matplotlib.axis_2">
    <g id="ytick_1">
     <g id="line2d_7">
      <defs>
       <path id="me89722bf57" d="M 0 0 
L -3.5 0 
" style="stroke: #000000; stroke-width: 0.8"/>
      </defs>
      <g>
       <use xlink:href="#me89722bf57" x="52.30649" y="750.302624" style="stroke: #000000; stroke-width: 0.8"/>
      </g>
     </g>
     <g id="text_8">
      <!-- 0.125 -->
      <g transform="translate(16.678365 754.101843) scale(0.1 -0.1)">
       <defs>
        <path id="DejaVuSans-2e" d="M 684 794 
L 1344 794 
L 1344 0 
L 684 0 
L 684 794 
z
" transform="scale(0.015625)"/>
        <path id="DejaVuSans-35" d="M 691 4666 
L 3169 4666 
L 3169 4134 
L 1269 4134 
L 1269 2991 
Q 1406 3038 1543 3061 
Q 1681 3084 1819 3084 
Q 2600 3084 3056 2656 
Q 3513 2228 3513 1497 
Q 3513 744 3044 326 
Q 2575 -91 1722 -91 
Q 1428 -91 1123 -41 
Q 819 9 494 109 
L 494 744 
Q 775 591 1075 516 
Q 1375 441 1709 441 
Q 2250 441 2565 725 
Q 2881 1009 2881 1497 
Q 2881 1984 2565 2268 
Q 2250 2553 1709 2553 
Q 1456 2553 1204 2497 
Q 953 2441 691 2322 
L 691 4666 
z
" transform="scale(0.015625)"/>
       </defs>
       <use xlink:href="#DejaVuSans-30"/>
       <use xlink:href="#DejaVuSans-2e" x="63.623047"/>
       <use xlink:href="#DejaVuSans-31" x="95.410156"/>
       <use xlink:href="#DejaVuSans-32" x="159.033203"/>
       <use xlink:href="#DejaVuSans-35" x="222.65625"/>
      </g>
     </g>
    </g>
    <g id="ytick_2">
     <g id="line2d_8">
      <g>
       <use xlink:href="#me89722bf57" x="52.30649" y="657.297734" style="stroke: #000000; stroke-width: 0.8"/>
      </g>
     </g>
     <g id="text_9">
      <!-- 0.150 -->
      <g transform="translate(16.678365 661.096952) scale(0.1 -0.1)">
       <use xlink:href="#DejaVuSans-30"/>
       <use xlink:href="#DejaVuSans-2e" x="63.623047"/>
       <use xlink:href="#DejaVuSans-31" x="95.410156"/>
       <use xlink:href="#DejaVuSans-35" x="159.033203"/>
       <use xlink:href="#DejaVuSans-30" x="222.65625"/>
      </g>
     </g>
    </g>
    <g id="ytick_3">
     <g id="line2d_9">
      <g>
       <use xlink:href="#me89722bf57" x="52.30649" y="564.292843" style="stroke: #000000; stroke-width: 0.8"/>
      </g>
     </g>
     <g id="text_10">
      <!-- 0.175 -->
      <g transform="translate(16.678365 568.092062) scale(0.1 -0.1)">
       <defs>
        <path id="DejaVuSans-37" d="M 525 4666 
L 3525 4666 
L 3525 4397 
L 1831 0 
L 1172 0 
L 2766 4134 
L 525 4134 
L 525 4666 
z
" transform="scale(0.015625)"/>
       </defs>
       <use xlink:href="#DejaVuSans-30"/>
       <use xlink:href="#DejaVuSans-2e" x="63.623047"/>
       <use xlink:href="#DejaVuSans-31" x="95.410156"/>
       <use xlink:href="#DejaVuSans-37" x="159.033203"/>
       <use xlink:href="#DejaVuSans-35" x="222.65625"/>
      </g>
     </g>
    </g>
    <g id="ytick_4">
     <g id="line2d_10">
      <g>
       <use xlink:href="#me89722bf57" x="52.30649" y="471.287953" style="stroke: #000000; stroke-width: 0.8"/>
      </g>
     </g>
     <g id="text_11">
      <!-- 0.200 -->
      <g transform="translate(16.678365 475.087172) scale(0.1 -0.1)">
       <use xlink:href="#DejaVuSans-30"/>
       <use xlink:href="#DejaVuSans-2e" x="63.623047"/>
       <use xlink:href="#DejaVuSans-32" x="95.410156"/>
       <use xlink:href="#DejaVuSans-30" x="159.033203"/>
       <use xlink:href="#DejaVuSans-30" x="222.65625"/>
      </g>
     </g>
    </g>
    <g id="ytick_5">
     <g id="line2d_11">
      <g>
       <use xlink:href="#me89722bf57" x="52.30649" y="378.283063" style="stroke: #000000; stroke-width: 0.8"/>
      </g>
     </g>
     <g id="text_12">
      <!-- 0.225 -->
      <g transform="translate(16.678365 382.082282) scale(0.1 -0.1)">
       <use xlink:href="#DejaVuSans-30"/>
       <use xlink:href="#DejaVuSans-2e" x="63.623047"/>
       <use xlink:href="#DejaVuSans-32" x="95.410156"/>
       <use xlink:href="#DejaVuSans-32" x="159.033203"/>
       <use xlink:href="#DejaVuSans-35" x="222.65625"/>
      </g>
     </g>
    </g>
    <g id="ytick_6">
     <g id="line2d_12">
      <g>
       <use xlink:href="#me89722bf57" x="52.30649" y="285.278173" style="stroke: #000000; stroke-width: 0.8"/>
      </g>
     </g>
     <g id="text_13">
      <!-- 0.250 -->
      <g transform="translate(16.678365 289.077391) scale(0.1 -0.1)">
       <use xlink:href="#DejaVuSans-30"/>
       <use xlink:href="#DejaVuSans-2e" x="63.623047"/>
       <use xlink:href="#DejaVuSans-32" x="95.410156"/>
       <use xlink:href="#DejaVuSans-35" x="159.033203"/>
       <use xlink:href="#DejaVuSans-30" x="222.65625"/>
      </g>
     </g>
    </g>
    <g id="ytick_7">
     <g id="line2d_13">
      <g>
       <use xlink:href="#me89722bf57" x="52.30649" y="192.273282" style="stroke: #000000; stroke-width: 0.8"/>
      </g>
     </g>
     <g id="text_14">
      <!-- 0.275 -->
      <g transform="translate(16.678365 196.072501) scale(0.1 -0.1)">
       <use xlink:href="#DejaVuSans-30"/>
       <use xlink:href="#DejaVuSans-2e" x="63.623047"/>
       <use xlink:href="#DejaVuSans-32" x="95.410156"/>
       <use xlink:href="#DejaVuSans-37" x="159.033203"/>
       <use xlink:href="#DejaVuSans-35" x="222.65625"/>
      </g>
     </g>
    </g>
    <g id="ytick_8">
     <g id="line2d_14">
      <g>
       <use xlink:href="#me89722bf57" x="52.30649" y="99.268392" style="stroke: #000000; stroke-width: 0.8"/>
      </g>
     </g>
     <g id="text_15">
      <!-- 0.300 -->
      <g transform="translate(16.678365 103.067611) scale(0.1 -0.1)">
       <defs>
        <path id="DejaVuSans-33" d="M 2597 2516 
Q 3050 2419 3304 2112 
Q 3559 1806 3559 1356 
Q 3559 666 3084 287 
Q 2609 -91 1734 -91 
Q 1441 -91 1130 -33 
Q 819 25 488 141 
L 488 750 
Q 750 597 1062 519 
Q 1375 441 1716 441 
Q 2309 441 2620 675 
Q 2931 909 2931 1356 
Q 2931 1769 2642 2001 
Q 2353 2234 1838 2234 
L 1294 2234 
L 1294 2753 
L 1863 2753 
Q 2328 2753 2575 2939 
Q 2822 3125 2822 3475 
Q 2822 3834 2567 4026 
Q 2313 4219 1838 4219 
Q 1578 4219 1281 4162 
Q 984 4106 628 3988 
L 628 4550 
Q 988 4650 1302 4700 
Q 1616 4750 1894 4750 
Q 2613 4750 3031 4423 
Q 3450 4097 3450 3541 
Q 3450 3153 3228 2886 
Q 3006 2619 2597 2516 
z
" transform="scale(0.015625)"/>
       </defs>
       <use xlink:href="#DejaVuSans-30"/>
       <use xlink:href="#DejaVuSans-2e" x="63.623047"/>
       <use xlink:href="#DejaVuSans-33" x="95.410156"/>
       <use xlink:href="#DejaVuSans-30" x="159.033203"/>
       <use xlink:href="#DejaVuSans-30" x="222.65625"/>
      </g>
     </g>
    </g>
    <g id="text_16">
     <!-- $\delta n \sim \cos(3x) + \cos(5x)$ -->
     <g transform="translate(10.598678 481.245865) rotate(-90) scale(0.1 -0.1)">
      <defs>
       <path id="DejaVuSans-Oblique-3b4" d="M 3472 4053 
Q 3197 4272 2450 4272 
Q 1659 4272 1588 3906 
Q 1531 3619 2328 3469 
Q 2953 3353 3253 3003 
Q 3616 2581 3447 1716 
Q 3284 888 2763 400 
Q 2238 -91 1488 -91 
Q 741 -91 406 400 
Q 72 888 241 1747 
Q 363 2384 891 2900 
Q 1097 3100 1353 3213 
Q 913 3459 1000 3900 
Q 1166 4750 2544 4750 
Q 3234 4750 3566 4531 
L 3472 4053 
z
M 1753 3056 
Q 1525 2966 1306 2738 
Q 969 2384 847 1747 
Q 722 1113 919 756 
Q 1119 397 1584 397 
Q 2044 397 2381 759 
Q 2722 1122 2838 1716 
Q 2956 2338 2731 2638 
Q 2491 2959 2103 2994 
Q 1906 3013 1753 3056 
z
" transform="scale(0.015625)"/>
       <path id="DejaVuSans-Oblique-6e" d="M 3566 2113 
L 3156 0 
L 2578 0 
L 2988 2091 
Q 3016 2238 3031 2350 
Q 3047 2463 3047 2528 
Q 3047 2791 2881 2937 
Q 2716 3084 2419 3084 
Q 1956 3084 1622 2776 
Q 1288 2469 1184 1941 
L 800 0 
L 225 0 
L 903 3500 
L 1478 3500 
L 1363 2950 
Q 1603 3253 1940 3418 
Q 2278 3584 2650 3584 
Q 3113 3584 3367 3334 
Q 3622 3084 3622 2631 
Q 3622 2519 3608 2391 
Q 3594 2263 3566 2113 
z
" transform="scale(0.015625)"/>
       <path id="DejaVuSans-223c" d="M 4684 2556 
L 4684 1997 
Q 4356 1753 4076 1645 
Q 3797 1538 3494 1538 
Q 3150 1538 2694 1722 
Q 2663 1734 2641 1744 
Q 2622 1750 2575 1769 
Q 2091 1959 1797 1959 
Q 1522 1959 1253 1840 
Q 984 1722 678 1459 
L 678 2019 
Q 1006 2263 1286 2370 
Q 1566 2478 1869 2478 
Q 2213 2478 2672 2294 
Q 2706 2278 2722 2272 
Q 2741 2266 2788 2247 
Q 3272 2056 3566 2056 
Q 3834 2056 4098 2173 
Q 4363 2291 4684 2556 
z
" transform="scale(0.015625)"/>
       <path id="DejaVuSans-63" d="M 3122 3366 
L 3122 2828 
Q 2878 2963 2633 3030 
Q 2388 3097 2138 3097 
Q 1578 3097 1268 2742 
Q 959 2388 959 1747 
Q 959 1106 1268 751 
Q 1578 397 2138 397 
Q 2388 397 2633 464 
Q 2878 531 3122 666 
L 3122 134 
Q 2881 22 2623 -34 
Q 2366 -91 2075 -91 
Q 1284 -91 818 406 
Q 353 903 353 1747 
Q 353 2603 823 3093 
Q 1294 3584 2113 3584 
Q 2378 3584 2631 3529 
Q 2884 3475 3122 3366 
z
" transform="scale(0.015625)"/>
       <path id="DejaVuSans-6f" d="M 1959 3097 
Q 1497 3097 1228 2736 
Q 959 2375 959 1747 
Q 959 1119 1226 758 
Q 1494 397 1959 397 
Q 2419 397 2687 759 
Q 2956 1122 2956 1747 
Q 2956 2369 2687 2733 
Q 2419 3097 1959 3097 
z
M 1959 3584 
Q 2709 3584 3137 3096 
Q 3566 2609 3566 1747 
Q 3566 888 3137 398 
Q 2709 -91 1959 -91 
Q 1206 -91 779 398 
Q 353 888 353 1747 
Q 353 2609 779 3096 
Q 1206 3584 1959 3584 
z
" transform="scale(0.015625)"/>
       <path id="DejaVuSans-73" d="M 2834 3397 
L 2834 2853 
Q 2591 2978 2328 3040 
Q 2066 3103 1784 3103 
Q 1356 3103 1142 2972 
Q 928 2841 928 2578 
Q 928 2378 1081 2264 
Q 1234 2150 1697 2047 
L 1894 2003 
Q 2506 1872 2764 1633 
Q 3022 1394 3022 966 
Q 3022 478 2636 193 
Q 2250 -91 1575 -91 
Q 1294 -91 989 -36 
Q 684 19 347 128 
L 347 722 
Q 666 556 975 473 
Q 1284 391 1588 391 
Q 1994 391 2212 530 
Q 2431 669 2431 922 
Q 2431 1156 2273 1281 
Q 2116 1406 1581 1522 
L 1381 1569 
Q 847 1681 609 1914 
Q 372 2147 372 2553 
Q 372 3047 722 3315 
Q 1072 3584 1716 3584 
Q 2034 3584 2315 3537 
Q 2597 3491 2834 3397 
z
" transform="scale(0.015625)"/>
       <path id="DejaVuSans-28" d="M 1984 4856 
Q 1566 4138 1362 3434 
Q 1159 2731 1159 2009 
Q 1159 1288 1364 580 
Q 1569 -128 1984 -844 
L 1484 -844 
Q 1016 -109 783 600 
Q 550 1309 550 2009 
Q 550 2706 781 3412 
Q 1013 4119 1484 4856 
L 1984 4856 
z
" transform="scale(0.015625)"/>
       <path id="DejaVuSans-Oblique-78" d="M 3841 3500 
L 2234 1784 
L 3219 0 
L 2559 0 
L 1819 1388 
L 531 0 
L -166 0 
L 1556 1844 
L 641 3500 
L 1300 3500 
L 1972 2234 
L 3144 3500 
L 3841 3500 
z
" transform="scale(0.015625)"/>
       <path id="DejaVuSans-29" d="M 513 4856 
L 1013 4856 
Q 1481 4119 1714 3412 
Q 1947 2706 1947 2009 
Q 1947 1309 1714 600 
Q 1481 -109 1013 -844 
L 513 -844 
Q 928 -128 1133 580 
Q 1338 1288 1338 2009 
Q 1338 2731 1133 3434 
Q 928 4138 513 4856 
z
" transform="scale(0.015625)"/>
       <path id="DejaVuSans-2b" d="M 2944 4013 
L 2944 2272 
L 4684 2272 
L 4684 1741 
L 2944 1741 
L 2944 0 
L 2419 0 
L 2419 1741 
L 678 1741 
L 678 2272 
L 2419 2272 
L 2419 4013 
L 2944 4013 
z
" transform="scale(0.015625)"/>
      </defs>
      <use xlink:href="#DejaVuSans-Oblique-3b4" transform="translate(0 0.125)"/>
      <use xlink:href="#DejaVuSans-Oblique-6e" transform="translate(61.181641 0.125)"/>
      <use xlink:href="#DejaVuSans-223c" transform="translate(144.042969 0.125)"/>
      <use xlink:href="#DejaVuSans-63" transform="translate(247.314453 0.125)"/>
      <use xlink:href="#DejaVuSans-6f" transform="translate(302.294922 0.125)"/>
      <use xlink:href="#DejaVuSans-73" transform="translate(363.476562 0.125)"/>
      <use xlink:href="#DejaVuSans-28" transform="translate(415.576172 0.125)"/>
      <use xlink:href="#DejaVuSans-33" transform="translate(454.589844 0.125)"/>
      <use xlink:href="#DejaVuSans-Oblique-78" transform="translate(518.212891 0.125)"/>
      <use xlink:href="#DejaVuSans-29" transform="translate(577.392578 0.125)"/>
      <use xlink:href="#DejaVuSans-2b" transform="translate(635.888672 0.125)"/>
      <use xlink:href="#DejaVuSans-63" transform="translate(739.160156 0.125)"/>
      <use xlink:href="#DejaVuSans-6f" transform="translate(794.140625 0.125)"/>
      <use xlink:href="#DejaVuSans-73" transform="translate(855.322266 0.125)"/>
      <use xlink:href="#DejaVuSans-28" transform="translate(907.421875 0.125)"/>
      <use xlink:href="#DejaVuSans-35" transform="translate(946.435547 0.125)"/>
      <use xlink:href="#DejaVuSans-Oblique-78" transform="translate(1010.058594 0.125)"/>
      <use xlink:href="#DejaVuSans-29" transform="translate(1069.238281 0.125)"/>
     </g>
    </g>
   </g>
   <g id="line2d_15">
    <path d="M 82.51982 322.480129 
L 83.319644 322.567488 
L 84.119467 322.82944 
L 84.919291 323.265611 
L 86.119026 324.245087 
L 87.318761 325.61193 
L 88.518496 327.361731 
L 89.718231 329.488854 
L 91.317878 332.899951 
L 92.917525 336.950023 
L 94.517172 341.61594 
L 96.516731 348.27352 
L 98.516289 355.792365 
L 100.91576 365.857504 
L 103.31523 376.938504 
L 106.114612 390.9625 
L 109.313906 408.139827 
L 113.712935 433.083466 
L 123.710728 490.352544 
L 127.309933 509.426912 
L 130.109315 523.166819 
L 132.508785 534.009264 
L 134.908256 543.868964 
L 136.907814 551.263621 
L 138.907373 557.859716 
L 140.906932 563.617725 
L 142.506578 567.599677 
L 144.106225 571.013622 
L 145.705872 573.851526 
L 146.905607 575.599179 
L 148.105343 577.019827 
L 149.305078 578.114165 
L 150.504813 578.884036 
L 151.704548 579.332419 
L 152.904283 579.463404 
L 154.104018 579.282173 
L 155.303754 578.79497 
L 156.503489 578.009066 
L 157.703224 576.932728 
L 158.902959 575.575178 
L 160.502606 573.345308 
L 162.102253 570.660009 
L 163.7019 567.548194 
L 165.701458 563.10639 
L 167.701017 558.112497 
L 170.100487 551.489419 
L 172.899869 543.054155 
L 176.499075 531.411663 
L 188.896338 490.442058 
L 191.69572 482.208497 
L 194.09519 475.734921 
L 196.494661 469.889635 
L 198.494219 465.549834 
L 200.493778 461.728688 
L 202.493336 458.451928 
L 204.092983 456.234929 
L 205.69263 454.383837 
L 207.292277 452.901213 
L 208.891924 451.786448 
L 210.091659 451.189644 
L 211.291394 450.794995 
L 212.491129 450.59882 
L 213.690865 450.596499 
L 214.8906 450.782502 
L 216.090335 451.150418 
L 217.689982 451.911278 
L 219.289629 452.963088 
L 220.889276 454.284005 
L 222.888834 456.27674 
L 224.888393 458.600878 
L 227.287863 461.748797 
L 230.487157 466.385509 
L 240.884862 481.914327 
L 243.284332 484.940982 
L 245.283891 487.139006 
L 247.283449 488.984544 
L 248.883096 490.173781 
L 250.482743 491.082701 
L 252.08239 491.690636 
L 253.282125 491.938033 
L 254.48186 491.999145 
L 255.681595 491.868146 
L 256.88133 491.540111 
L 258.081066 491.011043 
L 259.280801 490.277898 
L 260.480536 489.338602 
L 262.080183 487.763794 
L 263.67983 485.820861 
L 265.279477 483.513158 
L 266.879123 480.847218 
L 268.878682 477.026073 
L 270.878241 472.686271 
L 272.877799 467.86091 
L 275.27727 461.486558 
L 278.076652 453.349742 
L 281.275945 443.315117 
L 285.674974 428.700931 
L 293.273297 403.321618 
L 296.472591 393.426766 
L 299.271973 385.522373 
L 301.671443 379.469517 
L 303.671002 375.027712 
L 305.270649 371.915897 
L 306.870295 369.230598 
L 308.469942 367.000729 
L 309.669677 365.643178 
L 310.869413 364.566841 
L 312.069148 363.780937 
L 313.268883 363.293733 
L 314.468618 363.112502 
L 315.668353 363.243487 
L 316.868088 363.69187 
L 318.067824 364.461742 
L 319.267559 365.556079 
L 320.467294 366.976727 
L 321.667029 368.72438 
L 322.866764 370.798571 
L 324.466411 374.069115 
L 326.066058 377.910021 
L 327.665705 382.310492 
L 329.665263 388.575615 
L 331.664822 395.656133 
L 333.664381 403.507462 
L 336.063851 413.871749 
L 338.863233 427.128081 
L 342.062527 443.575896 
L 345.661732 463.343175 
L 351.260496 495.569805 
L 357.659084 532.220377 
L 361.258289 551.613406 
L 364.057671 565.637402 
L 366.457142 576.718403 
L 368.856612 586.783541 
L 370.856171 594.302386 
L 372.855729 600.959966 
L 374.455376 605.625884 
L 376.055023 609.675956 
L 377.65467 613.087053 
L 378.854405 615.214175 
L 380.05414 616.963976 
L 381.253875 618.330819 
L 382.453611 619.310296 
L 383.253434 619.746466 
L 384.053257 620.008418 
L 384.853081 620.095778 
L 385.652904 620.008418 
L 386.452728 619.746466 
L 387.252551 619.310296 
L 388.452286 618.330819 
L 389.652022 616.963976 
L 390.851757 615.214175 
L 392.051492 613.087053 
L 393.651139 609.675956 
L 395.250786 605.625884 
L 396.850432 600.959966 
L 398.849991 594.302386 
L 400.84955 586.783541 
L 403.24902 576.718403 
L 405.64849 565.637402 
L 408.447872 551.613406 
L 411.647166 534.436079 
L 416.046195 509.49244 
L 426.043988 452.223362 
L 429.643194 433.148994 
L 432.442576 419.409087 
L 434.842046 408.566643 
L 437.241516 398.706942 
L 439.241075 391.312285 
L 441.240633 384.716191 
L 443.240192 378.958182 
L 444.839839 374.976229 
L 446.439486 371.562284 
L 448.039133 368.72438 
L 449.238868 366.976727 
L 450.438603 365.556079 
L 451.638338 364.461742 
L 452.838073 363.69187 
L 454.037808 363.243487 
L 455.237544 363.112502 
L 456.437279 363.293733 
L 457.637014 363.780937 
L 458.836749 364.566841 
L 460.036484 365.643178 
L 461.236219 367.000729 
L 462.835866 369.230598 
L 464.435513 371.915897 
L 466.03516 375.027712 
L 468.034719 379.469517 
L 470.034277 384.46341 
L 472.433748 391.086487 
L 475.23313 399.521752 
L 478.832335 411.164243 
L 491.229598 452.133848 
L 494.02898 460.36741 
L 496.428451 466.840985 
L 498.827921 472.686271 
L 500.82748 477.026073 
L 502.827038 480.847218 
L 504.826597 484.123978 
L 506.426244 486.340977 
L 508.025891 488.192069 
L 509.625538 489.674694 
L 511.225184 490.789459 
L 512.42492 491.386262 
L 513.624655 491.780911 
L 514.82439 491.977087 
L 516.024125 491.979408 
L 517.22386 491.793404 
L 518.423595 491.425488 
L 520.023242 490.664628 
L 521.622889 489.612818 
L 523.222536 488.291901 
L 525.222095 486.299167 
L 527.221653 483.975028 
L 529.621124 480.82711 
L 532.820417 476.190397 
L 543.218122 460.66158 
L 545.617592 457.634924 
L 547.617151 455.4369 
L 549.61671 453.591362 
L 551.216356 452.402125 
L 552.816003 451.493206 
L 554.41565 450.88527 
L 555.615385 450.637874 
L 556.815121 450.576761 
L 558.014856 450.70776 
L 559.214591 451.035795 
L 560.414326 451.564864 
L 561.614061 452.298009 
L 562.813796 453.237304 
L 564.413443 454.812112 
L 566.01309 456.755045 
L 567.612737 459.062748 
L 569.212384 461.728688 
L 571.211942 465.549834 
L 573.211501 469.889635 
L 575.21106 474.714996 
L 577.61053 481.089348 
L 580.409912 489.226165 
L 583.609206 499.260789 
L 588.008235 513.874975 
L 595.606557 539.254288 
L 598.805851 549.14914 
L 601.605233 557.053533 
L 604.004703 563.10639 
L 606.004262 567.548194 
L 607.603909 570.660009 
L 609.203556 573.345308 
L 610.803203 575.575178 
L 612.002938 576.932728 
L 613.202673 578.009066 
L 614.402408 578.79497 
L 615.602143 579.282173 
L 616.801879 579.463404 
L 618.001614 579.332419 
L 619.201349 578.884036 
L 620.401084 578.114165 
L 621.600819 577.019827 
L 622.800554 575.599179 
L 624.000289 573.851526 
L 625.200025 571.777335 
L 626.799672 568.506791 
L 628.399318 564.665886 
L 629.998965 560.265414 
L 631.998524 554.000291 
L 633.998082 546.919773 
L 635.997641 539.068444 
L 638.397111 528.704158 
L 641.196493 515.447825 
L 644.395787 499.000011 
L 647.994993 479.232731 
L 653.593757 447.006101 
L 659.992344 410.35553 
L 663.59155 390.9625 
L 666.390932 376.938504 
L 668.790402 365.857504 
L 671.189872 355.792365 
L 673.189431 348.27352 
L 675.18899 341.61594 
L 676.788637 336.950023 
L 678.388283 332.899951 
L 679.98793 329.488854 
L 681.187665 327.361731 
L 682.387401 325.61193 
L 683.587136 324.245087 
L 684.786871 323.265611 
L 685.586694 322.82944 
L 686.386518 322.567488 
L 686.78643 322.50197 
L 686.78643 322.50197 
" clip-path="url(#p64e811ed6e)" style="fill: none; stroke: #1f77b4; stroke-width: 1.5; stroke-linecap: square"/>
   </g>
   <g id="line2d_16">
    <path d="M 82.51982 123.819989 
L 82.919732 121.690848 
L 83.719556 156.357095 
L 84.119467 204.00953 
L 85.719114 496.490233 
L 86.918849 644.288036 
L 87.718673 687.409748 
L 88.118585 713.740684 
L 88.518496 713.882094 
L 88.918408 720.648899 
L 89.31832 733.083321 
L 89.718231 721.485048 
L 90.118143 718.240315 
L 90.518055 722.355853 
L 90.917967 703.622579 
L 91.317878 694.165475 
L 91.71779 693.1449 
L 92.117702 669.909655 
L 92.517613 656.415831 
L 92.917525 652.1113 
L 93.317437 625.931614 
L 93.717349 609.695768 
L 94.11726 603.233198 
L 94.517172 575.077946 
L 94.917084 556.908448 
L 95.316995 549.005924 
L 95.716907 519.510904 
L 96.116819 499.937726 
L 96.516731 491.074841 
L 96.916642 460.680126 
L 97.316554 440.068251 
L 97.716466 430.580532 
L 98.116378 399.609826 
L 98.516289 378.228319 
L 98.916201 368.370293 
L 99.316113 337.094129 
L 99.716024 315.187369 
L 100.115936 305.225002 
L 100.515848 274.000984 
L 100.91576 252.01915 
L 101.315671 242.628918 
L 101.715583 212.624294 
L 102.115495 192.537434 
L 102.515406 187.177947 
L 102.915318 164.592481 
L 103.31523 157.071026 
L 103.715142 173.110201 
L 104.115053 183.67692 
L 104.514965 220.793039 
L 106.114612 489.207623 
L 107.314347 631.115359 
L 108.114171 671.004858 
L 108.514082 697.579996 
L 108.913994 698.264419 
L 109.313906 701.63713 
L 109.713817 714.347262 
L 110.113729 703.312652 
L 110.513641 696.641171 
L 110.913553 700.984989 
L 111.313464 682.802704 
L 111.713376 669.866285 
L 112.113288 669.019054 
L 112.913111 629.312374 
L 113.313023 625.132384 
L 114.112846 579.719055 
L 114.512758 573.339874 
L 115.312582 524.027629 
L 115.712493 516.174736 
L 116.512317 464.162665 
L 116.912228 455.326449 
L 117.712052 401.475258 
L 118.111964 392.026583 
L 118.911787 337.112106 
L 119.311699 327.483745 
L 120.111522 272.935295 
L 120.511434 264.415319 
L 121.311257 216.223148 
L 121.711169 215.273 
L 122.111081 201.035724 
L 122.510992 201.789223 
L 123.310816 261.861869 
L 123.710728 310.005866 
L 124.510551 438.750352 
L 125.710286 591.739302 
L 126.51011 659.211381 
L 127.309933 679.308909 
L 127.709845 698.949691 
L 128.509668 690.493044 
L 128.90958 699.079614 
L 129.709403 673.131969 
L 130.109315 674.937367 
L 130.909139 638.011091 
L 131.30905 635.526916 
L 132.108874 591.460166 
L 132.508785 586.176924 
L 133.308609 537.325408 
L 133.708521 530.174966 
L 134.508344 478.063675 
L 134.908256 469.660285 
L 135.708079 415.351532 
L 136.107991 406.141914 
L 136.907814 350.533886 
L 137.307726 340.989491 
L 138.10755 285.540415 
L 138.507461 276.913239 
L 139.307285 227.336777 
L 139.707196 225.759151 
L 140.107108 212.131014 
L 140.50702 209.216671 
L 141.306843 267.319956 
L 141.706755 311.815261 
L 142.506578 441.339864 
L 143.706314 595.407673 
L 144.106225 623.715419 
L 144.506137 662.04821 
L 144.906049 675.617936 
L 145.305961 682.859807 
L 145.705872 703.024201 
L 146.105784 701.136575 
L 146.505696 695.119199 
L 146.905607 704.148122 
L 147.705431 678.677519 
L 148.105343 680.876866 
L 148.905166 644.410871 
L 149.305078 642.28895 
L 150.104901 598.697682 
L 150.504813 593.7522 
L 151.304636 545.408354 
L 151.704548 538.573091 
L 152.504371 487.007421 
L 152.904283 478.892824 
L 153.704107 425.151532 
L 154.104018 416.181057 
L 154.903842 361.052312 
L 155.303754 351.572329 
L 156.103577 295.891038 
L 156.503489 286.441234 
L 157.303312 232.364758 
L 157.703224 225.146353 
L 158.503047 183.520698 
L 158.902959 190.301352 
L 159.302871 192.645821 
L 159.702782 207.570187 
L 160.902518 373.508006 
L 161.702341 511.2414 
L 162.902076 644.325064 
L 163.301988 663.346149 
L 163.7019 694.840206 
L 164.101811 704.92058 
L 164.501723 705.570478 
L 164.901635 721.528316 
L 165.301547 718.552236 
L 165.701458 708.029753 
L 166.10137 714.62412 
L 166.501282 703.770961 
L 166.901193 686.3593 
L 167.301105 687.177169 
L 167.701017 671.441908 
L 168.100929 649.607357 
L 168.50084 646.728701 
L 168.900752 627.87889 
L 169.300664 603.087256 
L 169.700575 597.764204 
L 170.100487 576.892433 
L 170.500399 550.058322 
L 170.900311 543.08046 
L 171.700134 492.622591 
L 172.100046 484.511201 
L 172.899869 432.204997 
L 173.299781 423.319808 
L 173.699693 399.842195 
L 174.099604 369.823888 
L 174.499516 360.429132 
L 174.899428 336.757956 
L 175.29934 306.282865 
L 175.699251 296.62276 
L 176.099163 273.06853 
L 176.499075 242.522112 
L 176.898986 233.110935 
L 177.298898 210.544385 
L 177.69881 181.418912 
L 178.098722 174.861526 
L 178.898545 138.975665 
L 179.698368 162.559958 
L 180.09828 186.223585 
L 181.298015 383.343908 
L 182.097839 530.354784 
L 183.297574 665.00896 
L 183.697486 682.329554 
L 184.097397 713.051889 
L 184.497309 725.69346 
L 184.897221 724.872507 
L 185.297133 740.330353 
L 185.697044 740.222012 
L 186.096956 728.529662 
L 186.496868 734.867077 
L 186.896779 727.125355 
L 187.296691 708.764873 
L 187.696603 709.482719 
L 188.096515 697.027166 
L 188.496426 674.396895 
L 188.896338 671.509991 
L 189.29625 656.054214 
L 189.696161 630.574735 
L 190.096073 625.291309 
L 190.495985 607.891005 
L 190.895897 580.447525 
L 191.295808 573.527604 
L 191.69572 554.86784 
L 192.095632 526.041801 
L 192.495543 517.986195 
L 192.895455 498.534141 
L 193.295367 468.72736 
L 193.695279 459.880265 
L 194.09519 439.969305 
L 194.495102 409.4732 
L 194.895014 400.080297 
L 195.294926 379.958744 
L 195.694837 348.995621 
L 196.094749 339.239988 
L 196.494661 319.103823 
L 196.894572 287.859007 
L 197.294484 277.89583 
L 197.694396 257.93364 
L 198.094308 226.623248 
L 198.494219 216.690755 
L 198.894131 197.283403 
L 199.294043 166.528312 
L 199.693954 157.649653 
L 200.093866 140.704551 
L 200.493778 114.060574 
L 200.89369 112.715329 
L 201.693513 107.244942 
L 202.093425 143.53903 
L 202.893248 249.865917 
L 203.693072 420.969909 
L 204.892807 613.530618 
L 205.292719 645.636948 
L 205.69263 688.879377 
L 206.092542 716.118002 
L 206.492454 724.109831 
L 206.892365 746.817973 
L 207.292277 756.871116 
L 207.692189 750.34707 
L 208.092101 760.878039 
L 208.492012 760.799704 
L 208.891924 745.590385 
L 209.291836 748.788238 
L 209.691747 742.593011 
L 210.091659 721.98218 
L 210.491571 720.578568 
L 210.891483 710.560472 
L 211.291394 686.438038 
L 211.691306 682.022386 
L 212.091218 669.548064 
L 212.491129 643.05366 
L 212.891041 636.594583 
L 213.290953 622.520724 
L 213.690865 594.378733 
L 214.090776 586.495641 
L 214.490688 571.38719 
L 214.8906 542.08267 
L 215.290512 533.190007 
L 215.690423 517.437412 
L 216.090335 487.311511 
L 216.490247 477.698077 
L 216.890158 461.582727 
L 217.29007 430.886536 
L 217.689982 420.760848 
L 218.089894 404.493119 
L 218.489805 373.419465 
L 218.889717 362.936856 
L 219.289629 346.679419 
L 219.68954 315.383116 
L 220.089452 304.663659 
L 220.489364 288.548535 
L 220.889276 257.164276 
L 221.289187 246.313096 
L 221.689099 230.46984 
L 222.089011 199.157638 
L 222.488922 188.341541 
L 222.888834 173.038053 
L 223.288746 142.251809 
L 223.688658 132.208102 
L 224.088569 118.826917 
L 224.488481 91.190927 
L 224.888393 86.759182 
L 225.288305 84.237766 
L 225.688216 75.597735 
L 226.088128 102.43915 
L 226.887951 197.469937 
L 228.487598 524.544187 
L 228.88751 590.815453 
L 230.087245 713.633912 
L 230.487157 725.915922 
L 230.887069 750.91343 
L 231.28698 767.698741 
L 231.686892 763.802076 
L 232.086804 775.208566 
L 232.486715 780.706211 
L 232.886627 767.207763 
L 233.286539 770.485988 
L 233.686451 769.223116 
L 234.086362 749.823333 
L 234.486274 748.037255 
L 234.886186 742.578785 
L 235.286098 719.387515 
L 235.686009 714.299973 
L 236.085921 706.154051 
L 236.485833 680.427948 
L 236.885744 673.099176 
L 237.285656 663.197167 
L 237.685568 635.724486 
L 238.485391 615.770089 
L 238.885303 587.071697 
L 239.685126 565.247137 
L 240.085038 535.68461 
L 240.884862 512.586406 
L 241.284773 482.422439 
L 242.084597 458.483328 
L 242.484508 427.916876 
L 243.284332 403.461028 
L 243.684244 372.64864 
L 244.484067 347.925748 
L 244.883979 316.995312 
L 245.683802 292.203613 
L 246.083714 261.265327 
L 246.883537 236.576642 
L 247.283449 205.743541 
L 248.083273 181.391105 
L 248.483184 150.884682 
L 249.283008 127.736544 
L 249.682919 98.61742 
L 250.082831 88.407491 
L 250.482743 82.229749 
L 250.882655 61.347411 
L 251.282566 65.634777 
L 252.08239 104.078862 
L 252.482302 162.89793 
L 254.48186 552.12389 
L 255.281684 667.583202 
L 255.681595 692.588557 
L 256.481419 754.404278 
L 256.88133 758.326416 
L 257.681154 787.532961 
L 258.081066 778.981788 
L 258.880889 788.902651 
L 259.280801 772.849531 
L 259.680712 771.19733 
L 260.080624 771.000273 
L 260.480536 750.244568 
L 260.880448 744.479072 
L 261.280359 740.906487 
L 261.680271 717.07637 
L 262.080183 708.558202 
L 262.480095 702.788611 
L 262.880006 676.878161 
L 263.279918 666.443776 
L 263.67983 659.220619 
L 264.079741 631.869145 
L 264.479653 620.057685 
L 264.879565 611.872797 
L 265.279477 583.512723 
L 265.679388 570.68752 
L 266.0793 561.880723 
L 266.479212 532.818629 
L 266.879123 519.234648 
L 267.279035 510.049908 
L 267.678947 480.512708 
L 268.078859 466.355455 
L 268.47877 456.973788 
L 268.878682 427.136117 
L 269.278594 412.544949 
L 269.678505 403.104416 
L 270.078417 373.10554 
L 270.478329 358.188159 
L 270.878241 348.796489 
L 271.278152 318.751353 
L 271.678064 303.593436 
L 272.077976 294.336793 
L 272.477888 264.344711 
L 272.877799 249.018668 
L 273.277711 239.971864 
L 273.677623 210.131428 
L 274.077534 194.718985 
L 274.477446 185.983891 
L 274.877358 156.46519 
L 275.27727 141.191367 
L 275.677181 133.15063 
L 276.077093 104.687848 
L 276.477005 90.865853 
L 276.876916 85.983626 
L 277.276828 63.282457 
L 277.67674 59.544813 
L 278.076652 73.054462 
L 278.476563 81.117701 
L 278.876475 123.080333 
L 280.07621 353.018973 
L 280.476122 447.060179 
L 281.675857 640.853262 
L 282.875592 743.522169 
L 283.275504 752.108902 
L 284.075327 786.399363 
L 284.475239 781.074294 
L 284.875151 784.708034 
L 285.275063 793.839179 
L 285.674974 780.209621 
L 286.074886 776.711553 
L 286.474798 779.919533 
L 286.874709 761.141718 
L 287.274621 753.115101 
L 287.674533 752.594422 
L 288.074445 730.490302 
L 288.474356 719.448831 
L 288.874268 716.502803 
L 289.27418 692.173918 
L 289.674091 679.038817 
L 290.074003 674.479323 
L 290.473915 648.626843 
L 290.873827 633.986192 
L 291.273738 628.343456 
L 291.67365 601.436895 
L 292.073562 585.683675 
L 292.473474 579.31937 
L 292.873385 551.688402 
L 293.273297 535.096518 
L 293.673209 528.267041 
L 294.07312 500.153428 
L 294.473032 482.92122 
L 294.872944 475.814467 
L 295.272856 447.402604 
L 295.672767 429.678703 
L 296.072679 422.436238 
L 296.472591 393.871852 
L 296.872502 375.771132 
L 297.272414 368.502028 
L 297.672326 339.904167 
L 298.072238 321.518099 
L 298.472149 314.308107 
L 298.872061 285.777752 
L 299.271973 267.182483 
L 299.671884 260.102315 
L 300.071796 231.732911 
L 300.471708 213.00336 
L 300.87162 206.130276 
L 301.271531 178.046646 
L 301.671443 159.326415 
L 302.071355 152.873653 
L 302.471267 125.482149 
L 302.871178 107.461989 
L 303.27109 102.692083 
L 303.671002 78.432832 
L 304.070913 65.653825 
L 304.470825 70.900586 
L 304.870737 64.624219 
L 305.270649 81.425135 
L 306.070472 183.329833 
L 308.469942 628.003625 
L 309.269766 714.496904 
L 310.069589 749.323094 
L 310.469501 774.530366 
L 310.869413 774.863273 
L 311.269324 778.56346 
L 311.669236 792.036153 
L 312.069148 782.485259 
L 312.46906 777.726164 
L 312.868971 784.156667 
L 313.268883 768.575624 
L 313.668795 758.523264 
L 314.068706 760.565415 
L 314.468618 741.154261 
L 314.86853 727.625753 
L 315.268442 726.830349 
L 316.068265 688.982566 
L 316.468177 686.298236 
L 317.268 645.04656 
L 317.667912 641.081656 
L 318.467735 597.417395 
L 318.867647 592.579718 
L 319.66747 547.187272 
L 320.067382 541.761217 
L 320.867206 495.133701 
L 321.267117 489.324513 
L 322.066941 441.831239 
L 322.466853 435.791353 
L 323.266676 387.718781 
L 323.666588 381.564064 
L 324.466411 333.141836 
L 324.866323 326.962153 
L 325.666146 278.38183 
L 326.066058 272.249882 
L 326.865881 223.689201 
L 327.265793 217.680284 
L 328.065617 169.399069 
L 328.465528 163.702823 
L 329.265352 116.667033 
L 329.665263 112.365953 
L 330.465087 72.560268 
L 330.864999 76.807129 
L 331.26491 69.767981 
L 331.664822 78.693804 
L 332.464646 171.462475 
L 332.864557 240.924521 
L 333.664381 415.124473 
L 334.864116 615.448131 
L 335.663939 703.072525 
L 336.863674 766.361326 
L 337.263586 769.730604 
L 337.663498 770.849696 
L 338.06341 785.430687 
L 338.863233 770.876136 
L 339.263145 778.122953 
L 340.062968 751.850806 
L 340.46288 754.525448 
L 341.262703 720.723225 
L 341.662615 720.433919 
L 342.462439 681.596644 
L 342.86235 679.322763 
L 343.662174 637.01255 
L 344.062085 633.379119 
L 344.861909 588.623918 
L 345.261821 584.047785 
L 346.061644 537.556571 
L 346.461556 532.3269 
L 347.261379 484.610209 
L 347.661291 478.934524 
L 348.461114 430.37468 
L 348.861026 424.406206 
L 349.660849 375.299967 
L 350.060761 369.154513 
L 350.860585 319.740641 
L 351.260496 313.508083 
L 352.06032 263.990184 
L 352.460232 257.747517 
L 353.260055 208.341339 
L 353.659967 202.200113 
L 354.45979 153.38437 
L 354.859702 147.795334 
L 355.659525 102.01036 
L 356.059437 99.863126 
L 356.85926 72.431328 
L 357.659084 108.822348 
L 358.058996 144.8849 
L 360.058554 531.130569 
L 361.258289 678.245504 
L 361.658201 700.842277 
L 362.058113 735.424925 
L 362.458025 748.120543 
L 362.857936 752.018077 
L 363.257848 770.923252 
L 363.65776 770.519606 
L 364.057671 763.280261 
L 364.457583 772.869695 
L 364.857495 764.633959 
L 365.257407 750.579009 
L 365.657318 754.450513 
L 366.05723 741.365431 
L 366.457142 722.941611 
L 366.857053 723.154332 
L 367.256965 706.957414 
L 367.656877 685.600314 
L 368.056789 683.380916 
L 368.4567 665.133137 
L 368.856612 641.726507 
L 369.256524 637.840531 
L 370.056347 593.339401 
L 370.456259 588.286791 
L 371.256082 541.787465 
L 371.655994 535.90847 
L 372.455818 488.011782 
L 372.855729 481.546479 
L 373.655553 432.695791 
L 374.055464 425.818846 
L 374.455376 404.201347 
L 374.855288 376.354094 
L 375.2552 369.196074 
L 375.655111 347.560432 
L 376.055023 319.389061 
L 376.454935 312.05172 
L 376.854846 290.520222 
L 377.254758 262.140109 
L 377.65467 254.719495 
L 378.054582 233.428101 
L 378.454493 205.003198 
L 378.854405 197.695098 
L 379.254317 176.98962 
L 379.654228 149.10269 
L 380.05414 142.896777 
L 380.454052 124.647125 
L 380.853964 100.771357 
L 381.253875 101.973179 
L 381.653787 97.496878 
L 382.053699 96.752192 
L 382.853522 180.3873 
L 383.253434 237.661538 
L 384.053257 407.175197 
L 385.252993 602.965308 
L 385.652904 637.646718 
L 386.052816 683.467667 
L 386.452728 709.225985 
L 386.852639 719.518229 
L 387.252551 744.512295 
L 387.652463 752.778821 
L 388.052375 748.258377 
L 388.452286 760.830703 
L 388.852198 758.724915 
L 389.25211 745.299523 
L 389.652022 750.375636 
L 390.051933 741.978353 
L 390.451845 722.989839 
L 390.851757 723.357956 
L 391.251668 711.00555 
L 391.65158 688.376978 
L 392.051492 685.660402 
L 392.451404 670.744042 
L 392.851315 645.631593 
L 393.251227 640.818117 
L 393.651139 624.208315 
L 394.05105 597.343175 
L 394.450962 591.062468 
L 394.850874 573.331928 
L 395.250786 545.200459 
L 395.650697 537.871815 
L 396.050609 519.415395 
L 396.450521 490.357031 
L 396.850432 482.270759 
L 397.250344 463.372508 
L 397.650256 433.635147 
L 398.050168 424.999273 
L 398.450079 405.871696 
L 398.849991 375.644916 
L 399.249903 366.613921 
L 399.649815 347.423616 
L 400.049726 316.862749 
L 400.449638 307.561622 
L 400.84955 288.457348 
L 401.249461 257.721608 
L 401.649373 248.302549 
L 402.049285 229.511314 
L 402.449197 198.936821 
L 402.849108 189.892964 
L 403.24902 172.305885 
L 403.648932 143.509311 
L 404.048843 137.724345 
L 404.448755 126.651864 
L 404.848667 109.183365 
L 405.248579 122.851128 
L 405.64849 143.571027 
L 406.048402 171.428937 
L 407.248137 381.078716 
L 408.047961 532.179136 
L 409.247696 668.473764 
L 409.647608 684.830758 
L 410.047519 714.516178 
L 410.447431 730.696978 
L 410.847343 728.979107 
L 411.247254 743.42159 
L 411.647166 746.883577 
L 412.047078 734.326192 
L 412.44699 739.626069 
L 412.846901 735.45555 
L 413.246813 716.23586 
L 413.646725 715.865717 
L 414.046636 706.964947 
L 414.446548 683.468585 
L 414.84646 679.425741 
L 415.246372 667.497087 
L 415.646283 641.137753 
L 416.046195 634.617781 
L 416.446107 620.707597 
L 416.846018 592.36587 
L 417.24593 584.1185 
L 417.645842 568.902944 
L 418.045754 539.156595 
L 418.445665 529.673785 
L 418.845577 513.611166 
L 419.245489 482.85892 
L 419.645401 472.477218 
L 420.045312 455.89217 
L 420.445224 424.423117 
L 420.845136 413.382115 
L 421.245047 396.515117 
L 421.644959 364.551522 
L 422.044871 353.032347 
L 422.444783 336.076975 
L 422.844694 303.814806 
L 423.244606 291.989625 
L 423.644518 275.163795 
L 424.044429 242.889078 
L 424.444341 231.120025 
L 424.844253 215.024873 
L 425.244165 183.779792 
L 426.043988 161.732995 
L 426.4439 137.430684 
L 426.843811 139.675311 
L 427.643635 157.743377 
L 428.043547 205.891679 
L 429.243282 410.182234 
L 429.643194 484.349187 
L 430.842929 638.427581 
L 431.24284 659.082227 
L 431.642752 691.120434 
L 432.042664 713.38666 
L 432.442576 713.845974 
L 432.842487 728.714679 
L 433.242399 736.618741 
L 433.642311 724.873436 
L 434.042222 729.42213 
L 434.442134 728.732332 
L 434.842046 709.545779 
L 435.241958 707.733807 
L 435.641869 701.760087 
L 436.041781 677.855167 
L 436.441693 671.951309 
L 436.841604 662.622139 
L 437.241516 635.601973 
L 437.641428 626.952932 
L 438.04134 615.441759 
L 438.441251 586.297184 
L 439.241075 562.797062 
L 439.640987 532.173651 
L 440.44081 506.381927 
L 440.840722 474.722837 
L 441.640545 447.363604 
L 442.040457 414.989596 
L 442.84028 386.588314 
L 443.240192 353.749442 
L 444.040015 324.733777 
L 444.439927 291.673544 
L 445.239751 262.606011 
L 445.639662 229.810852 
L 446.439486 202.652025 
L 446.839397 172.369918 
L 447.239309 162.773496 
L 447.639221 158.220485 
L 448.039133 142.891125 
L 448.439044 157.830975 
L 449.238868 225.049835 
L 451.238426 567.697341 
L 452.438162 681.143531 
L 452.838073 690.857331 
L 453.637897 728.190073 
L 454.037808 721.90561 
L 454.837632 734.412381 
L 455.237544 718.49864 
L 456.037367 715.97641 
L 456.437279 694.10508 
L 457.237102 682.161528 
L 457.637014 656.455067 
L 458.436837 638.381248 
L 458.836749 610.11887 
L 459.636573 587.935176 
L 460.036484 557.928997 
L 460.836308 532.937271 
L 461.236219 501.730954 
L 462.036043 474.809768 
L 462.435955 442.786578 
L 463.235778 414.555673 
L 463.63569 382.001163 
L 464.435513 352.924242 
L 464.835425 320.073484 
L 465.635248 290.572451 
L 466.03516 257.704074 
L 466.435072 240.771156 
L 466.834983 228.57686 
L 467.234895 196.502256 
L 467.634807 180.799139 
L 468.034719 171.508313 
L 468.43463 144.681814 
L 468.834542 138.15286 
L 469.234454 145.516911 
L 469.634366 146.194702 
L 470.034277 180.308877 
L 471.234012 373.916667 
L 471.633924 456.174443 
L 472.833659 625.711566 
L 473.633483 682.285405 
L 474.033394 712.01974 
L 474.433306 715.541364 
L 475.23313 742.160602 
L 475.633041 732.473197 
L 476.032953 733.793895 
L 476.432865 738.587155 
L 476.832776 720.933434 
L 477.232688 715.395493 
L 477.6326 714.511616 
L 478.032512 691.879582 
L 478.432423 681.955176 
L 478.832335 677.489082 
L 479.232247 651.625972 
L 479.632159 638.770455 
L 480.03207 631.982999 
L 480.431982 603.961058 
L 480.831894 589.072418 
L 481.231805 580.760475 
L 481.631717 551.273756 
L 482.031629 534.933712 
L 482.431541 525.6255 
L 482.831452 495.14738 
L 483.231364 477.750596 
L 483.631276 467.811757 
L 484.031187 436.681486 
L 484.431099 418.507511 
L 484.831011 408.201209 
L 485.230923 376.674111 
L 485.630834 357.930173 
L 486.030746 347.454509 
L 486.430658 315.736343 
L 486.830569 296.591056 
L 487.230481 286.116457 
L 487.630393 254.413206 
L 488.030305 235.070697 
L 488.430216 224.863193 
L 488.830128 193.605119 
L 489.23004 174.718482 
L 489.629952 165.914296 
L 490.029863 137.227719 
L 490.429775 122.658495 
L 490.829687 122.303211 
L 491.229598 108.797061 
L 491.62951 119.498388 
L 492.429334 198.104274 
L 492.829245 267.044487 
L 493.629069 424.192334 
L 494.428892 568.646891 
L 495.628627 692.734825 
L 496.028539 706.562314 
L 496.828362 746.656539 
L 497.228274 743.79102 
L 497.628186 747.364172 
L 498.028098 758.037453 
L 498.428009 745.255412 
L 498.827921 740.345574 
L 499.227833 743.979372 
L 499.627745 725.138732 
L 500.027656 714.920855 
L 500.427568 714.180427 
L 500.82748 691.491361 
L 501.227391 677.794201 
L 501.627303 674.244199 
L 502.027215 649.028583 
L 502.427127 632.953483 
L 502.827038 627.557124 
L 503.22695 600.648194 
L 503.626862 582.892193 
L 504.026773 576.272066 
L 504.426685 548.223607 
L 504.826597 529.249783 
L 505.226509 521.826952 
L 505.62642 493.025893 
L 506.026332 473.156102 
L 506.426244 465.226977 
L 506.826155 435.9564 
L 507.226067 415.423809 
L 507.625979 407.204371 
L 508.025891 377.68043 
L 508.425802 356.660783 
L 508.825714 348.313501 
L 509.225626 318.70905 
L 509.625538 297.341993 
L 510.025449 288.996327 
L 510.825273 237.880948 
L 511.225184 229.673637 
L 512.025008 178.858294 
L 512.42492 171.153647 
L 512.824831 142.833183 
L 513.224743 122.469369 
L 513.624655 117.390377 
L 514.024566 94.05357 
L 514.424478 82.32555 
L 514.82439 93.124037 
L 515.224302 97.006949 
L 515.624213 126.842095 
L 516.823948 338.520991 
L 517.22386 432.608786 
L 518.423595 625.247797 
L 519.623331 726.909472 
L 520.423154 747.589225 
L 520.823066 767.618985 
L 521.222977 763.712668 
L 521.622889 762.109715 
L 522.022801 772.157224 
L 522.422713 759.816882 
L 522.822624 750.934877 
L 523.222536 754.934313 
L 524.022359 723.898768 
L 524.422271 724.090842 
L 525.222095 686.661917 
L 525.622006 684.375323 
L 526.42183 642.632096 
L 526.821742 638.693693 
L 527.621565 593.967026 
L 528.021477 588.916424 
L 528.8213 542.101885 
L 529.221212 536.306873 
L 530.021035 488.035709 
L 530.420947 481.756698 
L 531.22077 432.493026 
L 531.620682 425.920458 
L 532.420506 376.018842 
L 532.820417 369.295772 
L 533.620241 319.037212 
L 534.020152 312.273954 
L 534.819976 261.89272 
L 535.219888 255.180654 
L 536.019711 204.907967 
L 536.419623 198.360361 
L 537.219446 148.636144 
L 537.619358 142.645274 
L 538.419181 95.572806 
L 538.819093 92.633776 
L 539.219005 73.705135 
L 539.618917 61.755492 
L 540.41874 89.62408 
L 540.818652 123.97786 
L 542.018387 352.587508 
L 542.418299 448.143112 
L 543.618034 638.377854 
L 544.817769 737.787033 
L 545.217681 750.151253 
L 545.617592 757.466511 
L 546.017504 777.89331 
L 546.417416 776.513527 
L 546.817328 772.181416 
L 547.217239 782.900199 
L 548.017063 761.941462 
L 548.416974 766.754116 
L 549.216798 736.259811 
L 549.61671 737.331259 
L 550.416533 700.617154 
L 550.816445 699.230963 
L 551.616268 658.316121 
L 552.01618 655.27032 
L 552.816003 611.44865 
L 553.215915 607.263064 
L 554.015738 561.405729 
L 554.41565 556.433704 
L 555.215474 509.154688 
L 555.615385 503.645573 
L 556.415209 455.395959 
L 556.815121 449.531415 
L 557.614944 400.655236 
L 558.014856 394.571119 
L 558.814679 345.33989 
L 559.214591 339.139993 
L 560.014414 289.775728 
L 560.414326 283.54163 
L 561.214149 234.238524 
L 561.614061 228.04362 
L 562.413885 179.026687 
L 562.813796 172.999845 
L 563.61362 124.875251 
L 564.013531 119.636122 
L 564.813355 75.845433 
L 565.213267 75.546181 
L 565.613178 64.491383 
L 566.01309 57.752551 
L 566.812914 117.698073 
L 567.212825 167.913343 
L 568.812472 505.674942 
L 569.612296 615.331182 
L 570.012207 671.153008 
L 570.412119 702.845991 
L 570.812031 721.448659 
L 571.211942 753.145167 
L 571.611854 764.495063 
L 572.011766 765.909274 
L 572.411678 783.2293 
L 572.811589 782.586245 
L 573.211501 773.790088 
L 573.611413 782.560237 
L 574.011324 774.733058 
L 574.411236 759.661156 
L 574.811148 763.156432 
L 575.21106 750.865207 
L 575.610971 731.748953 
L 576.010883 731.849578 
L 576.410795 716.686627 
L 576.810707 694.84281 
L 577.210618 692.675115 
L 577.61053 675.619025 
L 578.010442 651.863867 
L 578.410353 648.135011 
L 578.810265 629.818597 
L 579.210177 604.684032 
L 579.610089 599.858516 
L 580.01 580.711329 
L 580.409912 554.560992 
L 580.809824 548.956677 
L 581.209735 529.283499 
L 581.609647 502.377257 
L 582.009559 496.219592 
L 582.409471 476.245395 
L 582.809382 448.776701 
L 583.209294 442.230531 
L 583.609206 422.127261 
L 584.009117 394.245648 
L 584.409029 387.434558 
L 584.808941 367.337751 
L 585.208853 339.163057 
L 585.608764 332.181711 
L 586.008676 312.201597 
L 586.408588 283.83416 
L 586.8085 276.757822 
L 587.208411 256.989825 
L 587.608323 228.523504 
L 588.008235 221.42543 
L 588.408146 201.978828 
L 588.808058 173.55161 
L 589.20797 166.593152 
L 589.607882 147.761928 
L 590.007793 119.883442 
L 590.407705 113.935335 
L 590.807617 97.388343 
L 591.207528 73.207261 
L 591.60744 74.061362 
L 592.007352 70.372214 
L 592.407264 68.162989 
L 592.807175 104.307153 
L 593.606999 209.371525 
L 594.406822 387.849862 
L 595.606557 599.02776 
L 596.006469 637.304164 
L 596.406381 686.339691 
L 596.806293 716.428318 
L 597.206204 728.949111 
L 597.606116 755.981953 
L 598.006028 767.611365 
L 598.405939 764.546379 
L 598.805851 778.51512 
L 599.205763 779.258612 
L 599.605675 766.888396 
L 600.005586 773.020431 
L 600.405498 767.201958 
L 600.80541 749.062245 
L 601.205321 750.300042 
L 601.605233 740.378979 
L 602.005145 718.490686 
L 602.405057 716.535234 
L 602.804968 703.964497 
L 603.20488 679.533275 
L 603.604792 675.411798 
L 604.004703 661.092861 
L 604.404615 634.875043 
L 604.804527 629.237509 
L 605.204439 613.758354 
L 605.60435 586.252932 
L 606.004262 579.52925 
L 606.404174 563.291798 
L 606.804086 534.844132 
L 607.203997 527.330259 
L 607.603909 510.621138 
L 608.003821 481.481123 
L 608.403732 473.388058 
L 608.803644 456.419466 
L 609.203556 426.775511 
L 609.603468 418.258234 
L 610.003379 401.192493 
L 610.403291 371.192263 
L 610.803203 362.367572 
L 611.203114 345.332686 
L 611.603026 315.096829 
L 612.002938 306.055584 
L 612.40285 289.157172 
L 612.802761 258.792204 
L 613.202673 249.614077 
L 613.602585 232.956303 
L 614.002496 202.588607 
L 614.402408 193.398803 
L 614.80232 177.188217 
L 615.202232 147.160591 
L 615.602143 138.497791 
L 616.002055 123.74479 
L 616.401967 95.958867 
L 616.801879 91.299009 
L 617.20179 84.469208 
L 617.601702 70.606389 
L 618.001614 89.635504 
L 618.801437 158.972965 
L 620.800996 550.935518 
L 622.000731 688.814727 
L 622.400643 705.059789 
L 622.800554 734.273667 
L 623.200466 752.355401 
L 623.600378 750.801373 
L 624.000289 765.045374 
L 624.400201 770.668737 
L 624.800113 758.524999 
L 625.200025 763.829587 
L 625.599936 762.001911 
L 625.999848 743.367635 
L 626.39976 743.130935 
L 626.799672 736.689408 
L 627.199583 713.894156 
L 627.599495 710.062905 
L 627.999407 700.666041 
L 628.399318 675.086562 
L 628.79923 668.823025 
L 629.199142 657.487254 
L 629.599054 629.978992 
L 629.998965 622.010327 
L 630.398877 609.390351 
L 630.798789 580.512947 
L 631.1987 571.315266 
L 631.598612 557.853146 
L 631.998524 527.991269 
L 632.398436 517.889549 
L 632.798347 503.896759 
L 633.198259 473.327301 
L 633.598171 462.5517 
L 633.998082 448.25609 
L 634.397994 417.18711 
L 634.797906 405.905998 
L 635.197818 391.479856 
L 635.597729 360.07439 
L 636.397553 333.993191 
L 636.797465 302.386134 
L 637.597288 276.148585 
L 637.9972 244.469837 
L 638.797023 218.335086 
L 639.196935 186.805475 
L 639.996758 161.571157 
L 640.39667 131.120595 
L 641.196493 111.482373 
L 641.596405 87.820077 
L 641.996317 89.588069 
L 642.79614 112.023533 
L 643.196052 162.120949 
L 644.395787 386.297681 
L 644.795699 469.450874 
L 645.995434 640.896129 
L 646.395346 665.617143 
L 647.195169 726.997234 
L 647.595081 730.135225 
L 648.394904 757.960116 
L 648.794816 748.202621 
L 649.194728 753.338895 
L 649.59464 756.087692 
L 649.994551 738.545295 
L 650.394463 737.021592 
L 650.794375 734.242303 
L 651.194286 711.804765 
L 651.99411 699.741134 
L 652.394022 674.09169 
L 653.193845 656.897093 
L 653.593757 629.064794 
L 654.39358 608.377762 
L 654.793492 579.02558 
L 655.593315 555.916844 
L 655.993227 525.494344 
L 656.793051 500.695032 
L 657.192962 469.52212 
L 657.992786 443.551486 
L 658.392697 411.8664 
L 659.192521 385.106747 
L 659.592433 353.095527 
L 660.392256 325.841704 
L 660.792168 293.66191 
L 661.591991 266.179773 
L 661.991903 234.010072 
L 662.791726 206.757216 
L 663.191638 175.058608 
L 663.59155 160.246113 
L 663.991461 150.078721 
L 664.391373 121.312749 
L 664.791285 111.551538 
L 665.191197 111.154467 
L 665.591108 99.533548 
L 665.99102 117.788123 
L 666.790844 202.624669 
L 668.790402 571.896062 
L 669.990137 689.687887 
L 670.390049 700.624198 
L 671.189872 739.366976 
L 671.589784 734.112367 
L 671.989696 739.985529 
L 672.389608 747.794778 
L 672.789519 732.870566 
L 673.189431 730.484343 
L 673.589343 731.439587 
L 673.989255 710.557598 
L 674.389166 702.976421 
L 674.789078 699.654077 
L 675.18899 674.946308 
L 675.588901 663.940805 
L 675.988813 657.860589 
L 676.388725 630.605868 
L 676.788637 617.24502 
L 677.188548 609.347022 
L 677.58846 580.353527 
L 677.988372 565.314536 
L 678.388283 556.209098 
L 678.788195 526.015184 
L 679.188107 509.747481 
L 679.588019 499.848995 
L 679.98793 468.831787 
L 680.387842 451.646851 
L 680.787754 441.248225 
L 681.187665 409.685145 
L 681.587577 391.808404 
L 681.987489 381.125446 
L 682.387401 349.233138 
L 682.787312 330.839649 
L 683.187224 320.046548 
L 683.587136 288.021622 
L 683.987048 269.28882 
L 684.386959 258.596628 
L 684.786871 226.748461 
L 685.186783 208.089121 
L 685.586694 198.168196 
L 685.986606 167.708225 
L 686.386518 151.236684 
L 686.78643 145.911796 
L 686.78643 145.911796 
" clip-path="url(#p64e811ed6e)" style="fill: none; stroke: #ff7f0e; stroke-width: 1.5; stroke-linecap: square"/>
   </g>
   <g id="patch_3">
    <path d="M 52.30649 830.64351 
L 52.30649 20.94822 
" style="fill: none; stroke: #000000; stroke-width: 0.8; stroke-linejoin: miter; stroke-linecap: square"/>
   </g>
   <g id="patch_4">
    <path d="M 716.99976 830.64351 
L 716.99976 20.94822 
" style="fill: none; stroke: #000000; stroke-width: 0.8; stroke-linejoin: miter; stroke-linecap: square"/>
   </g>
   <g id="patch_5">
    <path d="M 52.30649 830.64351 
L 716.99976 830.64351 
" style="fill: none; stroke: #000000; stroke-width: 0.8; stroke-linejoin: miter; stroke-linecap: square"/>
   </g>
   <g id="patch_6">
    <path d="M 52.30649 20.94822 
L 716.99976 20.94822 
" style="fill: none; stroke: #000000; stroke-width: 0.8; stroke-linejoin: miter; stroke-linecap: square"/>
   </g>
   <g id="legend_1">
    <g id="patch_7">
     <path d="M 658.14726 50.83322 
L 711.39976 50.83322 
Q 712.99976 50.83322 712.99976 49.23322 
L 712.99976 26.54822 
Q 712.99976 24.94822 711.39976 24.94822 
L 658.14726 24.94822 
Q 656.54726 24.94822 656.54726 26.54822 
L 656.54726 49.23322 
Q 656.54726 50.83322 658.14726 50.83322 
z
" style="fill: #ffffff; opacity: 0.8; stroke: #cccccc; stroke-linejoin: miter"/>
    </g>
    <g id="line2d_17">
     <path d="M 659.74726 31.42697 
L 667.74726 31.42697 
L 675.74726 31.42697 
" style="fill: none; stroke: #1f77b4; stroke-width: 1.5; stroke-linecap: square"/>
    </g>
    <g id="text_17">
     <!-- t=0.0 -->
     <g transform="translate(682.14726 34.22697) scale(0.08 -0.08)">
      <defs>
       <path id="DejaVuSans-74" d="M 1172 4494 
L 1172 3500 
L 2356 3500 
L 2356 3053 
L 1172 3053 
L 1172 1153 
Q 1172 725 1289 603 
Q 1406 481 1766 481 
L 2356 481 
L 2356 0 
L 1766 0 
Q 1100 0 847 248 
Q 594 497 594 1153 
L 594 3053 
L 172 3053 
L 172 3500 
L 594 3500 
L 594 4494 
L 1172 4494 
z
" transform="scale(0.015625)"/>
       <path id="DejaVuSans-3d" d="M 678 2906 
L 4684 2906 
L 4684 2381 
L 678 2381 
L 678 2906 
z
M 678 1631 
L 4684 1631 
L 4684 1100 
L 678 1100 
L 678 1631 
z
" transform="scale(0.015625)"/>
      </defs>
      <use xlink:href="#DejaVuSans-74"/>
      <use xlink:href="#DejaVuSans-3d" x="39.208984"/>
      <use xlink:href="#DejaVuSans-30" x="122.998047"/>
      <use xlink:href="#DejaVuSans-2e" x="186.621094"/>
      <use xlink:href="#DejaVuSans-30" x="218.408203"/>
     </g>
    </g>
    <g id="line2d_18">
     <path d="M 659.74726 43.16947 
L 667.74726 43.16947 
L 675.74726 43.16947 
" style="fill: none; stroke: #ff7f0e; stroke-width: 1.5; stroke-linecap: square"/>
    </g>
    <g id="text_18">
     <!-- t=10.0 -->
     <g transform="translate(682.14726 45.96947) scale(0.08 -0.08)">
      <use xlink:href="#DejaVuSans-74"/>
      <use xlink:href="#DejaVuSans-3d" x="39.208984"/>
      <use xlink:href="#DejaVuSans-31" x="122.998047"/>
      <use xlink:href="#DejaVuSans-30" x="186.621094"/>
      <use xlink:href="#DejaVuSans-2e" x="250.244141"/>
      <use xlink:href="#DejaVuSans-30" x="282.03125"/>
     </g>
    </g>
   </g>
  </g>
  <g id="text_19">
   <!-- Density snapshots for modes m=1..5  [seed_modes_1to5] -->
   <g transform="translate(185.743125 12.118365) scale(0.12 -0.12)">
    <defs>
     <path id="DejaVuSans-44" d="M 1259 4147 
L 1259 519 
L 2022 519 
Q 2988 519 3436 956 
Q 3884 1394 3884 2338 
Q 3884 3275 3436 3711 
Q 2988 4147 2022 4147 
L 1259 4147 
z
M 628 4666 
L 1925 4666 
Q 3281 4666 3915 4102 
Q 4550 3538 4550 2338 
Q 4550 1131 3912 565 
Q 3275 0 1925 0 
L 628 0 
L 628 4666 
z
" transform="scale(0.015625)"/>
     <path id="DejaVuSans-65" d="M 3597 1894 
L 3597 1613 
L 953 1613 
Q 991 1019 1311 708 
Q 1631 397 2203 397 
Q 2534 397 2845 478 
Q 3156 559 3463 722 
L 3463 178 
Q 3153 47 2828 -22 
Q 2503 -91 2169 -91 
Q 1331 -91 842 396 
Q 353 884 353 1716 
Q 353 2575 817 3079 
Q 1281 3584 2069 3584 
Q 2775 3584 3186 3129 
Q 3597 2675 3597 1894 
z
M 3022 2063 
Q 3016 2534 2758 2815 
Q 2500 3097 2075 3097 
Q 1594 3097 1305 2825 
Q 1016 2553 972 2059 
L 3022 2063 
z
" transform="scale(0.015625)"/>
     <path id="DejaVuSans-6e" d="M 3513 2113 
L 3513 0 
L 2938 0 
L 2938 2094 
Q 2938 2591 2744 2837 
Q 2550 3084 2163 3084 
Q 1697 3084 1428 2787 
Q 1159 2491 1159 1978 
L 1159 0 
L 581 0 
L 581 3500 
L 1159 3500 
L 1159 2956 
Q 1366 3272 1645 3428 
Q 1925 3584 2291 3584 
Q 2894 3584 3203 3211 
Q 3513 2838 3513 2113 
z
" transform="scale(0.015625)"/>
     <path id="DejaVuSans-69" d="M 603 3500 
L 1178 3500 
L 1178 0 
L 603 0 
L 603 3500 
z
M 603 4863 
L 1178 4863 
L 1178 4134 
L 603 4134 
L 603 4863 
z
" transform="scale(0.015625)"/>
     <path id="DejaVuSans-79" d="M 2059 -325 
Q 1816 -950 1584 -1140 
Q 1353 -1331 966 -1331 
L 506 -1331 
L 506 -850 
L 844 -850 
Q 1081 -850 1212 -737 
Q 1344 -625 1503 -206 
L 1606 56 
L 191 3500 
L 800 3500 
L 1894 763 
L 2988 3500 
L 3597 3500 
L 2059 -325 
z
" transform="scale(0.015625)"/>
     <path id="DejaVuSans-20" transform="scale(0.015625)"/>
     <path id="DejaVuSans-61" d="M 2194 1759 
Q 1497 1759 1228 1600 
Q 959 1441 959 1056 
Q 959 750 1161 570 
Q 1363 391 1709 391 
Q 2188 391 2477 730 
Q 2766 1069 2766 1631 
L 2766 1759 
L 2194 1759 
z
M 3341 1997 
L 3341 0 
L 2766 0 
L 2766 531 
Q 2569 213 2275 61 
Q 1981 -91 1556 -91 
Q 1019 -91 701 211 
Q 384 513 384 1019 
Q 384 1609 779 1909 
Q 1175 2209 1959 2209 
L 2766 2209 
L 2766 2266 
Q 2766 2663 2505 2880 
Q 2244 3097 1772 3097 
Q 1472 3097 1187 3025 
Q 903 2953 641 2809 
L 641 3341 
Q 956 3463 1253 3523 
Q 1550 3584 1831 3584 
Q 2591 3584 2966 3190 
Q 3341 2797 3341 1997 
z
" transform="scale(0.015625)"/>
     <path id="DejaVuSans-70" d="M 1159 525 
L 1159 -1331 
L 581 -1331 
L 581 3500 
L 1159 3500 
L 1159 2969 
Q 1341 3281 1617 3432 
Q 1894 3584 2278 3584 
Q 2916 3584 3314 3078 
Q 3713 2572 3713 1747 
Q 3713 922 3314 415 
Q 2916 -91 2278 -91 
Q 1894 -91 1617 61 
Q 1341 213 1159 525 
z
M 3116 1747 
Q 3116 2381 2855 2742 
Q 2594 3103 2138 3103 
Q 1681 3103 1420 2742 
Q 1159 2381 1159 1747 
Q 1159 1113 1420 752 
Q 1681 391 2138 391 
Q 2594 391 2855 752 
Q 3116 1113 3116 1747 
z
" transform="scale(0.015625)"/>
     <path id="DejaVuSans-68" d="M 3513 2113 
L 3513 0 
L 2938 0 
L 2938 2094 
Q 2938 2591 2744 2837 
Q 2550 3084 2163 3084 
Q 1697 3084 1428 2787 
Q 1159 2491 1159 1978 
L 1159 0 
L 581 0 
L 581 4863 
L 1159 4863 
L 1159 2956 
Q 1366 3272 1645 3428 
Q 1925 3584 2291 3584 
Q 2894 3584 3203 3211 
Q 3513 2838 3513 2113 
z
" transform="scale(0.015625)"/>
     <path id="DejaVuSans-66" d="M 2375 4863 
L 2375 4384 
L 1825 4384 
Q 1516 4384 1395 4259 
Q 1275 4134 1275 3809 
L 1275 3500 
L 2222 3500 
L 2222 3053 
L 1275 3053 
L 1275 0 
L 697 0 
L 697 3053 
L 147 3053 
L 147 3500 
L 697 3500 
L 697 3744 
Q 697 4328 969 4595 
Q 1241 4863 1831 4863 
L 2375 4863 
z
" transform="scale(0.015625)"/>
     <path id="DejaVuSans-72" d="M 2631 2963 
Q 2534 3019 2420 3045 
Q 2306 3072 2169 3072 
Q 1681 3072 1420 2755 
Q 1159 2438 1159 1844 
L 1159 0 
L 581 0 
L 581 3500 
L 1159 3500 
L 1159 2956 
Q 1341 3275 1631 3429 
Q 1922 3584 2338 3584 
Q 2397 3584 2469 3576 
Q 2541 3569 2628 3553 
L 2631 2963 
z
" transform="scale(0.015625)"/>
     <path id="DejaVuSans-6d" d="M 3328 2828 
Q 3544 3216 3844 3400 
Q 4144 3584 4550 3584 
Q 5097 3584 5394 3201 
Q 5691 2819 5691 2113 
L 5691 0 
L 5113 0 
L 5113 2094 
Q 5113 2597 4934 2840 
Q 4756 3084 4391 3084 
Q 3944 3084 3684 2787 
Q 3425 2491 3425 1978 
L 3425 0 
L 2847 0 
L 2847 2094 
Q 2847 2600 2669 2842 
Q 2491 3084 2119 3084 
Q 1678 3084 1418 2786 
Q 1159 2488 1159 1978 
L 1159 0 
L 581 0 
L 581 3500 
L 1159 3500 
L 1159 2956 
Q 1356 3278 1631 3431 
Q 1906 3584 2284 3584 
Q 2666 3584 2933 3390 
Q 3200 3197 3328 2828 
z
" transform="scale(0.015625)"/>
     <path id="DejaVuSans-64" d="M 2906 2969 
L 2906 4863 
L 3481 4863 
L 3481 0 
L 2906 0 
L 2906 525 
Q 2725 213 2448 61 
Q 2172 -91 1784 -91 
Q 1150 -91 751 415 
Q 353 922 353 1747 
Q 353 2572 751 3078 
Q 1150 3584 1784 3584 
Q 2172 3584 2448 3432 
Q 2725 3281 2906 2969 
z
M 947 1747 
Q 947 1113 1208 752 
Q 1469 391 1925 391 
Q 2381 391 2643 752 
Q 2906 1113 2906 1747 
Q 2906 2381 2643 2742 
Q 2381 3103 1925 3103 
Q 1469 3103 1208 2742 
Q 947 2381 947 1747 
z
" transform="scale(0.015625)"/>
     <path id="DejaVuSans-5b" d="M 550 4863 
L 1875 4863 
L 1875 4416 
L 1125 4416 
L 1125 -397 
L 1875 -397 
L 1875 -844 
L 550 -844 
L 550 4863 
z
" transform="scale(0.015625)"/>
     <path id="DejaVuSans-5f" d="M 3263 -1063 
L 3263 -1509 
L -63 -1509 
L -63 -1063 
L 3263 -1063 
z
" transform="scale(0.015625)"/>
     <path id="DejaVuSans-5d" d="M 1947 4863 
L 1947 -844 
L 622 -844 
L 622 -397 
L 1369 -397 
L 1369 4416 
L 622 4416 
L 622 4863 
L 1947 4863 
z
" transform="scale(0.015625)"/>
    </defs>
    <use xlink:href="#DejaVuSans-44"/>
    <use xlink:href="#DejaVuSans-65" x="77.001953"/>
    <use xlink:href="#DejaVuSans-6e" x="138.525391"/>
    <use xlink:href="#DejaVuSans-73" x="201.904297"/>
    <use xlink:href="#DejaVuSans-69" x="254.003906"/>
    <use xlink:href="#DejaVuSans-74" x="281.787109"/>
    <use xlink:href="#DejaVuSans-79" x="320.996094"/>
    <use xlink:href="#DejaVuSans-20" x="380.175781"/>
    <use xlink:href="#DejaVuSans-73" x="411.962891"/>
    <use xlink:href="#DejaVuSans-6e" x="464.0625"/>
    <use xlink:href="#DejaVuSans-61" x="527.441406"/>
    <use xlink:href="#DejaVuSans-70" x="588.720703"/>
    <use xlink:href="#DejaVuSans-73" x="652.197266"/>
    <use xlink:href="#DejaVuSans-68" x="704.296875"/>
    <use xlink:href="#DejaVuSans-6f" x="767.675781"/>
    <use xlink:href="#DejaVuSans-74" x="828.857422"/>
    <use xlink:href="#DejaVuSans-73" x="868.066406"/>
    <use xlink:href="#DejaVuSans-20" x="920.166016"/>
    <use xlink:href="#DejaVuSans-66" x="951.953125"/>
    <use xlink:href="#DejaVuSans-6f" x="987.158203"/>
    <use xlink:href="#DejaVuSans-72" x="1048.339844"/>
    <use xlink:href="#DejaVuSans-20" x="1089.453125"/>
    <use xlink:href="#DejaVuSans-6d" x="1121.240234"/>
    <use xlink:href="#DejaVuSans-6f" x="1218.652344"/>
    <use xlink:href="#DejaVuSans-64" x="1279.833984"/>
    <use xlink:href="#DejaVuSans-65" x="1343.310547"/>
    <use xlink:href="#DejaVuSans-73" x="1404.833984"/>
    <use xlink:href="#DejaVuSans-20" x="1456.933594"/>
    <use xlink:href="#DejaVuSans-6d" x="1488.720703"/>
    <use xlink:href="#DejaVuSans-3d" x="1586.132812"/>
    <use xlink:href="#DejaVuSans-31" x="1669.921875"/>
    <use xlink:href="#DejaVuSans-2e" x="1733.544922"/>
    <use xlink:href="#DejaVuSans-2e" x="1765.332031"/>
    <use xlink:href="#DejaVuSans-35" x="1797.119141"/>
    <use xlink:href="#DejaVuSans-20" x="1860.742188"/>
    <use xlink:href="#DejaVuSans-20" x="1892.529297"/>
    <use xlink:href="#DejaVuSans-5b" x="1924.316406"/>
    <use xlink:href="#DejaVuSans-73" x="1963.330078"/>
    <use xlink:href="#DejaVuSans-65" x="2015.429688"/>
    <use xlink:href="#DejaVuSans-65" x="2076.953125"/>
    <use xlink:href="#DejaVuSans-64" x="2138.476562"/>
    <use xlink:href="#DejaVuSans-5f" x="2201.953125"/>
    <use xlink:href="#DejaVuSans-6d" x="2251.953125"/>
    <use xlink:href="#DejaVuSans-6f" x="2349.365234"/>
    <use xlink:href="#DejaVuSans-64" x="2410.546875"/>
    <use xlink:href="#DejaVuSans-65" x="2474.023438"/>
    <use xlink:href="#DejaVuSans-73" x="2535.546875"/>
    <use xlink:href="#DejaVuSans-5f" x="2587.646484"/>
    <use xlink:href="#DejaVuSans-31" x="2637.646484"/>
    <use xlink:href="#DejaVuSans-74" x="2701.269531"/>
    <use xlink:href="#DejaVuSans-6f" x="2740.478516"/>
    <use xlink:href="#DejaVuSans-35" x="2801.660156"/>
    <use xlink:href="#DejaVuSans-5d" x="2865.283203"/>
   </g>
  </g>
 </g>
 <defs>
  <clipPath id="p64e811ed6e">
   <rect x="52.30649" y="20.94822" width="664.69327" height="809.69529"/>
  </clipPath>
 </defs>
</svg>
