<?xml version="1.0" encoding="utf-8" standalone="no"?>
<!DOCTYPE svg PUBLIC "-//W3C//DTD SVG 1.1//EN"
  "http://www.w3.org/Graphics/SVG/1.1/DTD/svg11.dtd">
<svg xmlns:xlink="http://www.w3.org/1999/xlink" width="691.2pt" height="244.8pt" viewBox="0 0 691.2 244.8" xmlns="http://www.w3.org/2000/svg" version="1.1">
 <metadata>
  <rdf:RDF xmlns:dc="http://purl.org/dc/elements/1.1/" xmlns:cc="http://creativecommons.org/ns#" xmlns:rdf="http://www.w3.org/1999/02/22-rdf-syntax-ns#">
   <cc:Work>
    <dc:type rdf:resource="http://purl.org/dc/dcmitype/StillImage"/>
    <dc:date>2025-08-30T09:12:16.013707</dc:date>
    <dc:format>image/svg+xml</dc:format>
    <dc:creator>
     <cc:Agent>
      <dc:title>Matplotlib v3.8.4, https://matplotlib.org/</dc:title>
     </cc:Agent>
    </dc:creator>
   </cc:Work>
  </rdf:RDF>
 </metadata>
 <defs>
  <style type="text/css">*{stroke-linejoin: round; stroke-linecap: butt}</style>
 </defs>
 <g id="figure_1">
  <g id="patch_1">
   <path d="M 0 244.8 
L 691.2 244.8 
L 691.2 0 
L 0 0 
z
" style="fill: #ffffff"/>
  </g>
  <g id="axes_1">
   <g id="patch_2">
    <path d="M 54.11 202.84 
L 680.4 202.84 
L 680.4 26.88 
L 54.11 26.88 
z
" style="fill: #ffffff"/>
   </g>
   <g id="matplotlib.axis_1">
    <g id="xtick_1">
     <g id="line2d_1">
      <defs>
       <path id="mce010bbe1a" d="M 0 0 
L 0 3.5 
" style="stroke: #000000; stroke-width: 0.8"/>
      </defs>
      <g>
       <use xlink:href="#mce010bbe1a" x="82.577727" y="202.84" style="stroke: #000000; stroke-width: 0.8"/>
      </g>
     </g>
     <g id="text_1">
      <!-- 0 -->
      <g transform="translate(79.396477 217.438437) scale(0.1 -0.1)">
       <defs>
        <path id="DejaVuSans-30" d="M 2034 4250 
Q 1547 4250 1301 3770 
Q 1056 3291 1056 2328 
Q 1056 1369 1301 889 
Q 1547 409 2034 409 
Q 2525 409 2770 889 
Q 3016 1369 3016 2328 
Q 3016 3291 2770 3770 
Q 2525 4250 2034 4250 
z
M 2034 4750 
Q 2819 4750 3233 4129 
Q 3647 3509 3647 2328 
Q 3647 1150 3233 529 
Q 2819 -91 2034 -91 
Q 1250 -91 836 529 
Q 422 1150 422 2328 
Q 422 3509 836 4129 
Q 1250 4750 2034 4750 
z
" transform="scale(0.015625)"/>
       </defs>
       <use xlink:href="#DejaVuSans-30"/>
      </g>
     </g>
    </g>
    <g id="xtick_2">
     <g id="line2d_2">
      <g>
       <use xlink:href="#mce010bbe1a" x="196.671476" y="202.84" style="stroke: #000000; stroke-width: 0.8"/>
      </g>
     </g>
     <g id="text_2">
      <!-- 2 -->
      <g transform="translate(193.490226 217.438437) scale(0.1 -0.1)">
       <defs>
        <path id="DejaVuSans-32" d="M 1228 531 
L 3431 531 
L 3431 0 
L 469 0 
L 469 531 
Q 828 903 1448 1529 
Q 2069 2156 2228 2338 
Q 2531 2678 2651 2914 
Q 2772 3150 2772 3378 
Q 2772 3750 2511 3984 
Q 2250 4219 1831 4219 
Q 1534 4219 1204 4116 
Q 875 4013 500 3803 
L 500 4441 
Q 881 4594 1212 4672 
Q 1544 4750 1819 4750 
Q 2544 4750 2975 4387 
Q 3406 4025 3406 3419 
Q 3406 3131 3298 2873 
Q 3191 2616 2906 2266 
Q 2828 2175 2409 1742 
Q 1991 1309 1228 531 
z
" transform="scale(0.015625)"/>
       </defs>
       <use xlink:href="#DejaVuSans-32"/>
      </g>
     </g>
    </g>
    <g id="xtick_3">
     <g id="line2d_3">
      <g>
       <use xlink:href="#mce010bbe1a" x="310.765224" y="202.84" style="stroke: #000000; stroke-width: 0.8"/>
      </g>
     </g>
     <g id="text_3">
      <!-- 4 -->
      <g transform="translate(307.583974 217.438437) scale(0.1 -0.1)">
       <defs>
        <path id="DejaVuSans-34" d="M 2419 4116 
L 825 1625 
L 2419 1625 
L 2419 4116 
z
M 2253 4666 
L 3047 4666 
L 3047 1625 
L 3713 1625 
L 3713 1100 
L 3047 1100 
L 3047 0 
L 2419 0 
L 2419 1100 
L 313 1100 
L 313 1709 
L 2253 4666 
z
" transform="scale(0.015625)"/>
       </defs>
       <use xlink:href="#DejaVuSans-34"/>
      </g>
     </g>
    </g>
    <g id="xtick_4">
     <g id="line2d_4">
      <g>
       <use xlink:href="#mce010bbe1a" x="424.858973" y="202.84" style="stroke: #000000; stroke-width: 0.8"/>
      </g>
     </g>
     <g id="text_4">
      <!-- 6 -->
      <g transform="translate(421.677723 217.438437) scale(0.1 -0.1)">
       <defs>
        <path id="DejaVuSans-36" d="M 2113 2584 
Q 1688 2584 1439 2293 
Q 1191 2003 1191 1497 
Q 1191 994 1439 701 
Q 1688 409 2113 409 
Q 2538 409 2786 701 
Q 3034 994 3034 1497 
Q 3034 2003 2786 2293 
Q 2538 2584 2113 2584 
z
M 3366 4563 
L 3366 3988 
Q 3128 4100 2886 4159 
Q 2644 4219 2406 4219 
Q 1781 4219 1451 3797 
Q 1122 3375 1075 2522 
Q 1259 2794 1537 2939 
Q 1816 3084 2150 3084 
Q 2853 3084 3261 2657 
Q 3669 2231 3669 1497 
Q 3669 778 3244 343 
Q 2819 -91 2113 -91 
Q 1303 -91 875 529 
Q 447 1150 447 2328 
Q 447 3434 972 4092 
Q 1497 4750 2381 4750 
Q 2619 4750 2861 4703 
Q 3103 4656 3366 4563 
z
" transform="scale(0.015625)"/>
       </defs>
       <use xlink:href="#DejaVuSans-36"/>
      </g>
     </g>
    </g>
    <g id="xtick_5">
     <g id="line2d_5">
      <g>
       <use xlink:href="#mce010bbe1a" x="538.952721" y="202.84" style="stroke: #000000; stroke-width: 0.8"/>
      </g>
     </g>
     <g id="text_5">
      <!-- 8 -->
      <g transform="translate(535.771471 217.438437) scale(0.1 -0.1)">
       <defs>
        <path id="DejaVuSans-38" d="M 2034 2216 
Q 1584 2216 1326 1975 
Q 1069 1734 1069 1313 
Q 1069 891 1326 650 
Q 1584 409 2034 409 
Q 2484 409 2743 651 
Q 3003 894 3003 1313 
Q 3003 1734 2745 1975 
Q 2488 2216 2034 2216 
z
M 1403 2484 
Q 997 2584 770 2862 
Q 544 3141 544 3541 
Q 544 4100 942 4425 
Q 1341 4750 2034 4750 
Q 2731 4750 3128 4425 
Q 3525 4100 3525 3541 
Q 3525 3141 3298 2862 
Q 3072 2584 2669 2484 
Q 3125 2378 3379 2068 
Q 3634 1759 3634 1313 
Q 3634 634 3220 271 
Q 2806 -91 2034 -91 
Q 1263 -91 848 271 
Q 434 634 434 1313 
Q 434 1759 690 2068 
Q 947 2378 1403 2484 
z
M 1172 3481 
Q 1172 3119 1398 2916 
Q 1625 2713 2034 2713 
Q 2441 2713 2670 2916 
Q 2900 3119 2900 3481 
Q 2900 3844 2670 4047 
Q 2441 4250 2034 4250 
Q 1625 4250 1398 4047 
Q 1172 3844 1172 3481 
z
" transform="scale(0.015625)"/>
       </defs>
       <use xlink:href="#DejaVuSans-38"/>
      </g>
     </g>
    </g>
    <g id="xtick_6">
     <g id="line2d_6">
      <g>
       <use xlink:href="#mce010bbe1a" x="653.046469" y="202.84" style="stroke: #000000; stroke-width: 0.8"/>
      </g>
     </g>
     <g id="text_6">
      <!-- 10 -->
      <g transform="translate(646.683969 217.438437) scale(0.1 -0.1)">
       <defs>
        <path id="DejaVuSans-31" d="M 794 531 
L 1825 531 
L 1825 4091 
L 703 3866 
L 703 4441 
L 1819 4666 
L 2450 4666 
L 2450 531 
L 3481 531 
L 3481 0 
L 794 0 
L 794 531 
z
" transform="scale(0.015625)"/>
       </defs>
       <use xlink:href="#DejaVuSans-31"/>
       <use xlink:href="#DejaVuSans-30" x="63.623047"/>
      </g>
     </g>
    </g>
    <g id="text_7">
     <!-- x -->
     <g transform="translate(364.295625 231.116562) scale(0.1 -0.1)">
      <defs>
       <path id="DejaVuSans-78" d="M 3513 3500 
L 2247 1797 
L 3578 0 
L 2900 0 
L 1881 1375 
L 863 0 
L 184 0 
L 1544 1831 
L 300 3500 
L 978 3500 
L 1906 2253 
L 2834 3500 
L 3513 3500 
z
" transform="scale(0.015625)"/>
      </defs>
      <use xlink:href="#DejaVuSans-78"/>
     </g>
    </g>
   </g>
   <g id="matplotlib.axis_2">
    <g id="ytick_1">
     <g id="line2d_7">
      <defs>
       <path id="m63a0b7e8f8" d="M 0 0 
L -3.5 0 
" style="stroke: #000000; stroke-width: 0.8"/>
      </defs>
      <g>
       <use xlink:href="#m63a0b7e8f8" x="54.11" y="198.667372" style="stroke: #000000; stroke-width: 0.8"/>
      </g>
     </g>
     <g id="text_8">
      <!-- 0.16 -->
      <g transform="translate(24.844375 202.466591) scale(0.1 -0.1)">
       <defs>
        <path id="DejaVuSans-2e" d="M 684 794 
L 1344 794 
L 1344 0 
L 684 0 
L 684 794 
z
" transform="scale(0.015625)"/>
       </defs>
       <use xlink:href="#DejaVuSans-30"/>
       <use xlink:href="#DejaVuSans-2e" x="63.623047"/>
       <use xlink:href="#DejaVuSans-31" x="95.410156"/>
       <use xlink:href="#DejaVuSans-36" x="159.033203"/>
      </g>
     </g>
    </g>
    <g id="ytick_2">
     <g id="line2d_8">
      <g>
       <use xlink:href="#m63a0b7e8f8" x="54.11" y="165.20817" style="stroke: #000000; stroke-width: 0.8"/>
      </g>
     </g>
     <g id="text_9">
      <!-- 0.18 -->
      <g transform="translate(24.844375 169.007389) scale(0.1 -0.1)">
       <use xlink:href="#DejaVuSans-30"/>
       <use xlink:href="#DejaVuSans-2e" x="63.623047"/>
       <use xlink:href="#DejaVuSans-31" x="95.410156"/>
       <use xlink:href="#DejaVuSans-38" x="159.033203"/>
      </g>
     </g>
    </g>
    <g id="ytick_3">
     <g id="line2d_9">
      <g>
       <use xlink:href="#m63a0b7e8f8" x="54.11" y="131.748968" style="stroke: #000000; stroke-width: 0.8"/>
      </g>
     </g>
     <g id="text_10">
      <!-- 0.20 -->
      <g transform="translate(24.844375 135.548187) scale(0.1 -0.1)">
       <use xlink:href="#DejaVuSans-30"/>
       <use xlink:href="#DejaVuSans-2e" x="63.623047"/>
       <use xlink:href="#DejaVuSans-32" x="95.410156"/>
       <use xlink:href="#DejaVuSans-30" x="159.033203"/>
      </g>
     </g>
    </g>
    <g id="ytick_4">
     <g id="line2d_10">
      <g>
       <use xlink:href="#m63a0b7e8f8" x="54.11" y="98.289766" style="stroke: #000000; stroke-width: 0.8"/>
      </g>
     </g>
     <g id="text_11">
      <!-- 0.22 -->
      <g transform="translate(24.844375 102.088985) scale(0.1 -0.1)">
       <use xlink:href="#DejaVuSans-30"/>
       <use xlink:href="#DejaVuSans-2e" x="63.623047"/>
       <use xlink:href="#DejaVuSans-32" x="95.410156"/>
       <use xlink:href="#DejaVuSans-32" x="159.033203"/>
      </g>
     </g>
    </g>
    <g id="ytick_5">
     <g id="line2d_11">
      <g>
       <use xlink:href="#m63a0b7e8f8" x="54.11" y="64.830564" style="stroke: #000000; stroke-width: 0.8"/>
      </g>
     </g>
     <g id="text_12">
      <!-- 0.24 -->
      <g transform="translate(24.844375 68.629783) scale(0.1 -0.1)">
       <use xlink:href="#DejaVuSans-30"/>
       <use xlink:href="#DejaVuSans-2e" x="63.623047"/>
       <use xlink:href="#DejaVuSans-32" x="95.410156"/>
       <use xlink:href="#DejaVuSans-34" x="159.033203"/>
      </g>
     </g>
    </g>
    <g id="ytick_6">
     <g id="line2d_12">
      <g>
       <use xlink:href="#m63a0b7e8f8" x="54.11" y="31.371362" style="stroke: #000000; stroke-width: 0.8"/>
      </g>
     </g>
     <g id="text_13">
      <!-- 0.26 -->
      <g transform="translate(24.844375 35.170581) scale(0.1 -0.1)">
       <use xlink:href="#DejaVuSans-30"/>
       <use xlink:href="#DejaVuSans-2e" x="63.623047"/>
       <use xlink:href="#DejaVuSans-32" x="95.410156"/>
       <use xlink:href="#DejaVuSans-36" x="159.033203"/>
      </g>
     </g>
    </g>
    <g id="text_14">
     <!-- n -->
     <g transform="translate(18.764688 118.02875) rotate(-90) scale(0.1 -0.1)">
      <defs>
       <path id="DejaVuSans-6e" d="M 3513 2113 
L 3513 0 
L 2938 0 
L 2938 2094 
Q 2938 2591 2744 2837 
Q 2550 3084 2163 3084 
Q 1697 3084 1428 2787 
Q 1159 2491 1159 1978 
L 1159 0 
L 581 0 
L 581 3500 
L 1159 3500 
L 1159 2956 
Q 1366 3272 1645 3428 
Q 1925 3584 2291 3584 
Q 2894 3584 3203 3211 
Q 3513 2838 3513 2113 
z
" transform="scale(0.015625)"/>
      </defs>
      <use xlink:href="#DejaVuSans-6e"/>
     </g>
    </g>
   </g>
   <g id="line2d_13">
    <path d="M 82.577727 123.384168 
L 87.034514 123.474704 
L 92.605498 123.839152 
L 98.176482 124.470864 
L 103.747466 125.348497 
L 109.31845 126.442395 
L 116.00363 127.988059 
L 124.917204 130.318906 
L 144.972746 135.692108 
L 151.657927 137.212629 
L 157.22891 138.27968 
L 162.799894 139.126064 
L 168.370878 139.723183 
L 173.941862 140.050862 
L 178.398649 140.11125 
L 182.855436 139.990619 
L 188.42642 139.589622 
L 193.997403 138.923697 
L 199.568387 138.015345 
L 205.139371 136.895258 
L 211.824552 135.325382 
L 220.738126 132.97634 
L 239.679471 127.896654 
L 246.364651 126.363446 
L 251.935635 125.28289 
L 257.506619 124.420817 
L 263.077603 123.806355 
L 268.648587 123.460266 
L 273.105374 123.384798 
L 277.562161 123.490389 
L 283.133144 123.87314 
L 288.704128 124.522008 
L 294.275112 125.415068 
L 299.846096 126.522143 
L 306.531276 128.080031 
L 315.444851 130.420152 
L 334.386196 135.509878 
L 341.071376 137.055542 
L 346.64236 138.14944 
L 352.213344 139.027073 
L 357.784328 139.658785 
L 363.355311 140.023233 
L 367.812098 140.113769 
L 372.268885 140.023233 
L 377.839869 139.658785 
L 383.410853 139.027073 
L 388.981837 138.14944 
L 394.552821 137.055542 
L 401.238001 135.509878 
L 410.151575 133.179031 
L 430.207117 127.805829 
L 436.892298 126.285308 
L 442.463281 125.218257 
L 448.034265 124.371873 
L 453.605249 123.774754 
L 459.176233 123.447075 
L 463.63302 123.386687 
L 468.089807 123.507318 
L 473.660791 123.908315 
L 479.231775 124.57424 
L 484.802758 125.482592 
L 490.373742 126.602679 
L 497.058923 128.172555 
L 505.972497 130.521597 
L 524.913842 135.601283 
L 531.599022 137.134491 
L 537.170006 138.215047 
L 542.74099 139.07712 
L 548.311974 139.691582 
L 553.882958 140.037671 
L 558.339745 140.113139 
L 562.796532 140.007548 
L 568.367516 139.624797 
L 573.938499 138.975929 
L 579.509483 138.082869 
L 585.080467 136.975793 
L 591.765648 135.417906 
L 600.679222 133.077785 
L 619.620567 127.988059 
L 626.305747 126.442395 
L 631.876731 125.348497 
L 637.447715 124.470864 
L 643.018699 123.839152 
L 648.589682 123.474704 
L 651.932273 123.389836 
L 651.932273 123.389836 
" clip-path="url(#p7c6bc99ae9)" style="fill: none; stroke: #1f77b4; stroke-width: 1.5; stroke-linecap: square"/>
   </g>
   <g id="line2d_14">
    <path d="M 82.577727 76.493097 
L 95.948088 57.320007 
L 105.975859 43.217506 
L 110.432646 37.127217 
L 111.546843 35.869672 
L 112.66104 34.972987 
L 113.775237 35.348839 
L 114.889433 38.54505 
L 116.00363 44.827209 
L 121.574614 84.391731 
L 123.803007 98.228583 
L 126.031401 110.687781 
L 128.259795 121.906415 
L 130.488188 132.003396 
L 132.716582 141.033121 
L 134.944975 149.102217 
L 137.173369 156.302795 
L 139.401762 162.673921 
L 141.630156 168.299137 
L 143.858549 173.248747 
L 146.086943 177.549244 
L 148.315336 181.268155 
L 150.54373 184.458727 
L 152.772123 187.137843 
L 155.000517 189.361663 
L 157.22891 191.169969 
L 159.457304 192.572682 
L 161.685697 193.617753 
L 163.914091 194.334211 
L 166.142484 194.7272 
L 168.370878 194.838613 
L 170.599271 194.688825 
L 172.827665 194.279813 
L 175.056059 193.649186 
L 177.284452 192.809642 
L 179.512846 191.762184 
L 181.741239 190.54021 
L 185.083829 188.390867 
L 188.42642 185.901068 
L 191.76901 183.107501 
L 195.1116 180.043095 
L 199.568387 175.583221 
L 204.025174 170.764784 
L 208.481961 165.626859 
L 214.052945 158.838887 
L 220.738126 150.254726 
L 227.423306 141.300687 
L 235.222684 130.511368 
L 247.478848 113.070974 
L 265.305996 87.256021 
L 279.790554 66.32915 
L 293.160915 47.357494 
L 299.846096 38.099024 
L 300.960293 36.680216 
L 302.074489 35.510735 
L 303.188686 34.878182 
L 304.302883 36.043289 
L 305.41708 40.345874 
L 306.531276 47.373764 
L 310.988064 79.482826 
L 313.216457 93.774766 
L 315.444851 106.666435 
L 317.673244 118.306092 
L 319.901638 128.761228 
L 322.130031 138.125421 
L 324.358425 146.520523 
L 326.586818 153.998112 
L 328.815212 160.629265 
L 331.043605 166.508874 
L 333.271999 171.672951 
L 335.500392 176.176985 
L 337.728786 180.095832 
L 339.957179 183.452768 
L 342.185573 186.292419 
L 344.413966 188.674365 
L 346.64236 190.611952 
L 348.870753 192.142316 
L 351.099147 193.31309 
L 353.32754 194.130114 
L 355.555934 194.625448 
L 357.784328 194.83715 
L 360.012721 194.76555 
L 362.241115 194.439284 
L 364.469508 193.888772 
L 366.697902 193.10987 
L 368.926295 192.129944 
L 371.154689 190.971626 
L 374.497279 188.903117 
L 377.839869 186.485428 
L 381.18246 183.75615 
L 384.52505 180.749026 
L 388.981837 176.354295 
L 393.438624 171.587858 
L 397.895411 166.504772 
L 403.466395 159.761179 
L 409.037379 152.678368 
L 415.722559 143.817468 
L 424.636133 131.552436 
L 435.778101 115.739392 
L 459.176233 81.869598 
L 472.546594 62.615438 
L 481.460168 49.974353 
L 490.373742 37.601607 
L 491.487939 36.261107 
L 492.602136 35.200787 
L 493.716333 34.980642 
L 494.830529 37.104608 
L 495.944726 42.461211 
L 498.17312 58.267063 
L 500.401513 74.403698 
L 502.629907 89.15602 
L 504.8583 102.517881 
L 507.086694 114.570921 
L 509.315087 125.391393 
L 511.543481 135.118947 
L 513.771874 143.834052 
L 516.000268 151.594527 
L 518.228661 158.508549 
L 520.457055 164.636193 
L 522.685448 170.020091 
L 524.913842 174.746281 
L 527.142235 178.857921 
L 529.370629 182.386524 
L 531.599022 185.40209 
L 533.827416 187.934255 
L 536.055809 190.006692 
L 538.284203 191.677426 
L 540.512597 192.965399 
L 542.74099 193.88903 
L 544.969384 194.497125 
L 547.197777 194.800231 
L 549.426171 194.81345 
L 551.654564 194.578303 
L 553.882958 194.098759 
L 556.111351 193.387998 
L 558.339745 192.481708 
L 561.682335 190.758684 
L 565.024925 188.649538 
L 568.367516 186.1956 
L 571.710106 183.434001 
L 575.052696 180.398078 
L 579.509483 175.969344 
L 583.96627 171.177523 
L 588.423057 166.06734 
L 593.994041 159.30077 
L 599.565025 152.193829 
L 606.250205 143.313705 
L 614.049583 132.586675 
L 622.963157 119.990316 
L 637.447715 99.107909 
L 651.932273 78.109063 
L 651.932273 78.109063 
" clip-path="url(#p7c6bc99ae9)" style="fill: none; stroke: #ff7f0e; stroke-width: 1.5; stroke-linecap: square"/>
   </g>
   <g id="line2d_15">
    <path d="M 82.577727 180.409436 
L 84.806121 179.783766 
L 87.034514 178.99154 
L 90.377105 177.516662 
L 93.719695 175.730274 
L 97.062285 173.665839 
L 100.404875 171.35372 
L 104.861663 167.933028 
L 109.31845 164.180012 
L 113.775237 160.145906 
L 119.34622 154.780475 
L 126.031401 147.971608 
L 133.830778 139.668247 
L 144.972746 127.437528 
L 163.914091 106.6138 
L 172.827665 97.145528 
L 180.627042 89.168028 
L 187.312223 82.612253 
L 193.997403 76.357081 
L 199.568387 71.395624 
L 205.139371 66.702229 
L 208.481961 64.075633 
L 210.710355 62.897637 
L 211.824552 62.666679 
L 212.938748 63.395076 
L 214.052945 65.789068 
L 215.167142 69.887251 
L 217.395535 80.810455 
L 220.738126 97.786194 
L 222.966519 108.068347 
L 225.194913 117.40411 
L 227.423306 125.843586 
L 229.6517 133.453437 
L 231.880093 140.293794 
L 234.108487 146.422396 
L 236.33688 151.89503 
L 238.565274 156.759287 
L 240.793667 161.060075 
L 243.022061 164.840959 
L 245.250455 168.138901 
L 247.478848 170.988886 
L 249.707242 173.425113 
L 251.935635 175.47635 
L 254.164029 177.170045 
L 256.392422 178.533259 
L 258.620816 179.588469 
L 260.849209 180.357392 
L 263.077603 180.861635 
L 265.305996 181.118843 
L 267.53439 181.146367 
L 269.762783 180.961633 
L 271.991177 180.57856 
L 274.21957 180.011166 
L 276.447964 179.273656 
L 279.790554 177.872889 
L 283.133144 176.152716 
L 286.475735 174.147341 
L 289.818325 171.887786 
L 293.160915 169.40225 
L 297.617702 165.78036 
L 302.074489 161.857758 
L 307.645473 156.603968 
L 313.216457 151.040359 
L 319.901638 144.056476 
L 328.815212 134.402162 
L 360.012721 100.265039 
L 367.812098 92.168349 
L 374.497279 85.490872 
L 381.18246 79.096828 
L 387.86764 73.022699 
L 393.438624 68.219612 
L 397.895411 64.604588 
L 399.009608 63.840283 
L 400.123804 63.234503 
L 401.238001 62.764687 
L 402.352198 62.76049 
L 403.466395 63.988554 
L 404.580592 66.987087 
L 405.694788 71.537398 
L 407.923182 82.746086 
L 411.265772 99.566046 
L 413.494166 109.688513 
L 415.722559 118.87155 
L 417.950953 127.167979 
L 420.179346 134.644885 
L 422.40774 141.363358 
L 424.636133 147.378846 
L 426.864527 152.746383 
L 429.09292 157.514207 
L 431.321314 161.725394 
L 433.549707 165.422881 
L 435.778101 168.644238 
L 438.006494 171.422933 
L 440.234888 173.792696 
L 442.463281 175.782884 
L 444.691675 177.419631 
L 446.920068 178.729678 
L 449.148462 179.736075 
L 451.376856 180.459364 
L 453.605249 180.920961 
L 455.833643 181.139068 
L 458.062036 181.129957 
L 460.29043 180.910973 
L 462.518823 180.496575 
L 464.747217 179.899765 
L 466.97561 179.134767 
L 470.3182 177.696716 
L 473.660791 175.943229 
L 477.003381 173.908137 
L 480.345971 171.62213 
L 483.688562 169.113117 
L 488.145349 165.464262 
L 492.602136 161.51897 
L 498.17312 156.241802 
L 503.744103 150.660091 
L 510.429284 143.660668 
L 519.342858 133.994587 
L 549.426171 101.050545 
L 558.339745 91.790175 
L 566.139122 84.043556 
L 572.824303 77.718398 
L 579.509483 71.717748 
L 585.080467 67.001014 
L 588.423057 64.330863 
L 589.537254 63.623664 
L 590.651451 63.058045 
L 591.765648 62.67872 
L 592.879844 62.993296 
L 593.994041 64.786225 
L 595.108238 68.361391 
L 596.222435 73.284906 
L 602.907615 106.421629 
L 605.136009 115.911584 
L 607.364402 124.496377 
L 609.592796 132.240574 
L 611.821189 139.204336 
L 614.049583 145.447899 
L 616.277976 151.026751 
L 618.50637 155.988614 
L 620.734763 160.380458 
L 622.963157 164.245596 
L 625.19155 167.621036 
L 627.419944 170.54347 
L 629.648337 173.046807 
L 631.876731 175.159813 
L 634.105125 176.911392 
L 636.333518 178.328252 
L 638.561912 179.43285 
L 640.790305 180.248172 
L 643.018699 180.79541 
L 645.247092 181.092184 
L 647.475486 181.15698 
L 649.703879 181.006742 
L 651.932273 180.655379 
L 651.932273 180.655379 
" clip-path="url(#p7c6bc99ae9)" style="fill: none; stroke: #2ca02c; stroke-width: 1.5; stroke-linecap: square"/>
   </g>
   <g id="line2d_16">
    <path d="M 82.577727 79.606322 
L 89.262908 73.821459 
L 94.833892 69.284309 
L 99.290679 65.93703 
L 100.404875 65.300605 
L 101.519072 64.839867 
L 102.633269 64.669598 
L 103.747466 65.318593 
L 104.861663 67.462354 
L 105.975859 71.255298 
L 107.090056 76.219741 
L 112.66104 103.515547 
L 114.889433 113.146724 
L 117.117827 121.875069 
L 119.34622 129.75542 
L 121.574614 136.850159 
L 123.803007 143.219809 
L 126.031401 148.916699 
L 128.259795 153.991581 
L 130.488188 158.492304 
L 132.716582 162.459656 
L 134.944975 165.93331 
L 137.173369 168.950646 
L 139.401762 171.543398 
L 141.630156 173.742727 
L 143.858549 175.577999 
L 146.086943 177.074004 
L 148.315336 178.255416 
L 150.54373 179.145475 
L 152.772123 179.763651 
L 155.000517 180.129672 
L 157.22891 180.262076 
L 159.457304 180.176255 
L 161.685697 179.88815 
L 163.914091 179.412681 
L 166.142484 178.762097 
L 169.485075 177.486211 
L 172.827665 175.884028 
L 176.170255 173.990463 
L 179.512846 171.837266 
L 182.855436 169.45317 
L 187.312223 165.960516 
L 191.76901 162.159327 
L 197.339994 157.050843 
L 202.910978 151.624119 
L 209.596158 144.798345 
L 218.509732 135.346981 
L 249.707242 101.907115 
L 257.506619 93.997884 
L 264.1918 87.489568 
L 270.87698 81.275679 
L 277.562161 75.394431 
L 283.133144 70.771499 
L 287.589932 67.296174 
L 289.818325 65.704526 
L 290.932522 65.127835 
L 292.046719 64.734238 
L 293.160915 64.757833 
L 294.275112 65.843786 
L 295.389309 68.557672 
L 296.503506 72.812786 
L 298.731899 83.622401 
L 302.074489 100.097285 
L 304.302883 110.039647 
L 306.531276 119.063207 
L 308.75967 127.218199 
L 310.988064 134.569014 
L 313.216457 141.174222 
L 315.444851 147.088663 
L 317.673244 152.366275 
L 319.901638 157.053565 
L 322.130031 161.193454 
L 324.358425 164.828136 
L 326.586818 167.993783 
L 328.815212 170.723922 
L 331.043605 173.051688 
L 333.271999 175.005296 
L 335.500392 176.611094 
L 337.728786 177.895312 
L 339.957179 178.880061 
L 342.185573 179.586217 
L 344.413966 180.034726 
L 346.64236 180.243023 
L 348.870753 180.227795 
L 351.099147 180.005938 
L 353.32754 179.591283 
L 355.555934 178.99731 
L 357.784328 178.237788 
L 361.126918 176.812352 
L 364.469508 175.076588 
L 367.812098 173.063932 
L 371.154689 170.804708 
L 375.611476 167.456021 
L 380.068263 163.777303 
L 384.52505 159.8202 
L 390.096034 154.553077 
L 396.781214 147.867663 
L 404.580592 139.715999 
L 416.836756 126.507277 
L 433.549707 108.512082 
L 442.463281 99.236764 
L 450.262659 91.434071 
L 456.947839 85.035461 
L 463.63302 78.946387 
L 470.3182 73.200457 
L 475.889184 68.707701 
L 479.231775 66.188149 
L 480.345971 65.492428 
L 481.460168 64.973506 
L 482.574365 64.670545 
L 483.688562 64.964618 
L 484.802758 66.556317 
L 485.916955 69.82879 
L 487.031152 74.475715 
L 493.716333 106.829989 
L 495.944726 116.154102 
L 498.17312 124.592231 
L 500.401513 132.205107 
L 502.629907 139.05139 
L 504.8583 145.19035 
L 507.086694 150.675439 
L 509.315087 155.553613 
L 511.543481 159.871523 
L 513.771874 163.670872 
L 516.000268 166.988211 
L 518.228661 169.860094 
L 520.457055 172.319071 
L 522.685448 174.39368 
L 524.913842 176.112777 
L 527.142235 177.501901 
L 529.370629 178.583465 
L 531.599022 179.380455 
L 533.827416 179.913037 
L 536.055809 180.198938 
L 538.284203 180.256658 
L 540.512597 180.102231 
L 542.74099 179.749793 
L 544.969384 179.214397 
L 547.197777 178.508887 
L 550.540367 177.157291 
L 553.882958 175.487474 
L 557.225548 173.533588 
L 560.568138 171.326673 
L 563.910729 168.894925 
L 568.367516 165.346824 
L 572.824303 161.499428 
L 578.395286 156.343774 
L 583.96627 150.880974 
L 590.651451 144.023655 
L 599.565025 134.547598 
L 628.534141 103.447189 
L 636.333518 95.479614 
L 644.132895 87.843557 
L 650.818076 81.612285 
L 651.932273 80.605105 
L 651.932273 80.605105 
" clip-path="url(#p7c6bc99ae9)" style="fill: none; stroke: #d62728; stroke-width: 1.5; stroke-linecap: square"/>
   </g>
   <g id="line2d_17">
    <path d="M 82.577727 161.333875 
L 88.148711 156.17243 
L 93.719695 150.706421 
L 100.404875 143.848127 
L 109.31845 134.375093 
L 138.287565 103.312875 
L 146.086943 95.361648 
L 153.88632 87.744653 
L 160.571501 81.531337 
L 167.256681 75.649579 
L 172.827665 71.028011 
L 177.284452 67.556696 
L 179.512846 65.925047 
L 180.627042 65.306909 
L 181.741239 64.889929 
L 182.855436 64.806584 
L 183.969633 65.607211 
L 185.083829 67.951147 
L 186.198026 71.924108 
L 188.42642 82.539463 
L 191.76901 99.072724 
L 193.997403 109.09941 
L 196.225797 118.206074 
L 198.454191 126.439492 
L 200.682584 133.863432 
L 202.910978 140.535194 
L 205.139371 146.511726 
L 207.367765 151.84732 
L 209.596158 156.587606 
L 211.824552 160.777075 
L 214.052945 164.458146 
L 216.281339 167.666271 
L 218.509732 170.436251 
L 220.738126 172.801362 
L 222.966519 174.789193 
L 225.194913 176.427189 
L 227.423306 177.741636 
L 229.6517 178.75409 
L 231.880093 179.486407 
L 234.108487 179.959509 
L 236.33688 180.190329 
L 238.565274 180.196459 
L 240.793667 179.994694 
L 243.022061 179.598411 
L 245.250455 179.021946 
L 247.478848 178.278891 
L 250.821438 176.875984 
L 254.164029 175.160621 
L 257.506619 173.16645 
L 260.849209 170.924007 
L 265.305996 167.595161 
L 269.762783 163.933781 
L 274.21957 159.992168 
L 279.790554 154.74125 
L 286.475735 148.072116 
L 294.275112 139.935667 
L 306.531276 126.743481 
L 323.244228 108.76112 
L 332.157802 99.489653 
L 339.957179 91.688439 
L 346.64236 85.290604 
L 353.32754 79.202066 
L 360.012721 73.45772 
L 365.583705 68.961162 
L 370.040492 65.696557 
L 371.154689 65.145261 
L 372.268885 64.807243 
L 373.383082 64.937698 
L 374.497279 66.196407 
L 375.611476 69.112581 
L 376.725672 73.525531 
L 378.954066 84.422831 
L 382.296656 100.807686 
L 384.52505 110.679661 
L 386.753443 119.637831 
L 388.981837 127.731446 
L 391.21023 135.025588 
L 393.438624 141.578438 
L 395.667017 147.444232 
L 397.895411 152.677112 
L 400.123804 157.323234 
L 402.352198 161.424897 
L 404.580592 165.024417 
L 406.808985 168.157709 
L 409.037379 170.857762 
L 411.265772 173.15786 
L 413.494166 175.086005 
L 415.722559 176.668095 
L 417.950953 177.930536 
L 420.179346 178.89525 
L 422.40774 179.582735 
L 424.636133 180.014139 
L 426.864527 180.206711 
L 429.09292 180.17683 
L 431.321314 179.941607 
L 433.549707 179.514683 
L 435.778101 178.909296 
L 438.006494 178.139432 
L 441.349085 176.700048 
L 444.691675 174.952113 
L 448.034265 172.928909 
L 451.376856 170.660648 
L 455.833643 167.301933 
L 460.29043 163.615468 
L 464.747217 159.652451 
L 470.3182 154.380426 
L 477.003381 147.692284 
L 484.802758 139.541286 
L 497.058923 126.340814 
L 513.771874 108.368804 
L 522.685448 99.110688 
L 530.484826 91.325748 
L 537.170006 84.944085 
L 543.855187 78.874071 
L 550.540367 73.14978 
L 556.111351 68.676579 
L 559.453941 66.173571 
L 560.568138 65.490405 
L 561.682335 65.005316 
L 562.796532 64.772182 
L 563.910729 65.195187 
L 565.024925 66.97663 
L 566.139122 70.44449 
L 567.253319 75.222691 
L 573.938499 107.493237 
L 576.166893 116.749903 
L 578.395286 125.125321 
L 580.62368 132.680269 
L 582.852073 139.472543 
L 585.080467 145.561621 
L 587.308861 151.000906 
L 589.537254 155.836607 
L 591.765648 160.115296 
L 593.994041 163.878661 
L 596.222435 167.162609 
L 598.450828 170.003634 
L 600.679222 172.43431 
L 602.907615 174.482622 
L 605.136009 176.177417 
L 607.364402 177.544274 
L 609.592796 178.605121 
L 611.821189 179.382986 
L 614.049583 179.898075 
L 616.277976 180.167688 
L 618.50637 180.21041 
L 620.734763 180.042303 
L 622.963157 179.677125 
L 625.19155 179.130056 
L 627.419944 178.413942 
L 630.762534 177.047969 
L 634.105125 175.365594 
L 637.447715 173.400832 
L 640.790305 171.184547 
L 644.132895 168.744813 
L 648.589682 165.187943 
L 651.932273 162.322636 
L 651.932273 162.322636 
" clip-path="url(#p7c6bc99ae9)" style="fill: none; stroke: #9467bd; stroke-width: 1.5; stroke-linecap: square"/>
   </g>
   <g id="patch_3">
    <path d="M 54.11 202.84 
L 54.11 26.88 
" style="fill: none; stroke: #000000; stroke-width: 0.8; stroke-linejoin: miter; stroke-linecap: square"/>
   </g>
   <g id="patch_4">
    <path d="M 680.4 202.84 
L 680.4 26.88 
" style="fill: none; stroke: #000000; stroke-width: 0.8; stroke-linejoin: miter; stroke-linecap: square"/>
   </g>
   <g id="patch_5">
    <path d="M 54.11 202.84 
L 680.4 202.84 
" style="fill: none; stroke: #000000; stroke-width: 0.8; stroke-linejoin: miter; stroke-linecap: square"/>
   </g>
   <g id="patch_6">
    <path d="M 54.11 26.88 
L 680.4 26.88 
" style="fill: none; stroke: #000000; stroke-width: 0.8; stroke-linejoin: miter; stroke-linecap: square"/>
   </g>
   <g id="text_15">
    <!-- Density snapshots  drift_run -->
    <g transform="translate(282.859375 20.88) scale(0.12 -0.12)">
     <defs>
      <path id="DejaVuSans-44" d="M 1259 4147 
L 1259 519 
L 2022 519 
Q 2988 519 3436 956 
Q 3884 1394 3884 2338 
Q 3884 3275 3436 3711 
Q 2988 4147 2022 4147 
L 1259 4147 
z
M 628 4666 
L 1925 4666 
Q 3281 4666 3915 4102 
Q 4550 3538 4550 2338 
Q 4550 1131 3912 565 
Q 3275 0 1925 0 
L 628 0 
L 628 4666 
z
" transform="scale(0.015625)"/>
      <path id="DejaVuSans-65" d="M 3597 1894 
L 3597 1613 
L 953 1613 
Q 991 1019 1311 708 
Q 1631 397 2203 397 
Q 2534 397 2845 478 
Q 3156 559 3463 722 
L 3463 178 
Q 3153 47 2828 -22 
Q 2503 -91 2169 -91 
Q 1331 -91 842 396 
Q 353 884 353 1716 
Q 353 2575 817 3079 
Q 1281 3584 2069 3584 
Q 2775 3584 3186 3129 
Q 3597 2675 3597 1894 
z
M 3022 2063 
Q 3016 2534 2758 2815 
Q 2500 3097 2075 3097 
Q 1594 3097 1305 2825 
Q 1016 2553 972 2059 
L 3022 2063 
z
" transform="scale(0.015625)"/>
      <path id="DejaVuSans-73" d="M 2834 3397 
L 2834 2853 
Q 2591 2978 2328 3040 
Q 2066 3103 1784 3103 
Q 1356 3103 1142 2972 
Q 928 2841 928 2578 
Q 928 2378 1081 2264 
Q 1234 2150 1697 2047 
L 1894 2003 
Q 2506 1872 2764 1633 
Q 3022 1394 3022 966 
Q 3022 478 2636 193 
Q 2250 -91 1575 -91 
Q 1294 -91 989 -36 
Q 684 19 347 128 
L 347 722 
Q 666 556 975 473 
Q 1284 391 1588 391 
Q 1994 391 2212 530 
Q 2431 669 2431 922 
Q 2431 1156 2273 1281 
Q 2116 1406 1581 1522 
L 1381 1569 
Q 847 1681 609 1914 
Q 372 2147 372 2553 
Q 372 3047 722 3315 
Q 1072 3584 1716 3584 
Q 2034 3584 2315 3537 
Q 2597 3491 2834 3397 
z
" transform="scale(0.015625)"/>
      <path id="DejaVuSans-69" d="M 603 3500 
L 1178 3500 
L 1178 0 
L 603 0 
L 603 3500 
z
M 603 4863 
L 1178 4863 
L 1178 4134 
L 603 4134 
L 603 4863 
z
" transform="scale(0.015625)"/>
      <path id="DejaVuSans-74" d="M 1172 4494 
L 1172 3500 
L 2356 3500 
L 2356 3053 
L 1172 3053 
L 1172 1153 
Q 1172 725 1289 603 
Q 1406 481 1766 481 
L 2356 481 
L 2356 0 
L 1766 0 
Q 1100 0 847 248 
Q 594 497 594 1153 
L 594 3053 
L 172 3053 
L 172 3500 
L 594 3500 
L 594 4494 
L 1172 4494 
z
" transform="scale(0.015625)"/>
      <path id="DejaVuSans-79" d="M 2059 -325 
Q 1816 -950 1584 -1140 
Q 1353 -1331 966 -1331 
L 506 -1331 
L 506 -850 
L 844 -850 
Q 1081 -850 1212 -737 
Q 1344 -625 1503 -206 
L 1606 56 
L 191 3500 
L 800 3500 
L 1894 763 
L 2988 3500 
L 3597 3500 
L 2059 -325 
z
" transform="scale(0.015625)"/>
      <path id="DejaVuSans-20" transform="scale(0.015625)"/>
      <path id="DejaVuSans-61" d="M 2194 1759 
Q 1497 1759 1228 1600 
Q 959 1441 959 1056 
Q 959 750 1161 570 
Q 1363 391 1709 391 
Q 2188 391 2477 730 
Q 2766 1069 2766 1631 
L 2766 1759 
L 2194 1759 
z
M 3341 1997 
L 3341 0 
L 2766 0 
L 2766 531 
Q 2569 213 2275 61 
Q 1981 -91 1556 -91 
Q 1019 -91 701 211 
Q 384 513 384 1019 
Q 384 1609 779 1909 
Q 1175 2209 1959 2209 
L 2766 2209 
L 2766 2266 
Q 2766 2663 2505 2880 
Q 2244 3097 1772 3097 
Q 1472 3097 1187 3025 
Q 903 2953 641 2809 
L 641 3341 
Q 956 3463 1253 3523 
Q 1550 3584 1831 3584 
Q 2591 3584 2966 3190 
Q 3341 2797 3341 1997 
z
" transform="scale(0.015625)"/>
      <path id="DejaVuSans-70" d="M 1159 525 
L 1159 -1331 
L 581 -1331 
L 581 3500 
L 1159 3500 
L 1159 2969 
Q 1341 3281 1617 3432 
Q 1894 3584 2278 3584 
Q 2916 3584 3314 3078 
Q 3713 2572 3713 1747 
Q 3713 922 3314 415 
Q 2916 -91 2278 -91 
Q 1894 -91 1617 61 
Q 1341 213 1159 525 
z
M 3116 1747 
Q 3116 2381 2855 2742 
Q 2594 3103 2138 3103 
Q 1681 3103 1420 2742 
Q 1159 2381 1159 1747 
Q 1159 1113 1420 752 
Q 1681 391 2138 391 
Q 2594 391 2855 752 
Q 3116 1113 3116 1747 
z
" transform="scale(0.015625)"/>
      <path id="DejaVuSans-68" d="M 3513 2113 
L 3513 0 
L 2938 0 
L 2938 2094 
Q 2938 2591 2744 2837 
Q 2550 3084 2163 3084 
Q 1697 3084 1428 2787 
Q 1159 2491 1159 1978 
L 1159 0 
L 581 0 
L 581 4863 
L 1159 4863 
L 1159 2956 
Q 1366 3272 1645 3428 
Q 1925 3584 2291 3584 
Q 2894 3584 3203 3211 
Q 3513 2838 3513 2113 
z
" transform="scale(0.015625)"/>
      <path id="DejaVuSans-6f" d="M 1959 3097 
Q 1497 3097 1228 2736 
Q 959 2375 959 1747 
Q 959 1119 1226 758 
Q 1494 397 1959 397 
Q 2419 397 2687 759 
Q 2956 1122 2956 1747 
Q 2956 2369 2687 2733 
Q 2419 3097 1959 3097 
z
M 1959 3584 
Q 2709 3584 3137 3096 
Q 3566 2609 3566 1747 
Q 3566 888 3137 398 
Q 2709 -91 1959 -91 
Q 1206 -91 779 398 
Q 353 888 353 1747 
Q 353 2609 779 3096 
Q 1206 3584 1959 3584 
z
" transform="scale(0.015625)"/>
      <path id="DejaVuSans-64" d="M 2906 2969 
L 2906 4863 
L 3481 4863 
L 3481 0 
L 2906 0 
L 2906 525 
Q 2725 213 2448 61 
Q 2172 -91 1784 -91 
Q 1150 -91 751 415 
Q 353 922 353 1747 
Q 353 2572 751 3078 
Q 1150 3584 1784 3584 
Q 2172 3584 2448 3432 
Q 2725 3281 2906 2969 
z
M 947 1747 
Q 947 1113 1208 752 
Q 1469 391 1925 391 
Q 2381 391 2643 752 
Q 2906 1113 2906 1747 
Q 2906 2381 2643 2742 
Q 2381 3103 1925 3103 
Q 1469 3103 1208 2742 
Q 947 2381 947 1747 
z
" transform="scale(0.015625)"/>
      <path id="DejaVuSans-72" d="M 2631 2963 
Q 2534 3019 2420 3045 
Q 2306 3072 2169 3072 
Q 1681 3072 1420 2755 
Q 1159 2438 1159 1844 
L 1159 0 
L 581 0 
L 581 3500 
L 1159 3500 
L 1159 2956 
Q 1341 3275 1631 3429 
Q 1922 3584 2338 3584 
Q 2397 3584 2469 3576 
Q 2541 3569 2628 3553 
L 2631 2963 
z
" transform="scale(0.015625)"/>
      <path id="DejaVuSans-66" d="M 2375 4863 
L 2375 4384 
L 1825 4384 
Q 1516 4384 1395 4259 
Q 1275 4134 1275 3809 
L 1275 3500 
L 2222 3500 
L 2222 3053 
L 1275 3053 
L 1275 0 
L 697 0 
L 697 3053 
L 147 3053 
L 147 3500 
L 697 3500 
L 697 3744 
Q 697 4328 969 4595 
Q 1241 4863 1831 4863 
L 2375 4863 
z
" transform="scale(0.015625)"/>
      <path id="DejaVuSans-5f" d="M 3263 -1063 
L 3263 -1509 
L -63 -1509 
L -63 -1063 
L 3263 -1063 
z
" transform="scale(0.015625)"/>
      <path id="DejaVuSans-75" d="M 544 1381 
L 544 3500 
L 1119 3500 
L 1119 1403 
Q 1119 906 1312 657 
Q 1506 409 1894 409 
Q 2359 409 2629 706 
Q 2900 1003 2900 1516 
L 2900 3500 
L 3475 3500 
L 3475 0 
L 2900 0 
L 2900 538 
Q 2691 219 2414 64 
Q 2138 -91 1772 -91 
Q 1169 -91 856 284 
Q 544 659 544 1381 
z
M 1991 3584 
L 1991 3584 
z
" transform="scale(0.015625)"/>
     </defs>
     <use xlink:href="#DejaVuSans-44"/>
     <use xlink:href="#DejaVuSans-65" x="77.001953"/>
     <use xlink:href="#DejaVuSans-6e" x="138.525391"/>
     <use xlink:href="#DejaVuSans-73" x="201.904297"/>
     <use xlink:href="#DejaVuSans-69" x="254.003906"/>
     <use xlink:href="#DejaVuSans-74" x="281.787109"/>
     <use xlink:href="#DejaVuSans-79" x="320.996094"/>
     <use xlink:href="#DejaVuSans-20" x="380.175781"/>
     <use xlink:href="#DejaVuSans-73" x="411.962891"/>
     <use xlink:href="#DejaVuSans-6e" x="464.0625"/>
     <use xlink:href="#DejaVuSans-61" x="527.441406"/>
     <use xlink:href="#DejaVuSans-70" x="588.720703"/>
     <use xlink:href="#DejaVuSans-73" x="652.197266"/>
     <use xlink:href="#DejaVuSans-68" x="704.296875"/>
     <use xlink:href="#DejaVuSans-6f" x="767.675781"/>
     <use xlink:href="#DejaVuSans-74" x="828.857422"/>
     <use xlink:href="#DejaVuSans-73" x="868.066406"/>
     <use xlink:href="#DejaVuSans-20" x="920.166016"/>
     <use xlink:href="#DejaVuSans-20" x="951.953125"/>
     <use xlink:href="#DejaVuSans-64" x="983.740234"/>
     <use xlink:href="#DejaVuSans-72" x="1047.216797"/>
     <use xlink:href="#DejaVuSans-69" x="1088.330078"/>
     <use xlink:href="#DejaVuSans-66" x="1116.113281"/>
     <use xlink:href="#DejaVuSans-74" x="1149.568359"/>
     <use xlink:href="#DejaVuSans-5f" x="1188.777344"/>
     <use xlink:href="#DejaVuSans-72" x="1238.777344"/>
     <use xlink:href="#DejaVuSans-75" x="1279.890625"/>
     <use xlink:href="#DejaVuSans-6e" x="1343.269531"/>
    </g>
   </g>
   <g id="legend_1">
    <g id="patch_7">
     <path d="M 613.196875 108.270625 
L 673.4 108.270625 
Q 675.4 108.270625 675.4 106.270625 
L 675.4 33.88 
Q 675.4 31.88 673.4 31.88 
L 613.196875 31.88 
Q 611.196875 31.88 611.196875 33.88 
L 611.196875 106.270625 
Q 611.196875 108.270625 613.196875 108.270625 
z
" style="fill: #ffffff; opacity: 0.8; stroke: #cccccc; stroke-linejoin: miter"/>
    </g>
    <g id="line2d_18">
     <path d="M 615.196875 39.978438 
L 625.196875 39.978438 
L 635.196875 39.978438 
" style="fill: none; stroke: #1f77b4; stroke-width: 1.5; stroke-linecap: square"/>
    </g>
    <g id="text_16">
     <!-- t=0.0 -->
     <g transform="translate(643.196875 43.478438) scale(0.1 -0.1)">
      <defs>
       <path id="DejaVuSans-3d" d="M 678 2906 
L 4684 2906 
L 4684 2381 
L 678 2381 
L 678 2906 
z
M 678 1631 
L 4684 1631 
L 4684 1100 
L 678 1100 
L 678 1631 
z
" transform="scale(0.015625)"/>
      </defs>
      <use xlink:href="#DejaVuSans-74"/>
      <use xlink:href="#DejaVuSans-3d" x="39.208984"/>
      <use xlink:href="#DejaVuSans-30" x="122.998047"/>
      <use xlink:href="#DejaVuSans-2e" x="186.621094"/>
      <use xlink:href="#DejaVuSans-30" x="218.408203"/>
     </g>
    </g>
    <g id="line2d_19">
     <path d="M 615.196875 54.656563 
L 625.196875 54.656563 
L 635.196875 54.656563 
" style="fill: none; stroke: #ff7f0e; stroke-width: 1.5; stroke-linecap: square"/>
    </g>
    <g id="text_17">
     <!-- t=1.2 -->
     <g transform="translate(643.196875 58.156563) scale(0.1 -0.1)">
      <use xlink:href="#DejaVuSans-74"/>
      <use xlink:href="#DejaVuSans-3d" x="39.208984"/>
      <use xlink:href="#DejaVuSans-31" x="122.998047"/>
      <use xlink:href="#DejaVuSans-2e" x="186.621094"/>
      <use xlink:href="#DejaVuSans-32" x="218.408203"/>
     </g>
    </g>
    <g id="line2d_20">
     <path d="M 615.196875 69.334688 
L 625.196875 69.334688 
L 635.196875 69.334688 
" style="fill: none; stroke: #2ca02c; stroke-width: 1.5; stroke-linecap: square"/>
    </g>
    <g id="text_18">
     <!-- t=2.5 -->
     <g transform="translate(643.196875 72.834688) scale(0.1 -0.1)">
      <defs>
       <path id="DejaVuSans-35" d="M 691 4666 
L 3169 4666 
L 3169 4134 
L 1269 4134 
L 1269 2991 
Q 1406 3038 1543 3061 
Q 1681 3084 1819 3084 
Q 2600 3084 3056 2656 
Q 3513 2228 3513 1497 
Q 3513 744 3044 326 
Q 2575 -91 1722 -91 
Q 1428 -91 1123 -41 
Q 819 9 494 109 
L 494 744 
Q 775 591 1075 516 
Q 1375 441 1709 441 
Q 2250 441 2565 725 
Q 2881 1009 2881 1497 
Q 2881 1984 2565 2268 
Q 2250 2553 1709 2553 
Q 1456 2553 1204 2497 
Q 953 2441 691 2322 
L 691 4666 
z
" transform="scale(0.015625)"/>
      </defs>
      <use xlink:href="#DejaVuSans-74"/>
      <use xlink:href="#DejaVuSans-3d" x="39.208984"/>
      <use xlink:href="#DejaVuSans-32" x="122.998047"/>
      <use xlink:href="#DejaVuSans-2e" x="186.621094"/>
      <use xlink:href="#DejaVuSans-35" x="218.408203"/>
     </g>
    </g>
    <g id="line2d_21">
     <path d="M 615.196875 84.012813 
L 625.196875 84.012813 
L 635.196875 84.012813 
" style="fill: none; stroke: #d62728; stroke-width: 1.5; stroke-linecap: square"/>
    </g>
    <g id="text_19">
     <!-- t=3.7 -->
     <g transform="translate(643.196875 87.512813) scale(0.1 -0.1)">
      <defs>
       <path id="DejaVuSans-33" d="M 2597 2516 
Q 3050 2419 3304 2112 
Q 3559 1806 3559 1356 
Q 3559 666 3084 287 
Q 2609 -91 1734 -91 
Q 1441 -91 1130 -33 
Q 819 25 488 141 
L 488 750 
Q 750 597 1062 519 
Q 1375 441 1716 441 
Q 2309 441 2620 675 
Q 2931 909 2931 1356 
Q 2931 1769 2642 2001 
Q 2353 2234 1838 2234 
L 1294 2234 
L 1294 2753 
L 1863 2753 
Q 2328 2753 2575 2939 
Q 2822 3125 2822 3475 
Q 2822 3834 2567 4026 
Q 2313 4219 1838 4219 
Q 1578 4219 1281 4162 
Q 984 4106 628 3988 
L 628 4550 
Q 988 4650 1302 4700 
Q 1616 4750 1894 4750 
Q 2613 4750 3031 4423 
Q 3450 4097 3450 3541 
Q 3450 3153 3228 2886 
Q 3006 2619 2597 2516 
z
" transform="scale(0.015625)"/>
       <path id="DejaVuSans-37" d="M 525 4666 
L 3525 4666 
L 3525 4397 
L 1831 0 
L 1172 0 
L 2766 4134 
L 525 4134 
L 525 4666 
z
" transform="scale(0.015625)"/>
      </defs>
      <use xlink:href="#DejaVuSans-74"/>
      <use xlink:href="#DejaVuSans-3d" x="39.208984"/>
      <use xlink:href="#DejaVuSans-33" x="122.998047"/>
      <use xlink:href="#DejaVuSans-2e" x="186.621094"/>
      <use xlink:href="#DejaVuSans-37" x="218.408203"/>
     </g>
    </g>
    <g id="line2d_22">
     <path d="M 615.196875 98.690938 
L 625.196875 98.690938 
L 635.196875 98.690938 
" style="fill: none; stroke: #9467bd; stroke-width: 1.5; stroke-linecap: square"/>
    </g>
    <g id="text_20">
     <!-- t=5.0 -->
     <g transform="translate(643.196875 102.190938) scale(0.1 -0.1)">
      <use xlink:href="#DejaVuSans-74"/>
      <use xlink:href="#DejaVuSans-3d" x="39.208984"/>
      <use xlink:href="#DejaVuSans-35" x="122.998047"/>
      <use xlink:href="#DejaVuSans-2e" x="186.621094"/>
      <use xlink:href="#DejaVuSans-30" x="218.408203"/>
     </g>
    </g>
   </g>
  </g>
 </g>
 <defs>
  <clipPath id="p7c6bc99ae9">
   <rect x="54.11" y="26.88" width="626.29" height="175.96"/>
  </clipPath>
 </defs>
</svg>
