<?xml version="1.0" encoding="utf-8" standalone="no"?>
<!DOCTYPE svg PUBLIC "-//W3C//DTD SVG 1.1//EN"
  "http://www.w3.org/Graphics/SVG/1.1/DTD/svg11.dtd">
<svg xmlns:xlink="http://www.w3.org/1999/xlink" width="720pt" height="864pt" viewBox="0 0 720 864" xmlns="http://www.w3.org/2000/svg" version="1.1">
 <metadata>
  <rdf:RDF xmlns:dc="http://purl.org/dc/elements/1.1/" xmlns:cc="http://creativecommons.org/ns#" xmlns:rdf="http://www.w3.org/1999/02/22-rdf-syntax-ns#">
   <cc:Work>
    <dc:type rdf:resource="http://purl.org/dc/dcmitype/StillImage"/>
    <dc:date>2025-09-21T15:28:29.564912</dc:date>
    <dc:format>image/svg+xml</dc:format>
    <dc:creator>
     <cc:Agent>
      <dc:title>Matplotlib v3.8.4, https://matplotlib.org/</dc:title>
     </cc:Agent>
    </dc:creator>
   </cc:Work>
  </rdf:RDF>
 </metadata>
 <defs>
  <style type="text/css">*{stroke-linejoin: round; stroke-linecap: butt}</style>
 </defs>
 <g id="figure_1">
  <g id="patch_1">
   <path d="M 0 864 
L 720 864 
L 720 0 
L 0 0 
z
" style="fill: #ffffff"/>
  </g>
  <g id="axes_1">
   <g id="patch_2">
    <path d="M 45.94399 830.64351 
L 716.99976 830.64351 
L 716.99976 20.94822 
L 45.94399 20.94822 
z
" style="fill: #ffffff"/>
   </g>
   <g id="matplotlib.axis_1">
    <g id="xtick_1">
     <g id="line2d_1">
      <defs>
       <path id="mf15e3214a0" d="M 0 0 
L 0 3.5 
" style="stroke: #000000; stroke-width: 0.8"/>
      </defs>
      <g>
       <use xlink:href="#mf15e3214a0" x="76.446525" y="830.64351" style="stroke: #000000; stroke-width: 0.8"/>
      </g>
     </g>
     <g id="text_1">
      <!-- 0 -->
      <g transform="translate(73.265275 845.241948) scale(0.1 -0.1)">
       <defs>
        <path id="DejaVuSans-30" d="M 2034 4250 
Q 1547 4250 1301 3770 
Q 1056 3291 1056 2328 
Q 1056 1369 1301 889 
Q 1547 409 2034 409 
Q 2525 409 2770 889 
Q 3016 1369 3016 2328 
Q 3016 3291 2770 3770 
Q 2525 4250 2034 4250 
z
M 2034 4750 
Q 2819 4750 3233 4129 
Q 3647 3509 3647 2328 
Q 3647 1150 3233 529 
Q 2819 -91 2034 -91 
Q 1250 -91 836 529 
Q 422 1150 422 2328 
Q 422 3509 836 4129 
Q 1250 4750 2034 4750 
z
" transform="scale(0.015625)"/>
       </defs>
       <use xlink:href="#DejaVuSans-30"/>
      </g>
     </g>
    </g>
    <g id="xtick_2">
     <g id="line2d_2">
      <g>
       <use xlink:href="#mf15e3214a0" x="198.575932" y="830.64351" style="stroke: #000000; stroke-width: 0.8"/>
      </g>
     </g>
     <g id="text_2">
      <!-- 2 -->
      <g transform="translate(195.394682 845.241948) scale(0.1 -0.1)">
       <defs>
        <path id="DejaVuSans-32" d="M 1228 531 
L 3431 531 
L 3431 0 
L 469 0 
L 469 531 
Q 828 903 1448 1529 
Q 2069 2156 2228 2338 
Q 2531 2678 2651 2914 
Q 2772 3150 2772 3378 
Q 2772 3750 2511 3984 
Q 2250 4219 1831 4219 
Q 1534 4219 1204 4116 
Q 875 4013 500 3803 
L 500 4441 
Q 881 4594 1212 4672 
Q 1544 4750 1819 4750 
Q 2544 4750 2975 4387 
Q 3406 4025 3406 3419 
Q 3406 3131 3298 2873 
Q 3191 2616 2906 2266 
Q 2828 2175 2409 1742 
Q 1991 1309 1228 531 
z
" transform="scale(0.015625)"/>
       </defs>
       <use xlink:href="#DejaVuSans-32"/>
      </g>
     </g>
    </g>
    <g id="xtick_3">
     <g id="line2d_3">
      <g>
       <use xlink:href="#mf15e3214a0" x="320.705339" y="830.64351" style="stroke: #000000; stroke-width: 0.8"/>
      </g>
     </g>
     <g id="text_3">
      <!-- 4 -->
      <g transform="translate(317.524089 845.241948) scale(0.1 -0.1)">
       <defs>
        <path id="DejaVuSans-34" d="M 2419 4116 
L 825 1625 
L 2419 1625 
L 2419 4116 
z
M 2253 4666 
L 3047 4666 
L 3047 1625 
L 3713 1625 
L 3713 1100 
L 3047 1100 
L 3047 0 
L 2419 0 
L 2419 1100 
L 313 1100 
L 313 1709 
L 2253 4666 
z
" transform="scale(0.015625)"/>
       </defs>
       <use xlink:href="#DejaVuSans-34"/>
      </g>
     </g>
    </g>
    <g id="xtick_4">
     <g id="line2d_4">
      <g>
       <use xlink:href="#mf15e3214a0" x="442.834746" y="830.64351" style="stroke: #000000; stroke-width: 0.8"/>
      </g>
     </g>
     <g id="text_4">
      <!-- 6 -->
      <g transform="translate(439.653496 845.241948) scale(0.1 -0.1)">
       <defs>
        <path id="DejaVuSans-36" d="M 2113 2584 
Q 1688 2584 1439 2293 
Q 1191 2003 1191 1497 
Q 1191 994 1439 701 
Q 1688 409 2113 409 
Q 2538 409 2786 701 
Q 3034 994 3034 1497 
Q 3034 2003 2786 2293 
Q 2538 2584 2113 2584 
z
M 3366 4563 
L 3366 3988 
Q 3128 4100 2886 4159 
Q 2644 4219 2406 4219 
Q 1781 4219 1451 3797 
Q 1122 3375 1075 2522 
Q 1259 2794 1537 2939 
Q 1816 3084 2150 3084 
Q 2853 3084 3261 2657 
Q 3669 2231 3669 1497 
Q 3669 778 3244 343 
Q 2819 -91 2113 -91 
Q 1303 -91 875 529 
Q 447 1150 447 2328 
Q 447 3434 972 4092 
Q 1497 4750 2381 4750 
Q 2619 4750 2861 4703 
Q 3103 4656 3366 4563 
z
" transform="scale(0.015625)"/>
       </defs>
       <use xlink:href="#DejaVuSans-36"/>
      </g>
     </g>
    </g>
    <g id="xtick_5">
     <g id="line2d_5">
      <g>
       <use xlink:href="#mf15e3214a0" x="564.964153" y="830.64351" style="stroke: #000000; stroke-width: 0.8"/>
      </g>
     </g>
     <g id="text_5">
      <!-- 8 -->
      <g transform="translate(561.782903 845.241948) scale(0.1 -0.1)">
       <defs>
        <path id="DejaVuSans-38" d="M 2034 2216 
Q 1584 2216 1326 1975 
Q 1069 1734 1069 1313 
Q 1069 891 1326 650 
Q 1584 409 2034 409 
Q 2484 409 2743 651 
Q 3003 894 3003 1313 
Q 3003 1734 2745 1975 
Q 2488 2216 2034 2216 
z
M 1403 2484 
Q 997 2584 770 2862 
Q 544 3141 544 3541 
Q 544 4100 942 4425 
Q 1341 4750 2034 4750 
Q 2731 4750 3128 4425 
Q 3525 4100 3525 3541 
Q 3525 3141 3298 2862 
Q 3072 2584 2669 2484 
Q 3125 2378 3379 2068 
Q 3634 1759 3634 1313 
Q 3634 634 3220 271 
Q 2806 -91 2034 -91 
Q 1263 -91 848 271 
Q 434 634 434 1313 
Q 434 1759 690 2068 
Q 947 2378 1403 2484 
z
M 1172 3481 
Q 1172 3119 1398 2916 
Q 1625 2713 2034 2713 
Q 2441 2713 2670 2916 
Q 2900 3119 2900 3481 
Q 2900 3844 2670 4047 
Q 2441 4250 2034 4250 
Q 1625 4250 1398 4047 
Q 1172 3844 1172 3481 
z
" transform="scale(0.015625)"/>
       </defs>
       <use xlink:href="#DejaVuSans-38"/>
      </g>
     </g>
    </g>
    <g id="xtick_6">
     <g id="line2d_6">
      <g>
       <use xlink:href="#mf15e3214a0" x="687.09356" y="830.64351" style="stroke: #000000; stroke-width: 0.8"/>
      </g>
     </g>
     <g id="text_6">
      <!-- 10 -->
      <g transform="translate(680.73106 845.241948) scale(0.1 -0.1)">
       <defs>
        <path id="DejaVuSans-31" d="M 794 531 
L 1825 531 
L 1825 4091 
L 703 3866 
L 703 4441 
L 1819 4666 
L 2450 4666 
L 2450 531 
L 3481 531 
L 3481 0 
L 794 0 
L 794 531 
z
" transform="scale(0.015625)"/>
       </defs>
       <use xlink:href="#DejaVuSans-31"/>
       <use xlink:href="#DejaVuSans-30" x="63.623047"/>
      </g>
     </g>
    </g>
    <g id="text_7">
     <!-- x -->
     <g transform="translate(378.5125 858.920072) scale(0.1 -0.1)">
      <defs>
       <path id="DejaVuSans-78" d="M 3513 3500 
L 2247 1797 
L 3578 0 
L 2900 0 
L 1881 1375 
L 863 0 
L 184 0 
L 1544 1831 
L 300 3500 
L 978 3500 
L 1906 2253 
L 2834 3500 
L 3513 3500 
z
" transform="scale(0.015625)"/>
      </defs>
      <use xlink:href="#DejaVuSans-78"/>
     </g>
    </g>
   </g>
   <g id="matplotlib.axis_2">
    <g id="ytick_1">
     <g id="line2d_7">
      <defs>
       <path id="ma7b1b53b40" d="M 0 0 
L -3.5 0 
" style="stroke: #000000; stroke-width: 0.8"/>
      </defs>
      <g>
       <use xlink:href="#ma7b1b53b40" x="45.94399" y="724.034307" style="stroke: #000000; stroke-width: 0.8"/>
      </g>
     </g>
     <g id="text_8">
      <!-- 0.16 -->
      <g transform="translate(16.678365 727.833526) scale(0.1 -0.1)">
       <defs>
        <path id="DejaVuSans-2e" d="M 684 794 
L 1344 794 
L 1344 0 
L 684 0 
L 684 794 
z
" transform="scale(0.015625)"/>
       </defs>
       <use xlink:href="#DejaVuSans-30"/>
       <use xlink:href="#DejaVuSans-2e" x="63.623047"/>
       <use xlink:href="#DejaVuSans-31" x="95.410156"/>
       <use xlink:href="#DejaVuSans-36" x="159.033203"/>
      </g>
     </g>
    </g>
    <g id="ytick_2">
     <g id="line2d_8">
      <g>
       <use xlink:href="#ma7b1b53b40" x="45.94399" y="596.509657" style="stroke: #000000; stroke-width: 0.8"/>
      </g>
     </g>
     <g id="text_9">
      <!-- 0.18 -->
      <g transform="translate(16.678365 600.308876) scale(0.1 -0.1)">
       <use xlink:href="#DejaVuSans-30"/>
       <use xlink:href="#DejaVuSans-2e" x="63.623047"/>
       <use xlink:href="#DejaVuSans-31" x="95.410156"/>
       <use xlink:href="#DejaVuSans-38" x="159.033203"/>
      </g>
     </g>
    </g>
    <g id="ytick_3">
     <g id="line2d_9">
      <g>
       <use xlink:href="#ma7b1b53b40" x="45.94399" y="468.985008" style="stroke: #000000; stroke-width: 0.8"/>
      </g>
     </g>
     <g id="text_10">
      <!-- 0.20 -->
      <g transform="translate(16.678365 472.784226) scale(0.1 -0.1)">
       <use xlink:href="#DejaVuSans-30"/>
       <use xlink:href="#DejaVuSans-2e" x="63.623047"/>
       <use xlink:href="#DejaVuSans-32" x="95.410156"/>
       <use xlink:href="#DejaVuSans-30" x="159.033203"/>
      </g>
     </g>
    </g>
    <g id="ytick_4">
     <g id="line2d_10">
      <g>
       <use xlink:href="#ma7b1b53b40" x="45.94399" y="341.460358" style="stroke: #000000; stroke-width: 0.8"/>
      </g>
     </g>
     <g id="text_11">
      <!-- 0.22 -->
      <g transform="translate(16.678365 345.259576) scale(0.1 -0.1)">
       <use xlink:href="#DejaVuSans-30"/>
       <use xlink:href="#DejaVuSans-2e" x="63.623047"/>
       <use xlink:href="#DejaVuSans-32" x="95.410156"/>
       <use xlink:href="#DejaVuSans-32" x="159.033203"/>
      </g>
     </g>
    </g>
    <g id="ytick_5">
     <g id="line2d_11">
      <g>
       <use xlink:href="#ma7b1b53b40" x="45.94399" y="213.935708" style="stroke: #000000; stroke-width: 0.8"/>
      </g>
     </g>
     <g id="text_12">
      <!-- 0.24 -->
      <g transform="translate(16.678365 217.734927) scale(0.1 -0.1)">
       <use xlink:href="#DejaVuSans-30"/>
       <use xlink:href="#DejaVuSans-2e" x="63.623047"/>
       <use xlink:href="#DejaVuSans-32" x="95.410156"/>
       <use xlink:href="#DejaVuSans-34" x="159.033203"/>
      </g>
     </g>
    </g>
    <g id="ytick_6">
     <g id="line2d_12">
      <g>
       <use xlink:href="#ma7b1b53b40" x="45.94399" y="86.411058" style="stroke: #000000; stroke-width: 0.8"/>
      </g>
     </g>
     <g id="text_13">
      <!-- 0.26 -->
      <g transform="translate(16.678365 90.210277) scale(0.1 -0.1)">
       <use xlink:href="#DejaVuSans-30"/>
       <use xlink:href="#DejaVuSans-2e" x="63.623047"/>
       <use xlink:href="#DejaVuSans-32" x="95.410156"/>
       <use xlink:href="#DejaVuSans-36" x="159.033203"/>
      </g>
     </g>
    </g>
    <g id="text_14">
     <!-- m=9 -->
     <g transform="translate(10.598677 438.037271) rotate(-90) scale(0.1 -0.1)">
      <defs>
       <path id="DejaVuSans-6d" d="M 3328 2828 
Q 3544 3216 3844 3400 
Q 4144 3584 4550 3584 
Q 5097 3584 5394 3201 
Q 5691 2819 5691 2113 
L 5691 0 
L 5113 0 
L 5113 2094 
Q 5113 2597 4934 2840 
Q 4756 3084 4391 3084 
Q 3944 3084 3684 2787 
Q 3425 2491 3425 1978 
L 3425 0 
L 2847 0 
L 2847 2094 
Q 2847 2600 2669 2842 
Q 2491 3084 2119 3084 
Q 1678 3084 1418 2786 
Q 1159 2488 1159 1978 
L 1159 0 
L 581 0 
L 581 3500 
L 1159 3500 
L 1159 2956 
Q 1356 3278 1631 3431 
Q 1906 3584 2284 3584 
Q 2666 3584 2933 3390 
Q 3200 3197 3328 2828 
z
" transform="scale(0.015625)"/>
       <path id="DejaVuSans-3d" d="M 678 2906 
L 4684 2906 
L 4684 2381 
L 678 2381 
L 678 2906 
z
M 678 1631 
L 4684 1631 
L 4684 1100 
L 678 1100 
L 678 1631 
z
" transform="scale(0.015625)"/>
       <path id="DejaVuSans-39" d="M 703 97 
L 703 672 
Q 941 559 1184 500 
Q 1428 441 1663 441 
Q 2288 441 2617 861 
Q 2947 1281 2994 2138 
Q 2813 1869 2534 1725 
Q 2256 1581 1919 1581 
Q 1219 1581 811 2004 
Q 403 2428 403 3163 
Q 403 3881 828 4315 
Q 1253 4750 1959 4750 
Q 2769 4750 3195 4129 
Q 3622 3509 3622 2328 
Q 3622 1225 3098 567 
Q 2575 -91 1691 -91 
Q 1453 -91 1209 -44 
Q 966 3 703 97 
z
M 1959 2075 
Q 2384 2075 2632 2365 
Q 2881 2656 2881 3163 
Q 2881 3666 2632 3958 
Q 2384 4250 1959 4250 
Q 1534 4250 1286 3958 
Q 1038 3666 1038 3163 
Q 1038 2656 1286 2365 
Q 1534 2075 1959 2075 
z
" transform="scale(0.015625)"/>
      </defs>
      <use xlink:href="#DejaVuSans-6d"/>
      <use xlink:href="#DejaVuSans-3d" x="97.412109"/>
      <use xlink:href="#DejaVuSans-39" x="181.201172"/>
     </g>
    </g>
   </g>
   <g id="line2d_13">
    <path d="M 76.446525 341.460358 
L 77.04286 341.654759 
L 77.639195 342.237369 
L 78.23553 343.206413 
L 78.831865 344.558935 
L 79.4282 346.290812 
L 80.62087 350.870371 
L 81.81354 356.889281 
L 83.00621 364.274197 
L 84.19888 372.935125 
L 85.987885 388.084226 
L 87.77689 405.448699 
L 90.16223 431.218469 
L 94.336575 479.92628 
L 97.914585 520.663264 
L 100.299925 544.951353 
L 102.08893 560.803075 
L 103.2816 569.998121 
L 104.47427 577.962216 
L 105.66694 584.598307 
L 106.85961 589.825528 
L 108.05228 593.580179 
L 108.648615 594.890275 
L 109.24495 595.816506 
L 109.841285 596.356048 
L 110.43762 596.507257 
L 111.033955 596.26967 
L 111.63029 595.644014 
L 112.226625 594.632194 
L 112.82296 593.237296 
L 113.419295 591.463573 
L 114.611965 586.802421 
L 115.804635 580.705539 
L 116.997305 573.247224 
L 118.189975 564.518364 
L 119.97898 549.279403 
L 121.767985 531.841677 
L 124.153325 506.003459 
L 128.32767 457.26435 
L 131.90568 416.592376 
L 134.29102 392.391601 
L 136.080025 376.625652 
L 137.272695 367.496185 
L 138.465364 359.603467 
L 139.658034 353.043679 
L 140.850704 347.896759 
L 142.043374 344.225427 
L 142.639709 342.957807 
L 143.236044 342.074424 
L 143.832379 341.57797 
L 144.428714 341.46996 
L 145.025049 341.750723 
L 145.621384 342.419402 
L 146.217719 343.47396 
L 146.814054 344.911181 
L 147.410389 346.726683 
L 148.603059 351.469252 
L 149.795729 357.643876 
L 150.988399 365.17531 
L 152.181069 373.971774 
L 153.970074 389.30002 
L 155.759079 406.810344 
L 158.144419 432.716036 
L 162.318764 481.484609 
L 165.300439 515.609677 
L 167.685779 540.483179 
L 169.474784 556.918424 
L 171.263789 570.945718 
L 172.456459 578.766762 
L 173.649129 585.25 
L 174.841799 590.316425 
L 176.034469 593.904299 
L 176.630804 595.129396 
L 177.227139 595.969898 
L 177.823474 596.423245 
L 178.419809 596.488052 
L 179.016144 596.164124 
L 179.612479 595.452447 
L 180.208814 594.355191 
L 180.805149 592.875701 
L 181.401484 591.018489 
L 182.594154 586.19468 
L 183.786824 579.942546 
L 184.979494 572.338278 
L 186.172164 563.47454 
L 187.961169 548.057586 
L 189.750174 530.475324 
L 192.135514 504.503133 
L 196.906194 448.726678 
L 199.887869 415.169571 
L 202.273209 391.146154 
L 204.062214 375.553528 
L 205.254884 366.556248 
L 206.447554 358.807172 
L 207.640224 352.400729 
L 208.832894 347.414989 
L 210.025564 343.910708 
L 210.621899 342.728181 
L 211.218234 341.930591 
L 211.814569 341.520369 
L 212.410904 341.498766 
L 213.007239 341.865848 
L 213.603574 342.620496 
L 214.199909 343.760409 
L 214.796244 345.282112 
L 215.392579 347.180965 
L 216.585249 352.085831 
L 217.777919 358.415239 
L 218.970589 366.092056 
L 220.163259 375.022733 
L 221.952264 390.527814 
L 223.741269 408.181353 
L 226.126609 434.219065 
L 230.897289 490.015495 
L 233.878964 523.508821 
L 235.667969 541.773622 
L 237.456974 558.045194 
L 239.245979 571.877959 
L 240.438649 579.554776 
L 241.631319 585.884184 
L 242.823989 590.789051 
L 243.420324 592.687903 
L 244.016659 594.209606 
L 244.612994 595.349519 
L 245.209329 596.104167 
L 245.805664 596.471249 
L 246.401999 596.449646 
L 246.998334 596.039424 
L 247.594669 595.241834 
L 248.191004 594.059307 
L 248.787339 592.495448 
L 249.980009 588.243957 
L 251.172679 582.539169 
L 252.365349 575.450603 
L 253.558019 567.064641 
L 255.347024 552.280646 
L 257.136029 535.215698 
L 259.521368 509.729392 
L 263.099378 468.202531 
L 267.273723 420.183437 
L 269.659063 395.55527 
L 271.448068 379.366455 
L 273.237073 365.631737 
L 274.429743 358.027469 
L 275.622413 351.775335 
L 276.815083 346.951526 
L 277.411418 345.094314 
L 278.007753 343.614825 
L 278.604088 342.517569 
L 279.200423 341.805891 
L 279.796758 341.481963 
L 280.393093 341.54677 
L 280.989428 342.000117 
L 281.585763 342.84062 
L 282.182098 344.065716 
L 282.778433 345.671672 
L 283.971103 350.005428 
L 285.163773 355.789076 
L 286.356443 362.952136 
L 287.549113 371.40732 
L 289.338118 386.283436 
L 291.127123 403.424235 
L 293.512463 428.982853 
L 297.090473 470.549931 
L 301.264818 518.508574 
L 303.650158 543.053104 
L 305.439163 559.158552 
L 307.228168 572.794705 
L 308.420838 580.326139 
L 309.613508 586.500763 
L 310.806178 591.243332 
L 311.402513 593.058834 
L 311.998848 594.496055 
L 312.595183 595.550613 
L 313.191518 596.219292 
L 313.787853 596.500055 
L 314.384188 596.392045 
L 314.980523 595.895591 
L 315.576858 595.012208 
L 316.173193 593.744588 
L 316.769528 592.096596 
L 317.962198 587.680738 
L 319.154868 581.818448 
L 320.347538 574.581162 
L 321.540208 566.057075 
L 323.329213 551.0894 
L 325.118218 533.873393 
L 327.503558 508.243425 
L 331.081568 466.637696 
L 334.659578 425.28732 
L 337.044918 400.09983 
L 338.833923 383.344687 
L 340.622928 368.934702 
L 341.815598 360.828758 
L 343.008268 354.040811 
L 344.200938 348.653582 
L 345.393608 344.732719 
L 345.989943 343.337821 
L 346.586278 342.326002 
L 347.182613 341.700345 
L 347.778948 341.462758 
L 348.375283 341.613967 
L 348.971618 342.153509 
L 349.567953 343.07974 
L 350.164288 344.389836 
L 350.760623 346.079802 
L 351.953293 350.577595 
L 353.145963 356.518307 
L 354.338633 363.829545 
L 355.531303 372.422215 
L 357.320308 387.480887 
L 359.109313 404.771451 
L 361.494653 430.471805 
L 365.072663 472.114619 
L 368.650673 513.416978 
L 371.036013 538.527386 
L 372.825018 555.203493 
L 374.614023 569.51861 
L 375.806693 577.55378 
L 376.999363 584.265926 
L 378.192033 589.573251 
L 379.384703 593.41108 
L 379.981038 594.763602 
L 380.577373 595.732646 
L 381.173708 596.315256 
L 381.770042 596.509657 
L 382.366377 596.315256 
L 382.962712 595.732646 
L 383.559047 594.763602 
L 384.155382 593.41108 
L 384.751717 591.679203 
L 385.944387 587.099644 
L 387.137057 581.080734 
L 388.329727 573.695818 
L 389.522397 565.03489 
L 391.311402 549.885789 
L 393.100407 532.521316 
L 395.485747 506.751546 
L 399.660092 458.043735 
L 403.238102 417.306751 
L 405.623442 393.018662 
L 407.412447 377.16694 
L 408.605117 367.971894 
L 409.797787 360.007799 
L 410.990457 353.371708 
L 412.183127 348.144487 
L 413.375797 344.389836 
L 413.972132 343.07974 
L 414.568467 342.153509 
L 415.164802 341.613967 
L 415.761137 341.462758 
L 416.357472 341.700345 
L 416.953807 342.326002 
L 417.550142 343.337821 
L 418.146477 344.732719 
L 418.742812 346.506442 
L 419.935482 351.167594 
L 421.128152 357.264476 
L 422.320822 364.722791 
L 423.513492 373.451651 
L 425.302497 388.690612 
L 427.091502 406.128338 
L 429.476842 431.966556 
L 433.651187 480.705665 
L 437.229197 521.377639 
L 439.614537 545.578414 
L 441.403542 561.344363 
L 442.596212 570.47383 
L 443.788882 578.366548 
L 444.981552 584.926336 
L 446.174222 590.073256 
L 447.366892 593.744588 
L 447.963227 595.012208 
L 448.559562 595.895591 
L 449.155897 596.392045 
L 449.752232 596.500055 
L 450.348567 596.219292 
L 450.944902 595.550613 
L 451.541237 594.496055 
L 452.137572 593.058834 
L 452.733907 591.243332 
L 453.926577 586.500763 
L 455.119247 580.326139 
L 456.311917 572.794705 
L 457.504587 563.998241 
L 459.293592 548.669995 
L 461.082597 531.159671 
L 463.467937 505.253979 
L 467.642282 456.485406 
L 470.623957 422.360338 
L 473.009297 397.486836 
L 474.798302 381.051591 
L 476.587307 367.024297 
L 477.779977 359.203253 
L 478.972647 352.720015 
L 480.165317 347.65359 
L 481.357987 344.065716 
L 481.954322 342.84062 
L 482.550657 342.000117 
L 483.146992 341.54677 
L 483.743327 341.481963 
L 484.339662 341.805891 
L 484.935997 342.517569 
L 485.532332 343.614825 
L 486.128667 345.094314 
L 486.725002 346.951526 
L 487.917672 351.775335 
L 489.110342 358.027469 
L 490.303012 365.631737 
L 491.495682 374.495475 
L 493.284687 389.912429 
L 495.073692 407.494691 
L 497.459032 433.466882 
L 502.229712 489.243337 
L 505.211386 522.800444 
L 507.596726 546.823861 
L 509.385731 562.416487 
L 510.578401 571.413767 
L 511.771071 579.162843 
L 512.963741 585.569286 
L 514.156411 590.555026 
L 515.349081 594.059307 
L 515.945416 595.241834 
L 516.541751 596.039424 
L 517.138086 596.449646 
L 517.734421 596.471249 
L 518.330756 596.104167 
L 518.927091 595.349519 
L 519.523426 594.209606 
L 520.119761 592.687903 
L 520.716096 590.789051 
L 521.908766 585.884184 
L 523.101436 579.554776 
L 524.294106 571.877959 
L 525.486776 562.947282 
L 527.275781 547.442201 
L 529.064786 529.788662 
L 531.450126 503.75095 
L 536.220806 447.95452 
L 539.202481 414.461194 
L 540.991486 396.196393 
L 542.780491 379.924821 
L 544.569496 366.092056 
L 545.762166 358.415239 
L 546.954836 352.085831 
L 548.147506 347.180965 
L 548.743841 345.282112 
L 549.340176 343.760409 
L 549.936511 342.620496 
L 550.532846 341.865848 
L 551.129181 341.498766 
L 551.725516 341.520369 
L 552.321851 341.930591 
L 552.918186 342.728181 
L 553.514521 343.910708 
L 554.110856 345.474567 
L 555.303526 349.726058 
L 556.496196 355.430846 
L 557.688866 362.519412 
L 558.881536 370.905374 
L 560.670541 385.689369 
L 562.459546 402.754317 
L 564.844886 428.240623 
L 568.422896 469.767484 
L 572.597241 517.786578 
L 574.982581 542.414745 
L 576.771586 558.60356 
L 578.560591 572.338278 
L 579.753261 579.942546 
L 580.945931 586.19468 
L 582.138601 591.018489 
L 582.734936 592.875701 
L 583.331271 594.355191 
L 583.927606 595.452447 
L 584.523941 596.164124 
L 585.120276 596.488052 
L 585.716611 596.423245 
L 586.312946 595.969898 
L 586.909281 595.129396 
L 587.505616 593.904299 
L 588.101951 592.298343 
L 589.294621 587.964587 
L 590.487291 582.180939 
L 591.679961 575.017879 
L 592.872631 566.562695 
L 594.661636 551.686579 
L 596.450641 534.54578 
L 598.835981 508.987162 
L 602.413991 467.420084 
L 606.588336 419.461441 
L 608.973676 394.916911 
L 610.762681 378.811463 
L 612.551686 365.17531 
L 613.744356 357.643876 
L 614.937026 351.469252 
L 616.129696 346.726683 
L 616.726031 344.911181 
L 617.322366 343.47396 
L 617.918701 342.419402 
L 618.515036 341.750723 
L 619.111371 341.46996 
L 619.707706 341.57797 
L 620.304041 342.074424 
L 620.900376 342.957807 
L 621.496711 344.225427 
L 622.093046 345.873419 
L 623.285716 350.289277 
L 624.478386 356.151567 
L 625.671055 363.388853 
L 626.863725 371.91294 
L 628.65273 386.880615 
L 630.441735 404.096622 
L 632.827075 429.72659 
L 636.405085 471.332319 
L 639.983095 512.682695 
L 642.368435 537.870185 
L 644.15744 554.625328 
L 645.946445 569.035313 
L 647.139115 577.141257 
L 648.331785 583.929204 
L 649.524455 589.316433 
L 650.717125 593.237296 
L 651.31346 594.632194 
L 651.909795 595.644014 
L 652.50613 596.26967 
L 653.102465 596.507257 
L 653.6988 596.356048 
L 654.295135 595.816506 
L 654.89147 594.890275 
L 655.487805 593.580179 
L 656.08414 591.890213 
L 657.27681 587.39242 
L 658.46948 581.451708 
L 659.66215 574.14047 
L 660.85482 565.5478 
L 662.643825 550.489129 
L 664.43283 533.198564 
L 666.81817 507.49821 
L 670.39618 465.855396 
L 673.97419 424.553037 
L 676.35953 399.442629 
L 678.148535 382.766522 
L 679.93754 368.451405 
L 681.13021 360.416235 
L 682.32288 353.70409 
L 683.51555 348.396765 
L 684.70822 344.558935 
L 685.304555 343.206413 
L 685.90089 342.237369 
L 686.497225 341.654759 
L 686.497225 341.654759 
" clip-path="url(#pdf7562dd75)" style="fill: none; stroke: #1f77b4; stroke-width: 1.5; stroke-linecap: square"/>
   </g>
   <g id="line2d_14">
    <path d="M 76.446525 471.584775 
L 80.024535 313.295593 
L 83.602545 154.955147 
L 84.795215 108.493381 
L 85.39155 88.716373 
L 85.987885 72.64736 
L 86.58422 61.783399 
L 87.180555 58.103203 
L 87.77689 64.072962 
L 88.373225 82.276019 
L 88.96956 114.551572 
L 89.565895 160.996599 
L 90.758565 286.191485 
L 92.54757 492.065146 
L 93.74024 604.910901 
L 94.93291 688.626245 
L 95.529245 719.937821 
L 96.12558 744.878262 
L 96.721915 764.028181 
L 97.31825 777.968367 
L 97.914585 787.250817 
L 98.51092 792.384689 
L 99.107255 793.831004 
L 99.70359 792.002001 
L 100.299925 787.263648 
L 100.89626 779.93957 
L 101.492595 770.315042 
L 102.685265 745.140351 
L 103.877935 713.415162 
L 105.070605 676.448603 
L 106.85961 613.370519 
L 109.24495 518.944171 
L 112.226625 390.365407 
L 118.189975 128.072981 
L 119.382645 86.496284 
L 119.97898 70.896207 
L 120.575315 60.685107 
L 121.17165 57.897544 
L 121.767985 65.039263 
L 122.36432 84.664385 
L 122.960655 118.473717 
L 123.55699 166.340143 
L 124.74966 293.244807 
L 126.538665 498.506231 
L 127.731335 609.929951 
L 128.924005 692.159881 
L 129.52034 722.788346 
L 130.116675 747.102731 
L 130.71301 765.686782 
L 131.309345 779.119641 
L 131.90568 787.949461 
L 132.502015 792.680622 
L 133.09835 793.769037 
L 133.694685 791.622008 
L 134.29102 786.600965 
L 134.887355 779.025337 
L 135.48369 769.176701 
L 136.67636 743.623558 
L 137.869029 711.595641 
L 139.658034 654.165161 
L 141.447039 588.29463 
L 143.832379 491.333161 
L 147.410389 334.199356 
L 151.584734 149.481461 
L 152.777404 103.84072 
L 153.373739 84.778853 
L 153.970074 69.721936 
L 154.566409 60.264605 
L 155.162744 58.502199 
L 155.759079 66.977052 
L 156.355414 88.195616 
L 156.951749 123.688052 
L 157.548084 173.070527 
L 158.740754 301.662266 
L 160.529759 505.950168 
L 161.722429 615.664515 
L 162.915099 696.163489 
L 163.511434 726.010656 
L 164.107769 749.613515 
L 164.704104 767.556203 
L 165.300439 780.415005 
L 165.896774 788.733196 
L 166.493109 793.0095 
L 167.089444 793.694031 
L 167.685779 791.188426 
L 168.282114 785.848916 
L 168.878449 777.990241 
L 169.474784 767.889736 
L 170.667454 741.912074 
L 171.860124 709.545602 
L 173.649129 651.72926 
L 175.438134 585.581164 
L 177.823474 488.369574 
L 181.401484 331.049645 
L 185.575829 146.579805 
L 186.768499 101.353254 
L 187.364834 82.649641 
L 187.961169 68.098082 
L 188.557504 59.342002 
L 189.153839 58.532381 
L 189.750174 68.240822 
L 190.346509 90.922187 
L 190.942844 127.944361 
L 191.539179 178.691026 
L 192.731849 308.787799 
L 194.520854 512.251098 
L 195.713524 620.514909 
L 196.906194 699.540799 
L 197.502529 728.716916 
L 198.098864 751.707036 
L 198.695199 769.097122 
L 199.291534 781.461123 
L 199.887869 789.338213 
L 200.484204 793.222208 
L 201.080539 793.558105 
L 201.676874 790.742715 
L 202.273209 785.127779 
L 202.869544 777.023951 
L 203.465879 766.704992 
L 204.658549 740.358241 
L 205.851219 707.696372 
L 207.640224 649.541789 
L 209.429229 583.148991 
L 211.814569 485.715576 
L 215.392579 328.232239 
L 219.566924 144.069591 
L 220.759594 99.325358 
L 221.355929 81.037594 
L 221.952264 67.071009 
L 222.548599 59.123826 
L 223.144934 59.4066 
L 223.741269 70.514272 
L 224.337604 94.82799 
L 224.933939 133.519566 
L 225.530274 185.70983 
L 226.722944 317.259836 
L 228.511949 519.522779 
L 229.704619 626.050481 
L 230.897289 703.364964 
L 231.493624 731.775006 
L 232.089959 754.069297 
L 232.686294 770.833311 
L 233.282629 782.637593 
L 233.878964 790.016167 
L 234.475299 793.457132 
L 235.071634 793.399692 
L 235.667969 790.235066 
L 236.264304 784.309925 
L 236.860639 775.930324 
L 238.053309 752.854346 
L 239.245979 722.803643 
L 240.438649 687.179054 
L 242.227654 625.637267 
L 244.612994 532.610386 
L 247.594669 405.043302 
L 254.154354 117.967263 
L 255.347024 79.006464 
L 255.943359 65.584081 
L 256.539694 58.389416 
L 257.136029 59.68682 
L 257.732364 72.087309 
L 258.328699 97.896383 
L 258.925034 138.101772 
L 259.521368 191.588415 
L 260.714038 324.434486 
L 262.503043 525.676953 
L 263.695713 630.732308 
L 264.888383 706.588441 
L 265.484718 734.339919 
L 266.081053 756.034868 
L 266.677388 772.259413 
L 267.273723 783.581218 
L 267.870058 790.529974 
L 268.466393 793.588771 
L 269.062728 793.191735 
L 269.659063 789.725331 
L 270.255398 783.531828 
L 270.851733 774.913299 
L 272.044403 751.434279 
L 273.237073 721.061628 
L 274.429743 685.178657 
L 276.218748 623.340452 
L 278.604088 530.042344 
L 281.585763 402.277337 
L 288.145448 115.705947 
L 289.338118 77.508087 
L 289.934453 64.715216 
L 290.530788 58.387676 
L 291.127123 60.846136 
L 291.723458 74.708432 
L 292.319793 102.178846 
L 292.916128 144.026472 
L 294.108798 263.332786 
L 296.494138 532.769557 
L 297.686808 636.06958 
L 298.879478 710.236417 
L 299.475813 737.237261 
L 300.072148 758.25205 
L 300.668483 773.865648 
L 301.264818 784.641814 
L 301.861153 791.104888 
L 302.457488 793.732199 
L 303.053823 792.952093 
L 303.650158 789.14555 
L 304.246493 782.649875 
L 304.842828 773.762649 
L 306.035498 749.831168 
L 307.228168 719.098173 
L 308.420838 682.926954 
L 310.209843 620.759487 
L 312.595183 527.162337 
L 315.576858 399.181026 
L 321.540208 135.889557 
L 322.732878 92.615158 
L 323.329213 75.58274 
L 323.925548 63.375477 
L 324.521883 57.854539 
L 325.118218 61.390495 
L 325.714553 76.601177 
L 326.310888 105.59016 
L 326.907223 148.923566 
L 328.099893 270.233069 
L 330.485233 538.771314 
L 331.677903 640.583277 
L 332.870573 713.308636 
L 333.466908 739.663741 
L 334.063243 760.092616 
L 334.659578 775.179731 
L 335.255913 785.485535 
L 335.852248 791.529828 
L 336.448583 793.784864 
L 337.044918 792.673969 
L 337.641253 788.573443 
L 338.237588 781.816277 
L 338.833923 772.696176 
L 340.026593 748.3717 
L 341.219263 717.324602 
L 342.411933 680.901178 
L 344.200938 618.444311 
L 346.586278 524.582535 
L 349.567953 396.409334 
L 355.531303 133.455925 
L 356.723973 90.754128 
L 357.320308 74.206888 
L 357.916643 62.676556 
L 358.512978 58.083949 
L 359.109313 62.85022 
L 359.705648 79.580341 
L 360.301983 110.248535 
L 360.898318 155.183524 
L 362.090988 278.51923 
L 363.879993 485.010315 
L 365.072663 599.396267 
L 366.265333 684.729988 
L 366.861668 716.783756 
L 367.458003 742.403826 
L 368.054338 762.168138 
L 368.650673 776.659234 
L 369.247008 786.433215 
L 369.843343 792.00437 
L 370.439678 793.839179 
L 371.036013 792.355212 
L 371.632348 787.923396 
L 372.228683 780.871871 
L 372.825018 771.489951 
L 374.017688 746.724425 
L 375.210358 715.325877 
L 376.403028 678.621211 
L 378.192033 615.843004 
L 380.577373 521.689611 
L 383.559047 393.306829 
L 389.522397 130.657573 
L 390.715067 88.491179 
L 391.311402 72.395518 
L 391.907737 61.494927 
L 392.504072 57.765663 
L 393.100407 63.672537 
L 393.696742 81.801675 
L 394.293077 114.001324 
L 394.889412 160.382097 
L 396.082082 285.527535 
L 397.871087 491.518614 
L 399.063757 604.499506 
L 400.256427 688.342659 
L 400.852762 719.707469 
L 401.449097 744.694874 
L 402.045432 763.886657 
L 402.641767 777.864088 
L 403.238102 787.179585 
L 403.834437 792.342743 
L 404.430772 793.814917 
L 405.027107 792.00873 
L 405.623442 787.290515 
L 406.219777 779.984169 
L 406.816112 770.375266 
L 408.008782 745.226507 
L 409.201452 713.52149 
L 410.394122 676.570636 
L 412.183127 613.509879 
L 414.568467 519.098329 
L 417.550142 390.529651 
L 423.513492 128.2678 
L 424.706162 86.724017 
L 425.302497 71.151579 
L 425.898832 60.978369 
L 426.495167 58.241382 
L 427.091502 65.44745 
L 427.687837 85.14727 
L 428.284172 119.031914 
L 428.880507 166.960432 
L 430.073177 293.907909 
L 431.862182 499.045759 
L 433.054852 610.333656 
L 434.247522 692.437174 
L 434.843857 723.013187 
L 435.440192 747.281217 
L 436.036527 765.823938 
L 436.632862 779.220047 
L 437.229197 788.017257 
L 437.825532 792.719532 
L 438.421867 793.782449 
L 439.018202 791.612917 
L 439.614537 786.572019 
L 440.210872 778.97891 
L 440.807207 769.114865 
L 441.999877 743.536155 
L 443.192547 711.488344 
L 444.981552 654.035952 
L 446.770557 588.15036 
L 449.155897 491.17609 
L 452.733907 334.032712 
L 456.908252 149.294687 
L 458.100922 103.630732 
L 458.697257 84.548495 
L 459.293592 69.462912 
L 459.889927 59.966397 
L 460.486262 58.151876 
L 461.082597 66.560944 
L 461.678932 87.704142 
L 462.275267 123.122013 
L 462.871602 172.444703 
L 464.064272 301.000278 
L 465.853277 505.417671 
L 467.045947 615.268404 
L 468.238617 695.89235 
L 468.834952 725.791221 
L 469.431287 749.439842 
L 470.027622 767.423337 
L 470.623957 780.318411 
L 471.220292 788.66878 
L 471.816627 792.973581 
L 472.412962 793.683258 
L 473.009297 791.199848 
L 473.605632 785.879918 
L 474.201967 778.038481 
L 474.798302 767.953172 
L 475.990972 742.000724 
L 477.183642 709.653876 
L 478.972647 651.859149 
L 480.761652 585.725901 
L 483.146992 488.526926 
L 486.725002 331.216429 
L 490.899347 146.767439 
L 492.092017 101.565166 
L 492.688352 82.882751 
L 493.284687 68.360905 
L 493.881022 59.645333 
L 494.477357 58.889368 
L 495.073692 68.664972 
L 495.670027 91.422231 
L 496.266362 128.518027 
L 496.862697 179.322013 
L 498.055367 309.448275 
L 499.844372 512.776413 
L 501.037042 620.903426 
L 502.229712 699.805844 
L 502.826047 728.930991 
L 503.422382 751.875934 
L 504.018716 769.225734 
L 504.615051 781.553944 
L 505.211386 789.399281 
L 505.807721 793.255171 
L 506.404056 793.566269 
L 507.000391 790.72899 
L 507.596726 785.094748 
L 508.193061 776.973925 
L 508.789396 766.639977 
L 509.982066 740.268366 
L 511.174736 707.587144 
L 512.963741 649.411243 
L 514.752746 583.003804 
L 517.138086 485.557954 
L 520.716096 328.065325 
L 524.890441 143.881067 
L 526.083111 99.111451 
L 526.679446 80.801643 
L 527.275781 66.804269 
L 527.872116 58.815227 
L 528.468451 59.042797 
L 529.064786 70.081986 
L 529.661121 94.319428 
L 530.257456 132.938506 
L 530.853791 185.074058 
L 532.046461 316.601238 
L 533.835466 519.004754 
L 535.028136 625.66952 
L 536.220806 703.105931 
L 536.817141 731.566222 
L 537.413476 753.905119 
L 538.009811 770.708894 
L 538.606146 782.548494 
L 539.202481 789.958397 
L 539.798816 793.42708 
L 540.395151 793.394093 
L 540.991486 790.251055 
L 541.587821 784.344946 
L 542.184156 775.982103 
L 543.376826 752.93394 
L 544.569496 722.904849 
L 545.762166 687.297093 
L 547.551171 625.773878 
L 549.936511 532.762899 
L 552.918186 405.20679 
L 559.477871 118.167345 
L 560.670541 79.245355 
L 561.266876 65.854873 
L 561.863211 58.703457 
L 562.459546 60.057626 
L 563.055881 72.527862 
L 563.652216 98.413468 
L 564.248551 138.690065 
L 564.844886 192.228694 
L 566.037556 325.09097 
L 567.826561 526.187679 
L 569.019231 631.105826 
L 570.211901 706.841591 
L 570.808236 734.543508 
L 571.404571 756.194413 
L 572.000906 772.379704 
L 572.597241 783.666657 
L 573.193576 790.584497 
L 573.789911 793.615956 
L 574.386246 793.1948 
L 574.982581 789.707107 
L 575.578916 783.494834 
L 576.175251 774.859783 
L 577.367921 751.353332 
L 578.560591 720.959362 
L 579.753261 685.05979 
L 581.542266 623.203268 
L 583.927606 529.889483 
L 586.909281 402.113681 
L 593.468966 115.504377 
L 594.661636 77.266123 
L 595.257971 64.440214 
L 595.854306 58.068009 
L 596.450641 60.468157 
L 597.046976 74.259524 
L 597.643311 101.653322 
L 598.239646 143.431218 
L 599.432316 262.66859 
L 601.817656 532.266253 
L 603.010326 635.703483 
L 604.202996 709.989093 
L 604.799331 737.038825 
L 605.395666 758.097102 
L 605.992001 773.749444 
L 606.588336 784.560004 
L 607.184671 791.053577 
L 607.781006 793.707851 
L 608.377341 792.951529 
L 608.973676 789.165987 
L 609.570011 782.688811 
L 610.166346 773.817882 
L 611.359016 749.913448 
L 612.551686 719.201479 
L 613.744356 683.046635 
L 615.533361 620.897227 
L 617.918701 527.315534 
L 620.900376 399.344837 
L 626.863725 136.08101 
L 628.056395 92.835566 
L 628.65273 75.827879 
L 629.249065 63.654816 
L 629.8454 58.17998 
L 630.441735 61.775785 
L 631.03807 77.058484 
L 631.634405 106.124003 
L 632.23074 149.525478 
L 633.42341 270.897504 
L 635.80875 539.267097 
L 637.00142 640.941999 
L 638.19409 713.550204 
L 638.790425 739.857083 
L 639.38676 760.243022 
L 639.983095 775.291901 
L 640.57943 785.56377 
L 641.175765 791.577972 
L 641.7721 793.806422 
L 642.368435 792.67207 
L 642.96477 788.55084 
L 643.561105 781.775431 
L 644.15744 772.639267 
L 645.35011 748.288121 
L 646.54278 717.220286 
L 647.73545 680.780719 
L 649.524455 618.306039 
L 651.909795 524.429032 
L 654.89147 396.245397 
L 660.85482 133.26342 
L 662.04749 90.531388 
L 662.643825 73.95847 
L 663.24016 62.392736 
L 663.836495 57.752551 
L 664.43283 62.457439 
L 665.029165 79.114533 
L 665.6255 109.706416 
L 666.221835 154.575151 
L 667.414505 277.854826 
L 669.20351 484.456918 
L 670.39618 598.977174 
L 671.58885 684.440031 
L 672.185185 716.547819 
L 672.78152 742.215479 
L 673.377855 762.022191 
L 673.97419 776.551026 
L 674.570525 786.358498 
L 675.16686 791.95934 
L 675.763195 793.820372 
L 676.35953 792.359538 
L 676.955865 787.948146 
L 677.5522 780.914604 
L 678.148535 771.54853 
L 679.341205 746.809303 
L 680.533875 715.431208 
L 681.726545 678.742465 
L 683.51555 615.981828 
L 685.90089 521.843449 
L 686.497225 496.930022 
L 686.497225 496.930022 
" clip-path="url(#pdf7562dd75)" style="fill: none; stroke: #ff7f0e; stroke-width: 1.5; stroke-linecap: square"/>
   </g>
   <g id="patch_3">
    <path d="M 45.94399 830.64351 
L 45.94399 20.94822 
" style="fill: none; stroke: #000000; stroke-width: 0.8; stroke-linejoin: miter; stroke-linecap: square"/>
   </g>
   <g id="patch_4">
    <path d="M 716.99976 830.64351 
L 716.99976 20.94822 
" style="fill: none; stroke: #000000; stroke-width: 0.8; stroke-linejoin: miter; stroke-linecap: square"/>
   </g>
   <g id="patch_5">
    <path d="M 45.94399 830.64351 
L 716.99976 830.64351 
" style="fill: none; stroke: #000000; stroke-width: 0.8; stroke-linejoin: miter; stroke-linecap: square"/>
   </g>
   <g id="patch_6">
    <path d="M 45.94399 20.94822 
L 716.99976 20.94822 
" style="fill: none; stroke: #000000; stroke-width: 0.8; stroke-linejoin: miter; stroke-linecap: square"/>
   </g>
   <g id="legend_1">
    <g id="patch_7">
     <path d="M 663.23726 50.83322 
L 711.39976 50.83322 
Q 712.99976 50.83322 712.99976 49.23322 
L 712.99976 26.54822 
Q 712.99976 24.94822 711.39976 24.94822 
L 663.23726 24.94822 
Q 661.63726 24.94822 661.63726 26.54822 
L 661.63726 49.23322 
Q 661.63726 50.83322 663.23726 50.83322 
z
" style="fill: #ffffff; opacity: 0.8; stroke: #cccccc; stroke-linejoin: miter"/>
    </g>
    <g id="line2d_15">
     <path d="M 664.83726 31.42697 
L 672.83726 31.42697 
L 680.83726 31.42697 
" style="fill: none; stroke: #1f77b4; stroke-width: 1.5; stroke-linecap: square"/>
    </g>
    <g id="text_15">
     <!-- t=0.0 -->
     <g transform="translate(687.23726 34.22697) scale(0.08 -0.08)">
      <defs>
       <path id="DejaVuSans-74" d="M 1172 4494 
L 1172 3500 
L 2356 3500 
L 2356 3053 
L 1172 3053 
L 1172 1153 
Q 1172 725 1289 603 
Q 1406 481 1766 481 
L 2356 481 
L 2356 0 
L 1766 0 
Q 1100 0 847 248 
Q 594 497 594 1153 
L 594 3053 
L 172 3053 
L 172 3500 
L 594 3500 
L 594 4494 
L 1172 4494 
z
" transform="scale(0.015625)"/>
      </defs>
      <use xlink:href="#DejaVuSans-74"/>
      <use xlink:href="#DejaVuSans-3d" x="39.208984"/>
      <use xlink:href="#DejaVuSans-30" x="122.998047"/>
      <use xlink:href="#DejaVuSans-2e" x="186.621094"/>
      <use xlink:href="#DejaVuSans-30" x="218.408203"/>
     </g>
    </g>
    <g id="line2d_16">
     <path d="M 664.83726 43.16947 
L 672.83726 43.16947 
L 680.83726 43.16947 
" style="fill: none; stroke: #ff7f0e; stroke-width: 1.5; stroke-linecap: square"/>
    </g>
    <g id="text_16">
     <!-- t=5.0 -->
     <g transform="translate(687.23726 45.96947) scale(0.08 -0.08)">
      <defs>
       <path id="DejaVuSans-35" d="M 691 4666 
L 3169 4666 
L 3169 4134 
L 1269 4134 
L 1269 2991 
Q 1406 3038 1543 3061 
Q 1681 3084 1819 3084 
Q 2600 3084 3056 2656 
Q 3513 2228 3513 1497 
Q 3513 744 3044 326 
Q 2575 -91 1722 -91 
Q 1428 -91 1123 -41 
Q 819 9 494 109 
L 494 744 
Q 775 591 1075 516 
Q 1375 441 1709 441 
Q 2250 441 2565 725 
Q 2881 1009 2881 1497 
Q 2881 1984 2565 2268 
Q 2250 2553 1709 2553 
Q 1456 2553 1204 2497 
Q 953 2441 691 2322 
L 691 4666 
z
" transform="scale(0.015625)"/>
      </defs>
      <use xlink:href="#DejaVuSans-74"/>
      <use xlink:href="#DejaVuSans-3d" x="39.208984"/>
      <use xlink:href="#DejaVuSans-35" x="122.998047"/>
      <use xlink:href="#DejaVuSans-2e" x="186.621094"/>
      <use xlink:href="#DejaVuSans-30" x="218.408203"/>
     </g>
    </g>
   </g>
  </g>
  <g id="text_17">
   <!-- Density snapshots for modes m=1..5  [seed_modes_1to5] -->
   <g transform="translate(185.743125 12.118365) scale(0.12 -0.12)">
    <defs>
     <path id="DejaVuSans-44" d="M 1259 4147 
L 1259 519 
L 2022 519 
Q 2988 519 3436 956 
Q 3884 1394 3884 2338 
Q 3884 3275 3436 3711 
Q 2988 4147 2022 4147 
L 1259 4147 
z
M 628 4666 
L 1925 4666 
Q 3281 4666 3915 4102 
Q 4550 3538 4550 2338 
Q 4550 1131 3912 565 
Q 3275 0 1925 0 
L 628 0 
L 628 4666 
z
" transform="scale(0.015625)"/>
     <path id="DejaVuSans-65" d="M 3597 1894 
L 3597 1613 
L 953 1613 
Q 991 1019 1311 708 
Q 1631 397 2203 397 
Q 2534 397 2845 478 
Q 3156 559 3463 722 
L 3463 178 
Q 3153 47 2828 -22 
Q 2503 -91 2169 -91 
Q 1331 -91 842 396 
Q 353 884 353 1716 
Q 353 2575 817 3079 
Q 1281 3584 2069 3584 
Q 2775 3584 3186 3129 
Q 3597 2675 3597 1894 
z
M 3022 2063 
Q 3016 2534 2758 2815 
Q 2500 3097 2075 3097 
Q 1594 3097 1305 2825 
Q 1016 2553 972 2059 
L 3022 2063 
z
" transform="scale(0.015625)"/>
     <path id="DejaVuSans-6e" d="M 3513 2113 
L 3513 0 
L 2938 0 
L 2938 2094 
Q 2938 2591 2744 2837 
Q 2550 3084 2163 3084 
Q 1697 3084 1428 2787 
Q 1159 2491 1159 1978 
L 1159 0 
L 581 0 
L 581 3500 
L 1159 3500 
L 1159 2956 
Q 1366 3272 1645 3428 
Q 1925 3584 2291 3584 
Q 2894 3584 3203 3211 
Q 3513 2838 3513 2113 
z
" transform="scale(0.015625)"/>
     <path id="DejaVuSans-73" d="M 2834 3397 
L 2834 2853 
Q 2591 2978 2328 3040 
Q 2066 3103 1784 3103 
Q 1356 3103 1142 2972 
Q 928 2841 928 2578 
Q 928 2378 1081 2264 
Q 1234 2150 1697 2047 
L 1894 2003 
Q 2506 1872 2764 1633 
Q 3022 1394 3022 966 
Q 3022 478 2636 193 
Q 2250 -91 1575 -91 
Q 1294 -91 989 -36 
Q 684 19 347 128 
L 347 722 
Q 666 556 975 473 
Q 1284 391 1588 391 
Q 1994 391 2212 530 
Q 2431 669 2431 922 
Q 2431 1156 2273 1281 
Q 2116 1406 1581 1522 
L 1381 1569 
Q 847 1681 609 1914 
Q 372 2147 372 2553 
Q 372 3047 722 3315 
Q 1072 3584 1716 3584 
Q 2034 3584 2315 3537 
Q 2597 3491 2834 3397 
z
" transform="scale(0.015625)"/>
     <path id="DejaVuSans-69" d="M 603 3500 
L 1178 3500 
L 1178 0 
L 603 0 
L 603 3500 
z
M 603 4863 
L 1178 4863 
L 1178 4134 
L 603 4134 
L 603 4863 
z
" transform="scale(0.015625)"/>
     <path id="DejaVuSans-79" d="M 2059 -325 
Q 1816 -950 1584 -1140 
Q 1353 -1331 966 -1331 
L 506 -1331 
L 506 -850 
L 844 -850 
Q 1081 -850 1212 -737 
Q 1344 -625 1503 -206 
L 1606 56 
L 191 3500 
L 800 3500 
L 1894 763 
L 2988 3500 
L 3597 3500 
L 2059 -325 
z
" transform="scale(0.015625)"/>
     <path id="DejaVuSans-20" transform="scale(0.015625)"/>
     <path id="DejaVuSans-61" d="M 2194 1759 
Q 1497 1759 1228 1600 
Q 959 1441 959 1056 
Q 959 750 1161 570 
Q 1363 391 1709 391 
Q 2188 391 2477 730 
Q 2766 1069 2766 1631 
L 2766 1759 
L 2194 1759 
z
M 3341 1997 
L 3341 0 
L 2766 0 
L 2766 531 
Q 2569 213 2275 61 
Q 1981 -91 1556 -91 
Q 1019 -91 701 211 
Q 384 513 384 1019 
Q 384 1609 779 1909 
Q 1175 2209 1959 2209 
L 2766 2209 
L 2766 2266 
Q 2766 2663 2505 2880 
Q 2244 3097 1772 3097 
Q 1472 3097 1187 3025 
Q 903 2953 641 2809 
L 641 3341 
Q 956 3463 1253 3523 
Q 1550 3584 1831 3584 
Q 2591 3584 2966 3190 
Q 3341 2797 3341 1997 
z
" transform="scale(0.015625)"/>
     <path id="DejaVuSans-70" d="M 1159 525 
L 1159 -1331 
L 581 -1331 
L 581 3500 
L 1159 3500 
L 1159 2969 
Q 1341 3281 1617 3432 
Q 1894 3584 2278 3584 
Q 2916 3584 3314 3078 
Q 3713 2572 3713 1747 
Q 3713 922 3314 415 
Q 2916 -91 2278 -91 
Q 1894 -91 1617 61 
Q 1341 213 1159 525 
z
M 3116 1747 
Q 3116 2381 2855 2742 
Q 2594 3103 2138 3103 
Q 1681 3103 1420 2742 
Q 1159 2381 1159 1747 
Q 1159 1113 1420 752 
Q 1681 391 2138 391 
Q 2594 391 2855 752 
Q 3116 1113 3116 1747 
z
" transform="scale(0.015625)"/>
     <path id="DejaVuSans-68" d="M 3513 2113 
L 3513 0 
L 2938 0 
L 2938 2094 
Q 2938 2591 2744 2837 
Q 2550 3084 2163 3084 
Q 1697 3084 1428 2787 
Q 1159 2491 1159 1978 
L 1159 0 
L 581 0 
L 581 4863 
L 1159 4863 
L 1159 2956 
Q 1366 3272 1645 3428 
Q 1925 3584 2291 3584 
Q 2894 3584 3203 3211 
Q 3513 2838 3513 2113 
z
" transform="scale(0.015625)"/>
     <path id="DejaVuSans-6f" d="M 1959 3097 
Q 1497 3097 1228 2736 
Q 959 2375 959 1747 
Q 959 1119 1226 758 
Q 1494 397 1959 397 
Q 2419 397 2687 759 
Q 2956 1122 2956 1747 
Q 2956 2369 2687 2733 
Q 2419 3097 1959 3097 
z
M 1959 3584 
Q 2709 3584 3137 3096 
Q 3566 2609 3566 1747 
Q 3566 888 3137 398 
Q 2709 -91 1959 -91 
Q 1206 -91 779 398 
Q 353 888 353 1747 
Q 353 2609 779 3096 
Q 1206 3584 1959 3584 
z
" transform="scale(0.015625)"/>
     <path id="DejaVuSans-66" d="M 2375 4863 
L 2375 4384 
L 1825 4384 
Q 1516 4384 1395 4259 
Q 1275 4134 1275 3809 
L 1275 3500 
L 2222 3500 
L 2222 3053 
L 1275 3053 
L 1275 0 
L 697 0 
L 697 3053 
L 147 3053 
L 147 3500 
L 697 3500 
L 697 3744 
Q 697 4328 969 4595 
Q 1241 4863 1831 4863 
L 2375 4863 
z
" transform="scale(0.015625)"/>
     <path id="DejaVuSans-72" d="M 2631 2963 
Q 2534 3019 2420 3045 
Q 2306 3072 2169 3072 
Q 1681 3072 1420 2755 
Q 1159 2438 1159 1844 
L 1159 0 
L 581 0 
L 581 3500 
L 1159 3500 
L 1159 2956 
Q 1341 3275 1631 3429 
Q 1922 3584 2338 3584 
Q 2397 3584 2469 3576 
Q 2541 3569 2628 3553 
L 2631 2963 
z
" transform="scale(0.015625)"/>
     <path id="DejaVuSans-64" d="M 2906 2969 
L 2906 4863 
L 3481 4863 
L 3481 0 
L 2906 0 
L 2906 525 
Q 2725 213 2448 61 
Q 2172 -91 1784 -91 
Q 1150 -91 751 415 
Q 353 922 353 1747 
Q 353 2572 751 3078 
Q 1150 3584 1784 3584 
Q 2172 3584 2448 3432 
Q 2725 3281 2906 2969 
z
M 947 1747 
Q 947 1113 1208 752 
Q 1469 391 1925 391 
Q 2381 391 2643 752 
Q 2906 1113 2906 1747 
Q 2906 2381 2643 2742 
Q 2381 3103 1925 3103 
Q 1469 3103 1208 2742 
Q 947 2381 947 1747 
z
" transform="scale(0.015625)"/>
     <path id="DejaVuSans-5b" d="M 550 4863 
L 1875 4863 
L 1875 4416 
L 1125 4416 
L 1125 -397 
L 1875 -397 
L 1875 -844 
L 550 -844 
L 550 4863 
z
" transform="scale(0.015625)"/>
     <path id="DejaVuSans-5f" d="M 3263 -1063 
L 3263 -1509 
L -63 -1509 
L -63 -1063 
L 3263 -1063 
z
" transform="scale(0.015625)"/>
     <path id="DejaVuSans-5d" d="M 1947 4863 
L 1947 -844 
L 622 -844 
L 622 -397 
L 1369 -397 
L 1369 4416 
L 622 4416 
L 622 4863 
L 1947 4863 
z
" transform="scale(0.015625)"/>
    </defs>
    <use xlink:href="#DejaVuSans-44"/>
    <use xlink:href="#DejaVuSans-65" x="77.001953"/>
    <use xlink:href="#DejaVuSans-6e" x="138.525391"/>
    <use xlink:href="#DejaVuSans-73" x="201.904297"/>
    <use xlink:href="#DejaVuSans-69" x="254.003906"/>
    <use xlink:href="#DejaVuSans-74" x="281.787109"/>
    <use xlink:href="#DejaVuSans-79" x="320.996094"/>
    <use xlink:href="#DejaVuSans-20" x="380.175781"/>
    <use xlink:href="#DejaVuSans-73" x="411.962891"/>
    <use xlink:href="#DejaVuSans-6e" x="464.0625"/>
    <use xlink:href="#DejaVuSans-61" x="527.441406"/>
    <use xlink:href="#DejaVuSans-70" x="588.720703"/>
    <use xlink:href="#DejaVuSans-73" x="652.197266"/>
    <use xlink:href="#DejaVuSans-68" x="704.296875"/>
    <use xlink:href="#DejaVuSans-6f" x="767.675781"/>
    <use xlink:href="#DejaVuSans-74" x="828.857422"/>
    <use xlink:href="#DejaVuSans-73" x="868.066406"/>
    <use xlink:href="#DejaVuSans-20" x="920.166016"/>
    <use xlink:href="#DejaVuSans-66" x="951.953125"/>
    <use xlink:href="#DejaVuSans-6f" x="987.158203"/>
    <use xlink:href="#DejaVuSans-72" x="1048.339844"/>
    <use xlink:href="#DejaVuSans-20" x="1089.453125"/>
    <use xlink:href="#DejaVuSans-6d" x="1121.240234"/>
    <use xlink:href="#DejaVuSans-6f" x="1218.652344"/>
    <use xlink:href="#DejaVuSans-64" x="1279.833984"/>
    <use xlink:href="#DejaVuSans-65" x="1343.310547"/>
    <use xlink:href="#DejaVuSans-73" x="1404.833984"/>
    <use xlink:href="#DejaVuSans-20" x="1456.933594"/>
    <use xlink:href="#DejaVuSans-6d" x="1488.720703"/>
    <use xlink:href="#DejaVuSans-3d" x="1586.132812"/>
    <use xlink:href="#DejaVuSans-31" x="1669.921875"/>
    <use xlink:href="#DejaVuSans-2e" x="1733.544922"/>
    <use xlink:href="#DejaVuSans-2e" x="1765.332031"/>
    <use xlink:href="#DejaVuSans-35" x="1797.119141"/>
    <use xlink:href="#DejaVuSans-20" x="1860.742188"/>
    <use xlink:href="#DejaVuSans-20" x="1892.529297"/>
    <use xlink:href="#DejaVuSans-5b" x="1924.316406"/>
    <use xlink:href="#DejaVuSans-73" x="1963.330078"/>
    <use xlink:href="#DejaVuSans-65" x="2015.429688"/>
    <use xlink:href="#DejaVuSans-65" x="2076.953125"/>
    <use xlink:href="#DejaVuSans-64" x="2138.476562"/>
    <use xlink:href="#DejaVuSans-5f" x="2201.953125"/>
    <use xlink:href="#DejaVuSans-6d" x="2251.953125"/>
    <use xlink:href="#DejaVuSans-6f" x="2349.365234"/>
    <use xlink:href="#DejaVuSans-64" x="2410.546875"/>
    <use xlink:href="#DejaVuSans-65" x="2474.023438"/>
    <use xlink:href="#DejaVuSans-73" x="2535.546875"/>
    <use xlink:href="#DejaVuSans-5f" x="2587.646484"/>
    <use xlink:href="#DejaVuSans-31" x="2637.646484"/>
    <use xlink:href="#DejaVuSans-74" x="2701.269531"/>
    <use xlink:href="#DejaVuSans-6f" x="2740.478516"/>
    <use xlink:href="#DejaVuSans-35" x="2801.660156"/>
    <use xlink:href="#DejaVuSans-5d" x="2865.283203"/>
   </g>
  </g>
 </g>
 <defs>
  <clipPath id="pdf7562dd75">
   <rect x="45.94399" y="20.94822" width="671.05577" height="809.69529"/>
  </clipPath>
 </defs>
</svg>
