<?xml version="1.0" encoding="utf-8" standalone="no"?>
<!DOCTYPE svg PUBLIC "-//W3C//DTD SVG 1.1//EN"
  "http://www.w3.org/Graphics/SVG/1.1/DTD/svg11.dtd">
<svg xmlns:xlink="http://www.w3.org/1999/xlink" width="720pt" height="864pt" viewBox="0 0 720 864" xmlns="http://www.w3.org/2000/svg" version="1.1">
 <metadata>
  <rdf:RDF xmlns:dc="http://purl.org/dc/elements/1.1/" xmlns:cc="http://creativecommons.org/ns#" xmlns:rdf="http://www.w3.org/1999/02/22-rdf-syntax-ns#">
   <cc:Work>
    <dc:type rdf:resource="http://purl.org/dc/dcmitype/StillImage"/>
    <dc:date>2025-10-01T01:28:08.236197</dc:date>
    <dc:format>image/svg+xml</dc:format>
    <dc:creator>
     <cc:Agent>
      <dc:title>Matplotlib v3.8.4, https://matplotlib.org/</dc:title>
     </cc:Agent>
    </dc:creator>
   </cc:Work>
  </rdf:RDF>
 </metadata>
 <defs>
  <style type="text/css">*{stroke-linejoin: round; stroke-linecap: butt}</style>
 </defs>
 <g id="figure_1">
  <g id="patch_1">
   <path d="M 0 864 
L 720 864 
L 720 0 
L 0 0 
z
" style="fill: #ffffff"/>
  </g>
  <g id="axes_1">
   <g id="patch_2">
    <path d="M 45.94399 830.64351 
L 716.99976 830.64351 
L 716.99976 20.94822 
L 45.94399 20.94822 
z
" style="fill: #ffffff"/>
   </g>
   <g id="matplotlib.axis_1">
    <g id="xtick_1">
     <g id="line2d_1">
      <defs>
       <path id="m40430e0177" d="M 0 0 
L 0 3.5 
" style="stroke: #000000; stroke-width: 0.8"/>
      </defs>
      <g>
       <use xlink:href="#m40430e0177" x="76.446525" y="830.64351" style="stroke: #000000; stroke-width: 0.8"/>
      </g>
     </g>
     <g id="text_1">
      <!-- 0 -->
      <g transform="translate(73.265275 845.241948) scale(0.1 -0.1)">
       <defs>
        <path id="DejaVuSans-30" d="M 2034 4250 
Q 1547 4250 1301 3770 
Q 1056 3291 1056 2328 
Q 1056 1369 1301 889 
Q 1547 409 2034 409 
Q 2525 409 2770 889 
Q 3016 1369 3016 2328 
Q 3016 3291 2770 3770 
Q 2525 4250 2034 4250 
z
M 2034 4750 
Q 2819 4750 3233 4129 
Q 3647 3509 3647 2328 
Q 3647 1150 3233 529 
Q 2819 -91 2034 -91 
Q 1250 -91 836 529 
Q 422 1150 422 2328 
Q 422 3509 836 4129 
Q 1250 4750 2034 4750 
z
" transform="scale(0.015625)"/>
       </defs>
       <use xlink:href="#DejaVuSans-30"/>
      </g>
     </g>
    </g>
    <g id="xtick_2">
     <g id="line2d_2">
      <g>
       <use xlink:href="#m40430e0177" x="198.537413" y="830.64351" style="stroke: #000000; stroke-width: 0.8"/>
      </g>
     </g>
     <g id="text_2">
      <!-- 2 -->
      <g transform="translate(195.356163 845.241948) scale(0.1 -0.1)">
       <defs>
        <path id="DejaVuSans-32" d="M 1228 531 
L 3431 531 
L 3431 0 
L 469 0 
L 469 531 
Q 828 903 1448 1529 
Q 2069 2156 2228 2338 
Q 2531 2678 2651 2914 
Q 2772 3150 2772 3378 
Q 2772 3750 2511 3984 
Q 2250 4219 1831 4219 
Q 1534 4219 1204 4116 
Q 875 4013 500 3803 
L 500 4441 
Q 881 4594 1212 4672 
Q 1544 4750 1819 4750 
Q 2544 4750 2975 4387 
Q 3406 4025 3406 3419 
Q 3406 3131 3298 2873 
Q 3191 2616 2906 2266 
Q 2828 2175 2409 1742 
Q 1991 1309 1228 531 
z
" transform="scale(0.015625)"/>
       </defs>
       <use xlink:href="#DejaVuSans-32"/>
      </g>
     </g>
    </g>
    <g id="xtick_3">
     <g id="line2d_3">
      <g>
       <use xlink:href="#m40430e0177" x="320.628301" y="830.64351" style="stroke: #000000; stroke-width: 0.8"/>
      </g>
     </g>
     <g id="text_3">
      <!-- 4 -->
      <g transform="translate(317.447051 845.241948) scale(0.1 -0.1)">
       <defs>
        <path id="DejaVuSans-34" d="M 2419 4116 
L 825 1625 
L 2419 1625 
L 2419 4116 
z
M 2253 4666 
L 3047 4666 
L 3047 1625 
L 3713 1625 
L 3713 1100 
L 3047 1100 
L 3047 0 
L 2419 0 
L 2419 1100 
L 313 1100 
L 313 1709 
L 2253 4666 
z
" transform="scale(0.015625)"/>
       </defs>
       <use xlink:href="#DejaVuSans-34"/>
      </g>
     </g>
    </g>
    <g id="xtick_4">
     <g id="line2d_4">
      <g>
       <use xlink:href="#m40430e0177" x="442.719189" y="830.64351" style="stroke: #000000; stroke-width: 0.8"/>
      </g>
     </g>
     <g id="text_4">
      <!-- 6 -->
      <g transform="translate(439.537939 845.241948) scale(0.1 -0.1)">
       <defs>
        <path id="DejaVuSans-36" d="M 2113 2584 
Q 1688 2584 1439 2293 
Q 1191 2003 1191 1497 
Q 1191 994 1439 701 
Q 1688 409 2113 409 
Q 2538 409 2786 701 
Q 3034 994 3034 1497 
Q 3034 2003 2786 2293 
Q 2538 2584 2113 2584 
z
M 3366 4563 
L 3366 3988 
Q 3128 4100 2886 4159 
Q 2644 4219 2406 4219 
Q 1781 4219 1451 3797 
Q 1122 3375 1075 2522 
Q 1259 2794 1537 2939 
Q 1816 3084 2150 3084 
Q 2853 3084 3261 2657 
Q 3669 2231 3669 1497 
Q 3669 778 3244 343 
Q 2819 -91 2113 -91 
Q 1303 -91 875 529 
Q 447 1150 447 2328 
Q 447 3434 972 4092 
Q 1497 4750 2381 4750 
Q 2619 4750 2861 4703 
Q 3103 4656 3366 4563 
z
" transform="scale(0.015625)"/>
       </defs>
       <use xlink:href="#DejaVuSans-36"/>
      </g>
     </g>
    </g>
    <g id="xtick_5">
     <g id="line2d_5">
      <g>
       <use xlink:href="#m40430e0177" x="564.810077" y="830.64351" style="stroke: #000000; stroke-width: 0.8"/>
      </g>
     </g>
     <g id="text_5">
      <!-- 8 -->
      <g transform="translate(561.628827 845.241948) scale(0.1 -0.1)">
       <defs>
        <path id="DejaVuSans-38" d="M 2034 2216 
Q 1584 2216 1326 1975 
Q 1069 1734 1069 1313 
Q 1069 891 1326 650 
Q 1584 409 2034 409 
Q 2484 409 2743 651 
Q 3003 894 3003 1313 
Q 3003 1734 2745 1975 
Q 2488 2216 2034 2216 
z
M 1403 2484 
Q 997 2584 770 2862 
Q 544 3141 544 3541 
Q 544 4100 942 4425 
Q 1341 4750 2034 4750 
Q 2731 4750 3128 4425 
Q 3525 4100 3525 3541 
Q 3525 3141 3298 2862 
Q 3072 2584 2669 2484 
Q 3125 2378 3379 2068 
Q 3634 1759 3634 1313 
Q 3634 634 3220 271 
Q 2806 -91 2034 -91 
Q 1263 -91 848 271 
Q 434 634 434 1313 
Q 434 1759 690 2068 
Q 947 2378 1403 2484 
z
M 1172 3481 
Q 1172 3119 1398 2916 
Q 1625 2713 2034 2713 
Q 2441 2713 2670 2916 
Q 2900 3119 2900 3481 
Q 2900 3844 2670 4047 
Q 2441 4250 2034 4250 
Q 1625 4250 1398 4047 
Q 1172 3844 1172 3481 
z
" transform="scale(0.015625)"/>
       </defs>
       <use xlink:href="#DejaVuSans-38"/>
      </g>
     </g>
    </g>
    <g id="xtick_6">
     <g id="line2d_6">
      <g>
       <use xlink:href="#m40430e0177" x="686.900965" y="830.64351" style="stroke: #000000; stroke-width: 0.8"/>
      </g>
     </g>
     <g id="text_6">
      <!-- 10 -->
      <g transform="translate(680.538465 845.241948) scale(0.1 -0.1)">
       <defs>
        <path id="DejaVuSans-31" d="M 794 531 
L 1825 531 
L 1825 4091 
L 703 3866 
L 703 4441 
L 1819 4666 
L 2450 4666 
L 2450 531 
L 3481 531 
L 3481 0 
L 794 0 
L 794 531 
z
" transform="scale(0.015625)"/>
       </defs>
       <use xlink:href="#DejaVuSans-31"/>
       <use xlink:href="#DejaVuSans-30" x="63.623047"/>
      </g>
     </g>
    </g>
    <g id="text_7">
     <!-- x -->
     <g transform="translate(378.5125 858.920072) scale(0.1 -0.1)">
      <defs>
       <path id="DejaVuSans-78" d="M 3513 3500 
L 2247 1797 
L 3578 0 
L 2900 0 
L 1881 1375 
L 863 0 
L 184 0 
L 1544 1831 
L 300 3500 
L 978 3500 
L 1906 2253 
L 2834 3500 
L 3513 3500 
z
" transform="scale(0.015625)"/>
      </defs>
      <use xlink:href="#DejaVuSans-78"/>
     </g>
    </g>
   </g>
   <g id="matplotlib.axis_2">
    <g id="ytick_1">
     <g id="line2d_7">
      <defs>
       <path id="ma31eb88a23" d="M 0 0 
L -3.5 0 
" style="stroke: #000000; stroke-width: 0.8"/>
      </defs>
      <g>
       <use xlink:href="#ma31eb88a23" x="45.94399" y="804.048117" style="stroke: #000000; stroke-width: 0.8"/>
      </g>
     </g>
     <g id="text_8">
      <!-- 0.10 -->
      <g transform="translate(16.678365 807.847336) scale(0.1 -0.1)">
       <defs>
        <path id="DejaVuSans-2e" d="M 684 794 
L 1344 794 
L 1344 0 
L 684 0 
L 684 794 
z
" transform="scale(0.015625)"/>
       </defs>
       <use xlink:href="#DejaVuSans-30"/>
       <use xlink:href="#DejaVuSans-2e" x="63.623047"/>
       <use xlink:href="#DejaVuSans-31" x="95.410156"/>
       <use xlink:href="#DejaVuSans-30" x="159.033203"/>
      </g>
     </g>
    </g>
    <g id="ytick_2">
     <g id="line2d_8">
      <g>
       <use xlink:href="#ma31eb88a23" x="45.94399" y="648.616072" style="stroke: #000000; stroke-width: 0.8"/>
      </g>
     </g>
     <g id="text_9">
      <!-- 0.15 -->
      <g transform="translate(16.678365 652.415291) scale(0.1 -0.1)">
       <defs>
        <path id="DejaVuSans-35" d="M 691 4666 
L 3169 4666 
L 3169 4134 
L 1269 4134 
L 1269 2991 
Q 1406 3038 1543 3061 
Q 1681 3084 1819 3084 
Q 2600 3084 3056 2656 
Q 3513 2228 3513 1497 
Q 3513 744 3044 326 
Q 2575 -91 1722 -91 
Q 1428 -91 1123 -41 
Q 819 9 494 109 
L 494 744 
Q 775 591 1075 516 
Q 1375 441 1709 441 
Q 2250 441 2565 725 
Q 2881 1009 2881 1497 
Q 2881 1984 2565 2268 
Q 2250 2553 1709 2553 
Q 1456 2553 1204 2497 
Q 953 2441 691 2322 
L 691 4666 
z
" transform="scale(0.015625)"/>
       </defs>
       <use xlink:href="#DejaVuSans-30"/>
       <use xlink:href="#DejaVuSans-2e" x="63.623047"/>
       <use xlink:href="#DejaVuSans-31" x="95.410156"/>
       <use xlink:href="#DejaVuSans-35" x="159.033203"/>
      </g>
     </g>
    </g>
    <g id="ytick_3">
     <g id="line2d_9">
      <g>
       <use xlink:href="#ma31eb88a23" x="45.94399" y="493.184028" style="stroke: #000000; stroke-width: 0.8"/>
      </g>
     </g>
     <g id="text_10">
      <!-- 0.20 -->
      <g transform="translate(16.678365 496.983246) scale(0.1 -0.1)">
       <use xlink:href="#DejaVuSans-30"/>
       <use xlink:href="#DejaVuSans-2e" x="63.623047"/>
       <use xlink:href="#DejaVuSans-32" x="95.410156"/>
       <use xlink:href="#DejaVuSans-30" x="159.033203"/>
      </g>
     </g>
    </g>
    <g id="ytick_4">
     <g id="line2d_10">
      <g>
       <use xlink:href="#ma31eb88a23" x="45.94399" y="337.751983" style="stroke: #000000; stroke-width: 0.8"/>
      </g>
     </g>
     <g id="text_11">
      <!-- 0.25 -->
      <g transform="translate(16.678365 341.551202) scale(0.1 -0.1)">
       <use xlink:href="#DejaVuSans-30"/>
       <use xlink:href="#DejaVuSans-2e" x="63.623047"/>
       <use xlink:href="#DejaVuSans-32" x="95.410156"/>
       <use xlink:href="#DejaVuSans-35" x="159.033203"/>
      </g>
     </g>
    </g>
    <g id="ytick_5">
     <g id="line2d_11">
      <g>
       <use xlink:href="#ma31eb88a23" x="45.94399" y="182.319938" style="stroke: #000000; stroke-width: 0.8"/>
      </g>
     </g>
     <g id="text_12">
      <!-- 0.30 -->
      <g transform="translate(16.678365 186.119157) scale(0.1 -0.1)">
       <defs>
        <path id="DejaVuSans-33" d="M 2597 2516 
Q 3050 2419 3304 2112 
Q 3559 1806 3559 1356 
Q 3559 666 3084 287 
Q 2609 -91 1734 -91 
Q 1441 -91 1130 -33 
Q 819 25 488 141 
L 488 750 
Q 750 597 1062 519 
Q 1375 441 1716 441 
Q 2309 441 2620 675 
Q 2931 909 2931 1356 
Q 2931 1769 2642 2001 
Q 2353 2234 1838 2234 
L 1294 2234 
L 1294 2753 
L 1863 2753 
Q 2328 2753 2575 2939 
Q 2822 3125 2822 3475 
Q 2822 3834 2567 4026 
Q 2313 4219 1838 4219 
Q 1578 4219 1281 4162 
Q 984 4106 628 3988 
L 628 4550 
Q 988 4650 1302 4700 
Q 1616 4750 1894 4750 
Q 2613 4750 3031 4423 
Q 3450 4097 3450 3541 
Q 3450 3153 3228 2886 
Q 3006 2619 2597 2516 
z
" transform="scale(0.015625)"/>
       </defs>
       <use xlink:href="#DejaVuSans-30"/>
       <use xlink:href="#DejaVuSans-2e" x="63.623047"/>
       <use xlink:href="#DejaVuSans-33" x="95.410156"/>
       <use xlink:href="#DejaVuSans-30" x="159.033203"/>
      </g>
     </g>
    </g>
    <g id="ytick_6">
     <g id="line2d_12">
      <g>
       <use xlink:href="#ma31eb88a23" x="45.94399" y="26.887894" style="stroke: #000000; stroke-width: 0.8"/>
      </g>
     </g>
     <g id="text_13">
      <!-- 0.35 -->
      <g transform="translate(16.678365 30.687112) scale(0.1 -0.1)">
       <use xlink:href="#DejaVuSans-30"/>
       <use xlink:href="#DejaVuSans-2e" x="63.623047"/>
       <use xlink:href="#DejaVuSans-33" x="95.410156"/>
       <use xlink:href="#DejaVuSans-35" x="159.033203"/>
      </g>
     </g>
    </g>
    <g id="text_14">
     <!-- $\delta n \sim \cos(3x) + \cos(5x)$ -->
     <g transform="translate(10.598677 481.245865) rotate(-90) scale(0.1 -0.1)">
      <defs>
       <path id="DejaVuSans-Oblique-3b4" d="M 3472 4053 
Q 3197 4272 2450 4272 
Q 1659 4272 1588 3906 
Q 1531 3619 2328 3469 
Q 2953 3353 3253 3003 
Q 3616 2581 3447 1716 
Q 3284 888 2763 400 
Q 2238 -91 1488 -91 
Q 741 -91 406 400 
Q 72 888 241 1747 
Q 363 2384 891 2900 
Q 1097 3100 1353 3213 
Q 913 3459 1000 3900 
Q 1166 4750 2544 4750 
Q 3234 4750 3566 4531 
L 3472 4053 
z
M 1753 3056 
Q 1525 2966 1306 2738 
Q 969 2384 847 1747 
Q 722 1113 919 756 
Q 1119 397 1584 397 
Q 2044 397 2381 759 
Q 2722 1122 2838 1716 
Q 2956 2338 2731 2638 
Q 2491 2959 2103 2994 
Q 1906 3013 1753 3056 
z
" transform="scale(0.015625)"/>
       <path id="DejaVuSans-Oblique-6e" d="M 3566 2113 
L 3156 0 
L 2578 0 
L 2988 2091 
Q 3016 2238 3031 2350 
Q 3047 2463 3047 2528 
Q 3047 2791 2881 2937 
Q 2716 3084 2419 3084 
Q 1956 3084 1622 2776 
Q 1288 2469 1184 1941 
L 800 0 
L 225 0 
L 903 3500 
L 1478 3500 
L 1363 2950 
Q 1603 3253 1940 3418 
Q 2278 3584 2650 3584 
Q 3113 3584 3367 3334 
Q 3622 3084 3622 2631 
Q 3622 2519 3608 2391 
Q 3594 2263 3566 2113 
z
" transform="scale(0.015625)"/>
       <path id="DejaVuSans-223c" d="M 4684 2556 
L 4684 1997 
Q 4356 1753 4076 1645 
Q 3797 1538 3494 1538 
Q 3150 1538 2694 1722 
Q 2663 1734 2641 1744 
Q 2622 1750 2575 1769 
Q 2091 1959 1797 1959 
Q 1522 1959 1253 1840 
Q 984 1722 678 1459 
L 678 2019 
Q 1006 2263 1286 2370 
Q 1566 2478 1869 2478 
Q 2213 2478 2672 2294 
Q 2706 2278 2722 2272 
Q 2741 2266 2788 2247 
Q 3272 2056 3566 2056 
Q 3834 2056 4098 2173 
Q 4363 2291 4684 2556 
z
" transform="scale(0.015625)"/>
       <path id="DejaVuSans-63" d="M 3122 3366 
L 3122 2828 
Q 2878 2963 2633 3030 
Q 2388 3097 2138 3097 
Q 1578 3097 1268 2742 
Q 959 2388 959 1747 
Q 959 1106 1268 751 
Q 1578 397 2138 397 
Q 2388 397 2633 464 
Q 2878 531 3122 666 
L 3122 134 
Q 2881 22 2623 -34 
Q 2366 -91 2075 -91 
Q 1284 -91 818 406 
Q 353 903 353 1747 
Q 353 2603 823 3093 
Q 1294 3584 2113 3584 
Q 2378 3584 2631 3529 
Q 2884 3475 3122 3366 
z
" transform="scale(0.015625)"/>
       <path id="DejaVuSans-6f" d="M 1959 3097 
Q 1497 3097 1228 2736 
Q 959 2375 959 1747 
Q 959 1119 1226 758 
Q 1494 397 1959 397 
Q 2419 397 2687 759 
Q 2956 1122 2956 1747 
Q 2956 2369 2687 2733 
Q 2419 3097 1959 3097 
z
M 1959 3584 
Q 2709 3584 3137 3096 
Q 3566 2609 3566 1747 
Q 3566 888 3137 398 
Q 2709 -91 1959 -91 
Q 1206 -91 779 398 
Q 353 888 353 1747 
Q 353 2609 779 3096 
Q 1206 3584 1959 3584 
z
" transform="scale(0.015625)"/>
       <path id="DejaVuSans-73" d="M 2834 3397 
L 2834 2853 
Q 2591 2978 2328 3040 
Q 2066 3103 1784 3103 
Q 1356 3103 1142 2972 
Q 928 2841 928 2578 
Q 928 2378 1081 2264 
Q 1234 2150 1697 2047 
L 1894 2003 
Q 2506 1872 2764 1633 
Q 3022 1394 3022 966 
Q 3022 478 2636 193 
Q 2250 -91 1575 -91 
Q 1294 -91 989 -36 
Q 684 19 347 128 
L 347 722 
Q 666 556 975 473 
Q 1284 391 1588 391 
Q 1994 391 2212 530 
Q 2431 669 2431 922 
Q 2431 1156 2273 1281 
Q 2116 1406 1581 1522 
L 1381 1569 
Q 847 1681 609 1914 
Q 372 2147 372 2553 
Q 372 3047 722 3315 
Q 1072 3584 1716 3584 
Q 2034 3584 2315 3537 
Q 2597 3491 2834 3397 
z
" transform="scale(0.015625)"/>
       <path id="DejaVuSans-28" d="M 1984 4856 
Q 1566 4138 1362 3434 
Q 1159 2731 1159 2009 
Q 1159 1288 1364 580 
Q 1569 -128 1984 -844 
L 1484 -844 
Q 1016 -109 783 600 
Q 550 1309 550 2009 
Q 550 2706 781 3412 
Q 1013 4119 1484 4856 
L 1984 4856 
z
" transform="scale(0.015625)"/>
       <path id="DejaVuSans-Oblique-78" d="M 3841 3500 
L 2234 1784 
L 3219 0 
L 2559 0 
L 1819 1388 
L 531 0 
L -166 0 
L 1556 1844 
L 641 3500 
L 1300 3500 
L 1972 2234 
L 3144 3500 
L 3841 3500 
z
" transform="scale(0.015625)"/>
       <path id="DejaVuSans-29" d="M 513 4856 
L 1013 4856 
Q 1481 4119 1714 3412 
Q 1947 2706 1947 2009 
Q 1947 1309 1714 600 
Q 1481 -109 1013 -844 
L 513 -844 
Q 928 -128 1133 580 
Q 1338 1288 1338 2009 
Q 1338 2731 1133 3434 
Q 928 4138 513 4856 
z
" transform="scale(0.015625)"/>
       <path id="DejaVuSans-2b" d="M 2944 4013 
L 2944 2272 
L 4684 2272 
L 4684 1741 
L 2944 1741 
L 2944 0 
L 2419 0 
L 2419 1741 
L 678 1741 
L 678 2272 
L 2419 2272 
L 2419 4013 
L 2944 4013 
z
" transform="scale(0.015625)"/>
      </defs>
      <use xlink:href="#DejaVuSans-Oblique-3b4" transform="translate(0 0.125)"/>
      <use xlink:href="#DejaVuSans-Oblique-6e" transform="translate(61.181641 0.125)"/>
      <use xlink:href="#DejaVuSans-223c" transform="translate(144.042969 0.125)"/>
      <use xlink:href="#DejaVuSans-63" transform="translate(247.314453 0.125)"/>
      <use xlink:href="#DejaVuSans-6f" transform="translate(302.294922 0.125)"/>
      <use xlink:href="#DejaVuSans-73" transform="translate(363.476562 0.125)"/>
      <use xlink:href="#DejaVuSans-28" transform="translate(415.576172 0.125)"/>
      <use xlink:href="#DejaVuSans-33" transform="translate(454.589844 0.125)"/>
      <use xlink:href="#DejaVuSans-Oblique-78" transform="translate(518.212891 0.125)"/>
      <use xlink:href="#DejaVuSans-29" transform="translate(577.392578 0.125)"/>
      <use xlink:href="#DejaVuSans-2b" transform="translate(635.888672 0.125)"/>
      <use xlink:href="#DejaVuSans-63" transform="translate(739.160156 0.125)"/>
      <use xlink:href="#DejaVuSans-6f" transform="translate(794.140625 0.125)"/>
      <use xlink:href="#DejaVuSans-73" transform="translate(855.322266 0.125)"/>
      <use xlink:href="#DejaVuSans-28" transform="translate(907.421875 0.125)"/>
      <use xlink:href="#DejaVuSans-35" transform="translate(946.435547 0.125)"/>
      <use xlink:href="#DejaVuSans-Oblique-78" transform="translate(1010.058594 0.125)"/>
      <use xlink:href="#DejaVuSans-29" transform="translate(1069.238281 0.125)"/>
     </g>
    </g>
   </g>
   <g id="line2d_13">
    <path d="M 76.446525 368.838392 
L 77.657744 369.002614 
L 78.868963 369.49475 
L 80.080182 370.313213 
L 81.291402 371.455363 
L 82.502621 372.917519 
L 83.71384 374.694968 
L 85.328799 377.545322 
L 86.943757 380.929612 
L 88.558716 384.82851 
L 90.577415 390.391665 
L 92.596113 396.674504 
L 95.018552 405.085056 
L 97.44099 414.344476 
L 100.267168 426.063098 
L 103.497085 440.416682 
L 107.938222 461.259891 
L 118.031715 509.114632 
L 121.665372 525.053407 
L 124.49155 536.534642 
L 126.913989 545.594721 
L 129.336427 553.833607 
L 131.355125 560.012673 
L 133.373824 565.52445 
L 135.392522 570.335912 
L 137.007481 573.663281 
L 138.62244 576.516015 
L 140.237399 578.887402 
L 141.448618 580.347762 
L 142.659837 581.534873 
L 143.871056 582.449315 
L 145.082275 583.092629 
L 146.293495 583.467303 
L 147.504714 583.576756 
L 148.715933 583.425317 
L 149.927152 583.018204 
L 151.138371 582.361493 
L 152.34959 581.462092 
L 153.560809 580.327706 
L 155.175768 578.4644 
L 156.790727 576.220531 
L 158.405686 573.620261 
L 160.424384 569.908635 
L 162.443083 565.735677 
L 164.865521 560.201352 
L 167.691699 553.152742 
L 171.325357 543.424134 
L 183.841288 509.189432 
L 186.667466 502.309367 
L 189.089904 496.899969 
L 191.512342 492.015576 
L 193.531041 488.389185 
L 195.549739 485.196189 
L 197.568438 482.458088 
L 199.183396 480.605537 
L 200.798355 479.058742 
L 202.413314 477.819843 
L 204.028273 476.888331 
L 205.643232 476.261077 
L 207.258191 475.932372 
L 208.873149 475.893995 
L 210.488108 476.135296 
L 212.103067 476.643295 
L 213.718026 477.402799 
L 215.332985 478.39654 
L 217.351683 479.938694 
L 219.370382 481.77539 
L 221.79282 484.3045 
L 224.618998 487.596758 
L 229.060135 493.184028 
L 234.308751 499.742026 
L 237.134929 502.941428 
L 239.557367 505.359881 
L 241.576066 507.083972 
L 243.594764 508.496509 
L 245.209723 509.375414 
L 246.824682 510.011198 
L 248.439641 510.387611 
L 250.0546 510.490553 
L 251.669559 510.308193 
L 253.284517 509.831086 
L 254.899476 509.052257 
L 256.514435 507.96728 
L 258.129394 506.574331 
L 259.744353 504.874224 
L 261.359312 502.870428 
L 263.37801 499.948192 
L 265.396709 496.578908 
L 267.415407 492.786566 
L 269.837846 487.720039 
L 272.260284 482.150737 
L 275.086462 475.116979 
L 278.720119 465.434771 
L 285.987434 445.173146 
L 290.024831 434.264806 
L 293.254749 426.166703 
L 295.677187 420.632378 
L 298.099625 415.678384 
L 300.118324 412.065709 
L 301.733283 409.552166 
L 303.348241 407.401252 
L 304.9632 405.636618 
L 306.174419 404.579657 
L 307.385638 403.760335 
L 308.596858 403.186096 
L 309.808077 402.863575 
L 311.019296 402.798563 
L 312.230515 402.995987 
L 313.441734 403.459873 
L 314.652953 404.193333 
L 315.864172 405.198541 
L 317.075391 406.476718 
L 318.286611 408.028123 
L 319.901569 410.520307 
L 321.516528 413.492449 
L 323.131487 416.937067 
L 324.746446 420.843605 
L 326.765144 426.355382 
L 328.783843 432.534448 
L 331.206281 440.773334 
L 333.62872 449.833413 
L 336.454897 461.314648 
L 339.684815 475.427889 
L 343.722212 494.139618 
L 356.641883 555.027226 
L 359.871801 568.768469 
L 362.697979 579.795664 
L 365.120417 588.35542 
L 367.139115 594.775701 
L 369.157814 600.486957 
L 370.772773 604.511143 
L 372.387732 608.026013 
L 374.00269 611.011499 
L 375.617649 613.450537 
L 376.828868 614.912692 
L 378.040087 616.054842 
L 379.251307 616.873305 
L 380.462526 617.365441 
L 381.673745 617.529663 
L 382.884964 617.365441 
L 384.096183 616.873305 
L 385.307402 616.054842 
L 386.518621 614.912692 
L 387.72984 613.450537 
L 388.94106 611.673087 
L 390.556018 608.822733 
L 392.170977 605.438443 
L 393.785936 601.539545 
L 395.804635 595.97639 
L 397.823333 589.693552 
L 400.245771 581.282999 
L 402.66821 572.023579 
L 405.494388 560.304957 
L 408.724305 545.951373 
L 413.165442 525.108164 
L 423.258935 477.253423 
L 426.892592 461.314648 
L 429.71877 449.833413 
L 432.141208 440.773334 
L 434.563647 432.534448 
L 436.582345 426.355382 
L 438.601044 420.843605 
L 440.619742 416.032143 
L 442.234701 412.704774 
L 443.84966 409.85204 
L 445.464619 407.480653 
L 446.675838 406.020293 
L 447.887057 404.833182 
L 449.098276 403.91874 
L 450.309495 403.275426 
L 451.520714 402.900752 
L 452.731934 402.791299 
L 453.943153 402.942738 
L 455.154372 403.349851 
L 456.365591 404.006562 
L 457.57681 404.905963 
L 458.788029 406.040349 
L 460.402988 407.903655 
L 462.017947 410.147524 
L 463.632906 412.747794 
L 465.651604 416.459421 
L 467.670303 420.632378 
L 470.092741 426.166703 
L 472.918919 433.215313 
L 476.552576 442.943921 
L 489.068507 477.178623 
L 491.894685 484.058688 
L 494.317124 489.468087 
L 496.739562 494.352479 
L 498.75826 497.97887 
L 500.776959 501.171866 
L 502.795657 503.909967 
L 504.410616 505.762518 
L 506.025575 507.309313 
L 507.640534 508.548213 
L 509.255493 509.479724 
L 510.870452 510.106978 
L 512.485411 510.435683 
L 514.100369 510.47406 
L 515.715328 510.232759 
L 517.330287 509.72476 
L 518.945246 508.965256 
L 520.560205 507.971515 
L 522.578903 506.429361 
L 524.597602 504.592665 
L 527.02004 502.063555 
L 529.846218 498.771297 
L 534.287355 493.184028 
L 539.535971 486.626029 
L 542.362149 483.426627 
L 544.784587 481.008175 
L 546.803286 479.284083 
L 548.821984 477.871547 
L 550.436943 476.992641 
L 552.051902 476.356858 
L 553.666861 475.980444 
L 555.28182 475.877503 
L 556.896778 476.059862 
L 558.511737 476.536969 
L 560.126696 477.315798 
L 561.741655 478.400775 
L 563.356614 479.793724 
L 564.971573 481.493831 
L 566.586531 483.497627 
L 568.60523 486.419864 
L 570.623929 489.789147 
L 572.642627 493.581489 
L 575.065065 498.648016 
L 577.487504 504.217318 
L 580.313682 511.251076 
L 583.947339 520.933284 
L 591.214654 541.194909 
L 595.252051 552.103249 
L 598.481968 560.201352 
L 600.904407 565.735677 
L 603.326845 570.689671 
L 605.345544 574.302346 
L 606.960502 576.815889 
L 608.575461 578.966803 
L 610.19042 580.731437 
L 611.401639 581.788398 
L 612.612858 582.60772 
L 613.824077 583.181959 
L 615.035297 583.504481 
L 616.246516 583.569492 
L 617.457735 583.372068 
L 618.668954 582.908182 
L 619.880173 582.174722 
L 621.091392 581.169514 
L 622.302611 579.891337 
L 623.51383 578.339932 
L 625.128789 575.847748 
L 626.743748 572.875606 
L 628.358707 569.430989 
L 629.973666 565.52445 
L 631.992364 560.012673 
L 634.011063 553.833607 
L 636.433501 545.594721 
L 638.855939 536.534642 
L 641.682117 525.053407 
L 644.912035 510.940166 
L 648.949432 492.228437 
L 661.869103 431.340829 
L 665.09902 417.599587 
L 667.925198 406.572391 
L 670.347637 398.012635 
L 672.366335 391.592354 
L 674.385034 385.881098 
L 675.999993 381.856912 
L 677.614951 378.342042 
L 679.22991 375.356556 
L 680.844869 372.917519 
L 682.056088 371.455363 
L 683.267307 370.313213 
L 684.478526 369.49475 
L 685.689746 369.002614 
L 686.497225 368.856643 
L 686.497225 368.856643 
" clip-path="url(#p9ec0b6c720)" style="fill: none; stroke: #1f77b4; stroke-width: 1.5; stroke-linecap: square"/>
   </g>
   <g id="line2d_14">
    <path d="M 76.446525 303.443518 
L 80.887662 101.987091 
L 81.291402 86.603795 
L 81.695141 75.746618 
L 82.098881 74.099174 
L 82.502621 89.413242 
L 82.90636 133.130027 
L 83.3101 209.393777 
L 84.925059 575.310777 
L 85.732538 680.199252 
L 86.540018 738.267559 
L 86.943757 755.431555 
L 87.347497 766.19621 
L 87.751237 772.373883 
L 88.154977 774.838441 
L 88.558716 773.713466 
L 88.962456 770.217281 
L 89.366196 764.764878 
L 90.173675 748.140195 
L 90.981155 726.583025 
L 92.192374 687.551988 
L 93.807332 627.263302 
L 95.826031 543.956103 
L 99.459688 383.036108 
L 105.515784 112.736077 
L 105.919524 102.085674 
L 106.323263 101.220802 
L 106.727003 118.455551 
L 107.130743 165.493084 
L 107.938222 345.119136 
L 108.745702 533.988294 
L 109.553181 661.222019 
L 110.360661 734.364446 
L 110.7644 756.351321 
L 111.16814 771.498367 
L 111.57188 780.591837 
L 111.975619 785.230645 
L 112.379359 786.486623 
L 112.783099 784.364926 
L 113.186839 779.891864 
L 113.590578 773.694353 
L 114.398058 755.793944 
L 115.205537 733.352091 
L 116.416756 693.217717 
L 118.435455 615.628682 
L 121.261633 493.903786 
L 126.106509 270.642471 
L 129.740167 102.663914 
L 130.143906 88.178236 
L 130.547646 80.424502 
L 130.951386 85.464674 
L 131.355125 115.007133 
L 131.758865 179.00136 
L 133.777564 622.569952 
L 134.585043 708.429993 
L 134.988783 734.441041 
L 135.392522 752.516185 
L 135.796262 763.671825 
L 136.200002 769.629976 
L 136.603742 771.713332 
L 137.007481 770.028321 
L 137.411221 765.592279 
L 137.814961 759.216125 
L 138.62244 740.35221 
L 139.42992 716.440585 
L 140.641139 673.356056 
L 142.659837 589.775455 
L 145.486015 458.908872 
L 151.945851 145.714291 
L 152.34959 134.303183 
L 152.75333 132.477151 
L 153.15707 149.240991 
L 153.560809 194.723315 
L 154.368289 360.599633 
L 155.175768 531.011277 
L 155.983248 644.209263 
L 156.386987 680.581522 
L 156.790727 706.497778 
L 157.194467 724.407165 
L 157.598206 735.26625 
L 158.001946 740.685312 
L 158.405686 742.149154 
L 158.809426 739.7646 
L 159.213165 734.437709 
L 159.616905 727.131351 
L 160.424384 706.206387 
L 161.231864 680.075531 
L 162.443083 633.383403 
L 164.461782 544.216781 
L 165.673001 491.217194 
L 166.07674 477.431921 
L 166.48048 469.27072 
L 166.88422 471.698409 
L 167.287959 488.845163 
L 167.691699 522.465544 
L 169.306658 702.979879 
L 170.114137 756.696111 
L 170.517877 773.524594 
L 170.921617 784.550499 
L 171.325357 790.855462 
L 171.729096 793.839179 
L 172.132836 793.466103 
L 172.536576 790.400704 
L 172.940315 785.663726 
L 173.747795 770.528676 
L 174.555274 750.88125 
L 175.766493 714.843102 
L 177.785192 645.042553 
L 187.474945 289.723596 
L 187.878685 278.740587 
L 188.282424 271.424096 
L 188.686164 271.826781 
L 189.089904 284.247603 
L 189.493643 313.723901 
L 190.301123 423.427262 
L 191.512342 599.987895 
L 192.319821 673.155927 
L 192.723561 696.656886 
L 193.127301 712.865591 
L 193.531041 723.640767 
L 193.93478 729.381195 
L 194.33852 730.877019 
L 194.74226 729.486306 
L 195.145999 725.139207 
L 195.953479 709.797315 
L 196.760958 687.550322 
L 197.568438 660.80232 
L 199.183396 596.263298 
L 200.798355 522.957887 
L 203.220794 402.321088 
L 207.66193 175.402639 
L 208.06567 165.01973 
L 208.46941 165.927716 
L 208.873149 185.904974 
L 209.276889 232.035671 
L 210.084369 381.766458 
L 210.891848 527.891224 
L 211.699327 624.079789 
L 212.103067 654.82846 
L 212.506807 676.088799 
L 212.910547 690.217366 
L 213.314286 698.11039 
L 213.718026 700.752062 
L 214.121766 699.744304 
L 214.525505 695.292489 
L 215.332985 678.439977 
L 216.140464 653.730791 
L 217.351683 607.026732 
L 218.966642 533.018373 
L 220.985341 428.882605 
L 223.811519 272.843093 
L 226.637697 118.571566 
L 227.041436 103.377882 
L 227.445176 97.646062 
L 227.848916 108.657601 
L 228.252656 145.248337 
L 228.656395 211.207785 
L 230.271354 532.927258 
L 231.078833 623.110074 
L 231.482573 650.915064 
L 231.886313 669.393371 
L 232.290053 680.993679 
L 232.693792 686.754318 
L 233.097532 687.392451 
L 233.501272 684.532183 
L 233.905011 678.507014 
L 234.712491 658.632735 
L 235.51997 631.354013 
L 236.731189 581.100075 
L 238.346148 502.736749 
L 240.364847 393.703151 
L 243.998504 190.853154 
L 244.402244 175.300718 
L 244.805984 168.292815 
L 245.209723 176.253187 
L 245.613463 207.742797 
L 246.017203 264.842609 
L 247.632162 547.484787 
L 248.439641 627.557402 
L 248.843381 651.34098 
L 249.24712 667.236942 
L 249.65086 676.458386 
L 250.0546 679.850196 
L 250.458339 679.147449 
L 250.862079 674.854574 
L 251.265819 667.182959 
L 252.073298 645.536445 
L 253.284517 600.156427 
L 254.899476 524.722811 
L 256.918175 417.666318 
L 260.148093 240.862915 
L 260.551832 227.084732 
L 260.955572 222.278393 
L 261.359312 233.710866 
L 261.763051 267.175487 
L 262.570531 390.020657 
L 263.37801 520.086958 
L 264.18549 608.876569 
L 264.589229 636.753072 
L 264.992969 656.159568 
L 265.396709 668.371383 
L 265.800448 674.186261 
L 266.204188 675.455417 
L 266.607928 672.829403 
L 267.011668 666.486419 
L 267.819147 646.845996 
L 268.626626 619.092742 
L 269.837846 567.908578 
L 271.452804 488.135185 
L 275.490201 275.321319 
L 275.893941 265.711738 
L 276.297681 267.758935 
L 276.701421 286.468971 
L 277.10516 325.188877 
L 279.123859 585.797687 
L 279.527599 614.898427 
L 279.931338 635.398015 
L 280.335078 648.03412 
L 280.738818 654.74912 
L 281.142557 656.545351 
L 281.546297 653.713927 
L 281.950037 647.676822 
L 282.353776 638.948285 
L 283.161256 614.091463 
L 283.968735 582.643267 
L 285.179954 527.094719 
L 287.198653 429.355648 
L 287.602393 414.273626 
L 288.006132 405.042163 
L 288.409872 404.949474 
L 288.813612 416.612988 
L 289.217352 441.788679 
L 291.23605 618.591681 
L 291.63979 639.006474 
L 292.04353 653.129681 
L 292.447269 661.094437 
L 292.851009 664.396252 
L 293.254749 663.777767 
L 293.658488 659.239078 
L 294.062228 652.011488 
L 294.869707 630.556295 
L 295.677187 602.239355 
L 296.888406 550.179047 
L 298.907105 447.873822 
L 302.137022 275.203742 
L 302.540762 262.498585 
L 302.944502 260.710102 
L 303.348241 276.343206 
L 303.751981 315.523174 
L 304.55946 445.61172 
L 305.36694 571.700942 
L 306.174419 653.127896 
L 306.578159 678.695037 
L 306.981899 695.641672 
L 307.385638 706.032855 
L 307.789378 711.246688 
L 308.193118 711.593272 
L 308.596858 708.473655 
L 309.000597 702.662104 
L 309.808077 683.351803 
L 310.615556 657.405139 
L 311.826775 609.57472 
L 313.441734 535.20013 
L 315.460433 432.67464 
L 320.305309 175.710592 
L 320.709049 160.9222 
L 321.112789 155.378127 
L 321.516528 166.652231 
L 321.920268 205.459935 
L 322.727747 363.750259 
L 323.535227 534.403411 
L 324.342706 649.238971 
L 324.746446 686.800983 
L 325.150186 713.498854 
L 325.553925 731.787055 
L 325.957665 743.59661 
L 326.361405 749.615441 
L 326.765144 751.329592 
L 327.168884 749.821168 
L 327.572624 745.053549 
L 328.380103 729.261238 
L 329.187583 706.460743 
L 329.995062 679.294326 
L 331.610021 615.322553 
L 333.22498 543.972535 
L 336.858637 369.952707 
L 341.703514 133.908226 
L 342.510993 100.522001 
L 342.914733 90.85253 
L 343.318473 92.135521 
L 343.722212 114.876395 
L 344.125952 169.916715 
L 344.933431 358.111876 
L 345.740911 542.510063 
L 346.54839 663.975902 
L 347.35587 732.460913 
L 347.759609 753.136174 
L 348.163349 766.6113 
L 348.567089 774.674871 
L 348.970828 778.682362 
L 349.374568 778.773962 
L 349.778308 776.013441 
L 350.182048 771.220986 
L 350.989527 755.345747 
L 351.797006 734.263286 
L 353.008226 695.303182 
L 354.623184 634.54938 
L 356.641883 550.703848 
L 361.08302 351.965566 
L 366.735376 95.025965 
L 367.542855 65.452961 
L 367.946595 57.752551 
L 368.350334 62.793646 
L 368.754074 90.125961 
L 369.157814 149.461026 
L 371.176512 597.480283 
L 371.983992 690.834056 
L 372.387732 720.189295 
L 372.791471 740.728001 
L 373.195211 754.778705 
L 373.598951 763.076433 
L 374.00269 766.736463 
L 374.40643 767.190524 
L 374.81017 764.456659 
L 375.21391 759.115692 
L 375.617649 752.160261 
L 376.425129 732.778519 
L 377.232608 708.897971 
L 378.847567 650.587455 
L 380.462526 584.096347 
L 382.884964 474.68772 
L 386.518621 305.353238 
L 386.922361 291.45509 
L 387.326101 283.353685 
L 387.72984 286.609118 
L 388.13358 306.854464 
L 388.53732 347.861126 
L 390.556018 633.046782 
L 391.363498 690.030581 
L 391.767238 706.432217 
L 392.170977 716.329687 
L 392.574717 721.521518 
L 392.978457 722.323357 
L 393.382196 719.434273 
L 393.785936 714.112625 
L 394.189676 706.22882 
L 394.997155 684.768475 
L 396.208374 642.416021 
L 397.823333 574.549383 
L 399.438292 506.98036 
L 399.842032 495.573821 
L 400.245771 489.810599 
L 400.649511 492.570749 
L 401.053251 506.853512 
L 401.456991 531.943901 
L 403.071949 661.177186 
L 403.879429 700.836555 
L 404.283169 712.074356 
L 404.686908 719.026367 
L 405.090648 721.787655 
L 405.494388 720.881678 
L 405.898127 717.495057 
L 406.301867 711.507433 
L 407.109347 693.555439 
L 407.916826 669.416717 
L 409.128045 625.557297 
L 410.743004 557.58205 
L 413.165442 443.865594 
L 419.221538 150.423532 
L 419.625277 138.177877 
L 420.029017 133.731533 
L 420.432757 144.679076 
L 420.836497 179.079278 
L 421.240236 240.646826 
L 422.855195 560.985235 
L 423.662675 657.924219 
L 424.066414 689.702198 
L 424.470154 712.610744 
L 424.873894 728.028456 
L 425.277633 738.088351 
L 425.681373 743.367754 
L 426.085113 744.476307 
L 426.488853 742.867483 
L 426.892592 738.583192 
L 427.700072 723.639192 
L 428.507551 702.469074 
L 429.71877 662.987781 
L 431.333729 600.771427 
L 433.352428 513.249761 
L 436.178606 381.60821 
L 441.427222 133.142038 
L 441.830961 122.799561 
L 442.234701 123.208649 
L 442.638441 141.842301 
L 443.042181 185.983161 
L 443.84966 341.901383 
L 444.657139 503.031885 
L 445.464619 613.549363 
L 446.272098 676.827543 
L 446.675838 694.83484 
L 447.079578 706.533397 
L 447.483317 712.862599 
L 447.887057 714.37556 
L 448.290797 712.648886 
L 448.694537 707.99724 
L 449.502016 691.255033 
L 450.309495 667.562733 
L 451.520714 623.136533 
L 453.135673 552.990321 
L 455.154372 454.538077 
L 458.38429 285.177042 
L 461.210467 135.556989 
L 461.614207 118.453579 
L 462.017947 107.241733 
L 462.421687 107.238303 
L 462.825426 128.506099 
L 463.229166 179.365928 
L 464.036645 350.709779 
L 464.844125 518.402015 
L 465.651604 629.058805 
L 466.055344 664.338518 
L 466.459084 689.826397 
L 466.862823 707.136245 
L 467.266563 717.385415 
L 467.670303 722.688472 
L 468.074043 723.75027 
L 468.477782 720.857661 
L 468.881522 715.459029 
L 469.285262 707.764699 
L 470.092741 686.218593 
L 470.90022 659.108405 
L 472.11144 611.218033 
L 473.726398 538.476155 
L 475.745097 438.928306 
L 479.378754 249.133032 
L 481.801193 125.502311 
L 482.204932 110.694882 
L 482.608672 104.035099 
L 483.012412 112.577016 
L 483.416151 147.608779 
L 483.819891 214.602811 
L 485.43485 560.614711 
L 486.242329 660.005415 
L 486.646069 690.856261 
L 487.049809 712.655858 
L 487.453549 727.079964 
L 487.857288 735.094058 
L 488.261028 738.573475 
L 488.664768 738.283241 
L 489.068507 734.389332 
L 489.472247 728.171433 
L 490.279727 709.467676 
L 491.087206 684.936975 
L 492.298425 639.888133 
L 494.317124 551.474793 
L 496.335822 453.994344 
L 500.373219 247.15936 
L 503.603137 84.802883 
L 504.006877 71.820095 
L 504.410616 68.95821 
L 504.814356 84.928976 
L 505.218096 131.825517 
L 506.025575 313.60155 
L 506.833055 504.336674 
L 507.640534 631.366568 
L 508.044274 672.883932 
L 508.448013 702.591316 
L 508.851753 723.250858 
L 509.255493 736.80133 
L 509.659233 744.150381 
L 510.062972 746.960616 
L 510.466712 746.208176 
L 510.870452 741.997812 
L 511.274191 735.411239 
L 512.081671 716.37505 
L 512.88915 691.568819 
L 514.100369 646.415192 
L 516.119068 558.126909 
L 518.137766 460.973178 
L 522.578903 233.954621 
L 523.790122 174.814278 
L 524.193862 159.243118 
L 524.597602 150.654256 
L 525.001341 156.062494 
L 525.405081 184.472238 
L 525.808821 242.705845 
L 527.42378 567.568031 
L 528.231259 662.421708 
L 528.634999 692.202609 
L 529.038739 712.463421 
L 529.442478 725.364703 
L 529.846218 732.729368 
L 530.249958 734.977897 
L 530.653697 733.391056 
L 531.057437 729.027902 
L 531.461177 721.714593 
L 532.268656 701.418753 
L 533.479875 659.952642 
L 535.094834 591.757996 
L 537.517272 474.778337 
L 539.132231 395.666222 
L 539.939711 366.895656 
L 540.34345 361.982099 
L 540.74719 369.50795 
L 541.15093 392.529718 
L 541.958409 479.869855 
L 542.765889 574.962768 
L 543.573368 641.021848 
L 543.977108 661.3848 
L 544.380848 675.051961 
L 544.784587 682.364555 
L 545.188327 684.655397 
L 545.592067 683.200789 
L 545.995806 677.957566 
L 546.803286 659.715424 
L 547.610765 633.037932 
L 548.418245 600.966384 
L 550.033203 524.820706 
L 552.859381 381.511614 
L 553.263121 368.321652 
L 553.666861 363.696316 
L 554.070601 373.32227 
L 554.47434 400.374236 
L 555.28182 496.346035 
L 556.089299 594.218683 
L 556.896778 659.437208 
L 557.300518 679.063541 
L 557.704258 692.089365 
L 558.107998 698.904138 
L 558.511737 700.794184 
L 558.915477 699.111509 
L 559.319217 693.785691 
L 560.126696 675.640528 
L 560.934176 649.419004 
L 561.741655 618.088696 
L 563.356614 543.773753 
L 565.375312 438.662987 
L 569.412709 220.015965 
L 569.816449 209.101292 
L 570.220189 210.511458 
L 570.623929 232.933418 
L 571.027668 282.478213 
L 572.642627 569.068216 
L 573.450107 654.552997 
L 573.853846 680.67472 
L 574.257586 698.104162 
L 574.661326 708.9817 
L 575.065065 714.010762 
L 575.468805 714.366319 
L 575.872545 711.422059 
L 576.276284 705.206039 
L 577.083764 685.820831 
L 577.891243 659.171819 
L 579.102462 610.579028 
L 580.717421 535.340668 
L 583.13986 409.570134 
L 587.984736 153.452204 
L 588.388476 144.706982 
L 588.792215 149.907492 
L 589.195955 178.895481 
L 589.599695 236.320211 
L 591.214654 550.681329 
L 592.022133 643.815751 
L 592.425873 672.555778 
L 592.829613 692.726227 
L 593.233352 705.378322 
L 593.637092 711.966457 
L 594.040832 714.231832 
L 594.444571 712.410001 
L 594.848311 707.232578 
L 595.252051 699.874034 
L 596.05953 678.383995 
L 596.86701 651.184714 
L 598.078229 602.217966 
L 601.308146 457.327521 
L 601.711886 445.484712 
L 602.115626 439.81162 
L 602.519366 444.220013 
L 602.923105 460.690358 
L 603.326845 488.968194 
L 604.941804 632.884773 
L 605.749283 675.715821 
L 606.153023 688.347812 
L 606.556763 695.707334 
L 606.960502 698.465552 
L 607.364242 697.955689 
L 607.767982 694.184109 
L 608.575461 679.147714 
L 609.382941 656.437867 
L 610.19042 628.693795 
L 611.805379 561.512319 
L 613.420338 485.515737 
L 616.246516 341.223328 
L 618.265214 238.382052 
L 618.668954 221.640937 
L 619.072694 209.935078 
L 619.476433 209.127796 
L 619.880173 226.638952 
L 620.283913 269.436087 
L 621.091392 417.475876 
L 621.898872 565.578041 
L 622.706351 665.567226 
L 623.51383 722.790978 
L 623.91757 739.163818 
L 624.32131 749.967243 
L 624.72505 755.884792 
L 625.128789 757.536599 
L 625.532529 756.370407 
L 625.936269 752.507105 
L 626.743748 738.311669 
L 627.551228 717.891786 
L 628.762447 679.612942 
L 630.377405 619.400268 
L 632.396104 535.450669 
L 636.029761 375.573857 
L 641.278378 148.328157 
L 642.085857 117.820881 
L 642.489597 106.151966 
L 642.893336 100.123297 
L 643.297076 104.599075 
L 643.700816 128.355715 
L 644.104556 178.596241 
L 644.912035 345.811024 
L 645.719514 517.659233 
L 646.526994 638.778014 
L 647.334473 711.572358 
L 647.738213 734.785659 
L 648.141953 750.856872 
L 648.545692 761.849648 
L 648.949432 768.369534 
L 649.353172 770.853933 
L 649.756911 770.735027 
L 650.160651 768.128458 
L 650.968131 756.64825 
L 651.77561 739.242778 
L 652.583089 717.910404 
L 654.198048 665.583549 
L 655.813007 605.914309 
L 658.235445 507.846589 
L 661.465363 368.892071 
L 667.117719 124.474334 
L 667.521459 112.101401 
L 667.925198 106.549664 
L 668.328938 113.614409 
L 668.732678 141.584696 
L 669.136418 198.051589 
L 671.155116 601.194669 
L 671.962595 687.982482 
L 672.366335 715.444487 
L 672.770075 735.286868 
L 673.173815 748.848659 
L 673.577554 756.824621 
L 673.981294 760.886562 
L 674.385034 761.633802 
L 674.788773 759.138727 
L 675.192513 754.597773 
L 675.596253 748.229253 
L 676.403732 730.271992 
L 677.211212 707.67227 
L 678.422431 667.539575 
L 680.03739 606.206759 
L 682.056088 521.72222 
L 685.286006 377.750011 
L 686.497225 322.271651 
L 686.497225 322.271651 
" clip-path="url(#p9ec0b6c720)" style="fill: none; stroke: #ff7f0e; stroke-width: 1.5; stroke-linecap: square"/>
   </g>
   <g id="patch_3">
    <path d="M 45.94399 830.64351 
L 45.94399 20.94822 
" style="fill: none; stroke: #000000; stroke-width: 0.8; stroke-linejoin: miter; stroke-linecap: square"/>
   </g>
   <g id="patch_4">
    <path d="M 716.99976 830.64351 
L 716.99976 20.94822 
" style="fill: none; stroke: #000000; stroke-width: 0.8; stroke-linejoin: miter; stroke-linecap: square"/>
   </g>
   <g id="patch_5">
    <path d="M 45.94399 830.64351 
L 716.99976 830.64351 
" style="fill: none; stroke: #000000; stroke-width: 0.8; stroke-linejoin: miter; stroke-linecap: square"/>
   </g>
   <g id="patch_6">
    <path d="M 45.94399 20.94822 
L 716.99976 20.94822 
" style="fill: none; stroke: #000000; stroke-width: 0.8; stroke-linejoin: miter; stroke-linecap: square"/>
   </g>
   <g id="legend_1">
    <g id="patch_7">
     <path d="M 663.23726 50.83322 
L 711.39976 50.83322 
Q 712.99976 50.83322 712.99976 49.23322 
L 712.99976 26.54822 
Q 712.99976 24.94822 711.39976 24.94822 
L 663.23726 24.94822 
Q 661.63726 24.94822 661.63726 26.54822 
L 661.63726 49.23322 
Q 661.63726 50.83322 663.23726 50.83322 
z
" style="fill: #ffffff; opacity: 0.8; stroke: #cccccc; stroke-linejoin: miter"/>
    </g>
    <g id="line2d_15">
     <path d="M 664.83726 31.42697 
L 672.83726 31.42697 
L 680.83726 31.42697 
" style="fill: none; stroke: #1f77b4; stroke-width: 1.5; stroke-linecap: square"/>
    </g>
    <g id="text_15">
     <!-- t=0.0 -->
     <g transform="translate(687.23726 34.22697) scale(0.08 -0.08)">
      <defs>
       <path id="DejaVuSans-74" d="M 1172 4494 
L 1172 3500 
L 2356 3500 
L 2356 3053 
L 1172 3053 
L 1172 1153 
Q 1172 725 1289 603 
Q 1406 481 1766 481 
L 2356 481 
L 2356 0 
L 1766 0 
Q 1100 0 847 248 
Q 594 497 594 1153 
L 594 3053 
L 172 3053 
L 172 3500 
L 594 3500 
L 594 4494 
L 1172 4494 
z
" transform="scale(0.015625)"/>
       <path id="DejaVuSans-3d" d="M 678 2906 
L 4684 2906 
L 4684 2381 
L 678 2381 
L 678 2906 
z
M 678 1631 
L 4684 1631 
L 4684 1100 
L 678 1100 
L 678 1631 
z
" transform="scale(0.015625)"/>
      </defs>
      <use xlink:href="#DejaVuSans-74"/>
      <use xlink:href="#DejaVuSans-3d" x="39.208984"/>
      <use xlink:href="#DejaVuSans-30" x="122.998047"/>
      <use xlink:href="#DejaVuSans-2e" x="186.621094"/>
      <use xlink:href="#DejaVuSans-30" x="218.408203"/>
     </g>
    </g>
    <g id="line2d_16">
     <path d="M 664.83726 43.16947 
L 672.83726 43.16947 
L 680.83726 43.16947 
" style="fill: none; stroke: #ff7f0e; stroke-width: 1.5; stroke-linecap: square"/>
    </g>
    <g id="text_16">
     <!-- t=1.0 -->
     <g transform="translate(687.23726 45.96947) scale(0.08 -0.08)">
      <use xlink:href="#DejaVuSans-74"/>
      <use xlink:href="#DejaVuSans-3d" x="39.208984"/>
      <use xlink:href="#DejaVuSans-31" x="122.998047"/>
      <use xlink:href="#DejaVuSans-2e" x="186.621094"/>
      <use xlink:href="#DejaVuSans-30" x="218.408203"/>
     </g>
    </g>
   </g>
  </g>
  <g id="text_17">
   <!-- Density snapshots for modes m=1..5  [seed_modes_1to5] -->
   <g transform="translate(185.743125 12.118365) scale(0.12 -0.12)">
    <defs>
     <path id="DejaVuSans-44" d="M 1259 4147 
L 1259 519 
L 2022 519 
Q 2988 519 3436 956 
Q 3884 1394 3884 2338 
Q 3884 3275 3436 3711 
Q 2988 4147 2022 4147 
L 1259 4147 
z
M 628 4666 
L 1925 4666 
Q 3281 4666 3915 4102 
Q 4550 3538 4550 2338 
Q 4550 1131 3912 565 
Q 3275 0 1925 0 
L 628 0 
L 628 4666 
z
" transform="scale(0.015625)"/>
     <path id="DejaVuSans-65" d="M 3597 1894 
L 3597 1613 
L 953 1613 
Q 991 1019 1311 708 
Q 1631 397 2203 397 
Q 2534 397 2845 478 
Q 3156 559 3463 722 
L 3463 178 
Q 3153 47 2828 -22 
Q 2503 -91 2169 -91 
Q 1331 -91 842 396 
Q 353 884 353 1716 
Q 353 2575 817 3079 
Q 1281 3584 2069 3584 
Q 2775 3584 3186 3129 
Q 3597 2675 3597 1894 
z
M 3022 2063 
Q 3016 2534 2758 2815 
Q 2500 3097 2075 3097 
Q 1594 3097 1305 2825 
Q 1016 2553 972 2059 
L 3022 2063 
z
" transform="scale(0.015625)"/>
     <path id="DejaVuSans-6e" d="M 3513 2113 
L 3513 0 
L 2938 0 
L 2938 2094 
Q 2938 2591 2744 2837 
Q 2550 3084 2163 3084 
Q 1697 3084 1428 2787 
Q 1159 2491 1159 1978 
L 1159 0 
L 581 0 
L 581 3500 
L 1159 3500 
L 1159 2956 
Q 1366 3272 1645 3428 
Q 1925 3584 2291 3584 
Q 2894 3584 3203 3211 
Q 3513 2838 3513 2113 
z
" transform="scale(0.015625)"/>
     <path id="DejaVuSans-69" d="M 603 3500 
L 1178 3500 
L 1178 0 
L 603 0 
L 603 3500 
z
M 603 4863 
L 1178 4863 
L 1178 4134 
L 603 4134 
L 603 4863 
z
" transform="scale(0.015625)"/>
     <path id="DejaVuSans-79" d="M 2059 -325 
Q 1816 -950 1584 -1140 
Q 1353 -1331 966 -1331 
L 506 -1331 
L 506 -850 
L 844 -850 
Q 1081 -850 1212 -737 
Q 1344 -625 1503 -206 
L 1606 56 
L 191 3500 
L 800 3500 
L 1894 763 
L 2988 3500 
L 3597 3500 
L 2059 -325 
z
" transform="scale(0.015625)"/>
     <path id="DejaVuSans-20" transform="scale(0.015625)"/>
     <path id="DejaVuSans-61" d="M 2194 1759 
Q 1497 1759 1228 1600 
Q 959 1441 959 1056 
Q 959 750 1161 570 
Q 1363 391 1709 391 
Q 2188 391 2477 730 
Q 2766 1069 2766 1631 
L 2766 1759 
L 2194 1759 
z
M 3341 1997 
L 3341 0 
L 2766 0 
L 2766 531 
Q 2569 213 2275 61 
Q 1981 -91 1556 -91 
Q 1019 -91 701 211 
Q 384 513 384 1019 
Q 384 1609 779 1909 
Q 1175 2209 1959 2209 
L 2766 2209 
L 2766 2266 
Q 2766 2663 2505 2880 
Q 2244 3097 1772 3097 
Q 1472 3097 1187 3025 
Q 903 2953 641 2809 
L 641 3341 
Q 956 3463 1253 3523 
Q 1550 3584 1831 3584 
Q 2591 3584 2966 3190 
Q 3341 2797 3341 1997 
z
" transform="scale(0.015625)"/>
     <path id="DejaVuSans-70" d="M 1159 525 
L 1159 -1331 
L 581 -1331 
L 581 3500 
L 1159 3500 
L 1159 2969 
Q 1341 3281 1617 3432 
Q 1894 3584 2278 3584 
Q 2916 3584 3314 3078 
Q 3713 2572 3713 1747 
Q 3713 922 3314 415 
Q 2916 -91 2278 -91 
Q 1894 -91 1617 61 
Q 1341 213 1159 525 
z
M 3116 1747 
Q 3116 2381 2855 2742 
Q 2594 3103 2138 3103 
Q 1681 3103 1420 2742 
Q 1159 2381 1159 1747 
Q 1159 1113 1420 752 
Q 1681 391 2138 391 
Q 2594 391 2855 752 
Q 3116 1113 3116 1747 
z
" transform="scale(0.015625)"/>
     <path id="DejaVuSans-68" d="M 3513 2113 
L 3513 0 
L 2938 0 
L 2938 2094 
Q 2938 2591 2744 2837 
Q 2550 3084 2163 3084 
Q 1697 3084 1428 2787 
Q 1159 2491 1159 1978 
L 1159 0 
L 581 0 
L 581 4863 
L 1159 4863 
L 1159 2956 
Q 1366 3272 1645 3428 
Q 1925 3584 2291 3584 
Q 2894 3584 3203 3211 
Q 3513 2838 3513 2113 
z
" transform="scale(0.015625)"/>
     <path id="DejaVuSans-66" d="M 2375 4863 
L 2375 4384 
L 1825 4384 
Q 1516 4384 1395 4259 
Q 1275 4134 1275 3809 
L 1275 3500 
L 2222 3500 
L 2222 3053 
L 1275 3053 
L 1275 0 
L 697 0 
L 697 3053 
L 147 3053 
L 147 3500 
L 697 3500 
L 697 3744 
Q 697 4328 969 4595 
Q 1241 4863 1831 4863 
L 2375 4863 
z
" transform="scale(0.015625)"/>
     <path id="DejaVuSans-72" d="M 2631 2963 
Q 2534 3019 2420 3045 
Q 2306 3072 2169 3072 
Q 1681 3072 1420 2755 
Q 1159 2438 1159 1844 
L 1159 0 
L 581 0 
L 581 3500 
L 1159 3500 
L 1159 2956 
Q 1341 3275 1631 3429 
Q 1922 3584 2338 3584 
Q 2397 3584 2469 3576 
Q 2541 3569 2628 3553 
L 2631 2963 
z
" transform="scale(0.015625)"/>
     <path id="DejaVuSans-6d" d="M 3328 2828 
Q 3544 3216 3844 3400 
Q 4144 3584 4550 3584 
Q 5097 3584 5394 3201 
Q 5691 2819 5691 2113 
L 5691 0 
L 5113 0 
L 5113 2094 
Q 5113 2597 4934 2840 
Q 4756 3084 4391 3084 
Q 3944 3084 3684 2787 
Q 3425 2491 3425 1978 
L 3425 0 
L 2847 0 
L 2847 2094 
Q 2847 2600 2669 2842 
Q 2491 3084 2119 3084 
Q 1678 3084 1418 2786 
Q 1159 2488 1159 1978 
L 1159 0 
L 581 0 
L 581 3500 
L 1159 3500 
L 1159 2956 
Q 1356 3278 1631 3431 
Q 1906 3584 2284 3584 
Q 2666 3584 2933 3390 
Q 3200 3197 3328 2828 
z
" transform="scale(0.015625)"/>
     <path id="DejaVuSans-64" d="M 2906 2969 
L 2906 4863 
L 3481 4863 
L 3481 0 
L 2906 0 
L 2906 525 
Q 2725 213 2448 61 
Q 2172 -91 1784 -91 
Q 1150 -91 751 415 
Q 353 922 353 1747 
Q 353 2572 751 3078 
Q 1150 3584 1784 3584 
Q 2172 3584 2448 3432 
Q 2725 3281 2906 2969 
z
M 947 1747 
Q 947 1113 1208 752 
Q 1469 391 1925 391 
Q 2381 391 2643 752 
Q 2906 1113 2906 1747 
Q 2906 2381 2643 2742 
Q 2381 3103 1925 3103 
Q 1469 3103 1208 2742 
Q 947 2381 947 1747 
z
" transform="scale(0.015625)"/>
     <path id="DejaVuSans-5b" d="M 550 4863 
L 1875 4863 
L 1875 4416 
L 1125 4416 
L 1125 -397 
L 1875 -397 
L 1875 -844 
L 550 -844 
L 550 4863 
z
" transform="scale(0.015625)"/>
     <path id="DejaVuSans-5f" d="M 3263 -1063 
L 3263 -1509 
L -63 -1509 
L -63 -1063 
L 3263 -1063 
z
" transform="scale(0.015625)"/>
     <path id="DejaVuSans-5d" d="M 1947 4863 
L 1947 -844 
L 622 -844 
L 622 -397 
L 1369 -397 
L 1369 4416 
L 622 4416 
L 622 4863 
L 1947 4863 
z
" transform="scale(0.015625)"/>
    </defs>
    <use xlink:href="#DejaVuSans-44"/>
    <use xlink:href="#DejaVuSans-65" x="77.001953"/>
    <use xlink:href="#DejaVuSans-6e" x="138.525391"/>
    <use xlink:href="#DejaVuSans-73" x="201.904297"/>
    <use xlink:href="#DejaVuSans-69" x="254.003906"/>
    <use xlink:href="#DejaVuSans-74" x="281.787109"/>
    <use xlink:href="#DejaVuSans-79" x="320.996094"/>
    <use xlink:href="#DejaVuSans-20" x="380.175781"/>
    <use xlink:href="#DejaVuSans-73" x="411.962891"/>
    <use xlink:href="#DejaVuSans-6e" x="464.0625"/>
    <use xlink:href="#DejaVuSans-61" x="527.441406"/>
    <use xlink:href="#DejaVuSans-70" x="588.720703"/>
    <use xlink:href="#DejaVuSans-73" x="652.197266"/>
    <use xlink:href="#DejaVuSans-68" x="704.296875"/>
    <use xlink:href="#DejaVuSans-6f" x="767.675781"/>
    <use xlink:href="#DejaVuSans-74" x="828.857422"/>
    <use xlink:href="#DejaVuSans-73" x="868.066406"/>
    <use xlink:href="#DejaVuSans-20" x="920.166016"/>
    <use xlink:href="#DejaVuSans-66" x="951.953125"/>
    <use xlink:href="#DejaVuSans-6f" x="987.158203"/>
    <use xlink:href="#DejaVuSans-72" x="1048.339844"/>
    <use xlink:href="#DejaVuSans-20" x="1089.453125"/>
    <use xlink:href="#DejaVuSans-6d" x="1121.240234"/>
    <use xlink:href="#DejaVuSans-6f" x="1218.652344"/>
    <use xlink:href="#DejaVuSans-64" x="1279.833984"/>
    <use xlink:href="#DejaVuSans-65" x="1343.310547"/>
    <use xlink:href="#DejaVuSans-73" x="1404.833984"/>
    <use xlink:href="#DejaVuSans-20" x="1456.933594"/>
    <use xlink:href="#DejaVuSans-6d" x="1488.720703"/>
    <use xlink:href="#DejaVuSans-3d" x="1586.132812"/>
    <use xlink:href="#DejaVuSans-31" x="1669.921875"/>
    <use xlink:href="#DejaVuSans-2e" x="1733.544922"/>
    <use xlink:href="#DejaVuSans-2e" x="1765.332031"/>
    <use xlink:href="#DejaVuSans-35" x="1797.119141"/>
    <use xlink:href="#DejaVuSans-20" x="1860.742188"/>
    <use xlink:href="#DejaVuSans-20" x="1892.529297"/>
    <use xlink:href="#DejaVuSans-5b" x="1924.316406"/>
    <use xlink:href="#DejaVuSans-73" x="1963.330078"/>
    <use xlink:href="#DejaVuSans-65" x="2015.429688"/>
    <use xlink:href="#DejaVuSans-65" x="2076.953125"/>
    <use xlink:href="#DejaVuSans-64" x="2138.476562"/>
    <use xlink:href="#DejaVuSans-5f" x="2201.953125"/>
    <use xlink:href="#DejaVuSans-6d" x="2251.953125"/>
    <use xlink:href="#DejaVuSans-6f" x="2349.365234"/>
    <use xlink:href="#DejaVuSans-64" x="2410.546875"/>
    <use xlink:href="#DejaVuSans-65" x="2474.023438"/>
    <use xlink:href="#DejaVuSans-73" x="2535.546875"/>
    <use xlink:href="#DejaVuSans-5f" x="2587.646484"/>
    <use xlink:href="#DejaVuSans-31" x="2637.646484"/>
    <use xlink:href="#DejaVuSans-74" x="2701.269531"/>
    <use xlink:href="#DejaVuSans-6f" x="2740.478516"/>
    <use xlink:href="#DejaVuSans-35" x="2801.660156"/>
    <use xlink:href="#DejaVuSans-5d" x="2865.283203"/>
   </g>
  </g>
 </g>
 <defs>
  <clipPath id="p9ec0b6c720">
   <rect x="45.94399" y="20.94822" width="671.05577" height="809.69529"/>
  </clipPath>
 </defs>
</svg>
