<?xml version="1.0" encoding="utf-8" standalone="no"?>
<!DOCTYPE svg PUBLIC "-//W3C//DTD SVG 1.1//EN"
  "http://www.w3.org/Graphics/SVG/1.1/DTD/svg11.dtd">
<svg xmlns:xlink="http://www.w3.org/1999/xlink" width="720pt" height="864pt" viewBox="0 0 720 864" xmlns="http://www.w3.org/2000/svg" version="1.1">
 <metadata>
  <rdf:RDF xmlns:dc="http://purl.org/dc/elements/1.1/" xmlns:cc="http://creativecommons.org/ns#" xmlns:rdf="http://www.w3.org/1999/02/22-rdf-syntax-ns#">
   <cc:Work>
    <dc:type rdf:resource="http://purl.org/dc/dcmitype/StillImage"/>
    <dc:date>2025-08-30T14:42:32.651875</dc:date>
    <dc:format>image/svg+xml</dc:format>
    <dc:creator>
     <cc:Agent>
      <dc:title>Matplotlib v3.8.4, https://matplotlib.org/</dc:title>
     </cc:Agent>
    </dc:creator>
   </cc:Work>
  </rdf:RDF>
 </metadata>
 <defs>
  <style type="text/css">*{stroke-linejoin: round; stroke-linecap: butt}</style>
 </defs>
 <g id="figure_1">
  <g id="patch_1">
   <path d="M 0 864 
L 720 864 
L 720 0 
L 0 0 
z
" style="fill: #ffffff"/>
  </g>
  <g id="axes_1">
   <g id="patch_2">
    <path d="M 31.008677 175.286894 
L 716.99976 175.286894 
L 716.99976 20.94822 
L 31.008677 20.94822 
z
" style="fill: #ffffff"/>
   </g>
   <g id="matplotlib.axis_1">
    <g id="xtick_1">
     <g id="line2d_1">
      <defs>
       <path id="mafac5bf4d2" d="M 0 0 
L 0 3.5 
" style="stroke: #000000; stroke-width: 0.8"/>
      </defs>
      <g>
       <use xlink:href="#mafac5bf4d2" x="62.19009" y="175.286894" style="stroke: #000000; stroke-width: 0.8"/>
      </g>
     </g>
    </g>
    <g id="xtick_2">
     <g id="line2d_2">
      <g>
       <use xlink:href="#mafac5bf4d2" x="187.159823" y="175.286894" style="stroke: #000000; stroke-width: 0.8"/>
      </g>
     </g>
    </g>
    <g id="xtick_3">
     <g id="line2d_3">
      <g>
       <use xlink:href="#mafac5bf4d2" x="312.129556" y="175.286894" style="stroke: #000000; stroke-width: 0.8"/>
      </g>
     </g>
    </g>
    <g id="xtick_4">
     <g id="line2d_4">
      <g>
       <use xlink:href="#mafac5bf4d2" x="437.099289" y="175.286894" style="stroke: #000000; stroke-width: 0.8"/>
      </g>
     </g>
    </g>
    <g id="xtick_5">
     <g id="line2d_5">
      <g>
       <use xlink:href="#mafac5bf4d2" x="562.069022" y="175.286894" style="stroke: #000000; stroke-width: 0.8"/>
      </g>
     </g>
    </g>
    <g id="xtick_6">
     <g id="line2d_6">
      <g>
       <use xlink:href="#mafac5bf4d2" x="687.038755" y="175.286894" style="stroke: #000000; stroke-width: 0.8"/>
      </g>
     </g>
    </g>
   </g>
   <g id="matplotlib.axis_2">
    <g id="ytick_1">
     <g id="line2d_7">
      <defs>
       <path id="m8582945c5f" d="M 0 0 
L -3.5 0 
" style="stroke: #000000; stroke-width: 0.8"/>
      </defs>
      <g>
       <use xlink:href="#m8582945c5f" x="31.008677" y="141.714847" style="stroke: #000000; stroke-width: 0.8"/>
      </g>
     </g>
     <g id="text_1">
      <!-- 1 -->
      <g style="fill: #ff0000" transform="translate(17.646177 145.514066) scale(0.1 -0.1)">
       <defs>
        <path id="DejaVuSans-31" d="M 794 531 
L 1825 531 
L 1825 4091 
L 703 3866 
L 703 4441 
L 1819 4666 
L 2450 4666 
L 2450 531 
L 3481 531 
L 3481 0 
L 794 0 
L 794 531 
z
" transform="scale(0.015625)"/>
       </defs>
       <use xlink:href="#DejaVuSans-31"/>
      </g>
     </g>
    </g>
    <g id="ytick_2">
     <g id="line2d_8">
      <g>
       <use xlink:href="#m8582945c5f" x="31.008677" y="104.048876" style="stroke: #000000; stroke-width: 0.8"/>
      </g>
     </g>
     <g id="text_2">
      <!-- 2 -->
      <g style="fill: #ff0000" transform="translate(17.646177 107.848095) scale(0.1 -0.1)">
       <defs>
        <path id="DejaVuSans-32" d="M 1228 531 
L 3431 531 
L 3431 0 
L 469 0 
L 469 531 
Q 828 903 1448 1529 
Q 2069 2156 2228 2338 
Q 2531 2678 2651 2914 
Q 2772 3150 2772 3378 
Q 2772 3750 2511 3984 
Q 2250 4219 1831 4219 
Q 1534 4219 1204 4116 
Q 875 4013 500 3803 
L 500 4441 
Q 881 4594 1212 4672 
Q 1544 4750 1819 4750 
Q 2544 4750 2975 4387 
Q 3406 4025 3406 3419 
Q 3406 3131 3298 2873 
Q 3191 2616 2906 2266 
Q 2828 2175 2409 1742 
Q 1991 1309 1228 531 
z
" transform="scale(0.015625)"/>
       </defs>
       <use xlink:href="#DejaVuSans-32"/>
      </g>
     </g>
    </g>
    <g id="ytick_3">
     <g id="line2d_9">
      <g>
       <use xlink:href="#m8582945c5f" x="31.008677" y="66.382905" style="stroke: #000000; stroke-width: 0.8"/>
      </g>
     </g>
     <g id="text_3">
      <!-- 3 -->
      <g style="fill: #ff0000" transform="translate(17.646177 70.182124) scale(0.1 -0.1)">
       <defs>
        <path id="DejaVuSans-33" d="M 2597 2516 
Q 3050 2419 3304 2112 
Q 3559 1806 3559 1356 
Q 3559 666 3084 287 
Q 2609 -91 1734 -91 
Q 1441 -91 1130 -33 
Q 819 25 488 141 
L 488 750 
Q 750 597 1062 519 
Q 1375 441 1716 441 
Q 2309 441 2620 675 
Q 2931 909 2931 1356 
Q 2931 1769 2642 2001 
Q 2353 2234 1838 2234 
L 1294 2234 
L 1294 2753 
L 1863 2753 
Q 2328 2753 2575 2939 
Q 2822 3125 2822 3475 
Q 2822 3834 2567 4026 
Q 2313 4219 1838 4219 
Q 1578 4219 1281 4162 
Q 984 4106 628 3988 
L 628 4550 
Q 988 4650 1302 4700 
Q 1616 4750 1894 4750 
Q 2613 4750 3031 4423 
Q 3450 4097 3450 3541 
Q 3450 3153 3228 2886 
Q 3006 2619 2597 2516 
z
" transform="scale(0.015625)"/>
       </defs>
       <use xlink:href="#DejaVuSans-33"/>
      </g>
     </g>
    </g>
    <g id="ytick_4">
     <g id="line2d_10">
      <g>
       <use xlink:href="#m8582945c5f" x="31.008677" y="28.716934" style="stroke: #000000; stroke-width: 0.8"/>
      </g>
     </g>
     <g id="text_4">
      <!-- 4 -->
      <g style="fill: #ff0000" transform="translate(17.646177 32.516152) scale(0.1 -0.1)">
       <defs>
        <path id="DejaVuSans-34" d="M 2419 4116 
L 825 1625 
L 2419 1625 
L 2419 4116 
z
M 2253 4666 
L 3047 4666 
L 3047 1625 
L 3713 1625 
L 3713 1100 
L 3047 1100 
L 3047 0 
L 2419 0 
L 2419 1100 
L 313 1100 
L 313 1709 
L 2253 4666 
z
" transform="scale(0.015625)"/>
       </defs>
       <use xlink:href="#DejaVuSans-34"/>
      </g>
     </g>
    </g>
    <g id="text_5">
     <!-- m=1 -->
     <g style="fill: #ff0000" transform="translate(11.358521 111.583104) rotate(-90) scale(0.11 -0.11)">
      <defs>
       <path id="DejaVuSans-6d" d="M 3328 2828 
Q 3544 3216 3844 3400 
Q 4144 3584 4550 3584 
Q 5097 3584 5394 3201 
Q 5691 2819 5691 2113 
L 5691 0 
L 5113 0 
L 5113 2094 
Q 5113 2597 4934 2840 
Q 4756 3084 4391 3084 
Q 3944 3084 3684 2787 
Q 3425 2491 3425 1978 
L 3425 0 
L 2847 0 
L 2847 2094 
Q 2847 2600 2669 2842 
Q 2491 3084 2119 3084 
Q 1678 3084 1418 2786 
Q 1159 2488 1159 1978 
L 1159 0 
L 581 0 
L 581 3500 
L 1159 3500 
L 1159 2956 
Q 1356 3278 1631 3431 
Q 1906 3584 2284 3584 
Q 2666 3584 2933 3390 
Q 3200 3197 3328 2828 
z
" transform="scale(0.015625)"/>
       <path id="DejaVuSans-3d" d="M 678 2906 
L 4684 2906 
L 4684 2381 
L 678 2381 
L 678 2906 
z
M 678 1631 
L 4684 1631 
L 4684 1100 
L 678 1100 
L 678 1631 
z
" transform="scale(0.015625)"/>
      </defs>
      <use xlink:href="#DejaVuSans-6d"/>
      <use xlink:href="#DejaVuSans-3d" x="97.412109"/>
      <use xlink:href="#DejaVuSans-31" x="181.201172"/>
     </g>
    </g>
   </g>
   <g id="line2d_11">
    <path d="M 62.19009 27.963614 
L 117.10843 28.075591 
L 181.79003 28.445818 
L 331.900158 29.401828 
L 386.818498 29.464588 
L 442.957245 29.299257 
L 513.740883 28.845723 
L 630.900008 28.080489 
L 685.818347 27.963671 
L 685.818347 27.963671 
" clip-path="url(#p35c4505ad3)" style="fill: none; stroke: #1f77b4; stroke-width: 1.2; stroke-linecap: square"/>
   </g>
   <g id="line2d_12">
    <path d="M 62.19009 160.108403 
L 64.630905 157.277649 
L 68.292128 152.412777 
L 73.173758 145.238736 
L 80.496204 133.859902 
L 89.039056 120.543626 
L 96.361502 109.658921 
L 102.463539 101.245474 
L 104.904355 98.224203 
L 106.124762 96.920692 
L 107.34517 96.041299 
L 108.565577 96.33149 
L 109.785985 98.766136 
L 111.006392 105.835961 
L 112.2268 119.970223 
L 113.447207 138.100212 
L 114.667615 152.775949 
L 115.888022 160.566349 
L 117.10843 163.825891 
L 118.328838 165.021581 
L 119.549245 165.013211 
L 120.769653 164.593131 
L 121.99006 163.977693 
L 124.430875 161.871874 
L 125.651283 160.734648 
L 129.312505 156.371256 
L 134.194136 149.413812 
L 140.296173 139.883038 
L 150.059434 123.849749 
L 162.263509 104.857063 
L 164.704324 101.221017 
L 169.585955 94.744693 
L 170.806362 93.359403 
L 172.02677 92.50022 
L 173.247177 93.050923 
L 174.467585 96.035507 
L 175.687992 104.621434 
L 176.9084 121.123786 
L 178.128807 140.700348 
L 179.349215 155.103591 
L 180.569622 162.073523 
L 181.79003 164.817947 
L 183.010438 165.7325 
L 184.230845 165.609949 
L 185.451253 165.14546 
L 186.67166 164.487557 
L 189.112475 162.422047 
L 190.332883 161.269294 
L 192.773698 158.463318 
L 195.214513 155.385072 
L 198.875736 150.262662 
L 204.977773 140.995887 
L 219.622664 118.420051 
L 225.724702 109.793638 
L 229.385924 104.986813 
L 231.826739 102.016934 
L 234.267555 99.13489 
L 236.70837 96.85796 
L 237.928777 96.333823 
L 239.149185 97.188624 
L 240.369592 100.594141 
L 241.59 109.766834 
L 242.810407 126.489604 
L 244.030815 145.435845 
L 245.251222 158.757697 
L 246.47163 164.974669 
L 247.692038 167.444856 
L 248.912445 168.2715 
L 250.132853 168.195764 
L 251.35326 167.918217 
L 252.573668 167.44327 
L 256.23489 165.030775 
L 259.896113 161.750644 
L 264.777743 156.481386 
L 269.659373 150.716524 
L 274.541004 144.749056 
L 280.643041 137.251627 
L 287.965487 128.646559 
L 292.847117 123.276522 
L 297.728747 118.251799 
L 301.38997 114.736726 
L 305.051192 111.445533 
L 308.712415 108.380162 
L 312.373638 105.539064 
L 316.03486 102.927213 
L 318.475675 101.33093 
L 319.696083 100.692478 
L 320.91649 100.201156 
L 322.136898 100.093943 
L 323.357306 101.018559 
L 324.577713 103.91329 
L 325.798121 110.788098 
L 327.018528 123.622886 
L 328.238936 140.205633 
L 329.459343 154.384658 
L 330.679751 162.58745 
L 331.900158 166.282199 
L 333.120566 167.816087 
L 334.340973 168.1961 
L 335.561381 168.096506 
L 336.781789 167.820117 
L 339.222604 166.58196 
L 340.443011 165.871833 
L 342.883826 163.991929 
L 344.104234 163.010658 
L 347.765456 159.521483 
L 351.426679 155.599023 
L 356.308309 149.930819 
L 381.936868 118.843876 
L 386.818498 113.341354 
L 394.140943 105.636437 
L 400.242981 99.820731 
L 401.463389 98.729521 
L 402.683796 97.829114 
L 403.904204 97.076337 
L 405.124611 96.808332 
L 406.345019 97.794157 
L 407.565426 101.107149 
L 408.785834 109.110221 
L 410.006241 123.505112 
L 411.226649 140.837129 
L 412.447056 154.496969 
L 413.667464 161.864494 
L 414.887872 165.069663 
L 416.108279 166.299444 
L 417.328687 166.463921 
L 418.549094 166.216098 
L 419.769502 165.744205 
L 422.210317 164.128917 
L 423.430724 163.184512 
L 425.87154 160.858795 
L 428.312355 158.233852 
L 431.973577 153.813515 
L 435.6348 148.992774 
L 441.736838 140.470041 
L 455.161321 121.192417 
L 463.704173 109.537979 
L 468.585804 103.235642 
L 472.247026 98.784348 
L 473.467434 97.380303 
L 475.908249 95.08854 
L 477.128657 94.605204 
L 478.349064 95.491116 
L 479.569472 98.94553 
L 480.789879 107.640721 
L 482.010287 123.032513 
L 483.230694 140.817306 
L 484.451102 154.113214 
L 485.671509 160.912196 
L 486.891917 163.7821 
L 488.112324 164.784488 
L 489.332732 164.734034 
L 490.55314 164.324841 
L 491.773547 163.668968 
L 494.214362 161.616285 
L 495.43477 160.453001 
L 499.095992 156.136964 
L 502.757215 151.093675 
L 507.638845 143.630772 
L 514.96129 131.788507 
L 523.504143 117.845338 
L 533.267404 102.729021 
L 536.928626 97.461592 
L 538.149034 95.805819 
L 540.589849 93.045267 
L 541.810257 92.458102 
L 543.030664 93.442814 
L 544.251072 97.390179 
L 545.471479 107.444069 
L 547.912294 142.800893 
L 549.132702 155.303171 
L 550.353109 161.212435 
L 551.573517 163.588111 
L 552.793924 164.267098 
L 554.014332 164.02824 
L 555.23474 163.492188 
L 556.455147 162.673362 
L 558.895962 160.378806 
L 560.11637 159.053468 
L 563.777592 154.325919 
L 567.438815 148.879016 
L 572.320445 140.938776 
L 582.083706 124.292505 
L 589.406151 112.034664 
L 595.508189 102.376954 
L 599.169411 96.964538 
L 601.610226 93.809513 
L 602.830634 92.497848 
L 604.051041 92.033122 
L 605.271449 93.237153 
L 606.491857 97.832972 
L 607.712264 109.198924 
L 610.153079 145.775573 
L 611.373487 157.341675 
L 612.593894 162.465032 
L 613.814302 164.50909 
L 615.034709 164.971087 
L 616.255117 164.640325 
L 617.475524 164.144698 
L 618.695932 163.293239 
L 621.136747 161.083753 
L 622.357155 159.769593 
L 626.018377 155.202027 
L 632.120415 146.205777 
L 637.002045 138.408652 
L 641.883675 130.379889 
L 652.867343 112.946201 
L 660.189789 102.321767 
L 665.071419 96.121524 
L 666.291826 94.863309 
L 667.512234 94.010893 
L 668.732641 94.434732 
L 669.953049 97.094963 
L 671.173457 104.614003 
L 672.393864 119.536377 
L 673.614272 138.360346 
L 674.834679 153.285951 
L 676.055087 161.094222 
L 677.275494 164.318308 
L 678.495902 165.474045 
L 679.716309 165.504983 
L 680.936717 165.11788 
L 682.157125 164.508311 
L 684.59794 162.553752 
L 685.818347 161.433164 
L 685.818347 161.433164 
" clip-path="url(#p35c4505ad3)" style="fill: none; stroke: #ff7f0e; stroke-width: 1.2; stroke-linecap: square"/>
   </g>
   <g id="patch_3">
    <path d="M 31.008677 175.286894 
L 31.008677 20.94822 
" style="fill: none; stroke: #000000; stroke-width: 0.8; stroke-linejoin: miter; stroke-linecap: square"/>
   </g>
   <g id="patch_4">
    <path d="M 716.99976 175.286894 
L 716.99976 20.94822 
" style="fill: none; stroke: #000000; stroke-width: 0.8; stroke-linejoin: miter; stroke-linecap: square"/>
   </g>
   <g id="patch_5">
    <path d="M 31.008678 175.286894 
L 716.99976 175.286894 
" style="fill: none; stroke: #000000; stroke-width: 0.8; stroke-linejoin: miter; stroke-linecap: square"/>
   </g>
   <g id="patch_6">
    <path d="M 31.008678 20.94822 
L 716.99976 20.94822 
" style="fill: none; stroke: #000000; stroke-width: 0.8; stroke-linejoin: miter; stroke-linecap: square"/>
   </g>
  </g>
  <g id="axes_2">
   <g id="patch_7">
    <path d="M 31.008677 339.126048 
L 716.99976 339.126048 
L 716.99976 184.787374 
L 31.008677 184.787374 
z
" style="fill: #ffffff"/>
   </g>
   <g id="matplotlib.axis_3">
    <g id="xtick_7">
     <g id="line2d_13">
      <g>
       <use xlink:href="#mafac5bf4d2" x="62.19009" y="339.126048" style="stroke: #000000; stroke-width: 0.8"/>
      </g>
     </g>
    </g>
    <g id="xtick_8">
     <g id="line2d_14">
      <g>
       <use xlink:href="#mafac5bf4d2" x="187.159823" y="339.126048" style="stroke: #000000; stroke-width: 0.8"/>
      </g>
     </g>
    </g>
    <g id="xtick_9">
     <g id="line2d_15">
      <g>
       <use xlink:href="#mafac5bf4d2" x="312.129556" y="339.126048" style="stroke: #000000; stroke-width: 0.8"/>
      </g>
     </g>
    </g>
    <g id="xtick_10">
     <g id="line2d_16">
      <g>
       <use xlink:href="#mafac5bf4d2" x="437.099289" y="339.126048" style="stroke: #000000; stroke-width: 0.8"/>
      </g>
     </g>
    </g>
    <g id="xtick_11">
     <g id="line2d_17">
      <g>
       <use xlink:href="#mafac5bf4d2" x="562.069022" y="339.126048" style="stroke: #000000; stroke-width: 0.8"/>
      </g>
     </g>
    </g>
    <g id="xtick_12">
     <g id="line2d_18">
      <g>
       <use xlink:href="#mafac5bf4d2" x="687.038755" y="339.126048" style="stroke: #000000; stroke-width: 0.8"/>
      </g>
     </g>
    </g>
   </g>
   <g id="matplotlib.axis_4">
    <g id="ytick_5">
     <g id="line2d_19">
      <g>
       <use xlink:href="#m8582945c5f" x="31.008677" y="308.125988" style="stroke: #000000; stroke-width: 0.8"/>
      </g>
     </g>
     <g id="text_6">
      <!-- 1 -->
      <g style="fill: #ff0000" transform="translate(17.646177 311.925207) scale(0.1 -0.1)">
       <use xlink:href="#DejaVuSans-31"/>
      </g>
     </g>
    </g>
    <g id="ytick_6">
     <g id="line2d_20">
      <g>
       <use xlink:href="#m8582945c5f" x="31.008677" y="269.608366" style="stroke: #000000; stroke-width: 0.8"/>
      </g>
     </g>
     <g id="text_7">
      <!-- 2 -->
      <g style="fill: #ff0000" transform="translate(17.646177 273.407584) scale(0.1 -0.1)">
       <use xlink:href="#DejaVuSans-32"/>
      </g>
     </g>
    </g>
    <g id="ytick_7">
     <g id="line2d_21">
      <g>
       <use xlink:href="#m8582945c5f" x="31.008677" y="231.090743" style="stroke: #000000; stroke-width: 0.8"/>
      </g>
     </g>
     <g id="text_8">
      <!-- 3 -->
      <g style="fill: #ff0000" transform="translate(17.646177 234.889962) scale(0.1 -0.1)">
       <use xlink:href="#DejaVuSans-33"/>
      </g>
     </g>
    </g>
    <g id="ytick_8">
     <g id="line2d_22">
      <g>
       <use xlink:href="#m8582945c5f" x="31.008677" y="192.573121" style="stroke: #000000; stroke-width: 0.8"/>
      </g>
     </g>
     <g id="text_9">
      <!-- 4 -->
      <g style="fill: #ff0000" transform="translate(17.646177 196.372339) scale(0.1 -0.1)">
       <use xlink:href="#DejaVuSans-34"/>
      </g>
     </g>
    </g>
    <g id="text_10">
     <!-- m=2 -->
     <g style="fill: #ff0000" transform="translate(11.358521 275.422258) rotate(-90) scale(0.11 -0.11)">
      <use xlink:href="#DejaVuSans-6d"/>
      <use xlink:href="#DejaVuSans-3d" x="97.412109"/>
      <use xlink:href="#DejaVuSans-32" x="181.201172"/>
     </g>
    </g>
   </g>
   <g id="line2d_23">
    <path d="M 62.19009 191.802768 
L 89.039056 191.912367 
L 120.769653 192.27832 
L 197.655328 193.277384 
L 224.504294 193.33768 
L 252.573668 193.168611 
L 287.965487 192.704822 
L 345.324641 191.932596 
L 373.394015 191.803 
L 400.242981 191.902847 
L 431.973577 192.260942 
L 511.300068 193.284834 
L 538.149034 193.335135 
L 566.218407 193.156438 
L 601.610226 192.686155 
L 657.748974 191.932596 
L 685.818347 191.803 
L 685.818347 191.803 
" clip-path="url(#p2842cbf9e5)" style="fill: none; stroke: #1f77b4; stroke-width: 1.2; stroke-linecap: square"/>
   </g>
   <g id="line2d_24">
    <path d="M 62.19009 331.148964 
L 63.410498 331.648993 
L 64.630905 331.344096 
L 65.851313 330.755516 
L 67.071721 329.8895 
L 69.512536 327.563032 
L 71.953351 324.698326 
L 74.394166 321.460372 
L 78.055388 316.021765 
L 82.937019 308.14549 
L 101.243132 277.713172 
L 104.904355 272.05194 
L 107.34517 268.396134 
L 111.006392 263.307294 
L 112.2268 261.878632 
L 113.447207 260.691283 
L 114.667615 260.430786 
L 115.888022 261.98849 
L 117.10843 267.284527 
L 118.328838 279.441183 
L 120.769653 314.889413 
L 121.99006 325.316211 
L 123.210468 329.893408 
L 124.430875 331.683077 
L 125.651283 332.009857 
L 126.87169 331.672961 
L 128.092098 331.12479 
L 129.312505 330.212028 
L 131.753321 327.986315 
L 134.194136 325.127216 
L 135.414543 323.648715 
L 139.075766 318.538717 
L 143.957396 310.97492 
L 163.483917 279.304669 
L 170.806362 268.47921 
L 174.467585 263.581606 
L 175.687992 262.233559 
L 176.9084 261.066053 
L 178.128807 260.770866 
L 179.349215 262.230516 
L 180.569622 267.153794 
L 181.79003 278.666719 
L 184.230845 313.856502 
L 185.451253 324.800894 
L 186.67166 329.732495 
L 187.892068 331.664278 
L 189.112475 332.110654 
L 190.332883 331.835498 
L 191.55329 331.291822 
L 192.773698 330.44119 
L 195.214513 328.254324 
L 197.655328 325.498099 
L 200.096143 322.39031 
L 203.757366 317.170063 
L 208.638996 309.587415 
L 213.520626 301.675246 
L 220.843072 289.707405 
L 225.724702 281.903035 
L 231.826739 272.681683 
L 234.267555 269.135341 
L 237.928777 264.187802 
L 239.149185 262.796454 
L 240.369592 261.619144 
L 241.59 261.352811 
L 242.810407 262.804419 
L 244.030815 267.765135 
L 245.251222 279.287541 
L 247.692038 313.961845 
L 248.912445 324.689138 
L 250.132853 329.49384 
L 251.35326 331.395885 
L 252.573668 331.837107 
L 253.794075 331.504057 
L 255.014483 330.945604 
L 256.23489 330.0958 
L 258.675706 327.807444 
L 259.896113 326.492352 
L 263.557336 321.837984 
L 267.218558 316.499938 
L 273.320596 306.71414 
L 278.202226 298.614479 
L 284.304264 288.41158 
L 292.847117 274.788609 
L 297.728747 267.515028 
L 300.169562 264.167217 
L 301.38997 262.703531 
L 302.610377 261.525776 
L 303.830785 261.353939 
L 305.051192 262.991161 
L 306.2716 268.483782 
L 307.492007 280.804916 
L 309.932823 315.314682 
L 311.15323 325.252441 
L 312.373638 329.571587 
L 313.594045 331.266844 
L 314.814453 331.565315 
L 316.03486 331.149312 
L 317.255268 330.557458 
L 318.475675 329.638084 
L 320.91649 327.256732 
L 322.136898 325.88146 
L 325.798121 321.077285 
L 330.679751 313.599612 
L 334.340973 307.609923 
L 340.443011 297.336465 
L 345.324641 289.002564 
L 352.647087 276.976048 
L 357.528717 269.415342 
L 361.18994 264.151656 
L 363.630755 261.348771 
L 364.851162 260.865375 
L 366.07157 262.060337 
L 367.291977 266.53311 
L 368.512385 277.476667 
L 370.9532 312.58767 
L 372.173607 323.957394 
L 373.394015 329.124822 
L 374.614423 331.148964 
L 375.83483 331.648994 
L 377.055238 331.344097 
L 378.275645 330.755517 
L 379.496053 329.889502 
L 381.936868 327.563035 
L 384.377683 324.698329 
L 386.818498 321.460376 
L 390.479721 316.021769 
L 395.361351 308.145495 
L 413.667464 277.713177 
L 417.328687 272.051946 
L 419.769502 268.39614 
L 423.430724 263.307299 
L 424.651132 261.878637 
L 425.87154 260.691286 
L 427.091947 260.430784 
L 428.312355 261.988479 
L 429.532762 267.284495 
L 430.75317 279.441122 
L 433.193985 314.889359 
L 434.414392 325.316185 
L 435.6348 329.893398 
L 436.855207 331.683074 
L 438.075615 332.009858 
L 439.296023 331.672963 
L 440.51643 331.124793 
L 441.736838 330.212033 
L 444.177653 327.986321 
L 446.618468 325.127223 
L 447.838875 323.648722 
L 451.500098 318.538725 
L 456.381728 310.97493 
L 475.908249 279.304679 
L 483.230694 268.479219 
L 486.891917 263.581614 
L 488.112324 262.233567 
L 489.332732 261.066059 
L 490.55314 260.770864 
L 491.773547 262.230502 
L 492.993955 267.153754 
L 494.214362 278.66664 
L 496.655177 313.856425 
L 497.875585 324.800854 
L 499.095992 329.732479 
L 500.3164 331.664272 
L 501.536807 332.110654 
L 502.757215 331.8355 
L 503.977623 331.291825 
L 505.19803 330.441195 
L 507.638845 328.25433 
L 510.07966 325.498106 
L 512.520475 322.390319 
L 516.181698 317.170072 
L 521.063328 309.587425 
L 525.944958 301.675256 
L 533.267404 289.707415 
L 538.149034 281.903044 
L 544.251072 272.681691 
L 546.691887 269.135349 
L 550.353109 264.187808 
L 551.573517 262.79646 
L 552.793924 261.619148 
L 554.014332 261.35281 
L 555.23474 262.804408 
L 556.455147 267.765103 
L 557.675555 279.287478 
L 560.11637 313.961786 
L 561.336777 324.689108 
L 562.557185 329.493827 
L 563.777592 331.39588 
L 564.998 331.837106 
L 566.218407 331.504058 
L 567.438815 330.945606 
L 568.659223 330.095803 
L 571.100038 327.807448 
L 572.320445 326.492358 
L 575.981668 321.83799 
L 579.642891 316.499945 
L 585.744928 306.714147 
L 590.626558 298.614485 
L 596.728596 288.411586 
L 605.271449 274.788614 
L 610.153079 267.515032 
L 612.593894 264.167221 
L 613.814302 262.703535 
L 615.034709 261.525777 
L 616.255117 261.353938 
L 617.475524 262.991156 
L 618.695932 268.483767 
L 619.91634 280.804887 
L 622.357155 315.314657 
L 623.577562 325.252428 
L 624.79797 329.571581 
L 626.018377 331.266841 
L 627.238785 331.565315 
L 628.459192 331.149312 
L 629.6796 330.557459 
L 630.900008 329.638086 
L 633.340823 327.256734 
L 634.56123 325.881462 
L 638.222453 321.077287 
L 643.104083 313.599614 
L 646.765306 307.609924 
L 652.867343 297.336466 
L 657.748974 289.002565 
L 665.071419 276.976049 
L 669.953049 269.415341 
L 673.614272 264.151655 
L 676.055087 261.34877 
L 677.275494 260.865375 
L 678.495902 262.06034 
L 679.716309 266.533117 
L 680.936717 277.476681 
L 683.377532 312.587683 
L 684.59794 323.957401 
L 685.818347 329.124824 
L 685.818347 329.124824 
" clip-path="url(#p2842cbf9e5)" style="fill: none; stroke: #ff7f0e; stroke-width: 1.2; stroke-linecap: square"/>
   </g>
   <g id="patch_8">
    <path d="M 31.008677 339.126048 
L 31.008677 184.787374 
" style="fill: none; stroke: #000000; stroke-width: 0.8; stroke-linejoin: miter; stroke-linecap: square"/>
   </g>
   <g id="patch_9">
    <path d="M 716.99976 339.126048 
L 716.99976 184.787374 
" style="fill: none; stroke: #000000; stroke-width: 0.8; stroke-linejoin: miter; stroke-linecap: square"/>
   </g>
   <g id="patch_10">
    <path d="M 31.008678 339.126048 
L 716.99976 339.126048 
" style="fill: none; stroke: #000000; stroke-width: 0.8; stroke-linejoin: miter; stroke-linecap: square"/>
   </g>
   <g id="patch_11">
    <path d="M 31.008678 184.787374 
L 716.99976 184.787374 
" style="fill: none; stroke: #000000; stroke-width: 0.8; stroke-linejoin: miter; stroke-linecap: square"/>
   </g>
  </g>
  <g id="axes_3">
   <g id="patch_12">
    <path d="M 31.008677 502.965202 
L 716.99976 502.965202 
L 716.99976 348.626528 
L 31.008677 348.626528 
z
" style="fill: #ffffff"/>
   </g>
   <g id="matplotlib.axis_5">
    <g id="xtick_13">
     <g id="line2d_25">
      <g>
       <use xlink:href="#mafac5bf4d2" x="62.19009" y="502.965202" style="stroke: #000000; stroke-width: 0.8"/>
      </g>
     </g>
    </g>
    <g id="xtick_14">
     <g id="line2d_26">
      <g>
       <use xlink:href="#mafac5bf4d2" x="187.159823" y="502.965202" style="stroke: #000000; stroke-width: 0.8"/>
      </g>
     </g>
    </g>
    <g id="xtick_15">
     <g id="line2d_27">
      <g>
       <use xlink:href="#mafac5bf4d2" x="312.129556" y="502.965202" style="stroke: #000000; stroke-width: 0.8"/>
      </g>
     </g>
    </g>
    <g id="xtick_16">
     <g id="line2d_28">
      <g>
       <use xlink:href="#mafac5bf4d2" x="437.099289" y="502.965202" style="stroke: #000000; stroke-width: 0.8"/>
      </g>
     </g>
    </g>
    <g id="xtick_17">
     <g id="line2d_29">
      <g>
       <use xlink:href="#mafac5bf4d2" x="562.069022" y="502.965202" style="stroke: #000000; stroke-width: 0.8"/>
      </g>
     </g>
    </g>
    <g id="xtick_18">
     <g id="line2d_30">
      <g>
       <use xlink:href="#mafac5bf4d2" x="687.038755" y="502.965202" style="stroke: #000000; stroke-width: 0.8"/>
      </g>
     </g>
    </g>
   </g>
   <g id="matplotlib.axis_6">
    <g id="ytick_9">
     <g id="line2d_31">
      <g>
       <use xlink:href="#m8582945c5f" x="31.008677" y="477.17527" style="stroke: #000000; stroke-width: 0.8"/>
      </g>
     </g>
     <g id="text_11">
      <!-- 1 -->
      <g style="fill: #ff0000" transform="translate(17.646177 480.974489) scale(0.1 -0.1)">
       <use xlink:href="#DejaVuSans-31"/>
      </g>
     </g>
    </g>
    <g id="ytick_10">
     <g id="line2d_32">
      <g>
       <use xlink:href="#m8582945c5f" x="31.008677" y="436.93244" style="stroke: #000000; stroke-width: 0.8"/>
      </g>
     </g>
     <g id="text_12">
      <!-- 2 -->
      <g style="fill: #ff0000" transform="translate(17.646177 440.731658) scale(0.1 -0.1)">
       <use xlink:href="#DejaVuSans-32"/>
      </g>
     </g>
    </g>
    <g id="ytick_11">
     <g id="line2d_33">
      <g>
       <use xlink:href="#m8582945c5f" x="31.008677" y="396.689609" style="stroke: #000000; stroke-width: 0.8"/>
      </g>
     </g>
     <g id="text_13">
      <!-- 3 -->
      <g style="fill: #ff0000" transform="translate(17.646177 400.488828) scale(0.1 -0.1)">
       <use xlink:href="#DejaVuSans-33"/>
      </g>
     </g>
    </g>
    <g id="ytick_12">
     <g id="line2d_34">
      <g>
       <use xlink:href="#m8582945c5f" x="31.008677" y="356.446779" style="stroke: #000000; stroke-width: 0.8"/>
      </g>
     </g>
     <g id="text_14">
      <!-- 4 -->
      <g style="fill: #ff0000" transform="translate(17.646177 360.245998) scale(0.1 -0.1)">
       <use xlink:href="#DejaVuSans-34"/>
      </g>
     </g>
    </g>
    <g id="text_15">
     <!-- m=3 -->
     <g style="fill: #ff0000" transform="translate(11.358521 439.261412) rotate(-90) scale(0.11 -0.11)">
      <use xlink:href="#DejaVuSans-6d"/>
      <use xlink:href="#DejaVuSans-3d" x="97.412109"/>
      <use xlink:href="#DejaVuSans-33" x="181.201172"/>
     </g>
    </g>
   </g>
   <g id="line2d_35">
    <path d="M 62.19009 355.641922 
L 79.275796 355.746484 
L 100.022724 356.111613 
L 152.500249 357.182587 
L 170.806362 357.244313 
L 189.112475 357.068941 
L 212.300219 356.5941 
L 250.132853 355.78874 
L 268.438966 355.643437 
L 285.524672 355.723475 
L 305.051192 356.041503 
L 366.07157 357.225056 
L 383.157275 357.225056 
L 401.463389 357.00176 
L 427.091947 356.436902 
L 457.602136 355.800312 
L 475.908249 355.64489 
L 492.993955 355.715029 
L 512.520475 356.024559 
L 574.76126 357.227515 
L 591.846966 357.22248 
L 610.153079 356.994565 
L 635.781638 356.427027 
L 666.291826 355.794477 
L 684.59794 355.644103 
L 685.818347 355.642468 
L 685.818347 355.642468 
" clip-path="url(#p52ce1c2f7c)" style="fill: none; stroke: #1f77b4; stroke-width: 1.2; stroke-linecap: square"/>
   </g>
   <g id="line2d_36">
    <path d="M 62.19009 452.262018 
L 67.071721 440.776583 
L 68.292128 438.192279 
L 69.512536 435.922761 
L 70.732943 434.729234 
L 71.953351 435.304794 
L 73.173758 439.456313 
L 74.394166 449.977169 
L 76.834981 480.310462 
L 78.055388 489.309526 
L 79.275796 493.40387 
L 80.496204 494.822365 
L 81.716611 494.730222 
L 82.937019 493.85302 
L 84.157426 492.563214 
L 85.377834 490.883154 
L 87.818649 486.831742 
L 90.259464 482.058082 
L 92.700279 476.819164 
L 96.361502 468.346968 
L 102.463539 453.458821 
L 107.34517 441.696609 
L 108.565577 439.017644 
L 109.785985 436.608174 
L 111.006392 435.13056 
L 112.2268 435.271636 
L 113.447207 438.597936 
L 114.667615 447.995134 
L 117.10843 478.512495 
L 118.328838 488.432952 
L 119.549245 493.112451 
L 120.769653 494.861771 
L 121.99006 494.926937 
L 123.210468 494.123288 
L 124.430875 492.921831 
L 125.651283 491.277324 
L 128.092098 487.316152 
L 130.532913 482.569328 
L 132.973728 477.395402 
L 136.634951 468.987193 
L 143.957396 451.220598 
L 148.839026 439.630681 
L 150.059434 437.028173 
L 151.279841 434.800044 
L 152.500249 433.677846 
L 153.720656 434.445971 
L 154.941064 439.153098 
L 156.161472 450.625079 
L 157.381879 467.159881 
L 158.602287 481.904499 
L 159.822694 490.528474 
L 161.043102 494.346579 
L 162.263509 495.627384 
L 163.483917 495.403278 
L 164.704324 494.525662 
L 165.924732 493.280922 
L 168.365547 489.675996 
L 169.585955 487.664691 
L 173.247177 480.503345 
L 178.128807 469.581625 
L 191.55329 438.037582 
L 192.773698 435.495089 
L 193.994105 433.465302 
L 195.214513 432.696507 
L 196.434921 433.93546 
L 197.655328 439.687318 
L 198.875736 452.50457 
L 200.096143 469.526836 
L 201.316551 483.715583 
L 202.536958 491.575151 
L 203.757366 494.89425 
L 204.977773 495.939514 
L 206.198181 495.61639 
L 207.418589 494.657061 
L 208.638996 493.392697 
L 209.859404 491.697093 
L 212.300219 487.767683 
L 214.741034 483.074946 
L 217.181849 478.040477 
L 222.063479 466.974463 
L 226.945109 455.478319 
L 233.047147 441.094189 
L 235.487962 436.002014 
L 236.70837 433.999676 
L 237.928777 433.248762 
L 239.149185 434.562332 
L 240.369592 440.346039 
L 241.59 453.041124 
L 242.810407 469.730062 
L 244.030815 483.523143 
L 245.251222 491.214035 
L 246.47163 494.513376 
L 247.692038 495.483196 
L 248.912445 495.147849 
L 250.132853 494.21125 
L 251.35326 492.855046 
L 253.794075 489.227998 
L 256.23489 484.794751 
L 258.675706 479.86615 
L 262.336928 471.727332 
L 269.659373 454.265372 
L 274.541004 442.571197 
L 276.981819 437.367688 
L 278.202226 435.36971 
L 279.422634 434.679303 
L 280.643041 436.139897 
L 281.863449 442.179748 
L 283.083856 454.889613 
L 284.304264 471.016853 
L 285.524672 483.989668 
L 286.745079 491.094293 
L 287.965487 494.096586 
L 289.185894 494.921199 
L 290.406302 494.495116 
L 291.626709 493.465907 
L 292.847117 492.043752 
L 294.067524 490.255899 
L 296.508339 486.083064 
L 298.949155 481.214668 
L 301.38997 475.906554 
L 305.051192 467.378278 
L 317.255268 438.159238 
L 318.475675 435.975593 
L 319.696083 434.958418 
L 320.91649 435.889486 
L 322.136898 440.944008 
L 323.357306 452.630294 
L 324.577713 468.694407 
L 325.798121 482.517501 
L 327.018528 490.453347 
L 328.238936 493.936058 
L 329.459343 495.031205 
L 330.679751 494.717425 
L 331.900158 493.765553 
L 333.120566 492.422705 
L 335.561381 488.697719 
L 336.781789 486.58033 
L 339.222604 481.746205 
L 341.663419 476.47752 
L 345.324641 468.011654 
L 351.426679 453.230873 
L 356.308309 441.449999 
L 358.749124 436.211976 
L 359.969532 434.267354 
L 361.18994 433.667743 
L 362.410347 435.41489 
L 363.630755 442.163564 
L 364.851162 455.864512 
L 366.07157 472.619111 
L 367.291977 485.479624 
L 368.512385 492.19417 
L 369.732792 494.990337 
L 370.9532 495.677503 
L 372.173607 495.149643 
L 373.394015 494.161201 
L 374.614423 492.753187 
L 377.055238 489.033679 
L 378.275645 486.921163 
L 381.936868 479.637434 
L 386.818498 468.612163 
L 392.920536 454.170181 
L 396.581758 445.451021 
L 399.022573 439.759527 
L 401.463389 434.717442 
L 402.683796 433.045227 
L 403.904204 432.812603 
L 405.124611 435.171751 
L 406.345019 443.167791 
L 407.565426 458.044491 
L 408.785834 474.880342 
L 410.006241 487.019922 
L 411.226649 493.040335 
L 412.447056 495.434693 
L 413.667464 495.949808 
L 414.887872 495.334357 
L 416.108279 494.275604 
L 417.328687 492.874637 
L 419.769502 489.122073 
L 420.989909 487.044175 
L 424.651132 479.802884 
L 429.532762 468.88884 
L 442.957245 437.641534 
L 444.177653 435.241157 
L 445.39806 433.580362 
L 446.618468 433.385767 
L 447.838875 435.820485 
L 449.059283 443.806621 
L 450.27969 458.49196 
L 451.500098 474.941618 
L 452.720506 486.738947 
L 453.940913 492.671351 
L 455.161321 495.033867 
L 456.381728 495.475082 
L 457.602136 494.881525 
L 458.822543 493.808771 
L 460.042951 492.30938 
L 462.483766 488.554536 
L 464.924581 484.004128 
L 467.365396 478.982121 
L 471.026619 470.770897 
L 477.128657 456.256329 
L 482.010287 444.479093 
L 484.451102 439.043935 
L 485.671509 436.599645 
L 486.891917 434.965909 
L 488.112324 434.850378 
L 489.332732 437.479649 
L 490.55314 445.698002 
L 492.993955 475.953289 
L 494.214362 486.971866 
L 495.43477 492.427609 
L 496.655177 494.557146 
L 497.875585 494.881112 
L 499.095992 494.197984 
L 500.3164 493.036827 
L 501.536807 491.481657 
L 503.977623 487.556205 
L 506.418438 482.890286 
L 508.859253 477.721632 
L 512.520475 469.310192 
L 517.402106 457.489425 
L 523.504143 442.617571 
L 525.944958 437.34629 
L 527.165366 435.476144 
L 528.385774 434.988685 
L 529.606181 436.954718 
L 530.826589 444.07323 
L 532.046996 457.797616 
L 533.267404 473.857819 
L 534.487811 485.81519 
L 535.708219 491.979054 
L 536.928626 494.506341 
L 538.149034 495.042433 
L 539.369441 494.44301 
L 540.589849 493.367496 
L 541.810257 491.871643 
L 544.251072 488.019617 
L 546.691887 483.38905 
L 549.132702 478.303978 
L 552.793924 469.959356 
L 562.557185 446.315696 
L 564.998 440.529061 
L 567.438815 435.458443 
L 568.659223 433.886255 
L 569.87963 433.899509 
L 571.100038 436.938933 
L 572.320445 446.006485 
L 574.76126 477.592529 
L 575.981668 488.327912 
L 577.202075 493.436112 
L 578.422483 495.407646 
L 579.642891 495.590572 
L 580.863298 494.853846 
L 582.083706 493.74957 
L 583.304113 492.175434 
L 585.744928 488.367263 
L 588.185743 483.735873 
L 590.626558 478.744175 
L 595.508189 467.654311 
L 599.169411 458.964489 
L 608.932672 436.326399 
L 610.153079 434.030088 
L 611.373487 432.784062 
L 612.593894 433.19288 
L 613.814302 437.046743 
L 615.034709 447.477345 
L 617.475524 479.655545 
L 618.695932 489.608059 
L 619.91634 494.116662 
L 621.136747 495.775098 
L 622.357155 495.831855 
L 623.577562 495.010213 
L 624.79797 493.85764 
L 626.018377 492.305807 
L 628.459192 488.457379 
L 629.6796 486.285158 
L 633.340823 478.933177 
L 638.222453 467.927084 
L 644.324491 453.553417 
L 647.985713 444.905154 
L 650.426528 439.330579 
L 651.646936 436.810865 
L 652.867343 434.562348 
L 654.087751 433.323838 
L 655.308158 433.792485 
L 656.528566 437.70713 
L 657.748974 448.076007 
L 660.189789 479.579968 
L 661.410196 489.272266 
L 662.630604 493.744712 
L 663.851011 495.346435 
L 665.071419 495.3535 
L 666.291826 494.568064 
L 667.512234 493.356798 
L 668.732641 491.729749 
L 671.173457 487.851392 
L 673.614272 483.208398 
L 676.055087 478.089327 
L 679.716309 469.811771 
L 684.59794 458.197347 
L 685.818347 455.26693 
L 685.818347 455.26693 
" clip-path="url(#p52ce1c2f7c)" style="fill: none; stroke: #ff7f0e; stroke-width: 1.2; stroke-linecap: square"/>
   </g>
   <g id="patch_13">
    <path d="M 31.008677 502.965202 
L 31.008677 348.626528 
" style="fill: none; stroke: #000000; stroke-width: 0.8; stroke-linejoin: miter; stroke-linecap: square"/>
   </g>
   <g id="patch_14">
    <path d="M 716.99976 502.965202 
L 716.99976 348.626528 
" style="fill: none; stroke: #000000; stroke-width: 0.8; stroke-linejoin: miter; stroke-linecap: square"/>
   </g>
   <g id="patch_15">
    <path d="M 31.008678 502.965202 
L 716.99976 502.965202 
" style="fill: none; stroke: #000000; stroke-width: 0.8; stroke-linejoin: miter; stroke-linecap: square"/>
   </g>
   <g id="patch_16">
    <path d="M 31.008678 348.626528 
L 716.99976 348.626528 
" style="fill: none; stroke: #000000; stroke-width: 0.8; stroke-linejoin: miter; stroke-linecap: square"/>
   </g>
  </g>
  <g id="axes_4">
   <g id="patch_17">
    <path d="M 31.008677 666.804356 
L 716.99976 666.804356 
L 716.99976 512.465682 
L 31.008677 512.465682 
z
" style="fill: #ffffff"/>
   </g>
   <g id="matplotlib.axis_7">
    <g id="xtick_19">
     <g id="line2d_37">
      <g>
       <use xlink:href="#mafac5bf4d2" x="62.19009" y="666.804356" style="stroke: #000000; stroke-width: 0.8"/>
      </g>
     </g>
    </g>
    <g id="xtick_20">
     <g id="line2d_38">
      <g>
       <use xlink:href="#mafac5bf4d2" x="187.159823" y="666.804356" style="stroke: #000000; stroke-width: 0.8"/>
      </g>
     </g>
    </g>
    <g id="xtick_21">
     <g id="line2d_39">
      <g>
       <use xlink:href="#mafac5bf4d2" x="312.129556" y="666.804356" style="stroke: #000000; stroke-width: 0.8"/>
      </g>
     </g>
    </g>
    <g id="xtick_22">
     <g id="line2d_40">
      <g>
       <use xlink:href="#mafac5bf4d2" x="437.099289" y="666.804356" style="stroke: #000000; stroke-width: 0.8"/>
      </g>
     </g>
    </g>
    <g id="xtick_23">
     <g id="line2d_41">
      <g>
       <use xlink:href="#mafac5bf4d2" x="562.069022" y="666.804356" style="stroke: #000000; stroke-width: 0.8"/>
      </g>
     </g>
    </g>
    <g id="xtick_24">
     <g id="line2d_42">
      <g>
       <use xlink:href="#mafac5bf4d2" x="687.038755" y="666.804356" style="stroke: #000000; stroke-width: 0.8"/>
      </g>
     </g>
    </g>
   </g>
   <g id="matplotlib.axis_8">
    <g id="ytick_13">
     <g id="line2d_43">
      <g>
       <use xlink:href="#m8582945c5f" x="31.008677" y="641.333381" style="stroke: #000000; stroke-width: 0.8"/>
      </g>
     </g>
     <g id="text_16">
      <!-- 1 -->
      <g style="fill: #ff0000" transform="translate(17.646177 645.132599) scale(0.1 -0.1)">
       <use xlink:href="#DejaVuSans-31"/>
      </g>
     </g>
    </g>
    <g id="ytick_14">
     <g id="line2d_44">
      <g>
       <use xlink:href="#m8582945c5f" x="31.008677" y="600.984935" style="stroke: #000000; stroke-width: 0.8"/>
      </g>
     </g>
     <g id="text_17">
      <!-- 2 -->
      <g style="fill: #ff0000" transform="translate(17.646177 604.784154) scale(0.1 -0.1)">
       <use xlink:href="#DejaVuSans-32"/>
      </g>
     </g>
    </g>
    <g id="ytick_15">
     <g id="line2d_45">
      <g>
       <use xlink:href="#m8582945c5f" x="31.008677" y="560.63649" style="stroke: #000000; stroke-width: 0.8"/>
      </g>
     </g>
     <g id="text_18">
      <!-- 3 -->
      <g style="fill: #ff0000" transform="translate(17.646177 564.435709) scale(0.1 -0.1)">
       <use xlink:href="#DejaVuSans-33"/>
      </g>
     </g>
    </g>
    <g id="ytick_16">
     <g id="line2d_46">
      <g>
       <use xlink:href="#m8582945c5f" x="31.008677" y="520.288045" style="stroke: #000000; stroke-width: 0.8"/>
      </g>
     </g>
     <g id="text_19">
      <!-- 4 -->
      <g style="fill: #ff0000" transform="translate(17.646177 524.087264) scale(0.1 -0.1)">
       <use xlink:href="#DejaVuSans-34"/>
      </g>
     </g>
    </g>
    <g id="text_20">
     <!-- m=4 -->
     <g style="fill: #ff0000" transform="translate(11.358521 603.100566) rotate(-90) scale(0.11 -0.11)">
      <use xlink:href="#DejaVuSans-6d"/>
      <use xlink:href="#DejaVuSans-3d" x="97.412109"/>
      <use xlink:href="#DejaVuSans-34" x="181.201172"/>
     </g>
    </g>
   </g>
   <g id="line2d_47">
    <path d="M 62.19009 519.481076 
L 75.614573 519.595885 
L 91.479871 519.979232 
L 129.312505 521.017536 
L 142.736988 521.091128 
L 156.161472 520.936209 
L 173.247177 520.484123 
L 203.757366 519.617075 
L 217.181849 519.482048 
L 230.606332 519.576362 
L 245.251222 519.907643 
L 287.965487 521.047842 
L 301.38997 521.079508 
L 314.814453 520.88597 
L 333.120566 520.367142 
L 358.749124 519.639882 
L 372.173607 519.484962 
L 385.59809 519.558554 
L 400.242981 519.87318 
L 445.39806 521.060266 
L 458.822543 521.07083 
L 472.247026 520.858658 
L 490.55314 520.327641 
L 514.96129 519.639882 
L 528.385774 519.484962 
L 541.810257 519.558554 
L 556.455147 519.87318 
L 601.610226 521.060266 
L 615.034709 521.07083 
L 628.459192 520.858658 
L 646.765306 520.327641 
L 671.173457 519.639882 
L 684.59794 519.484962 
L 685.818347 519.482048 
L 685.818347 519.482048 
" clip-path="url(#p3971982837)" style="fill: none; stroke: #1f77b4; stroke-width: 1.2; stroke-linecap: square"/>
   </g>
   <g id="line2d_48">
    <path d="M 62.19009 612.691416 
L 64.630905 606.459518 
L 65.851313 603.572354 
L 67.071721 600.994441 
L 68.292128 599.401432 
L 69.512536 599.552146 
L 70.732943 603.187036 
L 71.953351 613.192219 
L 74.394166 643.920521 
L 75.614573 653.266568 
L 76.834981 657.528472 
L 78.055388 659.026606 
L 79.275796 658.882909 
L 80.496204 657.979977 
L 81.716611 656.71238 
L 82.937019 654.944682 
L 85.377834 650.874803 
L 89.039056 643.425033 
L 93.920687 632.087371 
L 106.124762 602.278131 
L 108.565577 597.131577 
L 109.785985 595.385007 
L 111.006392 595.212824 
L 112.2268 597.764081 
L 113.447207 606.162902 
L 114.667615 621.662615 
L 115.888022 638.916695 
L 117.10843 651.09829 
L 118.328838 657.071681 
L 119.549245 659.387668 
L 120.769653 659.788962 
L 121.99006 659.145306 
L 123.210468 658.029873 
L 124.430875 656.518822 
L 126.87169 652.690547 
L 129.312505 648.110279 
L 131.753321 643.021099 
L 135.414543 634.715987 
L 140.296173 623.001655 
L 147.618619 605.41403 
L 148.839026 602.811313 
L 150.059434 600.608908 
L 151.279841 599.502983 
L 152.500249 600.236974 
L 153.720656 604.635042 
L 154.941064 615.046079 
L 157.381879 643.669578 
L 158.602287 652.093607 
L 159.822694 655.970227 
L 161.043102 657.27898 
L 162.263509 657.070193 
L 163.483917 656.073433 
L 164.704324 654.659931 
L 165.924732 652.812792 
L 168.365547 648.418174 
L 170.806362 643.230383 
L 173.247177 637.60798 
L 178.128807 625.346768 
L 184.230845 609.871493 
L 185.451253 607.177584 
L 186.67166 605.268223 
L 187.892068 604.770827 
L 189.112475 606.846333 
L 190.332883 613.744031 
L 191.55329 625.935268 
L 192.773698 639.407348 
L 193.994105 649.229987 
L 195.214513 654.342679 
L 196.434921 656.386189 
L 197.655328 656.638162 
L 198.875736 655.846648 
L 200.096143 654.540182 
L 201.316551 652.801133 
L 203.757366 648.457286 
L 206.198181 643.315451 
L 208.638996 637.680058 
L 212.300219 628.561126 
L 222.063479 603.572359 
L 223.283887 600.994447 
L 224.504294 599.401438 
L 225.724702 599.552153 
L 226.945109 603.187047 
L 228.165517 613.192232 
L 230.606332 643.920529 
L 231.826739 653.26657 
L 233.047147 657.528472 
L 234.267555 659.026604 
L 235.487962 658.882906 
L 236.70837 657.979974 
L 237.928777 656.712376 
L 239.149185 654.944677 
L 241.59 650.874797 
L 245.251222 643.425027 
L 250.132853 632.087363 
L 262.336928 602.278122 
L 264.777743 597.13157 
L 265.998151 595.385007 
L 267.218558 595.212834 
L 268.438966 597.764113 
L 269.659373 606.162974 
L 270.879781 621.662716 
L 272.100189 638.916782 
L 273.320596 651.098338 
L 274.541004 657.0717 
L 275.761411 659.387673 
L 276.981819 659.788959 
L 278.202226 659.145299 
L 279.422634 658.029864 
L 280.643041 656.518811 
L 283.083856 652.690533 
L 285.524672 648.110262 
L 287.965487 643.021081 
L 291.626709 634.715967 
L 296.508339 623.001634 
L 303.830785 605.41401 
L 305.051192 602.811294 
L 306.2716 600.608895 
L 307.492007 599.50298 
L 308.712415 600.236989 
L 309.932823 604.635094 
L 311.15323 615.046178 
L 313.594045 643.669663 
L 314.814453 652.093651 
L 316.03486 655.970246 
L 317.255268 657.278985 
L 318.475675 657.07019 
L 319.696083 656.073426 
L 320.91649 654.659921 
L 322.136898 652.812779 
L 324.577713 648.418159 
L 327.018528 643.230366 
L 329.459343 637.607961 
L 334.340973 625.346748 
L 340.443011 609.871476 
L 341.663419 607.177569 
L 342.883826 605.268211 
L 344.104234 604.770822 
L 345.324641 606.846342 
L 346.545049 613.744063 
L 347.765456 625.935317 
L 348.985864 639.407394 
L 350.206272 649.230016 
L 351.426679 654.342694 
L 352.647087 656.386195 
L 353.867494 656.638163 
L 355.087902 655.846647 
L 356.308309 654.540179 
L 357.528717 652.801129 
L 359.969532 648.45728 
L 362.410347 643.315445 
L 364.851162 637.680052 
L 368.512385 628.561119 
L 378.275645 603.572354 
L 379.496053 600.994442 
L 380.71646 599.401434 
L 381.936868 599.55215 
L 383.157275 603.187045 
L 384.377683 613.192233 
L 386.818498 643.920533 
L 388.038906 653.266574 
L 389.259313 657.528474 
L 390.479721 659.026606 
L 391.700128 658.882908 
L 392.920536 657.979976 
L 394.140943 656.712378 
L 395.361351 654.944679 
L 397.802166 650.8748 
L 401.463389 643.42503 
L 406.345019 632.087367 
L 418.549094 602.278127 
L 420.989909 597.131574 
L 422.210317 595.385006 
L 423.430724 595.212827 
L 424.651132 597.764091 
L 425.87154 606.162925 
L 427.091947 621.662648 
L 428.312355 638.916724 
L 429.532762 651.098306 
L 430.75317 657.071688 
L 431.973577 659.387671 
L 433.193985 659.788961 
L 434.414392 659.145304 
L 435.6348 658.029871 
L 436.855207 656.518819 
L 439.296023 652.690544 
L 441.736838 648.110274 
L 444.177653 643.021094 
L 447.838875 634.715982 
L 452.720506 623.00165 
L 460.042951 605.414025 
L 461.263358 602.811308 
L 462.483766 600.608904 
L 463.704173 599.50298 
L 464.924581 600.236973 
L 466.144989 604.635045 
L 467.365396 615.046088 
L 469.806211 643.669587 
L 471.026619 652.093612 
L 472.247026 655.97023 
L 473.467434 657.278981 
L 474.687841 657.070194 
L 475.908249 656.073434 
L 477.128657 654.659931 
L 478.349064 652.812792 
L 480.789879 648.418174 
L 483.230694 643.230383 
L 485.671509 637.60798 
L 490.55314 625.346768 
L 496.655177 609.871494 
L 497.875585 607.177585 
L 499.095992 605.268222 
L 500.3164 604.770825 
L 501.536807 606.846327 
L 502.757215 613.74402 
L 503.977623 625.935254 
L 505.19803 639.407336 
L 506.418438 649.22998 
L 507.638845 654.342676 
L 508.859253 656.386188 
L 510.07966 656.638162 
L 511.300068 655.846649 
L 512.520475 654.540183 
L 513.740883 652.801134 
L 516.181698 648.457288 
L 518.622513 643.315453 
L 521.063328 637.68006 
L 524.724551 628.561128 
L 534.487811 603.572361 
L 535.708219 600.994449 
L 536.928626 599.401441 
L 538.149034 599.552157 
L 539.369441 603.187051 
L 540.589849 613.192238 
L 543.030664 643.920531 
L 544.251072 653.266571 
L 545.471479 657.528471 
L 546.691887 659.026603 
L 547.912294 658.882904 
L 549.132702 657.979973 
L 550.353109 656.712374 
L 551.573517 654.944675 
L 554.014332 650.874795 
L 557.675555 643.425024 
L 562.557185 632.087359 
L 574.76126 602.278118 
L 577.202075 597.131566 
L 578.422483 595.385007 
L 579.642891 595.212839 
L 580.863298 597.76413 
L 582.083706 606.163012 
L 583.304113 621.662769 
L 584.524521 638.916827 
L 585.744928 651.098363 
L 586.965336 657.07171 
L 588.185743 659.387676 
L 589.406151 659.788957 
L 590.626558 659.145295 
L 591.846966 658.029859 
L 593.067374 656.518805 
L 595.508189 652.690526 
L 597.949004 648.110254 
L 600.389819 643.021071 
L 604.051041 634.715956 
L 608.932672 623.001623 
L 616.255117 605.414 
L 617.475524 602.811284 
L 618.695932 600.608887 
L 619.91634 599.502976 
L 621.136747 600.236994 
L 622.357155 604.635116 
L 623.577562 615.046221 
L 626.018377 643.669701 
L 627.238785 652.093672 
L 628.459192 655.970255 
L 629.6796 657.278988 
L 630.900008 657.070189 
L 632.120415 656.073424 
L 633.340823 654.659917 
L 634.56123 652.812774 
L 637.002045 648.418153 
L 639.44286 643.230359 
L 641.883675 637.607953 
L 646.765306 625.346741 
L 652.867343 609.871469 
L 654.087751 607.177562 
L 655.308158 605.268206 
L 656.528566 604.770818 
L 657.748974 606.846341 
L 658.969381 613.744067 
L 660.189789 625.935325 
L 661.410196 639.407403 
L 662.630604 649.230023 
L 663.851011 654.342697 
L 665.071419 656.386197 
L 666.291826 656.638164 
L 667.512234 655.846647 
L 668.732641 654.540179 
L 669.953049 652.801129 
L 672.393864 648.45728 
L 674.834679 643.315444 
L 677.275494 637.680051 
L 680.936717 628.561119 
L 685.818347 615.859222 
L 685.818347 615.859222 
" clip-path="url(#p3971982837)" style="fill: none; stroke: #ff7f0e; stroke-width: 1.2; stroke-linecap: square"/>
   </g>
   <g id="patch_18">
    <path d="M 31.008677 666.804356 
L 31.008677 512.465682 
" style="fill: none; stroke: #000000; stroke-width: 0.8; stroke-linejoin: miter; stroke-linecap: square"/>
   </g>
   <g id="patch_19">
    <path d="M 716.99976 666.804356 
L 716.99976 512.465682 
" style="fill: none; stroke: #000000; stroke-width: 0.8; stroke-linejoin: miter; stroke-linecap: square"/>
   </g>
   <g id="patch_20">
    <path d="M 31.008678 666.804356 
L 716.99976 666.804356 
" style="fill: none; stroke: #000000; stroke-width: 0.8; stroke-linejoin: miter; stroke-linecap: square"/>
   </g>
   <g id="patch_21">
    <path d="M 31.008678 512.465682 
L 716.99976 512.465682 
" style="fill: none; stroke: #000000; stroke-width: 0.8; stroke-linejoin: miter; stroke-linecap: square"/>
   </g>
  </g>
  <g id="axes_5">
   <g id="patch_22">
    <path d="M 31.008677 830.64351 
L 716.99976 830.64351 
L 716.99976 676.304836 
L 31.008677 676.304836 
z
" style="fill: #ffffff"/>
   </g>
   <g id="matplotlib.axis_9">
    <g id="xtick_25">
     <g id="line2d_49">
      <g>
       <use xlink:href="#mafac5bf4d2" x="62.19009" y="830.64351" style="stroke: #000000; stroke-width: 0.8"/>
      </g>
     </g>
     <g id="text_21">
      <!-- 0 -->
      <g transform="translate(59.00884 845.241948) scale(0.1 -0.1)">
       <defs>
        <path id="DejaVuSans-30" d="M 2034 4250 
Q 1547 4250 1301 3770 
Q 1056 3291 1056 2328 
Q 1056 1369 1301 889 
Q 1547 409 2034 409 
Q 2525 409 2770 889 
Q 3016 1369 3016 2328 
Q 3016 3291 2770 3770 
Q 2525 4250 2034 4250 
z
M 2034 4750 
Q 2819 4750 3233 4129 
Q 3647 3509 3647 2328 
Q 3647 1150 3233 529 
Q 2819 -91 2034 -91 
Q 1250 -91 836 529 
Q 422 1150 422 2328 
Q 422 3509 836 4129 
Q 1250 4750 2034 4750 
z
" transform="scale(0.015625)"/>
       </defs>
       <use xlink:href="#DejaVuSans-30"/>
      </g>
     </g>
    </g>
    <g id="xtick_26">
     <g id="line2d_50">
      <g>
       <use xlink:href="#mafac5bf4d2" x="187.159823" y="830.64351" style="stroke: #000000; stroke-width: 0.8"/>
      </g>
     </g>
     <g id="text_22">
      <!-- 2 -->
      <g transform="translate(183.978573 845.241948) scale(0.1 -0.1)">
       <use xlink:href="#DejaVuSans-32"/>
      </g>
     </g>
    </g>
    <g id="xtick_27">
     <g id="line2d_51">
      <g>
       <use xlink:href="#mafac5bf4d2" x="312.129556" y="830.64351" style="stroke: #000000; stroke-width: 0.8"/>
      </g>
     </g>
     <g id="text_23">
      <!-- 4 -->
      <g transform="translate(308.948306 845.241948) scale(0.1 -0.1)">
       <use xlink:href="#DejaVuSans-34"/>
      </g>
     </g>
    </g>
    <g id="xtick_28">
     <g id="line2d_52">
      <g>
       <use xlink:href="#mafac5bf4d2" x="437.099289" y="830.64351" style="stroke: #000000; stroke-width: 0.8"/>
      </g>
     </g>
     <g id="text_24">
      <!-- 6 -->
      <g transform="translate(433.918039 845.241948) scale(0.1 -0.1)">
       <defs>
        <path id="DejaVuSans-36" d="M 2113 2584 
Q 1688 2584 1439 2293 
Q 1191 2003 1191 1497 
Q 1191 994 1439 701 
Q 1688 409 2113 409 
Q 2538 409 2786 701 
Q 3034 994 3034 1497 
Q 3034 2003 2786 2293 
Q 2538 2584 2113 2584 
z
M 3366 4563 
L 3366 3988 
Q 3128 4100 2886 4159 
Q 2644 4219 2406 4219 
Q 1781 4219 1451 3797 
Q 1122 3375 1075 2522 
Q 1259 2794 1537 2939 
Q 1816 3084 2150 3084 
Q 2853 3084 3261 2657 
Q 3669 2231 3669 1497 
Q 3669 778 3244 343 
Q 2819 -91 2113 -91 
Q 1303 -91 875 529 
Q 447 1150 447 2328 
Q 447 3434 972 4092 
Q 1497 4750 2381 4750 
Q 2619 4750 2861 4703 
Q 3103 4656 3366 4563 
z
" transform="scale(0.015625)"/>
       </defs>
       <use xlink:href="#DejaVuSans-36"/>
      </g>
     </g>
    </g>
    <g id="xtick_29">
     <g id="line2d_53">
      <g>
       <use xlink:href="#mafac5bf4d2" x="562.069022" y="830.64351" style="stroke: #000000; stroke-width: 0.8"/>
      </g>
     </g>
     <g id="text_25">
      <!-- 8 -->
      <g transform="translate(558.887772 845.241948) scale(0.1 -0.1)">
       <defs>
        <path id="DejaVuSans-38" d="M 2034 2216 
Q 1584 2216 1326 1975 
Q 1069 1734 1069 1313 
Q 1069 891 1326 650 
Q 1584 409 2034 409 
Q 2484 409 2743 651 
Q 3003 894 3003 1313 
Q 3003 1734 2745 1975 
Q 2488 2216 2034 2216 
z
M 1403 2484 
Q 997 2584 770 2862 
Q 544 3141 544 3541 
Q 544 4100 942 4425 
Q 1341 4750 2034 4750 
Q 2731 4750 3128 4425 
Q 3525 4100 3525 3541 
Q 3525 3141 3298 2862 
Q 3072 2584 2669 2484 
Q 3125 2378 3379 2068 
Q 3634 1759 3634 1313 
Q 3634 634 3220 271 
Q 2806 -91 2034 -91 
Q 1263 -91 848 271 
Q 434 634 434 1313 
Q 434 1759 690 2068 
Q 947 2378 1403 2484 
z
M 1172 3481 
Q 1172 3119 1398 2916 
Q 1625 2713 2034 2713 
Q 2441 2713 2670 2916 
Q 2900 3119 2900 3481 
Q 2900 3844 2670 4047 
Q 2441 4250 2034 4250 
Q 1625 4250 1398 4047 
Q 1172 3844 1172 3481 
z
" transform="scale(0.015625)"/>
       </defs>
       <use xlink:href="#DejaVuSans-38"/>
      </g>
     </g>
    </g>
    <g id="xtick_30">
     <g id="line2d_54">
      <g>
       <use xlink:href="#mafac5bf4d2" x="687.038755" y="830.64351" style="stroke: #000000; stroke-width: 0.8"/>
      </g>
     </g>
     <g id="text_26">
      <!-- 10 -->
      <g transform="translate(680.676255 845.241948) scale(0.1 -0.1)">
       <use xlink:href="#DejaVuSans-31"/>
       <use xlink:href="#DejaVuSans-30" x="63.623047"/>
      </g>
     </g>
    </g>
    <g id="text_27">
     <!-- x -->
     <g transform="translate(371.044844 858.920073) scale(0.1 -0.1)">
      <defs>
       <path id="DejaVuSans-78" d="M 3513 3500 
L 2247 1797 
L 3578 0 
L 2900 0 
L 1881 1375 
L 863 0 
L 184 0 
L 1544 1831 
L 300 3500 
L 978 3500 
L 1906 2253 
L 2834 3500 
L 3513 3500 
z
" transform="scale(0.015625)"/>
      </defs>
      <use xlink:href="#DejaVuSans-78"/>
     </g>
    </g>
   </g>
   <g id="matplotlib.axis_10">
    <g id="ytick_17">
     <g id="line2d_55">
      <g>
       <use xlink:href="#m8582945c5f" x="31.008677" y="805.222037" style="stroke: #000000; stroke-width: 0.8"/>
      </g>
     </g>
     <g id="text_28">
      <!-- 1 -->
      <g style="fill: #ff0000" transform="translate(17.646177 809.021256) scale(0.1 -0.1)">
       <use xlink:href="#DejaVuSans-31"/>
      </g>
     </g>
    </g>
    <g id="ytick_18">
     <g id="line2d_56">
      <g>
       <use xlink:href="#m8582945c5f" x="31.008677" y="764.8572" style="stroke: #000000; stroke-width: 0.8"/>
      </g>
     </g>
     <g id="text_29">
      <!-- 2 -->
      <g style="fill: #ff0000" transform="translate(17.646177 768.656419) scale(0.1 -0.1)">
       <use xlink:href="#DejaVuSans-32"/>
      </g>
     </g>
    </g>
    <g id="ytick_19">
     <g id="line2d_57">
      <g>
       <use xlink:href="#m8582945c5f" x="31.008677" y="724.492364" style="stroke: #000000; stroke-width: 0.8"/>
      </g>
     </g>
     <g id="text_30">
      <!-- 3 -->
      <g style="fill: #ff0000" transform="translate(17.646177 728.291582) scale(0.1 -0.1)">
       <use xlink:href="#DejaVuSans-33"/>
      </g>
     </g>
    </g>
    <g id="ytick_20">
     <g id="line2d_58">
      <g>
       <use xlink:href="#m8582945c5f" x="31.008677" y="684.127527" style="stroke: #000000; stroke-width: 0.8"/>
      </g>
     </g>
     <g id="text_31">
      <!-- 4 -->
      <g style="fill: #ff0000" transform="translate(17.646177 687.926746) scale(0.1 -0.1)">
       <use xlink:href="#DejaVuSans-34"/>
      </g>
     </g>
    </g>
    <g id="text_32">
     <!-- m=5 -->
     <g style="fill: #ff0000" transform="translate(11.358521 766.93972) rotate(-90) scale(0.11 -0.11)">
      <defs>
       <path id="DejaVuSans-35" d="M 691 4666 
L 3169 4666 
L 3169 4134 
L 1269 4134 
L 1269 2991 
Q 1406 3038 1543 3061 
Q 1681 3084 1819 3084 
Q 2600 3084 3056 2656 
Q 3513 2228 3513 1497 
Q 3513 744 3044 326 
Q 2575 -91 1722 -91 
Q 1428 -91 1123 -41 
Q 819 9 494 109 
L 494 744 
Q 775 591 1075 516 
Q 1375 441 1709 441 
Q 2250 441 2565 725 
Q 2881 1009 2881 1497 
Q 2881 1984 2565 2268 
Q 2250 2553 1709 2553 
Q 1456 2553 1204 2497 
Q 953 2441 691 2322 
L 691 4666 
z
" transform="scale(0.015625)"/>
      </defs>
      <use xlink:href="#DejaVuSans-6d"/>
      <use xlink:href="#DejaVuSans-3d" x="97.412109"/>
      <use xlink:href="#DejaVuSans-35" x="181.201172"/>
     </g>
    </g>
   </g>
   <g id="line2d_59">
    <path d="M 62.19009 683.32023 
L 73.173758 683.440231 
L 85.377834 683.809459 
L 115.888022 684.857315 
L 126.87169 684.929905 
L 137.855358 684.763957 
L 151.279841 684.314059 
L 175.687992 683.450831 
L 186.67166 683.320473 
L 197.655328 683.430045 
L 209.859404 683.791345 
L 241.59 684.869525 
L 252.573668 684.926086 
L 263.557336 684.745244 
L 276.981819 684.285023 
L 300.169562 683.461839 
L 311.15323 683.321203 
L 322.136898 683.420278 
L 334.340973 683.773434 
L 366.07157 684.861495 
L 377.055238 684.928752 
L 388.038906 684.757814 
L 401.463389 684.304407 
L 424.651132 683.473248 
L 435.6348 683.322418 
L 446.618468 683.410938 
L 458.822543 683.755736 
L 491.773547 684.873372 
L 502.757215 684.924572 
L 513.740883 684.738819 
L 528.385774 684.226349 
L 549.132702 683.48505 
L 560.11637 683.324118 
L 571.100038 683.40203 
L 583.304113 683.738262 
L 617.475524 684.884238 
L 628.459192 684.919312 
L 639.44286 684.718996 
L 654.087751 684.196791 
L 673.614272 683.49724 
L 684.59794 683.326302 
L 685.818347 683.32175 
L 685.818347 683.32175 
" clip-path="url(#p145ca3b1f2)" style="fill: none; stroke: #1f77b4; stroke-width: 1.2; stroke-linecap: square"/>
   </g>
   <g id="line2d_60">
    <path d="M 62.19009 798.850963 
L 71.953351 775.381171 
L 74.394166 769.562022 
L 76.834981 764.40714 
L 78.055388 762.483398 
L 79.275796 762.020297 
L 80.496204 764.062258 
L 81.716611 771.097565 
L 82.937019 784.775092 
L 84.157426 801.179553 
L 85.377834 813.686667 
L 86.598241 820.191002 
L 87.818649 822.841158 
L 89.039056 823.456338 
L 90.259464 822.905187 
L 91.479871 821.854251 
L 92.700279 820.401434 
L 95.141094 816.615458 
L 97.581909 812.054744 
L 100.022724 807.033904 
L 103.683947 798.770951 
L 117.10843 766.739454 
L 118.328838 764.203771 
L 119.549245 762.191851 
L 120.769653 761.534894 
L 121.99006 763.197965 
L 123.210468 769.580993 
L 124.430875 782.760654 
L 125.651283 799.436593 
L 126.87169 812.744812 
L 128.092098 819.867864 
L 129.312505 822.825331 
L 130.532913 823.628116 
L 131.753321 823.163423 
L 132.973728 822.160962 
L 134.194136 820.778616 
L 136.634951 817.046362 
L 137.855358 814.934356 
L 141.516581 807.605262 
L 146.398211 796.511217 
L 152.500249 781.904813 
L 157.381879 770.18116 
L 159.822694 764.89409 
L 161.043102 762.680717 
L 162.263509 761.639883 
L 163.483917 762.578254 
L 164.704324 767.400042 
L 165.924732 778.783251 
L 167.145139 795.114606 
L 168.365547 809.769229 
L 169.585955 818.415632 
L 170.806362 822.215692 
L 172.02677 823.471027 
L 173.247177 823.267856 
L 174.467585 822.369257 
L 175.687992 821.083681 
L 176.9084 819.377535 
L 179.349215 815.40027 
L 181.79003 810.65759 
L 184.230845 805.470454 
L 187.892068 797.108004 
L 193.994105 782.47008 
L 198.875736 770.684981 
L 201.316551 765.386494 
L 202.536958 763.122496 
L 203.757366 761.982522 
L 204.977773 762.823105 
L 206.198181 767.4929 
L 207.418589 778.620227 
L 209.859404 809.43524 
L 211.079811 818.2059 
L 212.300219 822.091757 
L 213.520626 823.394705 
L 214.741034 823.213456 
L 215.961441 822.315624 
L 217.181849 821.037181 
L 218.402256 819.333403 
L 220.843072 815.348587 
L 223.283887 810.591614 
L 225.724702 805.40473 
L 229.385924 797.026388 
L 235.487962 782.357145 
L 240.369592 770.557998 
L 242.810407 765.194728 
L 244.030815 762.878182 
L 245.251222 761.588354 
L 246.47163 762.143633 
L 247.692038 766.257813 
L 248.912445 776.736637 
L 251.35326 808.161354 
L 252.573668 817.682332 
L 253.794075 821.975418 
L 255.014483 823.502278 
L 256.23489 823.448669 
L 257.455298 822.599936 
L 258.675706 821.387454 
L 259.896113 819.734673 
L 262.336928 815.813752 
L 264.777743 811.102023 
L 267.218558 805.989653 
L 270.879781 797.677166 
L 284.304264 765.906959 
L 285.524672 763.47501 
L 286.745079 761.865263 
L 287.965487 761.890627 
L 289.185894 764.803911 
L 290.406302 773.392722 
L 292.847117 804.527541 
L 294.067524 815.690566 
L 295.287932 821.101128 
L 296.508339 823.188172 
L 297.728747 823.472837 
L 298.949155 822.775956 
L 300.169562 821.649918 
L 301.38997 820.100216 
L 303.830785 816.25768 
L 306.2716 811.627246 
L 308.712415 806.557722 
L 312.373638 798.270943 
L 319.696083 780.664374 
L 324.577713 769.016336 
L 327.018528 763.945682 
L 328.238936 762.249461 
L 329.459343 762.174613 
L 330.679751 764.970108 
L 331.900158 773.335531 
L 333.120566 788.068058 
L 334.340973 804.158506 
L 335.561381 815.429504 
L 336.781789 820.948771 
L 338.002196 823.095289 
L 339.222604 823.413385 
L 340.443011 822.722743 
L 341.663419 821.59971 
L 342.883826 820.057841 
L 345.324641 816.203657 
L 347.765456 811.56724 
L 350.206272 806.495118 
L 353.867494 798.191677 
L 363.630755 774.670852 
L 366.07157 768.866907 
L 368.512385 763.732666 
L 369.732792 761.927863 
L 370.9532 761.633304 
L 372.173607 763.992511 
L 373.394015 771.680085 
L 374.614423 786.034751 
L 375.83483 802.555468 
L 377.055238 814.63994 
L 378.275645 820.704313 
L 379.496053 823.123629 
L 380.71646 823.61095 
L 381.936868 822.989901 
L 383.157275 821.920447 
L 384.377683 820.445959 
L 386.818498 816.645442 
L 388.038906 814.475732 
L 391.700128 807.073914 
L 396.581758 795.93065 
L 401.463389 784.253143 
L 407.565426 769.616894 
L 410.006241 764.401715 
L 411.226649 762.35217 
L 412.447056 761.636991 
L 413.667464 763.133718 
L 414.887872 769.10439 
L 416.108279 781.823959 
L 417.328687 798.399822 
L 418.549094 812.00268 
L 419.769502 819.472884 
L 420.989909 822.622137 
L 422.210317 823.521888 
L 423.430724 823.123584 
L 424.651132 822.145446 
L 425.87154 820.773035 
L 428.312355 817.07318 
L 429.532762 814.954311 
L 431.973577 810.169665 
L 434.414392 804.925804 
L 438.075615 796.528326 
L 442.957245 784.827191 
L 449.059283 770.118311 
L 451.500098 764.889894 
L 452.720506 762.776608 
L 453.940913 761.959853 
L 455.161321 763.356126 
L 456.381728 769.151355 
L 457.602136 781.607788 
L 458.822543 798.029685 
L 460.042951 811.690372 
L 461.263358 819.28424 
L 462.483766 822.509332 
L 463.704173 823.45216 
L 464.924581 823.070089 
L 466.144989 822.0923 
L 467.365396 820.728396 
L 469.806211 817.01807 
L 471.026619 814.904084 
L 473.467434 810.102153 
L 475.908249 804.857444 
L 479.569472 796.444359 
L 485.671509 781.759188 
L 490.55314 769.984788 
L 492.993955 764.693117 
L 494.214362 762.510699 
L 495.43477 761.522991 
L 496.655177 762.591199 
L 497.875585 767.777382 
L 499.095992 779.645607 
L 500.3164 796.169664 
L 501.536807 810.586364 
L 502.757215 818.869151 
L 503.977623 822.445858 
L 505.19803 823.59387 
L 506.418438 823.318036 
L 507.638845 822.386769 
L 508.859253 821.092657 
L 510.07966 819.363066 
L 512.520475 815.380362 
L 514.96129 810.617004 
L 517.402106 805.442237 
L 521.063328 797.09367 
L 527.165366 782.49846 
L 532.046996 770.75456 
L 534.487811 765.397052 
L 535.708219 763.057282 
L 536.928626 761.717732 
L 538.149034 762.171772 
L 539.369441 765.974013 
L 540.589849 775.96224 
L 543.030664 807.274686 
L 544.251072 817.163809 
L 545.471479 821.713653 
L 546.691887 823.361852 
L 547.912294 823.386287 
L 549.132702 822.579187 
L 550.353109 821.375858 
L 551.573517 819.743434 
L 554.014332 815.834447 
L 556.455147 811.142656 
L 558.895962 806.014683 
L 562.557185 797.689059 
L 568.659223 783.064766 
L 573.540853 771.261894 
L 575.981668 765.89208 
L 577.202075 763.514517 
L 578.422483 762.080792 
L 579.642891 762.436574 
L 580.863298 766.106229 
L 582.083706 775.852372 
L 584.524521 806.921121 
L 585.744928 816.929797 
L 586.965336 821.576727 
L 588.185743 823.277851 
L 589.406151 823.33004 
L 590.626558 822.52568 
L 591.846966 821.327489 
L 593.067374 819.700619 
L 595.508189 815.781488 
L 597.949004 811.079384 
L 600.389819 805.951048 
L 604.051041 797.609179 
L 611.373487 779.948026 
L 616.255117 768.322831 
L 618.695932 763.287895 
L 619.91634 761.724886 
L 621.136747 761.830936 
L 622.357155 765.003887 
L 623.577562 774.071872 
L 626.018377 805.477224 
L 627.238785 816.28064 
L 628.459192 821.400559 
L 629.6796 823.347456 
L 630.900008 823.54875 
L 632.120415 822.801239 
L 633.340823 821.663087 
L 634.56123 820.096807 
L 637.002045 816.235054 
L 639.44286 811.587535 
L 641.883675 806.53442 
L 646.765306 795.352927 
L 651.646936 783.67199 
L 657.748974 769.062588 
L 660.189789 763.925962 
L 661.410196 762.078313 
L 662.630604 761.716979 
L 663.851011 763.866082 
L 665.071419 771.10189 
L 666.291826 785.040487 
L 667.512234 801.555096 
L 668.732641 813.974753 
L 669.953049 820.360783 
L 671.173457 822.943764 
L 672.393864 823.520384 
L 673.614272 822.958328 
L 674.834679 821.906151 
L 676.055087 820.444497 
L 678.495902 816.670299 
L 680.936717 812.111612 
L 683.377532 807.096831 
L 685.818347 801.665713 
L 685.818347 801.665713 
" clip-path="url(#p145ca3b1f2)" style="fill: none; stroke: #ff7f0e; stroke-width: 1.2; stroke-linecap: square"/>
   </g>
   <g id="patch_23">
    <path d="M 31.008677 830.64351 
L 31.008677 676.304836 
" style="fill: none; stroke: #000000; stroke-width: 0.8; stroke-linejoin: miter; stroke-linecap: square"/>
   </g>
   <g id="patch_24">
    <path d="M 716.99976 830.64351 
L 716.99976 676.304836 
" style="fill: none; stroke: #000000; stroke-width: 0.8; stroke-linejoin: miter; stroke-linecap: square"/>
   </g>
   <g id="patch_25">
    <path d="M 31.008678 830.64351 
L 716.99976 830.64351 
" style="fill: none; stroke: #000000; stroke-width: 0.8; stroke-linejoin: miter; stroke-linecap: square"/>
   </g>
   <g id="patch_26">
    <path d="M 31.008678 676.304836 
L 716.99976 676.304836 
" style="fill: none; stroke: #000000; stroke-width: 0.8; stroke-linejoin: miter; stroke-linecap: square"/>
   </g>
  </g>
  <g id="text_33">
   <!-- Snapshots shown for t = 0.0  5.0 -->
   <g transform="translate(255.454688 852.864375) scale(0.12 -0.12)">
    <defs>
     <path id="DejaVuSans-53" d="M 3425 4513 
L 3425 3897 
Q 3066 4069 2747 4153 
Q 2428 4238 2131 4238 
Q 1616 4238 1336 4038 
Q 1056 3838 1056 3469 
Q 1056 3159 1242 3001 
Q 1428 2844 1947 2747 
L 2328 2669 
Q 3034 2534 3370 2195 
Q 3706 1856 3706 1288 
Q 3706 609 3251 259 
Q 2797 -91 1919 -91 
Q 1588 -91 1214 -16 
Q 841 59 441 206 
L 441 856 
Q 825 641 1194 531 
Q 1563 422 1919 422 
Q 2459 422 2753 634 
Q 3047 847 3047 1241 
Q 3047 1584 2836 1778 
Q 2625 1972 2144 2069 
L 1759 2144 
Q 1053 2284 737 2584 
Q 422 2884 422 3419 
Q 422 4038 858 4394 
Q 1294 4750 2059 4750 
Q 2388 4750 2728 4690 
Q 3069 4631 3425 4513 
z
" transform="scale(0.015625)"/>
     <path id="DejaVuSans-6e" d="M 3513 2113 
L 3513 0 
L 2938 0 
L 2938 2094 
Q 2938 2591 2744 2837 
Q 2550 3084 2163 3084 
Q 1697 3084 1428 2787 
Q 1159 2491 1159 1978 
L 1159 0 
L 581 0 
L 581 3500 
L 1159 3500 
L 1159 2956 
Q 1366 3272 1645 3428 
Q 1925 3584 2291 3584 
Q 2894 3584 3203 3211 
Q 3513 2838 3513 2113 
z
" transform="scale(0.015625)"/>
     <path id="DejaVuSans-61" d="M 2194 1759 
Q 1497 1759 1228 1600 
Q 959 1441 959 1056 
Q 959 750 1161 570 
Q 1363 391 1709 391 
Q 2188 391 2477 730 
Q 2766 1069 2766 1631 
L 2766 1759 
L 2194 1759 
z
M 3341 1997 
L 3341 0 
L 2766 0 
L 2766 531 
Q 2569 213 2275 61 
Q 1981 -91 1556 -91 
Q 1019 -91 701 211 
Q 384 513 384 1019 
Q 384 1609 779 1909 
Q 1175 2209 1959 2209 
L 2766 2209 
L 2766 2266 
Q 2766 2663 2505 2880 
Q 2244 3097 1772 3097 
Q 1472 3097 1187 3025 
Q 903 2953 641 2809 
L 641 3341 
Q 956 3463 1253 3523 
Q 1550 3584 1831 3584 
Q 2591 3584 2966 3190 
Q 3341 2797 3341 1997 
z
" transform="scale(0.015625)"/>
     <path id="DejaVuSans-70" d="M 1159 525 
L 1159 -1331 
L 581 -1331 
L 581 3500 
L 1159 3500 
L 1159 2969 
Q 1341 3281 1617 3432 
Q 1894 3584 2278 3584 
Q 2916 3584 3314 3078 
Q 3713 2572 3713 1747 
Q 3713 922 3314 415 
Q 2916 -91 2278 -91 
Q 1894 -91 1617 61 
Q 1341 213 1159 525 
z
M 3116 1747 
Q 3116 2381 2855 2742 
Q 2594 3103 2138 3103 
Q 1681 3103 1420 2742 
Q 1159 2381 1159 1747 
Q 1159 1113 1420 752 
Q 1681 391 2138 391 
Q 2594 391 2855 752 
Q 3116 1113 3116 1747 
z
" transform="scale(0.015625)"/>
     <path id="DejaVuSans-73" d="M 2834 3397 
L 2834 2853 
Q 2591 2978 2328 3040 
Q 2066 3103 1784 3103 
Q 1356 3103 1142 2972 
Q 928 2841 928 2578 
Q 928 2378 1081 2264 
Q 1234 2150 1697 2047 
L 1894 2003 
Q 2506 1872 2764 1633 
Q 3022 1394 3022 966 
Q 3022 478 2636 193 
Q 2250 -91 1575 -91 
Q 1294 -91 989 -36 
Q 684 19 347 128 
L 347 722 
Q 666 556 975 473 
Q 1284 391 1588 391 
Q 1994 391 2212 530 
Q 2431 669 2431 922 
Q 2431 1156 2273 1281 
Q 2116 1406 1581 1522 
L 1381 1569 
Q 847 1681 609 1914 
Q 372 2147 372 2553 
Q 372 3047 722 3315 
Q 1072 3584 1716 3584 
Q 2034 3584 2315 3537 
Q 2597 3491 2834 3397 
z
" transform="scale(0.015625)"/>
     <path id="DejaVuSans-68" d="M 3513 2113 
L 3513 0 
L 2938 0 
L 2938 2094 
Q 2938 2591 2744 2837 
Q 2550 3084 2163 3084 
Q 1697 3084 1428 2787 
Q 1159 2491 1159 1978 
L 1159 0 
L 581 0 
L 581 4863 
L 1159 4863 
L 1159 2956 
Q 1366 3272 1645 3428 
Q 1925 3584 2291 3584 
Q 2894 3584 3203 3211 
Q 3513 2838 3513 2113 
z
" transform="scale(0.015625)"/>
     <path id="DejaVuSans-6f" d="M 1959 3097 
Q 1497 3097 1228 2736 
Q 959 2375 959 1747 
Q 959 1119 1226 758 
Q 1494 397 1959 397 
Q 2419 397 2687 759 
Q 2956 1122 2956 1747 
Q 2956 2369 2687 2733 
Q 2419 3097 1959 3097 
z
M 1959 3584 
Q 2709 3584 3137 3096 
Q 3566 2609 3566 1747 
Q 3566 888 3137 398 
Q 2709 -91 1959 -91 
Q 1206 -91 779 398 
Q 353 888 353 1747 
Q 353 2609 779 3096 
Q 1206 3584 1959 3584 
z
" transform="scale(0.015625)"/>
     <path id="DejaVuSans-74" d="M 1172 4494 
L 1172 3500 
L 2356 3500 
L 2356 3053 
L 1172 3053 
L 1172 1153 
Q 1172 725 1289 603 
Q 1406 481 1766 481 
L 2356 481 
L 2356 0 
L 1766 0 
Q 1100 0 847 248 
Q 594 497 594 1153 
L 594 3053 
L 172 3053 
L 172 3500 
L 594 3500 
L 594 4494 
L 1172 4494 
z
" transform="scale(0.015625)"/>
     <path id="DejaVuSans-20" transform="scale(0.015625)"/>
     <path id="DejaVuSans-77" d="M 269 3500 
L 844 3500 
L 1563 769 
L 2278 3500 
L 2956 3500 
L 3675 769 
L 4391 3500 
L 4966 3500 
L 4050 0 
L 3372 0 
L 2619 2869 
L 1863 0 
L 1184 0 
L 269 3500 
z
" transform="scale(0.015625)"/>
     <path id="DejaVuSans-66" d="M 2375 4863 
L 2375 4384 
L 1825 4384 
Q 1516 4384 1395 4259 
Q 1275 4134 1275 3809 
L 1275 3500 
L 2222 3500 
L 2222 3053 
L 1275 3053 
L 1275 0 
L 697 0 
L 697 3053 
L 147 3053 
L 147 3500 
L 697 3500 
L 697 3744 
Q 697 4328 969 4595 
Q 1241 4863 1831 4863 
L 2375 4863 
z
" transform="scale(0.015625)"/>
     <path id="DejaVuSans-72" d="M 2631 2963 
Q 2534 3019 2420 3045 
Q 2306 3072 2169 3072 
Q 1681 3072 1420 2755 
Q 1159 2438 1159 1844 
L 1159 0 
L 581 0 
L 581 3500 
L 1159 3500 
L 1159 2956 
Q 1341 3275 1631 3429 
Q 1922 3584 2338 3584 
Q 2397 3584 2469 3576 
Q 2541 3569 2628 3553 
L 2631 2963 
z
" transform="scale(0.015625)"/>
     <path id="DejaVuSans-2e" d="M 684 794 
L 1344 794 
L 1344 0 
L 684 0 
L 684 794 
z
" transform="scale(0.015625)"/>
     <path id="DejaVuSans-2026" d="M 2869 794 
L 3531 794 
L 3531 0 
L 2869 0 
L 2869 794 
z
M 4997 794 
L 5663 794 
L 5663 0 
L 4997 0 
L 4997 794 
z
M 738 794 
L 1403 794 
L 1403 0 
L 738 0 
L 738 794 
z
" transform="scale(0.015625)"/>
    </defs>
    <use xlink:href="#DejaVuSans-53"/>
    <use xlink:href="#DejaVuSans-6e" x="63.476562"/>
    <use xlink:href="#DejaVuSans-61" x="126.855469"/>
    <use xlink:href="#DejaVuSans-70" x="188.134766"/>
    <use xlink:href="#DejaVuSans-73" x="251.611328"/>
    <use xlink:href="#DejaVuSans-68" x="303.710938"/>
    <use xlink:href="#DejaVuSans-6f" x="367.089844"/>
    <use xlink:href="#DejaVuSans-74" x="428.271484"/>
    <use xlink:href="#DejaVuSans-73" x="467.480469"/>
    <use xlink:href="#DejaVuSans-20" x="519.580078"/>
    <use xlink:href="#DejaVuSans-73" x="551.367188"/>
    <use xlink:href="#DejaVuSans-68" x="603.466797"/>
    <use xlink:href="#DejaVuSans-6f" x="666.845703"/>
    <use xlink:href="#DejaVuSans-77" x="728.027344"/>
    <use xlink:href="#DejaVuSans-6e" x="809.814453"/>
    <use xlink:href="#DejaVuSans-20" x="873.193359"/>
    <use xlink:href="#DejaVuSans-66" x="904.980469"/>
    <use xlink:href="#DejaVuSans-6f" x="940.185547"/>
    <use xlink:href="#DejaVuSans-72" x="1001.367188"/>
    <use xlink:href="#DejaVuSans-20" x="1042.480469"/>
    <use xlink:href="#DejaVuSans-74" x="1074.267578"/>
    <use xlink:href="#DejaVuSans-20" x="1113.476562"/>
    <use xlink:href="#DejaVuSans-3d" x="1145.263672"/>
    <use xlink:href="#DejaVuSans-20" x="1229.052734"/>
    <use xlink:href="#DejaVuSans-30" x="1260.839844"/>
    <use xlink:href="#DejaVuSans-2e" x="1324.462891"/>
    <use xlink:href="#DejaVuSans-30" x="1356.25"/>
    <use xlink:href="#DejaVuSans-20" x="1419.873047"/>
    <use xlink:href="#DejaVuSans-2026" x="1451.660156"/>
    <use xlink:href="#DejaVuSans-20" x="1551.660156"/>
    <use xlink:href="#DejaVuSans-35" x="1583.447266"/>
    <use xlink:href="#DejaVuSans-2e" x="1647.070312"/>
    <use xlink:href="#DejaVuSans-30" x="1678.857422"/>
   </g>
  </g>
  <g id="text_34">
   <!-- Momentum snapshots p(x,t) for modes m=1..5  [seed_modes_1to5] -->
   <g transform="translate(156.159375 12.118365) scale(0.12 -0.12)">
    <defs>
     <path id="DejaVuSans-4d" d="M 628 4666 
L 1569 4666 
L 2759 1491 
L 3956 4666 
L 4897 4666 
L 4897 0 
L 4281 0 
L 4281 4097 
L 3078 897 
L 2444 897 
L 1241 4097 
L 1241 0 
L 628 0 
L 628 4666 
z
" transform="scale(0.015625)"/>
     <path id="DejaVuSans-65" d="M 3597 1894 
L 3597 1613 
L 953 1613 
Q 991 1019 1311 708 
Q 1631 397 2203 397 
Q 2534 397 2845 478 
Q 3156 559 3463 722 
L 3463 178 
Q 3153 47 2828 -22 
Q 2503 -91 2169 -91 
Q 1331 -91 842 396 
Q 353 884 353 1716 
Q 353 2575 817 3079 
Q 1281 3584 2069 3584 
Q 2775 3584 3186 3129 
Q 3597 2675 3597 1894 
z
M 3022 2063 
Q 3016 2534 2758 2815 
Q 2500 3097 2075 3097 
Q 1594 3097 1305 2825 
Q 1016 2553 972 2059 
L 3022 2063 
z
" transform="scale(0.015625)"/>
     <path id="DejaVuSans-75" d="M 544 1381 
L 544 3500 
L 1119 3500 
L 1119 1403 
Q 1119 906 1312 657 
Q 1506 409 1894 409 
Q 2359 409 2629 706 
Q 2900 1003 2900 1516 
L 2900 3500 
L 3475 3500 
L 3475 0 
L 2900 0 
L 2900 538 
Q 2691 219 2414 64 
Q 2138 -91 1772 -91 
Q 1169 -91 856 284 
Q 544 659 544 1381 
z
M 1991 3584 
L 1991 3584 
z
" transform="scale(0.015625)"/>
     <path id="DejaVuSans-28" d="M 1984 4856 
Q 1566 4138 1362 3434 
Q 1159 2731 1159 2009 
Q 1159 1288 1364 580 
Q 1569 -128 1984 -844 
L 1484 -844 
Q 1016 -109 783 600 
Q 550 1309 550 2009 
Q 550 2706 781 3412 
Q 1013 4119 1484 4856 
L 1984 4856 
z
" transform="scale(0.015625)"/>
     <path id="DejaVuSans-2c" d="M 750 794 
L 1409 794 
L 1409 256 
L 897 -744 
L 494 -744 
L 750 256 
L 750 794 
z
" transform="scale(0.015625)"/>
     <path id="DejaVuSans-29" d="M 513 4856 
L 1013 4856 
Q 1481 4119 1714 3412 
Q 1947 2706 1947 2009 
Q 1947 1309 1714 600 
Q 1481 -109 1013 -844 
L 513 -844 
Q 928 -128 1133 580 
Q 1338 1288 1338 2009 
Q 1338 2731 1133 3434 
Q 928 4138 513 4856 
z
" transform="scale(0.015625)"/>
     <path id="DejaVuSans-64" d="M 2906 2969 
L 2906 4863 
L 3481 4863 
L 3481 0 
L 2906 0 
L 2906 525 
Q 2725 213 2448 61 
Q 2172 -91 1784 -91 
Q 1150 -91 751 415 
Q 353 922 353 1747 
Q 353 2572 751 3078 
Q 1150 3584 1784 3584 
Q 2172 3584 2448 3432 
Q 2725 3281 2906 2969 
z
M 947 1747 
Q 947 1113 1208 752 
Q 1469 391 1925 391 
Q 2381 391 2643 752 
Q 2906 1113 2906 1747 
Q 2906 2381 2643 2742 
Q 2381 3103 1925 3103 
Q 1469 3103 1208 2742 
Q 947 2381 947 1747 
z
" transform="scale(0.015625)"/>
     <path id="DejaVuSans-5b" d="M 550 4863 
L 1875 4863 
L 1875 4416 
L 1125 4416 
L 1125 -397 
L 1875 -397 
L 1875 -844 
L 550 -844 
L 550 4863 
z
" transform="scale(0.015625)"/>
     <path id="DejaVuSans-5f" d="M 3263 -1063 
L 3263 -1509 
L -63 -1509 
L -63 -1063 
L 3263 -1063 
z
" transform="scale(0.015625)"/>
     <path id="DejaVuSans-5d" d="M 1947 4863 
L 1947 -844 
L 622 -844 
L 622 -397 
L 1369 -397 
L 1369 4416 
L 622 4416 
L 622 4863 
L 1947 4863 
z
" transform="scale(0.015625)"/>
    </defs>
    <use xlink:href="#DejaVuSans-4d"/>
    <use xlink:href="#DejaVuSans-6f" x="86.279297"/>
    <use xlink:href="#DejaVuSans-6d" x="147.460938"/>
    <use xlink:href="#DejaVuSans-65" x="244.873047"/>
    <use xlink:href="#DejaVuSans-6e" x="306.396484"/>
    <use xlink:href="#DejaVuSans-74" x="369.775391"/>
    <use xlink:href="#DejaVuSans-75" x="408.984375"/>
    <use xlink:href="#DejaVuSans-6d" x="472.363281"/>
    <use xlink:href="#DejaVuSans-20" x="569.775391"/>
    <use xlink:href="#DejaVuSans-73" x="601.5625"/>
    <use xlink:href="#DejaVuSans-6e" x="653.662109"/>
    <use xlink:href="#DejaVuSans-61" x="717.041016"/>
    <use xlink:href="#DejaVuSans-70" x="778.320312"/>
    <use xlink:href="#DejaVuSans-73" x="841.796875"/>
    <use xlink:href="#DejaVuSans-68" x="893.896484"/>
    <use xlink:href="#DejaVuSans-6f" x="957.275391"/>
    <use xlink:href="#DejaVuSans-74" x="1018.457031"/>
    <use xlink:href="#DejaVuSans-73" x="1057.666016"/>
    <use xlink:href="#DejaVuSans-20" x="1109.765625"/>
    <use xlink:href="#DejaVuSans-70" x="1141.552734"/>
    <use xlink:href="#DejaVuSans-28" x="1205.029297"/>
    <use xlink:href="#DejaVuSans-78" x="1244.042969"/>
    <use xlink:href="#DejaVuSans-2c" x="1303.222656"/>
    <use xlink:href="#DejaVuSans-74" x="1335.009766"/>
    <use xlink:href="#DejaVuSans-29" x="1374.21875"/>
    <use xlink:href="#DejaVuSans-20" x="1413.232422"/>
    <use xlink:href="#DejaVuSans-66" x="1445.019531"/>
    <use xlink:href="#DejaVuSans-6f" x="1480.224609"/>
    <use xlink:href="#DejaVuSans-72" x="1541.40625"/>
    <use xlink:href="#DejaVuSans-20" x="1582.519531"/>
    <use xlink:href="#DejaVuSans-6d" x="1614.306641"/>
    <use xlink:href="#DejaVuSans-6f" x="1711.71875"/>
    <use xlink:href="#DejaVuSans-64" x="1772.900391"/>
    <use xlink:href="#DejaVuSans-65" x="1836.376953"/>
    <use xlink:href="#DejaVuSans-73" x="1897.900391"/>
    <use xlink:href="#DejaVuSans-20" x="1950"/>
    <use xlink:href="#DejaVuSans-6d" x="1981.787109"/>
    <use xlink:href="#DejaVuSans-3d" x="2079.199219"/>
    <use xlink:href="#DejaVuSans-31" x="2162.988281"/>
    <use xlink:href="#DejaVuSans-2e" x="2226.611328"/>
    <use xlink:href="#DejaVuSans-2e" x="2258.398438"/>
    <use xlink:href="#DejaVuSans-35" x="2290.185547"/>
    <use xlink:href="#DejaVuSans-20" x="2353.808594"/>
    <use xlink:href="#DejaVuSans-20" x="2385.595703"/>
    <use xlink:href="#DejaVuSans-5b" x="2417.382812"/>
    <use xlink:href="#DejaVuSans-73" x="2456.396484"/>
    <use xlink:href="#DejaVuSans-65" x="2508.496094"/>
    <use xlink:href="#DejaVuSans-65" x="2570.019531"/>
    <use xlink:href="#DejaVuSans-64" x="2631.542969"/>
    <use xlink:href="#DejaVuSans-5f" x="2695.019531"/>
    <use xlink:href="#DejaVuSans-6d" x="2745.019531"/>
    <use xlink:href="#DejaVuSans-6f" x="2842.431641"/>
    <use xlink:href="#DejaVuSans-64" x="2903.613281"/>
    <use xlink:href="#DejaVuSans-65" x="2967.089844"/>
    <use xlink:href="#DejaVuSans-73" x="3028.613281"/>
    <use xlink:href="#DejaVuSans-5f" x="3080.712891"/>
    <use xlink:href="#DejaVuSans-31" x="3130.712891"/>
    <use xlink:href="#DejaVuSans-74" x="3194.335938"/>
    <use xlink:href="#DejaVuSans-6f" x="3233.544922"/>
    <use xlink:href="#DejaVuSans-35" x="3294.726562"/>
    <use xlink:href="#DejaVuSans-5d" x="3358.349609"/>
   </g>
  </g>
 </g>
 <defs>
  <clipPath id="p35c4505ad3">
   <rect x="31.008677" y="20.94822" width="685.991082" height="154.338674"/>
  </clipPath>
  <clipPath id="p2842cbf9e5">
   <rect x="31.008677" y="184.787374" width="685.991082" height="154.338674"/>
  </clipPath>
  <clipPath id="p52ce1c2f7c">
   <rect x="31.008677" y="348.626528" width="685.991082" height="154.338674"/>
  </clipPath>
  <clipPath id="p3971982837">
   <rect x="31.008677" y="512.465682" width="685.991082" height="154.338674"/>
  </clipPath>
  <clipPath id="p145ca3b1f2">
   <rect x="31.008677" y="676.304836" width="685.991082" height="154.338674"/>
  </clipPath>
 </defs>
</svg>
