<?xml version="1.0" encoding="utf-8" standalone="no"?>
<!DOCTYPE svg PUBLIC "-//W3C//DTD SVG 1.1//EN"
  "http://www.w3.org/Graphics/SVG/1.1/DTD/svg11.dtd">
<svg xmlns:xlink="http://www.w3.org/1999/xlink" width="720pt" height="864pt" viewBox="0 0 720 864" xmlns="http://www.w3.org/2000/svg" version="1.1">
 <metadata>
  <rdf:RDF xmlns:dc="http://purl.org/dc/elements/1.1/" xmlns:cc="http://creativecommons.org/ns#" xmlns:rdf="http://www.w3.org/1999/02/22-rdf-syntax-ns#">
   <cc:Work>
    <dc:type rdf:resource="http://purl.org/dc/dcmitype/StillImage"/>
    <dc:date>2025-09-29T20:44:50.491211</dc:date>
    <dc:format>image/svg+xml</dc:format>
    <dc:creator>
     <cc:Agent>
      <dc:title>Matplotlib v3.8.4, https://matplotlib.org/</dc:title>
     </cc:Agent>
    </dc:creator>
   </cc:Work>
  </rdf:RDF>
 </metadata>
 <defs>
  <style type="text/css">*{stroke-linejoin: round; stroke-linecap: butt}</style>
 </defs>
 <g id="figure_1">
  <g id="patch_1">
   <path d="M 0 864 
L 720 864 
L 720 0 
L 0 0 
z
" style="fill: #ffffff"/>
  </g>
  <g id="axes_1">
   <g id="patch_2">
    <path d="M 52.30649 830.64351 
L 716.99976 830.64351 
L 716.99976 20.94822 
L 52.30649 20.94822 
z
" style="fill: #ffffff"/>
   </g>
   <g id="matplotlib.axis_1">
    <g id="xtick_1">
     <g id="line2d_1">
      <defs>
       <path id="me318218471" d="M 0 0 
L 0 3.5 
" style="stroke: #000000; stroke-width: 0.8"/>
      </defs>
      <g>
       <use xlink:href="#me318218471" x="82.51982" y="830.64351" style="stroke: #000000; stroke-width: 0.8"/>
      </g>
     </g>
     <g id="text_1">
      <!-- 0 -->
      <g transform="translate(79.33857 845.241948) scale(0.1 -0.1)">
       <defs>
        <path id="DejaVuSans-30" d="M 2034 4250 
Q 1547 4250 1301 3770 
Q 1056 3291 1056 2328 
Q 1056 1369 1301 889 
Q 1547 409 2034 409 
Q 2525 409 2770 889 
Q 3016 1369 3016 2328 
Q 3016 3291 2770 3770 
Q 2525 4250 2034 4250 
z
M 2034 4750 
Q 2819 4750 3233 4129 
Q 3647 3509 3647 2328 
Q 3647 1150 3233 529 
Q 2819 -91 2034 -91 
Q 1250 -91 836 529 
Q 422 1150 422 2328 
Q 422 3509 836 4129 
Q 1250 4750 2034 4750 
z
" transform="scale(0.015625)"/>
       </defs>
       <use xlink:href="#DejaVuSans-30"/>
      </g>
     </g>
    </g>
    <g id="xtick_2">
     <g id="line2d_2">
      <g>
       <use xlink:href="#me318218471" x="203.421043" y="830.64351" style="stroke: #000000; stroke-width: 0.8"/>
      </g>
     </g>
     <g id="text_2">
      <!-- 2 -->
      <g transform="translate(200.239793 845.241948) scale(0.1 -0.1)">
       <defs>
        <path id="DejaVuSans-32" d="M 1228 531 
L 3431 531 
L 3431 0 
L 469 0 
L 469 531 
Q 828 903 1448 1529 
Q 2069 2156 2228 2338 
Q 2531 2678 2651 2914 
Q 2772 3150 2772 3378 
Q 2772 3750 2511 3984 
Q 2250 4219 1831 4219 
Q 1534 4219 1204 4116 
Q 875 4013 500 3803 
L 500 4441 
Q 881 4594 1212 4672 
Q 1544 4750 1819 4750 
Q 2544 4750 2975 4387 
Q 3406 4025 3406 3419 
Q 3406 3131 3298 2873 
Q 3191 2616 2906 2266 
Q 2828 2175 2409 1742 
Q 1991 1309 1228 531 
z
" transform="scale(0.015625)"/>
       </defs>
       <use xlink:href="#DejaVuSans-32"/>
      </g>
     </g>
    </g>
    <g id="xtick_3">
     <g id="line2d_3">
      <g>
       <use xlink:href="#me318218471" x="324.322265" y="830.64351" style="stroke: #000000; stroke-width: 0.8"/>
      </g>
     </g>
     <g id="text_3">
      <!-- 4 -->
      <g transform="translate(321.141015 845.241948) scale(0.1 -0.1)">
       <defs>
        <path id="DejaVuSans-34" d="M 2419 4116 
L 825 1625 
L 2419 1625 
L 2419 4116 
z
M 2253 4666 
L 3047 4666 
L 3047 1625 
L 3713 1625 
L 3713 1100 
L 3047 1100 
L 3047 0 
L 2419 0 
L 2419 1100 
L 313 1100 
L 313 1709 
L 2253 4666 
z
" transform="scale(0.015625)"/>
       </defs>
       <use xlink:href="#DejaVuSans-34"/>
      </g>
     </g>
    </g>
    <g id="xtick_4">
     <g id="line2d_4">
      <g>
       <use xlink:href="#me318218471" x="445.223488" y="830.64351" style="stroke: #000000; stroke-width: 0.8"/>
      </g>
     </g>
     <g id="text_4">
      <!-- 6 -->
      <g transform="translate(442.042238 845.241948) scale(0.1 -0.1)">
       <defs>
        <path id="DejaVuSans-36" d="M 2113 2584 
Q 1688 2584 1439 2293 
Q 1191 2003 1191 1497 
Q 1191 994 1439 701 
Q 1688 409 2113 409 
Q 2538 409 2786 701 
Q 3034 994 3034 1497 
Q 3034 2003 2786 2293 
Q 2538 2584 2113 2584 
z
M 3366 4563 
L 3366 3988 
Q 3128 4100 2886 4159 
Q 2644 4219 2406 4219 
Q 1781 4219 1451 3797 
Q 1122 3375 1075 2522 
Q 1259 2794 1537 2939 
Q 1816 3084 2150 3084 
Q 2853 3084 3261 2657 
Q 3669 2231 3669 1497 
Q 3669 778 3244 343 
Q 2819 -91 2113 -91 
Q 1303 -91 875 529 
Q 447 1150 447 2328 
Q 447 3434 972 4092 
Q 1497 4750 2381 4750 
Q 2619 4750 2861 4703 
Q 3103 4656 3366 4563 
z
" transform="scale(0.015625)"/>
       </defs>
       <use xlink:href="#DejaVuSans-36"/>
      </g>
     </g>
    </g>
    <g id="xtick_5">
     <g id="line2d_5">
      <g>
       <use xlink:href="#me318218471" x="566.12471" y="830.64351" style="stroke: #000000; stroke-width: 0.8"/>
      </g>
     </g>
     <g id="text_5">
      <!-- 8 -->
      <g transform="translate(562.94346 845.241948) scale(0.1 -0.1)">
       <defs>
        <path id="DejaVuSans-38" d="M 2034 2216 
Q 1584 2216 1326 1975 
Q 1069 1734 1069 1313 
Q 1069 891 1326 650 
Q 1584 409 2034 409 
Q 2484 409 2743 651 
Q 3003 894 3003 1313 
Q 3003 1734 2745 1975 
Q 2488 2216 2034 2216 
z
M 1403 2484 
Q 997 2584 770 2862 
Q 544 3141 544 3541 
Q 544 4100 942 4425 
Q 1341 4750 2034 4750 
Q 2731 4750 3128 4425 
Q 3525 4100 3525 3541 
Q 3525 3141 3298 2862 
Q 3072 2584 2669 2484 
Q 3125 2378 3379 2068 
Q 3634 1759 3634 1313 
Q 3634 634 3220 271 
Q 2806 -91 2034 -91 
Q 1263 -91 848 271 
Q 434 634 434 1313 
Q 434 1759 690 2068 
Q 947 2378 1403 2484 
z
M 1172 3481 
Q 1172 3119 1398 2916 
Q 1625 2713 2034 2713 
Q 2441 2713 2670 2916 
Q 2900 3119 2900 3481 
Q 2900 3844 2670 4047 
Q 2441 4250 2034 4250 
Q 1625 4250 1398 4047 
Q 1172 3844 1172 3481 
z
" transform="scale(0.015625)"/>
       </defs>
       <use xlink:href="#DejaVuSans-38"/>
      </g>
     </g>
    </g>
    <g id="xtick_6">
     <g id="line2d_6">
      <g>
       <use xlink:href="#me318218471" x="687.025933" y="830.64351" style="stroke: #000000; stroke-width: 0.8"/>
      </g>
     </g>
     <g id="text_6">
      <!-- 10 -->
      <g transform="translate(680.663433 845.241948) scale(0.1 -0.1)">
       <defs>
        <path id="DejaVuSans-31" d="M 794 531 
L 1825 531 
L 1825 4091 
L 703 3866 
L 703 4441 
L 1819 4666 
L 2450 4666 
L 2450 531 
L 3481 531 
L 3481 0 
L 794 0 
L 794 531 
z
" transform="scale(0.015625)"/>
       </defs>
       <use xlink:href="#DejaVuSans-31"/>
       <use xlink:href="#DejaVuSans-30" x="63.623047"/>
      </g>
     </g>
    </g>
    <g id="text_7">
     <!-- x -->
     <g transform="translate(381.69375 858.920072) scale(0.1 -0.1)">
      <defs>
       <path id="DejaVuSans-78" d="M 3513 3500 
L 2247 1797 
L 3578 0 
L 2900 0 
L 1881 1375 
L 863 0 
L 184 0 
L 1544 1831 
L 300 3500 
L 978 3500 
L 1906 2253 
L 2834 3500 
L 3513 3500 
z
" transform="scale(0.015625)"/>
      </defs>
      <use xlink:href="#DejaVuSans-78"/>
     </g>
    </g>
   </g>
   <g id="matplotlib.axis_2">
    <g id="ytick_1">
     <g id="line2d_7">
      <defs>
       <path id="m26d04bd7fa" d="M 0 0 
L -3.5 0 
" style="stroke: #000000; stroke-width: 0.8"/>
      </defs>
      <g>
       <use xlink:href="#m26d04bd7fa" x="52.30649" y="752.873242" style="stroke: #000000; stroke-width: 0.8"/>
      </g>
     </g>
     <g id="text_8">
      <!-- 0.125 -->
      <g transform="translate(16.678365 756.672461) scale(0.1 -0.1)">
       <defs>
        <path id="DejaVuSans-2e" d="M 684 794 
L 1344 794 
L 1344 0 
L 684 0 
L 684 794 
z
" transform="scale(0.015625)"/>
        <path id="DejaVuSans-35" d="M 691 4666 
L 3169 4666 
L 3169 4134 
L 1269 4134 
L 1269 2991 
Q 1406 3038 1543 3061 
Q 1681 3084 1819 3084 
Q 2600 3084 3056 2656 
Q 3513 2228 3513 1497 
Q 3513 744 3044 326 
Q 2575 -91 1722 -91 
Q 1428 -91 1123 -41 
Q 819 9 494 109 
L 494 744 
Q 775 591 1075 516 
Q 1375 441 1709 441 
Q 2250 441 2565 725 
Q 2881 1009 2881 1497 
Q 2881 1984 2565 2268 
Q 2250 2553 1709 2553 
Q 1456 2553 1204 2497 
Q 953 2441 691 2322 
L 691 4666 
z
" transform="scale(0.015625)"/>
       </defs>
       <use xlink:href="#DejaVuSans-30"/>
       <use xlink:href="#DejaVuSans-2e" x="63.623047"/>
       <use xlink:href="#DejaVuSans-31" x="95.410156"/>
       <use xlink:href="#DejaVuSans-32" x="159.033203"/>
       <use xlink:href="#DejaVuSans-35" x="222.65625"/>
      </g>
     </g>
    </g>
    <g id="ytick_2">
     <g id="line2d_8">
      <g>
       <use xlink:href="#m26d04bd7fa" x="52.30649" y="659.911037" style="stroke: #000000; stroke-width: 0.8"/>
      </g>
     </g>
     <g id="text_9">
      <!-- 0.150 -->
      <g transform="translate(16.678365 663.710256) scale(0.1 -0.1)">
       <use xlink:href="#DejaVuSans-30"/>
       <use xlink:href="#DejaVuSans-2e" x="63.623047"/>
       <use xlink:href="#DejaVuSans-31" x="95.410156"/>
       <use xlink:href="#DejaVuSans-35" x="159.033203"/>
       <use xlink:href="#DejaVuSans-30" x="222.65625"/>
      </g>
     </g>
    </g>
    <g id="ytick_3">
     <g id="line2d_9">
      <g>
       <use xlink:href="#m26d04bd7fa" x="52.30649" y="566.948832" style="stroke: #000000; stroke-width: 0.8"/>
      </g>
     </g>
     <g id="text_10">
      <!-- 0.175 -->
      <g transform="translate(16.678365 570.748051) scale(0.1 -0.1)">
       <defs>
        <path id="DejaVuSans-37" d="M 525 4666 
L 3525 4666 
L 3525 4397 
L 1831 0 
L 1172 0 
L 2766 4134 
L 525 4134 
L 525 4666 
z
" transform="scale(0.015625)"/>
       </defs>
       <use xlink:href="#DejaVuSans-30"/>
       <use xlink:href="#DejaVuSans-2e" x="63.623047"/>
       <use xlink:href="#DejaVuSans-31" x="95.410156"/>
       <use xlink:href="#DejaVuSans-37" x="159.033203"/>
       <use xlink:href="#DejaVuSans-35" x="222.65625"/>
      </g>
     </g>
    </g>
    <g id="ytick_4">
     <g id="line2d_10">
      <g>
       <use xlink:href="#m26d04bd7fa" x="52.30649" y="473.986627" style="stroke: #000000; stroke-width: 0.8"/>
      </g>
     </g>
     <g id="text_11">
      <!-- 0.200 -->
      <g transform="translate(16.678365 477.785846) scale(0.1 -0.1)">
       <use xlink:href="#DejaVuSans-30"/>
       <use xlink:href="#DejaVuSans-2e" x="63.623047"/>
       <use xlink:href="#DejaVuSans-32" x="95.410156"/>
       <use xlink:href="#DejaVuSans-30" x="159.033203"/>
       <use xlink:href="#DejaVuSans-30" x="222.65625"/>
      </g>
     </g>
    </g>
    <g id="ytick_5">
     <g id="line2d_11">
      <g>
       <use xlink:href="#m26d04bd7fa" x="52.30649" y="381.024422" style="stroke: #000000; stroke-width: 0.8"/>
      </g>
     </g>
     <g id="text_12">
      <!-- 0.225 -->
      <g transform="translate(16.678365 384.82364) scale(0.1 -0.1)">
       <use xlink:href="#DejaVuSans-30"/>
       <use xlink:href="#DejaVuSans-2e" x="63.623047"/>
       <use xlink:href="#DejaVuSans-32" x="95.410156"/>
       <use xlink:href="#DejaVuSans-32" x="159.033203"/>
       <use xlink:href="#DejaVuSans-35" x="222.65625"/>
      </g>
     </g>
    </g>
    <g id="ytick_6">
     <g id="line2d_12">
      <g>
       <use xlink:href="#m26d04bd7fa" x="52.30649" y="288.062217" style="stroke: #000000; stroke-width: 0.8"/>
      </g>
     </g>
     <g id="text_13">
      <!-- 0.250 -->
      <g transform="translate(16.678365 291.861435) scale(0.1 -0.1)">
       <use xlink:href="#DejaVuSans-30"/>
       <use xlink:href="#DejaVuSans-2e" x="63.623047"/>
       <use xlink:href="#DejaVuSans-32" x="95.410156"/>
       <use xlink:href="#DejaVuSans-35" x="159.033203"/>
       <use xlink:href="#DejaVuSans-30" x="222.65625"/>
      </g>
     </g>
    </g>
    <g id="ytick_7">
     <g id="line2d_13">
      <g>
       <use xlink:href="#m26d04bd7fa" x="52.30649" y="195.100011" style="stroke: #000000; stroke-width: 0.8"/>
      </g>
     </g>
     <g id="text_14">
      <!-- 0.275 -->
      <g transform="translate(16.678365 198.89923) scale(0.1 -0.1)">
       <use xlink:href="#DejaVuSans-30"/>
       <use xlink:href="#DejaVuSans-2e" x="63.623047"/>
       <use xlink:href="#DejaVuSans-32" x="95.410156"/>
       <use xlink:href="#DejaVuSans-37" x="159.033203"/>
       <use xlink:href="#DejaVuSans-35" x="222.65625"/>
      </g>
     </g>
    </g>
    <g id="ytick_8">
     <g id="line2d_14">
      <g>
       <use xlink:href="#m26d04bd7fa" x="52.30649" y="102.137806" style="stroke: #000000; stroke-width: 0.8"/>
      </g>
     </g>
     <g id="text_15">
      <!-- 0.300 -->
      <g transform="translate(16.678365 105.937025) scale(0.1 -0.1)">
       <defs>
        <path id="DejaVuSans-33" d="M 2597 2516 
Q 3050 2419 3304 2112 
Q 3559 1806 3559 1356 
Q 3559 666 3084 287 
Q 2609 -91 1734 -91 
Q 1441 -91 1130 -33 
Q 819 25 488 141 
L 488 750 
Q 750 597 1062 519 
Q 1375 441 1716 441 
Q 2309 441 2620 675 
Q 2931 909 2931 1356 
Q 2931 1769 2642 2001 
Q 2353 2234 1838 2234 
L 1294 2234 
L 1294 2753 
L 1863 2753 
Q 2328 2753 2575 2939 
Q 2822 3125 2822 3475 
Q 2822 3834 2567 4026 
Q 2313 4219 1838 4219 
Q 1578 4219 1281 4162 
Q 984 4106 628 3988 
L 628 4550 
Q 988 4650 1302 4700 
Q 1616 4750 1894 4750 
Q 2613 4750 3031 4423 
Q 3450 4097 3450 3541 
Q 3450 3153 3228 2886 
Q 3006 2619 2597 2516 
z
" transform="scale(0.015625)"/>
       </defs>
       <use xlink:href="#DejaVuSans-30"/>
       <use xlink:href="#DejaVuSans-2e" x="63.623047"/>
       <use xlink:href="#DejaVuSans-33" x="95.410156"/>
       <use xlink:href="#DejaVuSans-30" x="159.033203"/>
       <use xlink:href="#DejaVuSans-30" x="222.65625"/>
      </g>
     </g>
    </g>
    <g id="text_16">
     <!-- $\delta n \sim \cos(3x) + \cos(5x)$ -->
     <g transform="translate(10.598678 481.245865) rotate(-90) scale(0.1 -0.1)">
      <defs>
       <path id="DejaVuSans-Oblique-3b4" d="M 3472 4053 
Q 3197 4272 2450 4272 
Q 1659 4272 1588 3906 
Q 1531 3619 2328 3469 
Q 2953 3353 3253 3003 
Q 3616 2581 3447 1716 
Q 3284 888 2763 400 
Q 2238 -91 1488 -91 
Q 741 -91 406 400 
Q 72 888 241 1747 
Q 363 2384 891 2900 
Q 1097 3100 1353 3213 
Q 913 3459 1000 3900 
Q 1166 4750 2544 4750 
Q 3234 4750 3566 4531 
L 3472 4053 
z
M 1753 3056 
Q 1525 2966 1306 2738 
Q 969 2384 847 1747 
Q 722 1113 919 756 
Q 1119 397 1584 397 
Q 2044 397 2381 759 
Q 2722 1122 2838 1716 
Q 2956 2338 2731 2638 
Q 2491 2959 2103 2994 
Q 1906 3013 1753 3056 
z
" transform="scale(0.015625)"/>
       <path id="DejaVuSans-Oblique-6e" d="M 3566 2113 
L 3156 0 
L 2578 0 
L 2988 2091 
Q 3016 2238 3031 2350 
Q 3047 2463 3047 2528 
Q 3047 2791 2881 2937 
Q 2716 3084 2419 3084 
Q 1956 3084 1622 2776 
Q 1288 2469 1184 1941 
L 800 0 
L 225 0 
L 903 3500 
L 1478 3500 
L 1363 2950 
Q 1603 3253 1940 3418 
Q 2278 3584 2650 3584 
Q 3113 3584 3367 3334 
Q 3622 3084 3622 2631 
Q 3622 2519 3608 2391 
Q 3594 2263 3566 2113 
z
" transform="scale(0.015625)"/>
       <path id="DejaVuSans-223c" d="M 4684 2556 
L 4684 1997 
Q 4356 1753 4076 1645 
Q 3797 1538 3494 1538 
Q 3150 1538 2694 1722 
Q 2663 1734 2641 1744 
Q 2622 1750 2575 1769 
Q 2091 1959 1797 1959 
Q 1522 1959 1253 1840 
Q 984 1722 678 1459 
L 678 2019 
Q 1006 2263 1286 2370 
Q 1566 2478 1869 2478 
Q 2213 2478 2672 2294 
Q 2706 2278 2722 2272 
Q 2741 2266 2788 2247 
Q 3272 2056 3566 2056 
Q 3834 2056 4098 2173 
Q 4363 2291 4684 2556 
z
" transform="scale(0.015625)"/>
       <path id="DejaVuSans-63" d="M 3122 3366 
L 3122 2828 
Q 2878 2963 2633 3030 
Q 2388 3097 2138 3097 
Q 1578 3097 1268 2742 
Q 959 2388 959 1747 
Q 959 1106 1268 751 
Q 1578 397 2138 397 
Q 2388 397 2633 464 
Q 2878 531 3122 666 
L 3122 134 
Q 2881 22 2623 -34 
Q 2366 -91 2075 -91 
Q 1284 -91 818 406 
Q 353 903 353 1747 
Q 353 2603 823 3093 
Q 1294 3584 2113 3584 
Q 2378 3584 2631 3529 
Q 2884 3475 3122 3366 
z
" transform="scale(0.015625)"/>
       <path id="DejaVuSans-6f" d="M 1959 3097 
Q 1497 3097 1228 2736 
Q 959 2375 959 1747 
Q 959 1119 1226 758 
Q 1494 397 1959 397 
Q 2419 397 2687 759 
Q 2956 1122 2956 1747 
Q 2956 2369 2687 2733 
Q 2419 3097 1959 3097 
z
M 1959 3584 
Q 2709 3584 3137 3096 
Q 3566 2609 3566 1747 
Q 3566 888 3137 398 
Q 2709 -91 1959 -91 
Q 1206 -91 779 398 
Q 353 888 353 1747 
Q 353 2609 779 3096 
Q 1206 3584 1959 3584 
z
" transform="scale(0.015625)"/>
       <path id="DejaVuSans-73" d="M 2834 3397 
L 2834 2853 
Q 2591 2978 2328 3040 
Q 2066 3103 1784 3103 
Q 1356 3103 1142 2972 
Q 928 2841 928 2578 
Q 928 2378 1081 2264 
Q 1234 2150 1697 2047 
L 1894 2003 
Q 2506 1872 2764 1633 
Q 3022 1394 3022 966 
Q 3022 478 2636 193 
Q 2250 -91 1575 -91 
Q 1294 -91 989 -36 
Q 684 19 347 128 
L 347 722 
Q 666 556 975 473 
Q 1284 391 1588 391 
Q 1994 391 2212 530 
Q 2431 669 2431 922 
Q 2431 1156 2273 1281 
Q 2116 1406 1581 1522 
L 1381 1569 
Q 847 1681 609 1914 
Q 372 2147 372 2553 
Q 372 3047 722 3315 
Q 1072 3584 1716 3584 
Q 2034 3584 2315 3537 
Q 2597 3491 2834 3397 
z
" transform="scale(0.015625)"/>
       <path id="DejaVuSans-28" d="M 1984 4856 
Q 1566 4138 1362 3434 
Q 1159 2731 1159 2009 
Q 1159 1288 1364 580 
Q 1569 -128 1984 -844 
L 1484 -844 
Q 1016 -109 783 600 
Q 550 1309 550 2009 
Q 550 2706 781 3412 
Q 1013 4119 1484 4856 
L 1984 4856 
z
" transform="scale(0.015625)"/>
       <path id="DejaVuSans-Oblique-78" d="M 3841 3500 
L 2234 1784 
L 3219 0 
L 2559 0 
L 1819 1388 
L 531 0 
L -166 0 
L 1556 1844 
L 641 3500 
L 1300 3500 
L 1972 2234 
L 3144 3500 
L 3841 3500 
z
" transform="scale(0.015625)"/>
       <path id="DejaVuSans-29" d="M 513 4856 
L 1013 4856 
Q 1481 4119 1714 3412 
Q 1947 2706 1947 2009 
Q 1947 1309 1714 600 
Q 1481 -109 1013 -844 
L 513 -844 
Q 928 -128 1133 580 
Q 1338 1288 1338 2009 
Q 1338 2731 1133 3434 
Q 928 4138 513 4856 
z
" transform="scale(0.015625)"/>
       <path id="DejaVuSans-2b" d="M 2944 4013 
L 2944 2272 
L 4684 2272 
L 4684 1741 
L 2944 1741 
L 2944 0 
L 2419 0 
L 2419 1741 
L 678 1741 
L 678 2272 
L 2419 2272 
L 2419 4013 
L 2944 4013 
z
" transform="scale(0.015625)"/>
      </defs>
      <use xlink:href="#DejaVuSans-Oblique-3b4" transform="translate(0 0.125)"/>
      <use xlink:href="#DejaVuSans-Oblique-6e" transform="translate(61.181641 0.125)"/>
      <use xlink:href="#DejaVuSans-223c" transform="translate(144.042969 0.125)"/>
      <use xlink:href="#DejaVuSans-63" transform="translate(247.314453 0.125)"/>
      <use xlink:href="#DejaVuSans-6f" transform="translate(302.294922 0.125)"/>
      <use xlink:href="#DejaVuSans-73" transform="translate(363.476562 0.125)"/>
      <use xlink:href="#DejaVuSans-28" transform="translate(415.576172 0.125)"/>
      <use xlink:href="#DejaVuSans-33" transform="translate(454.589844 0.125)"/>
      <use xlink:href="#DejaVuSans-Oblique-78" transform="translate(518.212891 0.125)"/>
      <use xlink:href="#DejaVuSans-29" transform="translate(577.392578 0.125)"/>
      <use xlink:href="#DejaVuSans-2b" transform="translate(635.888672 0.125)"/>
      <use xlink:href="#DejaVuSans-63" transform="translate(739.160156 0.125)"/>
      <use xlink:href="#DejaVuSans-6f" transform="translate(794.140625 0.125)"/>
      <use xlink:href="#DejaVuSans-73" transform="translate(855.322266 0.125)"/>
      <use xlink:href="#DejaVuSans-28" transform="translate(907.421875 0.125)"/>
      <use xlink:href="#DejaVuSans-35" transform="translate(946.435547 0.125)"/>
      <use xlink:href="#DejaVuSans-Oblique-78" transform="translate(1010.058594 0.125)"/>
      <use xlink:href="#DejaVuSans-29" transform="translate(1069.238281 0.125)"/>
     </g>
    </g>
   </g>
   <g id="line2d_15">
    <path d="M 82.51982 325.247099 
L 83.477833 325.372433 
L 84.435846 325.74818 
L 85.393859 326.373565 
L 86.351872 327.247301 
L 87.549388 328.685928 
L 88.746904 330.505136 
L 89.94442 332.699082 
L 91.381439 335.816473 
L 92.818459 339.448893 
L 94.494981 344.31518 
L 96.411007 350.667693 
L 98.327033 357.814062 
L 100.482562 366.729911 
L 102.877594 377.616448 
L 105.512129 390.623652 
L 108.625671 407.125859 
L 112.697225 429.998225 
L 125.151393 500.898638 
L 128.264934 516.974348 
L 131.138973 530.664281 
L 133.534005 541.072236 
L 135.689534 549.567158 
L 137.845063 557.166519 
L 139.761089 563.124574 
L 141.437611 567.696508 
L 143.114134 571.652538 
L 144.551153 574.544037 
L 145.988172 576.96927 
L 147.425191 578.925729 
L 148.622708 580.197873 
L 149.820224 581.145568 
L 151.01774 581.771151 
L 151.975753 582.041984 
L 152.933765 582.111132 
L 153.891778 581.981313 
L 154.849791 581.655675 
L 156.047307 580.978733 
L 157.244823 580.0093 
L 158.442339 578.756207 
L 159.879359 576.891859 
L 161.316378 574.651643 
L 162.9929 571.590051 
L 164.669423 568.079206 
L 166.585449 563.564771 
L 168.740978 557.917256 
L 171.375513 550.323517 
L 174.489055 540.590649 
L 178.800113 526.279156 
L 186.703719 499.90651 
L 190.056764 489.555637 
L 192.930802 481.419102 
L 195.325834 475.279004 
L 197.481363 470.319339 
L 199.397389 466.400477 
L 201.313415 462.969817 
L 202.989937 460.3841 
L 204.66646 458.196469 
L 206.103479 456.642331 
L 207.540498 455.38573 
L 208.977517 454.425706 
L 210.414537 453.75926 
L 211.612053 453.424594 
L 212.809569 453.286418 
L 214.007085 453.339865 
L 215.444104 453.648772 
L 216.881124 454.213675 
L 218.318143 455.021262 
L 219.994665 456.250167 
L 221.671188 457.762707 
L 223.587214 459.801505 
L 225.742742 462.434526 
L 228.377278 466.03937 
L 231.730323 471.034066 
L 239.633929 482.952212 
L 242.268464 486.452291 
L 244.423993 488.972399 
L 246.340019 490.891713 
L 248.016541 492.286086 
L 249.693064 493.385225 
L 251.130083 494.073237 
L 252.567102 494.511701 
L 254.004122 494.688149 
L 255.201638 494.627257 
L 256.399154 494.371712 
L 257.59667 493.917201 
L 259.033689 493.104468 
L 260.470709 491.996404 
L 261.907728 490.591026 
L 263.344747 488.888402 
L 265.02127 486.529289 
L 266.697792 483.77554 
L 268.613818 480.159154 
L 270.529843 476.063586 
L 272.685372 470.918786 
L 275.080405 464.593628 
L 277.71494 456.989947 
L 280.828482 447.29897 
L 284.900036 433.852525 
L 294.001158 403.558709 
L 297.1147 394.113313 
L 299.749236 386.848961 
L 301.904765 381.527042 
L 303.82079 377.342047 
L 305.497313 374.14843 
L 307.173835 371.429188 
L 308.610855 369.500862 
L 310.047874 367.963954 
L 311.24539 366.994521 
L 312.442906 366.317579 
L 313.400919 365.991941 
L 314.358932 365.862122 
L 315.316945 365.93127 
L 316.274957 366.202102 
L 317.23297 366.676895 
L 318.430486 367.559944 
L 319.628002 368.767066 
L 320.825518 370.29969 
L 322.023035 372.158104 
L 323.460054 374.816934 
L 324.897073 377.939872 
L 326.573596 382.161582 
L 328.250118 386.992724 
L 330.166144 393.236692 
L 332.08217 400.218634 
L 334.237698 408.903918 
L 336.632731 419.50429 
L 339.267266 432.192922 
L 342.380808 448.356691 
L 346.212859 469.555362 
L 352.679446 506.914237 
L 358.18802 538.220323 
L 361.780568 557.349602 
L 364.654607 571.488246 
L 367.049639 582.277188 
L 369.205168 591.09397 
L 371.360697 598.970252 
L 373.276722 605.115935 
L 374.953245 609.791406 
L 376.629767 613.780811 
L 378.066787 616.63514 
L 379.503806 618.953761 
L 380.701322 620.468913 
L 381.898838 621.599689 
L 382.856851 622.225074 
L 383.814864 622.60082 
L 384.772877 622.726155 
L 385.730889 622.60082 
L 386.688902 622.225074 
L 387.646915 621.599689 
L 388.604928 620.725953 
L 389.802444 619.287325 
L 390.99996 617.468118 
L 392.197476 615.274172 
L 393.634496 612.15678 
L 395.071515 608.52436 
L 396.748037 603.658074 
L 398.664063 597.305561 
L 400.580089 590.159192 
L 402.735618 581.243343 
L 405.13065 570.356806 
L 407.765185 557.349602 
L 410.878727 540.847395 
L 414.950282 517.975029 
L 427.404449 447.074616 
L 430.51799 430.998906 
L 433.392029 417.308973 
L 435.787061 406.901018 
L 437.94259 398.406096 
L 440.098119 390.806735 
L 442.014145 384.84868 
L 443.690667 380.276745 
L 445.36719 376.320716 
L 446.804209 373.429217 
L 448.241228 371.003984 
L 449.678248 369.047525 
L 450.875764 367.775381 
L 452.07328 366.827686 
L 453.270796 366.202102 
L 454.228809 365.93127 
L 455.186822 365.862122 
L 456.144834 365.991941 
L 457.102847 366.317579 
L 458.300363 366.994521 
L 459.497879 367.963954 
L 460.695395 369.217047 
L 462.132415 371.081395 
L 463.569434 373.321611 
L 465.245957 376.383202 
L 466.922479 379.894048 
L 468.838505 384.408482 
L 470.994034 390.055998 
L 473.628569 397.649737 
L 476.742111 407.382604 
L 481.053169 421.694098 
L 488.956775 448.066744 
L 492.30982 458.417617 
L 495.183858 466.554152 
L 497.57889 472.69425 
L 499.734419 477.653915 
L 501.650445 481.572777 
L 503.566471 485.003437 
L 505.242993 487.589153 
L 506.919516 489.776785 
L 508.356535 491.330923 
L 509.793554 492.587524 
L 511.230574 493.547547 
L 512.667593 494.213994 
L 513.865109 494.548659 
L 515.062625 494.686836 
L 516.260141 494.633389 
L 517.69716 494.324482 
L 519.13418 493.759579 
L 520.571199 492.951992 
L 522.247721 491.723087 
L 523.924244 490.210547 
L 525.84027 488.171749 
L 527.995799 485.538728 
L 530.630334 481.933884 
L 533.983379 476.939187 
L 541.886985 465.021042 
L 544.52152 461.520963 
L 546.677049 459.000854 
L 548.593075 457.08154 
L 550.269598 455.687168 
L 551.94612 454.588029 
L 553.383139 453.900016 
L 554.820159 453.461553 
L 556.257178 453.285104 
L 557.454694 453.345997 
L 558.65221 453.601542 
L 559.849726 454.056052 
L 561.286745 454.868786 
L 562.723765 455.97685 
L 564.160784 457.382228 
L 565.597803 459.084852 
L 567.274326 461.443965 
L 568.950848 464.197714 
L 570.866874 467.814099 
L 572.7829 471.909668 
L 574.938429 477.054467 
L 577.333461 483.379626 
L 579.967996 490.983306 
L 583.081538 500.674284 
L 587.153092 514.120729 
L 596.254215 544.414544 
L 599.367756 553.859941 
L 602.002292 561.124293 
L 604.157821 566.446211 
L 606.073846 570.631206 
L 607.750369 573.824824 
L 609.426891 576.544066 
L 610.863911 578.472391 
L 612.30093 580.0093 
L 613.498446 580.978733 
L 614.695962 581.655675 
L 615.653975 581.981313 
L 616.611988 582.111132 
L 617.570001 582.041984 
L 618.528014 581.771151 
L 619.486026 581.296359 
L 620.683542 580.413309 
L 621.881059 579.206188 
L 623.078575 577.673563 
L 624.276091 575.81515 
L 625.71311 573.15632 
L 627.150129 570.033381 
L 628.826652 565.811671 
L 630.503174 560.98053 
L 632.4192 554.736562 
L 634.335226 547.754619 
L 636.490755 539.069335 
L 638.885787 528.468963 
L 641.520322 515.780332 
L 644.633864 499.616563 
L 648.465915 478.417892 
L 654.932502 441.059017 
L 660.441076 409.752931 
L 664.033624 390.623652 
L 666.907663 376.485008 
L 669.302695 365.696065 
L 671.458224 356.879284 
L 673.613753 349.003002 
L 675.529778 342.857318 
L 677.206301 338.181848 
L 678.882823 334.192443 
L 680.319843 331.338113 
L 681.756862 329.019493 
L 682.954378 327.50434 
L 684.151894 326.373565 
L 685.109907 325.74818 
L 686.06792 325.372433 
L 686.78643 325.254933 
L 686.78643 325.254933 
" clip-path="url(#peb74a66c0f)" style="fill: none; stroke: #1f77b4; stroke-width: 1.5; stroke-linecap: square"/>
   </g>
   <g id="line2d_16">
    <path d="M 82.51982 416.198739 
L 82.998827 357.040675 
L 83.23833 346.423705 
L 83.717337 286.451535 
L 83.95684 275.696096 
L 84.435846 215.27479 
L 84.675349 204.580037 
L 85.154356 144.60863 
L 85.393859 135.026821 
L 85.872865 82.654705 
L 86.112369 84.39825 
L 86.351872 75.667677 
L 86.591375 98.611069 
L 87.070382 246.036805 
L 88.028394 604.138176 
L 88.267898 671.498744 
L 88.986407 762.546917 
L 89.22591 765.248521 
L 89.465414 769.838194 
L 89.704917 784.627163 
L 90.183923 764.831881 
L 90.423427 769.713347 
L 90.902433 734.689458 
L 91.141936 733.890434 
L 91.620943 689.710348 
L 91.860446 685.465927 
L 92.339452 635.443792 
L 92.578955 629.017656 
L 93.057962 575.094951 
L 93.297465 567.249296 
L 93.776472 510.642502 
L 94.015975 501.863752 
L 94.494981 443.38311 
L 94.734484 433.996476 
L 95.213491 374.212512 
L 95.452994 364.44366 
L 95.932 303.782005 
L 96.171504 293.795356 
L 96.65051 232.619502 
L 96.890013 222.57975 
L 97.36902 161.523046 
L 97.608523 152.054776 
L 98.087529 95.247057 
L 98.327033 92.22891 
L 98.566536 74.526653 
L 98.806039 77.011108 
L 99.285045 181.118562 
L 100.722065 674.513574 
L 101.201071 747.763474 
L 101.680078 763.903847 
L 101.919581 782.733141 
L 102.398587 767.424924 
L 102.63809 774.796892 
L 103.117097 742.084657 
L 103.3566 742.976937 
L 103.835607 699.974464 
L 104.07511 696.977724 
L 104.554116 647.505109 
L 104.793619 642.058271 
L 105.272626 588.317552 
L 105.512129 581.273909 
L 105.991135 524.6249 
L 106.230639 516.520695 
L 106.709645 457.857708 
L 106.949148 449.046555 
L 107.428155 388.992355 
L 107.667658 379.716438 
L 108.146664 318.729805 
L 108.386168 309.161532 
L 108.865174 247.616431 
L 109.104677 237.906176 
L 109.583684 176.312028 
L 109.823187 166.87227 
L 110.302193 107.847515 
L 110.541697 102.297015 
L 110.7812 80.652938 
L 111.020703 70.008354 
L 111.499709 137.441626 
L 111.739213 208.240455 
L 112.457722 502.360028 
L 112.936729 645.521835 
L 113.655238 747.822881 
L 113.894741 756.47892 
L 114.134245 778.90244 
L 114.373748 775.800019 
L 114.613251 768.399524 
L 114.852754 777.814278 
L 115.331761 747.723978 
L 115.571264 749.868165 
L 116.05027 708.364664 
L 116.289774 706.187501 
L 116.76878 657.601733 
L 117.008283 652.716437 
L 117.48729 599.510159 
L 117.726793 592.859299 
L 118.205799 536.533254 
L 118.445303 528.701313 
L 118.924309 470.231294 
L 119.163812 461.599271 
L 119.642819 401.657875 
L 119.882322 392.484165 
L 120.361328 331.561511 
L 120.600831 322.027732 
L 121.079838 260.511821 
L 121.319341 250.764585 
L 121.798348 189.103317 
L 122.037851 179.445856 
L 122.516857 119.449348 
L 122.75636 112.274872 
L 123.235367 70.313754 
L 123.714373 110.959657 
L 123.953876 162.76177 
L 124.911889 552.66891 
L 125.390896 660.85342 
L 125.630399 713.675222 
L 125.869902 737.472112 
L 126.109405 748.277918 
L 126.348909 773.750323 
L 126.588412 775.39882 
L 126.827915 768.256706 
L 127.067418 779.212124 
L 127.306921 768.986307 
L 127.546425 752.004503 
L 127.785928 754.926289 
L 128.264934 715.223651 
L 128.504438 713.411792 
L 128.983444 666.045762 
L 129.222947 661.281996 
L 129.701954 608.966294 
L 129.941457 602.278311 
L 130.420463 546.648877 
L 130.659966 538.66657 
L 131.857483 412.475002 
L 132.096986 402.990681 
L 133.294502 271.556764 
L 133.534005 261.373077 
L 134.731521 129.755621 
L 134.971024 121.206677 
L 135.450031 73.919136 
L 135.929037 96.356267 
L 136.16854 131.266253 
L 137.60556 638.294187 
L 137.845063 696.236655 
L 138.084566 726.936338 
L 138.324069 739.907784 
L 138.563573 767.834707 
L 138.803076 774.175643 
L 139.042579 767.41487 
L 139.282082 779.397671 
L 139.521585 772.747664 
L 139.761089 755.256813 
L 140.000592 758.485902 
L 140.240095 744.562497 
L 140.479598 720.838847 
L 140.719101 718.947847 
L 140.958605 700.707064 
L 141.198108 673.101976 
L 141.437611 668.031538 
L 143.114134 522.940929 
L 143.353637 489.731942 
L 143.59314 480.217948 
L 146.946185 138.73989 
L 147.185688 128.762873 
L 147.664695 78.785762 
L 147.904198 82.43533 
L 148.143701 89.152094 
L 148.383204 110.47731 
L 149.101714 372.788738 
L 149.58072 563.413183 
L 150.29923 716.774178 
L 150.538733 731.869366 
L 150.778236 761.622121 
L 151.01774 772.485336 
L 151.257243 766.221765 
L 151.496746 778.719155 
L 151.736249 775.567883 
L 151.975753 757.759898 
L 152.215256 760.841365 
L 152.454759 749.910212 
L 152.694262 725.457524 
L 152.933765 723.064634 
L 153.173269 707.555199 
L 153.412772 679.002267 
L 153.652275 673.221487 
L 153.891778 654.887574 
L 154.131281 623.648912 
L 154.370785 615.659582 
L 154.610288 595.533306 
L 154.849791 562.453305 
L 155.089294 552.965087 
L 155.328798 531.696115 
L 155.568301 497.313838 
L 155.807804 486.777671 
L 156.047307 464.800072 
L 156.28681 429.481641 
L 156.526314 418.197265 
L 156.765817 395.816553 
L 157.00532 359.825735 
L 157.244823 348.000126 
L 157.484326 325.442595 
L 157.72383 288.983928 
L 157.963333 276.770816 
L 158.202836 254.226523 
L 158.442339 217.503604 
L 158.681843 205.095216 
L 158.921346 182.894476 
L 159.160849 146.483003 
L 159.400352 134.903324 
L 159.639855 115.251417 
L 159.879359 83.90894 
L 160.118862 83.094052 
L 160.358365 86.216815 
L 160.597868 97.240394 
L 161.076875 251.91715 
L 162.274391 664.154605 
L 162.513894 707.389806 
L 162.753397 724.541447 
L 162.9929 755.475539 
L 163.232404 770.603128 
L 163.471907 764.957707 
L 163.71141 777.46709 
L 163.950913 777.666214 
L 164.190416 759.753069 
L 164.42992 762.254138 
L 164.669423 754.222498 
L 164.908926 729.302854 
L 165.148429 726.012935 
L 165.387933 713.171995 
L 165.627436 683.963879 
L 165.866939 677.099479 
L 166.106442 661.309142 
L 166.345945 629.314657 
L 166.585449 620.119182 
L 166.824952 602.465103 
L 167.064455 568.576332 
L 167.303958 557.792893 
L 167.543461 538.95284 
L 167.782965 503.737045 
L 168.022468 491.835168 
L 168.261971 472.258207 
L 168.501474 436.099573 
L 168.740978 423.390077 
L 168.980481 403.389453 
L 169.219984 366.564143 
L 169.459487 353.26108 
L 169.69899 333.066203 
L 169.938494 295.787175 
L 170.177997 282.048075 
L 170.4175 261.846235 
L 170.657003 224.316617 
L 171.13601 190.406923 
L 171.375513 153.128621 
L 171.854519 121.926281 
L 172.094023 88.828698 
L 172.333526 84.267191 
L 172.573029 85.560393 
L 172.812532 89.044607 
L 173.052035 145.359291 
L 173.770545 425.983505 
L 174.249551 582.754917 
L 174.728558 698.986924 
L 174.968061 718.146117 
L 175.447068 768.709193 
L 175.686571 763.827362 
L 175.926074 775.878297 
L 176.165577 779.219631 
L 176.40508 761.441312 
L 176.644584 762.965816 
L 176.884087 757.68239 
L 177.12359 732.586577 
L 177.363093 728.043008 
L 177.602596 717.748749 
L 177.8421 688.20636 
L 178.081603 679.924575 
L 178.321106 666.571446 
L 178.560609 634.161696 
L 179.039616 608.16017 
L 179.279119 573.817136 
L 179.758125 544.922412 
L 179.997629 509.238212 
L 180.476635 478.397217 
L 180.716138 441.771985 
L 181.195145 409.624446 
L 181.434648 372.345316 
L 181.913654 339.343105 
L 182.153158 301.63062 
L 182.632164 268.119936 
L 182.871667 230.178276 
L 183.350674 196.600526 
L 183.590177 158.8821 
L 184.069183 127.534405 
L 184.308686 93.397739 
L 184.54819 85.463533 
L 184.787693 85.988695 
L 185.027196 84.064769 
L 185.266699 131.602042 
L 185.985209 404.074245 
L 186.464215 569.024245 
L 186.943222 691.522333 
L 187.182725 712.708054 
L 187.661731 766.875386 
L 187.901235 762.948507 
L 188.380241 780.367556 
L 188.619744 762.999764 
L 188.859248 763.209364 
L 189.098751 760.473591 
L 189.338254 735.522062 
L 189.81726 721.499754 
L 190.056764 691.969673 
L 190.53577 670.910718 
L 190.775273 638.449057 
L 191.25428 612.870962 
L 191.493783 578.448714 
L 191.972789 549.869569 
L 192.212292 514.100706 
L 192.691299 483.491315 
L 192.930802 446.789971 
L 193.409809 414.803146 
L 193.649312 377.466038 
L 194.128318 344.560669 
L 194.367821 306.814957 
L 194.846828 273.338697 
L 195.086331 235.39003 
L 195.565337 201.760417 
L 195.804841 164.025252 
L 196.283847 132.261297 
L 196.52335 97.677096 
L 196.762854 86.538556 
L 197.002357 86.832653 
L 197.24186 81.026647 
L 197.481363 120.757614 
L 197.96037 276.830577 
L 198.678879 556.987292 
L 199.157886 684.657588 
L 199.876395 765.05067 
L 200.115899 762.341474 
L 200.594905 781.216068 
L 200.834408 764.578823 
L 201.073911 763.217485 
L 201.313415 762.794642 
L 201.552918 738.337946 
L 202.031924 724.682018 
L 202.271427 695.532763 
L 202.750434 674.623274 
L 202.989937 642.489836 
L 203.468944 616.92156 
L 203.708447 582.808323 
L 204.187453 554.138772 
L 204.426956 518.679392 
L 204.905963 487.900348 
L 205.145466 451.521462 
L 205.624472 419.297252 
L 205.863976 382.30401 
L 206.342982 349.099786 
L 206.582485 311.725032 
L 207.061492 277.890066 
L 207.540498 220.171106 
L 207.780001 206.273329 
L 208.019505 168.936028 
L 208.977517 87.59306 
L 209.217021 87.782292 
L 209.456524 79.063304 
L 209.696027 111.40971 
L 210.175034 260.85148 
L 210.893543 545.433966 
L 211.37255 677.709847 
L 212.091059 763.043497 
L 212.330562 761.917735 
L 212.809569 781.838098 
L 213.049072 766.30705 
L 213.288575 763.226691 
L 213.528079 764.868553 
L 213.767582 741.288705 
L 214.007085 731.473747 
L 214.246588 727.610111 
L 214.486091 699.228434 
L 214.725595 685.282416 
L 214.965098 678.083398 
L 215.204601 646.668605 
L 215.683607 620.727374 
L 216.162614 568.818632 
L 216.402117 558.174978 
L 216.881124 503.595296 
L 217.120627 492.091178 
L 217.599633 435.626149 
L 217.839136 423.590209 
L 218.318143 365.792484 
L 218.557646 353.45658 
L 219.036652 294.739787 
L 219.276156 282.279491 
L 219.755162 223.020316 
L 219.994665 210.647405 
L 220.473672 151.738855 
L 220.713175 140.497587 
L 220.952678 106.431559 
L 221.192181 88.933296 
L 221.431685 88.812243 
L 221.671188 77.642818 
L 221.910691 102.406676 
L 222.389697 243.996744 
L 223.108207 532.528553 
L 223.587214 669.59321 
L 224.305723 760.494435 
L 224.545226 761.460255 
L 224.78473 768.862973 
L 225.024233 782.26384 
L 225.263736 768.285467 
L 225.503239 763.472089 
L 225.742742 766.942334 
L 225.982246 744.656069 
L 226.221749 732.877255 
L 226.461252 730.660506 
L 226.940259 687.407002 
L 227.179762 681.750287 
L 227.658768 632.627004 
L 227.898271 624.803528 
L 228.377278 571.752723 
L 228.616781 562.532797 
L 229.095787 506.76991 
L 229.335291 496.647175 
L 229.814297 438.980447 
L 230.0538 428.286761 
L 230.532807 369.284283 
L 230.77231 358.251809 
L 231.251316 298.337812 
L 231.49082 287.139438 
L 231.969826 226.690166 
L 232.209329 215.520699 
L 232.688336 155.334275 
L 232.927839 145.079215 
L 233.406845 91.06981 
L 233.646349 90.185843 
L 233.885852 76.610238 
L 234.125355 93.003543 
L 234.604361 223.690768 
L 235.562374 588.161719 
L 235.801877 658.720643 
L 236.520387 756.82046 
L 236.75989 760.5795 
L 236.999394 766.962801 
L 237.238897 782.449712 
L 237.717903 764.163429 
L 237.957406 769.267952 
L 238.436413 735.077185 
L 238.675916 734.258405 
L 239.154922 690.552517 
L 239.394426 686.157836 
L 239.873432 636.405503 
L 240.112935 629.75611 
L 240.591942 575.978675 
L 240.831445 567.868412 
L 241.310451 511.326338 
L 241.549955 502.260376 
L 242.028961 443.789623 
L 242.268464 434.105098 
L 242.747471 374.292104 
L 242.986974 364.222863 
L 243.46598 303.504044 
L 243.705484 293.221189 
L 244.18449 231.972347 
L 244.423993 221.653202 
L 244.903 160.568721 
L 245.142503 150.926599 
L 245.621509 94.73589 
L 245.861012 92.517411 
L 246.100516 76.346276 
L 246.340019 83.212753 
L 246.819025 197.662193 
L 248.016541 642.80957 
L 248.735051 751.095865 
L 249.214057 764.555726 
L 249.453561 782.206114 
L 249.932567 765.428943 
L 250.17207 772.052541 
L 250.651077 738.473324 
L 250.89058 738.838624 
L 251.369586 695.281597 
L 251.60909 691.880737 
L 252.088096 642.026971 
L 252.327599 636.2509 
L 252.806606 582.232141 
L 253.046109 574.90964 
L 253.525115 518.048007 
L 253.764619 509.702208 
L 254.243625 450.870648 
L 254.483128 441.847894 
L 254.962135 381.656536 
L 255.201638 372.19497 
L 255.680644 311.095502 
L 255.920147 301.366277 
L 256.399154 239.735417 
L 256.638657 229.89915 
L 257.117664 168.3242 
L 257.357167 158.916119 
L 257.836173 100.887816 
L 258.075676 96.830158 
L 258.31518 77.94742 
L 258.554683 74.283191 
L 259.033689 165.08638 
L 259.512696 363.290804 
L 260.231205 618.510543 
L 260.949715 741.813741 
L 261.189218 754.453242 
L 261.428721 760.915803 
L 261.668225 781.054254 
L 261.907728 775.52859 
L 262.147231 767.210956 
L 262.386734 775.361412 
L 262.865741 743.372841 
L 263.105244 744.770591 
L 263.58425 702.114104 
L 263.823754 699.470335 
L 264.30276 650.143123 
L 264.542263 644.95481 
L 265.02127 591.250627 
L 265.260773 584.400359 
L 265.739779 527.730098 
L 265.979282 519.769558 
L 266.458289 461.0581 
L 266.697792 452.349326 
L 267.176799 392.238978 
L 267.416302 383.028828 
L 267.895308 321.991403 
L 268.134811 312.454582 
L 268.613818 250.8709 
L 268.853321 241.155446 
L 269.332327 179.514701 
L 269.571831 169.993007 
L 270.050837 110.62867 
L 270.29034 104.487517 
L 270.769347 68.89884 
L 271.248353 128.558867 
L 271.487856 193.135753 
L 272.206366 488.200897 
L 272.685372 638.179144 
L 273.403882 746.135776 
L 273.643385 754.656359 
L 273.882888 777.972349 
L 274.122392 777.182552 
L 274.361895 769.092135 
L 274.601398 778.956241 
L 275.080405 749.872108 
L 275.319908 752.240111 
L 275.798914 711.435852 
L 276.038417 709.357644 
L 276.517424 661.313505 
L 276.756927 656.449676 
L 277.235933 603.70351 
L 277.475437 597.019865 
L 277.954443 541.113984 
L 278.193946 533.206933 
L 278.672953 475.141429 
L 278.912456 466.398399 
L 279.391462 406.860872 
L 279.630966 397.543944 
L 280.109972 337.033788 
L 280.349475 327.326565 
L 281.546991 195.018529 
L 281.786495 185.066888 
L 282.265501 125.044012 
L 282.505004 116.887217 
L 282.984011 70.483958 
L 283.463017 95.886934 
L 283.70252 134.164874 
L 284.900036 594.252153 
L 285.618546 730.212473 
L 285.858049 743.195945 
L 286.097552 770.981191 
L 286.337056 776.466841 
L 286.576559 769.994098 
L 286.816062 782.058171 
L 287.055565 774.726492 
L 287.295068 757.667656 
L 287.534572 761.096178 
L 287.774075 746.579518 
L 288.013578 723.364647 
L 288.253081 721.740522 
L 289.929604 590.159586 
L 290.169107 558.809774 
L 290.40861 550.630813 
L 292.324636 356.972765 
L 292.564139 346.711735 
L 294.480165 145.051547 
L 294.719668 135.047231 
L 295.198675 81.692379 
L 295.438178 80.964225 
L 295.677681 78.043012 
L 295.917184 85.390693 
L 296.396191 228.219256 
L 297.593707 657.184092 
L 297.83321 700.635702 
L 298.072713 721.746297 
L 298.312216 756.401352 
L 298.55172 770.395859 
L 298.791223 767.609477 
L 299.030726 782.9558 
L 299.270229 781.31016 
L 299.509732 765.709928 
L 299.749236 770.627471 
L 299.988739 760.390694 
L 300.228242 737.511215 
L 300.467745 736.442337 
L 300.707248 721.20051 
L 300.946752 693.884223 
L 301.186255 689.15404 
L 301.425758 670.845835 
L 301.665261 640.651641 
L 301.904765 633.558828 
L 302.144268 613.310281 
L 302.383771 581.15626 
L 302.623274 572.473907 
L 302.862777 550.985521 
L 303.102281 517.450322 
L 303.341784 507.665165 
L 303.581287 485.400328 
L 303.82079 450.872213 
L 304.060293 440.30527 
L 304.299797 417.587423 
L 304.5393 382.34256 
L 304.778803 371.213479 
L 305.018306 348.27959 
L 305.25781 312.526789 
L 305.497313 300.991779 
L 305.736816 278.02791 
L 305.976319 241.945898 
L 306.215822 230.141711 
L 306.455326 207.353764 
L 306.694829 171.224125 
L 306.934332 159.532223 
L 307.173835 137.718992 
L 307.413338 103.189264 
L 307.652842 94.991306 
L 308.131848 63.970309 
L 308.371351 88.895679 
L 308.850358 196.47524 
L 309.568867 493.922889 
L 310.047874 646.897757 
L 310.766383 753.520793 
L 311.005887 757.55638 
L 311.24539 778.154532 
L 311.484893 784.141802 
L 311.724396 771.769648 
L 311.9639 779.057565 
L 312.203403 774.174343 
L 312.442906 752.73723 
L 312.682409 752.573904 
L 312.921912 741.513547 
L 313.161416 714.710521 
L 313.400919 710.090954 
L 313.640422 695.321471 
L 313.879925 665.12604 
L 314.119428 657.677317 
L 314.358932 640.590045 
L 314.598435 608.132878 
L 314.837938 598.798737 
L 315.077441 580.23494 
L 315.316945 546.210963 
L 315.556448 535.572539 
L 315.795951 516.074269 
L 316.035454 480.93937 
L 316.274957 469.373328 
L 316.514461 449.309731 
L 316.753964 413.381492 
L 316.993467 401.142482 
L 317.23297 380.777219 
L 317.472473 344.290011 
L 317.711977 331.556583 
L 317.95148 311.08715 
L 318.190983 274.227491 
L 318.430486 261.135478 
L 318.66999 240.731673 
L 318.909493 203.694874 
L 319.148996 190.431595 
L 319.388499 170.422526 
L 319.628002 133.81634 
L 320.107009 104.266163 
L 320.346512 73.302692 
L 320.586015 72.813718 
L 320.825518 80.440551 
L 321.065022 95.231304 
L 321.544028 260.160998 
L 322.502041 607.983263 
L 322.981047 715.571655 
L 323.220551 731.781241 
L 323.699557 777.851231 
L 323.93906 771.6787 
L 324.178563 782.98648 
L 324.418067 785.011889 
L 324.65757 766.799452 
L 324.897073 768.27305 
L 325.136576 762.217217 
L 325.37608 737.125676 
L 325.615583 732.895595 
L 325.855086 722.116261 
L 326.094589 692.815667 
L 326.334092 685.053587 
L 326.573596 671.377004 
L 326.813099 639.345996 
L 327.052602 629.270764 
L 327.292105 613.762892 
L 327.531608 579.881591 
L 328.010615 551.547738 
L 328.250118 516.377119 
L 328.729125 486.193031 
L 328.968628 450.11392 
L 329.447634 418.690661 
L 329.687137 381.977226 
L 330.166144 349.747013 
L 330.405647 312.608964 
L 330.884653 279.893649 
L 331.124157 242.510677 
L 331.603163 209.622685 
L 331.842666 172.259741 
L 332.321673 140.21684 
L 332.561176 104.303716 
L 333.040182 82.320777 
L 333.279686 61.24754 
L 333.519189 78.407052 
L 333.998195 177.608877 
L 334.956208 566.48716 
L 335.195711 638.20047 
L 335.914221 752.686418 
L 336.153724 757.411873 
L 336.632731 787.725037 
L 336.872234 775.308017 
L 337.111737 780.017904 
L 337.35124 780.38436 
L 337.590743 758.549967 
L 337.830247 755.488379 
L 338.06975 749.457394 
L 338.309253 722.091024 
L 338.78826 704.529759 
L 339.027763 673.698149 
L 339.506769 650.796854 
L 339.746272 617.681206 
L 340.225279 591.277186 
L 340.464782 556.602528 
L 340.943788 527.843818 
L 341.183292 492.085681 
L 341.662298 461.72935 
L 341.901801 425.219156 
L 342.380808 393.787689 
L 342.620311 356.769962 
L 343.099317 324.638807 
L 343.338821 287.306039 
L 343.817827 254.766903 
L 344.05733 217.300586 
L 344.536337 184.733515 
L 344.77584 147.536796 
L 345.254846 116.979405 
L 345.49435 83.065708 
L 345.733853 73.107506 
L 345.973356 74.260303 
L 346.212859 70.233788 
L 346.452362 112.956305 
L 347.170872 385.845262 
L 347.649878 560.604737 
L 348.128885 689.997451 
L 348.847394 772.449812 
L 349.086898 770.38641 
L 349.565904 790.549262 
L 349.805407 774.549772 
L 350.044911 774.173301 
L 350.284414 774.057347 
L 350.523917 750.243532 
L 351.002923 737.898765 
L 351.242427 709.398891 
L 351.721433 689.822073 
L 351.960936 658.341639 
L 352.439943 634.12491 
L 352.679446 600.663982 
L 353.158452 573.361035 
L 353.397956 538.548583 
L 353.876962 509.147569 
L 354.116465 473.405491 
L 354.595472 442.567677 
L 354.834975 406.196169 
L 355.313981 374.383388 
L 355.553484 337.608444 
L 356.032491 305.156703 
L 356.271994 268.161601 
L 356.751001 235.347072 
L 356.990504 198.327862 
L 357.46951 165.652491 
L 357.709013 129.233528 
L 358.667026 63.779084 
L 359.146033 95.60599 
L 359.385536 161.953049 
L 360.343549 556.718414 
L 361.062058 720.614069 
L 361.541065 760.222838 
L 361.780568 782.894276 
L 362.020071 777.044022 
L 362.259574 782.262186 
L 362.499078 790.376677 
L 362.738581 772.572448 
L 362.978084 767.979168 
L 363.217587 768.071821 
L 363.457091 743.458705 
L 363.696594 733.142567 
L 363.936097 728.548496 
L 364.1756 699.796288 
L 364.654607 678.433575 
L 364.89411 647.026543 
L 365.373116 621.467731 
L 365.852123 570.383742 
L 366.091626 559.910975 
L 366.570632 506.437462 
L 366.810136 495.215697 
L 367.289142 440.04612 
L 367.528645 428.367283 
L 368.007652 371.995267 
L 368.247155 360.066797 
L 368.726161 302.86258 
L 368.965664 290.837959 
L 369.444671 233.110527 
L 369.684174 221.131157 
L 370.163181 163.340605 
L 370.402684 151.822039 
L 370.88169 96.600708 
L 371.121193 89.271576 
L 371.360697 63.275345 
L 371.6002 61.5923 
L 372.079206 126.136962 
L 372.558213 321.229154 
L 373.276722 597.154045 
L 373.995232 738.507681 
L 374.474238 767.458917 
L 374.713742 788.337019 
L 374.953245 780.714251 
L 375.192748 781.398008 
L 375.432251 789.254957 
L 375.671754 770.901738 
L 375.911258 762.721822 
L 376.150761 763.325796 
L 376.629767 725.373308 
L 376.869271 721.693646 
L 377.348277 676.637432 
L 377.58778 670.303076 
L 378.066787 620.584556 
L 378.30629 612.551613 
L 378.785296 559.650418 
L 379.024799 550.515756 
L 379.503806 495.387242 
L 379.743309 485.54362 
L 380.222316 428.840763 
L 380.461819 418.557958 
L 380.940825 360.750755 
L 381.180328 350.220437 
L 381.659335 291.665898 
L 381.898838 281.030299 
L 382.377844 222.036412 
L 382.617348 211.436991 
L 383.096354 152.532698 
L 383.335857 142.486931 
L 383.814864 87.098253 
L 384.054367 82.516564 
L 384.29387 60.961967 
L 384.533373 62.753364 
L 385.01238 151.991141 
L 386.449399 665.618426 
L 386.928406 748.519132 
L 387.407412 770.969655 
L 387.646915 791.045697 
L 387.886418 783.125036 
L 388.125922 780.156853 
L 388.365425 788.111335 
L 388.844431 758.899798 
L 389.083934 760.051936 
L 389.562941 720.08085 
L 389.802444 717.184388 
L 390.281451 670.479396 
L 390.520954 665.054984 
L 390.99996 613.913957 
L 391.239463 606.859142 
L 391.71847 552.686931 
L 391.957973 544.56424 
L 392.436979 488.275463 
L 392.676483 479.455825 
L 393.155489 421.680561 
L 393.394992 412.41877 
L 393.873999 353.614032 
L 394.113502 344.09076 
L 394.592508 284.606774 
L 394.832012 274.956185 
L 395.311018 215.10201 
L 395.550521 205.465255 
L 396.029528 145.818978 
L 396.269031 136.783975 
L 396.748037 81.322511 
L 396.987541 78.610664 
L 397.227044 60.828747 
L 397.466547 64.116478 
L 397.945553 168.694032 
L 399.382573 676.42816 
L 399.861579 753.439959 
L 400.340586 772.388264 
L 400.580089 792.192023 
L 401.059095 779.127552 
L 401.298598 787.276648 
L 401.777605 756.553138 
L 402.017108 758.131425 
L 402.496114 716.998622 
L 402.735618 714.645173 
L 403.214624 666.981019 
L 403.454127 662.157353 
L 403.933134 610.187294 
L 404.172637 603.757837 
L 404.651643 548.84965 
L 404.891147 541.356674 
L 405.370153 484.405391 
L 405.609656 476.206352 
L 406.088663 417.831599 
L 406.328166 409.17162 
L 406.807172 349.825009 
L 407.046676 340.877361 
L 407.525682 280.90682 
L 407.765185 271.799902 
L 408.244192 211.515811 
L 408.483695 202.388565 
L 408.962701 142.390884 
L 409.202204 133.859278 
L 409.681211 78.359069 
L 409.920714 76.485235 
L 410.160217 61.55609 
L 410.399721 64.18008 
L 410.878727 176.05368 
L 412.315746 681.338885 
L 413.034256 766.820804 
L 413.273759 772.591207 
L 413.513262 792.352115 
L 413.752766 786.872006 
L 413.992269 778.489207 
L 414.231772 786.761398 
L 414.710778 755.484065 
L 414.950282 757.262927 
L 415.429288 715.711554 
L 415.668791 713.591162 
L 416.147798 665.593788 
L 416.387301 661.010894 
L 416.866307 608.769812 
L 417.105811 602.573789 
L 417.584817 547.446009 
L 417.82432 540.16907 
L 418.303327 483.044854 
L 418.54283 475.037172 
L 419.021836 416.534407 
L 419.261339 408.035481 
L 419.740346 348.60563 
L 419.979849 339.784169 
L 420.458856 279.775851 
L 420.698359 270.756379 
L 421.177365 210.480841 
L 421.416868 201.39848 
L 421.895875 141.453354 
L 422.135378 132.91557 
L 422.614384 77.471711 
L 422.853888 75.479378 
L 423.093391 62.615703 
L 423.332894 62.898583 
L 423.8119 176.073933 
L 425.24892 682.211594 
L 425.967429 768.194653 
L 426.206933 772.068444 
L 426.446436 791.801682 
L 426.685939 788.545429 
L 426.925442 778.220293 
L 427.164945 786.424651 
L 427.643952 755.387806 
L 427.883455 757.070173 
L 428.362462 715.747591 
L 428.601965 713.504598 
L 429.080971 665.741012 
L 429.320474 661.008286 
L 429.799481 609.016452 
L 430.038984 602.640898 
L 430.51799 547.785005 
L 430.757494 540.296005 
L 431.2365 483.471605 
L 431.476003 475.216543 
L 431.95501 417.045631 
L 432.194513 408.261424 
L 433.392029 280.448516 
L 433.631532 271.06105 
L 434.829048 142.250911 
L 435.068552 133.22113 
L 435.547558 78.053133 
L 435.787061 75.183253 
L 436.026564 63.918922 
L 436.266068 60.959056 
L 436.745074 171.524801 
L 437.22408 375.71292 
L 437.94259 630.222623 
L 438.421597 710.090598 
L 438.6611 751.525828 
L 438.900603 768.560685 
L 439.140106 771.138613 
L 439.379609 790.695227 
L 439.619113 790.047263 
L 439.858616 778.222029 
L 440.098119 786.079996 
L 440.337622 775.820653 
L 440.577125 755.93113 
L 440.816629 757.171519 
L 441.056132 741.370363 
L 441.295635 716.633256 
L 441.535138 713.88516 
L 443.211661 580.650926 
L 443.451164 549.207664 
L 443.690667 541.078819 
L 445.606693 350.890683 
L 445.846196 340.977865 
L 447.762222 144.077467 
L 448.001725 134.107377 
L 448.720235 75.265577 
L 449.199241 59.140617 
L 449.438744 101.800276 
L 449.917751 246.666269 
L 450.396757 465.734469 
L 451.115267 677.389224 
L 451.833777 768.316292 
L 452.07328 770.071075 
L 452.312783 789.168152 
L 452.552286 791.315232 
L 452.791789 778.388601 
L 453.031293 785.556231 
L 453.270796 777.925428 
L 453.510299 756.796999 
L 453.749802 757.219796 
L 453.989305 743.969859 
L 454.228809 717.924957 
L 454.468312 714.278592 
L 454.707815 697.620119 
L 454.947318 668.429433 
L 455.186822 662.184388 
L 455.426325 643.378466 
L 455.665828 612.066253 
L 455.905331 604.084635 
L 456.144834 583.902481 
L 456.384338 551.103233 
L 456.623841 541.920733 
L 456.863344 520.864608 
L 457.102847 486.997012 
L 457.34235 476.963286 
L 457.581854 455.378819 
L 457.821357 420.735632 
L 458.06086 410.088134 
L 458.300363 388.224819 
L 458.539867 353.02223 
L 458.77937 341.927256 
L 459.018873 319.973449 
L 459.258376 284.381274 
L 459.497879 272.960572 
L 459.737383 251.071174 
L 459.976886 215.246737 
L 460.216389 203.625392 
L 460.455892 182.010458 
L 460.695395 146.280005 
L 460.934899 134.966465 
L 461.174402 114.727222 
L 461.413905 81.44222 
L 461.892912 67.148561 
L 462.132415 57.984716 
L 462.371918 96.590795 
L 462.850924 237.609429 
L 463.569434 534.212776 
L 464.04844 674.20033 
L 464.76695 767.869425 
L 465.006453 769.143229 
L 465.245957 787.384051 
L 465.48546 792.31798 
L 465.724963 778.639343 
L 465.964466 784.724588 
L 466.203969 779.716875 
L 466.443473 757.704286 
L 466.682976 756.919354 
L 466.922479 746.215212 
L 467.161982 719.222147 
L 467.401485 714.288208 
L 467.640989 700.139293 
L 467.880492 669.971628 
L 468.119995 662.379907 
L 468.359498 646.067162 
L 468.599002 613.769192 
L 468.838505 604.391535 
L 469.078008 586.695728 
L 469.317511 552.914671 
L 469.557014 542.291539 
L 469.796518 523.719113 
L 470.036021 488.882624 
L 470.275524 477.366189 
L 470.515027 458.263916 
L 470.75453 422.671663 
L 470.994034 410.500937 
L 471.233537 391.117532 
L 471.47304 354.99144 
L 471.712543 342.333979 
L 471.952047 322.85559 
L 472.19155 286.370473 
L 472.431053 273.34925 
L 472.670556 253.926961 
L 472.910059 217.244016 
L 473.389066 184.818814 
L 473.628569 148.259372 
L 474.107575 117.389396 
L 474.347079 83.203753 
L 475.065588 57.752551 
L 475.305092 92.85805 
L 475.784098 231.900186 
L 476.502608 529.603069 
L 476.981614 672.140476 
L 477.700124 767.65104 
L 477.939627 768.648608 
L 478.17913 785.540342 
L 478.418633 793.061359 
L 478.658137 778.922096 
L 478.89764 783.500525 
L 479.137143 780.969463 
L 479.376646 758.408745 
L 479.616149 756.025887 
L 479.855653 747.747028 
L 480.095156 720.166983 
L 480.334659 713.573625 
L 480.574162 701.826114 
L 480.813665 671.058556 
L 481.053169 661.759185 
L 481.292672 647.83665 
L 481.532175 614.94123 
L 482.011182 588.502534 
L 482.250685 554.136618 
L 482.729691 525.532819 
L 482.969194 490.131443 
L 483.448201 460.062839 
L 483.687704 423.931479 
L 484.16671 392.885348 
L 484.406214 356.250778 
L 484.88522 324.57936 
L 485.124723 287.620633 
L 485.60373 255.595828 
L 485.843233 218.477896 
L 486.322239 186.422246 
L 486.561743 149.468708 
L 487.040749 118.906074 
L 487.280252 84.354491 
L 487.519755 74.27829 
L 487.759259 70.045944 
L 487.998762 58.561233 
L 488.238265 91.374766 
L 488.717272 231.719984 
L 489.435781 529.391428 
L 489.914788 672.375725 
L 490.633297 768.080034 
L 490.8728 768.866797 
L 491.351807 793.568231 
L 491.59131 779.194907 
L 491.830813 781.826241 
L 492.070317 781.491243 
L 492.30982 758.690475 
L 492.788826 748.249571 
L 493.028329 720.434745 
L 493.507336 702.289312 
L 493.746839 671.300278 
L 494.225845 648.247528 
L 494.465349 615.150176 
L 494.944355 588.852012 
L 495.183858 554.308833 
L 495.662865 525.814104 
L 495.902368 490.264493 
L 496.381374 460.270562 
L 496.620878 424.023784 
L 497.099884 393.015062 
L 497.339387 356.301245 
L 497.818394 324.627288 
L 498.057897 287.628552 
L 498.536903 255.559265 
L 498.776407 218.444161 
L 499.255413 186.306112 
L 499.494916 149.410488 
L 499.973923 118.795885 
L 500.213426 84.466096 
L 500.452929 72.432013 
L 500.692432 70.841956 
L 500.931935 60.611813 
L 501.171439 92.983568 
L 501.650445 239.053992 
L 502.368955 535.200223 
L 502.847961 675.877527 
L 503.566471 769.493247 
L 503.805974 770.006222 
L 504.28498 793.839179 
L 504.524484 779.393002 
L 504.763987 779.639894 
L 505.00349 781.099579 
L 505.242993 758.332775 
L 505.722 747.434127 
L 505.961503 719.718814 
L 506.440509 701.175205 
L 506.680013 670.334002 
L 507.159019 646.904629 
L 507.398522 613.99674 
L 507.877529 587.321863 
L 508.117032 553.00776 
L 508.596038 524.122849 
L 508.835541 488.841997 
L 509.314548 458.43551 
L 509.554051 422.498144 
L 510.033058 391.04821 
L 510.272561 354.685773 
L 510.751567 322.537441 
L 510.99107 285.933618 
L 511.470077 253.354864 
L 511.949083 196.850321 
L 512.188586 184.013705 
L 512.667593 128.091604 
L 512.907096 116.65446 
L 513.146599 83.199836 
L 513.386103 69.508222 
L 513.625606 71.237229 
L 513.865109 64.4915 
L 514.104612 99.022899 
L 514.583619 255.891763 
L 515.302128 548.151017 
L 515.781135 683.263422 
L 516.499644 772.057752 
L 516.739148 772.133483 
L 517.218154 793.803693 
L 517.457657 779.388837 
L 517.69716 776.838082 
L 517.936664 779.591445 
L 518.176167 757.09738 
L 518.41567 747.791795 
L 518.655173 745.019037 
L 518.894676 717.7138 
L 519.13418 704.27238 
L 519.373683 698.153043 
L 519.613186 667.811622 
L 519.852689 651.672974 
L 520.092193 643.44548 
L 520.571199 593.112867 
L 520.810702 583.528767 
L 521.289709 530.519455 
L 521.529212 520.062104 
L 522.008218 465.156299 
L 522.247721 454.152131 
L 522.726728 397.895905 
L 522.966231 386.574278 
L 523.445238 329.369376 
L 523.684741 317.897134 
L 524.163747 260.059818 
L 524.40325 248.570591 
L 524.882257 190.433856 
L 525.12176 179.143239 
L 525.600766 121.828151 
L 525.84027 112.179 
L 526.079773 80.369965 
L 526.319276 65.668771 
L 526.558779 71.836597 
L 526.798283 71.606457 
L 527.037786 111.82659 
L 527.756295 389.999852 
L 528.235302 568.649694 
L 528.714308 694.64287 
L 529.432818 775.688555 
L 529.672321 775.105784 
L 529.911824 780.640642 
L 530.151328 793.274518 
L 530.390831 778.953859 
L 530.630334 773.238986 
L 530.869837 776.715814 
L 531.348844 742.517598 
L 531.588347 740.711441 
L 532.067353 697.925155 
L 532.306856 692.901945 
L 532.785863 644.59166 
L 533.025366 637.530315 
L 533.504373 585.502239 
L 533.743876 577.120362 
L 534.222882 522.51165 
L 534.462385 513.271388 
L 534.941392 456.841849 
L 535.180895 447.055102 
L 535.659901 389.340344 
L 535.899405 379.225577 
L 536.378411 320.622926 
L 536.617914 310.338335 
L 537.096921 251.166018 
L 537.336424 240.841038 
L 537.81543 181.463877 
L 538.054934 171.349705 
L 538.53394 113.214069 
L 538.773443 105.228017 
L 539.012946 76.081407 
L 539.25245 61.625027 
L 539.731456 84.839995 
L 539.970959 135.201803 
L 541.168475 596.181414 
L 541.647482 709.512558 
L 542.365991 779.997087 
L 542.605495 778.522549 
L 542.844998 779.800877 
L 543.084501 791.919048 
L 543.563508 768.555623 
L 543.803011 772.156588 
L 544.282017 735.551445 
L 544.52152 734.196557 
L 545.000527 689.501662 
L 545.24003 685.103964 
L 545.719036 635.178986 
L 545.95854 628.837584 
L 546.437546 575.385037 
L 546.677049 567.772439 
L 547.156056 511.874469 
L 547.395559 503.425137 
L 547.874565 445.811462 
L 548.114069 436.818819 
L 548.593075 378.008547 
L 548.832578 368.677679 
L 549.311585 309.060023 
L 549.551088 299.539148 
L 550.030094 239.434226 
L 550.269598 229.851218 
L 550.748604 169.680916 
L 550.988107 160.363055 
L 551.467114 102.192508 
L 551.706617 95.978106 
L 551.94612 71.042059 
L 552.185623 59.215302 
L 552.66463 109.400498 
L 552.904133 174.45242 
L 553.862146 571.338229 
L 554.580655 726.737834 
L 555.299165 784.285552 
L 555.778171 778.375221 
L 556.017675 789.254027 
L 556.496681 762.393126 
L 556.736184 765.528685 
L 557.215191 726.558739 
L 557.454694 725.135683 
L 557.9337 678.697235 
L 558.173204 674.443954 
L 558.65221 623.146434 
L 558.891713 617.065512 
L 559.37072 562.48244 
L 559.610223 555.19205 
L 560.089229 498.33568 
L 560.328733 490.237328 
L 560.807739 431.797958 
L 561.047242 423.163575 
L 561.526249 363.637601 
L 561.765752 354.657359 
L 562.244758 294.42184 
L 562.484261 285.234204 
L 562.963268 224.612859 
L 563.202771 215.352872 
L 563.681778 154.879314 
L 563.921281 146.041873 
L 564.400287 89.03064 
L 564.63979 85.325099 
L 564.879294 67.2873 
L 565.118797 62.675857 
L 565.597803 153.14801 
L 566.07681 352.91523 
L 566.795319 615.730715 
L 567.513829 744.628516 
L 567.753332 759.370045 
L 567.992835 766.371409 
L 568.232339 787.578425 
L 568.471842 783.762828 
L 568.711345 775.679549 
L 568.950848 784.65163 
L 569.429855 754.278187 
L 569.669358 756.374339 
L 570.148364 715.172187 
L 570.387868 713.159481 
L 570.866874 665.201862 
L 571.106377 660.602474 
L 571.585384 608.217574 
L 571.824887 601.925554 
L 572.303893 546.539491 
L 572.543396 539.111817 
L 573.022403 481.655348 
L 573.261906 473.456658 
L 573.740913 414.572891 
L 573.980416 405.851558 
L 574.459422 346.008703 
L 574.698925 336.939334 
L 575.177932 276.499199 
L 575.417435 267.21254 
L 575.896441 206.511709 
L 576.135945 197.170544 
L 576.614951 136.989917 
L 576.854454 128.470486 
L 577.333461 74.8599 
L 577.572964 75.85806 
L 577.812467 69.915027 
L 578.05197 80.987939 
L 578.530977 224.242975 
L 579.728493 660.800513 
L 580.207499 724.935044 
L 580.447002 761.128346 
L 580.686506 771.765693 
L 580.926009 771.832776 
L 581.165512 788.701412 
L 581.405015 783.672566 
L 581.644519 770.917474 
L 581.884022 777.364803 
L 582.123525 763.718074 
L 582.363028 743.680941 
L 582.602531 744.164105 
L 583.081538 701.003252 
L 583.321041 697.857574 
L 583.800047 648.707947 
L 584.039551 643.239454 
L 584.518557 590.135067 
L 584.75806 583.122375 
L 585.955576 461.634914 
L 586.19508 452.840406 
L 587.392596 324.960855 
L 587.632099 315.311275 
L 588.829615 185.035397 
L 589.069118 175.176044 
L 589.787628 108.200314 
L 590.266634 63.08649 
L 590.745641 90.659487 
L 590.985144 129.568085 
L 592.18266 595.728261 
L 592.90117 733.399831 
L 593.140673 746.291667 
L 593.380176 774.192421 
L 593.619679 780.994773 
L 593.859182 774.366357 
L 594.098686 786.491413 
L 594.338189 780.438365 
L 594.577692 763.197063 
L 594.817195 766.658602 
L 595.056699 753.405101 
L 595.296202 729.997254 
L 595.535705 728.388297 
L 595.775208 710.858216 
L 596.014711 683.608803 
L 596.254215 678.848261 
L 596.493718 658.658022 
L 596.733221 628.869089 
L 596.972724 622.05139 
L 599.367756 404.14864 
L 599.60726 369.762298 
L 599.846763 359.408125 
L 602.481298 93.519127 
L 602.720801 87.369437 
L 603.199808 62.986718 
L 603.439311 96.763103 
L 603.918317 223.275899 
L 604.636827 519.113909 
L 605.115834 662.249876 
L 605.834343 759.583507 
L 606.073846 762.289564 
L 606.31335 782.095249 
L 606.552853 785.435379 
L 606.792356 772.698047 
L 607.031859 779.964456 
L 607.271362 773.040959 
L 607.510866 751.715502 
L 607.750369 751.922536 
L 607.989872 739.127389 
L 608.229375 712.679696 
L 608.468879 708.644215 
L 608.708382 692.301431 
L 608.947885 662.591251 
L 609.187388 655.853974 
L 609.426891 637.282915 
L 609.666395 605.381558 
L 609.905898 596.841803 
L 610.145401 576.845669 
L 610.384904 543.414525 
L 610.624407 533.629029 
L 610.863911 512.728714 
L 611.103414 478.203129 
L 611.342917 467.534212 
L 611.58242 446.08671 
L 611.821924 410.770668 
L 612.061427 399.463918 
L 612.30093 377.725879 
L 612.540433 341.844098 
L 612.779936 330.071878 
L 613.01944 308.237048 
L 613.258943 271.968916 
L 613.498446 259.862751 
L 613.737949 238.100238 
L 613.977452 201.637276 
L 614.216956 189.384781 
L 614.456459 168.033679 
L 614.695962 132.000306 
L 614.935465 120.749453 
L 615.174969 102.306054 
L 615.414472 72.125613 
L 615.653975 73.202882 
L 615.893478 80.489366 
L 616.132981 97.284692 
L 616.611988 264.604509 
L 617.570001 610.568546 
L 618.049007 716.369447 
L 618.28851 732.458583 
L 618.528014 762.391529 
L 618.767517 777.390325 
L 619.00702 771.338065 
L 619.246523 783.381383 
L 619.486026 783.876164 
L 619.72553 765.899252 
L 619.965033 768.207313 
L 620.204536 760.688432 
L 620.444039 735.884726 
L 620.683542 732.544451 
L 620.923046 720.332225 
L 621.162549 691.340656 
L 621.402052 684.50414 
L 621.641555 669.407397 
L 621.881059 637.689868 
L 622.120562 628.566701 
L 622.360065 611.643205 
L 622.599568 578.069796 
L 622.839071 567.384014 
L 623.078575 549.294948 
L 623.318078 514.419912 
L 623.557581 502.629545 
L 623.797084 483.81327 
L 624.036587 448.01249 
L 624.276091 435.420963 
L 624.515594 416.183226 
L 624.755097 379.726978 
L 624.9946 366.542921 
L 625.234104 347.106776 
L 625.473607 310.201725 
L 625.952613 277.114115 
L 626.192116 239.939445 
L 626.671123 206.713718 
L 626.910626 169.555997 
L 627.389632 137.380846 
L 627.629136 101.923525 
L 628.108142 81.739017 
L 628.347645 63.652253 
L 628.587149 86.954645 
L 629.066155 198.575925 
L 630.024168 582.840673 
L 630.263671 649.325743 
L 630.982181 755.318749 
L 631.221684 758.306913 
L 631.461187 776.531476 
L 631.70069 785.65354 
L 631.940194 772.305884 
L 632.179697 777.261457 
L 632.4192 775.566165 
L 632.658703 753.192864 
L 632.898206 750.699788 
L 633.13771 742.860234 
L 633.377213 715.149008 
L 633.616716 708.181454 
L 633.856219 696.654984 
L 634.095722 665.57732 
L 634.574729 641.92114 
L 634.814232 608.609548 
L 635.293239 581.562852 
L 635.532742 546.715654 
L 636.011748 517.391276 
L 636.251251 481.468347 
L 636.730258 450.603445 
L 636.969761 413.926546 
L 637.448767 382.031819 
L 637.688271 344.839594 
L 638.167277 312.284293 
L 638.40678 274.76794 
L 638.885787 241.853391 
L 639.12529 204.216411 
L 639.604296 171.477145 
L 639.8438 134.369636 
L 640.322806 105.554076 
L 640.562309 74.564069 
L 640.801812 72.254279 
L 641.280819 101.619671 
L 641.759825 271.209187 
L 642.717838 613.555716 
L 643.196845 718.674109 
L 643.436348 733.440128 
L 643.915354 778.278152 
L 644.154857 771.119208 
L 644.633864 783.871805 
L 644.873367 764.902272 
L 645.11287 763.361884 
L 645.352374 760.046658 
L 645.591877 734.320292 
L 646.070883 719.178774 
L 646.310386 689.319562 
L 646.789393 667.807698 
L 647.028896 635.275283 
L 647.507902 609.633603 
L 647.747406 575.301121 
L 648.226412 546.897177 
L 648.465915 511.324063 
L 648.944922 481.041433 
L 649.184425 444.609497 
L 649.663431 413.047352 
L 649.902935 376.032959 
L 650.381941 343.614967 
L 650.621444 306.231122 
L 651.100451 273.276571 
L 651.339954 235.712471 
L 651.81896 202.574501 
L 652.058464 165.167674 
L 652.53747 133.35303 
L 652.776973 98.282366 
L 653.016476 84.999307 
L 653.25598 82.012532 
L 653.495483 69.156631 
L 653.734986 97.226886 
L 654.213992 233.90093 
L 654.932502 526.601741 
L 655.411509 668.075631 
L 656.130018 762.175265 
L 656.369521 762.616845 
L 656.848528 786.047725 
L 657.088031 771.313196 
L 657.327534 770.99775 
L 657.567037 772.296586 
L 657.806541 749.125757 
L 658.285547 737.328002 
L 658.52505 709.144702 
L 659.004057 689.59929 
L 659.24356 658.254031 
L 659.722566 633.759567 
L 659.96207 600.328251 
L 660.441076 572.547907 
L 660.680579 537.70214 
L 661.159586 507.685561 
L 661.399089 471.873043 
L 661.878095 440.317794 
L 662.117598 403.855585 
L 662.596605 371.245893 
L 663.075611 314.451258 
L 663.315115 301.060168 
L 663.794121 243.625849 
L 664.033624 230.264019 
L 664.512631 172.699652 
L 664.752134 159.840918 
L 664.991637 123.796144 
L 665.23114 105.09255 
L 665.470643 96.909862 
L 665.710147 70.929047 
L 665.94965 72.442126 
L 666.428656 141.923965 
L 667.865676 650.348896 
L 668.344682 738.118868 
L 668.584185 747.598496 
L 669.063192 782.676609 
L 669.302695 773.055748 
L 669.542198 774.124157 
L 669.781701 780.083883 
L 670.021205 760.078862 
L 670.260708 752.560919 
L 670.500211 751.493913 
L 670.739714 725.477787 
L 670.979217 712.856453 
L 671.218721 707.625658 
L 671.458224 677.905249 
L 671.697727 662.040251 
L 671.93723 654.225709 
L 672.416237 604.061035 
L 672.65574 594.596022 
L 673.134746 541.294221 
L 673.37425 530.764974 
L 673.853256 475.260995 
L 674.092759 464.055573 
L 674.571766 406.990845 
L 674.811269 395.37736 
L 675.290275 337.216044 
L 675.529778 325.387041 
L 676.008785 266.491645 
L 676.248288 254.602361 
L 676.727295 195.371772 
L 676.966798 183.698795 
L 677.445804 125.634393 
L 677.685307 116.154954 
L 677.924811 85.232083 
L 678.164314 72.790898 
L 678.64332 93.268411 
L 678.882823 145.582136 
L 680.08034 595.654959 
L 680.559346 707.322462 
L 681.277856 774.5121 
L 681.517359 770.782101 
L 681.756862 773.495775 
L 681.996365 783.961036 
L 682.235868 767.670805 
L 682.475372 760.059161 
L 682.714875 762.108621 
L 683.193881 725.092108 
L 683.433385 722.240319 
L 683.912391 677.189881 
L 684.151894 671.331912 
L 684.630901 621.073603 
L 684.870404 613.303147 
L 685.34941 559.522937 
L 685.588913 550.512521 
L 686.06792 494.284003 
L 686.307423 484.470432 
L 686.78643 426.518694 
L 686.78643 426.518694 
" clip-path="url(#peb74a66c0f)" style="fill: none; stroke: #ff7f0e; stroke-width: 1.5; stroke-linecap: square"/>
   </g>
   <g id="patch_3">
    <path d="M 52.30649 830.64351 
L 52.30649 20.94822 
" style="fill: none; stroke: #000000; stroke-width: 0.8; stroke-linejoin: miter; stroke-linecap: square"/>
   </g>
   <g id="patch_4">
    <path d="M 716.99976 830.64351 
L 716.99976 20.94822 
" style="fill: none; stroke: #000000; stroke-width: 0.8; stroke-linejoin: miter; stroke-linecap: square"/>
   </g>
   <g id="patch_5">
    <path d="M 52.30649 830.64351 
L 716.99976 830.64351 
" style="fill: none; stroke: #000000; stroke-width: 0.8; stroke-linejoin: miter; stroke-linecap: square"/>
   </g>
   <g id="patch_6">
    <path d="M 52.30649 20.94822 
L 716.99976 20.94822 
" style="fill: none; stroke: #000000; stroke-width: 0.8; stroke-linejoin: miter; stroke-linecap: square"/>
   </g>
   <g id="legend_1">
    <g id="patch_7">
     <path d="M 658.14726 50.83322 
L 711.39976 50.83322 
Q 712.99976 50.83322 712.99976 49.23322 
L 712.99976 26.54822 
Q 712.99976 24.94822 711.39976 24.94822 
L 658.14726 24.94822 
Q 656.54726 24.94822 656.54726 26.54822 
L 656.54726 49.23322 
Q 656.54726 50.83322 658.14726 50.83322 
z
" style="fill: #ffffff; opacity: 0.8; stroke: #cccccc; stroke-linejoin: miter"/>
    </g>
    <g id="line2d_17">
     <path d="M 659.74726 31.42697 
L 667.74726 31.42697 
L 675.74726 31.42697 
" style="fill: none; stroke: #1f77b4; stroke-width: 1.5; stroke-linecap: square"/>
    </g>
    <g id="text_17">
     <!-- t=0.0 -->
     <g transform="translate(682.14726 34.22697) scale(0.08 -0.08)">
      <defs>
       <path id="DejaVuSans-74" d="M 1172 4494 
L 1172 3500 
L 2356 3500 
L 2356 3053 
L 1172 3053 
L 1172 1153 
Q 1172 725 1289 603 
Q 1406 481 1766 481 
L 2356 481 
L 2356 0 
L 1766 0 
Q 1100 0 847 248 
Q 594 497 594 1153 
L 594 3053 
L 172 3053 
L 172 3500 
L 594 3500 
L 594 4494 
L 1172 4494 
z
" transform="scale(0.015625)"/>
       <path id="DejaVuSans-3d" d="M 678 2906 
L 4684 2906 
L 4684 2381 
L 678 2381 
L 678 2906 
z
M 678 1631 
L 4684 1631 
L 4684 1100 
L 678 1100 
L 678 1631 
z
" transform="scale(0.015625)"/>
      </defs>
      <use xlink:href="#DejaVuSans-74"/>
      <use xlink:href="#DejaVuSans-3d" x="39.208984"/>
      <use xlink:href="#DejaVuSans-30" x="122.998047"/>
      <use xlink:href="#DejaVuSans-2e" x="186.621094"/>
      <use xlink:href="#DejaVuSans-30" x="218.408203"/>
     </g>
    </g>
    <g id="line2d_18">
     <path d="M 659.74726 43.16947 
L 667.74726 43.16947 
L 675.74726 43.16947 
" style="fill: none; stroke: #ff7f0e; stroke-width: 1.5; stroke-linecap: square"/>
    </g>
    <g id="text_18">
     <!-- t=50.0 -->
     <g transform="translate(682.14726 45.96947) scale(0.08 -0.08)">
      <use xlink:href="#DejaVuSans-74"/>
      <use xlink:href="#DejaVuSans-3d" x="39.208984"/>
      <use xlink:href="#DejaVuSans-35" x="122.998047"/>
      <use xlink:href="#DejaVuSans-30" x="186.621094"/>
      <use xlink:href="#DejaVuSans-2e" x="250.244141"/>
      <use xlink:href="#DejaVuSans-30" x="282.03125"/>
     </g>
    </g>
   </g>
  </g>
  <g id="text_19">
   <!-- Density snapshots for modes m=1..5  [seed_modes_1to5] -->
   <g transform="translate(185.743125 12.118365) scale(0.12 -0.12)">
    <defs>
     <path id="DejaVuSans-44" d="M 1259 4147 
L 1259 519 
L 2022 519 
Q 2988 519 3436 956 
Q 3884 1394 3884 2338 
Q 3884 3275 3436 3711 
Q 2988 4147 2022 4147 
L 1259 4147 
z
M 628 4666 
L 1925 4666 
Q 3281 4666 3915 4102 
Q 4550 3538 4550 2338 
Q 4550 1131 3912 565 
Q 3275 0 1925 0 
L 628 0 
L 628 4666 
z
" transform="scale(0.015625)"/>
     <path id="DejaVuSans-65" d="M 3597 1894 
L 3597 1613 
L 953 1613 
Q 991 1019 1311 708 
Q 1631 397 2203 397 
Q 2534 397 2845 478 
Q 3156 559 3463 722 
L 3463 178 
Q 3153 47 2828 -22 
Q 2503 -91 2169 -91 
Q 1331 -91 842 396 
Q 353 884 353 1716 
Q 353 2575 817 3079 
Q 1281 3584 2069 3584 
Q 2775 3584 3186 3129 
Q 3597 2675 3597 1894 
z
M 3022 2063 
Q 3016 2534 2758 2815 
Q 2500 3097 2075 3097 
Q 1594 3097 1305 2825 
Q 1016 2553 972 2059 
L 3022 2063 
z
" transform="scale(0.015625)"/>
     <path id="DejaVuSans-6e" d="M 3513 2113 
L 3513 0 
L 2938 0 
L 2938 2094 
Q 2938 2591 2744 2837 
Q 2550 3084 2163 3084 
Q 1697 3084 1428 2787 
Q 1159 2491 1159 1978 
L 1159 0 
L 581 0 
L 581 3500 
L 1159 3500 
L 1159 2956 
Q 1366 3272 1645 3428 
Q 1925 3584 2291 3584 
Q 2894 3584 3203 3211 
Q 3513 2838 3513 2113 
z
" transform="scale(0.015625)"/>
     <path id="DejaVuSans-69" d="M 603 3500 
L 1178 3500 
L 1178 0 
L 603 0 
L 603 3500 
z
M 603 4863 
L 1178 4863 
L 1178 4134 
L 603 4134 
L 603 4863 
z
" transform="scale(0.015625)"/>
     <path id="DejaVuSans-79" d="M 2059 -325 
Q 1816 -950 1584 -1140 
Q 1353 -1331 966 -1331 
L 506 -1331 
L 506 -850 
L 844 -850 
Q 1081 -850 1212 -737 
Q 1344 -625 1503 -206 
L 1606 56 
L 191 3500 
L 800 3500 
L 1894 763 
L 2988 3500 
L 3597 3500 
L 2059 -325 
z
" transform="scale(0.015625)"/>
     <path id="DejaVuSans-20" transform="scale(0.015625)"/>
     <path id="DejaVuSans-61" d="M 2194 1759 
Q 1497 1759 1228 1600 
Q 959 1441 959 1056 
Q 959 750 1161 570 
Q 1363 391 1709 391 
Q 2188 391 2477 730 
Q 2766 1069 2766 1631 
L 2766 1759 
L 2194 1759 
z
M 3341 1997 
L 3341 0 
L 2766 0 
L 2766 531 
Q 2569 213 2275 61 
Q 1981 -91 1556 -91 
Q 1019 -91 701 211 
Q 384 513 384 1019 
Q 384 1609 779 1909 
Q 1175 2209 1959 2209 
L 2766 2209 
L 2766 2266 
Q 2766 2663 2505 2880 
Q 2244 3097 1772 3097 
Q 1472 3097 1187 3025 
Q 903 2953 641 2809 
L 641 3341 
Q 956 3463 1253 3523 
Q 1550 3584 1831 3584 
Q 2591 3584 2966 3190 
Q 3341 2797 3341 1997 
z
" transform="scale(0.015625)"/>
     <path id="DejaVuSans-70" d="M 1159 525 
L 1159 -1331 
L 581 -1331 
L 581 3500 
L 1159 3500 
L 1159 2969 
Q 1341 3281 1617 3432 
Q 1894 3584 2278 3584 
Q 2916 3584 3314 3078 
Q 3713 2572 3713 1747 
Q 3713 922 3314 415 
Q 2916 -91 2278 -91 
Q 1894 -91 1617 61 
Q 1341 213 1159 525 
z
M 3116 1747 
Q 3116 2381 2855 2742 
Q 2594 3103 2138 3103 
Q 1681 3103 1420 2742 
Q 1159 2381 1159 1747 
Q 1159 1113 1420 752 
Q 1681 391 2138 391 
Q 2594 391 2855 752 
Q 3116 1113 3116 1747 
z
" transform="scale(0.015625)"/>
     <path id="DejaVuSans-68" d="M 3513 2113 
L 3513 0 
L 2938 0 
L 2938 2094 
Q 2938 2591 2744 2837 
Q 2550 3084 2163 3084 
Q 1697 3084 1428 2787 
Q 1159 2491 1159 1978 
L 1159 0 
L 581 0 
L 581 4863 
L 1159 4863 
L 1159 2956 
Q 1366 3272 1645 3428 
Q 1925 3584 2291 3584 
Q 2894 3584 3203 3211 
Q 3513 2838 3513 2113 
z
" transform="scale(0.015625)"/>
     <path id="DejaVuSans-66" d="M 2375 4863 
L 2375 4384 
L 1825 4384 
Q 1516 4384 1395 4259 
Q 1275 4134 1275 3809 
L 1275 3500 
L 2222 3500 
L 2222 3053 
L 1275 3053 
L 1275 0 
L 697 0 
L 697 3053 
L 147 3053 
L 147 3500 
L 697 3500 
L 697 3744 
Q 697 4328 969 4595 
Q 1241 4863 1831 4863 
L 2375 4863 
z
" transform="scale(0.015625)"/>
     <path id="DejaVuSans-72" d="M 2631 2963 
Q 2534 3019 2420 3045 
Q 2306 3072 2169 3072 
Q 1681 3072 1420 2755 
Q 1159 2438 1159 1844 
L 1159 0 
L 581 0 
L 581 3500 
L 1159 3500 
L 1159 2956 
Q 1341 3275 1631 3429 
Q 1922 3584 2338 3584 
Q 2397 3584 2469 3576 
Q 2541 3569 2628 3553 
L 2631 2963 
z
" transform="scale(0.015625)"/>
     <path id="DejaVuSans-6d" d="M 3328 2828 
Q 3544 3216 3844 3400 
Q 4144 3584 4550 3584 
Q 5097 3584 5394 3201 
Q 5691 2819 5691 2113 
L 5691 0 
L 5113 0 
L 5113 2094 
Q 5113 2597 4934 2840 
Q 4756 3084 4391 3084 
Q 3944 3084 3684 2787 
Q 3425 2491 3425 1978 
L 3425 0 
L 2847 0 
L 2847 2094 
Q 2847 2600 2669 2842 
Q 2491 3084 2119 3084 
Q 1678 3084 1418 2786 
Q 1159 2488 1159 1978 
L 1159 0 
L 581 0 
L 581 3500 
L 1159 3500 
L 1159 2956 
Q 1356 3278 1631 3431 
Q 1906 3584 2284 3584 
Q 2666 3584 2933 3390 
Q 3200 3197 3328 2828 
z
" transform="scale(0.015625)"/>
     <path id="DejaVuSans-64" d="M 2906 2969 
L 2906 4863 
L 3481 4863 
L 3481 0 
L 2906 0 
L 2906 525 
Q 2725 213 2448 61 
Q 2172 -91 1784 -91 
Q 1150 -91 751 415 
Q 353 922 353 1747 
Q 353 2572 751 3078 
Q 1150 3584 1784 3584 
Q 2172 3584 2448 3432 
Q 2725 3281 2906 2969 
z
M 947 1747 
Q 947 1113 1208 752 
Q 1469 391 1925 391 
Q 2381 391 2643 752 
Q 2906 1113 2906 1747 
Q 2906 2381 2643 2742 
Q 2381 3103 1925 3103 
Q 1469 3103 1208 2742 
Q 947 2381 947 1747 
z
" transform="scale(0.015625)"/>
     <path id="DejaVuSans-5b" d="M 550 4863 
L 1875 4863 
L 1875 4416 
L 1125 4416 
L 1125 -397 
L 1875 -397 
L 1875 -844 
L 550 -844 
L 550 4863 
z
" transform="scale(0.015625)"/>
     <path id="DejaVuSans-5f" d="M 3263 -1063 
L 3263 -1509 
L -63 -1509 
L -63 -1063 
L 3263 -1063 
z
" transform="scale(0.015625)"/>
     <path id="DejaVuSans-5d" d="M 1947 4863 
L 1947 -844 
L 622 -844 
L 622 -397 
L 1369 -397 
L 1369 4416 
L 622 4416 
L 622 4863 
L 1947 4863 
z
" transform="scale(0.015625)"/>
    </defs>
    <use xlink:href="#DejaVuSans-44"/>
    <use xlink:href="#DejaVuSans-65" x="77.001953"/>
    <use xlink:href="#DejaVuSans-6e" x="138.525391"/>
    <use xlink:href="#DejaVuSans-73" x="201.904297"/>
    <use xlink:href="#DejaVuSans-69" x="254.003906"/>
    <use xlink:href="#DejaVuSans-74" x="281.787109"/>
    <use xlink:href="#DejaVuSans-79" x="320.996094"/>
    <use xlink:href="#DejaVuSans-20" x="380.175781"/>
    <use xlink:href="#DejaVuSans-73" x="411.962891"/>
    <use xlink:href="#DejaVuSans-6e" x="464.0625"/>
    <use xlink:href="#DejaVuSans-61" x="527.441406"/>
    <use xlink:href="#DejaVuSans-70" x="588.720703"/>
    <use xlink:href="#DejaVuSans-73" x="652.197266"/>
    <use xlink:href="#DejaVuSans-68" x="704.296875"/>
    <use xlink:href="#DejaVuSans-6f" x="767.675781"/>
    <use xlink:href="#DejaVuSans-74" x="828.857422"/>
    <use xlink:href="#DejaVuSans-73" x="868.066406"/>
    <use xlink:href="#DejaVuSans-20" x="920.166016"/>
    <use xlink:href="#DejaVuSans-66" x="951.953125"/>
    <use xlink:href="#DejaVuSans-6f" x="987.158203"/>
    <use xlink:href="#DejaVuSans-72" x="1048.339844"/>
    <use xlink:href="#DejaVuSans-20" x="1089.453125"/>
    <use xlink:href="#DejaVuSans-6d" x="1121.240234"/>
    <use xlink:href="#DejaVuSans-6f" x="1218.652344"/>
    <use xlink:href="#DejaVuSans-64" x="1279.833984"/>
    <use xlink:href="#DejaVuSans-65" x="1343.310547"/>
    <use xlink:href="#DejaVuSans-73" x="1404.833984"/>
    <use xlink:href="#DejaVuSans-20" x="1456.933594"/>
    <use xlink:href="#DejaVuSans-6d" x="1488.720703"/>
    <use xlink:href="#DejaVuSans-3d" x="1586.132812"/>
    <use xlink:href="#DejaVuSans-31" x="1669.921875"/>
    <use xlink:href="#DejaVuSans-2e" x="1733.544922"/>
    <use xlink:href="#DejaVuSans-2e" x="1765.332031"/>
    <use xlink:href="#DejaVuSans-35" x="1797.119141"/>
    <use xlink:href="#DejaVuSans-20" x="1860.742188"/>
    <use xlink:href="#DejaVuSans-20" x="1892.529297"/>
    <use xlink:href="#DejaVuSans-5b" x="1924.316406"/>
    <use xlink:href="#DejaVuSans-73" x="1963.330078"/>
    <use xlink:href="#DejaVuSans-65" x="2015.429688"/>
    <use xlink:href="#DejaVuSans-65" x="2076.953125"/>
    <use xlink:href="#DejaVuSans-64" x="2138.476562"/>
    <use xlink:href="#DejaVuSans-5f" x="2201.953125"/>
    <use xlink:href="#DejaVuSans-6d" x="2251.953125"/>
    <use xlink:href="#DejaVuSans-6f" x="2349.365234"/>
    <use xlink:href="#DejaVuSans-64" x="2410.546875"/>
    <use xlink:href="#DejaVuSans-65" x="2474.023438"/>
    <use xlink:href="#DejaVuSans-73" x="2535.546875"/>
    <use xlink:href="#DejaVuSans-5f" x="2587.646484"/>
    <use xlink:href="#DejaVuSans-31" x="2637.646484"/>
    <use xlink:href="#DejaVuSans-74" x="2701.269531"/>
    <use xlink:href="#DejaVuSans-6f" x="2740.478516"/>
    <use xlink:href="#DejaVuSans-35" x="2801.660156"/>
    <use xlink:href="#DejaVuSans-5d" x="2865.283203"/>
   </g>
  </g>
 </g>
 <defs>
  <clipPath id="peb74a66c0f">
   <rect x="52.30649" y="20.94822" width="664.69327" height="809.69529"/>
  </clipPath>
 </defs>
</svg>
