<?xml version="1.0" encoding="utf-8" standalone="no"?>
<!DOCTYPE svg PUBLIC "-//W3C//DTD SVG 1.1//EN"
  "http://www.w3.org/Graphics/SVG/1.1/DTD/svg11.dtd">
<svg xmlns:xlink="http://www.w3.org/1999/xlink" width="720pt" height="864pt" viewBox="0 0 720 864" xmlns="http://www.w3.org/2000/svg" version="1.1">
 <metadata>
  <rdf:RDF xmlns:dc="http://purl.org/dc/elements/1.1/" xmlns:cc="http://creativecommons.org/ns#" xmlns:rdf="http://www.w3.org/1999/02/22-rdf-syntax-ns#">
   <cc:Work>
    <dc:type rdf:resource="http://purl.org/dc/dcmitype/StillImage"/>
    <dc:date>2025-09-21T15:07:06.400072</dc:date>
    <dc:format>image/svg+xml</dc:format>
    <dc:creator>
     <cc:Agent>
      <dc:title>Matplotlib v3.8.4, https://matplotlib.org/</dc:title>
     </cc:Agent>
    </dc:creator>
   </cc:Work>
  </rdf:RDF>
 </metadata>
 <defs>
  <style type="text/css">*{stroke-linejoin: round; stroke-linecap: butt}</style>
 </defs>
 <g id="figure_1">
  <g id="patch_1">
   <path d="M 0 864 
L 720 864 
L 720 0 
L 0 0 
z
" style="fill: #ffffff"/>
  </g>
  <g id="axes_1">
   <g id="patch_2">
    <path d="M 45.94399 419.725865 
L 716.99976 419.725865 
L 716.99976 20.94822 
L 45.94399 20.94822 
z
" style="fill: #ffffff"/>
   </g>
   <g id="matplotlib.axis_1">
    <g id="xtick_1">
     <g id="line2d_1">
      <defs>
       <path id="m8469372577" d="M 0 0 
L 0 3.5 
" style="stroke: #000000; stroke-width: 0.8"/>
      </defs>
      <g>
       <use xlink:href="#m8469372577" x="76.446525" y="419.725865" style="stroke: #000000; stroke-width: 0.8"/>
      </g>
     </g>
    </g>
    <g id="xtick_2">
     <g id="line2d_2">
      <g>
       <use xlink:href="#m8469372577" x="198.695432" y="419.725865" style="stroke: #000000; stroke-width: 0.8"/>
      </g>
     </g>
    </g>
    <g id="xtick_3">
     <g id="line2d_3">
      <g>
       <use xlink:href="#m8469372577" x="320.94434" y="419.725865" style="stroke: #000000; stroke-width: 0.8"/>
      </g>
     </g>
    </g>
    <g id="xtick_4">
     <g id="line2d_4">
      <g>
       <use xlink:href="#m8469372577" x="443.193247" y="419.725865" style="stroke: #000000; stroke-width: 0.8"/>
      </g>
     </g>
    </g>
    <g id="xtick_5">
     <g id="line2d_5">
      <g>
       <use xlink:href="#m8469372577" x="565.442155" y="419.725865" style="stroke: #000000; stroke-width: 0.8"/>
      </g>
     </g>
    </g>
    <g id="xtick_6">
     <g id="line2d_6">
      <g>
       <use xlink:href="#m8469372577" x="687.691062" y="419.725865" style="stroke: #000000; stroke-width: 0.8"/>
      </g>
     </g>
    </g>
   </g>
   <g id="matplotlib.axis_2">
    <g id="ytick_1">
     <g id="line2d_7">
      <defs>
       <path id="m98de6ca9fb" d="M 0 0 
L -3.5 0 
" style="stroke: #000000; stroke-width: 0.8"/>
      </defs>
      <g>
       <use xlink:href="#m98de6ca9fb" x="45.94399" y="386.551351" style="stroke: #000000; stroke-width: 0.8"/>
      </g>
     </g>
     <g id="text_1">
      <!-- 0.16 -->
      <g transform="translate(16.678365 390.35057) scale(0.1 -0.1)">
       <defs>
        <path id="DejaVuSans-30" d="M 2034 4250 
Q 1547 4250 1301 3770 
Q 1056 3291 1056 2328 
Q 1056 1369 1301 889 
Q 1547 409 2034 409 
Q 2525 409 2770 889 
Q 3016 1369 3016 2328 
Q 3016 3291 2770 3770 
Q 2525 4250 2034 4250 
z
M 2034 4750 
Q 2819 4750 3233 4129 
Q 3647 3509 3647 2328 
Q 3647 1150 3233 529 
Q 2819 -91 2034 -91 
Q 1250 -91 836 529 
Q 422 1150 422 2328 
Q 422 3509 836 4129 
Q 1250 4750 2034 4750 
z
" transform="scale(0.015625)"/>
        <path id="DejaVuSans-2e" d="M 684 794 
L 1344 794 
L 1344 0 
L 684 0 
L 684 794 
z
" transform="scale(0.015625)"/>
        <path id="DejaVuSans-31" d="M 794 531 
L 1825 531 
L 1825 4091 
L 703 3866 
L 703 4441 
L 1819 4666 
L 2450 4666 
L 2450 531 
L 3481 531 
L 3481 0 
L 794 0 
L 794 531 
z
" transform="scale(0.015625)"/>
        <path id="DejaVuSans-36" d="M 2113 2584 
Q 1688 2584 1439 2293 
Q 1191 2003 1191 1497 
Q 1191 994 1439 701 
Q 1688 409 2113 409 
Q 2538 409 2786 701 
Q 3034 994 3034 1497 
Q 3034 2003 2786 2293 
Q 2538 2584 2113 2584 
z
M 3366 4563 
L 3366 3988 
Q 3128 4100 2886 4159 
Q 2644 4219 2406 4219 
Q 1781 4219 1451 3797 
Q 1122 3375 1075 2522 
Q 1259 2794 1537 2939 
Q 1816 3084 2150 3084 
Q 2853 3084 3261 2657 
Q 3669 2231 3669 1497 
Q 3669 778 3244 343 
Q 2819 -91 2113 -91 
Q 1303 -91 875 529 
Q 447 1150 447 2328 
Q 447 3434 972 4092 
Q 1497 4750 2381 4750 
Q 2619 4750 2861 4703 
Q 3103 4656 3366 4563 
z
" transform="scale(0.015625)"/>
       </defs>
       <use xlink:href="#DejaVuSans-30"/>
       <use xlink:href="#DejaVuSans-2e" x="63.623047"/>
       <use xlink:href="#DejaVuSans-31" x="95.410156"/>
       <use xlink:href="#DejaVuSans-36" x="159.033203"/>
      </g>
     </g>
    </g>
    <g id="ytick_2">
     <g id="line2d_8">
      <g>
       <use xlink:href="#m98de6ca9fb" x="45.94399" y="316.270438" style="stroke: #000000; stroke-width: 0.8"/>
      </g>
     </g>
     <g id="text_2">
      <!-- 0.18 -->
      <g transform="translate(16.678365 320.069656) scale(0.1 -0.1)">
       <defs>
        <path id="DejaVuSans-38" d="M 2034 2216 
Q 1584 2216 1326 1975 
Q 1069 1734 1069 1313 
Q 1069 891 1326 650 
Q 1584 409 2034 409 
Q 2484 409 2743 651 
Q 3003 894 3003 1313 
Q 3003 1734 2745 1975 
Q 2488 2216 2034 2216 
z
M 1403 2484 
Q 997 2584 770 2862 
Q 544 3141 544 3541 
Q 544 4100 942 4425 
Q 1341 4750 2034 4750 
Q 2731 4750 3128 4425 
Q 3525 4100 3525 3541 
Q 3525 3141 3298 2862 
Q 3072 2584 2669 2484 
Q 3125 2378 3379 2068 
Q 3634 1759 3634 1313 
Q 3634 634 3220 271 
Q 2806 -91 2034 -91 
Q 1263 -91 848 271 
Q 434 634 434 1313 
Q 434 1759 690 2068 
Q 947 2378 1403 2484 
z
M 1172 3481 
Q 1172 3119 1398 2916 
Q 1625 2713 2034 2713 
Q 2441 2713 2670 2916 
Q 2900 3119 2900 3481 
Q 2900 3844 2670 4047 
Q 2441 4250 2034 4250 
Q 1625 4250 1398 4047 
Q 1172 3844 1172 3481 
z
" transform="scale(0.015625)"/>
       </defs>
       <use xlink:href="#DejaVuSans-30"/>
       <use xlink:href="#DejaVuSans-2e" x="63.623047"/>
       <use xlink:href="#DejaVuSans-31" x="95.410156"/>
       <use xlink:href="#DejaVuSans-38" x="159.033203"/>
      </g>
     </g>
    </g>
    <g id="ytick_3">
     <g id="line2d_9">
      <g>
       <use xlink:href="#m98de6ca9fb" x="45.94399" y="245.989524" style="stroke: #000000; stroke-width: 0.8"/>
      </g>
     </g>
     <g id="text_3">
      <!-- 0.20 -->
      <g transform="translate(16.678365 249.788743) scale(0.1 -0.1)">
       <defs>
        <path id="DejaVuSans-32" d="M 1228 531 
L 3431 531 
L 3431 0 
L 469 0 
L 469 531 
Q 828 903 1448 1529 
Q 2069 2156 2228 2338 
Q 2531 2678 2651 2914 
Q 2772 3150 2772 3378 
Q 2772 3750 2511 3984 
Q 2250 4219 1831 4219 
Q 1534 4219 1204 4116 
Q 875 4013 500 3803 
L 500 4441 
Q 881 4594 1212 4672 
Q 1544 4750 1819 4750 
Q 2544 4750 2975 4387 
Q 3406 4025 3406 3419 
Q 3406 3131 3298 2873 
Q 3191 2616 2906 2266 
Q 2828 2175 2409 1742 
Q 1991 1309 1228 531 
z
" transform="scale(0.015625)"/>
       </defs>
       <use xlink:href="#DejaVuSans-30"/>
       <use xlink:href="#DejaVuSans-2e" x="63.623047"/>
       <use xlink:href="#DejaVuSans-32" x="95.410156"/>
       <use xlink:href="#DejaVuSans-30" x="159.033203"/>
      </g>
     </g>
    </g>
    <g id="ytick_4">
     <g id="line2d_10">
      <g>
       <use xlink:href="#m98de6ca9fb" x="45.94399" y="175.708611" style="stroke: #000000; stroke-width: 0.8"/>
      </g>
     </g>
     <g id="text_4">
      <!-- 0.22 -->
      <g transform="translate(16.678365 179.507829) scale(0.1 -0.1)">
       <use xlink:href="#DejaVuSans-30"/>
       <use xlink:href="#DejaVuSans-2e" x="63.623047"/>
       <use xlink:href="#DejaVuSans-32" x="95.410156"/>
       <use xlink:href="#DejaVuSans-32" x="159.033203"/>
      </g>
     </g>
    </g>
    <g id="ytick_5">
     <g id="line2d_11">
      <g>
       <use xlink:href="#m98de6ca9fb" x="45.94399" y="105.427697" style="stroke: #000000; stroke-width: 0.8"/>
      </g>
     </g>
     <g id="text_5">
      <!-- 0.24 -->
      <g transform="translate(16.678365 109.226916) scale(0.1 -0.1)">
       <defs>
        <path id="DejaVuSans-34" d="M 2419 4116 
L 825 1625 
L 2419 1625 
L 2419 4116 
z
M 2253 4666 
L 3047 4666 
L 3047 1625 
L 3713 1625 
L 3713 1100 
L 3047 1100 
L 3047 0 
L 2419 0 
L 2419 1100 
L 313 1100 
L 313 1709 
L 2253 4666 
z
" transform="scale(0.015625)"/>
       </defs>
       <use xlink:href="#DejaVuSans-30"/>
       <use xlink:href="#DejaVuSans-2e" x="63.623047"/>
       <use xlink:href="#DejaVuSans-32" x="95.410156"/>
       <use xlink:href="#DejaVuSans-34" x="159.033203"/>
      </g>
     </g>
    </g>
    <g id="ytick_6">
     <g id="line2d_12">
      <g>
       <use xlink:href="#m98de6ca9fb" x="45.94399" y="35.146784" style="stroke: #000000; stroke-width: 0.8"/>
      </g>
     </g>
     <g id="text_6">
      <!-- 0.26 -->
      <g transform="translate(16.678365 38.946003) scale(0.1 -0.1)">
       <use xlink:href="#DejaVuSans-30"/>
       <use xlink:href="#DejaVuSans-2e" x="63.623047"/>
       <use xlink:href="#DejaVuSans-32" x="95.410156"/>
       <use xlink:href="#DejaVuSans-36" x="159.033203"/>
      </g>
     </g>
    </g>
    <g id="text_7">
     <!-- m=10 -->
     <g transform="translate(10.598677 235.759699) rotate(-90) scale(0.1 -0.1)">
      <defs>
       <path id="DejaVuSans-6d" d="M 3328 2828 
Q 3544 3216 3844 3400 
Q 4144 3584 4550 3584 
Q 5097 3584 5394 3201 
Q 5691 2819 5691 2113 
L 5691 0 
L 5113 0 
L 5113 2094 
Q 5113 2597 4934 2840 
Q 4756 3084 4391 3084 
Q 3944 3084 3684 2787 
Q 3425 2491 3425 1978 
L 3425 0 
L 2847 0 
L 2847 2094 
Q 2847 2600 2669 2842 
Q 2491 3084 2119 3084 
Q 1678 3084 1418 2786 
Q 1159 2488 1159 1978 
L 1159 0 
L 581 0 
L 581 3500 
L 1159 3500 
L 1159 2956 
Q 1356 3278 1631 3431 
Q 1906 3584 2284 3584 
Q 2666 3584 2933 3390 
Q 3200 3197 3328 2828 
z
" transform="scale(0.015625)"/>
       <path id="DejaVuSans-3d" d="M 678 2906 
L 4684 2906 
L 4684 2381 
L 678 2381 
L 678 2906 
z
M 678 1631 
L 4684 1631 
L 4684 1100 
L 678 1100 
L 678 1631 
z
" transform="scale(0.015625)"/>
      </defs>
      <use xlink:href="#DejaVuSans-6d"/>
      <use xlink:href="#DejaVuSans-3d" x="97.412109"/>
      <use xlink:href="#DejaVuSans-31" x="181.201172"/>
      <use xlink:href="#DejaVuSans-30" x="244.824219"/>
     </g>
    </g>
   </g>
   <g id="line2d_13">
    <path d="M 76.446525 175.708611 
L 77.640362 176.237156 
L 78.834199 177.814842 
L 80.028036 180.417938 
L 81.221873 184.007292 
L 82.41571 188.528917 
L 83.609547 193.914802 
L 84.803384 200.08394 
L 87.191058 214.390429 
L 89.578732 230.590889 
L 95.547917 272.884865 
L 97.935591 287.855815 
L 99.129428 294.451063 
L 100.323265 300.317405 
L 101.517102 305.366604 
L 102.710939 309.522717 
L 103.904776 312.723232 
L 105.098613 314.920009 
L 106.29245 316.080008 
L 107.486287 316.185781 
L 108.680124 315.235737 
L 109.873961 313.244165 
L 111.067798 310.241021 
L 112.261635 306.271474 
L 113.455472 301.395231 
L 114.649309 295.685635 
L 115.843146 289.228562 
L 118.23082 274.470254 
L 120.618493 258.004882 
L 126.587678 215.940562 
L 128.975352 201.403785 
L 130.169189 195.088778 
L 131.363026 189.539365 
L 132.556863 184.839016 
L 133.7507 181.058427 
L 134.944537 178.254462 
L 136.138374 176.469295 
L 137.332211 175.729778 
L 138.526048 176.047033 
L 139.719885 177.416287 
L 140.913722 179.816947 
L 142.107559 183.212904 
L 143.301396 187.55308 
L 144.495233 192.772195 
L 145.68907 198.791747 
L 148.076744 212.859331 
L 150.464418 228.912655 
L 157.62744 279.119717 
L 160.015114 293.187301 
L 161.208951 299.206853 
L 162.402788 304.425968 
L 163.596625 308.766144 
L 164.790462 312.162101 
L 165.984299 314.562761 
L 167.178136 315.932016 
L 168.371973 316.24927 
L 169.56581 315.509753 
L 170.759647 313.724586 
L 171.953484 310.920622 
L 173.147321 307.140033 
L 174.341158 302.439683 
L 175.534995 296.890271 
L 176.728832 290.575264 
L 179.116506 276.038487 
L 181.50418 259.70065 
L 187.473365 217.508794 
L 189.861039 202.750486 
L 191.054876 196.293414 
L 192.248713 190.583817 
L 193.44255 185.707574 
L 194.636387 181.738027 
L 195.830224 178.734883 
L 197.024061 176.743311 
L 198.217898 175.793267 
L 199.411735 175.89904 
L 200.605572 177.059039 
L 201.799409 179.255816 
L 202.993246 182.456331 
L 204.187083 186.612444 
L 205.38092 191.661643 
L 206.574757 197.527985 
L 207.768593 204.123233 
L 210.156267 219.094183 
L 213.737778 244.264744 
L 217.319289 269.666451 
L 219.706963 285.035508 
L 220.9008 291.895108 
L 222.094637 298.064246 
L 223.288474 303.450132 
L 224.482311 307.971756 
L 225.676148 311.56111 
L 226.869985 314.164207 
L 228.063822 315.741892 
L 229.257659 316.270438 
L 230.451496 315.741892 
L 231.645333 314.164207 
L 232.83917 311.56111 
L 234.033007 307.971756 
L 235.226844 303.450132 
L 236.420681 298.064246 
L 237.614518 291.895108 
L 240.002192 277.588619 
L 242.389866 261.388159 
L 248.359051 219.094183 
L 250.746725 204.123233 
L 251.940562 197.527985 
L 253.134399 191.661643 
L 254.328236 186.612444 
L 255.522073 182.456331 
L 256.71591 179.255816 
L 257.909747 177.059039 
L 259.103584 175.89904 
L 260.297421 175.793267 
L 261.491258 176.743311 
L 262.685095 178.734883 
L 263.878932 181.738027 
L 265.072769 185.707574 
L 266.266606 190.583817 
L 267.460443 196.293414 
L 268.65428 202.750486 
L 271.041954 217.508794 
L 273.429628 233.974166 
L 279.398813 276.038487 
L 281.786487 290.575264 
L 282.980324 296.890271 
L 284.174161 302.439683 
L 285.367998 307.140033 
L 286.561835 310.920622 
L 287.755672 313.724586 
L 288.949509 315.509753 
L 290.143346 316.24927 
L 291.337183 315.932016 
L 292.53102 314.562761 
L 293.724857 312.162101 
L 294.918693 308.766144 
L 296.11253 304.425968 
L 297.306367 299.206853 
L 298.500204 293.187301 
L 300.887878 279.119717 
L 303.275552 263.066393 
L 310.438574 212.859331 
L 312.826248 198.791747 
L 314.020085 192.772195 
L 315.213922 187.55308 
L 316.407759 183.212904 
L 317.601596 179.816947 
L 318.795433 177.416287 
L 319.98927 176.047033 
L 321.183107 175.729778 
L 322.376944 176.469295 
L 323.570781 178.254462 
L 324.764618 181.058427 
L 325.958455 184.839016 
L 327.152292 189.539365 
L 328.346129 195.088778 
L 329.539966 201.403785 
L 331.92764 215.940562 
L 334.315314 232.278398 
L 340.284499 274.470254 
L 342.672173 289.228562 
L 343.86601 295.685635 
L 345.059847 301.395231 
L 346.253684 306.271474 
L 347.447521 310.241021 
L 348.641358 313.244165 
L 349.835195 315.235737 
L 351.029032 316.185781 
L 352.222869 316.080008 
L 353.416706 314.920009 
L 354.610543 312.723232 
L 355.80438 309.522717 
L 356.998217 305.366604 
L 358.192054 300.317405 
L 359.385891 294.451063 
L 360.579728 287.855815 
L 362.967402 272.884865 
L 366.548913 247.714304 
L 370.130424 222.312598 
L 372.518098 206.943541 
L 373.711935 200.08394 
L 374.905772 193.914802 
L 376.099609 188.528917 
L 377.293446 184.007292 
L 378.487283 180.417938 
L 379.68112 177.814842 
L 380.874957 176.237156 
L 382.068793 175.708611 
L 383.26263 176.237156 
L 384.456467 177.814842 
L 385.650304 180.417938 
L 386.844141 184.007292 
L 388.037978 188.528917 
L 389.231815 193.914802 
L 390.425652 200.08394 
L 392.813326 214.390429 
L 395.201 230.590889 
L 401.170185 272.884865 
L 403.557859 287.855815 
L 404.751696 294.451063 
L 405.945533 300.317405 
L 407.13937 305.366604 
L 408.333207 309.522717 
L 409.527044 312.723232 
L 410.720881 314.920009 
L 411.914718 316.080008 
L 413.108555 316.185781 
L 414.302392 315.235737 
L 415.496229 313.244165 
L 416.690066 310.241021 
L 417.883903 306.271474 
L 419.07774 301.395231 
L 420.271577 295.685635 
L 421.465414 289.228562 
L 423.853088 274.470254 
L 426.240762 258.004882 
L 432.209947 215.940562 
L 434.597621 201.403785 
L 435.791458 195.088778 
L 436.985295 189.539365 
L 438.179132 184.839016 
L 439.372969 181.058427 
L 440.566806 178.254462 
L 441.760643 176.469295 
L 442.95448 175.729778 
L 444.148317 176.047033 
L 445.342154 177.416287 
L 446.535991 179.816947 
L 447.729828 183.212904 
L 448.923665 187.55308 
L 450.117502 192.772195 
L 451.311339 198.791747 
L 453.699013 212.859331 
L 456.086687 228.912655 
L 463.249709 279.119717 
L 465.637383 293.187301 
L 466.83122 299.206853 
L 468.025057 304.425968 
L 469.218893 308.766144 
L 470.41273 312.162101 
L 471.606567 314.562761 
L 472.800404 315.932016 
L 473.994241 316.24927 
L 475.188078 315.509753 
L 476.381915 313.724586 
L 477.575752 310.920622 
L 478.769589 307.140033 
L 479.963426 302.439683 
L 481.157263 296.890271 
L 482.3511 290.575264 
L 484.738774 276.038487 
L 487.126448 259.70065 
L 493.095633 217.508794 
L 495.483307 202.750486 
L 496.677144 196.293414 
L 497.870981 190.583817 
L 499.064818 185.707574 
L 500.258655 181.738027 
L 501.452492 178.734883 
L 502.646329 176.743311 
L 503.840166 175.793267 
L 505.034003 175.89904 
L 506.22784 177.059039 
L 507.421677 179.255816 
L 508.615514 182.456331 
L 509.809351 186.612444 
L 511.003188 191.661643 
L 512.197025 197.527985 
L 513.390862 204.123233 
L 515.778536 219.094183 
L 519.360047 244.264744 
L 522.941558 269.666451 
L 525.329232 285.035508 
L 526.523069 291.895108 
L 527.716906 298.064246 
L 528.910743 303.450132 
L 530.10458 307.971756 
L 531.298417 311.56111 
L 532.492254 314.164207 
L 533.686091 315.741892 
L 534.879928 316.270438 
L 536.073765 315.741892 
L 537.267602 314.164207 
L 538.461439 311.56111 
L 539.655276 307.971756 
L 540.849113 303.450132 
L 542.04295 298.064246 
L 543.236787 291.895108 
L 545.624461 277.588619 
L 548.012135 261.388159 
L 553.98132 219.094183 
L 556.368993 204.123233 
L 557.56283 197.527985 
L 558.756667 191.661643 
L 559.950504 186.612444 
L 561.144341 182.456331 
L 562.338178 179.255816 
L 563.532015 177.059039 
L 564.725852 175.89904 
L 565.919689 175.793267 
L 567.113526 176.743311 
L 568.307363 178.734883 
L 569.5012 181.738027 
L 570.695037 185.707574 
L 571.888874 190.583817 
L 573.082711 196.293414 
L 574.276548 202.750486 
L 576.664222 217.508794 
L 579.051896 233.974166 
L 585.021081 276.038487 
L 587.408755 290.575264 
L 588.602592 296.890271 
L 589.796429 302.439683 
L 590.990266 307.140033 
L 592.184103 310.920622 
L 593.37794 313.724586 
L 594.571777 315.509753 
L 595.765614 316.24927 
L 596.959451 315.932016 
L 598.153288 314.562761 
L 599.347125 312.162101 
L 600.540962 308.766144 
L 601.734799 304.425968 
L 602.928636 299.206853 
L 604.122473 293.187301 
L 606.510147 279.119717 
L 608.897821 263.066393 
L 616.060843 212.859331 
L 618.448517 198.791747 
L 619.642354 192.772195 
L 620.836191 187.55308 
L 622.030028 183.212904 
L 623.223865 179.816947 
L 624.417702 177.416287 
L 625.611539 176.047033 
L 626.805376 175.729778 
L 627.999213 176.469295 
L 629.19305 178.254462 
L 630.386887 181.058427 
L 631.580724 184.839016 
L 632.774561 189.539365 
L 633.968398 195.088778 
L 635.162235 201.403785 
L 637.549909 215.940562 
L 639.937583 232.278398 
L 645.906767 274.470254 
L 648.294441 289.228562 
L 649.488278 295.685635 
L 650.682115 301.395231 
L 651.875952 306.271474 
L 653.069789 310.241021 
L 654.263626 313.244165 
L 655.457463 315.235737 
L 656.6513 316.185781 
L 657.845137 316.080008 
L 659.038974 314.920009 
L 660.232811 312.723232 
L 661.426648 309.522717 
L 662.620485 305.366604 
L 663.814322 300.317405 
L 665.008159 294.451063 
L 666.201996 287.855815 
L 668.58967 272.884865 
L 672.171181 247.714304 
L 675.752692 222.312598 
L 678.140366 206.943541 
L 679.334203 200.08394 
L 680.52804 193.914802 
L 681.721877 188.528917 
L 682.915714 184.007292 
L 684.109551 180.417938 
L 685.303388 177.814842 
L 686.497225 176.237156 
L 686.497225 176.237156 
" clip-path="url(#p7ea958711f)" style="fill: none; stroke: #1f77b4; stroke-width: 1.5; stroke-linecap: square"/>
   </g>
   <g id="line2d_14">
    <path d="M 76.446525 174.995236 
L 80.028036 87.464855 
L 81.221873 62.748067 
L 82.41571 44.797377 
L 83.609547 39.444284 
L 84.803384 56.482574 
L 85.997221 101.455448 
L 89.578732 294.097275 
L 90.772569 339.182251 
L 91.966406 369.832882 
L 93.160243 387.814253 
L 94.35408 395.396979 
L 95.547917 394.621249 
L 96.741754 387.213183 
L 97.935591 374.514813 
L 99.129428 357.606361 
L 100.323265 337.385201 
L 101.517102 314.452034 
L 103.904776 262.673509 
L 107.486287 176.406334 
L 109.873961 119.269935 
L 111.067798 94.719147 
L 112.261635 76.720252 
L 113.455472 71.128564 
L 114.649309 86.988394 
L 115.843146 128.949836 
L 119.424657 308.143466 
L 120.618493 350.076966 
L 121.81233 378.44399 
L 123.006167 394.748973 
L 124.200004 401.283131 
L 125.393841 399.837599 
L 126.587678 391.894669 
L 127.781515 378.991456 
L 128.975352 362.067383 
L 130.169189 341.755558 
L 132.556863 294.074949 
L 134.944537 239.523285 
L 142.107559 67.329261 
L 143.301396 47.682984 
L 144.495233 39.074477 
L 145.68907 50.81297 
L 146.882907 90.309822 
L 148.076744 152.444712 
L 149.270581 221.453198 
L 150.464418 283.190797 
L 151.658255 331.258165 
L 152.852092 364.719266 
L 154.045929 385.074524 
L 155.239766 394.581211 
L 156.433603 395.343053 
L 157.62744 389.152738 
L 158.821277 377.429755 
L 160.015114 361.29024 
L 161.208951 341.680596 
L 162.402788 319.252702 
L 164.790462 268.153123 
L 168.371973 182.299038 
L 170.759647 124.710578 
L 171.953484 99.263451 
L 173.147321 79.621841 
L 174.341158 70.880681 
L 175.534995 81.786614 
L 176.728832 118.723237 
L 177.922669 176.624718 
L 179.116506 240.811432 
L 180.310343 298.15344 
L 181.50418 342.816379 
L 182.698017 373.811514 
L 183.891854 392.337586 
L 185.085691 400.649702 
L 186.279528 400.67871 
L 187.473365 393.901267 
L 188.667202 381.885368 
L 189.861039 365.717083 
L 191.054876 346.012968 
L 193.44255 299.165804 
L 195.830224 245.134422 
L 199.411735 157.108236 
L 201.799409 98.541538 
L 202.993246 72.060052 
L 204.187083 50.939348 
L 205.38092 39.535672 
L 206.574757 46.426114 
L 207.768593 80.355319 
L 208.96243 139.083604 
L 211.350104 271.97669 
L 212.543941 322.933697 
L 213.737778 359.207408 
L 214.931615 381.977209 
L 216.125452 393.449422 
L 217.319289 395.786318 
L 218.513126 390.843632 
L 219.706963 380.119034 
L 220.9008 364.770083 
L 222.094637 345.784104 
L 223.288474 323.872258 
L 225.676148 273.473028 
L 228.063822 217.287492 
L 231.645333 130.154724 
L 232.83917 103.932121 
L 234.033007 82.860905 
L 235.226844 71.37802 
L 236.420681 77.690716 
L 237.614518 109.478954 
L 238.808355 164.256254 
L 241.196029 287.80659 
L 242.389866 335.132925 
L 243.583703 368.76935 
L 244.77754 389.579964 
L 245.971377 399.720466 
L 247.165214 401.258112 
L 248.359051 395.694858 
L 249.552888 384.596308 
L 250.746725 369.193778 
L 251.940562 350.125917 
L 253.134399 328.199908 
L 255.522073 278.127422 
L 257.909747 222.209189 
L 263.878932 76.940516 
L 265.072769 54.508383 
L 266.266606 40.671171 
L 267.460443 43.130082 
L 268.65428 71.451636 
L 269.848117 126.195164 
L 272.235791 260.321077 
L 273.429628 314.099451 
L 274.623465 353.222479 
L 275.817302 378.482927 
L 277.011139 391.994709 
L 278.204976 395.970389 
L 279.398813 392.32651 
L 280.59265 382.639546 
L 281.786487 368.116531 
L 282.980324 349.778095 
L 284.174161 328.399909 
L 286.561835 278.736569 
L 288.949509 223.001194 
L 293.724857 108.779359 
L 294.918693 86.426312 
L 296.11253 72.509788 
L 297.306367 74.526595 
L 298.500204 101.032136 
L 299.694041 152.095507 
L 302.081715 276.858065 
L 303.275552 326.830195 
L 304.469389 363.176329 
L 305.663226 386.388665 
L 306.857063 398.461811 
L 308.0509 401.580243 
L 309.244737 397.308536 
L 310.438574 387.187727 
L 311.632411 372.580242 
L 312.826248 354.18895 
L 314.020085 332.757055 
L 316.407759 283.449689 
L 318.795433 227.951558 
L 324.764618 82.068718 
L 325.958455 58.438376 
L 327.152292 42.427441 
L 328.346129 40.792815 
L 329.539966 63.441615 
L 330.733803 113.577561 
L 333.121477 247.925767 
L 334.315314 304.49373 
L 335.509151 346.563358 
L 336.702988 374.453921 
L 337.896825 390.135416 
L 339.090662 395.859644 
L 340.284499 393.603802 
L 341.478336 385.021786 
L 342.672173 371.382609 
L 343.86601 353.735767 
L 345.059847 332.921154 
L 347.447521 284.051175 
L 349.835195 228.805366 
L 354.610543 113.906986 
L 355.80438 90.390336 
L 356.998217 74.298373 
L 358.192054 72.31369 
L 359.385891 93.44187 
L 360.579728 140.186476 
L 362.967402 265.191826 
L 364.161239 317.780626 
L 365.355076 356.917075 
L 366.548913 382.667742 
L 367.74275 396.806994 
L 368.936587 401.599608 
L 370.130424 398.709612 
L 371.324261 389.645275 
L 372.518098 375.874259 
L 373.711935 358.203121 
L 374.905772 337.31152 
L 377.293446 288.806194 
L 379.68112 233.76408 
L 385.650304 87.464922 
L 386.844141 62.74811 
L 388.037978 44.797366 
L 389.231815 39.44418 
L 390.425652 56.482326 
L 391.619489 101.455059 
L 395.201 294.096947 
L 396.394837 339.182015 
L 397.588674 369.832729 
L 398.782511 387.814166 
L 399.976348 395.396945 
L 401.170185 394.621262 
L 402.364022 387.213224 
L 403.557859 374.514884 
L 404.751696 357.606452 
L 405.945533 337.385307 
L 407.13937 314.452152 
L 409.527044 262.673644 
L 413.108555 176.406481 
L 415.496229 119.270085 
L 416.690066 94.719296 
L 417.883903 76.720389 
L 419.07774 71.128677 
L 420.271577 86.988464 
L 421.465414 128.94985 
L 425.046925 308.143405 
L 426.240762 350.076903 
L 427.434599 378.443935 
L 428.628436 394.748921 
L 429.822273 401.283086 
L 431.01611 399.837559 
L 432.209947 391.894629 
L 433.403784 378.991425 
L 434.597621 362.06735 
L 435.791458 341.755527 
L 438.179132 294.074915 
L 440.566806 239.523255 
L 447.729828 67.32926 
L 448.923665 47.683017 
L 450.117502 39.074562 
L 451.311339 50.813147 
L 452.505176 90.31009 
L 453.699013 152.445026 
L 454.89285 221.453488 
L 456.086687 283.191033 
L 457.280524 331.258333 
L 458.474361 364.719379 
L 459.668198 385.074583 
L 460.862035 394.581234 
L 462.055872 395.343045 
L 463.249709 389.152704 
L 464.443546 377.429702 
L 465.637383 361.290176 
L 466.83122 341.680513 
L 468.025057 319.252614 
L 470.41273 268.153016 
L 473.994241 182.298919 
L 476.381915 124.710458 
L 477.575752 99.26335 
L 478.769589 79.621746 
L 479.963426 70.880608 
L 481.157263 81.786587 
L 482.3511 118.723261 
L 483.544937 176.62478 
L 484.738774 240.811516 
L 485.932611 298.153518 
L 487.126448 342.816452 
L 488.320285 373.811568 
L 489.514122 392.337636 
L 490.707959 400.649736 
L 491.901796 400.678737 
L 493.095633 393.90129 
L 494.28947 381.885385 
L 495.483307 365.717089 
L 496.677144 346.012988 
L 499.064818 299.165819 
L 501.452492 245.134427 
L 505.034003 157.108237 
L 507.421677 98.541536 
L 508.615514 72.060036 
L 509.809351 50.93932 
L 511.003188 39.535616 
L 512.197025 46.426005 
L 513.390862 80.355159 
L 514.584699 139.083411 
L 516.972373 271.976545 
L 518.16621 322.933588 
L 519.360047 359.207339 
L 520.553884 381.977172 
L 521.747721 393.44941 
L 522.941558 395.786325 
L 524.135395 390.843657 
L 525.329232 380.119069 
L 526.523069 364.77013 
L 527.716906 345.784158 
L 528.910743 323.872318 
L 531.298417 273.473098 
L 533.686091 217.287568 
L 537.267602 130.154798 
L 538.461439 103.932192 
L 539.655276 82.860969 
L 540.849113 71.378064 
L 542.04295 77.690729 
L 543.236787 109.478926 
L 544.430624 164.256189 
L 546.818298 287.806517 
L 548.012135 335.132864 
L 549.205972 368.769305 
L 550.399809 389.579927 
L 551.593646 399.720441 
L 552.787483 401.258098 
L 553.98132 395.694844 
L 555.175157 384.596309 
L 556.368993 369.193773 
L 557.56283 350.125924 
L 558.756667 328.199911 
L 561.144341 278.127432 
L 563.532015 222.209201 
L 569.5012 76.940532 
L 570.695037 54.508406 
L 571.888874 40.671202 
L 573.082711 43.130132 
L 574.276548 71.451707 
L 575.470385 126.19525 
L 577.858059 260.321147 
L 579.051896 314.099504 
L 580.245733 353.222515 
L 581.43957 378.48295 
L 582.633407 391.994723 
L 583.827244 395.970393 
L 585.021081 392.326508 
L 586.214918 382.63954 
L 587.408755 368.116518 
L 588.602592 349.778082 
L 589.796429 328.399892 
L 592.184103 278.73655 
L 594.571777 223.001171 
L 599.347125 108.77933 
L 600.540962 86.426271 
L 601.734799 72.509737 
L 602.928636 74.526524 
L 604.122473 101.032041 
L 605.31631 152.095405 
L 607.703984 276.857992 
L 608.897821 326.830149 
L 610.091658 363.176305 
L 611.285495 386.388655 
L 612.479332 398.46182 
L 613.673169 401.58026 
L 614.867006 397.308563 
L 616.060843 387.187761 
L 617.25468 372.580282 
L 618.448517 354.188993 
L 619.642354 332.757105 
L 622.030028 283.449742 
L 624.417702 227.951612 
L 630.386887 82.068765 
L 631.580724 58.438399 
L 632.774561 42.427438 
L 633.968398 40.792748 
L 635.162235 63.44146 
L 636.356072 113.577334 
L 638.743746 247.92554 
L 639.937583 304.49355 
L 641.13142 346.563224 
L 642.325257 374.453833 
L 643.519093 390.135363 
L 644.71293 395.859619 
L 645.906767 393.603801 
L 647.100604 385.021803 
L 648.294441 371.382636 
L 649.488278 353.735809 
L 650.682115 332.921203 
L 653.069789 284.051239 
L 655.457463 228.805431 
L 660.232811 113.907062 
L 661.426648 90.390426 
L 662.620485 74.298474 
L 663.814322 72.313809 
L 665.008159 93.442011 
L 666.201996 140.186617 
L 668.58967 265.191914 
L 669.783507 317.780681 
L 670.977344 356.9171 
L 672.171181 382.667739 
L 673.365018 396.806974 
L 674.558855 401.599576 
L 675.752692 398.70956 
L 676.946529 389.645223 
L 678.140366 375.874195 
L 679.334203 358.203047 
L 680.52804 337.311453 
L 682.915714 288.806116 
L 685.303388 233.763993 
L 686.497225 204.757954 
L 686.497225 204.757954 
" clip-path="url(#p7ea958711f)" style="fill: none; stroke: #ff7f0e; stroke-width: 1.5; stroke-linecap: square"/>
   </g>
   <g id="patch_3">
    <path d="M 45.94399 419.725865 
L 45.94399 20.94822 
" style="fill: none; stroke: #000000; stroke-width: 0.8; stroke-linejoin: miter; stroke-linecap: square"/>
   </g>
   <g id="patch_4">
    <path d="M 716.99976 419.725865 
L 716.99976 20.94822 
" style="fill: none; stroke: #000000; stroke-width: 0.8; stroke-linejoin: miter; stroke-linecap: square"/>
   </g>
   <g id="patch_5">
    <path d="M 45.94399 419.725865 
L 716.99976 419.725865 
" style="fill: none; stroke: #000000; stroke-width: 0.8; stroke-linejoin: miter; stroke-linecap: square"/>
   </g>
   <g id="patch_6">
    <path d="M 45.94399 20.94822 
L 716.99976 20.94822 
" style="fill: none; stroke: #000000; stroke-width: 0.8; stroke-linejoin: miter; stroke-linecap: square"/>
   </g>
   <g id="legend_1">
    <g id="patch_7">
     <path d="M 663.23726 50.83322 
L 711.39976 50.83322 
Q 712.99976 50.83322 712.99976 49.23322 
L 712.99976 26.54822 
Q 712.99976 24.94822 711.39976 24.94822 
L 663.23726 24.94822 
Q 661.63726 24.94822 661.63726 26.54822 
L 661.63726 49.23322 
Q 661.63726 50.83322 663.23726 50.83322 
z
" style="fill: #ffffff; opacity: 0.8; stroke: #cccccc; stroke-linejoin: miter"/>
    </g>
    <g id="line2d_15">
     <path d="M 664.83726 31.42697 
L 672.83726 31.42697 
L 680.83726 31.42697 
" style="fill: none; stroke: #1f77b4; stroke-width: 1.5; stroke-linecap: square"/>
    </g>
    <g id="text_8">
     <!-- t=0.0 -->
     <g transform="translate(687.23726 34.22697) scale(0.08 -0.08)">
      <defs>
       <path id="DejaVuSans-74" d="M 1172 4494 
L 1172 3500 
L 2356 3500 
L 2356 3053 
L 1172 3053 
L 1172 1153 
Q 1172 725 1289 603 
Q 1406 481 1766 481 
L 2356 481 
L 2356 0 
L 1766 0 
Q 1100 0 847 248 
Q 594 497 594 1153 
L 594 3053 
L 172 3053 
L 172 3500 
L 594 3500 
L 594 4494 
L 1172 4494 
z
" transform="scale(0.015625)"/>
      </defs>
      <use xlink:href="#DejaVuSans-74"/>
      <use xlink:href="#DejaVuSans-3d" x="39.208984"/>
      <use xlink:href="#DejaVuSans-30" x="122.998047"/>
      <use xlink:href="#DejaVuSans-2e" x="186.621094"/>
      <use xlink:href="#DejaVuSans-30" x="218.408203"/>
     </g>
    </g>
    <g id="line2d_16">
     <path d="M 664.83726 43.16947 
L 672.83726 43.16947 
L 680.83726 43.16947 
" style="fill: none; stroke: #ff7f0e; stroke-width: 1.5; stroke-linecap: square"/>
    </g>
    <g id="text_9">
     <!-- t=5.0 -->
     <g transform="translate(687.23726 45.96947) scale(0.08 -0.08)">
      <defs>
       <path id="DejaVuSans-35" d="M 691 4666 
L 3169 4666 
L 3169 4134 
L 1269 4134 
L 1269 2991 
Q 1406 3038 1543 3061 
Q 1681 3084 1819 3084 
Q 2600 3084 3056 2656 
Q 3513 2228 3513 1497 
Q 3513 744 3044 326 
Q 2575 -91 1722 -91 
Q 1428 -91 1123 -41 
Q 819 9 494 109 
L 494 744 
Q 775 591 1075 516 
Q 1375 441 1709 441 
Q 2250 441 2565 725 
Q 2881 1009 2881 1497 
Q 2881 1984 2565 2268 
Q 2250 2553 1709 2553 
Q 1456 2553 1204 2497 
Q 953 2441 691 2322 
L 691 4666 
z
" transform="scale(0.015625)"/>
      </defs>
      <use xlink:href="#DejaVuSans-74"/>
      <use xlink:href="#DejaVuSans-3d" x="39.208984"/>
      <use xlink:href="#DejaVuSans-35" x="122.998047"/>
      <use xlink:href="#DejaVuSans-2e" x="186.621094"/>
      <use xlink:href="#DejaVuSans-30" x="218.408203"/>
     </g>
    </g>
   </g>
  </g>
  <g id="axes_2">
   <g id="patch_8">
    <path d="M 45.94399 830.64351 
L 716.99976 830.64351 
L 716.99976 431.865865 
L 45.94399 431.865865 
z
" style="fill: #ffffff"/>
   </g>
   <g id="matplotlib.axis_3">
    <g id="xtick_7">
     <g id="line2d_17">
      <g>
       <use xlink:href="#m8469372577" x="76.446525" y="830.64351" style="stroke: #000000; stroke-width: 0.8"/>
      </g>
     </g>
     <g id="text_10">
      <!-- 0 -->
      <g transform="translate(73.265275 845.241948) scale(0.1 -0.1)">
       <use xlink:href="#DejaVuSans-30"/>
      </g>
     </g>
    </g>
    <g id="xtick_8">
     <g id="line2d_18">
      <g>
       <use xlink:href="#m8469372577" x="198.695432" y="830.64351" style="stroke: #000000; stroke-width: 0.8"/>
      </g>
     </g>
     <g id="text_11">
      <!-- 2 -->
      <g transform="translate(195.514182 845.241948) scale(0.1 -0.1)">
       <use xlink:href="#DejaVuSans-32"/>
      </g>
     </g>
    </g>
    <g id="xtick_9">
     <g id="line2d_19">
      <g>
       <use xlink:href="#m8469372577" x="320.94434" y="830.64351" style="stroke: #000000; stroke-width: 0.8"/>
      </g>
     </g>
     <g id="text_12">
      <!-- 4 -->
      <g transform="translate(317.76309 845.241948) scale(0.1 -0.1)">
       <use xlink:href="#DejaVuSans-34"/>
      </g>
     </g>
    </g>
    <g id="xtick_10">
     <g id="line2d_20">
      <g>
       <use xlink:href="#m8469372577" x="443.193247" y="830.64351" style="stroke: #000000; stroke-width: 0.8"/>
      </g>
     </g>
     <g id="text_13">
      <!-- 6 -->
      <g transform="translate(440.011997 845.241948) scale(0.1 -0.1)">
       <use xlink:href="#DejaVuSans-36"/>
      </g>
     </g>
    </g>
    <g id="xtick_11">
     <g id="line2d_21">
      <g>
       <use xlink:href="#m8469372577" x="565.442155" y="830.64351" style="stroke: #000000; stroke-width: 0.8"/>
      </g>
     </g>
     <g id="text_14">
      <!-- 8 -->
      <g transform="translate(562.260905 845.241948) scale(0.1 -0.1)">
       <use xlink:href="#DejaVuSans-38"/>
      </g>
     </g>
    </g>
    <g id="xtick_12">
     <g id="line2d_22">
      <g>
       <use xlink:href="#m8469372577" x="687.691062" y="830.64351" style="stroke: #000000; stroke-width: 0.8"/>
      </g>
     </g>
     <g id="text_15">
      <!-- 10 -->
      <g transform="translate(681.328562 845.241948) scale(0.1 -0.1)">
       <use xlink:href="#DejaVuSans-31"/>
       <use xlink:href="#DejaVuSans-30" x="63.623047"/>
      </g>
     </g>
    </g>
    <g id="text_16">
     <!-- x -->
     <g transform="translate(378.5125 858.920072) scale(0.1 -0.1)">
      <defs>
       <path id="DejaVuSans-78" d="M 3513 3500 
L 2247 1797 
L 3578 0 
L 2900 0 
L 1881 1375 
L 863 0 
L 184 0 
L 1544 1831 
L 300 3500 
L 978 3500 
L 1906 2253 
L 2834 3500 
L 3513 3500 
z
" transform="scale(0.015625)"/>
      </defs>
      <use xlink:href="#DejaVuSans-78"/>
     </g>
    </g>
   </g>
   <g id="matplotlib.axis_4">
    <g id="ytick_7">
     <g id="line2d_23">
      <g>
       <use xlink:href="#m98de6ca9fb" x="45.94399" y="804.351683" style="stroke: #000000; stroke-width: 0.8"/>
      </g>
     </g>
     <g id="text_17">
      <!-- 0.14 -->
      <g transform="translate(16.678365 808.150902) scale(0.1 -0.1)">
       <use xlink:href="#DejaVuSans-30"/>
       <use xlink:href="#DejaVuSans-2e" x="63.623047"/>
       <use xlink:href="#DejaVuSans-31" x="95.410156"/>
       <use xlink:href="#DejaVuSans-34" x="159.033203"/>
      </g>
     </g>
    </g>
    <g id="ytick_8">
     <g id="line2d_24">
      <g>
       <use xlink:href="#m98de6ca9fb" x="45.94399" y="753.749665" style="stroke: #000000; stroke-width: 0.8"/>
      </g>
     </g>
     <g id="text_18">
      <!-- 0.16 -->
      <g transform="translate(16.678365 757.548884) scale(0.1 -0.1)">
       <use xlink:href="#DejaVuSans-30"/>
       <use xlink:href="#DejaVuSans-2e" x="63.623047"/>
       <use xlink:href="#DejaVuSans-31" x="95.410156"/>
       <use xlink:href="#DejaVuSans-36" x="159.033203"/>
      </g>
     </g>
    </g>
    <g id="ytick_9">
     <g id="line2d_25">
      <g>
       <use xlink:href="#m98de6ca9fb" x="45.94399" y="703.147647" style="stroke: #000000; stroke-width: 0.8"/>
      </g>
     </g>
     <g id="text_19">
      <!-- 0.18 -->
      <g transform="translate(16.678365 706.946865) scale(0.1 -0.1)">
       <use xlink:href="#DejaVuSans-30"/>
       <use xlink:href="#DejaVuSans-2e" x="63.623047"/>
       <use xlink:href="#DejaVuSans-31" x="95.410156"/>
       <use xlink:href="#DejaVuSans-38" x="159.033203"/>
      </g>
     </g>
    </g>
    <g id="ytick_10">
     <g id="line2d_26">
      <g>
       <use xlink:href="#m98de6ca9fb" x="45.94399" y="652.545628" style="stroke: #000000; stroke-width: 0.8"/>
      </g>
     </g>
     <g id="text_20">
      <!-- 0.20 -->
      <g transform="translate(16.678365 656.344847) scale(0.1 -0.1)">
       <use xlink:href="#DejaVuSans-30"/>
       <use xlink:href="#DejaVuSans-2e" x="63.623047"/>
       <use xlink:href="#DejaVuSans-32" x="95.410156"/>
       <use xlink:href="#DejaVuSans-30" x="159.033203"/>
      </g>
     </g>
    </g>
    <g id="ytick_11">
     <g id="line2d_27">
      <g>
       <use xlink:href="#m98de6ca9fb" x="45.94399" y="601.94361" style="stroke: #000000; stroke-width: 0.8"/>
      </g>
     </g>
     <g id="text_21">
      <!-- 0.22 -->
      <g transform="translate(16.678365 605.742829) scale(0.1 -0.1)">
       <use xlink:href="#DejaVuSans-30"/>
       <use xlink:href="#DejaVuSans-2e" x="63.623047"/>
       <use xlink:href="#DejaVuSans-32" x="95.410156"/>
       <use xlink:href="#DejaVuSans-32" x="159.033203"/>
      </g>
     </g>
    </g>
    <g id="ytick_12">
     <g id="line2d_28">
      <g>
       <use xlink:href="#m98de6ca9fb" x="45.94399" y="551.341592" style="stroke: #000000; stroke-width: 0.8"/>
      </g>
     </g>
     <g id="text_22">
      <!-- 0.24 -->
      <g transform="translate(16.678365 555.140811) scale(0.1 -0.1)">
       <use xlink:href="#DejaVuSans-30"/>
       <use xlink:href="#DejaVuSans-2e" x="63.623047"/>
       <use xlink:href="#DejaVuSans-32" x="95.410156"/>
       <use xlink:href="#DejaVuSans-34" x="159.033203"/>
      </g>
     </g>
    </g>
    <g id="ytick_13">
     <g id="line2d_29">
      <g>
       <use xlink:href="#m98de6ca9fb" x="45.94399" y="500.739574" style="stroke: #000000; stroke-width: 0.8"/>
      </g>
     </g>
     <g id="text_23">
      <!-- 0.26 -->
      <g transform="translate(16.678365 504.538793) scale(0.1 -0.1)">
       <use xlink:href="#DejaVuSans-30"/>
       <use xlink:href="#DejaVuSans-2e" x="63.623047"/>
       <use xlink:href="#DejaVuSans-32" x="95.410156"/>
       <use xlink:href="#DejaVuSans-36" x="159.033203"/>
      </g>
     </g>
    </g>
    <g id="ytick_14">
     <g id="line2d_30">
      <g>
       <use xlink:href="#m98de6ca9fb" x="45.94399" y="450.137556" style="stroke: #000000; stroke-width: 0.8"/>
      </g>
     </g>
     <g id="text_24">
      <!-- 0.28 -->
      <g transform="translate(16.678365 453.936775) scale(0.1 -0.1)">
       <use xlink:href="#DejaVuSans-30"/>
       <use xlink:href="#DejaVuSans-2e" x="63.623047"/>
       <use xlink:href="#DejaVuSans-32" x="95.410156"/>
       <use xlink:href="#DejaVuSans-38" x="159.033203"/>
      </g>
     </g>
    </g>
    <g id="text_25">
     <!-- m=15 -->
     <g transform="translate(10.598677 646.677344) rotate(-90) scale(0.1 -0.1)">
      <use xlink:href="#DejaVuSans-6d"/>
      <use xlink:href="#DejaVuSans-3d" x="97.412109"/>
      <use xlink:href="#DejaVuSans-31" x="181.201172"/>
      <use xlink:href="#DejaVuSans-35" x="244.824219"/>
     </g>
    </g>
   </g>
   <g id="line2d_31">
    <path d="M 76.446525 601.94361 
L 77.640362 602.798507 
L 78.834199 605.33431 
L 80.028036 609.465338 
L 81.221873 615.052006 
L 82.41571 621.905548 
L 83.609547 629.794388 
L 85.997221 647.585763 
L 89.578732 674.740495 
L 90.772569 682.689215 
L 91.966406 689.619413 
L 93.160243 695.296924 
L 94.35408 699.52991 
L 95.547917 702.175343 
L 96.741754 703.143836 
L 97.935591 702.402666 
L 99.129428 699.976874 
L 100.323265 695.948427 
L 101.517102 690.453442 
L 102.710939 683.677589 
L 103.904776 675.849817 
L 106.29245 658.123095 
L 109.873961 630.910478 
L 111.067798 622.903075 
L 112.261635 615.897264 
L 113.455472 610.129767 
L 114.649309 605.79546 
L 115.843146 603.040795 
L 117.036983 601.958851 
L 118.23082 602.586184 
L 119.424657 604.901599 
L 120.618493 608.826858 
L 121.81233 614.229333 
L 123.006167 620.926477 
L 124.200004 628.692002 
L 126.587678 646.351401 
L 130.169189 673.617805 
L 131.363026 681.682685 
L 132.556863 688.763053 
L 133.7507 694.619669 
L 134.944537 699.054644 
L 136.138374 701.918125 
L 137.332211 703.113358 
L 138.526048 702.599956 
L 139.719885 700.395267 
L 140.913722 696.573786 
L 142.107559 691.264636 
L 143.301396 684.647209 
L 144.495233 676.9451 
L 146.882907 659.355684 
L 150.464418 632.0396 
L 151.658255 623.918457 
L 152.852092 616.764598 
L 154.045929 610.819746 
L 155.239766 606.28477 
L 156.433603 603.312903 
L 157.62744 602.004563 
L 158.821277 602.403955 
L 160.015114 604.497586 
L 161.208951 608.214714 
L 162.402788 613.429739 
L 163.596625 619.966453 
L 164.790462 627.603985 
L 167.178136 645.12077 
L 170.759647 672.482421 
L 171.953484 680.658603 
L 173.147321 687.884876 
L 174.341158 693.91707 
L 175.534995 698.551363 
L 176.728832 701.631168 
L 177.922669 703.052419 
L 179.116506 702.767096 
L 180.310343 700.784838 
L 181.50418 697.172624 
L 182.698017 692.052508 
L 183.891854 685.597493 
L 185.085691 678.025687 
L 187.473365 660.584171 
L 191.054876 633.181074 
L 192.248713 624.951084 
L 193.44255 617.653485 
L 194.636387 611.534859 
L 195.830224 606.801946 
L 197.024061 603.614668 
L 198.217898 602.080719 
L 199.411735 602.25193 
L 200.605572 604.122516 
L 201.799409 607.629272 
L 202.993246 612.653708 
L 204.187083 619.026053 
L 205.38092 626.530992 
L 207.768593 643.894612 
L 211.350104 671.335028 
L 212.543941 679.617588 
L 213.737778 686.985413 
L 214.931615 693.189551 
L 216.125452 698.02037 
L 217.319289 701.314642 
L 218.513126 702.961057 
L 219.706963 702.903984 
L 220.9008 701.145351 
L 222.094637 697.744581 
L 223.288474 692.816582 
L 224.482311 686.527867 
L 225.676148 679.090925 
L 228.063822 661.807816 
L 231.645333 634.334213 
L 232.83917 626.000332 
L 234.033007 618.56339 
L 235.226844 612.274675 
L 236.420681 607.346676 
L 237.614518 603.945906 
L 238.808355 602.187273 
L 240.002192 602.1302 
L 241.196029 603.776614 
L 242.389866 607.070887 
L 243.583703 611.901706 
L 244.77754 618.105844 
L 245.971377 625.473669 
L 248.359051 642.673664 
L 251.940562 670.176317 
L 253.134399 678.560265 
L 254.328236 686.065204 
L 255.522073 692.437549 
L 256.71591 697.461985 
L 257.909747 700.968741 
L 259.103584 702.839327 
L 260.297421 703.010538 
L 261.491258 701.476589 
L 262.685095 698.289311 
L 263.878932 693.556398 
L 265.072769 687.437772 
L 266.266606 680.140173 
L 268.65428 663.025882 
L 272.235791 635.498322 
L 273.429628 627.06557 
L 274.623465 619.493764 
L 275.817302 613.038749 
L 277.011139 607.918633 
L 278.204976 604.306419 
L 279.398813 602.324161 
L 280.59265 602.038838 
L 281.786487 603.460089 
L 282.980324 606.539894 
L 284.174161 611.174187 
L 285.367998 617.206381 
L 286.561835 624.432653 
L 288.949509 641.458664 
L 292.53102 669.006986 
L 293.724857 677.487272 
L 294.918693 685.124804 
L 296.11253 691.661517 
L 297.306367 696.876543 
L 298.500204 700.593671 
L 299.694041 702.687302 
L 300.887878 703.086694 
L 302.081715 701.778354 
L 303.275552 698.806487 
L 304.469389 694.271511 
L 305.663226 688.326659 
L 306.857063 681.1728 
L 309.244737 664.237635 
L 314.020085 628.146156 
L 315.213922 620.444048 
L 316.407759 613.826621 
L 317.601596 608.517471 
L 318.795433 604.695989 
L 319.98927 602.491301 
L 321.183107 601.977899 
L 322.376944 603.173132 
L 323.570781 606.036613 
L 324.764618 610.471588 
L 325.958455 616.328204 
L 327.152292 623.408572 
L 329.539966 640.250341 
L 334.315314 676.399255 
L 335.509151 684.16478 
L 336.702988 690.861924 
L 337.896825 696.264399 
L 339.090662 700.189658 
L 340.284499 702.505073 
L 341.478336 703.132406 
L 342.672173 702.050462 
L 343.86601 699.295797 
L 345.059847 694.96149 
L 346.253684 689.193992 
L 347.447521 682.188182 
L 349.835195 665.442345 
L 354.610543 629.24144 
L 355.80438 621.413668 
L 356.998217 614.637815 
L 358.192054 609.14283 
L 359.385891 605.114383 
L 360.579728 602.688591 
L 361.773565 601.947421 
L 362.967402 602.915914 
L 364.161239 605.561347 
L 365.355076 609.794333 
L 366.548913 615.471844 
L 367.74275 622.402041 
L 368.936587 630.350762 
L 371.324261 648.204111 
L 374.905772 675.296869 
L 376.099609 683.185709 
L 377.293446 690.039251 
L 378.487283 695.625919 
L 379.68112 699.756947 
L 380.874957 702.29275 
L 382.068793 703.147647 
L 383.26263 702.29275 
L 384.456467 699.756947 
L 385.650304 695.625919 
L 386.844141 690.039251 
L 388.037978 683.185709 
L 389.231815 675.296869 
L 391.619489 657.505494 
L 395.201 630.350762 
L 396.394837 622.402041 
L 397.588674 615.471844 
L 398.782511 609.794333 
L 399.976348 605.561347 
L 401.170185 602.915914 
L 402.364022 601.947421 
L 403.557859 602.688591 
L 404.751696 605.114383 
L 405.945533 609.14283 
L 407.13937 614.637815 
L 408.333207 621.413668 
L 409.527044 629.24144 
L 411.914718 646.968162 
L 415.496229 674.180779 
L 416.690066 682.188182 
L 417.883903 689.193992 
L 419.07774 694.96149 
L 420.271577 699.295797 
L 421.465414 702.050462 
L 422.659251 703.132406 
L 423.853088 702.505073 
L 425.046925 700.189658 
L 426.240762 696.264399 
L 427.434599 690.861924 
L 428.628436 684.16478 
L 429.822273 676.399255 
L 432.209947 658.739856 
L 435.791458 631.473452 
L 436.985295 623.408572 
L 438.179132 616.328204 
L 439.372969 610.471588 
L 440.566806 606.036613 
L 441.760643 603.173132 
L 442.95448 601.977899 
L 444.148317 602.491301 
L 445.342154 604.695989 
L 446.535991 608.517471 
L 447.729828 613.826621 
L 448.923665 620.444048 
L 450.117502 628.146156 
L 452.505176 645.735573 
L 456.086687 673.051657 
L 457.280524 681.1728 
L 458.474361 688.326659 
L 459.668198 694.271511 
L 460.862035 698.806487 
L 462.055872 701.778354 
L 463.249709 703.086694 
L 464.443546 702.687302 
L 465.637383 700.593671 
L 466.83122 696.876543 
L 468.025057 691.661517 
L 469.218893 685.124804 
L 470.41273 677.487272 
L 472.800404 659.970487 
L 476.381915 632.608836 
L 477.575752 624.432653 
L 478.769589 617.206381 
L 479.963426 611.174187 
L 481.157263 606.539894 
L 482.3511 603.460089 
L 483.544937 602.038838 
L 484.738774 602.324161 
L 485.932611 604.306419 
L 487.126448 607.918633 
L 488.320285 613.038749 
L 489.514122 619.493764 
L 490.707959 627.06557 
L 493.095633 644.507086 
L 496.677144 671.910182 
L 497.870981 680.140173 
L 499.064818 687.437772 
L 500.258655 693.556398 
L 501.452492 698.289311 
L 502.646329 701.476589 
L 503.840166 703.010538 
L 505.034003 702.839327 
L 506.22784 700.968741 
L 507.421677 697.461985 
L 508.615514 692.437549 
L 509.809351 686.065204 
L 511.003188 678.560265 
L 513.390862 661.196645 
L 516.972373 633.756229 
L 518.16621 625.473669 
L 519.360047 618.105844 
L 520.553884 611.901706 
L 521.747721 607.070887 
L 522.941558 603.776614 
L 524.135395 602.1302 
L 525.329232 602.187273 
L 526.523069 603.945906 
L 527.716906 607.346676 
L 528.910743 612.274675 
L 530.10458 618.56339 
L 531.298417 626.000332 
L 533.686091 643.283441 
L 537.267602 670.757044 
L 538.461439 679.090925 
L 539.655276 686.527867 
L 540.849113 692.816582 
L 542.04295 697.744581 
L 543.236787 701.145351 
L 544.430624 702.903984 
L 545.624461 702.961057 
L 546.818298 701.314642 
L 548.012135 698.02037 
L 549.205972 693.189551 
L 550.399809 686.985413 
L 551.593646 679.617588 
L 553.98132 662.417592 
L 557.56283 634.91494 
L 558.756667 626.530992 
L 559.950504 619.026053 
L 561.144341 612.653708 
L 562.338178 607.629272 
L 563.532015 604.122516 
L 564.725852 602.25193 
L 565.919689 602.080719 
L 567.113526 603.614668 
L 568.307363 606.801946 
L 569.5012 611.534859 
L 570.695037 617.653485 
L 571.888874 624.951084 
L 574.276548 642.065375 
L 577.858059 669.592935 
L 579.051896 678.025687 
L 580.245733 685.597493 
L 581.43957 692.052508 
L 582.633407 697.172624 
L 583.827244 700.784838 
L 585.021081 702.767096 
L 586.214918 703.052419 
L 587.408755 701.631168 
L 588.602592 698.551363 
L 589.796429 693.91707 
L 590.990266 687.884876 
L 592.184103 680.658603 
L 594.571777 663.632593 
L 598.153288 636.084271 
L 599.347125 627.603985 
L 600.540962 619.966453 
L 601.734799 613.429739 
L 602.928636 608.214714 
L 604.122473 604.497586 
L 605.31631 602.403955 
L 606.510147 602.004563 
L 607.703984 603.312903 
L 608.897821 606.28477 
L 610.091658 610.819746 
L 611.285495 616.764598 
L 612.479332 623.918457 
L 614.867006 640.853622 
L 619.642354 676.9451 
L 620.836191 684.647209 
L 622.030028 691.264636 
L 623.223865 696.573786 
L 624.417702 700.395267 
L 625.611539 702.599956 
L 626.805376 703.113358 
L 627.999213 701.918125 
L 629.19305 699.054644 
L 630.386887 694.619669 
L 631.580724 688.763053 
L 632.774561 681.682685 
L 635.162235 664.840916 
L 639.937583 628.692002 
L 641.13142 620.926477 
L 642.325257 614.229333 
L 643.519093 608.826858 
L 644.71293 604.901599 
L 645.906767 602.586184 
L 647.100604 601.958851 
L 648.294441 603.040795 
L 649.488278 605.79546 
L 650.682115 610.129767 
L 651.875952 615.897264 
L 653.069789 622.903075 
L 655.457463 639.648912 
L 660.232811 675.849817 
L 661.426648 683.677589 
L 662.620485 690.453442 
L 663.814322 695.948427 
L 665.008159 699.976874 
L 666.201996 702.402666 
L 667.395833 703.143836 
L 668.58967 702.175343 
L 669.783507 699.52991 
L 670.977344 695.296924 
L 672.171181 689.619413 
L 673.365018 682.689215 
L 674.558855 674.740495 
L 676.946529 656.887146 
L 680.52804 629.794388 
L 681.721877 621.905548 
L 682.915714 615.052006 
L 684.109551 609.465338 
L 685.303388 605.33431 
L 686.497225 602.798507 
L 686.497225 602.798507 
" clip-path="url(#p33512ba605)" style="fill: none; stroke: #1f77b4; stroke-width: 1.5; stroke-linecap: square"/>
   </g>
   <g id="line2d_32">
    <path d="M 76.446525 775.17327 
L 78.834199 745.342731 
L 81.221873 711.311227 
L 84.803384 655.290312 
L 90.772569 556.098598 
L 94.35408 497.011061 
L 95.547917 478.682214 
L 96.741754 462.818896 
L 97.935591 452.092256 
L 99.129428 451.507811 
L 100.323265 470.271076 
L 101.517102 514.773377 
L 105.098613 700.744187 
L 106.29245 744.39801 
L 107.486287 775.32897 
L 108.680124 795.475655 
L 109.873961 807.188149 
L 111.067798 812.115958 
L 112.261635 811.723246 
L 113.455472 807.323563 
L 114.649309 799.609235 
L 115.843146 789.25555 
L 117.036983 776.936752 
L 118.23082 762.89573 
L 120.618493 731.038713 
L 123.006167 695.558411 
L 126.587678 638.370993 
L 136.138374 481.015197 
L 137.332211 464.691072 
L 138.526048 453.081711 
L 139.719885 450.696945 
L 140.913722 466.334445 
L 142.107559 507.490779 
L 145.68907 693.961612 
L 146.882907 739.371704 
L 148.076744 771.90482 
L 149.270581 793.337403 
L 150.464418 806.057845 
L 151.658255 811.80472 
L 152.852092 812.030112 
L 154.045929 808.111002 
L 155.239766 800.804177 
L 156.433603 790.753709 
L 157.62744 778.674654 
L 158.821277 764.850948 
L 161.208951 733.273144 
L 163.596625 697.993567 
L 167.178136 640.969191 
L 176.728832 483.391843 
L 177.922669 466.650356 
L 179.116506 454.226697 
L 180.310343 450.198027 
L 181.50418 462.84874 
L 182.698017 500.553789 
L 183.891854 560.326497 
L 185.085691 627.128026 
L 186.279528 686.913216 
L 187.473365 734.091224 
L 188.667202 768.267188 
L 189.861039 791.036752 
L 191.054876 804.799744 
L 192.248713 811.394937 
L 193.44255 812.267295 
L 194.636387 808.843496 
L 195.830224 801.956796 
L 197.024061 792.225664 
L 198.217898 780.391049 
L 199.411735 766.790701 
L 201.799409 735.502696 
L 204.187083 700.434287 
L 207.768593 643.579061 
L 218.513126 468.696279 
L 219.706963 455.520951 
L 220.9008 449.992122 
L 222.094637 459.811571 
L 223.288474 493.994022 
L 224.482311 551.529467 
L 226.869985 679.592705 
L 228.063822 728.545795 
L 229.257659 764.402646 
L 230.451496 788.562717 
L 231.645333 803.40583 
L 232.83917 810.87887 
L 234.033007 812.428866 
L 235.226844 809.516909 
L 236.420681 803.063085 
L 237.614518 793.667083 
L 238.808355 782.084255 
L 240.002192 768.711534 
L 242.389866 737.726191 
L 244.77754 702.877988 
L 248.359051 646.198066 
L 254.328236 546.736231 
L 257.909747 488.276523 
L 259.103584 470.822057 
L 260.297421 456.953618 
L 261.491258 450.060878 
L 262.685095 457.224896 
L 263.878932 487.86298 
L 265.072769 542.876998 
L 267.460443 672.022421 
L 268.65428 722.745631 
L 269.848117 760.313948 
L 271.041954 785.913155 
L 272.235791 801.87427 
L 273.429628 810.251733 
L 274.623465 812.509018 
L 275.817302 810.126021 
L 277.011139 804.115445 
L 278.204976 795.070877 
L 279.398813 783.746121 
L 280.59265 770.605397 
L 282.980324 739.934758 
L 285.367998 705.313983 
L 288.949509 648.815936 
L 294.918693 549.42827 
L 298.500204 490.763403 
L 299.694041 473.012981 
L 300.887878 458.508368 
L 302.081715 450.38065 
L 303.275552 455.083211 
L 304.469389 482.209355 
L 305.663226 534.454546 
L 308.0509 664.243644 
L 309.244737 716.716467 
L 310.438574 756.014253 
L 311.632411 783.094701 
L 312.826248 800.208397 
L 314.020085 809.513451 
L 315.213922 812.503961 
L 316.407759 810.667301 
L 317.601596 805.107953 
L 318.795433 796.42865 
L 319.98927 785.369914 
L 321.183107 772.462715 
L 323.570781 742.119111 
L 325.958455 707.731308 
L 329.539966 651.419875 
L 335.509151 552.108999 
L 339.090662 493.260272 
L 340.284499 475.253081 
L 341.478336 460.16656 
L 342.672173 450.922868 
L 343.86601 453.365006 
L 345.059847 477.060087 
L 346.253684 526.330233 
L 348.641358 656.293962 
L 349.835195 710.48078 
L 351.029032 751.517115 
L 352.222869 780.113508 
L 353.416706 798.413297 
L 354.610543 808.66551 
L 355.80438 812.413526 
L 356.998217 811.139728 
L 358.192054 806.038738 
L 359.385891 797.736769 
L 360.579728 786.952457 
L 361.773565 774.279567 
L 364.161239 744.274884 
L 366.548913 710.123868 
L 370.130424 654.005046 
L 376.099609 554.772567 
L 379.68112 495.7605 
L 380.874957 477.53078 
L 382.068793 461.914077 
L 383.26263 451.659008 
L 384.456467 452.036678 
L 385.650304 472.41174 
L 386.844141 518.538927 
L 389.231815 648.186493 
L 390.425652 704.042242 
L 391.619489 746.822423 
L 392.813326 776.967059 
L 394.007163 796.488497 
L 395.201 807.708531 
L 396.394837 812.236948 
L 397.588674 811.545521 
L 398.782511 806.909681 
L 399.976348 798.996676 
L 401.170185 788.49687 
L 402.364022 776.059125 
L 403.557859 761.91248 
L 405.945533 729.918866 
L 408.333207 694.341928 
L 411.914718 637.075443 
L 421.465414 479.84462 
L 422.659251 463.745062 
L 423.853088 452.56743 
L 425.046925 451.061497 
L 426.240762 468.243151 
L 427.434599 511.085962 
L 431.01611 697.380844 
L 432.209947 741.912577 
L 433.403784 773.640371 
L 434.597621 794.424789 
L 435.791458 806.63784 
L 436.985295 811.97201 
L 438.179132 811.885447 
L 439.372969 807.724628 
L 440.566806 800.212602 
L 441.760643 790.009056 
L 442.95448 777.809562 
L 444.148317 763.87659 
L 446.535991 732.158047 
L 448.923665 696.777172 
L 452.505176 639.67042 
L 462.055872 482.199413 
L 463.249709 465.660879 
L 464.443546 453.635857 
L 465.637383 450.409212 
L 466.83122 464.532862 
L 468.025057 503.972418 
L 469.218893 564.74918 
L 470.41273 631.433336 
L 471.606567 690.466522 
L 472.800404 736.760404 
L 473.994241 770.111157 
L 475.188078 792.206605 
L 476.381915 805.444449 
L 477.575752 811.612455 
L 478.769589 812.15793 
L 479.963426 808.485034 
L 481.157263 801.386739 
L 482.3511 791.494378 
L 483.544937 779.53684 
L 484.738774 765.824313 
L 487.126448 734.39024 
L 489.514122 699.21538 
L 493.095633 642.274699 
L 502.646329 484.600096 
L 503.840166 467.663983 
L 505.034003 454.856969 
L 506.22784 450.059024 
L 507.421677 461.271327 
L 508.615514 497.218021 
L 509.809351 555.907336 
L 511.003188 622.760702 
L 512.197025 683.279812 
L 513.390862 731.346767 
L 514.584699 766.360081 
L 515.778536 789.819613 
L 516.972373 804.118909 
L 518.16621 811.150015 
L 519.360047 812.358141 
L 520.553884 809.188455 
L 521.747721 802.517079 
L 522.941558 792.951899 
L 524.135395 781.242297 
L 525.329232 767.755691 
L 527.716906 736.61762 
L 530.10458 701.658329 
L 533.686091 644.890223 
L 539.655276 545.392302 
L 543.236787 487.043939 
L 544.430624 469.751359 
L 545.624461 456.222491 
L 546.818298 449.993339 
L 548.012135 458.4598 
L 549.205972 490.866517 
L 550.399809 547.172302 
L 552.787483 675.829855 
L 553.98132 725.671269 
L 555.175157 762.382092 
L 556.368993 787.257196 
L 557.56283 802.655907 
L 558.756667 810.578439 
L 559.950504 812.479508 
L 561.144341 809.830195 
L 562.338178 803.596962 
L 563.532015 794.375648 
L 564.725852 782.92047 
L 565.919689 769.664147 
L 568.307363 738.834599 
L 570.695037 704.099466 
L 574.276548 647.510151 
L 580.245733 548.085394 
L 583.827244 489.519459 
L 585.021081 471.912145 
L 586.214918 457.71808 
L 587.408755 450.191582 
L 588.602592 456.098063 
L 589.796429 484.970807 
L 590.990266 538.626616 
L 593.37794 668.151326 
L 594.571777 719.754047 
L 595.765614 758.186525 
L 596.959451 784.522584 
L 598.153288 801.056607 
L 599.347125 809.895507 
L 600.540962 812.517253 
L 601.734799 810.405128 
L 602.928636 804.619919 
L 604.122473 795.756452 
L 605.31631 784.563781 
L 606.510147 771.539977 
L 608.897821 741.031403 
L 611.285495 706.526707 
L 614.867006 650.121441 
L 620.836191 550.771969 
L 624.417702 492.012437 
L 625.611539 474.128701 
L 626.805376 459.326486 
L 627.999213 450.626289 
L 629.19305 454.172902 
L 630.386887 479.569947 
L 631.580724 530.350022 
L 633.968398 660.286373 
L 635.162235 713.621797 
L 636.356072 753.788451 
L 637.549909 781.623318 
L 638.743746 799.326176 
L 639.937583 809.102498 
L 641.13142 812.4692 
L 642.325257 810.9119 
L 643.519093 805.580901 
L 644.71293 797.089014 
L 645.906767 786.166435 
L 647.100604 773.376211 
L 649.488278 743.200803 
L 651.875952 708.931097 
L 655.457463 652.715244 
L 661.426648 553.442821 
L 665.008159 494.510296 
L 666.201996 476.387676 
L 667.395833 461.029911 
L 668.58967 451.268438 
L 669.783507 452.655027 
L 670.977344 474.675001 
L 672.171181 522.393188 
L 674.558855 652.261058 
L 675.752692 707.288368 
L 676.946529 749.19549 
L 678.140366 778.561783 
L 679.334203 797.467618 
L 680.52804 808.200532 
L 681.721877 812.336094 
L 682.915714 811.35036 
L 684.109551 806.481241 
L 685.303388 798.372069 
L 686.497225 787.728503 
L 686.497225 787.728503 
" clip-path="url(#p33512ba605)" style="fill: none; stroke: #ff7f0e; stroke-width: 1.5; stroke-linecap: square"/>
   </g>
   <g id="patch_9">
    <path d="M 45.94399 830.64351 
L 45.94399 431.865865 
" style="fill: none; stroke: #000000; stroke-width: 0.8; stroke-linejoin: miter; stroke-linecap: square"/>
   </g>
   <g id="patch_10">
    <path d="M 716.99976 830.64351 
L 716.99976 431.865865 
" style="fill: none; stroke: #000000; stroke-width: 0.8; stroke-linejoin: miter; stroke-linecap: square"/>
   </g>
   <g id="patch_11">
    <path d="M 45.94399 830.64351 
L 716.99976 830.64351 
" style="fill: none; stroke: #000000; stroke-width: 0.8; stroke-linejoin: miter; stroke-linecap: square"/>
   </g>
   <g id="patch_12">
    <path d="M 45.94399 431.865865 
L 716.99976 431.865865 
" style="fill: none; stroke: #000000; stroke-width: 0.8; stroke-linejoin: miter; stroke-linecap: square"/>
   </g>
   <g id="legend_2">
    <g id="patch_13">
     <path d="M 663.23726 461.750865 
L 711.39976 461.750865 
Q 712.99976 461.750865 712.99976 460.150865 
L 712.99976 437.465865 
Q 712.99976 435.865865 711.39976 435.865865 
L 663.23726 435.865865 
Q 661.63726 435.865865 661.63726 437.465865 
L 661.63726 460.150865 
Q 661.63726 461.750865 663.23726 461.750865 
z
" style="fill: #ffffff; opacity: 0.8; stroke: #cccccc; stroke-linejoin: miter"/>
    </g>
    <g id="line2d_33">
     <path d="M 664.83726 442.344615 
L 672.83726 442.344615 
L 680.83726 442.344615 
" style="fill: none; stroke: #1f77b4; stroke-width: 1.5; stroke-linecap: square"/>
    </g>
    <g id="text_26">
     <!-- t=0.0 -->
     <g transform="translate(687.23726 445.144615) scale(0.08 -0.08)">
      <use xlink:href="#DejaVuSans-74"/>
      <use xlink:href="#DejaVuSans-3d" x="39.208984"/>
      <use xlink:href="#DejaVuSans-30" x="122.998047"/>
      <use xlink:href="#DejaVuSans-2e" x="186.621094"/>
      <use xlink:href="#DejaVuSans-30" x="218.408203"/>
     </g>
    </g>
    <g id="line2d_34">
     <path d="M 664.83726 454.087115 
L 672.83726 454.087115 
L 680.83726 454.087115 
" style="fill: none; stroke: #ff7f0e; stroke-width: 1.5; stroke-linecap: square"/>
    </g>
    <g id="text_27">
     <!-- t=5.0 -->
     <g transform="translate(687.23726 456.887115) scale(0.08 -0.08)">
      <use xlink:href="#DejaVuSans-74"/>
      <use xlink:href="#DejaVuSans-3d" x="39.208984"/>
      <use xlink:href="#DejaVuSans-35" x="122.998047"/>
      <use xlink:href="#DejaVuSans-2e" x="186.621094"/>
      <use xlink:href="#DejaVuSans-30" x="218.408203"/>
     </g>
    </g>
   </g>
  </g>
  <g id="text_28">
   <!-- Density snapshots for modes m=1..5  [seed_modes_1to5] -->
   <g transform="translate(185.743125 12.118365) scale(0.12 -0.12)">
    <defs>
     <path id="DejaVuSans-44" d="M 1259 4147 
L 1259 519 
L 2022 519 
Q 2988 519 3436 956 
Q 3884 1394 3884 2338 
Q 3884 3275 3436 3711 
Q 2988 4147 2022 4147 
L 1259 4147 
z
M 628 4666 
L 1925 4666 
Q 3281 4666 3915 4102 
Q 4550 3538 4550 2338 
Q 4550 1131 3912 565 
Q 3275 0 1925 0 
L 628 0 
L 628 4666 
z
" transform="scale(0.015625)"/>
     <path id="DejaVuSans-65" d="M 3597 1894 
L 3597 1613 
L 953 1613 
Q 991 1019 1311 708 
Q 1631 397 2203 397 
Q 2534 397 2845 478 
Q 3156 559 3463 722 
L 3463 178 
Q 3153 47 2828 -22 
Q 2503 -91 2169 -91 
Q 1331 -91 842 396 
Q 353 884 353 1716 
Q 353 2575 817 3079 
Q 1281 3584 2069 3584 
Q 2775 3584 3186 3129 
Q 3597 2675 3597 1894 
z
M 3022 2063 
Q 3016 2534 2758 2815 
Q 2500 3097 2075 3097 
Q 1594 3097 1305 2825 
Q 1016 2553 972 2059 
L 3022 2063 
z
" transform="scale(0.015625)"/>
     <path id="DejaVuSans-6e" d="M 3513 2113 
L 3513 0 
L 2938 0 
L 2938 2094 
Q 2938 2591 2744 2837 
Q 2550 3084 2163 3084 
Q 1697 3084 1428 2787 
Q 1159 2491 1159 1978 
L 1159 0 
L 581 0 
L 581 3500 
L 1159 3500 
L 1159 2956 
Q 1366 3272 1645 3428 
Q 1925 3584 2291 3584 
Q 2894 3584 3203 3211 
Q 3513 2838 3513 2113 
z
" transform="scale(0.015625)"/>
     <path id="DejaVuSans-73" d="M 2834 3397 
L 2834 2853 
Q 2591 2978 2328 3040 
Q 2066 3103 1784 3103 
Q 1356 3103 1142 2972 
Q 928 2841 928 2578 
Q 928 2378 1081 2264 
Q 1234 2150 1697 2047 
L 1894 2003 
Q 2506 1872 2764 1633 
Q 3022 1394 3022 966 
Q 3022 478 2636 193 
Q 2250 -91 1575 -91 
Q 1294 -91 989 -36 
Q 684 19 347 128 
L 347 722 
Q 666 556 975 473 
Q 1284 391 1588 391 
Q 1994 391 2212 530 
Q 2431 669 2431 922 
Q 2431 1156 2273 1281 
Q 2116 1406 1581 1522 
L 1381 1569 
Q 847 1681 609 1914 
Q 372 2147 372 2553 
Q 372 3047 722 3315 
Q 1072 3584 1716 3584 
Q 2034 3584 2315 3537 
Q 2597 3491 2834 3397 
z
" transform="scale(0.015625)"/>
     <path id="DejaVuSans-69" d="M 603 3500 
L 1178 3500 
L 1178 0 
L 603 0 
L 603 3500 
z
M 603 4863 
L 1178 4863 
L 1178 4134 
L 603 4134 
L 603 4863 
z
" transform="scale(0.015625)"/>
     <path id="DejaVuSans-79" d="M 2059 -325 
Q 1816 -950 1584 -1140 
Q 1353 -1331 966 -1331 
L 506 -1331 
L 506 -850 
L 844 -850 
Q 1081 -850 1212 -737 
Q 1344 -625 1503 -206 
L 1606 56 
L 191 3500 
L 800 3500 
L 1894 763 
L 2988 3500 
L 3597 3500 
L 2059 -325 
z
" transform="scale(0.015625)"/>
     <path id="DejaVuSans-20" transform="scale(0.015625)"/>
     <path id="DejaVuSans-61" d="M 2194 1759 
Q 1497 1759 1228 1600 
Q 959 1441 959 1056 
Q 959 750 1161 570 
Q 1363 391 1709 391 
Q 2188 391 2477 730 
Q 2766 1069 2766 1631 
L 2766 1759 
L 2194 1759 
z
M 3341 1997 
L 3341 0 
L 2766 0 
L 2766 531 
Q 2569 213 2275 61 
Q 1981 -91 1556 -91 
Q 1019 -91 701 211 
Q 384 513 384 1019 
Q 384 1609 779 1909 
Q 1175 2209 1959 2209 
L 2766 2209 
L 2766 2266 
Q 2766 2663 2505 2880 
Q 2244 3097 1772 3097 
Q 1472 3097 1187 3025 
Q 903 2953 641 2809 
L 641 3341 
Q 956 3463 1253 3523 
Q 1550 3584 1831 3584 
Q 2591 3584 2966 3190 
Q 3341 2797 3341 1997 
z
" transform="scale(0.015625)"/>
     <path id="DejaVuSans-70" d="M 1159 525 
L 1159 -1331 
L 581 -1331 
L 581 3500 
L 1159 3500 
L 1159 2969 
Q 1341 3281 1617 3432 
Q 1894 3584 2278 3584 
Q 2916 3584 3314 3078 
Q 3713 2572 3713 1747 
Q 3713 922 3314 415 
Q 2916 -91 2278 -91 
Q 1894 -91 1617 61 
Q 1341 213 1159 525 
z
M 3116 1747 
Q 3116 2381 2855 2742 
Q 2594 3103 2138 3103 
Q 1681 3103 1420 2742 
Q 1159 2381 1159 1747 
Q 1159 1113 1420 752 
Q 1681 391 2138 391 
Q 2594 391 2855 752 
Q 3116 1113 3116 1747 
z
" transform="scale(0.015625)"/>
     <path id="DejaVuSans-68" d="M 3513 2113 
L 3513 0 
L 2938 0 
L 2938 2094 
Q 2938 2591 2744 2837 
Q 2550 3084 2163 3084 
Q 1697 3084 1428 2787 
Q 1159 2491 1159 1978 
L 1159 0 
L 581 0 
L 581 4863 
L 1159 4863 
L 1159 2956 
Q 1366 3272 1645 3428 
Q 1925 3584 2291 3584 
Q 2894 3584 3203 3211 
Q 3513 2838 3513 2113 
z
" transform="scale(0.015625)"/>
     <path id="DejaVuSans-6f" d="M 1959 3097 
Q 1497 3097 1228 2736 
Q 959 2375 959 1747 
Q 959 1119 1226 758 
Q 1494 397 1959 397 
Q 2419 397 2687 759 
Q 2956 1122 2956 1747 
Q 2956 2369 2687 2733 
Q 2419 3097 1959 3097 
z
M 1959 3584 
Q 2709 3584 3137 3096 
Q 3566 2609 3566 1747 
Q 3566 888 3137 398 
Q 2709 -91 1959 -91 
Q 1206 -91 779 398 
Q 353 888 353 1747 
Q 353 2609 779 3096 
Q 1206 3584 1959 3584 
z
" transform="scale(0.015625)"/>
     <path id="DejaVuSans-66" d="M 2375 4863 
L 2375 4384 
L 1825 4384 
Q 1516 4384 1395 4259 
Q 1275 4134 1275 3809 
L 1275 3500 
L 2222 3500 
L 2222 3053 
L 1275 3053 
L 1275 0 
L 697 0 
L 697 3053 
L 147 3053 
L 147 3500 
L 697 3500 
L 697 3744 
Q 697 4328 969 4595 
Q 1241 4863 1831 4863 
L 2375 4863 
z
" transform="scale(0.015625)"/>
     <path id="DejaVuSans-72" d="M 2631 2963 
Q 2534 3019 2420 3045 
Q 2306 3072 2169 3072 
Q 1681 3072 1420 2755 
Q 1159 2438 1159 1844 
L 1159 0 
L 581 0 
L 581 3500 
L 1159 3500 
L 1159 2956 
Q 1341 3275 1631 3429 
Q 1922 3584 2338 3584 
Q 2397 3584 2469 3576 
Q 2541 3569 2628 3553 
L 2631 2963 
z
" transform="scale(0.015625)"/>
     <path id="DejaVuSans-64" d="M 2906 2969 
L 2906 4863 
L 3481 4863 
L 3481 0 
L 2906 0 
L 2906 525 
Q 2725 213 2448 61 
Q 2172 -91 1784 -91 
Q 1150 -91 751 415 
Q 353 922 353 1747 
Q 353 2572 751 3078 
Q 1150 3584 1784 3584 
Q 2172 3584 2448 3432 
Q 2725 3281 2906 2969 
z
M 947 1747 
Q 947 1113 1208 752 
Q 1469 391 1925 391 
Q 2381 391 2643 752 
Q 2906 1113 2906 1747 
Q 2906 2381 2643 2742 
Q 2381 3103 1925 3103 
Q 1469 3103 1208 2742 
Q 947 2381 947 1747 
z
" transform="scale(0.015625)"/>
     <path id="DejaVuSans-5b" d="M 550 4863 
L 1875 4863 
L 1875 4416 
L 1125 4416 
L 1125 -397 
L 1875 -397 
L 1875 -844 
L 550 -844 
L 550 4863 
z
" transform="scale(0.015625)"/>
     <path id="DejaVuSans-5f" d="M 3263 -1063 
L 3263 -1509 
L -63 -1509 
L -63 -1063 
L 3263 -1063 
z
" transform="scale(0.015625)"/>
     <path id="DejaVuSans-5d" d="M 1947 4863 
L 1947 -844 
L 622 -844 
L 622 -397 
L 1369 -397 
L 1369 4416 
L 622 4416 
L 622 4863 
L 1947 4863 
z
" transform="scale(0.015625)"/>
    </defs>
    <use xlink:href="#DejaVuSans-44"/>
    <use xlink:href="#DejaVuSans-65" x="77.001953"/>
    <use xlink:href="#DejaVuSans-6e" x="138.525391"/>
    <use xlink:href="#DejaVuSans-73" x="201.904297"/>
    <use xlink:href="#DejaVuSans-69" x="254.003906"/>
    <use xlink:href="#DejaVuSans-74" x="281.787109"/>
    <use xlink:href="#DejaVuSans-79" x="320.996094"/>
    <use xlink:href="#DejaVuSans-20" x="380.175781"/>
    <use xlink:href="#DejaVuSans-73" x="411.962891"/>
    <use xlink:href="#DejaVuSans-6e" x="464.0625"/>
    <use xlink:href="#DejaVuSans-61" x="527.441406"/>
    <use xlink:href="#DejaVuSans-70" x="588.720703"/>
    <use xlink:href="#DejaVuSans-73" x="652.197266"/>
    <use xlink:href="#DejaVuSans-68" x="704.296875"/>
    <use xlink:href="#DejaVuSans-6f" x="767.675781"/>
    <use xlink:href="#DejaVuSans-74" x="828.857422"/>
    <use xlink:href="#DejaVuSans-73" x="868.066406"/>
    <use xlink:href="#DejaVuSans-20" x="920.166016"/>
    <use xlink:href="#DejaVuSans-66" x="951.953125"/>
    <use xlink:href="#DejaVuSans-6f" x="987.158203"/>
    <use xlink:href="#DejaVuSans-72" x="1048.339844"/>
    <use xlink:href="#DejaVuSans-20" x="1089.453125"/>
    <use xlink:href="#DejaVuSans-6d" x="1121.240234"/>
    <use xlink:href="#DejaVuSans-6f" x="1218.652344"/>
    <use xlink:href="#DejaVuSans-64" x="1279.833984"/>
    <use xlink:href="#DejaVuSans-65" x="1343.310547"/>
    <use xlink:href="#DejaVuSans-73" x="1404.833984"/>
    <use xlink:href="#DejaVuSans-20" x="1456.933594"/>
    <use xlink:href="#DejaVuSans-6d" x="1488.720703"/>
    <use xlink:href="#DejaVuSans-3d" x="1586.132812"/>
    <use xlink:href="#DejaVuSans-31" x="1669.921875"/>
    <use xlink:href="#DejaVuSans-2e" x="1733.544922"/>
    <use xlink:href="#DejaVuSans-2e" x="1765.332031"/>
    <use xlink:href="#DejaVuSans-35" x="1797.119141"/>
    <use xlink:href="#DejaVuSans-20" x="1860.742188"/>
    <use xlink:href="#DejaVuSans-20" x="1892.529297"/>
    <use xlink:href="#DejaVuSans-5b" x="1924.316406"/>
    <use xlink:href="#DejaVuSans-73" x="1963.330078"/>
    <use xlink:href="#DejaVuSans-65" x="2015.429688"/>
    <use xlink:href="#DejaVuSans-65" x="2076.953125"/>
    <use xlink:href="#DejaVuSans-64" x="2138.476562"/>
    <use xlink:href="#DejaVuSans-5f" x="2201.953125"/>
    <use xlink:href="#DejaVuSans-6d" x="2251.953125"/>
    <use xlink:href="#DejaVuSans-6f" x="2349.365234"/>
    <use xlink:href="#DejaVuSans-64" x="2410.546875"/>
    <use xlink:href="#DejaVuSans-65" x="2474.023438"/>
    <use xlink:href="#DejaVuSans-73" x="2535.546875"/>
    <use xlink:href="#DejaVuSans-5f" x="2587.646484"/>
    <use xlink:href="#DejaVuSans-31" x="2637.646484"/>
    <use xlink:href="#DejaVuSans-74" x="2701.269531"/>
    <use xlink:href="#DejaVuSans-6f" x="2740.478516"/>
    <use xlink:href="#DejaVuSans-35" x="2801.660156"/>
    <use xlink:href="#DejaVuSans-5d" x="2865.283203"/>
   </g>
  </g>
 </g>
 <defs>
  <clipPath id="p7ea958711f">
   <rect x="45.94399" y="20.94822" width="671.05577" height="398.777645"/>
  </clipPath>
  <clipPath id="p33512ba605">
   <rect x="45.94399" y="431.865865" width="671.05577" height="398.777645"/>
  </clipPath>
 </defs>
</svg>
