<?xml version="1.0" encoding="utf-8" standalone="no"?>
<!DOCTYPE svg PUBLIC "-//W3C//DTD SVG 1.1//EN"
  "http://www.w3.org/Graphics/SVG/1.1/DTD/svg11.dtd">
<svg xmlns:xlink="http://www.w3.org/1999/xlink" width="720pt" height="864pt" viewBox="0 0 720 864" xmlns="http://www.w3.org/2000/svg" version="1.1">
 <metadata>
  <rdf:RDF xmlns:dc="http://purl.org/dc/elements/1.1/" xmlns:cc="http://creativecommons.org/ns#" xmlns:rdf="http://www.w3.org/1999/02/22-rdf-syntax-ns#">
   <cc:Work>
    <dc:type rdf:resource="http://purl.org/dc/dcmitype/StillImage"/>
    <dc:date>2025-09-25T12:20:46.433234</dc:date>
    <dc:format>image/svg+xml</dc:format>
    <dc:creator>
     <cc:Agent>
      <dc:title>Matplotlib v3.8.4, https://matplotlib.org/</dc:title>
     </cc:Agent>
    </dc:creator>
   </cc:Work>
  </rdf:RDF>
 </metadata>
 <defs>
  <style type="text/css">*{stroke-linejoin: round; stroke-linecap: butt}</style>
 </defs>
 <g id="figure_1">
  <g id="patch_1">
   <path d="M 0 864 
L 720 864 
L 720 0 
L 0 0 
z
" style="fill: #ffffff"/>
  </g>
  <g id="axes_1">
   <g id="patch_2">
    <path d="M 58.66899 147.980368 
L 716.99976 147.980368 
L 716.99976 20.94822 
L 58.66899 20.94822 
z
" style="fill: #ffffff"/>
   </g>
   <g id="matplotlib.axis_1">
    <g id="xtick_1">
     <g id="line2d_1">
      <defs>
       <path id="md2b5d03682" d="M 0 0 
L 0 3.5 
" style="stroke: #000000; stroke-width: 0.8"/>
      </defs>
      <g>
       <use xlink:href="#md2b5d03682" x="88.593116" y="147.980368" style="stroke: #000000; stroke-width: 0.8"/>
      </g>
     </g>
    </g>
    <g id="xtick_2">
     <g id="line2d_2">
      <g>
       <use xlink:href="#md2b5d03682" x="208.437211" y="147.980368" style="stroke: #000000; stroke-width: 0.8"/>
      </g>
     </g>
    </g>
    <g id="xtick_3">
     <g id="line2d_3">
      <g>
       <use xlink:href="#md2b5d03682" x="328.281306" y="147.980368" style="stroke: #000000; stroke-width: 0.8"/>
      </g>
     </g>
    </g>
    <g id="xtick_4">
     <g id="line2d_4">
      <g>
       <use xlink:href="#md2b5d03682" x="448.125401" y="147.980368" style="stroke: #000000; stroke-width: 0.8"/>
      </g>
     </g>
    </g>
    <g id="xtick_5">
     <g id="line2d_5">
      <g>
       <use xlink:href="#md2b5d03682" x="567.969495" y="147.980368" style="stroke: #000000; stroke-width: 0.8"/>
      </g>
     </g>
    </g>
    <g id="xtick_6">
     <g id="line2d_6">
      <g>
       <use xlink:href="#md2b5d03682" x="687.81359" y="147.980368" style="stroke: #000000; stroke-width: 0.8"/>
      </g>
     </g>
    </g>
   </g>
   <g id="matplotlib.axis_2">
    <g id="ytick_1">
     <g id="line2d_7">
      <defs>
       <path id="mb2693eab0a" d="M 0 0 
L -3.5 0 
" style="stroke: #000000; stroke-width: 0.8"/>
      </defs>
      <g>
       <use xlink:href="#mb2693eab0a" x="58.66899" y="112.796178" style="stroke: #000000; stroke-width: 0.8"/>
      </g>
     </g>
     <g id="text_1">
      <!-- 0.1995 -->
      <g transform="translate(16.678365 116.595397) scale(0.1 -0.1)">
       <defs>
        <path id="DejaVuSans-30" d="M 2034 4250 
Q 1547 4250 1301 3770 
Q 1056 3291 1056 2328 
Q 1056 1369 1301 889 
Q 1547 409 2034 409 
Q 2525 409 2770 889 
Q 3016 1369 3016 2328 
Q 3016 3291 2770 3770 
Q 2525 4250 2034 4250 
z
M 2034 4750 
Q 2819 4750 3233 4129 
Q 3647 3509 3647 2328 
Q 3647 1150 3233 529 
Q 2819 -91 2034 -91 
Q 1250 -91 836 529 
Q 422 1150 422 2328 
Q 422 3509 836 4129 
Q 1250 4750 2034 4750 
z
" transform="scale(0.015625)"/>
        <path id="DejaVuSans-2e" d="M 684 794 
L 1344 794 
L 1344 0 
L 684 0 
L 684 794 
z
" transform="scale(0.015625)"/>
        <path id="DejaVuSans-31" d="M 794 531 
L 1825 531 
L 1825 4091 
L 703 3866 
L 703 4441 
L 1819 4666 
L 2450 4666 
L 2450 531 
L 3481 531 
L 3481 0 
L 794 0 
L 794 531 
z
" transform="scale(0.015625)"/>
        <path id="DejaVuSans-39" d="M 703 97 
L 703 672 
Q 941 559 1184 500 
Q 1428 441 1663 441 
Q 2288 441 2617 861 
Q 2947 1281 2994 2138 
Q 2813 1869 2534 1725 
Q 2256 1581 1919 1581 
Q 1219 1581 811 2004 
Q 403 2428 403 3163 
Q 403 3881 828 4315 
Q 1253 4750 1959 4750 
Q 2769 4750 3195 4129 
Q 3622 3509 3622 2328 
Q 3622 1225 3098 567 
Q 2575 -91 1691 -91 
Q 1453 -91 1209 -44 
Q 966 3 703 97 
z
M 1959 2075 
Q 2384 2075 2632 2365 
Q 2881 2656 2881 3163 
Q 2881 3666 2632 3958 
Q 2384 4250 1959 4250 
Q 1534 4250 1286 3958 
Q 1038 3666 1038 3163 
Q 1038 2656 1286 2365 
Q 1534 2075 1959 2075 
z
" transform="scale(0.015625)"/>
        <path id="DejaVuSans-35" d="M 691 4666 
L 3169 4666 
L 3169 4134 
L 1269 4134 
L 1269 2991 
Q 1406 3038 1543 3061 
Q 1681 3084 1819 3084 
Q 2600 3084 3056 2656 
Q 3513 2228 3513 1497 
Q 3513 744 3044 326 
Q 2575 -91 1722 -91 
Q 1428 -91 1123 -41 
Q 819 9 494 109 
L 494 744 
Q 775 591 1075 516 
Q 1375 441 1709 441 
Q 2250 441 2565 725 
Q 2881 1009 2881 1497 
Q 2881 1984 2565 2268 
Q 2250 2553 1709 2553 
Q 1456 2553 1204 2497 
Q 953 2441 691 2322 
L 691 4666 
z
" transform="scale(0.015625)"/>
       </defs>
       <use xlink:href="#DejaVuSans-30"/>
       <use xlink:href="#DejaVuSans-2e" x="63.623047"/>
       <use xlink:href="#DejaVuSans-31" x="95.410156"/>
       <use xlink:href="#DejaVuSans-39" x="159.033203"/>
       <use xlink:href="#DejaVuSans-39" x="222.65625"/>
       <use xlink:href="#DejaVuSans-35" x="286.279297"/>
      </g>
     </g>
    </g>
    <g id="ytick_2">
     <g id="line2d_8">
      <g>
       <use xlink:href="#mb2693eab0a" x="58.66899" y="70.657891" style="stroke: #000000; stroke-width: 0.8"/>
      </g>
     </g>
     <g id="text_2">
      <!-- 0.2000 -->
      <g transform="translate(16.678365 74.45711) scale(0.1 -0.1)">
       <defs>
        <path id="DejaVuSans-32" d="M 1228 531 
L 3431 531 
L 3431 0 
L 469 0 
L 469 531 
Q 828 903 1448 1529 
Q 2069 2156 2228 2338 
Q 2531 2678 2651 2914 
Q 2772 3150 2772 3378 
Q 2772 3750 2511 3984 
Q 2250 4219 1831 4219 
Q 1534 4219 1204 4116 
Q 875 4013 500 3803 
L 500 4441 
Q 881 4594 1212 4672 
Q 1544 4750 1819 4750 
Q 2544 4750 2975 4387 
Q 3406 4025 3406 3419 
Q 3406 3131 3298 2873 
Q 3191 2616 2906 2266 
Q 2828 2175 2409 1742 
Q 1991 1309 1228 531 
z
" transform="scale(0.015625)"/>
       </defs>
       <use xlink:href="#DejaVuSans-30"/>
       <use xlink:href="#DejaVuSans-2e" x="63.623047"/>
       <use xlink:href="#DejaVuSans-32" x="95.410156"/>
       <use xlink:href="#DejaVuSans-30" x="159.033203"/>
       <use xlink:href="#DejaVuSans-30" x="222.65625"/>
       <use xlink:href="#DejaVuSans-30" x="286.279297"/>
      </g>
     </g>
    </g>
    <g id="ytick_3">
     <g id="line2d_9">
      <g>
       <use xlink:href="#mb2693eab0a" x="58.66899" y="28.519604" style="stroke: #000000; stroke-width: 0.8"/>
      </g>
     </g>
     <g id="text_3">
      <!-- 0.2005 -->
      <g transform="translate(16.678365 32.318823) scale(0.1 -0.1)">
       <use xlink:href="#DejaVuSans-30"/>
       <use xlink:href="#DejaVuSans-2e" x="63.623047"/>
       <use xlink:href="#DejaVuSans-32" x="95.410156"/>
       <use xlink:href="#DejaVuSans-30" x="159.033203"/>
       <use xlink:href="#DejaVuSans-30" x="222.65625"/>
       <use xlink:href="#DejaVuSans-35" x="286.279297"/>
      </g>
     </g>
    </g>
    <g id="text_4">
     <!-- $\delta n \sim \cos(3x) + \cos(5x)$ -->
     <g transform="translate(10.598677 139.914294) rotate(-90) scale(0.1 -0.1)">
      <defs>
       <path id="DejaVuSans-Oblique-3b4" d="M 3472 4053 
Q 3197 4272 2450 4272 
Q 1659 4272 1588 3906 
Q 1531 3619 2328 3469 
Q 2953 3353 3253 3003 
Q 3616 2581 3447 1716 
Q 3284 888 2763 400 
Q 2238 -91 1488 -91 
Q 741 -91 406 400 
Q 72 888 241 1747 
Q 363 2384 891 2900 
Q 1097 3100 1353 3213 
Q 913 3459 1000 3900 
Q 1166 4750 2544 4750 
Q 3234 4750 3566 4531 
L 3472 4053 
z
M 1753 3056 
Q 1525 2966 1306 2738 
Q 969 2384 847 1747 
Q 722 1113 919 756 
Q 1119 397 1584 397 
Q 2044 397 2381 759 
Q 2722 1122 2838 1716 
Q 2956 2338 2731 2638 
Q 2491 2959 2103 2994 
Q 1906 3013 1753 3056 
z
" transform="scale(0.015625)"/>
       <path id="DejaVuSans-Oblique-6e" d="M 3566 2113 
L 3156 0 
L 2578 0 
L 2988 2091 
Q 3016 2238 3031 2350 
Q 3047 2463 3047 2528 
Q 3047 2791 2881 2937 
Q 2716 3084 2419 3084 
Q 1956 3084 1622 2776 
Q 1288 2469 1184 1941 
L 800 0 
L 225 0 
L 903 3500 
L 1478 3500 
L 1363 2950 
Q 1603 3253 1940 3418 
Q 2278 3584 2650 3584 
Q 3113 3584 3367 3334 
Q 3622 3084 3622 2631 
Q 3622 2519 3608 2391 
Q 3594 2263 3566 2113 
z
" transform="scale(0.015625)"/>
       <path id="DejaVuSans-223c" d="M 4684 2556 
L 4684 1997 
Q 4356 1753 4076 1645 
Q 3797 1538 3494 1538 
Q 3150 1538 2694 1722 
Q 2663 1734 2641 1744 
Q 2622 1750 2575 1769 
Q 2091 1959 1797 1959 
Q 1522 1959 1253 1840 
Q 984 1722 678 1459 
L 678 2019 
Q 1006 2263 1286 2370 
Q 1566 2478 1869 2478 
Q 2213 2478 2672 2294 
Q 2706 2278 2722 2272 
Q 2741 2266 2788 2247 
Q 3272 2056 3566 2056 
Q 3834 2056 4098 2173 
Q 4363 2291 4684 2556 
z
" transform="scale(0.015625)"/>
       <path id="DejaVuSans-63" d="M 3122 3366 
L 3122 2828 
Q 2878 2963 2633 3030 
Q 2388 3097 2138 3097 
Q 1578 3097 1268 2742 
Q 959 2388 959 1747 
Q 959 1106 1268 751 
Q 1578 397 2138 397 
Q 2388 397 2633 464 
Q 2878 531 3122 666 
L 3122 134 
Q 2881 22 2623 -34 
Q 2366 -91 2075 -91 
Q 1284 -91 818 406 
Q 353 903 353 1747 
Q 353 2603 823 3093 
Q 1294 3584 2113 3584 
Q 2378 3584 2631 3529 
Q 2884 3475 3122 3366 
z
" transform="scale(0.015625)"/>
       <path id="DejaVuSans-6f" d="M 1959 3097 
Q 1497 3097 1228 2736 
Q 959 2375 959 1747 
Q 959 1119 1226 758 
Q 1494 397 1959 397 
Q 2419 397 2687 759 
Q 2956 1122 2956 1747 
Q 2956 2369 2687 2733 
Q 2419 3097 1959 3097 
z
M 1959 3584 
Q 2709 3584 3137 3096 
Q 3566 2609 3566 1747 
Q 3566 888 3137 398 
Q 2709 -91 1959 -91 
Q 1206 -91 779 398 
Q 353 888 353 1747 
Q 353 2609 779 3096 
Q 1206 3584 1959 3584 
z
" transform="scale(0.015625)"/>
       <path id="DejaVuSans-73" d="M 2834 3397 
L 2834 2853 
Q 2591 2978 2328 3040 
Q 2066 3103 1784 3103 
Q 1356 3103 1142 2972 
Q 928 2841 928 2578 
Q 928 2378 1081 2264 
Q 1234 2150 1697 2047 
L 1894 2003 
Q 2506 1872 2764 1633 
Q 3022 1394 3022 966 
Q 3022 478 2636 193 
Q 2250 -91 1575 -91 
Q 1294 -91 989 -36 
Q 684 19 347 128 
L 347 722 
Q 666 556 975 473 
Q 1284 391 1588 391 
Q 1994 391 2212 530 
Q 2431 669 2431 922 
Q 2431 1156 2273 1281 
Q 2116 1406 1581 1522 
L 1381 1569 
Q 847 1681 609 1914 
Q 372 2147 372 2553 
Q 372 3047 722 3315 
Q 1072 3584 1716 3584 
Q 2034 3584 2315 3537 
Q 2597 3491 2834 3397 
z
" transform="scale(0.015625)"/>
       <path id="DejaVuSans-28" d="M 1984 4856 
Q 1566 4138 1362 3434 
Q 1159 2731 1159 2009 
Q 1159 1288 1364 580 
Q 1569 -128 1984 -844 
L 1484 -844 
Q 1016 -109 783 600 
Q 550 1309 550 2009 
Q 550 2706 781 3412 
Q 1013 4119 1484 4856 
L 1984 4856 
z
" transform="scale(0.015625)"/>
       <path id="DejaVuSans-33" d="M 2597 2516 
Q 3050 2419 3304 2112 
Q 3559 1806 3559 1356 
Q 3559 666 3084 287 
Q 2609 -91 1734 -91 
Q 1441 -91 1130 -33 
Q 819 25 488 141 
L 488 750 
Q 750 597 1062 519 
Q 1375 441 1716 441 
Q 2309 441 2620 675 
Q 2931 909 2931 1356 
Q 2931 1769 2642 2001 
Q 2353 2234 1838 2234 
L 1294 2234 
L 1294 2753 
L 1863 2753 
Q 2328 2753 2575 2939 
Q 2822 3125 2822 3475 
Q 2822 3834 2567 4026 
Q 2313 4219 1838 4219 
Q 1578 4219 1281 4162 
Q 984 4106 628 3988 
L 628 4550 
Q 988 4650 1302 4700 
Q 1616 4750 1894 4750 
Q 2613 4750 3031 4423 
Q 3450 4097 3450 3541 
Q 3450 3153 3228 2886 
Q 3006 2619 2597 2516 
z
" transform="scale(0.015625)"/>
       <path id="DejaVuSans-Oblique-78" d="M 3841 3500 
L 2234 1784 
L 3219 0 
L 2559 0 
L 1819 1388 
L 531 0 
L -166 0 
L 1556 1844 
L 641 3500 
L 1300 3500 
L 1972 2234 
L 3144 3500 
L 3841 3500 
z
" transform="scale(0.015625)"/>
       <path id="DejaVuSans-29" d="M 513 4856 
L 1013 4856 
Q 1481 4119 1714 3412 
Q 1947 2706 1947 2009 
Q 1947 1309 1714 600 
Q 1481 -109 1013 -844 
L 513 -844 
Q 928 -128 1133 580 
Q 1338 1288 1338 2009 
Q 1338 2731 1133 3434 
Q 928 4138 513 4856 
z
" transform="scale(0.015625)"/>
       <path id="DejaVuSans-2b" d="M 2944 4013 
L 2944 2272 
L 4684 2272 
L 4684 1741 
L 2944 1741 
L 2944 0 
L 2419 0 
L 2419 1741 
L 678 1741 
L 678 2272 
L 2419 2272 
L 2419 4013 
L 2944 4013 
z
" transform="scale(0.015625)"/>
      </defs>
      <use xlink:href="#DejaVuSans-Oblique-3b4" transform="translate(0 0.125)"/>
      <use xlink:href="#DejaVuSans-Oblique-6e" transform="translate(61.181641 0.125)"/>
      <use xlink:href="#DejaVuSans-223c" transform="translate(144.042969 0.125)"/>
      <use xlink:href="#DejaVuSans-63" transform="translate(247.314453 0.125)"/>
      <use xlink:href="#DejaVuSans-6f" transform="translate(302.294922 0.125)"/>
      <use xlink:href="#DejaVuSans-73" transform="translate(363.476562 0.125)"/>
      <use xlink:href="#DejaVuSans-28" transform="translate(415.576172 0.125)"/>
      <use xlink:href="#DejaVuSans-33" transform="translate(454.589844 0.125)"/>
      <use xlink:href="#DejaVuSans-Oblique-78" transform="translate(518.212891 0.125)"/>
      <use xlink:href="#DejaVuSans-29" transform="translate(577.392578 0.125)"/>
      <use xlink:href="#DejaVuSans-2b" transform="translate(635.888672 0.125)"/>
      <use xlink:href="#DejaVuSans-63" transform="translate(739.160156 0.125)"/>
      <use xlink:href="#DejaVuSans-6f" transform="translate(794.140625 0.125)"/>
      <use xlink:href="#DejaVuSans-73" transform="translate(855.322266 0.125)"/>
      <use xlink:href="#DejaVuSans-28" transform="translate(907.421875 0.125)"/>
      <use xlink:href="#DejaVuSans-35" transform="translate(946.435547 0.125)"/>
      <use xlink:href="#DejaVuSans-Oblique-78" transform="translate(1010.058594 0.125)"/>
      <use xlink:href="#DejaVuSans-29" transform="translate(1069.238281 0.125)"/>
     </g>
    </g>
   </g>
   <g id="line2d_10">
    <path d="M 88.593116 70.657891 
L 687.075634 70.657891 
L 687.075634 70.657891 
" clip-path="url(#p93b04e8385)" style="fill: none; stroke: #1f77b4; stroke-width: 1.5; stroke-linecap: square"/>
   </g>
   <g id="line2d_11">
    <path d="M 88.593116 53.539328 
L 94.496766 52.809154 
L 99.66246 52.40472 
L 104.090197 52.303434 
L 107.779978 52.432322 
L 111.46976 52.784815 
L 115.159541 53.38553 
L 118.849322 54.255538 
L 121.801147 55.157105 
L 124.752972 56.24878 
L 127.704797 57.53536 
L 130.656622 59.019692 
L 134.346403 61.154118 
L 138.036185 63.595458 
L 141.725966 66.335545 
L 145.415747 69.361146 
L 149.105528 72.654026 
L 153.533266 76.925827 
L 157.961003 81.501642 
L 163.126697 87.149416 
L 170.50626 95.601676 
L 185.265385 112.626296 
L 190.431078 118.216423 
L 194.858816 122.70993 
L 199.286553 126.857179 
L 202.976335 130.004466 
L 206.666116 132.837465 
L 209.617941 134.859107 
L 212.569766 136.650226 
L 215.521591 138.201066 
L 218.473416 139.503958 
L 221.425241 140.553423 
L 224.377066 141.346332 
L 227.328891 141.881835 
L 230.280716 142.161346 
L 233.232541 142.188614 
L 236.184366 141.969687 
L 239.136191 141.512795 
L 242.088016 140.828241 
L 245.039841 139.928381 
L 247.991666 138.827366 
L 251.681447 137.192372 
L 255.371228 135.301823 
L 259.798966 132.748003 
L 264.964659 129.461425 
L 271.606266 124.922159 
L 287.103347 114.18221 
L 293.006997 110.437126 
L 298.172691 107.443869 
L 302.600428 105.120161 
L 307.028166 103.031091 
L 311.455903 101.174093 
L 315.883641 99.53378 
L 321.049334 97.85695 
L 326.952984 96.175765 
L 346.139847 90.941349 
L 350.567584 89.432335 
L 354.995322 87.694258 
L 359.423059 85.684919 
L 363.112841 83.780561 
L 366.802622 81.655084 
L 370.492403 79.304431 
L 374.920141 76.191332 
L 379.347878 72.778223 
L 383.775616 69.099487 
L 388.941309 64.537091 
L 396.320872 57.704636 
L 407.390216 47.464662 
L 412.555909 43.000034 
L 416.983647 39.465816 
L 420.673428 36.780892 
L 424.363209 34.370314 
L 428.052991 32.263251 
L 431.004816 30.811508 
L 433.956641 29.576756 
L 436.908466 28.564026 
L 439.860291 27.775186 
L 442.812116 27.209054 
L 445.763941 26.861322 
L 448.715766 26.724696 
L 451.667591 26.789141 
L 454.619416 27.042034 
L 458.309197 27.600121 
L 461.998978 28.395506 
L 466.426716 29.610249 
L 471.592409 31.297496 
L 478.971972 33.991789 
L 489.303359 37.753945 
L 494.469053 39.409338 
L 498.896791 40.62669 
L 503.324528 41.619943 
L 507.752266 42.365395 
L 512.180003 42.851507 
L 516.607741 43.078884 
L 521.035478 43.059561 
L 525.463215 42.816224 
L 530.628909 42.292244 
L 536.532559 41.45573 
L 546.863947 39.70861 
L 554.981465 38.432975 
L 560.885115 37.74108 
L 566.050809 37.381093 
L 570.478547 37.292666 
L 574.906284 37.429066 
L 579.334022 37.801354 
L 583.761759 38.41099 
L 588.189497 39.250186 
L 592.617234 40.302201 
L 597.782928 41.764944 
L 603.686578 43.682737 
L 611.804097 46.579884 
L 624.349353 51.055593 
L 630.253003 52.913539 
L 635.418697 54.307696 
L 639.846434 55.292589 
L 644.274172 56.060524 
L 648.701909 56.59858 
L 653.129647 56.902859 
L 657.557384 56.978969 
L 661.985122 56.841982 
L 667.150815 56.445517 
L 673.054465 55.746358 
L 681.90994 54.42405 
L 687.075634 53.644272 
L 687.075634 53.644272 
" clip-path="url(#p93b04e8385)" style="fill: none; stroke: #ff7f0e; stroke-width: 1.5; stroke-linecap: square"/>
   </g>
   <g id="patch_3">
    <path d="M 58.66899 147.980368 
L 58.66899 20.94822 
" style="fill: none; stroke: #000000; stroke-width: 0.8; stroke-linejoin: miter; stroke-linecap: square"/>
   </g>
   <g id="patch_4">
    <path d="M 716.99976 147.980368 
L 716.99976 20.94822 
" style="fill: none; stroke: #000000; stroke-width: 0.8; stroke-linejoin: miter; stroke-linecap: square"/>
   </g>
   <g id="patch_5">
    <path d="M 58.66899 147.980368 
L 716.99976 147.980368 
" style="fill: none; stroke: #000000; stroke-width: 0.8; stroke-linejoin: miter; stroke-linecap: square"/>
   </g>
   <g id="patch_6">
    <path d="M 58.66899 20.94822 
L 716.99976 20.94822 
" style="fill: none; stroke: #000000; stroke-width: 0.8; stroke-linejoin: miter; stroke-linecap: square"/>
   </g>
   <g id="legend_1">
    <g id="patch_7">
     <path d="M 663.23726 50.83322 
L 711.39976 50.83322 
Q 712.99976 50.83322 712.99976 49.23322 
L 712.99976 26.54822 
Q 712.99976 24.94822 711.39976 24.94822 
L 663.23726 24.94822 
Q 661.63726 24.94822 661.63726 26.54822 
L 661.63726 49.23322 
Q 661.63726 50.83322 663.23726 50.83322 
z
" style="fill: #ffffff; opacity: 0.8; stroke: #cccccc; stroke-linejoin: miter"/>
    </g>
    <g id="line2d_12">
     <path d="M 664.83726 31.42697 
L 672.83726 31.42697 
L 680.83726 31.42697 
" style="fill: none; stroke: #1f77b4; stroke-width: 1.5; stroke-linecap: square"/>
    </g>
    <g id="text_5">
     <!-- t=0.0 -->
     <g transform="translate(687.23726 34.22697) scale(0.08 -0.08)">
      <defs>
       <path id="DejaVuSans-74" d="M 1172 4494 
L 1172 3500 
L 2356 3500 
L 2356 3053 
L 1172 3053 
L 1172 1153 
Q 1172 725 1289 603 
Q 1406 481 1766 481 
L 2356 481 
L 2356 0 
L 1766 0 
Q 1100 0 847 248 
Q 594 497 594 1153 
L 594 3053 
L 172 3053 
L 172 3500 
L 594 3500 
L 594 4494 
L 1172 4494 
z
" transform="scale(0.015625)"/>
       <path id="DejaVuSans-3d" d="M 678 2906 
L 4684 2906 
L 4684 2381 
L 678 2381 
L 678 2906 
z
M 678 1631 
L 4684 1631 
L 4684 1100 
L 678 1100 
L 678 1631 
z
" transform="scale(0.015625)"/>
      </defs>
      <use xlink:href="#DejaVuSans-74"/>
      <use xlink:href="#DejaVuSans-3d" x="39.208984"/>
      <use xlink:href="#DejaVuSans-30" x="122.998047"/>
      <use xlink:href="#DejaVuSans-2e" x="186.621094"/>
      <use xlink:href="#DejaVuSans-30" x="218.408203"/>
     </g>
    </g>
    <g id="line2d_13">
     <path d="M 664.83726 43.16947 
L 672.83726 43.16947 
L 680.83726 43.16947 
" style="fill: none; stroke: #ff7f0e; stroke-width: 1.5; stroke-linecap: square"/>
    </g>
    <g id="text_6">
     <!-- t=1.0 -->
     <g transform="translate(687.23726 45.96947) scale(0.08 -0.08)">
      <use xlink:href="#DejaVuSans-74"/>
      <use xlink:href="#DejaVuSans-3d" x="39.208984"/>
      <use xlink:href="#DejaVuSans-31" x="122.998047"/>
      <use xlink:href="#DejaVuSans-2e" x="186.621094"/>
      <use xlink:href="#DejaVuSans-30" x="218.408203"/>
     </g>
    </g>
   </g>
  </g>
  <g id="axes_2">
   <g id="patch_8">
    <path d="M 58.66899 284.512997 
L 716.99976 284.512997 
L 716.99976 157.480848 
L 58.66899 157.480848 
z
" style="fill: #ffffff"/>
   </g>
   <g id="matplotlib.axis_3">
    <g id="xtick_7">
     <g id="line2d_14">
      <g>
       <use xlink:href="#md2b5d03682" x="88.593116" y="284.512997" style="stroke: #000000; stroke-width: 0.8"/>
      </g>
     </g>
    </g>
    <g id="xtick_8">
     <g id="line2d_15">
      <g>
       <use xlink:href="#md2b5d03682" x="208.437211" y="284.512997" style="stroke: #000000; stroke-width: 0.8"/>
      </g>
     </g>
    </g>
    <g id="xtick_9">
     <g id="line2d_16">
      <g>
       <use xlink:href="#md2b5d03682" x="328.281306" y="284.512997" style="stroke: #000000; stroke-width: 0.8"/>
      </g>
     </g>
    </g>
    <g id="xtick_10">
     <g id="line2d_17">
      <g>
       <use xlink:href="#md2b5d03682" x="448.125401" y="284.512997" style="stroke: #000000; stroke-width: 0.8"/>
      </g>
     </g>
    </g>
    <g id="xtick_11">
     <g id="line2d_18">
      <g>
       <use xlink:href="#md2b5d03682" x="567.969495" y="284.512997" style="stroke: #000000; stroke-width: 0.8"/>
      </g>
     </g>
    </g>
    <g id="xtick_12">
     <g id="line2d_19">
      <g>
       <use xlink:href="#md2b5d03682" x="687.81359" y="284.512997" style="stroke: #000000; stroke-width: 0.8"/>
      </g>
     </g>
    </g>
   </g>
   <g id="matplotlib.axis_4">
    <g id="ytick_4">
     <g id="line2d_20">
      <g>
       <use xlink:href="#mb2693eab0a" x="58.66899" y="249.328807" style="stroke: #000000; stroke-width: 0.8"/>
      </g>
     </g>
     <g id="text_7">
      <!-- 0.1995 -->
      <g transform="translate(16.678365 253.128025) scale(0.1 -0.1)">
       <use xlink:href="#DejaVuSans-30"/>
       <use xlink:href="#DejaVuSans-2e" x="63.623047"/>
       <use xlink:href="#DejaVuSans-31" x="95.410156"/>
       <use xlink:href="#DejaVuSans-39" x="159.033203"/>
       <use xlink:href="#DejaVuSans-39" x="222.65625"/>
       <use xlink:href="#DejaVuSans-35" x="286.279297"/>
      </g>
     </g>
    </g>
    <g id="ytick_5">
     <g id="line2d_21">
      <g>
       <use xlink:href="#mb2693eab0a" x="58.66899" y="207.190519" style="stroke: #000000; stroke-width: 0.8"/>
      </g>
     </g>
     <g id="text_8">
      <!-- 0.2000 -->
      <g transform="translate(16.678365 210.989738) scale(0.1 -0.1)">
       <use xlink:href="#DejaVuSans-30"/>
       <use xlink:href="#DejaVuSans-2e" x="63.623047"/>
       <use xlink:href="#DejaVuSans-32" x="95.410156"/>
       <use xlink:href="#DejaVuSans-30" x="159.033203"/>
       <use xlink:href="#DejaVuSans-30" x="222.65625"/>
       <use xlink:href="#DejaVuSans-30" x="286.279297"/>
      </g>
     </g>
    </g>
    <g id="ytick_6">
     <g id="line2d_22">
      <g>
       <use xlink:href="#mb2693eab0a" x="58.66899" y="165.052232" style="stroke: #000000; stroke-width: 0.8"/>
      </g>
     </g>
     <g id="text_9">
      <!-- 0.2005 -->
      <g transform="translate(16.678365 168.851451) scale(0.1 -0.1)">
       <use xlink:href="#DejaVuSans-30"/>
       <use xlink:href="#DejaVuSans-2e" x="63.623047"/>
       <use xlink:href="#DejaVuSans-32" x="95.410156"/>
       <use xlink:href="#DejaVuSans-30" x="159.033203"/>
       <use xlink:href="#DejaVuSans-30" x="222.65625"/>
       <use xlink:href="#DejaVuSans-35" x="286.279297"/>
      </g>
     </g>
    </g>
    <g id="text_10">
     <!-- $\delta n \sim \cos(5x) + \cos(8x)$ -->
     <g transform="translate(10.598677 276.446923) rotate(-90) scale(0.1 -0.1)">
      <defs>
       <path id="DejaVuSans-38" d="M 2034 2216 
Q 1584 2216 1326 1975 
Q 1069 1734 1069 1313 
Q 1069 891 1326 650 
Q 1584 409 2034 409 
Q 2484 409 2743 651 
Q 3003 894 3003 1313 
Q 3003 1734 2745 1975 
Q 2488 2216 2034 2216 
z
M 1403 2484 
Q 997 2584 770 2862 
Q 544 3141 544 3541 
Q 544 4100 942 4425 
Q 1341 4750 2034 4750 
Q 2731 4750 3128 4425 
Q 3525 4100 3525 3541 
Q 3525 3141 3298 2862 
Q 3072 2584 2669 2484 
Q 3125 2378 3379 2068 
Q 3634 1759 3634 1313 
Q 3634 634 3220 271 
Q 2806 -91 2034 -91 
Q 1263 -91 848 271 
Q 434 634 434 1313 
Q 434 1759 690 2068 
Q 947 2378 1403 2484 
z
M 1172 3481 
Q 1172 3119 1398 2916 
Q 1625 2713 2034 2713 
Q 2441 2713 2670 2916 
Q 2900 3119 2900 3481 
Q 2900 3844 2670 4047 
Q 2441 4250 2034 4250 
Q 1625 4250 1398 4047 
Q 1172 3844 1172 3481 
z
" transform="scale(0.015625)"/>
      </defs>
      <use xlink:href="#DejaVuSans-Oblique-3b4" transform="translate(0 0.125)"/>
      <use xlink:href="#DejaVuSans-Oblique-6e" transform="translate(61.181641 0.125)"/>
      <use xlink:href="#DejaVuSans-223c" transform="translate(144.042969 0.125)"/>
      <use xlink:href="#DejaVuSans-63" transform="translate(247.314453 0.125)"/>
      <use xlink:href="#DejaVuSans-6f" transform="translate(302.294922 0.125)"/>
      <use xlink:href="#DejaVuSans-73" transform="translate(363.476562 0.125)"/>
      <use xlink:href="#DejaVuSans-28" transform="translate(415.576172 0.125)"/>
      <use xlink:href="#DejaVuSans-35" transform="translate(454.589844 0.125)"/>
      <use xlink:href="#DejaVuSans-Oblique-78" transform="translate(518.212891 0.125)"/>
      <use xlink:href="#DejaVuSans-29" transform="translate(577.392578 0.125)"/>
      <use xlink:href="#DejaVuSans-2b" transform="translate(635.888672 0.125)"/>
      <use xlink:href="#DejaVuSans-63" transform="translate(739.160156 0.125)"/>
      <use xlink:href="#DejaVuSans-6f" transform="translate(794.140625 0.125)"/>
      <use xlink:href="#DejaVuSans-73" transform="translate(855.322266 0.125)"/>
      <use xlink:href="#DejaVuSans-28" transform="translate(907.421875 0.125)"/>
      <use xlink:href="#DejaVuSans-38" transform="translate(946.435547 0.125)"/>
      <use xlink:href="#DejaVuSans-Oblique-78" transform="translate(1010.058594 0.125)"/>
      <use xlink:href="#DejaVuSans-29" transform="translate(1069.238281 0.125)"/>
     </g>
    </g>
   </g>
   <g id="line2d_23">
    <path d="M 88.593116 207.190519 
L 687.075634 207.190519 
L 687.075634 207.190519 
" clip-path="url(#pe8d16cf868)" style="fill: none; stroke: #1f77b4; stroke-width: 1.5; stroke-linecap: square"/>
   </g>
   <g id="line2d_24">
    <path d="M 88.593116 190.071956 
L 94.496766 189.341783 
L 99.66246 188.937348 
L 104.090197 188.836063 
L 107.779978 188.96495 
L 111.46976 189.317444 
L 115.159541 189.918158 
L 118.849322 190.788166 
L 121.801147 191.689733 
L 124.752972 192.781409 
L 127.704797 194.067988 
L 130.656622 195.552321 
L 134.346403 197.686747 
L 138.036185 200.128086 
L 141.725966 202.868173 
L 145.415747 205.893774 
L 149.105528 209.186654 
L 153.533266 213.458455 
L 157.961003 218.03427 
L 163.126697 223.682045 
L 170.50626 232.134304 
L 185.265385 249.158925 
L 190.431078 254.749052 
L 194.858816 259.242558 
L 199.286553 263.389807 
L 202.976335 266.537095 
L 206.666116 269.370094 
L 209.617941 271.391735 
L 212.569766 273.182854 
L 215.521591 274.733694 
L 218.473416 276.036586 
L 221.425241 277.086052 
L 224.377066 277.878961 
L 227.328891 278.414463 
L 230.280716 278.693974 
L 233.232541 278.721243 
L 236.184366 278.502316 
L 239.136191 278.045424 
L 242.088016 277.36087 
L 245.039841 276.46101 
L 247.991666 275.359995 
L 251.681447 273.725 
L 255.371228 271.834451 
L 259.798966 269.280631 
L 264.964659 265.994053 
L 271.606266 261.454787 
L 287.103347 250.714838 
L 293.006997 246.969754 
L 298.172691 243.976497 
L 302.600428 241.652789 
L 307.028166 239.563719 
L 311.455903 237.706721 
L 315.883641 236.066408 
L 321.049334 234.389578 
L 326.952984 232.708393 
L 346.139847 227.473977 
L 350.567584 225.964963 
L 354.995322 224.226886 
L 359.423059 222.217548 
L 363.112841 220.313189 
L 366.802622 218.187713 
L 370.492403 215.837059 
L 374.920141 212.723961 
L 379.347878 209.310851 
L 383.775616 205.632115 
L 388.941309 201.06972 
L 396.320872 194.237264 
L 407.390216 183.99729 
L 412.555909 179.532662 
L 416.983647 175.998445 
L 420.673428 173.31352 
L 424.363209 170.902942 
L 428.052991 168.795879 
L 431.004816 167.344137 
L 433.956641 166.109385 
L 436.908466 165.096654 
L 439.860291 164.307814 
L 442.812116 163.741682 
L 445.763941 163.393951 
L 448.715766 163.257325 
L 451.667591 163.321769 
L 454.619416 163.574662 
L 458.309197 164.132749 
L 461.998978 164.928135 
L 466.426716 166.142877 
L 471.592409 167.830125 
L 478.971972 170.524417 
L 489.303359 174.286573 
L 494.469053 175.941966 
L 498.896791 177.159318 
L 503.324528 178.152571 
L 507.752266 178.898023 
L 512.180003 179.384135 
L 516.607741 179.611512 
L 521.035478 179.592189 
L 525.463215 179.348852 
L 530.628909 178.824872 
L 536.532559 177.988358 
L 546.863947 176.241238 
L 554.981465 174.965603 
L 560.885115 174.273708 
L 566.050809 173.913721 
L 570.478547 173.825294 
L 574.906284 173.961694 
L 579.334022 174.333983 
L 583.761759 174.943618 
L 588.189497 175.782815 
L 592.617234 176.834829 
L 597.782928 178.297572 
L 603.686578 180.215366 
L 611.804097 183.112513 
L 624.349353 187.588222 
L 630.253003 189.446168 
L 635.418697 190.840324 
L 639.846434 191.825217 
L 644.274172 192.593152 
L 648.701909 193.131208 
L 653.129647 193.435487 
L 657.557384 193.511597 
L 661.985122 193.37461 
L 667.150815 192.978145 
L 673.054465 192.278986 
L 681.90994 190.956678 
L 687.075634 190.1769 
L 687.075634 190.1769 
" clip-path="url(#pe8d16cf868)" style="fill: none; stroke: #ff7f0e; stroke-width: 1.5; stroke-linecap: square"/>
   </g>
   <g id="patch_9">
    <path d="M 58.66899 284.512997 
L 58.66899 157.480848 
" style="fill: none; stroke: #000000; stroke-width: 0.8; stroke-linejoin: miter; stroke-linecap: square"/>
   </g>
   <g id="patch_10">
    <path d="M 716.99976 284.512997 
L 716.99976 157.480848 
" style="fill: none; stroke: #000000; stroke-width: 0.8; stroke-linejoin: miter; stroke-linecap: square"/>
   </g>
   <g id="patch_11">
    <path d="M 58.66899 284.512997 
L 716.99976 284.512997 
" style="fill: none; stroke: #000000; stroke-width: 0.8; stroke-linejoin: miter; stroke-linecap: square"/>
   </g>
   <g id="patch_12">
    <path d="M 58.66899 157.480848 
L 716.99976 157.480848 
" style="fill: none; stroke: #000000; stroke-width: 0.8; stroke-linejoin: miter; stroke-linecap: square"/>
   </g>
   <g id="legend_2">
    <g id="patch_13">
     <path d="M 663.23726 187.365848 
L 711.39976 187.365848 
Q 712.99976 187.365848 712.99976 185.765848 
L 712.99976 163.080848 
Q 712.99976 161.480848 711.39976 161.480848 
L 663.23726 161.480848 
Q 661.63726 161.480848 661.63726 163.080848 
L 661.63726 185.765848 
Q 661.63726 187.365848 663.23726 187.365848 
z
" style="fill: #ffffff; opacity: 0.8; stroke: #cccccc; stroke-linejoin: miter"/>
    </g>
    <g id="line2d_25">
     <path d="M 664.83726 167.959598 
L 672.83726 167.959598 
L 680.83726 167.959598 
" style="fill: none; stroke: #1f77b4; stroke-width: 1.5; stroke-linecap: square"/>
    </g>
    <g id="text_11">
     <!-- t=0.0 -->
     <g transform="translate(687.23726 170.759598) scale(0.08 -0.08)">
      <use xlink:href="#DejaVuSans-74"/>
      <use xlink:href="#DejaVuSans-3d" x="39.208984"/>
      <use xlink:href="#DejaVuSans-30" x="122.998047"/>
      <use xlink:href="#DejaVuSans-2e" x="186.621094"/>
      <use xlink:href="#DejaVuSans-30" x="218.408203"/>
     </g>
    </g>
    <g id="line2d_26">
     <path d="M 664.83726 179.702098 
L 672.83726 179.702098 
L 680.83726 179.702098 
" style="fill: none; stroke: #ff7f0e; stroke-width: 1.5; stroke-linecap: square"/>
    </g>
    <g id="text_12">
     <!-- t=1.0 -->
     <g transform="translate(687.23726 182.502098) scale(0.08 -0.08)">
      <use xlink:href="#DejaVuSans-74"/>
      <use xlink:href="#DejaVuSans-3d" x="39.208984"/>
      <use xlink:href="#DejaVuSans-31" x="122.998047"/>
      <use xlink:href="#DejaVuSans-2e" x="186.621094"/>
      <use xlink:href="#DejaVuSans-30" x="218.408203"/>
     </g>
    </g>
   </g>
  </g>
  <g id="axes_3">
   <g id="patch_14">
    <path d="M 58.66899 421.045625 
L 716.99976 421.045625 
L 716.99976 294.013477 
L 58.66899 294.013477 
z
" style="fill: #ffffff"/>
   </g>
   <g id="matplotlib.axis_5">
    <g id="xtick_13">
     <g id="line2d_27">
      <g>
       <use xlink:href="#md2b5d03682" x="88.593116" y="421.045625" style="stroke: #000000; stroke-width: 0.8"/>
      </g>
     </g>
    </g>
    <g id="xtick_14">
     <g id="line2d_28">
      <g>
       <use xlink:href="#md2b5d03682" x="208.437211" y="421.045625" style="stroke: #000000; stroke-width: 0.8"/>
      </g>
     </g>
    </g>
    <g id="xtick_15">
     <g id="line2d_29">
      <g>
       <use xlink:href="#md2b5d03682" x="328.281306" y="421.045625" style="stroke: #000000; stroke-width: 0.8"/>
      </g>
     </g>
    </g>
    <g id="xtick_16">
     <g id="line2d_30">
      <g>
       <use xlink:href="#md2b5d03682" x="448.125401" y="421.045625" style="stroke: #000000; stroke-width: 0.8"/>
      </g>
     </g>
    </g>
    <g id="xtick_17">
     <g id="line2d_31">
      <g>
       <use xlink:href="#md2b5d03682" x="567.969495" y="421.045625" style="stroke: #000000; stroke-width: 0.8"/>
      </g>
     </g>
    </g>
    <g id="xtick_18">
     <g id="line2d_32">
      <g>
       <use xlink:href="#md2b5d03682" x="687.81359" y="421.045625" style="stroke: #000000; stroke-width: 0.8"/>
      </g>
     </g>
    </g>
   </g>
   <g id="matplotlib.axis_6">
    <g id="ytick_7">
     <g id="line2d_33">
      <g>
       <use xlink:href="#mb2693eab0a" x="58.66899" y="385.861435" style="stroke: #000000; stroke-width: 0.8"/>
      </g>
     </g>
     <g id="text_13">
      <!-- 0.1995 -->
      <g transform="translate(16.678365 389.660654) scale(0.1 -0.1)">
       <use xlink:href="#DejaVuSans-30"/>
       <use xlink:href="#DejaVuSans-2e" x="63.623047"/>
       <use xlink:href="#DejaVuSans-31" x="95.410156"/>
       <use xlink:href="#DejaVuSans-39" x="159.033203"/>
       <use xlink:href="#DejaVuSans-39" x="222.65625"/>
       <use xlink:href="#DejaVuSans-35" x="286.279297"/>
      </g>
     </g>
    </g>
    <g id="ytick_8">
     <g id="line2d_34">
      <g>
       <use xlink:href="#mb2693eab0a" x="58.66899" y="343.723148" style="stroke: #000000; stroke-width: 0.8"/>
      </g>
     </g>
     <g id="text_14">
      <!-- 0.2000 -->
      <g transform="translate(16.678365 347.522366) scale(0.1 -0.1)">
       <use xlink:href="#DejaVuSans-30"/>
       <use xlink:href="#DejaVuSans-2e" x="63.623047"/>
       <use xlink:href="#DejaVuSans-32" x="95.410156"/>
       <use xlink:href="#DejaVuSans-30" x="159.033203"/>
       <use xlink:href="#DejaVuSans-30" x="222.65625"/>
       <use xlink:href="#DejaVuSans-30" x="286.279297"/>
      </g>
     </g>
    </g>
    <g id="ytick_9">
     <g id="line2d_35">
      <g>
       <use xlink:href="#mb2693eab0a" x="58.66899" y="301.584861" style="stroke: #000000; stroke-width: 0.8"/>
      </g>
     </g>
     <g id="text_15">
      <!-- 0.2005 -->
      <g transform="translate(16.678365 305.384079) scale(0.1 -0.1)">
       <use xlink:href="#DejaVuSans-30"/>
       <use xlink:href="#DejaVuSans-2e" x="63.623047"/>
       <use xlink:href="#DejaVuSans-32" x="95.410156"/>
       <use xlink:href="#DejaVuSans-30" x="159.033203"/>
       <use xlink:href="#DejaVuSans-30" x="222.65625"/>
       <use xlink:href="#DejaVuSans-35" x="286.279297"/>
      </g>
     </g>
    </g>
    <g id="text_16">
     <!-- $\delta n \sim \cos(8x) + \cos(15x)$ -->
     <g transform="translate(10.598677 416.129551) rotate(-90) scale(0.1 -0.1)">
      <use xlink:href="#DejaVuSans-Oblique-3b4" transform="translate(0 0.125)"/>
      <use xlink:href="#DejaVuSans-Oblique-6e" transform="translate(61.181641 0.125)"/>
      <use xlink:href="#DejaVuSans-223c" transform="translate(144.042969 0.125)"/>
      <use xlink:href="#DejaVuSans-63" transform="translate(247.314453 0.125)"/>
      <use xlink:href="#DejaVuSans-6f" transform="translate(302.294922 0.125)"/>
      <use xlink:href="#DejaVuSans-73" transform="translate(363.476562 0.125)"/>
      <use xlink:href="#DejaVuSans-28" transform="translate(415.576172 0.125)"/>
      <use xlink:href="#DejaVuSans-38" transform="translate(454.589844 0.125)"/>
      <use xlink:href="#DejaVuSans-Oblique-78" transform="translate(518.212891 0.125)"/>
      <use xlink:href="#DejaVuSans-29" transform="translate(577.392578 0.125)"/>
      <use xlink:href="#DejaVuSans-2b" transform="translate(635.888672 0.125)"/>
      <use xlink:href="#DejaVuSans-63" transform="translate(739.160156 0.125)"/>
      <use xlink:href="#DejaVuSans-6f" transform="translate(794.140625 0.125)"/>
      <use xlink:href="#DejaVuSans-73" transform="translate(855.322266 0.125)"/>
      <use xlink:href="#DejaVuSans-28" transform="translate(907.421875 0.125)"/>
      <use xlink:href="#DejaVuSans-31" transform="translate(946.435547 0.125)"/>
      <use xlink:href="#DejaVuSans-35" transform="translate(1010.058594 0.125)"/>
      <use xlink:href="#DejaVuSans-Oblique-78" transform="translate(1073.681641 0.125)"/>
      <use xlink:href="#DejaVuSans-29" transform="translate(1132.861328 0.125)"/>
     </g>
    </g>
   </g>
   <g id="line2d_36">
    <path d="M 88.593116 343.723148 
L 687.075634 343.723148 
L 687.075634 343.723148 
" clip-path="url(#p99c4ee99d0)" style="fill: none; stroke: #1f77b4; stroke-width: 1.5; stroke-linecap: square"/>
   </g>
   <g id="line2d_37">
    <path d="M 88.593116 326.604585 
L 94.496766 325.874411 
L 99.66246 325.469976 
L 104.090197 325.368691 
L 107.779978 325.497579 
L 111.46976 325.850072 
L 115.159541 326.450787 
L 118.849322 327.320794 
L 121.801147 328.222362 
L 124.752972 329.314037 
L 127.704797 330.600617 
L 130.656622 332.084949 
L 134.346403 334.219375 
L 138.036185 336.660714 
L 141.725966 339.400801 
L 145.415747 342.426402 
L 149.105528 345.719282 
L 153.533266 349.991084 
L 157.961003 354.566898 
L 163.126697 360.214673 
L 170.50626 368.666932 
L 185.265385 385.691553 
L 190.431078 391.28168 
L 194.858816 395.775187 
L 199.286553 399.922435 
L 202.976335 403.069723 
L 206.666116 405.902722 
L 209.617941 407.924363 
L 212.569766 409.715483 
L 215.521591 411.266323 
L 218.473416 412.569214 
L 221.425241 413.61868 
L 224.377066 414.411589 
L 227.328891 414.947092 
L 230.280716 415.226602 
L 233.232541 415.253871 
L 236.184366 415.034944 
L 239.136191 414.578052 
L 242.088016 413.893498 
L 245.039841 412.993638 
L 247.991666 411.892623 
L 251.681447 410.257628 
L 255.371228 408.367079 
L 259.798966 405.81326 
L 264.964659 402.526681 
L 271.606266 397.987415 
L 287.103347 387.247466 
L 293.006997 383.502382 
L 298.172691 380.509126 
L 302.600428 378.185417 
L 307.028166 376.096347 
L 311.455903 374.23935 
L 315.883641 372.599037 
L 321.049334 370.922206 
L 326.952984 369.241021 
L 346.139847 364.006606 
L 350.567584 362.497592 
L 354.995322 360.759515 
L 359.423059 358.750176 
L 363.112841 356.845817 
L 366.802622 354.720341 
L 370.492403 352.369688 
L 374.920141 349.256589 
L 379.347878 345.84348 
L 383.775616 342.164743 
L 388.941309 337.602348 
L 396.320872 330.769892 
L 407.390216 320.529918 
L 412.555909 316.065291 
L 416.983647 312.531073 
L 420.673428 309.846148 
L 424.363209 307.435571 
L 428.052991 305.328507 
L 431.004816 303.876765 
L 433.956641 302.642013 
L 436.908466 301.629283 
L 439.860291 300.840443 
L 442.812116 300.27431 
L 445.763941 299.926579 
L 448.715766 299.789953 
L 451.667591 299.854398 
L 454.619416 300.10729 
L 458.309197 300.665377 
L 461.998978 301.460763 
L 466.426716 302.675506 
L 471.592409 304.362753 
L 478.971972 307.057045 
L 489.303359 310.819202 
L 494.469053 312.474594 
L 498.896791 313.691946 
L 503.324528 314.685199 
L 507.752266 315.430651 
L 512.180003 315.916764 
L 516.607741 316.144141 
L 521.035478 316.124817 
L 525.463215 315.88148 
L 530.628909 315.357501 
L 536.532559 314.520986 
L 546.863947 312.773867 
L 554.981465 311.498232 
L 560.885115 310.806336 
L 566.050809 310.446349 
L 570.478547 310.357922 
L 574.906284 310.494322 
L 579.334022 310.866611 
L 583.761759 311.476246 
L 588.189497 312.315443 
L 592.617234 313.367458 
L 597.782928 314.8302 
L 603.686578 316.747994 
L 611.804097 319.645141 
L 624.349353 324.12085 
L 630.253003 325.978796 
L 635.418697 327.372953 
L 639.846434 328.357845 
L 644.274172 329.12578 
L 648.701909 329.663836 
L 653.129647 329.968116 
L 657.557384 330.044226 
L 661.985122 329.907238 
L 667.150815 329.510774 
L 673.054465 328.811614 
L 681.90994 327.489307 
L 687.075634 326.709529 
L 687.075634 326.709529 
" clip-path="url(#p99c4ee99d0)" style="fill: none; stroke: #ff7f0e; stroke-width: 1.5; stroke-linecap: square"/>
   </g>
   <g id="patch_15">
    <path d="M 58.66899 421.045625 
L 58.66899 294.013477 
" style="fill: none; stroke: #000000; stroke-width: 0.8; stroke-linejoin: miter; stroke-linecap: square"/>
   </g>
   <g id="patch_16">
    <path d="M 716.99976 421.045625 
L 716.99976 294.013477 
" style="fill: none; stroke: #000000; stroke-width: 0.8; stroke-linejoin: miter; stroke-linecap: square"/>
   </g>
   <g id="patch_17">
    <path d="M 58.66899 421.045625 
L 716.99976 421.045625 
" style="fill: none; stroke: #000000; stroke-width: 0.8; stroke-linejoin: miter; stroke-linecap: square"/>
   </g>
   <g id="patch_18">
    <path d="M 58.66899 294.013477 
L 716.99976 294.013477 
" style="fill: none; stroke: #000000; stroke-width: 0.8; stroke-linejoin: miter; stroke-linecap: square"/>
   </g>
   <g id="legend_3">
    <g id="patch_19">
     <path d="M 663.23726 323.898477 
L 711.39976 323.898477 
Q 712.99976 323.898477 712.99976 322.298477 
L 712.99976 299.613477 
Q 712.99976 298.013477 711.39976 298.013477 
L 663.23726 298.013477 
Q 661.63726 298.013477 661.63726 299.613477 
L 661.63726 322.298477 
Q 661.63726 323.898477 663.23726 323.898477 
z
" style="fill: #ffffff; opacity: 0.8; stroke: #cccccc; stroke-linejoin: miter"/>
    </g>
    <g id="line2d_38">
     <path d="M 664.83726 304.492227 
L 672.83726 304.492227 
L 680.83726 304.492227 
" style="fill: none; stroke: #1f77b4; stroke-width: 1.5; stroke-linecap: square"/>
    </g>
    <g id="text_17">
     <!-- t=0.0 -->
     <g transform="translate(687.23726 307.292227) scale(0.08 -0.08)">
      <use xlink:href="#DejaVuSans-74"/>
      <use xlink:href="#DejaVuSans-3d" x="39.208984"/>
      <use xlink:href="#DejaVuSans-30" x="122.998047"/>
      <use xlink:href="#DejaVuSans-2e" x="186.621094"/>
      <use xlink:href="#DejaVuSans-30" x="218.408203"/>
     </g>
    </g>
    <g id="line2d_39">
     <path d="M 664.83726 316.234727 
L 672.83726 316.234727 
L 680.83726 316.234727 
" style="fill: none; stroke: #ff7f0e; stroke-width: 1.5; stroke-linecap: square"/>
    </g>
    <g id="text_18">
     <!-- t=1.0 -->
     <g transform="translate(687.23726 319.034727) scale(0.08 -0.08)">
      <use xlink:href="#DejaVuSans-74"/>
      <use xlink:href="#DejaVuSans-3d" x="39.208984"/>
      <use xlink:href="#DejaVuSans-31" x="122.998047"/>
      <use xlink:href="#DejaVuSans-2e" x="186.621094"/>
      <use xlink:href="#DejaVuSans-30" x="218.408203"/>
     </g>
    </g>
   </g>
  </g>
  <g id="axes_4">
   <g id="patch_20">
    <path d="M 58.66899 557.578253 
L 716.99976 557.578253 
L 716.99976 430.546105 
L 58.66899 430.546105 
z
" style="fill: #ffffff"/>
   </g>
   <g id="matplotlib.axis_7">
    <g id="xtick_19">
     <g id="line2d_40">
      <g>
       <use xlink:href="#md2b5d03682" x="88.593116" y="557.578253" style="stroke: #000000; stroke-width: 0.8"/>
      </g>
     </g>
    </g>
    <g id="xtick_20">
     <g id="line2d_41">
      <g>
       <use xlink:href="#md2b5d03682" x="208.437211" y="557.578253" style="stroke: #000000; stroke-width: 0.8"/>
      </g>
     </g>
    </g>
    <g id="xtick_21">
     <g id="line2d_42">
      <g>
       <use xlink:href="#md2b5d03682" x="328.281306" y="557.578253" style="stroke: #000000; stroke-width: 0.8"/>
      </g>
     </g>
    </g>
    <g id="xtick_22">
     <g id="line2d_43">
      <g>
       <use xlink:href="#md2b5d03682" x="448.125401" y="557.578253" style="stroke: #000000; stroke-width: 0.8"/>
      </g>
     </g>
    </g>
    <g id="xtick_23">
     <g id="line2d_44">
      <g>
       <use xlink:href="#md2b5d03682" x="567.969495" y="557.578253" style="stroke: #000000; stroke-width: 0.8"/>
      </g>
     </g>
    </g>
    <g id="xtick_24">
     <g id="line2d_45">
      <g>
       <use xlink:href="#md2b5d03682" x="687.81359" y="557.578253" style="stroke: #000000; stroke-width: 0.8"/>
      </g>
     </g>
    </g>
   </g>
   <g id="matplotlib.axis_8">
    <g id="ytick_10">
     <g id="line2d_46">
      <g>
       <use xlink:href="#mb2693eab0a" x="58.66899" y="522.394063" style="stroke: #000000; stroke-width: 0.8"/>
      </g>
     </g>
     <g id="text_19">
      <!-- 0.1995 -->
      <g transform="translate(16.678365 526.193282) scale(0.1 -0.1)">
       <use xlink:href="#DejaVuSans-30"/>
       <use xlink:href="#DejaVuSans-2e" x="63.623047"/>
       <use xlink:href="#DejaVuSans-31" x="95.410156"/>
       <use xlink:href="#DejaVuSans-39" x="159.033203"/>
       <use xlink:href="#DejaVuSans-39" x="222.65625"/>
       <use xlink:href="#DejaVuSans-35" x="286.279297"/>
      </g>
     </g>
    </g>
    <g id="ytick_11">
     <g id="line2d_47">
      <g>
       <use xlink:href="#mb2693eab0a" x="58.66899" y="480.255776" style="stroke: #000000; stroke-width: 0.8"/>
      </g>
     </g>
     <g id="text_20">
      <!-- 0.2000 -->
      <g transform="translate(16.678365 484.054995) scale(0.1 -0.1)">
       <use xlink:href="#DejaVuSans-30"/>
       <use xlink:href="#DejaVuSans-2e" x="63.623047"/>
       <use xlink:href="#DejaVuSans-32" x="95.410156"/>
       <use xlink:href="#DejaVuSans-30" x="159.033203"/>
       <use xlink:href="#DejaVuSans-30" x="222.65625"/>
       <use xlink:href="#DejaVuSans-30" x="286.279297"/>
      </g>
     </g>
    </g>
    <g id="ytick_12">
     <g id="line2d_48">
      <g>
       <use xlink:href="#mb2693eab0a" x="58.66899" y="438.117489" style="stroke: #000000; stroke-width: 0.8"/>
      </g>
     </g>
     <g id="text_21">
      <!-- 0.2005 -->
      <g transform="translate(16.678365 441.916708) scale(0.1 -0.1)">
       <use xlink:href="#DejaVuSans-30"/>
       <use xlink:href="#DejaVuSans-2e" x="63.623047"/>
       <use xlink:href="#DejaVuSans-32" x="95.410156"/>
       <use xlink:href="#DejaVuSans-30" x="159.033203"/>
       <use xlink:href="#DejaVuSans-30" x="222.65625"/>
       <use xlink:href="#DejaVuSans-35" x="286.279297"/>
      </g>
     </g>
    </g>
    <g id="text_22">
     <!-- $\delta n \sim \cos(7x) + \cos(13x)$ -->
     <g transform="translate(10.598677 552.662179) rotate(-90) scale(0.1 -0.1)">
      <defs>
       <path id="DejaVuSans-37" d="M 525 4666 
L 3525 4666 
L 3525 4397 
L 1831 0 
L 1172 0 
L 2766 4134 
L 525 4134 
L 525 4666 
z
" transform="scale(0.015625)"/>
      </defs>
      <use xlink:href="#DejaVuSans-Oblique-3b4" transform="translate(0 0.125)"/>
      <use xlink:href="#DejaVuSans-Oblique-6e" transform="translate(61.181641 0.125)"/>
      <use xlink:href="#DejaVuSans-223c" transform="translate(144.042969 0.125)"/>
      <use xlink:href="#DejaVuSans-63" transform="translate(247.314453 0.125)"/>
      <use xlink:href="#DejaVuSans-6f" transform="translate(302.294922 0.125)"/>
      <use xlink:href="#DejaVuSans-73" transform="translate(363.476562 0.125)"/>
      <use xlink:href="#DejaVuSans-28" transform="translate(415.576172 0.125)"/>
      <use xlink:href="#DejaVuSans-37" transform="translate(454.589844 0.125)"/>
      <use xlink:href="#DejaVuSans-Oblique-78" transform="translate(518.212891 0.125)"/>
      <use xlink:href="#DejaVuSans-29" transform="translate(577.392578 0.125)"/>
      <use xlink:href="#DejaVuSans-2b" transform="translate(635.888672 0.125)"/>
      <use xlink:href="#DejaVuSans-63" transform="translate(739.160156 0.125)"/>
      <use xlink:href="#DejaVuSans-6f" transform="translate(794.140625 0.125)"/>
      <use xlink:href="#DejaVuSans-73" transform="translate(855.322266 0.125)"/>
      <use xlink:href="#DejaVuSans-28" transform="translate(907.421875 0.125)"/>
      <use xlink:href="#DejaVuSans-31" transform="translate(946.435547 0.125)"/>
      <use xlink:href="#DejaVuSans-33" transform="translate(1010.058594 0.125)"/>
      <use xlink:href="#DejaVuSans-Oblique-78" transform="translate(1073.681641 0.125)"/>
      <use xlink:href="#DejaVuSans-29" transform="translate(1132.861328 0.125)"/>
     </g>
    </g>
   </g>
   <g id="line2d_49">
    <path d="M 88.593116 480.255776 
L 687.075634 480.255776 
L 687.075634 480.255776 
" clip-path="url(#p2400e23802)" style="fill: none; stroke: #1f77b4; stroke-width: 1.5; stroke-linecap: square"/>
   </g>
   <g id="line2d_50">
    <path d="M 88.593116 463.137213 
L 94.496766 462.407039 
L 99.66246 462.002605 
L 104.090197 461.901319 
L 107.779978 462.030207 
L 111.46976 462.3827 
L 115.159541 462.983415 
L 118.849322 463.853423 
L 121.801147 464.75499 
L 124.752972 465.846665 
L 127.704797 467.133245 
L 130.656622 468.617577 
L 134.346403 470.752003 
L 138.036185 473.193343 
L 141.725966 475.93343 
L 145.415747 478.959031 
L 149.105528 482.251911 
L 153.533266 486.523712 
L 157.961003 491.099527 
L 163.126697 496.747301 
L 170.50626 505.199561 
L 185.265385 522.224181 
L 190.431078 527.814308 
L 194.858816 532.307815 
L 199.286553 536.455064 
L 202.976335 539.602351 
L 206.666116 542.43535 
L 209.617941 544.456992 
L 212.569766 546.248111 
L 215.521591 547.798951 
L 218.473416 549.101843 
L 221.425241 550.151308 
L 224.377066 550.944217 
L 227.328891 551.47972 
L 230.280716 551.759231 
L 233.232541 551.786499 
L 236.184366 551.567572 
L 239.136191 551.11068 
L 242.088016 550.426126 
L 245.039841 549.526266 
L 247.991666 548.425251 
L 251.681447 546.790257 
L 255.371228 544.899708 
L 259.798966 542.345888 
L 264.964659 539.05931 
L 271.606266 534.520044 
L 287.103347 523.780095 
L 293.006997 520.035011 
L 298.172691 517.041754 
L 302.600428 514.718046 
L 307.028166 512.628976 
L 311.455903 510.771978 
L 315.883641 509.131665 
L 321.049334 507.454835 
L 326.952984 505.77365 
L 346.139847 500.539234 
L 350.567584 499.03022 
L 354.995322 497.292143 
L 359.423059 495.282804 
L 363.112841 493.378446 
L 366.802622 491.252969 
L 370.492403 488.902316 
L 374.920141 485.789217 
L 379.347878 482.376108 
L 383.775616 478.697372 
L 388.941309 474.134976 
L 396.320872 467.302521 
L 407.390216 457.062547 
L 412.555909 452.597919 
L 416.983647 449.063701 
L 420.673428 446.378777 
L 424.363209 443.968199 
L 428.052991 441.861136 
L 431.004816 440.409393 
L 433.956641 439.174641 
L 436.908466 438.161911 
L 439.860291 437.373071 
L 442.812116 436.806939 
L 445.763941 436.459207 
L 448.715766 436.322581 
L 451.667591 436.387026 
L 454.619416 436.639919 
L 458.309197 437.198006 
L 461.998978 437.993391 
L 466.426716 439.208134 
L 471.592409 440.895381 
L 478.971972 443.589674 
L 489.303359 447.35183 
L 494.469053 449.007223 
L 498.896791 450.224575 
L 503.324528 451.217828 
L 507.752266 451.96328 
L 512.180003 452.449392 
L 516.607741 452.676769 
L 521.035478 452.657446 
L 525.463215 452.414109 
L 530.628909 451.890129 
L 536.532559 451.053615 
L 546.863947 449.306495 
L 554.981465 448.03086 
L 560.885115 447.338965 
L 566.050809 446.978978 
L 570.478547 446.890551 
L 574.906284 447.026951 
L 579.334022 447.399239 
L 583.761759 448.008875 
L 588.189497 448.848071 
L 592.617234 449.900086 
L 597.782928 451.362829 
L 603.686578 453.280622 
L 611.804097 456.177769 
L 624.349353 460.653478 
L 630.253003 462.511424 
L 635.418697 463.905581 
L 639.846434 464.890474 
L 644.274172 465.658409 
L 648.701909 466.196465 
L 653.129647 466.500744 
L 657.557384 466.576854 
L 661.985122 466.439867 
L 667.150815 466.043402 
L 673.054465 465.344243 
L 681.90994 464.021935 
L 687.075634 463.242157 
L 687.075634 463.242157 
" clip-path="url(#p2400e23802)" style="fill: none; stroke: #ff7f0e; stroke-width: 1.5; stroke-linecap: square"/>
   </g>
   <g id="patch_21">
    <path d="M 58.66899 557.578253 
L 58.66899 430.546105 
" style="fill: none; stroke: #000000; stroke-width: 0.8; stroke-linejoin: miter; stroke-linecap: square"/>
   </g>
   <g id="patch_22">
    <path d="M 716.99976 557.578253 
L 716.99976 430.546105 
" style="fill: none; stroke: #000000; stroke-width: 0.8; stroke-linejoin: miter; stroke-linecap: square"/>
   </g>
   <g id="patch_23">
    <path d="M 58.66899 557.578253 
L 716.99976 557.578253 
" style="fill: none; stroke: #000000; stroke-width: 0.8; stroke-linejoin: miter; stroke-linecap: square"/>
   </g>
   <g id="patch_24">
    <path d="M 58.66899 430.546105 
L 716.99976 430.546105 
" style="fill: none; stroke: #000000; stroke-width: 0.8; stroke-linejoin: miter; stroke-linecap: square"/>
   </g>
   <g id="legend_4">
    <g id="patch_25">
     <path d="M 663.23726 460.431105 
L 711.39976 460.431105 
Q 712.99976 460.431105 712.99976 458.831105 
L 712.99976 436.146105 
Q 712.99976 434.546105 711.39976 434.546105 
L 663.23726 434.546105 
Q 661.63726 434.546105 661.63726 436.146105 
L 661.63726 458.831105 
Q 661.63726 460.431105 663.23726 460.431105 
z
" style="fill: #ffffff; opacity: 0.8; stroke: #cccccc; stroke-linejoin: miter"/>
    </g>
    <g id="line2d_51">
     <path d="M 664.83726 441.024855 
L 672.83726 441.024855 
L 680.83726 441.024855 
" style="fill: none; stroke: #1f77b4; stroke-width: 1.5; stroke-linecap: square"/>
    </g>
    <g id="text_23">
     <!-- t=0.0 -->
     <g transform="translate(687.23726 443.824855) scale(0.08 -0.08)">
      <use xlink:href="#DejaVuSans-74"/>
      <use xlink:href="#DejaVuSans-3d" x="39.208984"/>
      <use xlink:href="#DejaVuSans-30" x="122.998047"/>
      <use xlink:href="#DejaVuSans-2e" x="186.621094"/>
      <use xlink:href="#DejaVuSans-30" x="218.408203"/>
     </g>
    </g>
    <g id="line2d_52">
     <path d="M 664.83726 452.767355 
L 672.83726 452.767355 
L 680.83726 452.767355 
" style="fill: none; stroke: #ff7f0e; stroke-width: 1.5; stroke-linecap: square"/>
    </g>
    <g id="text_24">
     <!-- t=1.0 -->
     <g transform="translate(687.23726 455.567355) scale(0.08 -0.08)">
      <use xlink:href="#DejaVuSans-74"/>
      <use xlink:href="#DejaVuSans-3d" x="39.208984"/>
      <use xlink:href="#DejaVuSans-31" x="122.998047"/>
      <use xlink:href="#DejaVuSans-2e" x="186.621094"/>
      <use xlink:href="#DejaVuSans-30" x="218.408203"/>
     </g>
    </g>
   </g>
  </g>
  <g id="axes_5">
   <g id="patch_26">
    <path d="M 58.66899 694.110882 
L 716.99976 694.110882 
L 716.99976 567.078733 
L 58.66899 567.078733 
z
" style="fill: #ffffff"/>
   </g>
   <g id="matplotlib.axis_9">
    <g id="xtick_25">
     <g id="line2d_53">
      <g>
       <use xlink:href="#md2b5d03682" x="88.593116" y="694.110882" style="stroke: #000000; stroke-width: 0.8"/>
      </g>
     </g>
    </g>
    <g id="xtick_26">
     <g id="line2d_54">
      <g>
       <use xlink:href="#md2b5d03682" x="208.437211" y="694.110882" style="stroke: #000000; stroke-width: 0.8"/>
      </g>
     </g>
    </g>
    <g id="xtick_27">
     <g id="line2d_55">
      <g>
       <use xlink:href="#md2b5d03682" x="328.281306" y="694.110882" style="stroke: #000000; stroke-width: 0.8"/>
      </g>
     </g>
    </g>
    <g id="xtick_28">
     <g id="line2d_56">
      <g>
       <use xlink:href="#md2b5d03682" x="448.125401" y="694.110882" style="stroke: #000000; stroke-width: 0.8"/>
      </g>
     </g>
    </g>
    <g id="xtick_29">
     <g id="line2d_57">
      <g>
       <use xlink:href="#md2b5d03682" x="567.969495" y="694.110882" style="stroke: #000000; stroke-width: 0.8"/>
      </g>
     </g>
    </g>
    <g id="xtick_30">
     <g id="line2d_58">
      <g>
       <use xlink:href="#md2b5d03682" x="687.81359" y="694.110882" style="stroke: #000000; stroke-width: 0.8"/>
      </g>
     </g>
    </g>
   </g>
   <g id="matplotlib.axis_10">
    <g id="ytick_13">
     <g id="line2d_59">
      <g>
       <use xlink:href="#mb2693eab0a" x="58.66899" y="658.926692" style="stroke: #000000; stroke-width: 0.8"/>
      </g>
     </g>
     <g id="text_25">
      <!-- 0.1995 -->
      <g transform="translate(16.678365 662.72591) scale(0.1 -0.1)">
       <use xlink:href="#DejaVuSans-30"/>
       <use xlink:href="#DejaVuSans-2e" x="63.623047"/>
       <use xlink:href="#DejaVuSans-31" x="95.410156"/>
       <use xlink:href="#DejaVuSans-39" x="159.033203"/>
       <use xlink:href="#DejaVuSans-39" x="222.65625"/>
       <use xlink:href="#DejaVuSans-35" x="286.279297"/>
      </g>
     </g>
    </g>
    <g id="ytick_14">
     <g id="line2d_60">
      <g>
       <use xlink:href="#mb2693eab0a" x="58.66899" y="616.788404" style="stroke: #000000; stroke-width: 0.8"/>
      </g>
     </g>
     <g id="text_26">
      <!-- 0.2000 -->
      <g transform="translate(16.678365 620.587623) scale(0.1 -0.1)">
       <use xlink:href="#DejaVuSans-30"/>
       <use xlink:href="#DejaVuSans-2e" x="63.623047"/>
       <use xlink:href="#DejaVuSans-32" x="95.410156"/>
       <use xlink:href="#DejaVuSans-30" x="159.033203"/>
       <use xlink:href="#DejaVuSans-30" x="222.65625"/>
       <use xlink:href="#DejaVuSans-30" x="286.279297"/>
      </g>
     </g>
    </g>
    <g id="ytick_15">
     <g id="line2d_61">
      <g>
       <use xlink:href="#mb2693eab0a" x="58.66899" y="574.650117" style="stroke: #000000; stroke-width: 0.8"/>
      </g>
     </g>
     <g id="text_27">
      <!-- 0.2005 -->
      <g transform="translate(16.678365 578.449336) scale(0.1 -0.1)">
       <use xlink:href="#DejaVuSans-30"/>
       <use xlink:href="#DejaVuSans-2e" x="63.623047"/>
       <use xlink:href="#DejaVuSans-32" x="95.410156"/>
       <use xlink:href="#DejaVuSans-30" x="159.033203"/>
       <use xlink:href="#DejaVuSans-30" x="222.65625"/>
       <use xlink:href="#DejaVuSans-35" x="286.279297"/>
      </g>
     </g>
    </g>
   </g>
   <g id="line2d_62">
    <path d="M 88.593116 616.788404 
L 687.075634 616.788404 
L 687.075634 616.788404 
" clip-path="url(#p7ff35cf435)" style="fill: none; stroke: #1f77b4; stroke-width: 1.5; stroke-linecap: square"/>
   </g>
   <g id="line2d_63">
    <path d="M 88.593116 599.669841 
L 94.496766 598.939668 
L 99.66246 598.535233 
L 104.090197 598.433948 
L 107.779978 598.562835 
L 111.46976 598.915329 
L 115.159541 599.516043 
L 118.849322 600.386051 
L 121.801147 601.287618 
L 124.752972 602.379294 
L 127.704797 603.665873 
L 130.656622 605.150206 
L 134.346403 607.284632 
L 138.036185 609.725971 
L 141.725966 612.466058 
L 145.415747 615.491659 
L 149.105528 618.784539 
L 153.533266 623.05634 
L 157.961003 627.632155 
L 163.126697 633.27993 
L 170.50626 641.732189 
L 185.265385 658.75681 
L 190.431078 664.346937 
L 194.858816 668.840443 
L 199.286553 672.987692 
L 202.976335 676.13498 
L 206.666116 678.967979 
L 209.617941 680.98962 
L 212.569766 682.780739 
L 215.521591 684.331579 
L 218.473416 685.634471 
L 221.425241 686.683937 
L 224.377066 687.476846 
L 227.328891 688.012348 
L 230.280716 688.291859 
L 233.232541 688.319128 
L 236.184366 688.100201 
L 239.136191 687.643309 
L 242.088016 686.958755 
L 245.039841 686.058895 
L 247.991666 684.95788 
L 251.681447 683.322885 
L 255.371228 681.432336 
L 259.798966 678.878516 
L 264.964659 675.591938 
L 271.606266 671.052672 
L 287.103347 660.312723 
L 293.006997 656.567639 
L 298.172691 653.574382 
L 302.600428 651.250674 
L 307.028166 649.161604 
L 311.455903 647.304606 
L 315.883641 645.664293 
L 321.049334 643.987463 
L 326.952984 642.306278 
L 346.139847 637.071862 
L 350.567584 635.562848 
L 354.995322 633.824771 
L 359.423059 631.815433 
L 363.112841 629.911074 
L 366.802622 627.785598 
L 370.492403 625.434944 
L 374.920141 622.321846 
L 379.347878 618.908736 
L 383.775616 615.23 
L 388.941309 610.667605 
L 396.320872 603.835149 
L 407.390216 593.595175 
L 412.555909 589.130547 
L 416.983647 585.59633 
L 420.673428 582.911405 
L 424.363209 580.500827 
L 428.052991 578.393764 
L 431.004816 576.942022 
L 433.956641 575.70727 
L 436.908466 574.694539 
L 439.860291 573.905699 
L 442.812116 573.339567 
L 445.763941 572.991836 
L 448.715766 572.85521 
L 451.667591 572.919654 
L 454.619416 573.172547 
L 458.309197 573.730634 
L 461.998978 574.52602 
L 466.426716 575.740762 
L 471.592409 577.42801 
L 478.971972 580.122302 
L 489.303359 583.884458 
L 494.469053 585.539851 
L 498.896791 586.757203 
L 503.324528 587.750456 
L 507.752266 588.495908 
L 512.180003 588.98202 
L 516.607741 589.209397 
L 521.035478 589.190074 
L 525.463215 588.946737 
L 530.628909 588.422757 
L 536.532559 587.586243 
L 546.863947 585.839123 
L 554.981465 584.563488 
L 560.885115 583.871593 
L 566.050809 583.511606 
L 570.478547 583.423179 
L 574.906284 583.559579 
L 579.334022 583.931868 
L 583.761759 584.541503 
L 588.189497 585.3807 
L 592.617234 586.432714 
L 597.782928 587.895457 
L 603.686578 589.813251 
L 611.804097 592.710398 
L 624.349353 597.186107 
L 630.253003 599.044053 
L 635.418697 600.438209 
L 639.846434 601.423102 
L 644.274172 602.191037 
L 648.701909 602.729093 
L 653.129647 603.033372 
L 657.557384 603.109482 
L 661.985122 602.972495 
L 667.150815 602.57603 
L 673.054465 601.876871 
L 681.90994 600.554563 
L 687.075634 599.774785 
L 687.075634 599.774785 
" clip-path="url(#p7ff35cf435)" style="fill: none; stroke: #ff7f0e; stroke-width: 1.5; stroke-linecap: square"/>
   </g>
   <g id="patch_27">
    <path d="M 58.66899 694.110882 
L 58.66899 567.078733 
" style="fill: none; stroke: #000000; stroke-width: 0.8; stroke-linejoin: miter; stroke-linecap: square"/>
   </g>
   <g id="patch_28">
    <path d="M 716.99976 694.110882 
L 716.99976 567.078733 
" style="fill: none; stroke: #000000; stroke-width: 0.8; stroke-linejoin: miter; stroke-linecap: square"/>
   </g>
   <g id="patch_29">
    <path d="M 58.66899 694.110882 
L 716.99976 694.110882 
" style="fill: none; stroke: #000000; stroke-width: 0.8; stroke-linejoin: miter; stroke-linecap: square"/>
   </g>
   <g id="patch_30">
    <path d="M 58.66899 567.078733 
L 716.99976 567.078733 
" style="fill: none; stroke: #000000; stroke-width: 0.8; stroke-linejoin: miter; stroke-linecap: square"/>
   </g>
   <g id="legend_5">
    <g id="patch_31">
     <path d="M 663.23726 596.963733 
L 711.39976 596.963733 
Q 712.99976 596.963733 712.99976 595.363733 
L 712.99976 572.678733 
Q 712.99976 571.078733 711.39976 571.078733 
L 663.23726 571.078733 
Q 661.63726 571.078733 661.63726 572.678733 
L 661.63726 595.363733 
Q 661.63726 596.963733 663.23726 596.963733 
z
" style="fill: #ffffff; opacity: 0.8; stroke: #cccccc; stroke-linejoin: miter"/>
    </g>
    <g id="line2d_64">
     <path d="M 664.83726 577.557483 
L 672.83726 577.557483 
L 680.83726 577.557483 
" style="fill: none; stroke: #1f77b4; stroke-width: 1.5; stroke-linecap: square"/>
    </g>
    <g id="text_28">
     <!-- t=0.0 -->
     <g transform="translate(687.23726 580.357483) scale(0.08 -0.08)">
      <use xlink:href="#DejaVuSans-74"/>
      <use xlink:href="#DejaVuSans-3d" x="39.208984"/>
      <use xlink:href="#DejaVuSans-30" x="122.998047"/>
      <use xlink:href="#DejaVuSans-2e" x="186.621094"/>
      <use xlink:href="#DejaVuSans-30" x="218.408203"/>
     </g>
    </g>
    <g id="line2d_65">
     <path d="M 664.83726 589.299983 
L 672.83726 589.299983 
L 680.83726 589.299983 
" style="fill: none; stroke: #ff7f0e; stroke-width: 1.5; stroke-linecap: square"/>
    </g>
    <g id="text_29">
     <!-- t=1.0 -->
     <g transform="translate(687.23726 592.099983) scale(0.08 -0.08)">
      <use xlink:href="#DejaVuSans-74"/>
      <use xlink:href="#DejaVuSans-3d" x="39.208984"/>
      <use xlink:href="#DejaVuSans-31" x="122.998047"/>
      <use xlink:href="#DejaVuSans-2e" x="186.621094"/>
      <use xlink:href="#DejaVuSans-30" x="218.408203"/>
     </g>
    </g>
   </g>
  </g>
  <g id="axes_6">
   <g id="patch_32">
    <path d="M 58.66899 830.64351 
L 716.99976 830.64351 
L 716.99976 703.611362 
L 58.66899 703.611362 
z
" style="fill: #ffffff"/>
   </g>
   <g id="matplotlib.axis_11">
    <g id="xtick_31">
     <g id="line2d_66">
      <g>
       <use xlink:href="#md2b5d03682" x="88.593116" y="830.64351" style="stroke: #000000; stroke-width: 0.8"/>
      </g>
     </g>
     <g id="text_30">
      <!-- 0 -->
      <g transform="translate(85.411866 845.241948) scale(0.1 -0.1)">
       <use xlink:href="#DejaVuSans-30"/>
      </g>
     </g>
    </g>
    <g id="xtick_32">
     <g id="line2d_67">
      <g>
       <use xlink:href="#md2b5d03682" x="208.437211" y="830.64351" style="stroke: #000000; stroke-width: 0.8"/>
      </g>
     </g>
     <g id="text_31">
      <!-- 2 -->
      <g transform="translate(205.255961 845.241948) scale(0.1 -0.1)">
       <use xlink:href="#DejaVuSans-32"/>
      </g>
     </g>
    </g>
    <g id="xtick_33">
     <g id="line2d_68">
      <g>
       <use xlink:href="#md2b5d03682" x="328.281306" y="830.64351" style="stroke: #000000; stroke-width: 0.8"/>
      </g>
     </g>
     <g id="text_32">
      <!-- 4 -->
      <g transform="translate(325.100056 845.241948) scale(0.1 -0.1)">
       <defs>
        <path id="DejaVuSans-34" d="M 2419 4116 
L 825 1625 
L 2419 1625 
L 2419 4116 
z
M 2253 4666 
L 3047 4666 
L 3047 1625 
L 3713 1625 
L 3713 1100 
L 3047 1100 
L 3047 0 
L 2419 0 
L 2419 1100 
L 313 1100 
L 313 1709 
L 2253 4666 
z
" transform="scale(0.015625)"/>
       </defs>
       <use xlink:href="#DejaVuSans-34"/>
      </g>
     </g>
    </g>
    <g id="xtick_34">
     <g id="line2d_69">
      <g>
       <use xlink:href="#md2b5d03682" x="448.125401" y="830.64351" style="stroke: #000000; stroke-width: 0.8"/>
      </g>
     </g>
     <g id="text_33">
      <!-- 6 -->
      <g transform="translate(444.944151 845.241948) scale(0.1 -0.1)">
       <defs>
        <path id="DejaVuSans-36" d="M 2113 2584 
Q 1688 2584 1439 2293 
Q 1191 2003 1191 1497 
Q 1191 994 1439 701 
Q 1688 409 2113 409 
Q 2538 409 2786 701 
Q 3034 994 3034 1497 
Q 3034 2003 2786 2293 
Q 2538 2584 2113 2584 
z
M 3366 4563 
L 3366 3988 
Q 3128 4100 2886 4159 
Q 2644 4219 2406 4219 
Q 1781 4219 1451 3797 
Q 1122 3375 1075 2522 
Q 1259 2794 1537 2939 
Q 1816 3084 2150 3084 
Q 2853 3084 3261 2657 
Q 3669 2231 3669 1497 
Q 3669 778 3244 343 
Q 2819 -91 2113 -91 
Q 1303 -91 875 529 
Q 447 1150 447 2328 
Q 447 3434 972 4092 
Q 1497 4750 2381 4750 
Q 2619 4750 2861 4703 
Q 3103 4656 3366 4563 
z
" transform="scale(0.015625)"/>
       </defs>
       <use xlink:href="#DejaVuSans-36"/>
      </g>
     </g>
    </g>
    <g id="xtick_35">
     <g id="line2d_70">
      <g>
       <use xlink:href="#md2b5d03682" x="567.969495" y="830.64351" style="stroke: #000000; stroke-width: 0.8"/>
      </g>
     </g>
     <g id="text_34">
      <!-- 8 -->
      <g transform="translate(564.788245 845.241948) scale(0.1 -0.1)">
       <use xlink:href="#DejaVuSans-38"/>
      </g>
     </g>
    </g>
    <g id="xtick_36">
     <g id="line2d_71">
      <g>
       <use xlink:href="#md2b5d03682" x="687.81359" y="830.64351" style="stroke: #000000; stroke-width: 0.8"/>
      </g>
     </g>
     <g id="text_35">
      <!-- 10 -->
      <g transform="translate(681.45109 845.241948) scale(0.1 -0.1)">
       <use xlink:href="#DejaVuSans-31"/>
       <use xlink:href="#DejaVuSans-30" x="63.623047"/>
      </g>
     </g>
    </g>
    <g id="text_36">
     <!-- x -->
     <g transform="translate(384.875 858.920072) scale(0.1 -0.1)">
      <defs>
       <path id="DejaVuSans-78" d="M 3513 3500 
L 2247 1797 
L 3578 0 
L 2900 0 
L 1881 1375 
L 863 0 
L 184 0 
L 1544 1831 
L 300 3500 
L 978 3500 
L 1906 2253 
L 2834 3500 
L 3513 3500 
z
" transform="scale(0.015625)"/>
      </defs>
      <use xlink:href="#DejaVuSans-78"/>
     </g>
    </g>
   </g>
   <g id="matplotlib.axis_12">
    <g id="ytick_16">
     <g id="line2d_72">
      <g>
       <use xlink:href="#mb2693eab0a" x="58.66899" y="795.45932" style="stroke: #000000; stroke-width: 0.8"/>
      </g>
     </g>
     <g id="text_37">
      <!-- 0.1995 -->
      <g transform="translate(16.678365 799.258539) scale(0.1 -0.1)">
       <use xlink:href="#DejaVuSans-30"/>
       <use xlink:href="#DejaVuSans-2e" x="63.623047"/>
       <use xlink:href="#DejaVuSans-31" x="95.410156"/>
       <use xlink:href="#DejaVuSans-39" x="159.033203"/>
       <use xlink:href="#DejaVuSans-39" x="222.65625"/>
       <use xlink:href="#DejaVuSans-35" x="286.279297"/>
      </g>
     </g>
    </g>
    <g id="ytick_17">
     <g id="line2d_73">
      <g>
       <use xlink:href="#mb2693eab0a" x="58.66899" y="753.321033" style="stroke: #000000; stroke-width: 0.8"/>
      </g>
     </g>
     <g id="text_38">
      <!-- 0.2000 -->
      <g transform="translate(16.678365 757.120251) scale(0.1 -0.1)">
       <use xlink:href="#DejaVuSans-30"/>
       <use xlink:href="#DejaVuSans-2e" x="63.623047"/>
       <use xlink:href="#DejaVuSans-32" x="95.410156"/>
       <use xlink:href="#DejaVuSans-30" x="159.033203"/>
       <use xlink:href="#DejaVuSans-30" x="222.65625"/>
       <use xlink:href="#DejaVuSans-30" x="286.279297"/>
      </g>
     </g>
    </g>
    <g id="ytick_18">
     <g id="line2d_74">
      <g>
       <use xlink:href="#mb2693eab0a" x="58.66899" y="711.182746" style="stroke: #000000; stroke-width: 0.8"/>
      </g>
     </g>
     <g id="text_39">
      <!-- 0.2005 -->
      <g transform="translate(16.678365 714.981964) scale(0.1 -0.1)">
       <use xlink:href="#DejaVuSans-30"/>
       <use xlink:href="#DejaVuSans-2e" x="63.623047"/>
       <use xlink:href="#DejaVuSans-32" x="95.410156"/>
       <use xlink:href="#DejaVuSans-30" x="159.033203"/>
       <use xlink:href="#DejaVuSans-30" x="222.65625"/>
       <use xlink:href="#DejaVuSans-35" x="286.279297"/>
      </g>
     </g>
    </g>
   </g>
   <g id="line2d_75">
    <path d="M 88.593116 753.321033 
L 687.075634 753.321033 
L 687.075634 753.321033 
" clip-path="url(#pa16be99fa0)" style="fill: none; stroke: #1f77b4; stroke-width: 1.5; stroke-linecap: square"/>
   </g>
   <g id="line2d_76">
    <path d="M 88.593116 736.20247 
L 94.496766 735.472296 
L 99.66246 735.067861 
L 104.090197 734.966576 
L 107.779978 735.095464 
L 111.46976 735.447957 
L 115.159541 736.048672 
L 118.849322 736.918679 
L 121.801147 737.820247 
L 124.752972 738.911922 
L 127.704797 740.198502 
L 130.656622 741.682834 
L 134.346403 743.81726 
L 138.036185 746.258599 
L 141.725966 748.998686 
L 145.415747 752.024287 
L 149.105528 755.317167 
L 153.533266 759.588969 
L 157.961003 764.164783 
L 163.126697 769.812558 
L 170.50626 778.264817 
L 185.265385 795.289438 
L 190.431078 800.879565 
L 194.858816 805.373072 
L 199.286553 809.52032 
L 202.976335 812.667608 
L 206.666116 815.500607 
L 209.617941 817.522248 
L 212.569766 819.313368 
L 215.521591 820.864208 
L 218.473416 822.167099 
L 221.425241 823.216565 
L 224.377066 824.009474 
L 227.328891 824.544977 
L 230.280716 824.824487 
L 233.232541 824.851756 
L 236.184366 824.632829 
L 239.136191 824.175937 
L 242.088016 823.491383 
L 245.039841 822.591523 
L 247.991666 821.490508 
L 251.681447 819.855513 
L 255.371228 817.964964 
L 259.798966 815.411145 
L 264.964659 812.124566 
L 271.606266 807.5853 
L 287.103347 796.845351 
L 293.006997 793.100267 
L 298.172691 790.107011 
L 302.600428 787.783302 
L 307.028166 785.694232 
L 311.455903 783.837235 
L 315.883641 782.196922 
L 321.049334 780.520091 
L 326.952984 778.838906 
L 346.139847 773.604491 
L 350.567584 772.095477 
L 354.995322 770.3574 
L 359.423059 768.348061 
L 363.112841 766.443702 
L 366.802622 764.318226 
L 370.492403 761.967573 
L 374.920141 758.854474 
L 379.347878 755.441365 
L 383.775616 751.762628 
L 388.941309 747.200233 
L 396.320872 740.367777 
L 407.390216 730.127803 
L 412.555909 725.663176 
L 416.983647 722.128958 
L 420.673428 719.444033 
L 424.363209 717.033456 
L 428.052991 714.926392 
L 431.004816 713.47465 
L 433.956641 712.239898 
L 436.908466 711.227168 
L 439.860291 710.438328 
L 442.812116 709.872195 
L 445.763941 709.524464 
L 448.715766 709.387838 
L 451.667591 709.452283 
L 454.619416 709.705175 
L 458.309197 710.263262 
L 461.998978 711.058648 
L 466.426716 712.273391 
L 471.592409 713.960638 
L 478.971972 716.65493 
L 489.303359 720.417087 
L 494.469053 722.072479 
L 498.896791 723.289831 
L 503.324528 724.283084 
L 507.752266 725.028536 
L 512.180003 725.514649 
L 516.607741 725.742026 
L 521.035478 725.722702 
L 525.463215 725.479365 
L 530.628909 724.955386 
L 536.532559 724.118871 
L 546.863947 722.371752 
L 554.981465 721.096117 
L 560.885115 720.404221 
L 566.050809 720.044234 
L 570.478547 719.955807 
L 574.906284 720.092207 
L 579.334022 720.464496 
L 583.761759 721.074131 
L 588.189497 721.913328 
L 592.617234 722.965343 
L 597.782928 724.428085 
L 603.686578 726.345879 
L 611.804097 729.243026 
L 624.349353 733.718735 
L 630.253003 735.576681 
L 635.418697 736.970838 
L 639.846434 737.95573 
L 644.274172 738.723665 
L 648.701909 739.261721 
L 653.129647 739.566001 
L 657.557384 739.642111 
L 661.985122 739.505123 
L 667.150815 739.108659 
L 673.054465 738.409499 
L 681.90994 737.087192 
L 687.075634 736.307414 
L 687.075634 736.307414 
" clip-path="url(#pa16be99fa0)" style="fill: none; stroke: #ff7f0e; stroke-width: 1.5; stroke-linecap: square"/>
   </g>
   <g id="patch_33">
    <path d="M 58.66899 830.64351 
L 58.66899 703.611362 
" style="fill: none; stroke: #000000; stroke-width: 0.8; stroke-linejoin: miter; stroke-linecap: square"/>
   </g>
   <g id="patch_34">
    <path d="M 716.99976 830.64351 
L 716.99976 703.611362 
" style="fill: none; stroke: #000000; stroke-width: 0.8; stroke-linejoin: miter; stroke-linecap: square"/>
   </g>
   <g id="patch_35">
    <path d="M 58.66899 830.64351 
L 716.99976 830.64351 
" style="fill: none; stroke: #000000; stroke-width: 0.8; stroke-linejoin: miter; stroke-linecap: square"/>
   </g>
   <g id="patch_36">
    <path d="M 58.66899 703.611362 
L 716.99976 703.611362 
" style="fill: none; stroke: #000000; stroke-width: 0.8; stroke-linejoin: miter; stroke-linecap: square"/>
   </g>
   <g id="legend_6">
    <g id="patch_37">
     <path d="M 663.23726 733.496362 
L 711.39976 733.496362 
Q 712.99976 733.496362 712.99976 731.896362 
L 712.99976 709.211362 
Q 712.99976 707.611362 711.39976 707.611362 
L 663.23726 707.611362 
Q 661.63726 707.611362 661.63726 709.211362 
L 661.63726 731.896362 
Q 661.63726 733.496362 663.23726 733.496362 
z
" style="fill: #ffffff; opacity: 0.8; stroke: #cccccc; stroke-linejoin: miter"/>
    </g>
    <g id="line2d_77">
     <path d="M 664.83726 714.090112 
L 672.83726 714.090112 
L 680.83726 714.090112 
" style="fill: none; stroke: #1f77b4; stroke-width: 1.5; stroke-linecap: square"/>
    </g>
    <g id="text_40">
     <!-- t=0.0 -->
     <g transform="translate(687.23726 716.890112) scale(0.08 -0.08)">
      <use xlink:href="#DejaVuSans-74"/>
      <use xlink:href="#DejaVuSans-3d" x="39.208984"/>
      <use xlink:href="#DejaVuSans-30" x="122.998047"/>
      <use xlink:href="#DejaVuSans-2e" x="186.621094"/>
      <use xlink:href="#DejaVuSans-30" x="218.408203"/>
     </g>
    </g>
    <g id="line2d_78">
     <path d="M 664.83726 725.832612 
L 672.83726 725.832612 
L 680.83726 725.832612 
" style="fill: none; stroke: #ff7f0e; stroke-width: 1.5; stroke-linecap: square"/>
    </g>
    <g id="text_41">
     <!-- t=1.0 -->
     <g transform="translate(687.23726 728.632612) scale(0.08 -0.08)">
      <use xlink:href="#DejaVuSans-74"/>
      <use xlink:href="#DejaVuSans-3d" x="39.208984"/>
      <use xlink:href="#DejaVuSans-31" x="122.998047"/>
      <use xlink:href="#DejaVuSans-2e" x="186.621094"/>
      <use xlink:href="#DejaVuSans-30" x="218.408203"/>
     </g>
    </g>
   </g>
  </g>
  <g id="text_42">
   <!-- Density snapshots for modes m=1..5  [seed_modes_1to5] -->
   <g transform="translate(185.743125 12.118365) scale(0.12 -0.12)">
    <defs>
     <path id="DejaVuSans-44" d="M 1259 4147 
L 1259 519 
L 2022 519 
Q 2988 519 3436 956 
Q 3884 1394 3884 2338 
Q 3884 3275 3436 3711 
Q 2988 4147 2022 4147 
L 1259 4147 
z
M 628 4666 
L 1925 4666 
Q 3281 4666 3915 4102 
Q 4550 3538 4550 2338 
Q 4550 1131 3912 565 
Q 3275 0 1925 0 
L 628 0 
L 628 4666 
z
" transform="scale(0.015625)"/>
     <path id="DejaVuSans-65" d="M 3597 1894 
L 3597 1613 
L 953 1613 
Q 991 1019 1311 708 
Q 1631 397 2203 397 
Q 2534 397 2845 478 
Q 3156 559 3463 722 
L 3463 178 
Q 3153 47 2828 -22 
Q 2503 -91 2169 -91 
Q 1331 -91 842 396 
Q 353 884 353 1716 
Q 353 2575 817 3079 
Q 1281 3584 2069 3584 
Q 2775 3584 3186 3129 
Q 3597 2675 3597 1894 
z
M 3022 2063 
Q 3016 2534 2758 2815 
Q 2500 3097 2075 3097 
Q 1594 3097 1305 2825 
Q 1016 2553 972 2059 
L 3022 2063 
z
" transform="scale(0.015625)"/>
     <path id="DejaVuSans-6e" d="M 3513 2113 
L 3513 0 
L 2938 0 
L 2938 2094 
Q 2938 2591 2744 2837 
Q 2550 3084 2163 3084 
Q 1697 3084 1428 2787 
Q 1159 2491 1159 1978 
L 1159 0 
L 581 0 
L 581 3500 
L 1159 3500 
L 1159 2956 
Q 1366 3272 1645 3428 
Q 1925 3584 2291 3584 
Q 2894 3584 3203 3211 
Q 3513 2838 3513 2113 
z
" transform="scale(0.015625)"/>
     <path id="DejaVuSans-69" d="M 603 3500 
L 1178 3500 
L 1178 0 
L 603 0 
L 603 3500 
z
M 603 4863 
L 1178 4863 
L 1178 4134 
L 603 4134 
L 603 4863 
z
" transform="scale(0.015625)"/>
     <path id="DejaVuSans-79" d="M 2059 -325 
Q 1816 -950 1584 -1140 
Q 1353 -1331 966 -1331 
L 506 -1331 
L 506 -850 
L 844 -850 
Q 1081 -850 1212 -737 
Q 1344 -625 1503 -206 
L 1606 56 
L 191 3500 
L 800 3500 
L 1894 763 
L 2988 3500 
L 3597 3500 
L 2059 -325 
z
" transform="scale(0.015625)"/>
     <path id="DejaVuSans-20" transform="scale(0.015625)"/>
     <path id="DejaVuSans-61" d="M 2194 1759 
Q 1497 1759 1228 1600 
Q 959 1441 959 1056 
Q 959 750 1161 570 
Q 1363 391 1709 391 
Q 2188 391 2477 730 
Q 2766 1069 2766 1631 
L 2766 1759 
L 2194 1759 
z
M 3341 1997 
L 3341 0 
L 2766 0 
L 2766 531 
Q 2569 213 2275 61 
Q 1981 -91 1556 -91 
Q 1019 -91 701 211 
Q 384 513 384 1019 
Q 384 1609 779 1909 
Q 1175 2209 1959 2209 
L 2766 2209 
L 2766 2266 
Q 2766 2663 2505 2880 
Q 2244 3097 1772 3097 
Q 1472 3097 1187 3025 
Q 903 2953 641 2809 
L 641 3341 
Q 956 3463 1253 3523 
Q 1550 3584 1831 3584 
Q 2591 3584 2966 3190 
Q 3341 2797 3341 1997 
z
" transform="scale(0.015625)"/>
     <path id="DejaVuSans-70" d="M 1159 525 
L 1159 -1331 
L 581 -1331 
L 581 3500 
L 1159 3500 
L 1159 2969 
Q 1341 3281 1617 3432 
Q 1894 3584 2278 3584 
Q 2916 3584 3314 3078 
Q 3713 2572 3713 1747 
Q 3713 922 3314 415 
Q 2916 -91 2278 -91 
Q 1894 -91 1617 61 
Q 1341 213 1159 525 
z
M 3116 1747 
Q 3116 2381 2855 2742 
Q 2594 3103 2138 3103 
Q 1681 3103 1420 2742 
Q 1159 2381 1159 1747 
Q 1159 1113 1420 752 
Q 1681 391 2138 391 
Q 2594 391 2855 752 
Q 3116 1113 3116 1747 
z
" transform="scale(0.015625)"/>
     <path id="DejaVuSans-68" d="M 3513 2113 
L 3513 0 
L 2938 0 
L 2938 2094 
Q 2938 2591 2744 2837 
Q 2550 3084 2163 3084 
Q 1697 3084 1428 2787 
Q 1159 2491 1159 1978 
L 1159 0 
L 581 0 
L 581 4863 
L 1159 4863 
L 1159 2956 
Q 1366 3272 1645 3428 
Q 1925 3584 2291 3584 
Q 2894 3584 3203 3211 
Q 3513 2838 3513 2113 
z
" transform="scale(0.015625)"/>
     <path id="DejaVuSans-66" d="M 2375 4863 
L 2375 4384 
L 1825 4384 
Q 1516 4384 1395 4259 
Q 1275 4134 1275 3809 
L 1275 3500 
L 2222 3500 
L 2222 3053 
L 1275 3053 
L 1275 0 
L 697 0 
L 697 3053 
L 147 3053 
L 147 3500 
L 697 3500 
L 697 3744 
Q 697 4328 969 4595 
Q 1241 4863 1831 4863 
L 2375 4863 
z
" transform="scale(0.015625)"/>
     <path id="DejaVuSans-72" d="M 2631 2963 
Q 2534 3019 2420 3045 
Q 2306 3072 2169 3072 
Q 1681 3072 1420 2755 
Q 1159 2438 1159 1844 
L 1159 0 
L 581 0 
L 581 3500 
L 1159 3500 
L 1159 2956 
Q 1341 3275 1631 3429 
Q 1922 3584 2338 3584 
Q 2397 3584 2469 3576 
Q 2541 3569 2628 3553 
L 2631 2963 
z
" transform="scale(0.015625)"/>
     <path id="DejaVuSans-6d" d="M 3328 2828 
Q 3544 3216 3844 3400 
Q 4144 3584 4550 3584 
Q 5097 3584 5394 3201 
Q 5691 2819 5691 2113 
L 5691 0 
L 5113 0 
L 5113 2094 
Q 5113 2597 4934 2840 
Q 4756 3084 4391 3084 
Q 3944 3084 3684 2787 
Q 3425 2491 3425 1978 
L 3425 0 
L 2847 0 
L 2847 2094 
Q 2847 2600 2669 2842 
Q 2491 3084 2119 3084 
Q 1678 3084 1418 2786 
Q 1159 2488 1159 1978 
L 1159 0 
L 581 0 
L 581 3500 
L 1159 3500 
L 1159 2956 
Q 1356 3278 1631 3431 
Q 1906 3584 2284 3584 
Q 2666 3584 2933 3390 
Q 3200 3197 3328 2828 
z
" transform="scale(0.015625)"/>
     <path id="DejaVuSans-64" d="M 2906 2969 
L 2906 4863 
L 3481 4863 
L 3481 0 
L 2906 0 
L 2906 525 
Q 2725 213 2448 61 
Q 2172 -91 1784 -91 
Q 1150 -91 751 415 
Q 353 922 353 1747 
Q 353 2572 751 3078 
Q 1150 3584 1784 3584 
Q 2172 3584 2448 3432 
Q 2725 3281 2906 2969 
z
M 947 1747 
Q 947 1113 1208 752 
Q 1469 391 1925 391 
Q 2381 391 2643 752 
Q 2906 1113 2906 1747 
Q 2906 2381 2643 2742 
Q 2381 3103 1925 3103 
Q 1469 3103 1208 2742 
Q 947 2381 947 1747 
z
" transform="scale(0.015625)"/>
     <path id="DejaVuSans-5b" d="M 550 4863 
L 1875 4863 
L 1875 4416 
L 1125 4416 
L 1125 -397 
L 1875 -397 
L 1875 -844 
L 550 -844 
L 550 4863 
z
" transform="scale(0.015625)"/>
     <path id="DejaVuSans-5f" d="M 3263 -1063 
L 3263 -1509 
L -63 -1509 
L -63 -1063 
L 3263 -1063 
z
" transform="scale(0.015625)"/>
     <path id="DejaVuSans-5d" d="M 1947 4863 
L 1947 -844 
L 622 -844 
L 622 -397 
L 1369 -397 
L 1369 4416 
L 622 4416 
L 622 4863 
L 1947 4863 
z
" transform="scale(0.015625)"/>
    </defs>
    <use xlink:href="#DejaVuSans-44"/>
    <use xlink:href="#DejaVuSans-65" x="77.001953"/>
    <use xlink:href="#DejaVuSans-6e" x="138.525391"/>
    <use xlink:href="#DejaVuSans-73" x="201.904297"/>
    <use xlink:href="#DejaVuSans-69" x="254.003906"/>
    <use xlink:href="#DejaVuSans-74" x="281.787109"/>
    <use xlink:href="#DejaVuSans-79" x="320.996094"/>
    <use xlink:href="#DejaVuSans-20" x="380.175781"/>
    <use xlink:href="#DejaVuSans-73" x="411.962891"/>
    <use xlink:href="#DejaVuSans-6e" x="464.0625"/>
    <use xlink:href="#DejaVuSans-61" x="527.441406"/>
    <use xlink:href="#DejaVuSans-70" x="588.720703"/>
    <use xlink:href="#DejaVuSans-73" x="652.197266"/>
    <use xlink:href="#DejaVuSans-68" x="704.296875"/>
    <use xlink:href="#DejaVuSans-6f" x="767.675781"/>
    <use xlink:href="#DejaVuSans-74" x="828.857422"/>
    <use xlink:href="#DejaVuSans-73" x="868.066406"/>
    <use xlink:href="#DejaVuSans-20" x="920.166016"/>
    <use xlink:href="#DejaVuSans-66" x="951.953125"/>
    <use xlink:href="#DejaVuSans-6f" x="987.158203"/>
    <use xlink:href="#DejaVuSans-72" x="1048.339844"/>
    <use xlink:href="#DejaVuSans-20" x="1089.453125"/>
    <use xlink:href="#DejaVuSans-6d" x="1121.240234"/>
    <use xlink:href="#DejaVuSans-6f" x="1218.652344"/>
    <use xlink:href="#DejaVuSans-64" x="1279.833984"/>
    <use xlink:href="#DejaVuSans-65" x="1343.310547"/>
    <use xlink:href="#DejaVuSans-73" x="1404.833984"/>
    <use xlink:href="#DejaVuSans-20" x="1456.933594"/>
    <use xlink:href="#DejaVuSans-6d" x="1488.720703"/>
    <use xlink:href="#DejaVuSans-3d" x="1586.132812"/>
    <use xlink:href="#DejaVuSans-31" x="1669.921875"/>
    <use xlink:href="#DejaVuSans-2e" x="1733.544922"/>
    <use xlink:href="#DejaVuSans-2e" x="1765.332031"/>
    <use xlink:href="#DejaVuSans-35" x="1797.119141"/>
    <use xlink:href="#DejaVuSans-20" x="1860.742188"/>
    <use xlink:href="#DejaVuSans-20" x="1892.529297"/>
    <use xlink:href="#DejaVuSans-5b" x="1924.316406"/>
    <use xlink:href="#DejaVuSans-73" x="1963.330078"/>
    <use xlink:href="#DejaVuSans-65" x="2015.429688"/>
    <use xlink:href="#DejaVuSans-65" x="2076.953125"/>
    <use xlink:href="#DejaVuSans-64" x="2138.476562"/>
    <use xlink:href="#DejaVuSans-5f" x="2201.953125"/>
    <use xlink:href="#DejaVuSans-6d" x="2251.953125"/>
    <use xlink:href="#DejaVuSans-6f" x="2349.365234"/>
    <use xlink:href="#DejaVuSans-64" x="2410.546875"/>
    <use xlink:href="#DejaVuSans-65" x="2474.023438"/>
    <use xlink:href="#DejaVuSans-73" x="2535.546875"/>
    <use xlink:href="#DejaVuSans-5f" x="2587.646484"/>
    <use xlink:href="#DejaVuSans-31" x="2637.646484"/>
    <use xlink:href="#DejaVuSans-74" x="2701.269531"/>
    <use xlink:href="#DejaVuSans-6f" x="2740.478516"/>
    <use xlink:href="#DejaVuSans-35" x="2801.660156"/>
    <use xlink:href="#DejaVuSans-5d" x="2865.283203"/>
   </g>
  </g>
 </g>
 <defs>
  <clipPath id="p93b04e8385">
   <rect x="58.66899" y="20.94822" width="658.33077" height="127.032148"/>
  </clipPath>
  <clipPath id="pe8d16cf868">
   <rect x="58.66899" y="157.480848" width="658.33077" height="127.032148"/>
  </clipPath>
  <clipPath id="p99c4ee99d0">
   <rect x="58.66899" y="294.013477" width="658.33077" height="127.032148"/>
  </clipPath>
  <clipPath id="p2400e23802">
   <rect x="58.66899" y="430.546105" width="658.33077" height="127.032148"/>
  </clipPath>
  <clipPath id="p7ff35cf435">
   <rect x="58.66899" y="567.078733" width="658.33077" height="127.032148"/>
  </clipPath>
  <clipPath id="pa16be99fa0">
   <rect x="58.66899" y="703.611362" width="658.33077" height="127.032148"/>
  </clipPath>
 </defs>
</svg>
