<?xml version="1.0" encoding="utf-8" standalone="no"?>
<!DOCTYPE svg PUBLIC "-//W3C//DTD SVG 1.1//EN"
  "http://www.w3.org/Graphics/SVG/1.1/DTD/svg11.dtd">
<svg xmlns:xlink="http://www.w3.org/1999/xlink" width="691.2pt" height="244.8pt" viewBox="0 0 691.2 244.8" xmlns="http://www.w3.org/2000/svg" version="1.1">
 <metadata>
  <rdf:RDF xmlns:dc="http://purl.org/dc/elements/1.1/" xmlns:cc="http://creativecommons.org/ns#" xmlns:rdf="http://www.w3.org/1999/02/22-rdf-syntax-ns#">
   <cc:Work>
    <dc:type rdf:resource="http://purl.org/dc/dcmitype/StillImage"/>
    <dc:date>2025-08-29T19:06:06.499709</dc:date>
    <dc:format>image/svg+xml</dc:format>
    <dc:creator>
     <cc:Agent>
      <dc:title>Matplotlib v3.8.4, https://matplotlib.org/</dc:title>
     </cc:Agent>
    </dc:creator>
   </cc:Work>
  </rdf:RDF>
 </metadata>
 <defs>
  <style type="text/css">*{stroke-linejoin: round; stroke-linecap: butt}</style>
 </defs>
 <g id="figure_1">
  <g id="patch_1">
   <path d="M 0 244.8 
L 691.2 244.8 
L 691.2 0 
L 0 0 
z
" style="fill: #ffffff"/>
  </g>
  <g id="axes_1">
   <g id="patch_2">
    <path d="M 54.11 202.84 
L 680.4 202.84 
L 680.4 26.88 
L 54.11 26.88 
z
" style="fill: #ffffff"/>
   </g>
   <g id="matplotlib.axis_1">
    <g id="xtick_1">
     <g id="line2d_1">
      <defs>
       <path id="m931b897f34" d="M 0 0 
L 0 3.5 
" style="stroke: #000000; stroke-width: 0.8"/>
      </defs>
      <g>
       <use xlink:href="#m931b897f34" x="82.577727" y="202.84" style="stroke: #000000; stroke-width: 0.8"/>
      </g>
     </g>
     <g id="text_1">
      <!-- 0 -->
      <g transform="translate(79.396477 217.438437) scale(0.1 -0.1)">
       <defs>
        <path id="DejaVuSans-30" d="M 2034 4250 
Q 1547 4250 1301 3770 
Q 1056 3291 1056 2328 
Q 1056 1369 1301 889 
Q 1547 409 2034 409 
Q 2525 409 2770 889 
Q 3016 1369 3016 2328 
Q 3016 3291 2770 3770 
Q 2525 4250 2034 4250 
z
M 2034 4750 
Q 2819 4750 3233 4129 
Q 3647 3509 3647 2328 
Q 3647 1150 3233 529 
Q 2819 -91 2034 -91 
Q 1250 -91 836 529 
Q 422 1150 422 2328 
Q 422 3509 836 4129 
Q 1250 4750 2034 4750 
z
" transform="scale(0.015625)"/>
       </defs>
       <use xlink:href="#DejaVuSans-30"/>
      </g>
     </g>
    </g>
    <g id="xtick_2">
     <g id="line2d_2">
      <g>
       <use xlink:href="#m931b897f34" x="196.671476" y="202.84" style="stroke: #000000; stroke-width: 0.8"/>
      </g>
     </g>
     <g id="text_2">
      <!-- 2 -->
      <g transform="translate(193.490226 217.438437) scale(0.1 -0.1)">
       <defs>
        <path id="DejaVuSans-32" d="M 1228 531 
L 3431 531 
L 3431 0 
L 469 0 
L 469 531 
Q 828 903 1448 1529 
Q 2069 2156 2228 2338 
Q 2531 2678 2651 2914 
Q 2772 3150 2772 3378 
Q 2772 3750 2511 3984 
Q 2250 4219 1831 4219 
Q 1534 4219 1204 4116 
Q 875 4013 500 3803 
L 500 4441 
Q 881 4594 1212 4672 
Q 1544 4750 1819 4750 
Q 2544 4750 2975 4387 
Q 3406 4025 3406 3419 
Q 3406 3131 3298 2873 
Q 3191 2616 2906 2266 
Q 2828 2175 2409 1742 
Q 1991 1309 1228 531 
z
" transform="scale(0.015625)"/>
       </defs>
       <use xlink:href="#DejaVuSans-32"/>
      </g>
     </g>
    </g>
    <g id="xtick_3">
     <g id="line2d_3">
      <g>
       <use xlink:href="#m931b897f34" x="310.765224" y="202.84" style="stroke: #000000; stroke-width: 0.8"/>
      </g>
     </g>
     <g id="text_3">
      <!-- 4 -->
      <g transform="translate(307.583974 217.438437) scale(0.1 -0.1)">
       <defs>
        <path id="DejaVuSans-34" d="M 2419 4116 
L 825 1625 
L 2419 1625 
L 2419 4116 
z
M 2253 4666 
L 3047 4666 
L 3047 1625 
L 3713 1625 
L 3713 1100 
L 3047 1100 
L 3047 0 
L 2419 0 
L 2419 1100 
L 313 1100 
L 313 1709 
L 2253 4666 
z
" transform="scale(0.015625)"/>
       </defs>
       <use xlink:href="#DejaVuSans-34"/>
      </g>
     </g>
    </g>
    <g id="xtick_4">
     <g id="line2d_4">
      <g>
       <use xlink:href="#m931b897f34" x="424.858973" y="202.84" style="stroke: #000000; stroke-width: 0.8"/>
      </g>
     </g>
     <g id="text_4">
      <!-- 6 -->
      <g transform="translate(421.677723 217.438437) scale(0.1 -0.1)">
       <defs>
        <path id="DejaVuSans-36" d="M 2113 2584 
Q 1688 2584 1439 2293 
Q 1191 2003 1191 1497 
Q 1191 994 1439 701 
Q 1688 409 2113 409 
Q 2538 409 2786 701 
Q 3034 994 3034 1497 
Q 3034 2003 2786 2293 
Q 2538 2584 2113 2584 
z
M 3366 4563 
L 3366 3988 
Q 3128 4100 2886 4159 
Q 2644 4219 2406 4219 
Q 1781 4219 1451 3797 
Q 1122 3375 1075 2522 
Q 1259 2794 1537 2939 
Q 1816 3084 2150 3084 
Q 2853 3084 3261 2657 
Q 3669 2231 3669 1497 
Q 3669 778 3244 343 
Q 2819 -91 2113 -91 
Q 1303 -91 875 529 
Q 447 1150 447 2328 
Q 447 3434 972 4092 
Q 1497 4750 2381 4750 
Q 2619 4750 2861 4703 
Q 3103 4656 3366 4563 
z
" transform="scale(0.015625)"/>
       </defs>
       <use xlink:href="#DejaVuSans-36"/>
      </g>
     </g>
    </g>
    <g id="xtick_5">
     <g id="line2d_5">
      <g>
       <use xlink:href="#m931b897f34" x="538.952721" y="202.84" style="stroke: #000000; stroke-width: 0.8"/>
      </g>
     </g>
     <g id="text_5">
      <!-- 8 -->
      <g transform="translate(535.771471 217.438437) scale(0.1 -0.1)">
       <defs>
        <path id="DejaVuSans-38" d="M 2034 2216 
Q 1584 2216 1326 1975 
Q 1069 1734 1069 1313 
Q 1069 891 1326 650 
Q 1584 409 2034 409 
Q 2484 409 2743 651 
Q 3003 894 3003 1313 
Q 3003 1734 2745 1975 
Q 2488 2216 2034 2216 
z
M 1403 2484 
Q 997 2584 770 2862 
Q 544 3141 544 3541 
Q 544 4100 942 4425 
Q 1341 4750 2034 4750 
Q 2731 4750 3128 4425 
Q 3525 4100 3525 3541 
Q 3525 3141 3298 2862 
Q 3072 2584 2669 2484 
Q 3125 2378 3379 2068 
Q 3634 1759 3634 1313 
Q 3634 634 3220 271 
Q 2806 -91 2034 -91 
Q 1263 -91 848 271 
Q 434 634 434 1313 
Q 434 1759 690 2068 
Q 947 2378 1403 2484 
z
M 1172 3481 
Q 1172 3119 1398 2916 
Q 1625 2713 2034 2713 
Q 2441 2713 2670 2916 
Q 2900 3119 2900 3481 
Q 2900 3844 2670 4047 
Q 2441 4250 2034 4250 
Q 1625 4250 1398 4047 
Q 1172 3844 1172 3481 
z
" transform="scale(0.015625)"/>
       </defs>
       <use xlink:href="#DejaVuSans-38"/>
      </g>
     </g>
    </g>
    <g id="xtick_6">
     <g id="line2d_6">
      <g>
       <use xlink:href="#m931b897f34" x="653.046469" y="202.84" style="stroke: #000000; stroke-width: 0.8"/>
      </g>
     </g>
     <g id="text_6">
      <!-- 10 -->
      <g transform="translate(646.683969 217.438437) scale(0.1 -0.1)">
       <defs>
        <path id="DejaVuSans-31" d="M 794 531 
L 1825 531 
L 1825 4091 
L 703 3866 
L 703 4441 
L 1819 4666 
L 2450 4666 
L 2450 531 
L 3481 531 
L 3481 0 
L 794 0 
L 794 531 
z
" transform="scale(0.015625)"/>
       </defs>
       <use xlink:href="#DejaVuSans-31"/>
       <use xlink:href="#DejaVuSans-30" x="63.623047"/>
      </g>
     </g>
    </g>
    <g id="text_7">
     <!-- x -->
     <g transform="translate(364.295625 231.116562) scale(0.1 -0.1)">
      <defs>
       <path id="DejaVuSans-78" d="M 3513 3500 
L 2247 1797 
L 3578 0 
L 2900 0 
L 1881 1375 
L 863 0 
L 184 0 
L 1544 1831 
L 300 3500 
L 978 3500 
L 1906 2253 
L 2834 3500 
L 3513 3500 
z
" transform="scale(0.015625)"/>
      </defs>
      <use xlink:href="#DejaVuSans-78"/>
     </g>
    </g>
   </g>
   <g id="matplotlib.axis_2">
    <g id="ytick_1">
     <g id="line2d_7">
      <defs>
       <path id="m4b7e70e484" d="M 0 0 
L -3.5 0 
" style="stroke: #000000; stroke-width: 0.8"/>
      </defs>
      <g>
       <use xlink:href="#m4b7e70e484" x="54.11" y="198.920272" style="stroke: #000000; stroke-width: 0.8"/>
      </g>
     </g>
     <g id="text_8">
      <!-- 0.16 -->
      <g transform="translate(24.844375 202.719491) scale(0.1 -0.1)">
       <defs>
        <path id="DejaVuSans-2e" d="M 684 794 
L 1344 794 
L 1344 0 
L 684 0 
L 684 794 
z
" transform="scale(0.015625)"/>
       </defs>
       <use xlink:href="#DejaVuSans-30"/>
       <use xlink:href="#DejaVuSans-2e" x="63.623047"/>
       <use xlink:href="#DejaVuSans-31" x="95.410156"/>
       <use xlink:href="#DejaVuSans-36" x="159.033203"/>
      </g>
     </g>
    </g>
    <g id="ytick_2">
     <g id="line2d_8">
      <g>
       <use xlink:href="#m4b7e70e484" x="54.11" y="164.62808" style="stroke: #000000; stroke-width: 0.8"/>
      </g>
     </g>
     <g id="text_9">
      <!-- 0.18 -->
      <g transform="translate(24.844375 168.427299) scale(0.1 -0.1)">
       <use xlink:href="#DejaVuSans-30"/>
       <use xlink:href="#DejaVuSans-2e" x="63.623047"/>
       <use xlink:href="#DejaVuSans-31" x="95.410156"/>
       <use xlink:href="#DejaVuSans-38" x="159.033203"/>
      </g>
     </g>
    </g>
    <g id="ytick_3">
     <g id="line2d_9">
      <g>
       <use xlink:href="#m4b7e70e484" x="54.11" y="130.335889" style="stroke: #000000; stroke-width: 0.8"/>
      </g>
     </g>
     <g id="text_10">
      <!-- 0.20 -->
      <g transform="translate(24.844375 134.135107) scale(0.1 -0.1)">
       <use xlink:href="#DejaVuSans-30"/>
       <use xlink:href="#DejaVuSans-2e" x="63.623047"/>
       <use xlink:href="#DejaVuSans-32" x="95.410156"/>
       <use xlink:href="#DejaVuSans-30" x="159.033203"/>
      </g>
     </g>
    </g>
    <g id="ytick_4">
     <g id="line2d_10">
      <g>
       <use xlink:href="#m4b7e70e484" x="54.11" y="96.043697" style="stroke: #000000; stroke-width: 0.8"/>
      </g>
     </g>
     <g id="text_11">
      <!-- 0.22 -->
      <g transform="translate(24.844375 99.842916) scale(0.1 -0.1)">
       <use xlink:href="#DejaVuSans-30"/>
       <use xlink:href="#DejaVuSans-2e" x="63.623047"/>
       <use xlink:href="#DejaVuSans-32" x="95.410156"/>
       <use xlink:href="#DejaVuSans-32" x="159.033203"/>
      </g>
     </g>
    </g>
    <g id="ytick_5">
     <g id="line2d_11">
      <g>
       <use xlink:href="#m4b7e70e484" x="54.11" y="61.751505" style="stroke: #000000; stroke-width: 0.8"/>
      </g>
     </g>
     <g id="text_12">
      <!-- 0.24 -->
      <g transform="translate(24.844375 65.550724) scale(0.1 -0.1)">
       <use xlink:href="#DejaVuSans-30"/>
       <use xlink:href="#DejaVuSans-2e" x="63.623047"/>
       <use xlink:href="#DejaVuSans-32" x="95.410156"/>
       <use xlink:href="#DejaVuSans-34" x="159.033203"/>
      </g>
     </g>
    </g>
    <g id="ytick_6">
     <g id="line2d_12">
      <g>
       <use xlink:href="#m4b7e70e484" x="54.11" y="27.459313" style="stroke: #000000; stroke-width: 0.8"/>
      </g>
     </g>
     <g id="text_13">
      <!-- 0.26 -->
      <g transform="translate(24.844375 31.258532) scale(0.1 -0.1)">
       <use xlink:href="#DejaVuSans-30"/>
       <use xlink:href="#DejaVuSans-2e" x="63.623047"/>
       <use xlink:href="#DejaVuSans-32" x="95.410156"/>
       <use xlink:href="#DejaVuSans-36" x="159.033203"/>
      </g>
     </g>
    </g>
    <g id="text_14">
     <!-- n -->
     <g transform="translate(18.764688 118.02875) rotate(-90) scale(0.1 -0.1)">
      <defs>
       <path id="DejaVuSans-6e" d="M 3513 2113 
L 3513 0 
L 2938 0 
L 2938 2094 
Q 2938 2591 2744 2837 
Q 2550 3084 2163 3084 
Q 1697 3084 1428 2787 
Q 1159 2491 1159 1978 
L 1159 0 
L 581 0 
L 581 3500 
L 1159 3500 
L 1159 2956 
Q 1366 3272 1645 3428 
Q 1925 3584 2291 3584 
Q 2894 3584 3203 3211 
Q 3513 2838 3513 2113 
z
" transform="scale(0.015625)"/>
      </defs>
      <use xlink:href="#DejaVuSans-6e"/>
     </g>
    </g>
   </g>
   <g id="line2d_13">
    <path d="M 82.577727 96.043697 
L 84.806121 96.136613 
L 87.034514 96.414858 
L 89.262908 96.876924 
L 91.491301 97.520307 
L 93.719695 98.341521 
L 95.948088 99.336114 
L 99.290679 101.141053 
L 102.633269 103.301762 
L 105.975859 105.79191 
L 109.31845 108.581152 
L 112.66104 111.6355 
L 117.117827 116.055606 
L 121.574614 120.784838 
L 128.259795 128.233066 
L 139.401762 140.692335 
L 143.858549 145.377001 
L 148.315336 149.736072 
L 151.657927 152.734617 
L 155.000517 155.460209 
L 158.343107 157.879635 
L 161.685697 159.963411 
L 165.028288 161.686145 
L 167.256681 162.623498 
L 169.485075 163.385882 
L 171.713468 163.969165 
L 173.941862 164.370187 
L 176.170255 164.586774 
L 178.398649 164.617752 
L 180.627042 164.462954 
L 182.855436 164.123218 
L 185.083829 163.600386 
L 187.312223 162.897291 
L 189.540616 162.017743 
L 191.76901 160.966508 
L 195.1116 159.080451 
L 198.454191 156.844111 
L 201.796781 154.284741 
L 205.139371 151.433528 
L 208.481961 148.325219 
L 212.938748 143.846739 
L 218.509732 137.84935 
L 228.537503 126.556128 
L 235.222684 119.180286 
L 239.679471 114.543007 
L 244.136258 110.247596 
L 247.478848 107.30666 
L 250.821438 104.64636 
L 254.164029 102.299113 
L 257.506619 100.293525 
L 260.849209 98.654035 
L 263.077603 97.774486 
L 265.305996 97.071391 
L 267.53439 96.548559 
L 269.762783 96.208823 
L 271.991177 96.054025 
L 274.21957 96.085003 
L 276.447964 96.30159 
L 278.676357 96.702612 
L 280.904751 97.285895 
L 283.133144 98.048279 
L 285.361538 98.985632 
L 287.589932 100.092876 
L 290.932522 102.058914 
L 294.275112 104.369538 
L 297.617702 106.996589 
L 300.960293 109.908054 
L 304.302883 113.068454 
L 308.75967 117.602608 
L 314.330654 123.645814 
L 333.271999 144.616171 
L 337.728786 149.036278 
L 341.071376 152.090625 
L 344.413966 154.879867 
L 347.756557 157.370015 
L 351.099147 159.530724 
L 354.441737 161.335663 
L 356.670131 162.330257 
L 358.898524 163.15147 
L 361.126918 163.794853 
L 363.355311 164.256919 
L 365.583705 164.535164 
L 367.812098 164.62808 
L 370.040492 164.535164 
L 372.268885 164.256919 
L 374.497279 163.794853 
L 376.725672 163.15147 
L 378.954066 162.330257 
L 381.18246 161.335663 
L 384.52505 159.530724 
L 387.86764 157.370015 
L 391.21023 154.879867 
L 394.552821 152.090625 
L 397.895411 149.036278 
L 402.352198 144.616171 
L 406.808985 139.886939 
L 413.494166 132.438711 
L 424.636133 119.979443 
L 429.09292 115.294776 
L 433.549707 110.935705 
L 436.892298 107.93716 
L 440.234888 105.211568 
L 443.577478 102.792142 
L 446.920068 100.708366 
L 450.262659 98.985632 
L 452.491052 98.048279 
L 454.719446 97.285895 
L 456.947839 96.702612 
L 459.176233 96.30159 
L 461.404626 96.085003 
L 463.63302 96.054025 
L 465.861413 96.208823 
L 468.089807 96.548559 
L 470.3182 97.071391 
L 472.546594 97.774486 
L 474.774988 98.654035 
L 477.003381 99.70527 
L 480.345971 101.591326 
L 483.688562 103.827666 
L 487.031152 106.387036 
L 490.373742 109.238249 
L 493.716333 112.346559 
L 498.17312 116.825038 
L 503.744103 122.822427 
L 513.771874 134.11565 
L 520.457055 141.491492 
L 524.913842 146.12877 
L 529.370629 150.424181 
L 532.713219 153.365117 
L 536.055809 156.025417 
L 539.3984 158.372664 
L 542.74099 160.378252 
L 546.08358 162.017743 
L 548.311974 162.897291 
L 550.540367 163.600386 
L 552.768761 164.123218 
L 554.997154 164.462954 
L 557.225548 164.617752 
L 559.453941 164.586774 
L 561.682335 164.370187 
L 563.910729 163.969165 
L 566.139122 163.385882 
L 568.367516 162.623498 
L 570.595909 161.686145 
L 572.824303 160.578902 
L 576.166893 158.612863 
L 579.509483 156.30224 
L 582.852073 153.675189 
L 586.194664 150.763723 
L 589.537254 147.603323 
L 593.994041 143.069169 
L 599.565025 137.025963 
L 618.50637 116.055606 
L 622.963157 111.6355 
L 626.305747 108.581152 
L 629.648337 105.79191 
L 632.990928 103.301762 
L 636.333518 101.141053 
L 639.676108 99.336114 
L 641.904502 98.341521 
L 644.132895 97.520307 
L 646.361289 96.876924 
L 648.589682 96.414858 
L 650.818076 96.136613 
L 651.932273 96.066934 
L 651.932273 96.066934 
" clip-path="url(#p8dce9bc3d7)" style="fill: none; stroke: #1f77b4; stroke-width: 1.5; stroke-linecap: square"/>
   </g>
   <g id="line2d_14">
    <path d="M 82.577727 73.080237 
L 92.605498 59.385127 
L 101.519072 47.667109 
L 107.090056 40.549727 
L 110.432646 36.497095 
L 111.546843 35.491798 
L 112.66104 34.878182 
L 113.775237 35.811353 
L 114.889433 39.733682 
L 116.00363 46.447854 
L 121.574614 85.823506 
L 123.803007 99.533445 
L 126.031401 111.895936 
L 128.259795 123.015187 
L 130.488188 133.023315 
L 132.716582 141.985273 
L 134.944975 149.981341 
L 137.173369 157.114537 
L 139.401762 163.432934 
L 141.630156 168.997665 
L 143.858549 173.889701 
L 146.086943 178.142736 
L 148.315336 181.804435 
L 150.54373 184.939247 
L 152.772123 187.569364 
L 155.000517 189.732995 
L 157.22891 191.481944 
L 159.457304 192.829457 
L 161.685697 193.807225 
L 163.914091 194.457134 
L 166.142484 194.785627 
L 168.370878 194.820009 
L 170.599271 194.594182 
L 172.827665 194.10955 
L 175.056059 193.39054 
L 177.284452 192.464464 
L 179.512846 191.329129 
L 181.741239 190.007102 
L 185.083829 187.707452 
L 188.42642 185.05892 
L 191.76901 182.098565 
L 195.1116 178.859875 
L 199.568387 174.161519 
L 204.025174 169.089423 
L 209.596158 162.296464 
L 215.167142 155.106416 
L 221.852323 146.066926 
L 229.6517 135.111189 
L 238.565274 122.265926 
L 264.1918 85.111385 
L 273.105374 72.564208 
L 283.133144 58.886681 
L 293.160915 45.732558 
L 299.846096 37.30806 
L 300.960293 36.137753 
L 302.074489 35.21283 
L 303.188686 34.930739 
L 304.302883 36.751801 
L 305.41708 41.728 
L 306.531276 49.043461 
L 310.988064 80.951954 
L 313.216457 95.12638 
L 315.444851 107.907775 
L 317.673244 119.439717 
L 319.901638 129.814087 
L 322.130031 139.101251 
L 324.358425 147.41769 
L 326.586818 154.835588 
L 328.815212 161.406815 
L 331.043605 167.222491 
L 333.271999 172.336547 
L 335.500392 176.787027 
L 337.728786 180.646973 
L 339.957179 183.955546 
L 342.185573 186.740689 
L 344.413966 189.06223 
L 346.64236 190.94758 
L 348.870753 192.417538 
L 351.099147 193.522056 
L 353.32754 194.279224 
L 355.555934 194.705022 
L 357.784328 194.841818 
L 360.012721 194.700325 
L 362.241115 194.293483 
L 364.469508 193.657636 
L 366.697902 192.7977 
L 368.926295 191.724881 
L 371.154689 190.470576 
L 374.497279 188.253905 
L 377.839869 185.679568 
L 381.18246 182.785486 
L 384.52505 179.605901 
L 388.981837 174.970687 
L 393.438624 169.956929 
L 397.895411 164.612262 
L 403.466395 157.543743 
L 409.037379 150.130662 
L 415.722559 140.893769 
L 424.636133 128.187473 
L 459.176233 78.27388 
L 468.089807 65.92712 
L 475.889184 55.429813 
L 483.688562 45.259403 
L 490.373742 36.886426 
L 491.487939 35.803224 
L 492.602136 34.992937 
L 493.716333 35.220189 
L 494.830529 38.062444 
L 495.944726 43.988078 
L 498.17312 59.921599 
L 500.401513 75.925193 
L 502.629907 90.552576 
L 504.8583 103.787098 
L 507.086694 115.739306 
L 509.315087 126.475873 
L 511.543481 136.114036 
L 513.771874 144.75696 
L 516.000268 152.455991 
L 518.228661 159.300856 
L 520.457055 165.371359 
L 522.685448 170.704036 
L 524.913842 175.369638 
L 527.142235 179.429588 
L 529.370629 182.908723 
L 531.599022 185.864422 
L 533.827416 188.343735 
L 536.055809 190.362637 
L 538.284203 191.968983 
L 540.512597 193.198449 
L 542.74099 194.060564 
L 544.969384 194.596335 
L 547.197777 194.83231 
L 549.426171 194.773541 
L 551.654564 194.456035 
L 553.882958 193.898914 
L 556.111351 193.10433 
L 558.339745 192.104525 
L 560.568138 190.912529 
L 563.910729 188.780635 
L 567.253319 186.282101 
L 570.595909 183.455733 
L 573.938499 180.336552 
L 578.395286 175.773883 
L 582.852073 170.814068 
L 587.308861 165.523888 
L 592.879844 158.504606 
L 598.450828 151.139177 
L 606.250205 140.371168 
L 614.049583 129.257039 
L 628.534141 108.191129 
L 641.904502 88.824519 
L 650.818076 76.192838 
L 651.932273 74.638889 
L 651.932273 74.638889 
" clip-path="url(#p8dce9bc3d7)" style="fill: none; stroke: #ff7f0e; stroke-width: 1.5; stroke-linecap: square"/>
   </g>
   <g id="line2d_15">
    <path d="M 82.577727 179.96774 
L 84.806121 179.252557 
L 88.148711 177.872573 
L 91.491301 176.159238 
L 94.833892 174.148171 
L 98.176482 171.871657 
L 101.519072 169.359041 
L 105.975859 165.687232 
L 110.432646 161.700266 
L 116.00363 156.349845 
L 121.574614 150.673286 
L 128.259795 143.537414 
L 137.173369 133.658602 
L 169.485075 97.429142 
L 177.284452 89.149461 
L 185.083829 81.217045 
L 191.76901 74.739378 
L 197.339994 69.591439 
L 202.910978 64.705253 
L 207.367765 61.056899 
L 209.596158 59.87093 
L 210.710355 59.501901 
L 211.824552 60.035966 
L 212.938748 62.259097 
L 214.052945 66.260296 
L 215.167142 71.476074 
L 220.738126 100.139588 
L 222.966519 110.264157 
L 225.194913 119.436982 
L 227.423306 127.718097 
L 229.6517 135.173296 
L 231.880093 141.86716 
L 234.108487 147.856203 
L 236.33688 153.192769 
L 238.565274 157.927247 
L 240.793667 162.103608 
L 243.022061 165.762416 
L 245.250455 168.943041 
L 247.478848 171.679812 
L 249.707242 174.004232 
L 251.935635 175.947411 
L 254.164029 177.53622 
L 256.392422 178.795169 
L 258.620816 179.749455 
L 260.849209 180.41954 
L 263.077603 180.825456 
L 265.305996 180.987021 
L 267.53439 180.920511 
L 269.762783 180.642039 
L 271.991177 180.167527 
L 274.21957 179.50997 
L 276.447964 178.682451 
L 279.790554 177.149697 
L 283.133144 175.299858 
L 286.475735 173.167021 
L 289.818325 170.782121 
L 293.160915 168.1733 
L 297.617702 164.390778 
L 302.074489 160.310321 
L 307.645473 154.864693 
L 313.216457 149.114058 
L 319.901638 141.914341 
L 328.815212 131.986677 
L 357.784328 99.443623 
L 366.697902 89.924289 
L 374.497279 81.955254 
L 381.18246 75.443819 
L 387.86764 69.258581 
L 394.552821 63.488842 
L 396.781214 61.588756 
L 397.895411 60.82878 
L 400.123804 59.703061 
L 401.238001 59.532922 
L 402.352198 60.566685 
L 403.466395 63.414991 
L 404.580592 67.89898 
L 406.808985 79.240958 
L 410.151575 96.545914 
L 412.379969 106.997701 
L 414.608362 116.482347 
L 416.836756 125.052142 
L 419.065149 132.775828 
L 421.293543 139.717392 
L 423.521936 145.934465 
L 425.75033 151.483117 
L 427.978724 156.413618 
L 430.207117 160.770623 
L 432.435511 164.597725 
L 434.663904 167.934163 
L 436.892298 170.814611 
L 439.120691 173.273146 
L 441.349085 175.340766 
L 443.577478 177.044074 
L 445.805872 178.410582 
L 448.034265 179.464241 
L 450.262659 180.226139 
L 452.491052 180.718319 
L 454.719446 180.959527 
L 456.947839 180.966697 
L 459.176233 180.757496 
L 461.404626 180.346851 
L 463.63302 179.74839 
L 465.861413 178.976458 
L 469.204004 177.519145 
L 472.546594 175.736704 
L 475.889184 173.663978 
L 479.231775 171.332567 
L 482.574365 168.771207 
L 487.031152 165.043136 
L 491.487939 161.00895 
L 497.058923 155.609944 
L 502.629907 149.895839 
L 509.315087 142.727359 
L 518.228661 132.823361 
L 549.426171 97.83099 
L 557.225548 89.536429 
L 565.024925 81.585701 
L 571.710106 75.091115 
L 578.395286 68.928561 
L 586.194664 62.205324 
L 587.308861 61.310092 
L 589.537254 60.053342 
L 590.651451 59.570295 
L 591.765648 59.699881 
L 592.879844 61.306802 
L 593.994041 64.756699 
L 595.108238 69.645881 
L 598.450828 87.117478 
L 600.679222 98.35627 
L 602.907615 108.644205 
L 605.136009 117.972292 
L 607.364402 126.396752 
L 609.592796 133.985195 
L 611.821189 140.802245 
L 614.049583 146.904526 
L 616.277976 152.346349 
L 618.50637 157.178324 
L 620.734763 161.444407 
L 622.963157 165.18674 
L 625.19155 168.44488 
L 627.419944 171.253024 
L 629.648337 173.643993 
L 631.876731 175.649115 
L 634.105125 177.294788 
L 636.333518 178.607109 
L 638.561912 179.610891 
L 640.790305 180.326544 
L 643.018699 180.775286 
L 645.247092 180.976522 
L 647.475486 180.946572 
L 649.703879 180.702495 
L 651.932273 180.259801 
L 651.932273 180.259801 
" clip-path="url(#p8dce9bc3d7)" style="fill: none; stroke: #2ca02c; stroke-width: 1.5; stroke-linecap: square"/>
   </g>
   <g id="line2d_16">
    <path d="M 82.577727 76.037718 
L 89.262908 70.159287 
L 94.833892 65.570068 
L 98.176482 62.994349 
L 99.290679 62.327728 
L 100.404875 61.833853 
L 101.519072 61.569405 
L 102.633269 62.033694 
L 103.747466 63.967844 
L 104.861663 67.633301 
L 105.975859 72.593828 
L 112.66104 105.682108 
L 114.889433 115.156474 
L 117.117827 123.727511 
L 119.34622 131.458214 
L 121.574614 138.40856 
L 123.803007 144.638466 
L 126.031401 150.202904 
L 128.259795 155.149818 
L 130.488188 159.526084 
L 132.716582 163.374591 
L 134.944975 166.732636 
L 137.173369 169.636891 
L 139.401762 172.120894 
L 141.630156 174.213751 
L 143.858549 175.94438 
L 146.086943 177.33916 
L 148.315336 178.420929 
L 150.54373 179.212703 
L 152.772123 179.735367 
L 155.000517 180.006969 
L 157.22891 180.046009 
L 159.457304 179.869151 
L 161.685697 179.490766 
L 163.914091 178.925893 
L 166.142484 178.187929 
L 169.485075 176.782315 
L 172.827665 175.052724 
L 176.170255 173.033984 
L 179.512846 170.757696 
L 182.855436 168.252607 
L 187.312223 164.601346 
L 191.76901 160.645839 
L 197.339994 155.349109 
L 202.910978 149.740627 
L 209.596158 142.704205 
L 218.509732 132.985869 
L 247.478848 101.118592 
L 255.278225 92.960307 
L 263.077603 85.143277 
L 269.762783 78.766606 
L 276.447964 72.728629 
L 282.018948 67.985356 
L 286.475735 64.417698 
L 288.704128 62.750093 
L 289.818325 62.146591 
L 290.932522 61.706646 
L 292.046719 61.604928 
L 293.160915 62.486176 
L 294.275112 65.007462 
L 295.389309 69.176465 
L 297.617702 80.123037 
L 300.960293 97.063127 
L 303.188686 107.32605 
L 305.41708 116.646569 
L 307.645473 125.072472 
L 309.873867 132.668909 
L 312.10226 139.495716 
L 314.330654 145.610603 
L 316.559047 151.068794 
L 318.787441 155.917897 
L 321.015834 160.202988 
L 323.244228 163.96717 
L 325.472621 167.247483 
L 327.701015 170.079148 
L 329.929408 172.495958 
L 332.157802 174.526807 
L 334.386196 176.199417 
L 336.614589 177.540472 
L 338.842983 178.572626 
L 341.071376 179.317886 
L 343.29977 179.797497 
L 345.528163 180.029324 
L 347.756557 180.031011 
L 349.98495 179.819624 
L 352.213344 179.409346 
L 354.441737 178.814481 
L 356.670131 178.048861 
L 360.012721 176.605427 
L 363.355311 174.842056 
L 366.697902 172.7932 
L 370.040492 170.490125 
L 373.383082 167.961279 
L 377.839869 164.282541 
L 382.296656 160.30418 
L 387.86764 154.98392 
L 393.438624 149.357541 
L 400.123804 142.305677 
L 410.151575 131.343693 
L 435.778101 103.102617 
L 444.691675 93.72395 
L 452.491052 85.870866 
L 459.176233 79.458358 
L 465.861413 73.380902 
L 471.432397 68.60365 
L 475.889184 64.997411 
L 478.117578 63.258764 
L 479.231775 62.528073 
L 480.345971 61.982057 
L 481.460168 61.61205 
L 482.574365 61.749243 
L 483.688562 63.127324 
L 484.802758 66.235569 
L 485.916955 70.838631 
L 488.145349 82.055678 
L 491.487939 98.839359 
L 493.716333 108.943556 
L 495.944726 118.111647 
L 498.17312 126.394588 
L 500.401513 133.85818 
L 502.629907 140.563 
L 504.8583 146.564649 
L 507.086694 151.917731 
L 509.315087 156.670236 
L 511.543481 160.865542 
L 513.771874 164.546275 
L 516.000268 167.749812 
L 518.228661 170.509985 
L 520.457055 172.860266 
L 522.685448 174.829868 
L 524.913842 176.445334 
L 527.142235 177.733167 
L 529.370629 178.716319 
L 531.599022 179.415771 
L 533.827416 179.852703 
L 536.055809 180.045258 
L 538.284203 180.010168 
L 540.512597 179.764529 
L 542.74099 179.322779 
L 544.969384 178.698394 
L 547.197777 177.905321 
L 550.540367 176.424534 
L 553.882958 174.627808 
L 557.225548 172.54922 
L 560.568138 170.219707 
L 565.024925 166.771454 
L 569.481712 162.987386 
L 573.938499 158.920143 
L 579.509483 153.51038 
L 586.194664 146.648191 
L 593.994041 138.28568 
L 606.250205 124.743636 
L 622.963157 106.306029 
L 631.876731 96.807109 
L 639.676108 88.81874 
L 646.361289 82.269532 
L 651.932273 77.052852 
L 651.932273 77.052852 
" clip-path="url(#p8dce9bc3d7)" style="fill: none; stroke: #d62728; stroke-width: 1.5; stroke-linecap: square"/>
   </g>
   <g id="line2d_17">
    <path d="M 82.577727 159.79049 
L 88.148711 154.441661 
L 93.719695 148.794616 
L 101.519072 140.525439 
L 111.546843 129.522889 
L 133.830778 104.956886 
L 142.744352 95.519641 
L 150.54373 87.599891 
L 157.22891 81.118645 
L 163.914091 74.963627 
L 169.485075 70.114422 
L 175.056059 65.561267 
L 178.398649 62.999051 
L 180.627042 61.926795 
L 181.741239 61.685889 
L 182.855436 62.289185 
L 183.969633 64.458462 
L 185.083829 68.326649 
L 186.198026 73.384192 
L 191.76901 101.286483 
L 193.997403 111.165169 
L 196.225797 120.117615 
L 198.454191 128.199162 
L 200.682584 135.474893 
L 202.910978 142.006702 
L 205.139371 147.848774 
L 207.367765 153.053457 
L 209.596158 157.669287 
L 211.824552 161.738455 
L 214.052945 165.301701 
L 216.281339 168.396945 
L 218.509732 171.057063 
L 220.738126 173.313983 
L 222.966519 175.197515 
L 225.194913 176.733386 
L 227.423306 177.946821 
L 229.6517 178.861433 
L 231.880093 179.497461 
L 234.108487 179.875022 
L 236.33688 180.012981 
L 238.565274 179.927362 
L 240.793667 179.634366 
L 243.022061 179.149219 
L 245.250455 178.48469 
L 247.478848 177.653941 
L 250.821438 176.122342 
L 254.164029 174.280648 
L 257.506619 172.162322 
L 260.849209 169.797765 
L 265.305996 166.30964 
L 269.762783 162.492358 
L 274.21957 158.397808 
L 279.790554 152.962008 
L 286.475735 146.078222 
L 294.275112 137.702094 
L 306.531276 124.160808 
L 322.130031 106.964085 
L 331.043605 97.4552 
L 338.842983 89.452271 
L 345.528163 82.88797 
L 352.213344 76.638302 
L 357.784328 71.696175 
L 363.355311 67.012658 
L 367.812098 63.499997 
L 368.926295 62.781439 
L 371.154689 61.800391 
L 372.268885 61.7522 
L 373.383082 62.815044 
L 374.497279 65.575303 
L 375.611476 69.914054 
L 377.839869 80.927176 
L 381.18246 97.781783 
L 383.410853 107.978147 
L 385.639247 117.233538 
L 387.86764 125.597325 
L 390.096034 133.135636 
L 392.324427 139.908889 
L 394.552821 145.974228 
L 396.781214 151.386564 
L 399.009608 156.193618 
L 401.238001 160.439821 
L 403.466395 164.167976 
L 405.694788 167.415265 
L 407.923182 170.21634 
L 410.151575 172.604779 
L 412.379969 174.609654 
L 414.608362 176.258159 
L 416.836756 177.576856 
L 419.065149 178.588586 
L 421.293543 179.314857 
L 423.521936 179.776872 
L 425.75033 179.992689 
L 427.978724 179.979461 
L 430.207117 179.75429 
L 432.435511 179.331553 
L 434.663904 178.725046 
L 436.892298 177.948719 
L 440.234888 176.490997 
L 443.577478 174.715294 
L 446.920068 172.655652 
L 450.262659 170.343283 
L 453.605249 167.806537 
L 458.062036 164.119206 
L 462.518823 160.134341 
L 468.089807 154.808421 
L 473.660791 149.178932 
L 480.345971 142.1263 
L 490.373742 131.168473 
L 514.886071 104.157174 
L 523.799645 94.750644 
L 531.599022 86.864487 
L 538.284203 80.417351 
L 544.969384 74.303098 
L 550.540367 69.492713 
L 554.997154 65.850063 
L 558.339745 63.238826 
L 559.453941 62.584034 
L 560.568138 62.074253 
L 561.682335 61.711949 
L 562.796532 61.943137 
L 563.910729 63.536459 
L 565.024925 66.871944 
L 566.139122 71.608081 
L 569.481712 88.593314 
L 571.710106 99.547068 
L 573.938499 109.584629 
L 576.166893 118.687933 
L 578.395286 126.909524 
L 580.62368 134.31569 
L 582.852073 140.96757 
L 585.080467 146.920428 
L 587.308861 152.228262 
L 589.537254 156.939197 
L 591.765648 161.096221 
L 593.994041 164.741395 
L 596.222435 167.91227 
L 598.450828 170.642342 
L 600.679222 172.964611 
L 602.907615 174.908514 
L 605.136009 176.500279 
L 607.364402 177.766023 
L 609.592796 178.728963 
L 611.821189 179.409767 
L 614.049583 179.829302 
L 616.277976 180.006013 
L 618.50637 179.956302 
L 620.734763 179.697018 
L 622.963157 179.242942 
L 625.19155 178.607179 
L 627.419944 177.80348 
L 630.762534 176.308587 
L 634.105125 174.499692 
L 637.447715 172.410529 
L 640.790305 170.071896 
L 645.247092 166.613598 
L 649.703879 162.821694 
L 651.932273 160.816885 
L 651.932273 160.816885 
" clip-path="url(#p8dce9bc3d7)" style="fill: none; stroke: #9467bd; stroke-width: 1.5; stroke-linecap: square"/>
   </g>
   <g id="patch_3">
    <path d="M 54.11 202.84 
L 54.11 26.88 
" style="fill: none; stroke: #000000; stroke-width: 0.8; stroke-linejoin: miter; stroke-linecap: square"/>
   </g>
   <g id="patch_4">
    <path d="M 680.4 202.84 
L 680.4 26.88 
" style="fill: none; stroke: #000000; stroke-width: 0.8; stroke-linejoin: miter; stroke-linecap: square"/>
   </g>
   <g id="patch_5">
    <path d="M 54.11 202.84 
L 680.4 202.84 
" style="fill: none; stroke: #000000; stroke-width: 0.8; stroke-linejoin: miter; stroke-linecap: square"/>
   </g>
   <g id="patch_6">
    <path d="M 54.11 26.88 
L 680.4 26.88 
" style="fill: none; stroke: #000000; stroke-width: 0.8; stroke-linejoin: miter; stroke-linecap: square"/>
   </g>
   <g id="text_15">
    <!-- Density snapshots  drift_run -->
    <g transform="translate(282.859375 20.88) scale(0.12 -0.12)">
     <defs>
      <path id="DejaVuSans-44" d="M 1259 4147 
L 1259 519 
L 2022 519 
Q 2988 519 3436 956 
Q 3884 1394 3884 2338 
Q 3884 3275 3436 3711 
Q 2988 4147 2022 4147 
L 1259 4147 
z
M 628 4666 
L 1925 4666 
Q 3281 4666 3915 4102 
Q 4550 3538 4550 2338 
Q 4550 1131 3912 565 
Q 3275 0 1925 0 
L 628 0 
L 628 4666 
z
" transform="scale(0.015625)"/>
      <path id="DejaVuSans-65" d="M 3597 1894 
L 3597 1613 
L 953 1613 
Q 991 1019 1311 708 
Q 1631 397 2203 397 
Q 2534 397 2845 478 
Q 3156 559 3463 722 
L 3463 178 
Q 3153 47 2828 -22 
Q 2503 -91 2169 -91 
Q 1331 -91 842 396 
Q 353 884 353 1716 
Q 353 2575 817 3079 
Q 1281 3584 2069 3584 
Q 2775 3584 3186 3129 
Q 3597 2675 3597 1894 
z
M 3022 2063 
Q 3016 2534 2758 2815 
Q 2500 3097 2075 3097 
Q 1594 3097 1305 2825 
Q 1016 2553 972 2059 
L 3022 2063 
z
" transform="scale(0.015625)"/>
      <path id="DejaVuSans-73" d="M 2834 3397 
L 2834 2853 
Q 2591 2978 2328 3040 
Q 2066 3103 1784 3103 
Q 1356 3103 1142 2972 
Q 928 2841 928 2578 
Q 928 2378 1081 2264 
Q 1234 2150 1697 2047 
L 1894 2003 
Q 2506 1872 2764 1633 
Q 3022 1394 3022 966 
Q 3022 478 2636 193 
Q 2250 -91 1575 -91 
Q 1294 -91 989 -36 
Q 684 19 347 128 
L 347 722 
Q 666 556 975 473 
Q 1284 391 1588 391 
Q 1994 391 2212 530 
Q 2431 669 2431 922 
Q 2431 1156 2273 1281 
Q 2116 1406 1581 1522 
L 1381 1569 
Q 847 1681 609 1914 
Q 372 2147 372 2553 
Q 372 3047 722 3315 
Q 1072 3584 1716 3584 
Q 2034 3584 2315 3537 
Q 2597 3491 2834 3397 
z
" transform="scale(0.015625)"/>
      <path id="DejaVuSans-69" d="M 603 3500 
L 1178 3500 
L 1178 0 
L 603 0 
L 603 3500 
z
M 603 4863 
L 1178 4863 
L 1178 4134 
L 603 4134 
L 603 4863 
z
" transform="scale(0.015625)"/>
      <path id="DejaVuSans-74" d="M 1172 4494 
L 1172 3500 
L 2356 3500 
L 2356 3053 
L 1172 3053 
L 1172 1153 
Q 1172 725 1289 603 
Q 1406 481 1766 481 
L 2356 481 
L 2356 0 
L 1766 0 
Q 1100 0 847 248 
Q 594 497 594 1153 
L 594 3053 
L 172 3053 
L 172 3500 
L 594 3500 
L 594 4494 
L 1172 4494 
z
" transform="scale(0.015625)"/>
      <path id="DejaVuSans-79" d="M 2059 -325 
Q 1816 -950 1584 -1140 
Q 1353 -1331 966 -1331 
L 506 -1331 
L 506 -850 
L 844 -850 
Q 1081 -850 1212 -737 
Q 1344 -625 1503 -206 
L 1606 56 
L 191 3500 
L 800 3500 
L 1894 763 
L 2988 3500 
L 3597 3500 
L 2059 -325 
z
" transform="scale(0.015625)"/>
      <path id="DejaVuSans-20" transform="scale(0.015625)"/>
      <path id="DejaVuSans-61" d="M 2194 1759 
Q 1497 1759 1228 1600 
Q 959 1441 959 1056 
Q 959 750 1161 570 
Q 1363 391 1709 391 
Q 2188 391 2477 730 
Q 2766 1069 2766 1631 
L 2766 1759 
L 2194 1759 
z
M 3341 1997 
L 3341 0 
L 2766 0 
L 2766 531 
Q 2569 213 2275 61 
Q 1981 -91 1556 -91 
Q 1019 -91 701 211 
Q 384 513 384 1019 
Q 384 1609 779 1909 
Q 1175 2209 1959 2209 
L 2766 2209 
L 2766 2266 
Q 2766 2663 2505 2880 
Q 2244 3097 1772 3097 
Q 1472 3097 1187 3025 
Q 903 2953 641 2809 
L 641 3341 
Q 956 3463 1253 3523 
Q 1550 3584 1831 3584 
Q 2591 3584 2966 3190 
Q 3341 2797 3341 1997 
z
" transform="scale(0.015625)"/>
      <path id="DejaVuSans-70" d="M 1159 525 
L 1159 -1331 
L 581 -1331 
L 581 3500 
L 1159 3500 
L 1159 2969 
Q 1341 3281 1617 3432 
Q 1894 3584 2278 3584 
Q 2916 3584 3314 3078 
Q 3713 2572 3713 1747 
Q 3713 922 3314 415 
Q 2916 -91 2278 -91 
Q 1894 -91 1617 61 
Q 1341 213 1159 525 
z
M 3116 1747 
Q 3116 2381 2855 2742 
Q 2594 3103 2138 3103 
Q 1681 3103 1420 2742 
Q 1159 2381 1159 1747 
Q 1159 1113 1420 752 
Q 1681 391 2138 391 
Q 2594 391 2855 752 
Q 3116 1113 3116 1747 
z
" transform="scale(0.015625)"/>
      <path id="DejaVuSans-68" d="M 3513 2113 
L 3513 0 
L 2938 0 
L 2938 2094 
Q 2938 2591 2744 2837 
Q 2550 3084 2163 3084 
Q 1697 3084 1428 2787 
Q 1159 2491 1159 1978 
L 1159 0 
L 581 0 
L 581 4863 
L 1159 4863 
L 1159 2956 
Q 1366 3272 1645 3428 
Q 1925 3584 2291 3584 
Q 2894 3584 3203 3211 
Q 3513 2838 3513 2113 
z
" transform="scale(0.015625)"/>
      <path id="DejaVuSans-6f" d="M 1959 3097 
Q 1497 3097 1228 2736 
Q 959 2375 959 1747 
Q 959 1119 1226 758 
Q 1494 397 1959 397 
Q 2419 397 2687 759 
Q 2956 1122 2956 1747 
Q 2956 2369 2687 2733 
Q 2419 3097 1959 3097 
z
M 1959 3584 
Q 2709 3584 3137 3096 
Q 3566 2609 3566 1747 
Q 3566 888 3137 398 
Q 2709 -91 1959 -91 
Q 1206 -91 779 398 
Q 353 888 353 1747 
Q 353 2609 779 3096 
Q 1206 3584 1959 3584 
z
" transform="scale(0.015625)"/>
      <path id="DejaVuSans-64" d="M 2906 2969 
L 2906 4863 
L 3481 4863 
L 3481 0 
L 2906 0 
L 2906 525 
Q 2725 213 2448 61 
Q 2172 -91 1784 -91 
Q 1150 -91 751 415 
Q 353 922 353 1747 
Q 353 2572 751 3078 
Q 1150 3584 1784 3584 
Q 2172 3584 2448 3432 
Q 2725 3281 2906 2969 
z
M 947 1747 
Q 947 1113 1208 752 
Q 1469 391 1925 391 
Q 2381 391 2643 752 
Q 2906 1113 2906 1747 
Q 2906 2381 2643 2742 
Q 2381 3103 1925 3103 
Q 1469 3103 1208 2742 
Q 947 2381 947 1747 
z
" transform="scale(0.015625)"/>
      <path id="DejaVuSans-72" d="M 2631 2963 
Q 2534 3019 2420 3045 
Q 2306 3072 2169 3072 
Q 1681 3072 1420 2755 
Q 1159 2438 1159 1844 
L 1159 0 
L 581 0 
L 581 3500 
L 1159 3500 
L 1159 2956 
Q 1341 3275 1631 3429 
Q 1922 3584 2338 3584 
Q 2397 3584 2469 3576 
Q 2541 3569 2628 3553 
L 2631 2963 
z
" transform="scale(0.015625)"/>
      <path id="DejaVuSans-66" d="M 2375 4863 
L 2375 4384 
L 1825 4384 
Q 1516 4384 1395 4259 
Q 1275 4134 1275 3809 
L 1275 3500 
L 2222 3500 
L 2222 3053 
L 1275 3053 
L 1275 0 
L 697 0 
L 697 3053 
L 147 3053 
L 147 3500 
L 697 3500 
L 697 3744 
Q 697 4328 969 4595 
Q 1241 4863 1831 4863 
L 2375 4863 
z
" transform="scale(0.015625)"/>
      <path id="DejaVuSans-5f" d="M 3263 -1063 
L 3263 -1509 
L -63 -1509 
L -63 -1063 
L 3263 -1063 
z
" transform="scale(0.015625)"/>
      <path id="DejaVuSans-75" d="M 544 1381 
L 544 3500 
L 1119 3500 
L 1119 1403 
Q 1119 906 1312 657 
Q 1506 409 1894 409 
Q 2359 409 2629 706 
Q 2900 1003 2900 1516 
L 2900 3500 
L 3475 3500 
L 3475 0 
L 2900 0 
L 2900 538 
Q 2691 219 2414 64 
Q 2138 -91 1772 -91 
Q 1169 -91 856 284 
Q 544 659 544 1381 
z
M 1991 3584 
L 1991 3584 
z
" transform="scale(0.015625)"/>
     </defs>
     <use xlink:href="#DejaVuSans-44"/>
     <use xlink:href="#DejaVuSans-65" x="77.001953"/>
     <use xlink:href="#DejaVuSans-6e" x="138.525391"/>
     <use xlink:href="#DejaVuSans-73" x="201.904297"/>
     <use xlink:href="#DejaVuSans-69" x="254.003906"/>
     <use xlink:href="#DejaVuSans-74" x="281.787109"/>
     <use xlink:href="#DejaVuSans-79" x="320.996094"/>
     <use xlink:href="#DejaVuSans-20" x="380.175781"/>
     <use xlink:href="#DejaVuSans-73" x="411.962891"/>
     <use xlink:href="#DejaVuSans-6e" x="464.0625"/>
     <use xlink:href="#DejaVuSans-61" x="527.441406"/>
     <use xlink:href="#DejaVuSans-70" x="588.720703"/>
     <use xlink:href="#DejaVuSans-73" x="652.197266"/>
     <use xlink:href="#DejaVuSans-68" x="704.296875"/>
     <use xlink:href="#DejaVuSans-6f" x="767.675781"/>
     <use xlink:href="#DejaVuSans-74" x="828.857422"/>
     <use xlink:href="#DejaVuSans-73" x="868.066406"/>
     <use xlink:href="#DejaVuSans-20" x="920.166016"/>
     <use xlink:href="#DejaVuSans-20" x="951.953125"/>
     <use xlink:href="#DejaVuSans-64" x="983.740234"/>
     <use xlink:href="#DejaVuSans-72" x="1047.216797"/>
     <use xlink:href="#DejaVuSans-69" x="1088.330078"/>
     <use xlink:href="#DejaVuSans-66" x="1116.113281"/>
     <use xlink:href="#DejaVuSans-74" x="1149.568359"/>
     <use xlink:href="#DejaVuSans-5f" x="1188.777344"/>
     <use xlink:href="#DejaVuSans-72" x="1238.777344"/>
     <use xlink:href="#DejaVuSans-75" x="1279.890625"/>
     <use xlink:href="#DejaVuSans-6e" x="1343.269531"/>
    </g>
   </g>
   <g id="legend_1">
    <g id="patch_7">
     <path d="M 613.196875 108.270625 
L 673.4 108.270625 
Q 675.4 108.270625 675.4 106.270625 
L 675.4 33.88 
Q 675.4 31.88 673.4 31.88 
L 613.196875 31.88 
Q 611.196875 31.88 611.196875 33.88 
L 611.196875 106.270625 
Q 611.196875 108.270625 613.196875 108.270625 
z
" style="fill: #ffffff; opacity: 0.8; stroke: #cccccc; stroke-linejoin: miter"/>
    </g>
    <g id="line2d_18">
     <path d="M 615.196875 39.978438 
L 625.196875 39.978438 
L 635.196875 39.978438 
" style="fill: none; stroke: #1f77b4; stroke-width: 1.5; stroke-linecap: square"/>
    </g>
    <g id="text_16">
     <!-- t=0.0 -->
     <g transform="translate(643.196875 43.478438) scale(0.1 -0.1)">
      <defs>
       <path id="DejaVuSans-3d" d="M 678 2906 
L 4684 2906 
L 4684 2381 
L 678 2381 
L 678 2906 
z
M 678 1631 
L 4684 1631 
L 4684 1100 
L 678 1100 
L 678 1631 
z
" transform="scale(0.015625)"/>
      </defs>
      <use xlink:href="#DejaVuSans-74"/>
      <use xlink:href="#DejaVuSans-3d" x="39.208984"/>
      <use xlink:href="#DejaVuSans-30" x="122.998047"/>
      <use xlink:href="#DejaVuSans-2e" x="186.621094"/>
      <use xlink:href="#DejaVuSans-30" x="218.408203"/>
     </g>
    </g>
    <g id="line2d_19">
     <path d="M 615.196875 54.656563 
L 625.196875 54.656563 
L 635.196875 54.656563 
" style="fill: none; stroke: #ff7f0e; stroke-width: 1.5; stroke-linecap: square"/>
    </g>
    <g id="text_17">
     <!-- t=1.2 -->
     <g transform="translate(643.196875 58.156563) scale(0.1 -0.1)">
      <use xlink:href="#DejaVuSans-74"/>
      <use xlink:href="#DejaVuSans-3d" x="39.208984"/>
      <use xlink:href="#DejaVuSans-31" x="122.998047"/>
      <use xlink:href="#DejaVuSans-2e" x="186.621094"/>
      <use xlink:href="#DejaVuSans-32" x="218.408203"/>
     </g>
    </g>
    <g id="line2d_20">
     <path d="M 615.196875 69.334688 
L 625.196875 69.334688 
L 635.196875 69.334688 
" style="fill: none; stroke: #2ca02c; stroke-width: 1.5; stroke-linecap: square"/>
    </g>
    <g id="text_18">
     <!-- t=2.5 -->
     <g transform="translate(643.196875 72.834688) scale(0.1 -0.1)">
      <defs>
       <path id="DejaVuSans-35" d="M 691 4666 
L 3169 4666 
L 3169 4134 
L 1269 4134 
L 1269 2991 
Q 1406 3038 1543 3061 
Q 1681 3084 1819 3084 
Q 2600 3084 3056 2656 
Q 3513 2228 3513 1497 
Q 3513 744 3044 326 
Q 2575 -91 1722 -91 
Q 1428 -91 1123 -41 
Q 819 9 494 109 
L 494 744 
Q 775 591 1075 516 
Q 1375 441 1709 441 
Q 2250 441 2565 725 
Q 2881 1009 2881 1497 
Q 2881 1984 2565 2268 
Q 2250 2553 1709 2553 
Q 1456 2553 1204 2497 
Q 953 2441 691 2322 
L 691 4666 
z
" transform="scale(0.015625)"/>
      </defs>
      <use xlink:href="#DejaVuSans-74"/>
      <use xlink:href="#DejaVuSans-3d" x="39.208984"/>
      <use xlink:href="#DejaVuSans-32" x="122.998047"/>
      <use xlink:href="#DejaVuSans-2e" x="186.621094"/>
      <use xlink:href="#DejaVuSans-35" x="218.408203"/>
     </g>
    </g>
    <g id="line2d_21">
     <path d="M 615.196875 84.012813 
L 625.196875 84.012813 
L 635.196875 84.012813 
" style="fill: none; stroke: #d62728; stroke-width: 1.5; stroke-linecap: square"/>
    </g>
    <g id="text_19">
     <!-- t=3.7 -->
     <g transform="translate(643.196875 87.512813) scale(0.1 -0.1)">
      <defs>
       <path id="DejaVuSans-33" d="M 2597 2516 
Q 3050 2419 3304 2112 
Q 3559 1806 3559 1356 
Q 3559 666 3084 287 
Q 2609 -91 1734 -91 
Q 1441 -91 1130 -33 
Q 819 25 488 141 
L 488 750 
Q 750 597 1062 519 
Q 1375 441 1716 441 
Q 2309 441 2620 675 
Q 2931 909 2931 1356 
Q 2931 1769 2642 2001 
Q 2353 2234 1838 2234 
L 1294 2234 
L 1294 2753 
L 1863 2753 
Q 2328 2753 2575 2939 
Q 2822 3125 2822 3475 
Q 2822 3834 2567 4026 
Q 2313 4219 1838 4219 
Q 1578 4219 1281 4162 
Q 984 4106 628 3988 
L 628 4550 
Q 988 4650 1302 4700 
Q 1616 4750 1894 4750 
Q 2613 4750 3031 4423 
Q 3450 4097 3450 3541 
Q 3450 3153 3228 2886 
Q 3006 2619 2597 2516 
z
" transform="scale(0.015625)"/>
       <path id="DejaVuSans-37" d="M 525 4666 
L 3525 4666 
L 3525 4397 
L 1831 0 
L 1172 0 
L 2766 4134 
L 525 4134 
L 525 4666 
z
" transform="scale(0.015625)"/>
      </defs>
      <use xlink:href="#DejaVuSans-74"/>
      <use xlink:href="#DejaVuSans-3d" x="39.208984"/>
      <use xlink:href="#DejaVuSans-33" x="122.998047"/>
      <use xlink:href="#DejaVuSans-2e" x="186.621094"/>
      <use xlink:href="#DejaVuSans-37" x="218.408203"/>
     </g>
    </g>
    <g id="line2d_22">
     <path d="M 615.196875 98.690938 
L 625.196875 98.690938 
L 635.196875 98.690938 
" style="fill: none; stroke: #9467bd; stroke-width: 1.5; stroke-linecap: square"/>
    </g>
    <g id="text_20">
     <!-- t=5.0 -->
     <g transform="translate(643.196875 102.190938) scale(0.1 -0.1)">
      <use xlink:href="#DejaVuSans-74"/>
      <use xlink:href="#DejaVuSans-3d" x="39.208984"/>
      <use xlink:href="#DejaVuSans-35" x="122.998047"/>
      <use xlink:href="#DejaVuSans-2e" x="186.621094"/>
      <use xlink:href="#DejaVuSans-30" x="218.408203"/>
     </g>
    </g>
   </g>
  </g>
 </g>
 <defs>
  <clipPath id="p8dce9bc3d7">
   <rect x="54.11" y="26.88" width="626.29" height="175.96"/>
  </clipPath>
 </defs>
</svg>
