<?xml version="1.0" encoding="utf-8" standalone="no"?>
<!DOCTYPE svg PUBLIC "-//W3C//DTD SVG 1.1//EN"
  "http://www.w3.org/Graphics/SVG/1.1/DTD/svg11.dtd">
<svg xmlns:xlink="http://www.w3.org/1999/xlink" width="720pt" height="864pt" viewBox="0 0 720 864" xmlns="http://www.w3.org/2000/svg" version="1.1">
 <metadata>
  <rdf:RDF xmlns:dc="http://purl.org/dc/elements/1.1/" xmlns:cc="http://creativecommons.org/ns#" xmlns:rdf="http://www.w3.org/1999/02/22-rdf-syntax-ns#">
   <cc:Work>
    <dc:type rdf:resource="http://purl.org/dc/dcmitype/StillImage"/>
    <dc:date>2025-09-24T10:56:22.402009</dc:date>
    <dc:format>image/svg+xml</dc:format>
    <dc:creator>
     <cc:Agent>
      <dc:title>Matplotlib v3.8.4, https://matplotlib.org/</dc:title>
     </cc:Agent>
    </dc:creator>
   </cc:Work>
  </rdf:RDF>
 </metadata>
 <defs>
  <style type="text/css">*{stroke-linejoin: round; stroke-linecap: butt}</style>
 </defs>
 <g id="figure_1">
  <g id="patch_1">
   <path d="M 0 864 
L 720 864 
L 720 0 
L 0 0 
z
" style="fill: #ffffff"/>
  </g>
  <g id="axes_1">
   <g id="patch_2">
    <path d="M 38.628365 830.64351 
L 716.99976 830.64351 
L 716.99976 20.94822 
L 38.628365 20.94822 
z
" style="fill: #ffffff"/>
   </g>
   <g id="matplotlib.axis_1">
    <g id="xtick_1">
     <g id="line2d_1">
      <defs>
       <path id="mcc2948b2b6" d="M 0 0 
L 0 3.5 
" style="stroke: #000000; stroke-width: 0.8"/>
      </defs>
      <g>
       <use xlink:href="#mcc2948b2b6" x="69.463428" y="830.64351" style="stroke: #000000; stroke-width: 0.8"/>
      </g>
     </g>
     <g id="text_1">
      <!-- 0 -->
      <g transform="translate(66.282178 845.241948) scale(0.1 -0.1)">
       <defs>
        <path id="DejaVuSans-30" d="M 2034 4250 
Q 1547 4250 1301 3770 
Q 1056 3291 1056 2328 
Q 1056 1369 1301 889 
Q 1547 409 2034 409 
Q 2525 409 2770 889 
Q 3016 1369 3016 2328 
Q 3016 3291 2770 3770 
Q 2525 4250 2034 4250 
z
M 2034 4750 
Q 2819 4750 3233 4129 
Q 3647 3509 3647 2328 
Q 3647 1150 3233 529 
Q 2819 -91 2034 -91 
Q 1250 -91 836 529 
Q 422 1150 422 2328 
Q 422 3509 836 4129 
Q 1250 4750 2034 4750 
z
" transform="scale(0.015625)"/>
       </defs>
       <use xlink:href="#DejaVuSans-30"/>
      </g>
     </g>
    </g>
    <g id="xtick_2">
     <g id="line2d_2">
      <g>
       <use xlink:href="#mcc2948b2b6" x="192.955766" y="830.64351" style="stroke: #000000; stroke-width: 0.8"/>
      </g>
     </g>
     <g id="text_2">
      <!-- 2 -->
      <g transform="translate(189.774516 845.241948) scale(0.1 -0.1)">
       <defs>
        <path id="DejaVuSans-32" d="M 1228 531 
L 3431 531 
L 3431 0 
L 469 0 
L 469 531 
Q 828 903 1448 1529 
Q 2069 2156 2228 2338 
Q 2531 2678 2651 2914 
Q 2772 3150 2772 3378 
Q 2772 3750 2511 3984 
Q 2250 4219 1831 4219 
Q 1534 4219 1204 4116 
Q 875 4013 500 3803 
L 500 4441 
Q 881 4594 1212 4672 
Q 1544 4750 1819 4750 
Q 2544 4750 2975 4387 
Q 3406 4025 3406 3419 
Q 3406 3131 3298 2873 
Q 3191 2616 2906 2266 
Q 2828 2175 2409 1742 
Q 1991 1309 1228 531 
z
" transform="scale(0.015625)"/>
       </defs>
       <use xlink:href="#DejaVuSans-32"/>
      </g>
     </g>
    </g>
    <g id="xtick_3">
     <g id="line2d_3">
      <g>
       <use xlink:href="#mcc2948b2b6" x="316.448104" y="830.64351" style="stroke: #000000; stroke-width: 0.8"/>
      </g>
     </g>
     <g id="text_3">
      <!-- 4 -->
      <g transform="translate(313.266854 845.241948) scale(0.1 -0.1)">
       <defs>
        <path id="DejaVuSans-34" d="M 2419 4116 
L 825 1625 
L 2419 1625 
L 2419 4116 
z
M 2253 4666 
L 3047 4666 
L 3047 1625 
L 3713 1625 
L 3713 1100 
L 3047 1100 
L 3047 0 
L 2419 0 
L 2419 1100 
L 313 1100 
L 313 1709 
L 2253 4666 
z
" transform="scale(0.015625)"/>
       </defs>
       <use xlink:href="#DejaVuSans-34"/>
      </g>
     </g>
    </g>
    <g id="xtick_4">
     <g id="line2d_4">
      <g>
       <use xlink:href="#mcc2948b2b6" x="439.940442" y="830.64351" style="stroke: #000000; stroke-width: 0.8"/>
      </g>
     </g>
     <g id="text_4">
      <!-- 6 -->
      <g transform="translate(436.759192 845.241948) scale(0.1 -0.1)">
       <defs>
        <path id="DejaVuSans-36" d="M 2113 2584 
Q 1688 2584 1439 2293 
Q 1191 2003 1191 1497 
Q 1191 994 1439 701 
Q 1688 409 2113 409 
Q 2538 409 2786 701 
Q 3034 994 3034 1497 
Q 3034 2003 2786 2293 
Q 2538 2584 2113 2584 
z
M 3366 4563 
L 3366 3988 
Q 3128 4100 2886 4159 
Q 2644 4219 2406 4219 
Q 1781 4219 1451 3797 
Q 1122 3375 1075 2522 
Q 1259 2794 1537 2939 
Q 1816 3084 2150 3084 
Q 2853 3084 3261 2657 
Q 3669 2231 3669 1497 
Q 3669 778 3244 343 
Q 2819 -91 2113 -91 
Q 1303 -91 875 529 
Q 447 1150 447 2328 
Q 447 3434 972 4092 
Q 1497 4750 2381 4750 
Q 2619 4750 2861 4703 
Q 3103 4656 3366 4563 
z
" transform="scale(0.015625)"/>
       </defs>
       <use xlink:href="#DejaVuSans-36"/>
      </g>
     </g>
    </g>
    <g id="xtick_5">
     <g id="line2d_5">
      <g>
       <use xlink:href="#mcc2948b2b6" x="563.43278" y="830.64351" style="stroke: #000000; stroke-width: 0.8"/>
      </g>
     </g>
     <g id="text_5">
      <!-- 8 -->
      <g transform="translate(560.25153 845.241948) scale(0.1 -0.1)">
       <defs>
        <path id="DejaVuSans-38" d="M 2034 2216 
Q 1584 2216 1326 1975 
Q 1069 1734 1069 1313 
Q 1069 891 1326 650 
Q 1584 409 2034 409 
Q 2484 409 2743 651 
Q 3003 894 3003 1313 
Q 3003 1734 2745 1975 
Q 2488 2216 2034 2216 
z
M 1403 2484 
Q 997 2584 770 2862 
Q 544 3141 544 3541 
Q 544 4100 942 4425 
Q 1341 4750 2034 4750 
Q 2731 4750 3128 4425 
Q 3525 4100 3525 3541 
Q 3525 3141 3298 2862 
Q 3072 2584 2669 2484 
Q 3125 2378 3379 2068 
Q 3634 1759 3634 1313 
Q 3634 634 3220 271 
Q 2806 -91 2034 -91 
Q 1263 -91 848 271 
Q 434 634 434 1313 
Q 434 1759 690 2068 
Q 947 2378 1403 2484 
z
M 1172 3481 
Q 1172 3119 1398 2916 
Q 1625 2713 2034 2713 
Q 2441 2713 2670 2916 
Q 2900 3119 2900 3481 
Q 2900 3844 2670 4047 
Q 2441 4250 2034 4250 
Q 1625 4250 1398 4047 
Q 1172 3844 1172 3481 
z
" transform="scale(0.015625)"/>
       </defs>
       <use xlink:href="#DejaVuSans-38"/>
      </g>
     </g>
    </g>
    <g id="xtick_6">
     <g id="line2d_6">
      <g>
       <use xlink:href="#mcc2948b2b6" x="686.925117" y="830.64351" style="stroke: #000000; stroke-width: 0.8"/>
      </g>
     </g>
     <g id="text_6">
      <!-- 10 -->
      <g transform="translate(680.562617 845.241948) scale(0.1 -0.1)">
       <defs>
        <path id="DejaVuSans-31" d="M 794 531 
L 1825 531 
L 1825 4091 
L 703 3866 
L 703 4441 
L 1819 4666 
L 2450 4666 
L 2450 531 
L 3481 531 
L 3481 0 
L 794 0 
L 794 531 
z
" transform="scale(0.015625)"/>
       </defs>
       <use xlink:href="#DejaVuSans-31"/>
       <use xlink:href="#DejaVuSans-30" x="63.623047"/>
      </g>
     </g>
    </g>
    <g id="text_7">
     <!-- x -->
     <g transform="translate(374.854687 858.920072) scale(0.1 -0.1)">
      <defs>
       <path id="DejaVuSans-78" d="M 3513 3500 
L 2247 1797 
L 3578 0 
L 2900 0 
L 1881 1375 
L 863 0 
L 184 0 
L 1544 1831 
L 300 3500 
L 978 3500 
L 1906 2253 
L 2834 3500 
L 3513 3500 
z
" transform="scale(0.015625)"/>
      </defs>
      <use xlink:href="#DejaVuSans-78"/>
     </g>
    </g>
   </g>
   <g id="matplotlib.axis_2">
    <g id="ytick_1">
     <g id="line2d_7">
      <defs>
       <path id="m19ff8316f3" d="M 0 0 
L -3.5 0 
" style="stroke: #000000; stroke-width: 0.8"/>
      </defs>
      <g>
       <use xlink:href="#m19ff8316f3" x="38.628365" y="786.037301" style="stroke: #000000; stroke-width: 0.8"/>
      </g>
     </g>
     <g id="text_8">
      <!-- 0.125 -->
      <g transform="translate(3.00024 789.83652) scale(0.1 -0.1)">
       <defs>
        <path id="DejaVuSans-2e" d="M 684 794 
L 1344 794 
L 1344 0 
L 684 0 
L 684 794 
z
" transform="scale(0.015625)"/>
        <path id="DejaVuSans-35" d="M 691 4666 
L 3169 4666 
L 3169 4134 
L 1269 4134 
L 1269 2991 
Q 1406 3038 1543 3061 
Q 1681 3084 1819 3084 
Q 2600 3084 3056 2656 
Q 3513 2228 3513 1497 
Q 3513 744 3044 326 
Q 2575 -91 1722 -91 
Q 1428 -91 1123 -41 
Q 819 9 494 109 
L 494 744 
Q 775 591 1075 516 
Q 1375 441 1709 441 
Q 2250 441 2565 725 
Q 2881 1009 2881 1497 
Q 2881 1984 2565 2268 
Q 2250 2553 1709 2553 
Q 1456 2553 1204 2497 
Q 953 2441 691 2322 
L 691 4666 
z
" transform="scale(0.015625)"/>
       </defs>
       <use xlink:href="#DejaVuSans-30"/>
       <use xlink:href="#DejaVuSans-2e" x="63.623047"/>
       <use xlink:href="#DejaVuSans-31" x="95.410156"/>
       <use xlink:href="#DejaVuSans-32" x="159.033203"/>
       <use xlink:href="#DejaVuSans-35" x="222.65625"/>
      </g>
     </g>
    </g>
    <g id="ytick_2">
     <g id="line2d_8">
      <g>
       <use xlink:href="#m19ff8316f3" x="38.628365" y="682.608142" style="stroke: #000000; stroke-width: 0.8"/>
      </g>
     </g>
     <g id="text_9">
      <!-- 0.150 -->
      <g transform="translate(3.00024 686.407361) scale(0.1 -0.1)">
       <use xlink:href="#DejaVuSans-30"/>
       <use xlink:href="#DejaVuSans-2e" x="63.623047"/>
       <use xlink:href="#DejaVuSans-31" x="95.410156"/>
       <use xlink:href="#DejaVuSans-35" x="159.033203"/>
       <use xlink:href="#DejaVuSans-30" x="222.65625"/>
      </g>
     </g>
    </g>
    <g id="ytick_3">
     <g id="line2d_9">
      <g>
       <use xlink:href="#m19ff8316f3" x="38.628365" y="579.178984" style="stroke: #000000; stroke-width: 0.8"/>
      </g>
     </g>
     <g id="text_10">
      <!-- 0.175 -->
      <g transform="translate(3.00024 582.978202) scale(0.1 -0.1)">
       <defs>
        <path id="DejaVuSans-37" d="M 525 4666 
L 3525 4666 
L 3525 4397 
L 1831 0 
L 1172 0 
L 2766 4134 
L 525 4134 
L 525 4666 
z
" transform="scale(0.015625)"/>
       </defs>
       <use xlink:href="#DejaVuSans-30"/>
       <use xlink:href="#DejaVuSans-2e" x="63.623047"/>
       <use xlink:href="#DejaVuSans-31" x="95.410156"/>
       <use xlink:href="#DejaVuSans-37" x="159.033203"/>
       <use xlink:href="#DejaVuSans-35" x="222.65625"/>
      </g>
     </g>
    </g>
    <g id="ytick_4">
     <g id="line2d_10">
      <g>
       <use xlink:href="#m19ff8316f3" x="38.628365" y="475.749825" style="stroke: #000000; stroke-width: 0.8"/>
      </g>
     </g>
     <g id="text_11">
      <!-- 0.200 -->
      <g transform="translate(3.00024 479.549044) scale(0.1 -0.1)">
       <use xlink:href="#DejaVuSans-30"/>
       <use xlink:href="#DejaVuSans-2e" x="63.623047"/>
       <use xlink:href="#DejaVuSans-32" x="95.410156"/>
       <use xlink:href="#DejaVuSans-30" x="159.033203"/>
       <use xlink:href="#DejaVuSans-30" x="222.65625"/>
      </g>
     </g>
    </g>
    <g id="ytick_5">
     <g id="line2d_11">
      <g>
       <use xlink:href="#m19ff8316f3" x="38.628365" y="372.320666" style="stroke: #000000; stroke-width: 0.8"/>
      </g>
     </g>
     <g id="text_12">
      <!-- 0.225 -->
      <g transform="translate(3.00024 376.119885) scale(0.1 -0.1)">
       <use xlink:href="#DejaVuSans-30"/>
       <use xlink:href="#DejaVuSans-2e" x="63.623047"/>
       <use xlink:href="#DejaVuSans-32" x="95.410156"/>
       <use xlink:href="#DejaVuSans-32" x="159.033203"/>
       <use xlink:href="#DejaVuSans-35" x="222.65625"/>
      </g>
     </g>
    </g>
    <g id="ytick_6">
     <g id="line2d_12">
      <g>
       <use xlink:href="#m19ff8316f3" x="38.628365" y="268.891508" style="stroke: #000000; stroke-width: 0.8"/>
      </g>
     </g>
     <g id="text_13">
      <!-- 0.250 -->
      <g transform="translate(3.00024 272.690726) scale(0.1 -0.1)">
       <use xlink:href="#DejaVuSans-30"/>
       <use xlink:href="#DejaVuSans-2e" x="63.623047"/>
       <use xlink:href="#DejaVuSans-32" x="95.410156"/>
       <use xlink:href="#DejaVuSans-35" x="159.033203"/>
       <use xlink:href="#DejaVuSans-30" x="222.65625"/>
      </g>
     </g>
    </g>
    <g id="ytick_7">
     <g id="line2d_13">
      <g>
       <use xlink:href="#m19ff8316f3" x="38.628365" y="165.462349" style="stroke: #000000; stroke-width: 0.8"/>
      </g>
     </g>
     <g id="text_14">
      <!-- 0.275 -->
      <g transform="translate(3.00024 169.261568) scale(0.1 -0.1)">
       <use xlink:href="#DejaVuSans-30"/>
       <use xlink:href="#DejaVuSans-2e" x="63.623047"/>
       <use xlink:href="#DejaVuSans-32" x="95.410156"/>
       <use xlink:href="#DejaVuSans-37" x="159.033203"/>
       <use xlink:href="#DejaVuSans-35" x="222.65625"/>
      </g>
     </g>
    </g>
    <g id="ytick_8">
     <g id="line2d_14">
      <g>
       <use xlink:href="#m19ff8316f3" x="38.628365" y="62.03319" style="stroke: #000000; stroke-width: 0.8"/>
      </g>
     </g>
     <g id="text_15">
      <!-- 0.300 -->
      <g transform="translate(3.00024 65.832409) scale(0.1 -0.1)">
       <defs>
        <path id="DejaVuSans-33" d="M 2597 2516 
Q 3050 2419 3304 2112 
Q 3559 1806 3559 1356 
Q 3559 666 3084 287 
Q 2609 -91 1734 -91 
Q 1441 -91 1130 -33 
Q 819 25 488 141 
L 488 750 
Q 750 597 1062 519 
Q 1375 441 1716 441 
Q 2309 441 2620 675 
Q 2931 909 2931 1356 
Q 2931 1769 2642 2001 
Q 2353 2234 1838 2234 
L 1294 2234 
L 1294 2753 
L 1863 2753 
Q 2328 2753 2575 2939 
Q 2822 3125 2822 3475 
Q 2822 3834 2567 4026 
Q 2313 4219 1838 4219 
Q 1578 4219 1281 4162 
Q 984 4106 628 3988 
L 628 4550 
Q 988 4650 1302 4700 
Q 1616 4750 1894 4750 
Q 2613 4750 3031 4423 
Q 3450 4097 3450 3541 
Q 3450 3153 3228 2886 
Q 3006 2619 2597 2516 
z
" transform="scale(0.015625)"/>
       </defs>
       <use xlink:href="#DejaVuSans-30"/>
       <use xlink:href="#DejaVuSans-2e" x="63.623047"/>
       <use xlink:href="#DejaVuSans-33" x="95.410156"/>
       <use xlink:href="#DejaVuSans-30" x="159.033203"/>
       <use xlink:href="#DejaVuSans-30" x="222.65625"/>
      </g>
     </g>
    </g>
   </g>
   <g id="line2d_15">
    <path d="M 69.463428 310.263171 
L 70.223849 320.491196 
L 70.98427 349.662544 
L 71.744691 393.487437 
L 74.025953 545.233073 
L 74.786374 579.539319 
L 75.546795 597.754814 
L 76.307216 598.818566 
L 77.067636 584.411983 
L 77.828057 558.530128 
L 79.348899 494.793698 
L 80.10932 468.237062 
L 80.86974 450.790441 
L 81.630161 444.083293 
L 82.390582 447.396467 
L 83.151003 457.922345 
L 84.671844 483.126185 
L 85.432265 488.783269 
L 86.192686 485.532029 
L 86.953107 472.557302 
L 87.713528 451.327693 
L 89.234369 399.761564 
L 89.99479 379.991624 
L 90.755211 371.120763 
L 91.515632 376.668924 
L 92.276052 397.875909 
L 93.036473 433.326761 
L 96.078156 613.4612 
L 96.838577 635.031332 
L 97.598998 637.242674 
L 98.359419 619.279595 
L 99.11984 583.331328 
L 100.640681 478.893577 
L 101.401102 424.835707 
L 102.161523 379.370279 
L 102.921944 348.270743 
L 103.682364 334.942265 
L 104.442785 339.961709 
L 105.203206 361.098667 
L 105.963627 393.805239 
L 107.484468 469.554276 
L 108.244889 500.588641 
L 109.00531 521.215097 
L 109.765731 529.732888 
L 110.526152 526.876608 
L 111.286572 515.530004 
L 112.807414 485.319955 
L 113.567835 475.749825 
L 114.328256 474.349381 
L 115.088676 482.110538 
L 115.849097 497.777444 
L 117.369939 538.262847 
L 118.13036 553.181643 
L 118.89078 558.157162 
L 119.651201 550.036049 
L 120.411622 527.890988 
L 121.172043 493.349663 
L 123.453305 364.171777 
L 124.213726 334.17944 
L 124.974147 320.415423 
L 125.734568 325.86462 
L 126.494988 350.669082 
L 127.255409 392.025996 
L 130.297092 596.466878 
L 131.057513 622.483808 
L 131.817934 629.368028 
L 132.578355 617.133453 
L 133.338776 588.634569 
L 134.859617 504.766513 
L 135.620038 462.648108 
L 136.380459 428.520719 
L 137.14088 406.434626 
L 137.9013 398.043076 
L 138.661721 402.464721 
L 139.422142 416.604538 
L 140.942984 455.107658 
L 141.703404 469.689815 
L 142.463825 476.373255 
L 143.224246 473.94721 
L 143.984667 463.445331 
L 145.505508 431.816327 
L 146.265929 420.06445 
L 147.02635 417.057782 
L 147.786771 425.711458 
L 148.547192 446.778497 
L 149.307612 478.55739 
L 151.588875 590.682418 
L 152.349296 613.260748 
L 153.109716 619.649861 
L 153.870137 607.499348 
L 154.630558 577.275501 
L 155.390979 532.295212 
L 157.672241 372.570584 
L 158.432662 335.415662 
L 159.193083 315.994353 
L 159.953504 316.624919 
L 160.713924 336.629719 
L 161.474345 372.495004 
L 163.755608 512.954965 
L 164.516028 548.384517 
L 165.276449 569.94504 
L 166.03687 576.167609 
L 166.797291 568.218722 
L 167.557712 549.535513 
L 169.078553 500.311357 
L 169.838974 480.195803 
L 170.599395 468.223658 
L 171.359816 465.823815 
L 172.120236 472.151075 
L 174.401499 508.590201 
L 175.16192 511.653941 
L 175.92234 504.441212 
L 176.682761 486.239499 
L 177.443182 458.700762 
L 178.964023 392.508626 
L 179.724444 365.299679 
L 180.484865 349.625953 
L 181.245286 349.588008 
L 182.005707 366.969359 
L 182.766127 400.796012 
L 183.526548 447.363859 
L 185.04739 553.653562 
L 185.807811 598.646087 
L 186.568231 629.257611 
L 187.328652 641.075515 
L 188.089073 632.448718 
L 188.849494 604.750763 
L 189.609915 562.146163 
L 191.891177 411.743717 
L 192.651598 377.04099 
L 193.412019 358.067757 
L 194.172439 355.966759 
L 194.93286 369.154365 
L 195.693281 393.737878 
L 197.214123 455.012273 
L 197.974543 480.552582 
L 198.734964 497.192032 
L 199.495385 503.327278 
L 200.255806 499.688597 
L 201.016227 489.084026 
L 201.776647 475.749825 
L 202.537068 464.43337 
L 203.297489 459.383204 
L 204.05791 463.437637 
L 204.818331 477.385054 
L 205.578751 499.719225 
L 207.099593 553.671276 
L 207.860014 574.57878 
L 208.620435 584.437747 
L 209.380855 579.64105 
L 210.141276 558.870371 
L 210.901697 523.48101 
L 212.422539 426.693524 
L 213.182959 378.430541 
L 213.94338 339.76015 
L 214.703801 316.632937 
L 215.464222 312.82646 
L 216.224643 329.295291 
L 216.985063 363.98176 
L 218.505905 467.000021 
L 219.266326 521.012734 
L 220.026747 566.880134 
L 220.787167 598.77975 
L 221.547588 613.223423 
L 222.308009 609.528013 
L 223.06843 589.806958 
L 223.828851 558.493152 
L 225.349692 485.073386 
L 226.110113 454.839355 
L 226.870534 434.72282 
L 227.630955 426.41899 
L 228.391375 429.206407 
L 229.151796 440.22726 
L 230.672638 469.150869 
L 231.433059 477.833559 
L 232.193479 478.233852 
L 232.9539 469.399875 
L 233.714321 452.632182 
L 235.235163 410.074807 
L 235.995583 394.30913 
L 236.756004 388.702073 
L 237.516425 396.470498 
L 238.276846 418.593262 
L 239.037267 453.473844 
L 241.318529 585.706987 
L 242.07895 617.187816 
L 242.839371 632.498664 
L 243.599791 628.523157 
L 244.360212 604.988478 
L 245.120633 564.581626 
L 248.162316 359.5867 
L 248.922737 332.418282 
L 249.683158 324.142193 
L 250.443579 334.869709 
L 251.203999 361.875332 
L 252.724841 443.255063 
L 253.485262 484.547178 
L 254.245683 518.188451 
L 255.006103 540.135557 
L 255.766524 548.7152 
L 256.526945 544.768337 
L 257.287366 531.336938 
L 258.808207 494.718206 
L 259.568628 481.199773 
L 260.329049 475.593816 
L 261.08947 479.065991 
L 261.849891 490.53955 
L 263.370732 523.714049 
L 264.131153 535.949531 
L 264.891574 539.188259 
L 265.651995 530.478253 
L 266.412415 509.042672 
L 267.172836 476.578809 
L 269.454099 360.851676 
L 270.214519 336.811427 
L 270.97494 329.011373 
L 271.735361 339.924648 
L 272.495782 369.199588 
L 273.256203 413.61269 
L 275.537465 574.326086 
L 276.297886 612.628691 
L 277.058307 633.467611 
L 277.818727 634.398414 
L 278.579148 615.962043 
L 279.339569 581.539655 
L 282.381252 408.327372 
L 283.141673 386.496416 
L 283.902094 379.678149 
L 284.662515 386.77406 
L 285.422935 404.42525 
L 286.943777 451.361038 
L 287.704198 470.358167 
L 288.464619 481.302685 
L 289.225039 482.807171 
L 289.98546 475.749825 
L 292.266723 438.369159 
L 293.027143 435.477074 
L 293.787564 443.126156 
L 294.547985 462.026976 
L 295.308406 490.508949 
L 296.829247 559.140284 
L 297.589668 587.700226 
L 298.350089 604.685038 
L 299.11051 605.885815 
L 299.870931 589.412836 
L 300.631351 556.148003 
L 301.391772 509.729064 
L 303.673035 356.311541 
L 304.433455 324.297759 
L 305.193876 310.906418 
L 305.954297 317.925775 
L 306.714718 344.121945 
L 307.475139 385.457766 
L 309.756401 534.291853 
L 310.516822 569.307375 
L 311.277243 588.960056 
L 312.037663 592.030783 
L 312.798084 580.009954 
L 313.558505 556.691315 
L 315.079347 497.87509 
L 315.839767 473.380567 
L 316.600188 457.59626 
L 317.360609 452.096078 
L 318.12103 456.134335 
L 318.881451 466.897632 
L 319.641871 480.150814 
L 320.402292 491.15185 
L 321.162713 495.661459 
L 321.923134 490.856093 
L 322.683555 475.970616 
L 323.443975 452.54646 
L 324.964817 396.174382 
L 325.725238 374.082557 
L 326.485659 363.172476 
L 327.246079 367.142613 
L 328.0065 387.394869 
L 328.766921 422.639248 
L 330.287763 520.370593 
L 331.048183 569.686755 
L 331.808604 609.709667 
L 332.569025 634.380585 
L 333.329446 639.791449 
L 334.089867 624.848148 
L 334.850287 591.474583 
L 335.610708 544.320495 
L 337.13155 436.138421 
L 337.891971 389.953021 
L 338.652391 357.331036 
L 339.412812 341.838196 
L 340.173233 344.259387 
L 340.933654 362.594828 
L 341.694075 392.52473 
L 343.214916 463.568623 
L 343.975337 492.950472 
L 344.735758 512.49072 
L 345.496179 520.504289 
L 346.256599 517.704676 
L 347.01702 506.929176 
L 348.537862 479.154034 
L 349.298283 471.310276 
L 350.058703 471.879861 
L 350.819124 481.77665 
L 351.579545 499.656118 
L 353.100387 544.366585 
L 353.860807 561.044121 
L 354.621228 567.358651 
L 355.381649 560.02475 
L 356.14207 538.006482 
L 356.902491 502.863541 
L 359.183753 367.723782 
L 359.944174 334.764565 
L 360.704595 317.89456 
L 361.465015 320.362348 
L 362.225436 342.573817 
L 362.985857 381.961523 
L 366.02754 587.185042 
L 366.787961 615.440527 
L 367.548382 625.061015 
L 368.308803 615.813271 
L 369.069223 590.295566 
L 370.590065 511.458466 
L 371.350486 471.048104 
L 372.110907 437.962351 
L 372.871327 416.2327 
L 373.631748 407.547086 
L 374.392169 411.099375 
L 375.15259 423.895297 
L 376.673431 458.735356 
L 377.433852 471.215991 
L 378.194273 475.749825 
L 378.954694 471.215991 
L 379.715114 458.735356 
L 381.235956 423.895297 
L 381.996377 411.099375 
L 382.756798 407.547086 
L 383.517218 416.2327 
L 384.277639 437.962351 
L 385.03806 471.048104 
L 387.319322 590.295566 
L 388.079743 615.813271 
L 388.840164 625.061015 
L 389.600585 615.440527 
L 390.361006 587.185042 
L 391.121426 543.41975 
L 393.402689 381.961523 
L 394.16311 342.573817 
L 394.92353 320.362348 
L 395.683951 317.89456 
L 396.444372 334.764565 
L 397.204793 367.723782 
L 400.246476 538.006482 
L 401.006897 560.02475 
L 401.767318 567.358651 
L 402.527738 561.044121 
L 403.288159 544.366585 
L 404.809001 499.656118 
L 405.569422 481.77665 
L 406.329842 471.879861 
L 407.090263 471.310276 
L 407.850684 479.154034 
L 410.131946 517.704676 
L 410.892367 520.504289 
L 411.652788 512.49072 
L 412.413209 492.950472 
L 413.17363 463.568623 
L 415.454892 362.594828 
L 416.215313 344.259387 
L 416.975734 341.838196 
L 417.736154 357.331036 
L 418.496575 389.953021 
L 419.256996 436.138421 
L 421.538258 591.474583 
L 422.298679 624.848148 
L 423.0591 639.791449 
L 423.819521 634.380585 
L 424.579942 609.709667 
L 425.340362 569.686755 
L 427.621625 422.639248 
L 428.382046 387.394869 
L 429.142466 367.142613 
L 429.902887 363.172476 
L 430.663308 374.082557 
L 431.423729 396.174382 
L 432.94457 452.54646 
L 433.704991 475.970616 
L 434.465412 490.856093 
L 435.225833 495.661459 
L 435.986254 491.15185 
L 436.746674 480.150814 
L 437.507095 466.897632 
L 438.267516 456.134335 
L 439.027937 452.096078 
L 439.788358 457.59626 
L 440.548778 473.380567 
L 441.309199 497.87509 
L 442.830041 556.691315 
L 443.590462 580.009954 
L 444.350882 592.030783 
L 445.111303 588.960056 
L 445.871724 569.307375 
L 446.632145 534.291853 
L 448.152986 435.769259 
L 448.913407 385.457766 
L 449.673828 344.121945 
L 450.434249 317.925775 
L 451.19467 310.906418 
L 451.95509 324.297759 
L 452.715511 356.311541 
L 453.475932 402.415055 
L 455.757194 556.148003 
L 456.517615 589.412836 
L 457.278036 605.885815 
L 458.038457 604.685038 
L 458.798878 587.700226 
L 459.559298 559.140284 
L 461.08014 490.508949 
L 461.840561 462.026976 
L 462.600982 443.126156 
L 463.361402 435.477074 
L 464.121823 438.369159 
L 464.882244 448.98027 
L 466.403086 475.749825 
L 467.163506 482.807171 
L 467.923927 481.302685 
L 468.684348 470.358167 
L 469.444769 451.361038 
L 470.96561 404.42525 
L 471.726031 386.77406 
L 472.486452 379.678149 
L 473.246873 386.496416 
L 474.007294 408.327372 
L 474.767714 443.653845 
L 477.048977 581.539655 
L 477.809398 615.962043 
L 478.569818 634.398414 
L 479.330239 633.467611 
L 480.09066 612.628691 
L 480.851081 574.326086 
L 482.371922 467.506109 
L 483.132343 413.61269 
L 483.892764 369.199588 
L 484.653185 339.924648 
L 485.413606 329.011373 
L 486.174026 336.811427 
L 486.934447 360.851676 
L 487.694868 396.349844 
L 489.21571 476.578809 
L 489.97613 509.042672 
L 490.736551 530.478253 
L 491.496972 539.188259 
L 492.257393 535.949531 
L 493.017814 523.714049 
L 494.538655 490.53955 
L 495.299076 479.065991 
L 496.059497 475.593816 
L 496.819918 481.199773 
L 497.580338 494.718206 
L 499.10118 531.336938 
L 499.861601 544.768337 
L 500.622022 548.7152 
L 501.382442 540.135557 
L 502.142863 518.188451 
L 502.903284 484.547178 
L 505.184546 361.875332 
L 505.944967 334.869709 
L 506.705388 324.142193 
L 507.465809 332.418282 
L 508.22623 359.5867 
L 508.98665 402.625291 
L 511.267913 564.581626 
L 512.028334 604.988478 
L 512.788754 628.523157 
L 513.549175 632.498664 
L 514.309596 617.187816 
L 515.070017 585.706987 
L 518.1117 418.593262 
L 518.872121 396.470498 
L 519.632542 388.702073 
L 520.392962 394.30913 
L 521.153383 410.074807 
L 522.674225 452.632182 
L 523.434646 469.399875 
L 524.195066 478.233852 
L 524.955487 477.833559 
L 525.715908 469.150869 
L 527.99717 429.206407 
L 528.757591 426.41899 
L 529.518012 434.72282 
L 530.278433 454.839355 
L 531.038854 485.073386 
L 533.320116 589.806958 
L 534.080537 609.528013 
L 534.840958 613.223423 
L 535.601378 598.77975 
L 536.361799 566.880134 
L 537.12222 521.012734 
L 539.403482 363.98176 
L 540.163903 329.295291 
L 540.924324 312.82646 
L 541.684745 316.632937 
L 542.445166 339.76015 
L 543.205586 378.430541 
L 545.486849 523.48101 
L 546.24727 558.870371 
L 547.00769 579.64105 
L 547.768111 584.437747 
L 548.528532 574.57878 
L 549.288953 553.671276 
L 550.809794 499.719225 
L 551.570215 477.385054 
L 552.330636 463.437637 
L 553.091057 459.383204 
L 553.851478 464.43337 
L 554.611898 475.749825 
L 555.372319 489.084026 
L 556.13274 499.688597 
L 556.893161 503.327278 
L 557.653582 497.192032 
L 558.414002 480.552582 
L 559.174423 455.012273 
L 560.695265 393.737878 
L 561.455686 369.154365 
L 562.216106 355.966759 
L 562.976527 358.067757 
L 563.736948 377.04099 
L 564.497369 411.743717 
L 566.01821 510.900898 
L 566.778631 562.146163 
L 567.539052 604.750763 
L 568.299473 632.448718 
L 569.059894 641.075515 
L 569.820314 629.257611 
L 570.580735 598.646087 
L 571.341156 553.653562 
L 573.622418 400.796012 
L 574.382839 366.969359 
L 575.14326 349.588008 
L 575.903681 349.625953 
L 576.664102 365.299679 
L 577.424522 392.508626 
L 578.945364 458.700762 
L 579.705785 486.239499 
L 580.466205 504.441212 
L 581.226626 511.653941 
L 581.987047 508.590201 
L 582.747468 498.062274 
L 584.268309 472.151075 
L 585.02873 465.823815 
L 585.789151 468.223658 
L 586.549572 480.195803 
L 587.309993 500.311357 
L 588.830834 549.535513 
L 589.591255 568.218722 
L 590.351676 576.167609 
L 591.112097 569.94504 
L 591.872517 548.384517 
L 592.632938 512.954965 
L 595.674621 336.629719 
L 596.435042 316.624919 
L 597.195463 315.994353 
L 597.955884 335.415662 
L 598.716305 372.570584 
L 600.237146 478.277029 
L 600.997567 532.295212 
L 601.757988 577.275501 
L 602.518409 607.499348 
L 603.278829 619.649861 
L 604.03925 613.260748 
L 604.799671 590.682418 
L 605.560092 556.579343 
L 607.080933 478.55739 
L 607.841354 446.778497 
L 608.601775 425.711458 
L 609.362196 417.057782 
L 610.122617 420.06445 
L 610.883037 431.816327 
L 612.403879 463.445331 
L 613.1643 473.94721 
L 613.924721 476.373255 
L 614.685141 469.689815 
L 615.445562 455.107658 
L 616.966404 416.604538 
L 617.726825 402.464721 
L 618.487245 398.043076 
L 619.247666 406.434626 
L 620.008087 428.520719 
L 620.768508 462.648108 
L 623.04977 588.634569 
L 623.810191 617.133453 
L 624.570612 629.368028 
L 625.331033 622.483808 
L 626.091453 596.466878 
L 626.851874 554.231851 
L 629.133137 392.025996 
L 629.893557 350.669082 
L 630.653978 325.86462 
L 631.414399 320.415423 
L 632.17482 334.17944 
L 632.935241 364.171777 
L 634.456082 450.464237 
L 635.216503 493.349663 
L 635.976924 527.890988 
L 636.737345 550.036049 
L 637.497765 558.157162 
L 638.258186 553.181643 
L 639.018607 538.262847 
L 640.539449 497.777444 
L 641.299869 482.110538 
L 642.06029 474.349381 
L 642.820711 475.749825 
L 643.581132 485.319955 
L 645.101973 515.530004 
L 645.862394 526.876608 
L 646.622815 529.732888 
L 647.383236 521.215097 
L 648.143657 500.588641 
L 648.904077 469.554276 
L 651.18534 361.098667 
L 651.945761 339.961709 
L 652.706181 334.942265 
L 653.466602 348.270743 
L 654.227023 379.370279 
L 654.987444 424.835707 
L 657.268706 583.331328 
L 658.029127 619.279595 
L 658.789548 637.242674 
L 659.549969 635.031332 
L 660.310389 613.4612 
L 661.07081 576.178282 
L 663.352073 433.326761 
L 664.112493 397.875909 
L 664.872914 376.668924 
L 665.633335 371.120763 
L 666.393756 379.991624 
L 667.154177 399.761564 
L 668.675018 451.327693 
L 669.435439 472.557302 
L 670.19586 485.532029 
L 670.956281 488.783269 
L 671.716701 483.126185 
L 672.477122 471.418267 
L 673.237543 457.922345 
L 673.997964 447.396467 
L 674.758385 444.083293 
L 675.518805 450.790441 
L 676.279226 468.237062 
L 677.039647 494.793698 
L 678.560489 558.530128 
L 679.320909 584.411983 
L 680.08133 598.818566 
L 680.841751 597.754814 
L 681.602172 579.539319 
L 682.362593 545.233073 
L 683.883434 445.601433 
L 684.643855 393.487437 
L 685.404276 349.662544 
L 686.164697 320.491196 
L 686.164697 320.491196 
" clip-path="url(#p071cf7c97f)" style="fill: none; stroke: #1f77b4; stroke-width: 1.5; stroke-linecap: square"/>
   </g>
   <g id="line2d_16">
    <path d="M 69.463428 725.971736 
L 70.223849 715.417338 
L 70.98427 702.23061 
L 72.505112 669.464353 
L 74.025953 630.036374 
L 76.307216 561.901517 
L 78.588478 486.19277 
L 81.630161 377.588608 
L 89.234369 99.74288 
L 89.99479 80.803306 
L 90.755211 69.37753 
L 91.515632 71.401272 
L 92.276052 95.876454 
L 93.036473 148.238031 
L 94.557315 309.02818 
L 96.078156 463.357429 
L 96.838577 521.413592 
L 97.598998 565.679092 
L 98.359419 597.496265 
L 99.11984 618.574343 
L 99.88026 630.616249 
L 100.640681 635.162034 
L 101.401102 633.476992 
L 102.161523 626.619944 
L 102.921944 615.477941 
L 103.682364 600.743815 
L 105.203206 562.732536 
L 106.724048 516.167463 
L 109.00531 435.914685 
L 112.046993 323.577278 
L 112.807414 298.736161 
L 113.567835 277.62907 
L 114.328256 262.515486 
L 115.088676 256.988376 
L 115.849097 265.2318 
L 116.609518 289.411109 
L 117.369939 327.325292 
L 119.651201 461.721846 
L 120.411622 496.514432 
L 121.172043 522.824437 
L 121.932464 540.714365 
L 122.692884 550.840441 
L 123.453305 554.103267 
L 124.213726 551.442248 
L 124.974147 543.746188 
L 125.734568 531.837584 
L 126.494988 516.470429 
L 128.01583 478.180892 
L 131.057513 395.465068 
L 131.817934 381.354975 
L 132.578355 374.50071 
L 133.338776 378.153729 
L 134.099196 394.390291 
L 134.859617 422.307299 
L 137.9013 561.992064 
L 138.661721 585.848611 
L 139.422142 602.766877 
L 140.182563 613.044815 
L 140.942984 617.273966 
L 141.703404 616.158425 
L 142.463825 610.386909 
L 143.224246 600.594299 
L 143.984667 587.359039 
L 144.745088 571.178482 
L 146.265929 531.657646 
L 147.786771 484.907336 
L 150.068033 406.14397 
L 154.630558 244.460516 
L 156.1514 202.19464 
L 156.91182 187.436357 
L 157.672241 179.462131 
L 158.432662 180.944243 
L 159.193083 194.833222 
L 159.953504 223.196792 
L 160.713924 265.650333 
L 162.234766 377.114692 
L 163.755608 489.140332 
L 164.516028 536.333243 
L 165.276449 575.896618 
L 166.03687 607.797218 
L 166.797291 632.512054 
L 167.557712 650.73333 
L 168.318132 663.209699 
L 169.078553 670.667076 
L 169.838974 673.756204 
L 170.599395 673.047155 
L 171.359816 669.038158 
L 172.120236 662.148084 
L 172.880657 652.733752 
L 173.641078 641.108893 
L 175.16192 612.254473 
L 176.682761 577.412675 
L 178.964023 517.626638 
L 181.245286 456.07524 
L 182.005707 437.785081 
L 182.766127 422.296838 
L 183.526548 411.151659 
L 184.286969 406.335645 
L 185.04739 409.941965 
L 185.807811 423.18501 
L 186.568231 445.380616 
L 189.609915 560.861741 
L 190.370335 581.955737 
L 191.130756 597.346243 
L 191.891177 607.049672 
L 192.651598 611.399917 
L 193.412019 610.884966 
L 194.172439 606.04715 
L 194.93286 597.404721 
L 195.693281 585.439377 
L 196.453702 570.59255 
L 197.974543 533.714779 
L 199.495385 489.330438 
L 201.776647 413.279314 
L 204.05791 333.999029 
L 204.818331 310.534249 
L 205.578751 291.351603 
L 206.339172 279.453327 
L 207.099593 280.247313 
L 207.860014 300.244799 
L 208.620435 341.879832 
L 210.141276 464.456161 
L 211.662118 579.685645 
L 212.422539 622.818219 
L 213.182959 655.522145 
L 213.94338 678.708367 
L 214.703801 693.592333 
L 215.464222 701.411833 
L 216.224643 703.291009 
L 216.985063 700.183998 
L 217.745484 692.899585 
L 218.505905 682.109306 
L 219.266326 668.358956 
L 220.787167 633.728934 
L 222.308009 591.793037 
L 224.589271 519.299086 
L 226.870534 439.095254 
L 230.672638 296.246907 
L 233.714321 183.502434 
L 234.474742 159.006364 
L 235.235163 138.540545 
L 235.995583 124.351516 
L 236.756004 120.482348 
L 237.516425 133.118745 
L 238.276846 167.277855 
L 239.037267 221.876688 
L 241.318529 421.688556 
L 242.07895 474.973811 
L 242.839371 516.754856 
L 243.599791 547.385647 
L 244.360212 567.973788 
L 245.120633 579.851071 
L 245.881054 584.334827 
L 246.641475 582.595024 
L 247.401895 575.638859 
L 248.162316 564.333868 
L 248.922737 549.401658 
L 250.443579 511.077271 
L 251.96442 465.088843 
L 254.245683 393.700772 
L 255.006103 374.433879 
L 255.766524 361.378617 
L 256.526945 359.000362 
L 257.287366 372.816326 
L 258.047787 405.700597 
L 258.808207 454.468421 
L 261.08947 618.060231 
L 261.849891 660.288958 
L 262.610311 693.686592 
L 263.370732 718.823308 
L 264.131153 736.670086 
L 264.891574 748.303072 
L 265.651995 754.758843 
L 266.412415 756.936549 
L 267.172836 755.621151 
L 267.933257 751.494973 
L 268.693678 745.114541 
L 269.454099 736.958206 
L 270.97494 716.898304 
L 273.256203 681.679551 
L 278.579148 593.78066 
L 280.860411 553.218664 
L 283.141673 507.973938 
L 285.422935 456.390717 
L 287.704198 397.850697 
L 289.98546 332.731178 
L 294.547985 197.486889 
L 295.308406 182.297261 
L 296.068827 175.106465 
L 296.829247 182.141583 
L 297.589668 211.497179 
L 298.350089 266.593596 
L 301.391772 565.312776 
L 302.152193 618.846587 
L 302.912614 659.992246 
L 303.673035 690.099649 
L 304.433455 710.722208 
L 305.193876 723.383327 
L 305.954297 729.444707 
L 306.714718 730.000804 
L 307.475139 725.978252 
L 308.235559 718.155322 
L 308.99598 707.124861 
L 309.756401 693.390493 
L 311.277243 659.418636 
L 312.798084 618.721396 
L 315.079347 548.727039 
L 317.360609 471.335164 
L 320.402292 360.898325 
L 327.246079 105.931224 
L 328.0065 83.347746 
L 328.766921 66.165531 
L 329.527342 57.752551 
L 330.287763 65.214058 
L 331.048183 97.535231 
L 331.808604 157.754775 
L 334.850287 474.37926 
L 335.610708 529.109522 
L 336.371129 570.212103 
L 337.13155 599.216852 
L 337.891971 617.874545 
L 338.652391 627.875283 
L 339.412812 630.702005 
L 340.173233 627.57248 
L 340.933654 619.510657 
L 341.694075 607.359222 
L 342.454495 591.788515 
L 343.975337 552.578166 
L 345.496179 505.416955 
L 347.777441 425.773402 
L 350.058703 344.473269 
L 351.579545 298.188528 
L 352.339966 281.014369 
L 353.100387 270.537723 
L 353.860807 269.371387 
L 354.621228 279.497495 
L 355.381649 300.827671 
L 356.902491 364.633458 
L 358.423332 428.38704 
L 359.183753 452.861359 
L 359.944174 470.972473 
L 360.704595 482.747321 
L 361.465015 488.704185 
L 362.225436 489.626729 
L 362.985857 486.438829 
L 363.746278 480.169241 
L 366.02754 454.774983 
L 366.787961 448.754798 
L 367.548382 446.581284 
L 368.308803 449.713237 
L 369.069223 458.948551 
L 369.829644 473.956686 
L 371.350486 514.491339 
L 372.871327 554.100499 
L 373.631748 569.259583 
L 374.392169 580.215533 
L 375.15259 586.754687 
L 375.913011 588.965609 
L 376.673431 587.11434 
L 377.433852 581.566571 
L 378.194273 572.721968 
L 378.954694 560.982835 
L 379.715114 546.749245 
L 381.235956 512.321905 
L 383.517218 451.401283 
L 385.798481 389.472251 
L 387.319322 355.050354 
L 388.079743 342.060163 
L 388.840164 332.909611 
L 389.600585 328.182308 
L 390.361006 328.089197 
L 391.121426 332.3242 
L 391.881847 340.044341 
L 393.402689 361.026392 
L 394.92353 381.928904 
L 397.965214 417.765435 
L 398.725634 431.166472 
L 399.486055 449.715826 
L 400.246476 474.610657 
L 401.767318 541.205838 
L 403.288159 614.519327 
L 404.809001 675.522513 
L 405.569422 698.560332 
L 406.329842 716.410452 
L 407.090263 729.37196 
L 407.850684 737.897851 
L 408.611105 742.502285 
L 409.371526 743.712489 
L 410.131946 742.023591 
L 410.892367 737.893803 
L 411.652788 731.751609 
L 412.413209 723.979538 
L 413.93405 704.914665 
L 416.975734 660.700565 
L 419.256996 628.695343 
L 421.538258 600.022088 
L 424.579942 562.838997 
L 426.100783 541.737847 
L 427.621625 517.388379 
L 429.142466 489.0989 
L 430.663308 456.602684 
L 432.18415 419.950775 
L 434.465412 358.115068 
L 438.267516 251.347396 
L 439.027937 236.823436 
L 439.788358 229.925119 
L 440.548778 236.260625 
L 441.309199 262.602354 
L 442.06962 311.477433 
L 445.111303 577.541407 
L 445.871724 625.86051 
L 446.632145 663.028769 
L 447.392566 690.094446 
L 448.152986 708.389734 
L 448.913407 719.254594 
L 449.673828 723.891122 
L 450.434249 723.309238 
L 451.19467 718.365198 
L 451.95509 709.763755 
L 452.715511 698.07257 
L 453.475932 683.769632 
L 454.996774 648.816674 
L 456.517615 607.284774 
L 458.798878 536.161814 
L 461.08014 457.693826 
L 464.882244 317.084055 
L 469.444769 146.506232 
L 470.20519 122.700266 
L 470.96561 103.661435 
L 471.726031 92.180815 
L 472.486452 94.068044 
L 473.246873 117.653219 
L 474.007294 167.557029 
L 475.528135 319.428861 
L 477.048977 464.984401 
L 477.809398 519.6954 
L 478.569818 561.274831 
L 479.330239 590.920334 
L 480.09066 610.216874 
L 480.851081 620.774968 
L 481.611502 624.044148 
L 482.371922 621.231836 
L 483.132343 613.364598 
L 483.892764 601.286749 
L 484.653185 585.667422 
L 486.174026 545.994038 
L 487.694868 497.819753 
L 489.97613 415.159965 
L 493.017814 300.181442 
L 493.778234 275.335911 
L 494.538655 254.913036 
L 495.299076 241.836708 
L 496.059497 240.748821 
L 496.819918 256.437252 
L 497.580338 290.158185 
L 499.10118 390.795935 
L 500.622022 487.390085 
L 501.382442 523.575003 
L 502.142863 550.500907 
L 502.903284 568.73404 
L 503.663705 579.28701 
L 504.424126 583.313488 
L 505.184546 581.957656 
L 505.944967 576.325983 
L 506.705388 567.492023 
L 508.22623 544.572059 
L 509.747071 522.828965 
L 510.507492 515.979113 
L 511.267913 513.887294 
L 512.028334 517.726073 
L 512.788754 527.76994 
L 513.549175 543.066418 
L 516.590858 614.96063 
L 517.351279 626.768142 
L 518.1117 634.449019 
L 518.872121 637.936947 
L 519.632542 637.411562 
L 520.392962 633.158608 
L 521.153383 625.502094 
L 521.913804 614.803639 
L 522.674225 601.395403 
L 524.195066 567.627709 
L 525.715908 526.335223 
L 527.23675 479.2161 
L 529.518012 400.445296 
L 535.601378 180.401632 
L 536.361799 164.213508 
L 537.12222 159.188106 
L 537.882641 173.902752 
L 538.643062 215.933292 
L 539.403482 283.622244 
L 541.684745 520.890762 
L 542.445166 581.643011 
L 543.205586 629.138485 
L 543.966007 664.503381 
L 544.726428 689.357205 
L 545.486849 705.344994 
L 546.24727 714.005072 
L 547.00769 716.591245 
L 547.768111 714.135784 
L 548.528532 707.533739 
L 549.288953 697.468829 
L 550.049374 684.490787 
L 551.570215 651.641058 
L 553.091057 611.751404 
L 555.372319 542.783039 
L 557.653582 466.46119 
L 561.455686 329.860494 
L 565.25779 192.780081 
L 566.01821 169.280596 
L 566.778631 149.999202 
L 567.539052 137.401682 
L 568.299473 136.029063 
L 569.059894 152.465494 
L 569.820314 191.215948 
L 570.580735 249.817688 
L 572.861998 451.299665 
L 573.622418 502.947146 
L 574.382839 542.895048 
L 575.14326 571.76112 
L 575.903681 590.784165 
L 576.664102 601.326193 
L 577.424522 604.686775 
L 578.184943 602.020027 
L 578.945364 594.290761 
L 579.705785 582.308706 
L 580.466205 566.761134 
L 581.987047 527.092533 
L 583.507889 478.786031 
L 585.789151 395.703025 
L 588.830834 280.206813 
L 589.591255 255.825792 
L 590.351676 236.823738 
L 591.112097 227.146232 
L 591.872517 233.303163 
L 592.632938 261.492269 
L 593.393359 311.862295 
L 596.435042 562.368572 
L 597.195463 605.315419 
L 597.955884 637.700315 
L 598.716305 660.650932 
L 599.476725 675.472478 
L 600.237146 683.467186 
L 600.997567 685.780158 
L 601.757988 683.362208 
L 602.518409 677.041756 
L 603.278829 667.497579 
L 604.03925 655.267783 
L 605.560092 624.557179 
L 607.080933 587.72421 
L 609.362196 525.177126 
L 613.1643 411.557689 
L 616.205983 321.951325 
L 617.726825 284.00196 
L 618.487245 269.37829 
L 619.247666 259.481461 
L 620.008087 256.2349 
L 620.768508 261.810274 
L 621.528929 277.738733 
L 622.289349 303.759921 
L 623.810191 374.718856 
L 625.331033 445.006396 
L 626.091453 472.944066 
L 626.851874 494.655069 
L 627.612295 510.152464 
L 628.372716 519.949415 
L 629.133137 524.860548 
L 629.893557 525.934948 
L 630.653978 524.432414 
L 631.414399 521.861339 
L 632.17482 520.063488 
L 632.935241 521.249515 
L 633.695661 527.897731 
L 634.456082 542.214919 
L 635.216503 565.060302 
L 636.737345 629.440172 
L 638.258186 696.944646 
L 639.018607 725.350387 
L 639.779028 748.703402 
L 640.539449 766.820033 
L 641.299869 779.933611 
L 642.06029 788.475646 
L 642.820711 792.941005 
L 643.581132 793.839179 
L 644.341553 791.646639 
L 645.101973 786.783251 
L 645.862394 779.63267 
L 646.622815 770.531634 
L 648.143657 747.589302 
L 649.664498 719.905201 
L 651.945761 672.742363 
L 661.831231 459.051996 
L 666.393756 363.894895 
L 668.675018 311.696915 
L 672.477122 219.82746 
L 673.237543 205.014416 
L 673.997964 195.106692 
L 674.758385 193.735514 
L 675.518805 206.982594 
L 676.279226 241.405597 
L 677.039647 298.328786 
L 680.08133 581.661787 
L 680.841751 631.825163 
L 681.602172 670.544449 
L 682.362593 699.007531 
L 683.123013 718.608256 
L 683.883434 730.723775 
L 684.643855 736.580735 
L 685.404276 737.191297 
L 686.164697 733.416749 
L 686.164697 733.416749 
" clip-path="url(#p071cf7c97f)" style="fill: none; stroke: #ff7f0e; stroke-width: 1.5; stroke-linecap: square"/>
   </g>
   <g id="patch_3">
    <path d="M 38.628365 830.64351 
L 38.628365 20.94822 
" style="fill: none; stroke: #000000; stroke-width: 0.8; stroke-linejoin: miter; stroke-linecap: square"/>
   </g>
   <g id="patch_4">
    <path d="M 716.99976 830.64351 
L 716.99976 20.94822 
" style="fill: none; stroke: #000000; stroke-width: 0.8; stroke-linejoin: miter; stroke-linecap: square"/>
   </g>
   <g id="patch_5">
    <path d="M 38.628365 830.64351 
L 716.99976 830.64351 
" style="fill: none; stroke: #000000; stroke-width: 0.8; stroke-linejoin: miter; stroke-linecap: square"/>
   </g>
   <g id="patch_6">
    <path d="M 38.628365 20.94822 
L 716.99976 20.94822 
" style="fill: none; stroke: #000000; stroke-width: 0.8; stroke-linejoin: miter; stroke-linecap: square"/>
   </g>
   <g id="legend_1">
    <g id="patch_7">
     <path d="M 663.23726 50.83322 
L 711.39976 50.83322 
Q 712.99976 50.83322 712.99976 49.23322 
L 712.99976 26.54822 
Q 712.99976 24.94822 711.39976 24.94822 
L 663.23726 24.94822 
Q 661.63726 24.94822 661.63726 26.54822 
L 661.63726 49.23322 
Q 661.63726 50.83322 663.23726 50.83322 
z
" style="fill: #ffffff; opacity: 0.8; stroke: #cccccc; stroke-linejoin: miter"/>
    </g>
    <g id="line2d_17">
     <path d="M 664.83726 31.42697 
L 672.83726 31.42697 
L 680.83726 31.42697 
" style="fill: none; stroke: #1f77b4; stroke-width: 1.5; stroke-linecap: square"/>
    </g>
    <g id="text_16">
     <!-- t=0.0 -->
     <g transform="translate(687.23726 34.22697) scale(0.08 -0.08)">
      <defs>
       <path id="DejaVuSans-74" d="M 1172 4494 
L 1172 3500 
L 2356 3500 
L 2356 3053 
L 1172 3053 
L 1172 1153 
Q 1172 725 1289 603 
Q 1406 481 1766 481 
L 2356 481 
L 2356 0 
L 1766 0 
Q 1100 0 847 248 
Q 594 497 594 1153 
L 594 3053 
L 172 3053 
L 172 3500 
L 594 3500 
L 594 4494 
L 1172 4494 
z
" transform="scale(0.015625)"/>
       <path id="DejaVuSans-3d" d="M 678 2906 
L 4684 2906 
L 4684 2381 
L 678 2381 
L 678 2906 
z
M 678 1631 
L 4684 1631 
L 4684 1100 
L 678 1100 
L 678 1631 
z
" transform="scale(0.015625)"/>
      </defs>
      <use xlink:href="#DejaVuSans-74"/>
      <use xlink:href="#DejaVuSans-3d" x="39.208984"/>
      <use xlink:href="#DejaVuSans-30" x="122.998047"/>
      <use xlink:href="#DejaVuSans-2e" x="186.621094"/>
      <use xlink:href="#DejaVuSans-30" x="218.408203"/>
     </g>
    </g>
    <g id="line2d_18">
     <path d="M 664.83726 43.16947 
L 672.83726 43.16947 
L 680.83726 43.16947 
" style="fill: none; stroke: #ff7f0e; stroke-width: 1.5; stroke-linecap: square"/>
    </g>
    <g id="text_17">
     <!-- t=1.0 -->
     <g transform="translate(687.23726 45.96947) scale(0.08 -0.08)">
      <use xlink:href="#DejaVuSans-74"/>
      <use xlink:href="#DejaVuSans-3d" x="39.208984"/>
      <use xlink:href="#DejaVuSans-31" x="122.998047"/>
      <use xlink:href="#DejaVuSans-2e" x="186.621094"/>
      <use xlink:href="#DejaVuSans-30" x="218.408203"/>
     </g>
    </g>
   </g>
  </g>
  <g id="text_18">
   <!-- Density snapshots for modes m=1..5  [seed_modes_1to5] -->
   <g transform="translate(185.743125 12.118365) scale(0.12 -0.12)">
    <defs>
     <path id="DejaVuSans-44" d="M 1259 4147 
L 1259 519 
L 2022 519 
Q 2988 519 3436 956 
Q 3884 1394 3884 2338 
Q 3884 3275 3436 3711 
Q 2988 4147 2022 4147 
L 1259 4147 
z
M 628 4666 
L 1925 4666 
Q 3281 4666 3915 4102 
Q 4550 3538 4550 2338 
Q 4550 1131 3912 565 
Q 3275 0 1925 0 
L 628 0 
L 628 4666 
z
" transform="scale(0.015625)"/>
     <path id="DejaVuSans-65" d="M 3597 1894 
L 3597 1613 
L 953 1613 
Q 991 1019 1311 708 
Q 1631 397 2203 397 
Q 2534 397 2845 478 
Q 3156 559 3463 722 
L 3463 178 
Q 3153 47 2828 -22 
Q 2503 -91 2169 -91 
Q 1331 -91 842 396 
Q 353 884 353 1716 
Q 353 2575 817 3079 
Q 1281 3584 2069 3584 
Q 2775 3584 3186 3129 
Q 3597 2675 3597 1894 
z
M 3022 2063 
Q 3016 2534 2758 2815 
Q 2500 3097 2075 3097 
Q 1594 3097 1305 2825 
Q 1016 2553 972 2059 
L 3022 2063 
z
" transform="scale(0.015625)"/>
     <path id="DejaVuSans-6e" d="M 3513 2113 
L 3513 0 
L 2938 0 
L 2938 2094 
Q 2938 2591 2744 2837 
Q 2550 3084 2163 3084 
Q 1697 3084 1428 2787 
Q 1159 2491 1159 1978 
L 1159 0 
L 581 0 
L 581 3500 
L 1159 3500 
L 1159 2956 
Q 1366 3272 1645 3428 
Q 1925 3584 2291 3584 
Q 2894 3584 3203 3211 
Q 3513 2838 3513 2113 
z
" transform="scale(0.015625)"/>
     <path id="DejaVuSans-73" d="M 2834 3397 
L 2834 2853 
Q 2591 2978 2328 3040 
Q 2066 3103 1784 3103 
Q 1356 3103 1142 2972 
Q 928 2841 928 2578 
Q 928 2378 1081 2264 
Q 1234 2150 1697 2047 
L 1894 2003 
Q 2506 1872 2764 1633 
Q 3022 1394 3022 966 
Q 3022 478 2636 193 
Q 2250 -91 1575 -91 
Q 1294 -91 989 -36 
Q 684 19 347 128 
L 347 722 
Q 666 556 975 473 
Q 1284 391 1588 391 
Q 1994 391 2212 530 
Q 2431 669 2431 922 
Q 2431 1156 2273 1281 
Q 2116 1406 1581 1522 
L 1381 1569 
Q 847 1681 609 1914 
Q 372 2147 372 2553 
Q 372 3047 722 3315 
Q 1072 3584 1716 3584 
Q 2034 3584 2315 3537 
Q 2597 3491 2834 3397 
z
" transform="scale(0.015625)"/>
     <path id="DejaVuSans-69" d="M 603 3500 
L 1178 3500 
L 1178 0 
L 603 0 
L 603 3500 
z
M 603 4863 
L 1178 4863 
L 1178 4134 
L 603 4134 
L 603 4863 
z
" transform="scale(0.015625)"/>
     <path id="DejaVuSans-79" d="M 2059 -325 
Q 1816 -950 1584 -1140 
Q 1353 -1331 966 -1331 
L 506 -1331 
L 506 -850 
L 844 -850 
Q 1081 -850 1212 -737 
Q 1344 -625 1503 -206 
L 1606 56 
L 191 3500 
L 800 3500 
L 1894 763 
L 2988 3500 
L 3597 3500 
L 2059 -325 
z
" transform="scale(0.015625)"/>
     <path id="DejaVuSans-20" transform="scale(0.015625)"/>
     <path id="DejaVuSans-61" d="M 2194 1759 
Q 1497 1759 1228 1600 
Q 959 1441 959 1056 
Q 959 750 1161 570 
Q 1363 391 1709 391 
Q 2188 391 2477 730 
Q 2766 1069 2766 1631 
L 2766 1759 
L 2194 1759 
z
M 3341 1997 
L 3341 0 
L 2766 0 
L 2766 531 
Q 2569 213 2275 61 
Q 1981 -91 1556 -91 
Q 1019 -91 701 211 
Q 384 513 384 1019 
Q 384 1609 779 1909 
Q 1175 2209 1959 2209 
L 2766 2209 
L 2766 2266 
Q 2766 2663 2505 2880 
Q 2244 3097 1772 3097 
Q 1472 3097 1187 3025 
Q 903 2953 641 2809 
L 641 3341 
Q 956 3463 1253 3523 
Q 1550 3584 1831 3584 
Q 2591 3584 2966 3190 
Q 3341 2797 3341 1997 
z
" transform="scale(0.015625)"/>
     <path id="DejaVuSans-70" d="M 1159 525 
L 1159 -1331 
L 581 -1331 
L 581 3500 
L 1159 3500 
L 1159 2969 
Q 1341 3281 1617 3432 
Q 1894 3584 2278 3584 
Q 2916 3584 3314 3078 
Q 3713 2572 3713 1747 
Q 3713 922 3314 415 
Q 2916 -91 2278 -91 
Q 1894 -91 1617 61 
Q 1341 213 1159 525 
z
M 3116 1747 
Q 3116 2381 2855 2742 
Q 2594 3103 2138 3103 
Q 1681 3103 1420 2742 
Q 1159 2381 1159 1747 
Q 1159 1113 1420 752 
Q 1681 391 2138 391 
Q 2594 391 2855 752 
Q 3116 1113 3116 1747 
z
" transform="scale(0.015625)"/>
     <path id="DejaVuSans-68" d="M 3513 2113 
L 3513 0 
L 2938 0 
L 2938 2094 
Q 2938 2591 2744 2837 
Q 2550 3084 2163 3084 
Q 1697 3084 1428 2787 
Q 1159 2491 1159 1978 
L 1159 0 
L 581 0 
L 581 4863 
L 1159 4863 
L 1159 2956 
Q 1366 3272 1645 3428 
Q 1925 3584 2291 3584 
Q 2894 3584 3203 3211 
Q 3513 2838 3513 2113 
z
" transform="scale(0.015625)"/>
     <path id="DejaVuSans-6f" d="M 1959 3097 
Q 1497 3097 1228 2736 
Q 959 2375 959 1747 
Q 959 1119 1226 758 
Q 1494 397 1959 397 
Q 2419 397 2687 759 
Q 2956 1122 2956 1747 
Q 2956 2369 2687 2733 
Q 2419 3097 1959 3097 
z
M 1959 3584 
Q 2709 3584 3137 3096 
Q 3566 2609 3566 1747 
Q 3566 888 3137 398 
Q 2709 -91 1959 -91 
Q 1206 -91 779 398 
Q 353 888 353 1747 
Q 353 2609 779 3096 
Q 1206 3584 1959 3584 
z
" transform="scale(0.015625)"/>
     <path id="DejaVuSans-66" d="M 2375 4863 
L 2375 4384 
L 1825 4384 
Q 1516 4384 1395 4259 
Q 1275 4134 1275 3809 
L 1275 3500 
L 2222 3500 
L 2222 3053 
L 1275 3053 
L 1275 0 
L 697 0 
L 697 3053 
L 147 3053 
L 147 3500 
L 697 3500 
L 697 3744 
Q 697 4328 969 4595 
Q 1241 4863 1831 4863 
L 2375 4863 
z
" transform="scale(0.015625)"/>
     <path id="DejaVuSans-72" d="M 2631 2963 
Q 2534 3019 2420 3045 
Q 2306 3072 2169 3072 
Q 1681 3072 1420 2755 
Q 1159 2438 1159 1844 
L 1159 0 
L 581 0 
L 581 3500 
L 1159 3500 
L 1159 2956 
Q 1341 3275 1631 3429 
Q 1922 3584 2338 3584 
Q 2397 3584 2469 3576 
Q 2541 3569 2628 3553 
L 2631 2963 
z
" transform="scale(0.015625)"/>
     <path id="DejaVuSans-6d" d="M 3328 2828 
Q 3544 3216 3844 3400 
Q 4144 3584 4550 3584 
Q 5097 3584 5394 3201 
Q 5691 2819 5691 2113 
L 5691 0 
L 5113 0 
L 5113 2094 
Q 5113 2597 4934 2840 
Q 4756 3084 4391 3084 
Q 3944 3084 3684 2787 
Q 3425 2491 3425 1978 
L 3425 0 
L 2847 0 
L 2847 2094 
Q 2847 2600 2669 2842 
Q 2491 3084 2119 3084 
Q 1678 3084 1418 2786 
Q 1159 2488 1159 1978 
L 1159 0 
L 581 0 
L 581 3500 
L 1159 3500 
L 1159 2956 
Q 1356 3278 1631 3431 
Q 1906 3584 2284 3584 
Q 2666 3584 2933 3390 
Q 3200 3197 3328 2828 
z
" transform="scale(0.015625)"/>
     <path id="DejaVuSans-64" d="M 2906 2969 
L 2906 4863 
L 3481 4863 
L 3481 0 
L 2906 0 
L 2906 525 
Q 2725 213 2448 61 
Q 2172 -91 1784 -91 
Q 1150 -91 751 415 
Q 353 922 353 1747 
Q 353 2572 751 3078 
Q 1150 3584 1784 3584 
Q 2172 3584 2448 3432 
Q 2725 3281 2906 2969 
z
M 947 1747 
Q 947 1113 1208 752 
Q 1469 391 1925 391 
Q 2381 391 2643 752 
Q 2906 1113 2906 1747 
Q 2906 2381 2643 2742 
Q 2381 3103 1925 3103 
Q 1469 3103 1208 2742 
Q 947 2381 947 1747 
z
" transform="scale(0.015625)"/>
     <path id="DejaVuSans-5b" d="M 550 4863 
L 1875 4863 
L 1875 4416 
L 1125 4416 
L 1125 -397 
L 1875 -397 
L 1875 -844 
L 550 -844 
L 550 4863 
z
" transform="scale(0.015625)"/>
     <path id="DejaVuSans-5f" d="M 3263 -1063 
L 3263 -1509 
L -63 -1509 
L -63 -1063 
L 3263 -1063 
z
" transform="scale(0.015625)"/>
     <path id="DejaVuSans-5d" d="M 1947 4863 
L 1947 -844 
L 622 -844 
L 622 -397 
L 1369 -397 
L 1369 4416 
L 622 4416 
L 622 4863 
L 1947 4863 
z
" transform="scale(0.015625)"/>
    </defs>
    <use xlink:href="#DejaVuSans-44"/>
    <use xlink:href="#DejaVuSans-65" x="77.001953"/>
    <use xlink:href="#DejaVuSans-6e" x="138.525391"/>
    <use xlink:href="#DejaVuSans-73" x="201.904297"/>
    <use xlink:href="#DejaVuSans-69" x="254.003906"/>
    <use xlink:href="#DejaVuSans-74" x="281.787109"/>
    <use xlink:href="#DejaVuSans-79" x="320.996094"/>
    <use xlink:href="#DejaVuSans-20" x="380.175781"/>
    <use xlink:href="#DejaVuSans-73" x="411.962891"/>
    <use xlink:href="#DejaVuSans-6e" x="464.0625"/>
    <use xlink:href="#DejaVuSans-61" x="527.441406"/>
    <use xlink:href="#DejaVuSans-70" x="588.720703"/>
    <use xlink:href="#DejaVuSans-73" x="652.197266"/>
    <use xlink:href="#DejaVuSans-68" x="704.296875"/>
    <use xlink:href="#DejaVuSans-6f" x="767.675781"/>
    <use xlink:href="#DejaVuSans-74" x="828.857422"/>
    <use xlink:href="#DejaVuSans-73" x="868.066406"/>
    <use xlink:href="#DejaVuSans-20" x="920.166016"/>
    <use xlink:href="#DejaVuSans-66" x="951.953125"/>
    <use xlink:href="#DejaVuSans-6f" x="987.158203"/>
    <use xlink:href="#DejaVuSans-72" x="1048.339844"/>
    <use xlink:href="#DejaVuSans-20" x="1089.453125"/>
    <use xlink:href="#DejaVuSans-6d" x="1121.240234"/>
    <use xlink:href="#DejaVuSans-6f" x="1218.652344"/>
    <use xlink:href="#DejaVuSans-64" x="1279.833984"/>
    <use xlink:href="#DejaVuSans-65" x="1343.310547"/>
    <use xlink:href="#DejaVuSans-73" x="1404.833984"/>
    <use xlink:href="#DejaVuSans-20" x="1456.933594"/>
    <use xlink:href="#DejaVuSans-6d" x="1488.720703"/>
    <use xlink:href="#DejaVuSans-3d" x="1586.132812"/>
    <use xlink:href="#DejaVuSans-31" x="1669.921875"/>
    <use xlink:href="#DejaVuSans-2e" x="1733.544922"/>
    <use xlink:href="#DejaVuSans-2e" x="1765.332031"/>
    <use xlink:href="#DejaVuSans-35" x="1797.119141"/>
    <use xlink:href="#DejaVuSans-20" x="1860.742188"/>
    <use xlink:href="#DejaVuSans-20" x="1892.529297"/>
    <use xlink:href="#DejaVuSans-5b" x="1924.316406"/>
    <use xlink:href="#DejaVuSans-73" x="1963.330078"/>
    <use xlink:href="#DejaVuSans-65" x="2015.429688"/>
    <use xlink:href="#DejaVuSans-65" x="2076.953125"/>
    <use xlink:href="#DejaVuSans-64" x="2138.476562"/>
    <use xlink:href="#DejaVuSans-5f" x="2201.953125"/>
    <use xlink:href="#DejaVuSans-6d" x="2251.953125"/>
    <use xlink:href="#DejaVuSans-6f" x="2349.365234"/>
    <use xlink:href="#DejaVuSans-64" x="2410.546875"/>
    <use xlink:href="#DejaVuSans-65" x="2474.023438"/>
    <use xlink:href="#DejaVuSans-73" x="2535.546875"/>
    <use xlink:href="#DejaVuSans-5f" x="2587.646484"/>
    <use xlink:href="#DejaVuSans-31" x="2637.646484"/>
    <use xlink:href="#DejaVuSans-74" x="2701.269531"/>
    <use xlink:href="#DejaVuSans-6f" x="2740.478516"/>
    <use xlink:href="#DejaVuSans-35" x="2801.660156"/>
    <use xlink:href="#DejaVuSans-5d" x="2865.283203"/>
   </g>
  </g>
 </g>
 <defs>
  <clipPath id="p071cf7c97f">
   <rect x="38.628365" y="20.94822" width="678.371395" height="809.69529"/>
  </clipPath>
 </defs>
</svg>
