<?xml version="1.0" encoding="utf-8" standalone="no"?>
<!DOCTYPE svg PUBLIC "-//W3C//DTD SVG 1.1//EN"
  "http://www.w3.org/Graphics/SVG/1.1/DTD/svg11.dtd">
<svg xmlns:xlink="http://www.w3.org/1999/xlink" width="620.39952pt" height="332.39952pt" viewBox="0 0 620.39952 332.39952" xmlns="http://www.w3.org/2000/svg" version="1.1">
 <metadata>
  <rdf:RDF xmlns:dc="http://purl.org/dc/elements/1.1/" xmlns:cc="http://creativecommons.org/ns#" xmlns:rdf="http://www.w3.org/1999/02/22-rdf-syntax-ns#">
   <cc:Work>
    <dc:type rdf:resource="http://purl.org/dc/dcmitype/StillImage"/>
    <dc:date>2025-12-23T15:31:16.556105</dc:date>
    <dc:format>image/svg+xml</dc:format>
    <dc:creator>
     <cc:Agent>
      <dc:title>Matplotlib v3.8.4, https://matplotlib.org/</dc:title>
     </cc:Agent>
    </dc:creator>
   </cc:Work>
  </rdf:RDF>
 </metadata>
 <defs>
  <style type="text/css">*{stroke-linejoin: round; stroke-linecap: butt}</style>
 </defs>
 <g id="figure_1">
  <g id="patch_1">
   <path d="M 0 332.39952 
L 620.39952 332.39952 
L 620.39952 0 
L 0 0 
L 0 332.39952 
z
" style="fill: none"/>
  </g>
  <g id="axes_1">
   <g id="patch_2">
    <path d="M 59.255 286.59952 
L 609.94952 286.59952 
L 609.94952 7.2 
L 59.255 7.2 
L 59.255 286.59952 
z
" style="fill: none"/>
   </g>
   <g id="line2d_1">
    <path d="M 419.642733 286.59952 
L 419.642733 7.2 
" clip-path="url(#pe614292612)" style="fill: none; stroke-dasharray: 1,1.65; stroke-dashoffset: 0; stroke: #808080"/>
   </g>
   <g id="line2d_2">
    <path d="M 334.60226 286.59952 
L 334.60226 7.2 
" clip-path="url(#pe614292612)" style="fill: none; stroke-dasharray: 6.4,1.6,1,1.6; stroke-dashoffset: 0; stroke: #808080"/>
   </g>
   <g id="line2d_3">
    <path d="M 249.561787 286.59952 
L 249.561787 7.2 
" clip-path="url(#pe614292612)" style="fill: none; stroke-dasharray: 1,1.65; stroke-dashoffset: 0; stroke: #808080"/>
   </g>
   <g id="line2d_4">
    <path d="M 271.062388 -1 
L 274.384412 15.965065 
L 278.061838 33.674326 
L 281.739264 50.268042 
L 285.416689 65.746215 
L 289.094115 80.108844 
L 292.771541 93.355928 
L 295.52961 102.559166 
L 298.28768 111.134911 
L 301.045749 119.083161 
L 303.803819 126.403919 
L 306.561888 133.097183 
L 309.319957 139.162953 
L 312.078027 144.60123 
L 314.836096 149.412013 
L 316.674809 152.270595 
L 318.513522 154.85029 
L 320.352235 157.1511 
L 322.190948 159.173023 
L 324.029661 160.916061 
L 325.868374 162.380212 
L 327.707087 163.565478 
L 329.545799 164.471857 
L 331.384512 165.09935 
L 333.223225 165.447958 
L 335.061938 165.517679 
L 336.900651 165.308515 
L 338.739364 164.820464 
L 340.578077 164.053528 
L 342.41679 163.007706 
L 344.255503 161.682997 
L 346.094216 160.079403 
L 347.932929 158.196922 
L 349.771642 156.035556 
L 351.610355 153.595303 
L 353.449067 150.876165 
L 355.28778 147.87814 
L 358.04585 142.858192 
L 360.803919 137.210751 
L 363.561989 130.935816 
L 366.320058 124.033388 
L 369.078127 116.503466 
L 371.836197 108.346051 
L 374.594266 99.561142 
L 377.352335 90.148739 
L 380.110405 80.108844 
L 383.787831 65.746215 
L 387.465256 50.268042 
L 391.142682 33.674326 
L 394.820108 15.965065 
L 398.142132 -1 
L 398.142132 -1 
" clip-path="url(#pe614292612)" style="fill: none; stroke: #ff0000; stroke-linecap: square"/>
   </g>
   <g id="line2d_5">
    <path d="M 59.255 25.459928 
L 609.94952 25.459928 
" clip-path="url(#pe614292612)" style="fill: none; stroke: #ff0000; stroke-linecap: square"/>
   </g>
   <g id="PolyCollection_1">
    <defs>
     <path id="m4d598e323f" d="M 166.819706 -167.321552 
L 166.819706 -166.873125 
L 167.739062 -166.873125 
L 168.658419 -166.873125 
L 169.577775 -166.873125 
L 170.497132 -166.873125 
L 171.416488 -166.873125 
L 172.335845 -166.873125 
L 173.255201 -166.873125 
L 174.174558 -166.873125 
L 175.093914 -166.873125 
L 176.013271 -166.873125 
L 176.932627 -166.873125 
L 177.851983 -166.873125 
L 178.77134 -166.873125 
L 179.690696 -166.873125 
L 180.610053 -166.873125 
L 181.529409 -166.873125 
L 182.448766 -166.873125 
L 183.368122 -166.873125 
L 184.287479 -166.873125 
L 185.206835 -166.873125 
L 186.126192 -166.873125 
L 187.045548 -166.873125 
L 187.964905 -166.873125 
L 188.884261 -166.873125 
L 189.803617 -166.873125 
L 190.722974 -166.873125 
L 191.64233 -166.873125 
L 192.561687 -166.873125 
L 193.481043 -166.873125 
L 194.4004 -166.873125 
L 195.319756 -166.873125 
L 196.239113 -166.873125 
L 197.158469 -166.873125 
L 198.077826 -166.873125 
L 198.997182 -166.873125 
L 199.916538 -166.873125 
L 200.835895 -166.873125 
L 201.755251 -166.873125 
L 202.674608 -166.873125 
L 203.593964 -166.873125 
L 204.513321 -166.873125 
L 205.432677 -166.873125 
L 206.352034 -166.873125 
L 207.27139 -166.873125 
L 208.190747 -166.873125 
L 209.110103 -166.873125 
L 210.02946 -166.873125 
L 210.948816 -166.873125 
L 211.868172 -166.873125 
L 212.787529 -166.873125 
L 213.706885 -166.873125 
L 214.626242 -166.873125 
L 215.545598 -166.873125 
L 216.464955 -166.873125 
L 217.384311 -166.873125 
L 218.303668 -166.873125 
L 219.223024 -166.873125 
L 220.142381 -166.873125 
L 221.061737 -166.873125 
L 221.981094 -166.873125 
L 222.90045 -166.873125 
L 223.819806 -166.873125 
L 224.739163 -166.873125 
L 225.658519 -166.873125 
L 226.577876 -166.873125 
L 227.497232 -166.873125 
L 228.416589 -166.873125 
L 229.335945 -166.873125 
L 230.255302 -166.873125 
L 231.174658 -166.873125 
L 232.094015 -166.873125 
L 233.013371 -166.873125 
L 233.932728 -166.873125 
L 234.852084 -166.873125 
L 235.77144 -166.873125 
L 236.690797 -166.873125 
L 237.610153 -166.873125 
L 238.52951 -166.873125 
L 239.448866 -166.873125 
L 240.368223 -166.873125 
L 241.287579 -166.873125 
L 242.206936 -166.873125 
L 243.126292 -166.873125 
L 244.045649 -166.873125 
L 244.965005 -166.873125 
L 245.884362 -166.873125 
L 246.803718 -166.873125 
L 247.723074 -166.873125 
L 248.642431 -166.873125 
L 249.561787 -166.873125 
L 250.481144 -166.873125 
L 251.4005 -166.873125 
L 252.319857 -166.873125 
L 253.239213 -166.873125 
L 254.15857 -166.873125 
L 255.077926 -166.873125 
L 255.997283 -166.873125 
L 256.916639 -166.873125 
L 257.835996 -166.873125 
L 258.755352 -166.873125 
L 259.674708 -166.873125 
L 260.594065 -166.873125 
L 261.513421 -166.873125 
L 262.432778 -166.873125 
L 263.352134 -166.873125 
L 264.271491 -166.873125 
L 265.190847 -166.873125 
L 266.110204 -166.873125 
L 267.02956 -166.873125 
L 267.948917 -166.873125 
L 268.868273 -166.873125 
L 269.78763 -166.873125 
L 270.706986 -166.873125 
L 271.626342 -166.873125 
L 272.545699 -166.873125 
L 273.465055 -166.873125 
L 274.384412 -166.873125 
L 275.303768 -166.873125 
L 276.223125 -166.873125 
L 277.142481 -166.873125 
L 278.061838 -166.873125 
L 278.981194 -166.873125 
L 279.900551 -166.873125 
L 280.819907 -166.873125 
L 281.739264 -166.873125 
L 282.65862 -166.873125 
L 283.577976 -166.873125 
L 284.497333 -166.873125 
L 285.416689 -166.873125 
L 286.336046 -166.873125 
L 287.255402 -166.873125 
L 288.174759 -166.873125 
L 289.094115 -166.873125 
L 290.013472 -166.873125 
L 290.932828 -166.873125 
L 291.852185 -166.873125 
L 292.771541 -166.873125 
L 293.690897 -166.873125 
L 294.610254 -166.873125 
L 295.52961 -166.873125 
L 296.448967 -166.873125 
L 297.368323 -166.873125 
L 298.28768 -166.873125 
L 299.207036 -166.873125 
L 300.126393 -166.873125 
L 301.045749 -166.873125 
L 301.965106 -166.873125 
L 302.884462 -166.873125 
L 303.803819 -166.873125 
L 304.723175 -166.873125 
L 305.642531 -166.873125 
L 306.561888 -166.873125 
L 307.481244 -166.873125 
L 308.400601 -166.873125 
L 309.319957 -166.873125 
L 310.239314 -166.873125 
L 311.15867 -166.873125 
L 312.078027 -166.873125 
L 312.997383 -166.873125 
L 313.91674 -166.873125 
L 314.836096 -166.873125 
L 315.755453 -166.873125 
L 316.674809 -166.873125 
L 317.594165 -166.873125 
L 318.513522 -166.873125 
L 319.432878 -166.873125 
L 320.352235 -166.873125 
L 321.271591 -166.873125 
L 322.190948 -166.873125 
L 323.110304 -166.873125 
L 324.029661 -166.873125 
L 324.949017 -166.873125 
L 325.868374 -166.873125 
L 326.78773 -166.873125 
L 327.707087 -166.873125 
L 328.626443 -166.873125 
L 329.545799 -166.873125 
L 330.465156 -166.873125 
L 331.384512 -166.873125 
L 332.303869 -166.873125 
L 333.223225 -166.873125 
L 334.142582 -166.873125 
L 335.061938 -166.873125 
L 335.981295 -166.873125 
L 336.900651 -166.873125 
L 337.820008 -166.873125 
L 338.739364 -166.873125 
L 339.658721 -166.873125 
L 340.578077 -166.873125 
L 341.497433 -166.873125 
L 342.41679 -166.873125 
L 343.336146 -166.873125 
L 344.255503 -166.873125 
L 345.174859 -166.873125 
L 346.094216 -166.873125 
L 347.013572 -166.873125 
L 347.932929 -166.873125 
L 348.852285 -166.873125 
L 349.771642 -166.873125 
L 350.690998 -166.873125 
L 351.610355 -166.873125 
L 352.529711 -166.873125 
L 353.449067 -166.873125 
L 354.368424 -166.873125 
L 355.28778 -166.873125 
L 356.207137 -166.873125 
L 357.126493 -166.873125 
L 358.04585 -166.873125 
L 358.965206 -166.873125 
L 359.884563 -166.873125 
L 360.803919 -166.873125 
L 361.723276 -166.873125 
L 362.642632 -166.873125 
L 363.561989 -166.873125 
L 364.481345 -166.873125 
L 365.400701 -166.873125 
L 366.320058 -166.873125 
L 367.239414 -166.873125 
L 368.158771 -166.873125 
L 369.078127 -166.873125 
L 369.997484 -166.873125 
L 370.91684 -166.873125 
L 371.836197 -166.873125 
L 372.755553 -166.873125 
L 373.67491 -166.873125 
L 374.594266 -166.873125 
L 375.513623 -166.873125 
L 376.432979 -166.873125 
L 377.352335 -166.873125 
L 378.271692 -166.873125 
L 379.191048 -166.873125 
L 380.110405 -166.873125 
L 381.029761 -166.873125 
L 381.949118 -166.873125 
L 382.868474 -166.873125 
L 383.787831 -166.873125 
L 384.707187 -166.873125 
L 385.626544 -166.873125 
L 386.5459 -166.873125 
L 387.465256 -166.873125 
L 388.384613 -166.873125 
L 389.303969 -166.873125 
L 390.223326 -166.873125 
L 391.142682 -166.873125 
L 392.062039 -166.873125 
L 392.981395 -166.873125 
L 393.900752 -166.873125 
L 394.820108 -166.873125 
L 395.739465 -166.873125 
L 396.658821 -166.873125 
L 397.578178 -166.873125 
L 398.497534 -166.873125 
L 399.41689 -166.873125 
L 400.336247 -166.873125 
L 401.255603 -166.873125 
L 402.17496 -166.873125 
L 403.094316 -166.873125 
L 404.013673 -166.873125 
L 404.933029 -166.873125 
L 405.852386 -166.873125 
L 406.771742 -166.873125 
L 407.691099 -166.873125 
L 408.610455 -166.873125 
L 409.529812 -166.873125 
L 410.449168 -166.873125 
L 411.368524 -166.873125 
L 412.287881 -166.873125 
L 413.207237 -166.873125 
L 414.126594 -166.873125 
L 415.04595 -166.873125 
L 415.965307 -166.873125 
L 416.884663 -166.873125 
L 417.80402 -166.873125 
L 418.723376 -166.873125 
L 419.642733 -166.873125 
L 420.562089 -166.873125 
L 421.481446 -166.873125 
L 422.400802 -166.873125 
L 423.320158 -166.873125 
L 424.239515 -166.873125 
L 425.158871 -166.873125 
L 426.078228 -166.873125 
L 426.997584 -166.873125 
L 427.916941 -166.873125 
L 428.836297 -166.873125 
L 429.755654 -166.873125 
L 430.67501 -166.873125 
L 431.594367 -166.873125 
L 432.513723 -166.873125 
L 433.43308 -166.873125 
L 434.352436 -166.873125 
L 435.271792 -166.873125 
L 436.191149 -166.873125 
L 437.110505 -166.873125 
L 438.029862 -166.873125 
L 438.949218 -166.873125 
L 439.868575 -166.873125 
L 440.787931 -166.873125 
L 441.707288 -166.873125 
L 442.626644 -166.873125 
L 443.546001 -166.873125 
L 444.465357 -166.873125 
L 445.384714 -166.873125 
L 446.30407 -166.873125 
L 447.223426 -166.873125 
L 448.142783 -166.873125 
L 449.062139 -166.873125 
L 449.981496 -166.873125 
L 450.900852 -166.873125 
L 451.820209 -166.873125 
L 452.739565 -166.873125 
L 453.658922 -166.873125 
L 454.578278 -166.873125 
L 455.497635 -166.873125 
L 456.416991 -166.873125 
L 457.336348 -166.873125 
L 458.255704 -166.873125 
L 459.17506 -166.873125 
L 460.094417 -166.873125 
L 461.013773 -166.873125 
L 461.93313 -166.873125 
L 462.852486 -166.873125 
L 463.771843 -166.873125 
L 464.691199 -166.873125 
L 465.610556 -166.873125 
L 466.529912 -166.873125 
L 467.449269 -166.873125 
L 468.368625 -166.873125 
L 469.287982 -166.873125 
L 470.207338 -166.873125 
L 471.126694 -166.873125 
L 472.046051 -166.873125 
L 472.965407 -166.873125 
L 473.884764 -166.873125 
L 474.80412 -166.873125 
L 475.723477 -166.873125 
L 476.642833 -166.873125 
L 477.56219 -166.873125 
L 478.481546 -166.873125 
L 479.400903 -166.873125 
L 480.320259 -166.873125 
L 481.239615 -166.873125 
L 482.158972 -166.873125 
L 483.078328 -166.873125 
L 483.997685 -166.873125 
L 484.917041 -166.873125 
L 485.836398 -166.873125 
L 486.755754 -166.873125 
L 487.675111 -166.873125 
L 488.594467 -166.873125 
L 489.513824 -166.873125 
L 490.43318 -166.873125 
L 491.352537 -166.873125 
L 492.271893 -166.873125 
L 493.191249 -166.873125 
L 494.110606 -166.873125 
L 495.029962 -166.873125 
L 495.949319 -166.873125 
L 496.868675 -166.873125 
L 497.788032 -166.873125 
L 498.707388 -166.873125 
L 499.626745 -166.873125 
L 500.546101 -166.873125 
L 501.465458 -166.873125 
L 502.384814 -166.873125 
L 502.384814 -167.321552 
L 502.384814 -167.321552 
L 501.465458 -168.307658 
L 500.546101 -169.284777 
L 499.626745 -170.25288 
L 498.707388 -171.211937 
L 497.788032 -172.161918 
L 496.868675 -173.102792 
L 495.949319 -174.034528 
L 495.029962 -174.957095 
L 494.110606 -175.870459 
L 493.191249 -176.77459 
L 492.271893 -177.669452 
L 491.352537 -178.555014 
L 490.43318 -179.431242 
L 489.513824 -180.2981 
L 488.594467 -181.155554 
L 487.675111 -182.00357 
L 486.755754 -182.842109 
L 485.836398 -183.671138 
L 484.917041 -184.490618 
L 483.997685 -185.300513 
L 483.078328 -186.100783 
L 482.158972 -186.891392 
L 481.239615 -187.6723 
L 480.320259 -188.443468 
L 479.400903 -189.204855 
L 478.481546 -189.956421 
L 477.56219 -190.698125 
L 476.642833 -191.429926 
L 475.723477 -192.15178 
L 474.80412 -192.863644 
L 473.884764 -193.565477 
L 472.965407 -194.257232 
L 472.046051 -194.938867 
L 471.126694 -195.610335 
L 470.207338 -196.27159 
L 469.287982 -196.922587 
L 468.368625 -197.563277 
L 467.449269 -198.193613 
L 466.529912 -198.813547 
L 465.610556 -199.423029 
L 464.691199 -200.02201 
L 463.771843 -200.610439 
L 462.852486 -201.188265 
L 461.93313 -201.755436 
L 461.013773 -202.311899 
L 460.094417 -202.857603 
L 459.17506 -203.392491 
L 458.255704 -203.916511 
L 457.336348 -204.429606 
L 456.416991 -204.931721 
L 455.497635 -205.422798 
L 454.578278 -205.90278 
L 453.658922 -206.371609 
L 452.739565 -206.829225 
L 451.820209 -207.27557 
L 450.900852 -207.710582 
L 449.981496 -208.134199 
L 449.062139 -208.546361 
L 448.142783 -208.947003 
L 447.223426 -209.336063 
L 446.30407 -209.713475 
L 445.384714 -210.079175 
L 444.465357 -210.433097 
L 443.546001 -210.775173 
L 442.626644 -211.105336 
L 441.707288 -211.423518 
L 440.787931 -211.729649 
L 439.868575 -212.02366 
L 438.949218 -212.30548 
L 438.029862 -212.575037 
L 437.110505 -212.832258 
L 436.191149 -213.077071 
L 435.271792 -213.309402 
L 434.352436 -213.529176 
L 433.43308 -213.736317 
L 432.513723 -213.93075 
L 431.594367 -214.112398 
L 430.67501 -214.281182 
L 429.755654 -214.437024 
L 428.836297 -214.579846 
L 427.916941 -214.709567 
L 426.997584 -214.826108 
L 426.078228 -214.929386 
L 425.158871 -215.019321 
L 424.239515 -215.09583 
L 423.320158 -215.15883 
L 422.400802 -215.208238 
L 421.481446 -215.243971 
L 420.562089 -215.265943 
L 419.642733 -215.27407 
L 418.723376 -215.268268 
L 417.80402 -215.24845 
L 416.884663 -215.214532 
L 415.965307 -215.166427 
L 415.04595 -215.10405 
L 414.126594 -215.027315 
L 413.207237 -214.936136 
L 412.287881 -214.830427 
L 411.368524 -214.710104 
L 410.449168 -214.57508 
L 409.529812 -214.425272 
L 408.610455 -214.260596 
L 407.691099 -214.080968 
L 406.771742 -213.886305 
L 405.852386 -213.676527 
L 404.933029 -213.451554 
L 404.013673 -213.211306 
L 403.094316 -212.955708 
L 402.17496 -212.684682 
L 401.255603 -212.398158 
L 400.336247 -212.096063 
L 399.41689 -211.778329 
L 398.497534 -211.444892 
L 397.578178 -211.095689 
L 396.658821 -210.730663 
L 395.739465 -210.349759 
L 394.820108 -209.952927 
L 393.900752 -209.540123 
L 392.981395 -209.111307 
L 392.062039 -208.666447 
L 391.142682 -208.205515 
L 390.223326 -207.728492 
L 389.303969 -207.235367 
L 388.384613 -206.726137 
L 387.465256 -206.200808 
L 386.5459 -205.659399 
L 385.626544 -205.101937 
L 384.707187 -204.528464 
L 383.787831 -203.939035 
L 382.868474 -203.333719 
L 381.949118 -202.712603 
L 381.029761 -202.07579 
L 380.110405 -201.423402 
L 379.191048 -200.755585 
L 378.271692 -200.072505 
L 377.352335 -199.374353 
L 376.432979 -198.66135 
L 375.513623 -197.933743 
L 374.594266 -197.191812 
L 373.67491 -196.435875 
L 372.755553 -195.666283 
L 371.836197 -194.883432 
L 370.91684 -194.08776 
L 369.997484 -193.279756 
L 369.078127 -192.459958 
L 368.158771 -191.628964 
L 367.239414 -190.787432 
L 366.320058 -189.936085 
L 365.400701 -189.075718 
L 364.481345 -188.207203 
L 363.561989 -187.331495 
L 362.642632 -186.449635 
L 361.723276 -185.562762 
L 360.803919 -184.672111 
L 359.884563 -183.779028 
L 358.965206 -182.88497 
L 358.04585 -181.991513 
L 357.126493 -181.100361 
L 356.207137 -180.213345 
L 355.28778 -179.332433 
L 354.368424 -178.459732 
L 353.449067 -177.597488 
L 352.529711 -176.74809 
L 351.610355 -175.914069 
L 350.690998 -175.09809 
L 349.771642 -174.302949 
L 348.852285 -173.531563 
L 347.932929 -172.786953 
L 347.013572 -172.072231 
L 346.094216 -171.39057 
L 345.174859 -170.745185 
L 344.255503 -170.139295 
L 343.336146 -169.576087 
L 342.41679 -169.058676 
L 341.497433 -168.590059 
L 340.578077 -168.173068 
L 339.658721 -167.810321 
L 338.739364 -167.504173 
L 337.820008 -167.25667 
L 336.900651 -167.069508 
L 335.981295 -166.943991 
L 335.061938 -166.881009 
L 334.142582 -166.881009 
L 333.223225 -166.943991 
L 332.303869 -167.069508 
L 331.384512 -167.25667 
L 330.465156 -167.504173 
L 329.545799 -167.810321 
L 328.626443 -168.173068 
L 327.707087 -168.590059 
L 326.78773 -169.058676 
L 325.868374 -169.576087 
L 324.949017 -170.139295 
L 324.029661 -170.745185 
L 323.110304 -171.39057 
L 322.190948 -172.072231 
L 321.271591 -172.786953 
L 320.352235 -173.531563 
L 319.432878 -174.302949 
L 318.513522 -175.09809 
L 317.594165 -175.914069 
L 316.674809 -176.74809 
L 315.755453 -177.597488 
L 314.836096 -178.459732 
L 313.91674 -179.332433 
L 312.997383 -180.213345 
L 312.078027 -181.100361 
L 311.15867 -181.991513 
L 310.239314 -182.88497 
L 309.319957 -183.779028 
L 308.400601 -184.672111 
L 307.481244 -185.562762 
L 306.561888 -186.449635 
L 305.642531 -187.331495 
L 304.723175 -188.207203 
L 303.803819 -189.075718 
L 302.884462 -189.936085 
L 301.965106 -190.787432 
L 301.045749 -191.628964 
L 300.126393 -192.459958 
L 299.207036 -193.279756 
L 298.28768 -194.08776 
L 297.368323 -194.883432 
L 296.448967 -195.666283 
L 295.52961 -196.435875 
L 294.610254 -197.191812 
L 293.690897 -197.933743 
L 292.771541 -198.66135 
L 291.852185 -199.374353 
L 290.932828 -200.072505 
L 290.013472 -200.755585 
L 289.094115 -201.423402 
L 288.174759 -202.07579 
L 287.255402 -202.712603 
L 286.336046 -203.333719 
L 285.416689 -203.939035 
L 284.497333 -204.528464 
L 283.577976 -205.101937 
L 282.65862 -205.659399 
L 281.739264 -206.200808 
L 280.819907 -206.726137 
L 279.900551 -207.235367 
L 278.981194 -207.728492 
L 278.061838 -208.205515 
L 277.142481 -208.666447 
L 276.223125 -209.111307 
L 275.303768 -209.540123 
L 274.384412 -209.952927 
L 273.465055 -210.349759 
L 272.545699 -210.730663 
L 271.626342 -211.095689 
L 270.706986 -211.444892 
L 269.78763 -211.778329 
L 268.868273 -212.096063 
L 267.948917 -212.398158 
L 267.02956 -212.684682 
L 266.110204 -212.955708 
L 265.190847 -213.211306 
L 264.271491 -213.451554 
L 263.352134 -213.676527 
L 262.432778 -213.886305 
L 261.513421 -214.080968 
L 260.594065 -214.260596 
L 259.674708 -214.425272 
L 258.755352 -214.57508 
L 257.835996 -214.710104 
L 256.916639 -214.830427 
L 255.997283 -214.936136 
L 255.077926 -215.027315 
L 254.15857 -215.10405 
L 253.239213 -215.166427 
L 252.319857 -215.214532 
L 251.4005 -215.24845 
L 250.481144 -215.268268 
L 249.561787 -215.27407 
L 248.642431 -215.265943 
L 247.723074 -215.243971 
L 246.803718 -215.208238 
L 245.884362 -215.15883 
L 244.965005 -215.09583 
L 244.045649 -215.019321 
L 243.126292 -214.929386 
L 242.206936 -214.826108 
L 241.287579 -214.709567 
L 240.368223 -214.579846 
L 239.448866 -214.437024 
L 238.52951 -214.281182 
L 237.610153 -214.112398 
L 236.690797 -213.93075 
L 235.77144 -213.736317 
L 234.852084 -213.529176 
L 233.932728 -213.309402 
L 233.013371 -213.077071 
L 232.094015 -212.832258 
L 231.174658 -212.575037 
L 230.255302 -212.30548 
L 229.335945 -212.02366 
L 228.416589 -211.729649 
L 227.497232 -211.423518 
L 226.577876 -211.105336 
L 225.658519 -210.775173 
L 224.739163 -210.433097 
L 223.819806 -210.079175 
L 222.90045 -209.713475 
L 221.981094 -209.336063 
L 221.061737 -208.947003 
L 220.142381 -208.546361 
L 219.223024 -208.134199 
L 218.303668 -207.710582 
L 217.384311 -207.27557 
L 216.464955 -206.829225 
L 215.545598 -206.371609 
L 214.626242 -205.90278 
L 213.706885 -205.422798 
L 212.787529 -204.931721 
L 211.868172 -204.429606 
L 210.948816 -203.916511 
L 210.02946 -203.392491 
L 209.110103 -202.857603 
L 208.190747 -202.311899 
L 207.27139 -201.755436 
L 206.352034 -201.188265 
L 205.432677 -200.610439 
L 204.513321 -200.02201 
L 203.593964 -199.423029 
L 202.674608 -198.813547 
L 201.755251 -198.193613 
L 200.835895 -197.563277 
L 199.916538 -196.922587 
L 198.997182 -196.27159 
L 198.077826 -195.610335 
L 197.158469 -194.938867 
L 196.239113 -194.257232 
L 195.319756 -193.565477 
L 194.4004 -192.863644 
L 193.481043 -192.15178 
L 192.561687 -191.429926 
L 191.64233 -190.698125 
L 190.722974 -189.956421 
L 189.803617 -189.204855 
L 188.884261 -188.443468 
L 187.964905 -187.6723 
L 187.045548 -186.891392 
L 186.126192 -186.100783 
L 185.206835 -185.300513 
L 184.287479 -184.490618 
L 183.368122 -183.671138 
L 182.448766 -182.842109 
L 181.529409 -182.00357 
L 180.610053 -181.155554 
L 179.690696 -180.2981 
L 178.77134 -179.431242 
L 177.851983 -178.555014 
L 176.932627 -177.669452 
L 176.013271 -176.77459 
L 175.093914 -175.870459 
L 174.174558 -174.957095 
L 173.255201 -174.034528 
L 172.335845 -173.102792 
L 171.416488 -172.161918 
L 170.497132 -171.211937 
L 169.577775 -170.25288 
L 168.658419 -169.284777 
L 167.739062 -168.307658 
L 166.819706 -167.321552 
z
"/>
    </defs>
    <g clip-path="url(#pe614292612)">
     <use xlink:href="#m4d598e323f" x="0" y="332.39952" style="fill: #ff7f0e; fill-opacity: 0.12"/>
    </g>
   </g>
   <g id="PolyCollection_2"/>
   <g id="matplotlib.axis_1">
    <g id="xtick_1">
     <g id="line2d_6">
      <path d="M 59.255 286.59952 
L 59.255 7.2 
" clip-path="url(#pe614292612)" style="fill: none; stroke-dasharray: 0.8,1.32; stroke-dashoffset: 0; stroke: #d9d9d9; stroke-opacity: 0.6; stroke-width: 0.8"/>
     </g>
     <g id="line2d_7">
      <defs>
       <path id="m00e8a098ea" d="M 0 0 
L 0 5 
" style="stroke: #000000"/>
      </defs>
      <g>
       <use xlink:href="#m00e8a098ea" x="59.255" y="286.59952" style="stroke: #000000"/>
      </g>
     </g>
     <g id="text_1">
      <!-- −4 -->
      <g transform="translate(51.5525 303.978114) scale(0.13 -0.13)">
       <defs>
        <path id="STIXGeneral-Regular-2212" d="M 3974 1408 
L 410 1408 
L 410 1830 
L 3974 1830 
L 3974 1408 
z
" transform="scale(0.015625)"/>
        <path id="STIXGeneral-Regular-34" d="M 3027 1069 
L 2368 1069 
L 2368 0 
L 1869 0 
L 1869 1069 
L 77 1069 
L 77 1478 
L 2086 4326 
L 2368 4326 
L 2368 1478 
L 3027 1478 
L 3027 1069 
z
M 1869 1478 
L 1869 3674 
L 333 1478 
L 1869 1478 
z
" transform="scale(0.015625)"/>
       </defs>
       <use xlink:href="#STIXGeneral-Regular-2212"/>
       <use xlink:href="#STIXGeneral-Regular-34" x="68.499985"/>
      </g>
     </g>
    </g>
    <g id="xtick_2">
     <g id="line2d_8">
      <path d="M 128.091815 286.59952 
L 128.091815 7.2 
" clip-path="url(#pe614292612)" style="fill: none; stroke-dasharray: 0.8,1.32; stroke-dashoffset: 0; stroke: #d9d9d9; stroke-opacity: 0.6; stroke-width: 0.8"/>
     </g>
     <g id="line2d_9">
      <g>
       <use xlink:href="#m00e8a098ea" x="128.091815" y="286.59952" style="stroke: #000000"/>
      </g>
     </g>
     <g id="text_2">
      <!-- −3 -->
      <g transform="translate(120.389315 303.978114) scale(0.13 -0.13)">
       <defs>
        <path id="STIXGeneral-Regular-33" d="M 390 3264 
L 288 3290 
Q 435 3770 748 4048 
Q 1062 4326 1542 4326 
Q 1990 4326 2265 4083 
Q 2541 3840 2541 3450 
Q 2541 2925 1946 2566 
Q 2298 2413 2477 2227 
Q 2758 1914 2758 1402 
Q 2758 890 2464 506 
Q 2246 211 1840 60 
Q 1434 -90 979 -90 
Q 262 -90 262 275 
Q 262 378 339 442 
Q 416 506 525 506 
Q 685 506 915 339 
Q 1197 141 1466 141 
Q 1818 141 2058 425 
Q 2298 710 2298 1120 
Q 2298 1856 1632 2048 
Q 1434 2112 979 2112 
L 979 2202 
Q 1338 2323 1517 2432 
Q 2035 2726 2035 3290 
Q 2035 3610 1852 3776 
Q 1670 3942 1344 3942 
Q 768 3942 390 3264 
z
" transform="scale(0.015625)"/>
       </defs>
       <use xlink:href="#STIXGeneral-Regular-2212"/>
       <use xlink:href="#STIXGeneral-Regular-33" x="68.499985"/>
      </g>
     </g>
    </g>
    <g id="xtick_3">
     <g id="line2d_10">
      <path d="M 196.92863 286.59952 
L 196.92863 7.2 
" clip-path="url(#pe614292612)" style="fill: none; stroke-dasharray: 0.8,1.32; stroke-dashoffset: 0; stroke: #d9d9d9; stroke-opacity: 0.6; stroke-width: 0.8"/>
     </g>
     <g id="line2d_11">
      <g>
       <use xlink:href="#m00e8a098ea" x="196.92863" y="286.59952" style="stroke: #000000"/>
      </g>
     </g>
     <g id="text_3">
      <!-- −2 -->
      <g transform="translate(189.22613 303.978114) scale(0.13 -0.13)">
       <defs>
        <path id="STIXGeneral-Regular-32" d="M 3034 877 
L 2688 0 
L 186 0 
L 186 77 
L 1325 1286 
Q 1773 1754 1965 2144 
Q 2157 2534 2157 2950 
Q 2157 3379 1920 3616 
Q 1683 3853 1267 3853 
Q 922 3853 720 3673 
Q 518 3494 326 3021 
L 192 3053 
Q 301 3648 630 3987 
Q 960 4326 1523 4326 
Q 2054 4326 2380 4006 
Q 2707 3686 2707 3200 
Q 2707 2477 1888 1613 
L 832 486 
L 2330 486 
Q 2541 486 2665 569 
Q 2790 653 2944 915 
L 3034 877 
z
" transform="scale(0.015625)"/>
       </defs>
       <use xlink:href="#STIXGeneral-Regular-2212"/>
       <use xlink:href="#STIXGeneral-Regular-32" x="68.499985"/>
      </g>
     </g>
    </g>
    <g id="xtick_4">
     <g id="line2d_12">
      <path d="M 265.765445 286.59952 
L 265.765445 7.2 
" clip-path="url(#pe614292612)" style="fill: none; stroke-dasharray: 0.8,1.32; stroke-dashoffset: 0; stroke: #d9d9d9; stroke-opacity: 0.6; stroke-width: 0.8"/>
     </g>
     <g id="line2d_13">
      <g>
       <use xlink:href="#m00e8a098ea" x="265.765445" y="286.59952" style="stroke: #000000"/>
      </g>
     </g>
     <g id="text_4">
      <!-- −1 -->
      <g transform="translate(258.062945 303.978114) scale(0.13 -0.13)">
       <defs>
        <path id="STIXGeneral-Regular-31" d="M 2522 0 
L 755 0 
L 755 96 
Q 1107 115 1235 227 
Q 1363 339 1363 608 
L 1363 3482 
Q 1363 3795 1171 3795 
Q 1082 3795 883 3718 
L 710 3654 
L 710 3744 
L 1856 4326 
L 1914 4307 
L 1914 486 
Q 1914 275 2042 185 
Q 2170 96 2522 96 
L 2522 0 
z
" transform="scale(0.015625)"/>
       </defs>
       <use xlink:href="#STIXGeneral-Regular-2212"/>
       <use xlink:href="#STIXGeneral-Regular-31" x="68.499985"/>
      </g>
     </g>
    </g>
    <g id="xtick_5">
     <g id="line2d_14">
      <path d="M 334.60226 286.59952 
L 334.60226 7.2 
" clip-path="url(#pe614292612)" style="fill: none; stroke-dasharray: 0.8,1.32; stroke-dashoffset: 0; stroke: #d9d9d9; stroke-opacity: 0.6; stroke-width: 0.8"/>
     </g>
     <g id="line2d_15">
      <g>
       <use xlink:href="#m00e8a098ea" x="334.60226" y="286.59952" style="stroke: #000000"/>
      </g>
     </g>
     <g id="text_5">
      <!-- 0 -->
      <g transform="translate(331.35226 303.978114) scale(0.13 -0.13)">
       <defs>
        <path id="STIXGeneral-Regular-30" d="M 3046 2112 
Q 3046 1683 2963 1302 
Q 2880 922 2717 602 
Q 2554 282 2266 96 
Q 1978 -90 1600 -90 
Q 1210 -90 915 108 
Q 621 307 461 640 
Q 301 973 227 1350 
Q 154 1728 154 2150 
Q 154 2746 301 3222 
Q 448 3699 790 4012 
Q 1133 4326 1626 4326 
Q 2253 4326 2649 3712 
Q 3046 3098 3046 2112 
z
M 2432 2080 
Q 2432 3091 2217 3625 
Q 2003 4160 1587 4160 
Q 1190 4160 979 3622 
Q 768 3085 768 2106 
Q 768 1120 979 598 
Q 1190 77 1600 77 
Q 2003 77 2217 598 
Q 2432 1120 2432 2080 
z
" transform="scale(0.015625)"/>
       </defs>
       <use xlink:href="#STIXGeneral-Regular-30"/>
      </g>
     </g>
    </g>
    <g id="xtick_6">
     <g id="line2d_16">
      <path d="M 403.439075 286.59952 
L 403.439075 7.2 
" clip-path="url(#pe614292612)" style="fill: none; stroke-dasharray: 0.8,1.32; stroke-dashoffset: 0; stroke: #d9d9d9; stroke-opacity: 0.6; stroke-width: 0.8"/>
     </g>
     <g id="line2d_17">
      <g>
       <use xlink:href="#m00e8a098ea" x="403.439075" y="286.59952" style="stroke: #000000"/>
      </g>
     </g>
     <g id="text_6">
      <!-- 1 -->
      <g transform="translate(400.189075 303.978114) scale(0.13 -0.13)">
       <use xlink:href="#STIXGeneral-Regular-31"/>
      </g>
     </g>
    </g>
    <g id="xtick_7">
     <g id="line2d_18">
      <path d="M 472.27589 286.59952 
L 472.27589 7.2 
" clip-path="url(#pe614292612)" style="fill: none; stroke-dasharray: 0.8,1.32; stroke-dashoffset: 0; stroke: #d9d9d9; stroke-opacity: 0.6; stroke-width: 0.8"/>
     </g>
     <g id="line2d_19">
      <g>
       <use xlink:href="#m00e8a098ea" x="472.27589" y="286.59952" style="stroke: #000000"/>
      </g>
     </g>
     <g id="text_7">
      <!-- 2 -->
      <g transform="translate(469.02589 303.978114) scale(0.13 -0.13)">
       <use xlink:href="#STIXGeneral-Regular-32"/>
      </g>
     </g>
    </g>
    <g id="xtick_8">
     <g id="line2d_20">
      <path d="M 541.112705 286.59952 
L 541.112705 7.2 
" clip-path="url(#pe614292612)" style="fill: none; stroke-dasharray: 0.8,1.32; stroke-dashoffset: 0; stroke: #d9d9d9; stroke-opacity: 0.6; stroke-width: 0.8"/>
     </g>
     <g id="line2d_21">
      <g>
       <use xlink:href="#m00e8a098ea" x="541.112705" y="286.59952" style="stroke: #000000"/>
      </g>
     </g>
     <g id="text_8">
      <!-- 3 -->
      <g transform="translate(537.862705 303.978114) scale(0.13 -0.13)">
       <use xlink:href="#STIXGeneral-Regular-33"/>
      </g>
     </g>
    </g>
    <g id="xtick_9">
     <g id="line2d_22">
      <path d="M 609.94952 286.59952 
L 609.94952 7.2 
" clip-path="url(#pe614292612)" style="fill: none; stroke-dasharray: 0.8,1.32; stroke-dashoffset: 0; stroke: #d9d9d9; stroke-opacity: 0.6; stroke-width: 0.8"/>
     </g>
     <g id="line2d_23">
      <g>
       <use xlink:href="#m00e8a098ea" x="609.94952" y="286.59952" style="stroke: #000000"/>
      </g>
     </g>
     <g id="text_9">
      <!-- 4 -->
      <g transform="translate(606.69952 303.978114) scale(0.13 -0.13)">
       <use xlink:href="#STIXGeneral-Regular-34"/>
      </g>
     </g>
    </g>
    <g id="text_10">
     <!-- Wavenumber $k$ -->
     <g transform="translate(285.88226 321.72702) scale(0.16 -0.16)">
      <defs>
       <path id="STIXGeneral-Regular-57" d="M 5965 4237 
L 5965 4115 
Q 5709 4064 5616 3990 
Q 5523 3917 5434 3667 
Q 4704 1709 4128 -70 
L 4032 -70 
Q 3642 1011 3008 2637 
L 2022 -70 
L 1926 -70 
Q 1709 576 1277 1753 
Q 845 2931 698 3347 
Q 538 3808 406 3958 
Q 275 4109 32 4115 
L 32 4237 
L 1594 4237 
L 1594 4115 
Q 1357 4109 1270 4064 
Q 1184 4019 1184 3917 
Q 1184 3808 1254 3616 
L 2176 1210 
L 2842 3021 
L 2662 3501 
Q 2509 3917 2400 4013 
Q 2291 4109 2010 4115 
L 2010 4237 
L 3706 4237 
L 3706 4115 
Q 3213 4102 3213 3891 
Q 3213 3808 3322 3520 
L 4237 1190 
L 5043 3360 
Q 5152 3667 5152 3853 
Q 5152 4109 4704 4115 
L 4704 4237 
L 5965 4237 
z
" transform="scale(0.015625)"/>
       <path id="STIXGeneral-Regular-61" d="M 2829 422 
L 2829 243 
Q 2586 -64 2253 -64 
Q 1888 -64 1843 403 
L 1837 403 
Q 1427 -64 909 -64 
Q 608 -64 422 112 
Q 237 288 237 602 
Q 237 1050 685 1350 
Q 992 1555 1837 1869 
L 1837 2214 
Q 1837 2502 1699 2646 
Q 1562 2790 1338 2790 
Q 1146 2790 1018 2697 
Q 890 2605 890 2477 
Q 890 2419 909 2348 
Q 928 2278 928 2208 
Q 928 2112 841 2029 
Q 755 1946 634 1946 
Q 525 1946 441 2029 
Q 358 2112 358 2240 
Q 358 2547 685 2752 
Q 986 2944 1421 2944 
Q 1939 2944 2176 2656 
Q 2291 2522 2323 2384 
Q 2355 2246 2355 1946 
L 2355 723 
Q 2355 301 2554 301 
Q 2682 301 2829 422 
z
M 1837 813 
L 1837 1715 
Q 1248 1510 1018 1293 
Q 800 1094 800 800 
Q 800 557 921 432 
Q 1043 307 1242 307 
Q 1453 307 1613 410 
Q 1747 506 1792 589 
Q 1837 672 1837 813 
z
" transform="scale(0.015625)"/>
       <path id="STIXGeneral-Regular-76" d="M 3053 2880 
L 3053 2784 
Q 2906 2771 2835 2688 
Q 2765 2605 2637 2285 
L 1818 230 
Q 1690 -90 1638 -90 
Q 1587 -90 1523 77 
Q 1510 96 1497 141 
Q 1485 186 1472 211 
L 704 2048 
Q 499 2534 403 2652 
Q 307 2771 122 2784 
L 122 2880 
L 1376 2880 
L 1376 2784 
Q 1210 2771 1146 2732 
Q 1082 2694 1082 2611 
Q 1082 2509 1139 2368 
L 1792 730 
L 2426 2387 
Q 2464 2483 2464 2579 
Q 2464 2758 2163 2784 
L 2163 2880 
L 3053 2880 
z
" transform="scale(0.015625)"/>
       <path id="STIXGeneral-Regular-65" d="M 2611 1050 
L 2714 1005 
Q 2330 -64 1376 -64 
Q 813 -64 486 329 
Q 160 723 160 1389 
Q 160 2074 525 2509 
Q 890 2944 1485 2944 
Q 2061 2944 2374 2502 
Q 2560 2246 2592 1773 
L 621 1773 
Q 646 1370 700 1158 
Q 755 947 915 730 
Q 1184 378 1626 378 
Q 1939 378 2153 531 
Q 2368 685 2611 1050 
z
M 634 1978 
L 1939 1978 
Q 1882 2381 1750 2547 
Q 1619 2714 1312 2714 
Q 1043 2714 864 2525 
Q 685 2336 634 1978 
z
" transform="scale(0.015625)"/>
       <path id="STIXGeneral-Regular-6e" d="M 3104 0 
L 1773 0 
L 1779 96 
Q 2016 115 2096 233 
Q 2176 352 2176 672 
L 2176 1946 
Q 2176 2592 1709 2592 
Q 1549 2592 1408 2515 
Q 1267 2438 1050 2227 
L 1050 461 
Q 1050 269 1136 192 
Q 1222 115 1466 96 
L 1466 0 
L 115 0 
L 115 96 
Q 358 115 435 214 
Q 512 314 512 602 
L 512 2157 
Q 512 2394 467 2483 
Q 422 2573 288 2573 
Q 160 2573 102 2547 
L 102 2656 
Q 550 2784 979 2944 
L 1030 2925 
L 1030 2426 
L 1037 2426 
Q 1491 2944 1958 2944 
Q 2323 2944 2518 2688 
Q 2714 2432 2714 1958 
L 2714 544 
Q 2714 288 2790 205 
Q 2867 122 3104 96 
L 3104 0 
z
" transform="scale(0.015625)"/>
       <path id="STIXGeneral-Regular-75" d="M 3072 320 
L 3072 230 
Q 2573 96 2195 -58 
L 2163 -38 
L 2163 486 
L 2150 486 
Q 1747 -64 1235 -64 
Q 870 -64 662 160 
Q 454 384 454 755 
L 454 2362 
Q 454 2598 371 2688 
Q 288 2778 58 2790 
L 58 2880 
L 992 2880 
L 992 813 
Q 992 595 1123 451 
Q 1254 307 1446 307 
Q 1760 307 1984 506 
Q 2067 582 2099 649 
Q 2131 717 2131 877 
L 2131 2355 
Q 2131 2605 2041 2678 
Q 1952 2752 1658 2771 
L 1658 2880 
L 2669 2880 
L 2669 685 
Q 2669 461 2742 390 
Q 2816 320 3034 320 
L 3072 320 
z
" transform="scale(0.015625)"/>
       <path id="STIXGeneral-Regular-6d" d="M 4960 0 
L 3565 0 
L 3565 96 
Q 3834 122 3907 208 
Q 3981 294 3981 576 
L 3981 1894 
Q 3981 2278 3869 2444 
Q 3757 2611 3488 2611 
Q 3264 2611 3107 2521 
Q 2950 2432 2803 2221 
L 2803 608 
Q 2803 301 2896 201 
Q 2989 102 3264 96 
L 3264 0 
L 1830 0 
L 1830 96 
Q 2112 115 2189 188 
Q 2266 262 2266 550 
L 2266 1901 
Q 2266 2611 1850 2611 
Q 1670 2611 1468 2531 
Q 1267 2451 1171 2336 
Q 1088 2240 1088 2227 
L 1088 448 
Q 1088 243 1177 176 
Q 1267 109 1523 96 
L 1523 0 
L 102 0 
L 102 96 
Q 371 102 460 195 
Q 550 288 550 563 
L 550 2150 
Q 550 2387 499 2480 
Q 448 2573 326 2573 
Q 230 2573 122 2547 
L 122 2656 
Q 557 2778 1011 2944 
L 1062 2925 
L 1062 2451 
L 1075 2451 
Q 1363 2752 1584 2848 
Q 1805 2944 2054 2944 
Q 2560 2944 2733 2406 
Q 3232 2944 3776 2944 
Q 4518 2944 4518 1792 
L 4518 493 
Q 4518 282 4582 202 
Q 4646 122 4794 109 
L 4960 96 
L 4960 0 
z
" transform="scale(0.015625)"/>
       <path id="STIXGeneral-Regular-62" d="M 979 4358 
L 979 2406 
Q 1082 2650 1315 2797 
Q 1549 2944 1843 2944 
Q 2349 2944 2672 2541 
Q 2995 2138 2995 1536 
Q 2995 832 2566 384 
Q 2138 -64 1498 -64 
Q 1107 -64 774 67 
Q 442 198 442 358 
L 442 3622 
Q 442 3859 384 3926 
Q 326 3994 128 3994 
Q 83 3994 19 3981 
L 19 4090 
L 211 4147 
Q 864 4346 947 4371 
L 979 4358 
z
M 979 2035 
L 979 474 
Q 979 326 1161 233 
Q 1344 141 1600 141 
Q 1978 141 2195 416 
Q 2432 710 2432 1261 
Q 2432 1888 2182 2240 
Q 1971 2541 1613 2541 
Q 1357 2541 1168 2390 
Q 979 2240 979 2035 
z
" transform="scale(0.015625)"/>
       <path id="STIXGeneral-Regular-72" d="M 1024 2931 
L 1024 2342 
Q 1267 2688 1430 2816 
Q 1594 2944 1792 2944 
Q 1958 2944 2051 2854 
Q 2144 2765 2144 2605 
Q 2144 2470 2077 2393 
Q 2010 2317 1894 2317 
Q 1773 2317 1638 2445 
Q 1536 2541 1472 2541 
Q 1338 2541 1181 2355 
Q 1024 2170 1024 2016 
L 1024 576 
Q 1024 301 1133 205 
Q 1242 109 1568 96 
L 1568 0 
L 32 0 
L 32 96 
Q 339 154 412 224 
Q 486 294 486 538 
L 486 2138 
Q 486 2349 438 2435 
Q 390 2522 269 2522 
Q 166 2522 45 2496 
L 45 2598 
Q 448 2726 992 2944 
L 1024 2931 
z
" transform="scale(0.015625)"/>
       <path id="STIXGeneral-Regular-20" transform="scale(0.015625)"/>
       <path id="STIXGeneral-Italic-6b" d="M 2950 2739 
L 2950 2637 
Q 2720 2624 2464 2448 
Q 2208 2272 1510 1651 
L 1747 1088 
Q 2099 262 2266 262 
Q 2400 262 2554 531 
Q 2586 582 2650 698 
L 2746 627 
Q 2522 224 2374 77 
Q 2227 -70 2035 -70 
Q 1894 -70 1782 42 
Q 1670 154 1517 454 
Q 1325 826 1133 1357 
L 877 1152 
L 570 0 
L 90 0 
L 992 3379 
Q 1082 3699 1107 3942 
Q 1088 4096 781 4096 
L 666 4096 
L 666 4198 
Q 1146 4256 1670 4371 
L 1709 4333 
L 941 1414 
L 1216 1626 
Q 2131 2330 2131 2522 
Q 2131 2637 1894 2637 
L 1805 2637 
L 1805 2739 
L 2950 2739 
z
" transform="scale(0.015625)"/>
      </defs>
      <use xlink:href="#STIXGeneral-Regular-57" transform="translate(0 0.703125)"/>
      <use xlink:href="#STIXGeneral-Regular-61" transform="translate(94.399994 0.703125)"/>
      <use xlink:href="#STIXGeneral-Regular-76" transform="translate(138.799988 0.703125)"/>
      <use xlink:href="#STIXGeneral-Regular-65" transform="translate(188.799973 0.703125)"/>
      <use xlink:href="#STIXGeneral-Regular-6e" transform="translate(233.199966 0.703125)"/>
      <use xlink:href="#STIXGeneral-Regular-75" transform="translate(283.199951 0.703125)"/>
      <use xlink:href="#STIXGeneral-Regular-6d" transform="translate(333.199936 0.703125)"/>
      <use xlink:href="#STIXGeneral-Regular-62" transform="translate(410.999924 0.703125)"/>
      <use xlink:href="#STIXGeneral-Regular-65" transform="translate(460.999908 0.703125)"/>
      <use xlink:href="#STIXGeneral-Regular-72" transform="translate(505.399902 0.703125)"/>
      <use xlink:href="#STIXGeneral-Regular-20" transform="translate(538.69989 0.703125)"/>
      <use xlink:href="#STIXGeneral-Italic-6b" transform="translate(563.699875 0.703125)"/>
     </g>
    </g>
   </g>
   <g id="matplotlib.axis_2">
    <g id="ytick_1">
     <g id="line2d_24">
      <path d="M 59.255 277.286203 
L 609.94952 277.286203 
" clip-path="url(#pe614292612)" style="fill: none; stroke-dasharray: 0.8,1.32; stroke-dashoffset: 0; stroke: #d9d9d9; stroke-opacity: 0.6; stroke-width: 0.8"/>
     </g>
     <g id="line2d_25">
      <defs>
       <path id="mcd9e90f232" d="M 0 0 
L -5 0 
" style="stroke: #000000"/>
      </defs>
      <g>
       <use xlink:href="#mcd9e90f232" x="59.255" y="277.286203" style="stroke: #000000"/>
      </g>
     </g>
     <g id="text_11">
      <!-- −0.6 -->
      <g transform="translate(25.6 281.7255) scale(0.13 -0.13)">
       <defs>
        <path id="STIXGeneral-Regular-2e" d="M 1158 275 
Q 1158 134 1052 32 
Q 947 -70 800 -70 
Q 653 -70 550 32 
Q 448 134 448 281 
Q 448 429 553 534 
Q 659 640 806 640 
Q 947 640 1052 531 
Q 1158 422 1158 275 
z
" transform="scale(0.015625)"/>
        <path id="STIXGeneral-Regular-36" d="M 2854 4378 
L 2867 4275 
Q 2112 4154 1606 3664 
Q 1101 3174 973 2451 
Q 1344 2739 1786 2739 
Q 2349 2739 2672 2380 
Q 2995 2022 2995 1402 
Q 2995 774 2669 378 
Q 2291 -90 1651 -90 
Q 870 -90 518 557 
Q 218 1107 218 1786 
Q 218 2835 915 3552 
Q 1312 3962 1731 4131 
Q 2150 4301 2854 4378 
z
M 2419 1203 
Q 2419 2445 1555 2445 
Q 1235 2445 1024 2275 
Q 813 2106 813 1702 
Q 813 954 1046 522 
Q 1280 90 1722 90 
Q 2061 90 2240 394 
Q 2419 698 2419 1203 
z
" transform="scale(0.015625)"/>
       </defs>
       <use xlink:href="#STIXGeneral-Regular-2212"/>
       <use xlink:href="#STIXGeneral-Regular-30" x="68.499985"/>
       <use xlink:href="#STIXGeneral-Regular-2e" x="118.499969"/>
       <use xlink:href="#STIXGeneral-Regular-36" x="143.499954"/>
      </g>
     </g>
    </g>
    <g id="ytick_2">
     <g id="line2d_26">
      <path d="M 59.255 240.032933 
L 609.94952 240.032933 
" clip-path="url(#pe614292612)" style="fill: none; stroke-dasharray: 0.8,1.32; stroke-dashoffset: 0; stroke: #d9d9d9; stroke-opacity: 0.6; stroke-width: 0.8"/>
     </g>
     <g id="line2d_27">
      <g>
       <use xlink:href="#mcd9e90f232" x="59.255" y="240.032933" style="stroke: #000000"/>
      </g>
     </g>
     <g id="text_12">
      <!-- −0.4 -->
      <g transform="translate(25.6 244.47223) scale(0.13 -0.13)">
       <use xlink:href="#STIXGeneral-Regular-2212"/>
       <use xlink:href="#STIXGeneral-Regular-30" x="68.499985"/>
       <use xlink:href="#STIXGeneral-Regular-2e" x="118.499969"/>
       <use xlink:href="#STIXGeneral-Regular-34" x="143.499954"/>
      </g>
     </g>
    </g>
    <g id="ytick_3">
     <g id="line2d_28">
      <path d="M 59.255 202.779664 
L 609.94952 202.779664 
" clip-path="url(#pe614292612)" style="fill: none; stroke-dasharray: 0.8,1.32; stroke-dashoffset: 0; stroke: #d9d9d9; stroke-opacity: 0.6; stroke-width: 0.8"/>
     </g>
     <g id="line2d_29">
      <g>
       <use xlink:href="#mcd9e90f232" x="59.255" y="202.779664" style="stroke: #000000"/>
      </g>
     </g>
     <g id="text_13">
      <!-- −0.2 -->
      <g transform="translate(25.6 207.218961) scale(0.13 -0.13)">
       <use xlink:href="#STIXGeneral-Regular-2212"/>
       <use xlink:href="#STIXGeneral-Regular-30" x="68.499985"/>
       <use xlink:href="#STIXGeneral-Regular-2e" x="118.499969"/>
       <use xlink:href="#STIXGeneral-Regular-32" x="143.499954"/>
      </g>
     </g>
    </g>
    <g id="ytick_4">
     <g id="line2d_30">
      <path d="M 59.255 165.526395 
L 609.94952 165.526395 
" clip-path="url(#pe614292612)" style="fill: none; stroke-dasharray: 0.8,1.32; stroke-dashoffset: 0; stroke: #d9d9d9; stroke-opacity: 0.6; stroke-width: 0.8"/>
     </g>
     <g id="line2d_31">
      <g>
       <use xlink:href="#mcd9e90f232" x="59.255" y="165.526395" style="stroke: #000000"/>
      </g>
     </g>
     <g id="text_14">
      <!-- 0.0 -->
      <g transform="translate(34.505 169.965692) scale(0.13 -0.13)">
       <use xlink:href="#STIXGeneral-Regular-30"/>
       <use xlink:href="#STIXGeneral-Regular-2e" x="49.999985"/>
       <use xlink:href="#STIXGeneral-Regular-30" x="74.999969"/>
      </g>
     </g>
    </g>
    <g id="ytick_5">
     <g id="line2d_32">
      <path d="M 59.255 128.273125 
L 609.94952 128.273125 
" clip-path="url(#pe614292612)" style="fill: none; stroke-dasharray: 0.8,1.32; stroke-dashoffset: 0; stroke: #d9d9d9; stroke-opacity: 0.6; stroke-width: 0.8"/>
     </g>
     <g id="line2d_33">
      <g>
       <use xlink:href="#mcd9e90f232" x="59.255" y="128.273125" style="stroke: #000000"/>
      </g>
     </g>
     <g id="text_15">
      <!-- 0.2 -->
      <g transform="translate(34.505 132.712422) scale(0.13 -0.13)">
       <use xlink:href="#STIXGeneral-Regular-30"/>
       <use xlink:href="#STIXGeneral-Regular-2e" x="49.999985"/>
       <use xlink:href="#STIXGeneral-Regular-32" x="74.999969"/>
      </g>
     </g>
    </g>
    <g id="ytick_6">
     <g id="line2d_34">
      <path d="M 59.255 91.019856 
L 609.94952 91.019856 
" clip-path="url(#pe614292612)" style="fill: none; stroke-dasharray: 0.8,1.32; stroke-dashoffset: 0; stroke: #d9d9d9; stroke-opacity: 0.6; stroke-width: 0.8"/>
     </g>
     <g id="line2d_35">
      <g>
       <use xlink:href="#mcd9e90f232" x="59.255" y="91.019856" style="stroke: #000000"/>
      </g>
     </g>
     <g id="text_16">
      <!-- 0.4 -->
      <g transform="translate(34.505 95.459153) scale(0.13 -0.13)">
       <use xlink:href="#STIXGeneral-Regular-30"/>
       <use xlink:href="#STIXGeneral-Regular-2e" x="49.999985"/>
       <use xlink:href="#STIXGeneral-Regular-34" x="74.999969"/>
      </g>
     </g>
    </g>
    <g id="ytick_7">
     <g id="line2d_36">
      <path d="M 59.255 53.766587 
L 609.94952 53.766587 
" clip-path="url(#pe614292612)" style="fill: none; stroke-dasharray: 0.8,1.32; stroke-dashoffset: 0; stroke: #d9d9d9; stroke-opacity: 0.6; stroke-width: 0.8"/>
     </g>
     <g id="line2d_37">
      <g>
       <use xlink:href="#mcd9e90f232" x="59.255" y="53.766587" style="stroke: #000000"/>
      </g>
     </g>
     <g id="text_17">
      <!-- 0.6 -->
      <g transform="translate(34.505 58.205884) scale(0.13 -0.13)">
       <use xlink:href="#STIXGeneral-Regular-30"/>
       <use xlink:href="#STIXGeneral-Regular-2e" x="49.999985"/>
       <use xlink:href="#STIXGeneral-Regular-36" x="74.999969"/>
      </g>
     </g>
    </g>
    <g id="ytick_8">
     <g id="line2d_38">
      <path d="M 59.255 16.513317 
L 609.94952 16.513317 
" clip-path="url(#pe614292612)" style="fill: none; stroke-dasharray: 0.8,1.32; stroke-dashoffset: 0; stroke: #d9d9d9; stroke-opacity: 0.6; stroke-width: 0.8"/>
     </g>
     <g id="line2d_39">
      <g>
       <use xlink:href="#mcd9e90f232" x="59.255" y="16.513317" style="stroke: #000000"/>
      </g>
     </g>
     <g id="text_18">
      <!-- 0.8 -->
      <g transform="translate(34.505 20.952614) scale(0.13 -0.13)">
       <defs>
        <path id="STIXGeneral-Regular-38" d="M 2848 992 
Q 2848 499 2505 204 
Q 2163 -90 1587 -90 
Q 1050 -90 704 204 
Q 358 499 358 954 
Q 358 1293 524 1533 
Q 691 1773 1190 2125 
Q 710 2522 553 2765 
Q 397 3008 397 3328 
Q 397 3782 745 4054 
Q 1094 4326 1638 4326 
Q 2106 4326 2410 4060 
Q 2714 3795 2714 3411 
Q 2714 3059 2531 2848 
Q 2349 2637 1856 2374 
Q 2432 1990 2640 1689 
Q 2848 1389 2848 992 
z
M 2272 3411 
Q 2272 3744 2086 3945 
Q 1901 4147 1574 4147 
Q 1248 4147 1059 3977 
Q 870 3808 870 3513 
Q 870 3219 1059 2979 
Q 1248 2739 1670 2490 
Q 1997 2682 2134 2896 
Q 2272 3110 2272 3411 
z
M 1734 1741 
L 1357 1997 
Q 1075 1766 960 1545 
Q 845 1325 845 1011 
Q 845 576 1065 333 
Q 1286 90 1658 90 
Q 1971 90 2166 285 
Q 2362 480 2362 794 
Q 2362 1082 2214 1299 
Q 2067 1517 1734 1741 
z
" transform="scale(0.015625)"/>
       </defs>
       <use xlink:href="#STIXGeneral-Regular-30"/>
       <use xlink:href="#STIXGeneral-Regular-2e" x="49.999985"/>
       <use xlink:href="#STIXGeneral-Regular-38" x="74.999969"/>
      </g>
     </g>
    </g>
    <g id="text_19">
     <!-- $\mathrm{Im}\,\omega_{+}(k)$ -->
     <g transform="translate(18.1275 175.37976) rotate(-90) scale(0.16 -0.16)">
      <defs>
       <path id="STIXGeneral-Regular-49" d="M 2016 0 
L 115 0 
L 115 122 
Q 518 134 627 240 
Q 736 346 736 717 
L 736 3526 
Q 736 3898 633 3994 
Q 531 4090 115 4115 
L 115 4237 
L 2016 4237 
L 2016 4115 
Q 1613 4096 1501 3993 
Q 1389 3891 1389 3526 
L 1389 717 
Q 1389 358 1504 246 
Q 1619 134 2016 122 
L 2016 0 
z
" transform="scale(0.015625)"/>
       <path id="STIXGeneral-Italic-3c9" d="M 3021 2810 
L 3136 2810 
Q 3648 2810 3898 2598 
Q 4186 2355 4186 1824 
Q 4186 1357 3910 838 
Q 3667 390 3334 160 
Q 3002 -70 2669 -70 
Q 2438 -70 2281 3 
Q 2125 77 2064 160 
Q 2003 243 1939 384 
Q 1741 147 1533 38 
Q 1325 -70 998 -70 
Q 659 -70 416 160 
Q 173 390 173 832 
Q 173 1101 237 1350 
Q 403 1965 883 2387 
Q 1363 2810 2010 2810 
L 2125 2810 
L 2125 2707 
Q 1606 2707 1267 2291 
Q 1024 1990 867 1526 
Q 710 1062 710 666 
Q 710 64 1075 64 
Q 1286 64 1523 285 
Q 1760 506 1856 774 
Q 1837 915 1837 1101 
Q 1837 1363 1914 1651 
Q 1984 1920 2125 2105 
Q 2266 2291 2432 2291 
Q 2656 2291 2656 1997 
Q 2656 1530 2387 1062 
Q 2272 864 2189 736 
Q 2176 691 2176 602 
Q 2176 384 2288 224 
Q 2400 64 2592 64 
Q 3040 64 3341 627 
Q 3482 896 3565 1270 
Q 3648 1645 3648 1971 
Q 3648 2240 3616 2362 
Q 3565 2566 3411 2636 
Q 3258 2707 3021 2707 
L 3021 2810 
z
" transform="scale(0.015625)"/>
       <path id="STIXGeneral-Regular-2b" d="M 4070 1408 
L 2400 1408 
L 2400 -262 
L 1978 -262 
L 1978 1408 
L 307 1408 
L 307 1830 
L 1978 1830 
L 1978 3501 
L 2400 3501 
L 2400 1830 
L 4070 1830 
L 4070 1408 
z
" transform="scale(0.015625)"/>
       <path id="STIXGeneral-Regular-28" d="M 1946 -1030 
L 1869 -1133 
Q 1126 -710 716 32 
Q 307 774 307 1613 
Q 307 3386 1888 4326 
L 1946 4224 
Q 1293 3667 1075 3126 
Q 858 2586 858 1632 
Q 858 685 1082 96 
Q 1306 -493 1946 -1030 
z
" transform="scale(0.015625)"/>
       <path id="STIXGeneral-Regular-29" d="M 186 4224 
L 262 4326 
Q 992 3891 1408 3148 
Q 1824 2406 1824 1581 
Q 1824 -166 243 -1133 
L 186 -1030 
Q 845 -486 1059 54 
Q 1274 595 1274 1562 
Q 1274 2534 1059 3120 
Q 845 3706 186 4224 
z
" transform="scale(0.015625)"/>
      </defs>
      <use xlink:href="#STIXGeneral-Regular-49" transform="translate(0 0.703125)"/>
      <use xlink:href="#STIXGeneral-Regular-6d" transform="translate(33.299988 0.703125)"/>
      <use xlink:href="#STIXGeneral-Italic-3c9" transform="translate(123.133547 0.703125)"/>
      <use xlink:href="#STIXGeneral-Regular-2b" transform="translate(191.733537 -12.525) scale(0.7)"/>
      <use xlink:href="#STIXGeneral-Regular-28" transform="translate(244.092902 0.703125)"/>
      <use xlink:href="#STIXGeneral-Italic-6b" transform="translate(277.392889 0.703125)"/>
      <use xlink:href="#STIXGeneral-Regular-29" transform="translate(321.792883 0.703125)"/>
     </g>
    </g>
   </g>
   <g id="line2d_40">
    <path d="M 59.255 38.853475 
L 75.803416 40.322894 
L 91.432476 41.929857 
L 105.222823 43.559093 
L 118.093813 45.291354 
L 130.045447 47.11428 
L 141.077725 49.010034 
L 151.190646 50.954916 
L 161.303567 53.126968 
L 170.497132 55.326297 
L 178.77134 57.51296 
L 187.045548 59.920537 
L 195.319756 62.575941 
L 202.674608 65.168894 
L 210.02946 68.005697 
L 216.464955 70.708883 
L 222.90045 73.638951 
L 229.335945 76.817482 
L 235.77144 80.267939 
L 241.287579 83.461063 
L 246.803718 86.889548 
L 252.319857 90.571194 
L 257.835996 94.524343 
L 263.352134 98.767423 
L 268.868273 103.318174 
L 274.384412 108.192377 
L 279.900551 113.401788 
L 285.416689 118.950753 
L 290.932828 124.830698 
L 297.368323 132.066411 
L 305.642531 141.771307 
L 312.997383 150.351342 
L 316.674809 154.388061 
L 320.352235 158.069734 
L 323.110304 160.489814 
L 324.949017 161.893923 
L 326.78773 163.100796 
L 328.626443 164.086078 
L 330.465156 164.828068 
L 332.303869 165.309247 
L 334.142582 165.517681 
L 335.981295 165.448053 
L 337.820008 165.10215 
L 339.658721 164.488695 
L 341.497433 163.622572 
L 343.336146 162.52358 
L 345.174859 161.214938 
L 347.932929 158.914018 
L 350.690998 156.283924 
L 354.368424 152.403978 
L 358.965206 147.181348 
L 377.352335 125.841161 
L 382.868474 119.90825 
L 388.384613 114.303069 
L 393.900752 109.037102 
L 399.41689 104.107697 
L 404.933029 99.504056 
L 410.449168 95.210896 
L 415.965307 91.210698 
L 421.481446 87.485085 
L 426.997584 84.015661 
L 432.513723 80.784514 
L 438.949218 77.293185 
L 445.384714 74.077288 
L 451.820209 71.11309 
L 458.255704 68.378743 
L 465.610556 65.509638 
L 472.965407 62.887571 
L 480.320259 60.488196 
L 488.594467 58.02799 
L 496.868675 55.794393 
L 506.06224 53.548785 
L 515.255805 51.523469 
L 525.368726 49.51962 
L 536.401003 47.56783 
L 548.352637 45.6925 
L 561.223628 43.911922 
L 575.013974 42.238691 
L 589.723678 40.680346 
L 606.272094 39.161541 
L 609.94952 38.853475 
L 609.94952 38.853475 
" clip-path="url(#pe614292612)" style="fill: none; stroke-dasharray: 7.4,3.2; stroke-dashoffset: 0; stroke: #ff7f0e; stroke-width: 2"/>
   </g>
   <g id="line2d_41">
    <path d="M 60.932333 333.39952 
L 67.529208 319.944856 
L 74.88406 305.389055 
L 82.238912 291.305227 
L 89.593763 277.697514 
L 96.948615 264.570497 
L 104.303467 251.929246 
L 111.658318 239.779381 
L 118.093813 229.556226 
L 124.529309 219.718661 
L 130.964804 210.271743 
L 137.400299 201.221024 
L 143.835794 192.572606 
L 150.27129 184.333196 
L 155.787428 177.601959 
L 161.303567 171.18171 
L 166.819706 165.077968 
L 172.335845 159.296728 
L 177.851983 153.844506 
L 183.368122 148.728382 
L 188.884261 143.956052 
L 193.481043 140.24774 
L 198.077826 136.789185 
L 202.674608 133.585973 
L 207.27139 130.644084 
L 211.868172 127.969914 
L 216.464955 125.570295 
L 221.061737 123.452517 
L 225.658519 121.624347 
L 229.335945 120.37586 
L 233.013371 119.322449 
L 236.690797 118.46877 
L 240.368223 117.819674 
L 244.045649 117.380199 
L 247.723074 117.155549 
L 251.4005 117.15107 
L 255.077926 117.372205 
L 258.755352 117.82444 
L 262.432778 118.513215 
L 266.110204 119.443812 
L 269.78763 120.621191 
L 273.465055 122.049761 
L 277.142481 123.733073 
L 280.819907 125.673383 
L 284.497333 127.871056 
L 288.174759 130.32373 
L 291.852185 133.025167 
L 295.52961 135.963645 
L 300.126393 139.939562 
L 305.642531 145.068025 
L 318.513522 157.30143 
L 321.271591 159.612567 
L 324.029661 161.654335 
L 326.78773 163.340844 
L 328.626443 164.226452 
L 330.465156 164.895347 
L 332.303869 165.330012 
L 334.142582 165.518511 
L 335.981295 165.455529 
L 337.820008 165.14285 
L 339.658721 164.589199 
L 341.497433 163.809461 
L 343.336146 162.823433 
L 346.094216 161.00895 
L 348.852285 158.867957 
L 352.529711 155.65143 
L 358.04585 150.408007 
L 367.239414 141.612088 
L 371.836197 137.516088 
L 376.432979 133.73817 
L 380.110405 130.976118 
L 383.787831 128.460485 
L 387.465256 126.198712 
L 391.142682 124.194005 
L 394.820108 122.446593 
L 398.497534 120.954628 
L 402.17496 119.714838 
L 405.852386 118.722993 
L 409.529812 117.974248 
L 413.207237 117.463384 
L 416.884663 117.184988 
L 420.562089 117.133577 
L 424.239515 117.30369 
L 427.916941 117.689953 
L 431.594367 118.287122 
L 435.271792 119.090118 
L 438.949218 120.09404 
L 442.626644 121.294184 
L 446.30407 122.686045 
L 450.900852 124.688938 
L 455.497635 126.976722 
L 460.094417 129.541917 
L 464.691199 132.37751 
L 469.287982 135.476933 
L 473.884764 138.834043 
L 478.481546 142.443099 
L 483.078328 146.298737 
L 488.594467 151.243966 
L 494.110606 156.529061 
L 499.626745 162.14664 
L 505.142883 168.089912 
L 510.659022 174.352627 
L 516.175161 180.929032 
L 521.6913 187.813832 
L 528.126795 196.229394 
L 534.56229 205.051011 
L 540.997785 214.272244 
L 547.433281 223.887231 
L 553.868776 233.890641 
L 560.304271 244.277614 
L 566.739766 255.04372 
L 574.094618 267.806918 
L 581.44947 281.054564 
L 588.804321 294.781717 
L 596.159173 308.983911 
L 603.514025 323.657104 
L 608.272187 333.39952 
L 608.272187 333.39952 
" clip-path="url(#pe614292612)" style="fill: none; stroke: #ff7f0e; stroke-width: 2; stroke-linecap: square"/>
   </g>
   <g id="line2d_42">
    <path d="M 59.255 272.206417 
L 87.75505 271.513477 
L 110.738962 270.74807 
L 130.045447 269.892046 
L 146.593864 268.934381 
L 160.384211 267.914553 
L 172.335845 266.807579 
L 182.448766 265.65558 
L 191.64233 264.38488 
L 199.916538 263.00795 
L 207.27139 261.549243 
L 213.706885 260.047387 
L 219.223024 258.555923 
L 224.739163 256.837837 
L 229.335945 255.201298 
L 233.932728 253.346345 
L 238.52951 251.237679 
L 242.206936 249.341157 
L 245.884362 247.233787 
L 249.561787 244.891354 
L 253.239213 242.289059 
L 256.916639 239.40296 
L 260.594065 236.212138 
L 264.271491 232.70168 
L 267.948917 228.866388 
L 271.626342 224.714785 
L 276.223125 219.121617 
L 280.819907 213.168818 
L 290.013472 200.763838 
L 296.448967 192.293052 
L 301.045749 186.649916 
L 304.723175 182.489582 
L 308.400601 178.707104 
L 311.15867 176.146099 
L 313.91674 173.838892 
L 316.674809 171.797902 
L 319.432878 170.033028 
L 322.190948 168.552023 
L 324.949017 167.360831 
L 327.707087 166.463866 
L 330.465156 165.864246 
L 333.223225 165.563954 
L 335.981295 165.563954 
L 338.739364 165.864246 
L 341.497433 166.463866 
L 344.255503 167.360831 
L 347.013572 168.552023 
L 349.771642 170.033028 
L 352.529711 171.797902 
L 355.28778 173.838892 
L 358.04585 176.146099 
L 360.803919 178.707104 
L 364.481345 182.489582 
L 368.158771 186.649916 
L 371.836197 191.130687 
L 376.432979 197.07511 
L 385.626544 209.48001 
L 392.062039 217.956026 
L 396.658821 223.630066 
L 400.336247 227.857452 
L 404.013673 231.773243 
L 407.691099 235.364889 
L 411.368524 238.634534 
L 415.04595 241.59503 
L 418.723376 244.266106 
L 422.400802 246.671183 
L 426.078228 248.835008 
L 429.755654 250.78204 
L 434.352436 252.946126 
L 438.949218 254.848838 
L 443.546001 256.526474 
L 449.062139 258.286405 
L 454.578278 259.812913 
L 461.013773 261.348668 
L 467.449269 262.666064 
L 474.80412 263.953256 
L 483.078328 265.176033 
L 492.271893 266.311901 
L 503.304171 267.433408 
L 515.255805 268.420113 
L 529.046151 269.33648 
L 545.594568 270.204067 
L 564.901053 270.985997 
L 587.884965 271.690865 
L 609.94952 272.206417 
L 609.94952 272.206417 
" clip-path="url(#pe614292612)" style="fill: none; stroke-dasharray: 7.4,3.2; stroke-dashoffset: 0; stroke: #1f77b4; stroke-width: 2"/>
   </g>
   <g id="line2d_43">
    <path d="M 200.655733 333.39952 
L 210.02946 321.935404 
L 242.206936 282.898908 
L 248.642431 274.546197 
L 254.15857 267.032671 
L 259.674708 259.108021 
L 264.271491 252.14559 
L 269.78763 243.342445 
L 275.303768 234.094971 
L 283.577976 219.71404 
L 290.932828 207.023608 
L 295.52961 199.471151 
L 299.207036 193.779041 
L 302.884462 188.480386 
L 306.561888 183.638719 
L 309.319957 180.338734 
L 312.078027 177.342472 
L 314.836096 174.664256 
L 317.594165 172.315622 
L 320.352235 170.305714 
L 323.110304 168.641646 
L 325.868374 167.328824 
L 328.626443 166.371209 
L 330.465156 165.931526 
L 332.303869 165.651478 
L 334.142582 165.531399 
L 335.981295 165.571429 
L 337.820008 165.771522 
L 339.658721 166.131441 
L 341.497433 166.650755 
L 343.336146 167.328824 
L 346.094216 168.641646 
L 348.852285 170.305714 
L 351.610355 172.315622 
L 354.368424 174.664256 
L 357.126493 177.342472 
L 359.884563 180.338734 
L 362.642632 183.638719 
L 365.400701 187.224916 
L 369.078127 192.414799 
L 372.755553 198.015171 
L 377.352335 205.481248 
L 382.868474 214.903671 
L 397.578178 240.304632 
L 403.094316 249.264998 
L 408.610455 257.742557 
L 414.126594 265.742426 
L 419.642733 273.319215 
L 426.078228 281.728265 
L 433.43308 290.930733 
L 443.546001 303.181392 
L 466.529912 330.906762 
L 468.548787 333.39952 
L 468.548787 333.39952 
" clip-path="url(#pe614292612)" style="fill: none; stroke: #1f77b4; stroke-width: 2; stroke-linecap: square"/>
   </g>
   <g id="line2d_44">
    <defs>
     <path id="mc67290824c" d="M 0 2.25 
C 0.596707 2.25 1.169055 2.012926 1.59099 1.59099 
C 2.012926 1.169055 2.25 0.596707 2.25 0 
C 2.25 -0.596707 2.012926 -1.169055 1.59099 -1.59099 
C 1.169055 -2.012926 0.596707 -2.25 0 -2.25 
C -0.596707 -2.25 -1.169055 -2.012926 -1.59099 -1.59099 
C -2.012926 -1.169055 -2.25 -0.596707 -2.25 0 
C -2.25 0.596707 -2.012926 1.169055 -1.59099 1.59099 
C -1.169055 2.012926 -0.596707 2.25 0 2.25 
z
" style="stroke: #ff7f0e"/>
    </defs>
    <g>
     <use xlink:href="#mc67290824c" x="419.642733" y="117.12545" style="fill: #ff7f0e; stroke: #ff7f0e"/>
     <use xlink:href="#mc67290824c" x="249.561787" y="117.12545" style="fill: #ff7f0e; stroke: #ff7f0e"/>
    </g>
   </g>
   <g id="line2d_45">
    <path d="M 59.255 165.526395 
L 609.94952 165.526395 
" clip-path="url(#pe614292612)" style="fill: none; stroke: #333333; stroke-width: 1.2; stroke-linecap: square"/>
   </g>
   <g id="patch_3">
    <path d="M 59.255 286.59952 
L 59.255 7.2 
" style="fill: none; stroke: #000000; stroke-width: 1.2; stroke-linejoin: miter; stroke-linecap: square"/>
   </g>
   <g id="patch_4">
    <path d="M 609.94952 286.59952 
L 609.94952 7.2 
" style="fill: none; stroke: #000000; stroke-width: 1.2; stroke-linejoin: miter; stroke-linecap: square"/>
   </g>
   <g id="patch_5">
    <path d="M 59.255 286.59952 
L 609.94952 286.59952 
" style="fill: none; stroke: #000000; stroke-width: 1.2; stroke-linejoin: miter; stroke-linecap: square"/>
   </g>
   <g id="patch_6">
    <path d="M 59.255 7.2 
L 609.94952 7.2 
" style="fill: none; stroke: #000000; stroke-width: 1.2; stroke-linejoin: miter; stroke-linecap: square"/>
   </g>
   <g id="patch_7">
    <path d="M 401.413943 55.191259 
Q 410.246295 85.200083 418.699834 113.921855 
" style="fill: none; stroke: #595959; stroke-width: 1.2; stroke-linecap: round"/>
    <path d="M 419.567982 109.079715 
L 418.699834 113.921855 
L 415.347011 110.322053 
" style="fill: none; stroke: #595959; stroke-width: 1.2; stroke-linecap: round"/>
   </g>
   <g id="text_20">
    <!-- $\pm k^{\ast}$ -->
    <g transform="translate(389.671712 48.878589) scale(0.11 -0.11)">
     <defs>
      <path id="STIXGeneral-Regular-b1" d="M 4077 1549 
L 2400 1549 
L 2400 211 
L 1978 211 
L 1978 1549 
L 307 1549 
L 307 1971 
L 1978 1971 
L 1978 3213 
L 2400 3213 
L 2400 1971 
L 4077 1971 
L 4077 1549 
z
M 4077 -557 
L 307 -557 
L 307 -134 
L 4077 -134 
L 4077 -557 
z
" transform="scale(0.015625)"/>
      <path id="STIXGeneral-Regular-2217" d="M 2925 2157 
Q 2925 2042 2784 1958 
Q 2739 1933 2400 1843 
Q 2061 1754 1792 1600 
Q 2022 1466 2371 1370 
Q 2720 1274 2778 1242 
Q 2912 1165 2912 1037 
Q 2912 934 2845 860 
Q 2778 787 2662 787 
Q 2554 787 2432 905 
Q 2310 1024 2131 1213 
Q 1952 1402 1747 1517 
Q 1747 1267 1840 908 
Q 1933 550 1933 480 
Q 1933 378 1856 294 
Q 1779 211 1689 211 
Q 1600 211 1523 294 
Q 1446 378 1446 480 
Q 1446 550 1539 908 
Q 1632 1267 1632 1517 
Q 1440 1408 1174 1139 
Q 909 870 858 845 
Q 768 794 685 794 
Q 576 794 512 854 
Q 448 915 448 998 
Q 448 1165 582 1248 
Q 646 1280 1011 1385 
Q 1376 1491 1562 1600 
Q 1376 1709 1005 1814 
Q 634 1920 557 1965 
Q 429 2042 429 2157 
Q 429 2259 496 2342 
Q 563 2426 659 2426 
Q 723 2426 800 2387 
Q 864 2349 1145 2077 
Q 1427 1805 1632 1696 
Q 1632 1946 1539 2317 
Q 1446 2688 1446 2758 
Q 1446 2861 1523 2937 
Q 1600 3014 1689 3014 
Q 1779 3014 1856 2934 
Q 1933 2854 1933 2758 
Q 1933 2688 1840 2320 
Q 1747 1952 1747 1702 
Q 2016 1843 2262 2102 
Q 2509 2362 2554 2387 
Q 2630 2426 2694 2426 
Q 2790 2426 2857 2342 
Q 2925 2259 2925 2157 
z
" transform="scale(0.015625)"/>
     </defs>
     <use xlink:href="#STIXGeneral-Regular-b1" transform="translate(0 0.703125)"/>
     <use xlink:href="#STIXGeneral-Italic-6b" transform="translate(68.499985 0.703125)"/>
     <use xlink:href="#STIXGeneral-Regular-2217" transform="translate(124.15576 35.978125) scale(0.7)"/>
    </g>
   </g>
   <g id="legend_1">
    <g id="line2d_46">
     <path d="M 67.655 19.8 
L 84.455 19.8 
L 101.255 19.8 
" style="fill: none; stroke: #ff7f0e; stroke-width: 2.2; stroke-linecap: square"/>
    </g>
    <g id="text_21">
     <!-- $u_c=0.55$ -->
     <g transform="translate(110.855 24) scale(0.12 -0.12)">
      <defs>
       <path id="STIXGeneral-Italic-75" d="M 2950 762 
L 3040 704 
Q 2733 237 2560 89 
Q 2387 -58 2157 -58 
Q 1850 -58 1850 250 
Q 1850 538 2138 1510 
Q 1568 576 1257 253 
Q 947 -70 608 -70 
Q 269 -70 269 269 
Q 269 384 442 1088 
L 666 1978 
Q 755 2349 755 2406 
Q 755 2483 684 2521 
Q 614 2560 365 2560 
L 365 2650 
Q 806 2701 1325 2822 
L 1350 2803 
L 781 531 
Q 762 474 762 429 
Q 762 269 890 269 
Q 1178 269 1798 1210 
Q 2010 1530 2128 1795 
Q 2246 2061 2502 2765 
L 2976 2765 
L 2470 851 
Q 2349 390 2349 352 
Q 2349 243 2419 243 
Q 2496 243 2605 345 
Q 2714 448 2950 762 
z
" transform="scale(0.015625)"/>
       <path id="STIXGeneral-Italic-63" d="M 2240 685 
L 2342 621 
Q 2048 250 1769 90 
Q 1491 -70 1133 -70 
Q 678 -70 435 179 
Q 192 429 192 915 
Q 192 1344 409 1744 
Q 627 2144 979 2432 
Q 1472 2822 2048 2822 
Q 2342 2822 2531 2675 
Q 2720 2528 2720 2304 
Q 2720 2176 2630 2086 
Q 2541 1997 2413 1997 
Q 2285 1997 2224 2070 
Q 2163 2144 2163 2253 
Q 2163 2310 2211 2403 
Q 2259 2496 2259 2560 
Q 2259 2688 2022 2688 
Q 1619 2688 1325 2381 
Q 742 1766 742 890 
Q 742 544 889 352 
Q 1037 160 1312 160 
Q 1562 160 1766 281 
Q 1971 403 2240 685 
z
" transform="scale(0.015625)"/>
       <path id="STIXGeneral-Regular-3d" d="M 4077 2048 
L 307 2048 
L 307 2470 
L 4077 2470 
L 4077 2048 
z
M 4077 768 
L 307 768 
L 307 1190 
L 4077 1190 
L 4077 768 
z
" transform="scale(0.015625)"/>
       <path id="STIXGeneral-Regular-35" d="M 2803 4358 
L 2573 3814 
Q 2534 3731 2400 3731 
L 1158 3731 
L 902 3187 
Q 1606 3053 1920 2896 
Q 2234 2739 2502 2368 
Q 2726 2061 2726 1555 
Q 2726 1094 2576 780 
Q 2426 467 2099 224 
Q 1664 -90 1011 -90 
Q 646 -90 422 19 
Q 198 128 198 307 
Q 198 550 486 550 
Q 717 550 960 352 
Q 1210 147 1414 147 
Q 1747 147 2012 480 
Q 2278 813 2278 1229 
Q 2278 1843 1850 2189 
Q 1293 2637 486 2637 
Q 410 2637 410 2688 
L 416 2720 
L 1114 4237 
L 2438 4237 
Q 2547 4237 2608 4269 
Q 2669 4301 2746 4403 
L 2803 4358 
z
" transform="scale(0.015625)"/>
      </defs>
      <use xlink:href="#STIXGeneral-Italic-75" transform="translate(0 0.203125)"/>
      <use xlink:href="#STIXGeneral-Italic-63" transform="translate(49.999985 -13.025) scale(0.7)"/>
      <use xlink:href="#STIXGeneral-Regular-3d" transform="translate(99.929352 0.203125)"/>
      <use xlink:href="#STIXGeneral-Regular-30" transform="translate(182.869333 0.203125)"/>
      <use xlink:href="#STIXGeneral-Regular-2e" transform="translate(232.869318 0.203125)"/>
      <use xlink:href="#STIXGeneral-Regular-35" transform="translate(257.869302 0.203125)"/>
      <use xlink:href="#STIXGeneral-Regular-35" transform="translate(307.869287 0.203125)"/>
     </g>
    </g>
    <g id="line2d_47">
     <path d="M 67.655 36.804375 
L 84.455 36.804375 
L 101.255 36.804375 
" style="fill: none; stroke: #1f77b4; stroke-width: 2.2; stroke-linecap: square"/>
    </g>
    <g id="text_22">
     <!-- $u_c=0.20$ -->
     <g transform="translate(110.855 41.004375) scale(0.12 -0.12)">
      <use xlink:href="#STIXGeneral-Italic-75" transform="translate(0 0.40625)"/>
      <use xlink:href="#STIXGeneral-Italic-63" transform="translate(49.999985 -12.821875) scale(0.7)"/>
      <use xlink:href="#STIXGeneral-Regular-3d" transform="translate(99.929352 0.40625)"/>
      <use xlink:href="#STIXGeneral-Regular-30" transform="translate(182.869333 0.40625)"/>
      <use xlink:href="#STIXGeneral-Regular-2e" transform="translate(232.869318 0.40625)"/>
      <use xlink:href="#STIXGeneral-Regular-32" transform="translate(257.869302 0.40625)"/>
      <use xlink:href="#STIXGeneral-Regular-30" transform="translate(307.869287 0.40625)"/>
     </g>
    </g>
   </g>
   <g id="legend_2">
    <g id="line2d_48">
     <path d="M 525.94952 19.8 
L 542.74952 19.8 
L 559.54952 19.8 
" style="fill: none; stroke: #333333; stroke-width: 2.2; stroke-linecap: square"/>
    </g>
    <g id="text_23">
     <!-- $\eta=0$ -->
     <g transform="translate(569.14952 24) scale(0.12 -0.12)">
      <defs>
       <path id="STIXGeneral-Italic-3b7" d="M 947 1459 
L 960 1453 
Q 1811 2822 2374 2822 
Q 2573 2822 2701 2729 
Q 2829 2637 2829 2458 
Q 2829 2304 2765 2054 
L 2208 0 
Q 2016 -698 2016 -1094 
Q 2016 -1190 2067 -1312 
L 1600 -1312 
Q 1530 -1229 1530 -1030 
Q 1530 -710 1741 58 
L 2221 1811 
Q 2310 2112 2310 2272 
Q 2310 2496 2150 2496 
Q 1894 2496 1427 1897 
Q 960 1299 774 678 
L 570 0 
L 90 0 
L 614 1952 
Q 704 2272 704 2349 
Q 704 2458 614 2458 
Q 589 2458 560 2445 
Q 531 2432 499 2403 
Q 467 2374 438 2348 
Q 410 2323 374 2281 
Q 339 2240 316 2211 
Q 294 2182 259 2140 
Q 224 2099 211 2086 
L 134 2150 
Q 218 2291 320 2413 
Q 634 2803 941 2803 
Q 1197 2803 1197 2515 
Q 1197 2253 947 1459 
z
" transform="scale(0.015625)"/>
      </defs>
      <use xlink:href="#STIXGeneral-Italic-3b7" transform="translate(0 0.40625)"/>
      <use xlink:href="#STIXGeneral-Regular-3d" transform="translate(61.83999 0.40625)"/>
      <use xlink:href="#STIXGeneral-Regular-30" transform="translate(144.779971 0.40625)"/>
     </g>
    </g>
    <g id="line2d_49">
     <path d="M 525.94952 36.804375 
L 542.74952 36.804375 
L 559.54952 36.804375 
" style="fill: none; stroke-dasharray: 8.14,3.52; stroke-dashoffset: 0; stroke: #333333; stroke-width: 2.2"/>
    </g>
    <g id="text_24">
     <!-- $\eta=0.1$ -->
     <g transform="translate(569.14952 41.004375) scale(0.12 -0.12)">
      <use xlink:href="#STIXGeneral-Italic-3b7" transform="translate(0 0.40625)"/>
      <use xlink:href="#STIXGeneral-Regular-3d" transform="translate(61.83999 0.40625)"/>
      <use xlink:href="#STIXGeneral-Regular-30" transform="translate(144.779971 0.40625)"/>
      <use xlink:href="#STIXGeneral-Regular-2e" transform="translate(194.779956 0.40625)"/>
      <use xlink:href="#STIXGeneral-Regular-31" transform="translate(219.779941 0.40625)"/>
     </g>
    </g>
   </g>
  </g>
 </g>
 <defs>
  <clipPath id="pe614292612">
   <rect x="59.255" y="7.2" width="550.69452" height="279.39952"/>
  </clipPath>
 </defs>
</svg>
