<?xml version="1.0" encoding="utf-8" standalone="no"?>
<!DOCTYPE svg PUBLIC "-//W3C//DTD SVG 1.1//EN"
  "http://www.w3.org/Graphics/SVG/1.1/DTD/svg11.dtd">
<svg xmlns:xlink="http://www.w3.org/1999/xlink" width="310.5538pt" height="477.607219pt" viewBox="0 0 310.5538 477.607219" xmlns="http://www.w3.org/2000/svg" version="1.1">
 <metadata>
  <rdf:RDF xmlns:dc="http://purl.org/dc/elements/1.1/" xmlns:cc="http://creativecommons.org/ns#" xmlns:rdf="http://www.w3.org/1999/02/22-rdf-syntax-ns#">
   <cc:Work>
    <dc:type rdf:resource="http://purl.org/dc/dcmitype/StillImage"/>
    <dc:date>2025-12-12T17:18:43.648613</dc:date>
    <dc:format>image/svg+xml</dc:format>
    <dc:creator>
     <cc:Agent>
      <dc:title>Matplotlib v3.8.4, https://matplotlib.org/</dc:title>
     </cc:Agent>
    </dc:creator>
   </cc:Work>
  </rdf:RDF>
 </metadata>
 <defs>
  <style type="text/css">*{stroke-linejoin: round; stroke-linecap: butt}</style>
 </defs>
 <g id="figure_1">
  <g id="patch_1">
   <path d="M 0 477.607219 
L 310.5538 477.607219 
L 310.5538 0 
L 0 0 
z
" style="fill: #ffffff"/>
  </g>
  <g id="axes_1">
   <g id="patch_2">
    <path d="M 32.89 227.326969 
L 306.9538 227.326969 
L 306.9538 12.746719 
L 32.89 12.746719 
z
" style="fill: #fafafa"/>
   </g>
   <g id="line2d_1">
    <path d="M 45.347445 216.352094 
L 60.821073 214.416285 
L 72.839184 212.472708 
L 82.666847 210.630644 
L 90.980764 208.867755 
L 98.185615 207.169974 
L 104.542768 205.52775 
L 115.377419 202.384138 
L 124.400118 199.398951 
L 132.130966 196.547706 
L 138.893981 193.81295 
L 144.90475 191.181379 
L 152.828454 187.404779 
L 159.738539 183.808383 
L 165.865166 180.36989 
L 171.368039 177.071276 
L 177.929876 172.865329 
L 183.781247 168.852908 
L 190.304279 164.074265 
L 196.124779 159.524836 
L 202.371825 154.326959 
L 207.971628 149.376206 
L 213.847092 143.869739 
L 219.146528 138.614605 
L 224.628497 132.874756 
L 230.1969 126.710475 
L 235.778208 120.174105 
L 241.318022 113.310113 
L 246.342901 106.739817 
L 251.339705 99.86137 
L 256.278052 92.704884 
L 261.466852 84.777186 
L 266.502637 76.657286 
L 271.38465 68.358387 
L 276.114556 59.891187 
L 280.92636 50.818425 
L 285.556673 41.622789 
L 290.21095 31.890293 
L 294.496355 22.500366 
L 294.496355 22.500366 
" clip-path="url(#p5fe003e291)" style="fill: none; stroke: #41049d; stroke-opacity: 0.95; stroke-width: 1.8; stroke-linecap: square"/>
   </g>
   <g id="line2d_2">
    <path d="M 45.347445 216.971269 
L 60.821073 215.21544 
L 72.839184 213.52434 
L 82.666847 211.936375 
L 90.980764 210.425408 
L 98.185615 208.974915 
L 110.230865 206.214014 
L 120.076643 203.597006 
L 128.403511 201.091817 
L 135.618081 198.678306 
L 141.982797 196.342822 
L 147.676946 194.075557 
L 155.231225 190.786851 
L 161.858777 187.616678 
L 167.762332 184.551241 
L 173.084605 181.579816 
L 179.45311 177.749408 
L 185.15029 174.054233 
L 190.304279 170.480781 
L 196.124779 166.168163 
L 201.379467 162.009917 
L 207.077659 157.202419 
L 212.232474 152.573208 
L 217.684622 147.373371 
L 223.309195 141.66608 
L 228.403699 136.181171 
L 233.614277 130.245642 
L 238.869998 123.908377 
L 244.116538 117.212947 
L 249.313483 110.197455 
L 254.431643 102.894717 
L 259.450648 95.332669 
L 264.356913 87.53488 
L 269.141994 79.521109 
L 274.063246 70.833571 
L 278.813834 61.992917 
L 283.620566 52.565632 
L 288.236351 43.028502 
L 292.859642 32.970954 
L 294.496355 29.323114 
L 294.496355 29.323114 
" clip-path="url(#p5fe003e291)" style="fill: none; stroke: #8104a7; stroke-opacity: 0.95; stroke-width: 1.8; stroke-linecap: square"/>
   </g>
   <g id="line2d_3">
    <path d="M 45.347445 217.244987 
L 60.821073 215.574372 
L 72.839184 214.00788 
L 82.666847 212.550514 
L 90.980764 211.174178 
L 104.542768 208.598388 
L 115.377419 206.19298 
L 124.400118 203.911018 
L 132.130966 201.724237 
L 138.893981 199.614223 
L 144.90475 197.56827 
L 152.828454 194.60005 
L 159.738539 191.733888 
L 165.865166 188.954667 
L 171.368039 186.251428 
L 177.929876 182.751245 
L 183.781247 179.356666 
L 189.061077 176.056361 
L 195.009699 172.05009 
L 200.368567 168.16329 
L 206.168669 163.641147 
L 211.406728 159.259097 
L 216.938584 154.306472 
L 221.956916 149.509586 
L 227.174338 144.199689 
L 231.932566 139.056183 
L 236.82856 133.44951 
L 241.79461 127.421405 
L 246.777388 121.010676 
L 251.736 114.252739 
L 256.639891 107.179411 
L 261.466852 99.818909 
L 266.201267 92.195992 
L 270.832641 84.332202 
L 275.608974 75.778497 
L 280.23131 67.048326 
L 284.918971 57.715214 
L 289.626101 47.829923 
L 294.496355 37.075241 
L 294.496355 37.075241 
" clip-path="url(#p5fe003e291)" style="fill: none; stroke: #aa2395; stroke-opacity: 0.95; stroke-width: 1.8; stroke-linecap: square"/>
   </g>
   <g id="line2d_4">
    <path d="M 45.347445 217.461344 
L 60.821073 215.860673 
L 72.839184 214.398686 
L 82.666847 213.05337 
L 98.185615 210.604894 
L 110.230865 208.379241 
L 120.076643 206.307875 
L 128.403511 204.350839 
L 135.618081 202.482596 
L 144.90475 199.810093 
L 152.828454 197.259852 
L 159.738539 194.806256 
L 165.865166 192.431711 
L 173.084605 189.367276 
L 179.45311 186.399823 
L 185.15029 183.5142 
L 191.519553 180.005551 
L 197.21734 176.591468 
L 202.371825 173.260072 
L 207.971628 169.358897 
L 213.045806 165.551672 
L 218.420513 161.216165 
L 223.309195 156.983913 
L 228.403699 152.261441 
L 233.059495 147.650086 
L 237.858907 142.583483 
L 242.735373 137.091453 
L 247.208412 131.731905 
L 251.736 125.976603 
L 256.278052 119.851742 
L 260.803097 113.382176 
L 265.286949 106.591234 
L 269.711433 99.500612 
L 274.323953 91.675893 
L 278.813834 83.613505 
L 283.401103 74.898779 
L 287.832634 65.998215 
L 292.30288 56.515579 
L 294.496355 51.724488 
L 294.496355 51.724488 
" clip-path="url(#p5fe003e291)" style="fill: none; stroke: #d5536f; stroke-opacity: 0.95; stroke-width: 1.8; stroke-linecap: square"/>
   </g>
   <g id="line2d_5">
    <path d="M 45.347445 217.573321 
L 60.821073 216.009777 
L 72.839184 214.604038 
L 90.980764 212.127281 
L 104.542768 209.943474 
L 115.377419 207.955029 
L 124.400118 206.107983 
L 135.618081 203.532552 
L 144.90475 201.131737 
L 152.828454 198.862584 
L 161.858777 195.994358 
L 169.595218 193.266263 
L 176.362511 190.648761 
L 183.781247 187.501573 
L 190.304279 184.466957 
L 196.124779 181.524901 
L 202.371825 178.096264 
L 207.971628 174.76133 
L 213.045806 171.506297 
L 218.420513 167.795878 
L 223.309195 164.167236 
L 228.403699 160.107849 
L 233.059495 156.131116 
L 237.858907 151.745084 
L 242.735373 146.969153 
L 247.208412 142.285389 
L 251.736 137.229453 
L 256.278052 131.818338 
L 260.803097 126.06834 
L 265.286949 119.995069 
L 269.711433 113.613463 
L 274.063246 106.9378 
L 278.332967 99.981703 
L 282.514239 92.758143 
L 286.809959 84.889769 
L 290.981043 76.793084 
L 294.496355 69.659566 
L 294.496355 69.659566 
" clip-path="url(#p5fe003e291)" style="fill: none; stroke: #f2844b; stroke-opacity: 0.95; stroke-width: 1.8; stroke-linecap: square"/>
   </g>
   <g id="matplotlib.axis_1">
    <g id="xtick_1">
     <g id="line2d_6">
      <path d="M 45.347445 227.326969 
L 45.347445 12.746719 
" clip-path="url(#p5fe003e291)" style="fill: none; stroke: #b0b0b0; stroke-opacity: 0.2; stroke-width: 0.7; stroke-linecap: square"/>
     </g>
     <g id="line2d_7">
      <defs>
       <path id="me1c39d6472" d="M 0 0 
L 0 -4 
" style="stroke: #2c3e50; stroke-width: 0.8"/>
      </defs>
      <g>
       <use xlink:href="#me1c39d6472" x="45.347445" y="227.326969" style="fill: #2c3e50; stroke: #2c3e50; stroke-width: 0.8"/>
      </g>
     </g>
    </g>
    <g id="xtick_2">
     <g id="line2d_8">
      <path d="M 169.9219 227.326969 
L 169.9219 12.746719 
" clip-path="url(#p5fe003e291)" style="fill: none; stroke: #b0b0b0; stroke-opacity: 0.2; stroke-width: 0.7; stroke-linecap: square"/>
     </g>
     <g id="line2d_9">
      <g>
       <use xlink:href="#me1c39d6472" x="169.9219" y="227.326969" style="fill: #2c3e50; stroke: #2c3e50; stroke-width: 0.8"/>
      </g>
     </g>
    </g>
    <g id="xtick_3">
     <g id="line2d_10">
      <path d="M 294.496355 227.326969 
L 294.496355 12.746719 
" clip-path="url(#p5fe003e291)" style="fill: none; stroke: #b0b0b0; stroke-opacity: 0.2; stroke-width: 0.7; stroke-linecap: square"/>
     </g>
     <g id="line2d_11">
      <g>
       <use xlink:href="#me1c39d6472" x="294.496355" y="227.326969" style="fill: #2c3e50; stroke: #2c3e50; stroke-width: 0.8"/>
      </g>
     </g>
    </g>
    <g id="xtick_4">
     <g id="line2d_12">
      <defs>
       <path id="m53501aed3a" d="M 0 0 
L 0 -2.5 
" style="stroke: #000000; stroke-width: 0.6"/>
      </defs>
      <g>
       <use xlink:href="#m53501aed3a" x="33.274933" y="227.326969" style="stroke: #000000; stroke-width: 0.6"/>
      </g>
     </g>
    </g>
    <g id="xtick_5">
     <g id="line2d_13">
      <g>
       <use xlink:href="#m53501aed3a" x="39.647231" y="227.326969" style="stroke: #000000; stroke-width: 0.6"/>
      </g>
     </g>
    </g>
    <g id="xtick_6">
     <g id="line2d_14">
      <g>
       <use xlink:href="#m53501aed3a" x="82.848093" y="227.326969" style="stroke: #000000; stroke-width: 0.6"/>
      </g>
     </g>
    </g>
    <g id="xtick_7">
     <g id="line2d_15">
      <g>
       <use xlink:href="#m53501aed3a" x="104.784566" y="227.326969" style="stroke: #000000; stroke-width: 0.6"/>
      </g>
     </g>
    </g>
    <g id="xtick_8">
     <g id="line2d_16">
      <g>
       <use xlink:href="#m53501aed3a" x="120.34874" y="227.326969" style="stroke: #000000; stroke-width: 0.6"/>
      </g>
     </g>
    </g>
    <g id="xtick_9">
     <g id="line2d_17">
      <g>
       <use xlink:href="#m53501aed3a" x="132.421252" y="227.326969" style="stroke: #000000; stroke-width: 0.6"/>
      </g>
     </g>
    </g>
    <g id="xtick_10">
     <g id="line2d_18">
      <g>
       <use xlink:href="#m53501aed3a" x="142.285213" y="227.326969" style="stroke: #000000; stroke-width: 0.6"/>
      </g>
     </g>
    </g>
    <g id="xtick_11">
     <g id="line2d_19">
      <g>
       <use xlink:href="#m53501aed3a" x="150.625073" y="227.326969" style="stroke: #000000; stroke-width: 0.6"/>
      </g>
     </g>
    </g>
    <g id="xtick_12">
     <g id="line2d_20">
      <g>
       <use xlink:href="#m53501aed3a" x="157.849388" y="227.326969" style="stroke: #000000; stroke-width: 0.6"/>
      </g>
     </g>
    </g>
    <g id="xtick_13">
     <g id="line2d_21">
      <g>
       <use xlink:href="#m53501aed3a" x="164.221686" y="227.326969" style="stroke: #000000; stroke-width: 0.6"/>
      </g>
     </g>
    </g>
    <g id="xtick_14">
     <g id="line2d_22">
      <g>
       <use xlink:href="#m53501aed3a" x="207.422548" y="227.326969" style="stroke: #000000; stroke-width: 0.6"/>
      </g>
     </g>
    </g>
    <g id="xtick_15">
     <g id="line2d_23">
      <g>
       <use xlink:href="#m53501aed3a" x="229.35902" y="227.326969" style="stroke: #000000; stroke-width: 0.6"/>
      </g>
     </g>
    </g>
    <g id="xtick_16">
     <g id="line2d_24">
      <g>
       <use xlink:href="#m53501aed3a" x="244.923195" y="227.326969" style="stroke: #000000; stroke-width: 0.6"/>
      </g>
     </g>
    </g>
    <g id="xtick_17">
     <g id="line2d_25">
      <g>
       <use xlink:href="#m53501aed3a" x="256.995707" y="227.326969" style="stroke: #000000; stroke-width: 0.6"/>
      </g>
     </g>
    </g>
    <g id="xtick_18">
     <g id="line2d_26">
      <g>
       <use xlink:href="#m53501aed3a" x="266.859668" y="227.326969" style="stroke: #000000; stroke-width: 0.6"/>
      </g>
     </g>
    </g>
    <g id="xtick_19">
     <g id="line2d_27">
      <g>
       <use xlink:href="#m53501aed3a" x="275.199527" y="227.326969" style="stroke: #000000; stroke-width: 0.6"/>
      </g>
     </g>
    </g>
    <g id="xtick_20">
     <g id="line2d_28">
      <g>
       <use xlink:href="#m53501aed3a" x="282.423843" y="227.326969" style="stroke: #000000; stroke-width: 0.6"/>
      </g>
     </g>
    </g>
    <g id="xtick_21">
     <g id="line2d_29">
      <g>
       <use xlink:href="#m53501aed3a" x="288.79614" y="227.326969" style="stroke: #000000; stroke-width: 0.6"/>
      </g>
     </g>
    </g>
   </g>
   <g id="matplotlib.axis_2">
    <g id="ytick_1">
     <g id="line2d_30">
      <path d="M 32.89 180.809297 
L 306.9538 180.809297 
" clip-path="url(#p5fe003e291)" style="fill: none; stroke: #b0b0b0; stroke-opacity: 0.2; stroke-width: 0.7; stroke-linecap: square"/>
     </g>
     <g id="line2d_31">
      <defs>
       <path id="mc5174267c8" d="M 0 0 
L 4 0 
" style="stroke: #2c3e50; stroke-width: 0.8"/>
      </defs>
      <g>
       <use xlink:href="#mc5174267c8" x="32.89" y="180.809297" style="fill: #2c3e50; stroke: #2c3e50; stroke-width: 0.8"/>
      </g>
     </g>
     <g id="text_1">
      <!-- 1 -->
      <g style="fill: #2c3e50" transform="translate(24.89 183.882657) scale(0.09 -0.09)">
       <defs>
        <path id="STIXGeneral-Regular-31" d="M 2522 0 
L 755 0 
L 755 96 
Q 1107 115 1235 227 
Q 1363 339 1363 608 
L 1363 3482 
Q 1363 3795 1171 3795 
Q 1082 3795 883 3718 
L 710 3654 
L 710 3744 
L 1856 4326 
L 1914 4307 
L 1914 486 
Q 1914 275 2042 185 
Q 2170 96 2522 96 
L 2522 0 
z
" transform="scale(0.015625)"/>
       </defs>
       <use xlink:href="#STIXGeneral-Regular-31"/>
      </g>
     </g>
    </g>
    <g id="ytick_2">
     <g id="line2d_32">
      <path d="M 32.89 134.024208 
L 306.9538 134.024208 
" clip-path="url(#p5fe003e291)" style="fill: none; stroke: #b0b0b0; stroke-opacity: 0.2; stroke-width: 0.7; stroke-linecap: square"/>
     </g>
     <g id="line2d_33">
      <g>
       <use xlink:href="#mc5174267c8" x="32.89" y="134.024208" style="fill: #2c3e50; stroke: #2c3e50; stroke-width: 0.8"/>
      </g>
     </g>
     <g id="text_2">
      <!-- 2 -->
      <g style="fill: #2c3e50" transform="translate(24.89 137.097567) scale(0.09 -0.09)">
       <defs>
        <path id="STIXGeneral-Regular-32" d="M 3034 877 
L 2688 0 
L 186 0 
L 186 77 
L 1325 1286 
Q 1773 1754 1965 2144 
Q 2157 2534 2157 2950 
Q 2157 3379 1920 3616 
Q 1683 3853 1267 3853 
Q 922 3853 720 3673 
Q 518 3494 326 3021 
L 192 3053 
Q 301 3648 630 3987 
Q 960 4326 1523 4326 
Q 2054 4326 2380 4006 
Q 2707 3686 2707 3200 
Q 2707 2477 1888 1613 
L 832 486 
L 2330 486 
Q 2541 486 2665 569 
Q 2790 653 2944 915 
L 3034 877 
z
" transform="scale(0.015625)"/>
       </defs>
       <use xlink:href="#STIXGeneral-Regular-32"/>
      </g>
     </g>
    </g>
    <g id="ytick_3">
     <g id="line2d_34">
      <path d="M 32.89 87.239119 
L 306.9538 87.239119 
" clip-path="url(#p5fe003e291)" style="fill: none; stroke: #b0b0b0; stroke-opacity: 0.2; stroke-width: 0.7; stroke-linecap: square"/>
     </g>
     <g id="line2d_35">
      <g>
       <use xlink:href="#mc5174267c8" x="32.89" y="87.239119" style="fill: #2c3e50; stroke: #2c3e50; stroke-width: 0.8"/>
      </g>
     </g>
     <g id="text_3">
      <!-- 3 -->
      <g style="fill: #2c3e50" transform="translate(24.89 90.312478) scale(0.09 -0.09)">
       <defs>
        <path id="STIXGeneral-Regular-33" d="M 390 3264 
L 288 3290 
Q 435 3770 748 4048 
Q 1062 4326 1542 4326 
Q 1990 4326 2265 4083 
Q 2541 3840 2541 3450 
Q 2541 2925 1946 2566 
Q 2298 2413 2477 2227 
Q 2758 1914 2758 1402 
Q 2758 890 2464 506 
Q 2246 211 1840 60 
Q 1434 -90 979 -90 
Q 262 -90 262 275 
Q 262 378 339 442 
Q 416 506 525 506 
Q 685 506 915 339 
Q 1197 141 1466 141 
Q 1818 141 2058 425 
Q 2298 710 2298 1120 
Q 2298 1856 1632 2048 
Q 1434 2112 979 2112 
L 979 2202 
Q 1338 2323 1517 2432 
Q 2035 2726 2035 3290 
Q 2035 3610 1852 3776 
Q 1670 3942 1344 3942 
Q 768 3942 390 3264 
z
" transform="scale(0.015625)"/>
       </defs>
       <use xlink:href="#STIXGeneral-Regular-33"/>
      </g>
     </g>
    </g>
    <g id="ytick_4">
     <g id="line2d_36">
      <path d="M 32.89 40.454029 
L 306.9538 40.454029 
" clip-path="url(#p5fe003e291)" style="fill: none; stroke: #b0b0b0; stroke-opacity: 0.2; stroke-width: 0.7; stroke-linecap: square"/>
     </g>
     <g id="line2d_37">
      <g>
       <use xlink:href="#mc5174267c8" x="32.89" y="40.454029" style="fill: #2c3e50; stroke: #2c3e50; stroke-width: 0.8"/>
      </g>
     </g>
     <g id="text_4">
      <!-- 4 -->
      <g style="fill: #2c3e50" transform="translate(24.89 43.527389) scale(0.09 -0.09)">
       <defs>
        <path id="STIXGeneral-Regular-34" d="M 3027 1069 
L 2368 1069 
L 2368 0 
L 1869 0 
L 1869 1069 
L 77 1069 
L 77 1478 
L 2086 4326 
L 2368 4326 
L 2368 1478 
L 3027 1478 
L 3027 1069 
z
M 1869 1478 
L 1869 3674 
L 333 1478 
L 1869 1478 
z
" transform="scale(0.015625)"/>
       </defs>
       <use xlink:href="#STIXGeneral-Regular-34"/>
      </g>
     </g>
    </g>
    <g id="ytick_5">
     <g id="line2d_38">
      <defs>
       <path id="ma721ac70e8" d="M 0 0 
L 2.5 0 
" style="stroke: #000000; stroke-width: 0.6"/>
      </defs>
      <g>
       <use xlink:href="#ma721ac70e8" x="32.89" y="218.237369" style="stroke: #000000; stroke-width: 0.6"/>
      </g>
     </g>
    </g>
    <g id="ytick_6">
     <g id="line2d_39">
      <g>
       <use xlink:href="#ma721ac70e8" x="32.89" y="208.880351" style="stroke: #000000; stroke-width: 0.6"/>
      </g>
     </g>
    </g>
    <g id="ytick_7">
     <g id="line2d_40">
      <g>
       <use xlink:href="#ma721ac70e8" x="32.89" y="199.523333" style="stroke: #000000; stroke-width: 0.6"/>
      </g>
     </g>
    </g>
    <g id="ytick_8">
     <g id="line2d_41">
      <g>
       <use xlink:href="#ma721ac70e8" x="32.89" y="190.166315" style="stroke: #000000; stroke-width: 0.6"/>
      </g>
     </g>
    </g>
    <g id="ytick_9">
     <g id="line2d_42">
      <g>
       <use xlink:href="#ma721ac70e8" x="32.89" y="171.452279" style="stroke: #000000; stroke-width: 0.6"/>
      </g>
     </g>
    </g>
    <g id="ytick_10">
     <g id="line2d_43">
      <g>
       <use xlink:href="#ma721ac70e8" x="32.89" y="162.095261" style="stroke: #000000; stroke-width: 0.6"/>
      </g>
     </g>
    </g>
    <g id="ytick_11">
     <g id="line2d_44">
      <g>
       <use xlink:href="#ma721ac70e8" x="32.89" y="152.738244" style="stroke: #000000; stroke-width: 0.6"/>
      </g>
     </g>
    </g>
    <g id="ytick_12">
     <g id="line2d_45">
      <g>
       <use xlink:href="#ma721ac70e8" x="32.89" y="143.381226" style="stroke: #000000; stroke-width: 0.6"/>
      </g>
     </g>
    </g>
    <g id="ytick_13">
     <g id="line2d_46">
      <g>
       <use xlink:href="#ma721ac70e8" x="32.89" y="124.66719" style="stroke: #000000; stroke-width: 0.6"/>
      </g>
     </g>
    </g>
    <g id="ytick_14">
     <g id="line2d_47">
      <g>
       <use xlink:href="#ma721ac70e8" x="32.89" y="115.310172" style="stroke: #000000; stroke-width: 0.6"/>
      </g>
     </g>
    </g>
    <g id="ytick_15">
     <g id="line2d_48">
      <g>
       <use xlink:href="#ma721ac70e8" x="32.89" y="105.953154" style="stroke: #000000; stroke-width: 0.6"/>
      </g>
     </g>
    </g>
    <g id="ytick_16">
     <g id="line2d_49">
      <g>
       <use xlink:href="#ma721ac70e8" x="32.89" y="96.596136" style="stroke: #000000; stroke-width: 0.6"/>
      </g>
     </g>
    </g>
    <g id="ytick_17">
     <g id="line2d_50">
      <g>
       <use xlink:href="#ma721ac70e8" x="32.89" y="77.882101" style="stroke: #000000; stroke-width: 0.6"/>
      </g>
     </g>
    </g>
    <g id="ytick_18">
     <g id="line2d_51">
      <g>
       <use xlink:href="#ma721ac70e8" x="32.89" y="68.525083" style="stroke: #000000; stroke-width: 0.6"/>
      </g>
     </g>
    </g>
    <g id="ytick_19">
     <g id="line2d_52">
      <g>
       <use xlink:href="#ma721ac70e8" x="32.89" y="59.168065" style="stroke: #000000; stroke-width: 0.6"/>
      </g>
     </g>
    </g>
    <g id="ytick_20">
     <g id="line2d_53">
      <g>
       <use xlink:href="#ma721ac70e8" x="32.89" y="49.811047" style="stroke: #000000; stroke-width: 0.6"/>
      </g>
     </g>
    </g>
    <g id="ytick_21">
     <g id="line2d_54">
      <g>
       <use xlink:href="#ma721ac70e8" x="32.89" y="31.097011" style="stroke: #000000; stroke-width: 0.6"/>
      </g>
     </g>
    </g>
    <g id="ytick_22">
     <g id="line2d_55">
      <g>
       <use xlink:href="#ma721ac70e8" x="32.89" y="21.739993" style="stroke: #000000; stroke-width: 0.6"/>
      </g>
     </g>
    </g>
    <g id="text_5">
     <!-- Critical velocity $u_c$ (m/s) -->
     <g style="fill: #2c3e50" transform="translate(18.69 169.736844) rotate(-90) scale(0.1 -0.1)">
      <defs>
       <path id="STIXGeneral-Regular-43" d="M 3930 838 
L 4051 723 
Q 3482 -90 2304 -90 
Q 1376 -90 794 480 
Q 179 1082 179 2080 
Q 179 3014 755 3661 
Q 1357 4326 2310 4326 
Q 2720 4326 3072 4230 
Q 3475 4115 3514 4115 
Q 3725 4115 3782 4326 
L 3910 4326 
L 3968 2874 
L 3821 2874 
Q 3718 3334 3488 3584 
Q 3034 4070 2458 4070 
Q 1747 4070 1334 3548 
Q 922 3027 922 2182 
Q 922 1152 1382 653 
Q 1811 192 2522 192 
Q 2944 192 3251 339 
Q 3558 486 3930 838 
z
" transform="scale(0.015625)"/>
       <path id="STIXGeneral-Regular-72" d="M 1024 2931 
L 1024 2342 
Q 1267 2688 1430 2816 
Q 1594 2944 1792 2944 
Q 1958 2944 2051 2854 
Q 2144 2765 2144 2605 
Q 2144 2470 2077 2393 
Q 2010 2317 1894 2317 
Q 1773 2317 1638 2445 
Q 1536 2541 1472 2541 
Q 1338 2541 1181 2355 
Q 1024 2170 1024 2016 
L 1024 576 
Q 1024 301 1133 205 
Q 1242 109 1568 96 
L 1568 0 
L 32 0 
L 32 96 
Q 339 154 412 224 
Q 486 294 486 538 
L 486 2138 
Q 486 2349 438 2435 
Q 390 2522 269 2522 
Q 166 2522 45 2496 
L 45 2598 
Q 448 2726 992 2944 
L 1024 2931 
z
" transform="scale(0.015625)"/>
       <path id="STIXGeneral-Regular-69" d="M 1152 4045 
Q 1152 3904 1056 3811 
Q 960 3718 819 3718 
Q 685 3718 592 3811 
Q 499 3904 499 4045 
Q 499 4179 595 4275 
Q 691 4371 826 4371 
Q 966 4371 1059 4275 
Q 1152 4179 1152 4045 
z
M 1619 0 
L 102 0 
L 102 96 
Q 435 115 521 211 
Q 608 307 608 666 
L 608 2118 
Q 608 2342 563 2432 
Q 518 2522 397 2522 
Q 243 2522 128 2490 
L 128 2592 
L 1120 2944 
L 1146 2918 
L 1146 672 
Q 1146 314 1226 218 
Q 1306 122 1619 96 
L 1619 0 
z
" transform="scale(0.015625)"/>
       <path id="STIXGeneral-Regular-74" d="M 1702 493 
L 1786 422 
Q 1478 -64 1011 -64 
Q 448 -64 448 749 
L 448 2675 
L 109 2675 
Q 83 2694 83 2720 
Q 83 2771 192 2842 
Q 435 2982 813 3526 
Q 826 3546 874 3606 
Q 922 3667 941 3706 
Q 986 3706 986 3622 
L 986 2880 
L 1632 2880 
L 1632 2675 
L 986 2675 
L 986 845 
Q 986 538 1062 403 
Q 1139 269 1318 269 
Q 1510 269 1702 493 
z
" transform="scale(0.015625)"/>
       <path id="STIXGeneral-Regular-63" d="M 2547 998 
L 2637 941 
Q 2362 403 2112 205 
Q 1786 -64 1376 -64 
Q 845 -64 502 336 
Q 160 736 160 1357 
Q 160 2170 698 2618 
Q 1094 2944 1562 2944 
Q 1965 2944 2256 2749 
Q 2547 2554 2547 2285 
Q 2547 2176 2457 2096 
Q 2368 2016 2246 2016 
Q 2022 2016 1939 2310 
L 1901 2451 
Q 1850 2630 1773 2694 
Q 1696 2758 1523 2758 
Q 1133 2758 893 2451 
Q 653 2144 653 1645 
Q 653 1094 928 745 
Q 1203 397 1645 397 
Q 1920 397 2118 528 
Q 2317 659 2547 998 
z
" transform="scale(0.015625)"/>
       <path id="STIXGeneral-Regular-61" d="M 2829 422 
L 2829 243 
Q 2586 -64 2253 -64 
Q 1888 -64 1843 403 
L 1837 403 
Q 1427 -64 909 -64 
Q 608 -64 422 112 
Q 237 288 237 602 
Q 237 1050 685 1350 
Q 992 1555 1837 1869 
L 1837 2214 
Q 1837 2502 1699 2646 
Q 1562 2790 1338 2790 
Q 1146 2790 1018 2697 
Q 890 2605 890 2477 
Q 890 2419 909 2348 
Q 928 2278 928 2208 
Q 928 2112 841 2029 
Q 755 1946 634 1946 
Q 525 1946 441 2029 
Q 358 2112 358 2240 
Q 358 2547 685 2752 
Q 986 2944 1421 2944 
Q 1939 2944 2176 2656 
Q 2291 2522 2323 2384 
Q 2355 2246 2355 1946 
L 2355 723 
Q 2355 301 2554 301 
Q 2682 301 2829 422 
z
M 1837 813 
L 1837 1715 
Q 1248 1510 1018 1293 
Q 800 1094 800 800 
Q 800 557 921 432 
Q 1043 307 1242 307 
Q 1453 307 1613 410 
Q 1747 506 1792 589 
Q 1837 672 1837 813 
z
" transform="scale(0.015625)"/>
       <path id="STIXGeneral-Regular-6c" d="M 1645 0 
L 134 0 
L 134 96 
Q 435 122 531 221 
Q 627 320 627 589 
L 627 3590 
Q 627 3821 569 3910 
Q 512 4000 358 4000 
Q 224 4000 122 3987 
L 122 4090 
Q 730 4237 1133 4371 
L 1165 4346 
L 1165 557 
Q 1165 288 1254 201 
Q 1344 115 1645 96 
L 1645 0 
z
" transform="scale(0.015625)"/>
       <path id="STIXGeneral-Regular-20" transform="scale(0.015625)"/>
       <path id="STIXGeneral-Regular-76" d="M 3053 2880 
L 3053 2784 
Q 2906 2771 2835 2688 
Q 2765 2605 2637 2285 
L 1818 230 
Q 1690 -90 1638 -90 
Q 1587 -90 1523 77 
Q 1510 96 1497 141 
Q 1485 186 1472 211 
L 704 2048 
Q 499 2534 403 2652 
Q 307 2771 122 2784 
L 122 2880 
L 1376 2880 
L 1376 2784 
Q 1210 2771 1146 2732 
Q 1082 2694 1082 2611 
Q 1082 2509 1139 2368 
L 1792 730 
L 2426 2387 
Q 2464 2483 2464 2579 
Q 2464 2758 2163 2784 
L 2163 2880 
L 3053 2880 
z
" transform="scale(0.015625)"/>
       <path id="STIXGeneral-Regular-65" d="M 2611 1050 
L 2714 1005 
Q 2330 -64 1376 -64 
Q 813 -64 486 329 
Q 160 723 160 1389 
Q 160 2074 525 2509 
Q 890 2944 1485 2944 
Q 2061 2944 2374 2502 
Q 2560 2246 2592 1773 
L 621 1773 
Q 646 1370 700 1158 
Q 755 947 915 730 
Q 1184 378 1626 378 
Q 1939 378 2153 531 
Q 2368 685 2611 1050 
z
M 634 1978 
L 1939 1978 
Q 1882 2381 1750 2547 
Q 1619 2714 1312 2714 
Q 1043 2714 864 2525 
Q 685 2336 634 1978 
z
" transform="scale(0.015625)"/>
       <path id="STIXGeneral-Regular-6f" d="M 3008 1478 
Q 3008 806 2608 371 
Q 2208 -64 1568 -64 
Q 979 -64 582 368 
Q 186 800 186 1459 
Q 186 2125 582 2534 
Q 979 2944 1626 2944 
Q 2221 2944 2614 2537 
Q 3008 2131 3008 1478 
z
M 2432 1306 
Q 2432 2035 2112 2445 
Q 1856 2765 1504 2765 
Q 1171 2765 966 2493 
Q 762 2221 762 1747 
Q 762 928 1101 435 
Q 1318 115 1677 115 
Q 2029 115 2230 432 
Q 2432 749 2432 1306 
z
" transform="scale(0.015625)"/>
       <path id="STIXGeneral-Regular-79" d="M 3040 2880 
L 3040 2784 
Q 2925 2771 2854 2700 
Q 2784 2630 2720 2458 
L 1760 -160 
Q 1510 -838 1257 -1116 
Q 1005 -1395 640 -1395 
Q 435 -1395 313 -1289 
Q 192 -1184 192 -1024 
Q 192 -902 272 -816 
Q 352 -730 467 -730 
Q 653 -730 800 -813 
Q 883 -858 966 -858 
Q 1101 -858 1286 -576 
Q 1376 -448 1459 -211 
Q 1542 26 1542 115 
Q 1542 198 1274 762 
L 429 2566 
Q 346 2752 90 2790 
L 90 2880 
L 1402 2880 
L 1402 2784 
Q 1197 2778 1117 2739 
Q 1037 2701 1037 2611 
Q 1037 2541 1120 2349 
L 1837 749 
L 2458 2515 
Q 2483 2573 2483 2630 
Q 2483 2784 2189 2784 
L 2189 2880 
L 3040 2880 
z
" transform="scale(0.015625)"/>
       <path id="STIXGeneral-Italic-75" d="M 2950 762 
L 3040 704 
Q 2733 237 2560 89 
Q 2387 -58 2157 -58 
Q 1850 -58 1850 250 
Q 1850 538 2138 1510 
Q 1568 576 1257 253 
Q 947 -70 608 -70 
Q 269 -70 269 269 
Q 269 384 442 1088 
L 666 1978 
Q 755 2349 755 2406 
Q 755 2483 684 2521 
Q 614 2560 365 2560 
L 365 2650 
Q 806 2701 1325 2822 
L 1350 2803 
L 781 531 
Q 762 474 762 429 
Q 762 269 890 269 
Q 1178 269 1798 1210 
Q 2010 1530 2128 1795 
Q 2246 2061 2502 2765 
L 2976 2765 
L 2470 851 
Q 2349 390 2349 352 
Q 2349 243 2419 243 
Q 2496 243 2605 345 
Q 2714 448 2950 762 
z
" transform="scale(0.015625)"/>
       <path id="STIXGeneral-Italic-63" d="M 2240 685 
L 2342 621 
Q 2048 250 1769 90 
Q 1491 -70 1133 -70 
Q 678 -70 435 179 
Q 192 429 192 915 
Q 192 1344 409 1744 
Q 627 2144 979 2432 
Q 1472 2822 2048 2822 
Q 2342 2822 2531 2675 
Q 2720 2528 2720 2304 
Q 2720 2176 2630 2086 
Q 2541 1997 2413 1997 
Q 2285 1997 2224 2070 
Q 2163 2144 2163 2253 
Q 2163 2310 2211 2403 
Q 2259 2496 2259 2560 
Q 2259 2688 2022 2688 
Q 1619 2688 1325 2381 
Q 742 1766 742 890 
Q 742 544 889 352 
Q 1037 160 1312 160 
Q 1562 160 1766 281 
Q 1971 403 2240 685 
z
" transform="scale(0.015625)"/>
       <path id="STIXGeneral-Regular-28" d="M 1946 -1030 
L 1869 -1133 
Q 1126 -710 716 32 
Q 307 774 307 1613 
Q 307 3386 1888 4326 
L 1946 4224 
Q 1293 3667 1075 3126 
Q 858 2586 858 1632 
Q 858 685 1082 96 
Q 1306 -493 1946 -1030 
z
" transform="scale(0.015625)"/>
       <path id="STIXGeneral-Regular-6d" d="M 4960 0 
L 3565 0 
L 3565 96 
Q 3834 122 3907 208 
Q 3981 294 3981 576 
L 3981 1894 
Q 3981 2278 3869 2444 
Q 3757 2611 3488 2611 
Q 3264 2611 3107 2521 
Q 2950 2432 2803 2221 
L 2803 608 
Q 2803 301 2896 201 
Q 2989 102 3264 96 
L 3264 0 
L 1830 0 
L 1830 96 
Q 2112 115 2189 188 
Q 2266 262 2266 550 
L 2266 1901 
Q 2266 2611 1850 2611 
Q 1670 2611 1468 2531 
Q 1267 2451 1171 2336 
Q 1088 2240 1088 2227 
L 1088 448 
Q 1088 243 1177 176 
Q 1267 109 1523 96 
L 1523 0 
L 102 0 
L 102 96 
Q 371 102 460 195 
Q 550 288 550 563 
L 550 2150 
Q 550 2387 499 2480 
Q 448 2573 326 2573 
Q 230 2573 122 2547 
L 122 2656 
Q 557 2778 1011 2944 
L 1062 2925 
L 1062 2451 
L 1075 2451 
Q 1363 2752 1584 2848 
Q 1805 2944 2054 2944 
Q 2560 2944 2733 2406 
Q 3232 2944 3776 2944 
Q 4518 2944 4518 1792 
L 4518 493 
Q 4518 282 4582 202 
Q 4646 122 4794 109 
L 4960 96 
L 4960 0 
z
" transform="scale(0.015625)"/>
       <path id="STIXGeneral-Regular-2f" d="M 1837 4326 
L 378 -90 
L -58 -90 
L 1408 4326 
L 1837 4326 
z
" transform="scale(0.015625)"/>
       <path id="STIXGeneral-Regular-73" d="M 998 1926 
L 1664 1523 
Q 1984 1331 2105 1164 
Q 2227 998 2227 736 
Q 2227 416 1961 176 
Q 1696 -64 1331 -64 
Q 1030 -64 864 -6 
Q 691 51 570 51 
Q 461 51 416 -26 
L 333 -26 
L 333 979 
L 435 979 
Q 538 512 730 294 
Q 922 77 1248 77 
Q 1485 77 1632 211 
Q 1779 346 1779 550 
Q 1779 845 1440 1030 
L 1094 1222 
Q 326 1651 326 2150 
Q 326 2522 566 2730 
Q 806 2938 1210 2938 
Q 1491 2938 1638 2867 
Q 1754 2816 1818 2816 
Q 1862 2816 1920 2880 
L 1990 2880 
L 2022 2010 
L 1926 2010 
Q 1818 2445 1654 2621 
Q 1491 2797 1203 2797 
Q 986 2797 854 2688 
Q 723 2579 723 2362 
Q 723 2253 796 2128 
Q 870 2003 998 1926 
z
" transform="scale(0.015625)"/>
       <path id="STIXGeneral-Regular-29" d="M 186 4224 
L 262 4326 
Q 992 3891 1408 3148 
Q 1824 2406 1824 1581 
Q 1824 -166 243 -1133 
L 186 -1030 
Q 845 -486 1059 54 
Q 1274 595 1274 1562 
Q 1274 2534 1059 3120 
Q 845 3706 186 4224 
z
" transform="scale(0.015625)"/>
      </defs>
      <use xlink:href="#STIXGeneral-Regular-43" transform="translate(0 0.703125)"/>
      <use xlink:href="#STIXGeneral-Regular-72" transform="translate(66.699997 0.703125)"/>
      <use xlink:href="#STIXGeneral-Regular-69" transform="translate(99.999985 0.703125)"/>
      <use xlink:href="#STIXGeneral-Regular-74" transform="translate(127.799973 0.703125)"/>
      <use xlink:href="#STIXGeneral-Regular-69" transform="translate(155.59996 0.703125)"/>
      <use xlink:href="#STIXGeneral-Regular-63" transform="translate(183.399948 0.703125)"/>
      <use xlink:href="#STIXGeneral-Regular-61" transform="translate(227.799942 0.703125)"/>
      <use xlink:href="#STIXGeneral-Regular-6c" transform="translate(272.199936 0.703125)"/>
      <use xlink:href="#STIXGeneral-Regular-20" transform="translate(299.999924 0.703125)"/>
      <use xlink:href="#STIXGeneral-Regular-76" transform="translate(324.999908 0.703125)"/>
      <use xlink:href="#STIXGeneral-Regular-65" transform="translate(374.999893 0.703125)"/>
      <use xlink:href="#STIXGeneral-Regular-6c" transform="translate(419.399887 0.703125)"/>
      <use xlink:href="#STIXGeneral-Regular-6f" transform="translate(447.199875 0.703125)"/>
      <use xlink:href="#STIXGeneral-Regular-63" transform="translate(497.19986 0.703125)"/>
      <use xlink:href="#STIXGeneral-Regular-69" transform="translate(541.599854 0.703125)"/>
      <use xlink:href="#STIXGeneral-Regular-74" transform="translate(569.399841 0.703125)"/>
      <use xlink:href="#STIXGeneral-Regular-79" transform="translate(597.199829 0.703125)"/>
      <use xlink:href="#STIXGeneral-Regular-20" transform="translate(647.199814 0.703125)"/>
      <use xlink:href="#STIXGeneral-Italic-75" transform="translate(672.199799 0.703125)"/>
      <use xlink:href="#STIXGeneral-Italic-63" transform="translate(722.199783 -12.525) scale(0.7)"/>
      <use xlink:href="#STIXGeneral-Regular-20" transform="translate(757.689154 0.703125)"/>
      <use xlink:href="#STIXGeneral-Regular-28" transform="translate(782.689139 0.703125)"/>
      <use xlink:href="#STIXGeneral-Regular-6d" transform="translate(815.989127 0.703125)"/>
      <use xlink:href="#STIXGeneral-Regular-2f" transform="translate(893.789114 0.703125)"/>
      <use xlink:href="#STIXGeneral-Regular-73" transform="translate(921.589102 0.703125)"/>
      <use xlink:href="#STIXGeneral-Regular-29" transform="translate(960.489096 0.703125)"/>
     </g>
    </g>
    <g id="text_6">
     <!-- 1e5 -->
     <g style="fill: #2c3e50" transform="translate(32.89 9.746719) scale(0.09 -0.09)">
      <defs>
       <path id="STIXGeneral-Regular-35" d="M 2803 4358 
L 2573 3814 
Q 2534 3731 2400 3731 
L 1158 3731 
L 902 3187 
Q 1606 3053 1920 2896 
Q 2234 2739 2502 2368 
Q 2726 2061 2726 1555 
Q 2726 1094 2576 780 
Q 2426 467 2099 224 
Q 1664 -90 1011 -90 
Q 646 -90 422 19 
Q 198 128 198 307 
Q 198 550 486 550 
Q 717 550 960 352 
Q 1210 147 1414 147 
Q 1747 147 2012 480 
Q 2278 813 2278 1229 
Q 2278 1843 1850 2189 
Q 1293 2637 486 2637 
Q 410 2637 410 2688 
L 416 2720 
L 1114 4237 
L 2438 4237 
Q 2547 4237 2608 4269 
Q 2669 4301 2746 4403 
L 2803 4358 
z
" transform="scale(0.015625)"/>
      </defs>
      <use xlink:href="#STIXGeneral-Regular-31"/>
      <use xlink:href="#STIXGeneral-Regular-65" x="49.999985"/>
      <use xlink:href="#STIXGeneral-Regular-35" x="94.399979"/>
     </g>
    </g>
   </g>
   <g id="patch_3">
    <path d="M 32.89 227.326969 
L 32.89 12.746719 
" style="fill: none; stroke: #2c3e50; stroke-linejoin: miter; stroke-linecap: square"/>
   </g>
   <g id="patch_4">
    <path d="M 306.9538 227.326969 
L 306.9538 12.746719 
" style="fill: none; stroke: #2c3e50; stroke-linejoin: miter; stroke-linecap: square"/>
   </g>
   <g id="patch_5">
    <path d="M 32.89 227.326969 
L 306.9538 227.326969 
" style="fill: none; stroke: #2c3e50; stroke-linejoin: miter; stroke-linecap: square"/>
   </g>
   <g id="patch_6">
    <path d="M 32.89 12.746719 
L 306.9538 12.746719 
" style="fill: none; stroke: #2c3e50; stroke-linejoin: miter; stroke-linecap: square"/>
   </g>
   <g id="text_7">
    <g id="patch_7">
     <path d="M 268.05691 32.700366 
L 291.721285 32.700366 
Q 296.521285 32.700366 296.521285 27.900366 
L 296.521285 17.100366 
Q 296.521285 12.300366 291.721285 12.300366 
L 268.05691 12.300366 
Q 263.25691 12.300366 263.25691 17.100366 
L 263.25691 27.900366 
Q 263.25691 32.700366 268.05691 32.700366 
z
" style="fill: #ffffff; opacity: 0.7"/>
    </g>
    <!-- 15 K -->
    <g style="fill: #ffffff; opacity: 0.01" transform="translate(268.05691 25.295991) scale(0.12 -0.12)">
     <defs>
      <path id="STIXGeneral-Regular-4b" d="M 4627 0 
L 2688 0 
L 2688 122 
L 2861 128 
Q 3130 134 3130 282 
Q 3130 397 2922 643 
Q 2714 890 2253 1370 
L 1613 2029 
L 1446 1894 
L 1446 710 
Q 1446 352 1548 253 
Q 1651 154 2016 122 
L 2016 0 
L 211 0 
L 211 122 
Q 589 141 691 262 
Q 794 384 794 800 
L 794 3514 
Q 794 3872 691 3981 
Q 589 4090 218 4115 
L 218 4237 
L 2022 4237 
L 2022 4115 
Q 1632 4090 1539 3987 
Q 1446 3885 1446 3507 
L 1446 2227 
L 2586 3277 
Q 2861 3533 2973 3667 
Q 3085 3802 3085 3910 
Q 3085 4013 3030 4057 
Q 2976 4102 2822 4109 
L 2662 4115 
L 2662 4237 
L 4320 4237 
L 4320 4115 
Q 3994 4090 3824 4003 
Q 3654 3917 3322 3597 
L 2131 2458 
L 3629 819 
Q 4026 384 4214 253 
Q 4403 122 4627 122 
L 4627 0 
z
" transform="scale(0.015625)"/>
     </defs>
     <use xlink:href="#STIXGeneral-Regular-31"/>
     <use xlink:href="#STIXGeneral-Regular-35" x="49.999985"/>
     <use xlink:href="#STIXGeneral-Regular-20" x="99.999969"/>
     <use xlink:href="#STIXGeneral-Regular-4b" x="124.999954"/>
    </g>
   </g>
   <g id="text_8">
    <g id="patch_8">
     <path d="M 263.297623 51.419391 
L 286.961998 51.419391 
Q 291.761998 51.419391 291.761998 46.619391 
L 291.761998 35.819391 
Q 291.761998 31.019391 286.961998 31.019391 
L 263.297623 31.019391 
Q 258.497623 31.019391 258.497623 35.819391 
L 258.497623 46.619391 
Q 258.497623 51.419391 263.297623 51.419391 
z
" style="fill: #ffffff; opacity: 0.7"/>
    </g>
    <!-- 30 K -->
    <g style="fill: #ffffff; opacity: 0.01" transform="translate(263.297623 44.015016) scale(0.12 -0.12)">
     <defs>
      <path id="STIXGeneral-Regular-30" d="M 3046 2112 
Q 3046 1683 2963 1302 
Q 2880 922 2717 602 
Q 2554 282 2266 96 
Q 1978 -90 1600 -90 
Q 1210 -90 915 108 
Q 621 307 461 640 
Q 301 973 227 1350 
Q 154 1728 154 2150 
Q 154 2746 301 3222 
Q 448 3699 790 4012 
Q 1133 4326 1626 4326 
Q 2253 4326 2649 3712 
Q 3046 3098 3046 2112 
z
M 2432 2080 
Q 2432 3091 2217 3625 
Q 2003 4160 1587 4160 
Q 1190 4160 979 3622 
Q 768 3085 768 2106 
Q 768 1120 979 598 
Q 1190 77 1600 77 
Q 2003 77 2217 598 
Q 2432 1120 2432 2080 
z
" transform="scale(0.015625)"/>
     </defs>
     <use xlink:href="#STIXGeneral-Regular-33"/>
     <use xlink:href="#STIXGeneral-Regular-30" x="49.999985"/>
     <use xlink:href="#STIXGeneral-Regular-20" x="99.999969"/>
     <use xlink:href="#STIXGeneral-Regular-4b" x="124.999954"/>
    </g>
   </g>
   <g id="text_9">
    <g id="patch_9">
     <path d="M 258.07893 70.137538 
L 281.743305 70.137538 
Q 286.543305 70.137538 286.543305 65.337538 
L 286.543305 54.537538 
Q 286.543305 49.737538 281.743305 49.737538 
L 258.07893 49.737538 
Q 253.27893 49.737538 253.27893 54.537538 
L 253.27893 65.337538 
Q 253.27893 70.137538 258.07893 70.137538 
z
" style="fill: #ffffff; opacity: 0.7"/>
    </g>
    <!-- 50 K -->
    <g style="fill: #ffffff; opacity: 0.01" transform="translate(258.07893 62.733163) scale(0.12 -0.12)">
     <use xlink:href="#STIXGeneral-Regular-35"/>
     <use xlink:href="#STIXGeneral-Regular-30" x="49.999985"/>
     <use xlink:href="#STIXGeneral-Regular-20" x="99.999969"/>
     <use xlink:href="#STIXGeneral-Regular-4b" x="124.999954"/>
    </g>
   </g>
   <g id="text_10">
    <g id="patch_10">
     <path d="M 246.302569 93.58107 
L 275.966944 93.58107 
Q 280.766944 93.58107 280.766944 88.78107 
L 280.766944 77.98107 
Q 280.766944 73.18107 275.966944 73.18107 
L 246.302569 73.18107 
Q 241.502569 73.18107 241.502569 77.98107 
L 241.502569 88.78107 
Q 241.502569 93.58107 246.302569 93.58107 
z
" style="fill: #ffffff; opacity: 0.7"/>
    </g>
    <!-- 100 K -->
    <g style="fill: #ffffff; opacity: 0.01" transform="translate(246.302569 86.176695) scale(0.12 -0.12)">
     <use xlink:href="#STIXGeneral-Regular-31"/>
     <use xlink:href="#STIXGeneral-Regular-30" x="49.999985"/>
     <use xlink:href="#STIXGeneral-Regular-30" x="99.999969"/>
     <use xlink:href="#STIXGeneral-Regular-20" x="149.999954"/>
     <use xlink:href="#STIXGeneral-Regular-4b" x="174.999939"/>
    </g>
   </g>
   <g id="text_11">
    <g id="patch_11">
     <path d="M 239.834938 117.763923 
L 269.499313 117.763923 
Q 274.299313 117.763923 274.299313 112.963923 
L 274.299313 102.163923 
Q 274.299313 97.363923 269.499313 97.363923 
L 239.834938 97.363923 
Q 235.034938 97.363923 235.034938 102.163923 
L 235.034938 112.963923 
Q 235.034938 117.763923 239.834938 117.763923 
z
" style="fill: #ffffff; opacity: 0.7"/>
    </g>
    <!-- 200 K -->
    <g style="fill: #ffffff; opacity: 0.01" transform="translate(239.834938 110.359548) scale(0.12 -0.12)">
     <use xlink:href="#STIXGeneral-Regular-32"/>
     <use xlink:href="#STIXGeneral-Regular-30" x="49.999985"/>
     <use xlink:href="#STIXGeneral-Regular-30" x="99.999969"/>
     <use xlink:href="#STIXGeneral-Regular-20" x="149.999954"/>
     <use xlink:href="#STIXGeneral-Regular-4b" x="174.999939"/>
    </g>
   </g>
   <g id="text_12">
    <!-- 15 K -->
    <g style="fill: #41049d" transform="translate(268.05691 25.295991) scale(0.12 -0.12)">
     <use xlink:href="#STIXGeneral-Regular-31"/>
     <use xlink:href="#STIXGeneral-Regular-35" x="49.999985"/>
     <use xlink:href="#STIXGeneral-Regular-20" x="99.999969"/>
     <use xlink:href="#STIXGeneral-Regular-4b" x="124.999954"/>
    </g>
   </g>
   <g id="text_13">
    <!-- 30 K -->
    <g style="fill: #8104a7" transform="translate(263.297623 44.015016) scale(0.12 -0.12)">
     <use xlink:href="#STIXGeneral-Regular-33"/>
     <use xlink:href="#STIXGeneral-Regular-30" x="49.999985"/>
     <use xlink:href="#STIXGeneral-Regular-20" x="99.999969"/>
     <use xlink:href="#STIXGeneral-Regular-4b" x="124.999954"/>
    </g>
   </g>
   <g id="text_14">
    <!-- 50 K -->
    <g style="fill: #aa2395" transform="translate(258.07893 62.733163) scale(0.12 -0.12)">
     <use xlink:href="#STIXGeneral-Regular-35"/>
     <use xlink:href="#STIXGeneral-Regular-30" x="49.999985"/>
     <use xlink:href="#STIXGeneral-Regular-20" x="99.999969"/>
     <use xlink:href="#STIXGeneral-Regular-4b" x="124.999954"/>
    </g>
   </g>
   <g id="text_15">
    <!-- 100 K -->
    <g style="fill: #d5536f" transform="translate(246.302569 86.176695) scale(0.12 -0.12)">
     <use xlink:href="#STIXGeneral-Regular-31"/>
     <use xlink:href="#STIXGeneral-Regular-30" x="49.999985"/>
     <use xlink:href="#STIXGeneral-Regular-30" x="99.999969"/>
     <use xlink:href="#STIXGeneral-Regular-20" x="149.999954"/>
     <use xlink:href="#STIXGeneral-Regular-4b" x="174.999939"/>
    </g>
   </g>
   <g id="text_16">
    <!-- 200 K -->
    <g style="fill: #f2844b" transform="translate(239.834938 110.359548) scale(0.12 -0.12)">
     <use xlink:href="#STIXGeneral-Regular-32"/>
     <use xlink:href="#STIXGeneral-Regular-30" x="49.999985"/>
     <use xlink:href="#STIXGeneral-Regular-30" x="99.999969"/>
     <use xlink:href="#STIXGeneral-Regular-20" x="149.999954"/>
     <use xlink:href="#STIXGeneral-Regular-4b" x="174.999939"/>
    </g>
   </g>
  </g>
  <g id="axes_2">
   <g id="patch_12">
    <path d="M 32.89 447.907219 
L 306.9538 447.907219 
L 306.9538 233.326969 
L 32.89 233.326969 
z
" style="fill: #fafafa"/>
   </g>
   <g id="line2d_56">
    <path d="M 45.347445 243.080616 
L 60.821073 251.329904 
L 72.839184 257.486678 
L 82.666847 262.341527 
L 98.185615 269.651939 
L 110.230865 275.009221 
L 120.076643 279.176337 
L 132.130966 284.017532 
L 144.90475 288.839965 
L 157.531807 293.308557 
L 169.595218 297.3177 
L 182.376658 301.310537 
L 195.009699 305.023701 
L 208.851066 308.855019 
L 223.309195 312.62425 
L 238.869998 316.448898 
L 255.547033 320.313536 
L 273.007667 324.126891 
L 290.789545 327.782281 
L 294.496355 328.515973 
L 294.496355 328.515973 
" clip-path="url(#p570e9e1610)" style="fill: none; stroke: #41049d; stroke-opacity: 0.95; stroke-width: 1.8; stroke-linecap: square"/>
   </g>
   <g id="line2d_57">
    <path d="M 45.347445 261.510398 
L 60.821073 270.43122 
L 82.666847 282.596255 
L 98.185615 290.862492 
L 110.230865 297.025437 
L 124.400118 303.958797 
L 135.618081 309.186306 
L 147.676946 314.533785 
L 159.738539 319.593047 
L 171.368039 324.195675 
L 182.376658 328.307526 
L 193.871152 332.355347 
L 205.244145 336.126031 
L 216.938584 339.776118 
L 229.605746 343.490411 
L 242.735373 347.101211 
L 256.639891 350.68569 
L 271.109349 354.179859 
L 286.186945 357.587837 
L 294.496355 359.370861 
L 294.496355 359.370861 
" clip-path="url(#p570e9e1610)" style="fill: none; stroke: #8104a7; stroke-opacity: 0.95; stroke-width: 1.8; stroke-linecap: square"/>
   </g>
   <g id="line2d_58">
    <path d="M 45.347445 274.313301 
L 72.839184 290.621414 
L 90.980764 301.050029 
L 104.542768 308.620942 
L 120.076643 317.006869 
L 132.130966 323.271725 
L 144.90475 329.649989 
L 157.531807 335.667305 
L 169.595218 341.130805 
L 180.934629 346.001765 
L 191.519553 350.313034 
L 202.371825 354.497364 
L 213.045806 358.384255 
L 223.972867 362.136211 
L 235.245286 365.777309 
L 247.208412 369.401913 
L 259.450648 372.873623 
L 272.202245 376.254172 
L 285.34494 379.50679 
L 294.496355 381.642343 
L 294.496355 381.642343 
" clip-path="url(#p570e9e1610)" style="fill: none; stroke: #aa2395; stroke-opacity: 0.95; stroke-width: 1.8; stroke-linecap: square"/>
   </g>
   <g id="line2d_59">
    <path d="M 45.347445 291.04651 
L 72.839184 307.879252 
L 98.185615 323.075093 
L 115.377419 333.129153 
L 132.130966 342.66627 
L 147.676946 351.230755 
L 161.858777 358.757371 
L 174.748379 365.32525 
L 186.485544 371.054306 
L 198.288273 376.553446 
L 209.716437 381.613226 
L 220.569969 386.168513 
L 231.360176 390.45165 
L 242.267036 394.532346 
L 252.907759 398.276191 
L 263.727887 401.849729 
L 274.84163 405.284923 
L 286.186945 408.557791 
L 294.496355 410.812527 
L 294.496355 410.812527 
" clip-path="url(#p570e9e1610)" style="fill: none; stroke: #d5536f; stroke-opacity: 0.95; stroke-width: 1.8; stroke-linecap: square"/>
   </g>
   <g id="line2d_60">
    <path d="M 45.347445 307.356047 
L 82.666847 330.545356 
L 110.230865 347.398375 
L 132.130966 360.521981 
L 150.313992 371.164003 
L 165.865166 380.026535 
L 180.934629 388.353493 
L 193.871152 395.258057 
L 206.168669 401.58104 
L 217.684622 407.264719 
L 229.008061 412.608853 
L 239.862539 417.488301 
L 250.538299 422.043576 
L 261.135992 426.318921 
L 271.38465 430.216274 
L 281.839417 433.95164 
L 292.30288 437.450122 
L 294.496355 438.153571 
L 294.496355 438.153571 
" clip-path="url(#p570e9e1610)" style="fill: none; stroke: #f2844b; stroke-opacity: 0.95; stroke-width: 1.8; stroke-linecap: square"/>
   </g>
   <g id="matplotlib.axis_3">
    <g id="xtick_22">
     <g id="line2d_61">
      <path d="M 45.347445 447.907219 
L 45.347445 233.326969 
" clip-path="url(#p570e9e1610)" style="fill: none; stroke: #b0b0b0; stroke-opacity: 0.2; stroke-width: 0.7; stroke-linecap: square"/>
     </g>
     <g id="line2d_62">
      <g>
       <use xlink:href="#me1c39d6472" x="45.347445" y="447.907219" style="fill: #2c3e50; stroke: #2c3e50; stroke-width: 0.8"/>
      </g>
     </g>
     <g id="text_17">
      <!-- $10^{10}$ -->
      <g style="fill: #2c3e50" transform="translate(37.427445 457.553938) scale(0.09 -0.09)">
       <use xlink:href="#STIXGeneral-Regular-31" transform="translate(0 0.409375)"/>
       <use xlink:href="#STIXGeneral-Regular-30" transform="translate(49.999985 0.409375)"/>
       <use xlink:href="#STIXGeneral-Regular-31" transform="translate(101.543251 35.684375) scale(0.7)"/>
       <use xlink:href="#STIXGeneral-Regular-30" transform="translate(136.54324 35.684375) scale(0.7)"/>
      </g>
     </g>
    </g>
    <g id="xtick_23">
     <g id="line2d_63">
      <path d="M 169.9219 447.907219 
L 169.9219 233.326969 
" clip-path="url(#p570e9e1610)" style="fill: none; stroke: #b0b0b0; stroke-opacity: 0.2; stroke-width: 0.7; stroke-linecap: square"/>
     </g>
     <g id="line2d_64">
      <g>
       <use xlink:href="#me1c39d6472" x="169.9219" y="447.907219" style="fill: #2c3e50; stroke: #2c3e50; stroke-width: 0.8"/>
      </g>
     </g>
     <g id="text_18">
      <!-- $10^{11}$ -->
      <g style="fill: #2c3e50" transform="translate(162.0019 457.553938) scale(0.09 -0.09)">
       <use xlink:href="#STIXGeneral-Regular-31" transform="translate(0 0.409375)"/>
       <use xlink:href="#STIXGeneral-Regular-30" transform="translate(49.999985 0.409375)"/>
       <use xlink:href="#STIXGeneral-Regular-31" transform="translate(101.543251 35.684375) scale(0.7)"/>
       <use xlink:href="#STIXGeneral-Regular-31" transform="translate(136.54324 35.684375) scale(0.7)"/>
      </g>
     </g>
    </g>
    <g id="xtick_24">
     <g id="line2d_65">
      <path d="M 294.496355 447.907219 
L 294.496355 233.326969 
" clip-path="url(#p570e9e1610)" style="fill: none; stroke: #b0b0b0; stroke-opacity: 0.2; stroke-width: 0.7; stroke-linecap: square"/>
     </g>
     <g id="line2d_66">
      <g>
       <use xlink:href="#me1c39d6472" x="294.496355" y="447.907219" style="fill: #2c3e50; stroke: #2c3e50; stroke-width: 0.8"/>
      </g>
     </g>
     <g id="text_19">
      <!-- $10^{12}$ -->
      <g style="fill: #2c3e50" transform="translate(286.576355 457.553938) scale(0.09 -0.09)">
       <use xlink:href="#STIXGeneral-Regular-31" transform="translate(0 0.409375)"/>
       <use xlink:href="#STIXGeneral-Regular-30" transform="translate(49.999985 0.409375)"/>
       <use xlink:href="#STIXGeneral-Regular-31" transform="translate(101.543251 35.684375) scale(0.7)"/>
       <use xlink:href="#STIXGeneral-Regular-32" transform="translate(136.54324 35.684375) scale(0.7)"/>
      </g>
     </g>
    </g>
    <g id="xtick_25">
     <g id="line2d_67">
      <g>
       <use xlink:href="#m53501aed3a" x="33.274933" y="447.907219" style="stroke: #000000; stroke-width: 0.6"/>
      </g>
     </g>
    </g>
    <g id="xtick_26">
     <g id="line2d_68">
      <g>
       <use xlink:href="#m53501aed3a" x="39.647231" y="447.907219" style="stroke: #000000; stroke-width: 0.6"/>
      </g>
     </g>
    </g>
    <g id="xtick_27">
     <g id="line2d_69">
      <g>
       <use xlink:href="#m53501aed3a" x="82.848093" y="447.907219" style="stroke: #000000; stroke-width: 0.6"/>
      </g>
     </g>
    </g>
    <g id="xtick_28">
     <g id="line2d_70">
      <g>
       <use xlink:href="#m53501aed3a" x="104.784566" y="447.907219" style="stroke: #000000; stroke-width: 0.6"/>
      </g>
     </g>
    </g>
    <g id="xtick_29">
     <g id="line2d_71">
      <g>
       <use xlink:href="#m53501aed3a" x="120.34874" y="447.907219" style="stroke: #000000; stroke-width: 0.6"/>
      </g>
     </g>
    </g>
    <g id="xtick_30">
     <g id="line2d_72">
      <g>
       <use xlink:href="#m53501aed3a" x="132.421252" y="447.907219" style="stroke: #000000; stroke-width: 0.6"/>
      </g>
     </g>
    </g>
    <g id="xtick_31">
     <g id="line2d_73">
      <g>
       <use xlink:href="#m53501aed3a" x="142.285213" y="447.907219" style="stroke: #000000; stroke-width: 0.6"/>
      </g>
     </g>
    </g>
    <g id="xtick_32">
     <g id="line2d_74">
      <g>
       <use xlink:href="#m53501aed3a" x="150.625073" y="447.907219" style="stroke: #000000; stroke-width: 0.6"/>
      </g>
     </g>
    </g>
    <g id="xtick_33">
     <g id="line2d_75">
      <g>
       <use xlink:href="#m53501aed3a" x="157.849388" y="447.907219" style="stroke: #000000; stroke-width: 0.6"/>
      </g>
     </g>
    </g>
    <g id="xtick_34">
     <g id="line2d_76">
      <g>
       <use xlink:href="#m53501aed3a" x="164.221686" y="447.907219" style="stroke: #000000; stroke-width: 0.6"/>
      </g>
     </g>
    </g>
    <g id="xtick_35">
     <g id="line2d_77">
      <g>
       <use xlink:href="#m53501aed3a" x="207.422548" y="447.907219" style="stroke: #000000; stroke-width: 0.6"/>
      </g>
     </g>
    </g>
    <g id="xtick_36">
     <g id="line2d_78">
      <g>
       <use xlink:href="#m53501aed3a" x="229.35902" y="447.907219" style="stroke: #000000; stroke-width: 0.6"/>
      </g>
     </g>
    </g>
    <g id="xtick_37">
     <g id="line2d_79">
      <g>
       <use xlink:href="#m53501aed3a" x="244.923195" y="447.907219" style="stroke: #000000; stroke-width: 0.6"/>
      </g>
     </g>
    </g>
    <g id="xtick_38">
     <g id="line2d_80">
      <g>
       <use xlink:href="#m53501aed3a" x="256.995707" y="447.907219" style="stroke: #000000; stroke-width: 0.6"/>
      </g>
     </g>
    </g>
    <g id="xtick_39">
     <g id="line2d_81">
      <g>
       <use xlink:href="#m53501aed3a" x="266.859668" y="447.907219" style="stroke: #000000; stroke-width: 0.6"/>
      </g>
     </g>
    </g>
    <g id="xtick_40">
     <g id="line2d_82">
      <g>
       <use xlink:href="#m53501aed3a" x="275.199527" y="447.907219" style="stroke: #000000; stroke-width: 0.6"/>
      </g>
     </g>
    </g>
    <g id="xtick_41">
     <g id="line2d_83">
      <g>
       <use xlink:href="#m53501aed3a" x="282.423843" y="447.907219" style="stroke: #000000; stroke-width: 0.6"/>
      </g>
     </g>
    </g>
    <g id="xtick_42">
     <g id="line2d_84">
      <g>
       <use xlink:href="#m53501aed3a" x="288.79614" y="447.907219" style="stroke: #000000; stroke-width: 0.6"/>
      </g>
     </g>
    </g>
    <g id="text_20">
     <!-- density $n$ (cm$^{-2}$) -->
     <g style="fill: #2c3e50" transform="translate(136.5719 471.807219) scale(0.1 -0.1)">
      <defs>
       <path id="STIXGeneral-Regular-64" d="M 3142 269 
L 2202 -64 
L 2176 -45 
L 2176 365 
Q 1869 -64 1357 -64 
Q 826 -64 499 317 
Q 173 698 173 1312 
Q 173 1990 563 2467 
Q 954 2944 1504 2944 
Q 1850 2944 2176 2669 
L 2176 3667 
Q 2176 3866 2118 3930 
Q 2061 3994 1882 3994 
Q 1792 3994 1741 3987 
L 1741 4090 
Q 2323 4243 2682 4371 
L 2714 4358 
L 2714 730 
Q 2714 506 2768 435 
Q 2822 365 2995 365 
Q 3034 365 3142 371 
L 3142 269 
z
M 2176 653 
L 2176 2125 
Q 2176 2381 1981 2573 
Q 1786 2765 1523 2765 
Q 1158 2765 940 2438 
Q 723 2112 723 1568 
Q 723 979 963 624 
Q 1203 269 1606 269 
Q 1907 269 2080 474 
Q 2176 582 2176 653 
z
" transform="scale(0.015625)"/>
       <path id="STIXGeneral-Regular-6e" d="M 3104 0 
L 1773 0 
L 1779 96 
Q 2016 115 2096 233 
Q 2176 352 2176 672 
L 2176 1946 
Q 2176 2592 1709 2592 
Q 1549 2592 1408 2515 
Q 1267 2438 1050 2227 
L 1050 461 
Q 1050 269 1136 192 
Q 1222 115 1466 96 
L 1466 0 
L 115 0 
L 115 96 
Q 358 115 435 214 
Q 512 314 512 602 
L 512 2157 
Q 512 2394 467 2483 
Q 422 2573 288 2573 
Q 160 2573 102 2547 
L 102 2656 
Q 550 2784 979 2944 
L 1030 2925 
L 1030 2426 
L 1037 2426 
Q 1491 2944 1958 2944 
Q 2323 2944 2518 2688 
Q 2714 2432 2714 1958 
L 2714 544 
Q 2714 288 2790 205 
Q 2867 122 3104 96 
L 3104 0 
z
" transform="scale(0.015625)"/>
       <path id="STIXGeneral-Italic-6e" d="M 2944 749 
L 3034 666 
Q 2707 218 2534 80 
Q 2362 -58 2138 -58 
Q 2010 -58 1923 28 
Q 1837 115 1837 288 
Q 1837 390 1939 768 
L 2221 1805 
Q 2310 2150 2310 2310 
Q 2310 2496 2157 2496 
Q 1971 2496 1750 2275 
Q 1530 2054 1210 1587 
Q 998 1274 899 1024 
Q 800 774 570 0 
L 90 0 
L 704 2240 
Q 717 2304 717 2349 
Q 717 2445 630 2480 
Q 544 2515 301 2522 
L 301 2624 
Q 550 2675 857 2729 
Q 1165 2784 1338 2822 
L 1363 2810 
L 934 1414 
Q 1408 2170 1753 2496 
Q 2099 2822 2413 2822 
Q 2611 2822 2720 2716 
Q 2829 2611 2829 2432 
Q 2829 2272 2765 2048 
L 2406 749 
Q 2317 429 2317 358 
Q 2317 243 2419 243 
Q 2541 243 2810 582 
Q 2854 634 2944 749 
z
" transform="scale(0.015625)"/>
       <path id="STIXGeneral-Regular-2212" d="M 3974 1408 
L 410 1408 
L 410 1830 
L 3974 1830 
L 3974 1408 
z
" transform="scale(0.015625)"/>
      </defs>
      <use xlink:href="#STIXGeneral-Regular-64" transform="translate(0 0.409375)"/>
      <use xlink:href="#STIXGeneral-Regular-65" transform="translate(49.999985 0.409375)"/>
      <use xlink:href="#STIXGeneral-Regular-6e" transform="translate(94.399979 0.409375)"/>
      <use xlink:href="#STIXGeneral-Regular-73" transform="translate(144.399963 0.409375)"/>
      <use xlink:href="#STIXGeneral-Regular-69" transform="translate(183.299957 0.409375)"/>
      <use xlink:href="#STIXGeneral-Regular-74" transform="translate(211.099945 0.409375)"/>
      <use xlink:href="#STIXGeneral-Regular-79" transform="translate(238.899933 0.409375)"/>
      <use xlink:href="#STIXGeneral-Regular-20" transform="translate(288.899918 0.409375)"/>
      <use xlink:href="#STIXGeneral-Italic-6e" transform="translate(313.899902 0.409375)"/>
      <use xlink:href="#STIXGeneral-Regular-20" transform="translate(363.899887 0.409375)"/>
      <use xlink:href="#STIXGeneral-Regular-28" transform="translate(388.899872 0.409375)"/>
      <use xlink:href="#STIXGeneral-Regular-63" transform="translate(422.19986 0.409375)"/>
      <use xlink:href="#STIXGeneral-Regular-6d" transform="translate(466.599854 0.409375)"/>
      <use xlink:href="#STIXGeneral-Regular-2212" transform="translate(545.943123 35.684375) scale(0.7)"/>
      <use xlink:href="#STIXGeneral-Regular-32" transform="translate(593.893112 35.684375) scale(0.7)"/>
      <use xlink:href="#STIXGeneral-Regular-29" transform="translate(633.302476 0.409375)"/>
     </g>
    </g>
   </g>
   <g id="matplotlib.axis_4">
    <g id="ytick_23">
     <g id="line2d_85">
      <path d="M 32.89 402.796386 
L 306.9538 402.796386 
" clip-path="url(#p570e9e1610)" style="fill: none; stroke: #b0b0b0; stroke-opacity: 0.2; stroke-width: 0.7; stroke-linecap: square"/>
     </g>
     <g id="line2d_86">
      <g>
       <use xlink:href="#mc5174267c8" x="32.89" y="402.796386" style="fill: #2c3e50; stroke: #2c3e50; stroke-width: 0.8"/>
      </g>
     </g>
     <g id="text_21">
      <!-- $10^{2}$ -->
      <g style="fill: #2c3e50" transform="translate(16.7 405.869746) scale(0.09 -0.09)">
       <use xlink:href="#STIXGeneral-Regular-31" transform="translate(0 0.409375)"/>
       <use xlink:href="#STIXGeneral-Regular-30" transform="translate(49.999985 0.409375)"/>
       <use xlink:href="#STIXGeneral-Regular-32" transform="translate(101.543251 35.684375) scale(0.7)"/>
      </g>
     </g>
    </g>
    <g id="ytick_24">
     <g id="line2d_87">
      <path d="M 32.89 350.109834 
L 306.9538 350.109834 
" clip-path="url(#p570e9e1610)" style="fill: none; stroke: #b0b0b0; stroke-opacity: 0.2; stroke-width: 0.7; stroke-linecap: square"/>
     </g>
     <g id="line2d_88">
      <g>
       <use xlink:href="#mc5174267c8" x="32.89" y="350.109834" style="fill: #2c3e50; stroke: #2c3e50; stroke-width: 0.8"/>
      </g>
     </g>
     <g id="text_22">
      <!-- $10^{3}$ -->
      <g style="fill: #2c3e50" transform="translate(16.7 353.183193) scale(0.09 -0.09)">
       <use xlink:href="#STIXGeneral-Regular-31" transform="translate(0 0.409375)"/>
       <use xlink:href="#STIXGeneral-Regular-30" transform="translate(49.999985 0.409375)"/>
       <use xlink:href="#STIXGeneral-Regular-33" transform="translate(101.543251 35.684375) scale(0.7)"/>
      </g>
     </g>
    </g>
    <g id="ytick_25">
     <g id="line2d_89">
      <path d="M 32.89 297.423281 
L 306.9538 297.423281 
" clip-path="url(#p570e9e1610)" style="fill: none; stroke: #b0b0b0; stroke-opacity: 0.2; stroke-width: 0.7; stroke-linecap: square"/>
     </g>
     <g id="line2d_90">
      <g>
       <use xlink:href="#mc5174267c8" x="32.89" y="297.423281" style="fill: #2c3e50; stroke: #2c3e50; stroke-width: 0.8"/>
      </g>
     </g>
     <g id="text_23">
      <!-- $10^{4}$ -->
      <g style="fill: #2c3e50" transform="translate(16.7 300.49664) scale(0.09 -0.09)">
       <use xlink:href="#STIXGeneral-Regular-31" transform="translate(0 0.409375)"/>
       <use xlink:href="#STIXGeneral-Regular-30" transform="translate(49.999985 0.409375)"/>
       <use xlink:href="#STIXGeneral-Regular-34" transform="translate(101.543251 35.684375) scale(0.7)"/>
      </g>
     </g>
    </g>
    <g id="ytick_26">
     <g id="line2d_91">
      <path d="M 32.89 244.736729 
L 306.9538 244.736729 
" clip-path="url(#p570e9e1610)" style="fill: none; stroke: #b0b0b0; stroke-opacity: 0.2; stroke-width: 0.7; stroke-linecap: square"/>
     </g>
     <g id="line2d_92">
      <g>
       <use xlink:href="#mc5174267c8" x="32.89" y="244.736729" style="fill: #2c3e50; stroke: #2c3e50; stroke-width: 0.8"/>
      </g>
     </g>
     <g id="text_24">
      <!-- $10^{5}$ -->
      <g style="fill: #2c3e50" transform="translate(16.7 247.810088) scale(0.09 -0.09)">
       <use xlink:href="#STIXGeneral-Regular-31" transform="translate(0 0.567188)"/>
       <use xlink:href="#STIXGeneral-Regular-30" transform="translate(49.999985 0.567188)"/>
       <use xlink:href="#STIXGeneral-Regular-35" transform="translate(101.543251 35.842188) scale(0.7)"/>
      </g>
     </g>
    </g>
    <g id="ytick_27">
     <g id="line2d_93">
      <g>
       <use xlink:href="#ma721ac70e8" x="32.89" y="439.622706" style="stroke: #000000; stroke-width: 0.6"/>
      </g>
     </g>
    </g>
    <g id="ytick_28">
     <g id="line2d_94">
      <g>
       <use xlink:href="#ma721ac70e8" x="32.89" y="430.345065" style="stroke: #000000; stroke-width: 0.6"/>
      </g>
     </g>
    </g>
    <g id="ytick_29">
     <g id="line2d_95">
      <g>
       <use xlink:href="#ma721ac70e8" x="32.89" y="423.762473" style="stroke: #000000; stroke-width: 0.6"/>
      </g>
     </g>
    </g>
    <g id="ytick_30">
     <g id="line2d_96">
      <g>
       <use xlink:href="#ma721ac70e8" x="32.89" y="418.656619" style="stroke: #000000; stroke-width: 0.6"/>
      </g>
     </g>
    </g>
    <g id="ytick_31">
     <g id="line2d_97">
      <g>
       <use xlink:href="#ma721ac70e8" x="32.89" y="414.484832" style="stroke: #000000; stroke-width: 0.6"/>
      </g>
     </g>
    </g>
    <g id="ytick_32">
     <g id="line2d_98">
      <g>
       <use xlink:href="#ma721ac70e8" x="32.89" y="410.957636" style="stroke: #000000; stroke-width: 0.6"/>
      </g>
     </g>
    </g>
    <g id="ytick_33">
     <g id="line2d_99">
      <g>
       <use xlink:href="#ma721ac70e8" x="32.89" y="407.902241" style="stroke: #000000; stroke-width: 0.6"/>
      </g>
     </g>
    </g>
    <g id="ytick_34">
     <g id="line2d_100">
      <g>
       <use xlink:href="#ma721ac70e8" x="32.89" y="405.207191" style="stroke: #000000; stroke-width: 0.6"/>
      </g>
     </g>
    </g>
    <g id="ytick_35">
     <g id="line2d_101">
      <g>
       <use xlink:href="#ma721ac70e8" x="32.89" y="386.936154" style="stroke: #000000; stroke-width: 0.6"/>
      </g>
     </g>
    </g>
    <g id="ytick_36">
     <g id="line2d_102">
      <g>
       <use xlink:href="#ma721ac70e8" x="32.89" y="377.658512" style="stroke: #000000; stroke-width: 0.6"/>
      </g>
     </g>
    </g>
    <g id="ytick_37">
     <g id="line2d_103">
      <g>
       <use xlink:href="#ma721ac70e8" x="32.89" y="371.075921" style="stroke: #000000; stroke-width: 0.6"/>
      </g>
     </g>
    </g>
    <g id="ytick_38">
     <g id="line2d_104">
      <g>
       <use xlink:href="#ma721ac70e8" x="32.89" y="365.970066" style="stroke: #000000; stroke-width: 0.6"/>
      </g>
     </g>
    </g>
    <g id="ytick_39">
     <g id="line2d_105">
      <g>
       <use xlink:href="#ma721ac70e8" x="32.89" y="361.798279" style="stroke: #000000; stroke-width: 0.6"/>
      </g>
     </g>
    </g>
    <g id="ytick_40">
     <g id="line2d_106">
      <g>
       <use xlink:href="#ma721ac70e8" x="32.89" y="358.271084" style="stroke: #000000; stroke-width: 0.6"/>
      </g>
     </g>
    </g>
    <g id="ytick_41">
     <g id="line2d_107">
      <g>
       <use xlink:href="#ma721ac70e8" x="32.89" y="355.215688" style="stroke: #000000; stroke-width: 0.6"/>
      </g>
     </g>
    </g>
    <g id="ytick_42">
     <g id="line2d_108">
      <g>
       <use xlink:href="#ma721ac70e8" x="32.89" y="352.520638" style="stroke: #000000; stroke-width: 0.6"/>
      </g>
     </g>
    </g>
    <g id="ytick_43">
     <g id="line2d_109">
      <g>
       <use xlink:href="#ma721ac70e8" x="32.89" y="334.249601" style="stroke: #000000; stroke-width: 0.6"/>
      </g>
     </g>
    </g>
    <g id="ytick_44">
     <g id="line2d_110">
      <g>
       <use xlink:href="#ma721ac70e8" x="32.89" y="324.97196" style="stroke: #000000; stroke-width: 0.6"/>
      </g>
     </g>
    </g>
    <g id="ytick_45">
     <g id="line2d_111">
      <g>
       <use xlink:href="#ma721ac70e8" x="32.89" y="318.389368" style="stroke: #000000; stroke-width: 0.6"/>
      </g>
     </g>
    </g>
    <g id="ytick_46">
     <g id="line2d_112">
      <g>
       <use xlink:href="#ma721ac70e8" x="32.89" y="313.283514" style="stroke: #000000; stroke-width: 0.6"/>
      </g>
     </g>
    </g>
    <g id="ytick_47">
     <g id="line2d_113">
      <g>
       <use xlink:href="#ma721ac70e8" x="32.89" y="309.111727" style="stroke: #000000; stroke-width: 0.6"/>
      </g>
     </g>
    </g>
    <g id="ytick_48">
     <g id="line2d_114">
      <g>
       <use xlink:href="#ma721ac70e8" x="32.89" y="305.584531" style="stroke: #000000; stroke-width: 0.6"/>
      </g>
     </g>
    </g>
    <g id="ytick_49">
     <g id="line2d_115">
      <g>
       <use xlink:href="#ma721ac70e8" x="32.89" y="302.529136" style="stroke: #000000; stroke-width: 0.6"/>
      </g>
     </g>
    </g>
    <g id="ytick_50">
     <g id="line2d_116">
      <g>
       <use xlink:href="#ma721ac70e8" x="32.89" y="299.834086" style="stroke: #000000; stroke-width: 0.6"/>
      </g>
     </g>
    </g>
    <g id="ytick_51">
     <g id="line2d_117">
      <g>
       <use xlink:href="#ma721ac70e8" x="32.89" y="281.563048" style="stroke: #000000; stroke-width: 0.6"/>
      </g>
     </g>
    </g>
    <g id="ytick_52">
     <g id="line2d_118">
      <g>
       <use xlink:href="#ma721ac70e8" x="32.89" y="272.285407" style="stroke: #000000; stroke-width: 0.6"/>
      </g>
     </g>
    </g>
    <g id="ytick_53">
     <g id="line2d_119">
      <g>
       <use xlink:href="#ma721ac70e8" x="32.89" y="265.702816" style="stroke: #000000; stroke-width: 0.6"/>
      </g>
     </g>
    </g>
    <g id="ytick_54">
     <g id="line2d_120">
      <g>
       <use xlink:href="#ma721ac70e8" x="32.89" y="260.596961" style="stroke: #000000; stroke-width: 0.6"/>
      </g>
     </g>
    </g>
    <g id="ytick_55">
     <g id="line2d_121">
      <g>
       <use xlink:href="#ma721ac70e8" x="32.89" y="256.425174" style="stroke: #000000; stroke-width: 0.6"/>
      </g>
     </g>
    </g>
    <g id="ytick_56">
     <g id="line2d_122">
      <g>
       <use xlink:href="#ma721ac70e8" x="32.89" y="252.897979" style="stroke: #000000; stroke-width: 0.6"/>
      </g>
     </g>
    </g>
    <g id="ytick_57">
     <g id="line2d_123">
      <g>
       <use xlink:href="#ma721ac70e8" x="32.89" y="249.842583" style="stroke: #000000; stroke-width: 0.6"/>
      </g>
     </g>
    </g>
    <g id="ytick_58">
     <g id="line2d_124">
      <g>
       <use xlink:href="#ma721ac70e8" x="32.89" y="247.147533" style="stroke: #000000; stroke-width: 0.6"/>
      </g>
     </g>
    </g>
    <g id="text_25">
     <!-- Wavelength $\lambda$ ($\mu$m) -->
     <g style="fill: #2c3e50" transform="translate(10.5 379.417094) rotate(-90) scale(0.1 -0.1)">
      <defs>
       <path id="STIXGeneral-Regular-57" d="M 5965 4237 
L 5965 4115 
Q 5709 4064 5616 3990 
Q 5523 3917 5434 3667 
Q 4704 1709 4128 -70 
L 4032 -70 
Q 3642 1011 3008 2637 
L 2022 -70 
L 1926 -70 
Q 1709 576 1277 1753 
Q 845 2931 698 3347 
Q 538 3808 406 3958 
Q 275 4109 32 4115 
L 32 4237 
L 1594 4237 
L 1594 4115 
Q 1357 4109 1270 4064 
Q 1184 4019 1184 3917 
Q 1184 3808 1254 3616 
L 2176 1210 
L 2842 3021 
L 2662 3501 
Q 2509 3917 2400 4013 
Q 2291 4109 2010 4115 
L 2010 4237 
L 3706 4237 
L 3706 4115 
Q 3213 4102 3213 3891 
Q 3213 3808 3322 3520 
L 4237 1190 
L 5043 3360 
Q 5152 3667 5152 3853 
Q 5152 4109 4704 4115 
L 4704 4237 
L 5965 4237 
z
" transform="scale(0.015625)"/>
       <path id="STIXGeneral-Regular-67" d="M 3008 2483 
L 2477 2483 
Q 2598 2208 2598 1946 
Q 2598 1453 2265 1203 
Q 1933 954 1600 954 
Q 1530 954 1357 973 
L 1235 986 
Q 1107 947 979 812 
Q 851 678 851 582 
Q 851 435 1350 410 
L 2176 371 
Q 2528 358 2739 172 
Q 2950 -13 2950 -314 
Q 2950 -685 2566 -986 
Q 2035 -1395 1286 -1395 
Q 826 -1395 502 -1212 
Q 179 -1030 179 -774 
Q 179 -595 320 -419 
Q 461 -243 806 6 
Q 602 102 534 172 
Q 467 243 467 346 
Q 467 531 762 787 
Q 909 915 1037 1043 
Q 717 1203 579 1401 
Q 442 1600 442 1901 
Q 442 2336 752 2640 
Q 1062 2944 1510 2944 
Q 1766 2944 2022 2848 
L 2163 2797 
Q 2349 2733 2515 2733 
L 3008 2733 
L 3008 2483 
z
M 973 2163 
L 973 2144 
Q 973 1683 1155 1398 
Q 1338 1114 1632 1114 
Q 1850 1114 1978 1270 
Q 2106 1427 2106 1690 
Q 2106 2112 1914 2464 
Q 1754 2765 1446 2765 
Q 1222 2765 1097 2605 
Q 973 2445 973 2163 
z
M 2771 -410 
Q 2771 -230 2595 -163 
Q 2419 -96 1978 -96 
Q 1344 -96 941 -13 
Q 749 -243 688 -348 
Q 627 -454 627 -563 
Q 627 -774 880 -902 
Q 1133 -1030 1555 -1030 
Q 2099 -1030 2435 -860 
Q 2771 -691 2771 -410 
z
" transform="scale(0.015625)"/>
       <path id="STIXGeneral-Regular-68" d="M 3117 0 
L 1760 0 
L 1760 96 
Q 2042 128 2118 224 
Q 2195 320 2195 653 
L 2195 1920 
Q 2195 2598 1722 2598 
Q 1530 2598 1370 2508 
Q 1210 2419 1005 2195 
L 1005 653 
Q 1005 320 1081 224 
Q 1158 128 1440 96 
L 1440 0 
L 58 0 
L 58 96 
Q 333 134 400 224 
Q 467 314 467 653 
L 467 3667 
Q 467 3872 406 3933 
Q 346 3994 141 3994 
Q 83 3994 64 3987 
L 64 4090 
L 237 4141 
Q 730 4288 973 4371 
L 1005 4352 
L 1005 2406 
Q 1229 2694 1446 2819 
Q 1664 2944 1946 2944 
Q 2733 2944 2733 1926 
L 2733 653 
Q 2733 320 2793 233 
Q 2854 147 3117 96 
L 3117 0 
z
" transform="scale(0.015625)"/>
       <path id="STIXGeneral-Italic-3bb" d="M 2656 787 
L 2758 787 
Q 2560 -102 2112 -102 
Q 1965 -102 1869 48 
Q 1773 198 1773 499 
Q 1773 672 1789 889 
Q 1805 1107 1833 1446 
Q 1862 1786 1875 2016 
L 538 0 
L -77 0 
L 1907 2739 
Q 1933 2970 1933 3245 
Q 1933 3936 1619 3936 
Q 1530 3936 1408 3821 
Q 1286 3706 1203 3462 
L 1101 3462 
Q 1312 4339 1747 4339 
Q 1926 4339 2041 4115 
Q 2157 3891 2157 3475 
Q 2157 3040 2093 2192 
Q 2029 1344 2029 941 
Q 2029 602 2089 451 
Q 2150 301 2291 301 
Q 2483 301 2656 787 
z
" transform="scale(0.015625)"/>
       <path id="STIXGeneral-Italic-3bc" d="M 3002 749 
L 3091 691 
Q 2797 237 2614 83 
Q 2432 -70 2214 -70 
Q 2080 -70 1990 6 
Q 1901 83 1901 218 
Q 1901 416 1997 704 
L 2208 1370 
L 2202 1370 
Q 1766 595 1475 268 
Q 1184 -58 902 -58 
Q 723 -58 672 122 
Q 614 -109 547 -374 
Q 480 -640 451 -758 
Q 422 -877 384 -1005 
Q 346 -1133 314 -1197 
Q 282 -1261 243 -1312 
L -211 -1312 
Q -58 -1088 70 -595 
L 909 2739 
L 1389 2739 
L 909 832 
Q 883 717 883 659 
Q 883 352 1139 352 
Q 1395 352 1811 969 
Q 2227 1587 2323 1958 
L 2534 2739 
L 3027 2739 
L 2522 819 
Q 2400 333 2400 326 
Q 2400 230 2470 230 
Q 2547 230 2652 329 
Q 2758 429 3002 749 
z
" transform="scale(0.015625)"/>
      </defs>
      <use xlink:href="#STIXGeneral-Regular-57" transform="translate(0 0.703125)"/>
      <use xlink:href="#STIXGeneral-Regular-61" transform="translate(94.399994 0.703125)"/>
      <use xlink:href="#STIXGeneral-Regular-76" transform="translate(138.799988 0.703125)"/>
      <use xlink:href="#STIXGeneral-Regular-65" transform="translate(188.799973 0.703125)"/>
      <use xlink:href="#STIXGeneral-Regular-6c" transform="translate(233.199966 0.703125)"/>
      <use xlink:href="#STIXGeneral-Regular-65" transform="translate(260.999954 0.703125)"/>
      <use xlink:href="#STIXGeneral-Regular-6e" transform="translate(305.399948 0.703125)"/>
      <use xlink:href="#STIXGeneral-Regular-67" transform="translate(355.399933 0.703125)"/>
      <use xlink:href="#STIXGeneral-Regular-74" transform="translate(405.399918 0.703125)"/>
      <use xlink:href="#STIXGeneral-Regular-68" transform="translate(433.199905 0.703125)"/>
      <use xlink:href="#STIXGeneral-Regular-20" transform="translate(483.19989 0.703125)"/>
      <use xlink:href="#STIXGeneral-Italic-3bb" transform="translate(508.199875 0.703125)"/>
      <use xlink:href="#STIXGeneral-Regular-20" transform="translate(553.999863 0.703125)"/>
      <use xlink:href="#STIXGeneral-Regular-28" transform="translate(578.999847 0.703125)"/>
      <use xlink:href="#STIXGeneral-Italic-3bc" transform="translate(612.299835 0.703125)"/>
      <use xlink:href="#STIXGeneral-Regular-6d" transform="translate(664.899826 0.703125)"/>
      <use xlink:href="#STIXGeneral-Regular-29" transform="translate(742.699814 0.703125)"/>
     </g>
    </g>
   </g>
   <g id="patch_13">
    <path d="M 32.89 447.907219 
L 32.89 233.326969 
" style="fill: none; stroke: #2c3e50; stroke-linejoin: miter; stroke-linecap: square"/>
   </g>
   <g id="patch_14">
    <path d="M 306.9538 447.907219 
L 306.9538 233.326969 
" style="fill: none; stroke: #2c3e50; stroke-linejoin: miter; stroke-linecap: square"/>
   </g>
   <g id="patch_15">
    <path d="M 32.89 447.907219 
L 306.9538 447.907219 
" style="fill: none; stroke: #2c3e50; stroke-linejoin: miter; stroke-linecap: square"/>
   </g>
   <g id="patch_16">
    <path d="M 32.89 233.326969 
L 306.9538 233.326969 
" style="fill: none; stroke: #2c3e50; stroke-linejoin: miter; stroke-linecap: square"/>
   </g>
   <g id="text_26">
    <!-- 15 K -->
    <g style="fill: #41049d" transform="translate(268.05691 320.485827) scale(0.12 -0.12)">
     <use xlink:href="#STIXGeneral-Regular-31"/>
     <use xlink:href="#STIXGeneral-Regular-35" x="49.999985"/>
     <use xlink:href="#STIXGeneral-Regular-20" x="99.999969"/>
     <use xlink:href="#STIXGeneral-Regular-4b" x="124.999954"/>
    </g>
   </g>
   <g id="text_27">
    <!-- 30 K -->
    <g style="fill: #8104a7" transform="translate(268.05691 349.890725) scale(0.12 -0.12)">
     <use xlink:href="#STIXGeneral-Regular-33"/>
     <use xlink:href="#STIXGeneral-Regular-30" x="49.999985"/>
     <use xlink:href="#STIXGeneral-Regular-20" x="99.999969"/>
     <use xlink:href="#STIXGeneral-Regular-4b" x="124.999954"/>
    </g>
   </g>
   <g id="text_28">
    <!-- 50 K -->
    <g style="fill: #aa2395" transform="translate(268.05691 370.798651) scale(0.12 -0.12)">
     <use xlink:href="#STIXGeneral-Regular-35"/>
     <use xlink:href="#STIXGeneral-Regular-30" x="49.999985"/>
     <use xlink:href="#STIXGeneral-Regular-20" x="99.999969"/>
     <use xlink:href="#STIXGeneral-Regular-4b" x="124.999954"/>
    </g>
   </g>
   <g id="text_29">
    <!-- 100 K -->
    <g style="fill: #d5536f" transform="translate(262.05691 398.681987) scale(0.12 -0.12)">
     <use xlink:href="#STIXGeneral-Regular-31"/>
     <use xlink:href="#STIXGeneral-Regular-30" x="49.999985"/>
     <use xlink:href="#STIXGeneral-Regular-30" x="99.999969"/>
     <use xlink:href="#STIXGeneral-Regular-20" x="149.999954"/>
     <use xlink:href="#STIXGeneral-Regular-4b" x="174.999939"/>
    </g>
   </g>
   <g id="text_30">
    <!-- 200 K -->
    <g style="fill: #f2844b" transform="translate(262.05691 424.804718) scale(0.12 -0.12)">
     <use xlink:href="#STIXGeneral-Regular-32"/>
     <use xlink:href="#STIXGeneral-Regular-30" x="49.999985"/>
     <use xlink:href="#STIXGeneral-Regular-30" x="99.999969"/>
     <use xlink:href="#STIXGeneral-Regular-20" x="149.999954"/>
     <use xlink:href="#STIXGeneral-Regular-4b" x="174.999939"/>
    </g>
   </g>
  </g>
 </g>
 <defs>
  <clipPath id="p5fe003e291">
   <rect x="32.89" y="12.746719" width="274.0638" height="214.58025"/>
  </clipPath>
  <clipPath id="p570e9e1610">
   <rect x="32.89" y="233.326969" width="274.0638" height="214.58025"/>
  </clipPath>
 </defs>
</svg>
