<?xml version="1.0" encoding="utf-8" standalone="no"?>
<!DOCTYPE svg PUBLIC "-//W3C//DTD SVG 1.1//EN"
  "http://www.w3.org/Graphics/SVG/1.1/DTD/svg11.dtd">
<svg xmlns:xlink="http://www.w3.org/1999/xlink" width="675.536pt" height="506.4075pt" viewBox="0 0 675.536 506.4075" xmlns="http://www.w3.org/2000/svg" version="1.1">
 <metadata>
  <rdf:RDF xmlns:dc="http://purl.org/dc/elements/1.1/" xmlns:cc="http://creativecommons.org/ns#" xmlns:rdf="http://www.w3.org/1999/02/22-rdf-syntax-ns#">
   <cc:Work>
    <dc:type rdf:resource="http://purl.org/dc/dcmitype/StillImage"/>
    <dc:date>2025-10-14T21:52:16.308223</dc:date>
    <dc:format>image/svg+xml</dc:format>
    <dc:creator>
     <cc:Agent>
      <dc:title>Matplotlib v3.8.4, https://matplotlib.org/</dc:title>
     </cc:Agent>
    </dc:creator>
   </cc:Work>
  </rdf:RDF>
 </metadata>
 <defs>
  <style type="text/css">*{stroke-linejoin: round; stroke-linecap: butt}</style>
 </defs>
 <g id="figure_1">
  <g id="patch_1">
   <path d="M 0 506.4075 
L 675.536 506.4075 
L 675.536 0 
L 0 0 
z
" style="fill: #ffffff"/>
  </g>
  <g id="axes_1">
   <g id="patch_2">
    <path d="M 45.8 464.8075 
L 629.176 464.8075 
L 629.176 7.2 
L 45.8 7.2 
z
" style="fill: #ffffff"/>
   </g>
   <g id="matplotlib.axis_1">
    <g id="xtick_1">
     <g id="line2d_1">
      <path d="M 72.317091 464.8075 
L 72.317091 7.2 
" clip-path="url(#pc7df1c2119)" style="fill: none; stroke: #b0b0b0; stroke-opacity: 0.3; stroke-width: 0.8; stroke-linecap: square"/>
     </g>
     <g id="line2d_2">
      <defs>
       <path id="m8372333fc7" d="M 0 0 
L 0 3.5 
" style="stroke: #000000; stroke-width: 0.8"/>
      </defs>
      <g>
       <use xlink:href="#m8372333fc7" x="72.317091" y="464.8075" style="stroke: #000000; stroke-width: 0.8"/>
      </g>
     </g>
     <g id="text_1">
      <!-- 0.4 -->
      <g transform="translate(64.817091 480.003125) scale(0.12 -0.12)">
       <defs>
        <path id="STIXGeneral-Regular-30" d="M 3046 2112 
Q 3046 1683 2963 1302 
Q 2880 922 2717 602 
Q 2554 282 2266 96 
Q 1978 -90 1600 -90 
Q 1210 -90 915 108 
Q 621 307 461 640 
Q 301 973 227 1350 
Q 154 1728 154 2150 
Q 154 2746 301 3222 
Q 448 3699 790 4012 
Q 1133 4326 1626 4326 
Q 2253 4326 2649 3712 
Q 3046 3098 3046 2112 
z
M 2432 2080 
Q 2432 3091 2217 3625 
Q 2003 4160 1587 4160 
Q 1190 4160 979 3622 
Q 768 3085 768 2106 
Q 768 1120 979 598 
Q 1190 77 1600 77 
Q 2003 77 2217 598 
Q 2432 1120 2432 2080 
z
" transform="scale(0.015625)"/>
        <path id="STIXGeneral-Regular-2e" d="M 1158 275 
Q 1158 134 1052 32 
Q 947 -70 800 -70 
Q 653 -70 550 32 
Q 448 134 448 281 
Q 448 429 553 534 
Q 659 640 806 640 
Q 947 640 1052 531 
Q 1158 422 1158 275 
z
" transform="scale(0.015625)"/>
        <path id="STIXGeneral-Regular-34" d="M 3027 1069 
L 2368 1069 
L 2368 0 
L 1869 0 
L 1869 1069 
L 77 1069 
L 77 1478 
L 2086 4326 
L 2368 4326 
L 2368 1478 
L 3027 1478 
L 3027 1069 
z
M 1869 1478 
L 1869 3674 
L 333 1478 
L 1869 1478 
z
" transform="scale(0.015625)"/>
       </defs>
       <use xlink:href="#STIXGeneral-Regular-30"/>
       <use xlink:href="#STIXGeneral-Regular-2e" x="49.999985"/>
       <use xlink:href="#STIXGeneral-Regular-34" x="74.999969"/>
      </g>
     </g>
    </g>
    <g id="xtick_2">
     <g id="line2d_3">
      <path d="M 143.029333 464.8075 
L 143.029333 7.2 
" clip-path="url(#pc7df1c2119)" style="fill: none; stroke: #b0b0b0; stroke-opacity: 0.3; stroke-width: 0.8; stroke-linecap: square"/>
     </g>
     <g id="line2d_4">
      <g>
       <use xlink:href="#m8372333fc7" x="143.029333" y="464.8075" style="stroke: #000000; stroke-width: 0.8"/>
      </g>
     </g>
     <g id="text_2">
      <!-- 0.6 -->
      <g transform="translate(135.529333 480.003125) scale(0.12 -0.12)">
       <defs>
        <path id="STIXGeneral-Regular-36" d="M 2854 4378 
L 2867 4275 
Q 2112 4154 1606 3664 
Q 1101 3174 973 2451 
Q 1344 2739 1786 2739 
Q 2349 2739 2672 2380 
Q 2995 2022 2995 1402 
Q 2995 774 2669 378 
Q 2291 -90 1651 -90 
Q 870 -90 518 557 
Q 218 1107 218 1786 
Q 218 2835 915 3552 
Q 1312 3962 1731 4131 
Q 2150 4301 2854 4378 
z
M 2419 1203 
Q 2419 2445 1555 2445 
Q 1235 2445 1024 2275 
Q 813 2106 813 1702 
Q 813 954 1046 522 
Q 1280 90 1722 90 
Q 2061 90 2240 394 
Q 2419 698 2419 1203 
z
" transform="scale(0.015625)"/>
       </defs>
       <use xlink:href="#STIXGeneral-Regular-30"/>
       <use xlink:href="#STIXGeneral-Regular-2e" x="49.999985"/>
       <use xlink:href="#STIXGeneral-Regular-36" x="74.999969"/>
      </g>
     </g>
    </g>
    <g id="xtick_3">
     <g id="line2d_5">
      <path d="M 213.741576 464.8075 
L 213.741576 7.2 
" clip-path="url(#pc7df1c2119)" style="fill: none; stroke: #b0b0b0; stroke-opacity: 0.3; stroke-width: 0.8; stroke-linecap: square"/>
     </g>
     <g id="line2d_6">
      <g>
       <use xlink:href="#m8372333fc7" x="213.741576" y="464.8075" style="stroke: #000000; stroke-width: 0.8"/>
      </g>
     </g>
     <g id="text_3">
      <!-- 0.8 -->
      <g transform="translate(206.241576 480.003125) scale(0.12 -0.12)">
       <defs>
        <path id="STIXGeneral-Regular-38" d="M 2848 992 
Q 2848 499 2505 204 
Q 2163 -90 1587 -90 
Q 1050 -90 704 204 
Q 358 499 358 954 
Q 358 1293 524 1533 
Q 691 1773 1190 2125 
Q 710 2522 553 2765 
Q 397 3008 397 3328 
Q 397 3782 745 4054 
Q 1094 4326 1638 4326 
Q 2106 4326 2410 4060 
Q 2714 3795 2714 3411 
Q 2714 3059 2531 2848 
Q 2349 2637 1856 2374 
Q 2432 1990 2640 1689 
Q 2848 1389 2848 992 
z
M 2272 3411 
Q 2272 3744 2086 3945 
Q 1901 4147 1574 4147 
Q 1248 4147 1059 3977 
Q 870 3808 870 3513 
Q 870 3219 1059 2979 
Q 1248 2739 1670 2490 
Q 1997 2682 2134 2896 
Q 2272 3110 2272 3411 
z
M 1734 1741 
L 1357 1997 
Q 1075 1766 960 1545 
Q 845 1325 845 1011 
Q 845 576 1065 333 
Q 1286 90 1658 90 
Q 1971 90 2166 285 
Q 2362 480 2362 794 
Q 2362 1082 2214 1299 
Q 2067 1517 1734 1741 
z
" transform="scale(0.015625)"/>
       </defs>
       <use xlink:href="#STIXGeneral-Regular-30"/>
       <use xlink:href="#STIXGeneral-Regular-2e" x="49.999985"/>
       <use xlink:href="#STIXGeneral-Regular-38" x="74.999969"/>
      </g>
     </g>
    </g>
    <g id="xtick_4">
     <g id="line2d_7">
      <path d="M 284.453818 464.8075 
L 284.453818 7.2 
" clip-path="url(#pc7df1c2119)" style="fill: none; stroke: #b0b0b0; stroke-opacity: 0.3; stroke-width: 0.8; stroke-linecap: square"/>
     </g>
     <g id="line2d_8">
      <g>
       <use xlink:href="#m8372333fc7" x="284.453818" y="464.8075" style="stroke: #000000; stroke-width: 0.8"/>
      </g>
     </g>
     <g id="text_4">
      <!-- 1.0 -->
      <g transform="translate(276.953818 480.003125) scale(0.12 -0.12)">
       <defs>
        <path id="STIXGeneral-Regular-31" d="M 2522 0 
L 755 0 
L 755 96 
Q 1107 115 1235 227 
Q 1363 339 1363 608 
L 1363 3482 
Q 1363 3795 1171 3795 
Q 1082 3795 883 3718 
L 710 3654 
L 710 3744 
L 1856 4326 
L 1914 4307 
L 1914 486 
Q 1914 275 2042 185 
Q 2170 96 2522 96 
L 2522 0 
z
" transform="scale(0.015625)"/>
       </defs>
       <use xlink:href="#STIXGeneral-Regular-31"/>
       <use xlink:href="#STIXGeneral-Regular-2e" x="49.999985"/>
       <use xlink:href="#STIXGeneral-Regular-30" x="74.999969"/>
      </g>
     </g>
    </g>
    <g id="xtick_5">
     <g id="line2d_9">
      <path d="M 355.166061 464.8075 
L 355.166061 7.2 
" clip-path="url(#pc7df1c2119)" style="fill: none; stroke: #b0b0b0; stroke-opacity: 0.3; stroke-width: 0.8; stroke-linecap: square"/>
     </g>
     <g id="line2d_10">
      <g>
       <use xlink:href="#m8372333fc7" x="355.166061" y="464.8075" style="stroke: #000000; stroke-width: 0.8"/>
      </g>
     </g>
     <g id="text_5">
      <!-- 1.2 -->
      <g transform="translate(347.666061 480.003125) scale(0.12 -0.12)">
       <defs>
        <path id="STIXGeneral-Regular-32" d="M 3034 877 
L 2688 0 
L 186 0 
L 186 77 
L 1325 1286 
Q 1773 1754 1965 2144 
Q 2157 2534 2157 2950 
Q 2157 3379 1920 3616 
Q 1683 3853 1267 3853 
Q 922 3853 720 3673 
Q 518 3494 326 3021 
L 192 3053 
Q 301 3648 630 3987 
Q 960 4326 1523 4326 
Q 2054 4326 2380 4006 
Q 2707 3686 2707 3200 
Q 2707 2477 1888 1613 
L 832 486 
L 2330 486 
Q 2541 486 2665 569 
Q 2790 653 2944 915 
L 3034 877 
z
" transform="scale(0.015625)"/>
       </defs>
       <use xlink:href="#STIXGeneral-Regular-31"/>
       <use xlink:href="#STIXGeneral-Regular-2e" x="49.999985"/>
       <use xlink:href="#STIXGeneral-Regular-32" x="74.999969"/>
      </g>
     </g>
    </g>
    <g id="xtick_6">
     <g id="line2d_11">
      <path d="M 425.878303 464.8075 
L 425.878303 7.2 
" clip-path="url(#pc7df1c2119)" style="fill: none; stroke: #b0b0b0; stroke-opacity: 0.3; stroke-width: 0.8; stroke-linecap: square"/>
     </g>
     <g id="line2d_12">
      <g>
       <use xlink:href="#m8372333fc7" x="425.878303" y="464.8075" style="stroke: #000000; stroke-width: 0.8"/>
      </g>
     </g>
     <g id="text_6">
      <!-- 1.4 -->
      <g transform="translate(418.378303 480.003125) scale(0.12 -0.12)">
       <use xlink:href="#STIXGeneral-Regular-31"/>
       <use xlink:href="#STIXGeneral-Regular-2e" x="49.999985"/>
       <use xlink:href="#STIXGeneral-Regular-34" x="74.999969"/>
      </g>
     </g>
    </g>
    <g id="xtick_7">
     <g id="line2d_13">
      <path d="M 496.590545 464.8075 
L 496.590545 7.2 
" clip-path="url(#pc7df1c2119)" style="fill: none; stroke: #b0b0b0; stroke-opacity: 0.3; stroke-width: 0.8; stroke-linecap: square"/>
     </g>
     <g id="line2d_14">
      <g>
       <use xlink:href="#m8372333fc7" x="496.590545" y="464.8075" style="stroke: #000000; stroke-width: 0.8"/>
      </g>
     </g>
     <g id="text_7">
      <!-- 1.6 -->
      <g transform="translate(489.090545 480.003125) scale(0.12 -0.12)">
       <use xlink:href="#STIXGeneral-Regular-31"/>
       <use xlink:href="#STIXGeneral-Regular-2e" x="49.999985"/>
       <use xlink:href="#STIXGeneral-Regular-36" x="74.999969"/>
      </g>
     </g>
    </g>
    <g id="xtick_8">
     <g id="line2d_15">
      <path d="M 567.302788 464.8075 
L 567.302788 7.2 
" clip-path="url(#pc7df1c2119)" style="fill: none; stroke: #b0b0b0; stroke-opacity: 0.3; stroke-width: 0.8; stroke-linecap: square"/>
     </g>
     <g id="line2d_16">
      <g>
       <use xlink:href="#m8372333fc7" x="567.302788" y="464.8075" style="stroke: #000000; stroke-width: 0.8"/>
      </g>
     </g>
     <g id="text_8">
      <!-- 1.8 -->
      <g transform="translate(559.802788 480.003125) scale(0.12 -0.12)">
       <use xlink:href="#STIXGeneral-Regular-31"/>
       <use xlink:href="#STIXGeneral-Regular-2e" x="49.999985"/>
       <use xlink:href="#STIXGeneral-Regular-38" x="74.999969"/>
      </g>
     </g>
    </g>
    <g id="text_9">
     <!-- $u_d$ -->
     <g transform="translate(331.188 496.169062) scale(0.14 -0.14)">
      <defs>
       <path id="STIXGeneral-Italic-75" d="M 2950 762 
L 3040 704 
Q 2733 237 2560 89 
Q 2387 -58 2157 -58 
Q 1850 -58 1850 250 
Q 1850 538 2138 1510 
Q 1568 576 1257 253 
Q 947 -70 608 -70 
Q 269 -70 269 269 
Q 269 384 442 1088 
L 666 1978 
Q 755 2349 755 2406 
Q 755 2483 684 2521 
Q 614 2560 365 2560 
L 365 2650 
Q 806 2701 1325 2822 
L 1350 2803 
L 781 531 
Q 762 474 762 429 
Q 762 269 890 269 
Q 1178 269 1798 1210 
Q 2010 1530 2128 1795 
Q 2246 2061 2502 2765 
L 2976 2765 
L 2470 851 
Q 2349 390 2349 352 
Q 2349 243 2419 243 
Q 2496 243 2605 345 
Q 2714 448 2950 762 
z
" transform="scale(0.015625)"/>
       <path id="STIXGeneral-Italic-64" d="M 3334 4371 
L 3373 4333 
L 3123 3360 
L 2739 1958 
Q 2323 429 2323 384 
Q 2323 256 2438 256 
Q 2522 256 2614 336 
Q 2707 416 2963 710 
L 3040 646 
Q 2547 -83 2099 -83 
Q 1978 -83 1907 -6 
Q 1837 70 1837 205 
Q 1837 397 1920 774 
Q 1645 307 1379 118 
Q 1114 -70 781 -70 
Q 461 -70 278 125 
Q 96 320 96 678 
Q 96 1440 713 2131 
Q 1331 2822 1965 2822 
Q 2163 2822 2256 2732 
Q 2349 2643 2381 2451 
L 2387 2451 
L 2675 3494 
Q 2765 3808 2765 3949 
Q 2765 4051 2694 4076 
Q 2624 4102 2355 4115 
L 2355 4224 
Q 2848 4269 3334 4371 
z
M 2278 2310 
Q 2278 2477 2185 2576 
Q 2093 2675 1978 2675 
Q 1677 2675 1395 2381 
Q 1075 2042 864 1571 
Q 653 1101 653 704 
Q 653 486 752 361 
Q 851 237 1024 237 
Q 1312 237 1606 550 
Q 1901 864 2089 1350 
Q 2278 1837 2278 2310 
z
" transform="scale(0.015625)"/>
      </defs>
      <use xlink:href="#STIXGeneral-Italic-75" transform="translate(0 0.90625)"/>
      <use xlink:href="#STIXGeneral-Italic-64" transform="translate(49.999985 -12.321875) scale(0.7)"/>
     </g>
    </g>
   </g>
   <g id="matplotlib.axis_2">
    <g id="ytick_1">
     <g id="line2d_17">
      <path d="M 45.8 444.007159 
L 629.176 444.007159 
" clip-path="url(#pc7df1c2119)" style="fill: none; stroke: #b0b0b0; stroke-opacity: 0.3; stroke-width: 0.8; stroke-linecap: square"/>
     </g>
     <g id="line2d_18">
      <defs>
       <path id="me9947be9cc" d="M 0 0 
L -3.5 0 
" style="stroke: #000000; stroke-width: 0.8"/>
      </defs>
      <g>
       <use xlink:href="#me9947be9cc" x="45.8" y="444.007159" style="stroke: #000000; stroke-width: 0.8"/>
      </g>
     </g>
     <g id="text_10">
      <!-- 0.0 -->
      <g transform="translate(23.8 448.104972) scale(0.12 -0.12)">
       <use xlink:href="#STIXGeneral-Regular-30"/>
       <use xlink:href="#STIXGeneral-Regular-2e" x="49.999985"/>
       <use xlink:href="#STIXGeneral-Regular-30" x="74.999969"/>
      </g>
     </g>
    </g>
    <g id="ytick_2">
     <g id="line2d_19">
      <path d="M 45.8 343.342365 
L 629.176 343.342365 
" clip-path="url(#pc7df1c2119)" style="fill: none; stroke: #b0b0b0; stroke-opacity: 0.3; stroke-width: 0.8; stroke-linecap: square"/>
     </g>
     <g id="line2d_20">
      <g>
       <use xlink:href="#me9947be9cc" x="45.8" y="343.342365" style="stroke: #000000; stroke-width: 0.8"/>
      </g>
     </g>
     <g id="text_11">
      <!-- 0.1 -->
      <g transform="translate(23.8 347.440178) scale(0.12 -0.12)">
       <use xlink:href="#STIXGeneral-Regular-30"/>
       <use xlink:href="#STIXGeneral-Regular-2e" x="49.999985"/>
       <use xlink:href="#STIXGeneral-Regular-31" x="74.999969"/>
      </g>
     </g>
    </g>
    <g id="ytick_3">
     <g id="line2d_21">
      <path d="M 45.8 242.677571 
L 629.176 242.677571 
" clip-path="url(#pc7df1c2119)" style="fill: none; stroke: #b0b0b0; stroke-opacity: 0.3; stroke-width: 0.8; stroke-linecap: square"/>
     </g>
     <g id="line2d_22">
      <g>
       <use xlink:href="#me9947be9cc" x="45.8" y="242.677571" style="stroke: #000000; stroke-width: 0.8"/>
      </g>
     </g>
     <g id="text_12">
      <!-- 0.2 -->
      <g transform="translate(23.8 246.775384) scale(0.12 -0.12)">
       <use xlink:href="#STIXGeneral-Regular-30"/>
       <use xlink:href="#STIXGeneral-Regular-2e" x="49.999985"/>
       <use xlink:href="#STIXGeneral-Regular-32" x="74.999969"/>
      </g>
     </g>
    </g>
    <g id="ytick_4">
     <g id="line2d_23">
      <path d="M 45.8 142.012777 
L 629.176 142.012777 
" clip-path="url(#pc7df1c2119)" style="fill: none; stroke: #b0b0b0; stroke-opacity: 0.3; stroke-width: 0.8; stroke-linecap: square"/>
     </g>
     <g id="line2d_24">
      <g>
       <use xlink:href="#me9947be9cc" x="45.8" y="142.012777" style="stroke: #000000; stroke-width: 0.8"/>
      </g>
     </g>
     <g id="text_13">
      <!-- 0.3 -->
      <g transform="translate(23.8 146.11059) scale(0.12 -0.12)">
       <defs>
        <path id="STIXGeneral-Regular-33" d="M 390 3264 
L 288 3290 
Q 435 3770 748 4048 
Q 1062 4326 1542 4326 
Q 1990 4326 2265 4083 
Q 2541 3840 2541 3450 
Q 2541 2925 1946 2566 
Q 2298 2413 2477 2227 
Q 2758 1914 2758 1402 
Q 2758 890 2464 506 
Q 2246 211 1840 60 
Q 1434 -90 979 -90 
Q 262 -90 262 275 
Q 262 378 339 442 
Q 416 506 525 506 
Q 685 506 915 339 
Q 1197 141 1466 141 
Q 1818 141 2058 425 
Q 2298 710 2298 1120 
Q 2298 1856 1632 2048 
Q 1434 2112 979 2112 
L 979 2202 
Q 1338 2323 1517 2432 
Q 2035 2726 2035 3290 
Q 2035 3610 1852 3776 
Q 1670 3942 1344 3942 
Q 768 3942 390 3264 
z
" transform="scale(0.015625)"/>
       </defs>
       <use xlink:href="#STIXGeneral-Regular-30"/>
       <use xlink:href="#STIXGeneral-Regular-2e" x="49.999985"/>
       <use xlink:href="#STIXGeneral-Regular-33" x="74.999969"/>
      </g>
     </g>
    </g>
    <g id="ytick_5">
     <g id="line2d_25">
      <path d="M 45.8 41.347983 
L 629.176 41.347983 
" clip-path="url(#pc7df1c2119)" style="fill: none; stroke: #b0b0b0; stroke-opacity: 0.3; stroke-width: 0.8; stroke-linecap: square"/>
     </g>
     <g id="line2d_26">
      <g>
       <use xlink:href="#me9947be9cc" x="45.8" y="41.347983" style="stroke: #000000; stroke-width: 0.8"/>
      </g>
     </g>
     <g id="text_14">
      <!-- 0.4 -->
      <g transform="translate(23.8 45.445795) scale(0.12 -0.12)">
       <use xlink:href="#STIXGeneral-Regular-30"/>
       <use xlink:href="#STIXGeneral-Regular-2e" x="49.999985"/>
       <use xlink:href="#STIXGeneral-Regular-34" x="74.999969"/>
      </g>
     </g>
    </g>
    <g id="text_15">
     <!-- $\Delta n = n_{\rm max} - n_{\rm min}$ -->
     <g transform="translate(16.761563 281.92375) rotate(-90) scale(0.14 -0.14)">
      <defs>
       <path id="STIXGeneral-Regular-394" d="M 4320 0 
L 307 0 
L 2221 4314 
L 2349 4314 
L 4320 0 
z
M 3354 589 
L 2118 3405 
L 870 589 
L 3354 589 
z
" transform="scale(0.015625)"/>
       <path id="STIXGeneral-Italic-6e" d="M 2944 749 
L 3034 666 
Q 2707 218 2534 80 
Q 2362 -58 2138 -58 
Q 2010 -58 1923 28 
Q 1837 115 1837 288 
Q 1837 390 1939 768 
L 2221 1805 
Q 2310 2150 2310 2310 
Q 2310 2496 2157 2496 
Q 1971 2496 1750 2275 
Q 1530 2054 1210 1587 
Q 998 1274 899 1024 
Q 800 774 570 0 
L 90 0 
L 704 2240 
Q 717 2304 717 2349 
Q 717 2445 630 2480 
Q 544 2515 301 2522 
L 301 2624 
Q 550 2675 857 2729 
Q 1165 2784 1338 2822 
L 1363 2810 
L 934 1414 
Q 1408 2170 1753 2496 
Q 2099 2822 2413 2822 
Q 2611 2822 2720 2716 
Q 2829 2611 2829 2432 
Q 2829 2272 2765 2048 
L 2406 749 
Q 2317 429 2317 358 
Q 2317 243 2419 243 
Q 2541 243 2810 582 
Q 2854 634 2944 749 
z
" transform="scale(0.015625)"/>
       <path id="STIXGeneral-Regular-3d" d="M 4077 2048 
L 307 2048 
L 307 2470 
L 4077 2470 
L 4077 2048 
z
M 4077 768 
L 307 768 
L 307 1190 
L 4077 1190 
L 4077 768 
z
" transform="scale(0.015625)"/>
       <path id="STIXGeneral-Regular-6d" d="M 4960 0 
L 3565 0 
L 3565 96 
Q 3834 122 3907 208 
Q 3981 294 3981 576 
L 3981 1894 
Q 3981 2278 3869 2444 
Q 3757 2611 3488 2611 
Q 3264 2611 3107 2521 
Q 2950 2432 2803 2221 
L 2803 608 
Q 2803 301 2896 201 
Q 2989 102 3264 96 
L 3264 0 
L 1830 0 
L 1830 96 
Q 2112 115 2189 188 
Q 2266 262 2266 550 
L 2266 1901 
Q 2266 2611 1850 2611 
Q 1670 2611 1468 2531 
Q 1267 2451 1171 2336 
Q 1088 2240 1088 2227 
L 1088 448 
Q 1088 243 1177 176 
Q 1267 109 1523 96 
L 1523 0 
L 102 0 
L 102 96 
Q 371 102 460 195 
Q 550 288 550 563 
L 550 2150 
Q 550 2387 499 2480 
Q 448 2573 326 2573 
Q 230 2573 122 2547 
L 122 2656 
Q 557 2778 1011 2944 
L 1062 2925 
L 1062 2451 
L 1075 2451 
Q 1363 2752 1584 2848 
Q 1805 2944 2054 2944 
Q 2560 2944 2733 2406 
Q 3232 2944 3776 2944 
Q 4518 2944 4518 1792 
L 4518 493 
Q 4518 282 4582 202 
Q 4646 122 4794 109 
L 4960 96 
L 4960 0 
z
" transform="scale(0.015625)"/>
       <path id="STIXGeneral-Regular-61" d="M 2829 422 
L 2829 243 
Q 2586 -64 2253 -64 
Q 1888 -64 1843 403 
L 1837 403 
Q 1427 -64 909 -64 
Q 608 -64 422 112 
Q 237 288 237 602 
Q 237 1050 685 1350 
Q 992 1555 1837 1869 
L 1837 2214 
Q 1837 2502 1699 2646 
Q 1562 2790 1338 2790 
Q 1146 2790 1018 2697 
Q 890 2605 890 2477 
Q 890 2419 909 2348 
Q 928 2278 928 2208 
Q 928 2112 841 2029 
Q 755 1946 634 1946 
Q 525 1946 441 2029 
Q 358 2112 358 2240 
Q 358 2547 685 2752 
Q 986 2944 1421 2944 
Q 1939 2944 2176 2656 
Q 2291 2522 2323 2384 
Q 2355 2246 2355 1946 
L 2355 723 
Q 2355 301 2554 301 
Q 2682 301 2829 422 
z
M 1837 813 
L 1837 1715 
Q 1248 1510 1018 1293 
Q 800 1094 800 800 
Q 800 557 921 432 
Q 1043 307 1242 307 
Q 1453 307 1613 410 
Q 1747 506 1792 589 
Q 1837 672 1837 813 
z
" transform="scale(0.015625)"/>
       <path id="STIXGeneral-Regular-78" d="M 3066 0 
L 1779 0 
L 1779 96 
Q 1939 109 1987 137 
Q 2035 166 2035 250 
Q 2035 307 1997 365 
L 1414 1261 
L 909 474 
Q 781 275 781 211 
Q 781 96 1037 96 
L 1037 0 
L 109 0 
L 109 96 
Q 269 109 355 169 
Q 442 230 576 422 
L 1306 1478 
L 704 2400 
Q 557 2624 454 2704 
Q 352 2784 211 2784 
L 154 2784 
L 154 2880 
L 1478 2880 
L 1478 2784 
Q 1203 2778 1203 2643 
Q 1203 2509 1498 2074 
Q 1581 1958 1587 1946 
Q 1619 1990 1779 2227 
Q 1811 2285 1856 2349 
Q 1901 2413 1923 2451 
Q 1946 2490 1971 2528 
Q 1997 2566 2006 2595 
Q 2016 2624 2016 2643 
Q 2016 2765 1760 2784 
L 1760 2880 
L 2771 2880 
L 2771 2784 
Q 2445 2771 2253 2502 
L 1722 1734 
L 2541 480 
Q 2790 96 3066 96 
L 3066 0 
z
" transform="scale(0.015625)"/>
       <path id="STIXGeneral-Regular-2212" d="M 3974 1408 
L 410 1408 
L 410 1830 
L 3974 1830 
L 3974 1408 
z
" transform="scale(0.015625)"/>
       <path id="STIXGeneral-Regular-69" d="M 1152 4045 
Q 1152 3904 1056 3811 
Q 960 3718 819 3718 
Q 685 3718 592 3811 
Q 499 3904 499 4045 
Q 499 4179 595 4275 
Q 691 4371 826 4371 
Q 966 4371 1059 4275 
Q 1152 4179 1152 4045 
z
M 1619 0 
L 102 0 
L 102 96 
Q 435 115 521 211 
Q 608 307 608 666 
L 608 2118 
Q 608 2342 563 2432 
Q 518 2522 397 2522 
Q 243 2522 128 2490 
L 128 2592 
L 1120 2944 
L 1146 2918 
L 1146 672 
Q 1146 314 1226 218 
Q 1306 122 1619 96 
L 1619 0 
z
" transform="scale(0.015625)"/>
       <path id="STIXGeneral-Regular-6e" d="M 3104 0 
L 1773 0 
L 1779 96 
Q 2016 115 2096 233 
Q 2176 352 2176 672 
L 2176 1946 
Q 2176 2592 1709 2592 
Q 1549 2592 1408 2515 
Q 1267 2438 1050 2227 
L 1050 461 
Q 1050 269 1136 192 
Q 1222 115 1466 96 
L 1466 0 
L 115 0 
L 115 96 
Q 358 115 435 214 
Q 512 314 512 602 
L 512 2157 
Q 512 2394 467 2483 
Q 422 2573 288 2573 
Q 160 2573 102 2547 
L 102 2656 
Q 550 2784 979 2944 
L 1030 2925 
L 1030 2426 
L 1037 2426 
Q 1491 2944 1958 2944 
Q 2323 2944 2518 2688 
Q 2714 2432 2714 1958 
L 2714 544 
Q 2714 288 2790 205 
Q 2867 122 3104 96 
L 3104 0 
z
" transform="scale(0.015625)"/>
      </defs>
      <use xlink:href="#STIXGeneral-Regular-394" transform="translate(0 0.59375)"/>
      <use xlink:href="#STIXGeneral-Italic-6e" transform="translate(72.199982 0.59375)"/>
      <use xlink:href="#STIXGeneral-Regular-3d" transform="translate(136.639963 0.59375)"/>
      <use xlink:href="#STIXGeneral-Italic-6e" transform="translate(219.579944 0.59375)"/>
      <use xlink:href="#STIXGeneral-Regular-6d" transform="translate(269.579929 -12.634375) scale(0.7)"/>
      <use xlink:href="#STIXGeneral-Regular-61" transform="translate(324.03992 -12.634375) scale(0.7)"/>
      <use xlink:href="#STIXGeneral-Regular-78" transform="translate(355.119916 -12.634375) scale(0.7)"/>
      <use xlink:href="#STIXGeneral-Regular-2212" transform="translate(408.969276 0.59375)"/>
      <use xlink:href="#STIXGeneral-Italic-6e" transform="translate(491.909258 0.59375)"/>
      <use xlink:href="#STIXGeneral-Regular-6d" transform="translate(541.909242 -12.634375) scale(0.7)"/>
      <use xlink:href="#STIXGeneral-Regular-69" transform="translate(596.369234 -12.634375) scale(0.7)"/>
      <use xlink:href="#STIXGeneral-Regular-6e" transform="translate(615.829225 -12.634375) scale(0.7)"/>
     </g>
    </g>
   </g>
   <g id="line2d_27">
    <path d="M 72.317091 443.66797 
L 372.844121 442.947193 
L 372.844121 442.947193 
" clip-path="url(#pc7df1c2119)" style="fill: none; stroke-dasharray: 5.55,2.4; stroke-dashoffset: 0; stroke: #008000; stroke-opacity: 0.9; stroke-width: 1.5"/>
   </g>
   <g id="line2d_28">
    <path d="M 372.844121 444.007159 
L 373.074166 436.460913 
L 373.534256 430.936678 
L 374.22439 425.522707 
L 375.14457 420.143834 
L 376.294794 414.780674 
L 377.675063 409.425916 
L 379.285377 404.076179 
L 381.125735 398.729683 
L 383.196139 393.385402 
L 385.496587 388.042701 
L 388.02708 382.701167 
L 391.017663 376.934658 
L 394.238291 371.233799 
L 397.688963 365.584271 
L 401.36968 359.975721 
L 405.510487 354.083261 
L 409.881339 348.256032 
L 414.482236 342.482803 
L 419.543222 336.489705 
L 424.834253 330.562207 
L 430.585374 324.452139 
L 436.796585 318.186095 
L 443.23784 312.001768 
L 450.139185 305.682186 
L 457.50062 299.245063 
L 465.322144 292.705399 
L 473.603758 286.075932 
L 482.345462 279.36751 
L 491.547255 272.589403 
L 501.209138 265.749559 
L 511.331111 258.854821 
L 522.143218 251.762934 
L 533.415414 244.637684 
L 545.377746 237.344703 
L 557.800167 230.034157 
L 570.912722 222.579163 
L 584.485367 215.118187 
L 598.748147 207.531362 
L 602.658909 205.493256 
L 602.658909 205.493256 
" clip-path="url(#pc7df1c2119)" style="fill: none; stroke: #ff0000; stroke-opacity: 0.9; stroke-width: 1.5; stroke-linecap: square"/>
   </g>
   <g id="line2d_29">
    <path d="M 372.844121 464.8075 
L 372.844121 7.2 
" clip-path="url(#pc7df1c2119)" style="fill: none; stroke-dasharray: 7.4,3.2; stroke-dashoffset: 0; stroke: #008000; stroke-opacity: 0.8; stroke-width: 2"/>
   </g>
   <g id="line2d_30">
    <path d="M 45.8 444.007159 
L 629.176 444.007159 
" clip-path="url(#pc7df1c2119)" style="fill: none; stroke-dasharray: 3.7,1.6; stroke-dashoffset: 0; stroke: #000000; stroke-opacity: 0.5"/>
   </g>
   <g id="patch_3">
    <path d="M 45.8 464.8075 
L 45.8 7.2 
" style="fill: none; stroke: #000000; stroke-width: 0.8; stroke-linejoin: miter; stroke-linecap: square"/>
   </g>
   <g id="patch_4">
    <path d="M 629.176 464.8075 
L 629.176 7.2 
" style="fill: none; stroke: #000000; stroke-width: 0.8; stroke-linejoin: miter; stroke-linecap: square"/>
   </g>
   <g id="patch_5">
    <path d="M 45.8 464.8075 
L 629.176 464.8075 
" style="fill: none; stroke: #000000; stroke-width: 0.8; stroke-linejoin: miter; stroke-linecap: square"/>
   </g>
   <g id="patch_6">
    <path d="M 45.8 7.2 
L 629.176 7.2 
" style="fill: none; stroke: #000000; stroke-width: 0.8; stroke-linejoin: miter; stroke-linecap: square"/>
   </g>
   <g id="legend_1">
    <g id="patch_7">
     <path d="M 52.1 108.639844 
L 191.51 108.639844 
Q 193.31 108.639844 193.31 106.839844 
L 193.31 13.5 
Q 193.31 11.7 191.51 11.7 
L 52.1 11.7 
Q 50.3 11.7 50.3 13.5 
L 50.3 106.839844 
Q 50.3 108.639844 52.1 108.639844 
z
" style="fill: #ffffff; opacity: 0.9; stroke: #cccccc; stroke-linejoin: miter"/>
    </g>
    <g id="line2d_31">
     <path d="M 53.9 18.45 
L 62.9 18.45 
L 71.9 18.45 
" style="fill: none; stroke-dasharray: 5.55,2.4; stroke-dashoffset: 0; stroke: #008000; stroke-opacity: 0.9; stroke-width: 1.5"/>
    </g>
    <g id="text_16">
     <!-- $u^{\bigstar} = 1.2500$ -->
     <g transform="translate(79.1 21.6) scale(0.09 -0.09)">
      <defs>
       <path id="STIXGeneral-Regular-2605" d="M 5184 2445 
L 3725 1318 
L 4250 -422 
L 2784 614 
L 1318 -422 
L 1843 1318 
L 384 2445 
L 2189 2445 
L 2784 4192 
L 3379 2445 
L 5184 2445 
z
" transform="scale(0.015625)"/>
       <path id="STIXGeneral-Regular-35" d="M 2803 4358 
L 2573 3814 
Q 2534 3731 2400 3731 
L 1158 3731 
L 902 3187 
Q 1606 3053 1920 2896 
Q 2234 2739 2502 2368 
Q 2726 2061 2726 1555 
Q 2726 1094 2576 780 
Q 2426 467 2099 224 
Q 1664 -90 1011 -90 
Q 646 -90 422 19 
Q 198 128 198 307 
Q 198 550 486 550 
Q 717 550 960 352 
Q 1210 147 1414 147 
Q 1747 147 2012 480 
Q 2278 813 2278 1229 
Q 2278 1843 1850 2189 
Q 1293 2637 486 2637 
Q 410 2637 410 2688 
L 416 2720 
L 1114 4237 
L 2438 4237 
Q 2547 4237 2608 4269 
Q 2669 4301 2746 4403 
L 2803 4358 
z
" transform="scale(0.015625)"/>
      </defs>
      <use xlink:href="#STIXGeneral-Italic-75" transform="translate(0 0.875)"/>
      <use xlink:href="#STIXGeneral-Regular-2605" transform="translate(56.17311 36.15) scale(0.7)"/>
      <use xlink:href="#STIXGeneral-Regular-3d" transform="translate(135.92247 0.875)"/>
      <use xlink:href="#STIXGeneral-Regular-31" transform="translate(218.862451 0.875)"/>
      <use xlink:href="#STIXGeneral-Regular-2e" transform="translate(268.862436 0.875)"/>
      <use xlink:href="#STIXGeneral-Regular-32" transform="translate(293.862421 0.875)"/>
      <use xlink:href="#STIXGeneral-Regular-35" transform="translate(343.862406 0.875)"/>
      <use xlink:href="#STIXGeneral-Regular-30" transform="translate(393.86239 0.875)"/>
      <use xlink:href="#STIXGeneral-Regular-30" transform="translate(443.862375 0.875)"/>
     </g>
    </g>
    <g id="line2d_32">
     <path d="M 53.9 34.263281 
L 62.9 34.263281 
L 71.9 34.263281 
" style="fill: none; stroke: #ff0000; stroke-opacity: 0.9; stroke-width: 1.5; stroke-linecap: square"/>
    </g>
    <g id="text_17">
     <!-- $0.294 \sqrt{u_d - 1.2500}$ -->
     <g transform="translate(79.1 37.413281) scale(0.09 -0.09)">
      <defs>
       <path id="STIXGeneral-Regular-39" d="M 378 -141 
L 358 -13 
Q 1094 115 1603 608 
Q 2112 1101 2304 1882 
Q 1933 1517 1344 1517 
Q 826 1517 509 1875 
Q 192 2234 192 2816 
Q 192 3462 573 3894 
Q 954 4326 1523 4326 
Q 2131 4326 2528 3840 
Q 2938 3328 2938 2522 
Q 2938 1958 2742 1462 
Q 2547 966 2170 621 
Q 1773 262 1395 105 
Q 1018 -51 378 -141 
z
M 2317 2272 
L 2317 2522 
Q 2317 4147 1472 4147 
Q 1171 4147 1005 3930 
Q 909 3802 845 3546 
Q 781 3290 781 3034 
Q 781 2464 995 2128 
Q 1210 1792 1568 1792 
Q 1824 1792 2070 1917 
Q 2317 2042 2317 2272 
z
" transform="scale(0.015625)"/>
       <path id="STIXGeneral-Regular-221a" d="M 6163 6227 
L 3104 -1658 
L 2899 -1658 
L 1606 1734 
Q 1466 2112 1210 2112 
Q 1011 2112 794 1914 
L 717 2042 
L 1715 2835 
L 1837 2835 
L 3142 -595 
L 3168 -595 
L 5818 6227 
L 6163 6227 
z
" transform="scale(0.015625)"/>
      </defs>
      <use xlink:href="#STIXGeneral-Regular-30" transform="translate(0 0.703125)"/>
      <use xlink:href="#STIXGeneral-Regular-2e" transform="translate(49.999985 0.703125)"/>
      <use xlink:href="#STIXGeneral-Regular-32" transform="translate(74.999969 0.703125)"/>
      <use xlink:href="#STIXGeneral-Regular-39" transform="translate(124.999954 0.703125)"/>
      <use xlink:href="#STIXGeneral-Regular-34" transform="translate(174.999939 0.703125)"/>
      <use xlink:href="#STIXGeneral-Regular-221a" transform="translate(224.999924 0.703125)"/>
      <use xlink:href="#STIXGeneral-Italic-75" transform="translate(330.299911 0.953125)"/>
      <use xlink:href="#STIXGeneral-Italic-64" transform="translate(380.299896 -12.275) scale(0.7)"/>
      <use xlink:href="#STIXGeneral-Regular-2212" transform="translate(434.149257 0.953125)"/>
      <use xlink:href="#STIXGeneral-Regular-31" transform="translate(517.089238 0.953125)"/>
      <use xlink:href="#STIXGeneral-Regular-2e" transform="translate(567.089223 0.953125)"/>
      <use xlink:href="#STIXGeneral-Regular-32" transform="translate(592.089207 0.953125)"/>
      <use xlink:href="#STIXGeneral-Regular-35" transform="translate(642.089192 0.953125)"/>
      <use xlink:href="#STIXGeneral-Regular-30" transform="translate(692.089177 0.953125)"/>
      <use xlink:href="#STIXGeneral-Regular-30" transform="translate(742.089162 0.953125)"/>
      <path d="M 317.799911 91.5 
L 317.799911 97.75 
L 804.589146 97.75 
L 804.589146 91.5 
L 317.799911 91.5 
z
"/>
     </g>
    </g>
    <g id="PathCollection_1">
     <defs>
      <path id="md29cd0bc3b" d="M 0 3.535534 
C 0.937635 3.535534 1.836992 3.163008 2.5 2.5 
C 3.163008 1.836992 3.535534 0.937635 3.535534 0 
C 3.535534 -0.937635 3.163008 -1.836992 2.5 -2.5 
C 1.836992 -3.163008 0.937635 -3.535534 0 -3.535534 
C -0.937635 -3.535534 -1.836992 -3.163008 -2.5 -2.5 
C -3.163008 -1.836992 -3.535534 -0.937635 -3.535534 0 
C -3.535534 0.937635 -3.163008 1.836992 -2.5 2.5 
C -1.836992 3.163008 -0.937635 3.535534 0 3.535534 
z
" style="stroke: #000000; stroke-opacity: 0.8"/>
     </defs>
     <g>
      <use xlink:href="#md29cd0bc3b" x="62.9" y="48.190781" style="fill-opacity: 0.8; stroke: #000000; stroke-opacity: 0.8"/>
     </g>
    </g>
    <g id="text_18">
     <!-- $\Delta n=n_{\rm max} - n_{\rm min}$ -->
     <g transform="translate(79.1 50.553281) scale(0.09 -0.09)">
      <use xlink:href="#STIXGeneral-Regular-394" transform="translate(0 0.59375)"/>
      <use xlink:href="#STIXGeneral-Italic-6e" transform="translate(72.199982 0.59375)"/>
      <use xlink:href="#STIXGeneral-Regular-3d" transform="translate(136.639963 0.59375)"/>
      <use xlink:href="#STIXGeneral-Italic-6e" transform="translate(219.579944 0.59375)"/>
      <use xlink:href="#STIXGeneral-Regular-6d" transform="translate(269.579929 -12.634375) scale(0.7)"/>
      <use xlink:href="#STIXGeneral-Regular-61" transform="translate(324.03992 -12.634375) scale(0.7)"/>
      <use xlink:href="#STIXGeneral-Regular-78" transform="translate(355.119916 -12.634375) scale(0.7)"/>
      <use xlink:href="#STIXGeneral-Regular-2212" transform="translate(408.969276 0.59375)"/>
      <use xlink:href="#STIXGeneral-Italic-6e" transform="translate(491.909258 0.59375)"/>
      <use xlink:href="#STIXGeneral-Regular-6d" transform="translate(541.909242 -12.634375) scale(0.7)"/>
      <use xlink:href="#STIXGeneral-Regular-69" transform="translate(596.369234 -12.634375) scale(0.7)"/>
      <use xlink:href="#STIXGeneral-Regular-6e" transform="translate(615.829225 -12.634375) scale(0.7)"/>
     </g>
    </g>
    <g id="line2d_33">
     <path d="M 53.9 60.156562 
L 62.9 60.156562 
L 71.9 60.156562 
" style="fill: none; stroke-dasharray: 7.4,3.2; stroke-dashoffset: 0; stroke: #008000; stroke-opacity: 0.8; stroke-width: 2"/>
    </g>
    <g id="text_19">
     <!-- $u^{\bigstar} = 1.2500$ -->
     <g transform="translate(79.1 63.306562) scale(0.09 -0.09)">
      <use xlink:href="#STIXGeneral-Italic-75" transform="translate(0 0.875)"/>
      <use xlink:href="#STIXGeneral-Regular-2605" transform="translate(56.17311 36.15) scale(0.7)"/>
      <use xlink:href="#STIXGeneral-Regular-3d" transform="translate(135.92247 0.875)"/>
      <use xlink:href="#STIXGeneral-Regular-31" transform="translate(218.862451 0.875)"/>
      <use xlink:href="#STIXGeneral-Regular-2e" transform="translate(268.862436 0.875)"/>
      <use xlink:href="#STIXGeneral-Regular-32" transform="translate(293.862421 0.875)"/>
      <use xlink:href="#STIXGeneral-Regular-35" transform="translate(343.862406 0.875)"/>
      <use xlink:href="#STIXGeneral-Regular-30" transform="translate(393.86239 0.875)"/>
      <use xlink:href="#STIXGeneral-Regular-30" transform="translate(443.862375 0.875)"/>
     </g>
    </g>
    <g id="line2d_34">
     <path d="M 53.9 73.989844 
L 62.9 73.989844 
L 71.9 73.989844 
" style="fill: none; stroke-dasharray: 7.4,3.2; stroke-dashoffset: 0; stroke: #bf00bf; stroke-opacity: 0.8; stroke-width: 2"/>
    </g>
    <g id="text_20">
     <!-- $\langle j \rangle$ fit ($u_d &gt; u^{\bigstar}$): slope = 0.269 -->
     <g transform="translate(79.1 77.139844) scale(0.09 -0.09)">
      <defs>
       <path id="STIXGeneral-Regular-27e8" d="M 2144 4563 
L 915 1606 
L 2138 -1363 
L 1805 -1363 
L 493 1542 
L 493 1670 
L 1811 4563 
L 2144 4563 
z
" transform="scale(0.015625)"/>
       <path id="STIXGeneral-Italic-6a" d="M 1786 3827 
Q 1786 3699 1690 3603 
Q 1594 3507 1466 3507 
Q 1318 3507 1219 3600 
Q 1120 3693 1120 3840 
Q 1120 3981 1222 4077 
Q 1325 4173 1459 4173 
Q 1587 4173 1686 4067 
Q 1786 3962 1786 3827 
z
M 1574 2803 
L 909 179 
Q 710 -595 419 -960 
Q 128 -1325 -288 -1325 
Q -512 -1325 -653 -1216 
Q -794 -1107 -794 -934 
Q -794 -819 -717 -736 
Q -640 -653 -531 -653 
Q -282 -653 -282 -890 
Q -282 -966 -320 -1014 
Q -358 -1062 -358 -1107 
Q -358 -1184 -243 -1184 
Q -51 -1184 80 -934 
Q 211 -685 378 -19 
L 838 1850 
Q 941 2266 941 2362 
Q 941 2470 873 2515 
Q 806 2560 634 2560 
L 467 2560 
L 467 2662 
Q 755 2682 1549 2822 
L 1574 2803 
z
" transform="scale(0.015625)"/>
       <path id="STIXGeneral-Regular-27e9" d="M 2067 1536 
L 749 -1363 
L 416 -1363 
L 1645 1600 
L 422 4563 
L 755 4563 
L 2067 1664 
L 2067 1536 
z
" transform="scale(0.015625)"/>
       <path id="STIXGeneral-Regular-20" transform="scale(0.015625)"/>
       <path id="STIXGeneral-Regular-66" d="M 134 2880 
L 659 2880 
Q 666 3264 710 3478 
Q 755 3693 883 3910 
Q 1152 4371 1786 4371 
Q 2074 4371 2262 4259 
Q 2451 4147 2451 3974 
Q 2451 3866 2374 3789 
Q 2298 3712 2182 3712 
Q 2029 3712 1894 3942 
Q 1741 4192 1555 4192 
Q 1197 4192 1197 3622 
L 1197 2880 
L 1978 2880 
L 1978 2675 
L 1197 2675 
L 1197 666 
Q 1197 307 1299 208 
Q 1402 109 1792 96 
L 1792 0 
L 128 0 
L 128 96 
Q 474 115 566 214 
Q 659 314 659 666 
L 659 2675 
L 134 2675 
L 134 2880 
z
" transform="scale(0.015625)"/>
       <path id="STIXGeneral-Regular-74" d="M 1702 493 
L 1786 422 
Q 1478 -64 1011 -64 
Q 448 -64 448 749 
L 448 2675 
L 109 2675 
Q 83 2694 83 2720 
Q 83 2771 192 2842 
Q 435 2982 813 3526 
Q 826 3546 874 3606 
Q 922 3667 941 3706 
Q 986 3706 986 3622 
L 986 2880 
L 1632 2880 
L 1632 2675 
L 986 2675 
L 986 845 
Q 986 538 1062 403 
Q 1139 269 1318 269 
Q 1510 269 1702 493 
z
" transform="scale(0.015625)"/>
       <path id="STIXGeneral-Regular-28" d="M 1946 -1030 
L 1869 -1133 
Q 1126 -710 716 32 
Q 307 774 307 1613 
Q 307 3386 1888 4326 
L 1946 4224 
Q 1293 3667 1075 3126 
Q 858 2586 858 1632 
Q 858 685 1082 96 
Q 1306 -493 1946 -1030 
z
" transform="scale(0.015625)"/>
       <path id="STIXGeneral-Regular-3e" d="M 3974 1594 
L 358 -154 
L 358 250 
L 3123 1626 
L 358 3002 
L 358 3418 
L 3974 1658 
L 3974 1594 
z
" transform="scale(0.015625)"/>
       <path id="STIXGeneral-Regular-29" d="M 186 4224 
L 262 4326 
Q 992 3891 1408 3148 
Q 1824 2406 1824 1581 
Q 1824 -166 243 -1133 
L 186 -1030 
Q 845 -486 1059 54 
Q 1274 595 1274 1562 
Q 1274 2534 1059 3120 
Q 845 3706 186 4224 
z
" transform="scale(0.015625)"/>
       <path id="STIXGeneral-Regular-3a" d="M 1123 2832 
Q 1229 2726 1229 2579 
Q 1229 2432 1126 2329 
Q 1024 2227 877 2227 
Q 730 2227 624 2332 
Q 518 2438 518 2579 
Q 518 2733 620 2835 
Q 723 2938 877 2938 
Q 1018 2938 1123 2832 
z
M 1229 282 
Q 1229 141 1126 35 
Q 1024 -70 877 -70 
Q 730 -70 624 35 
Q 518 141 518 282 
Q 518 435 620 537 
Q 723 640 877 640 
Q 1018 640 1123 534 
Q 1229 429 1229 282 
z
" transform="scale(0.015625)"/>
       <path id="STIXGeneral-Regular-73" d="M 998 1926 
L 1664 1523 
Q 1984 1331 2105 1164 
Q 2227 998 2227 736 
Q 2227 416 1961 176 
Q 1696 -64 1331 -64 
Q 1030 -64 864 -6 
Q 691 51 570 51 
Q 461 51 416 -26 
L 333 -26 
L 333 979 
L 435 979 
Q 538 512 730 294 
Q 922 77 1248 77 
Q 1485 77 1632 211 
Q 1779 346 1779 550 
Q 1779 845 1440 1030 
L 1094 1222 
Q 326 1651 326 2150 
Q 326 2522 566 2730 
Q 806 2938 1210 2938 
Q 1491 2938 1638 2867 
Q 1754 2816 1818 2816 
Q 1862 2816 1920 2880 
L 1990 2880 
L 2022 2010 
L 1926 2010 
Q 1818 2445 1654 2621 
Q 1491 2797 1203 2797 
Q 986 2797 854 2688 
Q 723 2579 723 2362 
Q 723 2253 796 2128 
Q 870 2003 998 1926 
z
" transform="scale(0.015625)"/>
       <path id="STIXGeneral-Regular-6c" d="M 1645 0 
L 134 0 
L 134 96 
Q 435 122 531 221 
Q 627 320 627 589 
L 627 3590 
Q 627 3821 569 3910 
Q 512 4000 358 4000 
Q 224 4000 122 3987 
L 122 4090 
Q 730 4237 1133 4371 
L 1165 4346 
L 1165 557 
Q 1165 288 1254 201 
Q 1344 115 1645 96 
L 1645 0 
z
" transform="scale(0.015625)"/>
       <path id="STIXGeneral-Regular-6f" d="M 3008 1478 
Q 3008 806 2608 371 
Q 2208 -64 1568 -64 
Q 979 -64 582 368 
Q 186 800 186 1459 
Q 186 2125 582 2534 
Q 979 2944 1626 2944 
Q 2221 2944 2614 2537 
Q 3008 2131 3008 1478 
z
M 2432 1306 
Q 2432 2035 2112 2445 
Q 1856 2765 1504 2765 
Q 1171 2765 966 2493 
Q 762 2221 762 1747 
Q 762 928 1101 435 
Q 1318 115 1677 115 
Q 2029 115 2230 432 
Q 2432 749 2432 1306 
z
" transform="scale(0.015625)"/>
       <path id="STIXGeneral-Regular-70" d="M 1018 2931 
L 1018 2438 
Q 1421 2944 1939 2944 
Q 2406 2944 2707 2560 
Q 3008 2176 3008 1581 
Q 3008 883 2621 409 
Q 2234 -64 1664 -64 
Q 1466 -64 1328 -6 
Q 1190 51 1018 211 
L 1018 -794 
Q 1018 -1094 1120 -1180 
Q 1222 -1267 1581 -1274 
L 1581 -1389 
L 32 -1389 
L 32 -1280 
Q 314 -1254 397 -1171 
Q 480 -1088 480 -838 
L 480 2157 
Q 480 2381 429 2451 
Q 378 2522 218 2522 
Q 115 2522 58 2515 
L 58 2618 
Q 506 2752 979 2944 
L 1018 2931 
z
M 1018 2138 
L 1018 563 
Q 1018 422 1238 281 
Q 1459 141 1683 141 
Q 2029 141 2243 467 
Q 2458 794 2458 1325 
Q 2458 1888 2243 2224 
Q 2029 2560 1670 2560 
Q 1446 2560 1232 2419 
Q 1018 2278 1018 2138 
z
" transform="scale(0.015625)"/>
       <path id="STIXGeneral-Regular-65" d="M 2611 1050 
L 2714 1005 
Q 2330 -64 1376 -64 
Q 813 -64 486 329 
Q 160 723 160 1389 
Q 160 2074 525 2509 
Q 890 2944 1485 2944 
Q 2061 2944 2374 2502 
Q 2560 2246 2592 1773 
L 621 1773 
Q 646 1370 700 1158 
Q 755 947 915 730 
Q 1184 378 1626 378 
Q 1939 378 2153 531 
Q 2368 685 2611 1050 
z
M 634 1978 
L 1939 1978 
Q 1882 2381 1750 2547 
Q 1619 2714 1312 2714 
Q 1043 2714 864 2525 
Q 685 2336 634 1978 
z
" transform="scale(0.015625)"/>
      </defs>
      <use xlink:href="#STIXGeneral-Regular-27e8" transform="translate(0 0.875)"/>
      <use xlink:href="#STIXGeneral-Italic-6a" transform="translate(39.999985 0.875)"/>
      <use xlink:href="#STIXGeneral-Regular-27e9" transform="translate(67.799973 0.875)"/>
      <use xlink:href="#STIXGeneral-Regular-20" transform="translate(107.799957 0.875)"/>
      <use xlink:href="#STIXGeneral-Regular-66" transform="translate(132.799942 0.875)"/>
      <use xlink:href="#STIXGeneral-Regular-69" transform="translate(166.09993 0.875)"/>
      <use xlink:href="#STIXGeneral-Regular-74" transform="translate(193.899918 0.875)"/>
      <use xlink:href="#STIXGeneral-Regular-20" transform="translate(221.699905 0.875)"/>
      <use xlink:href="#STIXGeneral-Regular-28" transform="translate(246.69989 0.875)"/>
      <use xlink:href="#STIXGeneral-Italic-75" transform="translate(279.999878 0.875)"/>
      <use xlink:href="#STIXGeneral-Italic-64" transform="translate(329.999863 -12.353125) scale(0.7)"/>
      <use xlink:href="#STIXGeneral-Regular-3e" transform="translate(383.849223 0.875)"/>
      <use xlink:href="#STIXGeneral-Italic-75" transform="translate(466.789204 0.875)"/>
      <use xlink:href="#STIXGeneral-Regular-2605" transform="translate(522.962314 36.15) scale(0.7)"/>
      <use xlink:href="#STIXGeneral-Regular-29" transform="translate(588.271678 0.875)"/>
      <use xlink:href="#STIXGeneral-Regular-3a" transform="translate(621.571666 0.875)"/>
      <use xlink:href="#STIXGeneral-Regular-20" transform="translate(649.371654 0.875)"/>
      <use xlink:href="#STIXGeneral-Regular-73" transform="translate(674.371639 0.875)"/>
      <use xlink:href="#STIXGeneral-Regular-6c" transform="translate(713.271633 0.875)"/>
      <use xlink:href="#STIXGeneral-Regular-6f" transform="translate(741.07162 0.875)"/>
      <use xlink:href="#STIXGeneral-Regular-70" transform="translate(791.071605 0.875)"/>
      <use xlink:href="#STIXGeneral-Regular-65" transform="translate(841.07159 0.875)"/>
      <use xlink:href="#STIXGeneral-Regular-20" transform="translate(885.471584 0.875)"/>
      <use xlink:href="#STIXGeneral-Regular-3d" transform="translate(910.471569 0.875)"/>
      <use xlink:href="#STIXGeneral-Regular-20" transform="translate(978.971553 0.875)"/>
      <use xlink:href="#STIXGeneral-Regular-30" transform="translate(1003.971538 0.875)"/>
      <use xlink:href="#STIXGeneral-Regular-2e" transform="translate(1053.971523 0.875)"/>
      <use xlink:href="#STIXGeneral-Regular-32" transform="translate(1078.971508 0.875)"/>
      <use xlink:href="#STIXGeneral-Regular-36" transform="translate(1128.971492 0.875)"/>
      <use xlink:href="#STIXGeneral-Regular-39" transform="translate(1178.971477 0.875)"/>
     </g>
    </g>
    <g id="line2d_35">
     <path d="M 53.9 86.949844 
L 62.9 86.949844 
L 71.9 86.949844 
" style="fill: none; stroke-dasharray: 2,3.3; stroke-dashoffset: 0; stroke: #000000; stroke-opacity: 0.6; stroke-width: 2"/>
    </g>
    <g id="text_21">
     <!-- $\langle j \rangle$ fit (overall): slope = 0.220 -->
     <g transform="translate(79.1 90.099844) scale(0.09 -0.09)">
      <defs>
       <path id="STIXGeneral-Regular-76" d="M 3053 2880 
L 3053 2784 
Q 2906 2771 2835 2688 
Q 2765 2605 2637 2285 
L 1818 230 
Q 1690 -90 1638 -90 
Q 1587 -90 1523 77 
Q 1510 96 1497 141 
Q 1485 186 1472 211 
L 704 2048 
Q 499 2534 403 2652 
Q 307 2771 122 2784 
L 122 2880 
L 1376 2880 
L 1376 2784 
Q 1210 2771 1146 2732 
Q 1082 2694 1082 2611 
Q 1082 2509 1139 2368 
L 1792 730 
L 2426 2387 
Q 2464 2483 2464 2579 
Q 2464 2758 2163 2784 
L 2163 2880 
L 3053 2880 
z
" transform="scale(0.015625)"/>
       <path id="STIXGeneral-Regular-72" d="M 1024 2931 
L 1024 2342 
Q 1267 2688 1430 2816 
Q 1594 2944 1792 2944 
Q 1958 2944 2051 2854 
Q 2144 2765 2144 2605 
Q 2144 2470 2077 2393 
Q 2010 2317 1894 2317 
Q 1773 2317 1638 2445 
Q 1536 2541 1472 2541 
Q 1338 2541 1181 2355 
Q 1024 2170 1024 2016 
L 1024 576 
Q 1024 301 1133 205 
Q 1242 109 1568 96 
L 1568 0 
L 32 0 
L 32 96 
Q 339 154 412 224 
Q 486 294 486 538 
L 486 2138 
Q 486 2349 438 2435 
Q 390 2522 269 2522 
Q 166 2522 45 2496 
L 45 2598 
Q 448 2726 992 2944 
L 1024 2931 
z
" transform="scale(0.015625)"/>
      </defs>
      <use xlink:href="#STIXGeneral-Regular-27e8" transform="translate(0 0.703125)"/>
      <use xlink:href="#STIXGeneral-Italic-6a" transform="translate(39.999985 0.703125)"/>
      <use xlink:href="#STIXGeneral-Regular-27e9" transform="translate(67.799973 0.703125)"/>
      <use xlink:href="#STIXGeneral-Regular-20" transform="translate(107.799957 0.703125)"/>
      <use xlink:href="#STIXGeneral-Regular-66" transform="translate(132.799942 0.703125)"/>
      <use xlink:href="#STIXGeneral-Regular-69" transform="translate(166.09993 0.703125)"/>
      <use xlink:href="#STIXGeneral-Regular-74" transform="translate(193.899918 0.703125)"/>
      <use xlink:href="#STIXGeneral-Regular-20" transform="translate(221.699905 0.703125)"/>
      <use xlink:href="#STIXGeneral-Regular-28" transform="translate(246.69989 0.703125)"/>
      <use xlink:href="#STIXGeneral-Regular-6f" transform="translate(279.999878 0.703125)"/>
      <use xlink:href="#STIXGeneral-Regular-76" transform="translate(329.999863 0.703125)"/>
      <use xlink:href="#STIXGeneral-Regular-65" transform="translate(379.999847 0.703125)"/>
      <use xlink:href="#STIXGeneral-Regular-72" transform="translate(424.399841 0.703125)"/>
      <use xlink:href="#STIXGeneral-Regular-61" transform="translate(457.699829 0.703125)"/>
      <use xlink:href="#STIXGeneral-Regular-6c" transform="translate(502.099823 0.703125)"/>
      <use xlink:href="#STIXGeneral-Regular-6c" transform="translate(529.899811 0.703125)"/>
      <use xlink:href="#STIXGeneral-Regular-29" transform="translate(557.699799 0.703125)"/>
      <use xlink:href="#STIXGeneral-Regular-3a" transform="translate(590.999786 0.703125)"/>
      <use xlink:href="#STIXGeneral-Regular-20" transform="translate(618.799774 0.703125)"/>
      <use xlink:href="#STIXGeneral-Regular-73" transform="translate(643.799759 0.703125)"/>
      <use xlink:href="#STIXGeneral-Regular-6c" transform="translate(682.699753 0.703125)"/>
      <use xlink:href="#STIXGeneral-Regular-6f" transform="translate(710.499741 0.703125)"/>
      <use xlink:href="#STIXGeneral-Regular-70" transform="translate(760.499725 0.703125)"/>
      <use xlink:href="#STIXGeneral-Regular-65" transform="translate(810.49971 0.703125)"/>
      <use xlink:href="#STIXGeneral-Regular-20" transform="translate(854.899704 0.703125)"/>
      <use xlink:href="#STIXGeneral-Regular-3d" transform="translate(879.899689 0.703125)"/>
      <use xlink:href="#STIXGeneral-Regular-20" transform="translate(948.399673 0.703125)"/>
      <use xlink:href="#STIXGeneral-Regular-30" transform="translate(973.399658 0.703125)"/>
      <use xlink:href="#STIXGeneral-Regular-2e" transform="translate(1023.399643 0.703125)"/>
      <use xlink:href="#STIXGeneral-Regular-32" transform="translate(1048.399628 0.703125)"/>
      <use xlink:href="#STIXGeneral-Regular-32" transform="translate(1098.399612 0.703125)"/>
      <use xlink:href="#STIXGeneral-Regular-30" transform="translate(1148.399597 0.703125)"/>
     </g>
    </g>
    <g id="PathCollection_2">
     <path d="M 62.9 104.232878 
C 63.837635 104.232878 64.736992 103.860351 65.4 103.197344 
C 66.063008 102.534336 66.435534 101.634978 66.435534 100.697344 
C 66.435534 99.759709 66.063008 98.860351 65.4 98.197344 
C 64.736992 97.534336 63.837635 97.16181 62.9 97.16181 
C 61.962365 97.16181 61.063008 97.534336 60.4 98.197344 
C 59.736992 98.860351 59.364466 99.759709 59.364466 100.697344 
C 59.364466 101.634978 59.736992 102.534336 60.4 103.197344 
C 61.063008 103.860351 61.962365 104.232878 62.9 104.232878 
L 62.9 104.232878 
z
" style="fill: none; stroke: #0000ff; stroke-opacity: 0.7; stroke-width: 1.5"/>
    </g>
    <g id="text_22">
     <!-- $\langle j \rangle = \langle u n \rangle_t$ -->
     <g transform="translate(79.1 103.059844) scale(0.09 -0.09)">
      <defs>
       <path id="STIXGeneral-Italic-74" d="M 1894 2739 
L 1862 2534 
L 1325 2534 
L 768 435 
Q 755 384 755 346 
Q 755 243 851 243 
Q 928 243 1030 342 
Q 1133 442 1370 749 
L 1453 704 
Q 1158 256 969 93 
Q 781 -70 538 -70 
Q 243 -70 243 166 
Q 243 230 346 640 
L 845 2534 
L 365 2534 
L 358 2573 
Q 358 2688 570 2733 
Q 730 2771 992 2979 
Q 1254 3187 1421 3437 
Q 1459 3494 1510 3494 
Q 1568 3494 1568 3443 
Q 1568 3411 1562 3398 
L 1382 2739 
L 1894 2739 
z
" transform="scale(0.015625)"/>
      </defs>
      <use xlink:href="#STIXGeneral-Regular-27e8" transform="translate(0 0.703125)"/>
      <use xlink:href="#STIXGeneral-Italic-6a" transform="translate(39.999985 0.703125)"/>
      <use xlink:href="#STIXGeneral-Regular-27e9" transform="translate(67.799973 0.703125)"/>
      <use xlink:href="#STIXGeneral-Regular-3d" transform="translate(122.239954 0.703125)"/>
      <use xlink:href="#STIXGeneral-Regular-27e8" transform="translate(205.179935 0.703125)"/>
      <use xlink:href="#STIXGeneral-Italic-75" transform="translate(245.179919 0.703125)"/>
      <use xlink:href="#STIXGeneral-Italic-6e" transform="translate(295.179904 0.703125)"/>
      <use xlink:href="#STIXGeneral-Regular-27e9" transform="translate(345.179889 0.703125)"/>
      <use xlink:href="#STIXGeneral-Italic-74" transform="translate(386.723155 -12.525) scale(0.7)"/>
     </g>
    </g>
   </g>
   <g id="PathCollection_3">
    <g clip-path="url(#pc7df1c2119)">
     <use xlink:href="#md29cd0bc3b" x="72.317091" y="444.007159" style="fill-opacity: 0.8; stroke: #000000; stroke-opacity: 0.8"/>
     <use xlink:href="#md29cd0bc3b" x="107.673212" y="444.007159" style="fill-opacity: 0.8; stroke: #000000; stroke-opacity: 0.8"/>
     <use xlink:href="#md29cd0bc3b" x="143.029333" y="444.007159" style="fill-opacity: 0.8; stroke: #000000; stroke-opacity: 0.8"/>
     <use xlink:href="#md29cd0bc3b" x="178.385455" y="443.897605" style="fill-opacity: 0.8; stroke: #000000; stroke-opacity: 0.8"/>
     <use xlink:href="#md29cd0bc3b" x="213.741576" y="443.797359" style="fill-opacity: 0.8; stroke: #000000; stroke-opacity: 0.8"/>
     <use xlink:href="#md29cd0bc3b" x="249.097697" y="443.883035" style="fill-opacity: 0.8; stroke: #000000; stroke-opacity: 0.8"/>
     <use xlink:href="#md29cd0bc3b" x="284.453818" y="443.805516" style="fill-opacity: 0.8; stroke: #000000; stroke-opacity: 0.8"/>
     <use xlink:href="#md29cd0bc3b" x="319.809939" y="443.656148" style="fill-opacity: 0.8; stroke: #000000; stroke-opacity: 0.8"/>
     <use xlink:href="#md29cd0bc3b" x="355.166061" y="440.299568" style="fill-opacity: 0.8; stroke: #000000; stroke-opacity: 0.8"/>
     <use xlink:href="#md29cd0bc3b" x="390.522182" y="421.829068" style="fill-opacity: 0.8; stroke: #000000; stroke-opacity: 0.8"/>
     <use xlink:href="#md29cd0bc3b" x="425.878303" y="373.673225" style="fill-opacity: 0.8; stroke: #000000; stroke-opacity: 0.8"/>
     <use xlink:href="#md29cd0bc3b" x="461.234424" y="351.849597" style="fill-opacity: 0.8; stroke: #000000; stroke-opacity: 0.8"/>
     <use xlink:href="#md29cd0bc3b" x="496.590545" y="339.342208" style="fill-opacity: 0.8; stroke: #000000; stroke-opacity: 0.8"/>
     <use xlink:href="#md29cd0bc3b" x="531.946667" y="277.411354" style="fill-opacity: 0.8; stroke: #000000; stroke-opacity: 0.8"/>
     <use xlink:href="#md29cd0bc3b" x="567.302788" y="258.658641" style="fill-opacity: 0.8; stroke: #000000; stroke-opacity: 0.8"/>
     <use xlink:href="#md29cd0bc3b" x="602.658909" y="28.000341" style="fill-opacity: 0.8; stroke: #000000; stroke-opacity: 0.8"/>
    </g>
   </g>
  </g>
  <g id="axes_2">
   <g id="matplotlib.axis_3">
    <g id="ytick_6">
     <g id="line2d_36">
      <defs>
       <path id="m4780e2d317" d="M 0 0 
L 3.5 0 
" style="stroke: #000000; stroke-width: 0.8"/>
      </defs>
      <g>
       <use xlink:href="#m4780e2d317" x="629.176" y="405.878077" style="stroke: #000000; stroke-width: 0.8"/>
      </g>
     </g>
     <g id="text_23">
      <!-- 0.0 -->
      <g style="fill: #0000ff" transform="translate(636.176 409.97589) scale(0.12 -0.12)">
       <use xlink:href="#STIXGeneral-Regular-30"/>
       <use xlink:href="#STIXGeneral-Regular-2e" x="49.999985"/>
       <use xlink:href="#STIXGeneral-Regular-30" x="74.999969"/>
      </g>
     </g>
    </g>
    <g id="ytick_7">
     <g id="line2d_37">
      <g>
       <use xlink:href="#m4780e2d317" x="629.176" y="315.217426" style="stroke: #000000; stroke-width: 0.8"/>
      </g>
     </g>
     <g id="text_24">
      <!-- 0.1 -->
      <g style="fill: #0000ff" transform="translate(636.176 319.315239) scale(0.12 -0.12)">
       <use xlink:href="#STIXGeneral-Regular-30"/>
       <use xlink:href="#STIXGeneral-Regular-2e" x="49.999985"/>
       <use xlink:href="#STIXGeneral-Regular-31" x="74.999969"/>
      </g>
     </g>
    </g>
    <g id="ytick_8">
     <g id="line2d_38">
      <g>
       <use xlink:href="#m4780e2d317" x="629.176" y="224.556776" style="stroke: #000000; stroke-width: 0.8"/>
      </g>
     </g>
     <g id="text_25">
      <!-- 0.2 -->
      <g style="fill: #0000ff" transform="translate(636.176 228.654588) scale(0.12 -0.12)">
       <use xlink:href="#STIXGeneral-Regular-30"/>
       <use xlink:href="#STIXGeneral-Regular-2e" x="49.999985"/>
       <use xlink:href="#STIXGeneral-Regular-32" x="74.999969"/>
      </g>
     </g>
    </g>
    <g id="ytick_9">
     <g id="line2d_39">
      <g>
       <use xlink:href="#m4780e2d317" x="629.176" y="133.896125" style="stroke: #000000; stroke-width: 0.8"/>
      </g>
     </g>
     <g id="text_26">
      <!-- 0.3 -->
      <g style="fill: #0000ff" transform="translate(636.176 137.993938) scale(0.12 -0.12)">
       <use xlink:href="#STIXGeneral-Regular-30"/>
       <use xlink:href="#STIXGeneral-Regular-2e" x="49.999985"/>
       <use xlink:href="#STIXGeneral-Regular-33" x="74.999969"/>
      </g>
     </g>
    </g>
    <g id="ytick_10">
     <g id="line2d_40">
      <g>
       <use xlink:href="#m4780e2d317" x="629.176" y="43.235474" style="stroke: #000000; stroke-width: 0.8"/>
      </g>
     </g>
     <g id="text_27">
      <!-- 0.4 -->
      <g style="fill: #0000ff" transform="translate(636.176 47.333287) scale(0.12 -0.12)">
       <use xlink:href="#STIXGeneral-Regular-30"/>
       <use xlink:href="#STIXGeneral-Regular-2e" x="49.999985"/>
       <use xlink:href="#STIXGeneral-Regular-34" x="74.999969"/>
      </g>
     </g>
    </g>
    <g id="text_28">
     <!-- $\langle j \rangle = \langle u n \rangle_t$ -->
     <g style="fill: #0000ff" transform="translate(665.256 264.77375) rotate(-90) scale(0.14 -0.14)">
      <use xlink:href="#STIXGeneral-Regular-27e8" transform="translate(0 0.703125)"/>
      <use xlink:href="#STIXGeneral-Italic-6a" transform="translate(39.999985 0.703125)"/>
      <use xlink:href="#STIXGeneral-Regular-27e9" transform="translate(67.799973 0.703125)"/>
      <use xlink:href="#STIXGeneral-Regular-3d" transform="translate(122.239954 0.703125)"/>
      <use xlink:href="#STIXGeneral-Regular-27e8" transform="translate(205.179935 0.703125)"/>
      <use xlink:href="#STIXGeneral-Italic-75" transform="translate(245.179919 0.703125)"/>
      <use xlink:href="#STIXGeneral-Italic-6e" transform="translate(295.179904 0.703125)"/>
      <use xlink:href="#STIXGeneral-Regular-27e9" transform="translate(345.179889 0.703125)"/>
      <use xlink:href="#STIXGeneral-Italic-74" transform="translate(386.723155 -12.525) scale(0.7)"/>
     </g>
    </g>
   </g>
   <g id="line2d_41">
    <path d="M 372.844121 186.950634 
L 375.165483 185.347604 
L 377.486844 183.744574 
L 379.808206 182.141544 
L 382.129567 180.538514 
L 384.450929 178.935484 
L 386.77229 177.332454 
L 389.093652 175.729424 
L 391.415013 174.126394 
L 393.736375 172.523364 
L 396.057736 170.920335 
L 398.379098 169.317305 
L 400.700459 167.714275 
L 403.021821 166.111245 
L 405.343182 164.508215 
L 407.664544 162.905185 
L 409.985905 161.302155 
L 412.307267 159.699125 
L 414.628628 158.096095 
L 416.94999 156.493065 
L 419.271351 154.890035 
L 421.592713 153.287005 
L 423.914074 151.683975 
L 426.235436 150.080946 
L 428.556797 148.477916 
L 430.878159 146.874886 
L 433.19952 145.271856 
L 435.520882 143.668826 
L 437.842243 142.065796 
L 440.163605 140.462766 
L 442.484966 138.859736 
L 444.806328 137.256706 
L 447.127689 135.653676 
L 449.449051 134.050646 
L 451.770412 132.447616 
L 454.091773 130.844586 
L 456.413135 129.241556 
L 458.734496 127.638527 
L 461.055858 126.035497 
L 463.377219 124.432467 
L 465.698581 122.829437 
L 468.019942 121.226407 
L 470.341304 119.623377 
L 472.662665 118.020347 
L 474.984027 116.417317 
L 477.305388 114.814287 
L 479.62675 113.211257 
L 481.948111 111.608227 
L 484.269473 110.005197 
L 486.590834 108.402167 
L 488.912196 106.799138 
L 491.233557 105.196108 
L 493.554919 103.593078 
L 495.87628 101.990048 
L 498.197642 100.387018 
L 500.519003 98.783988 
L 502.840365 97.180958 
L 505.161726 95.577928 
L 507.483088 93.974898 
L 509.804449 92.371868 
L 512.125811 90.768838 
L 514.447172 89.165808 
L 516.768534 87.562778 
L 519.089895 85.959748 
L 521.411257 84.356719 
L 523.732618 82.753689 
L 526.05398 81.150659 
L 528.375341 79.547629 
L 530.696703 77.944599 
L 533.018064 76.341569 
L 535.339426 74.738539 
L 537.660787 73.135509 
L 539.982149 71.532479 
L 542.30351 69.929449 
L 544.624872 68.326419 
L 546.946233 66.723389 
L 549.267595 65.120359 
L 551.588956 63.51733 
L 553.910318 61.9143 
L 556.231679 60.31127 
L 558.553041 58.70824 
L 560.874402 57.10521 
L 563.195764 55.50218 
L 565.517125 53.89915 
L 567.838487 52.29612 
L 570.159848 50.69309 
L 572.48121 49.09006 
L 574.802571 47.48703 
L 577.123933 45.884 
L 579.445294 44.28097 
L 581.766656 42.677941 
L 584.088017 41.074911 
L 586.409379 39.471881 
L 588.73074 37.868851 
L 591.052102 36.265821 
L 593.373463 34.662791 
L 595.694825 33.059761 
L 598.016186 31.456731 
L 600.337548 29.853701 
L 602.658909 28.250671 
" clip-path="url(#pc7df1c2119)" style="fill: none; stroke-dasharray: 7.4,3.2; stroke-dashoffset: 0; stroke: #bf00bf; stroke-opacity: 0.8; stroke-width: 2"/>
   </g>
   <g id="line2d_42">
    <path d="M 72.317091 340.902636 
L 77.674079 337.876676 
L 83.031067 334.850717 
L 88.388055 331.824758 
L 93.745043 328.798798 
L 99.102031 325.772839 
L 104.459019 322.746879 
L 109.816007 319.72092 
L 115.172995 316.69496 
L 120.529983 313.669001 
L 125.886972 310.643041 
L 131.24396 307.617082 
L 136.600948 304.591122 
L 141.957936 301.565163 
L 147.314924 298.539204 
L 152.671912 295.513244 
L 158.0289 292.487285 
L 163.385888 289.461325 
L 168.742876 286.435366 
L 174.099864 283.409406 
L 179.456852 280.383447 
L 184.81384 277.357487 
L 190.170828 274.331528 
L 195.527816 271.305568 
L 200.884804 268.279609 
L 206.241792 265.253649 
L 211.598781 262.22769 
L 216.955769 259.201731 
L 222.312757 256.175771 
L 227.669745 253.149812 
L 233.026733 250.123852 
L 238.383721 247.097893 
L 243.740709 244.071933 
L 249.097697 241.045974 
L 254.454685 238.020014 
L 259.811673 234.994055 
L 265.168661 231.968095 
L 270.525649 228.942136 
L 275.882637 225.916177 
L 281.239625 222.890217 
L 286.596613 219.864258 
L 291.953601 216.838298 
L 297.31059 213.812339 
L 302.667578 210.786379 
L 308.024566 207.76042 
L 313.381554 204.73446 
L 318.738542 201.708501 
L 324.09553 198.682541 
L 329.452518 195.656582 
L 334.809506 192.630622 
L 340.166494 189.604663 
L 345.523482 186.578704 
L 350.88047 183.552744 
L 356.237458 180.526785 
L 361.594446 177.500825 
L 366.951434 174.474866 
L 372.308422 171.448906 
L 377.66541 168.422947 
L 383.022399 165.396987 
L 388.379387 162.371028 
L 393.736375 159.345068 
L 399.093363 156.319109 
L 404.450351 153.29315 
L 409.807339 150.26719 
L 415.164327 147.241231 
L 420.521315 144.215271 
L 425.878303 141.189312 
L 431.235291 138.163352 
L 436.592279 135.137393 
L 441.949267 132.111433 
L 447.306255 129.085474 
L 452.663243 126.059514 
L 458.020231 123.033555 
L 463.377219 120.007595 
L 468.734208 116.981636 
L 474.091196 113.955677 
L 479.448184 110.929717 
L 484.805172 107.903758 
L 490.16216 104.877798 
L 495.519148 101.851839 
L 500.876136 98.825879 
L 506.233124 95.79992 
L 511.590112 92.77396 
L 516.9471 89.748001 
L 522.304088 86.722041 
L 527.661076 83.696082 
L 533.018064 80.670122 
L 538.375052 77.644163 
L 543.73204 74.618204 
L 549.089028 71.592244 
L 554.446017 68.566285 
L 559.803005 65.540325 
L 565.159993 62.514366 
L 570.516981 59.488406 
L 575.873969 56.462447 
L 581.230957 53.436487 
L 586.587945 50.410528 
L 591.944933 47.384568 
L 597.301921 44.358609 
L 602.658909 41.33265 
" clip-path="url(#pc7df1c2119)" style="fill: none; stroke-dasharray: 2,3.3; stroke-dashoffset: 0; stroke: #000000; stroke-opacity: 0.6; stroke-width: 2"/>
   </g>
   <g id="patch_8">
    <path d="M 45.8 464.8075 
L 45.8 7.2 
" style="fill: none; stroke: #000000; stroke-width: 0.8; stroke-linejoin: miter; stroke-linecap: square"/>
   </g>
   <g id="patch_9">
    <path d="M 629.176 464.8075 
L 629.176 7.2 
" style="fill: none; stroke: #000000; stroke-width: 0.8; stroke-linejoin: miter; stroke-linecap: square"/>
   </g>
   <g id="patch_10">
    <path d="M 45.8 464.8075 
L 629.176 464.8075 
" style="fill: none; stroke: #000000; stroke-width: 0.8; stroke-linejoin: miter; stroke-linecap: square"/>
   </g>
   <g id="patch_11">
    <path d="M 45.8 7.2 
L 629.176 7.2 
" style="fill: none; stroke: #000000; stroke-width: 0.8; stroke-linejoin: miter; stroke-linecap: square"/>
   </g>
   <g id="PathCollection_4">
    <defs>
     <path id="C0_0_6fdaceb3ec" d="M 0 3.535534 
C 0.937635 3.535534 1.836992 3.163008 2.5 2.5 
C 3.163008 1.836992 3.535534 0.937635 3.535534 -0 
C 3.535534 -0.937635 3.163008 -1.836992 2.5 -2.5 
C 1.836992 -3.163008 0.937635 -3.535534 0 -3.535534 
C -0.937635 -3.535534 -1.836992 -3.163008 -2.5 -2.5 
C -3.163008 -1.836992 -3.535534 -0.937635 -3.535534 0 
C -3.535534 0.937635 -3.163008 1.836992 -2.5 2.5 
C -1.836992 3.163008 -0.937635 3.535534 0 3.535534 
z
"/>
    </defs>
    <g clip-path="url(#pc7df1c2119)">
     <use xlink:href="#C0_0_6fdaceb3ec" x="72.317091" y="333.349557" style="fill: none; stroke: #0000ff; stroke-opacity: 0.7; stroke-width: 1.5"/>
    </g>
    <g clip-path="url(#pc7df1c2119)">
     <use xlink:href="#C0_0_6fdaceb3ec" x="107.673212" y="315.217426" style="fill: none; stroke: #0000ff; stroke-opacity: 0.7; stroke-width: 1.5"/>
    </g>
    <g clip-path="url(#pc7df1c2119)">
     <use xlink:href="#C0_0_6fdaceb3ec" x="143.029333" y="297.085295" style="fill: none; stroke: #0000ff; stroke-opacity: 0.7; stroke-width: 1.5"/>
    </g>
    <g clip-path="url(#pc7df1c2119)">
     <use xlink:href="#C0_0_6fdaceb3ec" x="178.385455" y="278.953051" style="fill: none; stroke: #0000ff; stroke-opacity: 0.7; stroke-width: 1.5"/>
    </g>
    <g clip-path="url(#pc7df1c2119)">
     <use xlink:href="#C0_0_6fdaceb3ec" x="213.741576" y="260.819654" style="fill: none; stroke: #0000ff; stroke-opacity: 0.7; stroke-width: 1.5"/>
    </g>
    <g clip-path="url(#pc7df1c2119)">
     <use xlink:href="#C0_0_6fdaceb3ec" x="249.097697" y="242.688454" style="fill: none; stroke: #0000ff; stroke-opacity: 0.7; stroke-width: 1.5"/>
    </g>
    <g clip-path="url(#pc7df1c2119)">
     <use xlink:href="#C0_0_6fdaceb3ec" x="284.453818" y="224.556277" style="fill: none; stroke: #0000ff; stroke-opacity: 0.7; stroke-width: 1.5"/>
    </g>
    <g clip-path="url(#pc7df1c2119)">
     <use xlink:href="#C0_0_6fdaceb3ec" x="319.809939" y="206.42218" style="fill: none; stroke: #0000ff; stroke-opacity: 0.7; stroke-width: 1.5"/>
    </g>
    <g clip-path="url(#pc7df1c2119)">
     <use xlink:href="#C0_0_6fdaceb3ec" x="355.166061" y="188.312736" style="fill: none; stroke: #0000ff; stroke-opacity: 0.7; stroke-width: 1.5"/>
    </g>
    <g clip-path="url(#pc7df1c2119)">
     <use xlink:href="#C0_0_6fdaceb3ec" x="390.522182" y="169.870441" style="fill: none; stroke: #0000ff; stroke-opacity: 0.7; stroke-width: 1.5"/>
    </g>
    <g clip-path="url(#pc7df1c2119)">
     <use xlink:href="#C0_0_6fdaceb3ec" x="425.878303" y="150.148608" style="fill: none; stroke: #0000ff; stroke-opacity: 0.7; stroke-width: 1.5"/>
    </g>
    <g clip-path="url(#pc7df1c2119)">
     <use xlink:href="#C0_0_6fdaceb3ec" x="461.234424" y="128.190759" style="fill: none; stroke: #0000ff; stroke-opacity: 0.7; stroke-width: 1.5"/>
    </g>
    <g clip-path="url(#pc7df1c2119)">
     <use xlink:href="#C0_0_6fdaceb3ec" x="496.590545" y="105.521291" style="fill: none; stroke: #0000ff; stroke-opacity: 0.7; stroke-width: 1.5"/>
    </g>
    <g clip-path="url(#pc7df1c2119)">
     <use xlink:href="#C0_0_6fdaceb3ec" x="531.946667" y="82.115023" style="fill: none; stroke: #0000ff; stroke-opacity: 0.7; stroke-width: 1.5"/>
    </g>
    <g clip-path="url(#pc7df1c2119)">
     <use xlink:href="#C0_0_6fdaceb3ec" x="567.302788" y="51.540931" style="fill: none; stroke: #0000ff; stroke-opacity: 0.7; stroke-width: 1.5"/>
    </g>
    <g clip-path="url(#pc7df1c2119)">
     <use xlink:href="#C0_0_6fdaceb3ec" x="602.658909" y="23.090602" style="fill: none; stroke: #0000ff; stroke-opacity: 0.7; stroke-width: 1.5"/>
    </g>
   </g>
  </g>
 </g>
 <defs>
  <clipPath id="pc7df1c2119">
   <rect x="45.8" y="7.2" width="583.376" height="457.6075"/>
  </clipPath>
 </defs>
</svg>
