<?xml version="1.0" encoding="utf-8" standalone="no"?>
<!DOCTYPE svg PUBLIC "-//W3C//DTD SVG 1.1//EN"
  "http://www.w3.org/Graphics/SVG/1.1/DTD/svg11.dtd">
<svg xmlns:xlink="http://www.w3.org/1999/xlink" width="675.506pt" height="506.4075pt" viewBox="0 0 675.506 506.4075" xmlns="http://www.w3.org/2000/svg" version="1.1">
 <metadata>
  <rdf:RDF xmlns:dc="http://purl.org/dc/elements/1.1/" xmlns:cc="http://creativecommons.org/ns#" xmlns:rdf="http://www.w3.org/1999/02/22-rdf-syntax-ns#">
   <cc:Work>
    <dc:type rdf:resource="http://purl.org/dc/dcmitype/StillImage"/>
    <dc:date>2025-10-14T18:56:04.509288</dc:date>
    <dc:format>image/svg+xml</dc:format>
    <dc:creator>
     <cc:Agent>
      <dc:title>Matplotlib v3.8.4, https://matplotlib.org/</dc:title>
     </cc:Agent>
    </dc:creator>
   </cc:Work>
  </rdf:RDF>
 </metadata>
 <defs>
  <style type="text/css">*{stroke-linejoin: round; stroke-linecap: butt}</style>
 </defs>
 <g id="figure_1">
  <g id="patch_1">
   <path d="M 0 506.4075 
L 675.506 506.4075 
L 675.506 0 
L 0 0 
z
" style="fill: #ffffff"/>
  </g>
  <g id="axes_1">
   <g id="patch_2">
    <path d="M 51.8 464.8075 
L 629.146 464.8075 
L 629.146 7.2 
L 51.8 7.2 
z
" style="fill: #ffffff"/>
   </g>
   <g id="matplotlib.axis_1">
    <g id="xtick_1">
     <g id="line2d_1">
      <path d="M 118.416846 464.8075 
L 118.416846 7.2 
" clip-path="url(#p4cc50648e8)" style="fill: none; stroke: #b0b0b0; stroke-opacity: 0.3; stroke-width: 0.8; stroke-linecap: square"/>
     </g>
     <g id="line2d_2">
      <defs>
       <path id="md32577a5e1" d="M 0 0 
L 0 3.5 
" style="stroke: #000000; stroke-width: 0.8"/>
      </defs>
      <g>
       <use xlink:href="#md32577a5e1" x="118.416846" y="464.8075" style="stroke: #000000; stroke-width: 0.8"/>
      </g>
     </g>
     <g id="text_1">
      <!-- 3 -->
      <g transform="translate(115.416846 480.003125) scale(0.12 -0.12)">
       <defs>
        <path id="STIXGeneral-Regular-33" d="M 390 3264 
L 288 3290 
Q 435 3770 748 4048 
Q 1062 4326 1542 4326 
Q 1990 4326 2265 4083 
Q 2541 3840 2541 3450 
Q 2541 2925 1946 2566 
Q 2298 2413 2477 2227 
Q 2758 1914 2758 1402 
Q 2758 890 2464 506 
Q 2246 211 1840 60 
Q 1434 -90 979 -90 
Q 262 -90 262 275 
Q 262 378 339 442 
Q 416 506 525 506 
Q 685 506 915 339 
Q 1197 141 1466 141 
Q 1818 141 2058 425 
Q 2298 710 2298 1120 
Q 2298 1856 1632 2048 
Q 1434 2112 979 2112 
L 979 2202 
Q 1338 2323 1517 2432 
Q 2035 2726 2035 3290 
Q 2035 3610 1852 3776 
Q 1670 3942 1344 3942 
Q 768 3942 390 3264 
z
" transform="scale(0.015625)"/>
       </defs>
       <use xlink:href="#STIXGeneral-Regular-33"/>
      </g>
     </g>
    </g>
    <g id="xtick_2">
     <g id="line2d_3">
      <path d="M 219.351462 464.8075 
L 219.351462 7.2 
" clip-path="url(#p4cc50648e8)" style="fill: none; stroke: #b0b0b0; stroke-opacity: 0.3; stroke-width: 0.8; stroke-linecap: square"/>
     </g>
     <g id="line2d_4">
      <g>
       <use xlink:href="#md32577a5e1" x="219.351462" y="464.8075" style="stroke: #000000; stroke-width: 0.8"/>
      </g>
     </g>
     <g id="text_2">
      <!-- 4 -->
      <g transform="translate(216.351462 480.003125) scale(0.12 -0.12)">
       <defs>
        <path id="STIXGeneral-Regular-34" d="M 3027 1069 
L 2368 1069 
L 2368 0 
L 1869 0 
L 1869 1069 
L 77 1069 
L 77 1478 
L 2086 4326 
L 2368 4326 
L 2368 1478 
L 3027 1478 
L 3027 1069 
z
M 1869 1478 
L 1869 3674 
L 333 1478 
L 1869 1478 
z
" transform="scale(0.015625)"/>
       </defs>
       <use xlink:href="#STIXGeneral-Regular-34"/>
      </g>
     </g>
    </g>
    <g id="xtick_3">
     <g id="line2d_5">
      <path d="M 320.286077 464.8075 
L 320.286077 7.2 
" clip-path="url(#p4cc50648e8)" style="fill: none; stroke: #b0b0b0; stroke-opacity: 0.3; stroke-width: 0.8; stroke-linecap: square"/>
     </g>
     <g id="line2d_6">
      <g>
       <use xlink:href="#md32577a5e1" x="320.286077" y="464.8075" style="stroke: #000000; stroke-width: 0.8"/>
      </g>
     </g>
     <g id="text_3">
      <!-- 5 -->
      <g transform="translate(317.286077 480.003125) scale(0.12 -0.12)">
       <defs>
        <path id="STIXGeneral-Regular-35" d="M 2803 4358 
L 2573 3814 
Q 2534 3731 2400 3731 
L 1158 3731 
L 902 3187 
Q 1606 3053 1920 2896 
Q 2234 2739 2502 2368 
Q 2726 2061 2726 1555 
Q 2726 1094 2576 780 
Q 2426 467 2099 224 
Q 1664 -90 1011 -90 
Q 646 -90 422 19 
Q 198 128 198 307 
Q 198 550 486 550 
Q 717 550 960 352 
Q 1210 147 1414 147 
Q 1747 147 2012 480 
Q 2278 813 2278 1229 
Q 2278 1843 1850 2189 
Q 1293 2637 486 2637 
Q 410 2637 410 2688 
L 416 2720 
L 1114 4237 
L 2438 4237 
Q 2547 4237 2608 4269 
Q 2669 4301 2746 4403 
L 2803 4358 
z
" transform="scale(0.015625)"/>
       </defs>
       <use xlink:href="#STIXGeneral-Regular-35"/>
      </g>
     </g>
    </g>
    <g id="xtick_4">
     <g id="line2d_7">
      <path d="M 421.220692 464.8075 
L 421.220692 7.2 
" clip-path="url(#p4cc50648e8)" style="fill: none; stroke: #b0b0b0; stroke-opacity: 0.3; stroke-width: 0.8; stroke-linecap: square"/>
     </g>
     <g id="line2d_8">
      <g>
       <use xlink:href="#md32577a5e1" x="421.220692" y="464.8075" style="stroke: #000000; stroke-width: 0.8"/>
      </g>
     </g>
     <g id="text_4">
      <!-- 6 -->
      <g transform="translate(418.220692 480.003125) scale(0.12 -0.12)">
       <defs>
        <path id="STIXGeneral-Regular-36" d="M 2854 4378 
L 2867 4275 
Q 2112 4154 1606 3664 
Q 1101 3174 973 2451 
Q 1344 2739 1786 2739 
Q 2349 2739 2672 2380 
Q 2995 2022 2995 1402 
Q 2995 774 2669 378 
Q 2291 -90 1651 -90 
Q 870 -90 518 557 
Q 218 1107 218 1786 
Q 218 2835 915 3552 
Q 1312 3962 1731 4131 
Q 2150 4301 2854 4378 
z
M 2419 1203 
Q 2419 2445 1555 2445 
Q 1235 2445 1024 2275 
Q 813 2106 813 1702 
Q 813 954 1046 522 
Q 1280 90 1722 90 
Q 2061 90 2240 394 
Q 2419 698 2419 1203 
z
" transform="scale(0.015625)"/>
       </defs>
       <use xlink:href="#STIXGeneral-Regular-36"/>
      </g>
     </g>
    </g>
    <g id="xtick_5">
     <g id="line2d_9">
      <path d="M 522.155308 464.8075 
L 522.155308 7.2 
" clip-path="url(#p4cc50648e8)" style="fill: none; stroke: #b0b0b0; stroke-opacity: 0.3; stroke-width: 0.8; stroke-linecap: square"/>
     </g>
     <g id="line2d_10">
      <g>
       <use xlink:href="#md32577a5e1" x="522.155308" y="464.8075" style="stroke: #000000; stroke-width: 0.8"/>
      </g>
     </g>
     <g id="text_5">
      <!-- 7 -->
      <g transform="translate(519.155308 480.003125) scale(0.12 -0.12)">
       <defs>
        <path id="STIXGeneral-Regular-37" d="M 2874 4134 
L 1517 -51 
L 1101 -51 
L 2368 3763 
L 992 3763 
Q 717 3763 582 3667 
Q 448 3571 243 3238 
L 128 3296 
L 512 4237 
L 2874 4237 
L 2874 4134 
z
" transform="scale(0.015625)"/>
       </defs>
       <use xlink:href="#STIXGeneral-Regular-37"/>
      </g>
     </g>
    </g>
    <g id="xtick_6">
     <g id="line2d_11">
      <path d="M 623.089923 464.8075 
L 623.089923 7.2 
" clip-path="url(#p4cc50648e8)" style="fill: none; stroke: #b0b0b0; stroke-opacity: 0.3; stroke-width: 0.8; stroke-linecap: square"/>
     </g>
     <g id="line2d_12">
      <g>
       <use xlink:href="#md32577a5e1" x="623.089923" y="464.8075" style="stroke: #000000; stroke-width: 0.8"/>
      </g>
     </g>
     <g id="text_6">
      <!-- 8 -->
      <g transform="translate(620.089923 480.003125) scale(0.12 -0.12)">
       <defs>
        <path id="STIXGeneral-Regular-38" d="M 2848 992 
Q 2848 499 2505 204 
Q 2163 -90 1587 -90 
Q 1050 -90 704 204 
Q 358 499 358 954 
Q 358 1293 524 1533 
Q 691 1773 1190 2125 
Q 710 2522 553 2765 
Q 397 3008 397 3328 
Q 397 3782 745 4054 
Q 1094 4326 1638 4326 
Q 2106 4326 2410 4060 
Q 2714 3795 2714 3411 
Q 2714 3059 2531 2848 
Q 2349 2637 1856 2374 
Q 2432 1990 2640 1689 
Q 2848 1389 2848 992 
z
M 2272 3411 
Q 2272 3744 2086 3945 
Q 1901 4147 1574 4147 
Q 1248 4147 1059 3977 
Q 870 3808 870 3513 
Q 870 3219 1059 2979 
Q 1248 2739 1670 2490 
Q 1997 2682 2134 2896 
Q 2272 3110 2272 3411 
z
M 1734 1741 
L 1357 1997 
Q 1075 1766 960 1545 
Q 845 1325 845 1011 
Q 845 576 1065 333 
Q 1286 90 1658 90 
Q 1971 90 2166 285 
Q 2362 480 2362 794 
Q 2362 1082 2214 1299 
Q 2067 1517 1734 1741 
z
" transform="scale(0.015625)"/>
       </defs>
       <use xlink:href="#STIXGeneral-Regular-38"/>
      </g>
     </g>
    </g>
    <g id="text_7">
     <!-- $u_d$ -->
     <g transform="translate(334.173 496.169062) scale(0.14 -0.14)">
      <defs>
       <path id="STIXGeneral-Italic-75" d="M 2950 762 
L 3040 704 
Q 2733 237 2560 89 
Q 2387 -58 2157 -58 
Q 1850 -58 1850 250 
Q 1850 538 2138 1510 
Q 1568 576 1257 253 
Q 947 -70 608 -70 
Q 269 -70 269 269 
Q 269 384 442 1088 
L 666 1978 
Q 755 2349 755 2406 
Q 755 2483 684 2521 
Q 614 2560 365 2560 
L 365 2650 
Q 806 2701 1325 2822 
L 1350 2803 
L 781 531 
Q 762 474 762 429 
Q 762 269 890 269 
Q 1178 269 1798 1210 
Q 2010 1530 2128 1795 
Q 2246 2061 2502 2765 
L 2976 2765 
L 2470 851 
Q 2349 390 2349 352 
Q 2349 243 2419 243 
Q 2496 243 2605 345 
Q 2714 448 2950 762 
z
" transform="scale(0.015625)"/>
       <path id="STIXGeneral-Italic-64" d="M 3334 4371 
L 3373 4333 
L 3123 3360 
L 2739 1958 
Q 2323 429 2323 384 
Q 2323 256 2438 256 
Q 2522 256 2614 336 
Q 2707 416 2963 710 
L 3040 646 
Q 2547 -83 2099 -83 
Q 1978 -83 1907 -6 
Q 1837 70 1837 205 
Q 1837 397 1920 774 
Q 1645 307 1379 118 
Q 1114 -70 781 -70 
Q 461 -70 278 125 
Q 96 320 96 678 
Q 96 1440 713 2131 
Q 1331 2822 1965 2822 
Q 2163 2822 2256 2732 
Q 2349 2643 2381 2451 
L 2387 2451 
L 2675 3494 
Q 2765 3808 2765 3949 
Q 2765 4051 2694 4076 
Q 2624 4102 2355 4115 
L 2355 4224 
Q 2848 4269 3334 4371 
z
M 2278 2310 
Q 2278 2477 2185 2576 
Q 2093 2675 1978 2675 
Q 1677 2675 1395 2381 
Q 1075 2042 864 1571 
Q 653 1101 653 704 
Q 653 486 752 361 
Q 851 237 1024 237 
Q 1312 237 1606 550 
Q 1901 864 2089 1350 
Q 2278 1837 2278 2310 
z
" transform="scale(0.015625)"/>
      </defs>
      <use xlink:href="#STIXGeneral-Italic-75" transform="translate(0 0.90625)"/>
      <use xlink:href="#STIXGeneral-Italic-64" transform="translate(49.999985 -12.321875) scale(0.7)"/>
     </g>
    </g>
   </g>
   <g id="matplotlib.axis_2">
    <g id="ytick_1">
     <g id="line2d_13">
      <path d="M 51.8 444.007159 
L 629.146 444.007159 
" clip-path="url(#p4cc50648e8)" style="fill: none; stroke: #b0b0b0; stroke-opacity: 0.3; stroke-width: 0.8; stroke-linecap: square"/>
     </g>
     <g id="line2d_14">
      <defs>
       <path id="md9d6f5e60a" d="M 0 0 
L -3.5 0 
" style="stroke: #000000; stroke-width: 0.8"/>
      </defs>
      <g>
       <use xlink:href="#md9d6f5e60a" x="51.8" y="444.007159" style="stroke: #000000; stroke-width: 0.8"/>
      </g>
     </g>
     <g id="text_8">
      <!-- 0.00 -->
      <g transform="translate(23.8 448.104972) scale(0.12 -0.12)">
       <defs>
        <path id="STIXGeneral-Regular-30" d="M 3046 2112 
Q 3046 1683 2963 1302 
Q 2880 922 2717 602 
Q 2554 282 2266 96 
Q 1978 -90 1600 -90 
Q 1210 -90 915 108 
Q 621 307 461 640 
Q 301 973 227 1350 
Q 154 1728 154 2150 
Q 154 2746 301 3222 
Q 448 3699 790 4012 
Q 1133 4326 1626 4326 
Q 2253 4326 2649 3712 
Q 3046 3098 3046 2112 
z
M 2432 2080 
Q 2432 3091 2217 3625 
Q 2003 4160 1587 4160 
Q 1190 4160 979 3622 
Q 768 3085 768 2106 
Q 768 1120 979 598 
Q 1190 77 1600 77 
Q 2003 77 2217 598 
Q 2432 1120 2432 2080 
z
" transform="scale(0.015625)"/>
        <path id="STIXGeneral-Regular-2e" d="M 1158 275 
Q 1158 134 1052 32 
Q 947 -70 800 -70 
Q 653 -70 550 32 
Q 448 134 448 281 
Q 448 429 553 534 
Q 659 640 806 640 
Q 947 640 1052 531 
Q 1158 422 1158 275 
z
" transform="scale(0.015625)"/>
       </defs>
       <use xlink:href="#STIXGeneral-Regular-30"/>
       <use xlink:href="#STIXGeneral-Regular-2e" x="49.999985"/>
       <use xlink:href="#STIXGeneral-Regular-30" x="74.999969"/>
       <use xlink:href="#STIXGeneral-Regular-30" x="124.999954"/>
      </g>
     </g>
    </g>
    <g id="ytick_2">
     <g id="line2d_15">
      <path d="M 51.8 367.306514 
L 629.146 367.306514 
" clip-path="url(#p4cc50648e8)" style="fill: none; stroke: #b0b0b0; stroke-opacity: 0.3; stroke-width: 0.8; stroke-linecap: square"/>
     </g>
     <g id="line2d_16">
      <g>
       <use xlink:href="#md9d6f5e60a" x="51.8" y="367.306514" style="stroke: #000000; stroke-width: 0.8"/>
      </g>
     </g>
     <g id="text_9">
      <!-- 0.05 -->
      <g transform="translate(23.8 371.404326) scale(0.12 -0.12)">
       <use xlink:href="#STIXGeneral-Regular-30"/>
       <use xlink:href="#STIXGeneral-Regular-2e" x="49.999985"/>
       <use xlink:href="#STIXGeneral-Regular-30" x="74.999969"/>
       <use xlink:href="#STIXGeneral-Regular-35" x="124.999954"/>
      </g>
     </g>
    </g>
    <g id="ytick_3">
     <g id="line2d_17">
      <path d="M 51.8 290.605869 
L 629.146 290.605869 
" clip-path="url(#p4cc50648e8)" style="fill: none; stroke: #b0b0b0; stroke-opacity: 0.3; stroke-width: 0.8; stroke-linecap: square"/>
     </g>
     <g id="line2d_18">
      <g>
       <use xlink:href="#md9d6f5e60a" x="51.8" y="290.605869" style="stroke: #000000; stroke-width: 0.8"/>
      </g>
     </g>
     <g id="text_10">
      <!-- 0.10 -->
      <g transform="translate(23.8 294.703681) scale(0.12 -0.12)">
       <defs>
        <path id="STIXGeneral-Regular-31" d="M 2522 0 
L 755 0 
L 755 96 
Q 1107 115 1235 227 
Q 1363 339 1363 608 
L 1363 3482 
Q 1363 3795 1171 3795 
Q 1082 3795 883 3718 
L 710 3654 
L 710 3744 
L 1856 4326 
L 1914 4307 
L 1914 486 
Q 1914 275 2042 185 
Q 2170 96 2522 96 
L 2522 0 
z
" transform="scale(0.015625)"/>
       </defs>
       <use xlink:href="#STIXGeneral-Regular-30"/>
       <use xlink:href="#STIXGeneral-Regular-2e" x="49.999985"/>
       <use xlink:href="#STIXGeneral-Regular-31" x="74.999969"/>
       <use xlink:href="#STIXGeneral-Regular-30" x="124.999954"/>
      </g>
     </g>
    </g>
    <g id="ytick_4">
     <g id="line2d_19">
      <path d="M 51.8 213.905223 
L 629.146 213.905223 
" clip-path="url(#p4cc50648e8)" style="fill: none; stroke: #b0b0b0; stroke-opacity: 0.3; stroke-width: 0.8; stroke-linecap: square"/>
     </g>
     <g id="line2d_20">
      <g>
       <use xlink:href="#md9d6f5e60a" x="51.8" y="213.905223" style="stroke: #000000; stroke-width: 0.8"/>
      </g>
     </g>
     <g id="text_11">
      <!-- 0.15 -->
      <g transform="translate(23.8 218.003036) scale(0.12 -0.12)">
       <use xlink:href="#STIXGeneral-Regular-30"/>
       <use xlink:href="#STIXGeneral-Regular-2e" x="49.999985"/>
       <use xlink:href="#STIXGeneral-Regular-31" x="74.999969"/>
       <use xlink:href="#STIXGeneral-Regular-35" x="124.999954"/>
      </g>
     </g>
    </g>
    <g id="ytick_5">
     <g id="line2d_21">
      <path d="M 51.8 137.204578 
L 629.146 137.204578 
" clip-path="url(#p4cc50648e8)" style="fill: none; stroke: #b0b0b0; stroke-opacity: 0.3; stroke-width: 0.8; stroke-linecap: square"/>
     </g>
     <g id="line2d_22">
      <g>
       <use xlink:href="#md9d6f5e60a" x="51.8" y="137.204578" style="stroke: #000000; stroke-width: 0.8"/>
      </g>
     </g>
     <g id="text_12">
      <!-- 0.20 -->
      <g transform="translate(23.8 141.30239) scale(0.12 -0.12)">
       <defs>
        <path id="STIXGeneral-Regular-32" d="M 3034 877 
L 2688 0 
L 186 0 
L 186 77 
L 1325 1286 
Q 1773 1754 1965 2144 
Q 2157 2534 2157 2950 
Q 2157 3379 1920 3616 
Q 1683 3853 1267 3853 
Q 922 3853 720 3673 
Q 518 3494 326 3021 
L 192 3053 
Q 301 3648 630 3987 
Q 960 4326 1523 4326 
Q 2054 4326 2380 4006 
Q 2707 3686 2707 3200 
Q 2707 2477 1888 1613 
L 832 486 
L 2330 486 
Q 2541 486 2665 569 
Q 2790 653 2944 915 
L 3034 877 
z
" transform="scale(0.015625)"/>
       </defs>
       <use xlink:href="#STIXGeneral-Regular-30"/>
       <use xlink:href="#STIXGeneral-Regular-2e" x="49.999985"/>
       <use xlink:href="#STIXGeneral-Regular-32" x="74.999969"/>
       <use xlink:href="#STIXGeneral-Regular-30" x="124.999954"/>
      </g>
     </g>
    </g>
    <g id="ytick_6">
     <g id="line2d_23">
      <path d="M 51.8 60.503933 
L 629.146 60.503933 
" clip-path="url(#p4cc50648e8)" style="fill: none; stroke: #b0b0b0; stroke-opacity: 0.3; stroke-width: 0.8; stroke-linecap: square"/>
     </g>
     <g id="line2d_24">
      <g>
       <use xlink:href="#md9d6f5e60a" x="51.8" y="60.503933" style="stroke: #000000; stroke-width: 0.8"/>
      </g>
     </g>
     <g id="text_13">
      <!-- 0.25 -->
      <g transform="translate(23.8 64.601745) scale(0.12 -0.12)">
       <use xlink:href="#STIXGeneral-Regular-30"/>
       <use xlink:href="#STIXGeneral-Regular-2e" x="49.999985"/>
       <use xlink:href="#STIXGeneral-Regular-32" x="74.999969"/>
       <use xlink:href="#STIXGeneral-Regular-35" x="124.999954"/>
      </g>
     </g>
    </g>
    <g id="text_14">
     <!-- $\Delta n = n_{\rm max} - n_{\rm min}$ -->
     <g transform="translate(16.761563 281.92375) rotate(-90) scale(0.14 -0.14)">
      <defs>
       <path id="STIXGeneral-Regular-394" d="M 4320 0 
L 307 0 
L 2221 4314 
L 2349 4314 
L 4320 0 
z
M 3354 589 
L 2118 3405 
L 870 589 
L 3354 589 
z
" transform="scale(0.015625)"/>
       <path id="STIXGeneral-Italic-6e" d="M 2944 749 
L 3034 666 
Q 2707 218 2534 80 
Q 2362 -58 2138 -58 
Q 2010 -58 1923 28 
Q 1837 115 1837 288 
Q 1837 390 1939 768 
L 2221 1805 
Q 2310 2150 2310 2310 
Q 2310 2496 2157 2496 
Q 1971 2496 1750 2275 
Q 1530 2054 1210 1587 
Q 998 1274 899 1024 
Q 800 774 570 0 
L 90 0 
L 704 2240 
Q 717 2304 717 2349 
Q 717 2445 630 2480 
Q 544 2515 301 2522 
L 301 2624 
Q 550 2675 857 2729 
Q 1165 2784 1338 2822 
L 1363 2810 
L 934 1414 
Q 1408 2170 1753 2496 
Q 2099 2822 2413 2822 
Q 2611 2822 2720 2716 
Q 2829 2611 2829 2432 
Q 2829 2272 2765 2048 
L 2406 749 
Q 2317 429 2317 358 
Q 2317 243 2419 243 
Q 2541 243 2810 582 
Q 2854 634 2944 749 
z
" transform="scale(0.015625)"/>
       <path id="STIXGeneral-Regular-3d" d="M 4077 2048 
L 307 2048 
L 307 2470 
L 4077 2470 
L 4077 2048 
z
M 4077 768 
L 307 768 
L 307 1190 
L 4077 1190 
L 4077 768 
z
" transform="scale(0.015625)"/>
       <path id="STIXGeneral-Regular-6d" d="M 4960 0 
L 3565 0 
L 3565 96 
Q 3834 122 3907 208 
Q 3981 294 3981 576 
L 3981 1894 
Q 3981 2278 3869 2444 
Q 3757 2611 3488 2611 
Q 3264 2611 3107 2521 
Q 2950 2432 2803 2221 
L 2803 608 
Q 2803 301 2896 201 
Q 2989 102 3264 96 
L 3264 0 
L 1830 0 
L 1830 96 
Q 2112 115 2189 188 
Q 2266 262 2266 550 
L 2266 1901 
Q 2266 2611 1850 2611 
Q 1670 2611 1468 2531 
Q 1267 2451 1171 2336 
Q 1088 2240 1088 2227 
L 1088 448 
Q 1088 243 1177 176 
Q 1267 109 1523 96 
L 1523 0 
L 102 0 
L 102 96 
Q 371 102 460 195 
Q 550 288 550 563 
L 550 2150 
Q 550 2387 499 2480 
Q 448 2573 326 2573 
Q 230 2573 122 2547 
L 122 2656 
Q 557 2778 1011 2944 
L 1062 2925 
L 1062 2451 
L 1075 2451 
Q 1363 2752 1584 2848 
Q 1805 2944 2054 2944 
Q 2560 2944 2733 2406 
Q 3232 2944 3776 2944 
Q 4518 2944 4518 1792 
L 4518 493 
Q 4518 282 4582 202 
Q 4646 122 4794 109 
L 4960 96 
L 4960 0 
z
" transform="scale(0.015625)"/>
       <path id="STIXGeneral-Regular-61" d="M 2829 422 
L 2829 243 
Q 2586 -64 2253 -64 
Q 1888 -64 1843 403 
L 1837 403 
Q 1427 -64 909 -64 
Q 608 -64 422 112 
Q 237 288 237 602 
Q 237 1050 685 1350 
Q 992 1555 1837 1869 
L 1837 2214 
Q 1837 2502 1699 2646 
Q 1562 2790 1338 2790 
Q 1146 2790 1018 2697 
Q 890 2605 890 2477 
Q 890 2419 909 2348 
Q 928 2278 928 2208 
Q 928 2112 841 2029 
Q 755 1946 634 1946 
Q 525 1946 441 2029 
Q 358 2112 358 2240 
Q 358 2547 685 2752 
Q 986 2944 1421 2944 
Q 1939 2944 2176 2656 
Q 2291 2522 2323 2384 
Q 2355 2246 2355 1946 
L 2355 723 
Q 2355 301 2554 301 
Q 2682 301 2829 422 
z
M 1837 813 
L 1837 1715 
Q 1248 1510 1018 1293 
Q 800 1094 800 800 
Q 800 557 921 432 
Q 1043 307 1242 307 
Q 1453 307 1613 410 
Q 1747 506 1792 589 
Q 1837 672 1837 813 
z
" transform="scale(0.015625)"/>
       <path id="STIXGeneral-Regular-78" d="M 3066 0 
L 1779 0 
L 1779 96 
Q 1939 109 1987 137 
Q 2035 166 2035 250 
Q 2035 307 1997 365 
L 1414 1261 
L 909 474 
Q 781 275 781 211 
Q 781 96 1037 96 
L 1037 0 
L 109 0 
L 109 96 
Q 269 109 355 169 
Q 442 230 576 422 
L 1306 1478 
L 704 2400 
Q 557 2624 454 2704 
Q 352 2784 211 2784 
L 154 2784 
L 154 2880 
L 1478 2880 
L 1478 2784 
Q 1203 2778 1203 2643 
Q 1203 2509 1498 2074 
Q 1581 1958 1587 1946 
Q 1619 1990 1779 2227 
Q 1811 2285 1856 2349 
Q 1901 2413 1923 2451 
Q 1946 2490 1971 2528 
Q 1997 2566 2006 2595 
Q 2016 2624 2016 2643 
Q 2016 2765 1760 2784 
L 1760 2880 
L 2771 2880 
L 2771 2784 
Q 2445 2771 2253 2502 
L 1722 1734 
L 2541 480 
Q 2790 96 3066 96 
L 3066 0 
z
" transform="scale(0.015625)"/>
       <path id="STIXGeneral-Regular-2212" d="M 3974 1408 
L 410 1408 
L 410 1830 
L 3974 1830 
L 3974 1408 
z
" transform="scale(0.015625)"/>
       <path id="STIXGeneral-Regular-69" d="M 1152 4045 
Q 1152 3904 1056 3811 
Q 960 3718 819 3718 
Q 685 3718 592 3811 
Q 499 3904 499 4045 
Q 499 4179 595 4275 
Q 691 4371 826 4371 
Q 966 4371 1059 4275 
Q 1152 4179 1152 4045 
z
M 1619 0 
L 102 0 
L 102 96 
Q 435 115 521 211 
Q 608 307 608 666 
L 608 2118 
Q 608 2342 563 2432 
Q 518 2522 397 2522 
Q 243 2522 128 2490 
L 128 2592 
L 1120 2944 
L 1146 2918 
L 1146 672 
Q 1146 314 1226 218 
Q 1306 122 1619 96 
L 1619 0 
z
" transform="scale(0.015625)"/>
       <path id="STIXGeneral-Regular-6e" d="M 3104 0 
L 1773 0 
L 1779 96 
Q 2016 115 2096 233 
Q 2176 352 2176 672 
L 2176 1946 
Q 2176 2592 1709 2592 
Q 1549 2592 1408 2515 
Q 1267 2438 1050 2227 
L 1050 461 
Q 1050 269 1136 192 
Q 1222 115 1466 96 
L 1466 0 
L 115 0 
L 115 96 
Q 358 115 435 214 
Q 512 314 512 602 
L 512 2157 
Q 512 2394 467 2483 
Q 422 2573 288 2573 
Q 160 2573 102 2547 
L 102 2656 
Q 550 2784 979 2944 
L 1030 2925 
L 1030 2426 
L 1037 2426 
Q 1491 2944 1958 2944 
Q 2323 2944 2518 2688 
Q 2714 2432 2714 1958 
L 2714 544 
Q 2714 288 2790 205 
Q 2867 122 3104 96 
L 3104 0 
z
" transform="scale(0.015625)"/>
      </defs>
      <use xlink:href="#STIXGeneral-Regular-394" transform="translate(0 0.59375)"/>
      <use xlink:href="#STIXGeneral-Italic-6e" transform="translate(72.199982 0.59375)"/>
      <use xlink:href="#STIXGeneral-Regular-3d" transform="translate(136.639963 0.59375)"/>
      <use xlink:href="#STIXGeneral-Italic-6e" transform="translate(219.579944 0.59375)"/>
      <use xlink:href="#STIXGeneral-Regular-6d" transform="translate(269.579929 -12.634375) scale(0.7)"/>
      <use xlink:href="#STIXGeneral-Regular-61" transform="translate(324.03992 -12.634375) scale(0.7)"/>
      <use xlink:href="#STIXGeneral-Regular-78" transform="translate(355.119916 -12.634375) scale(0.7)"/>
      <use xlink:href="#STIXGeneral-Regular-2212" transform="translate(408.969276 0.59375)"/>
      <use xlink:href="#STIXGeneral-Italic-6e" transform="translate(491.909258 0.59375)"/>
      <use xlink:href="#STIXGeneral-Regular-6d" transform="translate(541.909242 -12.634375) scale(0.7)"/>
      <use xlink:href="#STIXGeneral-Regular-69" transform="translate(596.369234 -12.634375) scale(0.7)"/>
      <use xlink:href="#STIXGeneral-Regular-6e" transform="translate(615.829225 -12.634375) scale(0.7)"/>
     </g>
    </g>
   </g>
   <g id="line2d_25">
    <path d="M 92.173846 444.007159 
L 92.685087 430.845286 
L 93.196327 425.393459 
L 94.218808 417.683413 
L 95.241289 411.767286 
L 96.77501 404.521539 
L 98.308731 398.413093 
L 100.353692 391.359666 
L 102.398654 385.145472 
L 104.954856 378.197793 
L 107.511058 371.91661 
L 110.5785 365.03592 
L 113.645943 358.708471 
L 117.224625 351.874046 
L 120.803308 345.512718 
L 124.893231 338.712173 
L 128.983155 332.324961 
L 133.584318 325.5503 
L 138.696722 318.45089 
L 143.809126 311.73197 
L 149.43277 304.714985 
L 155.567655 297.442741 
L 161.70254 290.514659 
L 168.348665 283.346021 
L 175.50603 275.96761 
L 182.663396 268.899824 
L 190.332002 261.630893 
L 198.511848 254.183923 
L 207.202935 246.57906 
L 216.405262 238.83386 
L 226.118829 230.963629 
L 236.343637 222.981722 
L 246.568445 215.278188 
L 257.304493 207.459331 
L 268.551782 199.536214 
L 280.310311 191.518652 
L 292.580081 183.415364 
L 305.361091 175.234101 
L 319.164581 166.66928 
L 333.479312 158.058079 
L 348.305284 149.404564 
L 363.642495 140.712359 
L 379.490948 131.984695 
L 395.85064 123.224468 
L 413.232814 114.171561 
L 431.126228 105.104896 
L 449.530882 96.02555 
L 468.958017 86.691994 
L 488.896392 77.359797 
L 509.857248 67.798547 
L 531.329345 58.249741 
L 553.823922 48.493415 
L 576.82974 38.758233 
L 600.858038 28.834023 
L 602.903 28.000341 
L 602.903 28.000341 
" clip-path="url(#p4cc50648e8)" style="fill: none; stroke: #ff0000; stroke-opacity: 0.9; stroke-width: 1.5; stroke-linecap: square"/>
   </g>
   <g id="line2d_26">
    <path d="M 92.173846 464.8075 
L 92.173846 7.2 
" clip-path="url(#p4cc50648e8)" style="fill: none; stroke-dasharray: 7.4,3.2; stroke-dashoffset: 0; stroke: #008000; stroke-opacity: 0.8; stroke-width: 2"/>
   </g>
   <g id="line2d_27">
    <path d="M 51.8 444.007159 
L 629.146 444.007159 
" clip-path="url(#p4cc50648e8)" style="fill: none; stroke-dasharray: 3.7,1.6; stroke-dashoffset: 0; stroke: #000000; stroke-opacity: 0.5"/>
   </g>
   <g id="patch_3">
    <path d="M 51.8 464.8075 
L 51.8 7.2 
" style="fill: none; stroke: #000000; stroke-width: 0.8; stroke-linejoin: miter; stroke-linecap: square"/>
   </g>
   <g id="patch_4">
    <path d="M 629.146 464.8075 
L 629.146 7.2 
" style="fill: none; stroke: #000000; stroke-width: 0.8; stroke-linejoin: miter; stroke-linecap: square"/>
   </g>
   <g id="patch_5">
    <path d="M 51.8 464.8075 
L 629.146 464.8075 
" style="fill: none; stroke: #000000; stroke-width: 0.8; stroke-linejoin: miter; stroke-linecap: square"/>
   </g>
   <g id="patch_6">
    <path d="M 51.8 7.2 
L 629.146 7.2 
" style="fill: none; stroke: #000000; stroke-width: 0.8; stroke-linejoin: miter; stroke-linecap: square"/>
   </g>
   <g id="legend_1">
    <g id="patch_7">
     <path d="M 58.1 95.886562 
L 197.51 95.886562 
Q 199.31 95.886562 199.31 94.086562 
L 199.31 13.5 
Q 199.31 11.7 197.51 11.7 
L 58.1 11.7 
Q 56.3 11.7 56.3 13.5 
L 56.3 94.086562 
Q 56.3 95.886562 58.1 95.886562 
z
" style="fill: #ffffff; opacity: 0.9; stroke: #cccccc; stroke-linejoin: miter"/>
    </g>
    <g id="line2d_28">
     <path d="M 59.9 21.51 
L 68.9 21.51 
L 77.9 21.51 
" style="fill: none; stroke: #ff0000; stroke-opacity: 0.9; stroke-width: 1.5; stroke-linecap: square"/>
    </g>
    <g id="text_15">
     <!-- $0.121 \sqrt{u_d - 2.74}$ -->
     <g transform="translate(85.1 24.66) scale(0.09 -0.09)">
      <defs>
       <path id="STIXGeneral-Regular-221a" d="M 6163 6227 
L 3104 -1658 
L 2899 -1658 
L 1606 1734 
Q 1466 2112 1210 2112 
Q 1011 2112 794 1914 
L 717 2042 
L 1715 2835 
L 1837 2835 
L 3142 -595 
L 3168 -595 
L 5818 6227 
L 6163 6227 
z
" transform="scale(0.015625)"/>
      </defs>
      <use xlink:href="#STIXGeneral-Regular-30" transform="translate(0 0.703125)"/>
      <use xlink:href="#STIXGeneral-Regular-2e" transform="translate(49.999985 0.703125)"/>
      <use xlink:href="#STIXGeneral-Regular-31" transform="translate(74.999969 0.703125)"/>
      <use xlink:href="#STIXGeneral-Regular-32" transform="translate(124.999954 0.703125)"/>
      <use xlink:href="#STIXGeneral-Regular-31" transform="translate(174.999939 0.703125)"/>
      <use xlink:href="#STIXGeneral-Regular-221a" transform="translate(224.999924 0.703125)"/>
      <use xlink:href="#STIXGeneral-Italic-75" transform="translate(330.299911 1.15625)"/>
      <use xlink:href="#STIXGeneral-Italic-64" transform="translate(380.299896 -12.071875) scale(0.7)"/>
      <use xlink:href="#STIXGeneral-Regular-2212" transform="translate(434.149257 1.15625)"/>
      <use xlink:href="#STIXGeneral-Regular-32" transform="translate(517.089238 1.15625)"/>
      <use xlink:href="#STIXGeneral-Regular-2e" transform="translate(567.089223 1.15625)"/>
      <use xlink:href="#STIXGeneral-Regular-37" transform="translate(592.089207 1.15625)"/>
      <use xlink:href="#STIXGeneral-Regular-34" transform="translate(642.089192 1.15625)"/>
      <path d="M 317.799911 91.5 
L 317.799911 97.75 
L 704.589177 97.75 
L 704.589177 91.5 
L 317.799911 91.5 
z
"/>
     </g>
    </g>
    <g id="PathCollection_1">
     <defs>
      <path id="mc969a4ec67" d="M 0 3.535534 
C 0.937635 3.535534 1.836992 3.163008 2.5 2.5 
C 3.163008 1.836992 3.535534 0.937635 3.535534 0 
C 3.535534 -0.937635 3.163008 -1.836992 2.5 -2.5 
C 1.836992 -3.163008 0.937635 -3.535534 0 -3.535534 
C -0.937635 -3.535534 -1.836992 -3.163008 -2.5 -2.5 
C -3.163008 -1.836992 -3.535534 -0.937635 -3.535534 0 
C -3.535534 0.937635 -3.163008 1.836992 -2.5 2.5 
C -1.836992 3.163008 -0.937635 3.535534 0 3.535534 
z
" style="stroke: #000000; stroke-opacity: 0.8"/>
     </defs>
     <g>
      <use xlink:href="#mc969a4ec67" x="68.9" y="35.4375" style="fill-opacity: 0.8; stroke: #000000; stroke-opacity: 0.8"/>
     </g>
    </g>
    <g id="text_16">
     <!-- $\Delta n=n_{\rm max} - n_{\rm min}$ -->
     <g transform="translate(85.1 37.8) scale(0.09 -0.09)">
      <use xlink:href="#STIXGeneral-Regular-394" transform="translate(0 0.59375)"/>
      <use xlink:href="#STIXGeneral-Italic-6e" transform="translate(72.199982 0.59375)"/>
      <use xlink:href="#STIXGeneral-Regular-3d" transform="translate(136.639963 0.59375)"/>
      <use xlink:href="#STIXGeneral-Italic-6e" transform="translate(219.579944 0.59375)"/>
      <use xlink:href="#STIXGeneral-Regular-6d" transform="translate(269.579929 -12.634375) scale(0.7)"/>
      <use xlink:href="#STIXGeneral-Regular-61" transform="translate(324.03992 -12.634375) scale(0.7)"/>
      <use xlink:href="#STIXGeneral-Regular-78" transform="translate(355.119916 -12.634375) scale(0.7)"/>
      <use xlink:href="#STIXGeneral-Regular-2212" transform="translate(408.969276 0.59375)"/>
      <use xlink:href="#STIXGeneral-Italic-6e" transform="translate(491.909258 0.59375)"/>
      <use xlink:href="#STIXGeneral-Regular-6d" transform="translate(541.909242 -12.634375) scale(0.7)"/>
      <use xlink:href="#STIXGeneral-Regular-69" transform="translate(596.369234 -12.634375) scale(0.7)"/>
      <use xlink:href="#STIXGeneral-Regular-6e" transform="translate(615.829225 -12.634375) scale(0.7)"/>
     </g>
    </g>
    <g id="line2d_29">
     <path d="M 59.9 47.403281 
L 68.9 47.403281 
L 77.9 47.403281 
" style="fill: none; stroke-dasharray: 7.4,3.2; stroke-dashoffset: 0; stroke: #008000; stroke-opacity: 0.8; stroke-width: 2"/>
    </g>
    <g id="text_17">
     <!-- $u^{\bigstar} = 2.74$ -->
     <g transform="translate(85.1 50.553281) scale(0.09 -0.09)">
      <defs>
       <path id="STIXGeneral-Regular-2605" d="M 5184 2445 
L 3725 1318 
L 4250 -422 
L 2784 614 
L 1318 -422 
L 1843 1318 
L 384 2445 
L 2189 2445 
L 2784 4192 
L 3379 2445 
L 5184 2445 
z
" transform="scale(0.015625)"/>
      </defs>
      <use xlink:href="#STIXGeneral-Italic-75" transform="translate(0 0.875)"/>
      <use xlink:href="#STIXGeneral-Regular-2605" transform="translate(56.17311 36.15) scale(0.7)"/>
      <use xlink:href="#STIXGeneral-Regular-3d" transform="translate(135.92247 0.875)"/>
      <use xlink:href="#STIXGeneral-Regular-32" transform="translate(218.862451 0.875)"/>
      <use xlink:href="#STIXGeneral-Regular-2e" transform="translate(268.862436 0.875)"/>
      <use xlink:href="#STIXGeneral-Regular-37" transform="translate(293.862421 0.875)"/>
      <use xlink:href="#STIXGeneral-Regular-34" transform="translate(343.862406 0.875)"/>
     </g>
    </g>
    <g id="line2d_30">
     <path d="M 59.9 61.236562 
L 68.9 61.236562 
L 77.9 61.236562 
" style="fill: none; stroke-dasharray: 7.4,3.2; stroke-dashoffset: 0; stroke: #bf00bf; stroke-opacity: 0.8; stroke-width: 2"/>
    </g>
    <g id="text_18">
     <!-- $\langle j \rangle$ fit ($u_d &gt; u^{\bigstar}$): slope = 0.208 -->
     <g transform="translate(85.1 64.386562) scale(0.09 -0.09)">
      <defs>
       <path id="STIXGeneral-Regular-27e8" d="M 2144 4563 
L 915 1606 
L 2138 -1363 
L 1805 -1363 
L 493 1542 
L 493 1670 
L 1811 4563 
L 2144 4563 
z
" transform="scale(0.015625)"/>
       <path id="STIXGeneral-Italic-6a" d="M 1786 3827 
Q 1786 3699 1690 3603 
Q 1594 3507 1466 3507 
Q 1318 3507 1219 3600 
Q 1120 3693 1120 3840 
Q 1120 3981 1222 4077 
Q 1325 4173 1459 4173 
Q 1587 4173 1686 4067 
Q 1786 3962 1786 3827 
z
M 1574 2803 
L 909 179 
Q 710 -595 419 -960 
Q 128 -1325 -288 -1325 
Q -512 -1325 -653 -1216 
Q -794 -1107 -794 -934 
Q -794 -819 -717 -736 
Q -640 -653 -531 -653 
Q -282 -653 -282 -890 
Q -282 -966 -320 -1014 
Q -358 -1062 -358 -1107 
Q -358 -1184 -243 -1184 
Q -51 -1184 80 -934 
Q 211 -685 378 -19 
L 838 1850 
Q 941 2266 941 2362 
Q 941 2470 873 2515 
Q 806 2560 634 2560 
L 467 2560 
L 467 2662 
Q 755 2682 1549 2822 
L 1574 2803 
z
" transform="scale(0.015625)"/>
       <path id="STIXGeneral-Regular-27e9" d="M 2067 1536 
L 749 -1363 
L 416 -1363 
L 1645 1600 
L 422 4563 
L 755 4563 
L 2067 1664 
L 2067 1536 
z
" transform="scale(0.015625)"/>
       <path id="STIXGeneral-Regular-20" transform="scale(0.015625)"/>
       <path id="STIXGeneral-Regular-66" d="M 134 2880 
L 659 2880 
Q 666 3264 710 3478 
Q 755 3693 883 3910 
Q 1152 4371 1786 4371 
Q 2074 4371 2262 4259 
Q 2451 4147 2451 3974 
Q 2451 3866 2374 3789 
Q 2298 3712 2182 3712 
Q 2029 3712 1894 3942 
Q 1741 4192 1555 4192 
Q 1197 4192 1197 3622 
L 1197 2880 
L 1978 2880 
L 1978 2675 
L 1197 2675 
L 1197 666 
Q 1197 307 1299 208 
Q 1402 109 1792 96 
L 1792 0 
L 128 0 
L 128 96 
Q 474 115 566 214 
Q 659 314 659 666 
L 659 2675 
L 134 2675 
L 134 2880 
z
" transform="scale(0.015625)"/>
       <path id="STIXGeneral-Regular-74" d="M 1702 493 
L 1786 422 
Q 1478 -64 1011 -64 
Q 448 -64 448 749 
L 448 2675 
L 109 2675 
Q 83 2694 83 2720 
Q 83 2771 192 2842 
Q 435 2982 813 3526 
Q 826 3546 874 3606 
Q 922 3667 941 3706 
Q 986 3706 986 3622 
L 986 2880 
L 1632 2880 
L 1632 2675 
L 986 2675 
L 986 845 
Q 986 538 1062 403 
Q 1139 269 1318 269 
Q 1510 269 1702 493 
z
" transform="scale(0.015625)"/>
       <path id="STIXGeneral-Regular-28" d="M 1946 -1030 
L 1869 -1133 
Q 1126 -710 716 32 
Q 307 774 307 1613 
Q 307 3386 1888 4326 
L 1946 4224 
Q 1293 3667 1075 3126 
Q 858 2586 858 1632 
Q 858 685 1082 96 
Q 1306 -493 1946 -1030 
z
" transform="scale(0.015625)"/>
       <path id="STIXGeneral-Regular-3e" d="M 3974 1594 
L 358 -154 
L 358 250 
L 3123 1626 
L 358 3002 
L 358 3418 
L 3974 1658 
L 3974 1594 
z
" transform="scale(0.015625)"/>
       <path id="STIXGeneral-Regular-29" d="M 186 4224 
L 262 4326 
Q 992 3891 1408 3148 
Q 1824 2406 1824 1581 
Q 1824 -166 243 -1133 
L 186 -1030 
Q 845 -486 1059 54 
Q 1274 595 1274 1562 
Q 1274 2534 1059 3120 
Q 845 3706 186 4224 
z
" transform="scale(0.015625)"/>
       <path id="STIXGeneral-Regular-3a" d="M 1123 2832 
Q 1229 2726 1229 2579 
Q 1229 2432 1126 2329 
Q 1024 2227 877 2227 
Q 730 2227 624 2332 
Q 518 2438 518 2579 
Q 518 2733 620 2835 
Q 723 2938 877 2938 
Q 1018 2938 1123 2832 
z
M 1229 282 
Q 1229 141 1126 35 
Q 1024 -70 877 -70 
Q 730 -70 624 35 
Q 518 141 518 282 
Q 518 435 620 537 
Q 723 640 877 640 
Q 1018 640 1123 534 
Q 1229 429 1229 282 
z
" transform="scale(0.015625)"/>
       <path id="STIXGeneral-Regular-73" d="M 998 1926 
L 1664 1523 
Q 1984 1331 2105 1164 
Q 2227 998 2227 736 
Q 2227 416 1961 176 
Q 1696 -64 1331 -64 
Q 1030 -64 864 -6 
Q 691 51 570 51 
Q 461 51 416 -26 
L 333 -26 
L 333 979 
L 435 979 
Q 538 512 730 294 
Q 922 77 1248 77 
Q 1485 77 1632 211 
Q 1779 346 1779 550 
Q 1779 845 1440 1030 
L 1094 1222 
Q 326 1651 326 2150 
Q 326 2522 566 2730 
Q 806 2938 1210 2938 
Q 1491 2938 1638 2867 
Q 1754 2816 1818 2816 
Q 1862 2816 1920 2880 
L 1990 2880 
L 2022 2010 
L 1926 2010 
Q 1818 2445 1654 2621 
Q 1491 2797 1203 2797 
Q 986 2797 854 2688 
Q 723 2579 723 2362 
Q 723 2253 796 2128 
Q 870 2003 998 1926 
z
" transform="scale(0.015625)"/>
       <path id="STIXGeneral-Regular-6c" d="M 1645 0 
L 134 0 
L 134 96 
Q 435 122 531 221 
Q 627 320 627 589 
L 627 3590 
Q 627 3821 569 3910 
Q 512 4000 358 4000 
Q 224 4000 122 3987 
L 122 4090 
Q 730 4237 1133 4371 
L 1165 4346 
L 1165 557 
Q 1165 288 1254 201 
Q 1344 115 1645 96 
L 1645 0 
z
" transform="scale(0.015625)"/>
       <path id="STIXGeneral-Regular-6f" d="M 3008 1478 
Q 3008 806 2608 371 
Q 2208 -64 1568 -64 
Q 979 -64 582 368 
Q 186 800 186 1459 
Q 186 2125 582 2534 
Q 979 2944 1626 2944 
Q 2221 2944 2614 2537 
Q 3008 2131 3008 1478 
z
M 2432 1306 
Q 2432 2035 2112 2445 
Q 1856 2765 1504 2765 
Q 1171 2765 966 2493 
Q 762 2221 762 1747 
Q 762 928 1101 435 
Q 1318 115 1677 115 
Q 2029 115 2230 432 
Q 2432 749 2432 1306 
z
" transform="scale(0.015625)"/>
       <path id="STIXGeneral-Regular-70" d="M 1018 2931 
L 1018 2438 
Q 1421 2944 1939 2944 
Q 2406 2944 2707 2560 
Q 3008 2176 3008 1581 
Q 3008 883 2621 409 
Q 2234 -64 1664 -64 
Q 1466 -64 1328 -6 
Q 1190 51 1018 211 
L 1018 -794 
Q 1018 -1094 1120 -1180 
Q 1222 -1267 1581 -1274 
L 1581 -1389 
L 32 -1389 
L 32 -1280 
Q 314 -1254 397 -1171 
Q 480 -1088 480 -838 
L 480 2157 
Q 480 2381 429 2451 
Q 378 2522 218 2522 
Q 115 2522 58 2515 
L 58 2618 
Q 506 2752 979 2944 
L 1018 2931 
z
M 1018 2138 
L 1018 563 
Q 1018 422 1238 281 
Q 1459 141 1683 141 
Q 2029 141 2243 467 
Q 2458 794 2458 1325 
Q 2458 1888 2243 2224 
Q 2029 2560 1670 2560 
Q 1446 2560 1232 2419 
Q 1018 2278 1018 2138 
z
" transform="scale(0.015625)"/>
       <path id="STIXGeneral-Regular-65" d="M 2611 1050 
L 2714 1005 
Q 2330 -64 1376 -64 
Q 813 -64 486 329 
Q 160 723 160 1389 
Q 160 2074 525 2509 
Q 890 2944 1485 2944 
Q 2061 2944 2374 2502 
Q 2560 2246 2592 1773 
L 621 1773 
Q 646 1370 700 1158 
Q 755 947 915 730 
Q 1184 378 1626 378 
Q 1939 378 2153 531 
Q 2368 685 2611 1050 
z
M 634 1978 
L 1939 1978 
Q 1882 2381 1750 2547 
Q 1619 2714 1312 2714 
Q 1043 2714 864 2525 
Q 685 2336 634 1978 
z
" transform="scale(0.015625)"/>
      </defs>
      <use xlink:href="#STIXGeneral-Regular-27e8" transform="translate(0 0.875)"/>
      <use xlink:href="#STIXGeneral-Italic-6a" transform="translate(39.999985 0.875)"/>
      <use xlink:href="#STIXGeneral-Regular-27e9" transform="translate(67.799973 0.875)"/>
      <use xlink:href="#STIXGeneral-Regular-20" transform="translate(107.799957 0.875)"/>
      <use xlink:href="#STIXGeneral-Regular-66" transform="translate(132.799942 0.875)"/>
      <use xlink:href="#STIXGeneral-Regular-69" transform="translate(166.09993 0.875)"/>
      <use xlink:href="#STIXGeneral-Regular-74" transform="translate(193.899918 0.875)"/>
      <use xlink:href="#STIXGeneral-Regular-20" transform="translate(221.699905 0.875)"/>
      <use xlink:href="#STIXGeneral-Regular-28" transform="translate(246.69989 0.875)"/>
      <use xlink:href="#STIXGeneral-Italic-75" transform="translate(279.999878 0.875)"/>
      <use xlink:href="#STIXGeneral-Italic-64" transform="translate(329.999863 -12.353125) scale(0.7)"/>
      <use xlink:href="#STIXGeneral-Regular-3e" transform="translate(383.849223 0.875)"/>
      <use xlink:href="#STIXGeneral-Italic-75" transform="translate(466.789204 0.875)"/>
      <use xlink:href="#STIXGeneral-Regular-2605" transform="translate(522.962314 36.15) scale(0.7)"/>
      <use xlink:href="#STIXGeneral-Regular-29" transform="translate(588.271678 0.875)"/>
      <use xlink:href="#STIXGeneral-Regular-3a" transform="translate(621.571666 0.875)"/>
      <use xlink:href="#STIXGeneral-Regular-20" transform="translate(649.371654 0.875)"/>
      <use xlink:href="#STIXGeneral-Regular-73" transform="translate(674.371639 0.875)"/>
      <use xlink:href="#STIXGeneral-Regular-6c" transform="translate(713.271633 0.875)"/>
      <use xlink:href="#STIXGeneral-Regular-6f" transform="translate(741.07162 0.875)"/>
      <use xlink:href="#STIXGeneral-Regular-70" transform="translate(791.071605 0.875)"/>
      <use xlink:href="#STIXGeneral-Regular-65" transform="translate(841.07159 0.875)"/>
      <use xlink:href="#STIXGeneral-Regular-20" transform="translate(885.471584 0.875)"/>
      <use xlink:href="#STIXGeneral-Regular-3d" transform="translate(910.471569 0.875)"/>
      <use xlink:href="#STIXGeneral-Regular-20" transform="translate(978.971553 0.875)"/>
      <use xlink:href="#STIXGeneral-Regular-30" transform="translate(1003.971538 0.875)"/>
      <use xlink:href="#STIXGeneral-Regular-2e" transform="translate(1053.971523 0.875)"/>
      <use xlink:href="#STIXGeneral-Regular-32" transform="translate(1078.971508 0.875)"/>
      <use xlink:href="#STIXGeneral-Regular-30" transform="translate(1128.971492 0.875)"/>
      <use xlink:href="#STIXGeneral-Regular-38" transform="translate(1178.971477 0.875)"/>
     </g>
    </g>
    <g id="line2d_31">
     <path d="M 59.9 74.196562 
L 68.9 74.196562 
L 77.9 74.196562 
" style="fill: none; stroke-dasharray: 2,3.3; stroke-dashoffset: 0; stroke: #000000; stroke-opacity: 0.6; stroke-width: 2"/>
    </g>
    <g id="text_19">
     <!-- $\langle j \rangle$ fit (overall): slope = 0.208 -->
     <g transform="translate(85.1 77.346562) scale(0.09 -0.09)">
      <defs>
       <path id="STIXGeneral-Regular-76" d="M 3053 2880 
L 3053 2784 
Q 2906 2771 2835 2688 
Q 2765 2605 2637 2285 
L 1818 230 
Q 1690 -90 1638 -90 
Q 1587 -90 1523 77 
Q 1510 96 1497 141 
Q 1485 186 1472 211 
L 704 2048 
Q 499 2534 403 2652 
Q 307 2771 122 2784 
L 122 2880 
L 1376 2880 
L 1376 2784 
Q 1210 2771 1146 2732 
Q 1082 2694 1082 2611 
Q 1082 2509 1139 2368 
L 1792 730 
L 2426 2387 
Q 2464 2483 2464 2579 
Q 2464 2758 2163 2784 
L 2163 2880 
L 3053 2880 
z
" transform="scale(0.015625)"/>
       <path id="STIXGeneral-Regular-72" d="M 1024 2931 
L 1024 2342 
Q 1267 2688 1430 2816 
Q 1594 2944 1792 2944 
Q 1958 2944 2051 2854 
Q 2144 2765 2144 2605 
Q 2144 2470 2077 2393 
Q 2010 2317 1894 2317 
Q 1773 2317 1638 2445 
Q 1536 2541 1472 2541 
Q 1338 2541 1181 2355 
Q 1024 2170 1024 2016 
L 1024 576 
Q 1024 301 1133 205 
Q 1242 109 1568 96 
L 1568 0 
L 32 0 
L 32 96 
Q 339 154 412 224 
Q 486 294 486 538 
L 486 2138 
Q 486 2349 438 2435 
Q 390 2522 269 2522 
Q 166 2522 45 2496 
L 45 2598 
Q 448 2726 992 2944 
L 1024 2931 
z
" transform="scale(0.015625)"/>
      </defs>
      <use xlink:href="#STIXGeneral-Regular-27e8" transform="translate(0 0.703125)"/>
      <use xlink:href="#STIXGeneral-Italic-6a" transform="translate(39.999985 0.703125)"/>
      <use xlink:href="#STIXGeneral-Regular-27e9" transform="translate(67.799973 0.703125)"/>
      <use xlink:href="#STIXGeneral-Regular-20" transform="translate(107.799957 0.703125)"/>
      <use xlink:href="#STIXGeneral-Regular-66" transform="translate(132.799942 0.703125)"/>
      <use xlink:href="#STIXGeneral-Regular-69" transform="translate(166.09993 0.703125)"/>
      <use xlink:href="#STIXGeneral-Regular-74" transform="translate(193.899918 0.703125)"/>
      <use xlink:href="#STIXGeneral-Regular-20" transform="translate(221.699905 0.703125)"/>
      <use xlink:href="#STIXGeneral-Regular-28" transform="translate(246.69989 0.703125)"/>
      <use xlink:href="#STIXGeneral-Regular-6f" transform="translate(279.999878 0.703125)"/>
      <use xlink:href="#STIXGeneral-Regular-76" transform="translate(329.999863 0.703125)"/>
      <use xlink:href="#STIXGeneral-Regular-65" transform="translate(379.999847 0.703125)"/>
      <use xlink:href="#STIXGeneral-Regular-72" transform="translate(424.399841 0.703125)"/>
      <use xlink:href="#STIXGeneral-Regular-61" transform="translate(457.699829 0.703125)"/>
      <use xlink:href="#STIXGeneral-Regular-6c" transform="translate(502.099823 0.703125)"/>
      <use xlink:href="#STIXGeneral-Regular-6c" transform="translate(529.899811 0.703125)"/>
      <use xlink:href="#STIXGeneral-Regular-29" transform="translate(557.699799 0.703125)"/>
      <use xlink:href="#STIXGeneral-Regular-3a" transform="translate(590.999786 0.703125)"/>
      <use xlink:href="#STIXGeneral-Regular-20" transform="translate(618.799774 0.703125)"/>
      <use xlink:href="#STIXGeneral-Regular-73" transform="translate(643.799759 0.703125)"/>
      <use xlink:href="#STIXGeneral-Regular-6c" transform="translate(682.699753 0.703125)"/>
      <use xlink:href="#STIXGeneral-Regular-6f" transform="translate(710.499741 0.703125)"/>
      <use xlink:href="#STIXGeneral-Regular-70" transform="translate(760.499725 0.703125)"/>
      <use xlink:href="#STIXGeneral-Regular-65" transform="translate(810.49971 0.703125)"/>
      <use xlink:href="#STIXGeneral-Regular-20" transform="translate(854.899704 0.703125)"/>
      <use xlink:href="#STIXGeneral-Regular-3d" transform="translate(879.899689 0.703125)"/>
      <use xlink:href="#STIXGeneral-Regular-20" transform="translate(948.399673 0.703125)"/>
      <use xlink:href="#STIXGeneral-Regular-30" transform="translate(973.399658 0.703125)"/>
      <use xlink:href="#STIXGeneral-Regular-2e" transform="translate(1023.399643 0.703125)"/>
      <use xlink:href="#STIXGeneral-Regular-32" transform="translate(1048.399628 0.703125)"/>
      <use xlink:href="#STIXGeneral-Regular-30" transform="translate(1098.399612 0.703125)"/>
      <use xlink:href="#STIXGeneral-Regular-38" transform="translate(1148.399597 0.703125)"/>
     </g>
    </g>
    <g id="PathCollection_2">
     <path d="M 68.9 91.479596 
C 69.837635 91.479596 70.736992 91.10707 71.4 90.444062 
C 72.063008 89.781055 72.435534 88.881697 72.435534 87.944062 
C 72.435534 87.006428 72.063008 86.10707 71.4 85.444062 
C 70.736992 84.781055 69.837635 84.408529 68.9 84.408529 
C 67.962365 84.408529 67.063008 84.781055 66.4 85.444062 
C 65.736992 86.10707 65.364466 87.006428 65.364466 87.944062 
C 65.364466 88.881697 65.736992 89.781055 66.4 90.444062 
C 67.063008 91.10707 67.962365 91.479596 68.9 91.479596 
L 68.9 91.479596 
z
" style="fill: none; stroke: #0000ff; stroke-opacity: 0.7; stroke-width: 1.5"/>
    </g>
    <g id="text_20">
     <!-- $\langle j \rangle = \langle u n \rangle_t$ -->
     <g transform="translate(85.1 90.306562) scale(0.09 -0.09)">
      <defs>
       <path id="STIXGeneral-Italic-74" d="M 1894 2739 
L 1862 2534 
L 1325 2534 
L 768 435 
Q 755 384 755 346 
Q 755 243 851 243 
Q 928 243 1030 342 
Q 1133 442 1370 749 
L 1453 704 
Q 1158 256 969 93 
Q 781 -70 538 -70 
Q 243 -70 243 166 
Q 243 230 346 640 
L 845 2534 
L 365 2534 
L 358 2573 
Q 358 2688 570 2733 
Q 730 2771 992 2979 
Q 1254 3187 1421 3437 
Q 1459 3494 1510 3494 
Q 1568 3494 1568 3443 
Q 1568 3411 1562 3398 
L 1382 2739 
L 1894 2739 
z
" transform="scale(0.015625)"/>
      </defs>
      <use xlink:href="#STIXGeneral-Regular-27e8" transform="translate(0 0.703125)"/>
      <use xlink:href="#STIXGeneral-Italic-6a" transform="translate(39.999985 0.703125)"/>
      <use xlink:href="#STIXGeneral-Regular-27e9" transform="translate(67.799973 0.703125)"/>
      <use xlink:href="#STIXGeneral-Regular-3d" transform="translate(122.239954 0.703125)"/>
      <use xlink:href="#STIXGeneral-Regular-27e8" transform="translate(205.179935 0.703125)"/>
      <use xlink:href="#STIXGeneral-Italic-75" transform="translate(245.179919 0.703125)"/>
      <use xlink:href="#STIXGeneral-Italic-6e" transform="translate(295.179904 0.703125)"/>
      <use xlink:href="#STIXGeneral-Regular-27e9" transform="translate(345.179889 0.703125)"/>
      <use xlink:href="#STIXGeneral-Italic-74" transform="translate(386.723155 -12.525) scale(0.7)"/>
     </g>
    </g>
   </g>
   <g id="PathCollection_3">
    <g clip-path="url(#p4cc50648e8)">
     <use xlink:href="#mc969a4ec67" x="78.043" y="443.743936" style="fill-opacity: 0.8; stroke: #000000; stroke-opacity: 0.8"/>
     <use xlink:href="#mc969a4ec67" x="98.229923" y="389.055202" style="fill-opacity: 0.8; stroke: #000000; stroke-opacity: 0.8"/>
     <use xlink:href="#mc969a4ec67" x="118.416846" y="334.766615" style="fill-opacity: 0.8; stroke: #000000; stroke-opacity: 0.8"/>
     <use xlink:href="#mc969a4ec67" x="138.603769" y="299.580431" style="fill-opacity: 0.8; stroke: #000000; stroke-opacity: 0.8"/>
     <use xlink:href="#mc969a4ec67" x="158.790692" y="272.838911" style="fill-opacity: 0.8; stroke: #000000; stroke-opacity: 0.8"/>
     <use xlink:href="#mc969a4ec67" x="178.977615" y="263.145997" style="fill-opacity: 0.8; stroke: #000000; stroke-opacity: 0.8"/>
     <use xlink:href="#mc969a4ec67" x="199.164538" y="251.406519" style="fill-opacity: 0.8; stroke: #000000; stroke-opacity: 0.8"/>
     <use xlink:href="#mc969a4ec67" x="219.351462" y="247.236419" style="fill-opacity: 0.8; stroke: #000000; stroke-opacity: 0.8"/>
     <use xlink:href="#mc969a4ec67" x="239.538385" y="230.866067" style="fill-opacity: 0.8; stroke: #000000; stroke-opacity: 0.8"/>
     <use xlink:href="#mc969a4ec67" x="259.725308" y="215.720943" style="fill-opacity: 0.8; stroke: #000000; stroke-opacity: 0.8"/>
     <use xlink:href="#mc969a4ec67" x="279.912231" y="201.550117" style="fill-opacity: 0.8; stroke: #000000; stroke-opacity: 0.8"/>
     <use xlink:href="#mc969a4ec67" x="300.099154" y="188.025717" style="fill-opacity: 0.8; stroke: #000000; stroke-opacity: 0.8"/>
     <use xlink:href="#mc969a4ec67" x="320.286077" y="189.667653" style="fill-opacity: 0.8; stroke: #000000; stroke-opacity: 0.8"/>
     <use xlink:href="#mc969a4ec67" x="340.473" y="184.136439" style="fill-opacity: 0.8; stroke: #000000; stroke-opacity: 0.8"/>
     <use xlink:href="#mc969a4ec67" x="360.659923" y="178.78139" style="fill-opacity: 0.8; stroke: #000000; stroke-opacity: 0.8"/>
     <use xlink:href="#mc969a4ec67" x="380.846846" y="161.756769" style="fill-opacity: 0.8; stroke: #000000; stroke-opacity: 0.8"/>
     <use xlink:href="#mc969a4ec67" x="401.033769" y="165.866745" style="fill-opacity: 0.8; stroke: #000000; stroke-opacity: 0.8"/>
     <use xlink:href="#mc969a4ec67" x="421.220692" y="151.064835" style="fill-opacity: 0.8; stroke: #000000; stroke-opacity: 0.8"/>
     <use xlink:href="#mc969a4ec67" x="441.407615" y="120.21429" style="fill-opacity: 0.8; stroke: #000000; stroke-opacity: 0.8"/>
     <use xlink:href="#mc969a4ec67" x="461.594538" y="103.708862" style="fill-opacity: 0.8; stroke: #000000; stroke-opacity: 0.8"/>
     <use xlink:href="#mc969a4ec67" x="481.781462" y="176.475767" style="fill-opacity: 0.8; stroke: #000000; stroke-opacity: 0.8"/>
     <use xlink:href="#mc969a4ec67" x="501.968385" y="178.844749" style="fill-opacity: 0.8; stroke: #000000; stroke-opacity: 0.8"/>
     <use xlink:href="#mc969a4ec67" x="522.155308" y="170.240531" style="fill-opacity: 0.8; stroke: #000000; stroke-opacity: 0.8"/>
     <use xlink:href="#mc969a4ec67" x="542.342231" y="161.895497" style="fill-opacity: 0.8; stroke: #000000; stroke-opacity: 0.8"/>
     <use xlink:href="#mc969a4ec67" x="562.529154" y="153.70462" style="fill-opacity: 0.8; stroke: #000000; stroke-opacity: 0.8"/>
     <use xlink:href="#mc969a4ec67" x="582.716077" y="147.136249" style="fill-opacity: 0.8; stroke: #000000; stroke-opacity: 0.8"/>
     <use xlink:href="#mc969a4ec67" x="602.903" y="138.890016" style="fill-opacity: 0.8; stroke: #000000; stroke-opacity: 0.8"/>
    </g>
   </g>
  </g>
  <g id="axes_2">
   <g id="matplotlib.axis_3">
    <g id="ytick_7">
     <g id="line2d_32">
      <defs>
       <path id="mb868b7a2e8" d="M 0 0 
L 3.5 0 
" style="stroke: #000000; stroke-width: 0.8"/>
      </defs>
      <g>
       <use xlink:href="#mb868b7a2e8" x="629.146" y="447.483188" style="stroke: #000000; stroke-width: 0.8"/>
      </g>
     </g>
     <g id="text_21">
      <!-- 0.0 -->
      <g style="fill: #0000ff" transform="translate(636.146 451.581) scale(0.12 -0.12)">
       <use xlink:href="#STIXGeneral-Regular-30"/>
       <use xlink:href="#STIXGeneral-Regular-2e" x="49.999985"/>
       <use xlink:href="#STIXGeneral-Regular-30" x="74.999969"/>
      </g>
     </g>
    </g>
    <g id="ytick_8">
     <g id="line2d_33">
      <g>
       <use xlink:href="#mb868b7a2e8" x="629.146" y="394.177611" style="stroke: #000000; stroke-width: 0.8"/>
      </g>
     </g>
     <g id="text_22">
      <!-- 0.2 -->
      <g style="fill: #0000ff" transform="translate(636.146 398.275423) scale(0.12 -0.12)">
       <use xlink:href="#STIXGeneral-Regular-30"/>
       <use xlink:href="#STIXGeneral-Regular-2e" x="49.999985"/>
       <use xlink:href="#STIXGeneral-Regular-32" x="74.999969"/>
      </g>
     </g>
    </g>
    <g id="ytick_9">
     <g id="line2d_34">
      <g>
       <use xlink:href="#mb868b7a2e8" x="629.146" y="340.872034" style="stroke: #000000; stroke-width: 0.8"/>
      </g>
     </g>
     <g id="text_23">
      <!-- 0.4 -->
      <g style="fill: #0000ff" transform="translate(636.146 344.969847) scale(0.12 -0.12)">
       <use xlink:href="#STIXGeneral-Regular-30"/>
       <use xlink:href="#STIXGeneral-Regular-2e" x="49.999985"/>
       <use xlink:href="#STIXGeneral-Regular-34" x="74.999969"/>
      </g>
     </g>
    </g>
    <g id="ytick_10">
     <g id="line2d_35">
      <g>
       <use xlink:href="#mb868b7a2e8" x="629.146" y="287.566457" style="stroke: #000000; stroke-width: 0.8"/>
      </g>
     </g>
     <g id="text_24">
      <!-- 0.6 -->
      <g style="fill: #0000ff" transform="translate(636.146 291.66427) scale(0.12 -0.12)">
       <use xlink:href="#STIXGeneral-Regular-30"/>
       <use xlink:href="#STIXGeneral-Regular-2e" x="49.999985"/>
       <use xlink:href="#STIXGeneral-Regular-36" x="74.999969"/>
      </g>
     </g>
    </g>
    <g id="ytick_11">
     <g id="line2d_36">
      <g>
       <use xlink:href="#mb868b7a2e8" x="629.146" y="234.26088" style="stroke: #000000; stroke-width: 0.8"/>
      </g>
     </g>
     <g id="text_25">
      <!-- 0.8 -->
      <g style="fill: #0000ff" transform="translate(636.146 238.358693) scale(0.12 -0.12)">
       <use xlink:href="#STIXGeneral-Regular-30"/>
       <use xlink:href="#STIXGeneral-Regular-2e" x="49.999985"/>
       <use xlink:href="#STIXGeneral-Regular-38" x="74.999969"/>
      </g>
     </g>
    </g>
    <g id="ytick_12">
     <g id="line2d_37">
      <g>
       <use xlink:href="#mb868b7a2e8" x="629.146" y="180.955304" style="stroke: #000000; stroke-width: 0.8"/>
      </g>
     </g>
     <g id="text_26">
      <!-- 1.0 -->
      <g style="fill: #0000ff" transform="translate(636.146 185.053116) scale(0.12 -0.12)">
       <use xlink:href="#STIXGeneral-Regular-31"/>
       <use xlink:href="#STIXGeneral-Regular-2e" x="49.999985"/>
       <use xlink:href="#STIXGeneral-Regular-30" x="74.999969"/>
      </g>
     </g>
    </g>
    <g id="ytick_13">
     <g id="line2d_38">
      <g>
       <use xlink:href="#mb868b7a2e8" x="629.146" y="127.649727" style="stroke: #000000; stroke-width: 0.8"/>
      </g>
     </g>
     <g id="text_27">
      <!-- 1.2 -->
      <g style="fill: #0000ff" transform="translate(636.146 131.747539) scale(0.12 -0.12)">
       <use xlink:href="#STIXGeneral-Regular-31"/>
       <use xlink:href="#STIXGeneral-Regular-2e" x="49.999985"/>
       <use xlink:href="#STIXGeneral-Regular-32" x="74.999969"/>
      </g>
     </g>
    </g>
    <g id="ytick_14">
     <g id="line2d_39">
      <g>
       <use xlink:href="#mb868b7a2e8" x="629.146" y="74.34415" style="stroke: #000000; stroke-width: 0.8"/>
      </g>
     </g>
     <g id="text_28">
      <!-- 1.4 -->
      <g style="fill: #0000ff" transform="translate(636.146 78.441963) scale(0.12 -0.12)">
       <use xlink:href="#STIXGeneral-Regular-31"/>
       <use xlink:href="#STIXGeneral-Regular-2e" x="49.999985"/>
       <use xlink:href="#STIXGeneral-Regular-34" x="74.999969"/>
      </g>
     </g>
    </g>
    <g id="ytick_15">
     <g id="line2d_40">
      <g>
       <use xlink:href="#mb868b7a2e8" x="629.146" y="21.038573" style="stroke: #000000; stroke-width: 0.8"/>
      </g>
     </g>
     <g id="text_29">
      <!-- 1.6 -->
      <g style="fill: #0000ff" transform="translate(636.146 25.136386) scale(0.12 -0.12)">
       <use xlink:href="#STIXGeneral-Regular-31"/>
       <use xlink:href="#STIXGeneral-Regular-2e" x="49.999985"/>
       <use xlink:href="#STIXGeneral-Regular-36" x="74.999969"/>
      </g>
     </g>
    </g>
    <g id="text_30">
     <!-- $\langle j \rangle = \langle u n \rangle_t$ -->
     <g style="fill: #0000ff" transform="translate(665.226 264.77375) rotate(-90) scale(0.14 -0.14)">
      <use xlink:href="#STIXGeneral-Regular-27e8" transform="translate(0 0.703125)"/>
      <use xlink:href="#STIXGeneral-Italic-6a" transform="translate(39.999985 0.703125)"/>
      <use xlink:href="#STIXGeneral-Regular-27e9" transform="translate(67.799973 0.703125)"/>
      <use xlink:href="#STIXGeneral-Regular-3d" transform="translate(122.239954 0.703125)"/>
      <use xlink:href="#STIXGeneral-Regular-27e8" transform="translate(205.179935 0.703125)"/>
      <use xlink:href="#STIXGeneral-Italic-75" transform="translate(245.179919 0.703125)"/>
      <use xlink:href="#STIXGeneral-Italic-6e" transform="translate(295.179904 0.703125)"/>
      <use xlink:href="#STIXGeneral-Regular-27e9" transform="translate(345.179889 0.703125)"/>
      <use xlink:href="#STIXGeneral-Italic-74" transform="translate(386.723155 -12.525) scale(0.7)"/>
     </g>
    </g>
   </g>
   <g id="line2d_41">
    <path d="M 92.173846 302.425664 
L 97.332726 299.589241 
L 102.491607 296.752817 
L 107.650487 293.916394 
L 112.809368 291.07997 
L 117.968248 288.243546 
L 123.127128 285.407123 
L 128.286009 282.570699 
L 133.444889 279.734276 
L 138.603769 276.897852 
L 143.76265 274.061428 
L 148.92153 271.225005 
L 154.08041 268.388581 
L 159.239291 265.552158 
L 164.398171 262.715734 
L 169.557051 259.87931 
L 174.715932 257.042887 
L 179.874812 254.206463 
L 185.033692 251.370039 
L 190.192573 248.533616 
L 195.351453 245.697192 
L 200.510333 242.860769 
L 205.669214 240.024345 
L 210.828094 237.187921 
L 215.986974 234.351498 
L 221.145855 231.515074 
L 226.304735 228.678651 
L 231.463615 225.842227 
L 236.622496 223.005803 
L 241.781376 220.16938 
L 246.940256 217.332956 
L 252.099137 214.496533 
L 257.258017 211.660109 
L 262.416897 208.823685 
L 267.575778 205.987262 
L 272.734658 203.150838 
L 277.893538 200.314415 
L 283.052419 197.477991 
L 288.211299 194.641567 
L 293.370179 191.805144 
L 298.52906 188.96872 
L 303.68794 186.132297 
L 308.846821 183.295873 
L 314.005701 180.459449 
L 319.164581 177.623026 
L 324.323462 174.786602 
L 329.482342 171.950179 
L 334.641222 169.113755 
L 339.800103 166.277331 
L 344.958983 163.440908 
L 350.117863 160.604484 
L 355.276744 157.76806 
L 360.435624 154.931637 
L 365.594504 152.095213 
L 370.753385 149.25879 
L 375.912265 146.422366 
L 381.071145 143.585942 
L 386.230026 140.749519 
L 391.388906 137.913095 
L 396.547786 135.076672 
L 401.706667 132.240248 
L 406.865547 129.403824 
L 412.024427 126.567401 
L 417.183308 123.730977 
L 422.342188 120.894554 
L 427.501068 118.05813 
L 432.659949 115.221706 
L 437.818829 112.385283 
L 442.977709 109.548859 
L 448.13659 106.712436 
L 453.29547 103.876012 
L 458.45435 101.039588 
L 463.613231 98.203165 
L 468.772111 95.366741 
L 473.930991 92.530318 
L 479.089872 89.693894 
L 484.248752 86.85747 
L 489.407632 84.021047 
L 494.566513 81.184623 
L 499.725393 78.348199 
L 504.884274 75.511776 
L 510.043154 72.675352 
L 515.202034 69.838929 
L 520.360915 67.002505 
L 525.519795 64.166081 
L 530.678675 61.329658 
L 535.837556 58.493234 
L 540.996436 55.656811 
L 546.155316 52.820387 
L 551.314197 49.983963 
L 556.473077 47.14754 
L 561.631957 44.311116 
L 566.790838 41.474693 
L 571.949718 38.638269 
L 577.108598 35.801845 
L 582.267479 32.965422 
L 587.426359 30.128998 
L 592.585239 27.292575 
L 597.74412 24.456151 
L 602.903 21.619727 
" clip-path="url(#p4cc50648e8)" style="fill: none; stroke-dasharray: 7.4,3.2; stroke-dashoffset: 0; stroke: #bf00bf; stroke-opacity: 0.8; stroke-width: 2"/>
   </g>
   <g id="line2d_42">
    <path d="M 78.043 310.014275 
L 83.344616 307.102059 
L 88.646232 304.189844 
L 93.947848 301.277629 
L 99.249465 298.365414 
L 104.551081 295.453199 
L 109.852697 292.540984 
L 115.154313 289.628769 
L 120.455929 286.716553 
L 125.757545 283.804338 
L 131.059162 280.892123 
L 136.360778 277.979908 
L 141.662394 275.067693 
L 146.96401 272.155478 
L 152.265626 269.243262 
L 157.567242 266.331047 
L 162.868859 263.418832 
L 168.170475 260.506617 
L 173.472091 257.594402 
L 178.773707 254.682187 
L 184.075323 251.769972 
L 189.376939 248.857756 
L 194.678556 245.945541 
L 199.980172 243.033326 
L 205.281788 240.121111 
L 210.583404 237.208896 
L 215.88502 234.296681 
L 221.186636 231.384466 
L 226.488253 228.47225 
L 231.789869 225.560035 
L 237.091485 222.64782 
L 242.393101 219.735605 
L 247.694717 216.82339 
L 252.996333 213.911175 
L 258.297949 210.998959 
L 263.599566 208.086744 
L 268.901182 205.174529 
L 274.202798 202.262314 
L 279.504414 199.350099 
L 284.80603 196.437884 
L 290.107646 193.525669 
L 295.409263 190.613453 
L 300.710879 187.701238 
L 306.012495 184.789023 
L 311.314111 181.876808 
L 316.615727 178.964593 
L 321.917343 176.052378 
L 327.21896 173.140162 
L 332.520576 170.227947 
L 337.822192 167.315732 
L 343.123808 164.403517 
L 348.425424 161.491302 
L 353.72704 158.579087 
L 359.028657 155.666872 
L 364.330273 152.754656 
L 369.631889 149.842441 
L 374.933505 146.930226 
L 380.235121 144.018011 
L 385.536737 141.105796 
L 390.838354 138.193581 
L 396.13997 135.281365 
L 401.441586 132.36915 
L 406.743202 129.456935 
L 412.044818 126.54472 
L 417.346434 123.632505 
L 422.648051 120.72029 
L 427.949667 117.808075 
L 433.251283 114.895859 
L 438.552899 111.983644 
L 443.854515 109.071429 
L 449.156131 106.159214 
L 454.457747 103.246999 
L 459.759364 100.334784 
L 465.06098 97.422568 
L 470.362596 94.510353 
L 475.664212 91.598138 
L 480.965828 88.685923 
L 486.267444 85.773708 
L 491.569061 82.861493 
L 496.870677 79.949278 
L 502.172293 77.037062 
L 507.473909 74.124847 
L 512.775525 71.212632 
L 518.077141 68.300417 
L 523.378758 65.388202 
L 528.680374 62.475987 
L 533.98199 59.563772 
L 539.283606 56.651556 
L 544.585222 53.739341 
L 549.886838 50.827126 
L 555.188455 47.914911 
L 560.490071 45.002696 
L 565.791687 42.090481 
L 571.093303 39.178265 
L 576.394919 36.26605 
L 581.696535 33.353835 
L 586.998152 30.44162 
L 592.299768 27.529405 
L 597.601384 24.61719 
L 602.903 21.704975 
" clip-path="url(#p4cc50648e8)" style="fill: none; stroke-dasharray: 2,3.3; stroke-dashoffset: 0; stroke: #000000; stroke-opacity: 0.6; stroke-width: 2"/>
   </g>
   <g id="patch_8">
    <path d="M 51.8 464.8075 
L 51.8 7.2 
" style="fill: none; stroke: #000000; stroke-width: 0.8; stroke-linejoin: miter; stroke-linecap: square"/>
   </g>
   <g id="patch_9">
    <path d="M 629.146 464.8075 
L 629.146 7.2 
" style="fill: none; stroke: #000000; stroke-width: 0.8; stroke-linejoin: miter; stroke-linecap: square"/>
   </g>
   <g id="patch_10">
    <path d="M 51.8 464.8075 
L 629.146 464.8075 
" style="fill: none; stroke: #000000; stroke-width: 0.8; stroke-linejoin: miter; stroke-linecap: square"/>
   </g>
   <g id="patch_11">
    <path d="M 51.8 7.2 
L 629.146 7.2 
" style="fill: none; stroke: #000000; stroke-width: 0.8; stroke-linejoin: miter; stroke-linecap: square"/>
   </g>
   <g id="PathCollection_4">
    <defs>
     <path id="C0_0_3a8e8cfb5d" d="M 0 3.535534 
C 0.937635 3.535534 1.836992 3.163008 2.5 2.5 
C 3.163008 1.836992 3.535534 0.937635 3.535534 -0 
C 3.535534 -0.937635 3.163008 -1.836992 2.5 -2.5 
C 1.836992 -3.163008 0.937635 -3.535534 0 -3.535534 
C -0.937635 -3.535534 -1.836992 -3.163008 -2.5 -2.5 
C -3.163008 -1.836992 -3.535534 -0.937635 -3.535534 0 
C -3.535534 0.937635 -3.163008 1.836992 -2.5 2.5 
C -1.836992 3.163008 -0.937635 3.535534 0 3.535534 
z
"/>
    </defs>
    <g clip-path="url(#p4cc50648e8)">
     <use xlink:href="#C0_0_3a8e8cfb5d" x="78.043" y="308.906061" style="fill: none; stroke: #0000ff; stroke-opacity: 0.7; stroke-width: 1.5"/>
    </g>
    <g clip-path="url(#p4cc50648e8)">
     <use xlink:href="#C0_0_3a8e8cfb5d" x="98.229923" y="298.229718" style="fill: none; stroke: #0000ff; stroke-opacity: 0.7; stroke-width: 1.5"/>
    </g>
    <g clip-path="url(#p4cc50648e8)">
     <use xlink:href="#C0_0_3a8e8cfb5d" x="118.416846" y="288.68045" style="fill: none; stroke: #0000ff; stroke-opacity: 0.7; stroke-width: 1.5"/>
    </g>
    <g clip-path="url(#p4cc50648e8)">
     <use xlink:href="#C0_0_3a8e8cfb5d" x="138.603769" y="276.00658" style="fill: none; stroke: #0000ff; stroke-opacity: 0.7; stroke-width: 1.5"/>
    </g>
    <g clip-path="url(#p4cc50648e8)">
     <use xlink:href="#C0_0_3a8e8cfb5d" x="158.790692" y="266.294779" style="fill: none; stroke: #0000ff; stroke-opacity: 0.7; stroke-width: 1.5"/>
    </g>
    <g clip-path="url(#p4cc50648e8)">
     <use xlink:href="#C0_0_3a8e8cfb5d" x="178.977615" y="255.934059" style="fill: none; stroke: #0000ff; stroke-opacity: 0.7; stroke-width: 1.5"/>
    </g>
    <g clip-path="url(#p4cc50648e8)">
     <use xlink:href="#C0_0_3a8e8cfb5d" x="199.164538" y="240.685603" style="fill: none; stroke: #0000ff; stroke-opacity: 0.7; stroke-width: 1.5"/>
    </g>
    <g clip-path="url(#p4cc50648e8)">
     <use xlink:href="#C0_0_3a8e8cfb5d" x="219.351462" y="233.897362" style="fill: none; stroke: #0000ff; stroke-opacity: 0.7; stroke-width: 1.5"/>
    </g>
    <g clip-path="url(#p4cc50648e8)">
     <use xlink:href="#C0_0_3a8e8cfb5d" x="239.538385" y="224.164404" style="fill: none; stroke: #0000ff; stroke-opacity: 0.7; stroke-width: 1.5"/>
    </g>
    <g clip-path="url(#p4cc50648e8)">
     <use xlink:href="#C0_0_3a8e8cfb5d" x="259.725308" y="212.423385" style="fill: none; stroke: #0000ff; stroke-opacity: 0.7; stroke-width: 1.5"/>
    </g>
    <g clip-path="url(#p4cc50648e8)">
     <use xlink:href="#C0_0_3a8e8cfb5d" x="279.912231" y="201.213974" style="fill: none; stroke: #0000ff; stroke-opacity: 0.7; stroke-width: 1.5"/>
    </g>
    <g clip-path="url(#p4cc50648e8)">
     <use xlink:href="#C0_0_3a8e8cfb5d" x="300.099154" y="190.222287" style="fill: none; stroke: #0000ff; stroke-opacity: 0.7; stroke-width: 1.5"/>
    </g>
    <g clip-path="url(#p4cc50648e8)">
     <use xlink:href="#C0_0_3a8e8cfb5d" x="320.286077" y="185.899993" style="fill: none; stroke: #0000ff; stroke-opacity: 0.7; stroke-width: 1.5"/>
    </g>
    <g clip-path="url(#p4cc50648e8)">
     <use xlink:href="#C0_0_3a8e8cfb5d" x="340.473" y="173.187879" style="fill: none; stroke: #0000ff; stroke-opacity: 0.7; stroke-width: 1.5"/>
    </g>
    <g clip-path="url(#p4cc50648e8)">
     <use xlink:href="#C0_0_3a8e8cfb5d" x="360.659923" y="142.507293" style="fill: none; stroke: #0000ff; stroke-opacity: 0.7; stroke-width: 1.5"/>
    </g>
    <g clip-path="url(#p4cc50648e8)">
     <use xlink:href="#C0_0_3a8e8cfb5d" x="380.846846" y="146.711414" style="fill: none; stroke: #0000ff; stroke-opacity: 0.7; stroke-width: 1.5"/>
    </g>
    <g clip-path="url(#p4cc50648e8)">
     <use xlink:href="#C0_0_3a8e8cfb5d" x="401.033769" y="133.172873" style="fill: none; stroke: #0000ff; stroke-opacity: 0.7; stroke-width: 1.5"/>
    </g>
    <g clip-path="url(#p4cc50648e8)">
     <use xlink:href="#C0_0_3a8e8cfb5d" x="421.220692" y="114.514515" style="fill: none; stroke: #0000ff; stroke-opacity: 0.7; stroke-width: 1.5"/>
    </g>
    <g clip-path="url(#p4cc50648e8)">
     <use xlink:href="#C0_0_3a8e8cfb5d" x="441.407615" y="110.334289" style="fill: none; stroke: #0000ff; stroke-opacity: 0.7; stroke-width: 1.5"/>
    </g>
    <g clip-path="url(#p4cc50648e8)">
     <use xlink:href="#C0_0_3a8e8cfb5d" x="461.594538" y="83.933645" style="fill: none; stroke: #0000ff; stroke-opacity: 0.7; stroke-width: 1.5"/>
    </g>
    <g clip-path="url(#p4cc50648e8)">
     <use xlink:href="#C0_0_3a8e8cfb5d" x="481.781462" y="81.365845" style="fill: none; stroke: #0000ff; stroke-opacity: 0.7; stroke-width: 1.5"/>
    </g>
    <g clip-path="url(#p4cc50648e8)">
     <use xlink:href="#C0_0_3a8e8cfb5d" x="501.968385" y="56.663273" style="fill: none; stroke: #0000ff; stroke-opacity: 0.7; stroke-width: 1.5"/>
    </g>
    <g clip-path="url(#p4cc50648e8)">
     <use xlink:href="#C0_0_3a8e8cfb5d" x="522.155308" y="73.212188" style="fill: none; stroke: #0000ff; stroke-opacity: 0.7; stroke-width: 1.5"/>
    </g>
    <g clip-path="url(#p4cc50648e8)">
     <use xlink:href="#C0_0_3a8e8cfb5d" x="542.342231" y="66.159255" style="fill: none; stroke: #0000ff; stroke-opacity: 0.7; stroke-width: 1.5"/>
    </g>
    <g clip-path="url(#p4cc50648e8)">
     <use xlink:href="#C0_0_3a8e8cfb5d" x="562.529154" y="45.718484" style="fill: none; stroke: #0000ff; stroke-opacity: 0.7; stroke-width: 1.5"/>
    </g>
    <g clip-path="url(#p4cc50648e8)">
     <use xlink:href="#C0_0_3a8e8cfb5d" x="582.716077" y="41.854904" style="fill: none; stroke: #0000ff; stroke-opacity: 0.7; stroke-width: 1.5"/>
    </g>
    <g clip-path="url(#p4cc50648e8)">
     <use xlink:href="#C0_0_3a8e8cfb5d" x="602.903" y="26.315351" style="fill: none; stroke: #0000ff; stroke-opacity: 0.7; stroke-width: 1.5"/>
    </g>
   </g>
  </g>
 </g>
 <defs>
  <clipPath id="p4cc50648e8">
   <rect x="51.8" y="7.2" width="577.346" height="457.6075"/>
  </clipPath>
 </defs>
</svg>
