<?xml version="1.0" encoding="utf-8" standalone="no"?>
<!DOCTYPE svg PUBLIC "-//W3C//DTD SVG 1.1//EN"
  "http://www.w3.org/Graphics/SVG/1.1/DTD/svg11.dtd">
<svg xmlns:xlink="http://www.w3.org/1999/xlink" width="705.49875pt" height="492.928408pt" viewBox="0 0 705.49875 492.928408" xmlns="http://www.w3.org/2000/svg" version="1.1">
 <metadata>
  <rdf:RDF xmlns:dc="http://purl.org/dc/elements/1.1/" xmlns:cc="http://creativecommons.org/ns#" xmlns:rdf="http://www.w3.org/1999/02/22-rdf-syntax-ns#">
   <cc:Work>
    <dc:type rdf:resource="http://purl.org/dc/dcmitype/StillImage"/>
    <dc:date>2025-10-19T19:07:18.062524</dc:date>
    <dc:format>image/svg+xml</dc:format>
    <dc:creator>
     <cc:Agent>
      <dc:title>Matplotlib v3.8.4, https://matplotlib.org/</dc:title>
     </cc:Agent>
    </dc:creator>
   </cc:Work>
  </rdf:RDF>
 </metadata>
 <defs>
  <style type="text/css">*{stroke-linejoin: round; stroke-linecap: butt}</style>
 </defs>
 <g id="figure_1">
  <g id="patch_1">
   <path d="M 0 492.928408 
L 705.49875 492.928408 
L 705.49875 0 
L 0 0 
z
" style="fill: #ffffff"/>
  </g>
  <g id="axes_1">
   <g id="patch_2">
    <path d="M 58.449375 443.194033 
L 647.049375 443.194033 
L 647.049375 11.871819 
L 58.449375 11.871819 
z
" style="fill: #ffffff"/>
   </g>
   <g id="matplotlib.axis_1">
    <g id="xtick_1">
     <g id="line2d_1">
      <path d="M 127.44794 443.194033 
L 127.44794 11.871819 
" clip-path="url(#p1c87d1d2ca)" style="fill: none; stroke: #b0b0b0; stroke-opacity: 0.3; stroke-width: 0.8; stroke-linecap: square"/>
     </g>
     <g id="line2d_2">
      <defs>
       <path id="ma7a465e7df" d="M 0 0 
L 0 6 
" style="stroke: #000000; stroke-width: 1.2"/>
      </defs>
      <g>
       <use xlink:href="#ma7a465e7df" x="127.44794" y="443.194033" style="stroke: #000000; stroke-width: 1.2"/>
      </g>
     </g>
     <g id="text_1">
      <!-- 0.25 -->
      <g transform="translate(111.862002 463.331845) scale(0.14 -0.14)">
       <defs>
        <path id="DejaVuSerif-30" d="M 2034 219 
Q 2513 219 2750 744 
Q 2988 1269 2988 2328 
Q 2988 3391 2750 3916 
Q 2513 4441 2034 4441 
Q 1556 4441 1318 3916 
Q 1081 3391 1081 2328 
Q 1081 1269 1318 744 
Q 1556 219 2034 219 
z
M 2034 -91 
Q 1275 -91 848 546 
Q 422 1184 422 2328 
Q 422 3475 848 4112 
Q 1275 4750 2034 4750 
Q 2797 4750 3222 4112 
Q 3647 3475 3647 2328 
Q 3647 1184 3222 546 
Q 2797 -91 2034 -91 
z
" transform="scale(0.015625)"/>
        <path id="DejaVuSerif-2e" d="M 603 325 
Q 603 500 722 622 
Q 841 744 1019 744 
Q 1191 744 1312 622 
Q 1434 500 1434 325 
Q 1434 153 1312 31 
Q 1191 -91 1019 -91 
Q 841 -91 722 29 
Q 603 150 603 325 
z
" transform="scale(0.015625)"/>
        <path id="DejaVuSerif-32" d="M 819 3553 
L 469 3553 
L 469 4384 
Q 803 4563 1142 4656 
Q 1481 4750 1806 4750 
Q 2534 4750 2956 4397 
Q 3378 4044 3378 3438 
Q 3378 2753 2422 1800 
Q 2347 1728 2309 1691 
L 1131 513 
L 3078 513 
L 3078 1088 
L 3444 1088 
L 3444 0 
L 434 0 
L 434 341 
L 1850 1753 
Q 2319 2222 2519 2614 
Q 2719 3006 2719 3438 
Q 2719 3909 2473 4175 
Q 2228 4441 1797 4441 
Q 1350 4441 1106 4219 
Q 863 3997 819 3553 
z
" transform="scale(0.015625)"/>
        <path id="DejaVuSerif-35" d="M 3219 4666 
L 3219 4153 
L 1081 4153 
L 1081 2816 
Q 1244 2928 1461 2984 
Q 1678 3041 1947 3041 
Q 2703 3041 3140 2622 
Q 3578 2203 3578 1478 
Q 3578 738 3136 323 
Q 2694 -91 1894 -91 
Q 1572 -91 1234 -12 
Q 897 66 544 225 
L 544 1131 
L 897 1131 
Q 925 688 1179 453 
Q 1434 219 1894 219 
Q 2388 219 2653 544 
Q 2919 869 2919 1478 
Q 2919 2084 2655 2407 
Q 2391 2731 1894 2731 
Q 1613 2731 1398 2631 
Q 1184 2531 1019 2322 
L 750 2322 
L 750 4666 
L 3219 4666 
z
" transform="scale(0.015625)"/>
       </defs>
       <use xlink:href="#DejaVuSerif-30"/>
       <use xlink:href="#DejaVuSerif-2e" x="63.623047"/>
       <use xlink:href="#DejaVuSerif-32" x="95.410156"/>
       <use xlink:href="#DejaVuSerif-35" x="159.033203"/>
      </g>
     </g>
    </g>
    <g id="xtick_2">
     <g id="line2d_3">
      <path d="M 197.854638 443.194033 
L 197.854638 11.871819 
" clip-path="url(#p1c87d1d2ca)" style="fill: none; stroke: #b0b0b0; stroke-opacity: 0.3; stroke-width: 0.8; stroke-linecap: square"/>
     </g>
     <g id="line2d_4">
      <g>
       <use xlink:href="#ma7a465e7df" x="197.854638" y="443.194033" style="stroke: #000000; stroke-width: 1.2"/>
      </g>
     </g>
     <g id="text_2">
      <!-- 0.50 -->
      <g transform="translate(182.268701 463.331845) scale(0.14 -0.14)">
       <use xlink:href="#DejaVuSerif-30"/>
       <use xlink:href="#DejaVuSerif-2e" x="63.623047"/>
       <use xlink:href="#DejaVuSerif-35" x="95.410156"/>
       <use xlink:href="#DejaVuSerif-30" x="159.033203"/>
      </g>
     </g>
    </g>
    <g id="xtick_3">
     <g id="line2d_5">
      <path d="M 268.261337 443.194033 
L 268.261337 11.871819 
" clip-path="url(#p1c87d1d2ca)" style="fill: none; stroke: #b0b0b0; stroke-opacity: 0.3; stroke-width: 0.8; stroke-linecap: square"/>
     </g>
     <g id="line2d_6">
      <g>
       <use xlink:href="#ma7a465e7df" x="268.261337" y="443.194033" style="stroke: #000000; stroke-width: 1.2"/>
      </g>
     </g>
     <g id="text_3">
      <!-- 0.75 -->
      <g transform="translate(252.675399 463.331845) scale(0.14 -0.14)">
       <defs>
        <path id="DejaVuSerif-37" d="M 3609 4347 
L 1784 0 
L 1319 0 
L 3059 4153 
L 903 4153 
L 903 3578 
L 538 3578 
L 538 4666 
L 3609 4666 
L 3609 4347 
z
" transform="scale(0.015625)"/>
       </defs>
       <use xlink:href="#DejaVuSerif-30"/>
       <use xlink:href="#DejaVuSerif-2e" x="63.623047"/>
       <use xlink:href="#DejaVuSerif-37" x="95.410156"/>
       <use xlink:href="#DejaVuSerif-35" x="159.033203"/>
      </g>
     </g>
    </g>
    <g id="xtick_4">
     <g id="line2d_7">
      <path d="M 338.668035 443.194033 
L 338.668035 11.871819 
" clip-path="url(#p1c87d1d2ca)" style="fill: none; stroke: #b0b0b0; stroke-opacity: 0.3; stroke-width: 0.8; stroke-linecap: square"/>
     </g>
     <g id="line2d_8">
      <g>
       <use xlink:href="#ma7a465e7df" x="338.668035" y="443.194033" style="stroke: #000000; stroke-width: 1.2"/>
      </g>
     </g>
     <g id="text_4">
      <!-- 1.00 -->
      <g transform="translate(323.082098 463.331845) scale(0.14 -0.14)">
       <defs>
        <path id="DejaVuSerif-31" d="M 909 0 
L 909 331 
L 1722 331 
L 1722 4213 
L 781 3603 
L 781 4013 
L 1919 4750 
L 2350 4750 
L 2350 331 
L 3163 331 
L 3163 0 
L 909 0 
z
" transform="scale(0.015625)"/>
       </defs>
       <use xlink:href="#DejaVuSerif-31"/>
       <use xlink:href="#DejaVuSerif-2e" x="63.623047"/>
       <use xlink:href="#DejaVuSerif-30" x="95.410156"/>
       <use xlink:href="#DejaVuSerif-30" x="159.033203"/>
      </g>
     </g>
    </g>
    <g id="xtick_5">
     <g id="line2d_9">
      <path d="M 409.074734 443.194033 
L 409.074734 11.871819 
" clip-path="url(#p1c87d1d2ca)" style="fill: none; stroke: #b0b0b0; stroke-opacity: 0.3; stroke-width: 0.8; stroke-linecap: square"/>
     </g>
     <g id="line2d_10">
      <g>
       <use xlink:href="#ma7a465e7df" x="409.074734" y="443.194033" style="stroke: #000000; stroke-width: 1.2"/>
      </g>
     </g>
     <g id="text_5">
      <!-- 1.25 -->
      <g transform="translate(393.488796 463.331845) scale(0.14 -0.14)">
       <use xlink:href="#DejaVuSerif-31"/>
       <use xlink:href="#DejaVuSerif-2e" x="63.623047"/>
       <use xlink:href="#DejaVuSerif-32" x="95.410156"/>
       <use xlink:href="#DejaVuSerif-35" x="159.033203"/>
      </g>
     </g>
    </g>
    <g id="xtick_6">
     <g id="line2d_11">
      <path d="M 479.481432 443.194033 
L 479.481432 11.871819 
" clip-path="url(#p1c87d1d2ca)" style="fill: none; stroke: #b0b0b0; stroke-opacity: 0.3; stroke-width: 0.8; stroke-linecap: square"/>
     </g>
     <g id="line2d_12">
      <g>
       <use xlink:href="#ma7a465e7df" x="479.481432" y="443.194033" style="stroke: #000000; stroke-width: 1.2"/>
      </g>
     </g>
     <g id="text_6">
      <!-- 1.50 -->
      <g transform="translate(463.895495 463.331845) scale(0.14 -0.14)">
       <use xlink:href="#DejaVuSerif-31"/>
       <use xlink:href="#DejaVuSerif-2e" x="63.623047"/>
       <use xlink:href="#DejaVuSerif-35" x="95.410156"/>
       <use xlink:href="#DejaVuSerif-30" x="159.033203"/>
      </g>
     </g>
    </g>
    <g id="xtick_7">
     <g id="line2d_13">
      <path d="M 549.888131 443.194033 
L 549.888131 11.871819 
" clip-path="url(#p1c87d1d2ca)" style="fill: none; stroke: #b0b0b0; stroke-opacity: 0.3; stroke-width: 0.8; stroke-linecap: square"/>
     </g>
     <g id="line2d_14">
      <g>
       <use xlink:href="#ma7a465e7df" x="549.888131" y="443.194033" style="stroke: #000000; stroke-width: 1.2"/>
      </g>
     </g>
     <g id="text_7">
      <!-- 1.75 -->
      <g transform="translate(534.302193 463.331845) scale(0.14 -0.14)">
       <use xlink:href="#DejaVuSerif-31"/>
       <use xlink:href="#DejaVuSerif-2e" x="63.623047"/>
       <use xlink:href="#DejaVuSerif-37" x="95.410156"/>
       <use xlink:href="#DejaVuSerif-35" x="159.033203"/>
      </g>
     </g>
    </g>
    <g id="xtick_8">
     <g id="line2d_15">
      <path d="M 620.29483 443.194033 
L 620.29483 11.871819 
" clip-path="url(#p1c87d1d2ca)" style="fill: none; stroke: #b0b0b0; stroke-opacity: 0.3; stroke-width: 0.8; stroke-linecap: square"/>
     </g>
     <g id="line2d_16">
      <g>
       <use xlink:href="#ma7a465e7df" x="620.29483" y="443.194033" style="stroke: #000000; stroke-width: 1.2"/>
      </g>
     </g>
     <g id="text_8">
      <!-- 2.00 -->
      <g transform="translate(604.708892 463.331845) scale(0.14 -0.14)">
       <use xlink:href="#DejaVuSerif-32"/>
       <use xlink:href="#DejaVuSerif-2e" x="63.623047"/>
       <use xlink:href="#DejaVuSerif-30" x="95.410156"/>
       <use xlink:href="#DejaVuSerif-30" x="159.033203"/>
      </g>
     </g>
    </g>
    <g id="text_9">
     <!-- $u_d$ -->
     <g transform="translate(345.549375 482.400908) scale(0.16 -0.16)">
      <defs>
       <path id="STIXGeneral-Italic-75" d="M 2950 762 
L 3040 704 
Q 2733 237 2560 89 
Q 2387 -58 2157 -58 
Q 1850 -58 1850 250 
Q 1850 538 2138 1510 
Q 1568 576 1257 253 
Q 947 -70 608 -70 
Q 269 -70 269 269 
Q 269 384 442 1088 
L 666 1978 
Q 755 2349 755 2406 
Q 755 2483 684 2521 
Q 614 2560 365 2560 
L 365 2650 
Q 806 2701 1325 2822 
L 1350 2803 
L 781 531 
Q 762 474 762 429 
Q 762 269 890 269 
Q 1178 269 1798 1210 
Q 2010 1530 2128 1795 
Q 2246 2061 2502 2765 
L 2976 2765 
L 2470 851 
Q 2349 390 2349 352 
Q 2349 243 2419 243 
Q 2496 243 2605 345 
Q 2714 448 2950 762 
z
" transform="scale(0.015625)"/>
       <path id="STIXGeneral-Italic-64" d="M 3334 4371 
L 3373 4333 
L 3123 3360 
L 2739 1958 
Q 2323 429 2323 384 
Q 2323 256 2438 256 
Q 2522 256 2614 336 
Q 2707 416 2963 710 
L 3040 646 
Q 2547 -83 2099 -83 
Q 1978 -83 1907 -6 
Q 1837 70 1837 205 
Q 1837 397 1920 774 
Q 1645 307 1379 118 
Q 1114 -70 781 -70 
Q 461 -70 278 125 
Q 96 320 96 678 
Q 96 1440 713 2131 
Q 1331 2822 1965 2822 
Q 2163 2822 2256 2732 
Q 2349 2643 2381 2451 
L 2387 2451 
L 2675 3494 
Q 2765 3808 2765 3949 
Q 2765 4051 2694 4076 
Q 2624 4102 2355 4115 
L 2355 4224 
Q 2848 4269 3334 4371 
z
M 2278 2310 
Q 2278 2477 2185 2576 
Q 2093 2675 1978 2675 
Q 1677 2675 1395 2381 
Q 1075 2042 864 1571 
Q 653 1101 653 704 
Q 653 486 752 361 
Q 851 237 1024 237 
Q 1312 237 1606 550 
Q 1901 864 2089 1350 
Q 2278 1837 2278 2310 
z
" transform="scale(0.015625)"/>
      </defs>
      <use xlink:href="#STIXGeneral-Italic-75" transform="translate(0 0.90625)"/>
      <use xlink:href="#STIXGeneral-Italic-64" transform="translate(49.999985 -12.321875) scale(0.7)"/>
     </g>
    </g>
   </g>
   <g id="matplotlib.axis_2">
    <g id="ytick_1">
     <g id="line2d_17">
      <path d="M 58.449375 423.588477 
L 647.049375 423.588477 
" clip-path="url(#p1c87d1d2ca)" style="fill: none; stroke: #b0b0b0; stroke-opacity: 0.3; stroke-width: 0.8; stroke-linecap: square"/>
     </g>
     <g id="line2d_18">
      <defs>
       <path id="m4a4feb802c" d="M 0 0 
L -6 0 
" style="stroke: #000000; stroke-width: 1.2"/>
      </defs>
      <g>
       <use xlink:href="#m4a4feb802c" x="58.449375" y="423.588477" style="stroke: #000000; stroke-width: 1.2"/>
      </g>
     </g>
     <g id="text_10">
      <!-- 0.0 -->
      <g transform="translate(26.685 428.907384) scale(0.14 -0.14)">
       <use xlink:href="#DejaVuSerif-30"/>
       <use xlink:href="#DejaVuSerif-2e" x="63.623047"/>
       <use xlink:href="#DejaVuSerif-30" x="95.410156"/>
      </g>
     </g>
    </g>
    <g id="ytick_2">
     <g id="line2d_19">
      <path d="M 58.449375 371.66912 
L 647.049375 371.66912 
" clip-path="url(#p1c87d1d2ca)" style="fill: none; stroke: #b0b0b0; stroke-opacity: 0.3; stroke-width: 0.8; stroke-linecap: square"/>
     </g>
     <g id="line2d_20">
      <g>
       <use xlink:href="#m4a4feb802c" x="58.449375" y="371.66912" style="stroke: #000000; stroke-width: 1.2"/>
      </g>
     </g>
     <g id="text_11">
      <!-- 0.2 -->
      <g transform="translate(26.685 376.988027) scale(0.14 -0.14)">
       <use xlink:href="#DejaVuSerif-30"/>
       <use xlink:href="#DejaVuSerif-2e" x="63.623047"/>
       <use xlink:href="#DejaVuSerif-32" x="95.410156"/>
      </g>
     </g>
    </g>
    <g id="ytick_3">
     <g id="line2d_21">
      <path d="M 58.449375 319.749763 
L 647.049375 319.749763 
" clip-path="url(#p1c87d1d2ca)" style="fill: none; stroke: #b0b0b0; stroke-opacity: 0.3; stroke-width: 0.8; stroke-linecap: square"/>
     </g>
     <g id="line2d_22">
      <g>
       <use xlink:href="#m4a4feb802c" x="58.449375" y="319.749763" style="stroke: #000000; stroke-width: 1.2"/>
      </g>
     </g>
     <g id="text_12">
      <!-- 0.4 -->
      <g transform="translate(26.685 325.068669) scale(0.14 -0.14)">
       <defs>
        <path id="DejaVuSerif-34" d="M 2234 1581 
L 2234 4063 
L 641 1581 
L 2234 1581 
z
M 3609 0 
L 1484 0 
L 1484 331 
L 2234 331 
L 2234 1247 
L 197 1247 
L 197 1588 
L 2241 4750 
L 2859 4750 
L 2859 1581 
L 3750 1581 
L 3750 1247 
L 2859 1247 
L 2859 331 
L 3609 331 
L 3609 0 
z
" transform="scale(0.015625)"/>
       </defs>
       <use xlink:href="#DejaVuSerif-30"/>
       <use xlink:href="#DejaVuSerif-2e" x="63.623047"/>
       <use xlink:href="#DejaVuSerif-34" x="95.410156"/>
      </g>
     </g>
    </g>
    <g id="ytick_4">
     <g id="line2d_23">
      <path d="M 58.449375 267.830406 
L 647.049375 267.830406 
" clip-path="url(#p1c87d1d2ca)" style="fill: none; stroke: #b0b0b0; stroke-opacity: 0.3; stroke-width: 0.8; stroke-linecap: square"/>
     </g>
     <g id="line2d_24">
      <g>
       <use xlink:href="#m4a4feb802c" x="58.449375" y="267.830406" style="stroke: #000000; stroke-width: 1.2"/>
      </g>
     </g>
     <g id="text_13">
      <!-- 0.6 -->
      <g transform="translate(26.685 273.149312) scale(0.14 -0.14)">
       <defs>
        <path id="DejaVuSerif-36" d="M 2094 219 
Q 2534 219 2771 542 
Q 3009 866 3009 1472 
Q 3009 2078 2771 2401 
Q 2534 2725 2094 2725 
Q 1647 2725 1412 2412 
Q 1178 2100 1178 1509 
Q 1178 888 1415 553 
Q 1653 219 2094 219 
z
M 1075 2569 
Q 1288 2803 1556 2918 
Q 1825 3034 2163 3034 
Q 2859 3034 3264 2615 
Q 3669 2197 3669 1472 
Q 3669 763 3233 336 
Q 2797 -91 2069 -91 
Q 1278 -91 853 498 
Q 428 1088 428 2181 
Q 428 3406 931 4078 
Q 1434 4750 2350 4750 
Q 2597 4750 2869 4703 
Q 3141 4656 3425 4563 
L 3425 3794 
L 3072 3794 
Q 3034 4109 2831 4275 
Q 2628 4441 2284 4441 
Q 1678 4441 1381 3981 
Q 1084 3522 1075 2569 
z
" transform="scale(0.015625)"/>
       </defs>
       <use xlink:href="#DejaVuSerif-30"/>
       <use xlink:href="#DejaVuSerif-2e" x="63.623047"/>
       <use xlink:href="#DejaVuSerif-36" x="95.410156"/>
      </g>
     </g>
    </g>
    <g id="ytick_5">
     <g id="line2d_25">
      <path d="M 58.449375 215.911049 
L 647.049375 215.911049 
" clip-path="url(#p1c87d1d2ca)" style="fill: none; stroke: #b0b0b0; stroke-opacity: 0.3; stroke-width: 0.8; stroke-linecap: square"/>
     </g>
     <g id="line2d_26">
      <g>
       <use xlink:href="#m4a4feb802c" x="58.449375" y="215.911049" style="stroke: #000000; stroke-width: 1.2"/>
      </g>
     </g>
     <g id="text_14">
      <!-- 0.8 -->
      <g transform="translate(26.685 221.229955) scale(0.14 -0.14)">
       <defs>
        <path id="DejaVuSerif-38" d="M 2981 1275 
Q 2981 1775 2732 2051 
Q 2484 2328 2034 2328 
Q 1584 2328 1336 2051 
Q 1088 1775 1088 1275 
Q 1088 772 1336 495 
Q 1584 219 2034 219 
Q 2484 219 2732 495 
Q 2981 772 2981 1275 
z
M 2853 3541 
Q 2853 3966 2637 4203 
Q 2422 4441 2034 4441 
Q 1650 4441 1433 4203 
Q 1216 3966 1216 3541 
Q 1216 3113 1433 2875 
Q 1650 2638 2034 2638 
Q 2422 2638 2637 2875 
Q 2853 3113 2853 3541 
z
M 2516 2484 
Q 3047 2413 3344 2092 
Q 3641 1772 3641 1275 
Q 3641 619 3225 264 
Q 2809 -91 2034 -91 
Q 1263 -91 845 264 
Q 428 619 428 1275 
Q 428 1772 725 2092 
Q 1022 2413 1556 2484 
Q 1084 2569 832 2842 
Q 581 3116 581 3541 
Q 581 4103 968 4426 
Q 1356 4750 2034 4750 
Q 2713 4750 3100 4426 
Q 3488 4103 3488 3541 
Q 3488 3116 3236 2842 
Q 2984 2569 2516 2484 
z
" transform="scale(0.015625)"/>
       </defs>
       <use xlink:href="#DejaVuSerif-30"/>
       <use xlink:href="#DejaVuSerif-2e" x="63.623047"/>
       <use xlink:href="#DejaVuSerif-38" x="95.410156"/>
      </g>
     </g>
    </g>
    <g id="ytick_6">
     <g id="line2d_27">
      <path d="M 58.449375 163.991692 
L 647.049375 163.991692 
" clip-path="url(#p1c87d1d2ca)" style="fill: none; stroke: #b0b0b0; stroke-opacity: 0.3; stroke-width: 0.8; stroke-linecap: square"/>
     </g>
     <g id="line2d_28">
      <g>
       <use xlink:href="#m4a4feb802c" x="58.449375" y="163.991692" style="stroke: #000000; stroke-width: 1.2"/>
      </g>
     </g>
     <g id="text_15">
      <!-- 1.0 -->
      <g transform="translate(26.685 169.310598) scale(0.14 -0.14)">
       <use xlink:href="#DejaVuSerif-31"/>
       <use xlink:href="#DejaVuSerif-2e" x="63.623047"/>
       <use xlink:href="#DejaVuSerif-30" x="95.410156"/>
      </g>
     </g>
    </g>
    <g id="ytick_7">
     <g id="line2d_29">
      <path d="M 58.449375 112.072335 
L 647.049375 112.072335 
" clip-path="url(#p1c87d1d2ca)" style="fill: none; stroke: #b0b0b0; stroke-opacity: 0.3; stroke-width: 0.8; stroke-linecap: square"/>
     </g>
     <g id="line2d_30">
      <g>
       <use xlink:href="#m4a4feb802c" x="58.449375" y="112.072335" style="stroke: #000000; stroke-width: 1.2"/>
      </g>
     </g>
     <g id="text_16">
      <!-- 1.2 -->
      <g transform="translate(26.685 117.391241) scale(0.14 -0.14)">
       <use xlink:href="#DejaVuSerif-31"/>
       <use xlink:href="#DejaVuSerif-2e" x="63.623047"/>
       <use xlink:href="#DejaVuSerif-32" x="95.410156"/>
      </g>
     </g>
    </g>
    <g id="ytick_8">
     <g id="line2d_31">
      <path d="M 58.449375 60.152978 
L 647.049375 60.152978 
" clip-path="url(#p1c87d1d2ca)" style="fill: none; stroke: #b0b0b0; stroke-opacity: 0.3; stroke-width: 0.8; stroke-linecap: square"/>
     </g>
     <g id="line2d_32">
      <g>
       <use xlink:href="#m4a4feb802c" x="58.449375" y="60.152978" style="stroke: #000000; stroke-width: 1.2"/>
      </g>
     </g>
     <g id="text_17">
      <!-- 1.4 -->
      <g transform="translate(26.685 65.471884) scale(0.14 -0.14)">
       <use xlink:href="#DejaVuSerif-31"/>
       <use xlink:href="#DejaVuSerif-2e" x="63.623047"/>
       <use xlink:href="#DejaVuSerif-34" x="95.410156"/>
      </g>
     </g>
    </g>
    <g id="text_18">
     <!-- $\Delta n = n_{\rm max} - n_{\rm min}$ -->
     <g transform="translate(19.3575 280.012926) rotate(-90) scale(0.16 -0.16)">
      <defs>
       <path id="STIXGeneral-Regular-394" d="M 4320 0 
L 307 0 
L 2221 4314 
L 2349 4314 
L 4320 0 
z
M 3354 589 
L 2118 3405 
L 870 589 
L 3354 589 
z
" transform="scale(0.015625)"/>
       <path id="STIXGeneral-Italic-6e" d="M 2944 749 
L 3034 666 
Q 2707 218 2534 80 
Q 2362 -58 2138 -58 
Q 2010 -58 1923 28 
Q 1837 115 1837 288 
Q 1837 390 1939 768 
L 2221 1805 
Q 2310 2150 2310 2310 
Q 2310 2496 2157 2496 
Q 1971 2496 1750 2275 
Q 1530 2054 1210 1587 
Q 998 1274 899 1024 
Q 800 774 570 0 
L 90 0 
L 704 2240 
Q 717 2304 717 2349 
Q 717 2445 630 2480 
Q 544 2515 301 2522 
L 301 2624 
Q 550 2675 857 2729 
Q 1165 2784 1338 2822 
L 1363 2810 
L 934 1414 
Q 1408 2170 1753 2496 
Q 2099 2822 2413 2822 
Q 2611 2822 2720 2716 
Q 2829 2611 2829 2432 
Q 2829 2272 2765 2048 
L 2406 749 
Q 2317 429 2317 358 
Q 2317 243 2419 243 
Q 2541 243 2810 582 
Q 2854 634 2944 749 
z
" transform="scale(0.015625)"/>
       <path id="STIXGeneral-Regular-3d" d="M 4077 2048 
L 307 2048 
L 307 2470 
L 4077 2470 
L 4077 2048 
z
M 4077 768 
L 307 768 
L 307 1190 
L 4077 1190 
L 4077 768 
z
" transform="scale(0.015625)"/>
       <path id="STIXGeneral-Regular-6d" d="M 4960 0 
L 3565 0 
L 3565 96 
Q 3834 122 3907 208 
Q 3981 294 3981 576 
L 3981 1894 
Q 3981 2278 3869 2444 
Q 3757 2611 3488 2611 
Q 3264 2611 3107 2521 
Q 2950 2432 2803 2221 
L 2803 608 
Q 2803 301 2896 201 
Q 2989 102 3264 96 
L 3264 0 
L 1830 0 
L 1830 96 
Q 2112 115 2189 188 
Q 2266 262 2266 550 
L 2266 1901 
Q 2266 2611 1850 2611 
Q 1670 2611 1468 2531 
Q 1267 2451 1171 2336 
Q 1088 2240 1088 2227 
L 1088 448 
Q 1088 243 1177 176 
Q 1267 109 1523 96 
L 1523 0 
L 102 0 
L 102 96 
Q 371 102 460 195 
Q 550 288 550 563 
L 550 2150 
Q 550 2387 499 2480 
Q 448 2573 326 2573 
Q 230 2573 122 2547 
L 122 2656 
Q 557 2778 1011 2944 
L 1062 2925 
L 1062 2451 
L 1075 2451 
Q 1363 2752 1584 2848 
Q 1805 2944 2054 2944 
Q 2560 2944 2733 2406 
Q 3232 2944 3776 2944 
Q 4518 2944 4518 1792 
L 4518 493 
Q 4518 282 4582 202 
Q 4646 122 4794 109 
L 4960 96 
L 4960 0 
z
" transform="scale(0.015625)"/>
       <path id="STIXGeneral-Regular-61" d="M 2829 422 
L 2829 243 
Q 2586 -64 2253 -64 
Q 1888 -64 1843 403 
L 1837 403 
Q 1427 -64 909 -64 
Q 608 -64 422 112 
Q 237 288 237 602 
Q 237 1050 685 1350 
Q 992 1555 1837 1869 
L 1837 2214 
Q 1837 2502 1699 2646 
Q 1562 2790 1338 2790 
Q 1146 2790 1018 2697 
Q 890 2605 890 2477 
Q 890 2419 909 2348 
Q 928 2278 928 2208 
Q 928 2112 841 2029 
Q 755 1946 634 1946 
Q 525 1946 441 2029 
Q 358 2112 358 2240 
Q 358 2547 685 2752 
Q 986 2944 1421 2944 
Q 1939 2944 2176 2656 
Q 2291 2522 2323 2384 
Q 2355 2246 2355 1946 
L 2355 723 
Q 2355 301 2554 301 
Q 2682 301 2829 422 
z
M 1837 813 
L 1837 1715 
Q 1248 1510 1018 1293 
Q 800 1094 800 800 
Q 800 557 921 432 
Q 1043 307 1242 307 
Q 1453 307 1613 410 
Q 1747 506 1792 589 
Q 1837 672 1837 813 
z
" transform="scale(0.015625)"/>
       <path id="STIXGeneral-Regular-78" d="M 3066 0 
L 1779 0 
L 1779 96 
Q 1939 109 1987 137 
Q 2035 166 2035 250 
Q 2035 307 1997 365 
L 1414 1261 
L 909 474 
Q 781 275 781 211 
Q 781 96 1037 96 
L 1037 0 
L 109 0 
L 109 96 
Q 269 109 355 169 
Q 442 230 576 422 
L 1306 1478 
L 704 2400 
Q 557 2624 454 2704 
Q 352 2784 211 2784 
L 154 2784 
L 154 2880 
L 1478 2880 
L 1478 2784 
Q 1203 2778 1203 2643 
Q 1203 2509 1498 2074 
Q 1581 1958 1587 1946 
Q 1619 1990 1779 2227 
Q 1811 2285 1856 2349 
Q 1901 2413 1923 2451 
Q 1946 2490 1971 2528 
Q 1997 2566 2006 2595 
Q 2016 2624 2016 2643 
Q 2016 2765 1760 2784 
L 1760 2880 
L 2771 2880 
L 2771 2784 
Q 2445 2771 2253 2502 
L 1722 1734 
L 2541 480 
Q 2790 96 3066 96 
L 3066 0 
z
" transform="scale(0.015625)"/>
       <path id="STIXGeneral-Regular-2212" d="M 3974 1408 
L 410 1408 
L 410 1830 
L 3974 1830 
L 3974 1408 
z
" transform="scale(0.015625)"/>
       <path id="STIXGeneral-Regular-69" d="M 1152 4045 
Q 1152 3904 1056 3811 
Q 960 3718 819 3718 
Q 685 3718 592 3811 
Q 499 3904 499 4045 
Q 499 4179 595 4275 
Q 691 4371 826 4371 
Q 966 4371 1059 4275 
Q 1152 4179 1152 4045 
z
M 1619 0 
L 102 0 
L 102 96 
Q 435 115 521 211 
Q 608 307 608 666 
L 608 2118 
Q 608 2342 563 2432 
Q 518 2522 397 2522 
Q 243 2522 128 2490 
L 128 2592 
L 1120 2944 
L 1146 2918 
L 1146 672 
Q 1146 314 1226 218 
Q 1306 122 1619 96 
L 1619 0 
z
" transform="scale(0.015625)"/>
       <path id="STIXGeneral-Regular-6e" d="M 3104 0 
L 1773 0 
L 1779 96 
Q 2016 115 2096 233 
Q 2176 352 2176 672 
L 2176 1946 
Q 2176 2592 1709 2592 
Q 1549 2592 1408 2515 
Q 1267 2438 1050 2227 
L 1050 461 
Q 1050 269 1136 192 
Q 1222 115 1466 96 
L 1466 0 
L 115 0 
L 115 96 
Q 358 115 435 214 
Q 512 314 512 602 
L 512 2157 
Q 512 2394 467 2483 
Q 422 2573 288 2573 
Q 160 2573 102 2547 
L 102 2656 
Q 550 2784 979 2944 
L 1030 2925 
L 1030 2426 
L 1037 2426 
Q 1491 2944 1958 2944 
Q 2323 2944 2518 2688 
Q 2714 2432 2714 1958 
L 2714 544 
Q 2714 288 2790 205 
Q 2867 122 3104 96 
L 3104 0 
z
" transform="scale(0.015625)"/>
      </defs>
      <use xlink:href="#STIXGeneral-Regular-394" transform="translate(0 0.59375)"/>
      <use xlink:href="#STIXGeneral-Italic-6e" transform="translate(72.199982 0.59375)"/>
      <use xlink:href="#STIXGeneral-Regular-3d" transform="translate(136.639963 0.59375)"/>
      <use xlink:href="#STIXGeneral-Italic-6e" transform="translate(219.579944 0.59375)"/>
      <use xlink:href="#STIXGeneral-Regular-6d" transform="translate(269.579929 -12.634375) scale(0.7)"/>
      <use xlink:href="#STIXGeneral-Regular-61" transform="translate(324.03992 -12.634375) scale(0.7)"/>
      <use xlink:href="#STIXGeneral-Regular-78" transform="translate(355.119916 -12.634375) scale(0.7)"/>
      <use xlink:href="#STIXGeneral-Regular-2212" transform="translate(408.969276 0.59375)"/>
      <use xlink:href="#STIXGeneral-Italic-6e" transform="translate(491.909258 0.59375)"/>
      <use xlink:href="#STIXGeneral-Regular-6d" transform="translate(541.909242 -12.634375) scale(0.7)"/>
      <use xlink:href="#STIXGeneral-Regular-69" transform="translate(596.369234 -12.634375) scale(0.7)"/>
      <use xlink:href="#STIXGeneral-Regular-6e" transform="translate(615.829225 -12.634375) scale(0.7)"/>
     </g>
    </g>
   </g>
   <g id="line2d_33">
    <path d="M 178.506109 423.588477 
L 178.94834 411.182631 
L 179.832801 402.100921 
L 180.717263 395.848162 
L 182.043956 388.499445 
L 183.370649 382.44294 
L 185.139573 375.540841 
L 186.908497 369.512647 
L 189.119651 362.812491 
L 191.330806 356.78095 
L 193.984192 350.194501 
L 197.079809 343.189404 
L 200.175425 336.747553 
L 203.713273 329.926392 
L 207.25112 323.569347 
L 211.231199 316.869352 
L 215.653509 309.887018 
L 220.075818 303.309335 
L 224.940359 296.466381 
L 230.24713 289.398733 
L 235.996132 282.140067 
L 241.745135 275.236133 
L 247.936368 268.143669 
L 254.569832 260.887329 
L 261.645528 253.488083 
L 269.163454 245.96379 
L 277.123611 238.329685 
L 285.083768 230.997952 
L 293.486156 223.550217 
L 302.330775 215.998964 
L 311.617625 208.355088 
L 321.346706 200.628117 
L 331.518018 192.826397 
L 342.131561 184.957259 
L 353.629566 176.715253 
L 365.569801 168.437886 
L 377.952268 160.12849 
L 390.776966 151.790003 
L 404.043894 143.425023 
L 418.195285 134.769292 
L 432.788906 126.106734 
L 447.824758 117.437928 
L 463.745073 108.519057 
L 480.107618 99.608192 
L 497.354625 90.473601 
L 515.043863 81.357967 
L 533.617563 72.040852 
L 552.633494 62.75105 
L 572.533887 53.278641 
L 592.876511 43.839869 
L 614.103596 34.234593 
L 620.29483 31.477374 
L 620.29483 31.477374 
" clip-path="url(#p1c87d1d2ca)" style="fill: none; stroke: #ff0000; stroke-opacity: 0.9; stroke-width: 1.5; stroke-linecap: square"/>
   </g>
   <g id="patch_3">
    <path d="M 58.449375 443.194033 
L 58.449375 11.871819 
" style="fill: none; stroke: #000000; stroke-width: 1.2; stroke-linejoin: miter; stroke-linecap: square"/>
   </g>
   <g id="patch_4">
    <path d="M 647.049375 443.194033 
L 647.049375 11.871819 
" style="fill: none; stroke: #000000; stroke-width: 1.2; stroke-linejoin: miter; stroke-linecap: square"/>
   </g>
   <g id="patch_5">
    <path d="M 58.449375 443.194033 
L 647.049375 443.194033 
" style="fill: none; stroke: #000000; stroke-width: 1.2; stroke-linejoin: miter; stroke-linecap: square"/>
   </g>
   <g id="patch_6">
    <path d="M 58.449375 11.871819 
L 647.049375 11.871819 
" style="fill: none; stroke: #000000; stroke-width: 1.2; stroke-linejoin: miter; stroke-linecap: square"/>
   </g>
   <g id="legend_1">
    <g id="patch_7">
     <path d="M 68.849375 116.201819 
L 185.969375 116.201819 
Q 188.369375 116.201819 188.369375 113.801819 
L 188.369375 22.271819 
Q 188.369375 19.871819 185.969375 19.871819 
L 68.849375 19.871819 
Q 66.449375 19.871819 66.449375 22.271819 
L 66.449375 113.801819 
Q 66.449375 116.201819 68.849375 116.201819 
z
" style="fill: #4d4d4d; opacity: 0.5; stroke: #4d4d4d; stroke-linejoin: miter"/>
    </g>
    <g id="patch_8">
     <path d="M 66.849375 114.201819 
L 183.969375 114.201819 
Q 186.369375 114.201819 186.369375 111.801819 
L 186.369375 20.271819 
Q 186.369375 17.871819 183.969375 17.871819 
L 66.849375 17.871819 
Q 64.449375 17.871819 64.449375 20.271819 
L 64.449375 111.801819 
Q 64.449375 114.201819 66.849375 114.201819 
z
" style="fill: #ffffff; opacity: 0.95; stroke: #cccccc; stroke-linejoin: miter"/>
    </g>
    <g id="line2d_34">
     <path d="M 69.249375 30.951819 
L 81.249375 30.951819 
L 93.249375 30.951819 
" style="fill: none; stroke: #ff0000; stroke-opacity: 0.9; stroke-width: 1.5; stroke-linecap: square"/>
    </g>
    <g id="text_19">
     <!-- $1.206 \sqrt{u_d - u^{\star}}$ -->
     <g transform="translate(102.849375 35.151819) scale(0.12 -0.12)">
      <defs>
       <path id="STIXGeneral-Regular-31" d="M 2522 0 
L 755 0 
L 755 96 
Q 1107 115 1235 227 
Q 1363 339 1363 608 
L 1363 3482 
Q 1363 3795 1171 3795 
Q 1082 3795 883 3718 
L 710 3654 
L 710 3744 
L 1856 4326 
L 1914 4307 
L 1914 486 
Q 1914 275 2042 185 
Q 2170 96 2522 96 
L 2522 0 
z
" transform="scale(0.015625)"/>
       <path id="STIXGeneral-Regular-2e" d="M 1158 275 
Q 1158 134 1052 32 
Q 947 -70 800 -70 
Q 653 -70 550 32 
Q 448 134 448 281 
Q 448 429 553 534 
Q 659 640 806 640 
Q 947 640 1052 531 
Q 1158 422 1158 275 
z
" transform="scale(0.015625)"/>
       <path id="STIXGeneral-Regular-32" d="M 3034 877 
L 2688 0 
L 186 0 
L 186 77 
L 1325 1286 
Q 1773 1754 1965 2144 
Q 2157 2534 2157 2950 
Q 2157 3379 1920 3616 
Q 1683 3853 1267 3853 
Q 922 3853 720 3673 
Q 518 3494 326 3021 
L 192 3053 
Q 301 3648 630 3987 
Q 960 4326 1523 4326 
Q 2054 4326 2380 4006 
Q 2707 3686 2707 3200 
Q 2707 2477 1888 1613 
L 832 486 
L 2330 486 
Q 2541 486 2665 569 
Q 2790 653 2944 915 
L 3034 877 
z
" transform="scale(0.015625)"/>
       <path id="STIXGeneral-Regular-30" d="M 3046 2112 
Q 3046 1683 2963 1302 
Q 2880 922 2717 602 
Q 2554 282 2266 96 
Q 1978 -90 1600 -90 
Q 1210 -90 915 108 
Q 621 307 461 640 
Q 301 973 227 1350 
Q 154 1728 154 2150 
Q 154 2746 301 3222 
Q 448 3699 790 4012 
Q 1133 4326 1626 4326 
Q 2253 4326 2649 3712 
Q 3046 3098 3046 2112 
z
M 2432 2080 
Q 2432 3091 2217 3625 
Q 2003 4160 1587 4160 
Q 1190 4160 979 3622 
Q 768 3085 768 2106 
Q 768 1120 979 598 
Q 1190 77 1600 77 
Q 2003 77 2217 598 
Q 2432 1120 2432 2080 
z
" transform="scale(0.015625)"/>
       <path id="STIXGeneral-Regular-36" d="M 2854 4378 
L 2867 4275 
Q 2112 4154 1606 3664 
Q 1101 3174 973 2451 
Q 1344 2739 1786 2739 
Q 2349 2739 2672 2380 
Q 2995 2022 2995 1402 
Q 2995 774 2669 378 
Q 2291 -90 1651 -90 
Q 870 -90 518 557 
Q 218 1107 218 1786 
Q 218 2835 915 3552 
Q 1312 3962 1731 4131 
Q 2150 4301 2854 4378 
z
M 2419 1203 
Q 2419 2445 1555 2445 
Q 1235 2445 1024 2275 
Q 813 2106 813 1702 
Q 813 954 1046 522 
Q 1280 90 1722 90 
Q 2061 90 2240 394 
Q 2419 698 2419 1203 
z
" transform="scale(0.015625)"/>
       <path id="STIXGeneral-Regular-221a" d="M 6163 6227 
L 3104 -1658 
L 2899 -1658 
L 1606 1734 
Q 1466 2112 1210 2112 
Q 1011 2112 794 1914 
L 717 2042 
L 1715 2835 
L 1837 2835 
L 3142 -595 
L 3168 -595 
L 5818 6227 
L 6163 6227 
z
" transform="scale(0.015625)"/>
       <path id="STIXGeneral-Regular-22c6" d="M 4256 2336 
L 2810 1459 
L 3494 -83 
L 2240 1062 
L 986 -83 
L 1670 1459 
L 224 2336 
L 1901 2144 
L 2240 3821 
L 2579 2144 
L 4256 2336 
z
" transform="scale(0.015625)"/>
      </defs>
      <use xlink:href="#STIXGeneral-Regular-31" transform="translate(0 0.703125)"/>
      <use xlink:href="#STIXGeneral-Regular-2e" transform="translate(49.999985 0.703125)"/>
      <use xlink:href="#STIXGeneral-Regular-32" transform="translate(74.999969 0.703125)"/>
      <use xlink:href="#STIXGeneral-Regular-30" transform="translate(124.999954 0.703125)"/>
      <use xlink:href="#STIXGeneral-Regular-36" transform="translate(174.999939 0.703125)"/>
      <use xlink:href="#STIXGeneral-Regular-221a" transform="translate(224.999924 0.703125)"/>
      <use xlink:href="#STIXGeneral-Italic-75" transform="translate(330.299911 0.682813)"/>
      <use xlink:href="#STIXGeneral-Italic-64" transform="translate(380.299896 -12.545312) scale(0.7)"/>
      <use xlink:href="#STIXGeneral-Regular-2212" transform="translate(434.149257 0.682813)"/>
      <use xlink:href="#STIXGeneral-Italic-75" transform="translate(517.089238 0.682813)"/>
      <use xlink:href="#STIXGeneral-Regular-22c6" transform="translate(573.262348 35.957813) scale(0.7)"/>
      <path d="M 317.799911 91.5 
L 317.799911 97.75 
L 639.171712 97.75 
L 639.171712 91.5 
L 317.799911 91.5 
z
"/>
     </g>
    </g>
    <g id="PathCollection_1">
     <defs>
      <path id="m85687ff2a4" d="M 0 3.535534 
C 0.937635 3.535534 1.836992 3.163008 2.5 2.5 
C 3.163008 1.836992 3.535534 0.937635 3.535534 0 
C 3.535534 -0.937635 3.163008 -1.836992 2.5 -2.5 
C 1.836992 -3.163008 0.937635 -3.535534 0 -3.535534 
C -0.937635 -3.535534 -1.836992 -3.163008 -2.5 -2.5 
C -3.163008 -1.836992 -3.535534 -0.937635 -3.535534 0 
C -3.535534 0.937635 -3.163008 1.836992 -2.5 2.5 
C -1.836992 3.163008 -0.937635 3.535534 0 3.535534 
z
" style="stroke: #000000; stroke-opacity: 0.8"/>
     </defs>
     <g>
      <use xlink:href="#m85687ff2a4" x="81.249375" y="50.239944" style="fill-opacity: 0.8; stroke: #000000; stroke-opacity: 0.8"/>
     </g>
    </g>
    <g id="text_20">
     <!-- $\Delta n=n_{\rm max} - n_{\rm min}$ -->
     <g transform="translate(102.849375 53.389944) scale(0.12 -0.12)">
      <use xlink:href="#STIXGeneral-Regular-394" transform="translate(0 0.59375)"/>
      <use xlink:href="#STIXGeneral-Italic-6e" transform="translate(72.199982 0.59375)"/>
      <use xlink:href="#STIXGeneral-Regular-3d" transform="translate(136.639963 0.59375)"/>
      <use xlink:href="#STIXGeneral-Italic-6e" transform="translate(219.579944 0.59375)"/>
      <use xlink:href="#STIXGeneral-Regular-6d" transform="translate(269.579929 -12.634375) scale(0.7)"/>
      <use xlink:href="#STIXGeneral-Regular-61" transform="translate(324.03992 -12.634375) scale(0.7)"/>
      <use xlink:href="#STIXGeneral-Regular-78" transform="translate(355.119916 -12.634375) scale(0.7)"/>
      <use xlink:href="#STIXGeneral-Regular-2212" transform="translate(408.969276 0.59375)"/>
      <use xlink:href="#STIXGeneral-Italic-6e" transform="translate(491.909258 0.59375)"/>
      <use xlink:href="#STIXGeneral-Regular-6d" transform="translate(541.909242 -12.634375) scale(0.7)"/>
      <use xlink:href="#STIXGeneral-Regular-69" transform="translate(596.369234 -12.634375) scale(0.7)"/>
      <use xlink:href="#STIXGeneral-Regular-6e" transform="translate(615.829225 -12.634375) scale(0.7)"/>
     </g>
    </g>
    <g id="line2d_35">
     <path d="M 69.249375 67.045569 
L 81.249375 67.045569 
L 93.249375 67.045569 
" style="fill: none; stroke-dasharray: 7.4,3.2; stroke-dashoffset: 0; stroke: #bf00bf; stroke-opacity: 0.8; stroke-width: 2"/>
    </g>
    <g id="text_21">
     <!-- $\langle j \rangle$ fit ($u_d &gt; u^{\star}$) -->
     <g transform="translate(102.849375 71.245569) scale(0.12 -0.12)">
      <defs>
       <path id="STIXGeneral-Regular-27e8" d="M 2144 4563 
L 915 1606 
L 2138 -1363 
L 1805 -1363 
L 493 1542 
L 493 1670 
L 1811 4563 
L 2144 4563 
z
" transform="scale(0.015625)"/>
       <path id="STIXGeneral-Italic-6a" d="M 1786 3827 
Q 1786 3699 1690 3603 
Q 1594 3507 1466 3507 
Q 1318 3507 1219 3600 
Q 1120 3693 1120 3840 
Q 1120 3981 1222 4077 
Q 1325 4173 1459 4173 
Q 1587 4173 1686 4067 
Q 1786 3962 1786 3827 
z
M 1574 2803 
L 909 179 
Q 710 -595 419 -960 
Q 128 -1325 -288 -1325 
Q -512 -1325 -653 -1216 
Q -794 -1107 -794 -934 
Q -794 -819 -717 -736 
Q -640 -653 -531 -653 
Q -282 -653 -282 -890 
Q -282 -966 -320 -1014 
Q -358 -1062 -358 -1107 
Q -358 -1184 -243 -1184 
Q -51 -1184 80 -934 
Q 211 -685 378 -19 
L 838 1850 
Q 941 2266 941 2362 
Q 941 2470 873 2515 
Q 806 2560 634 2560 
L 467 2560 
L 467 2662 
Q 755 2682 1549 2822 
L 1574 2803 
z
" transform="scale(0.015625)"/>
       <path id="STIXGeneral-Regular-27e9" d="M 2067 1536 
L 749 -1363 
L 416 -1363 
L 1645 1600 
L 422 4563 
L 755 4563 
L 2067 1664 
L 2067 1536 
z
" transform="scale(0.015625)"/>
       <path id="DejaVuSerif-20" transform="scale(0.015625)"/>
       <path id="DejaVuSerif-66" d="M 2753 4078 
L 2450 4078 
Q 2447 4313 2317 4434 
Q 2188 4556 1941 4556 
Q 1619 4556 1487 4379 
Q 1356 4203 1356 3750 
L 1356 3322 
L 2284 3322 
L 2284 2988 
L 1356 2988 
L 1356 331 
L 2094 331 
L 2094 0 
L 231 0 
L 231 331 
L 781 331 
L 781 2988 
L 231 2988 
L 231 3322 
L 781 3322 
L 781 3738 
Q 781 4294 1070 4578 
Q 1359 4863 1919 4863 
Q 2128 4863 2337 4825 
Q 2547 4788 2753 4709 
L 2753 4078 
z
" transform="scale(0.015625)"/>
       <path id="DejaVuSerif-69" d="M 622 4353 
Q 622 4497 726 4603 
Q 831 4709 978 4709 
Q 1122 4709 1226 4603 
Q 1331 4497 1331 4353 
Q 1331 4206 1228 4103 
Q 1125 4000 978 4000 
Q 831 4000 726 4103 
Q 622 4206 622 4353 
z
M 1356 331 
L 1900 331 
L 1900 0 
L 231 0 
L 231 331 
L 781 331 
L 781 2988 
L 231 2988 
L 231 3322 
L 1356 3322 
L 1356 331 
z
" transform="scale(0.015625)"/>
       <path id="DejaVuSerif-74" d="M 691 2988 
L 184 2988 
L 184 3322 
L 691 3322 
L 691 4353 
L 1269 4353 
L 1269 3322 
L 2350 3322 
L 2350 2988 
L 1269 2988 
L 1269 878 
Q 1269 456 1350 337 
Q 1431 219 1650 219 
Q 1875 219 1978 351 
Q 2081 484 2088 781 
L 2522 781 
Q 2497 328 2275 118 
Q 2053 -91 1600 -91 
Q 1103 -91 897 129 
Q 691 350 691 878 
L 691 2988 
z
" transform="scale(0.015625)"/>
       <path id="DejaVuSerif-28" d="M 2041 -997 
Q 1281 -656 893 83 
Q 506 822 506 1931 
Q 506 3044 893 3783 
Q 1281 4522 2041 4863 
L 2041 4556 
Q 1559 4225 1350 3623 
Q 1141 3022 1141 1931 
Q 1141 844 1350 242 
Q 1559 -359 2041 -691 
L 2041 -997 
z
" transform="scale(0.015625)"/>
       <path id="STIXGeneral-Regular-3e" d="M 3974 1594 
L 358 -154 
L 358 250 
L 3123 1626 
L 358 3002 
L 358 3418 
L 3974 1658 
L 3974 1594 
z
" transform="scale(0.015625)"/>
       <path id="DejaVuSerif-29" d="M 453 -997 
L 453 -691 
Q 934 -359 1145 242 
Q 1356 844 1356 1931 
Q 1356 3022 1145 3623 
Q 934 4225 453 4556 
L 453 4863 
Q 1216 4522 1603 3783 
Q 1991 3044 1991 1931 
Q 1991 822 1603 83 
Q 1216 -656 453 -997 
z
" transform="scale(0.015625)"/>
      </defs>
      <use xlink:href="#STIXGeneral-Regular-27e8" transform="translate(0 0.932813)"/>
      <use xlink:href="#STIXGeneral-Italic-6a" transform="translate(39.999985 0.932813)"/>
      <use xlink:href="#STIXGeneral-Regular-27e9" transform="translate(67.799973 0.932813)"/>
      <use xlink:href="#DejaVuSerif-20" transform="translate(107.799957 0.932813)"/>
      <use xlink:href="#DejaVuSerif-66" transform="translate(139.587067 0.932813)"/>
      <use xlink:href="#DejaVuSerif-69" transform="translate(176.598785 0.932813)"/>
      <use xlink:href="#DejaVuSerif-74" transform="translate(208.581207 0.932813)"/>
      <use xlink:href="#DejaVuSerif-20" transform="translate(248.766754 0.932813)"/>
      <use xlink:href="#DejaVuSerif-28" transform="translate(280.553864 0.932813)"/>
      <use xlink:href="#STIXGeneral-Italic-75" transform="translate(319.567535 0.932813)"/>
      <use xlink:href="#STIXGeneral-Italic-64" transform="translate(369.56752 -12.295312) scale(0.7)"/>
      <use xlink:href="#STIXGeneral-Regular-3e" transform="translate(423.416881 0.932813)"/>
      <use xlink:href="#STIXGeneral-Italic-75" transform="translate(506.356862 0.932813)"/>
      <use xlink:href="#STIXGeneral-Regular-22c6" transform="translate(562.529972 36.207813) scale(0.7)"/>
      <use xlink:href="#DejaVuSerif-29" transform="translate(615.939336 0.932813)"/>
     </g>
    </g>
    <g id="line2d_36">
     <path d="M 69.249375 84.803694 
L 81.249375 84.803694 
L 93.249375 84.803694 
" style="fill: none; stroke-dasharray: 2,3.3; stroke-dashoffset: 0; stroke: #000000; stroke-opacity: 0.6; stroke-width: 2"/>
    </g>
    <g id="text_22">
     <!-- $\langle j \rangle=\bar{n}u_d$ -->
     <g transform="translate(102.849375 89.003694) scale(0.12 -0.12)">
      <defs>
       <path id="STIXGeneral-Regular-304" d="M -474 3501 
L -2464 3501 
L -2464 3846 
L -474 3846 
L -474 3501 
z
" transform="scale(0.015625)"/>
      </defs>
      <use xlink:href="#STIXGeneral-Regular-27e8" transform="translate(0 0.703125)"/>
      <use xlink:href="#STIXGeneral-Italic-6a" transform="translate(39.999985 0.703125)"/>
      <use xlink:href="#STIXGeneral-Regular-27e9" transform="translate(67.799973 0.703125)"/>
      <use xlink:href="#STIXGeneral-Regular-3d" transform="translate(122.239954 0.703125)"/>
      <use xlink:href="#STIXGeneral-Regular-304" transform="translate(259.179931 2.59375)"/>
      <use xlink:href="#STIXGeneral-Italic-6e" transform="translate(205.179935 0.703125)"/>
      <use xlink:href="#STIXGeneral-Italic-75" transform="translate(255.179919 0.703125)"/>
      <use xlink:href="#STIXGeneral-Italic-64" transform="translate(305.179904 -12.525) scale(0.7)"/>
     </g>
    </g>
    <g id="PathCollection_2">
     <path d="M 81.249375 107.147353 
C 82.18701 107.147353 83.086367 106.774827 83.749375 106.111819 
C 84.412383 105.448811 84.784909 104.549454 84.784909 103.611819 
C 84.784909 102.674184 84.412383 101.774827 83.749375 101.111819 
C 83.086367 100.448811 82.18701 100.076285 81.249375 100.076285 
C 80.31174 100.076285 79.412383 100.448811 78.749375 101.111819 
C 78.086367 101.774827 77.713841 102.674184 77.713841 103.611819 
C 77.713841 104.549454 78.086367 105.448811 78.749375 106.111819 
C 79.412383 106.774827 80.31174 107.147353 81.249375 107.147353 
L 81.249375 107.147353 
z
" style="fill: none; stroke: #0000ff; stroke-opacity: 0.7; stroke-width: 1.5"/>
    </g>
    <g id="text_23">
     <!-- $\langle j \rangle = \langle u n \rangle_t$ -->
     <g transform="translate(102.849375 106.761819) scale(0.12 -0.12)">
      <defs>
       <path id="STIXGeneral-Italic-74" d="M 1894 2739 
L 1862 2534 
L 1325 2534 
L 768 435 
Q 755 384 755 346 
Q 755 243 851 243 
Q 928 243 1030 342 
Q 1133 442 1370 749 
L 1453 704 
Q 1158 256 969 93 
Q 781 -70 538 -70 
Q 243 -70 243 166 
Q 243 230 346 640 
L 845 2534 
L 365 2534 
L 358 2573 
Q 358 2688 570 2733 
Q 730 2771 992 2979 
Q 1254 3187 1421 3437 
Q 1459 3494 1510 3494 
Q 1568 3494 1568 3443 
Q 1568 3411 1562 3398 
L 1382 2739 
L 1894 2739 
z
" transform="scale(0.015625)"/>
      </defs>
      <use xlink:href="#STIXGeneral-Regular-27e8" transform="translate(0 0.703125)"/>
      <use xlink:href="#STIXGeneral-Italic-6a" transform="translate(39.999985 0.703125)"/>
      <use xlink:href="#STIXGeneral-Regular-27e9" transform="translate(67.799973 0.703125)"/>
      <use xlink:href="#STIXGeneral-Regular-3d" transform="translate(122.239954 0.703125)"/>
      <use xlink:href="#STIXGeneral-Regular-27e8" transform="translate(205.179935 0.703125)"/>
      <use xlink:href="#STIXGeneral-Italic-75" transform="translate(245.179919 0.703125)"/>
      <use xlink:href="#STIXGeneral-Italic-6e" transform="translate(295.179904 0.703125)"/>
      <use xlink:href="#STIXGeneral-Regular-27e9" transform="translate(345.179889 0.703125)"/>
      <use xlink:href="#STIXGeneral-Italic-74" transform="translate(386.723155 -12.525) scale(0.7)"/>
     </g>
    </g>
   </g>
   <g id="PathCollection_3">
    <g clip-path="url(#p1c87d1d2ca)">
     <use xlink:href="#m85687ff2a4" x="85.20392" y="423.588477" style="fill-opacity: 0.8; stroke: #000000; stroke-opacity: 0.8"/>
     <use xlink:href="#m85687ff2a4" x="113.3666" y="423.588477" style="fill-opacity: 0.8; stroke: #000000; stroke-opacity: 0.8"/>
     <use xlink:href="#m85687ff2a4" x="141.529279" y="423.588477" style="fill-opacity: 0.8; stroke: #000000; stroke-opacity: 0.8"/>
     <use xlink:href="#m85687ff2a4" x="169.691959" y="423.028839" style="fill-opacity: 0.8; stroke: #000000; stroke-opacity: 0.8"/>
     <use xlink:href="#m85687ff2a4" x="197.854638" y="341.766102" style="fill-opacity: 0.8; stroke: #000000; stroke-opacity: 0.8"/>
     <use xlink:href="#m85687ff2a4" x="226.017318" y="295.612141" style="fill-opacity: 0.8; stroke: #000000; stroke-opacity: 0.8"/>
     <use xlink:href="#m85687ff2a4" x="254.179997" y="261.523275" style="fill-opacity: 0.8; stroke: #000000; stroke-opacity: 0.8"/>
     <use xlink:href="#m85687ff2a4" x="282.342676" y="233.307385" style="fill-opacity: 0.8; stroke: #000000; stroke-opacity: 0.8"/>
     <use xlink:href="#m85687ff2a4" x="310.505356" y="208.794156" style="fill-opacity: 0.8; stroke: #000000; stroke-opacity: 0.8"/>
     <use xlink:href="#m85687ff2a4" x="338.668035" y="186.877009" style="fill-opacity: 0.8; stroke: #000000; stroke-opacity: 0.8"/>
     <use xlink:href="#m85687ff2a4" x="366.830715" y="166.878755" style="fill-opacity: 0.8; stroke: #000000; stroke-opacity: 0.8"/>
     <use xlink:href="#m85687ff2a4" x="394.993394" y="148.423317" style="fill-opacity: 0.8; stroke: #000000; stroke-opacity: 0.8"/>
     <use xlink:href="#m85687ff2a4" x="423.156074" y="131.214703" style="fill-opacity: 0.8; stroke: #000000; stroke-opacity: 0.8"/>
     <use xlink:href="#m85687ff2a4" x="451.318753" y="115.004126" style="fill-opacity: 0.8; stroke: #000000; stroke-opacity: 0.8"/>
     <use xlink:href="#m85687ff2a4" x="479.481432" y="99.67203" style="fill-opacity: 0.8; stroke: #000000; stroke-opacity: 0.8"/>
     <use xlink:href="#m85687ff2a4" x="507.644112" y="85.122379" style="fill-opacity: 0.8; stroke: #000000; stroke-opacity: 0.8"/>
     <use xlink:href="#m85687ff2a4" x="535.806791" y="71.133582" style="fill-opacity: 0.8; stroke: #000000; stroke-opacity: 0.8"/>
     <use xlink:href="#m85687ff2a4" x="563.969471" y="57.792014" style="fill-opacity: 0.8; stroke: #000000; stroke-opacity: 0.8"/>
     <use xlink:href="#m85687ff2a4" x="592.13215" y="44.885081" style="fill-opacity: 0.8; stroke: #000000; stroke-opacity: 0.8"/>
     <use xlink:href="#m85687ff2a4" x="620.29483" y="32.541629" style="fill-opacity: 0.8; stroke: #000000; stroke-opacity: 0.8"/>
    </g>
   </g>
  </g>
  <g id="axes_2">
   <g id="matplotlib.axis_3">
    <g id="ytick_9">
     <g id="line2d_37">
      <defs>
       <path id="m9c0431391d" d="M 0 0 
L 6 0 
" style="stroke: #000000; stroke-width: 1.2"/>
      </defs>
      <g>
       <use xlink:href="#m9c0431391d" x="647.049375" y="423.938664" style="stroke: #000000; stroke-width: 1.2"/>
      </g>
     </g>
     <g id="text_24">
      <!-- 0.0 -->
      <g style="fill: #0000ff" transform="translate(656.549375 429.25757) scale(0.14 -0.14)">
       <use xlink:href="#DejaVuSerif-30"/>
       <use xlink:href="#DejaVuSerif-2e" x="63.623047"/>
       <use xlink:href="#DejaVuSerif-30" x="95.410156"/>
      </g>
     </g>
    </g>
    <g id="ytick_10">
     <g id="line2d_38">
      <g>
       <use xlink:href="#m9c0431391d" x="647.049375" y="365.164413" style="stroke: #000000; stroke-width: 1.2"/>
      </g>
     </g>
     <g id="text_25">
      <!-- 0.2 -->
      <g style="fill: #0000ff" transform="translate(656.549375 370.483319) scale(0.14 -0.14)">
       <use xlink:href="#DejaVuSerif-30"/>
       <use xlink:href="#DejaVuSerif-2e" x="63.623047"/>
       <use xlink:href="#DejaVuSerif-32" x="95.410156"/>
      </g>
     </g>
    </g>
    <g id="ytick_11">
     <g id="line2d_39">
      <g>
       <use xlink:href="#m9c0431391d" x="647.049375" y="306.390161" style="stroke: #000000; stroke-width: 1.2"/>
      </g>
     </g>
     <g id="text_26">
      <!-- 0.4 -->
      <g style="fill: #0000ff" transform="translate(656.549375 311.709068) scale(0.14 -0.14)">
       <use xlink:href="#DejaVuSerif-30"/>
       <use xlink:href="#DejaVuSerif-2e" x="63.623047"/>
       <use xlink:href="#DejaVuSerif-34" x="95.410156"/>
      </g>
     </g>
    </g>
    <g id="ytick_12">
     <g id="line2d_40">
      <g>
       <use xlink:href="#m9c0431391d" x="647.049375" y="247.61591" style="stroke: #000000; stroke-width: 1.2"/>
      </g>
     </g>
     <g id="text_27">
      <!-- 0.6 -->
      <g style="fill: #0000ff" transform="translate(656.549375 252.934817) scale(0.14 -0.14)">
       <use xlink:href="#DejaVuSerif-30"/>
       <use xlink:href="#DejaVuSerif-2e" x="63.623047"/>
       <use xlink:href="#DejaVuSerif-36" x="95.410156"/>
      </g>
     </g>
    </g>
    <g id="ytick_13">
     <g id="line2d_41">
      <g>
       <use xlink:href="#m9c0431391d" x="647.049375" y="188.841659" style="stroke: #000000; stroke-width: 1.2"/>
      </g>
     </g>
     <g id="text_28">
      <!-- 0.8 -->
      <g style="fill: #0000ff" transform="translate(656.549375 194.160566) scale(0.14 -0.14)">
       <use xlink:href="#DejaVuSerif-30"/>
       <use xlink:href="#DejaVuSerif-2e" x="63.623047"/>
       <use xlink:href="#DejaVuSerif-38" x="95.410156"/>
      </g>
     </g>
    </g>
    <g id="ytick_14">
     <g id="line2d_42">
      <g>
       <use xlink:href="#m9c0431391d" x="647.049375" y="130.067408" style="stroke: #000000; stroke-width: 1.2"/>
      </g>
     </g>
     <g id="text_29">
      <!-- 1.0 -->
      <g style="fill: #0000ff" transform="translate(656.549375 135.386315) scale(0.14 -0.14)">
       <use xlink:href="#DejaVuSerif-31"/>
       <use xlink:href="#DejaVuSerif-2e" x="63.623047"/>
       <use xlink:href="#DejaVuSerif-30" x="95.410156"/>
      </g>
     </g>
    </g>
    <g id="ytick_15">
     <g id="line2d_43">
      <g>
       <use xlink:href="#m9c0431391d" x="647.049375" y="71.293157" style="stroke: #000000; stroke-width: 1.2"/>
      </g>
     </g>
     <g id="text_30">
      <!-- 1.2 -->
      <g style="fill: #0000ff" transform="translate(656.549375 76.612064) scale(0.14 -0.14)">
       <use xlink:href="#DejaVuSerif-31"/>
       <use xlink:href="#DejaVuSerif-2e" x="63.623047"/>
       <use xlink:href="#DejaVuSerif-32" x="95.410156"/>
      </g>
     </g>
    </g>
    <g id="ytick_16">
     <g id="line2d_44">
      <g>
       <use xlink:href="#m9c0431391d" x="647.049375" y="12.518906" style="stroke: #000000; stroke-width: 1.2"/>
      </g>
     </g>
     <g id="text_31">
      <!-- 1.4 -->
      <g style="fill: #0000ff" transform="translate(656.549375 17.837812) scale(0.14 -0.14)">
       <use xlink:href="#DejaVuSerif-31"/>
       <use xlink:href="#DejaVuSerif-2e" x="63.623047"/>
       <use xlink:href="#DejaVuSerif-34" x="95.410156"/>
      </g>
     </g>
    </g>
    <g id="text_32">
     <!-- $\langle j \rangle = \langle u n \rangle_t$ -->
     <g style="fill: #0000ff" transform="translate(694.77875 260.412926) rotate(-90) scale(0.16 -0.16)">
      <use xlink:href="#STIXGeneral-Regular-27e8" transform="translate(0 0.703125)"/>
      <use xlink:href="#STIXGeneral-Italic-6a" transform="translate(39.999985 0.703125)"/>
      <use xlink:href="#STIXGeneral-Regular-27e9" transform="translate(67.799973 0.703125)"/>
      <use xlink:href="#STIXGeneral-Regular-3d" transform="translate(122.239954 0.703125)"/>
      <use xlink:href="#STIXGeneral-Regular-27e8" transform="translate(205.179935 0.703125)"/>
      <use xlink:href="#STIXGeneral-Italic-75" transform="translate(245.179919 0.703125)"/>
      <use xlink:href="#STIXGeneral-Italic-6e" transform="translate(295.179904 0.703125)"/>
      <use xlink:href="#STIXGeneral-Regular-27e9" transform="translate(345.179889 0.703125)"/>
      <use xlink:href="#STIXGeneral-Italic-74" transform="translate(386.723155 -12.525) scale(0.7)"/>
     </g>
    </g>
   </g>
   <g id="line2d_45">
    <path d="M 178.506877 402.714573 
L 182.969382 398.978115 
L 187.431887 395.241657 
L 191.894391 391.505199 
L 196.356896 387.768741 
L 200.8194 384.032283 
L 205.281905 380.295825 
L 209.744409 376.559367 
L 214.206914 372.822909 
L 218.669418 369.086451 
L 223.131923 365.349993 
L 227.594428 361.613535 
L 232.056932 357.877077 
L 236.519437 354.140618 
L 240.981941 350.40416 
L 245.444446 346.667702 
L 249.90695 342.931244 
L 254.369455 339.194786 
L 258.83196 335.458328 
L 263.294464 331.72187 
L 267.756969 327.985412 
L 272.219473 324.248954 
L 276.681978 320.512496 
L 281.144482 316.776038 
L 285.606987 313.03958 
L 290.069492 309.303122 
L 294.531996 305.566664 
L 298.994501 301.830206 
L 303.457005 298.093748 
L 307.91951 294.35729 
L 312.382014 290.620832 
L 316.844519 286.884374 
L 321.307024 283.147915 
L 325.769528 279.411457 
L 330.232033 275.674999 
L 334.694537 271.938541 
L 339.157042 268.202083 
L 343.619546 264.465625 
L 348.082051 260.729167 
L 352.544556 256.992709 
L 357.00706 253.256251 
L 361.469565 249.519793 
L 365.932069 245.783335 
L 370.394574 242.046877 
L 374.857078 238.310419 
L 379.319583 234.573961 
L 383.782087 230.837503 
L 388.244592 227.101045 
L 392.707097 223.364587 
L 397.169601 219.628129 
L 401.632106 215.891671 
L 406.09461 212.155212 
L 410.557115 208.418754 
L 415.019619 204.682296 
L 419.482124 200.945838 
L 423.944629 197.20938 
L 428.407133 193.472922 
L 432.869638 189.736464 
L 437.332142 186.000006 
L 441.794647 182.263548 
L 446.257151 178.52709 
L 450.719656 174.790632 
L 455.182161 171.054174 
L 459.644665 167.317716 
L 464.10717 163.581258 
L 468.569674 159.8448 
L 473.032179 156.108342 
L 477.494683 152.371884 
L 481.957188 148.635426 
L 486.419693 144.898967 
L 490.882197 141.162509 
L 495.344702 137.426051 
L 499.807206 133.689593 
L 504.269711 129.953135 
L 508.732215 126.216677 
L 513.19472 122.480219 
L 517.657224 118.743761 
L 522.119729 115.007303 
L 526.582234 111.270845 
L 531.044738 107.534387 
L 535.507243 103.797929 
L 539.969747 100.061471 
L 544.432252 96.325013 
L 548.894756 92.588555 
L 553.357261 88.852097 
L 557.819766 85.115639 
L 562.28227 81.379181 
L 566.744775 77.642723 
L 571.207279 73.906264 
L 575.669784 70.169806 
L 580.132288 66.433348 
L 584.594793 62.69689 
L 589.057298 58.960432 
L 593.519802 55.223974 
L 597.982307 51.487516 
L 602.444811 47.751058 
L 606.907316 44.0146 
L 611.36982 40.278142 
L 615.832325 36.541684 
L 620.29483 32.805226 
" clip-path="url(#p1c87d1d2ca)" style="fill: none; stroke-dasharray: 7.4,3.2; stroke-dashoffset: 0; stroke: #bf00bf; stroke-opacity: 0.8; stroke-width: 2"/>
   </g>
   <g id="line2d_46">
    <path d="M 85.20392 418.061238 
L 90.608879 416.933248 
L 96.013838 415.805257 
L 101.418796 414.677266 
L 106.823755 413.549276 
L 112.228714 412.421285 
L 117.633673 411.293294 
L 123.038631 410.165304 
L 128.44359 409.037313 
L 133.848549 407.909322 
L 139.253507 406.781332 
L 144.658466 405.653341 
L 150.063425 404.52535 
L 155.468383 403.39736 
L 160.873342 402.269369 
L 166.278301 401.141378 
L 171.683259 400.013388 
L 177.088218 398.885397 
L 182.493177 397.757406 
L 187.898135 396.629416 
L 193.303094 395.501425 
L 198.708053 394.373434 
L 204.113011 393.245444 
L 209.51797 392.117453 
L 214.922929 390.989462 
L 220.327887 389.861472 
L 225.732846 388.733481 
L 231.137805 387.60549 
L 236.542763 386.4775 
L 241.947722 385.349509 
L 247.352681 384.221518 
L 252.757639 383.093527 
L 258.162598 381.965537 
L 263.567557 380.837546 
L 268.972515 379.709555 
L 274.377474 378.581565 
L 279.782433 377.453574 
L 285.187392 376.325583 
L 290.59235 375.197593 
L 295.997309 374.069602 
L 301.402268 372.941611 
L 306.807226 371.813621 
L 312.212185 370.68563 
L 317.617144 369.557639 
L 323.022102 368.429649 
L 328.427061 367.301658 
L 333.83202 366.173667 
L 339.236978 365.045677 
L 344.641937 363.917686 
L 350.046896 362.789695 
L 355.451854 361.661705 
L 360.856813 360.533714 
L 366.261772 359.405723 
L 371.66673 358.277733 
L 377.071689 357.149742 
L 382.476648 356.021751 
L 387.881606 354.893761 
L 393.286565 353.76577 
L 398.691524 352.637779 
L 404.096482 351.509789 
L 409.501441 350.381798 
L 414.9064 349.253807 
L 420.311358 348.125817 
L 425.716317 346.997826 
L 431.121276 345.869835 
L 436.526235 344.741844 
L 441.931193 343.613854 
L 447.336152 342.485863 
L 452.741111 341.357872 
L 458.146069 340.229882 
L 463.551028 339.101891 
L 468.955987 337.9739 
L 474.360945 336.84591 
L 479.765904 335.717919 
L 485.170863 334.589928 
L 490.575821 333.461938 
L 495.98078 332.333947 
L 501.385739 331.205956 
L 506.790697 330.077966 
L 512.195656 328.949975 
L 517.600615 327.821984 
L 523.005573 326.693994 
L 528.410532 325.566003 
L 533.815491 324.438012 
L 539.220449 323.310022 
L 544.625408 322.182031 
L 550.030367 321.05404 
L 555.435325 319.92605 
L 560.840284 318.798059 
L 566.245243 317.670068 
L 571.650201 316.542078 
L 577.05516 315.414087 
L 582.460119 314.286096 
L 587.865077 313.158106 
L 593.270036 312.030115 
L 598.674995 310.902124 
L 604.079954 309.774133 
L 609.484912 308.646143 
L 614.889871 307.518152 
L 620.29483 306.390161 
" clip-path="url(#p1c87d1d2ca)" style="fill: none; stroke-dasharray: 2,3.3; stroke-dashoffset: 0; stroke: #000000; stroke-opacity: 0.6; stroke-width: 2"/>
   </g>
   <g id="patch_9">
    <path d="M 58.449375 443.194033 
L 58.449375 11.871819 
" style="fill: none; stroke: #000000; stroke-width: 1.2; stroke-linejoin: miter; stroke-linecap: square"/>
   </g>
   <g id="patch_10">
    <path d="M 647.049375 443.194033 
L 647.049375 11.871819 
" style="fill: none; stroke: #000000; stroke-width: 1.2; stroke-linejoin: miter; stroke-linecap: square"/>
   </g>
   <g id="patch_11">
    <path d="M 58.449375 443.194033 
L 647.049375 443.194033 
" style="fill: none; stroke: #000000; stroke-width: 1.2; stroke-linejoin: miter; stroke-linecap: square"/>
   </g>
   <g id="patch_12">
    <path d="M 58.449375 11.871819 
L 647.049375 11.871819 
" style="fill: none; stroke: #000000; stroke-width: 1.2; stroke-linejoin: miter; stroke-linecap: square"/>
   </g>
   <g id="PathCollection_4">
    <defs>
     <path id="C0_0_ff49ef1009" d="M 0 3.535534 
C 0.937635 3.535534 1.836992 3.163008 2.5 2.5 
C 3.163008 1.836992 3.535534 0.937635 3.535534 -0 
C 3.535534 -0.937635 3.163008 -1.836992 2.5 -2.5 
C 1.836992 -3.163008 0.937635 -3.535534 0 -3.535534 
C -0.937635 -3.535534 -1.836992 -3.163008 -2.5 -2.5 
C -3.163008 -1.836992 -3.535534 -0.937635 -3.535534 0 
C -3.535534 0.937635 -3.163008 1.836992 -2.5 2.5 
C -1.836992 3.163008 -0.937635 3.535534 0 3.535534 
z
"/>
    </defs>
    <g clip-path="url(#p1c87d1d2ca)">
     <use xlink:href="#C0_0_ff49ef1009" x="85.20392" y="418.06124" style="fill: none; stroke: #0000ff; stroke-opacity: 0.7; stroke-width: 1.5"/>
    </g>
    <g clip-path="url(#p1c87d1d2ca)">
     <use xlink:href="#C0_0_ff49ef1009" x="113.3666" y="412.183813" style="fill: none; stroke: #0000ff; stroke-opacity: 0.7; stroke-width: 1.5"/>
    </g>
    <g clip-path="url(#p1c87d1d2ca)">
     <use xlink:href="#C0_0_ff49ef1009" x="141.529279" y="406.306388" style="fill: none; stroke: #0000ff; stroke-opacity: 0.7; stroke-width: 1.5"/>
    </g>
    <g clip-path="url(#p1c87d1d2ca)">
     <use xlink:href="#C0_0_ff49ef1009" x="169.691959" y="400.429584" style="fill: none; stroke: #0000ff; stroke-opacity: 0.7; stroke-width: 1.5"/>
    </g>
    <g clip-path="url(#p1c87d1d2ca)">
     <use xlink:href="#C0_0_ff49ef1009" x="197.854638" y="382.410626" style="fill: none; stroke: #0000ff; stroke-opacity: 0.7; stroke-width: 1.5"/>
    </g>
    <g clip-path="url(#p1c87d1d2ca)">
     <use xlink:href="#C0_0_ff49ef1009" x="226.017318" y="360.511626" style="fill: none; stroke: #0000ff; stroke-opacity: 0.7; stroke-width: 1.5"/>
    </g>
    <g clip-path="url(#p1c87d1d2ca)">
     <use xlink:href="#C0_0_ff49ef1009" x="254.179997" y="338.289788" style="fill: none; stroke: #0000ff; stroke-opacity: 0.7; stroke-width: 1.5"/>
    </g>
    <g clip-path="url(#p1c87d1d2ca)">
     <use xlink:href="#C0_0_ff49ef1009" x="282.342676" y="316.998961" style="fill: none; stroke: #0000ff; stroke-opacity: 0.7; stroke-width: 1.5"/>
    </g>
    <g clip-path="url(#p1c87d1d2ca)">
     <use xlink:href="#C0_0_ff49ef1009" x="310.505356" y="285.680227" style="fill: none; stroke: #0000ff; stroke-opacity: 0.7; stroke-width: 1.5"/>
    </g>
    <g clip-path="url(#p1c87d1d2ca)">
     <use xlink:href="#C0_0_ff49ef1009" x="338.668035" y="270.674036" style="fill: none; stroke: #0000ff; stroke-opacity: 0.7; stroke-width: 1.5"/>
    </g>
    <g clip-path="url(#p1c87d1d2ca)">
     <use xlink:href="#C0_0_ff49ef1009" x="366.830715" y="247.518069" style="fill: none; stroke: #0000ff; stroke-opacity: 0.7; stroke-width: 1.5"/>
    </g>
    <g clip-path="url(#p1c87d1d2ca)">
     <use xlink:href="#C0_0_ff49ef1009" x="394.993394" y="225.408702" style="fill: none; stroke: #0000ff; stroke-opacity: 0.7; stroke-width: 1.5"/>
    </g>
    <g clip-path="url(#p1c87d1d2ca)">
     <use xlink:href="#C0_0_ff49ef1009" x="423.156074" y="203.608632" style="fill: none; stroke: #0000ff; stroke-opacity: 0.7; stroke-width: 1.5"/>
    </g>
    <g clip-path="url(#p1c87d1d2ca)">
     <use xlink:href="#C0_0_ff49ef1009" x="451.318753" y="176.539137" style="fill: none; stroke: #0000ff; stroke-opacity: 0.7; stroke-width: 1.5"/>
    </g>
    <g clip-path="url(#p1c87d1d2ca)">
     <use xlink:href="#C0_0_ff49ef1009" x="479.481432" y="152.672757" style="fill: none; stroke: #0000ff; stroke-opacity: 0.7; stroke-width: 1.5"/>
    </g>
    <g clip-path="url(#p1c87d1d2ca)">
     <use xlink:href="#C0_0_ff49ef1009" x="507.644112" y="133.129401" style="fill: none; stroke: #0000ff; stroke-opacity: 0.7; stroke-width: 1.5"/>
    </g>
    <g clip-path="url(#p1c87d1d2ca)">
     <use xlink:href="#C0_0_ff49ef1009" x="535.806791" y="109.759175" style="fill: none; stroke: #0000ff; stroke-opacity: 0.7; stroke-width: 1.5"/>
    </g>
    <g clip-path="url(#p1c87d1d2ca)">
     <use xlink:href="#C0_0_ff49ef1009" x="563.969471" y="81.578537" style="fill: none; stroke: #0000ff; stroke-opacity: 0.7; stroke-width: 1.5"/>
    </g>
    <g clip-path="url(#p1c87d1d2ca)">
     <use xlink:href="#C0_0_ff49ef1009" x="592.13215" y="38.565402" style="fill: none; stroke: #0000ff; stroke-opacity: 0.7; stroke-width: 1.5"/>
    </g>
    <g clip-path="url(#p1c87d1d2ca)">
     <use xlink:href="#C0_0_ff49ef1009" x="620.29483" y="31.214172" style="fill: none; stroke: #0000ff; stroke-opacity: 0.7; stroke-width: 1.5"/>
    </g>
   </g>
  </g>
  <g id="axes_3">
   <g id="patch_13">
    <path d="M 254.829375 155.734033 
L 380.829375 155.734033 
L 380.829375 29.734033 
L 254.829375 29.734033 
L 254.829375 155.734033 
z
" style="fill: none; opacity: 0"/>
   </g>
   <g id="patch_14">
    <path d="M 377.513586 92.734033 
L 367.566217 94.806401 
L 367.566217 92.742322 
L 258.145164 92.742322 
L 258.145164 92.725743 
L 367.566217 92.725743 
L 367.566217 90.661664 
z
" clip-path="url(#pb1d9648c69)" style="stroke: #000000; stroke-width: 2; stroke-linejoin: miter"/>
   </g>
   <g id="patch_15">
    <path d="M 317.829375 33.049822 
L 319.901743 42.99719 
L 317.837664 42.99719 
L 317.837664 152.418243 
L 317.821086 152.418243 
L 317.821086 42.99719 
L 315.757007 42.99719 
z
" clip-path="url(#pb1d9648c69)" style="stroke: #000000; stroke-width: 2; stroke-linejoin: miter"/>
   </g>
   <g id="patch_16">
    <path d="M 342.697796 77.81298 
L 341.039901 67.865611 
L 342.689507 67.865611 
L 342.689507 56.260348 
L 342.706086 56.260348 
L 342.706086 67.865611 
L 344.355691 67.865611 
z
" clip-path="url(#pb1d9648c69)" style="opacity: 0.9; stroke: #000000; stroke-width: 2; stroke-linejoin: miter"/>
   </g>
   <g id="matplotlib.axis_4"/>
   <g id="matplotlib.axis_5"/>
   <g id="line2d_47">
    <path d="M 268.092533 137.49719 
L 293.023281 100.175861 
L 342.635469 85.292204 
L 343.383392 84.245113 
L 367.566217 47.970875 
L 367.566217 47.970875 
" clip-path="url(#pb1d9648c69)" style="fill: none; stroke: #000000; stroke-width: 2.5; stroke-linecap: round"/>
   </g>
   <g id="text_33">
    <!-- $V_T$ -->
    <g transform="translate(336.397796 51.286664) scale(0.12 -0.12)">
     <defs>
      <path id="STIXGeneral-Italic-56" d="M 4403 4179 
L 4403 4077 
Q 4198 4070 4045 3821 
L 1658 -115 
L 1536 -115 
L 1011 3104 
Q 902 3776 828 3910 
Q 755 4045 486 4077 
L 486 4179 
L 2022 4179 
L 2022 4077 
Q 1722 4045 1629 3981 
Q 1536 3917 1536 3750 
Q 1536 3686 1542 3654 
L 1958 819 
L 3302 3123 
Q 3616 3661 3616 3859 
Q 3616 4032 3219 4077 
L 3219 4179 
L 4403 4179 
z
" transform="scale(0.015625)"/>
      <path id="STIXGeneral-Italic-54" d="M 4051 4179 
L 3770 3130 
L 3661 3142 
Q 3680 3302 3680 3437 
Q 3680 3955 3034 3955 
L 2662 3955 
L 1786 819 
Q 1696 506 1696 397 
Q 1696 250 1766 195 
Q 1837 141 2035 122 
L 2259 102 
L 2259 0 
L 416 0 
L 416 102 
Q 749 134 889 230 
Q 1030 326 1101 582 
L 2016 3955 
Q 1254 3955 988 3817 
Q 723 3680 493 3162 
L 378 3187 
L 646 4179 
L 4051 4179 
z
" transform="scale(0.015625)"/>
     </defs>
     <use xlink:href="#STIXGeneral-Italic-56" transform="translate(0 0.703125)"/>
     <use xlink:href="#STIXGeneral-Italic-54" transform="translate(61.099991 -12.525) scale(0.7)"/>
    </g>
   </g>
   <g id="text_34">
    <!-- $V$ -->
    <g transform="translate(375.855691 112.628769) scale(0.14 -0.14)">
     <use xlink:href="#STIXGeneral-Italic-56" transform="translate(0 0.703125)"/>
    </g>
   </g>
   <g id="text_35">
    <!-- $I$ -->
    <g transform="translate(304.566217 36.365611) scale(0.14 -0.14)">
     <defs>
      <path id="STIXGeneral-Italic-49" d="M 2458 4179 
L 2458 4077 
Q 2189 4045 2102 3961 
Q 2016 3878 1933 3584 
L 1165 838 
Q 1069 499 1069 352 
Q 1069 224 1149 179 
Q 1229 134 1510 102 
L 1510 0 
L -51 0 
L -51 102 
Q 218 154 317 237 
Q 416 320 486 582 
L 1254 3405 
Q 1338 3699 1338 3802 
Q 1338 3930 1235 3997 
Q 1133 4064 877 4077 
L 877 4179 
L 2458 4179 
z
" transform="scale(0.015625)"/>
     </defs>
     <use xlink:href="#STIXGeneral-Italic-49" transform="translate(0 0.703125)"/>
    </g>
   </g>
  </g>
 </g>
 <defs>
  <clipPath id="p1c87d1d2ca">
   <rect x="58.449375" y="11.871819" width="588.6" height="431.322214"/>
  </clipPath>
  <clipPath id="pb1d9648c69">
   <rect x="254.829375" y="29.734033" width="126" height="126"/>
  </clipPath>
 </defs>
</svg>
