<?xml version="1.0" encoding="utf-8" standalone="no"?>
<!DOCTYPE svg PUBLIC "-//W3C//DTD SVG 1.1//EN"
  "http://www.w3.org/Graphics/SVG/1.1/DTD/svg11.dtd">
<svg xmlns:xlink="http://www.w3.org/1999/xlink" width="705.895625pt" height="418.5675pt" viewBox="0 0 705.895625 418.5675" xmlns="http://www.w3.org/2000/svg" version="1.1">
 <metadata>
  <rdf:RDF xmlns:dc="http://purl.org/dc/elements/1.1/" xmlns:cc="http://creativecommons.org/ns#" xmlns:rdf="http://www.w3.org/1999/02/22-rdf-syntax-ns#">
   <cc:Work>
    <dc:type rdf:resource="http://purl.org/dc/dcmitype/StillImage"/>
    <dc:date>2025-10-14T20:52:35.388819</dc:date>
    <dc:format>image/svg+xml</dc:format>
    <dc:creator>
     <cc:Agent>
      <dc:title>Matplotlib v3.8.4, https://matplotlib.org/</dc:title>
     </cc:Agent>
    </dc:creator>
   </cc:Work>
  </rdf:RDF>
 </metadata>
 <defs>
  <style type="text/css">*{stroke-linejoin: round; stroke-linecap: butt}</style>
 </defs>
 <g id="figure_1">
  <g id="patch_1">
   <path d="M 0 418.5675 
L 705.895625 418.5675 
L 705.895625 0 
L 0 0 
z
" style="fill: #ffffff"/>
  </g>
  <g id="axes_1">
   <g id="patch_2">
    <path d="M 50.355625 376.9675 
L 698.695625 376.9675 
L 698.695625 23.28 
L 50.355625 23.28 
z
" style="fill: #ffffff"/>
   </g>
   <g id="matplotlib.axis_1">
    <g id="xtick_1">
     <g id="line2d_1">
      <path d="M 128.942292 376.9675 
L 128.942292 23.28 
" clip-path="url(#p0d3e8752c0)" style="fill: none; stroke: #b0b0b0; stroke-opacity: 0.3; stroke-width: 0.8; stroke-linecap: square"/>
     </g>
     <g id="line2d_2">
      <defs>
       <path id="m5eecadf850" d="M 0 0 
L 0 3.5 
" style="stroke: #000000; stroke-width: 0.8"/>
      </defs>
      <g>
       <use xlink:href="#m5eecadf850" x="128.942292" y="376.9675" style="stroke: #000000; stroke-width: 0.8"/>
      </g>
     </g>
     <g id="text_1">
      <!-- 0.5 -->
      <g transform="translate(121.442292 392.163125) scale(0.12 -0.12)">
       <defs>
        <path id="STIXGeneral-Regular-30" d="M 3046 2112 
Q 3046 1683 2963 1302 
Q 2880 922 2717 602 
Q 2554 282 2266 96 
Q 1978 -90 1600 -90 
Q 1210 -90 915 108 
Q 621 307 461 640 
Q 301 973 227 1350 
Q 154 1728 154 2150 
Q 154 2746 301 3222 
Q 448 3699 790 4012 
Q 1133 4326 1626 4326 
Q 2253 4326 2649 3712 
Q 3046 3098 3046 2112 
z
M 2432 2080 
Q 2432 3091 2217 3625 
Q 2003 4160 1587 4160 
Q 1190 4160 979 3622 
Q 768 3085 768 2106 
Q 768 1120 979 598 
Q 1190 77 1600 77 
Q 2003 77 2217 598 
Q 2432 1120 2432 2080 
z
" transform="scale(0.015625)"/>
        <path id="STIXGeneral-Regular-2e" d="M 1158 275 
Q 1158 134 1052 32 
Q 947 -70 800 -70 
Q 653 -70 550 32 
Q 448 134 448 281 
Q 448 429 553 534 
Q 659 640 806 640 
Q 947 640 1052 531 
Q 1158 422 1158 275 
z
" transform="scale(0.015625)"/>
        <path id="STIXGeneral-Regular-35" d="M 2803 4358 
L 2573 3814 
Q 2534 3731 2400 3731 
L 1158 3731 
L 902 3187 
Q 1606 3053 1920 2896 
Q 2234 2739 2502 2368 
Q 2726 2061 2726 1555 
Q 2726 1094 2576 780 
Q 2426 467 2099 224 
Q 1664 -90 1011 -90 
Q 646 -90 422 19 
Q 198 128 198 307 
Q 198 550 486 550 
Q 717 550 960 352 
Q 1210 147 1414 147 
Q 1747 147 2012 480 
Q 2278 813 2278 1229 
Q 2278 1843 1850 2189 
Q 1293 2637 486 2637 
Q 410 2637 410 2688 
L 416 2720 
L 1114 4237 
L 2438 4237 
Q 2547 4237 2608 4269 
Q 2669 4301 2746 4403 
L 2803 4358 
z
" transform="scale(0.015625)"/>
       </defs>
       <use xlink:href="#STIXGeneral-Regular-30"/>
       <use xlink:href="#STIXGeneral-Regular-2e" x="49.999985"/>
       <use xlink:href="#STIXGeneral-Regular-35" x="74.999969"/>
      </g>
     </g>
    </g>
    <g id="xtick_2">
     <g id="line2d_3">
      <path d="M 210.803403 376.9675 
L 210.803403 23.28 
" clip-path="url(#p0d3e8752c0)" style="fill: none; stroke: #b0b0b0; stroke-opacity: 0.3; stroke-width: 0.8; stroke-linecap: square"/>
     </g>
     <g id="line2d_4">
      <g>
       <use xlink:href="#m5eecadf850" x="210.803403" y="376.9675" style="stroke: #000000; stroke-width: 0.8"/>
      </g>
     </g>
     <g id="text_2">
      <!-- 1.0 -->
      <g transform="translate(203.303403 392.163125) scale(0.12 -0.12)">
       <defs>
        <path id="STIXGeneral-Regular-31" d="M 2522 0 
L 755 0 
L 755 96 
Q 1107 115 1235 227 
Q 1363 339 1363 608 
L 1363 3482 
Q 1363 3795 1171 3795 
Q 1082 3795 883 3718 
L 710 3654 
L 710 3744 
L 1856 4326 
L 1914 4307 
L 1914 486 
Q 1914 275 2042 185 
Q 2170 96 2522 96 
L 2522 0 
z
" transform="scale(0.015625)"/>
       </defs>
       <use xlink:href="#STIXGeneral-Regular-31"/>
       <use xlink:href="#STIXGeneral-Regular-2e" x="49.999985"/>
       <use xlink:href="#STIXGeneral-Regular-30" x="74.999969"/>
      </g>
     </g>
    </g>
    <g id="xtick_3">
     <g id="line2d_5">
      <path d="M 292.664514 376.9675 
L 292.664514 23.28 
" clip-path="url(#p0d3e8752c0)" style="fill: none; stroke: #b0b0b0; stroke-opacity: 0.3; stroke-width: 0.8; stroke-linecap: square"/>
     </g>
     <g id="line2d_6">
      <g>
       <use xlink:href="#m5eecadf850" x="292.664514" y="376.9675" style="stroke: #000000; stroke-width: 0.8"/>
      </g>
     </g>
     <g id="text_3">
      <!-- 1.5 -->
      <g transform="translate(285.164514 392.163125) scale(0.12 -0.12)">
       <use xlink:href="#STIXGeneral-Regular-31"/>
       <use xlink:href="#STIXGeneral-Regular-2e" x="49.999985"/>
       <use xlink:href="#STIXGeneral-Regular-35" x="74.999969"/>
      </g>
     </g>
    </g>
    <g id="xtick_4">
     <g id="line2d_7">
      <path d="M 374.525625 376.9675 
L 374.525625 23.28 
" clip-path="url(#p0d3e8752c0)" style="fill: none; stroke: #b0b0b0; stroke-opacity: 0.3; stroke-width: 0.8; stroke-linecap: square"/>
     </g>
     <g id="line2d_8">
      <g>
       <use xlink:href="#m5eecadf850" x="374.525625" y="376.9675" style="stroke: #000000; stroke-width: 0.8"/>
      </g>
     </g>
     <g id="text_4">
      <!-- 2.0 -->
      <g transform="translate(367.025625 392.163125) scale(0.12 -0.12)">
       <defs>
        <path id="STIXGeneral-Regular-32" d="M 3034 877 
L 2688 0 
L 186 0 
L 186 77 
L 1325 1286 
Q 1773 1754 1965 2144 
Q 2157 2534 2157 2950 
Q 2157 3379 1920 3616 
Q 1683 3853 1267 3853 
Q 922 3853 720 3673 
Q 518 3494 326 3021 
L 192 3053 
Q 301 3648 630 3987 
Q 960 4326 1523 4326 
Q 2054 4326 2380 4006 
Q 2707 3686 2707 3200 
Q 2707 2477 1888 1613 
L 832 486 
L 2330 486 
Q 2541 486 2665 569 
Q 2790 653 2944 915 
L 3034 877 
z
" transform="scale(0.015625)"/>
       </defs>
       <use xlink:href="#STIXGeneral-Regular-32"/>
       <use xlink:href="#STIXGeneral-Regular-2e" x="49.999985"/>
       <use xlink:href="#STIXGeneral-Regular-30" x="74.999969"/>
      </g>
     </g>
    </g>
    <g id="xtick_5">
     <g id="line2d_9">
      <path d="M 456.386736 376.9675 
L 456.386736 23.28 
" clip-path="url(#p0d3e8752c0)" style="fill: none; stroke: #b0b0b0; stroke-opacity: 0.3; stroke-width: 0.8; stroke-linecap: square"/>
     </g>
     <g id="line2d_10">
      <g>
       <use xlink:href="#m5eecadf850" x="456.386736" y="376.9675" style="stroke: #000000; stroke-width: 0.8"/>
      </g>
     </g>
     <g id="text_5">
      <!-- 2.5 -->
      <g transform="translate(448.886736 392.163125) scale(0.12 -0.12)">
       <use xlink:href="#STIXGeneral-Regular-32"/>
       <use xlink:href="#STIXGeneral-Regular-2e" x="49.999985"/>
       <use xlink:href="#STIXGeneral-Regular-35" x="74.999969"/>
      </g>
     </g>
    </g>
    <g id="xtick_6">
     <g id="line2d_11">
      <path d="M 538.247847 376.9675 
L 538.247847 23.28 
" clip-path="url(#p0d3e8752c0)" style="fill: none; stroke: #b0b0b0; stroke-opacity: 0.3; stroke-width: 0.8; stroke-linecap: square"/>
     </g>
     <g id="line2d_12">
      <g>
       <use xlink:href="#m5eecadf850" x="538.247847" y="376.9675" style="stroke: #000000; stroke-width: 0.8"/>
      </g>
     </g>
     <g id="text_6">
      <!-- 3.0 -->
      <g transform="translate(530.747847 392.163125) scale(0.12 -0.12)">
       <defs>
        <path id="STIXGeneral-Regular-33" d="M 390 3264 
L 288 3290 
Q 435 3770 748 4048 
Q 1062 4326 1542 4326 
Q 1990 4326 2265 4083 
Q 2541 3840 2541 3450 
Q 2541 2925 1946 2566 
Q 2298 2413 2477 2227 
Q 2758 1914 2758 1402 
Q 2758 890 2464 506 
Q 2246 211 1840 60 
Q 1434 -90 979 -90 
Q 262 -90 262 275 
Q 262 378 339 442 
Q 416 506 525 506 
Q 685 506 915 339 
Q 1197 141 1466 141 
Q 1818 141 2058 425 
Q 2298 710 2298 1120 
Q 2298 1856 1632 2048 
Q 1434 2112 979 2112 
L 979 2202 
Q 1338 2323 1517 2432 
Q 2035 2726 2035 3290 
Q 2035 3610 1852 3776 
Q 1670 3942 1344 3942 
Q 768 3942 390 3264 
z
" transform="scale(0.015625)"/>
       </defs>
       <use xlink:href="#STIXGeneral-Regular-33"/>
       <use xlink:href="#STIXGeneral-Regular-2e" x="49.999985"/>
       <use xlink:href="#STIXGeneral-Regular-30" x="74.999969"/>
      </g>
     </g>
    </g>
    <g id="xtick_7">
     <g id="line2d_13">
      <path d="M 620.108958 376.9675 
L 620.108958 23.28 
" clip-path="url(#p0d3e8752c0)" style="fill: none; stroke: #b0b0b0; stroke-opacity: 0.3; stroke-width: 0.8; stroke-linecap: square"/>
     </g>
     <g id="line2d_14">
      <g>
       <use xlink:href="#m5eecadf850" x="620.108958" y="376.9675" style="stroke: #000000; stroke-width: 0.8"/>
      </g>
     </g>
     <g id="text_7">
      <!-- 3.5 -->
      <g transform="translate(612.608958 392.163125) scale(0.12 -0.12)">
       <use xlink:href="#STIXGeneral-Regular-33"/>
       <use xlink:href="#STIXGeneral-Regular-2e" x="49.999985"/>
       <use xlink:href="#STIXGeneral-Regular-35" x="74.999969"/>
      </g>
     </g>
    </g>
    <g id="text_8">
     <!-- $u_d$ -->
     <g transform="translate(368.225625 408.329062) scale(0.14 -0.14)">
      <defs>
       <path id="STIXGeneral-Italic-75" d="M 2950 762 
L 3040 704 
Q 2733 237 2560 89 
Q 2387 -58 2157 -58 
Q 1850 -58 1850 250 
Q 1850 538 2138 1510 
Q 1568 576 1257 253 
Q 947 -70 608 -70 
Q 269 -70 269 269 
Q 269 384 442 1088 
L 666 1978 
Q 755 2349 755 2406 
Q 755 2483 684 2521 
Q 614 2560 365 2560 
L 365 2650 
Q 806 2701 1325 2822 
L 1350 2803 
L 781 531 
Q 762 474 762 429 
Q 762 269 890 269 
Q 1178 269 1798 1210 
Q 2010 1530 2128 1795 
Q 2246 2061 2502 2765 
L 2976 2765 
L 2470 851 
Q 2349 390 2349 352 
Q 2349 243 2419 243 
Q 2496 243 2605 345 
Q 2714 448 2950 762 
z
" transform="scale(0.015625)"/>
       <path id="STIXGeneral-Italic-64" d="M 3334 4371 
L 3373 4333 
L 3123 3360 
L 2739 1958 
Q 2323 429 2323 384 
Q 2323 256 2438 256 
Q 2522 256 2614 336 
Q 2707 416 2963 710 
L 3040 646 
Q 2547 -83 2099 -83 
Q 1978 -83 1907 -6 
Q 1837 70 1837 205 
Q 1837 397 1920 774 
Q 1645 307 1379 118 
Q 1114 -70 781 -70 
Q 461 -70 278 125 
Q 96 320 96 678 
Q 96 1440 713 2131 
Q 1331 2822 1965 2822 
Q 2163 2822 2256 2732 
Q 2349 2643 2381 2451 
L 2387 2451 
L 2675 3494 
Q 2765 3808 2765 3949 
Q 2765 4051 2694 4076 
Q 2624 4102 2355 4115 
L 2355 4224 
Q 2848 4269 3334 4371 
z
M 2278 2310 
Q 2278 2477 2185 2576 
Q 2093 2675 1978 2675 
Q 1677 2675 1395 2381 
Q 1075 2042 864 1571 
Q 653 1101 653 704 
Q 653 486 752 361 
Q 851 237 1024 237 
Q 1312 237 1606 550 
Q 1901 864 2089 1350 
Q 2278 1837 2278 2310 
z
" transform="scale(0.015625)"/>
      </defs>
      <use xlink:href="#STIXGeneral-Italic-75" transform="translate(0 0.90625)"/>
      <use xlink:href="#STIXGeneral-Italic-64" transform="translate(49.999985 -12.321875) scale(0.7)"/>
     </g>
    </g>
   </g>
   <g id="matplotlib.axis_2">
    <g id="ytick_1">
     <g id="line2d_15">
      <path d="M 50.355625 363.039926 
L 698.695625 363.039926 
" clip-path="url(#p0d3e8752c0)" style="fill: none; stroke: #b0b0b0; stroke-opacity: 0.3; stroke-width: 0.8; stroke-linecap: square"/>
     </g>
     <g id="line2d_16">
      <defs>
       <path id="m56908641bc" d="M 0 0 
L -3.5 0 
" style="stroke: #000000; stroke-width: 0.8"/>
      </defs>
      <g>
       <use xlink:href="#m56908641bc" x="50.355625" y="363.039926" style="stroke: #000000; stroke-width: 0.8"/>
      </g>
     </g>
     <g id="text_9">
      <!-- -0.3 -->
      <g transform="translate(24.36 367.137738) scale(0.12 -0.12)">
       <defs>
        <path id="STIXGeneral-Regular-2d" d="M 1824 1242 
L 250 1242 
L 250 1645 
L 1824 1645 
L 1824 1242 
z
" transform="scale(0.015625)"/>
       </defs>
       <use xlink:href="#STIXGeneral-Regular-2d"/>
       <use xlink:href="#STIXGeneral-Regular-30" x="33.299988"/>
       <use xlink:href="#STIXGeneral-Regular-2e" x="83.299973"/>
       <use xlink:href="#STIXGeneral-Regular-33" x="108.299957"/>
      </g>
     </g>
    </g>
    <g id="ytick_2">
     <g id="line2d_17">
      <path d="M 50.355625 310.599843 
L 698.695625 310.599843 
" clip-path="url(#p0d3e8752c0)" style="fill: none; stroke: #b0b0b0; stroke-opacity: 0.3; stroke-width: 0.8; stroke-linecap: square"/>
     </g>
     <g id="line2d_18">
      <g>
       <use xlink:href="#m56908641bc" x="50.355625" y="310.599843" style="stroke: #000000; stroke-width: 0.8"/>
      </g>
     </g>
     <g id="text_10">
      <!-- -0.2 -->
      <g transform="translate(24.36 314.697655) scale(0.12 -0.12)">
       <use xlink:href="#STIXGeneral-Regular-2d"/>
       <use xlink:href="#STIXGeneral-Regular-30" x="33.299988"/>
       <use xlink:href="#STIXGeneral-Regular-2e" x="83.299973"/>
       <use xlink:href="#STIXGeneral-Regular-32" x="108.299957"/>
      </g>
     </g>
    </g>
    <g id="ytick_3">
     <g id="line2d_19">
      <path d="M 50.355625 258.15976 
L 698.695625 258.15976 
" clip-path="url(#p0d3e8752c0)" style="fill: none; stroke: #b0b0b0; stroke-opacity: 0.3; stroke-width: 0.8; stroke-linecap: square"/>
     </g>
     <g id="line2d_20">
      <g>
       <use xlink:href="#m56908641bc" x="50.355625" y="258.15976" style="stroke: #000000; stroke-width: 0.8"/>
      </g>
     </g>
     <g id="text_11">
      <!-- -0.1 -->
      <g transform="translate(24.36 262.257573) scale(0.12 -0.12)">
       <use xlink:href="#STIXGeneral-Regular-2d"/>
       <use xlink:href="#STIXGeneral-Regular-30" x="33.299988"/>
       <use xlink:href="#STIXGeneral-Regular-2e" x="83.299973"/>
       <use xlink:href="#STIXGeneral-Regular-31" x="108.299957"/>
      </g>
     </g>
    </g>
    <g id="ytick_4">
     <g id="line2d_21">
      <path d="M 50.355625 205.719677 
L 698.695625 205.719677 
" clip-path="url(#p0d3e8752c0)" style="fill: none; stroke: #b0b0b0; stroke-opacity: 0.3; stroke-width: 0.8; stroke-linecap: square"/>
     </g>
     <g id="line2d_22">
      <g>
       <use xlink:href="#m56908641bc" x="50.355625" y="205.719677" style="stroke: #000000; stroke-width: 0.8"/>
      </g>
     </g>
     <g id="text_12">
      <!-- 0.0 -->
      <g transform="translate(28.355625 209.81749) scale(0.12 -0.12)">
       <use xlink:href="#STIXGeneral-Regular-30"/>
       <use xlink:href="#STIXGeneral-Regular-2e" x="49.999985"/>
       <use xlink:href="#STIXGeneral-Regular-30" x="74.999969"/>
      </g>
     </g>
    </g>
    <g id="ytick_5">
     <g id="line2d_23">
      <path d="M 50.355625 153.279595 
L 698.695625 153.279595 
" clip-path="url(#p0d3e8752c0)" style="fill: none; stroke: #b0b0b0; stroke-opacity: 0.3; stroke-width: 0.8; stroke-linecap: square"/>
     </g>
     <g id="line2d_24">
      <g>
       <use xlink:href="#m56908641bc" x="50.355625" y="153.279595" style="stroke: #000000; stroke-width: 0.8"/>
      </g>
     </g>
     <g id="text_13">
      <!-- 0.1 -->
      <g transform="translate(28.355625 157.377407) scale(0.12 -0.12)">
       <use xlink:href="#STIXGeneral-Regular-30"/>
       <use xlink:href="#STIXGeneral-Regular-2e" x="49.999985"/>
       <use xlink:href="#STIXGeneral-Regular-31" x="74.999969"/>
      </g>
     </g>
    </g>
    <g id="ytick_6">
     <g id="line2d_25">
      <path d="M 50.355625 100.839512 
L 698.695625 100.839512 
" clip-path="url(#p0d3e8752c0)" style="fill: none; stroke: #b0b0b0; stroke-opacity: 0.3; stroke-width: 0.8; stroke-linecap: square"/>
     </g>
     <g id="line2d_26">
      <g>
       <use xlink:href="#m56908641bc" x="50.355625" y="100.839512" style="stroke: #000000; stroke-width: 0.8"/>
      </g>
     </g>
     <g id="text_14">
      <!-- 0.2 -->
      <g transform="translate(28.355625 104.937325) scale(0.12 -0.12)">
       <use xlink:href="#STIXGeneral-Regular-30"/>
       <use xlink:href="#STIXGeneral-Regular-2e" x="49.999985"/>
       <use xlink:href="#STIXGeneral-Regular-32" x="74.999969"/>
      </g>
     </g>
    </g>
    <g id="ytick_7">
     <g id="line2d_27">
      <path d="M 50.355625 48.399429 
L 698.695625 48.399429 
" clip-path="url(#p0d3e8752c0)" style="fill: none; stroke: #b0b0b0; stroke-opacity: 0.3; stroke-width: 0.8; stroke-linecap: square"/>
     </g>
     <g id="line2d_28">
      <g>
       <use xlink:href="#m56908641bc" x="50.355625" y="48.399429" style="stroke: #000000; stroke-width: 0.8"/>
      </g>
     </g>
     <g id="text_15">
      <!-- 0.3 -->
      <g transform="translate(28.355625 52.497242) scale(0.12 -0.12)">
       <use xlink:href="#STIXGeneral-Regular-30"/>
       <use xlink:href="#STIXGeneral-Regular-2e" x="49.999985"/>
       <use xlink:href="#STIXGeneral-Regular-33" x="74.999969"/>
      </g>
     </g>
    </g>
    <g id="text_16">
     <!-- $\langle j \rangle - 0.2 \cdot u_d$ -->
     <g transform="translate(17.28 233.58375) rotate(-90) scale(0.14 -0.14)">
      <defs>
       <path id="STIXGeneral-Regular-27e8" d="M 2144 4563 
L 915 1606 
L 2138 -1363 
L 1805 -1363 
L 493 1542 
L 493 1670 
L 1811 4563 
L 2144 4563 
z
" transform="scale(0.015625)"/>
       <path id="STIXGeneral-Italic-6a" d="M 1786 3827 
Q 1786 3699 1690 3603 
Q 1594 3507 1466 3507 
Q 1318 3507 1219 3600 
Q 1120 3693 1120 3840 
Q 1120 3981 1222 4077 
Q 1325 4173 1459 4173 
Q 1587 4173 1686 4067 
Q 1786 3962 1786 3827 
z
M 1574 2803 
L 909 179 
Q 710 -595 419 -960 
Q 128 -1325 -288 -1325 
Q -512 -1325 -653 -1216 
Q -794 -1107 -794 -934 
Q -794 -819 -717 -736 
Q -640 -653 -531 -653 
Q -282 -653 -282 -890 
Q -282 -966 -320 -1014 
Q -358 -1062 -358 -1107 
Q -358 -1184 -243 -1184 
Q -51 -1184 80 -934 
Q 211 -685 378 -19 
L 838 1850 
Q 941 2266 941 2362 
Q 941 2470 873 2515 
Q 806 2560 634 2560 
L 467 2560 
L 467 2662 
Q 755 2682 1549 2822 
L 1574 2803 
z
" transform="scale(0.015625)"/>
       <path id="STIXGeneral-Regular-27e9" d="M 2067 1536 
L 749 -1363 
L 416 -1363 
L 1645 1600 
L 422 4563 
L 755 4563 
L 2067 1664 
L 2067 1536 
z
" transform="scale(0.015625)"/>
       <path id="STIXGeneral-Regular-2212" d="M 3974 1408 
L 410 1408 
L 410 1830 
L 3974 1830 
L 3974 1408 
z
" transform="scale(0.015625)"/>
       <path id="STIXGeneral-Regular-22c5" d="M 1187 1888 
Q 1299 1773 1299 1619 
Q 1299 1466 1187 1350 
Q 1075 1235 921 1235 
Q 768 1235 649 1353 
Q 531 1472 531 1619 
Q 531 1766 649 1884 
Q 768 2003 921 2003 
Q 1075 2003 1187 1888 
z
" transform="scale(0.015625)"/>
      </defs>
      <use xlink:href="#STIXGeneral-Regular-27e8" transform="translate(0 0.703125)"/>
      <use xlink:href="#STIXGeneral-Italic-6a" transform="translate(39.999985 0.703125)"/>
      <use xlink:href="#STIXGeneral-Regular-27e9" transform="translate(67.799973 0.703125)"/>
      <use xlink:href="#STIXGeneral-Regular-2212" transform="translate(122.239954 0.703125)"/>
      <use xlink:href="#STIXGeneral-Regular-30" transform="translate(205.179935 0.703125)"/>
      <use xlink:href="#STIXGeneral-Regular-2e" transform="translate(255.179919 0.703125)"/>
      <use xlink:href="#STIXGeneral-Regular-32" transform="translate(280.179904 0.703125)"/>
      <use xlink:href="#STIXGeneral-Regular-22c5" transform="translate(344.619885 0.703125)"/>
      <use xlink:href="#STIXGeneral-Italic-75" transform="translate(387.659872 0.703125)"/>
      <use xlink:href="#STIXGeneral-Italic-64" transform="translate(437.659857 -12.525) scale(0.7)"/>
     </g>
    </g>
   </g>
   <g id="line2d_29">
    <path d="M 50.355625 205.719677 
L 698.695625 205.719677 
" clip-path="url(#p0d3e8752c0)" style="fill: none; stroke: #000000; stroke-opacity: 0.5; stroke-linecap: square"/>
   </g>
   <g id="line2d_30">
    <path d="M 438.377292 376.9675 
L 438.377292 23.28 
" clip-path="url(#p0d3e8752c0)" style="fill: none; stroke-dasharray: 7.4,3.2; stroke-dashoffset: 0; stroke: #008000; stroke-opacity: 0.8; stroke-width: 2"/>
   </g>
   <g id="line2d_31">
    <path d="M 438.377292 206.336128 
L 440.709093 206.267817 
L 443.040894 206.199505 
L 445.372696 206.131193 
L 447.704497 206.062882 
L 450.036298 205.99457 
L 452.3681 205.926259 
L 454.699901 205.857947 
L 457.031702 205.789635 
L 459.363504 205.721324 
L 461.695305 205.653012 
L 464.027106 205.5847 
L 466.358908 205.516389 
L 468.690709 205.448077 
L 471.022511 205.379766 
L 473.354312 205.311454 
L 475.686113 205.243142 
L 478.017915 205.174831 
L 480.349716 205.106519 
L 482.681517 205.038207 
L 485.013319 204.969896 
L 487.34512 204.901584 
L 489.676921 204.833272 
L 492.008723 204.764961 
L 494.340524 204.696649 
L 496.672325 204.628338 
L 499.004127 204.560026 
L 501.335928 204.491714 
L 503.667729 204.423403 
L 505.999531 204.355091 
L 508.331332 204.286779 
L 510.663133 204.218468 
L 512.994935 204.150156 
L 515.326736 204.081844 
L 517.658537 204.013533 
L 519.990339 203.945221 
L 522.32214 203.87691 
L 524.653941 203.808598 
L 526.985743 203.740286 
L 529.317544 203.671975 
L 531.649346 203.603663 
L 533.981147 203.535351 
L 536.312948 203.46704 
L 538.64475 203.398728 
L 540.976551 203.330417 
L 543.308352 203.262105 
L 545.640154 203.193793 
L 547.971955 203.125482 
L 550.303756 203.05717 
L 552.635558 202.988858 
L 554.967359 202.920547 
L 557.29916 202.852235 
L 559.630962 202.783923 
L 561.962763 202.715612 
L 564.294564 202.6473 
L 566.626366 202.578989 
L 568.958167 202.510677 
L 571.289968 202.442365 
L 573.62177 202.374054 
L 575.953571 202.305742 
L 578.285372 202.23743 
L 580.617174 202.169119 
L 582.948975 202.100807 
L 585.280777 202.032496 
L 587.612578 201.964184 
L 589.944379 201.895872 
L 592.276181 201.827561 
L 594.607982 201.759249 
L 596.939783 201.690937 
L 599.271585 201.622626 
L 601.603386 201.554314 
L 603.935187 201.486002 
L 606.266989 201.417691 
L 608.59879 201.349379 
L 610.930591 201.281068 
L 613.262393 201.212756 
L 615.594194 201.144444 
L 617.925995 201.076133 
L 620.257797 201.007821 
L 622.589598 200.939509 
L 624.921399 200.871198 
L 627.253201 200.802886 
L 629.585002 200.734575 
L 631.916803 200.666263 
L 634.248605 200.597951 
L 636.580406 200.52964 
L 638.912207 200.461328 
L 641.244009 200.393016 
L 643.57581 200.324705 
L 645.907612 200.256393 
L 648.239413 200.188081 
L 650.571214 200.11977 
L 652.903016 200.051458 
L 655.234817 199.983147 
L 657.566618 199.914835 
L 659.89842 199.846523 
L 662.230221 199.778212 
L 664.562022 199.7099 
L 666.893824 199.641588 
L 669.225625 199.573277 
" clip-path="url(#p0d3e8752c0)" style="fill: none; stroke-dasharray: 7.4,3.2; stroke-dashoffset: 0; stroke: #bf00bf; stroke-opacity: 0.8; stroke-width: 2"/>
   </g>
   <g id="patch_3">
    <path d="M 50.355625 376.9675 
L 50.355625 23.28 
" style="fill: none; stroke: #000000; stroke-width: 0.8; stroke-linejoin: miter; stroke-linecap: square"/>
   </g>
   <g id="patch_4">
    <path d="M 698.695625 376.9675 
L 698.695625 23.28 
" style="fill: none; stroke: #000000; stroke-width: 0.8; stroke-linejoin: miter; stroke-linecap: square"/>
   </g>
   <g id="patch_5">
    <path d="M 50.355625 376.9675 
L 698.695625 376.9675 
" style="fill: none; stroke: #000000; stroke-width: 0.8; stroke-linejoin: miter; stroke-linecap: square"/>
   </g>
   <g id="patch_6">
    <path d="M 50.355625 23.28 
L 698.695625 23.28 
" style="fill: none; stroke: #000000; stroke-width: 0.8; stroke-linejoin: miter; stroke-linecap: square"/>
   </g>
   <g id="text_17">
    <!-- Residuals from expected linear relationship $\langle j \rangle = 0.2 \cdot u_d$ -->
    <g transform="translate(217.655625 17.28) scale(0.14 -0.14)">
     <defs>
      <path id="STIXGeneral-Regular-52" d="M 4224 0 
L 3187 0 
L 1664 1971 
L 1306 1958 
L 1306 717 
Q 1306 352 1405 249 
Q 1504 147 1875 122 
L 1875 0 
L 109 0 
L 109 122 
Q 474 154 563 262 
Q 653 371 653 794 
L 653 3526 
Q 653 3885 563 3987 
Q 474 4090 109 4115 
L 109 4237 
L 1850 4237 
Q 2726 4237 3187 3859 
Q 3501 3603 3501 3091 
Q 3501 2221 2342 2042 
L 3622 422 
Q 3757 256 3878 198 
Q 4000 141 4224 122 
L 4224 0 
z
M 1306 3731 
L 1306 2195 
Q 1766 2202 1990 2246 
Q 2214 2291 2438 2413 
Q 2803 2618 2803 3142 
Q 2803 4000 1632 4000 
Q 1459 4000 1382 3945 
Q 1306 3891 1306 3731 
z
" transform="scale(0.015625)"/>
      <path id="STIXGeneral-Regular-65" d="M 2611 1050 
L 2714 1005 
Q 2330 -64 1376 -64 
Q 813 -64 486 329 
Q 160 723 160 1389 
Q 160 2074 525 2509 
Q 890 2944 1485 2944 
Q 2061 2944 2374 2502 
Q 2560 2246 2592 1773 
L 621 1773 
Q 646 1370 700 1158 
Q 755 947 915 730 
Q 1184 378 1626 378 
Q 1939 378 2153 531 
Q 2368 685 2611 1050 
z
M 634 1978 
L 1939 1978 
Q 1882 2381 1750 2547 
Q 1619 2714 1312 2714 
Q 1043 2714 864 2525 
Q 685 2336 634 1978 
z
" transform="scale(0.015625)"/>
      <path id="STIXGeneral-Regular-73" d="M 998 1926 
L 1664 1523 
Q 1984 1331 2105 1164 
Q 2227 998 2227 736 
Q 2227 416 1961 176 
Q 1696 -64 1331 -64 
Q 1030 -64 864 -6 
Q 691 51 570 51 
Q 461 51 416 -26 
L 333 -26 
L 333 979 
L 435 979 
Q 538 512 730 294 
Q 922 77 1248 77 
Q 1485 77 1632 211 
Q 1779 346 1779 550 
Q 1779 845 1440 1030 
L 1094 1222 
Q 326 1651 326 2150 
Q 326 2522 566 2730 
Q 806 2938 1210 2938 
Q 1491 2938 1638 2867 
Q 1754 2816 1818 2816 
Q 1862 2816 1920 2880 
L 1990 2880 
L 2022 2010 
L 1926 2010 
Q 1818 2445 1654 2621 
Q 1491 2797 1203 2797 
Q 986 2797 854 2688 
Q 723 2579 723 2362 
Q 723 2253 796 2128 
Q 870 2003 998 1926 
z
" transform="scale(0.015625)"/>
      <path id="STIXGeneral-Regular-69" d="M 1152 4045 
Q 1152 3904 1056 3811 
Q 960 3718 819 3718 
Q 685 3718 592 3811 
Q 499 3904 499 4045 
Q 499 4179 595 4275 
Q 691 4371 826 4371 
Q 966 4371 1059 4275 
Q 1152 4179 1152 4045 
z
M 1619 0 
L 102 0 
L 102 96 
Q 435 115 521 211 
Q 608 307 608 666 
L 608 2118 
Q 608 2342 563 2432 
Q 518 2522 397 2522 
Q 243 2522 128 2490 
L 128 2592 
L 1120 2944 
L 1146 2918 
L 1146 672 
Q 1146 314 1226 218 
Q 1306 122 1619 96 
L 1619 0 
z
" transform="scale(0.015625)"/>
      <path id="STIXGeneral-Regular-64" d="M 3142 269 
L 2202 -64 
L 2176 -45 
L 2176 365 
Q 1869 -64 1357 -64 
Q 826 -64 499 317 
Q 173 698 173 1312 
Q 173 1990 563 2467 
Q 954 2944 1504 2944 
Q 1850 2944 2176 2669 
L 2176 3667 
Q 2176 3866 2118 3930 
Q 2061 3994 1882 3994 
Q 1792 3994 1741 3987 
L 1741 4090 
Q 2323 4243 2682 4371 
L 2714 4358 
L 2714 730 
Q 2714 506 2768 435 
Q 2822 365 2995 365 
Q 3034 365 3142 371 
L 3142 269 
z
M 2176 653 
L 2176 2125 
Q 2176 2381 1981 2573 
Q 1786 2765 1523 2765 
Q 1158 2765 940 2438 
Q 723 2112 723 1568 
Q 723 979 963 624 
Q 1203 269 1606 269 
Q 1907 269 2080 474 
Q 2176 582 2176 653 
z
" transform="scale(0.015625)"/>
      <path id="STIXGeneral-Regular-75" d="M 3072 320 
L 3072 230 
Q 2573 96 2195 -58 
L 2163 -38 
L 2163 486 
L 2150 486 
Q 1747 -64 1235 -64 
Q 870 -64 662 160 
Q 454 384 454 755 
L 454 2362 
Q 454 2598 371 2688 
Q 288 2778 58 2790 
L 58 2880 
L 992 2880 
L 992 813 
Q 992 595 1123 451 
Q 1254 307 1446 307 
Q 1760 307 1984 506 
Q 2067 582 2099 649 
Q 2131 717 2131 877 
L 2131 2355 
Q 2131 2605 2041 2678 
Q 1952 2752 1658 2771 
L 1658 2880 
L 2669 2880 
L 2669 685 
Q 2669 461 2742 390 
Q 2816 320 3034 320 
L 3072 320 
z
" transform="scale(0.015625)"/>
      <path id="STIXGeneral-Regular-61" d="M 2829 422 
L 2829 243 
Q 2586 -64 2253 -64 
Q 1888 -64 1843 403 
L 1837 403 
Q 1427 -64 909 -64 
Q 608 -64 422 112 
Q 237 288 237 602 
Q 237 1050 685 1350 
Q 992 1555 1837 1869 
L 1837 2214 
Q 1837 2502 1699 2646 
Q 1562 2790 1338 2790 
Q 1146 2790 1018 2697 
Q 890 2605 890 2477 
Q 890 2419 909 2348 
Q 928 2278 928 2208 
Q 928 2112 841 2029 
Q 755 1946 634 1946 
Q 525 1946 441 2029 
Q 358 2112 358 2240 
Q 358 2547 685 2752 
Q 986 2944 1421 2944 
Q 1939 2944 2176 2656 
Q 2291 2522 2323 2384 
Q 2355 2246 2355 1946 
L 2355 723 
Q 2355 301 2554 301 
Q 2682 301 2829 422 
z
M 1837 813 
L 1837 1715 
Q 1248 1510 1018 1293 
Q 800 1094 800 800 
Q 800 557 921 432 
Q 1043 307 1242 307 
Q 1453 307 1613 410 
Q 1747 506 1792 589 
Q 1837 672 1837 813 
z
" transform="scale(0.015625)"/>
      <path id="STIXGeneral-Regular-6c" d="M 1645 0 
L 134 0 
L 134 96 
Q 435 122 531 221 
Q 627 320 627 589 
L 627 3590 
Q 627 3821 569 3910 
Q 512 4000 358 4000 
Q 224 4000 122 3987 
L 122 4090 
Q 730 4237 1133 4371 
L 1165 4346 
L 1165 557 
Q 1165 288 1254 201 
Q 1344 115 1645 96 
L 1645 0 
z
" transform="scale(0.015625)"/>
      <path id="STIXGeneral-Regular-20" transform="scale(0.015625)"/>
      <path id="STIXGeneral-Regular-66" d="M 134 2880 
L 659 2880 
Q 666 3264 710 3478 
Q 755 3693 883 3910 
Q 1152 4371 1786 4371 
Q 2074 4371 2262 4259 
Q 2451 4147 2451 3974 
Q 2451 3866 2374 3789 
Q 2298 3712 2182 3712 
Q 2029 3712 1894 3942 
Q 1741 4192 1555 4192 
Q 1197 4192 1197 3622 
L 1197 2880 
L 1978 2880 
L 1978 2675 
L 1197 2675 
L 1197 666 
Q 1197 307 1299 208 
Q 1402 109 1792 96 
L 1792 0 
L 128 0 
L 128 96 
Q 474 115 566 214 
Q 659 314 659 666 
L 659 2675 
L 134 2675 
L 134 2880 
z
" transform="scale(0.015625)"/>
      <path id="STIXGeneral-Regular-72" d="M 1024 2931 
L 1024 2342 
Q 1267 2688 1430 2816 
Q 1594 2944 1792 2944 
Q 1958 2944 2051 2854 
Q 2144 2765 2144 2605 
Q 2144 2470 2077 2393 
Q 2010 2317 1894 2317 
Q 1773 2317 1638 2445 
Q 1536 2541 1472 2541 
Q 1338 2541 1181 2355 
Q 1024 2170 1024 2016 
L 1024 576 
Q 1024 301 1133 205 
Q 1242 109 1568 96 
L 1568 0 
L 32 0 
L 32 96 
Q 339 154 412 224 
Q 486 294 486 538 
L 486 2138 
Q 486 2349 438 2435 
Q 390 2522 269 2522 
Q 166 2522 45 2496 
L 45 2598 
Q 448 2726 992 2944 
L 1024 2931 
z
" transform="scale(0.015625)"/>
      <path id="STIXGeneral-Regular-6f" d="M 3008 1478 
Q 3008 806 2608 371 
Q 2208 -64 1568 -64 
Q 979 -64 582 368 
Q 186 800 186 1459 
Q 186 2125 582 2534 
Q 979 2944 1626 2944 
Q 2221 2944 2614 2537 
Q 3008 2131 3008 1478 
z
M 2432 1306 
Q 2432 2035 2112 2445 
Q 1856 2765 1504 2765 
Q 1171 2765 966 2493 
Q 762 2221 762 1747 
Q 762 928 1101 435 
Q 1318 115 1677 115 
Q 2029 115 2230 432 
Q 2432 749 2432 1306 
z
" transform="scale(0.015625)"/>
      <path id="STIXGeneral-Regular-6d" d="M 4960 0 
L 3565 0 
L 3565 96 
Q 3834 122 3907 208 
Q 3981 294 3981 576 
L 3981 1894 
Q 3981 2278 3869 2444 
Q 3757 2611 3488 2611 
Q 3264 2611 3107 2521 
Q 2950 2432 2803 2221 
L 2803 608 
Q 2803 301 2896 201 
Q 2989 102 3264 96 
L 3264 0 
L 1830 0 
L 1830 96 
Q 2112 115 2189 188 
Q 2266 262 2266 550 
L 2266 1901 
Q 2266 2611 1850 2611 
Q 1670 2611 1468 2531 
Q 1267 2451 1171 2336 
Q 1088 2240 1088 2227 
L 1088 448 
Q 1088 243 1177 176 
Q 1267 109 1523 96 
L 1523 0 
L 102 0 
L 102 96 
Q 371 102 460 195 
Q 550 288 550 563 
L 550 2150 
Q 550 2387 499 2480 
Q 448 2573 326 2573 
Q 230 2573 122 2547 
L 122 2656 
Q 557 2778 1011 2944 
L 1062 2925 
L 1062 2451 
L 1075 2451 
Q 1363 2752 1584 2848 
Q 1805 2944 2054 2944 
Q 2560 2944 2733 2406 
Q 3232 2944 3776 2944 
Q 4518 2944 4518 1792 
L 4518 493 
Q 4518 282 4582 202 
Q 4646 122 4794 109 
L 4960 96 
L 4960 0 
z
" transform="scale(0.015625)"/>
      <path id="STIXGeneral-Regular-78" d="M 3066 0 
L 1779 0 
L 1779 96 
Q 1939 109 1987 137 
Q 2035 166 2035 250 
Q 2035 307 1997 365 
L 1414 1261 
L 909 474 
Q 781 275 781 211 
Q 781 96 1037 96 
L 1037 0 
L 109 0 
L 109 96 
Q 269 109 355 169 
Q 442 230 576 422 
L 1306 1478 
L 704 2400 
Q 557 2624 454 2704 
Q 352 2784 211 2784 
L 154 2784 
L 154 2880 
L 1478 2880 
L 1478 2784 
Q 1203 2778 1203 2643 
Q 1203 2509 1498 2074 
Q 1581 1958 1587 1946 
Q 1619 1990 1779 2227 
Q 1811 2285 1856 2349 
Q 1901 2413 1923 2451 
Q 1946 2490 1971 2528 
Q 1997 2566 2006 2595 
Q 2016 2624 2016 2643 
Q 2016 2765 1760 2784 
L 1760 2880 
L 2771 2880 
L 2771 2784 
Q 2445 2771 2253 2502 
L 1722 1734 
L 2541 480 
Q 2790 96 3066 96 
L 3066 0 
z
" transform="scale(0.015625)"/>
      <path id="STIXGeneral-Regular-70" d="M 1018 2931 
L 1018 2438 
Q 1421 2944 1939 2944 
Q 2406 2944 2707 2560 
Q 3008 2176 3008 1581 
Q 3008 883 2621 409 
Q 2234 -64 1664 -64 
Q 1466 -64 1328 -6 
Q 1190 51 1018 211 
L 1018 -794 
Q 1018 -1094 1120 -1180 
Q 1222 -1267 1581 -1274 
L 1581 -1389 
L 32 -1389 
L 32 -1280 
Q 314 -1254 397 -1171 
Q 480 -1088 480 -838 
L 480 2157 
Q 480 2381 429 2451 
Q 378 2522 218 2522 
Q 115 2522 58 2515 
L 58 2618 
Q 506 2752 979 2944 
L 1018 2931 
z
M 1018 2138 
L 1018 563 
Q 1018 422 1238 281 
Q 1459 141 1683 141 
Q 2029 141 2243 467 
Q 2458 794 2458 1325 
Q 2458 1888 2243 2224 
Q 2029 2560 1670 2560 
Q 1446 2560 1232 2419 
Q 1018 2278 1018 2138 
z
" transform="scale(0.015625)"/>
      <path id="STIXGeneral-Regular-63" d="M 2547 998 
L 2637 941 
Q 2362 403 2112 205 
Q 1786 -64 1376 -64 
Q 845 -64 502 336 
Q 160 736 160 1357 
Q 160 2170 698 2618 
Q 1094 2944 1562 2944 
Q 1965 2944 2256 2749 
Q 2547 2554 2547 2285 
Q 2547 2176 2457 2096 
Q 2368 2016 2246 2016 
Q 2022 2016 1939 2310 
L 1901 2451 
Q 1850 2630 1773 2694 
Q 1696 2758 1523 2758 
Q 1133 2758 893 2451 
Q 653 2144 653 1645 
Q 653 1094 928 745 
Q 1203 397 1645 397 
Q 1920 397 2118 528 
Q 2317 659 2547 998 
z
" transform="scale(0.015625)"/>
      <path id="STIXGeneral-Regular-74" d="M 1702 493 
L 1786 422 
Q 1478 -64 1011 -64 
Q 448 -64 448 749 
L 448 2675 
L 109 2675 
Q 83 2694 83 2720 
Q 83 2771 192 2842 
Q 435 2982 813 3526 
Q 826 3546 874 3606 
Q 922 3667 941 3706 
Q 986 3706 986 3622 
L 986 2880 
L 1632 2880 
L 1632 2675 
L 986 2675 
L 986 845 
Q 986 538 1062 403 
Q 1139 269 1318 269 
Q 1510 269 1702 493 
z
" transform="scale(0.015625)"/>
      <path id="STIXGeneral-Regular-6e" d="M 3104 0 
L 1773 0 
L 1779 96 
Q 2016 115 2096 233 
Q 2176 352 2176 672 
L 2176 1946 
Q 2176 2592 1709 2592 
Q 1549 2592 1408 2515 
Q 1267 2438 1050 2227 
L 1050 461 
Q 1050 269 1136 192 
Q 1222 115 1466 96 
L 1466 0 
L 115 0 
L 115 96 
Q 358 115 435 214 
Q 512 314 512 602 
L 512 2157 
Q 512 2394 467 2483 
Q 422 2573 288 2573 
Q 160 2573 102 2547 
L 102 2656 
Q 550 2784 979 2944 
L 1030 2925 
L 1030 2426 
L 1037 2426 
Q 1491 2944 1958 2944 
Q 2323 2944 2518 2688 
Q 2714 2432 2714 1958 
L 2714 544 
Q 2714 288 2790 205 
Q 2867 122 3104 96 
L 3104 0 
z
" transform="scale(0.015625)"/>
      <path id="STIXGeneral-Regular-68" d="M 3117 0 
L 1760 0 
L 1760 96 
Q 2042 128 2118 224 
Q 2195 320 2195 653 
L 2195 1920 
Q 2195 2598 1722 2598 
Q 1530 2598 1370 2508 
Q 1210 2419 1005 2195 
L 1005 653 
Q 1005 320 1081 224 
Q 1158 128 1440 96 
L 1440 0 
L 58 0 
L 58 96 
Q 333 134 400 224 
Q 467 314 467 653 
L 467 3667 
Q 467 3872 406 3933 
Q 346 3994 141 3994 
Q 83 3994 64 3987 
L 64 4090 
L 237 4141 
Q 730 4288 973 4371 
L 1005 4352 
L 1005 2406 
Q 1229 2694 1446 2819 
Q 1664 2944 1946 2944 
Q 2733 2944 2733 1926 
L 2733 653 
Q 2733 320 2793 233 
Q 2854 147 3117 96 
L 3117 0 
z
" transform="scale(0.015625)"/>
      <path id="STIXGeneral-Regular-3d" d="M 4077 2048 
L 307 2048 
L 307 2470 
L 4077 2470 
L 4077 2048 
z
M 4077 768 
L 307 768 
L 307 1190 
L 4077 1190 
L 4077 768 
z
" transform="scale(0.015625)"/>
     </defs>
     <use xlink:href="#STIXGeneral-Regular-52" transform="translate(0 0.703125)"/>
     <use xlink:href="#STIXGeneral-Regular-65" transform="translate(66.699997 0.703125)"/>
     <use xlink:href="#STIXGeneral-Regular-73" transform="translate(111.099991 0.703125)"/>
     <use xlink:href="#STIXGeneral-Regular-69" transform="translate(149.999985 0.703125)"/>
     <use xlink:href="#STIXGeneral-Regular-64" transform="translate(177.799973 0.703125)"/>
     <use xlink:href="#STIXGeneral-Regular-75" transform="translate(227.799957 0.703125)"/>
     <use xlink:href="#STIXGeneral-Regular-61" transform="translate(277.799942 0.703125)"/>
     <use xlink:href="#STIXGeneral-Regular-6c" transform="translate(322.199936 0.703125)"/>
     <use xlink:href="#STIXGeneral-Regular-73" transform="translate(349.999924 0.703125)"/>
     <use xlink:href="#STIXGeneral-Regular-20" transform="translate(388.899918 0.703125)"/>
     <use xlink:href="#STIXGeneral-Regular-66" transform="translate(413.899902 0.703125)"/>
     <use xlink:href="#STIXGeneral-Regular-72" transform="translate(447.19989 0.703125)"/>
     <use xlink:href="#STIXGeneral-Regular-6f" transform="translate(480.499878 0.703125)"/>
     <use xlink:href="#STIXGeneral-Regular-6d" transform="translate(530.499863 0.703125)"/>
     <use xlink:href="#STIXGeneral-Regular-20" transform="translate(608.29985 0.703125)"/>
     <use xlink:href="#STIXGeneral-Regular-65" transform="translate(633.299835 0.703125)"/>
     <use xlink:href="#STIXGeneral-Regular-78" transform="translate(677.699829 0.703125)"/>
     <use xlink:href="#STIXGeneral-Regular-70" transform="translate(727.699814 0.703125)"/>
     <use xlink:href="#STIXGeneral-Regular-65" transform="translate(777.699799 0.703125)"/>
     <use xlink:href="#STIXGeneral-Regular-63" transform="translate(822.099792 0.703125)"/>
     <use xlink:href="#STIXGeneral-Regular-74" transform="translate(866.499786 0.703125)"/>
     <use xlink:href="#STIXGeneral-Regular-65" transform="translate(894.299774 0.703125)"/>
     <use xlink:href="#STIXGeneral-Regular-64" transform="translate(938.699768 0.703125)"/>
     <use xlink:href="#STIXGeneral-Regular-20" transform="translate(988.699753 0.703125)"/>
     <use xlink:href="#STIXGeneral-Regular-6c" transform="translate(1013.699738 0.703125)"/>
     <use xlink:href="#STIXGeneral-Regular-69" transform="translate(1041.499725 0.703125)"/>
     <use xlink:href="#STIXGeneral-Regular-6e" transform="translate(1069.299713 0.703125)"/>
     <use xlink:href="#STIXGeneral-Regular-65" transform="translate(1119.299698 0.703125)"/>
     <use xlink:href="#STIXGeneral-Regular-61" transform="translate(1163.699692 0.703125)"/>
     <use xlink:href="#STIXGeneral-Regular-72" transform="translate(1208.099686 0.703125)"/>
     <use xlink:href="#STIXGeneral-Regular-20" transform="translate(1241.399673 0.703125)"/>
     <use xlink:href="#STIXGeneral-Regular-72" transform="translate(1266.399658 0.703125)"/>
     <use xlink:href="#STIXGeneral-Regular-65" transform="translate(1299.699646 0.703125)"/>
     <use xlink:href="#STIXGeneral-Regular-6c" transform="translate(1344.09964 0.703125)"/>
     <use xlink:href="#STIXGeneral-Regular-61" transform="translate(1371.899628 0.703125)"/>
     <use xlink:href="#STIXGeneral-Regular-74" transform="translate(1416.299622 0.703125)"/>
     <use xlink:href="#STIXGeneral-Regular-69" transform="translate(1444.099609 0.703125)"/>
     <use xlink:href="#STIXGeneral-Regular-6f" transform="translate(1471.899597 0.703125)"/>
     <use xlink:href="#STIXGeneral-Regular-6e" transform="translate(1521.899582 0.703125)"/>
     <use xlink:href="#STIXGeneral-Regular-73" transform="translate(1571.899567 0.703125)"/>
     <use xlink:href="#STIXGeneral-Regular-68" transform="translate(1610.799561 0.703125)"/>
     <use xlink:href="#STIXGeneral-Regular-69" transform="translate(1660.799545 0.703125)"/>
     <use xlink:href="#STIXGeneral-Regular-70" transform="translate(1688.599533 0.703125)"/>
     <use xlink:href="#STIXGeneral-Regular-20" transform="translate(1738.599518 0.703125)"/>
     <use xlink:href="#STIXGeneral-Regular-27e8" transform="translate(1763.599503 0.703125)"/>
     <use xlink:href="#STIXGeneral-Italic-6a" transform="translate(1803.599487 0.703125)"/>
     <use xlink:href="#STIXGeneral-Regular-27e9" transform="translate(1831.399475 0.703125)"/>
     <use xlink:href="#STIXGeneral-Regular-3d" transform="translate(1885.839456 0.703125)"/>
     <use xlink:href="#STIXGeneral-Regular-30" transform="translate(1968.779437 0.703125)"/>
     <use xlink:href="#STIXGeneral-Regular-2e" transform="translate(2018.779422 0.703125)"/>
     <use xlink:href="#STIXGeneral-Regular-32" transform="translate(2043.779407 0.703125)"/>
     <use xlink:href="#STIXGeneral-Regular-22c5" transform="translate(2108.219388 0.703125)"/>
     <use xlink:href="#STIXGeneral-Italic-75" transform="translate(2151.259375 0.703125)"/>
     <use xlink:href="#STIXGeneral-Italic-64" transform="translate(2201.25936 -12.525) scale(0.7)"/>
    </g>
   </g>
   <g id="legend_1">
    <g id="patch_7">
     <path d="M 57.355625 89.650312 
L 236.555625 89.650312 
Q 238.555625 89.650312 238.555625 87.650312 
L 238.555625 30.28 
Q 238.555625 28.28 236.555625 28.28 
L 57.355625 28.28 
Q 55.355625 28.28 55.355625 30.28 
L 55.355625 87.650312 
Q 55.355625 89.650312 57.355625 89.650312 
z
" style="fill: #ffffff; opacity: 0.9; stroke: #cccccc; stroke-linejoin: miter"/>
    </g>
    <g id="line2d_32">
     <path d="M 59.355625 35.98 
L 69.355625 35.98 
L 79.355625 35.98 
" style="fill: none; stroke: #000000; stroke-opacity: 0.5; stroke-linecap: square"/>
    </g>
    <g id="text_18">
     <!-- $\langle j \rangle = 0.2 \cdot u_d$ -->
     <g transform="translate(87.355625 39.48) scale(0.1 -0.1)">
      <use xlink:href="#STIXGeneral-Regular-27e8" transform="translate(0 0.703125)"/>
      <use xlink:href="#STIXGeneral-Italic-6a" transform="translate(39.999985 0.703125)"/>
      <use xlink:href="#STIXGeneral-Regular-27e9" transform="translate(67.799973 0.703125)"/>
      <use xlink:href="#STIXGeneral-Regular-3d" transform="translate(122.239954 0.703125)"/>
      <use xlink:href="#STIXGeneral-Regular-30" transform="translate(205.179935 0.703125)"/>
      <use xlink:href="#STIXGeneral-Regular-2e" transform="translate(255.179919 0.703125)"/>
      <use xlink:href="#STIXGeneral-Regular-32" transform="translate(280.179904 0.703125)"/>
      <use xlink:href="#STIXGeneral-Regular-22c5" transform="translate(344.619885 0.703125)"/>
      <use xlink:href="#STIXGeneral-Italic-75" transform="translate(387.659872 0.703125)"/>
      <use xlink:href="#STIXGeneral-Italic-64" transform="translate(437.659857 -12.525) scale(0.7)"/>
     </g>
    </g>
    <g id="line2d_33">
     <path d="M 59.355625 50.18 
L 69.355625 50.18 
L 79.355625 50.18 
" style="fill: none; stroke-dasharray: 7.4,3.2; stroke-dashoffset: 0; stroke: #008000; stroke-opacity: 0.8; stroke-width: 2"/>
    </g>
    <g id="text_19">
     <!-- $u^{\bigstar} = 2.39$ -->
     <g transform="translate(87.355625 53.68) scale(0.1 -0.1)">
      <defs>
       <path id="STIXGeneral-Regular-2605" d="M 5184 2445 
L 3725 1318 
L 4250 -422 
L 2784 614 
L 1318 -422 
L 1843 1318 
L 384 2445 
L 2189 2445 
L 2784 4192 
L 3379 2445 
L 5184 2445 
z
" transform="scale(0.015625)"/>
       <path id="STIXGeneral-Regular-39" d="M 378 -141 
L 358 -13 
Q 1094 115 1603 608 
Q 2112 1101 2304 1882 
Q 1933 1517 1344 1517 
Q 826 1517 509 1875 
Q 192 2234 192 2816 
Q 192 3462 573 3894 
Q 954 4326 1523 4326 
Q 2131 4326 2528 3840 
Q 2938 3328 2938 2522 
Q 2938 1958 2742 1462 
Q 2547 966 2170 621 
Q 1773 262 1395 105 
Q 1018 -51 378 -141 
z
M 2317 2272 
L 2317 2522 
Q 2317 4147 1472 4147 
Q 1171 4147 1005 3930 
Q 909 3802 845 3546 
Q 781 3290 781 3034 
Q 781 2464 995 2128 
Q 1210 1792 1568 1792 
Q 1824 1792 2070 1917 
Q 2317 2042 2317 2272 
z
" transform="scale(0.015625)"/>
      </defs>
      <use xlink:href="#STIXGeneral-Italic-75" transform="translate(0 0.875)"/>
      <use xlink:href="#STIXGeneral-Regular-2605" transform="translate(56.17311 36.15) scale(0.7)"/>
      <use xlink:href="#STIXGeneral-Regular-3d" transform="translate(135.92247 0.875)"/>
      <use xlink:href="#STIXGeneral-Regular-32" transform="translate(218.862451 0.875)"/>
      <use xlink:href="#STIXGeneral-Regular-2e" transform="translate(268.862436 0.875)"/>
      <use xlink:href="#STIXGeneral-Regular-33" transform="translate(293.862421 0.875)"/>
      <use xlink:href="#STIXGeneral-Regular-39" transform="translate(343.862406 0.875)"/>
     </g>
    </g>
    <g id="line2d_34">
     <path d="M 59.355625 65.550312 
L 69.355625 65.550312 
L 79.355625 65.550312 
" style="fill: none; stroke-dasharray: 7.4,3.2; stroke-dashoffset: 0; stroke: #bf00bf; stroke-opacity: 0.8; stroke-width: 2"/>
    </g>
    <g id="text_20">
     <!-- Residual fit ($u_d &gt; u^{\bigstar}$): slope = 0.009 -->
     <g transform="translate(87.355625 69.050312) scale(0.1 -0.1)">
      <defs>
       <path id="STIXGeneral-Regular-28" d="M 1946 -1030 
L 1869 -1133 
Q 1126 -710 716 32 
Q 307 774 307 1613 
Q 307 3386 1888 4326 
L 1946 4224 
Q 1293 3667 1075 3126 
Q 858 2586 858 1632 
Q 858 685 1082 96 
Q 1306 -493 1946 -1030 
z
" transform="scale(0.015625)"/>
       <path id="STIXGeneral-Regular-3e" d="M 3974 1594 
L 358 -154 
L 358 250 
L 3123 1626 
L 358 3002 
L 358 3418 
L 3974 1658 
L 3974 1594 
z
" transform="scale(0.015625)"/>
       <path id="STIXGeneral-Regular-29" d="M 186 4224 
L 262 4326 
Q 992 3891 1408 3148 
Q 1824 2406 1824 1581 
Q 1824 -166 243 -1133 
L 186 -1030 
Q 845 -486 1059 54 
Q 1274 595 1274 1562 
Q 1274 2534 1059 3120 
Q 845 3706 186 4224 
z
" transform="scale(0.015625)"/>
       <path id="STIXGeneral-Regular-3a" d="M 1123 2832 
Q 1229 2726 1229 2579 
Q 1229 2432 1126 2329 
Q 1024 2227 877 2227 
Q 730 2227 624 2332 
Q 518 2438 518 2579 
Q 518 2733 620 2835 
Q 723 2938 877 2938 
Q 1018 2938 1123 2832 
z
M 1229 282 
Q 1229 141 1126 35 
Q 1024 -70 877 -70 
Q 730 -70 624 35 
Q 518 141 518 282 
Q 518 435 620 537 
Q 723 640 877 640 
Q 1018 640 1123 534 
Q 1229 429 1229 282 
z
" transform="scale(0.015625)"/>
      </defs>
      <use xlink:href="#STIXGeneral-Regular-52" transform="translate(0 0.875)"/>
      <use xlink:href="#STIXGeneral-Regular-65" transform="translate(66.699997 0.875)"/>
      <use xlink:href="#STIXGeneral-Regular-73" transform="translate(111.099991 0.875)"/>
      <use xlink:href="#STIXGeneral-Regular-69" transform="translate(149.999985 0.875)"/>
      <use xlink:href="#STIXGeneral-Regular-64" transform="translate(177.799973 0.875)"/>
      <use xlink:href="#STIXGeneral-Regular-75" transform="translate(227.799957 0.875)"/>
      <use xlink:href="#STIXGeneral-Regular-61" transform="translate(277.799942 0.875)"/>
      <use xlink:href="#STIXGeneral-Regular-6c" transform="translate(322.199936 0.875)"/>
      <use xlink:href="#STIXGeneral-Regular-20" transform="translate(349.999924 0.875)"/>
      <use xlink:href="#STIXGeneral-Regular-66" transform="translate(374.999908 0.875)"/>
      <use xlink:href="#STIXGeneral-Regular-69" transform="translate(408.299896 0.875)"/>
      <use xlink:href="#STIXGeneral-Regular-74" transform="translate(436.099884 0.875)"/>
      <use xlink:href="#STIXGeneral-Regular-20" transform="translate(463.899872 0.875)"/>
      <use xlink:href="#STIXGeneral-Regular-28" transform="translate(488.899857 0.875)"/>
      <use xlink:href="#STIXGeneral-Italic-75" transform="translate(522.199844 0.875)"/>
      <use xlink:href="#STIXGeneral-Italic-64" transform="translate(572.199829 -12.353125) scale(0.7)"/>
      <use xlink:href="#STIXGeneral-Regular-3e" transform="translate(626.04919 0.875)"/>
      <use xlink:href="#STIXGeneral-Italic-75" transform="translate(708.989171 0.875)"/>
      <use xlink:href="#STIXGeneral-Regular-2605" transform="translate(765.162281 36.15) scale(0.7)"/>
      <use xlink:href="#STIXGeneral-Regular-29" transform="translate(830.471645 0.875)"/>
      <use xlink:href="#STIXGeneral-Regular-3a" transform="translate(863.771633 0.875)"/>
      <use xlink:href="#STIXGeneral-Regular-20" transform="translate(891.57162 0.875)"/>
      <use xlink:href="#STIXGeneral-Regular-73" transform="translate(916.571605 0.875)"/>
      <use xlink:href="#STIXGeneral-Regular-6c" transform="translate(955.471599 0.875)"/>
      <use xlink:href="#STIXGeneral-Regular-6f" transform="translate(983.271587 0.875)"/>
      <use xlink:href="#STIXGeneral-Regular-70" transform="translate(1033.271572 0.875)"/>
      <use xlink:href="#STIXGeneral-Regular-65" transform="translate(1083.271556 0.875)"/>
      <use xlink:href="#STIXGeneral-Regular-20" transform="translate(1127.67155 0.875)"/>
      <use xlink:href="#STIXGeneral-Regular-3d" transform="translate(1152.671535 0.875)"/>
      <use xlink:href="#STIXGeneral-Regular-20" transform="translate(1221.17152 0.875)"/>
      <use xlink:href="#STIXGeneral-Regular-30" transform="translate(1246.171505 0.875)"/>
      <use xlink:href="#STIXGeneral-Regular-2e" transform="translate(1296.171489 0.875)"/>
      <use xlink:href="#STIXGeneral-Regular-30" transform="translate(1321.171474 0.875)"/>
      <use xlink:href="#STIXGeneral-Regular-30" transform="translate(1371.171459 0.875)"/>
      <use xlink:href="#STIXGeneral-Regular-39" transform="translate(1421.171443 0.875)"/>
     </g>
    </g>
    <g id="LineCollection_1">
     <path d="M 69.355625 84.950312 
L 69.355625 74.950312 
" style="fill: none; stroke: #ff0000; stroke-opacity: 0.8; stroke-width: 1.5"/>
    </g>
    <g id="line2d_35">
     <defs>
      <path id="m45abf04143" d="M 3 0 
L -3 -0 
" style="stroke: #ff0000; stroke-opacity: 0.8"/>
     </defs>
     <g>
      <use xlink:href="#m45abf04143" x="69.355625" y="84.950312" style="fill: #ff0000; fill-opacity: 0.8; stroke: #ff0000; stroke-opacity: 0.8"/>
     </g>
    </g>
    <g id="line2d_36">
     <g>
      <use xlink:href="#m45abf04143" x="69.355625" y="74.950312" style="fill: #ff0000; fill-opacity: 0.8; stroke: #ff0000; stroke-opacity: 0.8"/>
     </g>
    </g>
    <g id="line2d_37"/>
    <g id="line2d_38">
     <defs>
      <path id="mc9b5f3b867" d="M 0 4 
C 1.060812 4 2.078319 3.578535 2.828427 2.828427 
C 3.578535 2.078319 4 1.060812 4 0 
C 4 -1.060812 3.578535 -2.078319 2.828427 -2.828427 
C 2.078319 -3.578535 1.060812 -4 0 -4 
C -1.060812 -4 -2.078319 -3.578535 -2.828427 -2.828427 
C -3.578535 -2.078319 -4 -1.060812 -4 0 
C -4 1.060812 -3.578535 2.078319 -2.828427 2.828427 
C -2.078319 3.578535 -1.060812 4 0 4 
z
" style="stroke: #ff0000; stroke-opacity: 0.8"/>
     </defs>
     <g>
      <use xlink:href="#mc9b5f3b867" x="69.355625" y="79.950312" style="fill: #ff0000; fill-opacity: 0.8; stroke: #ff0000; stroke-opacity: 0.8"/>
     </g>
    </g>
    <g id="text_21">
     <!-- $\langle j \rangle - 0.2 \cdot u_d$ -->
     <g transform="translate(87.355625 83.450312) scale(0.1 -0.1)">
      <use xlink:href="#STIXGeneral-Regular-27e8" transform="translate(0 0.703125)"/>
      <use xlink:href="#STIXGeneral-Italic-6a" transform="translate(39.999985 0.703125)"/>
      <use xlink:href="#STIXGeneral-Regular-27e9" transform="translate(67.799973 0.703125)"/>
      <use xlink:href="#STIXGeneral-Regular-2212" transform="translate(122.239954 0.703125)"/>
      <use xlink:href="#STIXGeneral-Regular-30" transform="translate(205.179935 0.703125)"/>
      <use xlink:href="#STIXGeneral-Regular-2e" transform="translate(255.179919 0.703125)"/>
      <use xlink:href="#STIXGeneral-Regular-32" transform="translate(280.179904 0.703125)"/>
      <use xlink:href="#STIXGeneral-Regular-22c5" transform="translate(344.619885 0.703125)"/>
      <use xlink:href="#STIXGeneral-Italic-75" transform="translate(387.659872 0.703125)"/>
      <use xlink:href="#STIXGeneral-Italic-64" transform="translate(437.659857 -12.525) scale(0.7)"/>
     </g>
    </g>
   </g>
   <g id="LineCollection_2">
    <path d="M 79.825625 205.719677 
L 79.825625 205.719677 
" clip-path="url(#p0d3e8752c0)" style="fill: none; stroke: #ff0000; stroke-opacity: 0.8; stroke-width: 1.5"/>
    <path d="M 112.570069 205.719677 
L 112.570069 205.719677 
" clip-path="url(#p0d3e8752c0)" style="fill: none; stroke: #ff0000; stroke-opacity: 0.8; stroke-width: 1.5"/>
    <path d="M 145.314514 205.719677 
L 145.314514 205.719677 
" clip-path="url(#p0d3e8752c0)" style="fill: none; stroke: #ff0000; stroke-opacity: 0.8; stroke-width: 1.5"/>
    <path d="M 178.058958 205.719677 
L 178.058958 205.719677 
" clip-path="url(#p0d3e8752c0)" style="fill: none; stroke: #ff0000; stroke-opacity: 0.8; stroke-width: 1.5"/>
    <path d="M 210.803403 205.719677 
L 210.803403 205.719677 
" clip-path="url(#p0d3e8752c0)" style="fill: none; stroke: #ff0000; stroke-opacity: 0.8; stroke-width: 1.5"/>
    <path d="M 243.547847 205.719677 
L 243.547847 205.719677 
" clip-path="url(#p0d3e8752c0)" style="fill: none; stroke: #ff0000; stroke-opacity: 0.8; stroke-width: 1.5"/>
    <path d="M 276.292292 205.79214 
L 276.292292 205.647119 
" clip-path="url(#p0d3e8752c0)" style="fill: none; stroke: #ff0000; stroke-opacity: 0.8; stroke-width: 1.5"/>
    <path d="M 309.036736 205.860399 
L 309.036736 205.579969 
" clip-path="url(#p0d3e8752c0)" style="fill: none; stroke: #ff0000; stroke-opacity: 0.8; stroke-width: 1.5"/>
    <path d="M 341.781181 205.871092 
L 341.781181 205.569029 
" clip-path="url(#p0d3e8752c0)" style="fill: none; stroke: #ff0000; stroke-opacity: 0.8; stroke-width: 1.5"/>
    <path d="M 374.525625 205.895447 
L 374.525625 205.543993 
" clip-path="url(#p0d3e8752c0)" style="fill: none; stroke: #ff0000; stroke-opacity: 0.8; stroke-width: 1.5"/>
    <path d="M 407.270069 206.011946 
L 407.270069 205.427747 
" clip-path="url(#p0d3e8752c0)" style="fill: none; stroke: #ff0000; stroke-opacity: 0.8; stroke-width: 1.5"/>
    <path d="M 440.014514 207.917806 
L 440.014514 203.510907 
" clip-path="url(#p0d3e8752c0)" style="fill: none; stroke: #ff0000; stroke-opacity: 0.8; stroke-width: 1.5"/>
    <path d="M 472.758958 229.537372 
L 472.758958 181.528432 
" clip-path="url(#p0d3e8752c0)" style="fill: none; stroke: #ff0000; stroke-opacity: 0.8; stroke-width: 1.5"/>
    <path d="M 505.503403 269.05882 
L 505.503403 140.116122 
" clip-path="url(#p0d3e8752c0)" style="fill: none; stroke: #ff0000; stroke-opacity: 0.8; stroke-width: 1.5"/>
    <path d="M 538.247847 291.102658 
L 538.247847 116.885204 
" clip-path="url(#p0d3e8752c0)" style="fill: none; stroke: #ff0000; stroke-opacity: 0.8; stroke-width: 1.5"/>
    <path d="M 570.992292 309.70374 
L 570.992292 96.07815 
" clip-path="url(#p0d3e8752c0)" style="fill: none; stroke: #ff0000; stroke-opacity: 0.8; stroke-width: 1.5"/>
    <path d="M 603.736736 326.614284 
L 603.736736 75.312274 
" clip-path="url(#p0d3e8752c0)" style="fill: none; stroke: #ff0000; stroke-opacity: 0.8; stroke-width: 1.5"/>
    <path d="M 636.481181 342.751012 
L 636.481181 56.527253 
" clip-path="url(#p0d3e8752c0)" style="fill: none; stroke: #ff0000; stroke-opacity: 0.8; stroke-width: 1.5"/>
    <path d="M 669.225625 360.890795 
L 669.225625 39.356705 
" clip-path="url(#p0d3e8752c0)" style="fill: none; stroke: #ff0000; stroke-opacity: 0.8; stroke-width: 1.5"/>
   </g>
   <g id="line2d_39">
    <g clip-path="url(#p0d3e8752c0)">
     <use xlink:href="#m45abf04143" x="79.825625" y="205.719677" style="fill: #ff0000; fill-opacity: 0.8; stroke: #ff0000; stroke-opacity: 0.8"/>
     <use xlink:href="#m45abf04143" x="112.570069" y="205.719677" style="fill: #ff0000; fill-opacity: 0.8; stroke: #ff0000; stroke-opacity: 0.8"/>
     <use xlink:href="#m45abf04143" x="145.314514" y="205.719677" style="fill: #ff0000; fill-opacity: 0.8; stroke: #ff0000; stroke-opacity: 0.8"/>
     <use xlink:href="#m45abf04143" x="178.058958" y="205.719677" style="fill: #ff0000; fill-opacity: 0.8; stroke: #ff0000; stroke-opacity: 0.8"/>
     <use xlink:href="#m45abf04143" x="210.803403" y="205.719677" style="fill: #ff0000; fill-opacity: 0.8; stroke: #ff0000; stroke-opacity: 0.8"/>
     <use xlink:href="#m45abf04143" x="243.547847" y="205.719677" style="fill: #ff0000; fill-opacity: 0.8; stroke: #ff0000; stroke-opacity: 0.8"/>
     <use xlink:href="#m45abf04143" x="276.292292" y="205.79214" style="fill: #ff0000; fill-opacity: 0.8; stroke: #ff0000; stroke-opacity: 0.8"/>
     <use xlink:href="#m45abf04143" x="309.036736" y="205.860399" style="fill: #ff0000; fill-opacity: 0.8; stroke: #ff0000; stroke-opacity: 0.8"/>
     <use xlink:href="#m45abf04143" x="341.781181" y="205.871092" style="fill: #ff0000; fill-opacity: 0.8; stroke: #ff0000; stroke-opacity: 0.8"/>
     <use xlink:href="#m45abf04143" x="374.525625" y="205.895447" style="fill: #ff0000; fill-opacity: 0.8; stroke: #ff0000; stroke-opacity: 0.8"/>
     <use xlink:href="#m45abf04143" x="407.270069" y="206.011946" style="fill: #ff0000; fill-opacity: 0.8; stroke: #ff0000; stroke-opacity: 0.8"/>
     <use xlink:href="#m45abf04143" x="440.014514" y="207.917806" style="fill: #ff0000; fill-opacity: 0.8; stroke: #ff0000; stroke-opacity: 0.8"/>
     <use xlink:href="#m45abf04143" x="472.758958" y="229.537372" style="fill: #ff0000; fill-opacity: 0.8; stroke: #ff0000; stroke-opacity: 0.8"/>
     <use xlink:href="#m45abf04143" x="505.503403" y="269.05882" style="fill: #ff0000; fill-opacity: 0.8; stroke: #ff0000; stroke-opacity: 0.8"/>
     <use xlink:href="#m45abf04143" x="538.247847" y="291.102658" style="fill: #ff0000; fill-opacity: 0.8; stroke: #ff0000; stroke-opacity: 0.8"/>
     <use xlink:href="#m45abf04143" x="570.992292" y="309.70374" style="fill: #ff0000; fill-opacity: 0.8; stroke: #ff0000; stroke-opacity: 0.8"/>
     <use xlink:href="#m45abf04143" x="603.736736" y="326.614284" style="fill: #ff0000; fill-opacity: 0.8; stroke: #ff0000; stroke-opacity: 0.8"/>
     <use xlink:href="#m45abf04143" x="636.481181" y="342.751012" style="fill: #ff0000; fill-opacity: 0.8; stroke: #ff0000; stroke-opacity: 0.8"/>
     <use xlink:href="#m45abf04143" x="669.225625" y="360.890795" style="fill: #ff0000; fill-opacity: 0.8; stroke: #ff0000; stroke-opacity: 0.8"/>
    </g>
   </g>
   <g id="line2d_40">
    <g clip-path="url(#p0d3e8752c0)">
     <use xlink:href="#m45abf04143" x="79.825625" y="205.719677" style="fill: #ff0000; fill-opacity: 0.8; stroke: #ff0000; stroke-opacity: 0.8"/>
     <use xlink:href="#m45abf04143" x="112.570069" y="205.719677" style="fill: #ff0000; fill-opacity: 0.8; stroke: #ff0000; stroke-opacity: 0.8"/>
     <use xlink:href="#m45abf04143" x="145.314514" y="205.719677" style="fill: #ff0000; fill-opacity: 0.8; stroke: #ff0000; stroke-opacity: 0.8"/>
     <use xlink:href="#m45abf04143" x="178.058958" y="205.719677" style="fill: #ff0000; fill-opacity: 0.8; stroke: #ff0000; stroke-opacity: 0.8"/>
     <use xlink:href="#m45abf04143" x="210.803403" y="205.719677" style="fill: #ff0000; fill-opacity: 0.8; stroke: #ff0000; stroke-opacity: 0.8"/>
     <use xlink:href="#m45abf04143" x="243.547847" y="205.719677" style="fill: #ff0000; fill-opacity: 0.8; stroke: #ff0000; stroke-opacity: 0.8"/>
     <use xlink:href="#m45abf04143" x="276.292292" y="205.647119" style="fill: #ff0000; fill-opacity: 0.8; stroke: #ff0000; stroke-opacity: 0.8"/>
     <use xlink:href="#m45abf04143" x="309.036736" y="205.579969" style="fill: #ff0000; fill-opacity: 0.8; stroke: #ff0000; stroke-opacity: 0.8"/>
     <use xlink:href="#m45abf04143" x="341.781181" y="205.569029" style="fill: #ff0000; fill-opacity: 0.8; stroke: #ff0000; stroke-opacity: 0.8"/>
     <use xlink:href="#m45abf04143" x="374.525625" y="205.543993" style="fill: #ff0000; fill-opacity: 0.8; stroke: #ff0000; stroke-opacity: 0.8"/>
     <use xlink:href="#m45abf04143" x="407.270069" y="205.427747" style="fill: #ff0000; fill-opacity: 0.8; stroke: #ff0000; stroke-opacity: 0.8"/>
     <use xlink:href="#m45abf04143" x="440.014514" y="203.510907" style="fill: #ff0000; fill-opacity: 0.8; stroke: #ff0000; stroke-opacity: 0.8"/>
     <use xlink:href="#m45abf04143" x="472.758958" y="181.528432" style="fill: #ff0000; fill-opacity: 0.8; stroke: #ff0000; stroke-opacity: 0.8"/>
     <use xlink:href="#m45abf04143" x="505.503403" y="140.116122" style="fill: #ff0000; fill-opacity: 0.8; stroke: #ff0000; stroke-opacity: 0.8"/>
     <use xlink:href="#m45abf04143" x="538.247847" y="116.885204" style="fill: #ff0000; fill-opacity: 0.8; stroke: #ff0000; stroke-opacity: 0.8"/>
     <use xlink:href="#m45abf04143" x="570.992292" y="96.07815" style="fill: #ff0000; fill-opacity: 0.8; stroke: #ff0000; stroke-opacity: 0.8"/>
     <use xlink:href="#m45abf04143" x="603.736736" y="75.312274" style="fill: #ff0000; fill-opacity: 0.8; stroke: #ff0000; stroke-opacity: 0.8"/>
     <use xlink:href="#m45abf04143" x="636.481181" y="56.527253" style="fill: #ff0000; fill-opacity: 0.8; stroke: #ff0000; stroke-opacity: 0.8"/>
     <use xlink:href="#m45abf04143" x="669.225625" y="39.356705" style="fill: #ff0000; fill-opacity: 0.8; stroke: #ff0000; stroke-opacity: 0.8"/>
    </g>
   </g>
   <g id="line2d_41">
    <g clip-path="url(#p0d3e8752c0)">
     <use xlink:href="#mc9b5f3b867" x="79.825625" y="205.719677" style="fill: #ff0000; fill-opacity: 0.8; stroke: #ff0000; stroke-opacity: 0.8"/>
     <use xlink:href="#mc9b5f3b867" x="112.570069" y="205.719677" style="fill: #ff0000; fill-opacity: 0.8; stroke: #ff0000; stroke-opacity: 0.8"/>
     <use xlink:href="#mc9b5f3b867" x="145.314514" y="205.719677" style="fill: #ff0000; fill-opacity: 0.8; stroke: #ff0000; stroke-opacity: 0.8"/>
     <use xlink:href="#mc9b5f3b867" x="178.058958" y="205.719677" style="fill: #ff0000; fill-opacity: 0.8; stroke: #ff0000; stroke-opacity: 0.8"/>
     <use xlink:href="#mc9b5f3b867" x="210.803403" y="205.719677" style="fill: #ff0000; fill-opacity: 0.8; stroke: #ff0000; stroke-opacity: 0.8"/>
     <use xlink:href="#mc9b5f3b867" x="243.547847" y="205.719677" style="fill: #ff0000; fill-opacity: 0.8; stroke: #ff0000; stroke-opacity: 0.8"/>
     <use xlink:href="#mc9b5f3b867" x="276.292292" y="205.71963" style="fill: #ff0000; fill-opacity: 0.8; stroke: #ff0000; stroke-opacity: 0.8"/>
     <use xlink:href="#mc9b5f3b867" x="309.036736" y="205.720184" style="fill: #ff0000; fill-opacity: 0.8; stroke: #ff0000; stroke-opacity: 0.8"/>
     <use xlink:href="#mc9b5f3b867" x="341.781181" y="205.72006" style="fill: #ff0000; fill-opacity: 0.8; stroke: #ff0000; stroke-opacity: 0.8"/>
     <use xlink:href="#mc9b5f3b867" x="374.525625" y="205.71972" style="fill: #ff0000; fill-opacity: 0.8; stroke: #ff0000; stroke-opacity: 0.8"/>
     <use xlink:href="#mc9b5f3b867" x="407.270069" y="205.719847" style="fill: #ff0000; fill-opacity: 0.8; stroke: #ff0000; stroke-opacity: 0.8"/>
     <use xlink:href="#mc9b5f3b867" x="440.014514" y="205.714356" style="fill: #ff0000; fill-opacity: 0.8; stroke: #ff0000; stroke-opacity: 0.8"/>
     <use xlink:href="#mc9b5f3b867" x="472.758958" y="205.532902" style="fill: #ff0000; fill-opacity: 0.8; stroke: #ff0000; stroke-opacity: 0.8"/>
     <use xlink:href="#mc9b5f3b867" x="505.503403" y="204.587471" style="fill: #ff0000; fill-opacity: 0.8; stroke: #ff0000; stroke-opacity: 0.8"/>
     <use xlink:href="#mc9b5f3b867" x="538.247847" y="203.993931" style="fill: #ff0000; fill-opacity: 0.8; stroke: #ff0000; stroke-opacity: 0.8"/>
     <use xlink:href="#mc9b5f3b867" x="570.992292" y="202.890945" style="fill: #ff0000; fill-opacity: 0.8; stroke: #ff0000; stroke-opacity: 0.8"/>
     <use xlink:href="#mc9b5f3b867" x="603.736736" y="200.963279" style="fill: #ff0000; fill-opacity: 0.8; stroke: #ff0000; stroke-opacity: 0.8"/>
     <use xlink:href="#mc9b5f3b867" x="636.481181" y="199.639132" style="fill: #ff0000; fill-opacity: 0.8; stroke: #ff0000; stroke-opacity: 0.8"/>
     <use xlink:href="#mc9b5f3b867" x="669.225625" y="200.12375" style="fill: #ff0000; fill-opacity: 0.8; stroke: #ff0000; stroke-opacity: 0.8"/>
    </g>
   </g>
  </g>
 </g>
 <defs>
  <clipPath id="p0d3e8752c0">
   <rect x="50.355625" y="23.28" width="648.34" height="353.6875"/>
  </clipPath>
 </defs>
</svg>
