<?xml version="1.0" encoding="utf-8" standalone="no"?>
<!DOCTYPE svg PUBLIC "-//W3C//DTD SVG 1.1//EN"
  "http://www.w3.org/Graphics/SVG/1.1/DTD/svg11.dtd">
<svg xmlns:xlink="http://www.w3.org/1999/xlink" width="720pt" height="864pt" viewBox="0 0 720 864" xmlns="http://www.w3.org/2000/svg" version="1.1">
 <metadata>
  <rdf:RDF xmlns:dc="http://purl.org/dc/elements/1.1/" xmlns:cc="http://creativecommons.org/ns#" xmlns:rdf="http://www.w3.org/1999/02/22-rdf-syntax-ns#">
   <cc:Work>
    <dc:type rdf:resource="http://purl.org/dc/dcmitype/StillImage"/>
    <dc:date>2025-09-18T17:31:31.234193</dc:date>
    <dc:format>image/svg+xml</dc:format>
    <dc:creator>
     <cc:Agent>
      <dc:title>Matplotlib v3.8.4, https://matplotlib.org/</dc:title>
     </cc:Agent>
    </dc:creator>
   </cc:Work>
  </rdf:RDF>
 </metadata>
 <defs>
  <style type="text/css">*{stroke-linejoin: round; stroke-linecap: butt}</style>
 </defs>
 <g id="figure_1">
  <g id="patch_1">
   <path d="M 0 864 
L 720 864 
L 720 0 
L 0 0 
z
" style="fill: #ffffff"/>
  </g>
  <g id="axes_1">
   <g id="patch_2">
    <path d="M 39.58149 113.398766 
L 716.99976 113.398766 
L 716.99976 20.94822 
L 39.58149 20.94822 
z
" style="fill: #ffffff"/>
   </g>
   <g id="matplotlib.axis_1">
    <g id="xtick_1">
     <g id="line2d_1">
      <defs>
       <path id="m499c8b9b4f" d="M 0 0 
L 0 3.5 
" style="stroke: #000000; stroke-width: 0.8"/>
      </defs>
      <g>
       <use xlink:href="#m499c8b9b4f" x="70.37323" y="113.398766" style="stroke: #000000; stroke-width: 0.8"/>
      </g>
     </g>
    </g>
    <g id="xtick_2">
     <g id="line2d_2">
      <g>
       <use xlink:href="#m499c8b9b4f" x="168.578189" y="113.398766" style="stroke: #000000; stroke-width: 0.8"/>
      </g>
     </g>
    </g>
    <g id="xtick_3">
     <g id="line2d_3">
      <g>
       <use xlink:href="#m499c8b9b4f" x="266.783148" y="113.398766" style="stroke: #000000; stroke-width: 0.8"/>
      </g>
     </g>
    </g>
    <g id="xtick_4">
     <g id="line2d_4">
      <g>
       <use xlink:href="#m499c8b9b4f" x="364.988108" y="113.398766" style="stroke: #000000; stroke-width: 0.8"/>
      </g>
     </g>
    </g>
    <g id="xtick_5">
     <g id="line2d_5">
      <g>
       <use xlink:href="#m499c8b9b4f" x="463.193067" y="113.398766" style="stroke: #000000; stroke-width: 0.8"/>
      </g>
     </g>
    </g>
    <g id="xtick_6">
     <g id="line2d_6">
      <g>
       <use xlink:href="#m499c8b9b4f" x="561.398026" y="113.398766" style="stroke: #000000; stroke-width: 0.8"/>
      </g>
     </g>
    </g>
    <g id="xtick_7">
     <g id="line2d_7">
      <g>
       <use xlink:href="#m499c8b9b4f" x="659.602986" y="113.398766" style="stroke: #000000; stroke-width: 0.8"/>
      </g>
     </g>
    </g>
   </g>
   <g id="matplotlib.axis_2">
    <g id="ytick_1">
     <g id="line2d_8">
      <defs>
       <path id="m203e05018b" d="M 0 0 
L -3.5 0 
" style="stroke: #000000; stroke-width: 0.8"/>
      </defs>
      <g>
       <use xlink:href="#m203e05018b" x="39.58149" y="112.026275" style="stroke: #000000; stroke-width: 0.8"/>
      </g>
     </g>
     <g id="text_1">
      <!-- 0 -->
      <g transform="translate(26.21899 115.825494) scale(0.1 -0.1)">
       <defs>
        <path id="DejaVuSans-30" d="M 2034 4250 
Q 1547 4250 1301 3770 
Q 1056 3291 1056 2328 
Q 1056 1369 1301 889 
Q 1547 409 2034 409 
Q 2525 409 2770 889 
Q 3016 1369 3016 2328 
Q 3016 3291 2770 3770 
Q 2525 4250 2034 4250 
z
M 2034 4750 
Q 2819 4750 3233 4129 
Q 3647 3509 3647 2328 
Q 3647 1150 3233 529 
Q 2819 -91 2034 -91 
Q 1250 -91 836 529 
Q 422 1150 422 2328 
Q 422 3509 836 4129 
Q 1250 4750 2034 4750 
z
" transform="scale(0.015625)"/>
       </defs>
       <use xlink:href="#DejaVuSans-30"/>
      </g>
     </g>
    </g>
    <g id="ytick_2">
     <g id="line2d_9">
      <g>
       <use xlink:href="#m203e05018b" x="39.58149" y="86.987964" style="stroke: #000000; stroke-width: 0.8"/>
      </g>
     </g>
     <g id="text_2">
      <!-- 2 -->
      <g transform="translate(26.21899 90.787183) scale(0.1 -0.1)">
       <defs>
        <path id="DejaVuSans-32" d="M 1228 531 
L 3431 531 
L 3431 0 
L 469 0 
L 469 531 
Q 828 903 1448 1529 
Q 2069 2156 2228 2338 
Q 2531 2678 2651 2914 
Q 2772 3150 2772 3378 
Q 2772 3750 2511 3984 
Q 2250 4219 1831 4219 
Q 1534 4219 1204 4116 
Q 875 4013 500 3803 
L 500 4441 
Q 881 4594 1212 4672 
Q 1544 4750 1819 4750 
Q 2544 4750 2975 4387 
Q 3406 4025 3406 3419 
Q 3406 3131 3298 2873 
Q 3191 2616 2906 2266 
Q 2828 2175 2409 1742 
Q 1991 1309 1228 531 
z
" transform="scale(0.015625)"/>
       </defs>
       <use xlink:href="#DejaVuSans-32"/>
      </g>
     </g>
    </g>
    <g id="ytick_3">
     <g id="line2d_10">
      <g>
       <use xlink:href="#m203e05018b" x="39.58149" y="61.949654" style="stroke: #000000; stroke-width: 0.8"/>
      </g>
     </g>
     <g id="text_3">
      <!-- 4 -->
      <g transform="translate(26.21899 65.748872) scale(0.1 -0.1)">
       <defs>
        <path id="DejaVuSans-34" d="M 2419 4116 
L 825 1625 
L 2419 1625 
L 2419 4116 
z
M 2253 4666 
L 3047 4666 
L 3047 1625 
L 3713 1625 
L 3713 1100 
L 3047 1100 
L 3047 0 
L 2419 0 
L 2419 1100 
L 313 1100 
L 313 1709 
L 2253 4666 
z
" transform="scale(0.015625)"/>
       </defs>
       <use xlink:href="#DejaVuSans-34"/>
      </g>
     </g>
    </g>
    <g id="ytick_4">
     <g id="line2d_11">
      <g>
       <use xlink:href="#m203e05018b" x="39.58149" y="36.911343" style="stroke: #000000; stroke-width: 0.8"/>
      </g>
     </g>
     <g id="text_4">
      <!-- 6 -->
      <g transform="translate(26.21899 40.710561) scale(0.1 -0.1)">
       <defs>
        <path id="DejaVuSans-36" d="M 2113 2584 
Q 1688 2584 1439 2293 
Q 1191 2003 1191 1497 
Q 1191 994 1439 701 
Q 1688 409 2113 409 
Q 2538 409 2786 701 
Q 3034 994 3034 1497 
Q 3034 2003 2786 2293 
Q 2538 2584 2113 2584 
z
M 3366 4563 
L 3366 3988 
Q 3128 4100 2886 4159 
Q 2644 4219 2406 4219 
Q 1781 4219 1451 3797 
Q 1122 3375 1075 2522 
Q 1259 2794 1537 2939 
Q 1816 3084 2150 3084 
Q 2853 3084 3261 2657 
Q 3669 2231 3669 1497 
Q 3669 778 3244 343 
Q 2819 -91 2113 -91 
Q 1303 -91 875 529 
Q 447 1150 447 2328 
Q 447 3434 972 4092 
Q 1497 4750 2381 4750 
Q 2619 4750 2861 4703 
Q 3103 4656 3366 4563 
z
" transform="scale(0.015625)"/>
       </defs>
       <use xlink:href="#DejaVuSans-36"/>
      </g>
     </g>
    </g>
    <g id="text_5">
     <!-- $u_d=2.0$ -->
     <g transform="translate(20.139302 86.823493) rotate(-90) scale(0.1 -0.1)">
      <defs>
       <path id="DejaVuSans-Oblique-75" d="M 428 1388 
L 838 3500 
L 1416 3500 
L 1006 1409 
Q 975 1256 961 1147 
Q 947 1038 947 966 
Q 947 700 1109 554 
Q 1272 409 1569 409 
Q 2031 409 2368 721 
Q 2706 1034 2809 1563 
L 3194 3500 
L 3769 3500 
L 3091 0 
L 2516 0 
L 2631 550 
Q 2388 244 2052 76 
Q 1716 -91 1338 -91 
Q 878 -91 622 161 
Q 366 413 366 863 
Q 366 956 381 1097 
Q 397 1238 428 1388 
z
" transform="scale(0.015625)"/>
       <path id="DejaVuSans-Oblique-64" d="M 2675 525 
Q 2444 222 2128 65 
Q 1813 -91 1428 -91 
Q 903 -91 598 267 
Q 294 625 294 1247 
Q 294 1766 478 2236 
Q 663 2706 1013 3078 
Q 1244 3325 1534 3454 
Q 1825 3584 2144 3584 
Q 2481 3584 2739 3421 
Q 2997 3259 3138 2956 
L 3513 4863 
L 4091 4863 
L 3144 0 
L 2566 0 
L 2675 525 
z
M 891 1350 
Q 891 897 1095 644 
Q 1300 391 1663 391 
Q 1931 391 2161 520 
Q 2391 650 2566 903 
Q 2750 1166 2856 1509 
Q 2963 1853 2963 2188 
Q 2963 2622 2758 2865 
Q 2553 3109 2194 3109 
Q 1922 3109 1687 2981 
Q 1453 2853 1288 2613 
Q 1106 2353 998 2009 
Q 891 1666 891 1350 
z
" transform="scale(0.015625)"/>
       <path id="DejaVuSans-3d" d="M 678 2906 
L 4684 2906 
L 4684 2381 
L 678 2381 
L 678 2906 
z
M 678 1631 
L 4684 1631 
L 4684 1100 
L 678 1100 
L 678 1631 
z
" transform="scale(0.015625)"/>
       <path id="DejaVuSans-2e" d="M 684 794 
L 1344 794 
L 1344 0 
L 684 0 
L 684 794 
z
" transform="scale(0.015625)"/>
      </defs>
      <use xlink:href="#DejaVuSans-Oblique-75" transform="translate(0 0.78125)"/>
      <use xlink:href="#DejaVuSans-Oblique-64" transform="translate(63.378906 -15.625) scale(0.7)"/>
      <use xlink:href="#DejaVuSans-3d" transform="translate(130.029297 0.78125)"/>
      <use xlink:href="#DejaVuSans-32" transform="translate(233.300781 0.78125)"/>
      <use xlink:href="#DejaVuSans-2e" transform="translate(296.923828 0.78125)"/>
      <use xlink:href="#DejaVuSans-30" transform="translate(328.710938 0.78125)"/>
     </g>
    </g>
   </g>
   <g id="line2d_12">
    <path d="M 70.37323 109.194199 
L 239.09509 109.104558 
L 300.558054 108.867606 
L 335.507582 108.52458 
L 357.200392 108.112202 
L 372.867422 107.609437 
L 384.918984 107.000676 
L 393.355077 106.378203 
L 400.586014 105.64209 
L 406.611794 104.819884 
L 411.432419 103.972905 
L 416.253044 102.902287 
L 419.868512 101.913327 
L 423.48398 100.728189 
L 427.099449 99.30897 
L 430.714917 97.614427 
L 434.330386 95.601953 
L 437.945854 93.230438 
L 441.561323 90.463772 
L 445.176791 87.274575 
L 448.79226 83.647704 
L 452.407728 79.58325 
L 456.023196 75.099032 
L 459.638665 70.232775 
L 464.459289 63.256716 
L 471.690226 52.200728 
L 477.716007 43.119989 
L 481.331476 38.080577 
L 483.741788 35.012499 
L 486.1521 32.249861 
L 488.562412 29.855501 
L 490.972725 27.891421 
L 493.383037 26.417045 
L 494.588193 25.880889 
L 495.793349 25.487291 
L 496.998505 25.242074 
L 498.203662 25.150518 
L 499.408818 25.21729 
L 500.613974 25.446384 
L 501.81913 25.841048 
L 503.024286 26.403728 
L 504.229442 27.136002 
L 505.434598 28.038528 
L 506.639755 29.110993 
L 507.844911 30.352062 
L 510.255223 33.329369 
L 512.665535 36.938134 
L 515.075848 41.128113 
L 517.48616 45.831196 
L 519.896472 50.962216 
L 523.511941 59.237449 
L 533.15319 81.814689 
L 535.563502 86.890948 
L 537.973814 91.510542 
L 540.384127 95.587564 
L 542.794439 99.063346 
L 545.204751 101.9131 
L 547.615064 104.150365 
L 550.025376 105.826352 
L 552.435688 107.022265 
L 554.846 107.835631 
L 557.256313 108.364635 
L 559.666625 108.695449 
L 563.282094 108.962634 
L 569.307874 109.121008 
L 583.769748 109.171102 
L 686.20802 109.19405 
L 686.20802 109.19405 
" clip-path="url(#p1ec485eee0)" style="fill: none; stroke: #1f77b4; stroke-width: 1.5; stroke-linecap: square"/>
   </g>
   <g id="patch_3">
    <path d="M 39.58149 113.398766 
L 39.58149 20.94822 
" style="fill: none; stroke: #000000; stroke-width: 0.8; stroke-linejoin: miter; stroke-linecap: square"/>
   </g>
   <g id="patch_4">
    <path d="M 716.99976 113.398766 
L 716.99976 20.94822 
" style="fill: none; stroke: #000000; stroke-width: 0.8; stroke-linejoin: miter; stroke-linecap: square"/>
   </g>
   <g id="patch_5">
    <path d="M 39.58149 113.398766 
L 716.99976 113.398766 
" style="fill: none; stroke: #000000; stroke-width: 0.8; stroke-linejoin: miter; stroke-linecap: square"/>
   </g>
   <g id="patch_6">
    <path d="M 39.58149 20.94822 
L 716.99976 20.94822 
" style="fill: none; stroke: #000000; stroke-width: 0.8; stroke-linejoin: miter; stroke-linecap: square"/>
   </g>
   <g id="legend_1">
    <g id="patch_7">
     <path d="M 658.14726 39.09072 
L 711.39976 39.09072 
Q 712.99976 39.09072 712.99976 37.49072 
L 712.99976 26.54822 
Q 712.99976 24.94822 711.39976 24.94822 
L 658.14726 24.94822 
Q 656.54726 24.94822 656.54726 26.54822 
L 656.54726 37.49072 
Q 656.54726 39.09072 658.14726 39.09072 
z
" style="fill: #ffffff; opacity: 0.8; stroke: #cccccc; stroke-linejoin: miter"/>
    </g>
    <g id="line2d_13">
     <path d="M 659.74726 31.42697 
L 667.74726 31.42697 
L 675.74726 31.42697 
" style="fill: none; stroke: #1f77b4; stroke-width: 1.5; stroke-linecap: square"/>
    </g>
    <g id="text_6">
     <!-- t=50.0 -->
     <g transform="translate(682.14726 34.22697) scale(0.08 -0.08)">
      <defs>
       <path id="DejaVuSans-74" d="M 1172 4494 
L 1172 3500 
L 2356 3500 
L 2356 3053 
L 1172 3053 
L 1172 1153 
Q 1172 725 1289 603 
Q 1406 481 1766 481 
L 2356 481 
L 2356 0 
L 1766 0 
Q 1100 0 847 248 
Q 594 497 594 1153 
L 594 3053 
L 172 3053 
L 172 3500 
L 594 3500 
L 594 4494 
L 1172 4494 
z
" transform="scale(0.015625)"/>
       <path id="DejaVuSans-35" d="M 691 4666 
L 3169 4666 
L 3169 4134 
L 1269 4134 
L 1269 2991 
Q 1406 3038 1543 3061 
Q 1681 3084 1819 3084 
Q 2600 3084 3056 2656 
Q 3513 2228 3513 1497 
Q 3513 744 3044 326 
Q 2575 -91 1722 -91 
Q 1428 -91 1123 -41 
Q 819 9 494 109 
L 494 744 
Q 775 591 1075 516 
Q 1375 441 1709 441 
Q 2250 441 2565 725 
Q 2881 1009 2881 1497 
Q 2881 1984 2565 2268 
Q 2250 2553 1709 2553 
Q 1456 2553 1204 2497 
Q 953 2441 691 2322 
L 691 4666 
z
" transform="scale(0.015625)"/>
      </defs>
      <use xlink:href="#DejaVuSans-74"/>
      <use xlink:href="#DejaVuSans-3d" x="39.208984"/>
      <use xlink:href="#DejaVuSans-35" x="122.998047"/>
      <use xlink:href="#DejaVuSans-30" x="186.621094"/>
      <use xlink:href="#DejaVuSans-2e" x="250.244141"/>
      <use xlink:href="#DejaVuSans-30" x="282.03125"/>
     </g>
    </g>
   </g>
  </g>
  <g id="axes_2">
   <g id="patch_8">
    <path d="M 39.58149 216.3561 
L 716.99976 216.3561 
L 716.99976 123.905554 
L 39.58149 123.905554 
z
" style="fill: #ffffff"/>
   </g>
   <g id="matplotlib.axis_3">
    <g id="xtick_8">
     <g id="line2d_14">
      <g>
       <use xlink:href="#m499c8b9b4f" x="70.37323" y="216.3561" style="stroke: #000000; stroke-width: 0.8"/>
      </g>
     </g>
    </g>
    <g id="xtick_9">
     <g id="line2d_15">
      <g>
       <use xlink:href="#m499c8b9b4f" x="168.578189" y="216.3561" style="stroke: #000000; stroke-width: 0.8"/>
      </g>
     </g>
    </g>
    <g id="xtick_10">
     <g id="line2d_16">
      <g>
       <use xlink:href="#m499c8b9b4f" x="266.783148" y="216.3561" style="stroke: #000000; stroke-width: 0.8"/>
      </g>
     </g>
    </g>
    <g id="xtick_11">
     <g id="line2d_17">
      <g>
       <use xlink:href="#m499c8b9b4f" x="364.988108" y="216.3561" style="stroke: #000000; stroke-width: 0.8"/>
      </g>
     </g>
    </g>
    <g id="xtick_12">
     <g id="line2d_18">
      <g>
       <use xlink:href="#m499c8b9b4f" x="463.193067" y="216.3561" style="stroke: #000000; stroke-width: 0.8"/>
      </g>
     </g>
    </g>
    <g id="xtick_13">
     <g id="line2d_19">
      <g>
       <use xlink:href="#m499c8b9b4f" x="561.398026" y="216.3561" style="stroke: #000000; stroke-width: 0.8"/>
      </g>
     </g>
    </g>
    <g id="xtick_14">
     <g id="line2d_20">
      <g>
       <use xlink:href="#m499c8b9b4f" x="659.602986" y="216.3561" style="stroke: #000000; stroke-width: 0.8"/>
      </g>
     </g>
    </g>
   </g>
   <g id="matplotlib.axis_4">
    <g id="ytick_5">
     <g id="line2d_21">
      <g>
       <use xlink:href="#m203e05018b" x="39.58149" y="214.804792" style="stroke: #000000; stroke-width: 0.8"/>
      </g>
     </g>
     <g id="text_7">
      <!-- 0 -->
      <g transform="translate(26.21899 218.60401) scale(0.1 -0.1)">
       <use xlink:href="#DejaVuSans-30"/>
      </g>
     </g>
    </g>
    <g id="ytick_6">
     <g id="line2d_22">
      <g>
       <use xlink:href="#m203e05018b" x="39.58149" y="190.521354" style="stroke: #000000; stroke-width: 0.8"/>
      </g>
     </g>
     <g id="text_8">
      <!-- 2 -->
      <g transform="translate(26.21899 194.320573) scale(0.1 -0.1)">
       <use xlink:href="#DejaVuSans-32"/>
      </g>
     </g>
    </g>
    <g id="ytick_7">
     <g id="line2d_23">
      <g>
       <use xlink:href="#m203e05018b" x="39.58149" y="166.237916" style="stroke: #000000; stroke-width: 0.8"/>
      </g>
     </g>
     <g id="text_9">
      <!-- 4 -->
      <g transform="translate(26.21899 170.037135) scale(0.1 -0.1)">
       <use xlink:href="#DejaVuSans-34"/>
      </g>
     </g>
    </g>
    <g id="ytick_8">
     <g id="line2d_24">
      <g>
       <use xlink:href="#m203e05018b" x="39.58149" y="141.954479" style="stroke: #000000; stroke-width: 0.8"/>
      </g>
     </g>
     <g id="text_10">
      <!-- 6 -->
      <g transform="translate(26.21899 145.753698) scale(0.1 -0.1)">
       <use xlink:href="#DejaVuSans-36"/>
      </g>
     </g>
    </g>
    <g id="text_11">
     <!-- $u_d=5.0$ -->
     <g transform="translate(20.139302 189.780827) rotate(-90) scale(0.1 -0.1)">
      <use xlink:href="#DejaVuSans-Oblique-75" transform="translate(0 0.78125)"/>
      <use xlink:href="#DejaVuSans-Oblique-64" transform="translate(63.378906 -15.625) scale(0.7)"/>
      <use xlink:href="#DejaVuSans-3d" transform="translate(130.029297 0.78125)"/>
      <use xlink:href="#DejaVuSans-35" transform="translate(233.300781 0.78125)"/>
      <use xlink:href="#DejaVuSans-2e" transform="translate(296.923828 0.78125)"/>
      <use xlink:href="#DejaVuSans-30" transform="translate(328.710938 0.78125)"/>
     </g>
    </g>
   </g>
   <g id="line2d_25">
    <path d="M 70.37323 198.214282 
L 72.783542 201.829076 
L 75.193854 204.789128 
L 77.604166 207.104563 
L 80.014479 208.827354 
L 82.424791 210.043642 
L 84.835103 210.858653 
L 87.245416 211.378752 
L 89.655728 211.696745 
L 93.271196 211.945862 
L 99.296977 212.086294 
L 116.169163 212.128551 
L 360.815861 212.106849 
L 436.740698 211.90819 
L 477.716007 211.594852 
L 503.024286 211.190342 
L 519.896472 210.713146 
L 531.948034 210.17129 
L 541.589283 209.524583 
L 548.82022 208.8393 
L 554.846 208.071777 
L 559.666625 207.278456 
L 564.48725 206.271535 
L 568.102718 205.337276 
L 571.718187 204.212574 
L 575.333655 202.85874 
L 578.949123 201.233007 
L 582.564592 199.290405 
L 586.18006 196.986637 
L 588.590373 195.230109 
L 591.000685 193.285187 
L 593.410997 191.144106 
L 597.026466 187.554334 
L 600.641934 183.50856 
L 604.257402 179.021245 
L 607.872871 174.127637 
L 611.488339 168.886124 
L 616.308964 161.50496 
L 625.950213 146.529497 
L 629.565682 141.354565 
L 631.975994 138.199923 
L 634.386306 135.358068 
L 636.796618 132.89576 
L 639.206931 130.878971 
L 640.412087 130.057578 
L 641.617243 129.370961 
L 642.822399 128.826255 
L 644.027555 128.430151 
L 645.232711 128.188823 
L 646.437868 128.107852 
L 647.643024 128.192153 
L 648.84818 128.445903 
L 650.053336 128.872465 
L 651.258492 129.474325 
L 652.463648 130.253018 
L 653.668804 131.209076 
L 654.873961 132.341966 
L 656.079117 133.650041 
L 658.489429 136.779364 
L 660.899741 140.560279 
L 663.310054 144.936553 
L 665.720366 149.83268 
L 668.130678 155.154915 
L 671.746147 163.692818 
L 680.18224 183.927368 
L 682.592552 189.18199 
L 685.002864 193.976154 
L 686.20802 196.169684 
L 686.20802 196.169684 
" clip-path="url(#p427618d3b1)" style="fill: none; stroke: #1f77b4; stroke-width: 1.5; stroke-linecap: square"/>
   </g>
   <g id="patch_9">
    <path d="M 39.58149 216.3561 
L 39.58149 123.905554 
" style="fill: none; stroke: #000000; stroke-width: 0.8; stroke-linejoin: miter; stroke-linecap: square"/>
   </g>
   <g id="patch_10">
    <path d="M 716.99976 216.3561 
L 716.99976 123.905554 
" style="fill: none; stroke: #000000; stroke-width: 0.8; stroke-linejoin: miter; stroke-linecap: square"/>
   </g>
   <g id="patch_11">
    <path d="M 39.58149 216.3561 
L 716.99976 216.3561 
" style="fill: none; stroke: #000000; stroke-width: 0.8; stroke-linejoin: miter; stroke-linecap: square"/>
   </g>
   <g id="patch_12">
    <path d="M 39.58149 123.905554 
L 716.99976 123.905554 
" style="fill: none; stroke: #000000; stroke-width: 0.8; stroke-linejoin: miter; stroke-linecap: square"/>
   </g>
   <g id="legend_2">
    <g id="patch_13">
     <path d="M 658.14726 142.048054 
L 711.39976 142.048054 
Q 712.99976 142.048054 712.99976 140.448054 
L 712.99976 129.505554 
Q 712.99976 127.905554 711.39976 127.905554 
L 658.14726 127.905554 
Q 656.54726 127.905554 656.54726 129.505554 
L 656.54726 140.448054 
Q 656.54726 142.048054 658.14726 142.048054 
z
" style="fill: #ffffff; opacity: 0.8; stroke: #cccccc; stroke-linejoin: miter"/>
    </g>
    <g id="line2d_26">
     <path d="M 659.74726 134.384304 
L 667.74726 134.384304 
L 675.74726 134.384304 
" style="fill: none; stroke: #1f77b4; stroke-width: 1.5; stroke-linecap: square"/>
    </g>
    <g id="text_12">
     <!-- t=50.0 -->
     <g transform="translate(682.14726 137.184304) scale(0.08 -0.08)">
      <use xlink:href="#DejaVuSans-74"/>
      <use xlink:href="#DejaVuSans-3d" x="39.208984"/>
      <use xlink:href="#DejaVuSans-35" x="122.998047"/>
      <use xlink:href="#DejaVuSans-30" x="186.621094"/>
      <use xlink:href="#DejaVuSans-2e" x="250.244141"/>
      <use xlink:href="#DejaVuSans-30" x="282.03125"/>
     </g>
    </g>
   </g>
  </g>
  <g id="axes_3">
   <g id="patch_14">
    <path d="M 39.58149 319.134602 
L 716.99976 319.134602 
L 716.99976 226.684057 
L 39.58149 226.684057 
z
" style="fill: #ffffff"/>
   </g>
   <g id="matplotlib.axis_5">
    <g id="xtick_15">
     <g id="line2d_27">
      <g>
       <use xlink:href="#m499c8b9b4f" x="70.37323" y="319.134602" style="stroke: #000000; stroke-width: 0.8"/>
      </g>
     </g>
    </g>
    <g id="xtick_16">
     <g id="line2d_28">
      <g>
       <use xlink:href="#m499c8b9b4f" x="168.578189" y="319.134602" style="stroke: #000000; stroke-width: 0.8"/>
      </g>
     </g>
    </g>
    <g id="xtick_17">
     <g id="line2d_29">
      <g>
       <use xlink:href="#m499c8b9b4f" x="266.783148" y="319.134602" style="stroke: #000000; stroke-width: 0.8"/>
      </g>
     </g>
    </g>
    <g id="xtick_18">
     <g id="line2d_30">
      <g>
       <use xlink:href="#m499c8b9b4f" x="364.988108" y="319.134602" style="stroke: #000000; stroke-width: 0.8"/>
      </g>
     </g>
    </g>
    <g id="xtick_19">
     <g id="line2d_31">
      <g>
       <use xlink:href="#m499c8b9b4f" x="463.193067" y="319.134602" style="stroke: #000000; stroke-width: 0.8"/>
      </g>
     </g>
    </g>
    <g id="xtick_20">
     <g id="line2d_32">
      <g>
       <use xlink:href="#m499c8b9b4f" x="561.398026" y="319.134602" style="stroke: #000000; stroke-width: 0.8"/>
      </g>
     </g>
    </g>
    <g id="xtick_21">
     <g id="line2d_33">
      <g>
       <use xlink:href="#m499c8b9b4f" x="659.602986" y="319.134602" style="stroke: #000000; stroke-width: 0.8"/>
      </g>
     </g>
    </g>
   </g>
   <g id="matplotlib.axis_6">
    <g id="ytick_9">
     <g id="line2d_34">
      <g>
       <use xlink:href="#m203e05018b" x="39.58149" y="317.420631" style="stroke: #000000; stroke-width: 0.8"/>
      </g>
     </g>
     <g id="text_13">
      <!-- 0 -->
      <g transform="translate(26.21899 321.21985) scale(0.1 -0.1)">
       <use xlink:href="#DejaVuSans-30"/>
      </g>
     </g>
    </g>
    <g id="ytick_10">
     <g id="line2d_35">
      <g>
       <use xlink:href="#m203e05018b" x="39.58149" y="293.803431" style="stroke: #000000; stroke-width: 0.8"/>
      </g>
     </g>
     <g id="text_14">
      <!-- 2 -->
      <g transform="translate(26.21899 297.60265) scale(0.1 -0.1)">
       <use xlink:href="#DejaVuSans-32"/>
      </g>
     </g>
    </g>
    <g id="ytick_11">
     <g id="line2d_36">
      <g>
       <use xlink:href="#m203e05018b" x="39.58149" y="270.18623" style="stroke: #000000; stroke-width: 0.8"/>
      </g>
     </g>
     <g id="text_15">
      <!-- 4 -->
      <g transform="translate(26.21899 273.985449) scale(0.1 -0.1)">
       <use xlink:href="#DejaVuSans-34"/>
      </g>
     </g>
    </g>
    <g id="ytick_12">
     <g id="line2d_37">
      <g>
       <use xlink:href="#m203e05018b" x="39.58149" y="246.56903" style="stroke: #000000; stroke-width: 0.8"/>
      </g>
     </g>
     <g id="text_16">
      <!-- 6 -->
      <g transform="translate(26.21899 250.368248) scale(0.1 -0.1)">
       <use xlink:href="#DejaVuSans-36"/>
      </g>
     </g>
    </g>
    <g id="text_17">
     <!-- $u_d=8.0$ -->
     <g transform="translate(20.139302 292.559329) rotate(-90) scale(0.1 -0.1)">
      <defs>
       <path id="DejaVuSans-38" d="M 2034 2216 
Q 1584 2216 1326 1975 
Q 1069 1734 1069 1313 
Q 1069 891 1326 650 
Q 1584 409 2034 409 
Q 2484 409 2743 651 
Q 3003 894 3003 1313 
Q 3003 1734 2745 1975 
Q 2488 2216 2034 2216 
z
M 1403 2484 
Q 997 2584 770 2862 
Q 544 3141 544 3541 
Q 544 4100 942 4425 
Q 1341 4750 2034 4750 
Q 2731 4750 3128 4425 
Q 3525 4100 3525 3541 
Q 3525 3141 3298 2862 
Q 3072 2584 2669 2484 
Q 3125 2378 3379 2068 
Q 3634 1759 3634 1313 
Q 3634 634 3220 271 
Q 2806 -91 2034 -91 
Q 1263 -91 848 271 
Q 434 634 434 1313 
Q 434 1759 690 2068 
Q 947 2378 1403 2484 
z
M 1172 3481 
Q 1172 3119 1398 2916 
Q 1625 2713 2034 2713 
Q 2441 2713 2670 2916 
Q 2900 3119 2900 3481 
Q 2900 3844 2670 4047 
Q 2441 4250 2034 4250 
Q 1625 4250 1398 4047 
Q 1172 3844 1172 3481 
z
" transform="scale(0.015625)"/>
      </defs>
      <use xlink:href="#DejaVuSans-Oblique-75" transform="translate(0 0.78125)"/>
      <use xlink:href="#DejaVuSans-Oblique-64" transform="translate(63.378906 -15.625) scale(0.7)"/>
      <use xlink:href="#DejaVuSans-3d" transform="translate(130.029297 0.78125)"/>
      <use xlink:href="#DejaVuSans-38" transform="translate(233.300781 0.78125)"/>
      <use xlink:href="#DejaVuSans-2e" transform="translate(296.923828 0.78125)"/>
      <use xlink:href="#DejaVuSans-30" transform="translate(328.710938 0.78125)"/>
     </g>
    </g>
   </g>
   <g id="line2d_38">
    <path d="M 70.37323 312.767968 
L 78.809323 312.131826 
L 86.040259 311.365817 
L 92.06604 310.495026 
L 96.886665 309.584007 
L 101.707289 308.416146 
L 105.322758 307.324734 
L 108.938226 306.004882 
L 112.553695 304.412171 
L 116.169163 302.49942 
L 119.784632 300.219653 
L 122.194944 298.474426 
L 124.605256 296.536021 
L 127.015568 294.395838 
L 129.425881 292.048011 
L 133.041349 288.132072 
L 136.656818 283.750339 
L 140.272286 278.930336 
L 143.887754 273.723197 
L 148.708379 266.315901 
L 160.759941 247.362219 
L 164.375409 242.278922 
L 166.785721 239.244327 
L 169.196034 236.574877 
L 171.606346 234.340727 
L 174.016658 232.609951 
L 175.221814 231.953483 
L 176.42697 231.446296 
L 177.632127 231.09528 
L 178.837283 230.90675 
L 180.042439 230.886354 
L 181.247595 231.038998 
L 182.452751 231.368763 
L 183.657907 231.878834 
L 184.863063 232.571418 
L 186.06822 233.447679 
L 187.273376 234.507674 
L 188.478532 235.750292 
L 189.683688 237.17321 
L 192.094 240.54433 
L 194.504313 244.576841 
L 196.914625 249.205651 
L 199.324937 254.345226 
L 202.940406 262.778937 
L 213.786811 289.119855 
L 216.197123 294.281495 
L 218.607436 298.917052 
L 221.017748 302.937613 
L 223.42806 306.288316 
L 225.838372 308.956287 
L 227.043529 310.042895 
L 228.248685 310.974878 
L 230.658997 312.42013 
L 233.069309 313.397774 
L 235.479622 314.02379 
L 237.889934 314.4053 
L 241.505402 314.700533 
L 247.531183 314.861791 
L 263.198213 314.906407 
L 504.229442 314.892499 
L 586.18006 314.69788 
L 628.360525 314.393581 
L 653.668804 314.010088 
L 670.540991 313.558461 
L 682.592552 313.045442 
L 686.20802 312.842263 
L 686.20802 312.842263 
" clip-path="url(#p4300df2eea)" style="fill: none; stroke: #1f77b4; stroke-width: 1.5; stroke-linecap: square"/>
   </g>
   <g id="patch_15">
    <path d="M 39.58149 319.134602 
L 39.58149 226.684057 
" style="fill: none; stroke: #000000; stroke-width: 0.8; stroke-linejoin: miter; stroke-linecap: square"/>
   </g>
   <g id="patch_16">
    <path d="M 716.99976 319.134602 
L 716.99976 226.684057 
" style="fill: none; stroke: #000000; stroke-width: 0.8; stroke-linejoin: miter; stroke-linecap: square"/>
   </g>
   <g id="patch_17">
    <path d="M 39.58149 319.134602 
L 716.99976 319.134602 
" style="fill: none; stroke: #000000; stroke-width: 0.8; stroke-linejoin: miter; stroke-linecap: square"/>
   </g>
   <g id="patch_18">
    <path d="M 39.58149 226.684057 
L 716.99976 226.684057 
" style="fill: none; stroke: #000000; stroke-width: 0.8; stroke-linejoin: miter; stroke-linecap: square"/>
   </g>
   <g id="legend_3">
    <g id="patch_19">
     <path d="M 658.14726 244.826557 
L 711.39976 244.826557 
Q 712.99976 244.826557 712.99976 243.226557 
L 712.99976 232.284057 
Q 712.99976 230.684057 711.39976 230.684057 
L 658.14726 230.684057 
Q 656.54726 230.684057 656.54726 232.284057 
L 656.54726 243.226557 
Q 656.54726 244.826557 658.14726 244.826557 
z
" style="fill: #ffffff; opacity: 0.8; stroke: #cccccc; stroke-linejoin: miter"/>
    </g>
    <g id="line2d_39">
     <path d="M 659.74726 237.162807 
L 667.74726 237.162807 
L 675.74726 237.162807 
" style="fill: none; stroke: #1f77b4; stroke-width: 1.5; stroke-linecap: square"/>
    </g>
    <g id="text_18">
     <!-- t=50.0 -->
     <g transform="translate(682.14726 239.962807) scale(0.08 -0.08)">
      <use xlink:href="#DejaVuSans-74"/>
      <use xlink:href="#DejaVuSans-3d" x="39.208984"/>
      <use xlink:href="#DejaVuSans-35" x="122.998047"/>
      <use xlink:href="#DejaVuSans-30" x="186.621094"/>
      <use xlink:href="#DejaVuSans-2e" x="250.244141"/>
      <use xlink:href="#DejaVuSans-30" x="282.03125"/>
     </g>
    </g>
   </g>
  </g>
  <g id="axes_4">
   <g id="patch_20">
    <path d="M 39.58149 421.750429 
L 716.99976 421.750429 
L 716.99976 329.299884 
L 39.58149 329.299884 
z
" style="fill: #ffffff"/>
   </g>
   <g id="matplotlib.axis_7">
    <g id="xtick_22">
     <g id="line2d_40">
      <g>
       <use xlink:href="#m499c8b9b4f" x="70.37323" y="421.750429" style="stroke: #000000; stroke-width: 0.8"/>
      </g>
     </g>
    </g>
    <g id="xtick_23">
     <g id="line2d_41">
      <g>
       <use xlink:href="#m499c8b9b4f" x="168.578189" y="421.750429" style="stroke: #000000; stroke-width: 0.8"/>
      </g>
     </g>
    </g>
    <g id="xtick_24">
     <g id="line2d_42">
      <g>
       <use xlink:href="#m499c8b9b4f" x="266.783148" y="421.750429" style="stroke: #000000; stroke-width: 0.8"/>
      </g>
     </g>
    </g>
    <g id="xtick_25">
     <g id="line2d_43">
      <g>
       <use xlink:href="#m499c8b9b4f" x="364.988108" y="421.750429" style="stroke: #000000; stroke-width: 0.8"/>
      </g>
     </g>
    </g>
    <g id="xtick_26">
     <g id="line2d_44">
      <g>
       <use xlink:href="#m499c8b9b4f" x="463.193067" y="421.750429" style="stroke: #000000; stroke-width: 0.8"/>
      </g>
     </g>
    </g>
    <g id="xtick_27">
     <g id="line2d_45">
      <g>
       <use xlink:href="#m499c8b9b4f" x="561.398026" y="421.750429" style="stroke: #000000; stroke-width: 0.8"/>
      </g>
     </g>
    </g>
    <g id="xtick_28">
     <g id="line2d_46">
      <g>
       <use xlink:href="#m499c8b9b4f" x="659.602986" y="421.750429" style="stroke: #000000; stroke-width: 0.8"/>
      </g>
     </g>
    </g>
   </g>
   <g id="matplotlib.axis_8">
    <g id="ytick_13">
     <g id="line2d_47">
      <g>
       <use xlink:href="#m203e05018b" x="39.58149" y="419.937287" style="stroke: #000000; stroke-width: 0.8"/>
      </g>
     </g>
     <g id="text_19">
      <!-- 0 -->
      <g transform="translate(26.21899 423.736505) scale(0.1 -0.1)">
       <use xlink:href="#DejaVuSans-30"/>
      </g>
     </g>
    </g>
    <g id="ytick_14">
     <g id="line2d_48">
      <g>
       <use xlink:href="#m203e05018b" x="39.58149" y="396.719991" style="stroke: #000000; stroke-width: 0.8"/>
      </g>
     </g>
     <g id="text_20">
      <!-- 2 -->
      <g transform="translate(26.21899 400.51921) scale(0.1 -0.1)">
       <use xlink:href="#DejaVuSans-32"/>
      </g>
     </g>
    </g>
    <g id="ytick_15">
     <g id="line2d_49">
      <g>
       <use xlink:href="#m203e05018b" x="39.58149" y="373.502695" style="stroke: #000000; stroke-width: 0.8"/>
      </g>
     </g>
     <g id="text_21">
      <!-- 4 -->
      <g transform="translate(26.21899 377.301914) scale(0.1 -0.1)">
       <use xlink:href="#DejaVuSans-34"/>
      </g>
     </g>
    </g>
    <g id="ytick_16">
     <g id="line2d_50">
      <g>
       <use xlink:href="#m203e05018b" x="39.58149" y="350.2854" style="stroke: #000000; stroke-width: 0.8"/>
      </g>
     </g>
     <g id="text_22">
      <!-- 6 -->
      <g transform="translate(26.21899 354.084619) scale(0.1 -0.1)">
       <use xlink:href="#DejaVuSans-36"/>
      </g>
     </g>
    </g>
    <g id="text_23">
     <!-- $u_d=10.0$ -->
     <g transform="translate(20.139302 398.325157) rotate(-90) scale(0.1 -0.1)">
      <defs>
       <path id="DejaVuSans-31" d="M 794 531 
L 1825 531 
L 1825 4091 
L 703 3866 
L 703 4441 
L 1819 4666 
L 2450 4666 
L 2450 531 
L 3481 531 
L 3481 0 
L 794 0 
L 794 531 
z
" transform="scale(0.015625)"/>
      </defs>
      <use xlink:href="#DejaVuSans-Oblique-75" transform="translate(0 0.78125)"/>
      <use xlink:href="#DejaVuSans-Oblique-64" transform="translate(63.378906 -15.625) scale(0.7)"/>
      <use xlink:href="#DejaVuSans-3d" transform="translate(130.029297 0.78125)"/>
      <use xlink:href="#DejaVuSans-31" transform="translate(233.300781 0.78125)"/>
      <use xlink:href="#DejaVuSans-30" transform="translate(296.923828 0.78125)"/>
      <use xlink:href="#DejaVuSans-2e" transform="translate(360.546875 0.78125)"/>
      <use xlink:href="#DejaVuSans-30" transform="translate(392.333984 0.78125)"/>
     </g>
    </g>
   </g>
   <g id="line2d_51">
    <path d="M 70.37323 417.319165 
L 113.758851 417.016494 
L 139.06713 416.643034 
L 157.144472 416.162226 
L 169.196034 415.640405 
L 178.837283 415.011701 
L 186.06822 414.338665 
L 192.094 413.577202 
L 196.914625 412.782602 
L 201.73525 411.764575 
L 205.350718 410.812009 
L 208.966186 409.656877 
L 212.581655 408.256664 
L 216.197123 406.564475 
L 219.812592 404.531343 
L 222.222904 402.962826 
L 224.633216 401.208616 
L 227.043529 399.257525 
L 229.453841 397.100659 
L 231.864153 394.731954 
L 235.479622 390.776663 
L 239.09509 386.346182 
L 242.710559 381.469016 
L 246.326027 376.198194 
L 251.146652 368.701222 
L 263.198213 349.57666 
L 266.813681 344.48636 
L 269.223994 341.466068 
L 271.634306 338.828835 
L 274.044618 336.646859 
L 275.249774 335.74853 
L 276.454931 334.989823 
L 277.660087 334.378662 
L 278.865243 333.922504 
L 280.070399 333.628254 
L 281.275555 333.502181 
L 282.480711 333.549831 
L 283.685867 333.775943 
L 284.891024 334.184367 
L 286.09618 334.777983 
L 287.301336 335.558627 
L 288.506492 336.527016 
L 289.711648 337.682686 
L 290.916804 339.023935 
L 293.327117 342.249897 
L 295.737429 346.16495 
L 298.147741 350.707401 
L 300.558054 355.794046 
L 304.173522 364.213003 
L 310.199303 379.265327 
L 313.814771 388.108454 
L 316.225083 393.61897 
L 318.635396 398.666335 
L 321.045708 403.140061 
L 323.45602 406.959159 
L 325.866333 410.081412 
L 327.071489 411.380601 
L 328.276645 412.510993 
L 329.481801 413.48069 
L 330.686957 414.300439 
L 333.09727 415.543237 
L 335.507582 416.356714 
L 337.917894 416.860277 
L 340.328206 417.157152 
L 343.943675 417.378559 
L 349.969456 417.493763 
L 370.45711 417.526135 
L 622.334745 417.487533 
L 686.20802 417.324406 
L 686.20802 417.324406 
" clip-path="url(#p059721252a)" style="fill: none; stroke: #1f77b4; stroke-width: 1.5; stroke-linecap: square"/>
   </g>
   <g id="patch_21">
    <path d="M 39.58149 421.750429 
L 39.58149 329.299884 
" style="fill: none; stroke: #000000; stroke-width: 0.8; stroke-linejoin: miter; stroke-linecap: square"/>
   </g>
   <g id="patch_22">
    <path d="M 716.99976 421.750429 
L 716.99976 329.299884 
" style="fill: none; stroke: #000000; stroke-width: 0.8; stroke-linejoin: miter; stroke-linecap: square"/>
   </g>
   <g id="patch_23">
    <path d="M 39.58149 421.750429 
L 716.99976 421.750429 
" style="fill: none; stroke: #000000; stroke-width: 0.8; stroke-linejoin: miter; stroke-linecap: square"/>
   </g>
   <g id="patch_24">
    <path d="M 39.58149 329.299884 
L 716.99976 329.299884 
" style="fill: none; stroke: #000000; stroke-width: 0.8; stroke-linejoin: miter; stroke-linecap: square"/>
   </g>
   <g id="legend_4">
    <g id="patch_25">
     <path d="M 658.14726 347.442384 
L 711.39976 347.442384 
Q 712.99976 347.442384 712.99976 345.842384 
L 712.99976 334.899884 
Q 712.99976 333.299884 711.39976 333.299884 
L 658.14726 333.299884 
Q 656.54726 333.299884 656.54726 334.899884 
L 656.54726 345.842384 
Q 656.54726 347.442384 658.14726 347.442384 
z
" style="fill: #ffffff; opacity: 0.8; stroke: #cccccc; stroke-linejoin: miter"/>
    </g>
    <g id="line2d_52">
     <path d="M 659.74726 339.778634 
L 667.74726 339.778634 
L 675.74726 339.778634 
" style="fill: none; stroke: #1f77b4; stroke-width: 1.5; stroke-linecap: square"/>
    </g>
    <g id="text_24">
     <!-- t=50.0 -->
     <g transform="translate(682.14726 342.578634) scale(0.08 -0.08)">
      <use xlink:href="#DejaVuSans-74"/>
      <use xlink:href="#DejaVuSans-3d" x="39.208984"/>
      <use xlink:href="#DejaVuSans-35" x="122.998047"/>
      <use xlink:href="#DejaVuSans-30" x="186.621094"/>
      <use xlink:href="#DejaVuSans-2e" x="250.244141"/>
      <use xlink:href="#DejaVuSans-30" x="282.03125"/>
     </g>
    </g>
   </g>
  </g>
  <g id="axes_5">
   <g id="patch_26">
    <path d="M 39.58149 524.267077 
L 716.99976 524.267077 
L 716.99976 431.816531 
L 39.58149 431.816531 
z
" style="fill: #ffffff"/>
   </g>
   <g id="matplotlib.axis_9">
    <g id="xtick_29">
     <g id="line2d_53">
      <g>
       <use xlink:href="#m499c8b9b4f" x="70.37323" y="524.267077" style="stroke: #000000; stroke-width: 0.8"/>
      </g>
     </g>
    </g>
    <g id="xtick_30">
     <g id="line2d_54">
      <g>
       <use xlink:href="#m499c8b9b4f" x="168.578189" y="524.267077" style="stroke: #000000; stroke-width: 0.8"/>
      </g>
     </g>
    </g>
    <g id="xtick_31">
     <g id="line2d_55">
      <g>
       <use xlink:href="#m499c8b9b4f" x="266.783148" y="524.267077" style="stroke: #000000; stroke-width: 0.8"/>
      </g>
     </g>
    </g>
    <g id="xtick_32">
     <g id="line2d_56">
      <g>
       <use xlink:href="#m499c8b9b4f" x="364.988108" y="524.267077" style="stroke: #000000; stroke-width: 0.8"/>
      </g>
     </g>
    </g>
    <g id="xtick_33">
     <g id="line2d_57">
      <g>
       <use xlink:href="#m499c8b9b4f" x="463.193067" y="524.267077" style="stroke: #000000; stroke-width: 0.8"/>
      </g>
     </g>
    </g>
    <g id="xtick_34">
     <g id="line2d_58">
      <g>
       <use xlink:href="#m499c8b9b4f" x="561.398026" y="524.267077" style="stroke: #000000; stroke-width: 0.8"/>
      </g>
     </g>
    </g>
    <g id="xtick_35">
     <g id="line2d_59">
      <g>
       <use xlink:href="#m499c8b9b4f" x="659.602986" y="524.267077" style="stroke: #000000; stroke-width: 0.8"/>
      </g>
     </g>
    </g>
   </g>
   <g id="matplotlib.axis_10">
    <g id="ytick_17">
     <g id="line2d_60">
      <g>
       <use xlink:href="#m203e05018b" x="39.58149" y="522.364068" style="stroke: #000000; stroke-width: 0.8"/>
      </g>
     </g>
     <g id="text_25">
      <!-- 0.0 -->
      <g transform="translate(16.678365 526.163287) scale(0.1 -0.1)">
       <use xlink:href="#DejaVuSans-30"/>
       <use xlink:href="#DejaVuSans-2e" x="63.623047"/>
       <use xlink:href="#DejaVuSans-30" x="95.410156"/>
      </g>
     </g>
    </g>
    <g id="ytick_18">
     <g id="line2d_61">
      <g>
       <use xlink:href="#m203e05018b" x="39.58149" y="493.78635" style="stroke: #000000; stroke-width: 0.8"/>
      </g>
     </g>
     <g id="text_26">
      <!-- 2.5 -->
      <g transform="translate(16.678365 497.585568) scale(0.1 -0.1)">
       <use xlink:href="#DejaVuSans-32"/>
       <use xlink:href="#DejaVuSans-2e" x="63.623047"/>
       <use xlink:href="#DejaVuSans-35" x="95.410156"/>
      </g>
     </g>
    </g>
    <g id="ytick_19">
     <g id="line2d_62">
      <g>
       <use xlink:href="#m203e05018b" x="39.58149" y="465.208631" style="stroke: #000000; stroke-width: 0.8"/>
      </g>
     </g>
     <g id="text_27">
      <!-- 5.0 -->
      <g transform="translate(16.678365 469.00785) scale(0.1 -0.1)">
       <use xlink:href="#DejaVuSans-35"/>
       <use xlink:href="#DejaVuSans-2e" x="63.623047"/>
       <use xlink:href="#DejaVuSans-30" x="95.410156"/>
      </g>
     </g>
    </g>
    <g id="ytick_20">
     <g id="line2d_63">
      <g>
       <use xlink:href="#m203e05018b" x="39.58149" y="436.630912" style="stroke: #000000; stroke-width: 0.8"/>
      </g>
     </g>
     <g id="text_28">
      <!-- 7.5 -->
      <g transform="translate(16.678365 440.430131) scale(0.1 -0.1)">
       <defs>
        <path id="DejaVuSans-37" d="M 525 4666 
L 3525 4666 
L 3525 4397 
L 1831 0 
L 1172 0 
L 2766 4134 
L 525 4134 
L 525 4666 
z
" transform="scale(0.015625)"/>
       </defs>
       <use xlink:href="#DejaVuSans-37"/>
       <use xlink:href="#DejaVuSans-2e" x="63.623047"/>
       <use xlink:href="#DejaVuSans-35" x="95.410156"/>
      </g>
     </g>
    </g>
    <g id="text_29">
     <!-- $u_d=12.0$ -->
     <g transform="translate(10.598677 500.841804) rotate(-90) scale(0.1 -0.1)">
      <use xlink:href="#DejaVuSans-Oblique-75" transform="translate(0 0.78125)"/>
      <use xlink:href="#DejaVuSans-Oblique-64" transform="translate(63.378906 -15.625) scale(0.7)"/>
      <use xlink:href="#DejaVuSans-3d" transform="translate(130.029297 0.78125)"/>
      <use xlink:href="#DejaVuSans-31" transform="translate(233.300781 0.78125)"/>
      <use xlink:href="#DejaVuSans-32" transform="translate(296.923828 0.78125)"/>
      <use xlink:href="#DejaVuSans-2e" transform="translate(360.546875 0.78125)"/>
      <use xlink:href="#DejaVuSans-30" transform="translate(392.333984 0.78125)"/>
     </g>
    </g>
   </g>
   <g id="line2d_64">
    <path d="M 70.37323 520.038687 
L 165.580565 519.862034 
L 212.581655 519.569901 
L 240.300246 519.18841 
L 258.377588 518.730471 
L 271.634306 518.172571 
L 281.275555 517.547147 
L 288.506492 516.874964 
L 294.532273 516.111515 
L 299.352897 515.311965 
L 304.173522 514.284033 
L 307.78899 513.319258 
L 311.404459 512.146318 
L 315.019927 510.721152 
L 318.635396 508.99528 
L 322.250864 506.918316 
L 324.661176 505.314423 
L 327.071489 503.519722 
L 329.481801 501.523033 
L 331.892113 499.315634 
L 334.302426 496.8918 
L 336.712738 494.249288 
L 340.328206 489.880293 
L 343.943675 485.048154 
L 347.559143 479.801726 
L 352.379768 472.298712 
L 365.636485 451.130763 
L 368.046798 447.706916 
L 370.45711 444.58326 
L 372.867422 441.83426 
L 375.277735 439.534442 
L 377.688047 437.756197 
L 378.893203 437.084104 
L 380.098359 436.567326 
L 381.303515 436.213182 
L 382.508672 436.028359 
L 383.713828 436.018829 
L 384.918984 436.189751 
L 386.12414 436.545391 
L 387.329296 437.089038 
L 388.534452 437.822912 
L 389.739608 438.748103 
L 390.944765 439.864489 
L 392.149921 441.170681 
L 393.355077 442.663965 
L 395.765389 446.194099 
L 398.175701 450.405397 
L 400.586014 455.225768 
L 402.996326 460.561152 
L 406.611794 469.274987 
L 416.253044 493.291787 
L 418.663356 498.657321 
L 421.073668 503.493081 
L 423.48398 507.698196 
L 425.894293 511.206968 
L 427.099449 512.691656 
L 428.304605 513.998214 
L 429.509761 515.131977 
L 430.714917 516.101402 
L 431.920074 516.917742 
L 434.330386 518.146847 
L 436.740698 518.941976 
L 439.15101 519.427219 
L 442.766479 519.798774 
L 447.587103 519.975772 
L 458.433509 520.039616 
L 603.052246 520.064646 
L 686.20802 520.039531 
L 686.20802 520.039531 
" clip-path="url(#pec528053e4)" style="fill: none; stroke: #1f77b4; stroke-width: 1.5; stroke-linecap: square"/>
   </g>
   <g id="patch_27">
    <path d="M 39.58149 524.267077 
L 39.58149 431.816531 
" style="fill: none; stroke: #000000; stroke-width: 0.8; stroke-linejoin: miter; stroke-linecap: square"/>
   </g>
   <g id="patch_28">
    <path d="M 716.99976 524.267077 
L 716.99976 431.816531 
" style="fill: none; stroke: #000000; stroke-width: 0.8; stroke-linejoin: miter; stroke-linecap: square"/>
   </g>
   <g id="patch_29">
    <path d="M 39.58149 524.267077 
L 716.99976 524.267077 
" style="fill: none; stroke: #000000; stroke-width: 0.8; stroke-linejoin: miter; stroke-linecap: square"/>
   </g>
   <g id="patch_30">
    <path d="M 39.58149 431.816531 
L 716.99976 431.816531 
" style="fill: none; stroke: #000000; stroke-width: 0.8; stroke-linejoin: miter; stroke-linecap: square"/>
   </g>
   <g id="legend_5">
    <g id="patch_31">
     <path d="M 658.14726 449.959031 
L 711.39976 449.959031 
Q 712.99976 449.959031 712.99976 448.359031 
L 712.99976 437.416531 
Q 712.99976 435.816531 711.39976 435.816531 
L 658.14726 435.816531 
Q 656.54726 435.816531 656.54726 437.416531 
L 656.54726 448.359031 
Q 656.54726 449.959031 658.14726 449.959031 
z
" style="fill: #ffffff; opacity: 0.8; stroke: #cccccc; stroke-linejoin: miter"/>
    </g>
    <g id="line2d_65">
     <path d="M 659.74726 442.295281 
L 667.74726 442.295281 
L 675.74726 442.295281 
" style="fill: none; stroke: #1f77b4; stroke-width: 1.5; stroke-linecap: square"/>
    </g>
    <g id="text_30">
     <!-- t=50.0 -->
     <g transform="translate(682.14726 445.095281) scale(0.08 -0.08)">
      <use xlink:href="#DejaVuSans-74"/>
      <use xlink:href="#DejaVuSans-3d" x="39.208984"/>
      <use xlink:href="#DejaVuSans-35" x="122.998047"/>
      <use xlink:href="#DejaVuSans-30" x="186.621094"/>
      <use xlink:href="#DejaVuSans-2e" x="250.244141"/>
      <use xlink:href="#DejaVuSans-30" x="282.03125"/>
     </g>
    </g>
   </g>
  </g>
  <g id="axes_6">
   <g id="patch_32">
    <path d="M 39.58149 626.693852 
L 716.99976 626.693852 
L 716.99976 534.243306 
L 39.58149 534.243306 
z
" style="fill: #ffffff"/>
   </g>
   <g id="matplotlib.axis_11">
    <g id="xtick_36">
     <g id="line2d_66">
      <g>
       <use xlink:href="#m499c8b9b4f" x="70.37323" y="626.693852" style="stroke: #000000; stroke-width: 0.8"/>
      </g>
     </g>
    </g>
    <g id="xtick_37">
     <g id="line2d_67">
      <g>
       <use xlink:href="#m499c8b9b4f" x="168.578189" y="626.693852" style="stroke: #000000; stroke-width: 0.8"/>
      </g>
     </g>
    </g>
    <g id="xtick_38">
     <g id="line2d_68">
      <g>
       <use xlink:href="#m499c8b9b4f" x="266.783148" y="626.693852" style="stroke: #000000; stroke-width: 0.8"/>
      </g>
     </g>
    </g>
    <g id="xtick_39">
     <g id="line2d_69">
      <g>
       <use xlink:href="#m499c8b9b4f" x="364.988108" y="626.693852" style="stroke: #000000; stroke-width: 0.8"/>
      </g>
     </g>
    </g>
    <g id="xtick_40">
     <g id="line2d_70">
      <g>
       <use xlink:href="#m499c8b9b4f" x="463.193067" y="626.693852" style="stroke: #000000; stroke-width: 0.8"/>
      </g>
     </g>
    </g>
    <g id="xtick_41">
     <g id="line2d_71">
      <g>
       <use xlink:href="#m499c8b9b4f" x="561.398026" y="626.693852" style="stroke: #000000; stroke-width: 0.8"/>
      </g>
     </g>
    </g>
    <g id="xtick_42">
     <g id="line2d_72">
      <g>
       <use xlink:href="#m499c8b9b4f" x="659.602986" y="626.693852" style="stroke: #000000; stroke-width: 0.8"/>
      </g>
     </g>
    </g>
   </g>
   <g id="matplotlib.axis_12">
    <g id="ytick_21">
     <g id="line2d_73">
      <g>
       <use xlink:href="#m203e05018b" x="39.58149" y="624.362734" style="stroke: #000000; stroke-width: 0.8"/>
      </g>
     </g>
     <g id="text_31">
      <!-- 0.0 -->
      <g transform="translate(16.678365 628.161953) scale(0.1 -0.1)">
       <use xlink:href="#DejaVuSans-30"/>
       <use xlink:href="#DejaVuSans-2e" x="63.623047"/>
       <use xlink:href="#DejaVuSans-30" x="95.410156"/>
      </g>
     </g>
    </g>
    <g id="ytick_22">
     <g id="line2d_74">
      <g>
       <use xlink:href="#m203e05018b" x="39.58149" y="597.993868" style="stroke: #000000; stroke-width: 0.8"/>
      </g>
     </g>
     <g id="text_32">
      <!-- 2.5 -->
      <g transform="translate(16.678365 601.793087) scale(0.1 -0.1)">
       <use xlink:href="#DejaVuSans-32"/>
       <use xlink:href="#DejaVuSans-2e" x="63.623047"/>
       <use xlink:href="#DejaVuSans-35" x="95.410156"/>
      </g>
     </g>
    </g>
    <g id="ytick_23">
     <g id="line2d_75">
      <g>
       <use xlink:href="#m203e05018b" x="39.58149" y="571.625001" style="stroke: #000000; stroke-width: 0.8"/>
      </g>
     </g>
     <g id="text_33">
      <!-- 5.0 -->
      <g transform="translate(16.678365 575.42422) scale(0.1 -0.1)">
       <use xlink:href="#DejaVuSans-35"/>
       <use xlink:href="#DejaVuSans-2e" x="63.623047"/>
       <use xlink:href="#DejaVuSans-30" x="95.410156"/>
      </g>
     </g>
    </g>
    <g id="ytick_24">
     <g id="line2d_76">
      <g>
       <use xlink:href="#m203e05018b" x="39.58149" y="545.256135" style="stroke: #000000; stroke-width: 0.8"/>
      </g>
     </g>
     <g id="text_34">
      <!-- 7.5 -->
      <g transform="translate(16.678365 549.055354) scale(0.1 -0.1)">
       <use xlink:href="#DejaVuSans-37"/>
       <use xlink:href="#DejaVuSans-2e" x="63.623047"/>
       <use xlink:href="#DejaVuSans-35" x="95.410156"/>
      </g>
     </g>
    </g>
    <g id="text_35">
     <!-- $u_d=25.0$ -->
     <g transform="translate(10.598677 603.268579) rotate(-90) scale(0.1 -0.1)">
      <use xlink:href="#DejaVuSans-Oblique-75" transform="translate(0 0.78125)"/>
      <use xlink:href="#DejaVuSans-Oblique-64" transform="translate(63.378906 -15.625) scale(0.7)"/>
      <use xlink:href="#DejaVuSans-3d" transform="translate(130.029297 0.78125)"/>
      <use xlink:href="#DejaVuSans-32" transform="translate(233.300781 0.78125)"/>
      <use xlink:href="#DejaVuSans-35" transform="translate(296.923828 0.78125)"/>
      <use xlink:href="#DejaVuSans-2e" transform="translate(360.546875 0.78125)"/>
      <use xlink:href="#DejaVuSans-30" transform="translate(392.333984 0.78125)"/>
     </g>
    </g>
   </g>
   <g id="line2d_77">
    <path d="M 70.37323 622.475461 
L 207.76103 622.316311 
L 264.403369 622.053838 
L 295.737429 621.712414 
L 316.225083 621.27987 
L 329.481801 620.801282 
L 339.12305 620.263077 
L 347.559143 619.562798 
L 353.584924 618.853209 
L 358.405549 618.099371 
L 363.226173 617.115511 
L 366.841642 616.178708 
L 370.45711 615.024642 
L 374.072578 613.603491 
L 377.688047 611.859834 
L 380.098359 610.48958 
L 382.508672 608.9333 
L 384.918984 607.175214 
L 387.329296 605.201401 
L 389.739608 603.000531 
L 392.149921 600.564517 
L 394.560233 597.889097 
L 396.970545 594.974351 
L 400.586014 590.165683 
L 404.201482 584.870467 
L 407.816951 579.159441 
L 412.637575 571.086558 
L 421.073668 556.794635 
L 424.689137 551.17546 
L 427.099449 547.793726 
L 429.509761 544.803584 
L 431.920074 542.292028 
L 433.12523 541.242478 
L 434.330386 540.34419 
L 435.535542 539.607008 
L 436.740698 539.040252 
L 437.945854 538.652615 
L 439.15101 538.452038 
L 440.356167 538.445603 
L 441.561323 538.639412 
L 442.766479 539.038477 
L 443.971635 539.646609 
L 445.176791 540.466311 
L 446.381947 541.498682 
L 447.587103 542.743325 
L 448.79226 544.198268 
L 449.997416 545.859898 
L 452.407728 549.780238 
L 454.81804 554.440963 
L 457.228353 559.750816 
L 459.638665 565.591744 
L 463.254133 575.032104 
L 470.48507 594.23807 
L 472.895383 600.076092 
L 475.305695 605.353793 
L 477.716007 609.939704 
L 480.126319 613.742865 
L 481.331476 615.336912 
L 482.536632 616.726355 
L 483.741788 617.916893 
L 484.946944 618.918501 
L 486.1521 619.745051 
L 487.357256 620.413609 
L 489.767569 621.354928 
L 492.177881 621.902414 
L 494.588193 622.198935 
L 498.203662 622.394197 
L 505.434598 622.480223 
L 553.640844 622.49133 
L 686.20802 622.475884 
L 686.20802 622.475884 
" clip-path="url(#p646c76cb8f)" style="fill: none; stroke: #1f77b4; stroke-width: 1.5; stroke-linecap: square"/>
   </g>
   <g id="patch_33">
    <path d="M 39.58149 626.693852 
L 39.58149 534.243306 
" style="fill: none; stroke: #000000; stroke-width: 0.8; stroke-linejoin: miter; stroke-linecap: square"/>
   </g>
   <g id="patch_34">
    <path d="M 716.99976 626.693852 
L 716.99976 534.243306 
" style="fill: none; stroke: #000000; stroke-width: 0.8; stroke-linejoin: miter; stroke-linecap: square"/>
   </g>
   <g id="patch_35">
    <path d="M 39.58149 626.693852 
L 716.99976 626.693852 
" style="fill: none; stroke: #000000; stroke-width: 0.8; stroke-linejoin: miter; stroke-linecap: square"/>
   </g>
   <g id="patch_36">
    <path d="M 39.58149 534.243306 
L 716.99976 534.243306 
" style="fill: none; stroke: #000000; stroke-width: 0.8; stroke-linejoin: miter; stroke-linecap: square"/>
   </g>
   <g id="legend_6">
    <g id="patch_37">
     <path d="M 658.14726 552.385806 
L 711.39976 552.385806 
Q 712.99976 552.385806 712.99976 550.785806 
L 712.99976 539.843306 
Q 712.99976 538.243306 711.39976 538.243306 
L 658.14726 538.243306 
Q 656.54726 538.243306 656.54726 539.843306 
L 656.54726 550.785806 
Q 656.54726 552.385806 658.14726 552.385806 
z
" style="fill: #ffffff; opacity: 0.8; stroke: #cccccc; stroke-linejoin: miter"/>
    </g>
    <g id="line2d_78">
     <path d="M 659.74726 544.722056 
L 667.74726 544.722056 
L 675.74726 544.722056 
" style="fill: none; stroke: #1f77b4; stroke-width: 1.5; stroke-linecap: square"/>
    </g>
    <g id="text_36">
     <!-- t=50.0 -->
     <g transform="translate(682.14726 547.522056) scale(0.08 -0.08)">
      <use xlink:href="#DejaVuSans-74"/>
      <use xlink:href="#DejaVuSans-3d" x="39.208984"/>
      <use xlink:href="#DejaVuSans-35" x="122.998047"/>
      <use xlink:href="#DejaVuSans-30" x="186.621094"/>
      <use xlink:href="#DejaVuSans-2e" x="250.244141"/>
      <use xlink:href="#DejaVuSans-30" x="282.03125"/>
     </g>
    </g>
   </g>
  </g>
  <g id="axes_7">
   <g id="patch_38">
    <path d="M 39.58149 728.692484 
L 716.99976 728.692484 
L 716.99976 636.241939 
L 39.58149 636.241939 
z
" style="fill: #ffffff"/>
   </g>
   <g id="matplotlib.axis_13">
    <g id="xtick_43">
     <g id="line2d_79">
      <g>
       <use xlink:href="#m499c8b9b4f" x="70.37323" y="728.692484" style="stroke: #000000; stroke-width: 0.8"/>
      </g>
     </g>
    </g>
    <g id="xtick_44">
     <g id="line2d_80">
      <g>
       <use xlink:href="#m499c8b9b4f" x="168.578189" y="728.692484" style="stroke: #000000; stroke-width: 0.8"/>
      </g>
     </g>
    </g>
    <g id="xtick_45">
     <g id="line2d_81">
      <g>
       <use xlink:href="#m499c8b9b4f" x="266.783148" y="728.692484" style="stroke: #000000; stroke-width: 0.8"/>
      </g>
     </g>
    </g>
    <g id="xtick_46">
     <g id="line2d_82">
      <g>
       <use xlink:href="#m499c8b9b4f" x="364.988108" y="728.692484" style="stroke: #000000; stroke-width: 0.8"/>
      </g>
     </g>
    </g>
    <g id="xtick_47">
     <g id="line2d_83">
      <g>
       <use xlink:href="#m499c8b9b4f" x="463.193067" y="728.692484" style="stroke: #000000; stroke-width: 0.8"/>
      </g>
     </g>
    </g>
    <g id="xtick_48">
     <g id="line2d_84">
      <g>
       <use xlink:href="#m499c8b9b4f" x="561.398026" y="728.692484" style="stroke: #000000; stroke-width: 0.8"/>
      </g>
     </g>
    </g>
    <g id="xtick_49">
     <g id="line2d_85">
      <g>
       <use xlink:href="#m499c8b9b4f" x="659.602986" y="728.692484" style="stroke: #000000; stroke-width: 0.8"/>
      </g>
     </g>
    </g>
   </g>
   <g id="matplotlib.axis_14">
    <g id="ytick_25">
     <g id="line2d_86">
      <g>
       <use xlink:href="#m203e05018b" x="39.58149" y="725.90159" style="stroke: #000000; stroke-width: 0.8"/>
      </g>
     </g>
     <g id="text_37">
      <!-- 0.0 -->
      <g transform="translate(16.678365 729.700809) scale(0.1 -0.1)">
       <use xlink:href="#DejaVuSans-30"/>
       <use xlink:href="#DejaVuSans-2e" x="63.623047"/>
       <use xlink:href="#DejaVuSans-30" x="95.410156"/>
      </g>
     </g>
    </g>
    <g id="ytick_26">
     <g id="line2d_87">
      <g>
       <use xlink:href="#m203e05018b" x="39.58149" y="702.438989" style="stroke: #000000; stroke-width: 0.8"/>
      </g>
     </g>
     <g id="text_38">
      <!-- 2.5 -->
      <g transform="translate(16.678365 706.238208) scale(0.1 -0.1)">
       <use xlink:href="#DejaVuSans-32"/>
       <use xlink:href="#DejaVuSans-2e" x="63.623047"/>
       <use xlink:href="#DejaVuSans-35" x="95.410156"/>
      </g>
     </g>
    </g>
    <g id="ytick_27">
     <g id="line2d_88">
      <g>
       <use xlink:href="#m203e05018b" x="39.58149" y="678.976389" style="stroke: #000000; stroke-width: 0.8"/>
      </g>
     </g>
     <g id="text_39">
      <!-- 5.0 -->
      <g transform="translate(16.678365 682.775607) scale(0.1 -0.1)">
       <use xlink:href="#DejaVuSans-35"/>
       <use xlink:href="#DejaVuSans-2e" x="63.623047"/>
       <use xlink:href="#DejaVuSans-30" x="95.410156"/>
      </g>
     </g>
    </g>
    <g id="ytick_28">
     <g id="line2d_89">
      <g>
       <use xlink:href="#m203e05018b" x="39.58149" y="655.513788" style="stroke: #000000; stroke-width: 0.8"/>
      </g>
     </g>
     <g id="text_40">
      <!-- 7.5 -->
      <g transform="translate(16.678365 659.313006) scale(0.1 -0.1)">
       <use xlink:href="#DejaVuSans-37"/>
       <use xlink:href="#DejaVuSans-2e" x="63.623047"/>
       <use xlink:href="#DejaVuSans-35" x="95.410156"/>
      </g>
     </g>
    </g>
    <g id="text_41">
     <!-- $u_d=50.0$ -->
     <g transform="translate(10.598677 705.267211) rotate(-90) scale(0.1 -0.1)">
      <use xlink:href="#DejaVuSans-Oblique-75" transform="translate(0 0.78125)"/>
      <use xlink:href="#DejaVuSans-Oblique-64" transform="translate(63.378906 -15.625) scale(0.7)"/>
      <use xlink:href="#DejaVuSans-3d" transform="translate(130.029297 0.78125)"/>
      <use xlink:href="#DejaVuSans-35" transform="translate(233.300781 0.78125)"/>
      <use xlink:href="#DejaVuSans-30" transform="translate(296.923828 0.78125)"/>
      <use xlink:href="#DejaVuSans-2e" transform="translate(360.546875 0.78125)"/>
      <use xlink:href="#DejaVuSans-30" transform="translate(392.333984 0.78125)"/>
     </g>
    </g>
   </g>
   <g id="line2d_90">
    <path d="M 70.37323 724.485866 
L 295.737429 724.351741 
L 368.046798 724.113386 
L 405.406638 723.785417 
L 427.099449 723.385909 
L 441.561323 722.900516 
L 451.202572 722.370907 
L 458.433509 721.775912 
L 464.459289 721.068216 
L 469.279914 720.292882 
L 472.895383 719.540935 
L 476.510851 718.596187 
L 480.126319 717.405819 
L 483.741788 715.907332 
L 486.1521 714.702843 
L 488.562412 713.308809 
L 490.972725 711.703923 
L 493.383037 709.868175 
L 495.793349 707.78386 
L 498.203662 705.436531 
L 500.613974 702.81584 
L 503.024286 699.916293 
L 505.434598 696.737961 
L 507.844911 693.287228 
L 511.460379 687.632158 
L 515.075848 681.477204 
L 519.896472 672.722849 
L 527.127409 659.408326 
L 530.742878 653.273553 
L 533.15319 649.606961 
L 535.563502 646.407494 
L 537.973814 643.787015 
L 539.178971 642.728163 
L 540.384127 641.8544 
L 541.589283 641.178087 
L 542.794439 640.710772 
L 543.999595 640.46302 
L 545.204751 640.444236 
L 546.409907 640.66249 
L 547.615064 641.124342 
L 548.82022 641.834672 
L 550.025376 642.796522 
L 551.230532 644.010946 
L 552.435688 645.476869 
L 553.640844 647.190974 
L 554.846 649.147601 
L 557.256313 653.75366 
L 559.666625 659.200867 
L 562.076937 665.35604 
L 565.692406 675.536143 
L 572.923343 696.624808 
L 575.333655 703.008854 
L 577.743967 708.702855 
L 580.15428 713.535821 
L 581.359436 715.591643 
L 582.564592 717.396269 
L 583.769748 718.948771 
L 584.974904 720.254677 
L 586.18006 721.326245 
L 587.385216 722.182139 
L 588.590373 722.846387 
L 589.795529 723.346701 
L 592.205841 723.971853 
L 594.616153 724.271893 
L 598.231622 724.436233 
L 606.667715 724.488771 
L 686.20802 724.485991 
L 686.20802 724.485991 
" clip-path="url(#p12e00d85f8)" style="fill: none; stroke: #1f77b4; stroke-width: 1.5; stroke-linecap: square"/>
   </g>
   <g id="patch_39">
    <path d="M 39.58149 728.692484 
L 39.58149 636.241939 
" style="fill: none; stroke: #000000; stroke-width: 0.8; stroke-linejoin: miter; stroke-linecap: square"/>
   </g>
   <g id="patch_40">
    <path d="M 716.99976 728.692484 
L 716.99976 636.241939 
" style="fill: none; stroke: #000000; stroke-width: 0.8; stroke-linejoin: miter; stroke-linecap: square"/>
   </g>
   <g id="patch_41">
    <path d="M 39.58149 728.692484 
L 716.99976 728.692484 
" style="fill: none; stroke: #000000; stroke-width: 0.8; stroke-linejoin: miter; stroke-linecap: square"/>
   </g>
   <g id="patch_42">
    <path d="M 39.58149 636.241939 
L 716.99976 636.241939 
" style="fill: none; stroke: #000000; stroke-width: 0.8; stroke-linejoin: miter; stroke-linecap: square"/>
   </g>
   <g id="legend_7">
    <g id="patch_43">
     <path d="M 658.14726 654.384439 
L 711.39976 654.384439 
Q 712.99976 654.384439 712.99976 652.784439 
L 712.99976 641.841939 
Q 712.99976 640.241939 711.39976 640.241939 
L 658.14726 640.241939 
Q 656.54726 640.241939 656.54726 641.841939 
L 656.54726 652.784439 
Q 656.54726 654.384439 658.14726 654.384439 
z
" style="fill: #ffffff; opacity: 0.8; stroke: #cccccc; stroke-linejoin: miter"/>
    </g>
    <g id="line2d_91">
     <path d="M 659.74726 646.720689 
L 667.74726 646.720689 
L 675.74726 646.720689 
" style="fill: none; stroke: #1f77b4; stroke-width: 1.5; stroke-linecap: square"/>
    </g>
    <g id="text_42">
     <!-- t=50.0 -->
     <g transform="translate(682.14726 649.520689) scale(0.08 -0.08)">
      <use xlink:href="#DejaVuSans-74"/>
      <use xlink:href="#DejaVuSans-3d" x="39.208984"/>
      <use xlink:href="#DejaVuSans-35" x="122.998047"/>
      <use xlink:href="#DejaVuSans-30" x="186.621094"/>
      <use xlink:href="#DejaVuSans-2e" x="250.244141"/>
      <use xlink:href="#DejaVuSans-30" x="282.03125"/>
     </g>
    </g>
   </g>
  </g>
  <g id="axes_8">
   <g id="patch_44">
    <path d="M 39.58149 830.64351 
L 716.99976 830.64351 
L 716.99976 738.192964 
L 39.58149 738.192964 
z
" style="fill: #ffffff"/>
   </g>
   <g id="matplotlib.axis_15">
    <g id="xtick_50">
     <g id="line2d_92">
      <g>
       <use xlink:href="#m499c8b9b4f" x="70.37323" y="830.64351" style="stroke: #000000; stroke-width: 0.8"/>
      </g>
     </g>
     <g id="text_43">
      <!-- 0 -->
      <g transform="translate(67.19198 845.241948) scale(0.1 -0.1)">
       <use xlink:href="#DejaVuSans-30"/>
      </g>
     </g>
    </g>
    <g id="xtick_51">
     <g id="line2d_93">
      <g>
       <use xlink:href="#m499c8b9b4f" x="168.578189" y="830.64351" style="stroke: #000000; stroke-width: 0.8"/>
      </g>
     </g>
     <g id="text_44">
      <!-- 100 -->
      <g transform="translate(159.034439 845.241948) scale(0.1 -0.1)">
       <use xlink:href="#DejaVuSans-31"/>
       <use xlink:href="#DejaVuSans-30" x="63.623047"/>
       <use xlink:href="#DejaVuSans-30" x="127.246094"/>
      </g>
     </g>
    </g>
    <g id="xtick_52">
     <g id="line2d_94">
      <g>
       <use xlink:href="#m499c8b9b4f" x="266.783148" y="830.64351" style="stroke: #000000; stroke-width: 0.8"/>
      </g>
     </g>
     <g id="text_45">
      <!-- 200 -->
      <g transform="translate(257.239398 845.241948) scale(0.1 -0.1)">
       <use xlink:href="#DejaVuSans-32"/>
       <use xlink:href="#DejaVuSans-30" x="63.623047"/>
       <use xlink:href="#DejaVuSans-30" x="127.246094"/>
      </g>
     </g>
    </g>
    <g id="xtick_53">
     <g id="line2d_95">
      <g>
       <use xlink:href="#m499c8b9b4f" x="364.988108" y="830.64351" style="stroke: #000000; stroke-width: 0.8"/>
      </g>
     </g>
     <g id="text_46">
      <!-- 300 -->
      <g transform="translate(355.444358 845.241948) scale(0.1 -0.1)">
       <defs>
        <path id="DejaVuSans-33" d="M 2597 2516 
Q 3050 2419 3304 2112 
Q 3559 1806 3559 1356 
Q 3559 666 3084 287 
Q 2609 -91 1734 -91 
Q 1441 -91 1130 -33 
Q 819 25 488 141 
L 488 750 
Q 750 597 1062 519 
Q 1375 441 1716 441 
Q 2309 441 2620 675 
Q 2931 909 2931 1356 
Q 2931 1769 2642 2001 
Q 2353 2234 1838 2234 
L 1294 2234 
L 1294 2753 
L 1863 2753 
Q 2328 2753 2575 2939 
Q 2822 3125 2822 3475 
Q 2822 3834 2567 4026 
Q 2313 4219 1838 4219 
Q 1578 4219 1281 4162 
Q 984 4106 628 3988 
L 628 4550 
Q 988 4650 1302 4700 
Q 1616 4750 1894 4750 
Q 2613 4750 3031 4423 
Q 3450 4097 3450 3541 
Q 3450 3153 3228 2886 
Q 3006 2619 2597 2516 
z
" transform="scale(0.015625)"/>
       </defs>
       <use xlink:href="#DejaVuSans-33"/>
       <use xlink:href="#DejaVuSans-30" x="63.623047"/>
       <use xlink:href="#DejaVuSans-30" x="127.246094"/>
      </g>
     </g>
    </g>
    <g id="xtick_54">
     <g id="line2d_96">
      <g>
       <use xlink:href="#m499c8b9b4f" x="463.193067" y="830.64351" style="stroke: #000000; stroke-width: 0.8"/>
      </g>
     </g>
     <g id="text_47">
      <!-- 400 -->
      <g transform="translate(453.649317 845.241948) scale(0.1 -0.1)">
       <use xlink:href="#DejaVuSans-34"/>
       <use xlink:href="#DejaVuSans-30" x="63.623047"/>
       <use xlink:href="#DejaVuSans-30" x="127.246094"/>
      </g>
     </g>
    </g>
    <g id="xtick_55">
     <g id="line2d_97">
      <g>
       <use xlink:href="#m499c8b9b4f" x="561.398026" y="830.64351" style="stroke: #000000; stroke-width: 0.8"/>
      </g>
     </g>
     <g id="text_48">
      <!-- 500 -->
      <g transform="translate(551.854276 845.241948) scale(0.1 -0.1)">
       <use xlink:href="#DejaVuSans-35"/>
       <use xlink:href="#DejaVuSans-30" x="63.623047"/>
       <use xlink:href="#DejaVuSans-30" x="127.246094"/>
      </g>
     </g>
    </g>
    <g id="xtick_56">
     <g id="line2d_98">
      <g>
       <use xlink:href="#m499c8b9b4f" x="659.602986" y="830.64351" style="stroke: #000000; stroke-width: 0.8"/>
      </g>
     </g>
     <g id="text_49">
      <!-- 600 -->
      <g transform="translate(650.059236 845.241948) scale(0.1 -0.1)">
       <use xlink:href="#DejaVuSans-36"/>
       <use xlink:href="#DejaVuSans-30" x="63.623047"/>
       <use xlink:href="#DejaVuSans-30" x="127.246094"/>
      </g>
     </g>
    </g>
    <g id="text_50">
     <!-- x -->
     <g transform="translate(375.33125 858.920072) scale(0.1 -0.1)">
      <defs>
       <path id="DejaVuSans-78" d="M 3513 3500 
L 2247 1797 
L 3578 0 
L 2900 0 
L 1881 1375 
L 863 0 
L 184 0 
L 1544 1831 
L 300 3500 
L 978 3500 
L 1906 2253 
L 2834 3500 
L 3513 3500 
z
" transform="scale(0.015625)"/>
      </defs>
      <use xlink:href="#DejaVuSans-78"/>
     </g>
    </g>
   </g>
   <g id="matplotlib.axis_16">
    <g id="ytick_29">
     <g id="line2d_99">
      <g>
       <use xlink:href="#m203e05018b" x="39.58149" y="827.407138" style="stroke: #000000; stroke-width: 0.8"/>
      </g>
     </g>
     <g id="text_51">
      <!-- 0 -->
      <g transform="translate(26.21899 831.206357) scale(0.1 -0.1)">
       <use xlink:href="#DejaVuSans-30"/>
      </g>
     </g>
    </g>
    <g id="ytick_30">
     <g id="line2d_100">
      <g>
       <use xlink:href="#m203e05018b" x="39.58149" y="787.152208" style="stroke: #000000; stroke-width: 0.8"/>
      </g>
     </g>
     <g id="text_52">
      <!-- 5 -->
      <g transform="translate(26.21899 790.951426) scale(0.1 -0.1)">
       <use xlink:href="#DejaVuSans-35"/>
      </g>
     </g>
    </g>
    <g id="ytick_31">
     <g id="line2d_101">
      <g>
       <use xlink:href="#m203e05018b" x="39.58149" y="746.897277" style="stroke: #000000; stroke-width: 0.8"/>
      </g>
     </g>
     <g id="text_53">
      <!-- 10 -->
      <g transform="translate(19.85649 750.696496) scale(0.1 -0.1)">
       <use xlink:href="#DejaVuSans-31"/>
       <use xlink:href="#DejaVuSans-30" x="63.623047"/>
      </g>
     </g>
    </g>
    <g id="text_54">
     <!-- $u_d=100.0$ -->
     <g transform="translate(13.776802 810.418237) rotate(-90) scale(0.1 -0.1)">
      <use xlink:href="#DejaVuSans-Oblique-75" transform="translate(0 0.78125)"/>
      <use xlink:href="#DejaVuSans-Oblique-64" transform="translate(63.378906 -15.625) scale(0.7)"/>
      <use xlink:href="#DejaVuSans-3d" transform="translate(130.029297 0.78125)"/>
      <use xlink:href="#DejaVuSans-31" transform="translate(233.300781 0.78125)"/>
      <use xlink:href="#DejaVuSans-30" transform="translate(296.923828 0.78125)"/>
      <use xlink:href="#DejaVuSans-30" transform="translate(360.546875 0.78125)"/>
      <use xlink:href="#DejaVuSans-2e" transform="translate(424.169922 0.78125)"/>
      <use xlink:href="#DejaVuSans-30" transform="translate(455.957031 0.78125)"/>
     </g>
    </g>
   </g>
   <g id="line2d_102">
    <path d="M 70.37323 825.782966 
L 92.06604 825.408908 
L 105.322758 824.976223 
L 114.964007 824.439029 
L 122.194944 823.794952 
L 127.015568 823.169282 
L 131.836193 822.298899 
L 135.451661 821.417503 
L 139.06713 820.268449 
L 141.477442 819.314263 
L 143.887754 818.178066 
L 146.298067 816.830879 
L 148.708379 815.243263 
L 151.118691 813.386775 
L 153.529004 811.235495 
L 155.939316 808.767448 
L 158.349628 805.965864 
L 160.759941 802.820333 
L 163.170253 799.328009 
L 165.580565 795.495019 
L 167.990877 791.338112 
L 171.606346 784.5632 
L 175.221814 777.289519 
L 183.657907 759.924748 
L 186.06822 755.377096 
L 188.478532 751.271871 
L 190.888844 747.766165 
L 192.094 746.28787 
L 193.299156 745.018714 
L 194.504313 743.977557 
L 195.709469 743.182353 
L 196.914625 742.649844 
L 198.119781 742.395262 
L 199.324937 742.432004 
L 200.530093 742.771322 
L 201.73525 743.422009 
L 202.940406 744.390098 
L 204.145562 745.678576 
L 205.350718 747.287122 
L 206.555874 749.21188 
L 207.76103 751.445266 
L 208.966186 753.975827 
L 211.376499 759.86282 
L 213.786811 766.701981 
L 216.197123 774.261716 
L 224.633216 801.975712 
L 227.043529 808.859158 
L 229.453841 814.714605 
L 230.658997 817.187607 
L 231.864153 819.333811 
L 233.069309 821.146417 
L 234.274465 822.629333 
L 235.479622 823.798434 
L 236.684778 824.681779 
L 237.889934 825.31816 
L 239.09509 825.753649 
L 241.505402 826.211038 
L 243.915715 826.372864 
L 249.941495 826.439125 
L 352.379768 826.430048 
L 583.769748 826.279688 
L 657.284273 826.037111 
L 686.20802 825.797255 
L 686.20802 825.797255 
" clip-path="url(#pb6a9022dab)" style="fill: none; stroke: #1f77b4; stroke-width: 1.5; stroke-linecap: square"/>
   </g>
   <g id="patch_45">
    <path d="M 39.58149 830.64351 
L 39.58149 738.192964 
" style="fill: none; stroke: #000000; stroke-width: 0.8; stroke-linejoin: miter; stroke-linecap: square"/>
   </g>
   <g id="patch_46">
    <path d="M 716.99976 830.64351 
L 716.99976 738.192964 
" style="fill: none; stroke: #000000; stroke-width: 0.8; stroke-linejoin: miter; stroke-linecap: square"/>
   </g>
   <g id="patch_47">
    <path d="M 39.58149 830.64351 
L 716.99976 830.64351 
" style="fill: none; stroke: #000000; stroke-width: 0.8; stroke-linejoin: miter; stroke-linecap: square"/>
   </g>
   <g id="patch_48">
    <path d="M 39.58149 738.192964 
L 716.99976 738.192964 
" style="fill: none; stroke: #000000; stroke-width: 0.8; stroke-linejoin: miter; stroke-linecap: square"/>
   </g>
   <g id="legend_8">
    <g id="patch_49">
     <path d="M 658.14726 756.335464 
L 711.39976 756.335464 
Q 712.99976 756.335464 712.99976 754.735464 
L 712.99976 743.792964 
Q 712.99976 742.192964 711.39976 742.192964 
L 658.14726 742.192964 
Q 656.54726 742.192964 656.54726 743.792964 
L 656.54726 754.735464 
Q 656.54726 756.335464 658.14726 756.335464 
z
" style="fill: #ffffff; opacity: 0.8; stroke: #cccccc; stroke-linejoin: miter"/>
    </g>
    <g id="line2d_103">
     <path d="M 659.74726 748.671714 
L 667.74726 748.671714 
L 675.74726 748.671714 
" style="fill: none; stroke: #1f77b4; stroke-width: 1.5; stroke-linecap: square"/>
    </g>
    <g id="text_55">
     <!-- t=50.0 -->
     <g transform="translate(682.14726 751.471714) scale(0.08 -0.08)">
      <use xlink:href="#DejaVuSans-74"/>
      <use xlink:href="#DejaVuSans-3d" x="39.208984"/>
      <use xlink:href="#DejaVuSans-35" x="122.998047"/>
      <use xlink:href="#DejaVuSans-30" x="186.621094"/>
      <use xlink:href="#DejaVuSans-2e" x="250.244141"/>
      <use xlink:href="#DejaVuSans-30" x="282.03125"/>
     </g>
    </g>
   </g>
  </g>
  <g id="text_56">
   <!-- Density snapshots for u_d=0.1..1.0  [ud_comparison] -->
   <g transform="translate(200.050313 12.118365) scale(0.12 -0.12)">
    <defs>
     <path id="DejaVuSans-44" d="M 1259 4147 
L 1259 519 
L 2022 519 
Q 2988 519 3436 956 
Q 3884 1394 3884 2338 
Q 3884 3275 3436 3711 
Q 2988 4147 2022 4147 
L 1259 4147 
z
M 628 4666 
L 1925 4666 
Q 3281 4666 3915 4102 
Q 4550 3538 4550 2338 
Q 4550 1131 3912 565 
Q 3275 0 1925 0 
L 628 0 
L 628 4666 
z
" transform="scale(0.015625)"/>
     <path id="DejaVuSans-65" d="M 3597 1894 
L 3597 1613 
L 953 1613 
Q 991 1019 1311 708 
Q 1631 397 2203 397 
Q 2534 397 2845 478 
Q 3156 559 3463 722 
L 3463 178 
Q 3153 47 2828 -22 
Q 2503 -91 2169 -91 
Q 1331 -91 842 396 
Q 353 884 353 1716 
Q 353 2575 817 3079 
Q 1281 3584 2069 3584 
Q 2775 3584 3186 3129 
Q 3597 2675 3597 1894 
z
M 3022 2063 
Q 3016 2534 2758 2815 
Q 2500 3097 2075 3097 
Q 1594 3097 1305 2825 
Q 1016 2553 972 2059 
L 3022 2063 
z
" transform="scale(0.015625)"/>
     <path id="DejaVuSans-6e" d="M 3513 2113 
L 3513 0 
L 2938 0 
L 2938 2094 
Q 2938 2591 2744 2837 
Q 2550 3084 2163 3084 
Q 1697 3084 1428 2787 
Q 1159 2491 1159 1978 
L 1159 0 
L 581 0 
L 581 3500 
L 1159 3500 
L 1159 2956 
Q 1366 3272 1645 3428 
Q 1925 3584 2291 3584 
Q 2894 3584 3203 3211 
Q 3513 2838 3513 2113 
z
" transform="scale(0.015625)"/>
     <path id="DejaVuSans-73" d="M 2834 3397 
L 2834 2853 
Q 2591 2978 2328 3040 
Q 2066 3103 1784 3103 
Q 1356 3103 1142 2972 
Q 928 2841 928 2578 
Q 928 2378 1081 2264 
Q 1234 2150 1697 2047 
L 1894 2003 
Q 2506 1872 2764 1633 
Q 3022 1394 3022 966 
Q 3022 478 2636 193 
Q 2250 -91 1575 -91 
Q 1294 -91 989 -36 
Q 684 19 347 128 
L 347 722 
Q 666 556 975 473 
Q 1284 391 1588 391 
Q 1994 391 2212 530 
Q 2431 669 2431 922 
Q 2431 1156 2273 1281 
Q 2116 1406 1581 1522 
L 1381 1569 
Q 847 1681 609 1914 
Q 372 2147 372 2553 
Q 372 3047 722 3315 
Q 1072 3584 1716 3584 
Q 2034 3584 2315 3537 
Q 2597 3491 2834 3397 
z
" transform="scale(0.015625)"/>
     <path id="DejaVuSans-69" d="M 603 3500 
L 1178 3500 
L 1178 0 
L 603 0 
L 603 3500 
z
M 603 4863 
L 1178 4863 
L 1178 4134 
L 603 4134 
L 603 4863 
z
" transform="scale(0.015625)"/>
     <path id="DejaVuSans-79" d="M 2059 -325 
Q 1816 -950 1584 -1140 
Q 1353 -1331 966 -1331 
L 506 -1331 
L 506 -850 
L 844 -850 
Q 1081 -850 1212 -737 
Q 1344 -625 1503 -206 
L 1606 56 
L 191 3500 
L 800 3500 
L 1894 763 
L 2988 3500 
L 3597 3500 
L 2059 -325 
z
" transform="scale(0.015625)"/>
     <path id="DejaVuSans-20" transform="scale(0.015625)"/>
     <path id="DejaVuSans-61" d="M 2194 1759 
Q 1497 1759 1228 1600 
Q 959 1441 959 1056 
Q 959 750 1161 570 
Q 1363 391 1709 391 
Q 2188 391 2477 730 
Q 2766 1069 2766 1631 
L 2766 1759 
L 2194 1759 
z
M 3341 1997 
L 3341 0 
L 2766 0 
L 2766 531 
Q 2569 213 2275 61 
Q 1981 -91 1556 -91 
Q 1019 -91 701 211 
Q 384 513 384 1019 
Q 384 1609 779 1909 
Q 1175 2209 1959 2209 
L 2766 2209 
L 2766 2266 
Q 2766 2663 2505 2880 
Q 2244 3097 1772 3097 
Q 1472 3097 1187 3025 
Q 903 2953 641 2809 
L 641 3341 
Q 956 3463 1253 3523 
Q 1550 3584 1831 3584 
Q 2591 3584 2966 3190 
Q 3341 2797 3341 1997 
z
" transform="scale(0.015625)"/>
     <path id="DejaVuSans-70" d="M 1159 525 
L 1159 -1331 
L 581 -1331 
L 581 3500 
L 1159 3500 
L 1159 2969 
Q 1341 3281 1617 3432 
Q 1894 3584 2278 3584 
Q 2916 3584 3314 3078 
Q 3713 2572 3713 1747 
Q 3713 922 3314 415 
Q 2916 -91 2278 -91 
Q 1894 -91 1617 61 
Q 1341 213 1159 525 
z
M 3116 1747 
Q 3116 2381 2855 2742 
Q 2594 3103 2138 3103 
Q 1681 3103 1420 2742 
Q 1159 2381 1159 1747 
Q 1159 1113 1420 752 
Q 1681 391 2138 391 
Q 2594 391 2855 752 
Q 3116 1113 3116 1747 
z
" transform="scale(0.015625)"/>
     <path id="DejaVuSans-68" d="M 3513 2113 
L 3513 0 
L 2938 0 
L 2938 2094 
Q 2938 2591 2744 2837 
Q 2550 3084 2163 3084 
Q 1697 3084 1428 2787 
Q 1159 2491 1159 1978 
L 1159 0 
L 581 0 
L 581 4863 
L 1159 4863 
L 1159 2956 
Q 1366 3272 1645 3428 
Q 1925 3584 2291 3584 
Q 2894 3584 3203 3211 
Q 3513 2838 3513 2113 
z
" transform="scale(0.015625)"/>
     <path id="DejaVuSans-6f" d="M 1959 3097 
Q 1497 3097 1228 2736 
Q 959 2375 959 1747 
Q 959 1119 1226 758 
Q 1494 397 1959 397 
Q 2419 397 2687 759 
Q 2956 1122 2956 1747 
Q 2956 2369 2687 2733 
Q 2419 3097 1959 3097 
z
M 1959 3584 
Q 2709 3584 3137 3096 
Q 3566 2609 3566 1747 
Q 3566 888 3137 398 
Q 2709 -91 1959 -91 
Q 1206 -91 779 398 
Q 353 888 353 1747 
Q 353 2609 779 3096 
Q 1206 3584 1959 3584 
z
" transform="scale(0.015625)"/>
     <path id="DejaVuSans-66" d="M 2375 4863 
L 2375 4384 
L 1825 4384 
Q 1516 4384 1395 4259 
Q 1275 4134 1275 3809 
L 1275 3500 
L 2222 3500 
L 2222 3053 
L 1275 3053 
L 1275 0 
L 697 0 
L 697 3053 
L 147 3053 
L 147 3500 
L 697 3500 
L 697 3744 
Q 697 4328 969 4595 
Q 1241 4863 1831 4863 
L 2375 4863 
z
" transform="scale(0.015625)"/>
     <path id="DejaVuSans-72" d="M 2631 2963 
Q 2534 3019 2420 3045 
Q 2306 3072 2169 3072 
Q 1681 3072 1420 2755 
Q 1159 2438 1159 1844 
L 1159 0 
L 581 0 
L 581 3500 
L 1159 3500 
L 1159 2956 
Q 1341 3275 1631 3429 
Q 1922 3584 2338 3584 
Q 2397 3584 2469 3576 
Q 2541 3569 2628 3553 
L 2631 2963 
z
" transform="scale(0.015625)"/>
     <path id="DejaVuSans-75" d="M 544 1381 
L 544 3500 
L 1119 3500 
L 1119 1403 
Q 1119 906 1312 657 
Q 1506 409 1894 409 
Q 2359 409 2629 706 
Q 2900 1003 2900 1516 
L 2900 3500 
L 3475 3500 
L 3475 0 
L 2900 0 
L 2900 538 
Q 2691 219 2414 64 
Q 2138 -91 1772 -91 
Q 1169 -91 856 284 
Q 544 659 544 1381 
z
M 1991 3584 
L 1991 3584 
z
" transform="scale(0.015625)"/>
     <path id="DejaVuSans-5f" d="M 3263 -1063 
L 3263 -1509 
L -63 -1509 
L -63 -1063 
L 3263 -1063 
z
" transform="scale(0.015625)"/>
     <path id="DejaVuSans-64" d="M 2906 2969 
L 2906 4863 
L 3481 4863 
L 3481 0 
L 2906 0 
L 2906 525 
Q 2725 213 2448 61 
Q 2172 -91 1784 -91 
Q 1150 -91 751 415 
Q 353 922 353 1747 
Q 353 2572 751 3078 
Q 1150 3584 1784 3584 
Q 2172 3584 2448 3432 
Q 2725 3281 2906 2969 
z
M 947 1747 
Q 947 1113 1208 752 
Q 1469 391 1925 391 
Q 2381 391 2643 752 
Q 2906 1113 2906 1747 
Q 2906 2381 2643 2742 
Q 2381 3103 1925 3103 
Q 1469 3103 1208 2742 
Q 947 2381 947 1747 
z
" transform="scale(0.015625)"/>
     <path id="DejaVuSans-5b" d="M 550 4863 
L 1875 4863 
L 1875 4416 
L 1125 4416 
L 1125 -397 
L 1875 -397 
L 1875 -844 
L 550 -844 
L 550 4863 
z
" transform="scale(0.015625)"/>
     <path id="DejaVuSans-63" d="M 3122 3366 
L 3122 2828 
Q 2878 2963 2633 3030 
Q 2388 3097 2138 3097 
Q 1578 3097 1268 2742 
Q 959 2388 959 1747 
Q 959 1106 1268 751 
Q 1578 397 2138 397 
Q 2388 397 2633 464 
Q 2878 531 3122 666 
L 3122 134 
Q 2881 22 2623 -34 
Q 2366 -91 2075 -91 
Q 1284 -91 818 406 
Q 353 903 353 1747 
Q 353 2603 823 3093 
Q 1294 3584 2113 3584 
Q 2378 3584 2631 3529 
Q 2884 3475 3122 3366 
z
" transform="scale(0.015625)"/>
     <path id="DejaVuSans-6d" d="M 3328 2828 
Q 3544 3216 3844 3400 
Q 4144 3584 4550 3584 
Q 5097 3584 5394 3201 
Q 5691 2819 5691 2113 
L 5691 0 
L 5113 0 
L 5113 2094 
Q 5113 2597 4934 2840 
Q 4756 3084 4391 3084 
Q 3944 3084 3684 2787 
Q 3425 2491 3425 1978 
L 3425 0 
L 2847 0 
L 2847 2094 
Q 2847 2600 2669 2842 
Q 2491 3084 2119 3084 
Q 1678 3084 1418 2786 
Q 1159 2488 1159 1978 
L 1159 0 
L 581 0 
L 581 3500 
L 1159 3500 
L 1159 2956 
Q 1356 3278 1631 3431 
Q 1906 3584 2284 3584 
Q 2666 3584 2933 3390 
Q 3200 3197 3328 2828 
z
" transform="scale(0.015625)"/>
     <path id="DejaVuSans-5d" d="M 1947 4863 
L 1947 -844 
L 622 -844 
L 622 -397 
L 1369 -397 
L 1369 4416 
L 622 4416 
L 622 4863 
L 1947 4863 
z
" transform="scale(0.015625)"/>
    </defs>
    <use xlink:href="#DejaVuSans-44"/>
    <use xlink:href="#DejaVuSans-65" x="77.001953"/>
    <use xlink:href="#DejaVuSans-6e" x="138.525391"/>
    <use xlink:href="#DejaVuSans-73" x="201.904297"/>
    <use xlink:href="#DejaVuSans-69" x="254.003906"/>
    <use xlink:href="#DejaVuSans-74" x="281.787109"/>
    <use xlink:href="#DejaVuSans-79" x="320.996094"/>
    <use xlink:href="#DejaVuSans-20" x="380.175781"/>
    <use xlink:href="#DejaVuSans-73" x="411.962891"/>
    <use xlink:href="#DejaVuSans-6e" x="464.0625"/>
    <use xlink:href="#DejaVuSans-61" x="527.441406"/>
    <use xlink:href="#DejaVuSans-70" x="588.720703"/>
    <use xlink:href="#DejaVuSans-73" x="652.197266"/>
    <use xlink:href="#DejaVuSans-68" x="704.296875"/>
    <use xlink:href="#DejaVuSans-6f" x="767.675781"/>
    <use xlink:href="#DejaVuSans-74" x="828.857422"/>
    <use xlink:href="#DejaVuSans-73" x="868.066406"/>
    <use xlink:href="#DejaVuSans-20" x="920.166016"/>
    <use xlink:href="#DejaVuSans-66" x="951.953125"/>
    <use xlink:href="#DejaVuSans-6f" x="987.158203"/>
    <use xlink:href="#DejaVuSans-72" x="1048.339844"/>
    <use xlink:href="#DejaVuSans-20" x="1089.453125"/>
    <use xlink:href="#DejaVuSans-75" x="1121.240234"/>
    <use xlink:href="#DejaVuSans-5f" x="1184.619141"/>
    <use xlink:href="#DejaVuSans-64" x="1234.619141"/>
    <use xlink:href="#DejaVuSans-3d" x="1298.095703"/>
    <use xlink:href="#DejaVuSans-30" x="1381.884766"/>
    <use xlink:href="#DejaVuSans-2e" x="1445.507812"/>
    <use xlink:href="#DejaVuSans-31" x="1477.294922"/>
    <use xlink:href="#DejaVuSans-2e" x="1540.917969"/>
    <use xlink:href="#DejaVuSans-2e" x="1572.705078"/>
    <use xlink:href="#DejaVuSans-31" x="1604.492188"/>
    <use xlink:href="#DejaVuSans-2e" x="1668.115234"/>
    <use xlink:href="#DejaVuSans-30" x="1699.902344"/>
    <use xlink:href="#DejaVuSans-20" x="1763.525391"/>
    <use xlink:href="#DejaVuSans-20" x="1795.3125"/>
    <use xlink:href="#DejaVuSans-5b" x="1827.099609"/>
    <use xlink:href="#DejaVuSans-75" x="1866.113281"/>
    <use xlink:href="#DejaVuSans-64" x="1929.492188"/>
    <use xlink:href="#DejaVuSans-5f" x="1992.96875"/>
    <use xlink:href="#DejaVuSans-63" x="2042.96875"/>
    <use xlink:href="#DejaVuSans-6f" x="2097.949219"/>
    <use xlink:href="#DejaVuSans-6d" x="2159.130859"/>
    <use xlink:href="#DejaVuSans-70" x="2256.542969"/>
    <use xlink:href="#DejaVuSans-61" x="2320.019531"/>
    <use xlink:href="#DejaVuSans-72" x="2381.298828"/>
    <use xlink:href="#DejaVuSans-69" x="2422.412109"/>
    <use xlink:href="#DejaVuSans-73" x="2450.195312"/>
    <use xlink:href="#DejaVuSans-6f" x="2502.294922"/>
    <use xlink:href="#DejaVuSans-6e" x="2563.476562"/>
    <use xlink:href="#DejaVuSans-5d" x="2626.855469"/>
   </g>
  </g>
 </g>
 <defs>
  <clipPath id="p1ec485eee0">
   <rect x="39.58149" y="20.94822" width="677.41827" height="92.450546"/>
  </clipPath>
  <clipPath id="p427618d3b1">
   <rect x="39.58149" y="123.905554" width="677.41827" height="92.450546"/>
  </clipPath>
  <clipPath id="p4300df2eea">
   <rect x="39.58149" y="226.684057" width="677.41827" height="92.450546"/>
  </clipPath>
  <clipPath id="p059721252a">
   <rect x="39.58149" y="329.299884" width="677.41827" height="92.450546"/>
  </clipPath>
  <clipPath id="pec528053e4">
   <rect x="39.58149" y="431.816531" width="677.41827" height="92.450546"/>
  </clipPath>
  <clipPath id="p646c76cb8f">
   <rect x="39.58149" y="534.243306" width="677.41827" height="92.450546"/>
  </clipPath>
  <clipPath id="p12e00d85f8">
   <rect x="39.58149" y="636.241939" width="677.41827" height="92.450546"/>
  </clipPath>
  <clipPath id="pb6a9022dab">
   <rect x="39.58149" y="738.192964" width="677.41827" height="92.450546"/>
  </clipPath>
 </defs>
</svg>
