<?xml version="1.0" encoding="utf-8" standalone="no"?>
<!DOCTYPE svg PUBLIC "-//W3C//DTD SVG 1.1//EN"
  "http://www.w3.org/Graphics/SVG/1.1/DTD/svg11.dtd">
<svg xmlns:xlink="http://www.w3.org/1999/xlink" width="720pt" height="864pt" viewBox="0 0 720 864" xmlns="http://www.w3.org/2000/svg" version="1.1">
 <metadata>
  <rdf:RDF xmlns:dc="http://purl.org/dc/elements/1.1/" xmlns:cc="http://creativecommons.org/ns#" xmlns:rdf="http://www.w3.org/1999/02/22-rdf-syntax-ns#">
   <cc:Work>
    <dc:type rdf:resource="http://purl.org/dc/dcmitype/StillImage"/>
    <dc:date>2025-09-17T02:21:29.729513</dc:date>
    <dc:format>image/svg+xml</dc:format>
    <dc:creator>
     <cc:Agent>
      <dc:title>Matplotlib v3.8.4, https://matplotlib.org/</dc:title>
     </cc:Agent>
    </dc:creator>
   </cc:Work>
  </rdf:RDF>
 </metadata>
 <defs>
  <style type="text/css">*{stroke-linejoin: round; stroke-linecap: butt}</style>
 </defs>
 <g id="figure_1">
  <g id="patch_1">
   <path d="M 0 864 
L 720 864 
L 720 0 
L 0 0 
z
" style="fill: #ffffff"/>
  </g>
  <g id="axes_1">
   <g id="patch_2">
    <path d="M 58.66899 147.229701 
L 716.99976 147.229701 
L 716.99976 20.94822 
L 58.66899 20.94822 
z
" style="fill: #ffffff"/>
   </g>
   <g id="matplotlib.axis_1">
    <g id="xtick_1">
     <g id="line2d_1">
      <defs>
       <path id="m3f5ab6e767" d="M 0 0 
L 0 3.5 
" style="stroke: #000000; stroke-width: 0.8"/>
      </defs>
      <g>
       <use xlink:href="#m3f5ab6e767" x="88.593116" y="147.229701" style="stroke: #000000; stroke-width: 0.8"/>
      </g>
     </g>
    </g>
    <g id="xtick_2">
     <g id="line2d_2">
      <g>
       <use xlink:href="#m3f5ab6e767" x="163.549831" y="147.229701" style="stroke: #000000; stroke-width: 0.8"/>
      </g>
     </g>
    </g>
    <g id="xtick_3">
     <g id="line2d_3">
      <g>
       <use xlink:href="#m3f5ab6e767" x="238.506545" y="147.229701" style="stroke: #000000; stroke-width: 0.8"/>
      </g>
     </g>
    </g>
    <g id="xtick_4">
     <g id="line2d_4">
      <g>
       <use xlink:href="#m3f5ab6e767" x="313.46326" y="147.229701" style="stroke: #000000; stroke-width: 0.8"/>
      </g>
     </g>
    </g>
    <g id="xtick_5">
     <g id="line2d_5">
      <g>
       <use xlink:href="#m3f5ab6e767" x="388.419974" y="147.229701" style="stroke: #000000; stroke-width: 0.8"/>
      </g>
     </g>
    </g>
    <g id="xtick_6">
     <g id="line2d_6">
      <g>
       <use xlink:href="#m3f5ab6e767" x="463.376689" y="147.229701" style="stroke: #000000; stroke-width: 0.8"/>
      </g>
     </g>
    </g>
    <g id="xtick_7">
     <g id="line2d_7">
      <g>
       <use xlink:href="#m3f5ab6e767" x="538.333404" y="147.229701" style="stroke: #000000; stroke-width: 0.8"/>
      </g>
     </g>
    </g>
    <g id="xtick_8">
     <g id="line2d_8">
      <g>
       <use xlink:href="#m3f5ab6e767" x="613.290118" y="147.229701" style="stroke: #000000; stroke-width: 0.8"/>
      </g>
     </g>
    </g>
    <g id="xtick_9">
     <g id="line2d_9">
      <g>
       <use xlink:href="#m3f5ab6e767" x="688.246833" y="147.229701" style="stroke: #000000; stroke-width: 0.8"/>
      </g>
     </g>
    </g>
   </g>
   <g id="matplotlib.axis_2">
    <g id="ytick_1">
     <g id="line2d_10">
      <defs>
       <path id="md232d3af1f" d="M 0 0 
L -3.5 0 
" style="stroke: #000000; stroke-width: 0.8"/>
      </defs>
      <g>
       <use xlink:href="#md232d3af1f" x="58.66899" y="145.092625" style="stroke: #000000; stroke-width: 0.8"/>
      </g>
     </g>
     <g id="text_1">
      <!-- 0.990 -->
      <g transform="translate(23.040865 148.891844) scale(0.1 -0.1)">
       <defs>
        <path id="DejaVuSans-30" d="M 2034 4250 
Q 1547 4250 1301 3770 
Q 1056 3291 1056 2328 
Q 1056 1369 1301 889 
Q 1547 409 2034 409 
Q 2525 409 2770 889 
Q 3016 1369 3016 2328 
Q 3016 3291 2770 3770 
Q 2525 4250 2034 4250 
z
M 2034 4750 
Q 2819 4750 3233 4129 
Q 3647 3509 3647 2328 
Q 3647 1150 3233 529 
Q 2819 -91 2034 -91 
Q 1250 -91 836 529 
Q 422 1150 422 2328 
Q 422 3509 836 4129 
Q 1250 4750 2034 4750 
z
" transform="scale(0.015625)"/>
        <path id="DejaVuSans-2e" d="M 684 794 
L 1344 794 
L 1344 0 
L 684 0 
L 684 794 
z
" transform="scale(0.015625)"/>
        <path id="DejaVuSans-39" d="M 703 97 
L 703 672 
Q 941 559 1184 500 
Q 1428 441 1663 441 
Q 2288 441 2617 861 
Q 2947 1281 2994 2138 
Q 2813 1869 2534 1725 
Q 2256 1581 1919 1581 
Q 1219 1581 811 2004 
Q 403 2428 403 3163 
Q 403 3881 828 4315 
Q 1253 4750 1959 4750 
Q 2769 4750 3195 4129 
Q 3622 3509 3622 2328 
Q 3622 1225 3098 567 
Q 2575 -91 1691 -91 
Q 1453 -91 1209 -44 
Q 966 3 703 97 
z
M 1959 2075 
Q 2384 2075 2632 2365 
Q 2881 2656 2881 3163 
Q 2881 3666 2632 3958 
Q 2384 4250 1959 4250 
Q 1534 4250 1286 3958 
Q 1038 3666 1038 3163 
Q 1038 2656 1286 2365 
Q 1534 2075 1959 2075 
z
" transform="scale(0.015625)"/>
       </defs>
       <use xlink:href="#DejaVuSans-30"/>
       <use xlink:href="#DejaVuSans-2e" x="63.623047"/>
       <use xlink:href="#DejaVuSans-39" x="95.410156"/>
       <use xlink:href="#DejaVuSans-39" x="159.033203"/>
       <use xlink:href="#DejaVuSans-30" x="222.65625"/>
      </g>
     </g>
    </g>
    <g id="ytick_2">
     <g id="line2d_11">
      <g>
       <use xlink:href="#md232d3af1f" x="58.66899" y="116.211974" style="stroke: #000000; stroke-width: 0.8"/>
      </g>
     </g>
     <g id="text_2">
      <!-- 0.995 -->
      <g transform="translate(23.040865 120.011193) scale(0.1 -0.1)">
       <defs>
        <path id="DejaVuSans-35" d="M 691 4666 
L 3169 4666 
L 3169 4134 
L 1269 4134 
L 1269 2991 
Q 1406 3038 1543 3061 
Q 1681 3084 1819 3084 
Q 2600 3084 3056 2656 
Q 3513 2228 3513 1497 
Q 3513 744 3044 326 
Q 2575 -91 1722 -91 
Q 1428 -91 1123 -41 
Q 819 9 494 109 
L 494 744 
Q 775 591 1075 516 
Q 1375 441 1709 441 
Q 2250 441 2565 725 
Q 2881 1009 2881 1497 
Q 2881 1984 2565 2268 
Q 2250 2553 1709 2553 
Q 1456 2553 1204 2497 
Q 953 2441 691 2322 
L 691 4666 
z
" transform="scale(0.015625)"/>
       </defs>
       <use xlink:href="#DejaVuSans-30"/>
       <use xlink:href="#DejaVuSans-2e" x="63.623047"/>
       <use xlink:href="#DejaVuSans-39" x="95.410156"/>
       <use xlink:href="#DejaVuSans-39" x="159.033203"/>
       <use xlink:href="#DejaVuSans-35" x="222.65625"/>
      </g>
     </g>
    </g>
    <g id="ytick_3">
     <g id="line2d_12">
      <g>
       <use xlink:href="#md232d3af1f" x="58.66899" y="87.331323" style="stroke: #000000; stroke-width: 0.8"/>
      </g>
     </g>
     <g id="text_3">
      <!-- 1.000 -->
      <g transform="translate(23.040865 91.130542) scale(0.1 -0.1)">
       <defs>
        <path id="DejaVuSans-31" d="M 794 531 
L 1825 531 
L 1825 4091 
L 703 3866 
L 703 4441 
L 1819 4666 
L 2450 4666 
L 2450 531 
L 3481 531 
L 3481 0 
L 794 0 
L 794 531 
z
" transform="scale(0.015625)"/>
       </defs>
       <use xlink:href="#DejaVuSans-31"/>
       <use xlink:href="#DejaVuSans-2e" x="63.623047"/>
       <use xlink:href="#DejaVuSans-30" x="95.410156"/>
       <use xlink:href="#DejaVuSans-30" x="159.033203"/>
       <use xlink:href="#DejaVuSans-30" x="222.65625"/>
      </g>
     </g>
    </g>
    <g id="ytick_4">
     <g id="line2d_13">
      <g>
       <use xlink:href="#md232d3af1f" x="58.66899" y="58.450672" style="stroke: #000000; stroke-width: 0.8"/>
      </g>
     </g>
     <g id="text_4">
      <!-- 1.005 -->
      <g transform="translate(23.040865 62.24989) scale(0.1 -0.1)">
       <use xlink:href="#DejaVuSans-31"/>
       <use xlink:href="#DejaVuSans-2e" x="63.623047"/>
       <use xlink:href="#DejaVuSans-30" x="95.410156"/>
       <use xlink:href="#DejaVuSans-30" x="159.033203"/>
       <use xlink:href="#DejaVuSans-35" x="222.65625"/>
      </g>
     </g>
    </g>
    <g id="ytick_5">
     <g id="line2d_14">
      <g>
       <use xlink:href="#md232d3af1f" x="58.66899" y="29.57002" style="stroke: #000000; stroke-width: 0.8"/>
      </g>
     </g>
     <g id="text_5">
      <!-- 1.010 -->
      <g transform="translate(23.040865 33.369239) scale(0.1 -0.1)">
       <use xlink:href="#DejaVuSans-31"/>
       <use xlink:href="#DejaVuSans-2e" x="63.623047"/>
       <use xlink:href="#DejaVuSans-30" x="95.410156"/>
       <use xlink:href="#DejaVuSans-31" x="159.033203"/>
       <use xlink:href="#DejaVuSans-30" x="222.65625"/>
      </g>
     </g>
    </g>
    <g id="text_6">
     <!-- $u_d=0.4$ -->
     <g transform="translate(16.961177 103.73896) rotate(-90) scale(0.1 -0.1)">
      <defs>
       <path id="DejaVuSans-Oblique-75" d="M 428 1388 
L 838 3500 
L 1416 3500 
L 1006 1409 
Q 975 1256 961 1147 
Q 947 1038 947 966 
Q 947 700 1109 554 
Q 1272 409 1569 409 
Q 2031 409 2368 721 
Q 2706 1034 2809 1563 
L 3194 3500 
L 3769 3500 
L 3091 0 
L 2516 0 
L 2631 550 
Q 2388 244 2052 76 
Q 1716 -91 1338 -91 
Q 878 -91 622 161 
Q 366 413 366 863 
Q 366 956 381 1097 
Q 397 1238 428 1388 
z
" transform="scale(0.015625)"/>
       <path id="DejaVuSans-Oblique-64" d="M 2675 525 
Q 2444 222 2128 65 
Q 1813 -91 1428 -91 
Q 903 -91 598 267 
Q 294 625 294 1247 
Q 294 1766 478 2236 
Q 663 2706 1013 3078 
Q 1244 3325 1534 3454 
Q 1825 3584 2144 3584 
Q 2481 3584 2739 3421 
Q 2997 3259 3138 2956 
L 3513 4863 
L 4091 4863 
L 3144 0 
L 2566 0 
L 2675 525 
z
M 891 1350 
Q 891 897 1095 644 
Q 1300 391 1663 391 
Q 1931 391 2161 520 
Q 2391 650 2566 903 
Q 2750 1166 2856 1509 
Q 2963 1853 2963 2188 
Q 2963 2622 2758 2865 
Q 2553 3109 2194 3109 
Q 1922 3109 1687 2981 
Q 1453 2853 1288 2613 
Q 1106 2353 998 2009 
Q 891 1666 891 1350 
z
" transform="scale(0.015625)"/>
       <path id="DejaVuSans-3d" d="M 678 2906 
L 4684 2906 
L 4684 2381 
L 678 2381 
L 678 2906 
z
M 678 1631 
L 4684 1631 
L 4684 1100 
L 678 1100 
L 678 1631 
z
" transform="scale(0.015625)"/>
       <path id="DejaVuSans-34" d="M 2419 4116 
L 825 1625 
L 2419 1625 
L 2419 4116 
z
M 2253 4666 
L 3047 4666 
L 3047 1625 
L 3713 1625 
L 3713 1100 
L 3047 1100 
L 3047 0 
L 2419 0 
L 2419 1100 
L 313 1100 
L 313 1709 
L 2253 4666 
z
" transform="scale(0.015625)"/>
      </defs>
      <use xlink:href="#DejaVuSans-Oblique-75" transform="translate(0 0.78125)"/>
      <use xlink:href="#DejaVuSans-Oblique-64" transform="translate(63.378906 -15.625) scale(0.7)"/>
      <use xlink:href="#DejaVuSans-3d" transform="translate(130.029297 0.78125)"/>
      <use xlink:href="#DejaVuSans-30" transform="translate(233.300781 0.78125)"/>
      <use xlink:href="#DejaVuSans-2e" transform="translate(296.923828 0.78125)"/>
      <use xlink:href="#DejaVuSans-34" transform="translate(328.710938 0.78125)"/>
     </g>
    </g>
   </g>
   <g id="line2d_15">
    <path d="M 88.593116 89.578018 
L 101.476301 82.102976 
L 108.503493 78.385853 
L 115.530685 74.732895 
L 119.044281 72.687453 
L 123.729076 69.701395 
L 126.071473 67.936884 
L 129.585069 65.149232 
L 137.78346 59.42856 
L 140.125857 58.255295 
L 142.468255 57.442022 
L 144.810652 56.947226 
L 147.153049 56.71098 
L 153.009043 56.380095 
L 154.180241 56.173636 
L 155.35144 55.848452 
L 156.522639 55.367663 
L 157.693837 54.695267 
L 158.865036 53.800477 
L 160.036235 52.661386 
L 161.207433 51.267607 
L 162.378632 49.621875 
L 163.549831 47.739509 
L 165.892228 43.379741 
L 171.748221 31.471882 
L 172.91942 29.564921 
L 174.090619 28.061053 
L 175.261817 27.06883 
L 176.433016 26.688287 
L 177.604215 27.006827 
L 178.775413 28.096033 
L 179.946612 30.009555 
L 181.117811 32.780699 
L 182.289009 36.419406 
L 183.460208 40.909704 
L 184.631406 46.207591 
L 185.802605 52.23964 
L 188.145002 66.072572 
L 195.172194 110.736389 
L 196.343393 116.989748 
L 197.514592 122.579811 
L 198.68579 127.444717 
L 199.856989 131.552206 
L 201.028188 134.897648 
L 202.199386 137.500886 
L 203.370585 139.401753 
L 204.541784 140.655252 
L 205.712982 141.327145 
L 206.884181 141.489634 
L 208.05538 141.217673 
L 209.226578 140.586252 
L 210.397777 139.667977 
L 211.568976 138.531237 
L 213.911373 135.847432 
L 218.596168 130.142919 
L 220.938565 127.587974 
L 223.280962 125.36437 
L 225.62336 123.484676 
L 227.965757 121.920919 
L 230.308154 120.615218 
L 233.82175 118.972429 
L 245.533737 113.843123 
L 250.218532 111.40707 
L 257.245724 107.435817 
L 271.300108 99.37055 
L 287.696889 90.036457 
L 301.751273 81.888831 
L 308.778465 78.186622 
L 315.805657 74.517527 
L 319.319253 72.446447 
L 324.004048 69.426286 
L 326.346445 67.620062 
L 329.860041 64.871263 
L 334.544836 61.564991 
L 336.887233 59.908502 
L 339.22963 58.60351 
L 341.572028 57.676093 
L 343.914425 57.079206 
L 346.256822 56.767324 
L 353.284014 56.322241 
L 354.455213 56.08023 
L 355.626412 55.707312 
L 356.79761 55.166492 
L 357.968809 54.423013 
L 359.140008 53.448691 
L 360.311206 52.225218 
L 361.482405 50.746494 
L 362.653604 49.019611 
L 364.996001 44.908353 
L 367.338398 40.167272 
L 370.851994 32.911866 
L 372.023193 30.798323 
L 373.194392 29.013356 
L 374.36559 27.668302 
L 375.536789 26.869409 
L 376.707988 26.712916 
L 377.879186 27.28123 
L 379.050385 28.640185 
L 380.221584 30.83697 
L 381.392782 33.897434 
L 382.563981 37.823135 
L 383.73518 42.588975 
L 384.906378 48.141189 
L 387.248776 61.244381 
L 389.591173 76.155578 
L 393.104769 99.102027 
L 395.447166 112.889497 
L 396.618365 118.930499 
L 397.789564 124.284222 
L 398.960762 128.898815 
L 400.131961 132.751506 
L 401.30316 135.846259 
L 402.474358 138.210119 
L 403.645557 139.888458 
L 404.816756 140.94037 
L 405.987954 141.434245 
L 407.159153 141.443527 
L 408.330352 141.043466 
L 409.50155 140.308543 
L 410.672749 139.310109 
L 413.015146 136.783589 
L 420.042338 128.404937 
L 422.384736 126.066992 
L 424.727133 124.074086 
L 427.06953 122.41009 
L 429.411928 121.02629 
L 432.925524 119.315782 
L 446.979908 113.058363 
L 452.835901 109.895813 
L 462.20549 104.482095 
L 475.088676 97.182674 
L 485.629464 91.17737 
L 503.197444 81.041485 
L 510.224636 77.391647 
L 516.080629 74.29968 
L 519.594225 72.20434 
L 523.107821 69.969282 
L 525.450218 68.248762 
L 528.963814 65.435266 
L 537.162205 59.662964 
L 539.504602 58.424286 
L 541.847 57.554549 
L 544.189397 57.00934 
L 546.531794 56.736856 
L 553.558986 56.253875 
L 554.730185 55.972308 
L 555.901384 55.547513 
L 557.072582 54.942744 
L 558.243781 54.125005 
L 559.41498 53.069118 
L 560.586178 51.760599 
L 561.757377 50.197727 
L 562.928576 48.391838 
L 565.270973 44.152137 
L 568.784569 36.8692 
L 571.126966 32.177756 
L 572.298165 30.161295 
L 573.469364 28.510722 
L 574.640562 27.336332 
L 575.811761 26.741485 
L 576.98296 26.818197 
L 578.154158 27.64362 
L 579.325357 29.277609 
L 580.496556 31.760559 
L 581.667754 35.110532 
L 582.838953 39.320448 
L 584.010152 44.35584 
L 585.18135 50.153119 
L 587.523748 63.635776 
L 591.037344 86.477658 
L 593.379741 101.529473 
L 595.722138 114.975058 
L 596.893337 120.794593 
L 598.064535 125.906247 
L 599.235734 130.268028 
L 600.406933 133.866402 
L 601.578131 136.713517 
L 602.74933 138.843056 
L 603.920529 140.305463 
L 605.091727 141.163428 
L 606.262926 141.487467 
L 607.434125 141.35194 
L 608.605323 140.832108 
L 609.776522 140.001619 
L 610.947721 138.93042 
L 613.290118 136.319146 
L 619.146111 129.257466 
L 621.488509 126.808338 
L 623.830906 124.700281 
L 626.173303 122.930624 
L 628.515701 121.460559 
L 630.858098 120.224353 
L 634.371694 118.636754 
L 643.741283 114.595783 
L 648.426078 112.244791 
L 654.282071 109.011345 
L 687.075634 90.265227 
L 687.075634 90.265227 
" clip-path="url(#p476c07342e)" style="fill: none; stroke: #1f77b4; stroke-width: 1.5; stroke-linecap: square"/>
   </g>
   <g id="patch_3">
    <path d="M 58.66899 147.229701 
L 58.66899 20.94822 
" style="fill: none; stroke: #000000; stroke-width: 0.8; stroke-linejoin: miter; stroke-linecap: square"/>
   </g>
   <g id="patch_4">
    <path d="M 716.99976 147.229701 
L 716.99976 20.94822 
" style="fill: none; stroke: #000000; stroke-width: 0.8; stroke-linejoin: miter; stroke-linecap: square"/>
   </g>
   <g id="patch_5">
    <path d="M 58.66899 147.229701 
L 716.99976 147.229701 
" style="fill: none; stroke: #000000; stroke-width: 0.8; stroke-linejoin: miter; stroke-linecap: square"/>
   </g>
   <g id="patch_6">
    <path d="M 58.66899 20.94822 
L 716.99976 20.94822 
" style="fill: none; stroke: #000000; stroke-width: 0.8; stroke-linejoin: miter; stroke-linecap: square"/>
   </g>
   <g id="legend_1">
    <g id="patch_7">
     <path d="M 658.14726 39.09072 
L 711.39976 39.09072 
Q 712.99976 39.09072 712.99976 37.49072 
L 712.99976 26.54822 
Q 712.99976 24.94822 711.39976 24.94822 
L 658.14726 24.94822 
Q 656.54726 24.94822 656.54726 26.54822 
L 656.54726 37.49072 
Q 656.54726 39.09072 658.14726 39.09072 
z
" style="fill: #ffffff; opacity: 0.8; stroke: #cccccc; stroke-linejoin: miter"/>
    </g>
    <g id="line2d_16">
     <path d="M 659.74726 31.42697 
L 667.74726 31.42697 
L 675.74726 31.42697 
" style="fill: none; stroke: #1f77b4; stroke-width: 1.5; stroke-linecap: square"/>
    </g>
    <g id="text_7">
     <!-- t=25.0 -->
     <g transform="translate(682.14726 34.22697) scale(0.08 -0.08)">
      <defs>
       <path id="DejaVuSans-74" d="M 1172 4494 
L 1172 3500 
L 2356 3500 
L 2356 3053 
L 1172 3053 
L 1172 1153 
Q 1172 725 1289 603 
Q 1406 481 1766 481 
L 2356 481 
L 2356 0 
L 1766 0 
Q 1100 0 847 248 
Q 594 497 594 1153 
L 594 3053 
L 172 3053 
L 172 3500 
L 594 3500 
L 594 4494 
L 1172 4494 
z
" transform="scale(0.015625)"/>
       <path id="DejaVuSans-32" d="M 1228 531 
L 3431 531 
L 3431 0 
L 469 0 
L 469 531 
Q 828 903 1448 1529 
Q 2069 2156 2228 2338 
Q 2531 2678 2651 2914 
Q 2772 3150 2772 3378 
Q 2772 3750 2511 3984 
Q 2250 4219 1831 4219 
Q 1534 4219 1204 4116 
Q 875 4013 500 3803 
L 500 4441 
Q 881 4594 1212 4672 
Q 1544 4750 1819 4750 
Q 2544 4750 2975 4387 
Q 3406 4025 3406 3419 
Q 3406 3131 3298 2873 
Q 3191 2616 2906 2266 
Q 2828 2175 2409 1742 
Q 1991 1309 1228 531 
z
" transform="scale(0.015625)"/>
      </defs>
      <use xlink:href="#DejaVuSans-74"/>
      <use xlink:href="#DejaVuSans-3d" x="39.208984"/>
      <use xlink:href="#DejaVuSans-32" x="122.998047"/>
      <use xlink:href="#DejaVuSans-35" x="186.621094"/>
      <use xlink:href="#DejaVuSans-2e" x="250.244141"/>
      <use xlink:href="#DejaVuSans-30" x="282.03125"/>
     </g>
    </g>
   </g>
  </g>
  <g id="axes_2">
   <g id="patch_8">
    <path d="M 58.66899 283.253423 
L 716.99976 283.253423 
L 716.99976 156.971942 
L 58.66899 156.971942 
z
" style="fill: #ffffff"/>
   </g>
   <g id="matplotlib.axis_3">
    <g id="xtick_10">
     <g id="line2d_17">
      <g>
       <use xlink:href="#m3f5ab6e767" x="88.593116" y="283.253423" style="stroke: #000000; stroke-width: 0.8"/>
      </g>
     </g>
    </g>
    <g id="xtick_11">
     <g id="line2d_18">
      <g>
       <use xlink:href="#m3f5ab6e767" x="163.549831" y="283.253423" style="stroke: #000000; stroke-width: 0.8"/>
      </g>
     </g>
    </g>
    <g id="xtick_12">
     <g id="line2d_19">
      <g>
       <use xlink:href="#m3f5ab6e767" x="238.506545" y="283.253423" style="stroke: #000000; stroke-width: 0.8"/>
      </g>
     </g>
    </g>
    <g id="xtick_13">
     <g id="line2d_20">
      <g>
       <use xlink:href="#m3f5ab6e767" x="313.46326" y="283.253423" style="stroke: #000000; stroke-width: 0.8"/>
      </g>
     </g>
    </g>
    <g id="xtick_14">
     <g id="line2d_21">
      <g>
       <use xlink:href="#m3f5ab6e767" x="388.419974" y="283.253423" style="stroke: #000000; stroke-width: 0.8"/>
      </g>
     </g>
    </g>
    <g id="xtick_15">
     <g id="line2d_22">
      <g>
       <use xlink:href="#m3f5ab6e767" x="463.376689" y="283.253423" style="stroke: #000000; stroke-width: 0.8"/>
      </g>
     </g>
    </g>
    <g id="xtick_16">
     <g id="line2d_23">
      <g>
       <use xlink:href="#m3f5ab6e767" x="538.333404" y="283.253423" style="stroke: #000000; stroke-width: 0.8"/>
      </g>
     </g>
    </g>
    <g id="xtick_17">
     <g id="line2d_24">
      <g>
       <use xlink:href="#m3f5ab6e767" x="613.290118" y="283.253423" style="stroke: #000000; stroke-width: 0.8"/>
      </g>
     </g>
    </g>
    <g id="xtick_18">
     <g id="line2d_25">
      <g>
       <use xlink:href="#m3f5ab6e767" x="688.246833" y="283.253423" style="stroke: #000000; stroke-width: 0.8"/>
      </g>
     </g>
    </g>
   </g>
   <g id="matplotlib.axis_4">
    <g id="ytick_6">
     <g id="line2d_26">
      <g>
       <use xlink:href="#md232d3af1f" x="58.66899" y="258.078636" style="stroke: #000000; stroke-width: 0.8"/>
      </g>
     </g>
     <g id="text_8">
      <!-- 0.995 -->
      <g transform="translate(23.040865 261.877855) scale(0.1 -0.1)">
       <use xlink:href="#DejaVuSans-30"/>
       <use xlink:href="#DejaVuSans-2e" x="63.623047"/>
       <use xlink:href="#DejaVuSans-39" x="95.410156"/>
       <use xlink:href="#DejaVuSans-39" x="159.033203"/>
       <use xlink:href="#DejaVuSans-35" x="222.65625"/>
      </g>
     </g>
    </g>
    <g id="ytick_7">
     <g id="line2d_27">
      <g>
       <use xlink:href="#md232d3af1f" x="58.66899" y="223.365438" style="stroke: #000000; stroke-width: 0.8"/>
      </g>
     </g>
     <g id="text_9">
      <!-- 1.000 -->
      <g transform="translate(23.040865 227.164656) scale(0.1 -0.1)">
       <use xlink:href="#DejaVuSans-31"/>
       <use xlink:href="#DejaVuSans-2e" x="63.623047"/>
       <use xlink:href="#DejaVuSans-30" x="95.410156"/>
       <use xlink:href="#DejaVuSans-30" x="159.033203"/>
       <use xlink:href="#DejaVuSans-30" x="222.65625"/>
      </g>
     </g>
    </g>
    <g id="ytick_8">
     <g id="line2d_28">
      <g>
       <use xlink:href="#md232d3af1f" x="58.66899" y="188.652239" style="stroke: #000000; stroke-width: 0.8"/>
      </g>
     </g>
     <g id="text_10">
      <!-- 1.005 -->
      <g transform="translate(23.040865 192.451458) scale(0.1 -0.1)">
       <use xlink:href="#DejaVuSans-31"/>
       <use xlink:href="#DejaVuSans-2e" x="63.623047"/>
       <use xlink:href="#DejaVuSans-30" x="95.410156"/>
       <use xlink:href="#DejaVuSans-30" x="159.033203"/>
       <use xlink:href="#DejaVuSans-35" x="222.65625"/>
      </g>
     </g>
    </g>
    <g id="text_11">
     <!-- $u_d=0.4$ -->
     <g transform="translate(16.961177 239.762683) rotate(-90) scale(0.1 -0.1)">
      <use xlink:href="#DejaVuSans-Oblique-75" transform="translate(0 0.78125)"/>
      <use xlink:href="#DejaVuSans-Oblique-64" transform="translate(63.378906 -15.625) scale(0.7)"/>
      <use xlink:href="#DejaVuSans-3d" transform="translate(130.029297 0.78125)"/>
      <use xlink:href="#DejaVuSans-30" transform="translate(233.300781 0.78125)"/>
      <use xlink:href="#DejaVuSans-2e" transform="translate(296.923828 0.78125)"/>
      <use xlink:href="#DejaVuSans-34" transform="translate(328.710938 0.78125)"/>
     </g>
    </g>
   </g>
   <g id="line2d_29">
    <path d="M 88.593116 248.627575 
L 97.962705 244.281589 
L 102.6475 241.843901 
L 108.503493 238.517067 
L 127.242672 227.542406 
L 141.297056 219.729535 
L 145.981851 216.711146 
L 150.666645 213.375313 
L 162.378632 204.744417 
L 164.721029 203.28928 
L 167.063427 202.028995 
L 169.405824 200.987922 
L 171.748221 200.168846 
L 174.090619 199.554805 
L 176.433016 199.126578 
L 181.117811 198.377889 
L 185.802605 197.557757 
L 186.973804 197.182455 
L 188.145002 196.635496 
L 189.316201 195.917204 
L 191.658598 194.0569 
L 194.000996 191.705444 
L 196.343393 188.789875 
L 198.68579 185.247007 
L 201.028188 181.161658 
L 206.884181 170.276186 
L 209.226578 166.613928 
L 210.397777 165.137507 
L 211.568976 163.967515 
L 212.740174 163.155088 
L 213.911373 162.749096 
L 215.082572 162.794606 
L 216.25377 163.330815 
L 217.424969 164.389256 
L 218.596168 165.992552 
L 219.767366 168.153844 
L 220.938565 170.876958 
L 222.109764 174.156508 
L 223.280962 177.977268 
L 224.452161 182.312945 
L 226.794558 192.359768 
L 229.136956 203.824874 
L 236.164148 240.103816 
L 238.506545 250.681211 
L 240.848942 259.686341 
L 242.020141 263.510262 
L 243.19134 266.856094 
L 244.362538 269.718064 
L 245.533737 272.100256 
L 246.704936 274.015422 
L 247.876134 275.483588 
L 249.047333 276.530651 
L 250.218532 277.187081 
L 251.38973 277.486641 
L 252.560929 277.46534 
L 253.732128 277.160506 
L 254.903326 276.609789 
L 256.074525 275.850312 
L 258.416922 273.846335 
L 260.75932 271.407756 
L 270.128909 260.93523 
L 272.471306 258.687229 
L 274.813704 256.678654 
L 277.156101 254.90167 
L 279.498498 253.33237 
L 283.012094 251.297189 
L 286.52569 249.535415 
L 300.580074 242.886552 
L 306.436068 239.65522 
L 313.46326 235.474346 
L 322.832849 229.940556 
L 331.03124 225.42121 
L 339.22963 220.892945 
L 343.914425 218.009477 
L 348.59922 214.799447 
L 354.455213 210.431551 
L 360.311206 206.076216 
L 363.824802 203.754478 
L 366.1672 202.425476 
L 368.509597 201.309974 
L 370.851994 200.417994 
L 373.194392 199.737911 
L 375.536789 199.250664 
L 384.906378 197.730182 
L 386.077577 197.450167 
L 387.248776 197.019917 
L 388.419974 196.414219 
L 389.591173 195.64348 
L 391.93357 193.69942 
L 394.275968 191.261751 
L 396.618365 188.242692 
L 398.960762 184.599216 
L 401.30316 180.442146 
L 407.159153 169.613163 
L 408.330352 167.742612 
L 409.50155 166.090959 
L 410.672749 164.710919 
L 411.843948 163.654516 
L 413.015146 162.972262 
L 414.186345 162.71201 
L 415.357544 162.91708 
L 416.528742 163.624284 
L 417.699941 164.862295 
L 418.87114 166.650601 
L 420.042338 168.999195 
L 421.213537 171.908845 
L 422.384736 175.370991 
L 423.555934 179.366893 
L 424.727133 183.866238 
L 427.06953 194.187815 
L 429.411928 205.830065 
L 436.43912 241.959669 
L 438.781517 252.300467 
L 441.123914 261.013288 
L 442.295113 264.679138 
L 443.466312 267.863827 
L 444.63751 270.564965 
L 445.808709 272.789669 
L 446.979908 274.5533 
L 448.151106 275.877977 
L 449.322305 276.791257 
L 450.493504 277.324836 
L 451.664702 277.513356 
L 452.835901 277.393369 
L 454.0071 277.002399 
L 455.178298 276.378021 
L 456.349497 275.557016 
L 458.691894 273.46371 
L 461.034292 270.974823 
L 469.232682 261.735427 
L 471.57508 259.410248 
L 473.917477 257.32162 
L 476.259874 255.469537 
L 478.602272 253.834249 
L 482.115868 251.721356 
L 485.629464 249.909859 
L 491.485457 247.215058 
L 497.34145 244.474613 
L 502.026245 242.055381 
L 507.882238 238.746672 
L 527.792616 227.114742 
L 539.504602 220.66422 
L 544.189397 217.754476 
L 548.874192 214.518154 
L 554.730185 210.134117 
L 560.586178 205.802664 
L 564.099774 203.519243 
L 566.442172 202.2242 
L 568.784569 201.14582 
L 571.126966 200.290528 
L 573.469364 199.643715 
L 575.811761 199.186625 
L 581.667754 198.232384 
L 585.18135 197.650284 
L 586.352549 197.325565 
L 587.523748 196.837563 
L 588.694946 196.174456 
L 591.037344 194.401298 
L 593.379741 192.133367 
L 595.722138 189.319257 
L 598.064535 185.879435 
L 600.406933 181.872116 
L 607.434125 168.968605 
L 608.605323 167.165133 
L 609.776522 165.598162 
L 610.947721 164.320275 
L 612.118919 163.383088 
L 613.290118 162.836371 
L 614.461317 162.726693 
L 615.632515 163.095437 
L 616.803714 163.976834 
L 617.974913 165.396572 
L 619.146111 167.370979 
L 620.31731 169.90696 
L 621.488509 173.002216 
L 622.659707 176.644904 
L 623.830906 180.812606 
L 626.173303 190.571498 
L 628.515701 201.841352 
L 636.714091 243.781135 
L 639.056489 253.874146 
L 640.227687 258.307979 
L 641.398886 262.288138 
L 642.570085 265.794491 
L 643.741283 268.817778 
L 644.912482 271.35888 
L 646.083681 273.427818 
L 647.254879 275.042367 
L 648.426078 276.226614 
L 649.597277 277.009642 
L 650.768475 277.424241 
L 651.939674 277.505792 
L 653.110873 277.291296 
L 654.282071 276.818378 
L 655.45327 276.124422 
L 656.624469 275.245778 
L 658.966866 273.070191 
L 661.309263 270.536744 
L 669.507654 261.332311 
L 671.850051 259.045394 
L 674.192449 256.996867 
L 676.534846 255.18264 
L 678.877243 253.580774 
L 682.390839 251.507507 
L 685.904435 249.721649 
L 687.075634 249.16814 
L 687.075634 249.16814 
" clip-path="url(#p6ac01470f7)" style="fill: none; stroke: #1f77b4; stroke-width: 1.5; stroke-linecap: square"/>
   </g>
   <g id="patch_9">
    <path d="M 58.66899 283.253423 
L 58.66899 156.971942 
" style="fill: none; stroke: #000000; stroke-width: 0.8; stroke-linejoin: miter; stroke-linecap: square"/>
   </g>
   <g id="patch_10">
    <path d="M 716.99976 283.253423 
L 716.99976 156.971942 
" style="fill: none; stroke: #000000; stroke-width: 0.8; stroke-linejoin: miter; stroke-linecap: square"/>
   </g>
   <g id="patch_11">
    <path d="M 58.66899 283.253423 
L 716.99976 283.253423 
" style="fill: none; stroke: #000000; stroke-width: 0.8; stroke-linejoin: miter; stroke-linecap: square"/>
   </g>
   <g id="patch_12">
    <path d="M 58.66899 156.971942 
L 716.99976 156.971942 
" style="fill: none; stroke: #000000; stroke-width: 0.8; stroke-linejoin: miter; stroke-linecap: square"/>
   </g>
   <g id="legend_2">
    <g id="patch_13">
     <path d="M 658.14726 175.114442 
L 711.39976 175.114442 
Q 712.99976 175.114442 712.99976 173.514442 
L 712.99976 162.571942 
Q 712.99976 160.971942 711.39976 160.971942 
L 658.14726 160.971942 
Q 656.54726 160.971942 656.54726 162.571942 
L 656.54726 173.514442 
Q 656.54726 175.114442 658.14726 175.114442 
z
" style="fill: #ffffff; opacity: 0.8; stroke: #cccccc; stroke-linejoin: miter"/>
    </g>
    <g id="line2d_30">
     <path d="M 659.74726 167.450692 
L 667.74726 167.450692 
L 675.74726 167.450692 
" style="fill: none; stroke: #1f77b4; stroke-width: 1.5; stroke-linecap: square"/>
    </g>
    <g id="text_12">
     <!-- t=25.0 -->
     <g transform="translate(682.14726 170.250692) scale(0.08 -0.08)">
      <use xlink:href="#DejaVuSans-74"/>
      <use xlink:href="#DejaVuSans-3d" x="39.208984"/>
      <use xlink:href="#DejaVuSans-32" x="122.998047"/>
      <use xlink:href="#DejaVuSans-35" x="186.621094"/>
      <use xlink:href="#DejaVuSans-2e" x="250.244141"/>
      <use xlink:href="#DejaVuSans-30" x="282.03125"/>
     </g>
    </g>
   </g>
  </g>
  <g id="axes_3">
   <g id="patch_14">
    <path d="M 58.66899 420.670425 
L 716.99976 420.670425 
L 716.99976 294.388944 
L 58.66899 294.388944 
z
" style="fill: #ffffff"/>
   </g>
   <g id="matplotlib.axis_5">
    <g id="xtick_19">
     <g id="line2d_31">
      <g>
       <use xlink:href="#m3f5ab6e767" x="88.593116" y="420.670425" style="stroke: #000000; stroke-width: 0.8"/>
      </g>
     </g>
    </g>
    <g id="xtick_20">
     <g id="line2d_32">
      <g>
       <use xlink:href="#m3f5ab6e767" x="163.549831" y="420.670425" style="stroke: #000000; stroke-width: 0.8"/>
      </g>
     </g>
    </g>
    <g id="xtick_21">
     <g id="line2d_33">
      <g>
       <use xlink:href="#m3f5ab6e767" x="238.506545" y="420.670425" style="stroke: #000000; stroke-width: 0.8"/>
      </g>
     </g>
    </g>
    <g id="xtick_22">
     <g id="line2d_34">
      <g>
       <use xlink:href="#m3f5ab6e767" x="313.46326" y="420.670425" style="stroke: #000000; stroke-width: 0.8"/>
      </g>
     </g>
    </g>
    <g id="xtick_23">
     <g id="line2d_35">
      <g>
       <use xlink:href="#m3f5ab6e767" x="388.419974" y="420.670425" style="stroke: #000000; stroke-width: 0.8"/>
      </g>
     </g>
    </g>
    <g id="xtick_24">
     <g id="line2d_36">
      <g>
       <use xlink:href="#m3f5ab6e767" x="463.376689" y="420.670425" style="stroke: #000000; stroke-width: 0.8"/>
      </g>
     </g>
    </g>
    <g id="xtick_25">
     <g id="line2d_37">
      <g>
       <use xlink:href="#m3f5ab6e767" x="538.333404" y="420.670425" style="stroke: #000000; stroke-width: 0.8"/>
      </g>
     </g>
    </g>
    <g id="xtick_26">
     <g id="line2d_38">
      <g>
       <use xlink:href="#m3f5ab6e767" x="613.290118" y="420.670425" style="stroke: #000000; stroke-width: 0.8"/>
      </g>
     </g>
    </g>
    <g id="xtick_27">
     <g id="line2d_39">
      <g>
       <use xlink:href="#m3f5ab6e767" x="688.246833" y="420.670425" style="stroke: #000000; stroke-width: 0.8"/>
      </g>
     </g>
    </g>
   </g>
   <g id="matplotlib.axis_6">
    <g id="ytick_9">
     <g id="line2d_40">
      <g>
       <use xlink:href="#md232d3af1f" x="58.66899" y="403.541363" style="stroke: #000000; stroke-width: 0.8"/>
      </g>
     </g>
     <g id="text_13">
      <!-- 0.9950 -->
      <g transform="translate(16.678365 407.340582) scale(0.1 -0.1)">
       <use xlink:href="#DejaVuSans-30"/>
       <use xlink:href="#DejaVuSans-2e" x="63.623047"/>
       <use xlink:href="#DejaVuSans-39" x="95.410156"/>
       <use xlink:href="#DejaVuSans-39" x="159.033203"/>
       <use xlink:href="#DejaVuSans-35" x="222.65625"/>
       <use xlink:href="#DejaVuSans-30" x="286.279297"/>
      </g>
     </g>
    </g>
    <g id="ytick_10">
     <g id="line2d_41">
      <g>
       <use xlink:href="#md232d3af1f" x="58.66899" y="382.143701" style="stroke: #000000; stroke-width: 0.8"/>
      </g>
     </g>
     <g id="text_14">
      <!-- 0.9975 -->
      <g transform="translate(16.678365 385.94292) scale(0.1 -0.1)">
       <defs>
        <path id="DejaVuSans-37" d="M 525 4666 
L 3525 4666 
L 3525 4397 
L 1831 0 
L 1172 0 
L 2766 4134 
L 525 4134 
L 525 4666 
z
" transform="scale(0.015625)"/>
       </defs>
       <use xlink:href="#DejaVuSans-30"/>
       <use xlink:href="#DejaVuSans-2e" x="63.623047"/>
       <use xlink:href="#DejaVuSans-39" x="95.410156"/>
       <use xlink:href="#DejaVuSans-39" x="159.033203"/>
       <use xlink:href="#DejaVuSans-37" x="222.65625"/>
       <use xlink:href="#DejaVuSans-35" x="286.279297"/>
      </g>
     </g>
    </g>
    <g id="ytick_11">
     <g id="line2d_42">
      <g>
       <use xlink:href="#md232d3af1f" x="58.66899" y="360.746039" style="stroke: #000000; stroke-width: 0.8"/>
      </g>
     </g>
     <g id="text_15">
      <!-- 1.0000 -->
      <g transform="translate(16.678365 364.545257) scale(0.1 -0.1)">
       <use xlink:href="#DejaVuSans-31"/>
       <use xlink:href="#DejaVuSans-2e" x="63.623047"/>
       <use xlink:href="#DejaVuSans-30" x="95.410156"/>
       <use xlink:href="#DejaVuSans-30" x="159.033203"/>
       <use xlink:href="#DejaVuSans-30" x="222.65625"/>
       <use xlink:href="#DejaVuSans-30" x="286.279297"/>
      </g>
     </g>
    </g>
    <g id="ytick_12">
     <g id="line2d_43">
      <g>
       <use xlink:href="#md232d3af1f" x="58.66899" y="339.348376" style="stroke: #000000; stroke-width: 0.8"/>
      </g>
     </g>
     <g id="text_16">
      <!-- 1.0025 -->
      <g transform="translate(16.678365 343.147595) scale(0.1 -0.1)">
       <use xlink:href="#DejaVuSans-31"/>
       <use xlink:href="#DejaVuSans-2e" x="63.623047"/>
       <use xlink:href="#DejaVuSans-30" x="95.410156"/>
       <use xlink:href="#DejaVuSans-30" x="159.033203"/>
       <use xlink:href="#DejaVuSans-32" x="222.65625"/>
       <use xlink:href="#DejaVuSans-35" x="286.279297"/>
      </g>
     </g>
    </g>
    <g id="ytick_13">
     <g id="line2d_44">
      <g>
       <use xlink:href="#md232d3af1f" x="58.66899" y="317.950714" style="stroke: #000000; stroke-width: 0.8"/>
      </g>
     </g>
     <g id="text_17">
      <!-- 1.0050 -->
      <g transform="translate(16.678365 321.749933) scale(0.1 -0.1)">
       <use xlink:href="#DejaVuSans-31"/>
       <use xlink:href="#DejaVuSans-2e" x="63.623047"/>
       <use xlink:href="#DejaVuSans-30" x="95.410156"/>
       <use xlink:href="#DejaVuSans-30" x="159.033203"/>
       <use xlink:href="#DejaVuSans-35" x="222.65625"/>
       <use xlink:href="#DejaVuSans-30" x="286.279297"/>
      </g>
     </g>
    </g>
    <g id="ytick_14">
     <g id="line2d_45">
      <g>
       <use xlink:href="#md232d3af1f" x="58.66899" y="296.553052" style="stroke: #000000; stroke-width: 0.8"/>
      </g>
     </g>
     <g id="text_18">
      <!-- 1.0075 -->
      <g transform="translate(16.678365 300.352271) scale(0.1 -0.1)">
       <use xlink:href="#DejaVuSans-31"/>
       <use xlink:href="#DejaVuSans-2e" x="63.623047"/>
       <use xlink:href="#DejaVuSans-30" x="95.410156"/>
       <use xlink:href="#DejaVuSans-30" x="159.033203"/>
       <use xlink:href="#DejaVuSans-37" x="222.65625"/>
       <use xlink:href="#DejaVuSans-35" x="286.279297"/>
      </g>
     </g>
    </g>
    <g id="text_19">
     <!-- $u_d=0.4$ -->
     <g transform="translate(10.598677 377.179684) rotate(-90) scale(0.1 -0.1)">
      <use xlink:href="#DejaVuSans-Oblique-75" transform="translate(0 0.78125)"/>
      <use xlink:href="#DejaVuSans-Oblique-64" transform="translate(63.378906 -15.625) scale(0.7)"/>
      <use xlink:href="#DejaVuSans-3d" transform="translate(130.029297 0.78125)"/>
      <use xlink:href="#DejaVuSans-30" transform="translate(233.300781 0.78125)"/>
      <use xlink:href="#DejaVuSans-2e" transform="translate(296.923828 0.78125)"/>
      <use xlink:href="#DejaVuSans-34" transform="translate(328.710938 0.78125)"/>
     </g>
    </g>
   </g>
   <g id="line2d_46">
    <path d="M 88.593116 406.718035 
L 89.764315 408.677114 
L 90.935513 410.353232 
L 92.106712 411.75261 
L 93.277911 412.883248 
L 94.449109 413.754552 
L 95.620308 414.377096 
L 96.791507 414.762598 
L 97.962705 414.923972 
L 99.133904 414.875289 
L 100.305103 414.631785 
L 101.476301 414.209742 
L 102.6475 413.626205 
L 104.989897 412.044755 
L 107.332295 410.026125 
L 109.674692 407.699818 
L 113.188288 403.877775 
L 120.21548 396.076959 
L 123.729076 392.480938 
L 127.242672 389.227726 
L 130.756268 386.359648 
L 134.269864 383.882249 
L 137.78346 381.755236 
L 141.297056 379.889768 
L 148.324248 376.507977 
L 154.180241 373.632948 
L 158.865036 371.075664 
L 162.378632 368.929922 
L 165.892228 366.568606 
L 170.577023 363.132805 
L 182.289009 354.312013 
L 185.802605 352.00595 
L 189.316201 350.015512 
L 192.829797 348.389351 
L 196.343393 347.104369 
L 198.68579 346.451557 
L 204.541784 345.114726 
L 208.05538 344.173665 
L 211.568976 343.438324 
L 212.740174 343.061444 
L 213.911373 342.558896 
L 216.25377 341.193122 
L 218.596168 339.462001 
L 220.938565 337.42424 
L 223.280962 335.022492 
L 225.62336 332.198164 
L 227.965757 328.955162 
L 230.308154 325.349003 
L 233.82175 319.468469 
L 238.506545 311.517112 
L 240.848942 307.889932 
L 243.19134 304.731316 
L 244.362538 303.387464 
L 245.533737 302.236746 
L 246.704936 301.308265 
L 247.876134 300.630844 
L 249.047333 300.230734 
L 250.218532 300.129704 
L 251.38973 300.344036 
L 252.560929 300.884385 
L 253.732128 301.75659 
L 254.903326 302.96307 
L 256.074525 304.504049 
L 257.245724 306.378301 
L 258.416922 308.58326 
L 259.588121 311.114388 
L 260.75932 313.964198 
L 263.101717 320.569913 
L 265.444114 328.253679 
L 267.786512 336.797765 
L 271.300108 350.629098 
L 277.156101 373.911264 
L 279.498498 382.480675 
L 281.840896 390.264731 
L 284.183293 397.083164 
L 286.52569 402.814649 
L 287.696889 405.252715 
L 288.868088 407.402793 
L 290.039286 409.266993 
L 291.210485 410.850082 
L 292.381684 412.158921 
L 293.552882 413.202004 
L 294.724081 413.989152 
L 295.89528 414.531318 
L 297.066478 414.840627 
L 298.237677 414.930357 
L 299.408876 414.814979 
L 300.580074 414.510115 
L 301.751273 414.032323 
L 302.922472 413.39883 
L 305.264869 411.735015 
L 307.607266 409.65648 
L 309.949664 407.290427 
L 314.634458 402.122353 
L 320.490452 395.662732 
L 324.004048 392.101425 
L 327.517644 388.889597 
L 331.03124 386.065387 
L 334.544836 383.629856 
L 338.058432 381.537025 
L 342.743226 379.115288 
L 355.626412 372.813967 
L 360.311206 370.14843 
L 363.824802 367.906592 
L 368.509597 364.597085 
L 375.536789 359.224244 
L 381.392782 354.85902 
L 384.906378 352.493857 
L 388.419974 350.427084 
L 391.93357 348.719448 
L 395.447166 347.361589 
L 397.789564 346.647475 
L 401.30316 345.88909 
L 403.645557 345.336602 
L 408.330352 344.092877 
L 411.843948 343.325618 
L 413.015146 342.908362 
L 415.357544 341.695888 
L 417.699941 340.07287 
L 420.042338 338.139926 
L 422.384736 335.868231 
L 424.727133 333.187632 
L 427.06953 330.080064 
L 429.411928 326.58649 
L 432.925524 320.806446 
L 438.781517 310.887555 
L 441.123914 307.326076 
L 443.466312 304.263645 
L 444.63751 302.981002 
L 445.808709 301.901116 
L 446.979908 301.053225 
L 448.151106 300.465502 
L 449.322305 300.162899 
L 450.493504 300.165468 
L 451.664702 300.487554 
L 452.835901 301.138058 
L 454.0071 302.121555 
L 455.178298 303.439602 
L 456.349497 305.091856 
L 457.520696 307.076703 
L 458.691894 309.391032 
L 459.863093 312.029381 
L 461.034292 314.983099 
L 463.376689 321.780754 
L 465.719086 329.624726 
L 468.061484 338.287001 
L 472.746278 356.94032 
L 477.431073 375.384879 
L 479.77347 383.838075 
L 482.115868 391.472256 
L 484.458265 398.116223 
L 486.800662 403.659328 
L 487.971861 406.001358 
L 489.14306 408.055774 
L 490.314258 409.825627 
L 491.485457 411.316441 
L 492.656656 412.535678 
L 493.827854 413.492307 
L 494.999053 414.196515 
L 496.170252 414.659654 
L 497.34145 414.894241 
L 498.512649 414.913946 
L 499.683848 414.733616 
L 500.855046 414.369226 
L 502.026245 413.837593 
L 503.197444 413.1561 
L 505.539841 411.413775 
L 507.882238 409.278902 
L 511.395834 405.608867 
L 521.936622 394.040816 
L 525.450218 390.627702 
L 528.963814 387.585547 
L 532.47741 384.936443 
L 535.991006 382.662051 
L 539.504602 380.693649 
L 544.189397 378.360758 
L 554.730185 373.227171 
L 559.41498 370.61721 
L 562.928576 368.423617 
L 566.442172 366.016209 
L 571.126966 362.537577 
L 580.496556 355.416477 
L 584.010152 352.996613 
L 587.523748 350.8567 
L 591.037344 349.066996 
L 594.550939 347.635474 
L 596.893337 346.865605 
L 599.235734 346.276889 
L 603.920529 345.227295 
L 607.434125 344.259547 
L 612.118919 343.200301 
L 613.290118 342.74085 
L 615.632515 341.449811 
L 617.974913 339.771515 
L 620.31731 337.786947 
L 622.659707 335.451203 
L 625.002105 332.69887 
L 627.344502 329.522869 
L 629.686899 325.971791 
L 633.200495 320.138759 
L 639.056489 310.266947 
L 641.398886 306.776001 
L 643.741283 303.815369 
L 644.912482 302.59707 
L 646.083681 301.591267 
L 647.254879 300.827081 
L 648.426078 300.331836 
L 649.597277 300.129011 
L 650.768475 300.236784 
L 651.939674 300.667601 
L 653.110873 301.428771 
L 654.282071 302.523718 
L 655.45327 303.953271 
L 656.624469 305.716639 
L 657.795667 307.811755 
L 658.966866 310.234819 
L 660.138065 312.979451 
L 662.480462 319.389196 
L 664.822859 326.906647 
L 667.165257 335.324982 
L 670.678853 349.057707 
L 676.534846 372.422054 
L 678.877243 381.101348 
L 681.219641 389.030251 
L 683.562038 396.019757 
L 685.904435 401.938072 
L 687.075634 404.47204 
L 687.075634 404.47204 
" clip-path="url(#p3dc8068fbf)" style="fill: none; stroke: #1f77b4; stroke-width: 1.5; stroke-linecap: square"/>
   </g>
   <g id="patch_15">
    <path d="M 58.66899 420.670425 
L 58.66899 294.388944 
" style="fill: none; stroke: #000000; stroke-width: 0.8; stroke-linejoin: miter; stroke-linecap: square"/>
   </g>
   <g id="patch_16">
    <path d="M 716.99976 420.670425 
L 716.99976 294.388944 
" style="fill: none; stroke: #000000; stroke-width: 0.8; stroke-linejoin: miter; stroke-linecap: square"/>
   </g>
   <g id="patch_17">
    <path d="M 58.66899 420.670425 
L 716.99976 420.670425 
" style="fill: none; stroke: #000000; stroke-width: 0.8; stroke-linejoin: miter; stroke-linecap: square"/>
   </g>
   <g id="patch_18">
    <path d="M 58.66899 294.388944 
L 716.99976 294.388944 
" style="fill: none; stroke: #000000; stroke-width: 0.8; stroke-linejoin: miter; stroke-linecap: square"/>
   </g>
   <g id="legend_3">
    <g id="patch_19">
     <path d="M 658.14726 312.531444 
L 711.39976 312.531444 
Q 712.99976 312.531444 712.99976 310.931444 
L 712.99976 299.988944 
Q 712.99976 298.388944 711.39976 298.388944 
L 658.14726 298.388944 
Q 656.54726 298.388944 656.54726 299.988944 
L 656.54726 310.931444 
Q 656.54726 312.531444 658.14726 312.531444 
z
" style="fill: #ffffff; opacity: 0.8; stroke: #cccccc; stroke-linejoin: miter"/>
    </g>
    <g id="line2d_47">
     <path d="M 659.74726 304.867694 
L 667.74726 304.867694 
L 675.74726 304.867694 
" style="fill: none; stroke: #1f77b4; stroke-width: 1.5; stroke-linecap: square"/>
    </g>
    <g id="text_20">
     <!-- t=25.0 -->
     <g transform="translate(682.14726 307.667694) scale(0.08 -0.08)">
      <use xlink:href="#DejaVuSans-74"/>
      <use xlink:href="#DejaVuSans-3d" x="39.208984"/>
      <use xlink:href="#DejaVuSans-32" x="122.998047"/>
      <use xlink:href="#DejaVuSans-35" x="186.621094"/>
      <use xlink:href="#DejaVuSans-2e" x="250.244141"/>
      <use xlink:href="#DejaVuSans-30" x="282.03125"/>
     </g>
    </g>
   </g>
  </g>
  <g id="axes_4">
   <g id="patch_20">
    <path d="M 58.66899 558.957165 
L 716.99976 558.957165 
L 716.99976 432.675684 
L 58.66899 432.675684 
z
" style="fill: #ffffff"/>
   </g>
   <g id="matplotlib.axis_7">
    <g id="xtick_28">
     <g id="line2d_48">
      <g>
       <use xlink:href="#m3f5ab6e767" x="88.593116" y="558.957165" style="stroke: #000000; stroke-width: 0.8"/>
      </g>
     </g>
    </g>
    <g id="xtick_29">
     <g id="line2d_49">
      <g>
       <use xlink:href="#m3f5ab6e767" x="163.549831" y="558.957165" style="stroke: #000000; stroke-width: 0.8"/>
      </g>
     </g>
    </g>
    <g id="xtick_30">
     <g id="line2d_50">
      <g>
       <use xlink:href="#m3f5ab6e767" x="238.506545" y="558.957165" style="stroke: #000000; stroke-width: 0.8"/>
      </g>
     </g>
    </g>
    <g id="xtick_31">
     <g id="line2d_51">
      <g>
       <use xlink:href="#m3f5ab6e767" x="313.46326" y="558.957165" style="stroke: #000000; stroke-width: 0.8"/>
      </g>
     </g>
    </g>
    <g id="xtick_32">
     <g id="line2d_52">
      <g>
       <use xlink:href="#m3f5ab6e767" x="388.419974" y="558.957165" style="stroke: #000000; stroke-width: 0.8"/>
      </g>
     </g>
    </g>
    <g id="xtick_33">
     <g id="line2d_53">
      <g>
       <use xlink:href="#m3f5ab6e767" x="463.376689" y="558.957165" style="stroke: #000000; stroke-width: 0.8"/>
      </g>
     </g>
    </g>
    <g id="xtick_34">
     <g id="line2d_54">
      <g>
       <use xlink:href="#m3f5ab6e767" x="538.333404" y="558.957165" style="stroke: #000000; stroke-width: 0.8"/>
      </g>
     </g>
    </g>
    <g id="xtick_35">
     <g id="line2d_55">
      <g>
       <use xlink:href="#m3f5ab6e767" x="613.290118" y="558.957165" style="stroke: #000000; stroke-width: 0.8"/>
      </g>
     </g>
    </g>
    <g id="xtick_36">
     <g id="line2d_56">
      <g>
       <use xlink:href="#m3f5ab6e767" x="688.246833" y="558.957165" style="stroke: #000000; stroke-width: 0.8"/>
      </g>
     </g>
    </g>
   </g>
   <g id="matplotlib.axis_8">
    <g id="ytick_15">
     <g id="line2d_57">
      <g>
       <use xlink:href="#md232d3af1f" x="58.66899" y="542.699124" style="stroke: #000000; stroke-width: 0.8"/>
      </g>
     </g>
     <g id="text_21">
      <!-- 0.996 -->
      <g transform="translate(23.040865 546.498342) scale(0.1 -0.1)">
       <defs>
        <path id="DejaVuSans-36" d="M 2113 2584 
Q 1688 2584 1439 2293 
Q 1191 2003 1191 1497 
Q 1191 994 1439 701 
Q 1688 409 2113 409 
Q 2538 409 2786 701 
Q 3034 994 3034 1497 
Q 3034 2003 2786 2293 
Q 2538 2584 2113 2584 
z
M 3366 4563 
L 3366 3988 
Q 3128 4100 2886 4159 
Q 2644 4219 2406 4219 
Q 1781 4219 1451 3797 
Q 1122 3375 1075 2522 
Q 1259 2794 1537 2939 
Q 1816 3084 2150 3084 
Q 2853 3084 3261 2657 
Q 3669 2231 3669 1497 
Q 3669 778 3244 343 
Q 2819 -91 2113 -91 
Q 1303 -91 875 529 
Q 447 1150 447 2328 
Q 447 3434 972 4092 
Q 1497 4750 2381 4750 
Q 2619 4750 2861 4703 
Q 3103 4656 3366 4563 
z
" transform="scale(0.015625)"/>
       </defs>
       <use xlink:href="#DejaVuSans-30"/>
       <use xlink:href="#DejaVuSans-2e" x="63.623047"/>
       <use xlink:href="#DejaVuSans-39" x="95.410156"/>
       <use xlink:href="#DejaVuSans-39" x="159.033203"/>
       <use xlink:href="#DejaVuSans-36" x="222.65625"/>
      </g>
     </g>
    </g>
    <g id="ytick_16">
     <g id="line2d_58">
      <g>
       <use xlink:href="#md232d3af1f" x="58.66899" y="520.953315" style="stroke: #000000; stroke-width: 0.8"/>
      </g>
     </g>
     <g id="text_22">
      <!-- 0.998 -->
      <g transform="translate(23.040865 524.752534) scale(0.1 -0.1)">
       <defs>
        <path id="DejaVuSans-38" d="M 2034 2216 
Q 1584 2216 1326 1975 
Q 1069 1734 1069 1313 
Q 1069 891 1326 650 
Q 1584 409 2034 409 
Q 2484 409 2743 651 
Q 3003 894 3003 1313 
Q 3003 1734 2745 1975 
Q 2488 2216 2034 2216 
z
M 1403 2484 
Q 997 2584 770 2862 
Q 544 3141 544 3541 
Q 544 4100 942 4425 
Q 1341 4750 2034 4750 
Q 2731 4750 3128 4425 
Q 3525 4100 3525 3541 
Q 3525 3141 3298 2862 
Q 3072 2584 2669 2484 
Q 3125 2378 3379 2068 
Q 3634 1759 3634 1313 
Q 3634 634 3220 271 
Q 2806 -91 2034 -91 
Q 1263 -91 848 271 
Q 434 634 434 1313 
Q 434 1759 690 2068 
Q 947 2378 1403 2484 
z
M 1172 3481 
Q 1172 3119 1398 2916 
Q 1625 2713 2034 2713 
Q 2441 2713 2670 2916 
Q 2900 3119 2900 3481 
Q 2900 3844 2670 4047 
Q 2441 4250 2034 4250 
Q 1625 4250 1398 4047 
Q 1172 3844 1172 3481 
z
" transform="scale(0.015625)"/>
       </defs>
       <use xlink:href="#DejaVuSans-30"/>
       <use xlink:href="#DejaVuSans-2e" x="63.623047"/>
       <use xlink:href="#DejaVuSans-39" x="95.410156"/>
       <use xlink:href="#DejaVuSans-39" x="159.033203"/>
       <use xlink:href="#DejaVuSans-38" x="222.65625"/>
      </g>
     </g>
    </g>
    <g id="ytick_17">
     <g id="line2d_59">
      <g>
       <use xlink:href="#md232d3af1f" x="58.66899" y="499.207507" style="stroke: #000000; stroke-width: 0.8"/>
      </g>
     </g>
     <g id="text_23">
      <!-- 1.000 -->
      <g transform="translate(23.040865 503.006725) scale(0.1 -0.1)">
       <use xlink:href="#DejaVuSans-31"/>
       <use xlink:href="#DejaVuSans-2e" x="63.623047"/>
       <use xlink:href="#DejaVuSans-30" x="95.410156"/>
       <use xlink:href="#DejaVuSans-30" x="159.033203"/>
       <use xlink:href="#DejaVuSans-30" x="222.65625"/>
      </g>
     </g>
    </g>
    <g id="ytick_18">
     <g id="line2d_60">
      <g>
       <use xlink:href="#md232d3af1f" x="58.66899" y="477.461698" style="stroke: #000000; stroke-width: 0.8"/>
      </g>
     </g>
     <g id="text_24">
      <!-- 1.002 -->
      <g transform="translate(23.040865 481.260917) scale(0.1 -0.1)">
       <use xlink:href="#DejaVuSans-31"/>
       <use xlink:href="#DejaVuSans-2e" x="63.623047"/>
       <use xlink:href="#DejaVuSans-30" x="95.410156"/>
       <use xlink:href="#DejaVuSans-30" x="159.033203"/>
       <use xlink:href="#DejaVuSans-32" x="222.65625"/>
      </g>
     </g>
    </g>
    <g id="ytick_19">
     <g id="line2d_61">
      <g>
       <use xlink:href="#md232d3af1f" x="58.66899" y="455.71589" style="stroke: #000000; stroke-width: 0.8"/>
      </g>
     </g>
     <g id="text_25">
      <!-- 1.004 -->
      <g transform="translate(23.040865 459.515109) scale(0.1 -0.1)">
       <use xlink:href="#DejaVuSans-31"/>
       <use xlink:href="#DejaVuSans-2e" x="63.623047"/>
       <use xlink:href="#DejaVuSans-30" x="95.410156"/>
       <use xlink:href="#DejaVuSans-30" x="159.033203"/>
       <use xlink:href="#DejaVuSans-34" x="222.65625"/>
      </g>
     </g>
    </g>
    <g id="ytick_20">
     <g id="line2d_62">
      <g>
       <use xlink:href="#md232d3af1f" x="58.66899" y="433.970082" style="stroke: #000000; stroke-width: 0.8"/>
      </g>
     </g>
     <g id="text_26">
      <!-- 1.006 -->
      <g transform="translate(23.040865 437.7693) scale(0.1 -0.1)">
       <use xlink:href="#DejaVuSans-31"/>
       <use xlink:href="#DejaVuSans-2e" x="63.623047"/>
       <use xlink:href="#DejaVuSans-30" x="95.410156"/>
       <use xlink:href="#DejaVuSans-30" x="159.033203"/>
       <use xlink:href="#DejaVuSans-36" x="222.65625"/>
      </g>
     </g>
    </g>
    <g id="text_27">
     <!-- $u_d=0.4$ -->
     <g transform="translate(16.961177 515.466425) rotate(-90) scale(0.1 -0.1)">
      <use xlink:href="#DejaVuSans-Oblique-75" transform="translate(0 0.78125)"/>
      <use xlink:href="#DejaVuSans-Oblique-64" transform="translate(63.378906 -15.625) scale(0.7)"/>
      <use xlink:href="#DejaVuSans-3d" transform="translate(130.029297 0.78125)"/>
      <use xlink:href="#DejaVuSans-30" transform="translate(233.300781 0.78125)"/>
      <use xlink:href="#DejaVuSans-2e" transform="translate(296.923828 0.78125)"/>
      <use xlink:href="#DejaVuSans-34" transform="translate(328.710938 0.78125)"/>
     </g>
    </g>
   </g>
   <g id="line2d_63">
    <path d="M 88.593116 439.769185 
L 89.764315 440.627589 
L 90.935513 441.700113 
L 92.106712 442.987137 
L 93.277911 444.487805 
L 94.449109 446.199859 
L 96.791507 450.242089 
L 99.133904 455.066932 
L 101.476301 460.603394 
L 103.818699 466.757798 
L 107.332295 476.897068 
L 112.017089 491.421122 
L 117.873083 509.634051 
L 121.386679 519.79926 
L 123.729076 526.020027 
L 126.071473 531.690656 
L 128.413871 536.743042 
L 130.756268 541.130107 
L 133.098665 544.825514 
L 135.441063 547.82208 
L 136.612261 549.060791 
L 137.78346 550.12958 
L 138.954659 551.031814 
L 140.125857 551.771427 
L 141.297056 552.352898 
L 142.468255 552.781244 
L 143.639453 553.061851 
L 144.810652 553.20049 
L 145.981851 553.203347 
L 147.153049 553.076795 
L 148.324248 552.827699 
L 150.666645 551.992623 
L 153.009043 550.75473 
L 155.35144 549.141333 
L 157.693837 547.219575 
L 161.207433 544.039208 
L 164.721029 540.530443 
L 168.234625 536.536827 
L 174.090619 529.611913 
L 178.775413 524.579873 
L 189.316201 513.597388 
L 192.829797 510.451736 
L 196.343393 507.679523 
L 199.856989 505.281825 
L 203.370585 503.259083 
L 206.884181 501.547335 
L 210.397777 500.09162 
L 213.911373 498.921958 
L 217.424969 498.054807 
L 226.794558 496.086289 
L 230.308154 495.030715 
L 233.82175 493.669589 
L 236.164148 492.543306 
L 238.506545 491.200816 
L 240.848942 489.608717 
L 243.19134 487.738321 
L 245.533737 485.567757 
L 247.876134 483.085629 
L 250.218532 480.296492 
L 252.560929 477.223912 
L 256.074525 472.174099 
L 260.75932 464.883293 
L 268.95771 451.892298 
L 271.300108 448.508938 
L 273.642505 445.455447 
L 275.984902 442.836469 
L 278.3273 440.750166 
L 279.498498 439.934812 
L 280.669697 439.284888 
L 281.840896 438.809626 
L 283.012094 438.51741 
L 284.183293 438.415751 
L 285.354492 438.511265 
L 286.52569 438.809556 
L 287.696889 439.315162 
L 288.868088 440.031592 
L 290.039286 440.961251 
L 291.210485 442.105301 
L 292.381684 443.463706 
L 293.552882 445.035147 
L 294.724081 446.81692 
L 297.066478 450.993509 
L 299.408876 455.942515 
L 301.751273 461.589058 
L 304.09367 467.835926 
L 307.607266 478.075146 
L 312.292061 492.652736 
L 318.148054 510.803871 
L 321.66165 520.870772 
L 324.004048 527.005425 
L 326.346445 532.577188 
L 328.688842 537.521391 
L 331.03124 541.794456 
L 333.373637 545.373394 
L 335.716034 548.254044 
L 336.887233 549.435785 
L 338.058432 550.448645 
L 339.22963 551.296212 
L 340.400829 551.982587 
L 341.572028 552.512433 
L 342.743226 552.890918 
L 343.914425 553.123537 
L 345.085624 553.216221 
L 346.256822 553.175218 
L 347.428021 553.007012 
L 349.770418 552.318197 
L 352.112816 551.209749 
L 354.455213 549.719284 
L 356.79761 547.885426 
L 360.311206 544.767945 
L 363.824802 541.350811 
L 366.1672 538.811289 
L 370.851994 533.250215 
L 374.36559 529.175599 
L 379.050385 524.169524 
L 388.419974 514.348996 
L 391.93357 511.117688 
L 395.447166 508.263906 
L 398.960762 505.781386 
L 402.474358 503.678632 
L 405.987954 501.904936 
L 409.50155 500.392472 
L 413.015146 499.154616 
L 416.528742 498.22529 
L 428.240729 495.649914 
L 431.754325 494.468736 
L 434.096722 493.495379 
L 436.43912 492.335528 
L 438.781517 490.95363 
L 441.123914 489.316992 
L 443.466312 487.397864 
L 445.808709 485.175803 
L 448.151106 482.641691 
L 450.493504 479.803184 
L 452.835901 476.686908 
L 456.349497 471.586478 
L 461.034292 464.258541 
L 468.061484 453.075017 
L 471.57508 447.974242 
L 473.917477 444.986033 
L 476.259874 442.44924 
L 478.602272 440.460594 
L 479.77347 439.699316 
L 480.944669 439.106616 
L 482.115868 438.691478 
L 483.287066 438.462004 
L 484.458265 438.425388 
L 485.629464 438.587914 
L 486.800662 438.954856 
L 487.971861 439.53041 
L 489.14306 440.317715 
L 490.314258 441.318756 
L 491.485457 442.534323 
L 492.656656 443.963963 
L 493.827854 445.605884 
L 496.170252 449.512471 
L 498.512649 454.211159 
L 500.855046 459.634948 
L 503.197444 465.693737 
L 505.539841 472.277524 
L 509.053437 482.861169 
L 519.594225 515.389148 
L 521.936622 521.928943 
L 524.27902 527.975145 
L 526.621417 533.446236 
L 528.963814 538.281051 
L 531.306212 542.439485 
L 533.648609 545.901844 
L 535.991006 548.666912 
L 537.162205 549.792004 
L 538.333404 550.749341 
L 539.504602 551.542694 
L 540.675801 552.176346 
L 541.847 552.655151 
L 543.018198 552.984383 
L 544.189397 553.169677 
L 545.360596 553.217098 
L 546.531794 553.132955 
L 547.702993 552.923886 
L 550.04539 552.16108 
L 552.387788 550.987492 
L 554.730185 549.435038 
L 557.072582 547.555033 
L 560.586178 544.40523 
L 564.099774 540.943903 
L 567.61337 537.000309 
L 574.640562 528.74354 
L 580.496556 522.520717 
L 587.523748 515.119073 
L 591.037344 511.802293 
L 594.550939 508.866463 
L 598.064535 506.299976 
L 601.578131 504.114592 
L 605.091727 502.275047 
L 608.605323 500.706685 
L 612.118919 499.403045 
L 615.632515 498.407168 
L 620.31731 497.441885 
L 625.002105 496.475987 
L 628.515701 495.532901 
L 632.029297 494.317959 
L 634.371694 493.316001 
L 636.714091 492.121569 
L 639.056489 490.699379 
L 641.398886 489.017403 
L 643.741283 487.048989 
L 646.083681 484.775142 
L 648.426078 482.189256 
L 650.768475 479.302085 
L 654.282071 474.475545 
L 657.795667 469.194078 
L 663.651661 459.860774 
L 668.336455 452.480781 
L 670.678853 449.052814 
L 673.02125 445.936954 
L 675.363647 443.238527 
L 677.706045 441.056993 
L 678.877243 440.188691 
L 680.048442 439.482571 
L 681.219641 438.948101 
L 682.390839 438.593982 
L 683.562038 438.428033 
L 684.733237 438.457151 
L 685.904435 438.687287 
L 687.075634 439.123341 
L 687.075634 439.123341 
" clip-path="url(#p09a3758019)" style="fill: none; stroke: #1f77b4; stroke-width: 1.5; stroke-linecap: square"/>
   </g>
   <g id="patch_21">
    <path d="M 58.66899 558.957165 
L 58.66899 432.675684 
" style="fill: none; stroke: #000000; stroke-width: 0.8; stroke-linejoin: miter; stroke-linecap: square"/>
   </g>
   <g id="patch_22">
    <path d="M 716.99976 558.957165 
L 716.99976 432.675684 
" style="fill: none; stroke: #000000; stroke-width: 0.8; stroke-linejoin: miter; stroke-linecap: square"/>
   </g>
   <g id="patch_23">
    <path d="M 58.66899 558.957165 
L 716.99976 558.957165 
" style="fill: none; stroke: #000000; stroke-width: 0.8; stroke-linejoin: miter; stroke-linecap: square"/>
   </g>
   <g id="patch_24">
    <path d="M 58.66899 432.675684 
L 716.99976 432.675684 
" style="fill: none; stroke: #000000; stroke-width: 0.8; stroke-linejoin: miter; stroke-linecap: square"/>
   </g>
   <g id="legend_4">
    <g id="patch_25">
     <path d="M 658.14726 450.818184 
L 711.39976 450.818184 
Q 712.99976 450.818184 712.99976 449.218184 
L 712.99976 438.275684 
Q 712.99976 436.675684 711.39976 436.675684 
L 658.14726 436.675684 
Q 656.54726 436.675684 656.54726 438.275684 
L 656.54726 449.218184 
Q 656.54726 450.818184 658.14726 450.818184 
z
" style="fill: #ffffff; opacity: 0.8; stroke: #cccccc; stroke-linejoin: miter"/>
    </g>
    <g id="line2d_64">
     <path d="M 659.74726 443.154434 
L 667.74726 443.154434 
L 675.74726 443.154434 
" style="fill: none; stroke: #1f77b4; stroke-width: 1.5; stroke-linecap: square"/>
    </g>
    <g id="text_28">
     <!-- t=25.0 -->
     <g transform="translate(682.14726 445.954434) scale(0.08 -0.08)">
      <use xlink:href="#DejaVuSans-74"/>
      <use xlink:href="#DejaVuSans-3d" x="39.208984"/>
      <use xlink:href="#DejaVuSans-32" x="122.998047"/>
      <use xlink:href="#DejaVuSans-35" x="186.621094"/>
      <use xlink:href="#DejaVuSans-2e" x="250.244141"/>
      <use xlink:href="#DejaVuSans-30" x="282.03125"/>
     </g>
    </g>
   </g>
  </g>
  <g id="axes_5">
   <g id="patch_26">
    <path d="M 58.66899 694.739126 
L 716.99976 694.739126 
L 716.99976 568.457645 
L 58.66899 568.457645 
z
" style="fill: #ffffff"/>
   </g>
   <g id="matplotlib.axis_9">
    <g id="xtick_37">
     <g id="line2d_65">
      <g>
       <use xlink:href="#m3f5ab6e767" x="88.593116" y="694.739126" style="stroke: #000000; stroke-width: 0.8"/>
      </g>
     </g>
    </g>
    <g id="xtick_38">
     <g id="line2d_66">
      <g>
       <use xlink:href="#m3f5ab6e767" x="163.549831" y="694.739126" style="stroke: #000000; stroke-width: 0.8"/>
      </g>
     </g>
    </g>
    <g id="xtick_39">
     <g id="line2d_67">
      <g>
       <use xlink:href="#m3f5ab6e767" x="238.506545" y="694.739126" style="stroke: #000000; stroke-width: 0.8"/>
      </g>
     </g>
    </g>
    <g id="xtick_40">
     <g id="line2d_68">
      <g>
       <use xlink:href="#m3f5ab6e767" x="313.46326" y="694.739126" style="stroke: #000000; stroke-width: 0.8"/>
      </g>
     </g>
    </g>
    <g id="xtick_41">
     <g id="line2d_69">
      <g>
       <use xlink:href="#m3f5ab6e767" x="388.419974" y="694.739126" style="stroke: #000000; stroke-width: 0.8"/>
      </g>
     </g>
    </g>
    <g id="xtick_42">
     <g id="line2d_70">
      <g>
       <use xlink:href="#m3f5ab6e767" x="463.376689" y="694.739126" style="stroke: #000000; stroke-width: 0.8"/>
      </g>
     </g>
    </g>
    <g id="xtick_43">
     <g id="line2d_71">
      <g>
       <use xlink:href="#m3f5ab6e767" x="538.333404" y="694.739126" style="stroke: #000000; stroke-width: 0.8"/>
      </g>
     </g>
    </g>
    <g id="xtick_44">
     <g id="line2d_72">
      <g>
       <use xlink:href="#m3f5ab6e767" x="613.290118" y="694.739126" style="stroke: #000000; stroke-width: 0.8"/>
      </g>
     </g>
    </g>
    <g id="xtick_45">
     <g id="line2d_73">
      <g>
       <use xlink:href="#m3f5ab6e767" x="688.246833" y="694.739126" style="stroke: #000000; stroke-width: 0.8"/>
      </g>
     </g>
    </g>
   </g>
   <g id="matplotlib.axis_10">
    <g id="ytick_21">
     <g id="line2d_74">
      <g>
       <use xlink:href="#md232d3af1f" x="58.66899" y="692.482716" style="stroke: #000000; stroke-width: 0.8"/>
      </g>
     </g>
     <g id="text_29">
      <!-- 0.996 -->
      <g transform="translate(23.040865 696.281935) scale(0.1 -0.1)">
       <use xlink:href="#DejaVuSans-30"/>
       <use xlink:href="#DejaVuSans-2e" x="63.623047"/>
       <use xlink:href="#DejaVuSans-39" x="95.410156"/>
       <use xlink:href="#DejaVuSans-39" x="159.033203"/>
       <use xlink:href="#DejaVuSans-36" x="222.65625"/>
      </g>
     </g>
    </g>
    <g id="ytick_22">
     <g id="line2d_75">
      <g>
       <use xlink:href="#md232d3af1f" x="58.66899" y="664.049116" style="stroke: #000000; stroke-width: 0.8"/>
      </g>
     </g>
     <g id="text_30">
      <!-- 0.998 -->
      <g transform="translate(23.040865 667.848335) scale(0.1 -0.1)">
       <use xlink:href="#DejaVuSans-30"/>
       <use xlink:href="#DejaVuSans-2e" x="63.623047"/>
       <use xlink:href="#DejaVuSans-39" x="95.410156"/>
       <use xlink:href="#DejaVuSans-39" x="159.033203"/>
       <use xlink:href="#DejaVuSans-38" x="222.65625"/>
      </g>
     </g>
    </g>
    <g id="ytick_23">
     <g id="line2d_76">
      <g>
       <use xlink:href="#md232d3af1f" x="58.66899" y="635.615516" style="stroke: #000000; stroke-width: 0.8"/>
      </g>
     </g>
     <g id="text_31">
      <!-- 1.000 -->
      <g transform="translate(23.040865 639.414735) scale(0.1 -0.1)">
       <use xlink:href="#DejaVuSans-31"/>
       <use xlink:href="#DejaVuSans-2e" x="63.623047"/>
       <use xlink:href="#DejaVuSans-30" x="95.410156"/>
       <use xlink:href="#DejaVuSans-30" x="159.033203"/>
       <use xlink:href="#DejaVuSans-30" x="222.65625"/>
      </g>
     </g>
    </g>
    <g id="ytick_24">
     <g id="line2d_77">
      <g>
       <use xlink:href="#md232d3af1f" x="58.66899" y="607.181917" style="stroke: #000000; stroke-width: 0.8"/>
      </g>
     </g>
     <g id="text_32">
      <!-- 1.002 -->
      <g transform="translate(23.040865 610.981135) scale(0.1 -0.1)">
       <use xlink:href="#DejaVuSans-31"/>
       <use xlink:href="#DejaVuSans-2e" x="63.623047"/>
       <use xlink:href="#DejaVuSans-30" x="95.410156"/>
       <use xlink:href="#DejaVuSans-30" x="159.033203"/>
       <use xlink:href="#DejaVuSans-32" x="222.65625"/>
      </g>
     </g>
    </g>
    <g id="ytick_25">
     <g id="line2d_78">
      <g>
       <use xlink:href="#md232d3af1f" x="58.66899" y="578.748317" style="stroke: #000000; stroke-width: 0.8"/>
      </g>
     </g>
     <g id="text_33">
      <!-- 1.004 -->
      <g transform="translate(23.040865 582.547535) scale(0.1 -0.1)">
       <use xlink:href="#DejaVuSans-31"/>
       <use xlink:href="#DejaVuSans-2e" x="63.623047"/>
       <use xlink:href="#DejaVuSans-30" x="95.410156"/>
       <use xlink:href="#DejaVuSans-30" x="159.033203"/>
       <use xlink:href="#DejaVuSans-34" x="222.65625"/>
      </g>
     </g>
    </g>
    <g id="text_34">
     <!-- $u_d=0.4$ -->
     <g transform="translate(16.961177 651.248385) rotate(-90) scale(0.1 -0.1)">
      <use xlink:href="#DejaVuSans-Oblique-75" transform="translate(0 0.78125)"/>
      <use xlink:href="#DejaVuSans-Oblique-64" transform="translate(63.378906 -15.625) scale(0.7)"/>
      <use xlink:href="#DejaVuSans-3d" transform="translate(130.029297 0.78125)"/>
      <use xlink:href="#DejaVuSans-30" transform="translate(233.300781 0.78125)"/>
      <use xlink:href="#DejaVuSans-2e" transform="translate(296.923828 0.78125)"/>
      <use xlink:href="#DejaVuSans-34" transform="translate(328.710938 0.78125)"/>
     </g>
    </g>
   </g>
   <g id="line2d_79">
    <path d="M 88.593116 604.616578 
L 95.620308 593.950351 
L 99.133904 588.94707 
L 102.6475 584.387048 
L 104.989897 581.685368 
L 107.332295 579.321553 
L 109.674692 577.350888 
L 112.017089 575.822918 
L 113.188288 575.238408 
L 114.359487 574.779743 
L 115.530685 574.451011 
L 116.701884 574.255889 
L 117.873083 574.197712 
L 119.044281 574.279511 
L 120.21548 574.503979 
L 121.386679 574.873481 
L 122.557877 575.390127 
L 123.729076 576.055621 
L 124.900275 576.871195 
L 126.071473 577.837604 
L 128.413871 580.222891 
L 130.756268 583.203874 
L 133.098665 586.760099 
L 135.441063 590.857698 
L 137.78346 595.450846 
L 140.125857 600.484346 
L 143.639453 608.722276 
L 147.153049 617.576813 
L 154.180241 636.133102 
L 158.865036 648.260863 
L 162.378632 656.79251 
L 165.892228 664.625971 
L 168.234625 669.251272 
L 170.577023 673.385859 
L 174.090619 679.007917 
L 176.433016 682.279668 
L 177.604215 683.696396 
L 178.775413 684.932487 
L 179.946612 685.969724 
L 181.117811 686.802057 
L 182.289009 687.439104 
L 183.460208 687.906131 
L 185.802605 688.479329 
L 189.316201 688.914537 
L 191.658598 688.993203 
L 192.829797 688.912064 
L 194.000996 688.715968 
L 195.172194 688.385789 
L 196.343393 687.912361 
L 197.514592 687.297463 
L 199.856989 685.696406 
L 202.199386 683.738652 
L 206.884181 679.368597 
L 216.25377 670.245628 
L 225.62336 660.991384 
L 229.136956 657.925014 
L 232.650552 655.23199 
L 237.335346 652.059007 
L 244.362538 647.635836 
L 258.416922 639.004829 
L 261.930518 636.420824 
L 265.444114 633.476847 
L 268.95771 630.153697 
L 272.471306 626.442887 
L 275.984902 622.322457 
L 279.498498 617.776363 
L 283.012094 612.835507 
L 287.696889 605.813105 
L 295.89528 593.377966 
L 299.408876 588.415235 
L 302.922472 583.915753 
L 305.264869 581.266368 
L 307.607266 578.964378 
L 309.949664 577.064261 
L 312.292061 575.614387 
L 313.46326 575.071335 
L 314.634458 574.655533 
L 315.805657 574.37094 
L 316.976856 574.221123 
L 318.148054 574.209298 
L 319.319253 574.338367 
L 320.490452 574.610921 
L 321.66165 575.029253 
L 322.832849 575.595336 
L 324.004048 576.310728 
L 325.175246 577.176533 
L 326.346445 578.193313 
L 328.688842 580.678746 
L 331.03124 583.757395 
L 333.373637 587.406548 
L 335.716034 591.590197 
L 338.058432 596.260788 
L 340.400829 601.361783 
L 343.914425 609.680127 
L 347.428021 618.588006 
L 360.311206 652.125689 
L 363.824802 660.378864 
L 366.1672 665.435541 
L 368.509597 669.969405 
L 370.851994 674.041578 
L 373.194392 677.817758 
L 375.536789 681.247139 
L 377.879186 684.129616 
L 379.050385 685.300921 
L 380.221584 686.269762 
L 381.392782 687.035114 
L 382.563981 687.612017 
L 383.73518 688.030123 
L 386.077577 688.544677 
L 389.591173 688.943483 
L 391.93357 688.977433 
L 393.104769 688.860627 
L 394.275968 688.621505 
L 395.447166 688.244047 
L 396.618365 687.72274 
L 398.960762 686.278508 
L 401.30316 684.419817 
L 404.816756 681.224126 
L 413.015146 673.3331 
L 427.06953 659.582493 
L 430.583126 656.684485 
L 434.096722 654.135214 
L 438.781517 651.056127 
L 446.979908 645.975615 
L 456.349497 640.307583 
L 459.863093 637.897896 
L 463.376689 635.158755 
L 466.890285 632.046975 
L 470.403881 628.553324 
L 473.917477 624.66369 
L 477.431073 620.354199 
L 480.944669 615.624848 
L 484.458265 610.536531 
L 491.485457 599.823218 
L 496.170252 592.809165 
L 499.683848 587.889107 
L 502.026245 584.866126 
L 504.368642 582.113713 
L 506.71104 579.689655 
L 509.053437 577.649842 
L 511.395834 576.044946 
L 513.738232 574.918389 
L 514.90943 574.545912 
L 516.080629 574.305871 
L 517.251828 574.20171 
L 518.423026 574.236537 
L 519.594225 574.413158 
L 520.765424 574.73406 
L 521.936622 575.201446 
L 523.107821 575.817156 
L 524.27902 576.582595 
L 525.450218 577.498684 
L 526.621417 578.565801 
L 528.963814 581.151098 
L 531.306212 584.326763 
L 533.648609 588.067857 
L 535.991006 592.336251 
L 538.333404 597.082701 
L 540.675801 602.249433 
L 544.189397 610.645286 
L 548.874192 622.671542 
L 559.41498 650.207097 
L 562.928576 658.603509 
L 565.270973 663.801895 
L 567.61337 668.518944 
L 569.955768 672.72209 
L 573.469364 678.417947 
L 575.811761 681.771539 
L 578.154158 684.541849 
L 579.325357 685.646732 
L 580.496556 686.547105 
L 581.667754 687.247171 
L 582.838953 687.767246 
L 585.18135 688.407509 
L 587.523748 688.758569 
L 589.866145 688.967281 
L 592.208542 688.95074 
L 593.379741 688.795512 
L 594.550939 688.511558 
L 595.722138 688.086206 
L 596.893337 687.517609 
L 599.235734 685.992835 
L 601.578131 684.082155 
L 605.091727 680.855184 
L 614.461317 671.7967 
L 626.173303 660.278233 
L 629.686899 657.295462 
L 633.200495 654.677312 
L 637.88529 651.555561 
L 646.083681 646.446241 
L 657.795667 639.272089 
L 661.309263 636.724989 
L 664.822859 633.822569 
L 668.336455 630.541839 
L 671.850051 626.874934 
L 675.363647 622.801271 
L 678.877243 618.302136 
L 682.390839 613.401469 
L 687.075634 606.40985 
L 687.075634 606.40985 
" clip-path="url(#p285af9bd5f)" style="fill: none; stroke: #1f77b4; stroke-width: 1.5; stroke-linecap: square"/>
   </g>
   <g id="patch_27">
    <path d="M 58.66899 694.739126 
L 58.66899 568.457645 
" style="fill: none; stroke: #000000; stroke-width: 0.8; stroke-linejoin: miter; stroke-linecap: square"/>
   </g>
   <g id="patch_28">
    <path d="M 716.99976 694.739126 
L 716.99976 568.457645 
" style="fill: none; stroke: #000000; stroke-width: 0.8; stroke-linejoin: miter; stroke-linecap: square"/>
   </g>
   <g id="patch_29">
    <path d="M 58.66899 694.739126 
L 716.99976 694.739126 
" style="fill: none; stroke: #000000; stroke-width: 0.8; stroke-linejoin: miter; stroke-linecap: square"/>
   </g>
   <g id="patch_30">
    <path d="M 58.66899 568.457645 
L 716.99976 568.457645 
" style="fill: none; stroke: #000000; stroke-width: 0.8; stroke-linejoin: miter; stroke-linecap: square"/>
   </g>
   <g id="legend_5">
    <g id="patch_31">
     <path d="M 658.14726 586.600145 
L 711.39976 586.600145 
Q 712.99976 586.600145 712.99976 585.000145 
L 712.99976 574.057645 
Q 712.99976 572.457645 711.39976 572.457645 
L 658.14726 572.457645 
Q 656.54726 572.457645 656.54726 574.057645 
L 656.54726 585.000145 
Q 656.54726 586.600145 658.14726 586.600145 
z
" style="fill: #ffffff; opacity: 0.8; stroke: #cccccc; stroke-linejoin: miter"/>
    </g>
    <g id="line2d_80">
     <path d="M 659.74726 578.936395 
L 667.74726 578.936395 
L 675.74726 578.936395 
" style="fill: none; stroke: #1f77b4; stroke-width: 1.5; stroke-linecap: square"/>
    </g>
    <g id="text_35">
     <!-- t=25.0 -->
     <g transform="translate(682.14726 581.736395) scale(0.08 -0.08)">
      <use xlink:href="#DejaVuSans-74"/>
      <use xlink:href="#DejaVuSans-3d" x="39.208984"/>
      <use xlink:href="#DejaVuSans-32" x="122.998047"/>
      <use xlink:href="#DejaVuSans-35" x="186.621094"/>
      <use xlink:href="#DejaVuSans-2e" x="250.244141"/>
      <use xlink:href="#DejaVuSans-30" x="282.03125"/>
     </g>
    </g>
   </g>
  </g>
  <g id="axes_6">
   <g id="patch_32">
    <path d="M 58.66899 830.64351 
L 716.99976 830.64351 
L 716.99976 704.362029 
L 58.66899 704.362029 
z
" style="fill: #ffffff"/>
   </g>
   <g id="matplotlib.axis_11">
    <g id="xtick_46">
     <g id="line2d_81">
      <g>
       <use xlink:href="#m3f5ab6e767" x="88.593116" y="830.64351" style="stroke: #000000; stroke-width: 0.8"/>
      </g>
     </g>
     <g id="text_36">
      <!-- 0 -->
      <g transform="translate(85.411866 845.241948) scale(0.1 -0.1)">
       <use xlink:href="#DejaVuSans-30"/>
      </g>
     </g>
    </g>
    <g id="xtick_47">
     <g id="line2d_82">
      <g>
       <use xlink:href="#m3f5ab6e767" x="163.549831" y="830.64351" style="stroke: #000000; stroke-width: 0.8"/>
      </g>
     </g>
     <g id="text_37">
      <!-- 10 -->
      <g transform="translate(157.187331 845.241948) scale(0.1 -0.1)">
       <use xlink:href="#DejaVuSans-31"/>
       <use xlink:href="#DejaVuSans-30" x="63.623047"/>
      </g>
     </g>
    </g>
    <g id="xtick_48">
     <g id="line2d_83">
      <g>
       <use xlink:href="#m3f5ab6e767" x="238.506545" y="830.64351" style="stroke: #000000; stroke-width: 0.8"/>
      </g>
     </g>
     <g id="text_38">
      <!-- 20 -->
      <g transform="translate(232.144045 845.241948) scale(0.1 -0.1)">
       <use xlink:href="#DejaVuSans-32"/>
       <use xlink:href="#DejaVuSans-30" x="63.623047"/>
      </g>
     </g>
    </g>
    <g id="xtick_49">
     <g id="line2d_84">
      <g>
       <use xlink:href="#m3f5ab6e767" x="313.46326" y="830.64351" style="stroke: #000000; stroke-width: 0.8"/>
      </g>
     </g>
     <g id="text_39">
      <!-- 30 -->
      <g transform="translate(307.10076 845.241948) scale(0.1 -0.1)">
       <defs>
        <path id="DejaVuSans-33" d="M 2597 2516 
Q 3050 2419 3304 2112 
Q 3559 1806 3559 1356 
Q 3559 666 3084 287 
Q 2609 -91 1734 -91 
Q 1441 -91 1130 -33 
Q 819 25 488 141 
L 488 750 
Q 750 597 1062 519 
Q 1375 441 1716 441 
Q 2309 441 2620 675 
Q 2931 909 2931 1356 
Q 2931 1769 2642 2001 
Q 2353 2234 1838 2234 
L 1294 2234 
L 1294 2753 
L 1863 2753 
Q 2328 2753 2575 2939 
Q 2822 3125 2822 3475 
Q 2822 3834 2567 4026 
Q 2313 4219 1838 4219 
Q 1578 4219 1281 4162 
Q 984 4106 628 3988 
L 628 4550 
Q 988 4650 1302 4700 
Q 1616 4750 1894 4750 
Q 2613 4750 3031 4423 
Q 3450 4097 3450 3541 
Q 3450 3153 3228 2886 
Q 3006 2619 2597 2516 
z
" transform="scale(0.015625)"/>
       </defs>
       <use xlink:href="#DejaVuSans-33"/>
       <use xlink:href="#DejaVuSans-30" x="63.623047"/>
      </g>
     </g>
    </g>
    <g id="xtick_50">
     <g id="line2d_85">
      <g>
       <use xlink:href="#m3f5ab6e767" x="388.419974" y="830.64351" style="stroke: #000000; stroke-width: 0.8"/>
      </g>
     </g>
     <g id="text_40">
      <!-- 40 -->
      <g transform="translate(382.057474 845.241948) scale(0.1 -0.1)">
       <use xlink:href="#DejaVuSans-34"/>
       <use xlink:href="#DejaVuSans-30" x="63.623047"/>
      </g>
     </g>
    </g>
    <g id="xtick_51">
     <g id="line2d_86">
      <g>
       <use xlink:href="#m3f5ab6e767" x="463.376689" y="830.64351" style="stroke: #000000; stroke-width: 0.8"/>
      </g>
     </g>
     <g id="text_41">
      <!-- 50 -->
      <g transform="translate(457.014189 845.241948) scale(0.1 -0.1)">
       <use xlink:href="#DejaVuSans-35"/>
       <use xlink:href="#DejaVuSans-30" x="63.623047"/>
      </g>
     </g>
    </g>
    <g id="xtick_52">
     <g id="line2d_87">
      <g>
       <use xlink:href="#m3f5ab6e767" x="538.333404" y="830.64351" style="stroke: #000000; stroke-width: 0.8"/>
      </g>
     </g>
     <g id="text_42">
      <!-- 60 -->
      <g transform="translate(531.970904 845.241948) scale(0.1 -0.1)">
       <use xlink:href="#DejaVuSans-36"/>
       <use xlink:href="#DejaVuSans-30" x="63.623047"/>
      </g>
     </g>
    </g>
    <g id="xtick_53">
     <g id="line2d_88">
      <g>
       <use xlink:href="#m3f5ab6e767" x="613.290118" y="830.64351" style="stroke: #000000; stroke-width: 0.8"/>
      </g>
     </g>
     <g id="text_43">
      <!-- 70 -->
      <g transform="translate(606.927618 845.241948) scale(0.1 -0.1)">
       <use xlink:href="#DejaVuSans-37"/>
       <use xlink:href="#DejaVuSans-30" x="63.623047"/>
      </g>
     </g>
    </g>
    <g id="xtick_54">
     <g id="line2d_89">
      <g>
       <use xlink:href="#m3f5ab6e767" x="688.246833" y="830.64351" style="stroke: #000000; stroke-width: 0.8"/>
      </g>
     </g>
     <g id="text_44">
      <!-- 80 -->
      <g transform="translate(681.884333 845.241948) scale(0.1 -0.1)">
       <use xlink:href="#DejaVuSans-38"/>
       <use xlink:href="#DejaVuSans-30" x="63.623047"/>
      </g>
     </g>
    </g>
    <g id="text_45">
     <!-- x -->
     <g transform="translate(384.875 858.920072) scale(0.1 -0.1)">
      <defs>
       <path id="DejaVuSans-78" d="M 3513 3500 
L 2247 1797 
L 3578 0 
L 2900 0 
L 1881 1375 
L 863 0 
L 184 0 
L 1544 1831 
L 300 3500 
L 978 3500 
L 1906 2253 
L 2834 3500 
L 3513 3500 
z
" transform="scale(0.015625)"/>
      </defs>
      <use xlink:href="#DejaVuSans-78"/>
     </g>
    </g>
   </g>
   <g id="matplotlib.axis_12">
    <g id="ytick_26">
     <g id="line2d_90">
      <g>
       <use xlink:href="#md232d3af1f" x="58.66899" y="810.951662" style="stroke: #000000; stroke-width: 0.8"/>
      </g>
     </g>
     <g id="text_46">
      <!-- 0.998 -->
      <g transform="translate(23.040865 814.750881) scale(0.1 -0.1)">
       <use xlink:href="#DejaVuSans-30"/>
       <use xlink:href="#DejaVuSans-2e" x="63.623047"/>
       <use xlink:href="#DejaVuSans-39" x="95.410156"/>
       <use xlink:href="#DejaVuSans-39" x="159.033203"/>
       <use xlink:href="#DejaVuSans-38" x="222.65625"/>
      </g>
     </g>
    </g>
    <g id="ytick_27">
     <g id="line2d_91">
      <g>
       <use xlink:href="#md232d3af1f" x="58.66899" y="772.65813" style="stroke: #000000; stroke-width: 0.8"/>
      </g>
     </g>
     <g id="text_47">
      <!-- 1.000 -->
      <g transform="translate(23.040865 776.457349) scale(0.1 -0.1)">
       <use xlink:href="#DejaVuSans-31"/>
       <use xlink:href="#DejaVuSans-2e" x="63.623047"/>
       <use xlink:href="#DejaVuSans-30" x="95.410156"/>
       <use xlink:href="#DejaVuSans-30" x="159.033203"/>
       <use xlink:href="#DejaVuSans-30" x="222.65625"/>
      </g>
     </g>
    </g>
    <g id="ytick_28">
     <g id="line2d_92">
      <g>
       <use xlink:href="#md232d3af1f" x="58.66899" y="734.364598" style="stroke: #000000; stroke-width: 0.8"/>
      </g>
     </g>
     <g id="text_48">
      <!-- 1.002 -->
      <g transform="translate(23.040865 738.163817) scale(0.1 -0.1)">
       <use xlink:href="#DejaVuSans-31"/>
       <use xlink:href="#DejaVuSans-2e" x="63.623047"/>
       <use xlink:href="#DejaVuSans-30" x="95.410156"/>
       <use xlink:href="#DejaVuSans-30" x="159.033203"/>
       <use xlink:href="#DejaVuSans-32" x="222.65625"/>
      </g>
     </g>
    </g>
    <g id="text_49">
     <!-- $u_d=0.5$ -->
     <g transform="translate(16.961177 787.15277) rotate(-90) scale(0.1 -0.1)">
      <use xlink:href="#DejaVuSans-Oblique-75" transform="translate(0 0.78125)"/>
      <use xlink:href="#DejaVuSans-Oblique-64" transform="translate(63.378906 -15.625) scale(0.7)"/>
      <use xlink:href="#DejaVuSans-3d" transform="translate(130.029297 0.78125)"/>
      <use xlink:href="#DejaVuSans-30" transform="translate(233.300781 0.78125)"/>
      <use xlink:href="#DejaVuSans-2e" transform="translate(296.923828 0.78125)"/>
      <use xlink:href="#DejaVuSans-35" transform="translate(328.710938 0.78125)"/>
     </g>
    </g>
   </g>
   <g id="line2d_93">
    <path d="M 88.593116 789.194501 
L 92.106712 784.103999 
L 96.791507 776.861211 
L 101.476301 769.1921 
L 108.503493 757.194981 
L 116.701884 743.175729 
L 120.21548 737.592033 
L 127.242672 727.355718 
L 130.756268 721.856433 
L 133.098665 718.796767 
L 135.441063 716.369985 
L 137.78346 714.447161 
L 140.125857 712.897349 
L 142.468255 711.666981 
L 144.810652 710.765532 
L 147.153049 710.231911 
L 149.495447 710.113043 
L 150.666645 710.223176 
L 151.837844 710.452347 
L 153.009043 710.803518 
L 154.180241 711.277907 
L 156.522639 712.590756 
L 158.865036 714.360752 
L 161.207433 716.536521 
L 163.549831 719.064525 
L 165.892228 721.906232 
L 168.234625 725.044492 
L 170.577023 728.477455 
L 172.91942 732.204468 
L 176.433016 738.313882 
L 179.946612 744.935928 
L 184.631406 754.273117 
L 201.028188 787.504784 
L 204.541784 793.881655 
L 208.05538 799.710167 
L 211.568976 804.951221 
L 213.911373 808.112314 
L 216.25377 811.001657 
L 218.596168 813.612238 
L 220.938565 815.937604 
L 223.280962 817.975269 
L 225.62336 819.729096 
L 227.965757 821.208745 
L 230.308154 822.427011 
L 232.650552 823.395782 
L 234.992949 824.123213 
L 237.335346 824.612878 
L 239.677744 824.865649 
L 242.020141 824.882637 
L 244.362538 824.668347 
L 246.704936 824.232036 
L 249.047333 823.587206 
L 251.38973 822.749322 
L 253.732128 821.73315 
L 257.245724 819.899895 
L 260.75932 817.718489 
L 264.272916 815.204968 
L 267.786512 812.372153 
L 271.300108 809.230023 
L 274.813704 805.779629 
L 278.3273 802.00967 
L 281.840896 797.902216 
L 285.354492 793.445662 
L 288.868088 788.64456 
L 292.381684 783.519436 
L 297.066478 776.23668 
L 301.751273 768.538053 
L 308.778465 756.519113 
L 316.976856 742.527776 
L 319.319253 738.771973 
L 321.66165 735.349394 
L 325.175246 730.395674 
L 332.202438 719.743608 
L 334.544836 717.114984 
L 336.887233 715.041597 
L 339.22963 713.377442 
L 341.572028 712.041884 
L 343.914425 711.027363 
L 346.256822 710.366062 
L 348.59922 710.103719 
L 349.770418 710.136743 
L 350.941617 710.286149 
L 352.112816 710.555787 
L 353.284014 710.948003 
L 354.455213 711.46334 
L 356.79761 712.85523 
L 359.140008 714.696693 
L 361.482405 716.934688 
L 363.824802 719.517074 
L 366.1672 722.408863 
L 368.509597 725.596147 
L 370.851994 729.078368 
L 373.194392 732.853626 
L 376.707988 739.027243 
L 380.221584 745.696074 
L 384.906378 755.067382 
L 400.131961 786.021843 
L 403.645557 792.509573 
L 407.159153 798.465049 
L 410.672749 803.838055 
L 413.015146 807.088533 
L 415.357544 810.069125 
L 417.699941 812.773448 
L 420.042338 815.19442 
L 422.384736 817.327925 
L 424.727133 819.175529 
L 427.06953 820.745246 
L 429.411928 822.049183 
L 431.754325 823.09999 
L 434.096722 823.907229 
L 436.43912 824.475982 
L 438.781517 824.807672 
L 441.123914 824.902988 
L 443.466312 824.765005 
L 445.808709 824.401389 
L 448.151106 823.824385 
L 450.493504 823.049125 
L 452.835901 822.090869 
L 456.349497 820.338078 
L 459.863093 818.232427 
L 463.376689 815.791554 
L 466.890285 813.028666 
L 470.403881 809.954766 
L 473.917477 806.573422 
L 477.431073 802.875964 
L 480.944669 798.84495 
L 484.458265 794.466247 
L 487.971861 789.740397 
L 491.485457 784.684883 
L 496.170252 777.48275 
L 500.855046 769.844185 
L 507.882238 757.87049 
L 516.080629 743.827427 
L 519.594225 738.176787 
L 523.107821 733.190846 
L 525.450218 729.806853 
L 531.306212 720.764212 
L 533.648609 717.921999 
L 535.991006 715.68085 
L 538.333404 713.893421 
L 540.675801 712.452234 
L 543.018198 711.328354 
L 545.360596 710.544499 
L 547.702993 710.143853 
L 548.874192 710.102096 
L 550.04539 710.173409 
L 551.216589 710.362494 
L 552.387788 710.672825 
L 553.558986 711.10615 
L 555.901384 712.339051 
L 558.243781 714.036059 
L 560.586178 716.148081 
L 562.928576 718.620651 
L 565.270973 721.411765 
L 567.61337 724.501031 
L 569.955768 727.884758 
L 572.298165 731.563242 
L 575.811761 737.606932 
L 579.325357 744.179969 
L 584.010152 753.480704 
L 600.406933 786.766038 
L 603.920529 793.198968 
L 607.434125 799.09122 
L 610.947721 804.398336 
L 613.290118 807.60418 
L 615.632515 810.539259 
L 617.974913 813.196801 
L 620.31731 815.570024 
L 622.659707 817.655547 
L 625.002105 819.456139 
L 627.344502 820.980655 
L 629.686899 822.241593 
L 632.029297 823.251252 
L 634.371694 824.018531 
L 636.714091 824.547727 
L 639.056489 824.839945 
L 641.398886 824.896029 
L 643.741283 824.719782 
L 646.083681 824.319647 
L 648.426078 823.708522 
L 650.768475 822.901735 
L 653.110873 821.91435 
L 656.624469 820.121149 
L 660.138065 817.977506 
L 663.651661 815.500229 
L 667.165257 812.702327 
L 670.678853 809.594289 
L 674.192449 806.178485 
L 677.706045 802.444886 
L 681.219641 798.375735 
L 684.733237 793.958102 
L 687.075634 790.819899 
L 687.075634 790.819899 
" clip-path="url(#p0d6ac14942)" style="fill: none; stroke: #1f77b4; stroke-width: 1.5; stroke-linecap: square"/>
   </g>
   <g id="patch_33">
    <path d="M 58.66899 830.64351 
L 58.66899 704.362029 
" style="fill: none; stroke: #000000; stroke-width: 0.8; stroke-linejoin: miter; stroke-linecap: square"/>
   </g>
   <g id="patch_34">
    <path d="M 716.99976 830.64351 
L 716.99976 704.362029 
" style="fill: none; stroke: #000000; stroke-width: 0.8; stroke-linejoin: miter; stroke-linecap: square"/>
   </g>
   <g id="patch_35">
    <path d="M 58.66899 830.64351 
L 716.99976 830.64351 
" style="fill: none; stroke: #000000; stroke-width: 0.8; stroke-linejoin: miter; stroke-linecap: square"/>
   </g>
   <g id="patch_36">
    <path d="M 58.66899 704.362029 
L 716.99976 704.362029 
" style="fill: none; stroke: #000000; stroke-width: 0.8; stroke-linejoin: miter; stroke-linecap: square"/>
   </g>
   <g id="legend_6">
    <g id="patch_37">
     <path d="M 658.14726 722.504529 
L 711.39976 722.504529 
Q 712.99976 722.504529 712.99976 720.904529 
L 712.99976 709.962029 
Q 712.99976 708.362029 711.39976 708.362029 
L 658.14726 708.362029 
Q 656.54726 708.362029 656.54726 709.962029 
L 656.54726 720.904529 
Q 656.54726 722.504529 658.14726 722.504529 
z
" style="fill: #ffffff; opacity: 0.8; stroke: #cccccc; stroke-linejoin: miter"/>
    </g>
    <g id="line2d_94">
     <path d="M 659.74726 714.840779 
L 667.74726 714.840779 
L 675.74726 714.840779 
" style="fill: none; stroke: #1f77b4; stroke-width: 1.5; stroke-linecap: square"/>
    </g>
    <g id="text_50">
     <!-- t=25.0 -->
     <g transform="translate(682.14726 717.640779) scale(0.08 -0.08)">
      <use xlink:href="#DejaVuSans-74"/>
      <use xlink:href="#DejaVuSans-3d" x="39.208984"/>
      <use xlink:href="#DejaVuSans-32" x="122.998047"/>
      <use xlink:href="#DejaVuSans-35" x="186.621094"/>
      <use xlink:href="#DejaVuSans-2e" x="250.244141"/>
      <use xlink:href="#DejaVuSans-30" x="282.03125"/>
     </g>
    </g>
   </g>
  </g>
  <g id="text_51">
   <!-- Density snapshots for u_d=0.1..1.0  [ud_comparison] -->
   <g transform="translate(200.050313 12.118365) scale(0.12 -0.12)">
    <defs>
     <path id="DejaVuSans-44" d="M 1259 4147 
L 1259 519 
L 2022 519 
Q 2988 519 3436 956 
Q 3884 1394 3884 2338 
Q 3884 3275 3436 3711 
Q 2988 4147 2022 4147 
L 1259 4147 
z
M 628 4666 
L 1925 4666 
Q 3281 4666 3915 4102 
Q 4550 3538 4550 2338 
Q 4550 1131 3912 565 
Q 3275 0 1925 0 
L 628 0 
L 628 4666 
z
" transform="scale(0.015625)"/>
     <path id="DejaVuSans-65" d="M 3597 1894 
L 3597 1613 
L 953 1613 
Q 991 1019 1311 708 
Q 1631 397 2203 397 
Q 2534 397 2845 478 
Q 3156 559 3463 722 
L 3463 178 
Q 3153 47 2828 -22 
Q 2503 -91 2169 -91 
Q 1331 -91 842 396 
Q 353 884 353 1716 
Q 353 2575 817 3079 
Q 1281 3584 2069 3584 
Q 2775 3584 3186 3129 
Q 3597 2675 3597 1894 
z
M 3022 2063 
Q 3016 2534 2758 2815 
Q 2500 3097 2075 3097 
Q 1594 3097 1305 2825 
Q 1016 2553 972 2059 
L 3022 2063 
z
" transform="scale(0.015625)"/>
     <path id="DejaVuSans-6e" d="M 3513 2113 
L 3513 0 
L 2938 0 
L 2938 2094 
Q 2938 2591 2744 2837 
Q 2550 3084 2163 3084 
Q 1697 3084 1428 2787 
Q 1159 2491 1159 1978 
L 1159 0 
L 581 0 
L 581 3500 
L 1159 3500 
L 1159 2956 
Q 1366 3272 1645 3428 
Q 1925 3584 2291 3584 
Q 2894 3584 3203 3211 
Q 3513 2838 3513 2113 
z
" transform="scale(0.015625)"/>
     <path id="DejaVuSans-73" d="M 2834 3397 
L 2834 2853 
Q 2591 2978 2328 3040 
Q 2066 3103 1784 3103 
Q 1356 3103 1142 2972 
Q 928 2841 928 2578 
Q 928 2378 1081 2264 
Q 1234 2150 1697 2047 
L 1894 2003 
Q 2506 1872 2764 1633 
Q 3022 1394 3022 966 
Q 3022 478 2636 193 
Q 2250 -91 1575 -91 
Q 1294 -91 989 -36 
Q 684 19 347 128 
L 347 722 
Q 666 556 975 473 
Q 1284 391 1588 391 
Q 1994 391 2212 530 
Q 2431 669 2431 922 
Q 2431 1156 2273 1281 
Q 2116 1406 1581 1522 
L 1381 1569 
Q 847 1681 609 1914 
Q 372 2147 372 2553 
Q 372 3047 722 3315 
Q 1072 3584 1716 3584 
Q 2034 3584 2315 3537 
Q 2597 3491 2834 3397 
z
" transform="scale(0.015625)"/>
     <path id="DejaVuSans-69" d="M 603 3500 
L 1178 3500 
L 1178 0 
L 603 0 
L 603 3500 
z
M 603 4863 
L 1178 4863 
L 1178 4134 
L 603 4134 
L 603 4863 
z
" transform="scale(0.015625)"/>
     <path id="DejaVuSans-79" d="M 2059 -325 
Q 1816 -950 1584 -1140 
Q 1353 -1331 966 -1331 
L 506 -1331 
L 506 -850 
L 844 -850 
Q 1081 -850 1212 -737 
Q 1344 -625 1503 -206 
L 1606 56 
L 191 3500 
L 800 3500 
L 1894 763 
L 2988 3500 
L 3597 3500 
L 2059 -325 
z
" transform="scale(0.015625)"/>
     <path id="DejaVuSans-20" transform="scale(0.015625)"/>
     <path id="DejaVuSans-61" d="M 2194 1759 
Q 1497 1759 1228 1600 
Q 959 1441 959 1056 
Q 959 750 1161 570 
Q 1363 391 1709 391 
Q 2188 391 2477 730 
Q 2766 1069 2766 1631 
L 2766 1759 
L 2194 1759 
z
M 3341 1997 
L 3341 0 
L 2766 0 
L 2766 531 
Q 2569 213 2275 61 
Q 1981 -91 1556 -91 
Q 1019 -91 701 211 
Q 384 513 384 1019 
Q 384 1609 779 1909 
Q 1175 2209 1959 2209 
L 2766 2209 
L 2766 2266 
Q 2766 2663 2505 2880 
Q 2244 3097 1772 3097 
Q 1472 3097 1187 3025 
Q 903 2953 641 2809 
L 641 3341 
Q 956 3463 1253 3523 
Q 1550 3584 1831 3584 
Q 2591 3584 2966 3190 
Q 3341 2797 3341 1997 
z
" transform="scale(0.015625)"/>
     <path id="DejaVuSans-70" d="M 1159 525 
L 1159 -1331 
L 581 -1331 
L 581 3500 
L 1159 3500 
L 1159 2969 
Q 1341 3281 1617 3432 
Q 1894 3584 2278 3584 
Q 2916 3584 3314 3078 
Q 3713 2572 3713 1747 
Q 3713 922 3314 415 
Q 2916 -91 2278 -91 
Q 1894 -91 1617 61 
Q 1341 213 1159 525 
z
M 3116 1747 
Q 3116 2381 2855 2742 
Q 2594 3103 2138 3103 
Q 1681 3103 1420 2742 
Q 1159 2381 1159 1747 
Q 1159 1113 1420 752 
Q 1681 391 2138 391 
Q 2594 391 2855 752 
Q 3116 1113 3116 1747 
z
" transform="scale(0.015625)"/>
     <path id="DejaVuSans-68" d="M 3513 2113 
L 3513 0 
L 2938 0 
L 2938 2094 
Q 2938 2591 2744 2837 
Q 2550 3084 2163 3084 
Q 1697 3084 1428 2787 
Q 1159 2491 1159 1978 
L 1159 0 
L 581 0 
L 581 4863 
L 1159 4863 
L 1159 2956 
Q 1366 3272 1645 3428 
Q 1925 3584 2291 3584 
Q 2894 3584 3203 3211 
Q 3513 2838 3513 2113 
z
" transform="scale(0.015625)"/>
     <path id="DejaVuSans-6f" d="M 1959 3097 
Q 1497 3097 1228 2736 
Q 959 2375 959 1747 
Q 959 1119 1226 758 
Q 1494 397 1959 397 
Q 2419 397 2687 759 
Q 2956 1122 2956 1747 
Q 2956 2369 2687 2733 
Q 2419 3097 1959 3097 
z
M 1959 3584 
Q 2709 3584 3137 3096 
Q 3566 2609 3566 1747 
Q 3566 888 3137 398 
Q 2709 -91 1959 -91 
Q 1206 -91 779 398 
Q 353 888 353 1747 
Q 353 2609 779 3096 
Q 1206 3584 1959 3584 
z
" transform="scale(0.015625)"/>
     <path id="DejaVuSans-66" d="M 2375 4863 
L 2375 4384 
L 1825 4384 
Q 1516 4384 1395 4259 
Q 1275 4134 1275 3809 
L 1275 3500 
L 2222 3500 
L 2222 3053 
L 1275 3053 
L 1275 0 
L 697 0 
L 697 3053 
L 147 3053 
L 147 3500 
L 697 3500 
L 697 3744 
Q 697 4328 969 4595 
Q 1241 4863 1831 4863 
L 2375 4863 
z
" transform="scale(0.015625)"/>
     <path id="DejaVuSans-72" d="M 2631 2963 
Q 2534 3019 2420 3045 
Q 2306 3072 2169 3072 
Q 1681 3072 1420 2755 
Q 1159 2438 1159 1844 
L 1159 0 
L 581 0 
L 581 3500 
L 1159 3500 
L 1159 2956 
Q 1341 3275 1631 3429 
Q 1922 3584 2338 3584 
Q 2397 3584 2469 3576 
Q 2541 3569 2628 3553 
L 2631 2963 
z
" transform="scale(0.015625)"/>
     <path id="DejaVuSans-75" d="M 544 1381 
L 544 3500 
L 1119 3500 
L 1119 1403 
Q 1119 906 1312 657 
Q 1506 409 1894 409 
Q 2359 409 2629 706 
Q 2900 1003 2900 1516 
L 2900 3500 
L 3475 3500 
L 3475 0 
L 2900 0 
L 2900 538 
Q 2691 219 2414 64 
Q 2138 -91 1772 -91 
Q 1169 -91 856 284 
Q 544 659 544 1381 
z
M 1991 3584 
L 1991 3584 
z
" transform="scale(0.015625)"/>
     <path id="DejaVuSans-5f" d="M 3263 -1063 
L 3263 -1509 
L -63 -1509 
L -63 -1063 
L 3263 -1063 
z
" transform="scale(0.015625)"/>
     <path id="DejaVuSans-64" d="M 2906 2969 
L 2906 4863 
L 3481 4863 
L 3481 0 
L 2906 0 
L 2906 525 
Q 2725 213 2448 61 
Q 2172 -91 1784 -91 
Q 1150 -91 751 415 
Q 353 922 353 1747 
Q 353 2572 751 3078 
Q 1150 3584 1784 3584 
Q 2172 3584 2448 3432 
Q 2725 3281 2906 2969 
z
M 947 1747 
Q 947 1113 1208 752 
Q 1469 391 1925 391 
Q 2381 391 2643 752 
Q 2906 1113 2906 1747 
Q 2906 2381 2643 2742 
Q 2381 3103 1925 3103 
Q 1469 3103 1208 2742 
Q 947 2381 947 1747 
z
" transform="scale(0.015625)"/>
     <path id="DejaVuSans-5b" d="M 550 4863 
L 1875 4863 
L 1875 4416 
L 1125 4416 
L 1125 -397 
L 1875 -397 
L 1875 -844 
L 550 -844 
L 550 4863 
z
" transform="scale(0.015625)"/>
     <path id="DejaVuSans-63" d="M 3122 3366 
L 3122 2828 
Q 2878 2963 2633 3030 
Q 2388 3097 2138 3097 
Q 1578 3097 1268 2742 
Q 959 2388 959 1747 
Q 959 1106 1268 751 
Q 1578 397 2138 397 
Q 2388 397 2633 464 
Q 2878 531 3122 666 
L 3122 134 
Q 2881 22 2623 -34 
Q 2366 -91 2075 -91 
Q 1284 -91 818 406 
Q 353 903 353 1747 
Q 353 2603 823 3093 
Q 1294 3584 2113 3584 
Q 2378 3584 2631 3529 
Q 2884 3475 3122 3366 
z
" transform="scale(0.015625)"/>
     <path id="DejaVuSans-6d" d="M 3328 2828 
Q 3544 3216 3844 3400 
Q 4144 3584 4550 3584 
Q 5097 3584 5394 3201 
Q 5691 2819 5691 2113 
L 5691 0 
L 5113 0 
L 5113 2094 
Q 5113 2597 4934 2840 
Q 4756 3084 4391 3084 
Q 3944 3084 3684 2787 
Q 3425 2491 3425 1978 
L 3425 0 
L 2847 0 
L 2847 2094 
Q 2847 2600 2669 2842 
Q 2491 3084 2119 3084 
Q 1678 3084 1418 2786 
Q 1159 2488 1159 1978 
L 1159 0 
L 581 0 
L 581 3500 
L 1159 3500 
L 1159 2956 
Q 1356 3278 1631 3431 
Q 1906 3584 2284 3584 
Q 2666 3584 2933 3390 
Q 3200 3197 3328 2828 
z
" transform="scale(0.015625)"/>
     <path id="DejaVuSans-5d" d="M 1947 4863 
L 1947 -844 
L 622 -844 
L 622 -397 
L 1369 -397 
L 1369 4416 
L 622 4416 
L 622 4863 
L 1947 4863 
z
" transform="scale(0.015625)"/>
    </defs>
    <use xlink:href="#DejaVuSans-44"/>
    <use xlink:href="#DejaVuSans-65" x="77.001953"/>
    <use xlink:href="#DejaVuSans-6e" x="138.525391"/>
    <use xlink:href="#DejaVuSans-73" x="201.904297"/>
    <use xlink:href="#DejaVuSans-69" x="254.003906"/>
    <use xlink:href="#DejaVuSans-74" x="281.787109"/>
    <use xlink:href="#DejaVuSans-79" x="320.996094"/>
    <use xlink:href="#DejaVuSans-20" x="380.175781"/>
    <use xlink:href="#DejaVuSans-73" x="411.962891"/>
    <use xlink:href="#DejaVuSans-6e" x="464.0625"/>
    <use xlink:href="#DejaVuSans-61" x="527.441406"/>
    <use xlink:href="#DejaVuSans-70" x="588.720703"/>
    <use xlink:href="#DejaVuSans-73" x="652.197266"/>
    <use xlink:href="#DejaVuSans-68" x="704.296875"/>
    <use xlink:href="#DejaVuSans-6f" x="767.675781"/>
    <use xlink:href="#DejaVuSans-74" x="828.857422"/>
    <use xlink:href="#DejaVuSans-73" x="868.066406"/>
    <use xlink:href="#DejaVuSans-20" x="920.166016"/>
    <use xlink:href="#DejaVuSans-66" x="951.953125"/>
    <use xlink:href="#DejaVuSans-6f" x="987.158203"/>
    <use xlink:href="#DejaVuSans-72" x="1048.339844"/>
    <use xlink:href="#DejaVuSans-20" x="1089.453125"/>
    <use xlink:href="#DejaVuSans-75" x="1121.240234"/>
    <use xlink:href="#DejaVuSans-5f" x="1184.619141"/>
    <use xlink:href="#DejaVuSans-64" x="1234.619141"/>
    <use xlink:href="#DejaVuSans-3d" x="1298.095703"/>
    <use xlink:href="#DejaVuSans-30" x="1381.884766"/>
    <use xlink:href="#DejaVuSans-2e" x="1445.507812"/>
    <use xlink:href="#DejaVuSans-31" x="1477.294922"/>
    <use xlink:href="#DejaVuSans-2e" x="1540.917969"/>
    <use xlink:href="#DejaVuSans-2e" x="1572.705078"/>
    <use xlink:href="#DejaVuSans-31" x="1604.492188"/>
    <use xlink:href="#DejaVuSans-2e" x="1668.115234"/>
    <use xlink:href="#DejaVuSans-30" x="1699.902344"/>
    <use xlink:href="#DejaVuSans-20" x="1763.525391"/>
    <use xlink:href="#DejaVuSans-20" x="1795.3125"/>
    <use xlink:href="#DejaVuSans-5b" x="1827.099609"/>
    <use xlink:href="#DejaVuSans-75" x="1866.113281"/>
    <use xlink:href="#DejaVuSans-64" x="1929.492188"/>
    <use xlink:href="#DejaVuSans-5f" x="1992.96875"/>
    <use xlink:href="#DejaVuSans-63" x="2042.96875"/>
    <use xlink:href="#DejaVuSans-6f" x="2097.949219"/>
    <use xlink:href="#DejaVuSans-6d" x="2159.130859"/>
    <use xlink:href="#DejaVuSans-70" x="2256.542969"/>
    <use xlink:href="#DejaVuSans-61" x="2320.019531"/>
    <use xlink:href="#DejaVuSans-72" x="2381.298828"/>
    <use xlink:href="#DejaVuSans-69" x="2422.412109"/>
    <use xlink:href="#DejaVuSans-73" x="2450.195312"/>
    <use xlink:href="#DejaVuSans-6f" x="2502.294922"/>
    <use xlink:href="#DejaVuSans-6e" x="2563.476562"/>
    <use xlink:href="#DejaVuSans-5d" x="2626.855469"/>
   </g>
  </g>
 </g>
 <defs>
  <clipPath id="p476c07342e">
   <rect x="58.66899" y="20.94822" width="658.33077" height="126.281481"/>
  </clipPath>
  <clipPath id="p6ac01470f7">
   <rect x="58.66899" y="156.971942" width="658.33077" height="126.281481"/>
  </clipPath>
  <clipPath id="p3dc8068fbf">
   <rect x="58.66899" y="294.388944" width="658.33077" height="126.281481"/>
  </clipPath>
  <clipPath id="p09a3758019">
   <rect x="58.66899" y="432.675684" width="658.33077" height="126.281481"/>
  </clipPath>
  <clipPath id="p285af9bd5f">
   <rect x="58.66899" y="568.457645" width="658.33077" height="126.281481"/>
  </clipPath>
  <clipPath id="p0d6ac14942">
   <rect x="58.66899" y="704.362029" width="658.33077" height="126.281481"/>
  </clipPath>
 </defs>
</svg>
