<?xml version="1.0" encoding="utf-8" standalone="no"?>
<!DOCTYPE svg PUBLIC "-//W3C//DTD SVG 1.1//EN"
  "http://www.w3.org/Graphics/SVG/1.1/DTD/svg11.dtd">
<svg xmlns:xlink="http://www.w3.org/1999/xlink" width="720pt" height="864pt" viewBox="0 0 720 864" xmlns="http://www.w3.org/2000/svg" version="1.1">
 <metadata>
  <rdf:RDF xmlns:dc="http://purl.org/dc/elements/1.1/" xmlns:cc="http://creativecommons.org/ns#" xmlns:rdf="http://www.w3.org/1999/02/22-rdf-syntax-ns#">
   <cc:Work>
    <dc:type rdf:resource="http://purl.org/dc/dcmitype/StillImage"/>
    <dc:date>2025-09-17T01:59:58.646080</dc:date>
    <dc:format>image/svg+xml</dc:format>
    <dc:creator>
     <cc:Agent>
      <dc:title>Matplotlib v3.8.4, https://matplotlib.org/</dc:title>
     </cc:Agent>
    </dc:creator>
   </cc:Work>
  </rdf:RDF>
 </metadata>
 <defs>
  <style type="text/css">*{stroke-linejoin: round; stroke-linecap: butt}</style>
 </defs>
 <g id="figure_1">
  <g id="patch_1">
   <path d="M 0 864 
L 720 864 
L 720 0 
L 0 0 
z
" style="fill: #ffffff"/>
  </g>
  <g id="axes_1">
   <g id="patch_2">
    <path d="M 58.66899 215.919128 
L 716.99976 215.919128 
L 716.99976 20.94822 
L 58.66899 20.94822 
z
" style="fill: #ffffff"/>
   </g>
   <g id="matplotlib.axis_1">
    <g id="xtick_1">
     <g id="line2d_1">
      <defs>
       <path id="m41a398d603" d="M 0 0 
L 0 3.5 
" style="stroke: #000000; stroke-width: 0.8"/>
      </defs>
      <g>
       <use xlink:href="#m41a398d603" x="88.593116" y="215.919128" style="stroke: #000000; stroke-width: 0.8"/>
      </g>
     </g>
    </g>
    <g id="xtick_2">
     <g id="line2d_2">
      <g>
       <use xlink:href="#m41a398d603" x="163.549831" y="215.919128" style="stroke: #000000; stroke-width: 0.8"/>
      </g>
     </g>
    </g>
    <g id="xtick_3">
     <g id="line2d_3">
      <g>
       <use xlink:href="#m41a398d603" x="238.506545" y="215.919128" style="stroke: #000000; stroke-width: 0.8"/>
      </g>
     </g>
    </g>
    <g id="xtick_4">
     <g id="line2d_4">
      <g>
       <use xlink:href="#m41a398d603" x="313.46326" y="215.919128" style="stroke: #000000; stroke-width: 0.8"/>
      </g>
     </g>
    </g>
    <g id="xtick_5">
     <g id="line2d_5">
      <g>
       <use xlink:href="#m41a398d603" x="388.419974" y="215.919128" style="stroke: #000000; stroke-width: 0.8"/>
      </g>
     </g>
    </g>
    <g id="xtick_6">
     <g id="line2d_6">
      <g>
       <use xlink:href="#m41a398d603" x="463.376689" y="215.919128" style="stroke: #000000; stroke-width: 0.8"/>
      </g>
     </g>
    </g>
    <g id="xtick_7">
     <g id="line2d_7">
      <g>
       <use xlink:href="#m41a398d603" x="538.333404" y="215.919128" style="stroke: #000000; stroke-width: 0.8"/>
      </g>
     </g>
    </g>
    <g id="xtick_8">
     <g id="line2d_8">
      <g>
       <use xlink:href="#m41a398d603" x="613.290118" y="215.919128" style="stroke: #000000; stroke-width: 0.8"/>
      </g>
     </g>
    </g>
    <g id="xtick_9">
     <g id="line2d_9">
      <g>
       <use xlink:href="#m41a398d603" x="688.246833" y="215.919128" style="stroke: #000000; stroke-width: 0.8"/>
      </g>
     </g>
    </g>
   </g>
   <g id="matplotlib.axis_2">
    <g id="ytick_1">
     <g id="line2d_10">
      <defs>
       <path id="ma58fcee7f1" d="M 0 0 
L -3.5 0 
" style="stroke: #000000; stroke-width: 0.8"/>
      </defs>
      <g>
       <use xlink:href="#ma58fcee7f1" x="58.66899" y="208.109363" style="stroke: #000000; stroke-width: 0.8"/>
      </g>
     </g>
     <g id="text_1">
      <!-- 0.6 -->
      <g transform="translate(35.765865 211.908582) scale(0.1 -0.1)">
       <defs>
        <path id="DejaVuSans-30" d="M 2034 4250 
Q 1547 4250 1301 3770 
Q 1056 3291 1056 2328 
Q 1056 1369 1301 889 
Q 1547 409 2034 409 
Q 2525 409 2770 889 
Q 3016 1369 3016 2328 
Q 3016 3291 2770 3770 
Q 2525 4250 2034 4250 
z
M 2034 4750 
Q 2819 4750 3233 4129 
Q 3647 3509 3647 2328 
Q 3647 1150 3233 529 
Q 2819 -91 2034 -91 
Q 1250 -91 836 529 
Q 422 1150 422 2328 
Q 422 3509 836 4129 
Q 1250 4750 2034 4750 
z
" transform="scale(0.015625)"/>
        <path id="DejaVuSans-2e" d="M 684 794 
L 1344 794 
L 1344 0 
L 684 0 
L 684 794 
z
" transform="scale(0.015625)"/>
        <path id="DejaVuSans-36" d="M 2113 2584 
Q 1688 2584 1439 2293 
Q 1191 2003 1191 1497 
Q 1191 994 1439 701 
Q 1688 409 2113 409 
Q 2538 409 2786 701 
Q 3034 994 3034 1497 
Q 3034 2003 2786 2293 
Q 2538 2584 2113 2584 
z
M 3366 4563 
L 3366 3988 
Q 3128 4100 2886 4159 
Q 2644 4219 2406 4219 
Q 1781 4219 1451 3797 
Q 1122 3375 1075 2522 
Q 1259 2794 1537 2939 
Q 1816 3084 2150 3084 
Q 2853 3084 3261 2657 
Q 3669 2231 3669 1497 
Q 3669 778 3244 343 
Q 2819 -91 2113 -91 
Q 1303 -91 875 529 
Q 447 1150 447 2328 
Q 447 3434 972 4092 
Q 1497 4750 2381 4750 
Q 2619 4750 2861 4703 
Q 3103 4656 3366 4563 
z
" transform="scale(0.015625)"/>
       </defs>
       <use xlink:href="#DejaVuSans-30"/>
       <use xlink:href="#DejaVuSans-2e" x="63.623047"/>
       <use xlink:href="#DejaVuSans-36" x="95.410156"/>
      </g>
     </g>
    </g>
    <g id="ytick_2">
     <g id="line2d_11">
      <g>
       <use xlink:href="#ma58fcee7f1" x="58.66899" y="175.657436" style="stroke: #000000; stroke-width: 0.8"/>
      </g>
     </g>
     <g id="text_2">
      <!-- 0.8 -->
      <g transform="translate(35.765865 179.456654) scale(0.1 -0.1)">
       <defs>
        <path id="DejaVuSans-38" d="M 2034 2216 
Q 1584 2216 1326 1975 
Q 1069 1734 1069 1313 
Q 1069 891 1326 650 
Q 1584 409 2034 409 
Q 2484 409 2743 651 
Q 3003 894 3003 1313 
Q 3003 1734 2745 1975 
Q 2488 2216 2034 2216 
z
M 1403 2484 
Q 997 2584 770 2862 
Q 544 3141 544 3541 
Q 544 4100 942 4425 
Q 1341 4750 2034 4750 
Q 2731 4750 3128 4425 
Q 3525 4100 3525 3541 
Q 3525 3141 3298 2862 
Q 3072 2584 2669 2484 
Q 3125 2378 3379 2068 
Q 3634 1759 3634 1313 
Q 3634 634 3220 271 
Q 2806 -91 2034 -91 
Q 1263 -91 848 271 
Q 434 634 434 1313 
Q 434 1759 690 2068 
Q 947 2378 1403 2484 
z
M 1172 3481 
Q 1172 3119 1398 2916 
Q 1625 2713 2034 2713 
Q 2441 2713 2670 2916 
Q 2900 3119 2900 3481 
Q 2900 3844 2670 4047 
Q 2441 4250 2034 4250 
Q 1625 4250 1398 4047 
Q 1172 3844 1172 3481 
z
" transform="scale(0.015625)"/>
       </defs>
       <use xlink:href="#DejaVuSans-30"/>
       <use xlink:href="#DejaVuSans-2e" x="63.623047"/>
       <use xlink:href="#DejaVuSans-38" x="95.410156"/>
      </g>
     </g>
    </g>
    <g id="ytick_3">
     <g id="line2d_12">
      <g>
       <use xlink:href="#ma58fcee7f1" x="58.66899" y="143.205508" style="stroke: #000000; stroke-width: 0.8"/>
      </g>
     </g>
     <g id="text_3">
      <!-- 1.0 -->
      <g transform="translate(35.765865 147.004727) scale(0.1 -0.1)">
       <defs>
        <path id="DejaVuSans-31" d="M 794 531 
L 1825 531 
L 1825 4091 
L 703 3866 
L 703 4441 
L 1819 4666 
L 2450 4666 
L 2450 531 
L 3481 531 
L 3481 0 
L 794 0 
L 794 531 
z
" transform="scale(0.015625)"/>
       </defs>
       <use xlink:href="#DejaVuSans-31"/>
       <use xlink:href="#DejaVuSans-2e" x="63.623047"/>
       <use xlink:href="#DejaVuSans-30" x="95.410156"/>
      </g>
     </g>
    </g>
    <g id="ytick_4">
     <g id="line2d_13">
      <g>
       <use xlink:href="#ma58fcee7f1" x="58.66899" y="110.753581" style="stroke: #000000; stroke-width: 0.8"/>
      </g>
     </g>
     <g id="text_4">
      <!-- 1.2 -->
      <g transform="translate(35.765865 114.552799) scale(0.1 -0.1)">
       <defs>
        <path id="DejaVuSans-32" d="M 1228 531 
L 3431 531 
L 3431 0 
L 469 0 
L 469 531 
Q 828 903 1448 1529 
Q 2069 2156 2228 2338 
Q 2531 2678 2651 2914 
Q 2772 3150 2772 3378 
Q 2772 3750 2511 3984 
Q 2250 4219 1831 4219 
Q 1534 4219 1204 4116 
Q 875 4013 500 3803 
L 500 4441 
Q 881 4594 1212 4672 
Q 1544 4750 1819 4750 
Q 2544 4750 2975 4387 
Q 3406 4025 3406 3419 
Q 3406 3131 3298 2873 
Q 3191 2616 2906 2266 
Q 2828 2175 2409 1742 
Q 1991 1309 1228 531 
z
" transform="scale(0.015625)"/>
       </defs>
       <use xlink:href="#DejaVuSans-31"/>
       <use xlink:href="#DejaVuSans-2e" x="63.623047"/>
       <use xlink:href="#DejaVuSans-32" x="95.410156"/>
      </g>
     </g>
    </g>
    <g id="ytick_5">
     <g id="line2d_14">
      <g>
       <use xlink:href="#ma58fcee7f1" x="58.66899" y="78.301653" style="stroke: #000000; stroke-width: 0.8"/>
      </g>
     </g>
     <g id="text_5">
      <!-- 1.4 -->
      <g transform="translate(35.765865 82.100872) scale(0.1 -0.1)">
       <defs>
        <path id="DejaVuSans-34" d="M 2419 4116 
L 825 1625 
L 2419 1625 
L 2419 4116 
z
M 2253 4666 
L 3047 4666 
L 3047 1625 
L 3713 1625 
L 3713 1100 
L 3047 1100 
L 3047 0 
L 2419 0 
L 2419 1100 
L 313 1100 
L 313 1709 
L 2253 4666 
z
" transform="scale(0.015625)"/>
       </defs>
       <use xlink:href="#DejaVuSans-31"/>
       <use xlink:href="#DejaVuSans-2e" x="63.623047"/>
       <use xlink:href="#DejaVuSans-34" x="95.410156"/>
      </g>
     </g>
    </g>
    <g id="ytick_6">
     <g id="line2d_15">
      <g>
       <use xlink:href="#ma58fcee7f1" x="58.66899" y="45.849726" style="stroke: #000000; stroke-width: 0.8"/>
      </g>
     </g>
     <g id="text_6">
      <!-- 1.6 -->
      <g transform="translate(35.765865 49.648944) scale(0.1 -0.1)">
       <use xlink:href="#DejaVuSans-31"/>
       <use xlink:href="#DejaVuSans-2e" x="63.623047"/>
       <use xlink:href="#DejaVuSans-36" x="95.410156"/>
      </g>
     </g>
    </g>
    <g id="text_7">
     <!-- $u_d=0.1$ -->
     <g transform="translate(29.686177 138.083674) rotate(-90) scale(0.1 -0.1)">
      <defs>
       <path id="DejaVuSans-Oblique-75" d="M 428 1388 
L 838 3500 
L 1416 3500 
L 1006 1409 
Q 975 1256 961 1147 
Q 947 1038 947 966 
Q 947 700 1109 554 
Q 1272 409 1569 409 
Q 2031 409 2368 721 
Q 2706 1034 2809 1563 
L 3194 3500 
L 3769 3500 
L 3091 0 
L 2516 0 
L 2631 550 
Q 2388 244 2052 76 
Q 1716 -91 1338 -91 
Q 878 -91 622 161 
Q 366 413 366 863 
Q 366 956 381 1097 
Q 397 1238 428 1388 
z
" transform="scale(0.015625)"/>
       <path id="DejaVuSans-Oblique-64" d="M 2675 525 
Q 2444 222 2128 65 
Q 1813 -91 1428 -91 
Q 903 -91 598 267 
Q 294 625 294 1247 
Q 294 1766 478 2236 
Q 663 2706 1013 3078 
Q 1244 3325 1534 3454 
Q 1825 3584 2144 3584 
Q 2481 3584 2739 3421 
Q 2997 3259 3138 2956 
L 3513 4863 
L 4091 4863 
L 3144 0 
L 2566 0 
L 2675 525 
z
M 891 1350 
Q 891 897 1095 644 
Q 1300 391 1663 391 
Q 1931 391 2161 520 
Q 2391 650 2566 903 
Q 2750 1166 2856 1509 
Q 2963 1853 2963 2188 
Q 2963 2622 2758 2865 
Q 2553 3109 2194 3109 
Q 1922 3109 1687 2981 
Q 1453 2853 1288 2613 
Q 1106 2353 998 2009 
Q 891 1666 891 1350 
z
" transform="scale(0.015625)"/>
       <path id="DejaVuSans-3d" d="M 678 2906 
L 4684 2906 
L 4684 2381 
L 678 2381 
L 678 2906 
z
M 678 1631 
L 4684 1631 
L 4684 1100 
L 678 1100 
L 678 1631 
z
" transform="scale(0.015625)"/>
      </defs>
      <use xlink:href="#DejaVuSans-Oblique-75" transform="translate(0 0.78125)"/>
      <use xlink:href="#DejaVuSans-Oblique-64" transform="translate(63.378906 -15.625) scale(0.7)"/>
      <use xlink:href="#DejaVuSans-3d" transform="translate(130.029297 0.78125)"/>
      <use xlink:href="#DejaVuSans-30" transform="translate(233.300781 0.78125)"/>
      <use xlink:href="#DejaVuSans-2e" transform="translate(296.923828 0.78125)"/>
      <use xlink:href="#DejaVuSans-31" transform="translate(328.710938 0.78125)"/>
     </g>
    </g>
   </g>
   <g id="line2d_16">
    <path d="M 88.593116 124.485552 
L 89.764315 133.722233 
L 90.935513 131.134144 
L 92.106712 121.303629 
L 93.277911 129.703436 
L 94.449109 128.596657 
L 95.620308 118.209057 
L 96.791507 125.616447 
L 97.962705 125.789955 
L 99.133904 115.127662 
L 100.305103 121.499333 
L 101.476301 122.736997 
L 102.6475 111.997946 
L 103.818699 117.361778 
L 104.989897 119.467586 
L 106.161096 108.775048 
L 107.332295 113.195719 
L 108.503493 116.009145 
L 109.674692 105.428883 
L 112.017089 112.38369 
L 113.188288 101.940849 
L 114.359487 104.709255 
L 115.530685 108.608826 
L 116.701884 98.299976 
L 117.873083 100.351942 
L 119.044281 104.69866 
L 120.21548 94.499765 
L 121.386679 95.894476 
L 122.557877 100.664195 
L 123.729076 90.53562 
L 124.900275 91.319489 
L 126.071473 96.51553 
L 127.242672 86.403339 
L 128.413871 86.609456 
L 129.585069 92.264111 
L 130.756268 82.098053 
L 131.927467 81.745355 
L 133.098665 87.924943 
L 134.269864 77.611684 
L 135.441063 76.705466 
L 136.612261 83.522605 
L 137.78346 72.926903 
L 138.954659 71.465377 
L 140.125857 79.113568 
L 141.297056 67.98245 
L 142.468255 65.945948 
L 143.639453 74.909515 
L 144.810652 62.803953 
L 145.981851 59.788362 
L 147.153049 70.989466 
L 148.324248 57.713559 
L 149.495447 52.873517 
L 150.666645 67.378928 
L 151.837844 52.553883 
L 153.009043 45.029177 
L 154.180241 65.650981 
L 155.35144 45.597112 
L 156.522639 36.759238 
L 157.693837 124.673391 
L 158.865036 202.960024 
L 160.036235 194.483541 
L 161.207433 187.37548 
L 162.378632 201.282144 
L 163.549831 192.259864 
L 164.721029 189.672358 
L 165.892228 198.820335 
L 167.063427 191.378964 
L 168.234625 189.850949 
L 169.405824 196.997113 
L 170.577023 190.549152 
L 171.748221 189.416148 
L 172.91942 195.451322 
L 174.090619 189.67662 
L 175.261817 188.705189 
L 176.433016 194.040603 
L 177.604215 188.752262 
L 178.775413 187.83523 
L 179.946612 192.698817 
L 181.117811 187.777972 
L 182.289009 186.857147 
L 183.460208 191.390644 
L 184.631406 186.756668 
L 185.802605 185.796075 
L 186.973804 190.09508 
L 188.145002 185.690645 
L 189.316201 184.665317 
L 190.4874 188.798466 
L 191.658598 184.581422 
L 192.829797 183.472073 
L 194.000996 187.491242 
L 195.172194 183.429914 
L 196.343393 182.220119 
L 197.514592 186.166285 
L 198.68579 182.236607 
L 199.856989 180.911161 
L 201.028188 184.817969 
L 202.199386 181.001685 
L 203.370585 179.545561 
L 204.541784 183.441627 
L 205.712982 179.725175 
L 206.884181 178.122822 
L 208.05538 182.033288 
L 209.226578 178.407146 
L 210.397777 176.641945 
L 211.568976 180.589548 
L 212.740174 177.047874 
L 213.911373 175.101636 
L 215.082572 179.107408 
L 216.25377 175.647867 
L 217.424969 173.50031 
L 218.596168 177.584004 
L 219.767366 174.207808 
L 220.938565 171.836009 
L 222.109764 176.016348 
L 223.280962 172.728514 
L 224.452161 170.106356 
L 225.62336 174.401118 
L 227.965757 168.308545 
L 229.136956 172.734458 
L 231.479353 166.439353 
L 232.650552 171.011752 
L 233.82175 168.066135 
L 234.992949 164.495164 
L 236.164148 169.227325 
L 237.335346 166.442179 
L 238.506545 162.472059 
L 239.677744 167.37409 
L 240.848942 164.786764 
L 242.020141 160.366038 
L 243.19134 165.443167 
L 244.362538 163.102801 
L 245.533737 158.173478 
L 246.704936 163.423458 
L 247.876134 161.393996 
L 249.047333 155.891912 
L 250.218532 161.301169 
L 251.38973 159.664942 
L 252.560929 153.521234 
L 253.732128 159.059279 
L 254.903326 157.920869 
L 256.074525 151.065342 
L 257.245724 156.67677 
L 258.416922 156.166358 
L 259.588121 148.53396 
L 260.75932 154.127752 
L 261.930518 154.402672 
L 263.101717 145.945105 
L 264.272916 151.381463 
L 265.444114 152.622768 
L 266.615313 143.326741 
L 267.786512 148.403081 
L 268.95771 150.802755 
L 270.128909 140.717486 
L 271.300108 145.161535 
L 272.471306 148.896678 
L 273.642505 138.168987 
L 274.813704 141.648273 
L 275.984902 146.834723 
L 277.156101 135.736764 
L 278.3273 137.895456 
L 279.498498 144.523968 
L 280.669697 133.451289 
L 281.840896 133.987277 
L 283.012094 141.873172 
L 284.183293 131.286416 
L 285.354492 130.047915 
L 286.52569 138.842637 
L 287.696889 129.155418 
L 288.868088 126.188968 
L 290.039286 135.468344 
L 291.210485 126.948914 
L 292.381684 122.458468 
L 293.552882 131.831025 
L 294.724081 124.580699 
L 295.89528 118.8403 
L 297.066478 128.010906 
L 298.237677 122.005312 
L 299.408876 115.286466 
L 300.580074 124.065949 
L 301.751273 119.210047 
L 302.922472 111.743569 
L 304.09367 120.030158 
L 305.264869 116.200532 
L 306.436068 108.163702 
L 307.607266 115.917982 
L 308.778465 112.990075 
L 309.949664 104.508398 
L 311.120862 111.731136 
L 312.292061 109.593925 
L 313.46326 100.749101 
L 314.634458 107.465341 
L 315.805657 106.027208 
L 316.976856 96.864655 
L 318.148054 103.113224 
L 319.319253 102.303993 
L 320.490452 92.838643 
L 321.66165 98.665458 
L 322.832849 98.43675 
L 324.004048 88.657167 
L 325.175246 94.11232 
L 326.346445 94.437511 
L 327.517644 84.306516 
L 328.688842 89.443994 
L 329.860041 90.319605 
L 331.03124 79.771196 
L 332.202438 84.650846 
L 333.373637 86.099553 
L 334.544836 75.030315 
L 335.716034 79.725171 
L 336.887233 81.801191 
L 338.058432 70.048527 
L 339.22963 74.669804 
L 340.400829 77.470239 
L 341.572028 64.721363 
L 342.743226 69.485529 
L 343.914425 73.337292 
L 345.085624 58.91632 
L 346.256822 63.869466 
L 347.428021 69.651606 
L 348.59922 52.824775 
L 349.770418 57.671418 
L 350.941617 66.504833 
L 352.112816 46.104549 
L 353.284014 51.199916 
L 354.455213 65.349123 
L 355.626412 35.318432 
L 356.79761 54.261714 
L 357.968809 156.522236 
L 359.140008 207.056814 
L 360.311206 188.162688 
L 361.482405 192.096737 
L 362.653604 200.903617 
L 363.824802 188.87324 
L 364.996001 192.986551 
L 366.1672 198.179675 
L 367.338398 188.880658 
L 369.680796 196.330409 
L 370.851994 188.479684 
L 373.194392 194.806542 
L 374.36559 187.853119 
L 376.707988 193.430631 
L 377.879186 187.081644 
L 380.221584 192.127093 
L 381.392782 186.205462 
L 383.73518 190.857758 
L 384.906378 185.246617 
L 387.248776 189.600877 
L 388.419974 184.217962 
L 390.762372 188.342834 
L 391.93357 183.127276 
L 393.104769 184.92661 
L 394.275968 187.074454 
L 395.447166 181.979365 
L 396.618365 183.622187 
L 397.789564 185.789164 
L 398.960762 180.777193 
L 400.131961 182.270837 
L 401.30316 184.481979 
L 402.474358 179.522532 
L 403.645557 180.870824 
L 404.816756 183.148956 
L 405.987954 178.216416 
L 407.159153 179.420022 
L 408.330352 181.786947 
L 409.50155 176.859522 
L 410.672749 177.916097 
L 411.843948 180.393475 
L 413.015146 175.452426 
L 414.186345 176.35657 
L 415.357544 178.966569 
L 416.528742 173.995696 
L 417.699941 174.738721 
L 418.87114 177.504539 
L 420.042338 172.489889 
L 421.213537 173.059429 
L 422.384736 176.005747 
L 423.555934 170.935556 
L 424.727133 171.315038 
L 425.898332 174.468451 
L 427.06953 169.333319 
L 428.240729 169.501263 
L 429.411928 172.890658 
L 430.583126 167.683985 
L 431.754325 167.613087 
L 432.925524 171.26995 
L 434.096722 165.988679 
L 435.267921 165.644643 
L 436.43912 169.603244 
L 437.610318 164.24902 
L 438.781517 163.589121 
L 439.952716 167.886486 
L 441.123914 162.467393 
L 442.295113 161.438775 
L 443.466312 166.114311 
L 444.63751 160.647387 
L 445.808709 159.185111 
L 446.979908 164.279604 
L 448.151106 158.794366 
L 449.322305 156.819324 
L 450.493504 162.372873 
L 451.664702 156.916149 
L 452.835901 154.333127 
L 454.0071 160.381332 
L 455.178298 155.023588 
L 456.349497 151.720026 
L 457.520696 158.287328 
L 458.691894 153.130413 
L 459.863093 148.97702 
L 461.034292 156.066032 
L 463.376689 146.107553 
L 464.547888 153.682951 
L 465.719086 149.401681 
L 466.890285 143.124817 
L 468.061484 151.091125 
L 469.232682 147.582971 
L 470.403881 140.057158 
L 471.57508 148.235453 
L 472.746278 145.783162 
L 473.917477 136.957989 
L 475.088676 145.068224 
L 476.259874 143.963945 
L 477.431073 133.905143 
L 478.602272 141.568612 
L 479.77347 142.047788 
L 480.944669 130.978822 
L 482.115868 137.768077 
L 483.287066 139.926116 
L 484.458265 128.223439 
L 485.629464 133.763661 
L 486.800662 137.504376 
L 487.971861 125.61585 
L 489.14306 129.682076 
L 490.314258 134.747082 
L 491.485457 123.075463 
L 492.656656 125.618353 
L 493.827854 131.677903 
L 494.999053 120.507956 
L 496.170252 121.609817 
L 497.34145 128.348488 
L 498.512649 117.839766 
L 499.683848 117.650626 
L 500.855046 124.811649 
L 502.026245 115.026004 
L 503.197444 113.713986 
L 504.368642 121.109456 
L 505.539841 112.043916 
L 506.71104 109.765614 
L 507.882238 117.270245 
L 509.053437 108.885035 
L 510.224636 105.771802 
L 511.395834 113.310806 
L 512.567033 105.549198 
L 513.738232 101.703587 
L 514.90943 109.240866 
L 516.080629 102.040673 
L 517.251828 97.536597 
L 518.423026 105.065737 
L 519.594225 98.365857 
L 520.765424 93.249714 
L 521.936622 100.787578 
L 524.27902 88.823612 
L 525.450218 96.407497 
L 527.792616 84.238772 
L 528.963814 91.927381 
L 530.135013 86.410538 
L 531.306212 79.473506 
L 532.47741 87.351666 
L 533.648609 82.139216 
L 534.819808 74.500238 
L 535.991006 82.691894 
L 537.162205 77.7374 
L 538.333404 69.278328 
L 539.504602 77.985822 
L 540.675801 73.205165 
L 541.847 63.687851 
L 543.018198 73.354955 
L 544.189397 68.713429 
L 545.360596 57.430198 
L 546.531794 68.65639 
L 547.702993 64.62276 
L 548.874192 50.521628 
L 550.04539 63.799103 
L 551.216589 60.964664 
L 552.387788 42.549843 
L 553.558986 59.832879 
L 554.730185 58.058114 
L 555.901384 29.810534 
L 557.072582 86.066326 
L 558.243781 185.98413 
L 559.41498 202.920082 
L 560.586178 185.094295 
L 561.757377 197.96989 
L 562.928576 197.263781 
L 564.099774 187.656762 
L 565.270973 196.880387 
L 566.442172 195.193164 
L 567.61337 188.123994 
L 568.784569 195.580176 
L 569.955768 193.742438 
L 571.126966 187.904393 
L 572.298165 194.300761 
L 573.469364 192.48685 
L 574.640562 187.358504 
L 575.811761 193.043645 
L 576.98296 191.304398 
L 578.154158 186.620279 
L 579.325357 191.795274 
L 580.496556 190.147031 
L 581.667754 185.751015 
L 582.838953 190.544128 
L 584.010152 188.991926 
L 585.18135 184.782546 
L 586.352549 189.281464 
L 587.523748 187.82665 
L 588.694946 183.732685 
L 589.866145 188.000461 
L 591.037344 186.643624 
L 592.208542 182.611812 
L 593.379741 186.695572 
L 594.550939 185.437824 
L 595.722138 181.426085 
L 596.893337 185.362107 
L 598.064535 184.205699 
L 599.235734 180.179099 
L 600.406933 183.995912 
L 601.578131 182.944589 
L 602.74933 178.872792 
L 603.920529 182.593159 
L 605.091727 181.652434 
L 606.262926 177.508037 
L 607.434125 181.150268 
L 608.605323 180.327715 
L 609.776522 176.085108 
L 610.947721 179.663901 
L 612.118919 178.969457 
L 613.290118 174.603966 
L 614.461317 178.130876 
L 615.632515 177.57715 
L 616.803714 173.064339 
L 617.974913 176.547954 
L 619.146111 176.150586 
L 620.31731 171.465702 
L 621.488509 174.911584 
L 622.659707 174.689723 
L 623.830906 169.807276 
L 625.002105 173.217709 
L 626.173303 173.194628 
L 627.344502 168.088105 
L 628.515701 171.461597 
L 629.686899 171.665448 
L 630.858098 166.307146 
L 632.029297 169.637637 
L 633.200495 170.102354 
L 634.371694 164.463388 
L 635.542893 167.739073 
L 636.714091 168.505442 
L 637.88529 162.556029 
L 639.056489 165.757728 
L 640.227687 166.874638 
L 641.398886 160.584816 
L 642.570085 163.683753 
L 643.741283 165.209573 
L 644.912482 158.550598 
L 646.083681 161.505436 
L 647.254879 163.509388 
L 648.426078 156.456158 
L 650.768475 161.772345 
L 651.939674 154.307376 
L 653.110873 156.779238 
L 654.282071 159.995023 
L 655.45327 152.114622 
L 656.624469 154.198713 
L 657.795667 158.170509 
L 658.966866 149.893906 
L 660.138065 151.449391 
L 661.309263 156.285283 
L 662.480462 147.667831 
L 663.651661 148.514094 
L 664.822859 154.314674 
L 665.994058 145.464724 
L 667.165257 145.379652 
L 668.336455 152.216042 
L 669.507654 143.314608 
L 670.678853 142.04519 
L 671.850051 149.927443 
L 673.02125 141.245688 
L 674.192449 138.539027 
L 675.363647 147.374792 
L 676.534846 139.271954 
L 677.706045 134.929771 
L 678.877243 144.484555 
L 680.048442 137.367048 
L 681.219641 131.320806 
L 682.390839 141.215071 
L 683.562038 135.44891 
L 684.733237 127.819601 
L 685.904435 137.595688 
L 687.075634 133.403127 
L 687.075634 133.403127 
" clip-path="url(#p97a829821a)" style="fill: none; stroke: #1f77b4; stroke-width: 1.5; stroke-linecap: square"/>
   </g>
   <g id="patch_3">
    <path d="M 58.66899 215.919128 
L 58.66899 20.94822 
" style="fill: none; stroke: #000000; stroke-width: 0.8; stroke-linejoin: miter; stroke-linecap: square"/>
   </g>
   <g id="patch_4">
    <path d="M 716.99976 215.919128 
L 716.99976 20.94822 
" style="fill: none; stroke: #000000; stroke-width: 0.8; stroke-linejoin: miter; stroke-linecap: square"/>
   </g>
   <g id="patch_5">
    <path d="M 58.66899 215.919128 
L 716.99976 215.919128 
" style="fill: none; stroke: #000000; stroke-width: 0.8; stroke-linejoin: miter; stroke-linecap: square"/>
   </g>
   <g id="patch_6">
    <path d="M 58.66899 20.94822 
L 716.99976 20.94822 
" style="fill: none; stroke: #000000; stroke-width: 0.8; stroke-linejoin: miter; stroke-linecap: square"/>
   </g>
   <g id="legend_1">
    <g id="patch_7">
     <path d="M 658.14726 39.09072 
L 711.39976 39.09072 
Q 712.99976 39.09072 712.99976 37.49072 
L 712.99976 26.54822 
Q 712.99976 24.94822 711.39976 24.94822 
L 658.14726 24.94822 
Q 656.54726 24.94822 656.54726 26.54822 
L 656.54726 37.49072 
Q 656.54726 39.09072 658.14726 39.09072 
z
" style="fill: #ffffff; opacity: 0.8; stroke: #cccccc; stroke-linejoin: miter"/>
    </g>
    <g id="line2d_17">
     <path d="M 659.74726 31.42697 
L 667.74726 31.42697 
L 675.74726 31.42697 
" style="fill: none; stroke: #1f77b4; stroke-width: 1.5; stroke-linecap: square"/>
    </g>
    <g id="text_8">
     <!-- t=25.0 -->
     <g transform="translate(682.14726 34.22697) scale(0.08 -0.08)">
      <defs>
       <path id="DejaVuSans-74" d="M 1172 4494 
L 1172 3500 
L 2356 3500 
L 2356 3053 
L 1172 3053 
L 1172 1153 
Q 1172 725 1289 603 
Q 1406 481 1766 481 
L 2356 481 
L 2356 0 
L 1766 0 
Q 1100 0 847 248 
Q 594 497 594 1153 
L 594 3053 
L 172 3053 
L 172 3500 
L 594 3500 
L 594 4494 
L 1172 4494 
z
" transform="scale(0.015625)"/>
       <path id="DejaVuSans-35" d="M 691 4666 
L 3169 4666 
L 3169 4134 
L 1269 4134 
L 1269 2991 
Q 1406 3038 1543 3061 
Q 1681 3084 1819 3084 
Q 2600 3084 3056 2656 
Q 3513 2228 3513 1497 
Q 3513 744 3044 326 
Q 2575 -91 1722 -91 
Q 1428 -91 1123 -41 
Q 819 9 494 109 
L 494 744 
Q 775 591 1075 516 
Q 1375 441 1709 441 
Q 2250 441 2565 725 
Q 2881 1009 2881 1497 
Q 2881 1984 2565 2268 
Q 2250 2553 1709 2553 
Q 1456 2553 1204 2497 
Q 953 2441 691 2322 
L 691 4666 
z
" transform="scale(0.015625)"/>
      </defs>
      <use xlink:href="#DejaVuSans-74"/>
      <use xlink:href="#DejaVuSans-3d" x="39.208984"/>
      <use xlink:href="#DejaVuSans-32" x="122.998047"/>
      <use xlink:href="#DejaVuSans-35" x="186.621094"/>
      <use xlink:href="#DejaVuSans-2e" x="250.244141"/>
      <use xlink:href="#DejaVuSans-30" x="282.03125"/>
     </g>
    </g>
   </g>
  </g>
  <g id="axes_2">
   <g id="patch_8">
    <path d="M 58.66899 420.390516 
L 716.99976 420.390516 
L 716.99976 225.419608 
L 58.66899 225.419608 
z
" style="fill: #ffffff"/>
   </g>
   <g id="matplotlib.axis_3">
    <g id="xtick_10">
     <g id="line2d_18">
      <g>
       <use xlink:href="#m41a398d603" x="88.593116" y="420.390516" style="stroke: #000000; stroke-width: 0.8"/>
      </g>
     </g>
    </g>
    <g id="xtick_11">
     <g id="line2d_19">
      <g>
       <use xlink:href="#m41a398d603" x="163.549831" y="420.390516" style="stroke: #000000; stroke-width: 0.8"/>
      </g>
     </g>
    </g>
    <g id="xtick_12">
     <g id="line2d_20">
      <g>
       <use xlink:href="#m41a398d603" x="238.506545" y="420.390516" style="stroke: #000000; stroke-width: 0.8"/>
      </g>
     </g>
    </g>
    <g id="xtick_13">
     <g id="line2d_21">
      <g>
       <use xlink:href="#m41a398d603" x="313.46326" y="420.390516" style="stroke: #000000; stroke-width: 0.8"/>
      </g>
     </g>
    </g>
    <g id="xtick_14">
     <g id="line2d_22">
      <g>
       <use xlink:href="#m41a398d603" x="388.419974" y="420.390516" style="stroke: #000000; stroke-width: 0.8"/>
      </g>
     </g>
    </g>
    <g id="xtick_15">
     <g id="line2d_23">
      <g>
       <use xlink:href="#m41a398d603" x="463.376689" y="420.390516" style="stroke: #000000; stroke-width: 0.8"/>
      </g>
     </g>
    </g>
    <g id="xtick_16">
     <g id="line2d_24">
      <g>
       <use xlink:href="#m41a398d603" x="538.333404" y="420.390516" style="stroke: #000000; stroke-width: 0.8"/>
      </g>
     </g>
    </g>
    <g id="xtick_17">
     <g id="line2d_25">
      <g>
       <use xlink:href="#m41a398d603" x="613.290118" y="420.390516" style="stroke: #000000; stroke-width: 0.8"/>
      </g>
     </g>
    </g>
    <g id="xtick_18">
     <g id="line2d_26">
      <g>
       <use xlink:href="#m41a398d603" x="688.246833" y="420.390516" style="stroke: #000000; stroke-width: 0.8"/>
      </g>
     </g>
    </g>
   </g>
   <g id="matplotlib.axis_4">
    <g id="ytick_7">
     <g id="line2d_27">
      <g>
       <use xlink:href="#ma58fcee7f1" x="58.66899" y="396.478001" style="stroke: #000000; stroke-width: 0.8"/>
      </g>
     </g>
     <g id="text_9">
      <!-- 0.90 -->
      <g transform="translate(29.403365 400.27722) scale(0.1 -0.1)">
       <defs>
        <path id="DejaVuSans-39" d="M 703 97 
L 703 672 
Q 941 559 1184 500 
Q 1428 441 1663 441 
Q 2288 441 2617 861 
Q 2947 1281 2994 2138 
Q 2813 1869 2534 1725 
Q 2256 1581 1919 1581 
Q 1219 1581 811 2004 
Q 403 2428 403 3163 
Q 403 3881 828 4315 
Q 1253 4750 1959 4750 
Q 2769 4750 3195 4129 
Q 3622 3509 3622 2328 
Q 3622 1225 3098 567 
Q 2575 -91 1691 -91 
Q 1453 -91 1209 -44 
Q 966 3 703 97 
z
M 1959 2075 
Q 2384 2075 2632 2365 
Q 2881 2656 2881 3163 
Q 2881 3666 2632 3958 
Q 2384 4250 1959 4250 
Q 1534 4250 1286 3958 
Q 1038 3666 1038 3163 
Q 1038 2656 1286 2365 
Q 1534 2075 1959 2075 
z
" transform="scale(0.015625)"/>
       </defs>
       <use xlink:href="#DejaVuSans-30"/>
       <use xlink:href="#DejaVuSans-2e" x="63.623047"/>
       <use xlink:href="#DejaVuSans-39" x="95.410156"/>
       <use xlink:href="#DejaVuSans-30" x="159.033203"/>
      </g>
     </g>
    </g>
    <g id="ytick_8">
     <g id="line2d_28">
      <g>
       <use xlink:href="#ma58fcee7f1" x="58.66899" y="364.970959" style="stroke: #000000; stroke-width: 0.8"/>
      </g>
     </g>
     <g id="text_10">
      <!-- 0.95 -->
      <g transform="translate(29.403365 368.770178) scale(0.1 -0.1)">
       <use xlink:href="#DejaVuSans-30"/>
       <use xlink:href="#DejaVuSans-2e" x="63.623047"/>
       <use xlink:href="#DejaVuSans-39" x="95.410156"/>
       <use xlink:href="#DejaVuSans-35" x="159.033203"/>
      </g>
     </g>
    </g>
    <g id="ytick_9">
     <g id="line2d_29">
      <g>
       <use xlink:href="#ma58fcee7f1" x="58.66899" y="333.463917" style="stroke: #000000; stroke-width: 0.8"/>
      </g>
     </g>
     <g id="text_11">
      <!-- 1.00 -->
      <g transform="translate(29.403365 337.263135) scale(0.1 -0.1)">
       <use xlink:href="#DejaVuSans-31"/>
       <use xlink:href="#DejaVuSans-2e" x="63.623047"/>
       <use xlink:href="#DejaVuSans-30" x="95.410156"/>
       <use xlink:href="#DejaVuSans-30" x="159.033203"/>
      </g>
     </g>
    </g>
    <g id="ytick_10">
     <g id="line2d_30">
      <g>
       <use xlink:href="#ma58fcee7f1" x="58.66899" y="301.956874" style="stroke: #000000; stroke-width: 0.8"/>
      </g>
     </g>
     <g id="text_12">
      <!-- 1.05 -->
      <g transform="translate(29.403365 305.756093) scale(0.1 -0.1)">
       <use xlink:href="#DejaVuSans-31"/>
       <use xlink:href="#DejaVuSans-2e" x="63.623047"/>
       <use xlink:href="#DejaVuSans-30" x="95.410156"/>
       <use xlink:href="#DejaVuSans-35" x="159.033203"/>
      </g>
     </g>
    </g>
    <g id="ytick_11">
     <g id="line2d_31">
      <g>
       <use xlink:href="#ma58fcee7f1" x="58.66899" y="270.449832" style="stroke: #000000; stroke-width: 0.8"/>
      </g>
     </g>
     <g id="text_13">
      <!-- 1.10 -->
      <g transform="translate(29.403365 274.24905) scale(0.1 -0.1)">
       <use xlink:href="#DejaVuSans-31"/>
       <use xlink:href="#DejaVuSans-2e" x="63.623047"/>
       <use xlink:href="#DejaVuSans-31" x="95.410156"/>
       <use xlink:href="#DejaVuSans-30" x="159.033203"/>
      </g>
     </g>
    </g>
    <g id="ytick_12">
     <g id="line2d_32">
      <g>
       <use xlink:href="#ma58fcee7f1" x="58.66899" y="238.942789" style="stroke: #000000; stroke-width: 0.8"/>
      </g>
     </g>
     <g id="text_14">
      <!-- 1.15 -->
      <g transform="translate(29.403365 242.742008) scale(0.1 -0.1)">
       <use xlink:href="#DejaVuSans-31"/>
       <use xlink:href="#DejaVuSans-2e" x="63.623047"/>
       <use xlink:href="#DejaVuSans-31" x="95.410156"/>
       <use xlink:href="#DejaVuSans-35" x="159.033203"/>
      </g>
     </g>
    </g>
    <g id="text_15">
     <!-- $u_d=0.2$ -->
     <g transform="translate(23.323677 342.255062) rotate(-90) scale(0.1 -0.1)">
      <use xlink:href="#DejaVuSans-Oblique-75" transform="translate(0 0.78125)"/>
      <use xlink:href="#DejaVuSans-Oblique-64" transform="translate(63.378906 -15.625) scale(0.7)"/>
      <use xlink:href="#DejaVuSans-3d" transform="translate(130.029297 0.78125)"/>
      <use xlink:href="#DejaVuSans-30" transform="translate(233.300781 0.78125)"/>
      <use xlink:href="#DejaVuSans-2e" transform="translate(296.923828 0.78125)"/>
      <use xlink:href="#DejaVuSans-32" transform="translate(323.210938 0.78125)"/>
     </g>
    </g>
   </g>
   <g id="line2d_33">
    <path d="M 88.593116 250.382799 
L 89.764315 250.33497 
L 90.935513 234.281922 
L 92.106712 279.243818 
L 93.277911 373.355449 
L 94.449109 411.528202 
L 95.620308 398.94894 
L 96.791507 401.661322 
L 97.962705 406.07746 
L 99.133904 398.20975 
L 101.476301 402.862041 
L 102.6475 396.921319 
L 103.818699 398.733224 
L 104.989897 400.28071 
L 106.161096 395.326089 
L 107.332295 396.724416 
L 108.503493 397.917073 
L 109.674692 393.562158 
L 112.017089 395.64382 
L 113.188288 391.691383 
L 115.530685 393.409107 
L 116.701884 389.744501 
L 117.873083 390.376588 
L 119.044281 391.187766 
L 120.21548 387.738352 
L 121.386679 388.194247 
L 122.557877 388.965892 
L 123.729076 385.682827 
L 124.900275 385.982751 
L 126.071473 386.735016 
L 127.242672 383.584003 
L 128.413871 383.741995 
L 129.585069 384.489195 
L 130.756268 381.445252 
L 131.927467 381.470836 
L 133.098665 382.223611 
L 134.269864 379.268389 
L 135.441063 379.168228 
L 136.612261 379.935507 
L 137.78346 377.056312 
L 138.954659 376.835595 
L 140.125857 377.625515 
L 141.297056 374.813644 
L 142.468255 374.475346 
L 143.639453 375.294015 
L 144.810652 372.542352 
L 145.981851 372.086431 
L 147.153049 372.937884 
L 148.324248 370.240963 
L 149.495447 369.665677 
L 150.666645 370.553233 
L 151.837844 367.907969 
L 153.009043 367.210766 
L 154.180241 368.137472 
L 155.35144 365.543171 
L 156.522639 364.720913 
L 157.693837 365.689472 
L 158.865036 363.147521 
L 160.036235 362.196262 
L 161.207433 363.208529 
L 162.378632 360.722032 
L 163.549831 359.637048 
L 164.721029 360.693949 
L 165.892228 358.267828 
L 167.063427 357.043793 
L 168.234625 358.144943 
L 169.405824 355.785624 
L 170.577023 354.416596 
L 171.748221 355.560034 
L 172.91942 353.275632 
L 174.090619 351.755621 
L 175.261817 352.937705 
L 176.433016 350.737855 
L 177.604215 349.060909 
L 178.775413 350.275835 
L 179.946612 348.171593 
L 181.117811 346.33255 
L 182.289009 347.572545 
L 184.631406 343.571285 
L 185.802605 344.826069 
L 186.973804 342.951274 
L 188.145002 340.777713 
L 189.316201 342.034724 
L 190.4874 340.295236 
L 191.658598 337.953294 
L 192.829797 339.197581 
L 194.000996 337.606989 
L 195.172194 335.099072 
L 196.343393 336.313369 
L 197.514592 334.884561 
L 198.68579 332.216371 
L 199.856989 333.381876 
L 201.028188 332.126156 
L 202.199386 329.306231 
L 203.370585 330.402499 
L 204.541784 329.328683 
L 205.712982 326.368838 
L 206.884181 327.37531 
L 208.05538 326.489743 
L 209.226578 323.404786 
L 210.397777 324.300943 
L 211.568976 323.606425 
L 212.740174 320.413648 
L 213.911373 321.180521 
L 215.082572 320.677279 
L 216.25377 317.396598 
L 217.424969 318.017037 
L 218.596168 317.701435 
L 219.767366 314.353229 
L 220.938565 314.811427 
L 222.109764 314.676582 
L 223.280962 311.282424 
L 224.452161 311.564823 
L 225.62336 311.600852 
L 226.794558 308.182549 
L 229.136956 308.469984 
L 230.308154 305.052583 
L 231.479353 304.944192 
L 232.650552 305.280269 
L 233.82175 301.90011 
L 234.992949 301.570986 
L 236.164148 302.005565 
L 237.335346 298.731535 
L 238.506545 298.21024 
L 239.677744 298.627555 
L 240.848942 295.46276 
L 242.020141 294.88591 
L 243.19134 295.241798 
L 244.362538 292.067895 
L 245.533737 291.518329 
L 246.704936 291.876012 
L 247.876134 288.590546 
L 249.047333 288.076914 
L 250.218532 288.521088 
L 251.38973 285.05565 
L 252.560929 284.548897 
L 253.732128 285.164376 
L 254.903326 281.476045 
L 256.074525 280.926948 
L 257.245724 281.799769 
L 258.416922 277.8666 
L 259.588121 277.201186 
L 260.75932 278.401676 
L 261.930518 274.220197 
L 263.101717 273.369747 
L 264.272916 274.98472 
L 265.444114 270.577459 
L 266.615313 269.458769 
L 267.786512 271.549774 
L 268.95771 266.92998 
L 270.128909 265.453954 
L 271.300108 268.088382 
L 272.471306 263.266171 
L 273.642505 261.341062 
L 274.813704 264.603652 
L 275.984902 259.563494 
L 277.156101 257.100126 
L 278.3273 261.15207 
L 279.498498 255.815407 
L 280.669697 252.678423 
L 281.840896 257.836532 
L 283.012094 251.976508 
L 284.183293 247.915585 
L 285.354492 254.966098 
L 286.52569 247.957102 
L 287.696889 242.320905 
L 288.868088 253.850121 
L 290.039286 243.65017 
L 291.210485 239.370775 
L 292.381684 310.339076 
L 293.552882 395.316449 
L 294.724081 408.839493 
L 295.89528 397.178824 
L 297.066478 404.901424 
L 298.237677 403.673015 
L 299.408876 397.485122 
L 300.580074 402.56376 
L 301.751273 400.987413 
L 302.922472 396.395486 
L 304.09367 400.213286 
L 305.264869 398.712694 
L 306.436068 394.857858 
L 307.607266 397.927477 
L 308.778465 396.549408 
L 309.949664 393.107834 
L 311.120862 395.676192 
L 312.292061 394.418903 
L 313.46326 391.232864 
L 314.634458 393.437978 
L 315.805657 392.292324 
L 316.976856 389.272755 
L 318.148054 391.199588 
L 319.319253 390.156778 
L 320.490452 387.24823 
L 321.66165 388.952576 
L 322.832849 388.005595 
L 324.004048 385.17101 
L 325.175246 386.691124 
L 326.346445 385.834776 
L 327.517644 383.048018 
L 328.688842 384.41085 
L 329.860041 383.641434 
L 331.03124 380.883132 
L 332.202438 382.107809 
L 333.373637 381.42291 
L 334.544836 378.678462 
L 335.716034 379.779095 
L 336.887233 379.178223 
L 338.058432 376.437298 
L 339.22963 377.424964 
L 340.400829 376.909408 
L 341.572028 374.164349 
L 342.743226 375.046596 
L 343.914425 374.617576 
L 345.085624 371.861281 
L 346.256822 372.641691 
L 347.428021 372.300073 
L 348.59922 369.52633 
L 349.770418 370.20613 
L 350.941617 369.953714 
L 352.112816 367.158197 
L 353.284014 367.73724 
L 354.455213 367.576888 
L 355.626412 364.75696 
L 356.79761 365.233639 
L 357.968809 365.16896 
L 359.140008 362.323577 
L 360.311206 362.69487 
L 361.482405 362.729925 
L 362.653604 359.85942 
L 363.824802 360.120616 
L 364.996001 360.259472 
L 366.1672 357.365594 
L 368.509597 357.757155 
L 369.680796 354.843273 
L 370.851994 354.864087 
L 372.023193 355.22195 
L 373.194392 352.292987 
L 374.36559 352.180533 
L 375.536789 352.652257 
L 376.707988 349.715206 
L 377.879186 349.459297 
L 379.050385 350.04638 
L 380.221584 347.110161 
L 381.392782 346.699677 
L 382.563981 347.402048 
L 383.73518 344.477898 
L 384.906378 343.90163 
L 386.077577 344.717474 
L 387.248776 341.818792 
L 388.419974 341.065527 
L 389.591173 341.990454 
L 390.762372 339.132529 
L 391.93357 338.191945 
L 393.104769 339.219155 
L 394.275968 336.419138 
L 395.447166 335.282291 
L 396.618365 336.401798 
L 397.789564 333.677638 
L 398.960762 332.337441 
L 400.131961 333.536398 
L 401.30316 330.906856 
L 402.474358 329.359094 
L 403.645557 330.621784 
L 404.816756 328.104988 
L 405.987954 326.348062 
L 407.159153 327.656062 
L 408.330352 325.269287 
L 409.50155 323.305485 
L 410.672749 324.639022 
L 413.015146 320.232936 
L 414.186345 321.570761 
L 415.357544 319.488938 
L 416.528742 317.131808 
L 417.699941 318.452786 
L 418.87114 316.541274 
L 420.042338 314.004038 
L 421.213537 315.286113 
L 422.384736 313.55213 
L 423.555934 310.848424 
L 424.727133 312.069587 
L 425.898332 310.518497 
L 427.06953 307.664989 
L 428.240729 308.802699 
L 429.411928 307.437789 
L 430.583126 304.453748 
L 431.754325 305.481139 
L 432.925524 304.306643 
L 434.096722 301.223971 
L 435.267921 302.09758 
L 436.43912 301.102917 
L 437.610318 298.006203 
L 438.781517 298.695794 
L 439.952716 297.77025 
L 441.123914 294.732557 
L 442.295113 295.341673 
L 443.466312 294.380266 
L 444.63751 291.342636 
L 445.808709 291.986962 
L 446.979908 290.981846 
L 448.151106 287.848514 
L 449.322305 288.594493 
L 450.493504 287.586313 
L 451.664702 284.26752 
L 452.835901 285.145923 
L 454.0071 284.19724 
L 455.178298 280.610166 
L 456.349497 281.621683 
L 457.520696 280.810176 
L 458.691894 276.888042 
L 459.863093 278.009945 
L 461.034292 277.411081 
L 462.20549 273.094757 
L 463.376689 274.303203 
L 464.547888 274.022759 
L 465.719086 269.276405 
L 466.890285 270.524902 
L 468.061484 270.644126 
L 469.232682 265.416579 
L 470.403881 266.652032 
L 471.57508 267.260778 
L 472.746278 261.501924 
L 475.088676 263.888483 
L 476.259874 257.501777 
L 477.431073 258.627228 
L 478.602272 260.562686 
L 479.77347 253.362717 
L 480.944669 254.476406 
L 482.115868 257.414509 
L 483.287066 248.949047 
L 484.458265 250.196227 
L 485.629464 254.759745 
L 486.800662 243.828124 
L 487.971861 245.767399 
L 489.14306 254.130813 
L 490.314258 236.922895 
L 491.485457 254.512847 
L 492.656656 343.637434 
L 493.827854 407.953521 
L 494.999053 403.502498 
L 496.170252 398.465766 
L 497.34145 406.630653 
L 498.512649 400.574462 
L 499.683848 398.506401 
L 500.855046 403.488463 
L 502.026245 398.66924 
L 503.197444 397.173436 
L 504.368642 400.85803 
L 505.539841 396.789205 
L 506.71104 395.464239 
L 507.882238 398.437107 
L 509.053437 394.865291 
L 510.224636 393.586987 
L 511.395834 396.11104 
L 512.567033 392.895366 
L 513.738232 391.612198 
L 514.90943 393.828908 
L 516.080629 390.883721 
L 517.251828 389.570063 
L 518.423026 391.56454 
L 519.594225 388.83421 
L 520.765424 387.475476 
L 521.936622 389.302968 
L 523.107821 386.749668 
L 524.27902 385.336497 
L 525.450218 387.034795 
L 526.621417 384.631905 
L 527.792616 383.157478 
L 528.963814 384.75334 
L 530.135013 382.481696 
L 531.306212 380.940449 
L 532.47741 382.45328 
L 533.648609 380.299072 
L 534.819808 378.686397 
L 535.991006 380.131054 
L 537.162205 378.085245 
L 538.333404 376.397913 
L 539.504602 377.786513 
L 541.847 374.07875 
L 543.018198 375.420024 
L 545.360596 371.729509 
L 546.531794 373.028674 
L 548.874192 369.347889 
L 550.04539 370.608077 
L 551.216589 368.956176 
L 552.387788 366.932085 
L 553.558986 368.155304 
L 554.730185 366.600336 
L 555.901384 364.482009 
L 557.072582 365.668939 
L 558.243781 364.21398 
L 559.41498 361.998219 
L 560.586178 363.148031 
L 561.757377 361.797649 
L 562.928576 359.48177 
L 564.099774 360.592023 
L 565.270973 359.351927 
L 566.442172 356.933636 
L 567.61337 357.999951 
L 568.784569 356.876782 
L 569.955768 354.354577 
L 571.126966 355.370777 
L 572.298165 354.372009 
L 573.469364 351.745348 
L 574.640562 352.703105 
L 575.811761 351.836556 
L 576.98296 349.106214 
L 578.154158 349.995324 
L 579.325357 349.269219 
L 580.496556 346.437888 
L 581.667754 347.246249 
L 582.838953 346.668489 
L 584.010152 343.740832 
L 585.18135 344.454572 
L 586.352549 344.032546 
L 587.523748 341.015945 
L 588.694946 341.619958 
L 589.866145 341.359837 
L 591.037344 338.264138 
L 592.208542 338.742012 
L 593.379741 338.64803 
L 594.550939 335.485947 
L 595.722138 335.821067 
L 596.893337 335.895292 
L 598.064535 332.682157 
L 600.406933 333.098999 
L 601.578131 329.85228 
L 602.74933 329.852672 
L 603.920529 330.256768 
L 605.091727 326.99607 
L 606.262926 326.807129 
L 607.434125 327.366248 
L 608.605323 324.111955 
L 609.776522 323.721763 
L 610.947721 324.425121 
L 612.118919 321.198828 
L 613.290118 320.599056 
L 614.461317 321.433231 
L 615.632515 318.256096 
L 616.803714 317.441114 
L 617.974913 318.389869 
L 619.146111 315.282279 
L 620.31731 314.249982 
L 621.488509 315.295233 
L 622.659707 312.276027 
L 623.830906 311.026266 
L 625.002105 312.14702 
L 626.173303 309.233515 
L 627.344502 307.768912 
L 628.515701 308.94289 
L 629.686899 306.154015 
L 630.858098 304.479546 
L 632.029297 305.678376 
L 633.200495 303.038501 
L 634.371694 301.164223 
L 635.542893 302.333705 
L 636.714091 299.875697 
L 637.88529 297.872561 
L 639.056489 298.928027 
L 640.227687 296.58612 
L 641.398886 294.577258 
L 642.570085 295.551877 
L 643.741283 293.192344 
L 644.912482 291.197108 
L 646.083681 292.200464 
L 647.254879 289.752095 
L 648.426078 287.716799 
L 649.597277 288.843845 
L 650.768475 286.287621 
L 651.939674 284.137044 
L 653.110873 285.462396 
L 654.282071 282.813104 
L 655.45327 280.464559 
L 656.624469 282.041241 
L 658.966866 276.695811 
L 660.138065 278.558973 
L 661.309263 275.837757 
L 662.480462 272.831004 
L 663.651661 275.015247 
L 664.822859 272.360896 
L 665.994058 268.905845 
L 667.165257 271.424128 
L 668.336455 268.901556 
L 669.507654 264.907896 
L 670.678853 267.767756 
L 671.850051 265.440362 
L 673.02125 260.813258 
L 674.192449 264.050222 
L 675.363647 261.984981 
L 676.534846 256.602876 
L 677.706045 260.304533 
L 678.877243 258.548169 
L 680.048442 252.190165 
L 681.219641 256.586971 
L 682.390839 255.202793 
L 683.562038 247.400506 
L 684.733237 253.059128 
L 685.904435 252.130198 
L 687.075634 241.607171 
L 687.075634 241.607171 
" clip-path="url(#pf04ffef941)" style="fill: none; stroke: #1f77b4; stroke-width: 1.5; stroke-linecap: square"/>
   </g>
   <g id="patch_9">
    <path d="M 58.66899 420.390516 
L 58.66899 225.419608 
" style="fill: none; stroke: #000000; stroke-width: 0.8; stroke-linejoin: miter; stroke-linecap: square"/>
   </g>
   <g id="patch_10">
    <path d="M 716.99976 420.390516 
L 716.99976 225.419608 
" style="fill: none; stroke: #000000; stroke-width: 0.8; stroke-linejoin: miter; stroke-linecap: square"/>
   </g>
   <g id="patch_11">
    <path d="M 58.66899 420.390516 
L 716.99976 420.390516 
" style="fill: none; stroke: #000000; stroke-width: 0.8; stroke-linejoin: miter; stroke-linecap: square"/>
   </g>
   <g id="patch_12">
    <path d="M 58.66899 225.419608 
L 716.99976 225.419608 
" style="fill: none; stroke: #000000; stroke-width: 0.8; stroke-linejoin: miter; stroke-linecap: square"/>
   </g>
   <g id="legend_2">
    <g id="patch_13">
     <path d="M 658.14726 243.562108 
L 711.39976 243.562108 
Q 712.99976 243.562108 712.99976 241.962108 
L 712.99976 231.019608 
Q 712.99976 229.419608 711.39976 229.419608 
L 658.14726 229.419608 
Q 656.54726 229.419608 656.54726 231.019608 
L 656.54726 241.962108 
Q 656.54726 243.562108 658.14726 243.562108 
z
" style="fill: #ffffff; opacity: 0.8; stroke: #cccccc; stroke-linejoin: miter"/>
    </g>
    <g id="line2d_34">
     <path d="M 659.74726 235.898358 
L 667.74726 235.898358 
L 675.74726 235.898358 
" style="fill: none; stroke: #1f77b4; stroke-width: 1.5; stroke-linecap: square"/>
    </g>
    <g id="text_16">
     <!-- t=25.0 -->
     <g transform="translate(682.14726 238.698358) scale(0.08 -0.08)">
      <use xlink:href="#DejaVuSans-74"/>
      <use xlink:href="#DejaVuSans-3d" x="39.208984"/>
      <use xlink:href="#DejaVuSans-32" x="122.998047"/>
      <use xlink:href="#DejaVuSans-35" x="186.621094"/>
      <use xlink:href="#DejaVuSans-2e" x="250.244141"/>
      <use xlink:href="#DejaVuSans-30" x="282.03125"/>
     </g>
    </g>
   </g>
  </g>
  <g id="axes_3">
   <g id="patch_14">
    <path d="M 58.66899 624.861903 
L 716.99976 624.861903 
L 716.99976 429.890996 
L 58.66899 429.890996 
z
" style="fill: #ffffff"/>
   </g>
   <g id="matplotlib.axis_5">
    <g id="xtick_19">
     <g id="line2d_35">
      <g>
       <use xlink:href="#m41a398d603" x="88.593116" y="624.861903" style="stroke: #000000; stroke-width: 0.8"/>
      </g>
     </g>
    </g>
    <g id="xtick_20">
     <g id="line2d_36">
      <g>
       <use xlink:href="#m41a398d603" x="163.549831" y="624.861903" style="stroke: #000000; stroke-width: 0.8"/>
      </g>
     </g>
    </g>
    <g id="xtick_21">
     <g id="line2d_37">
      <g>
       <use xlink:href="#m41a398d603" x="238.506545" y="624.861903" style="stroke: #000000; stroke-width: 0.8"/>
      </g>
     </g>
    </g>
    <g id="xtick_22">
     <g id="line2d_38">
      <g>
       <use xlink:href="#m41a398d603" x="313.46326" y="624.861903" style="stroke: #000000; stroke-width: 0.8"/>
      </g>
     </g>
    </g>
    <g id="xtick_23">
     <g id="line2d_39">
      <g>
       <use xlink:href="#m41a398d603" x="388.419974" y="624.861903" style="stroke: #000000; stroke-width: 0.8"/>
      </g>
     </g>
    </g>
    <g id="xtick_24">
     <g id="line2d_40">
      <g>
       <use xlink:href="#m41a398d603" x="463.376689" y="624.861903" style="stroke: #000000; stroke-width: 0.8"/>
      </g>
     </g>
    </g>
    <g id="xtick_25">
     <g id="line2d_41">
      <g>
       <use xlink:href="#m41a398d603" x="538.333404" y="624.861903" style="stroke: #000000; stroke-width: 0.8"/>
      </g>
     </g>
    </g>
    <g id="xtick_26">
     <g id="line2d_42">
      <g>
       <use xlink:href="#m41a398d603" x="613.290118" y="624.861903" style="stroke: #000000; stroke-width: 0.8"/>
      </g>
     </g>
    </g>
    <g id="xtick_27">
     <g id="line2d_43">
      <g>
       <use xlink:href="#m41a398d603" x="688.246833" y="624.861903" style="stroke: #000000; stroke-width: 0.8"/>
      </g>
     </g>
    </g>
   </g>
   <g id="matplotlib.axis_6">
    <g id="ytick_13">
     <g id="line2d_44">
      <g>
       <use xlink:href="#ma58fcee7f1" x="58.66899" y="623.79322" style="stroke: #000000; stroke-width: 0.8"/>
      </g>
     </g>
     <g id="text_17">
      <!-- 0.96 -->
      <g transform="translate(29.403365 627.592439) scale(0.1 -0.1)">
       <use xlink:href="#DejaVuSans-30"/>
       <use xlink:href="#DejaVuSans-2e" x="63.623047"/>
       <use xlink:href="#DejaVuSans-39" x="95.410156"/>
       <use xlink:href="#DejaVuSans-36" x="159.033203"/>
      </g>
     </g>
    </g>
    <g id="ytick_14">
     <g id="line2d_45">
      <g>
       <use xlink:href="#ma58fcee7f1" x="58.66899" y="601.115388" style="stroke: #000000; stroke-width: 0.8"/>
      </g>
     </g>
     <g id="text_18">
      <!-- 0.97 -->
      <g transform="translate(29.403365 604.914607) scale(0.1 -0.1)">
       <defs>
        <path id="DejaVuSans-37" d="M 525 4666 
L 3525 4666 
L 3525 4397 
L 1831 0 
L 1172 0 
L 2766 4134 
L 525 4134 
L 525 4666 
z
" transform="scale(0.015625)"/>
       </defs>
       <use xlink:href="#DejaVuSans-30"/>
       <use xlink:href="#DejaVuSans-2e" x="63.623047"/>
       <use xlink:href="#DejaVuSans-39" x="95.410156"/>
       <use xlink:href="#DejaVuSans-37" x="159.033203"/>
      </g>
     </g>
    </g>
    <g id="ytick_15">
     <g id="line2d_46">
      <g>
       <use xlink:href="#ma58fcee7f1" x="58.66899" y="578.437556" style="stroke: #000000; stroke-width: 0.8"/>
      </g>
     </g>
     <g id="text_19">
      <!-- 0.98 -->
      <g transform="translate(29.403365 582.236775) scale(0.1 -0.1)">
       <use xlink:href="#DejaVuSans-30"/>
       <use xlink:href="#DejaVuSans-2e" x="63.623047"/>
       <use xlink:href="#DejaVuSans-39" x="95.410156"/>
       <use xlink:href="#DejaVuSans-38" x="159.033203"/>
      </g>
     </g>
    </g>
    <g id="ytick_16">
     <g id="line2d_47">
      <g>
       <use xlink:href="#ma58fcee7f1" x="58.66899" y="555.759724" style="stroke: #000000; stroke-width: 0.8"/>
      </g>
     </g>
     <g id="text_20">
      <!-- 0.99 -->
      <g transform="translate(29.403365 559.558943) scale(0.1 -0.1)">
       <use xlink:href="#DejaVuSans-30"/>
       <use xlink:href="#DejaVuSans-2e" x="63.623047"/>
       <use xlink:href="#DejaVuSans-39" x="95.410156"/>
       <use xlink:href="#DejaVuSans-39" x="159.033203"/>
      </g>
     </g>
    </g>
    <g id="ytick_17">
     <g id="line2d_48">
      <g>
       <use xlink:href="#ma58fcee7f1" x="58.66899" y="533.081892" style="stroke: #000000; stroke-width: 0.8"/>
      </g>
     </g>
     <g id="text_21">
      <!-- 1.00 -->
      <g transform="translate(29.403365 536.881111) scale(0.1 -0.1)">
       <use xlink:href="#DejaVuSans-31"/>
       <use xlink:href="#DejaVuSans-2e" x="63.623047"/>
       <use xlink:href="#DejaVuSans-30" x="95.410156"/>
       <use xlink:href="#DejaVuSans-30" x="159.033203"/>
      </g>
     </g>
    </g>
    <g id="ytick_18">
     <g id="line2d_49">
      <g>
       <use xlink:href="#ma58fcee7f1" x="58.66899" y="510.404061" style="stroke: #000000; stroke-width: 0.8"/>
      </g>
     </g>
     <g id="text_22">
      <!-- 1.01 -->
      <g transform="translate(29.403365 514.203279) scale(0.1 -0.1)">
       <use xlink:href="#DejaVuSans-31"/>
       <use xlink:href="#DejaVuSans-2e" x="63.623047"/>
       <use xlink:href="#DejaVuSans-30" x="95.410156"/>
       <use xlink:href="#DejaVuSans-31" x="159.033203"/>
      </g>
     </g>
    </g>
    <g id="ytick_19">
     <g id="line2d_50">
      <g>
       <use xlink:href="#ma58fcee7f1" x="58.66899" y="487.726229" style="stroke: #000000; stroke-width: 0.8"/>
      </g>
     </g>
     <g id="text_23">
      <!-- 1.02 -->
      <g transform="translate(29.403365 491.525447) scale(0.1 -0.1)">
       <use xlink:href="#DejaVuSans-31"/>
       <use xlink:href="#DejaVuSans-2e" x="63.623047"/>
       <use xlink:href="#DejaVuSans-30" x="95.410156"/>
       <use xlink:href="#DejaVuSans-32" x="159.033203"/>
      </g>
     </g>
    </g>
    <g id="ytick_20">
     <g id="line2d_51">
      <g>
       <use xlink:href="#ma58fcee7f1" x="58.66899" y="465.048397" style="stroke: #000000; stroke-width: 0.8"/>
      </g>
     </g>
     <g id="text_24">
      <!-- 1.03 -->
      <g transform="translate(29.403365 468.847616) scale(0.1 -0.1)">
       <defs>
        <path id="DejaVuSans-33" d="M 2597 2516 
Q 3050 2419 3304 2112 
Q 3559 1806 3559 1356 
Q 3559 666 3084 287 
Q 2609 -91 1734 -91 
Q 1441 -91 1130 -33 
Q 819 25 488 141 
L 488 750 
Q 750 597 1062 519 
Q 1375 441 1716 441 
Q 2309 441 2620 675 
Q 2931 909 2931 1356 
Q 2931 1769 2642 2001 
Q 2353 2234 1838 2234 
L 1294 2234 
L 1294 2753 
L 1863 2753 
Q 2328 2753 2575 2939 
Q 2822 3125 2822 3475 
Q 2822 3834 2567 4026 
Q 2313 4219 1838 4219 
Q 1578 4219 1281 4162 
Q 984 4106 628 3988 
L 628 4550 
Q 988 4650 1302 4700 
Q 1616 4750 1894 4750 
Q 2613 4750 3031 4423 
Q 3450 4097 3450 3541 
Q 3450 3153 3228 2886 
Q 3006 2619 2597 2516 
z
" transform="scale(0.015625)"/>
       </defs>
       <use xlink:href="#DejaVuSans-31"/>
       <use xlink:href="#DejaVuSans-2e" x="63.623047"/>
       <use xlink:href="#DejaVuSans-30" x="95.410156"/>
       <use xlink:href="#DejaVuSans-33" x="159.033203"/>
      </g>
     </g>
    </g>
    <g id="ytick_21">
     <g id="line2d_52">
      <g>
       <use xlink:href="#ma58fcee7f1" x="58.66899" y="442.370565" style="stroke: #000000; stroke-width: 0.8"/>
      </g>
     </g>
     <g id="text_25">
      <!-- 1.04 -->
      <g transform="translate(29.403365 446.169784) scale(0.1 -0.1)">
       <use xlink:href="#DejaVuSans-31"/>
       <use xlink:href="#DejaVuSans-2e" x="63.623047"/>
       <use xlink:href="#DejaVuSans-30" x="95.410156"/>
       <use xlink:href="#DejaVuSans-34" x="159.033203"/>
      </g>
     </g>
    </g>
    <g id="text_26">
     <!-- $u_d=0.3$ -->
     <g transform="translate(23.323677 547.02645) rotate(-90) scale(0.1 -0.1)">
      <use xlink:href="#DejaVuSans-Oblique-75" transform="translate(0 0.78125)"/>
      <use xlink:href="#DejaVuSans-Oblique-64" transform="translate(63.378906 -15.625) scale(0.7)"/>
      <use xlink:href="#DejaVuSans-3d" transform="translate(130.029297 0.78125)"/>
      <use xlink:href="#DejaVuSans-30" transform="translate(233.300781 0.78125)"/>
      <use xlink:href="#DejaVuSans-2e" transform="translate(296.923828 0.78125)"/>
      <use xlink:href="#DejaVuSans-33" transform="translate(328.710938 0.78125)"/>
     </g>
    </g>
   </g>
   <g id="line2d_53">
    <path d="M 88.593116 504.697832 
L 97.962705 495.820462 
L 100.305103 493.508511 
L 102.6475 491.237268 
L 115.530685 478.666556 
L 117.873083 476.257285 
L 119.044281 475.172622 
L 121.386679 472.740144 
L 122.557877 471.655874 
L 124.900275 469.19856 
L 126.071473 468.116707 
L 128.413871 465.633711 
L 129.585069 464.557275 
L 131.927467 462.045534 
L 133.098665 460.97606 
L 135.441063 458.43516 
L 136.612261 457.382988 
L 138.954659 454.783298 
L 140.125857 453.739967 
L 142.468255 451.200262 
L 143.639453 450.19621 
L 145.981851 447.055534 
L 147.153049 446.393431 
L 148.324248 446.135025 
L 149.495447 445.628122 
L 150.666645 442.596325 
L 151.837844 438.75331 
L 153.009043 451.402672 
L 154.180241 496.834729 
L 155.35144 558.51385 
L 156.522639 601.440905 
L 157.693837 615.303593 
L 158.865036 615.379945 
L 160.036235 613.550348 
L 161.207433 612.01797 
L 162.378632 611.327611 
L 163.549831 610.868237 
L 164.721029 609.843513 
L 171.748221 604.46457 
L 178.775413 599.031454 
L 188.145002 591.747278 
L 190.4874 589.816025 
L 192.829797 587.948763 
L 209.226578 574.707029 
L 215.082572 569.813555 
L 217.424969 567.874913 
L 238.506545 549.960929 
L 246.704936 542.784945 
L 249.047333 540.752265 
L 254.903326 535.578947 
L 279.498498 513.163204 
L 291.210485 502.151666 
L 293.552882 499.909703 
L 301.751273 492.043789 
L 304.09367 489.748745 
L 308.778465 485.19979 
L 311.120862 482.867631 
L 315.805657 478.27235 
L 318.148054 475.900866 
L 322.832849 471.25856 
L 325.175246 468.84177 
L 326.346445 467.71807 
L 328.688842 465.27785 
L 329.860041 464.157624 
L 331.03124 462.840626 
L 333.373637 460.57507 
L 334.544836 459.235055 
L 336.887233 456.980854 
L 338.058432 455.602608 
L 343.914425 449.746895 
L 345.085624 448.02164 
L 346.256822 446.743477 
L 347.428021 446.290609 
L 348.59922 446.057084 
L 349.770418 445.039897 
L 350.941617 440.8971 
L 352.112816 439.936277 
L 353.284014 462.896746 
L 355.626412 576.193575 
L 356.79761 608.769233 
L 357.968809 615.99959 
L 359.140008 614.768381 
L 360.311206 612.980931 
L 361.482405 611.684757 
L 362.653604 611.220064 
L 363.824802 610.571267 
L 364.996001 609.501039 
L 367.338398 607.88525 
L 368.509597 606.815285 
L 370.851994 605.175635 
L 372.023193 604.133675 
L 374.36559 602.455855 
L 375.536789 601.428313 
L 377.879186 599.721937 
L 379.050385 598.703273 
L 381.392782 596.972506 
L 382.563981 595.959013 
L 384.906378 594.206975 
L 387.248776 592.328174 
L 391.93357 588.627181 
L 394.275968 586.726018 
L 398.960762 582.980703 
L 401.30316 581.056187 
L 405.987954 577.265557 
L 408.330352 575.317216 
L 413.015146 571.480051 
L 415.357544 569.507824 
L 420.042338 565.622542 
L 424.727133 561.630182 
L 430.583126 556.705806 
L 432.925524 554.668478 
L 437.610318 550.668455 
L 442.295113 546.551106 
L 451.664702 538.36219 
L 456.349497 534.148939 
L 470.403881 521.433403 
L 491.485457 501.758146 
L 496.170252 497.25068 
L 498.512649 495.035172 
L 503.197444 490.463114 
L 505.539841 488.22761 
L 510.224636 483.589167 
L 512.567033 481.335652 
L 514.90943 479.038325 
L 533.648609 460.139076 
L 534.819808 458.815422 
L 537.162205 456.536394 
L 538.333404 455.170055 
L 540.675801 452.895825 
L 541.847 451.55853 
L 543.018198 450.562836 
L 544.189397 449.210201 
L 545.360596 447.486209 
L 546.531794 446.533854 
L 548.874192 445.921815 
L 550.04539 444.035711 
L 551.216589 439.377641 
L 552.387788 443.889706 
L 553.558986 478.277012 
L 554.730185 538.478943 
L 555.901384 590.6329 
L 557.072582 613.147552 
L 558.243781 615.87542 
L 560.586178 612.459346 
L 561.757377 611.464267 
L 562.928576 611.081316 
L 567.61337 607.518112 
L 568.784569 606.52553 
L 569.955768 605.791029 
L 572.298165 603.840595 
L 573.469364 603.07289 
L 575.811761 601.131729 
L 576.98296 600.339715 
L 582.838953 595.655569 
L 585.18135 593.86733 
L 587.523748 592.04684 
L 593.379741 587.305232 
L 595.722138 585.475275 
L 600.406933 581.650536 
L 602.74933 579.794527 
L 607.434125 575.925147 
L 609.776522 574.043367 
L 614.461317 570.128246 
L 616.803714 568.22033 
L 621.488509 564.25933 
L 626.173303 560.349804 
L 644.912482 544.202002 
L 649.597277 540.031413 
L 655.45327 534.88323 
L 660.138065 530.637913 
L 665.994058 525.390213 
L 670.678853 521.058862 
L 676.534846 515.715027 
L 678.877243 513.505267 
L 683.562038 509.165384 
L 685.904435 506.922989 
L 687.075634 505.860221 
L 687.075634 505.860221 
" clip-path="url(#p9658a8f761)" style="fill: none; stroke: #1f77b4; stroke-width: 1.5; stroke-linecap: square"/>
   </g>
   <g id="patch_15">
    <path d="M 58.66899 624.861903 
L 58.66899 429.890996 
" style="fill: none; stroke: #000000; stroke-width: 0.8; stroke-linejoin: miter; stroke-linecap: square"/>
   </g>
   <g id="patch_16">
    <path d="M 716.99976 624.861903 
L 716.99976 429.890996 
" style="fill: none; stroke: #000000; stroke-width: 0.8; stroke-linejoin: miter; stroke-linecap: square"/>
   </g>
   <g id="patch_17">
    <path d="M 58.66899 624.861903 
L 716.99976 624.861903 
" style="fill: none; stroke: #000000; stroke-width: 0.8; stroke-linejoin: miter; stroke-linecap: square"/>
   </g>
   <g id="patch_18">
    <path d="M 58.66899 429.890996 
L 716.99976 429.890996 
" style="fill: none; stroke: #000000; stroke-width: 0.8; stroke-linejoin: miter; stroke-linecap: square"/>
   </g>
   <g id="legend_3">
    <g id="patch_19">
     <path d="M 658.14726 448.033496 
L 711.39976 448.033496 
Q 712.99976 448.033496 712.99976 446.433496 
L 712.99976 435.490996 
Q 712.99976 433.890996 711.39976 433.890996 
L 658.14726 433.890996 
Q 656.54726 433.890996 656.54726 435.490996 
L 656.54726 446.433496 
Q 656.54726 448.033496 658.14726 448.033496 
z
" style="fill: #ffffff; opacity: 0.8; stroke: #cccccc; stroke-linejoin: miter"/>
    </g>
    <g id="line2d_54">
     <path d="M 659.74726 440.369746 
L 667.74726 440.369746 
L 675.74726 440.369746 
" style="fill: none; stroke: #1f77b4; stroke-width: 1.5; stroke-linecap: square"/>
    </g>
    <g id="text_27">
     <!-- t=25.0 -->
     <g transform="translate(682.14726 443.169746) scale(0.08 -0.08)">
      <use xlink:href="#DejaVuSans-74"/>
      <use xlink:href="#DejaVuSans-3d" x="39.208984"/>
      <use xlink:href="#DejaVuSans-32" x="122.998047"/>
      <use xlink:href="#DejaVuSans-35" x="186.621094"/>
      <use xlink:href="#DejaVuSans-2e" x="250.244141"/>
      <use xlink:href="#DejaVuSans-30" x="282.03125"/>
     </g>
    </g>
   </g>
  </g>
  <g id="axes_4">
   <g id="patch_20">
    <path d="M 58.66899 830.64351 
L 716.99976 830.64351 
L 716.99976 635.672602 
L 58.66899 635.672602 
z
" style="fill: #ffffff"/>
   </g>
   <g id="matplotlib.axis_7">
    <g id="xtick_28">
     <g id="line2d_55">
      <g>
       <use xlink:href="#m41a398d603" x="88.593116" y="830.64351" style="stroke: #000000; stroke-width: 0.8"/>
      </g>
     </g>
     <g id="text_28">
      <!-- 0 -->
      <g transform="translate(85.411866 845.241948) scale(0.1 -0.1)">
       <use xlink:href="#DejaVuSans-30"/>
      </g>
     </g>
    </g>
    <g id="xtick_29">
     <g id="line2d_56">
      <g>
       <use xlink:href="#m41a398d603" x="163.549831" y="830.64351" style="stroke: #000000; stroke-width: 0.8"/>
      </g>
     </g>
     <g id="text_29">
      <!-- 10 -->
      <g transform="translate(157.187331 845.241948) scale(0.1 -0.1)">
       <use xlink:href="#DejaVuSans-31"/>
       <use xlink:href="#DejaVuSans-30" x="63.623047"/>
      </g>
     </g>
    </g>
    <g id="xtick_30">
     <g id="line2d_57">
      <g>
       <use xlink:href="#m41a398d603" x="238.506545" y="830.64351" style="stroke: #000000; stroke-width: 0.8"/>
      </g>
     </g>
     <g id="text_30">
      <!-- 20 -->
      <g transform="translate(232.144045 845.241948) scale(0.1 -0.1)">
       <use xlink:href="#DejaVuSans-32"/>
       <use xlink:href="#DejaVuSans-30" x="63.623047"/>
      </g>
     </g>
    </g>
    <g id="xtick_31">
     <g id="line2d_58">
      <g>
       <use xlink:href="#m41a398d603" x="313.46326" y="830.64351" style="stroke: #000000; stroke-width: 0.8"/>
      </g>
     </g>
     <g id="text_31">
      <!-- 30 -->
      <g transform="translate(307.10076 845.241948) scale(0.1 -0.1)">
       <use xlink:href="#DejaVuSans-33"/>
       <use xlink:href="#DejaVuSans-30" x="63.623047"/>
      </g>
     </g>
    </g>
    <g id="xtick_32">
     <g id="line2d_59">
      <g>
       <use xlink:href="#m41a398d603" x="388.419974" y="830.64351" style="stroke: #000000; stroke-width: 0.8"/>
      </g>
     </g>
     <g id="text_32">
      <!-- 40 -->
      <g transform="translate(382.057474 845.241948) scale(0.1 -0.1)">
       <use xlink:href="#DejaVuSans-34"/>
       <use xlink:href="#DejaVuSans-30" x="63.623047"/>
      </g>
     </g>
    </g>
    <g id="xtick_33">
     <g id="line2d_60">
      <g>
       <use xlink:href="#m41a398d603" x="463.376689" y="830.64351" style="stroke: #000000; stroke-width: 0.8"/>
      </g>
     </g>
     <g id="text_33">
      <!-- 50 -->
      <g transform="translate(457.014189 845.241948) scale(0.1 -0.1)">
       <use xlink:href="#DejaVuSans-35"/>
       <use xlink:href="#DejaVuSans-30" x="63.623047"/>
      </g>
     </g>
    </g>
    <g id="xtick_34">
     <g id="line2d_61">
      <g>
       <use xlink:href="#m41a398d603" x="538.333404" y="830.64351" style="stroke: #000000; stroke-width: 0.8"/>
      </g>
     </g>
     <g id="text_34">
      <!-- 60 -->
      <g transform="translate(531.970904 845.241948) scale(0.1 -0.1)">
       <use xlink:href="#DejaVuSans-36"/>
       <use xlink:href="#DejaVuSans-30" x="63.623047"/>
      </g>
     </g>
    </g>
    <g id="xtick_35">
     <g id="line2d_62">
      <g>
       <use xlink:href="#m41a398d603" x="613.290118" y="830.64351" style="stroke: #000000; stroke-width: 0.8"/>
      </g>
     </g>
     <g id="text_35">
      <!-- 70 -->
      <g transform="translate(606.927618 845.241948) scale(0.1 -0.1)">
       <use xlink:href="#DejaVuSans-37"/>
       <use xlink:href="#DejaVuSans-30" x="63.623047"/>
      </g>
     </g>
    </g>
    <g id="xtick_36">
     <g id="line2d_63">
      <g>
       <use xlink:href="#m41a398d603" x="688.246833" y="830.64351" style="stroke: #000000; stroke-width: 0.8"/>
      </g>
     </g>
     <g id="text_36">
      <!-- 80 -->
      <g transform="translate(681.884333 845.241948) scale(0.1 -0.1)">
       <use xlink:href="#DejaVuSans-38"/>
       <use xlink:href="#DejaVuSans-30" x="63.623047"/>
      </g>
     </g>
    </g>
    <g id="text_37">
     <!-- x -->
     <g transform="translate(384.875 858.920072) scale(0.1 -0.1)">
      <defs>
       <path id="DejaVuSans-78" d="M 3513 3500 
L 2247 1797 
L 3578 0 
L 2900 0 
L 1881 1375 
L 863 0 
L 184 0 
L 1544 1831 
L 300 3500 
L 978 3500 
L 1906 2253 
L 2834 3500 
L 3513 3500 
z
" transform="scale(0.015625)"/>
      </defs>
      <use xlink:href="#DejaVuSans-78"/>
     </g>
    </g>
   </g>
   <g id="matplotlib.axis_8">
    <g id="ytick_22">
     <g id="line2d_64">
      <g>
       <use xlink:href="#ma58fcee7f1" x="58.66899" y="827.343996" style="stroke: #000000; stroke-width: 0.8"/>
      </g>
     </g>
     <g id="text_38">
      <!-- 0.9900 -->
      <g transform="translate(16.678365 831.143214) scale(0.1 -0.1)">
       <use xlink:href="#DejaVuSans-30"/>
       <use xlink:href="#DejaVuSans-2e" x="63.623047"/>
       <use xlink:href="#DejaVuSans-39" x="95.410156"/>
       <use xlink:href="#DejaVuSans-39" x="159.033203"/>
       <use xlink:href="#DejaVuSans-30" x="222.65625"/>
       <use xlink:href="#DejaVuSans-30" x="286.279297"/>
      </g>
     </g>
    </g>
    <g id="ytick_23">
     <g id="line2d_65">
      <g>
       <use xlink:href="#ma58fcee7f1" x="58.66899" y="805.049013" style="stroke: #000000; stroke-width: 0.8"/>
      </g>
     </g>
     <g id="text_39">
      <!-- 0.9925 -->
      <g transform="translate(16.678365 808.848232) scale(0.1 -0.1)">
       <use xlink:href="#DejaVuSans-30"/>
       <use xlink:href="#DejaVuSans-2e" x="63.623047"/>
       <use xlink:href="#DejaVuSans-39" x="95.410156"/>
       <use xlink:href="#DejaVuSans-39" x="159.033203"/>
       <use xlink:href="#DejaVuSans-32" x="222.65625"/>
       <use xlink:href="#DejaVuSans-35" x="286.279297"/>
      </g>
     </g>
    </g>
    <g id="ytick_24">
     <g id="line2d_66">
      <g>
       <use xlink:href="#ma58fcee7f1" x="58.66899" y="782.754031" style="stroke: #000000; stroke-width: 0.8"/>
      </g>
     </g>
     <g id="text_40">
      <!-- 0.9950 -->
      <g transform="translate(16.678365 786.55325) scale(0.1 -0.1)">
       <use xlink:href="#DejaVuSans-30"/>
       <use xlink:href="#DejaVuSans-2e" x="63.623047"/>
       <use xlink:href="#DejaVuSans-39" x="95.410156"/>
       <use xlink:href="#DejaVuSans-39" x="159.033203"/>
       <use xlink:href="#DejaVuSans-35" x="222.65625"/>
       <use xlink:href="#DejaVuSans-30" x="286.279297"/>
      </g>
     </g>
    </g>
    <g id="ytick_25">
     <g id="line2d_67">
      <g>
       <use xlink:href="#ma58fcee7f1" x="58.66899" y="760.459048" style="stroke: #000000; stroke-width: 0.8"/>
      </g>
     </g>
     <g id="text_41">
      <!-- 0.9975 -->
      <g transform="translate(16.678365 764.258267) scale(0.1 -0.1)">
       <use xlink:href="#DejaVuSans-30"/>
       <use xlink:href="#DejaVuSans-2e" x="63.623047"/>
       <use xlink:href="#DejaVuSans-39" x="95.410156"/>
       <use xlink:href="#DejaVuSans-39" x="159.033203"/>
       <use xlink:href="#DejaVuSans-37" x="222.65625"/>
       <use xlink:href="#DejaVuSans-35" x="286.279297"/>
      </g>
     </g>
    </g>
    <g id="ytick_26">
     <g id="line2d_68">
      <g>
       <use xlink:href="#ma58fcee7f1" x="58.66899" y="738.164066" style="stroke: #000000; stroke-width: 0.8"/>
      </g>
     </g>
     <g id="text_42">
      <!-- 1.0000 -->
      <g transform="translate(16.678365 741.963285) scale(0.1 -0.1)">
       <use xlink:href="#DejaVuSans-31"/>
       <use xlink:href="#DejaVuSans-2e" x="63.623047"/>
       <use xlink:href="#DejaVuSans-30" x="95.410156"/>
       <use xlink:href="#DejaVuSans-30" x="159.033203"/>
       <use xlink:href="#DejaVuSans-30" x="222.65625"/>
       <use xlink:href="#DejaVuSans-30" x="286.279297"/>
      </g>
     </g>
    </g>
    <g id="ytick_27">
     <g id="line2d_69">
      <g>
       <use xlink:href="#ma58fcee7f1" x="58.66899" y="715.869084" style="stroke: #000000; stroke-width: 0.8"/>
      </g>
     </g>
     <g id="text_43">
      <!-- 1.0025 -->
      <g transform="translate(16.678365 719.668302) scale(0.1 -0.1)">
       <use xlink:href="#DejaVuSans-31"/>
       <use xlink:href="#DejaVuSans-2e" x="63.623047"/>
       <use xlink:href="#DejaVuSans-30" x="95.410156"/>
       <use xlink:href="#DejaVuSans-30" x="159.033203"/>
       <use xlink:href="#DejaVuSans-32" x="222.65625"/>
       <use xlink:href="#DejaVuSans-35" x="286.279297"/>
      </g>
     </g>
    </g>
    <g id="ytick_28">
     <g id="line2d_70">
      <g>
       <use xlink:href="#ma58fcee7f1" x="58.66899" y="693.574101" style="stroke: #000000; stroke-width: 0.8"/>
      </g>
     </g>
     <g id="text_44">
      <!-- 1.0050 -->
      <g transform="translate(16.678365 697.37332) scale(0.1 -0.1)">
       <use xlink:href="#DejaVuSans-31"/>
       <use xlink:href="#DejaVuSans-2e" x="63.623047"/>
       <use xlink:href="#DejaVuSans-30" x="95.410156"/>
       <use xlink:href="#DejaVuSans-30" x="159.033203"/>
       <use xlink:href="#DejaVuSans-35" x="222.65625"/>
       <use xlink:href="#DejaVuSans-30" x="286.279297"/>
      </g>
     </g>
    </g>
    <g id="ytick_29">
     <g id="line2d_71">
      <g>
       <use xlink:href="#ma58fcee7f1" x="58.66899" y="671.279119" style="stroke: #000000; stroke-width: 0.8"/>
      </g>
     </g>
     <g id="text_45">
      <!-- 1.0075 -->
      <g transform="translate(16.678365 675.078337) scale(0.1 -0.1)">
       <use xlink:href="#DejaVuSans-31"/>
       <use xlink:href="#DejaVuSans-2e" x="63.623047"/>
       <use xlink:href="#DejaVuSans-30" x="95.410156"/>
       <use xlink:href="#DejaVuSans-30" x="159.033203"/>
       <use xlink:href="#DejaVuSans-37" x="222.65625"/>
       <use xlink:href="#DejaVuSans-35" x="286.279297"/>
      </g>
     </g>
    </g>
    <g id="ytick_30">
     <g id="line2d_72">
      <g>
       <use xlink:href="#ma58fcee7f1" x="58.66899" y="648.984136" style="stroke: #000000; stroke-width: 0.8"/>
      </g>
     </g>
     <g id="text_46">
      <!-- 1.0100 -->
      <g transform="translate(16.678365 652.783355) scale(0.1 -0.1)">
       <use xlink:href="#DejaVuSans-31"/>
       <use xlink:href="#DejaVuSans-2e" x="63.623047"/>
       <use xlink:href="#DejaVuSans-30" x="95.410156"/>
       <use xlink:href="#DejaVuSans-31" x="159.033203"/>
       <use xlink:href="#DejaVuSans-30" x="222.65625"/>
       <use xlink:href="#DejaVuSans-30" x="286.279297"/>
      </g>
     </g>
    </g>
    <g id="text_47">
     <!-- $u_d=0.4$ -->
     <g transform="translate(10.598677 752.808056) rotate(-90) scale(0.1 -0.1)">
      <use xlink:href="#DejaVuSans-Oblique-75" transform="translate(0 0.78125)"/>
      <use xlink:href="#DejaVuSans-Oblique-64" transform="translate(63.378906 -15.625) scale(0.7)"/>
      <use xlink:href="#DejaVuSans-3d" transform="translate(130.029297 0.78125)"/>
      <use xlink:href="#DejaVuSans-30" transform="translate(233.300781 0.78125)"/>
      <use xlink:href="#DejaVuSans-2e" transform="translate(296.923828 0.78125)"/>
      <use xlink:href="#DejaVuSans-34" transform="translate(328.710938 0.78125)"/>
     </g>
    </g>
   </g>
   <g id="line2d_73">
    <path d="M 88.593116 741.632826 
L 100.305103 731.092431 
L 106.161096 726.218135 
L 116.701884 717.70331 
L 120.21548 714.434193 
L 123.729076 710.944532 
L 126.071473 708.220234 
L 129.585069 703.916271 
L 137.78346 695.083901 
L 138.954659 694.102983 
L 140.125857 693.272452 
L 141.297056 692.580006 
L 142.468255 692.016808 
L 144.810652 691.252872 
L 147.153049 690.888124 
L 153.009043 690.377257 
L 154.180241 690.058497 
L 155.35144 689.556433 
L 156.522639 688.814124 
L 157.693837 687.775986 
L 158.865036 686.394483 
L 160.036235 684.635798 
L 161.207433 682.483888 
L 162.378632 679.942978 
L 163.549831 677.036719 
L 165.892228 670.305504 
L 171.748221 651.920495 
L 172.91942 648.976263 
L 174.090619 646.654383 
L 175.261817 645.122451 
L 176.433016 644.534916 
L 177.604215 645.026721 
L 178.775413 646.70839 
L 179.946612 649.66275 
L 181.117811 653.941228 
L 182.289009 659.55917 
L 183.460208 666.491917 
L 184.631406 674.671531 
L 185.802605 683.984647 
L 188.145002 705.341851 
L 195.172194 774.300062 
L 196.343393 783.954866 
L 197.514592 792.585583 
L 198.68579 800.0967 
L 199.856989 806.438414 
L 201.028188 811.603571 
L 202.199386 815.622813 
L 203.370585 818.557636 
L 204.541784 820.492961 
L 205.712982 821.530324 
L 206.884181 821.781196 
L 208.05538 821.361306 
L 209.226578 820.38643 
L 210.397777 818.968669 
L 211.568976 817.213612 
L 213.911373 813.069981 
L 218.596168 804.26256 
L 220.938565 800.317881 
L 223.280962 796.884772 
L 225.62336 793.98264 
L 227.965757 791.568294 
L 230.308154 789.552371 
L 232.650552 787.816786 
L 237.335346 784.731234 
L 242.020141 781.641697 
L 245.533737 779.09667 
L 249.047333 776.308797 
L 253.732128 772.322091 
L 288.868088 741.27817 
L 300.580074 730.757415 
L 306.436068 725.904363 
L 316.976856 717.357768 
L 320.490452 714.058958 
L 324.004048 710.519781 
L 326.346445 707.731081 
L 328.688842 704.812862 
L 331.03124 702.249998 
L 333.373637 699.726455 
L 336.887233 695.824902 
L 338.058432 694.739533 
L 339.22963 693.810074 
L 340.400829 693.026838 
L 341.572028 692.378199 
L 343.914425 691.456642 
L 346.256822 690.975115 
L 349.770418 690.720154 
L 352.112816 690.514568 
L 353.284014 690.287935 
L 354.455213 689.914284 
L 355.626412 689.338521 
L 356.79761 688.503528 
L 357.968809 687.355642 
L 359.140008 685.851348 
L 360.311206 683.96238 
L 361.482405 681.679321 
L 362.653604 679.013118 
L 363.824802 675.993309 
L 366.1672 669.090857 
L 370.851994 654.143743 
L 372.023193 650.88056 
L 373.194392 648.12468 
L 374.36559 646.047998 
L 375.536789 644.814557 
L 376.707988 644.572942 
L 377.879186 645.450383 
L 379.050385 647.548527 
L 380.221584 650.940229 
L 381.392782 655.665399 
L 382.563981 661.726442 
L 383.73518 669.084608 
L 384.906378 677.656888 
L 387.248776 697.887418 
L 389.591173 720.909398 
L 393.104769 756.337316 
L 395.447166 777.624329 
L 396.618365 786.951267 
L 397.789564 795.217089 
L 398.960762 802.34174 
L 400.131961 808.290059 
L 401.30316 813.06817 
L 402.474358 816.717826 
L 403.645557 819.309079 
L 404.816756 820.933166 
L 405.987954 821.69568 
L 407.159153 821.71001 
L 408.330352 821.092341 
L 409.50155 819.957664 
L 410.672749 818.416144 
L 411.843948 816.570718 
L 414.186345 812.33311 
L 418.87114 803.572962 
L 421.213537 799.708708 
L 423.555934 796.364721 
L 425.898332 793.548272 
L 428.240729 791.207583 
L 430.583126 789.247031 
L 434.096722 786.755621 
L 443.466312 780.541373 
L 446.979908 777.885047 
L 451.664702 774.011809 
L 457.520696 768.853526 
L 469.232682 758.453611 
L 487.971861 741.986967 
L 500.855046 730.423886 
L 506.71104 725.59186 
L 516.080629 718.044004 
L 519.594225 714.808927 
L 523.107821 711.358133 
L 525.450218 708.701755 
L 528.963814 704.35789 
L 537.162205 695.445807 
L 538.333404 694.412663 
L 539.504602 693.533363 
L 540.675801 692.796109 
L 541.847 692.190542 
L 544.189397 691.348773 
L 546.531794 690.928074 
L 552.387788 690.452159 
L 553.558986 690.182382 
L 554.730185 689.747658 
L 555.901384 689.091801 
L 557.072582 688.158075 
L 558.243781 686.895535 
L 559.41498 685.265311 
L 560.586178 683.245036 
L 561.757377 680.832058 
L 562.928576 678.043875 
L 565.270973 671.498036 
L 568.784569 660.253624 
L 571.126966 653.010321 
L 572.298165 649.897029 
L 573.469364 647.348644 
L 574.640562 645.535457 
L 575.811761 644.61705 
L 576.98296 644.735489 
L 578.154158 646.009891 
L 579.325357 648.532671 
L 580.496556 652.366195 
L 581.667754 657.538349 
L 582.838953 664.038203 
L 584.010152 671.81254 
L 585.18135 680.763186 
L 587.523748 701.579587 
L 591.037344 736.846059 
L 593.379741 760.085144 
L 595.722138 780.844308 
L 596.893337 789.829315 
L 598.064535 797.721397 
L 599.235734 804.455721 
L 600.406933 810.011391 
L 601.578131 814.407162 
L 602.74933 817.695042 
L 603.920529 819.952908 
L 605.091727 821.277555 
L 606.262926 821.777852 
L 607.434125 821.568606 
L 608.605323 820.766016 
L 609.776522 819.483792 
L 610.947721 817.829926 
L 613.290118 813.798279 
L 619.146111 802.895474 
L 621.488509 799.114171 
L 623.830906 795.859459 
L 626.173303 793.127217 
L 628.515701 790.857526 
L 630.858098 788.948899 
L 634.371694 786.497743 
L 642.570085 781.097401 
L 646.083681 778.496843 
L 650.768475 774.677106 
L 656.624469 769.554244 
L 669.507654 758.112688 
L 687.075634 742.693836 
L 687.075634 742.693836 
" clip-path="url(#pf0d3982c53)" style="fill: none; stroke: #1f77b4; stroke-width: 1.5; stroke-linecap: square"/>
   </g>
   <g id="patch_21">
    <path d="M 58.66899 830.64351 
L 58.66899 635.672602 
" style="fill: none; stroke: #000000; stroke-width: 0.8; stroke-linejoin: miter; stroke-linecap: square"/>
   </g>
   <g id="patch_22">
    <path d="M 716.99976 830.64351 
L 716.99976 635.672602 
" style="fill: none; stroke: #000000; stroke-width: 0.8; stroke-linejoin: miter; stroke-linecap: square"/>
   </g>
   <g id="patch_23">
    <path d="M 58.66899 830.64351 
L 716.99976 830.64351 
" style="fill: none; stroke: #000000; stroke-width: 0.8; stroke-linejoin: miter; stroke-linecap: square"/>
   </g>
   <g id="patch_24">
    <path d="M 58.66899 635.672602 
L 716.99976 635.672602 
" style="fill: none; stroke: #000000; stroke-width: 0.8; stroke-linejoin: miter; stroke-linecap: square"/>
   </g>
   <g id="legend_4">
    <g id="patch_25">
     <path d="M 658.14726 653.815102 
L 711.39976 653.815102 
Q 712.99976 653.815102 712.99976 652.215102 
L 712.99976 641.272602 
Q 712.99976 639.672602 711.39976 639.672602 
L 658.14726 639.672602 
Q 656.54726 639.672602 656.54726 641.272602 
L 656.54726 652.215102 
Q 656.54726 653.815102 658.14726 653.815102 
z
" style="fill: #ffffff; opacity: 0.8; stroke: #cccccc; stroke-linejoin: miter"/>
    </g>
    <g id="line2d_74">
     <path d="M 659.74726 646.151352 
L 667.74726 646.151352 
L 675.74726 646.151352 
" style="fill: none; stroke: #1f77b4; stroke-width: 1.5; stroke-linecap: square"/>
    </g>
    <g id="text_48">
     <!-- t=25.0 -->
     <g transform="translate(682.14726 648.951352) scale(0.08 -0.08)">
      <use xlink:href="#DejaVuSans-74"/>
      <use xlink:href="#DejaVuSans-3d" x="39.208984"/>
      <use xlink:href="#DejaVuSans-32" x="122.998047"/>
      <use xlink:href="#DejaVuSans-35" x="186.621094"/>
      <use xlink:href="#DejaVuSans-2e" x="250.244141"/>
      <use xlink:href="#DejaVuSans-30" x="282.03125"/>
     </g>
    </g>
   </g>
  </g>
  <g id="text_49">
   <!-- Density snapshots for u_d=0.1..1.0  [ud_comparison] -->
   <g transform="translate(200.050313 12.118365) scale(0.12 -0.12)">
    <defs>
     <path id="DejaVuSans-44" d="M 1259 4147 
L 1259 519 
L 2022 519 
Q 2988 519 3436 956 
Q 3884 1394 3884 2338 
Q 3884 3275 3436 3711 
Q 2988 4147 2022 4147 
L 1259 4147 
z
M 628 4666 
L 1925 4666 
Q 3281 4666 3915 4102 
Q 4550 3538 4550 2338 
Q 4550 1131 3912 565 
Q 3275 0 1925 0 
L 628 0 
L 628 4666 
z
" transform="scale(0.015625)"/>
     <path id="DejaVuSans-65" d="M 3597 1894 
L 3597 1613 
L 953 1613 
Q 991 1019 1311 708 
Q 1631 397 2203 397 
Q 2534 397 2845 478 
Q 3156 559 3463 722 
L 3463 178 
Q 3153 47 2828 -22 
Q 2503 -91 2169 -91 
Q 1331 -91 842 396 
Q 353 884 353 1716 
Q 353 2575 817 3079 
Q 1281 3584 2069 3584 
Q 2775 3584 3186 3129 
Q 3597 2675 3597 1894 
z
M 3022 2063 
Q 3016 2534 2758 2815 
Q 2500 3097 2075 3097 
Q 1594 3097 1305 2825 
Q 1016 2553 972 2059 
L 3022 2063 
z
" transform="scale(0.015625)"/>
     <path id="DejaVuSans-6e" d="M 3513 2113 
L 3513 0 
L 2938 0 
L 2938 2094 
Q 2938 2591 2744 2837 
Q 2550 3084 2163 3084 
Q 1697 3084 1428 2787 
Q 1159 2491 1159 1978 
L 1159 0 
L 581 0 
L 581 3500 
L 1159 3500 
L 1159 2956 
Q 1366 3272 1645 3428 
Q 1925 3584 2291 3584 
Q 2894 3584 3203 3211 
Q 3513 2838 3513 2113 
z
" transform="scale(0.015625)"/>
     <path id="DejaVuSans-73" d="M 2834 3397 
L 2834 2853 
Q 2591 2978 2328 3040 
Q 2066 3103 1784 3103 
Q 1356 3103 1142 2972 
Q 928 2841 928 2578 
Q 928 2378 1081 2264 
Q 1234 2150 1697 2047 
L 1894 2003 
Q 2506 1872 2764 1633 
Q 3022 1394 3022 966 
Q 3022 478 2636 193 
Q 2250 -91 1575 -91 
Q 1294 -91 989 -36 
Q 684 19 347 128 
L 347 722 
Q 666 556 975 473 
Q 1284 391 1588 391 
Q 1994 391 2212 530 
Q 2431 669 2431 922 
Q 2431 1156 2273 1281 
Q 2116 1406 1581 1522 
L 1381 1569 
Q 847 1681 609 1914 
Q 372 2147 372 2553 
Q 372 3047 722 3315 
Q 1072 3584 1716 3584 
Q 2034 3584 2315 3537 
Q 2597 3491 2834 3397 
z
" transform="scale(0.015625)"/>
     <path id="DejaVuSans-69" d="M 603 3500 
L 1178 3500 
L 1178 0 
L 603 0 
L 603 3500 
z
M 603 4863 
L 1178 4863 
L 1178 4134 
L 603 4134 
L 603 4863 
z
" transform="scale(0.015625)"/>
     <path id="DejaVuSans-79" d="M 2059 -325 
Q 1816 -950 1584 -1140 
Q 1353 -1331 966 -1331 
L 506 -1331 
L 506 -850 
L 844 -850 
Q 1081 -850 1212 -737 
Q 1344 -625 1503 -206 
L 1606 56 
L 191 3500 
L 800 3500 
L 1894 763 
L 2988 3500 
L 3597 3500 
L 2059 -325 
z
" transform="scale(0.015625)"/>
     <path id="DejaVuSans-20" transform="scale(0.015625)"/>
     <path id="DejaVuSans-61" d="M 2194 1759 
Q 1497 1759 1228 1600 
Q 959 1441 959 1056 
Q 959 750 1161 570 
Q 1363 391 1709 391 
Q 2188 391 2477 730 
Q 2766 1069 2766 1631 
L 2766 1759 
L 2194 1759 
z
M 3341 1997 
L 3341 0 
L 2766 0 
L 2766 531 
Q 2569 213 2275 61 
Q 1981 -91 1556 -91 
Q 1019 -91 701 211 
Q 384 513 384 1019 
Q 384 1609 779 1909 
Q 1175 2209 1959 2209 
L 2766 2209 
L 2766 2266 
Q 2766 2663 2505 2880 
Q 2244 3097 1772 3097 
Q 1472 3097 1187 3025 
Q 903 2953 641 2809 
L 641 3341 
Q 956 3463 1253 3523 
Q 1550 3584 1831 3584 
Q 2591 3584 2966 3190 
Q 3341 2797 3341 1997 
z
" transform="scale(0.015625)"/>
     <path id="DejaVuSans-70" d="M 1159 525 
L 1159 -1331 
L 581 -1331 
L 581 3500 
L 1159 3500 
L 1159 2969 
Q 1341 3281 1617 3432 
Q 1894 3584 2278 3584 
Q 2916 3584 3314 3078 
Q 3713 2572 3713 1747 
Q 3713 922 3314 415 
Q 2916 -91 2278 -91 
Q 1894 -91 1617 61 
Q 1341 213 1159 525 
z
M 3116 1747 
Q 3116 2381 2855 2742 
Q 2594 3103 2138 3103 
Q 1681 3103 1420 2742 
Q 1159 2381 1159 1747 
Q 1159 1113 1420 752 
Q 1681 391 2138 391 
Q 2594 391 2855 752 
Q 3116 1113 3116 1747 
z
" transform="scale(0.015625)"/>
     <path id="DejaVuSans-68" d="M 3513 2113 
L 3513 0 
L 2938 0 
L 2938 2094 
Q 2938 2591 2744 2837 
Q 2550 3084 2163 3084 
Q 1697 3084 1428 2787 
Q 1159 2491 1159 1978 
L 1159 0 
L 581 0 
L 581 4863 
L 1159 4863 
L 1159 2956 
Q 1366 3272 1645 3428 
Q 1925 3584 2291 3584 
Q 2894 3584 3203 3211 
Q 3513 2838 3513 2113 
z
" transform="scale(0.015625)"/>
     <path id="DejaVuSans-6f" d="M 1959 3097 
Q 1497 3097 1228 2736 
Q 959 2375 959 1747 
Q 959 1119 1226 758 
Q 1494 397 1959 397 
Q 2419 397 2687 759 
Q 2956 1122 2956 1747 
Q 2956 2369 2687 2733 
Q 2419 3097 1959 3097 
z
M 1959 3584 
Q 2709 3584 3137 3096 
Q 3566 2609 3566 1747 
Q 3566 888 3137 398 
Q 2709 -91 1959 -91 
Q 1206 -91 779 398 
Q 353 888 353 1747 
Q 353 2609 779 3096 
Q 1206 3584 1959 3584 
z
" transform="scale(0.015625)"/>
     <path id="DejaVuSans-66" d="M 2375 4863 
L 2375 4384 
L 1825 4384 
Q 1516 4384 1395 4259 
Q 1275 4134 1275 3809 
L 1275 3500 
L 2222 3500 
L 2222 3053 
L 1275 3053 
L 1275 0 
L 697 0 
L 697 3053 
L 147 3053 
L 147 3500 
L 697 3500 
L 697 3744 
Q 697 4328 969 4595 
Q 1241 4863 1831 4863 
L 2375 4863 
z
" transform="scale(0.015625)"/>
     <path id="DejaVuSans-72" d="M 2631 2963 
Q 2534 3019 2420 3045 
Q 2306 3072 2169 3072 
Q 1681 3072 1420 2755 
Q 1159 2438 1159 1844 
L 1159 0 
L 581 0 
L 581 3500 
L 1159 3500 
L 1159 2956 
Q 1341 3275 1631 3429 
Q 1922 3584 2338 3584 
Q 2397 3584 2469 3576 
Q 2541 3569 2628 3553 
L 2631 2963 
z
" transform="scale(0.015625)"/>
     <path id="DejaVuSans-75" d="M 544 1381 
L 544 3500 
L 1119 3500 
L 1119 1403 
Q 1119 906 1312 657 
Q 1506 409 1894 409 
Q 2359 409 2629 706 
Q 2900 1003 2900 1516 
L 2900 3500 
L 3475 3500 
L 3475 0 
L 2900 0 
L 2900 538 
Q 2691 219 2414 64 
Q 2138 -91 1772 -91 
Q 1169 -91 856 284 
Q 544 659 544 1381 
z
M 1991 3584 
L 1991 3584 
z
" transform="scale(0.015625)"/>
     <path id="DejaVuSans-5f" d="M 3263 -1063 
L 3263 -1509 
L -63 -1509 
L -63 -1063 
L 3263 -1063 
z
" transform="scale(0.015625)"/>
     <path id="DejaVuSans-64" d="M 2906 2969 
L 2906 4863 
L 3481 4863 
L 3481 0 
L 2906 0 
L 2906 525 
Q 2725 213 2448 61 
Q 2172 -91 1784 -91 
Q 1150 -91 751 415 
Q 353 922 353 1747 
Q 353 2572 751 3078 
Q 1150 3584 1784 3584 
Q 2172 3584 2448 3432 
Q 2725 3281 2906 2969 
z
M 947 1747 
Q 947 1113 1208 752 
Q 1469 391 1925 391 
Q 2381 391 2643 752 
Q 2906 1113 2906 1747 
Q 2906 2381 2643 2742 
Q 2381 3103 1925 3103 
Q 1469 3103 1208 2742 
Q 947 2381 947 1747 
z
" transform="scale(0.015625)"/>
     <path id="DejaVuSans-5b" d="M 550 4863 
L 1875 4863 
L 1875 4416 
L 1125 4416 
L 1125 -397 
L 1875 -397 
L 1875 -844 
L 550 -844 
L 550 4863 
z
" transform="scale(0.015625)"/>
     <path id="DejaVuSans-63" d="M 3122 3366 
L 3122 2828 
Q 2878 2963 2633 3030 
Q 2388 3097 2138 3097 
Q 1578 3097 1268 2742 
Q 959 2388 959 1747 
Q 959 1106 1268 751 
Q 1578 397 2138 397 
Q 2388 397 2633 464 
Q 2878 531 3122 666 
L 3122 134 
Q 2881 22 2623 -34 
Q 2366 -91 2075 -91 
Q 1284 -91 818 406 
Q 353 903 353 1747 
Q 353 2603 823 3093 
Q 1294 3584 2113 3584 
Q 2378 3584 2631 3529 
Q 2884 3475 3122 3366 
z
" transform="scale(0.015625)"/>
     <path id="DejaVuSans-6d" d="M 3328 2828 
Q 3544 3216 3844 3400 
Q 4144 3584 4550 3584 
Q 5097 3584 5394 3201 
Q 5691 2819 5691 2113 
L 5691 0 
L 5113 0 
L 5113 2094 
Q 5113 2597 4934 2840 
Q 4756 3084 4391 3084 
Q 3944 3084 3684 2787 
Q 3425 2491 3425 1978 
L 3425 0 
L 2847 0 
L 2847 2094 
Q 2847 2600 2669 2842 
Q 2491 3084 2119 3084 
Q 1678 3084 1418 2786 
Q 1159 2488 1159 1978 
L 1159 0 
L 581 0 
L 581 3500 
L 1159 3500 
L 1159 2956 
Q 1356 3278 1631 3431 
Q 1906 3584 2284 3584 
Q 2666 3584 2933 3390 
Q 3200 3197 3328 2828 
z
" transform="scale(0.015625)"/>
     <path id="DejaVuSans-5d" d="M 1947 4863 
L 1947 -844 
L 622 -844 
L 622 -397 
L 1369 -397 
L 1369 4416 
L 622 4416 
L 622 4863 
L 1947 4863 
z
" transform="scale(0.015625)"/>
    </defs>
    <use xlink:href="#DejaVuSans-44"/>
    <use xlink:href="#DejaVuSans-65" x="77.001953"/>
    <use xlink:href="#DejaVuSans-6e" x="138.525391"/>
    <use xlink:href="#DejaVuSans-73" x="201.904297"/>
    <use xlink:href="#DejaVuSans-69" x="254.003906"/>
    <use xlink:href="#DejaVuSans-74" x="281.787109"/>
    <use xlink:href="#DejaVuSans-79" x="320.996094"/>
    <use xlink:href="#DejaVuSans-20" x="380.175781"/>
    <use xlink:href="#DejaVuSans-73" x="411.962891"/>
    <use xlink:href="#DejaVuSans-6e" x="464.0625"/>
    <use xlink:href="#DejaVuSans-61" x="527.441406"/>
    <use xlink:href="#DejaVuSans-70" x="588.720703"/>
    <use xlink:href="#DejaVuSans-73" x="652.197266"/>
    <use xlink:href="#DejaVuSans-68" x="704.296875"/>
    <use xlink:href="#DejaVuSans-6f" x="767.675781"/>
    <use xlink:href="#DejaVuSans-74" x="828.857422"/>
    <use xlink:href="#DejaVuSans-73" x="868.066406"/>
    <use xlink:href="#DejaVuSans-20" x="920.166016"/>
    <use xlink:href="#DejaVuSans-66" x="951.953125"/>
    <use xlink:href="#DejaVuSans-6f" x="987.158203"/>
    <use xlink:href="#DejaVuSans-72" x="1048.339844"/>
    <use xlink:href="#DejaVuSans-20" x="1089.453125"/>
    <use xlink:href="#DejaVuSans-75" x="1121.240234"/>
    <use xlink:href="#DejaVuSans-5f" x="1184.619141"/>
    <use xlink:href="#DejaVuSans-64" x="1234.619141"/>
    <use xlink:href="#DejaVuSans-3d" x="1298.095703"/>
    <use xlink:href="#DejaVuSans-30" x="1381.884766"/>
    <use xlink:href="#DejaVuSans-2e" x="1445.507812"/>
    <use xlink:href="#DejaVuSans-31" x="1477.294922"/>
    <use xlink:href="#DejaVuSans-2e" x="1540.917969"/>
    <use xlink:href="#DejaVuSans-2e" x="1572.705078"/>
    <use xlink:href="#DejaVuSans-31" x="1604.492188"/>
    <use xlink:href="#DejaVuSans-2e" x="1668.115234"/>
    <use xlink:href="#DejaVuSans-30" x="1699.902344"/>
    <use xlink:href="#DejaVuSans-20" x="1763.525391"/>
    <use xlink:href="#DejaVuSans-20" x="1795.3125"/>
    <use xlink:href="#DejaVuSans-5b" x="1827.099609"/>
    <use xlink:href="#DejaVuSans-75" x="1866.113281"/>
    <use xlink:href="#DejaVuSans-64" x="1929.492188"/>
    <use xlink:href="#DejaVuSans-5f" x="1992.96875"/>
    <use xlink:href="#DejaVuSans-63" x="2042.96875"/>
    <use xlink:href="#DejaVuSans-6f" x="2097.949219"/>
    <use xlink:href="#DejaVuSans-6d" x="2159.130859"/>
    <use xlink:href="#DejaVuSans-70" x="2256.542969"/>
    <use xlink:href="#DejaVuSans-61" x="2320.019531"/>
    <use xlink:href="#DejaVuSans-72" x="2381.298828"/>
    <use xlink:href="#DejaVuSans-69" x="2422.412109"/>
    <use xlink:href="#DejaVuSans-73" x="2450.195312"/>
    <use xlink:href="#DejaVuSans-6f" x="2502.294922"/>
    <use xlink:href="#DejaVuSans-6e" x="2563.476562"/>
    <use xlink:href="#DejaVuSans-5d" x="2626.855469"/>
   </g>
  </g>
 </g>
 <defs>
  <clipPath id="p97a829821a">
   <rect x="58.66899" y="20.94822" width="658.33077" height="194.970908"/>
  </clipPath>
  <clipPath id="pf04ffef941">
   <rect x="58.66899" y="225.419608" width="658.33077" height="194.970908"/>
  </clipPath>
  <clipPath id="p9658a8f761">
   <rect x="58.66899" y="429.890996" width="658.33077" height="194.970908"/>
  </clipPath>
  <clipPath id="pf0d3982c53">
   <rect x="58.66899" y="635.672602" width="658.33077" height="194.970908"/>
  </clipPath>
 </defs>
</svg>
