<?xml version="1.0" encoding="utf-8" standalone="no"?>
<!DOCTYPE svg PUBLIC "-//W3C//DTD SVG 1.1//EN"
  "http://www.w3.org/Graphics/SVG/1.1/DTD/svg11.dtd">
<svg xmlns:xlink="http://www.w3.org/1999/xlink" width="720pt" height="864pt" viewBox="0 0 720 864" xmlns="http://www.w3.org/2000/svg" version="1.1">
 <metadata>
  <rdf:RDF xmlns:dc="http://purl.org/dc/elements/1.1/" xmlns:cc="http://creativecommons.org/ns#" xmlns:rdf="http://www.w3.org/1999/02/22-rdf-syntax-ns#">
   <cc:Work>
    <dc:type rdf:resource="http://purl.org/dc/dcmitype/StillImage"/>
    <dc:date>2025-09-19T04:11:45.053430</dc:date>
    <dc:format>image/svg+xml</dc:format>
    <dc:creator>
     <cc:Agent>
      <dc:title>Matplotlib v3.8.4, https://matplotlib.org/</dc:title>
     </cc:Agent>
    </dc:creator>
   </cc:Work>
  </rdf:RDF>
 </metadata>
 <defs>
  <style type="text/css">*{stroke-linejoin: round; stroke-linecap: butt}</style>
 </defs>
 <g id="figure_1">
  <g id="patch_1">
   <path d="M 0 864 
L 720 864 
L 720 0 
L 0 0 
z
" style="fill: #ffffff"/>
  </g>
  <g id="axes_1">
   <g id="patch_2">
    <path d="M 30.040865 113.847211 
L 716.99976 113.847211 
L 716.99976 20.94822 
L 30.040865 20.94822 
z
" style="fill: #ffffff"/>
   </g>
   <g id="matplotlib.axis_1">
    <g id="xtick_1">
     <g id="line2d_1">
      <defs>
       <path id="m3359944afc" d="M 0 0 
L 0 3.5 
" style="stroke: #000000; stroke-width: 0.8"/>
      </defs>
      <g>
       <use xlink:href="#m3359944afc" x="61.266269" y="113.847211" style="stroke: #000000; stroke-width: 0.8"/>
      </g>
     </g>
    </g>
    <g id="xtick_2">
     <g id="line2d_2">
      <g>
       <use xlink:href="#m3359944afc" x="160.854328" y="113.847211" style="stroke: #000000; stroke-width: 0.8"/>
      </g>
     </g>
    </g>
    <g id="xtick_3">
     <g id="line2d_3">
      <g>
       <use xlink:href="#m3359944afc" x="260.442386" y="113.847211" style="stroke: #000000; stroke-width: 0.8"/>
      </g>
     </g>
    </g>
    <g id="xtick_4">
     <g id="line2d_4">
      <g>
       <use xlink:href="#m3359944afc" x="360.030445" y="113.847211" style="stroke: #000000; stroke-width: 0.8"/>
      </g>
     </g>
    </g>
    <g id="xtick_5">
     <g id="line2d_5">
      <g>
       <use xlink:href="#m3359944afc" x="459.618504" y="113.847211" style="stroke: #000000; stroke-width: 0.8"/>
      </g>
     </g>
    </g>
    <g id="xtick_6">
     <g id="line2d_6">
      <g>
       <use xlink:href="#m3359944afc" x="559.206562" y="113.847211" style="stroke: #000000; stroke-width: 0.8"/>
      </g>
     </g>
    </g>
    <g id="xtick_7">
     <g id="line2d_7">
      <g>
       <use xlink:href="#m3359944afc" x="658.794621" y="113.847211" style="stroke: #000000; stroke-width: 0.8"/>
      </g>
     </g>
    </g>
   </g>
   <g id="matplotlib.axis_2">
    <g id="ytick_1">
     <g id="line2d_8">
      <defs>
       <path id="mbe117e7df0" d="M 0 0 
L -3.5 0 
" style="stroke: #000000; stroke-width: 0.8"/>
      </defs>
      <g>
       <use xlink:href="#mbe117e7df0" x="30.040865" y="110.622531" style="stroke: #000000; stroke-width: 0.8"/>
      </g>
     </g>
     <g id="text_1">
      <!-- 0 -->
      <g transform="translate(16.678365 114.42175) scale(0.1 -0.1)">
       <defs>
        <path id="DejaVuSans-30" d="M 2034 4250 
Q 1547 4250 1301 3770 
Q 1056 3291 1056 2328 
Q 1056 1369 1301 889 
Q 1547 409 2034 409 
Q 2525 409 2770 889 
Q 3016 1369 3016 2328 
Q 3016 3291 2770 3770 
Q 2525 4250 2034 4250 
z
M 2034 4750 
Q 2819 4750 3233 4129 
Q 3647 3509 3647 2328 
Q 3647 1150 3233 529 
Q 2819 -91 2034 -91 
Q 1250 -91 836 529 
Q 422 1150 422 2328 
Q 422 3509 836 4129 
Q 1250 4750 2034 4750 
z
" transform="scale(0.015625)"/>
       </defs>
       <use xlink:href="#DejaVuSans-30"/>
      </g>
     </g>
    </g>
    <g id="ytick_2">
     <g id="line2d_9">
      <g>
       <use xlink:href="#mbe117e7df0" x="30.040865" y="85.464162" style="stroke: #000000; stroke-width: 0.8"/>
      </g>
     </g>
     <g id="text_2">
      <!-- 2 -->
      <g transform="translate(16.678365 89.263381) scale(0.1 -0.1)">
       <defs>
        <path id="DejaVuSans-32" d="M 1228 531 
L 3431 531 
L 3431 0 
L 469 0 
L 469 531 
Q 828 903 1448 1529 
Q 2069 2156 2228 2338 
Q 2531 2678 2651 2914 
Q 2772 3150 2772 3378 
Q 2772 3750 2511 3984 
Q 2250 4219 1831 4219 
Q 1534 4219 1204 4116 
Q 875 4013 500 3803 
L 500 4441 
Q 881 4594 1212 4672 
Q 1544 4750 1819 4750 
Q 2544 4750 2975 4387 
Q 3406 4025 3406 3419 
Q 3406 3131 3298 2873 
Q 3191 2616 2906 2266 
Q 2828 2175 2409 1742 
Q 1991 1309 1228 531 
z
" transform="scale(0.015625)"/>
       </defs>
       <use xlink:href="#DejaVuSans-32"/>
      </g>
     </g>
    </g>
    <g id="ytick_3">
     <g id="line2d_10">
      <g>
       <use xlink:href="#mbe117e7df0" x="30.040865" y="60.305793" style="stroke: #000000; stroke-width: 0.8"/>
      </g>
     </g>
     <g id="text_3">
      <!-- 4 -->
      <g transform="translate(16.678365 64.105012) scale(0.1 -0.1)">
       <defs>
        <path id="DejaVuSans-34" d="M 2419 4116 
L 825 1625 
L 2419 1625 
L 2419 4116 
z
M 2253 4666 
L 3047 4666 
L 3047 1625 
L 3713 1625 
L 3713 1100 
L 3047 1100 
L 3047 0 
L 2419 0 
L 2419 1100 
L 313 1100 
L 313 1709 
L 2253 4666 
z
" transform="scale(0.015625)"/>
       </defs>
       <use xlink:href="#DejaVuSans-34"/>
      </g>
     </g>
    </g>
    <g id="ytick_4">
     <g id="line2d_11">
      <g>
       <use xlink:href="#mbe117e7df0" x="30.040865" y="35.147424" style="stroke: #000000; stroke-width: 0.8"/>
      </g>
     </g>
     <g id="text_4">
      <!-- 6 -->
      <g transform="translate(16.678365 38.946643) scale(0.1 -0.1)">
       <defs>
        <path id="DejaVuSans-36" d="M 2113 2584 
Q 1688 2584 1439 2293 
Q 1191 2003 1191 1497 
Q 1191 994 1439 701 
Q 1688 409 2113 409 
Q 2538 409 2786 701 
Q 3034 994 3034 1497 
Q 3034 2003 2786 2293 
Q 2538 2584 2113 2584 
z
M 3366 4563 
L 3366 3988 
Q 3128 4100 2886 4159 
Q 2644 4219 2406 4219 
Q 1781 4219 1451 3797 
Q 1122 3375 1075 2522 
Q 1259 2794 1537 2939 
Q 1816 3084 2150 3084 
Q 2853 3084 3261 2657 
Q 3669 2231 3669 1497 
Q 3669 778 3244 343 
Q 2819 -91 2113 -91 
Q 1303 -91 875 529 
Q 447 1150 447 2328 
Q 447 3434 972 4092 
Q 1497 4750 2381 4750 
Q 2619 4750 2861 4703 
Q 3103 4656 3366 4563 
z
" transform="scale(0.015625)"/>
       </defs>
       <use xlink:href="#DejaVuSans-36"/>
      </g>
     </g>
    </g>
    <g id="text_5">
     <!-- $u_d=0.1$ -->
     <g transform="translate(10.598678 87.047716) rotate(-90) scale(0.1 -0.1)">
      <defs>
       <path id="DejaVuSans-Oblique-75" d="M 428 1388 
L 838 3500 
L 1416 3500 
L 1006 1409 
Q 975 1256 961 1147 
Q 947 1038 947 966 
Q 947 700 1109 554 
Q 1272 409 1569 409 
Q 2031 409 2368 721 
Q 2706 1034 2809 1563 
L 3194 3500 
L 3769 3500 
L 3091 0 
L 2516 0 
L 2631 550 
Q 2388 244 2052 76 
Q 1716 -91 1338 -91 
Q 878 -91 622 161 
Q 366 413 366 863 
Q 366 956 381 1097 
Q 397 1238 428 1388 
z
" transform="scale(0.015625)"/>
       <path id="DejaVuSans-Oblique-64" d="M 2675 525 
Q 2444 222 2128 65 
Q 1813 -91 1428 -91 
Q 903 -91 598 267 
Q 294 625 294 1247 
Q 294 1766 478 2236 
Q 663 2706 1013 3078 
Q 1244 3325 1534 3454 
Q 1825 3584 2144 3584 
Q 2481 3584 2739 3421 
Q 2997 3259 3138 2956 
L 3513 4863 
L 4091 4863 
L 3144 0 
L 2566 0 
L 2675 525 
z
M 891 1350 
Q 891 897 1095 644 
Q 1300 391 1663 391 
Q 1931 391 2161 520 
Q 2391 650 2566 903 
Q 2750 1166 2856 1509 
Q 2963 1853 2963 2188 
Q 2963 2622 2758 2865 
Q 2553 3109 2194 3109 
Q 1922 3109 1687 2981 
Q 1453 2853 1288 2613 
Q 1106 2353 998 2009 
Q 891 1666 891 1350 
z
" transform="scale(0.015625)"/>
       <path id="DejaVuSans-3d" d="M 678 2906 
L 4684 2906 
L 4684 2381 
L 678 2381 
L 678 2906 
z
M 678 1631 
L 4684 1631 
L 4684 1100 
L 678 1100 
L 678 1631 
z
" transform="scale(0.015625)"/>
       <path id="DejaVuSans-2e" d="M 684 794 
L 1344 794 
L 1344 0 
L 684 0 
L 684 794 
z
" transform="scale(0.015625)"/>
       <path id="DejaVuSans-31" d="M 794 531 
L 1825 531 
L 1825 4091 
L 703 3866 
L 703 4441 
L 1819 4666 
L 2450 4666 
L 2450 531 
L 3481 531 
L 3481 0 
L 794 0 
L 794 531 
z
" transform="scale(0.015625)"/>
      </defs>
      <use xlink:href="#DejaVuSans-Oblique-75" transform="translate(0 0.78125)"/>
      <use xlink:href="#DejaVuSans-Oblique-64" transform="translate(63.378906 -15.625) scale(0.7)"/>
      <use xlink:href="#DejaVuSans-3d" transform="translate(130.029297 0.78125)"/>
      <use xlink:href="#DejaVuSans-30" transform="translate(233.300781 0.78125)"/>
      <use xlink:href="#DejaVuSans-2e" transform="translate(296.923828 0.78125)"/>
      <use xlink:href="#DejaVuSans-31" transform="translate(328.710938 0.78125)"/>
     </g>
    </g>
   </g>
   <g id="line2d_12">
    <path d="M 61.266269 109.578083 
L 115.03996 109.28883 
L 143.148934 108.937628 
L 159.036616 108.536531 
L 168.81365 108.096207 
L 176.146426 107.547574 
L 181.034943 106.978769 
L 184.701331 106.366063 
L 188.367719 105.495062 
L 190.811978 104.698692 
L 193.256237 103.653393 
L 195.700495 102.266631 
L 198.144754 100.415707 
L 199.366883 99.270102 
L 200.589013 97.949844 
L 201.811142 96.433758 
L 203.033271 94.700231 
L 204.255401 92.728993 
L 205.47753 90.502942 
L 206.699659 88.007983 
L 207.921789 85.234839 
L 210.366047 78.849252 
L 212.810306 71.405599 
L 215.254565 63.093821 
L 222.587341 37.155961 
L 223.80947 33.542145 
L 225.031599 30.416989 
L 226.253729 27.906318 
L 227.475858 26.141045 
L 228.697987 25.251223 
L 229.920117 25.360754 
L 231.142246 26.580999 
L 232.364375 28.998941 
L 233.586504 32.665743 
L 234.808634 37.584654 
L 236.030763 43.694565 
L 237.252892 50.857662 
L 239.697151 67.367663 
L 242.14141 84.355065 
L 243.363539 91.927178 
L 244.585668 98.314061 
L 245.807798 103.212579 
L 247.029927 106.514911 
L 248.252056 108.381741 
L 249.474186 109.223755 
L 250.696315 109.51941 
L 253.140574 109.622862 
L 278.80529 109.545536 
L 330.134721 109.228927 
L 354.577308 108.882447 
L 369.24286 108.477746 
L 379.019894 107.996063 
L 385.130541 107.508167 
L 390.019058 106.920258 
L 393.685446 106.284306 
L 397.351834 105.376647 
L 399.796093 104.544291 
L 402.240352 103.449296 
L 404.68461 101.994601 
L 405.90674 101.093524 
L 407.128869 100.052647 
L 408.350998 98.851284 
L 409.573128 97.468247 
L 410.795257 95.882216 
L 412.017386 94.071705 
L 413.239516 92.017444 
L 414.461645 89.703321 
L 415.683774 87.116521 
L 418.128033 81.102876 
L 420.572292 73.997855 
L 423.01655 65.94606 
L 426.682938 52.76246 
L 430.349326 39.780163 
L 431.571456 35.906932 
L 432.793585 32.442143 
L 434.015714 29.507124 
L 435.237844 27.229808 
L 436.459973 25.741574 
L 437.682102 25.170901 
L 438.904232 25.638522 
L 440.126361 27.249132 
L 441.34849 30.078935 
L 442.57062 34.164763 
L 443.792749 39.490294 
L 445.014878 45.969879 
L 446.237007 53.438525 
L 448.681266 70.251026 
L 451.125525 86.981477 
L 452.347654 94.201617 
L 453.569783 100.119073 
L 454.791913 104.486466 
L 456.014042 107.279115 
L 457.236171 108.751001 
L 458.458301 109.361951 
L 459.68043 109.560412 
L 463.346818 109.623769 
L 513.454121 109.421378 
L 550.118 109.097419 
L 569.67207 108.732439 
L 581.893363 108.308061 
L 590.448268 107.793779 
L 596.558915 107.193842 
L 600.225303 106.663794 
L 603.891691 105.922209 
L 606.335949 105.252781 
L 608.780208 104.382372 
L 611.224467 103.234969 
L 613.668725 101.708646 
L 614.890855 100.763154 
L 616.112984 99.671158 
L 617.335113 98.411589 
L 618.557243 96.963306 
L 619.779372 95.304798 
L 621.001501 93.415028 
L 622.223631 91.275821 
L 623.44576 88.872024 
L 624.667889 86.192432 
L 627.112148 79.992532 
L 629.556407 72.716067 
L 632.000665 64.530129 
L 639.333441 38.451239 
L 640.555571 34.701062 
L 641.7777 31.399016 
L 642.999829 28.66868 
L 644.221959 26.639762 
L 645.444088 25.443327 
L 646.666217 25.205813 
L 647.888347 26.043869 
L 649.110476 28.054045 
L 650.332605 31.300608 
L 651.554735 35.804515 
L 652.776864 41.527926 
L 653.998993 48.35956 
L 656.443252 64.487655 
L 658.88751 81.632082 
L 660.10964 89.510408 
L 661.331769 96.334228 
L 662.553898 101.753331 
L 663.776028 105.585351 
L 664.998157 107.896173 
L 666.220286 109.025528 
L 667.442416 109.456376 
L 669.886674 109.6197 
L 685.774356 109.582135 
L 685.774356 109.582135 
" clip-path="url(#pa71252acae)" style="fill: none; stroke: #1f77b4; stroke-width: 1.5; stroke-linecap: square"/>
   </g>
   <g id="patch_3">
    <path d="M 30.040865 113.847211 
L 30.040865 20.94822 
" style="fill: none; stroke: #000000; stroke-width: 0.8; stroke-linejoin: miter; stroke-linecap: square"/>
   </g>
   <g id="patch_4">
    <path d="M 716.99976 113.847211 
L 716.99976 20.94822 
" style="fill: none; stroke: #000000; stroke-width: 0.8; stroke-linejoin: miter; stroke-linecap: square"/>
   </g>
   <g id="patch_5">
    <path d="M 30.040865 113.847211 
L 716.99976 113.847211 
" style="fill: none; stroke: #000000; stroke-width: 0.8; stroke-linejoin: miter; stroke-linecap: square"/>
   </g>
   <g id="patch_6">
    <path d="M 30.040865 20.94822 
L 716.99976 20.94822 
" style="fill: none; stroke: #000000; stroke-width: 0.8; stroke-linejoin: miter; stroke-linecap: square"/>
   </g>
   <g id="legend_1">
    <g id="patch_7">
     <path d="M 658.14726 39.09072 
L 711.39976 39.09072 
Q 712.99976 39.09072 712.99976 37.49072 
L 712.99976 26.54822 
Q 712.99976 24.94822 711.39976 24.94822 
L 658.14726 24.94822 
Q 656.54726 24.94822 656.54726 26.54822 
L 656.54726 37.49072 
Q 656.54726 39.09072 658.14726 39.09072 
z
" style="fill: #ffffff; opacity: 0.8; stroke: #cccccc; stroke-linejoin: miter"/>
    </g>
    <g id="line2d_13">
     <path d="M 659.74726 31.42697 
L 667.74726 31.42697 
L 675.74726 31.42697 
" style="fill: none; stroke: #1f77b4; stroke-width: 1.5; stroke-linecap: square"/>
    </g>
    <g id="text_6">
     <!-- t=10.0 -->
     <g transform="translate(682.14726 34.22697) scale(0.08 -0.08)">
      <defs>
       <path id="DejaVuSans-74" d="M 1172 4494 
L 1172 3500 
L 2356 3500 
L 2356 3053 
L 1172 3053 
L 1172 1153 
Q 1172 725 1289 603 
Q 1406 481 1766 481 
L 2356 481 
L 2356 0 
L 1766 0 
Q 1100 0 847 248 
Q 594 497 594 1153 
L 594 3053 
L 172 3053 
L 172 3500 
L 594 3500 
L 594 4494 
L 1172 4494 
z
" transform="scale(0.015625)"/>
      </defs>
      <use xlink:href="#DejaVuSans-74"/>
      <use xlink:href="#DejaVuSans-3d" x="39.208984"/>
      <use xlink:href="#DejaVuSans-31" x="122.998047"/>
      <use xlink:href="#DejaVuSans-30" x="186.621094"/>
      <use xlink:href="#DejaVuSans-2e" x="250.244141"/>
      <use xlink:href="#DejaVuSans-30" x="282.03125"/>
     </g>
    </g>
   </g>
  </g>
  <g id="axes_2">
   <g id="patch_8">
    <path d="M 30.040865 216.246682 
L 716.99976 216.246682 
L 716.99976 123.347691 
L 30.040865 123.347691 
z
" style="fill: #ffffff"/>
   </g>
   <g id="matplotlib.axis_3">
    <g id="xtick_8">
     <g id="line2d_14">
      <g>
       <use xlink:href="#m3359944afc" x="61.266269" y="216.246682" style="stroke: #000000; stroke-width: 0.8"/>
      </g>
     </g>
    </g>
    <g id="xtick_9">
     <g id="line2d_15">
      <g>
       <use xlink:href="#m3359944afc" x="160.854328" y="216.246682" style="stroke: #000000; stroke-width: 0.8"/>
      </g>
     </g>
    </g>
    <g id="xtick_10">
     <g id="line2d_16">
      <g>
       <use xlink:href="#m3359944afc" x="260.442386" y="216.246682" style="stroke: #000000; stroke-width: 0.8"/>
      </g>
     </g>
    </g>
    <g id="xtick_11">
     <g id="line2d_17">
      <g>
       <use xlink:href="#m3359944afc" x="360.030445" y="216.246682" style="stroke: #000000; stroke-width: 0.8"/>
      </g>
     </g>
    </g>
    <g id="xtick_12">
     <g id="line2d_18">
      <g>
       <use xlink:href="#m3359944afc" x="459.618504" y="216.246682" style="stroke: #000000; stroke-width: 0.8"/>
      </g>
     </g>
    </g>
    <g id="xtick_13">
     <g id="line2d_19">
      <g>
       <use xlink:href="#m3359944afc" x="559.206562" y="216.246682" style="stroke: #000000; stroke-width: 0.8"/>
      </g>
     </g>
    </g>
    <g id="xtick_14">
     <g id="line2d_20">
      <g>
       <use xlink:href="#m3359944afc" x="658.794621" y="216.246682" style="stroke: #000000; stroke-width: 0.8"/>
      </g>
     </g>
    </g>
   </g>
   <g id="matplotlib.axis_4">
    <g id="ytick_5">
     <g id="line2d_21">
      <g>
       <use xlink:href="#mbe117e7df0" x="30.040865" y="213.020514" style="stroke: #000000; stroke-width: 0.8"/>
      </g>
     </g>
     <g id="text_7">
      <!-- 0 -->
      <g transform="translate(16.678365 216.819733) scale(0.1 -0.1)">
       <use xlink:href="#DejaVuSans-30"/>
      </g>
     </g>
    </g>
    <g id="ytick_6">
     <g id="line2d_22">
      <g>
       <use xlink:href="#mbe117e7df0" x="30.040865" y="187.878495" style="stroke: #000000; stroke-width: 0.8"/>
      </g>
     </g>
     <g id="text_8">
      <!-- 2 -->
      <g transform="translate(16.678365 191.677714) scale(0.1 -0.1)">
       <use xlink:href="#DejaVuSans-32"/>
      </g>
     </g>
    </g>
    <g id="ytick_7">
     <g id="line2d_23">
      <g>
       <use xlink:href="#mbe117e7df0" x="30.040865" y="162.736476" style="stroke: #000000; stroke-width: 0.8"/>
      </g>
     </g>
     <g id="text_9">
      <!-- 4 -->
      <g transform="translate(16.678365 166.535695) scale(0.1 -0.1)">
       <use xlink:href="#DejaVuSans-34"/>
      </g>
     </g>
    </g>
    <g id="ytick_8">
     <g id="line2d_24">
      <g>
       <use xlink:href="#mbe117e7df0" x="30.040865" y="137.594457" style="stroke: #000000; stroke-width: 0.8"/>
      </g>
     </g>
     <g id="text_10">
      <!-- 6 -->
      <g transform="translate(16.678365 141.393676) scale(0.1 -0.1)">
       <use xlink:href="#DejaVuSans-36"/>
      </g>
     </g>
    </g>
    <g id="text_11">
     <!-- $u_d=0.3$ -->
     <g transform="translate(10.598678 189.447187) rotate(-90) scale(0.1 -0.1)">
      <defs>
       <path id="DejaVuSans-33" d="M 2597 2516 
Q 3050 2419 3304 2112 
Q 3559 1806 3559 1356 
Q 3559 666 3084 287 
Q 2609 -91 1734 -91 
Q 1441 -91 1130 -33 
Q 819 25 488 141 
L 488 750 
Q 750 597 1062 519 
Q 1375 441 1716 441 
Q 2309 441 2620 675 
Q 2931 909 2931 1356 
Q 2931 1769 2642 2001 
Q 2353 2234 1838 2234 
L 1294 2234 
L 1294 2753 
L 1863 2753 
Q 2328 2753 2575 2939 
Q 2822 3125 2822 3475 
Q 2822 3834 2567 4026 
Q 2313 4219 1838 4219 
Q 1578 4219 1281 4162 
Q 984 4106 628 3988 
L 628 4550 
Q 988 4650 1302 4700 
Q 1616 4750 1894 4750 
Q 2613 4750 3031 4423 
Q 3450 4097 3450 3541 
Q 3450 3153 3228 2886 
Q 3006 2619 2597 2516 
z
" transform="scale(0.015625)"/>
      </defs>
      <use xlink:href="#DejaVuSans-Oblique-75" transform="translate(0 0.78125)"/>
      <use xlink:href="#DejaVuSans-Oblique-64" transform="translate(63.378906 -15.625) scale(0.7)"/>
      <use xlink:href="#DejaVuSans-3d" transform="translate(130.029297 0.78125)"/>
      <use xlink:href="#DejaVuSans-30" transform="translate(233.300781 0.78125)"/>
      <use xlink:href="#DejaVuSans-2e" transform="translate(296.923828 0.78125)"/>
      <use xlink:href="#DejaVuSans-33" transform="translate(328.710938 0.78125)"/>
     </g>
    </g>
   </g>
   <g id="line2d_25">
    <path d="M 61.266269 212.023755 
L 107.707184 211.844282 
L 146.815322 211.519223 
L 167.591521 211.144502 
L 179.812814 210.729502 
L 188.367719 210.229808 
L 194.478366 209.650315 
L 199.366883 208.931213 
L 203.033271 208.132201 
L 205.47753 207.406273 
L 207.921789 206.458083 
L 210.366047 205.203792 
L 212.810306 203.531468 
L 214.032435 202.495623 
L 215.254565 201.299883 
L 216.476694 199.923014 
L 217.698823 198.34367 
L 218.920953 196.54031 
L 220.143082 194.493519 
L 221.365211 192.187048 
L 222.587341 189.607934 
L 225.031599 183.608841 
L 227.475858 176.515865 
L 229.920117 168.47173 
L 233.586504 155.28749 
L 237.252892 142.285365 
L 238.475022 138.400607 
L 239.697151 134.921718 
L 240.91928 131.97009 
L 242.14141 129.673721 
L 243.363539 128.164195 
L 244.585668 127.570373 
L 245.807798 128.013427 
L 247.029927 129.598724 
L 248.252056 132.40339 
L 249.474186 136.465262 
L 250.696315 141.769232 
L 251.918444 148.23103 
L 253.140574 155.686939 
L 255.584832 172.494213 
L 258.029091 189.2511 
L 259.25122 196.494777 
L 260.47335 202.439189 
L 261.695479 206.83334 
L 262.917608 209.64918 
L 264.139738 211.137643 
L 265.361867 211.757318 
L 266.583996 211.958808 
L 270.250384 212.023236 
L 320.357687 211.821226 
L 357.021567 211.497974 
L 376.575636 211.133981 
L 388.796929 210.710966 
L 397.351834 210.198621 
L 403.462481 209.601216 
L 407.128869 209.073596 
L 410.795257 208.335604 
L 413.239516 207.669551 
L 415.683774 206.803593 
L 418.128033 205.662089 
L 420.572292 204.143503 
L 421.794421 203.202654 
L 423.01655 202.115878 
L 424.23868 200.86211 
L 425.460809 199.420158 
L 426.682938 197.76849 
L 427.905068 195.88598 
L 429.127197 193.7543 
L 430.349326 191.358172 
L 431.571456 188.686207 
L 434.015714 182.500527 
L 436.459973 175.235463 
L 438.904232 167.056256 
L 446.237007 140.952614 
L 447.459137 137.190067 
L 448.681266 133.873106 
L 449.903395 131.125374 
L 451.125525 129.076666 
L 452.347654 127.858329 
L 453.569783 127.597201 
L 454.791913 128.410423 
L 456.014042 130.395315 
L 457.236171 133.617101 
L 458.458301 138.097785 
L 459.68043 143.800825 
L 460.902559 150.616292 
L 463.346818 166.729727 
L 465.791077 183.88999 
L 467.013206 191.78778 
L 468.235335 198.636592 
L 469.457465 204.082879 
L 470.679594 207.940723 
L 471.901723 210.272741 
L 473.123853 211.415965 
L 474.345982 211.853219 
L 476.790241 212.019008 
L 492.677922 211.981699 
L 547.673742 211.688954 
L 575.782716 211.3386 
L 591.670397 210.938708 
L 601.447432 210.499926 
L 608.780208 209.9535 
L 613.668725 209.387241 
L 617.335113 208.777464 
L 621.001501 207.910851 
L 623.44576 207.118606 
L 625.890019 206.078803 
L 628.334277 204.699259 
L 630.778536 202.857654 
L 632.000665 201.717587 
L 633.222795 200.403447 
L 634.444924 198.894015 
L 635.667053 197.167651 
L 636.889183 195.203961 
L 638.111312 192.985693 
L 639.333441 190.498617 
L 640.555571 187.733239 
L 642.999829 181.361947 
L 645.444088 173.929405 
L 647.888347 165.623683 
L 655.221122 139.656365 
L 656.443252 136.029012 
L 657.665381 132.887707 
L 658.88751 130.358328 
L 660.10964 128.571923 
L 661.331769 127.658888 
L 662.553898 127.743549 
L 663.776028 128.937847 
L 664.998157 131.329648 
L 666.220286 134.971121 
L 667.442416 139.866678 
L 668.664545 145.956619 
L 669.886674 153.104503 
L 672.330933 169.603675 
L 674.775192 186.612679 
L 675.997321 194.207127 
L 677.21945 200.621154 
L 678.44158 205.547962 
L 679.663709 208.876102 
L 680.885838 210.762859 
L 682.107968 211.616675 
L 683.330097 211.917091 
L 685.774356 212.022245 
L 685.774356 212.022245 
" clip-path="url(#p0263358364)" style="fill: none; stroke: #1f77b4; stroke-width: 1.5; stroke-linecap: square"/>
   </g>
   <g id="patch_9">
    <path d="M 30.040865 216.246682 
L 30.040865 123.347691 
" style="fill: none; stroke: #000000; stroke-width: 0.8; stroke-linejoin: miter; stroke-linecap: square"/>
   </g>
   <g id="patch_10">
    <path d="M 716.99976 216.246682 
L 716.99976 123.347691 
" style="fill: none; stroke: #000000; stroke-width: 0.8; stroke-linejoin: miter; stroke-linecap: square"/>
   </g>
   <g id="patch_11">
    <path d="M 30.040865 216.246682 
L 716.99976 216.246682 
" style="fill: none; stroke: #000000; stroke-width: 0.8; stroke-linejoin: miter; stroke-linecap: square"/>
   </g>
   <g id="patch_12">
    <path d="M 30.040865 123.347691 
L 716.99976 123.347691 
" style="fill: none; stroke: #000000; stroke-width: 0.8; stroke-linejoin: miter; stroke-linecap: square"/>
   </g>
   <g id="legend_2">
    <g id="patch_13">
     <path d="M 658.14726 141.490191 
L 711.39976 141.490191 
Q 712.99976 141.490191 712.99976 139.890191 
L 712.99976 128.947691 
Q 712.99976 127.347691 711.39976 127.347691 
L 658.14726 127.347691 
Q 656.54726 127.347691 656.54726 128.947691 
L 656.54726 139.890191 
Q 656.54726 141.490191 658.14726 141.490191 
z
" style="fill: #ffffff; opacity: 0.8; stroke: #cccccc; stroke-linejoin: miter"/>
    </g>
    <g id="line2d_26">
     <path d="M 659.74726 133.826441 
L 667.74726 133.826441 
L 675.74726 133.826441 
" style="fill: none; stroke: #1f77b4; stroke-width: 1.5; stroke-linecap: square"/>
    </g>
    <g id="text_12">
     <!-- t=10.0 -->
     <g transform="translate(682.14726 136.626441) scale(0.08 -0.08)">
      <use xlink:href="#DejaVuSans-74"/>
      <use xlink:href="#DejaVuSans-3d" x="39.208984"/>
      <use xlink:href="#DejaVuSans-31" x="122.998047"/>
      <use xlink:href="#DejaVuSans-30" x="186.621094"/>
      <use xlink:href="#DejaVuSans-2e" x="250.244141"/>
      <use xlink:href="#DejaVuSans-30" x="282.03125"/>
     </g>
    </g>
   </g>
  </g>
  <g id="axes_3">
   <g id="patch_14">
    <path d="M 30.040865 318.646154 
L 716.99976 318.646154 
L 716.99976 225.747162 
L 30.040865 225.747162 
z
" style="fill: #ffffff"/>
   </g>
   <g id="matplotlib.axis_5">
    <g id="xtick_15">
     <g id="line2d_27">
      <g>
       <use xlink:href="#m3359944afc" x="61.266269" y="318.646154" style="stroke: #000000; stroke-width: 0.8"/>
      </g>
     </g>
    </g>
    <g id="xtick_16">
     <g id="line2d_28">
      <g>
       <use xlink:href="#m3359944afc" x="160.854328" y="318.646154" style="stroke: #000000; stroke-width: 0.8"/>
      </g>
     </g>
    </g>
    <g id="xtick_17">
     <g id="line2d_29">
      <g>
       <use xlink:href="#m3359944afc" x="260.442386" y="318.646154" style="stroke: #000000; stroke-width: 0.8"/>
      </g>
     </g>
    </g>
    <g id="xtick_18">
     <g id="line2d_30">
      <g>
       <use xlink:href="#m3359944afc" x="360.030445" y="318.646154" style="stroke: #000000; stroke-width: 0.8"/>
      </g>
     </g>
    </g>
    <g id="xtick_19">
     <g id="line2d_31">
      <g>
       <use xlink:href="#m3359944afc" x="459.618504" y="318.646154" style="stroke: #000000; stroke-width: 0.8"/>
      </g>
     </g>
    </g>
    <g id="xtick_20">
     <g id="line2d_32">
      <g>
       <use xlink:href="#m3359944afc" x="559.206562" y="318.646154" style="stroke: #000000; stroke-width: 0.8"/>
      </g>
     </g>
    </g>
    <g id="xtick_21">
     <g id="line2d_33">
      <g>
       <use xlink:href="#m3359944afc" x="658.794621" y="318.646154" style="stroke: #000000; stroke-width: 0.8"/>
      </g>
     </g>
    </g>
   </g>
   <g id="matplotlib.axis_6">
    <g id="ytick_9">
     <g id="line2d_34">
      <g>
       <use xlink:href="#mbe117e7df0" x="30.040865" y="315.418117" style="stroke: #000000; stroke-width: 0.8"/>
      </g>
     </g>
     <g id="text_13">
      <!-- 0 -->
      <g transform="translate(16.678365 319.217336) scale(0.1 -0.1)">
       <use xlink:href="#DejaVuSans-30"/>
      </g>
     </g>
    </g>
    <g id="ytick_10">
     <g id="line2d_35">
      <g>
       <use xlink:href="#mbe117e7df0" x="30.040865" y="290.297795" style="stroke: #000000; stroke-width: 0.8"/>
      </g>
     </g>
     <g id="text_14">
      <!-- 2 -->
      <g transform="translate(16.678365 294.097013) scale(0.1 -0.1)">
       <use xlink:href="#DejaVuSans-32"/>
      </g>
     </g>
    </g>
    <g id="ytick_11">
     <g id="line2d_36">
      <g>
       <use xlink:href="#mbe117e7df0" x="30.040865" y="265.177472" style="stroke: #000000; stroke-width: 0.8"/>
      </g>
     </g>
     <g id="text_15">
      <!-- 4 -->
      <g transform="translate(16.678365 268.976691) scale(0.1 -0.1)">
       <use xlink:href="#DejaVuSans-34"/>
      </g>
     </g>
    </g>
    <g id="ytick_12">
     <g id="line2d_37">
      <g>
       <use xlink:href="#mbe117e7df0" x="30.040865" y="240.057149" style="stroke: #000000; stroke-width: 0.8"/>
      </g>
     </g>
     <g id="text_16">
      <!-- 6 -->
      <g transform="translate(16.678365 243.856368) scale(0.1 -0.1)">
       <use xlink:href="#DejaVuSans-36"/>
      </g>
     </g>
    </g>
    <g id="text_17">
     <!-- $u_d=0.5$ -->
     <g transform="translate(10.598678 291.846658) rotate(-90) scale(0.1 -0.1)">
      <defs>
       <path id="DejaVuSans-35" d="M 691 4666 
L 3169 4666 
L 3169 4134 
L 1269 4134 
L 1269 2991 
Q 1406 3038 1543 3061 
Q 1681 3084 1819 3084 
Q 2600 3084 3056 2656 
Q 3513 2228 3513 1497 
Q 3513 744 3044 326 
Q 2575 -91 1722 -91 
Q 1428 -91 1123 -41 
Q 819 9 494 109 
L 494 744 
Q 775 591 1075 516 
Q 1375 441 1709 441 
Q 2250 441 2565 725 
Q 2881 1009 2881 1497 
Q 2881 1984 2565 2268 
Q 2250 2553 1709 2553 
Q 1456 2553 1204 2497 
Q 953 2441 691 2322 
L 691 4666 
z
" transform="scale(0.015625)"/>
      </defs>
      <use xlink:href="#DejaVuSans-Oblique-75" transform="translate(0 0.78125)"/>
      <use xlink:href="#DejaVuSans-Oblique-64" transform="translate(63.378906 -15.625) scale(0.7)"/>
      <use xlink:href="#DejaVuSans-3d" transform="translate(130.029297 0.78125)"/>
      <use xlink:href="#DejaVuSans-30" transform="translate(233.300781 0.78125)"/>
      <use xlink:href="#DejaVuSans-2e" transform="translate(296.923828 0.78125)"/>
      <use xlink:href="#DejaVuSans-35" transform="translate(328.710938 0.78125)"/>
     </g>
    </g>
   </g>
   <g id="line2d_38">
    <path d="M 61.266269 240.532601 
L 62.488399 246.248262 
L 63.710528 253.076766 
L 66.154787 269.212879 
L 68.599045 286.381898 
L 69.821175 294.276006 
L 71.043304 301.114868 
L 72.265433 306.545536 
L 73.487563 310.384412 
L 74.709692 312.697934 
L 75.931821 313.827188 
L 77.153951 314.256793 
L 79.598209 314.418761 
L 96.70802 314.377127 
L 150.48171 314.088956 
L 178.590685 313.739308 
L 194.478366 313.340278 
L 204.255401 312.902501 
L 211.588177 312.357356 
L 216.476694 311.792425 
L 220.143082 311.184059 
L 223.80947 310.319371 
L 226.253729 309.528788 
L 228.697987 308.490994 
L 231.142246 307.113847 
L 233.586504 305.27496 
L 234.808634 304.136324 
L 236.030763 302.823616 
L 237.252892 301.31559 
L 238.475022 299.590526 
L 239.697151 297.627971 
L 240.91928 295.410623 
L 242.14141 292.924161 
L 243.363539 290.159029 
L 245.807798 283.786947 
L 248.252056 276.35165 
L 250.696315 268.041204 
L 258.029091 242.054254 
L 259.25122 238.424558 
L 260.47335 235.281805 
L 261.695479 232.752158 
L 262.917608 230.966991 
L 264.139738 230.056944 
L 265.361867 230.146561 
L 266.583996 231.347971 
L 267.806126 233.749028 
L 269.028255 237.401742 
L 270.250384 242.310188 
L 271.472514 248.413959 
L 272.694643 255.575604 
L 275.138902 272.0968 
L 277.58316 289.110797 
L 278.80529 296.698677 
L 280.027419 303.099573 
L 281.249548 308.007972 
L 282.471678 311.315505 
L 283.693807 313.183814 
L 284.915936 314.025087 
L 286.138066 314.319441 
L 288.582324 314.421871 
L 314.24704 314.344697 
L 365.576472 314.029296 
L 391.241188 313.659199 
L 405.90674 313.234903 
L 414.461645 312.802941 
L 420.572292 312.318161 
L 425.460809 311.734245 
L 429.127197 311.102781 
L 432.793585 310.20166 
L 435.237844 309.3753 
L 437.682102 308.288061 
L 440.126361 306.843277 
L 441.34849 305.948051 
L 442.57062 304.913654 
L 443.792749 303.719385 
L 445.014878 302.343988 
L 446.237007 300.766071 
L 447.459137 298.964012 
L 448.681266 296.918348 
L 449.903395 294.612765 
L 451.125525 292.034208 
L 453.569783 286.035047 
L 456.014042 278.940089 
L 458.458301 270.891963 
L 462.124689 257.698565 
L 465.791077 244.686075 
L 467.013206 240.798432 
L 468.235335 237.317365 
L 469.457465 234.364514 
L 470.679594 232.068185 
L 471.901723 230.560266 
L 473.123853 229.969844 
L 474.345982 230.418318 
L 475.568111 232.011191 
L 476.790241 234.825523 
L 478.01237 238.898962 
L 479.234499 244.215968 
L 480.456629 250.691458 
L 481.678758 258.160655 
L 484.123017 274.987708 
L 486.567275 291.746059 
L 487.789405 298.981197 
L 489.011534 304.910808 
L 490.233663 309.285745 
L 491.455793 312.081517 
L 492.677922 313.553442 
L 493.900051 314.163001 
L 495.122181 314.360157 
L 498.788569 314.422676 
L 548.895871 314.220988 
L 585.559751 313.898364 
L 605.11382 313.535144 
L 617.335113 313.113099 
L 625.890019 312.601974 
L 632.000665 312.006021 
L 635.667053 311.479678 
L 639.333441 310.743432 
L 641.7777 310.078891 
L 644.221959 309.214809 
L 646.666217 308.075577 
L 649.110476 306.559677 
L 650.332605 305.620317 
L 651.554735 304.535096 
L 652.776864 303.282908 
L 653.998993 301.842542 
L 655.221122 300.192401 
L 656.443252 298.311285 
L 657.665381 296.18082 
L 658.88751 293.785644 
L 660.10964 291.114284 
L 662.553898 284.928589 
L 664.998157 277.661528 
L 667.442416 269.478248 
L 674.775192 243.354757 
L 675.997321 239.589304 
L 677.21945 236.27015 
L 678.44158 233.521195 
L 679.663709 231.472555 
L 680.885838 230.255852 
L 682.107968 229.998148 
L 683.330097 230.816809 
L 684.552226 232.809239 
L 685.774356 236.040573 
L 685.774356 236.040573 
" clip-path="url(#pc2a2447492)" style="fill: none; stroke: #1f77b4; stroke-width: 1.5; stroke-linecap: square"/>
   </g>
   <g id="patch_15">
    <path d="M 30.040865 318.646154 
L 30.040865 225.747162 
" style="fill: none; stroke: #000000; stroke-width: 0.8; stroke-linejoin: miter; stroke-linecap: square"/>
   </g>
   <g id="patch_16">
    <path d="M 716.99976 318.646154 
L 716.99976 225.747162 
" style="fill: none; stroke: #000000; stroke-width: 0.8; stroke-linejoin: miter; stroke-linecap: square"/>
   </g>
   <g id="patch_17">
    <path d="M 30.040865 318.646154 
L 716.99976 318.646154 
" style="fill: none; stroke: #000000; stroke-width: 0.8; stroke-linejoin: miter; stroke-linecap: square"/>
   </g>
   <g id="patch_18">
    <path d="M 30.040865 225.747162 
L 716.99976 225.747162 
" style="fill: none; stroke: #000000; stroke-width: 0.8; stroke-linejoin: miter; stroke-linecap: square"/>
   </g>
   <g id="legend_3">
    <g id="patch_19">
     <path d="M 658.14726 243.889662 
L 711.39976 243.889662 
Q 712.99976 243.889662 712.99976 242.289662 
L 712.99976 231.347162 
Q 712.99976 229.747162 711.39976 229.747162 
L 658.14726 229.747162 
Q 656.54726 229.747162 656.54726 231.347162 
L 656.54726 242.289662 
Q 656.54726 243.889662 658.14726 243.889662 
z
" style="fill: #ffffff; opacity: 0.8; stroke: #cccccc; stroke-linejoin: miter"/>
    </g>
    <g id="line2d_39">
     <path d="M 659.74726 236.225912 
L 667.74726 236.225912 
L 675.74726 236.225912 
" style="fill: none; stroke: #1f77b4; stroke-width: 1.5; stroke-linecap: square"/>
    </g>
    <g id="text_18">
     <!-- t=10.0 -->
     <g transform="translate(682.14726 239.025912) scale(0.08 -0.08)">
      <use xlink:href="#DejaVuSans-74"/>
      <use xlink:href="#DejaVuSans-3d" x="39.208984"/>
      <use xlink:href="#DejaVuSans-31" x="122.998047"/>
      <use xlink:href="#DejaVuSans-30" x="186.621094"/>
      <use xlink:href="#DejaVuSans-2e" x="250.244141"/>
      <use xlink:href="#DejaVuSans-30" x="282.03125"/>
     </g>
    </g>
   </g>
  </g>
  <g id="axes_4">
   <g id="patch_20">
    <path d="M 30.040865 421.045625 
L 716.99976 421.045625 
L 716.99976 328.146634 
L 30.040865 328.146634 
z
" style="fill: #ffffff"/>
   </g>
   <g id="matplotlib.axis_7">
    <g id="xtick_22">
     <g id="line2d_40">
      <g>
       <use xlink:href="#m3359944afc" x="61.266269" y="421.045625" style="stroke: #000000; stroke-width: 0.8"/>
      </g>
     </g>
    </g>
    <g id="xtick_23">
     <g id="line2d_41">
      <g>
       <use xlink:href="#m3359944afc" x="160.854328" y="421.045625" style="stroke: #000000; stroke-width: 0.8"/>
      </g>
     </g>
    </g>
    <g id="xtick_24">
     <g id="line2d_42">
      <g>
       <use xlink:href="#m3359944afc" x="260.442386" y="421.045625" style="stroke: #000000; stroke-width: 0.8"/>
      </g>
     </g>
    </g>
    <g id="xtick_25">
     <g id="line2d_43">
      <g>
       <use xlink:href="#m3359944afc" x="360.030445" y="421.045625" style="stroke: #000000; stroke-width: 0.8"/>
      </g>
     </g>
    </g>
    <g id="xtick_26">
     <g id="line2d_44">
      <g>
       <use xlink:href="#m3359944afc" x="459.618504" y="421.045625" style="stroke: #000000; stroke-width: 0.8"/>
      </g>
     </g>
    </g>
    <g id="xtick_27">
     <g id="line2d_45">
      <g>
       <use xlink:href="#m3359944afc" x="559.206562" y="421.045625" style="stroke: #000000; stroke-width: 0.8"/>
      </g>
     </g>
    </g>
    <g id="xtick_28">
     <g id="line2d_46">
      <g>
       <use xlink:href="#m3359944afc" x="658.794621" y="421.045625" style="stroke: #000000; stroke-width: 0.8"/>
      </g>
     </g>
    </g>
   </g>
   <g id="matplotlib.axis_8">
    <g id="ytick_13">
     <g id="line2d_47">
      <g>
       <use xlink:href="#mbe117e7df0" x="30.040865" y="417.815948" style="stroke: #000000; stroke-width: 0.8"/>
      </g>
     </g>
     <g id="text_19">
      <!-- 0 -->
      <g transform="translate(16.678365 421.615167) scale(0.1 -0.1)">
       <use xlink:href="#DejaVuSans-30"/>
      </g>
     </g>
    </g>
    <g id="ytick_14">
     <g id="line2d_48">
      <g>
       <use xlink:href="#mbe117e7df0" x="30.040865" y="392.715283" style="stroke: #000000; stroke-width: 0.8"/>
      </g>
     </g>
     <g id="text_20">
      <!-- 2 -->
      <g transform="translate(16.678365 396.514502) scale(0.1 -0.1)">
       <use xlink:href="#DejaVuSans-32"/>
      </g>
     </g>
    </g>
    <g id="ytick_15">
     <g id="line2d_49">
      <g>
       <use xlink:href="#mbe117e7df0" x="30.040865" y="367.614618" style="stroke: #000000; stroke-width: 0.8"/>
      </g>
     </g>
     <g id="text_21">
      <!-- 4 -->
      <g transform="translate(16.678365 371.413837) scale(0.1 -0.1)">
       <use xlink:href="#DejaVuSans-34"/>
      </g>
     </g>
    </g>
    <g id="ytick_16">
     <g id="line2d_50">
      <g>
       <use xlink:href="#mbe117e7df0" x="30.040865" y="342.513953" style="stroke: #000000; stroke-width: 0.8"/>
      </g>
     </g>
     <g id="text_22">
      <!-- 6 -->
      <g transform="translate(16.678365 346.313171) scale(0.1 -0.1)">
       <use xlink:href="#DejaVuSans-36"/>
      </g>
     </g>
    </g>
    <g id="text_23">
     <!-- $u_d=0.7$ -->
     <g transform="translate(10.598678 393.846129) rotate(-90) scale(0.1 -0.1)">
      <defs>
       <path id="DejaVuSans-37" d="M 525 4666 
L 3525 4666 
L 3525 4397 
L 1831 0 
L 1172 0 
L 2766 4134 
L 525 4134 
L 525 4666 
z
" transform="scale(0.015625)"/>
      </defs>
      <use xlink:href="#DejaVuSans-Oblique-75" transform="translate(0 0.78125)"/>
      <use xlink:href="#DejaVuSans-Oblique-64" transform="translate(63.378906 -15.625) scale(0.7)"/>
      <use xlink:href="#DejaVuSans-3d" transform="translate(130.029297 0.78125)"/>
      <use xlink:href="#DejaVuSans-30" transform="translate(233.300781 0.78125)"/>
      <use xlink:href="#DejaVuSans-2e" transform="translate(296.923828 0.78125)"/>
      <use xlink:href="#DejaVuSans-37" transform="translate(320.960938 0.78125)"/>
     </g>
    </g>
   </g>
   <g id="line2d_51">
    <path d="M 61.266269 362.844322 
L 64.932657 349.61123 
L 67.376916 341.784676 
L 68.599045 338.493501 
L 69.821175 335.780787 
L 71.043304 333.777176 
L 72.265433 332.614396 
L 73.487563 332.419315 
L 74.709692 333.30865 
L 75.931821 335.378303 
L 77.153951 338.69114 
L 78.37608 343.26579 
L 79.598209 349.060783 
L 80.820339 355.960017 
L 83.264597 372.187498 
L 85.708856 389.343192 
L 86.930985 397.183646 
L 88.153115 403.939873 
L 89.375244 409.267005 
L 90.597373 412.995734 
L 91.819503 415.212467 
L 93.041632 416.275676 
L 94.263761 416.672416 
L 96.70802 416.819165 
L 115.03996 416.772302 
L 170.035779 416.467048 
L 196.922625 416.11567 
L 212.810306 415.695666 
L 222.587341 415.226783 
L 228.697987 414.754084 
L 233.586504 414.187144 
L 237.252892 413.576165 
L 240.91928 412.707102 
L 243.363539 411.912028 
L 245.807798 410.867772 
L 248.252056 409.481474 
L 250.696315 407.629854 
L 251.918444 406.483188 
L 253.140574 405.161259 
L 254.362703 403.642767 
L 255.584832 401.905931 
L 256.806962 399.930406 
L 258.029091 397.69901 
L 259.25122 395.197547 
L 260.47335 392.416766 
L 262.917608 386.012698 
L 265.361867 378.547221 
L 267.806126 370.212312 
L 275.138902 344.238141 
L 276.361031 340.630955 
L 277.58316 337.518454 
L 278.80529 335.027432 
L 280.027419 333.289661 
L 281.249548 332.435768 
L 282.471678 332.590008 
L 283.693807 333.863613 
L 284.915936 336.342678 
L 286.138066 340.076728 
L 287.360195 345.066311 
L 288.582324 351.246303 
L 289.804454 358.47379 
L 292.248712 375.070947 
L 294.692971 392.051623 
L 295.9151 399.576373 
L 297.13723 405.887511 
L 298.359359 410.689439 
L 299.581488 413.890104 
L 300.803618 415.671435 
L 302.025747 416.458957 
L 303.247876 416.729438 
L 305.692135 416.821793 
L 333.801109 416.734404 
L 382.686282 416.428653 
L 408.350998 416.058436 
L 423.01655 415.633671 
L 431.571456 415.200861 
L 437.682102 414.714754 
L 442.57062 414.128724 
L 446.237007 413.494493 
L 449.903395 412.588728 
L 452.347654 411.757594 
L 454.791913 410.66351 
L 457.236171 409.209018 
L 458.458301 408.307609 
L 459.68043 407.265963 
L 460.902559 406.06326 
L 462.124689 404.678233 
L 463.346818 403.089407 
L 464.568947 401.275152 
L 465.791077 399.216142 
L 467.013206 396.896163 
L 468.235335 394.302339 
L 470.679594 388.271342 
L 473.123853 381.145163 
L 475.568111 373.070164 
L 479.234499 359.854742 
L 482.900887 346.858847 
L 484.123017 342.988903 
L 485.345146 339.532876 
L 486.567275 336.61302 
L 487.789405 334.358241 
L 489.011534 332.900679 
L 490.233663 332.369315 
L 491.455793 332.885113 
L 492.677922 334.552384 
L 493.900051 337.446183 
L 495.122181 341.601382 
L 496.34431 346.998488 
L 497.566439 353.547405 
L 498.788569 361.077676 
L 504.899215 401.831753 
L 506.121345 407.664596 
L 507.343474 411.93075 
L 508.565603 414.624035 
L 509.787733 416.019289 
L 511.009862 416.586218 
L 512.231991 416.76645 
L 515.898379 416.822027 
L 567.227811 416.613038 
L 602.669561 416.297695 
L 622.223631 415.934261 
L 634.444924 415.511639 
L 642.999829 414.999328 
L 649.110476 414.401458 
L 652.776864 413.872979 
L 656.443252 413.133199 
L 658.88751 412.465015 
L 661.331769 411.595773 
L 663.776028 410.449181 
L 666.220286 408.92285 
L 667.442416 407.976877 
L 668.664545 406.883906 
L 669.886674 405.622762 
L 671.108804 404.172209 
L 672.330933 402.510563 
L 673.553062 400.61668 
L 674.775192 398.472325 
L 675.997321 396.062237 
L 677.21945 393.375194 
L 679.663709 387.157138 
L 682.107968 379.858946 
L 684.552226 371.649633 
L 685.774356 367.29549 
L 685.774356 367.29549 
" clip-path="url(#pef9f49f783)" style="fill: none; stroke: #1f77b4; stroke-width: 1.5; stroke-linecap: square"/>
   </g>
   <g id="patch_21">
    <path d="M 30.040865 421.045625 
L 30.040865 328.146634 
" style="fill: none; stroke: #000000; stroke-width: 0.8; stroke-linejoin: miter; stroke-linecap: square"/>
   </g>
   <g id="patch_22">
    <path d="M 716.99976 421.045625 
L 716.99976 328.146634 
" style="fill: none; stroke: #000000; stroke-width: 0.8; stroke-linejoin: miter; stroke-linecap: square"/>
   </g>
   <g id="patch_23">
    <path d="M 30.040865 421.045625 
L 716.99976 421.045625 
" style="fill: none; stroke: #000000; stroke-width: 0.8; stroke-linejoin: miter; stroke-linecap: square"/>
   </g>
   <g id="patch_24">
    <path d="M 30.040865 328.146634 
L 716.99976 328.146634 
" style="fill: none; stroke: #000000; stroke-width: 0.8; stroke-linejoin: miter; stroke-linecap: square"/>
   </g>
   <g id="legend_4">
    <g id="patch_25">
     <path d="M 658.14726 346.289134 
L 711.39976 346.289134 
Q 712.99976 346.289134 712.99976 344.689134 
L 712.99976 333.746634 
Q 712.99976 332.146634 711.39976 332.146634 
L 658.14726 332.146634 
Q 656.54726 332.146634 656.54726 333.746634 
L 656.54726 344.689134 
Q 656.54726 346.289134 658.14726 346.289134 
z
" style="fill: #ffffff; opacity: 0.8; stroke: #cccccc; stroke-linejoin: miter"/>
    </g>
    <g id="line2d_52">
     <path d="M 659.74726 338.625384 
L 667.74726 338.625384 
L 675.74726 338.625384 
" style="fill: none; stroke: #1f77b4; stroke-width: 1.5; stroke-linecap: square"/>
    </g>
    <g id="text_24">
     <!-- t=10.0 -->
     <g transform="translate(682.14726 341.425384) scale(0.08 -0.08)">
      <use xlink:href="#DejaVuSans-74"/>
      <use xlink:href="#DejaVuSans-3d" x="39.208984"/>
      <use xlink:href="#DejaVuSans-31" x="122.998047"/>
      <use xlink:href="#DejaVuSans-30" x="186.621094"/>
      <use xlink:href="#DejaVuSans-2e" x="250.244141"/>
      <use xlink:href="#DejaVuSans-30" x="282.03125"/>
     </g>
    </g>
   </g>
  </g>
  <g id="axes_5">
   <g id="patch_26">
    <path d="M 30.040865 523.445096 
L 716.99976 523.445096 
L 716.99976 430.546105 
L 30.040865 430.546105 
z
" style="fill: #ffffff"/>
   </g>
   <g id="matplotlib.axis_9">
    <g id="xtick_29">
     <g id="line2d_53">
      <g>
       <use xlink:href="#m3359944afc" x="61.266269" y="523.445096" style="stroke: #000000; stroke-width: 0.8"/>
      </g>
     </g>
    </g>
    <g id="xtick_30">
     <g id="line2d_54">
      <g>
       <use xlink:href="#m3359944afc" x="160.854328" y="523.445096" style="stroke: #000000; stroke-width: 0.8"/>
      </g>
     </g>
    </g>
    <g id="xtick_31">
     <g id="line2d_55">
      <g>
       <use xlink:href="#m3359944afc" x="260.442386" y="523.445096" style="stroke: #000000; stroke-width: 0.8"/>
      </g>
     </g>
    </g>
    <g id="xtick_32">
     <g id="line2d_56">
      <g>
       <use xlink:href="#m3359944afc" x="360.030445" y="523.445096" style="stroke: #000000; stroke-width: 0.8"/>
      </g>
     </g>
    </g>
    <g id="xtick_33">
     <g id="line2d_57">
      <g>
       <use xlink:href="#m3359944afc" x="459.618504" y="523.445096" style="stroke: #000000; stroke-width: 0.8"/>
      </g>
     </g>
    </g>
    <g id="xtick_34">
     <g id="line2d_58">
      <g>
       <use xlink:href="#m3359944afc" x="559.206562" y="523.445096" style="stroke: #000000; stroke-width: 0.8"/>
      </g>
     </g>
    </g>
    <g id="xtick_35">
     <g id="line2d_59">
      <g>
       <use xlink:href="#m3359944afc" x="658.794621" y="523.445096" style="stroke: #000000; stroke-width: 0.8"/>
      </g>
     </g>
    </g>
   </g>
   <g id="matplotlib.axis_10">
    <g id="ytick_17">
     <g id="line2d_60">
      <g>
       <use xlink:href="#mbe117e7df0" x="30.040865" y="520.213593" style="stroke: #000000; stroke-width: 0.8"/>
      </g>
     </g>
     <g id="text_25">
      <!-- 0 -->
      <g transform="translate(16.678365 524.012811) scale(0.1 -0.1)">
       <use xlink:href="#DejaVuSans-30"/>
      </g>
     </g>
    </g>
    <g id="ytick_18">
     <g id="line2d_61">
      <g>
       <use xlink:href="#mbe117e7df0" x="30.040865" y="495.133597" style="stroke: #000000; stroke-width: 0.8"/>
      </g>
     </g>
     <g id="text_26">
      <!-- 2 -->
      <g transform="translate(16.678365 498.932816) scale(0.1 -0.1)">
       <use xlink:href="#DejaVuSans-32"/>
      </g>
     </g>
    </g>
    <g id="ytick_19">
     <g id="line2d_62">
      <g>
       <use xlink:href="#mbe117e7df0" x="30.040865" y="470.053601" style="stroke: #000000; stroke-width: 0.8"/>
      </g>
     </g>
     <g id="text_27">
      <!-- 4 -->
      <g transform="translate(16.678365 473.85282) scale(0.1 -0.1)">
       <use xlink:href="#DejaVuSans-34"/>
      </g>
     </g>
    </g>
    <g id="ytick_20">
     <g id="line2d_63">
      <g>
       <use xlink:href="#mbe117e7df0" x="30.040865" y="444.973605" style="stroke: #000000; stroke-width: 0.8"/>
      </g>
     </g>
     <g id="text_28">
      <!-- 6 -->
      <g transform="translate(16.678365 448.772824) scale(0.1 -0.1)">
       <use xlink:href="#DejaVuSans-36"/>
      </g>
     </g>
    </g>
    <g id="text_29">
     <!-- $u_d=0.9$ -->
     <g transform="translate(10.598678 496.645601) rotate(-90) scale(0.1 -0.1)">
      <defs>
       <path id="DejaVuSans-39" d="M 703 97 
L 703 672 
Q 941 559 1184 500 
Q 1428 441 1663 441 
Q 2288 441 2617 861 
Q 2947 1281 2994 2138 
Q 2813 1869 2534 1725 
Q 2256 1581 1919 1581 
Q 1219 1581 811 2004 
Q 403 2428 403 3163 
Q 403 3881 828 4315 
Q 1253 4750 1959 4750 
Q 2769 4750 3195 4129 
Q 3622 3509 3622 2328 
Q 3622 1225 3098 567 
Q 2575 -91 1691 -91 
Q 1453 -91 1209 -44 
Q 966 3 703 97 
z
M 1959 2075 
Q 2384 2075 2632 2365 
Q 2881 2656 2881 3163 
Q 2881 3666 2632 3958 
Q 2384 4250 1959 4250 
Q 1534 4250 1286 3958 
Q 1038 3666 1038 3163 
Q 1038 2656 1286 2365 
Q 1534 2075 1959 2075 
z
" transform="scale(0.015625)"/>
      </defs>
      <use xlink:href="#DejaVuSans-Oblique-75" transform="translate(0 0.78125)"/>
      <use xlink:href="#DejaVuSans-Oblique-64" transform="translate(63.378906 -15.625) scale(0.7)"/>
      <use xlink:href="#DejaVuSans-3d" transform="translate(130.029297 0.78125)"/>
      <use xlink:href="#DejaVuSans-30" transform="translate(233.300781 0.78125)"/>
      <use xlink:href="#DejaVuSans-2e" transform="translate(296.923828 0.78125)"/>
      <use xlink:href="#DejaVuSans-39" transform="translate(328.710938 0.78125)"/>
     </g>
    </g>
   </g>
   <g id="line2d_64">
    <path d="M 61.266269 509.208908 
L 62.488399 507.935038 
L 63.710528 506.470042 
L 64.932657 504.792139 
L 66.154787 502.880311 
L 67.376916 500.716491 
L 68.599045 498.285581 
L 69.821175 495.576756 
L 72.265433 489.314006 
L 74.709692 481.973289 
L 77.153951 473.728942 
L 84.486727 447.618666 
L 85.708856 443.902363 
L 86.930985 440.650357 
L 88.153115 437.988043 
L 89.375244 436.046654 
L 90.597373 434.957978 
L 91.819503 434.848604 
L 93.041632 435.834208 
L 94.263761 438.008527 
L 95.48589 441.431318 
L 96.70802 446.116717 
L 97.930149 452.017183 
L 99.152278 459.009568 
L 101.596537 475.354164 
L 104.040796 492.485424 
L 105.262925 500.250211 
L 106.485054 506.89282 
L 107.707184 512.080379 
L 108.929313 515.663214 
L 110.151442 517.75452 
L 111.373572 518.73461 
L 112.595701 519.091221 
L 115.03996 519.219618 
L 137.038288 519.158394 
L 190.811978 518.843513 
L 216.476694 518.490614 
L 231.142246 518.093726 
L 240.91928 517.623351 
L 247.029927 517.148627 
L 251.918444 516.578564 
L 255.584832 515.963589 
L 259.25122 515.087935 
L 261.695479 514.286165 
L 264.139738 513.232374 
L 266.583996 511.832648 
L 269.028255 509.962506 
L 270.250384 508.804226 
L 271.472514 507.469028 
L 272.694643 505.935506 
L 273.916772 504.181845 
L 275.138902 502.187876 
L 276.361031 499.936555 
L 277.58316 497.413917 
L 278.80529 494.611162 
L 281.249548 488.162456 
L 283.693807 480.655355 
L 286.138066 472.287312 
L 292.248712 450.295403 
L 293.470842 446.33583 
L 294.692971 442.760777 
L 295.9151 439.69105 
L 297.13723 437.254278 
L 298.359359 435.582636 
L 299.581488 434.806693 
L 300.803618 435.050249 
L 302.025747 436.423117 
L 303.247876 439.008911 
L 304.470005 442.853663 
L 305.692135 447.952871 
L 306.914264 454.234962 
L 308.136393 461.549692 
L 310.580652 478.244008 
L 313.024911 495.172664 
L 314.24704 502.608269 
L 315.469169 508.795574 
L 316.691299 513.453336 
L 317.913428 516.511936 
L 319.135557 518.18043 
L 320.357687 518.900347 
L 321.579816 519.141597 
L 324.024075 519.221701 
L 355.799437 519.118516 
L 402.240352 518.815403 
L 426.682938 518.457192 
L 441.34849 518.031549 
L 449.903395 517.597325 
L 456.014042 517.109079 
L 460.902559 516.51977 
L 464.568947 515.88131 
L 468.235335 514.968552 
L 470.679594 514.130296 
L 473.123853 513.02611 
L 475.568111 511.557386 
L 476.790241 510.646971 
L 478.01237 509.594787 
L 479.234499 508.379899 
L 480.456629 506.981008 
L 481.678758 505.376517 
L 482.900887 503.544845 
L 484.123017 501.466852 
L 485.345146 499.126458 
L 486.567275 496.511104 
L 489.011534 490.435491 
L 491.455793 483.266038 
L 493.900051 475.15431 
L 497.566439 461.910204 
L 501.232827 448.940098 
L 502.454957 445.095698 
L 503.677086 441.675314 
L 504.899215 438.802053 
L 506.121345 436.605562 
L 507.343474 435.218199 
L 508.565603 434.768786 
L 509.787733 435.377575 
L 511.009862 437.14707 
L 512.231991 440.149539 
L 513.454121 444.415891 
L 514.67625 449.921033 
L 515.898379 456.568098 
L 518.342638 472.487787 
L 522.009026 497.766185 
L 523.231155 504.826521 
L 524.453284 510.526603 
L 525.675414 514.646166 
L 526.897543 517.204057 
L 528.119672 518.500722 
L 529.341802 519.014531 
L 530.563931 519.174109 
L 534.230319 519.221299 
L 586.78188 519.004921 
L 622.223631 518.680055 
L 641.7777 518.300334 
L 653.998993 517.850768 
L 661.331769 517.394973 
L 667.442416 516.794145 
L 671.108804 516.262436 
L 674.775192 515.517389 
L 677.21945 514.843841 
L 679.663709 513.967037 
L 682.107968 512.809768 
L 684.552226 511.268414 
L 685.774356 510.312956 
L 685.774356 510.312956 
" clip-path="url(#p972f3b5c32)" style="fill: none; stroke: #1f77b4; stroke-width: 1.5; stroke-linecap: square"/>
   </g>
   <g id="patch_27">
    <path d="M 30.040865 523.445096 
L 30.040865 430.546105 
" style="fill: none; stroke: #000000; stroke-width: 0.8; stroke-linejoin: miter; stroke-linecap: square"/>
   </g>
   <g id="patch_28">
    <path d="M 716.99976 523.445096 
L 716.99976 430.546105 
" style="fill: none; stroke: #000000; stroke-width: 0.8; stroke-linejoin: miter; stroke-linecap: square"/>
   </g>
   <g id="patch_29">
    <path d="M 30.040865 523.445096 
L 716.99976 523.445096 
" style="fill: none; stroke: #000000; stroke-width: 0.8; stroke-linejoin: miter; stroke-linecap: square"/>
   </g>
   <g id="patch_30">
    <path d="M 30.040865 430.546105 
L 716.99976 430.546105 
" style="fill: none; stroke: #000000; stroke-width: 0.8; stroke-linejoin: miter; stroke-linecap: square"/>
   </g>
   <g id="legend_5">
    <g id="patch_31">
     <path d="M 658.14726 448.688605 
L 711.39976 448.688605 
Q 712.99976 448.688605 712.99976 447.088605 
L 712.99976 436.146105 
Q 712.99976 434.546105 711.39976 434.546105 
L 658.14726 434.546105 
Q 656.54726 434.546105 656.54726 436.146105 
L 656.54726 447.088605 
Q 656.54726 448.688605 658.14726 448.688605 
z
" style="fill: #ffffff; opacity: 0.8; stroke: #cccccc; stroke-linejoin: miter"/>
    </g>
    <g id="line2d_65">
     <path d="M 659.74726 441.024855 
L 667.74726 441.024855 
L 675.74726 441.024855 
" style="fill: none; stroke: #1f77b4; stroke-width: 1.5; stroke-linecap: square"/>
    </g>
    <g id="text_30">
     <!-- t=10.0 -->
     <g transform="translate(682.14726 443.824855) scale(0.08 -0.08)">
      <use xlink:href="#DejaVuSans-74"/>
      <use xlink:href="#DejaVuSans-3d" x="39.208984"/>
      <use xlink:href="#DejaVuSans-31" x="122.998047"/>
      <use xlink:href="#DejaVuSans-30" x="186.621094"/>
      <use xlink:href="#DejaVuSans-2e" x="250.244141"/>
      <use xlink:href="#DejaVuSans-30" x="282.03125"/>
     </g>
    </g>
   </g>
  </g>
  <g id="axes_6">
   <g id="patch_32">
    <path d="M 30.040865 625.844567 
L 716.99976 625.844567 
L 716.99976 532.945576 
L 30.040865 532.945576 
z
" style="fill: #ffffff"/>
   </g>
   <g id="matplotlib.axis_11">
    <g id="xtick_36">
     <g id="line2d_66">
      <g>
       <use xlink:href="#m3359944afc" x="61.266269" y="625.844567" style="stroke: #000000; stroke-width: 0.8"/>
      </g>
     </g>
    </g>
    <g id="xtick_37">
     <g id="line2d_67">
      <g>
       <use xlink:href="#m3359944afc" x="160.854328" y="625.844567" style="stroke: #000000; stroke-width: 0.8"/>
      </g>
     </g>
    </g>
    <g id="xtick_38">
     <g id="line2d_68">
      <g>
       <use xlink:href="#m3359944afc" x="260.442386" y="625.844567" style="stroke: #000000; stroke-width: 0.8"/>
      </g>
     </g>
    </g>
    <g id="xtick_39">
     <g id="line2d_69">
      <g>
       <use xlink:href="#m3359944afc" x="360.030445" y="625.844567" style="stroke: #000000; stroke-width: 0.8"/>
      </g>
     </g>
    </g>
    <g id="xtick_40">
     <g id="line2d_70">
      <g>
       <use xlink:href="#m3359944afc" x="459.618504" y="625.844567" style="stroke: #000000; stroke-width: 0.8"/>
      </g>
     </g>
    </g>
    <g id="xtick_41">
     <g id="line2d_71">
      <g>
       <use xlink:href="#m3359944afc" x="559.206562" y="625.844567" style="stroke: #000000; stroke-width: 0.8"/>
      </g>
     </g>
    </g>
    <g id="xtick_42">
     <g id="line2d_72">
      <g>
       <use xlink:href="#m3359944afc" x="658.794621" y="625.844567" style="stroke: #000000; stroke-width: 0.8"/>
      </g>
     </g>
    </g>
   </g>
   <g id="matplotlib.axis_12">
    <g id="ytick_21">
     <g id="line2d_73">
      <g>
       <use xlink:href="#mbe117e7df0" x="30.040865" y="622.611307" style="stroke: #000000; stroke-width: 0.8"/>
      </g>
     </g>
     <g id="text_31">
      <!-- 0 -->
      <g transform="translate(16.678365 626.410526) scale(0.1 -0.1)">
       <use xlink:href="#DejaVuSans-30"/>
      </g>
     </g>
    </g>
    <g id="ytick_22">
     <g id="line2d_74">
      <g>
       <use xlink:href="#mbe117e7df0" x="30.040865" y="597.551449" style="stroke: #000000; stroke-width: 0.8"/>
      </g>
     </g>
     <g id="text_32">
      <!-- 2 -->
      <g transform="translate(16.678365 601.350668) scale(0.1 -0.1)">
       <use xlink:href="#DejaVuSans-32"/>
      </g>
     </g>
    </g>
    <g id="ytick_23">
     <g id="line2d_75">
      <g>
       <use xlink:href="#mbe117e7df0" x="30.040865" y="572.49159" style="stroke: #000000; stroke-width: 0.8"/>
      </g>
     </g>
     <g id="text_33">
      <!-- 4 -->
      <g transform="translate(16.678365 576.290809) scale(0.1 -0.1)">
       <use xlink:href="#DejaVuSans-34"/>
      </g>
     </g>
    </g>
    <g id="ytick_24">
     <g id="line2d_76">
      <g>
       <use xlink:href="#mbe117e7df0" x="30.040865" y="547.431732" style="stroke: #000000; stroke-width: 0.8"/>
      </g>
     </g>
     <g id="text_34">
      <!-- 6 -->
      <g transform="translate(16.678365 551.230951) scale(0.1 -0.1)">
       <use xlink:href="#DejaVuSans-36"/>
      </g>
     </g>
    </g>
    <g id="text_35">
     <!-- $u_d=1.1$ -->
     <g transform="translate(10.598678 599.045072) rotate(-90) scale(0.1 -0.1)">
      <use xlink:href="#DejaVuSans-Oblique-75" transform="translate(0 0.09375)"/>
      <use xlink:href="#DejaVuSans-Oblique-64" transform="translate(63.378906 -16.3125) scale(0.7)"/>
      <use xlink:href="#DejaVuSans-3d" transform="translate(130.029297 0.09375)"/>
      <use xlink:href="#DejaVuSans-31" transform="translate(233.300781 0.09375)"/>
      <use xlink:href="#DejaVuSans-2e" transform="translate(296.923828 0.09375)"/>
      <use xlink:href="#DejaVuSans-31" transform="translate(328.710938 0.09375)"/>
     </g>
    </g>
   </g>
   <g id="line2d_77">
    <path d="M 61.266269 619.062346 
L 64.932657 618.479721 
L 68.599045 617.654736 
L 71.043304 616.902504 
L 73.487563 615.916985 
L 75.931821 614.610425 
L 78.37608 612.865406 
L 79.598209 611.783907 
L 80.820339 610.535451 
L 82.042468 609.098762 
L 83.264597 607.452026 
L 84.486727 605.573885 
L 85.708856 603.445843 
L 86.930985 601.052277 
L 88.153115 598.381545 
L 90.597373 592.193669 
L 93.041632 584.919097 
L 95.48589 576.722908 
L 102.818666 550.545136 
L 104.040796 546.773062 
L 105.262925 543.449717 
L 106.485054 540.699807 
L 107.707184 538.654371 
L 108.929313 537.445733 
L 110.151442 537.201629 
L 111.373572 538.040002 
L 112.595701 540.058299 
L 113.81783 543.321312 
L 115.03996 547.849992 
L 116.262089 553.605462 
L 117.484218 560.474416 
L 119.928477 576.679482 
L 122.372736 593.872161 
L 123.594865 601.751262 
L 124.816994 608.555917 
L 126.039124 613.936806 
L 127.261253 617.716926 
L 128.483382 619.97345 
L 129.705512 621.060215 
L 130.927641 621.467196 
L 133.3719 621.617946 
L 151.70384 621.571486 
L 207.921789 621.256489 
L 233.586504 620.91831 
L 249.474186 620.50124 
L 259.25122 620.036182 
L 265.361867 619.567808 
L 270.250384 619.006511 
L 273.916772 618.402012 
L 277.58316 617.5426 
L 280.027419 616.756579 
L 282.471678 615.724272 
L 284.915936 614.353647 
L 287.360195 612.522167 
L 288.582324 611.387395 
L 289.804454 610.07857 
L 291.026583 608.57433 
L 292.248712 606.852728 
L 293.470842 604.893193 
L 294.692971 602.678247 
L 295.9151 600.19331 
L 297.13723 597.428699 
L 299.581488 591.054048 
L 302.025747 583.610762 
L 304.470005 575.28689 
L 311.802781 549.245452 
L 313.024911 545.609516 
L 314.24704 542.463089 
L 315.469169 539.933211 
L 316.691299 538.152118 
L 317.913428 537.25111 
L 319.135557 537.35543 
L 320.357687 538.577644 
L 321.579816 541.005512 
L 322.801945 544.690628 
L 324.024075 549.635973 
L 325.246204 555.779099 
L 326.468333 562.979922 
L 328.912592 579.564112 
L 331.356851 596.591432 
L 332.57898 604.158554 
L 333.801109 610.520651 
L 335.023239 615.376723 
L 336.245368 618.625998 
L 337.467497 620.441954 
L 338.689627 621.248039 
L 339.911756 621.52577 
L 342.356015 621.620655 
L 370.464989 621.533749 
L 419.350162 621.229461 
L 445.014878 620.861445 
L 459.68043 620.439717 
L 468.235335 620.01047 
L 474.345982 619.528835 
L 479.234499 618.948661 
L 482.900887 618.321183 
L 486.567275 617.425499 
L 489.011534 616.603832 
L 491.455793 615.522231 
L 493.900051 614.084069 
L 495.122181 613.192501 
L 496.34431 612.161906 
L 497.566439 610.971473 
L 498.788569 609.59991 
L 500.010698 608.025647 
L 501.232827 606.226862 
L 502.454957 604.183988 
L 503.677086 601.880482 
L 504.899215 599.303063 
L 507.343474 593.302903 
L 509.787733 586.201665 
L 512.231991 578.141774 
L 515.898379 564.922439 
L 519.564767 551.881678 
L 520.786896 547.986541 
L 522.009026 544.500108 
L 523.231155 541.544753 
L 524.453284 539.2497 
L 525.675414 537.747621 
L 526.897543 537.168258 
L 528.119672 537.633681 
L 529.341802 539.249641 
L 530.563931 542.092976 
L 531.78606 546.200753 
L 533.00819 551.555992 
L 534.230319 558.071327 
L 535.452448 565.579109 
L 537.896707 582.463448 
L 540.340966 599.223567 
L 541.563095 606.431373 
L 542.785224 612.316736 
L 544.007354 616.63598 
L 545.229483 619.373664 
L 546.451612 620.797812 
L 547.673742 621.378701 
L 548.895871 621.563824 
L 552.562259 621.621004 
L 603.891691 621.412922 
L 639.333441 621.09923 
L 658.88751 620.738102 
L 671.108804 620.318651 
L 679.663709 619.810749 
L 685.774356 619.218629 
L 685.774356 619.218629 
" clip-path="url(#pcc8a9a398e)" style="fill: none; stroke: #1f77b4; stroke-width: 1.5; stroke-linecap: square"/>
   </g>
   <g id="patch_33">
    <path d="M 30.040865 625.844567 
L 30.040865 532.945576 
" style="fill: none; stroke: #000000; stroke-width: 0.8; stroke-linejoin: miter; stroke-linecap: square"/>
   </g>
   <g id="patch_34">
    <path d="M 716.99976 625.844567 
L 716.99976 532.945576 
" style="fill: none; stroke: #000000; stroke-width: 0.8; stroke-linejoin: miter; stroke-linecap: square"/>
   </g>
   <g id="patch_35">
    <path d="M 30.040865 625.844567 
L 716.99976 625.844567 
" style="fill: none; stroke: #000000; stroke-width: 0.8; stroke-linejoin: miter; stroke-linecap: square"/>
   </g>
   <g id="patch_36">
    <path d="M 30.040865 532.945576 
L 716.99976 532.945576 
" style="fill: none; stroke: #000000; stroke-width: 0.8; stroke-linejoin: miter; stroke-linecap: square"/>
   </g>
   <g id="legend_6">
    <g id="patch_37">
     <path d="M 658.14726 551.088076 
L 711.39976 551.088076 
Q 712.99976 551.088076 712.99976 549.488076 
L 712.99976 538.545576 
Q 712.99976 536.945576 711.39976 536.945576 
L 658.14726 536.945576 
Q 656.54726 536.945576 656.54726 538.545576 
L 656.54726 549.488076 
Q 656.54726 551.088076 658.14726 551.088076 
z
" style="fill: #ffffff; opacity: 0.8; stroke: #cccccc; stroke-linejoin: miter"/>
    </g>
    <g id="line2d_78">
     <path d="M 659.74726 543.424326 
L 667.74726 543.424326 
L 675.74726 543.424326 
" style="fill: none; stroke: #1f77b4; stroke-width: 1.5; stroke-linecap: square"/>
    </g>
    <g id="text_36">
     <!-- t=10.0 -->
     <g transform="translate(682.14726 546.224326) scale(0.08 -0.08)">
      <use xlink:href="#DejaVuSans-74"/>
      <use xlink:href="#DejaVuSans-3d" x="39.208984"/>
      <use xlink:href="#DejaVuSans-31" x="122.998047"/>
      <use xlink:href="#DejaVuSans-30" x="186.621094"/>
      <use xlink:href="#DejaVuSans-2e" x="250.244141"/>
      <use xlink:href="#DejaVuSans-30" x="282.03125"/>
     </g>
    </g>
   </g>
  </g>
  <g id="axes_7">
   <g id="patch_38">
    <path d="M 30.040865 728.244039 
L 716.99976 728.244039 
L 716.99976 635.345047 
L 30.040865 635.345047 
z
" style="fill: #ffffff"/>
   </g>
   <g id="matplotlib.axis_13">
    <g id="xtick_43">
     <g id="line2d_79">
      <g>
       <use xlink:href="#m3359944afc" x="61.266269" y="728.244039" style="stroke: #000000; stroke-width: 0.8"/>
      </g>
     </g>
    </g>
    <g id="xtick_44">
     <g id="line2d_80">
      <g>
       <use xlink:href="#m3359944afc" x="160.854328" y="728.244039" style="stroke: #000000; stroke-width: 0.8"/>
      </g>
     </g>
    </g>
    <g id="xtick_45">
     <g id="line2d_81">
      <g>
       <use xlink:href="#m3359944afc" x="260.442386" y="728.244039" style="stroke: #000000; stroke-width: 0.8"/>
      </g>
     </g>
    </g>
    <g id="xtick_46">
     <g id="line2d_82">
      <g>
       <use xlink:href="#m3359944afc" x="360.030445" y="728.244039" style="stroke: #000000; stroke-width: 0.8"/>
      </g>
     </g>
    </g>
    <g id="xtick_47">
     <g id="line2d_83">
      <g>
       <use xlink:href="#m3359944afc" x="459.618504" y="728.244039" style="stroke: #000000; stroke-width: 0.8"/>
      </g>
     </g>
    </g>
    <g id="xtick_48">
     <g id="line2d_84">
      <g>
       <use xlink:href="#m3359944afc" x="559.206562" y="728.244039" style="stroke: #000000; stroke-width: 0.8"/>
      </g>
     </g>
    </g>
    <g id="xtick_49">
     <g id="line2d_85">
      <g>
       <use xlink:href="#m3359944afc" x="658.794621" y="728.244039" style="stroke: #000000; stroke-width: 0.8"/>
      </g>
     </g>
    </g>
   </g>
   <g id="matplotlib.axis_14">
    <g id="ytick_25">
     <g id="line2d_86">
      <g>
       <use xlink:href="#mbe117e7df0" x="30.040865" y="725.008968" style="stroke: #000000; stroke-width: 0.8"/>
      </g>
     </g>
     <g id="text_37">
      <!-- 0 -->
      <g transform="translate(16.678365 728.808187) scale(0.1 -0.1)">
       <use xlink:href="#DejaVuSans-30"/>
      </g>
     </g>
    </g>
    <g id="ytick_26">
     <g id="line2d_87">
      <g>
       <use xlink:href="#mbe117e7df0" x="30.040865" y="699.969013" style="stroke: #000000; stroke-width: 0.8"/>
      </g>
     </g>
     <g id="text_38">
      <!-- 2 -->
      <g transform="translate(16.678365 703.768231) scale(0.1 -0.1)">
       <use xlink:href="#DejaVuSans-32"/>
      </g>
     </g>
    </g>
    <g id="ytick_27">
     <g id="line2d_88">
      <g>
       <use xlink:href="#mbe117e7df0" x="30.040865" y="674.929057" style="stroke: #000000; stroke-width: 0.8"/>
      </g>
     </g>
     <g id="text_39">
      <!-- 4 -->
      <g transform="translate(16.678365 678.728276) scale(0.1 -0.1)">
       <use xlink:href="#DejaVuSans-34"/>
      </g>
     </g>
    </g>
    <g id="ytick_28">
     <g id="line2d_89">
      <g>
       <use xlink:href="#mbe117e7df0" x="30.040865" y="649.889102" style="stroke: #000000; stroke-width: 0.8"/>
      </g>
     </g>
     <g id="text_40">
      <!-- 6 -->
      <g transform="translate(16.678365 653.68832) scale(0.1 -0.1)">
       <use xlink:href="#DejaVuSans-36"/>
      </g>
     </g>
    </g>
    <g id="text_41">
     <!-- $u_d=1.3$ -->
     <g transform="translate(10.598678 701.444543) rotate(-90) scale(0.1 -0.1)">
      <use xlink:href="#DejaVuSans-Oblique-75" transform="translate(0 0.78125)"/>
      <use xlink:href="#DejaVuSans-Oblique-64" transform="translate(63.378906 -15.625) scale(0.7)"/>
      <use xlink:href="#DejaVuSans-3d" transform="translate(130.029297 0.78125)"/>
      <use xlink:href="#DejaVuSans-31" transform="translate(233.300781 0.78125)"/>
      <use xlink:href="#DejaVuSans-2e" transform="translate(296.923828 0.78125)"/>
      <use xlink:href="#DejaVuSans-33" transform="translate(328.710938 0.78125)"/>
     </g>
    </g>
   </g>
   <g id="line2d_90">
    <path d="M 61.266269 722.864299 
L 71.043304 722.372175 
L 77.153951 721.870016 
L 82.042468 721.260453 
L 85.708856 720.59666 
L 88.153115 720.002283 
L 90.597373 719.233458 
L 93.041632 718.224704 
L 95.48589 716.88598 
L 97.930149 715.097024 
L 99.152278 713.988207 
L 100.374408 712.708582 
L 101.596537 711.236784 
L 102.818666 709.55086 
L 104.040796 707.629782 
L 105.262925 705.455541 
L 106.485054 703.012995 
L 107.707184 700.291469 
L 110.151442 694.000967 
L 112.595701 686.631156 
L 115.03996 678.359536 
L 122.372736 652.228372 
L 123.594865 648.526045 
L 124.816994 645.2954 
L 126.039124 642.662711 
L 127.261253 640.760035 
L 128.483382 639.719514 
L 129.705512 639.667833 
L 130.927641 640.720328 
L 132.14977 642.969411 
L 133.3719 646.47273 
L 134.594029 651.241353 
L 135.816158 657.223192 
L 137.038288 664.289508 
L 139.482546 680.733123 
L 141.926805 697.854883 
L 143.148934 705.565286 
L 144.371064 712.122764 
L 145.593193 717.203135 
L 146.815322 720.672247 
L 148.037452 722.664831 
L 149.259581 723.579277 
L 150.48171 723.904623 
L 152.925969 724.01926 
L 177.368555 723.948097 
L 227.475858 723.654422 
L 253.140574 723.314714 
L 269.028255 722.894685 
L 278.80529 722.42484 
L 284.915936 721.950396 
L 289.804454 721.380232 
L 293.470842 720.764751 
L 297.13723 719.887726 
L 299.581488 719.084175 
L 302.025747 718.027347 
L 304.470005 716.622751 
L 306.914264 714.745105 
L 308.136393 713.581729 
L 309.358523 712.240445 
L 310.580652 710.699734 
L 311.802781 708.937634 
L 313.024911 706.934029 
L 314.24704 704.671886 
L 315.469169 702.137231 
L 316.691299 699.321482 
L 319.135557 692.84461 
L 321.579816 685.3085 
L 324.024075 676.913891 
L 330.134721 654.899546 
L 331.356851 650.949464 
L 332.57898 647.390757 
L 333.801109 644.345034 
L 335.023239 641.940839 
L 336.245368 640.311028 
L 337.467497 639.586405 
L 338.689627 639.890791 
L 339.911756 641.333355 
L 341.133885 643.996088 
L 342.356015 647.922663 
L 343.578144 653.105036 
L 344.800273 659.466663 
L 346.022403 666.851458 
L 348.466661 683.629975 
L 350.91092 700.52761 
L 352.133049 707.89801 
L 353.355179 713.991569 
L 354.577308 718.537888 
L 355.799437 721.485259 
L 357.021567 723.064688 
L 358.243696 723.731272 
L 359.465825 723.949968 
L 363.132213 724.020662 
L 413.239516 723.820944 
L 449.903395 723.50198 
L 470.679594 723.111953 
L 482.900887 722.671963 
L 490.233663 722.227969 
L 496.34431 721.645354 
L 501.232827 720.920137 
L 504.899215 720.112028 
L 507.343474 719.376154 
L 509.787733 718.413023 
L 512.231991 717.136785 
L 514.67625 715.432401 
L 515.898379 714.375768 
L 517.120508 713.155451 
L 518.342638 711.750123 
L 519.564767 710.138027 
L 520.786896 708.2975 
L 522.009026 706.209477 
L 523.231155 703.857845 
L 524.453284 701.23011 
L 526.897543 695.127205 
L 529.341802 687.928658 
L 531.78606 679.789083 
L 536.674578 662.048396 
L 539.118836 653.546592 
L 540.340966 649.713884 
L 541.563095 646.312318 
L 542.785224 643.46583 
L 544.007354 641.304972 
L 545.229483 639.962612 
L 546.451612 639.567729 
L 547.673742 640.240455 
L 548.895871 642.082311 
L 550.118 645.163683 
L 551.34013 649.512811 
L 552.562259 655.100546 
L 553.784388 661.824704 
L 556.228647 677.856678 
L 559.895035 703.103174 
L 561.117164 710.087952 
L 562.339294 715.686815 
L 563.561423 719.692625 
L 564.783552 722.144278 
L 566.005682 723.363108 
L 567.227811 723.835242 
L 569.67207 724.015632 
L 585.559751 723.979642 
L 640.555571 723.690311 
L 668.664545 723.345043 
L 684.552226 722.952199 
L 685.774356 722.909447 
L 685.774356 722.909447 
" clip-path="url(#pe829e1c473)" style="fill: none; stroke: #1f77b4; stroke-width: 1.5; stroke-linecap: square"/>
   </g>
   <g id="patch_39">
    <path d="M 30.040865 728.244039 
L 30.040865 635.345047 
" style="fill: none; stroke: #000000; stroke-width: 0.8; stroke-linejoin: miter; stroke-linecap: square"/>
   </g>
   <g id="patch_40">
    <path d="M 716.99976 728.244039 
L 716.99976 635.345047 
" style="fill: none; stroke: #000000; stroke-width: 0.8; stroke-linejoin: miter; stroke-linecap: square"/>
   </g>
   <g id="patch_41">
    <path d="M 30.040865 728.244039 
L 716.99976 728.244039 
" style="fill: none; stroke: #000000; stroke-width: 0.8; stroke-linejoin: miter; stroke-linecap: square"/>
   </g>
   <g id="patch_42">
    <path d="M 30.040865 635.345047 
L 716.99976 635.345047 
" style="fill: none; stroke: #000000; stroke-width: 0.8; stroke-linejoin: miter; stroke-linecap: square"/>
   </g>
   <g id="legend_7">
    <g id="patch_43">
     <path d="M 658.14726 653.487547 
L 711.39976 653.487547 
Q 712.99976 653.487547 712.99976 651.887547 
L 712.99976 640.945047 
Q 712.99976 639.345047 711.39976 639.345047 
L 658.14726 639.345047 
Q 656.54726 639.345047 656.54726 640.945047 
L 656.54726 651.887547 
Q 656.54726 653.487547 658.14726 653.487547 
z
" style="fill: #ffffff; opacity: 0.8; stroke: #cccccc; stroke-linejoin: miter"/>
    </g>
    <g id="line2d_91">
     <path d="M 659.74726 645.823797 
L 667.74726 645.823797 
L 675.74726 645.823797 
" style="fill: none; stroke: #1f77b4; stroke-width: 1.5; stroke-linecap: square"/>
    </g>
    <g id="text_42">
     <!-- t=10.0 -->
     <g transform="translate(682.14726 648.623797) scale(0.08 -0.08)">
      <use xlink:href="#DejaVuSans-74"/>
      <use xlink:href="#DejaVuSans-3d" x="39.208984"/>
      <use xlink:href="#DejaVuSans-31" x="122.998047"/>
      <use xlink:href="#DejaVuSans-30" x="186.621094"/>
      <use xlink:href="#DejaVuSans-2e" x="250.244141"/>
      <use xlink:href="#DejaVuSans-30" x="282.03125"/>
     </g>
    </g>
   </g>
  </g>
  <g id="axes_8">
   <g id="patch_44">
    <path d="M 30.040865 830.64351 
L 716.99976 830.64351 
L 716.99976 737.744519 
L 30.040865 737.744519 
z
" style="fill: #ffffff"/>
   </g>
   <g id="matplotlib.axis_15">
    <g id="xtick_50">
     <g id="line2d_92">
      <g>
       <use xlink:href="#m3359944afc" x="61.266269" y="830.64351" style="stroke: #000000; stroke-width: 0.8"/>
      </g>
     </g>
     <g id="text_43">
      <!-- 0 -->
      <g transform="translate(58.085019 845.241948) scale(0.1 -0.1)">
       <use xlink:href="#DejaVuSans-30"/>
      </g>
     </g>
    </g>
    <g id="xtick_51">
     <g id="line2d_93">
      <g>
       <use xlink:href="#m3359944afc" x="160.854328" y="830.64351" style="stroke: #000000; stroke-width: 0.8"/>
      </g>
     </g>
     <g id="text_44">
      <!-- 5 -->
      <g transform="translate(157.673078 845.241948) scale(0.1 -0.1)">
       <use xlink:href="#DejaVuSans-35"/>
      </g>
     </g>
    </g>
    <g id="xtick_52">
     <g id="line2d_94">
      <g>
       <use xlink:href="#m3359944afc" x="260.442386" y="830.64351" style="stroke: #000000; stroke-width: 0.8"/>
      </g>
     </g>
     <g id="text_45">
      <!-- 10 -->
      <g transform="translate(254.079886 845.241948) scale(0.1 -0.1)">
       <use xlink:href="#DejaVuSans-31"/>
       <use xlink:href="#DejaVuSans-30" x="63.623047"/>
      </g>
     </g>
    </g>
    <g id="xtick_53">
     <g id="line2d_95">
      <g>
       <use xlink:href="#m3359944afc" x="360.030445" y="830.64351" style="stroke: #000000; stroke-width: 0.8"/>
      </g>
     </g>
     <g id="text_46">
      <!-- 15 -->
      <g transform="translate(353.667945 845.241948) scale(0.1 -0.1)">
       <use xlink:href="#DejaVuSans-31"/>
       <use xlink:href="#DejaVuSans-35" x="63.623047"/>
      </g>
     </g>
    </g>
    <g id="xtick_54">
     <g id="line2d_96">
      <g>
       <use xlink:href="#m3359944afc" x="459.618504" y="830.64351" style="stroke: #000000; stroke-width: 0.8"/>
      </g>
     </g>
     <g id="text_47">
      <!-- 20 -->
      <g transform="translate(453.256004 845.241948) scale(0.1 -0.1)">
       <use xlink:href="#DejaVuSans-32"/>
       <use xlink:href="#DejaVuSans-30" x="63.623047"/>
      </g>
     </g>
    </g>
    <g id="xtick_55">
     <g id="line2d_97">
      <g>
       <use xlink:href="#m3359944afc" x="559.206562" y="830.64351" style="stroke: #000000; stroke-width: 0.8"/>
      </g>
     </g>
     <g id="text_48">
      <!-- 25 -->
      <g transform="translate(552.844062 845.241948) scale(0.1 -0.1)">
       <use xlink:href="#DejaVuSans-32"/>
       <use xlink:href="#DejaVuSans-35" x="63.623047"/>
      </g>
     </g>
    </g>
    <g id="xtick_56">
     <g id="line2d_98">
      <g>
       <use xlink:href="#m3359944afc" x="658.794621" y="830.64351" style="stroke: #000000; stroke-width: 0.8"/>
      </g>
     </g>
     <g id="text_49">
      <!-- 30 -->
      <g transform="translate(652.432121 845.241948) scale(0.1 -0.1)">
       <use xlink:href="#DejaVuSans-33"/>
       <use xlink:href="#DejaVuSans-30" x="63.623047"/>
      </g>
     </g>
    </g>
    <g id="text_50">
     <!-- x -->
     <g transform="translate(370.560937 858.920072) scale(0.1 -0.1)">
      <defs>
       <path id="DejaVuSans-78" d="M 3513 3500 
L 2247 1797 
L 3578 0 
L 2900 0 
L 1881 1375 
L 863 0 
L 184 0 
L 1544 1831 
L 300 3500 
L 978 3500 
L 1906 2253 
L 2834 3500 
L 3513 3500 
z
" transform="scale(0.015625)"/>
      </defs>
      <use xlink:href="#DejaVuSans-78"/>
     </g>
    </g>
   </g>
   <g id="matplotlib.axis_16">
    <g id="ytick_29">
     <g id="line2d_99">
      <g>
       <use xlink:href="#mbe117e7df0" x="30.040865" y="827.406554" style="stroke: #000000; stroke-width: 0.8"/>
      </g>
     </g>
     <g id="text_51">
      <!-- 0 -->
      <g transform="translate(16.678365 831.205773) scale(0.1 -0.1)">
       <use xlink:href="#DejaVuSans-30"/>
      </g>
     </g>
    </g>
    <g id="ytick_30">
     <g id="line2d_100">
      <g>
       <use xlink:href="#mbe117e7df0" x="30.040865" y="802.389583" style="stroke: #000000; stroke-width: 0.8"/>
      </g>
     </g>
     <g id="text_52">
      <!-- 2 -->
      <g transform="translate(16.678365 806.188801) scale(0.1 -0.1)">
       <use xlink:href="#DejaVuSans-32"/>
      </g>
     </g>
    </g>
    <g id="ytick_31">
     <g id="line2d_101">
      <g>
       <use xlink:href="#mbe117e7df0" x="30.040865" y="777.372611" style="stroke: #000000; stroke-width: 0.8"/>
      </g>
     </g>
     <g id="text_53">
      <!-- 4 -->
      <g transform="translate(16.678365 781.17183) scale(0.1 -0.1)">
       <use xlink:href="#DejaVuSans-34"/>
      </g>
     </g>
    </g>
    <g id="ytick_32">
     <g id="line2d_102">
      <g>
       <use xlink:href="#mbe117e7df0" x="30.040865" y="752.35564" style="stroke: #000000; stroke-width: 0.8"/>
      </g>
     </g>
     <g id="text_54">
      <!-- 6 -->
      <g transform="translate(16.678365 756.154859) scale(0.1 -0.1)">
       <use xlink:href="#DejaVuSans-36"/>
      </g>
     </g>
    </g>
    <g id="text_55">
     <!-- $u_d=1.5$ -->
     <g transform="translate(10.598678 803.844014) rotate(-90) scale(0.1 -0.1)">
      <use xlink:href="#DejaVuSans-Oblique-75" transform="translate(0 0.09375)"/>
      <use xlink:href="#DejaVuSans-Oblique-64" transform="translate(63.378906 -16.3125) scale(0.7)"/>
      <use xlink:href="#DejaVuSans-3d" transform="translate(130.029297 0.09375)"/>
      <use xlink:href="#DejaVuSans-31" transform="translate(233.300781 0.09375)"/>
      <use xlink:href="#DejaVuSans-2e" transform="translate(296.923828 0.09375)"/>
      <use xlink:href="#DejaVuSans-35" transform="translate(328.710938 0.09375)"/>
     </g>
    </g>
   </g>
   <g id="line2d_103">
    <path d="M 61.266269 825.771314 
L 77.153951 825.401523 
L 88.153115 824.938305 
L 95.48589 824.414219 
L 100.374408 823.874109 
L 104.040796 823.294885 
L 107.707184 822.474692 
L 110.151442 821.726732 
L 112.595701 820.746601 
L 115.03996 819.446742 
L 117.484218 817.709843 
L 118.706348 816.632909 
L 119.928477 815.389296 
L 121.150606 813.957645 
L 122.372736 812.316038 
L 123.594865 810.442978 
L 124.816994 808.319796 
L 126.039124 805.930697 
L 127.261253 803.263844 
L 129.705512 797.081209 
L 132.14977 789.807457 
L 134.594029 781.606784 
L 141.926805 755.385794 
L 143.148934 751.604171 
L 144.371064 748.27157 
L 145.593193 745.513198 
L 146.815322 743.460632 
L 148.037452 742.246795 
L 149.259581 741.999989 
L 150.48171 742.838669 
L 151.70384 744.860723 
L 152.925969 748.13117 
L 154.148098 752.670909 
L 155.370228 758.440677 
L 156.592357 765.326225 
L 159.036616 781.564841 
L 161.480874 798.777554 
L 162.703004 806.657051 
L 163.925133 813.453802 
L 165.147262 818.817659 
L 166.369391 822.574 
L 167.591521 824.806322 
L 168.81365 825.874857 
L 170.035779 826.271744 
L 172.480038 826.41723 
L 192.034107 826.366067 
L 244.585668 826.078471 
L 271.472514 825.742706 
L 287.360195 825.347972 
L 297.13723 824.915253 
L 304.470005 824.376648 
L 309.358523 823.818591 
L 313.024911 823.217619 
L 316.691299 822.363184 
L 319.135557 821.581598 
L 321.579816 820.554879 
L 324.024075 819.19118 
L 326.468333 817.368037 
L 327.690463 816.237922 
L 328.912592 814.934007 
L 330.134721 813.434838 
L 331.356851 811.718355 
L 332.57898 809.763833 
L 333.801109 807.553624 
L 335.023239 805.072965 
L 336.245368 802.311978 
L 338.689627 795.941887 
L 341.133885 788.498555 
L 343.578144 780.169252 
L 350.91092 754.082726 
L 352.133049 750.437306 
L 353.355179 747.281859 
L 354.577308 744.743934 
L 355.799437 742.95633 
L 357.021567 742.050944 
L 358.243696 742.153563 
L 359.465825 743.377252 
L 360.687955 745.810155 
L 361.910084 749.503998 
L 363.132213 754.461612 
L 364.354343 760.619996 
L 365.576472 767.837915 
L 368.020731 784.454657 
L 370.464989 801.4982 
L 371.687119 809.063064 
L 372.909248 815.414138 
L 374.131377 820.250358 
L 375.353506 823.474812 
L 376.575636 825.267932 
L 377.797765 826.058478 
L 379.019894 826.328473 
L 381.464153 826.419777 
L 410.795257 826.327983 
L 459.68043 826.017552 
L 484.123017 825.663424 
L 498.788569 825.243786 
L 507.343474 824.816835 
L 513.454121 824.3379 
L 518.342638 823.761081 
L 522.009026 823.137266 
L 525.675414 822.246759 
L 528.119672 821.429704 
L 530.563931 820.353903 
L 533.00819 818.922907 
L 534.230319 818.035454 
L 535.452448 817.009313 
L 536.674578 815.823632 
L 537.896707 814.457045 
L 539.118836 812.887886 
L 540.340966 811.094209 
L 541.563095 809.056277 
L 542.785224 806.757381 
L 544.007354 804.184048 
L 545.229483 801.32858 
L 547.673742 794.772455 
L 550.118 787.164741 
L 552.562259 778.716191 
L 558.672906 756.725351 
L 559.895035 752.820684 
L 561.117164 749.324861 
L 562.339294 746.360742 
L 563.561423 744.058077 
L 564.783552 742.55012 
L 566.005682 741.9672 
L 567.227811 742.431913 
L 568.44994 744.050484 
L 569.67207 746.900066 
L 570.894199 751.017765 
L 572.116328 756.386341 
L 573.338458 762.917688 
L 574.560587 770.442812 
L 580.671234 811.333146 
L 581.893363 817.204417 
L 583.115492 821.501524 
L 584.337621 824.214272 
L 585.559751 825.617659 
L 586.78188 826.185793 
L 588.004009 826.365217 
L 591.670397 826.419874 
L 642.999829 826.212519 
L 678.44158 825.900127 
L 685.774356 825.791956 
L 685.774356 825.791956 
" clip-path="url(#pee9337ac6b)" style="fill: none; stroke: #1f77b4; stroke-width: 1.5; stroke-linecap: square"/>
   </g>
   <g id="patch_45">
    <path d="M 30.040865 830.64351 
L 30.040865 737.744519 
" style="fill: none; stroke: #000000; stroke-width: 0.8; stroke-linejoin: miter; stroke-linecap: square"/>
   </g>
   <g id="patch_46">
    <path d="M 716.99976 830.64351 
L 716.99976 737.744519 
" style="fill: none; stroke: #000000; stroke-width: 0.8; stroke-linejoin: miter; stroke-linecap: square"/>
   </g>
   <g id="patch_47">
    <path d="M 30.040865 830.64351 
L 716.99976 830.64351 
" style="fill: none; stroke: #000000; stroke-width: 0.8; stroke-linejoin: miter; stroke-linecap: square"/>
   </g>
   <g id="patch_48">
    <path d="M 30.040865 737.744519 
L 716.99976 737.744519 
" style="fill: none; stroke: #000000; stroke-width: 0.8; stroke-linejoin: miter; stroke-linecap: square"/>
   </g>
   <g id="legend_8">
    <g id="patch_49">
     <path d="M 658.14726 755.887019 
L 711.39976 755.887019 
Q 712.99976 755.887019 712.99976 754.287019 
L 712.99976 743.344519 
Q 712.99976 741.744519 711.39976 741.744519 
L 658.14726 741.744519 
Q 656.54726 741.744519 656.54726 743.344519 
L 656.54726 754.287019 
Q 656.54726 755.887019 658.14726 755.887019 
z
" style="fill: #ffffff; opacity: 0.8; stroke: #cccccc; stroke-linejoin: miter"/>
    </g>
    <g id="line2d_104">
     <path d="M 659.74726 748.223269 
L 667.74726 748.223269 
L 675.74726 748.223269 
" style="fill: none; stroke: #1f77b4; stroke-width: 1.5; stroke-linecap: square"/>
    </g>
    <g id="text_56">
     <!-- t=10.0 -->
     <g transform="translate(682.14726 751.023269) scale(0.08 -0.08)">
      <use xlink:href="#DejaVuSans-74"/>
      <use xlink:href="#DejaVuSans-3d" x="39.208984"/>
      <use xlink:href="#DejaVuSans-31" x="122.998047"/>
      <use xlink:href="#DejaVuSans-30" x="186.621094"/>
      <use xlink:href="#DejaVuSans-2e" x="250.244141"/>
      <use xlink:href="#DejaVuSans-30" x="282.03125"/>
     </g>
    </g>
   </g>
  </g>
  <g id="text_57">
   <!-- Density snapshots for u_d=0.1..1.0  [ud_comparison] -->
   <g transform="translate(200.050313 12.118365) scale(0.12 -0.12)">
    <defs>
     <path id="DejaVuSans-44" d="M 1259 4147 
L 1259 519 
L 2022 519 
Q 2988 519 3436 956 
Q 3884 1394 3884 2338 
Q 3884 3275 3436 3711 
Q 2988 4147 2022 4147 
L 1259 4147 
z
M 628 4666 
L 1925 4666 
Q 3281 4666 3915 4102 
Q 4550 3538 4550 2338 
Q 4550 1131 3912 565 
Q 3275 0 1925 0 
L 628 0 
L 628 4666 
z
" transform="scale(0.015625)"/>
     <path id="DejaVuSans-65" d="M 3597 1894 
L 3597 1613 
L 953 1613 
Q 991 1019 1311 708 
Q 1631 397 2203 397 
Q 2534 397 2845 478 
Q 3156 559 3463 722 
L 3463 178 
Q 3153 47 2828 -22 
Q 2503 -91 2169 -91 
Q 1331 -91 842 396 
Q 353 884 353 1716 
Q 353 2575 817 3079 
Q 1281 3584 2069 3584 
Q 2775 3584 3186 3129 
Q 3597 2675 3597 1894 
z
M 3022 2063 
Q 3016 2534 2758 2815 
Q 2500 3097 2075 3097 
Q 1594 3097 1305 2825 
Q 1016 2553 972 2059 
L 3022 2063 
z
" transform="scale(0.015625)"/>
     <path id="DejaVuSans-6e" d="M 3513 2113 
L 3513 0 
L 2938 0 
L 2938 2094 
Q 2938 2591 2744 2837 
Q 2550 3084 2163 3084 
Q 1697 3084 1428 2787 
Q 1159 2491 1159 1978 
L 1159 0 
L 581 0 
L 581 3500 
L 1159 3500 
L 1159 2956 
Q 1366 3272 1645 3428 
Q 1925 3584 2291 3584 
Q 2894 3584 3203 3211 
Q 3513 2838 3513 2113 
z
" transform="scale(0.015625)"/>
     <path id="DejaVuSans-73" d="M 2834 3397 
L 2834 2853 
Q 2591 2978 2328 3040 
Q 2066 3103 1784 3103 
Q 1356 3103 1142 2972 
Q 928 2841 928 2578 
Q 928 2378 1081 2264 
Q 1234 2150 1697 2047 
L 1894 2003 
Q 2506 1872 2764 1633 
Q 3022 1394 3022 966 
Q 3022 478 2636 193 
Q 2250 -91 1575 -91 
Q 1294 -91 989 -36 
Q 684 19 347 128 
L 347 722 
Q 666 556 975 473 
Q 1284 391 1588 391 
Q 1994 391 2212 530 
Q 2431 669 2431 922 
Q 2431 1156 2273 1281 
Q 2116 1406 1581 1522 
L 1381 1569 
Q 847 1681 609 1914 
Q 372 2147 372 2553 
Q 372 3047 722 3315 
Q 1072 3584 1716 3584 
Q 2034 3584 2315 3537 
Q 2597 3491 2834 3397 
z
" transform="scale(0.015625)"/>
     <path id="DejaVuSans-69" d="M 603 3500 
L 1178 3500 
L 1178 0 
L 603 0 
L 603 3500 
z
M 603 4863 
L 1178 4863 
L 1178 4134 
L 603 4134 
L 603 4863 
z
" transform="scale(0.015625)"/>
     <path id="DejaVuSans-79" d="M 2059 -325 
Q 1816 -950 1584 -1140 
Q 1353 -1331 966 -1331 
L 506 -1331 
L 506 -850 
L 844 -850 
Q 1081 -850 1212 -737 
Q 1344 -625 1503 -206 
L 1606 56 
L 191 3500 
L 800 3500 
L 1894 763 
L 2988 3500 
L 3597 3500 
L 2059 -325 
z
" transform="scale(0.015625)"/>
     <path id="DejaVuSans-20" transform="scale(0.015625)"/>
     <path id="DejaVuSans-61" d="M 2194 1759 
Q 1497 1759 1228 1600 
Q 959 1441 959 1056 
Q 959 750 1161 570 
Q 1363 391 1709 391 
Q 2188 391 2477 730 
Q 2766 1069 2766 1631 
L 2766 1759 
L 2194 1759 
z
M 3341 1997 
L 3341 0 
L 2766 0 
L 2766 531 
Q 2569 213 2275 61 
Q 1981 -91 1556 -91 
Q 1019 -91 701 211 
Q 384 513 384 1019 
Q 384 1609 779 1909 
Q 1175 2209 1959 2209 
L 2766 2209 
L 2766 2266 
Q 2766 2663 2505 2880 
Q 2244 3097 1772 3097 
Q 1472 3097 1187 3025 
Q 903 2953 641 2809 
L 641 3341 
Q 956 3463 1253 3523 
Q 1550 3584 1831 3584 
Q 2591 3584 2966 3190 
Q 3341 2797 3341 1997 
z
" transform="scale(0.015625)"/>
     <path id="DejaVuSans-70" d="M 1159 525 
L 1159 -1331 
L 581 -1331 
L 581 3500 
L 1159 3500 
L 1159 2969 
Q 1341 3281 1617 3432 
Q 1894 3584 2278 3584 
Q 2916 3584 3314 3078 
Q 3713 2572 3713 1747 
Q 3713 922 3314 415 
Q 2916 -91 2278 -91 
Q 1894 -91 1617 61 
Q 1341 213 1159 525 
z
M 3116 1747 
Q 3116 2381 2855 2742 
Q 2594 3103 2138 3103 
Q 1681 3103 1420 2742 
Q 1159 2381 1159 1747 
Q 1159 1113 1420 752 
Q 1681 391 2138 391 
Q 2594 391 2855 752 
Q 3116 1113 3116 1747 
z
" transform="scale(0.015625)"/>
     <path id="DejaVuSans-68" d="M 3513 2113 
L 3513 0 
L 2938 0 
L 2938 2094 
Q 2938 2591 2744 2837 
Q 2550 3084 2163 3084 
Q 1697 3084 1428 2787 
Q 1159 2491 1159 1978 
L 1159 0 
L 581 0 
L 581 4863 
L 1159 4863 
L 1159 2956 
Q 1366 3272 1645 3428 
Q 1925 3584 2291 3584 
Q 2894 3584 3203 3211 
Q 3513 2838 3513 2113 
z
" transform="scale(0.015625)"/>
     <path id="DejaVuSans-6f" d="M 1959 3097 
Q 1497 3097 1228 2736 
Q 959 2375 959 1747 
Q 959 1119 1226 758 
Q 1494 397 1959 397 
Q 2419 397 2687 759 
Q 2956 1122 2956 1747 
Q 2956 2369 2687 2733 
Q 2419 3097 1959 3097 
z
M 1959 3584 
Q 2709 3584 3137 3096 
Q 3566 2609 3566 1747 
Q 3566 888 3137 398 
Q 2709 -91 1959 -91 
Q 1206 -91 779 398 
Q 353 888 353 1747 
Q 353 2609 779 3096 
Q 1206 3584 1959 3584 
z
" transform="scale(0.015625)"/>
     <path id="DejaVuSans-66" d="M 2375 4863 
L 2375 4384 
L 1825 4384 
Q 1516 4384 1395 4259 
Q 1275 4134 1275 3809 
L 1275 3500 
L 2222 3500 
L 2222 3053 
L 1275 3053 
L 1275 0 
L 697 0 
L 697 3053 
L 147 3053 
L 147 3500 
L 697 3500 
L 697 3744 
Q 697 4328 969 4595 
Q 1241 4863 1831 4863 
L 2375 4863 
z
" transform="scale(0.015625)"/>
     <path id="DejaVuSans-72" d="M 2631 2963 
Q 2534 3019 2420 3045 
Q 2306 3072 2169 3072 
Q 1681 3072 1420 2755 
Q 1159 2438 1159 1844 
L 1159 0 
L 581 0 
L 581 3500 
L 1159 3500 
L 1159 2956 
Q 1341 3275 1631 3429 
Q 1922 3584 2338 3584 
Q 2397 3584 2469 3576 
Q 2541 3569 2628 3553 
L 2631 2963 
z
" transform="scale(0.015625)"/>
     <path id="DejaVuSans-75" d="M 544 1381 
L 544 3500 
L 1119 3500 
L 1119 1403 
Q 1119 906 1312 657 
Q 1506 409 1894 409 
Q 2359 409 2629 706 
Q 2900 1003 2900 1516 
L 2900 3500 
L 3475 3500 
L 3475 0 
L 2900 0 
L 2900 538 
Q 2691 219 2414 64 
Q 2138 -91 1772 -91 
Q 1169 -91 856 284 
Q 544 659 544 1381 
z
M 1991 3584 
L 1991 3584 
z
" transform="scale(0.015625)"/>
     <path id="DejaVuSans-5f" d="M 3263 -1063 
L 3263 -1509 
L -63 -1509 
L -63 -1063 
L 3263 -1063 
z
" transform="scale(0.015625)"/>
     <path id="DejaVuSans-64" d="M 2906 2969 
L 2906 4863 
L 3481 4863 
L 3481 0 
L 2906 0 
L 2906 525 
Q 2725 213 2448 61 
Q 2172 -91 1784 -91 
Q 1150 -91 751 415 
Q 353 922 353 1747 
Q 353 2572 751 3078 
Q 1150 3584 1784 3584 
Q 2172 3584 2448 3432 
Q 2725 3281 2906 2969 
z
M 947 1747 
Q 947 1113 1208 752 
Q 1469 391 1925 391 
Q 2381 391 2643 752 
Q 2906 1113 2906 1747 
Q 2906 2381 2643 2742 
Q 2381 3103 1925 3103 
Q 1469 3103 1208 2742 
Q 947 2381 947 1747 
z
" transform="scale(0.015625)"/>
     <path id="DejaVuSans-5b" d="M 550 4863 
L 1875 4863 
L 1875 4416 
L 1125 4416 
L 1125 -397 
L 1875 -397 
L 1875 -844 
L 550 -844 
L 550 4863 
z
" transform="scale(0.015625)"/>
     <path id="DejaVuSans-63" d="M 3122 3366 
L 3122 2828 
Q 2878 2963 2633 3030 
Q 2388 3097 2138 3097 
Q 1578 3097 1268 2742 
Q 959 2388 959 1747 
Q 959 1106 1268 751 
Q 1578 397 2138 397 
Q 2388 397 2633 464 
Q 2878 531 3122 666 
L 3122 134 
Q 2881 22 2623 -34 
Q 2366 -91 2075 -91 
Q 1284 -91 818 406 
Q 353 903 353 1747 
Q 353 2603 823 3093 
Q 1294 3584 2113 3584 
Q 2378 3584 2631 3529 
Q 2884 3475 3122 3366 
z
" transform="scale(0.015625)"/>
     <path id="DejaVuSans-6d" d="M 3328 2828 
Q 3544 3216 3844 3400 
Q 4144 3584 4550 3584 
Q 5097 3584 5394 3201 
Q 5691 2819 5691 2113 
L 5691 0 
L 5113 0 
L 5113 2094 
Q 5113 2597 4934 2840 
Q 4756 3084 4391 3084 
Q 3944 3084 3684 2787 
Q 3425 2491 3425 1978 
L 3425 0 
L 2847 0 
L 2847 2094 
Q 2847 2600 2669 2842 
Q 2491 3084 2119 3084 
Q 1678 3084 1418 2786 
Q 1159 2488 1159 1978 
L 1159 0 
L 581 0 
L 581 3500 
L 1159 3500 
L 1159 2956 
Q 1356 3278 1631 3431 
Q 1906 3584 2284 3584 
Q 2666 3584 2933 3390 
Q 3200 3197 3328 2828 
z
" transform="scale(0.015625)"/>
     <path id="DejaVuSans-5d" d="M 1947 4863 
L 1947 -844 
L 622 -844 
L 622 -397 
L 1369 -397 
L 1369 4416 
L 622 4416 
L 622 4863 
L 1947 4863 
z
" transform="scale(0.015625)"/>
    </defs>
    <use xlink:href="#DejaVuSans-44"/>
    <use xlink:href="#DejaVuSans-65" x="77.001953"/>
    <use xlink:href="#DejaVuSans-6e" x="138.525391"/>
    <use xlink:href="#DejaVuSans-73" x="201.904297"/>
    <use xlink:href="#DejaVuSans-69" x="254.003906"/>
    <use xlink:href="#DejaVuSans-74" x="281.787109"/>
    <use xlink:href="#DejaVuSans-79" x="320.996094"/>
    <use xlink:href="#DejaVuSans-20" x="380.175781"/>
    <use xlink:href="#DejaVuSans-73" x="411.962891"/>
    <use xlink:href="#DejaVuSans-6e" x="464.0625"/>
    <use xlink:href="#DejaVuSans-61" x="527.441406"/>
    <use xlink:href="#DejaVuSans-70" x="588.720703"/>
    <use xlink:href="#DejaVuSans-73" x="652.197266"/>
    <use xlink:href="#DejaVuSans-68" x="704.296875"/>
    <use xlink:href="#DejaVuSans-6f" x="767.675781"/>
    <use xlink:href="#DejaVuSans-74" x="828.857422"/>
    <use xlink:href="#DejaVuSans-73" x="868.066406"/>
    <use xlink:href="#DejaVuSans-20" x="920.166016"/>
    <use xlink:href="#DejaVuSans-66" x="951.953125"/>
    <use xlink:href="#DejaVuSans-6f" x="987.158203"/>
    <use xlink:href="#DejaVuSans-72" x="1048.339844"/>
    <use xlink:href="#DejaVuSans-20" x="1089.453125"/>
    <use xlink:href="#DejaVuSans-75" x="1121.240234"/>
    <use xlink:href="#DejaVuSans-5f" x="1184.619141"/>
    <use xlink:href="#DejaVuSans-64" x="1234.619141"/>
    <use xlink:href="#DejaVuSans-3d" x="1298.095703"/>
    <use xlink:href="#DejaVuSans-30" x="1381.884766"/>
    <use xlink:href="#DejaVuSans-2e" x="1445.507812"/>
    <use xlink:href="#DejaVuSans-31" x="1477.294922"/>
    <use xlink:href="#DejaVuSans-2e" x="1540.917969"/>
    <use xlink:href="#DejaVuSans-2e" x="1572.705078"/>
    <use xlink:href="#DejaVuSans-31" x="1604.492188"/>
    <use xlink:href="#DejaVuSans-2e" x="1668.115234"/>
    <use xlink:href="#DejaVuSans-30" x="1699.902344"/>
    <use xlink:href="#DejaVuSans-20" x="1763.525391"/>
    <use xlink:href="#DejaVuSans-20" x="1795.3125"/>
    <use xlink:href="#DejaVuSans-5b" x="1827.099609"/>
    <use xlink:href="#DejaVuSans-75" x="1866.113281"/>
    <use xlink:href="#DejaVuSans-64" x="1929.492188"/>
    <use xlink:href="#DejaVuSans-5f" x="1992.96875"/>
    <use xlink:href="#DejaVuSans-63" x="2042.96875"/>
    <use xlink:href="#DejaVuSans-6f" x="2097.949219"/>
    <use xlink:href="#DejaVuSans-6d" x="2159.130859"/>
    <use xlink:href="#DejaVuSans-70" x="2256.542969"/>
    <use xlink:href="#DejaVuSans-61" x="2320.019531"/>
    <use xlink:href="#DejaVuSans-72" x="2381.298828"/>
    <use xlink:href="#DejaVuSans-69" x="2422.412109"/>
    <use xlink:href="#DejaVuSans-73" x="2450.195312"/>
    <use xlink:href="#DejaVuSans-6f" x="2502.294922"/>
    <use xlink:href="#DejaVuSans-6e" x="2563.476562"/>
    <use xlink:href="#DejaVuSans-5d" x="2626.855469"/>
   </g>
  </g>
 </g>
 <defs>
  <clipPath id="pa71252acae">
   <rect x="30.040865" y="20.94822" width="686.958895" height="92.898991"/>
  </clipPath>
  <clipPath id="p0263358364">
   <rect x="30.040865" y="123.347691" width="686.958895" height="92.898991"/>
  </clipPath>
  <clipPath id="pc2a2447492">
   <rect x="30.040865" y="225.747162" width="686.958895" height="92.898991"/>
  </clipPath>
  <clipPath id="pef9f49f783">
   <rect x="30.040865" y="328.146634" width="686.958895" height="92.898991"/>
  </clipPath>
  <clipPath id="p972f3b5c32">
   <rect x="30.040865" y="430.546105" width="686.958895" height="92.898991"/>
  </clipPath>
  <clipPath id="pcc8a9a398e">
   <rect x="30.040865" y="532.945576" width="686.958895" height="92.898991"/>
  </clipPath>
  <clipPath id="pe829e1c473">
   <rect x="30.040865" y="635.345047" width="686.958895" height="92.898991"/>
  </clipPath>
  <clipPath id="pee9337ac6b">
   <rect x="30.040865" y="737.744519" width="686.958895" height="92.898991"/>
  </clipPath>
 </defs>
</svg>
