<?xml version="1.0" encoding="utf-8" standalone="no"?>
<!DOCTYPE svg PUBLIC "-//W3C//DTD SVG 1.1//EN"
  "http://www.w3.org/Graphics/SVG/1.1/DTD/svg11.dtd">
<svg xmlns:xlink="http://www.w3.org/1999/xlink" width="518.4pt" height="388.8pt" viewBox="0 0 518.4 388.8" xmlns="http://www.w3.org/2000/svg" version="1.1">
 <metadata>
  <rdf:RDF xmlns:dc="http://purl.org/dc/elements/1.1/" xmlns:cc="http://creativecommons.org/ns#" xmlns:rdf="http://www.w3.org/1999/02/22-rdf-syntax-ns#">
   <cc:Work>
    <dc:type rdf:resource="http://purl.org/dc/dcmitype/StillImage"/>
    <dc:date>2026-01-27T06:18:52.492200</dc:date>
    <dc:format>image/svg+xml</dc:format>
    <dc:creator>
     <cc:Agent>
      <dc:title>Matplotlib v3.8.4, https://matplotlib.org/</dc:title>
     </cc:Agent>
    </dc:creator>
   </cc:Work>
  </rdf:RDF>
 </metadata>
 <defs>
  <style type="text/css">*{stroke-linejoin: round; stroke-linecap: butt}</style>
 </defs>
 <g id="figure_1">
  <g id="patch_1">
   <path d="M 0 388.8 
L 518.4 388.8 
L 518.4 0 
L 0 0 
z
" style="fill: #ffffff"/>
  </g>
  <g id="axes_1">
   <g id="patch_2">
    <path d="M 95.271963 318.562089 
L 494.734765 318.562089 
L 494.734765 21.6 
L 95.271963 21.6 
z
" style="fill: #ffffff"/>
   </g>
   <g id="matplotlib.axis_1">
    <g id="xtick_1">
     <g id="line2d_1">
      <defs>
       <path id="m352f62b430" d="M 0 0 
L 0 3.5 
" style="stroke: #000000; stroke-width: 0.8"/>
      </defs>
      <g>
       <use xlink:href="#m352f62b430" x="95.271963" y="318.562089" style="stroke: #000000; stroke-width: 0.8"/>
      </g>
     </g>
     <g id="text_1">
      <!-- $\mathdefault{10^{-4}}$ -->
      <g transform="translate(77.295543 339.399086) scale(0.2 -0.2)">
       <defs>
        <path id="CMR17-31" d="M 1702 4058 
C 1702 4192 1696 4192 1606 4192 
C 1357 3916 979 3827 621 3827 
C 602 3827 570 3827 563 3808 
C 557 3795 557 3782 557 3648 
C 755 3648 1088 3686 1344 3839 
L 1344 461 
C 1344 236 1331 160 781 160 
L 589 160 
L 589 0 
C 896 0 1216 0 1523 0 
C 1830 0 2150 0 2458 0 
L 2458 160 
L 2266 160 
C 1715 160 1702 230 1702 458 
L 1702 4058 
z
" transform="scale(0.015625)"/>
        <path id="CMR17-30" d="M 2688 2025 
C 2688 2416 2682 3080 2413 3591 
C 2176 4039 1798 4198 1466 4198 
C 1158 4198 768 4058 525 3597 
C 269 3118 243 2524 243 2025 
C 243 1661 250 1106 448 619 
C 723 -39 1216 -128 1466 -128 
C 1760 -128 2208 -7 2470 600 
C 2662 1042 2688 1559 2688 2025 
z
M 1466 -26 
C 1056 -26 813 325 723 812 
C 653 1188 653 1738 653 2096 
C 653 2588 653 2997 736 3387 
C 858 3929 1216 4096 1466 4096 
C 1728 4096 2067 3923 2189 3400 
C 2272 3036 2278 2607 2278 2096 
C 2278 1680 2278 1169 2202 792 
C 2067 95 1690 -26 1466 -26 
z
" transform="scale(0.015625)"/>
        <path id="CMSY10-0" d="M 4218 1472 
C 4326 1472 4442 1472 4442 1600 
C 4442 1728 4326 1728 4218 1728 
L 755 1728 
C 646 1728 531 1728 531 1600 
C 531 1472 646 1472 755 1472 
L 4218 1472 
z
" transform="scale(0.015625)"/>
        <path id="CMR17-34" d="M 2150 4122 
C 2150 4256 2144 4256 2029 4256 
L 128 1254 
L 128 1088 
L 1779 1088 
L 1779 457 
C 1779 224 1766 160 1318 160 
L 1197 160 
L 1197 0 
C 1402 0 1747 0 1965 0 
C 2182 0 2528 0 2733 0 
L 2733 160 
L 2611 160 
C 2163 160 2150 224 2150 457 
L 2150 1088 
L 2803 1088 
L 2803 1254 
L 2150 1254 
L 2150 4122 
z
M 1798 3703 
L 1798 1254 
L 256 1254 
L 1798 3703 
z
" transform="scale(0.015625)"/>
       </defs>
       <use xlink:href="#CMR17-31" transform="scale(0.996264)"/>
       <use xlink:href="#CMR17-30" transform="translate(45.690477 0) scale(0.996264)"/>
       <use xlink:href="#CMSY10-0" transform="translate(91.380954 36.153639) scale(0.697382)"/>
       <use xlink:href="#CMR17-34" transform="translate(145.621947 36.153639) scale(0.697382)"/>
      </g>
     </g>
    </g>
    <g id="xtick_2">
     <g id="line2d_2">
      <g>
       <use xlink:href="#m352f62b430" x="192.530882" y="318.562089" style="stroke: #000000; stroke-width: 0.8"/>
      </g>
     </g>
     <g id="text_2">
      <!-- $\mathdefault{10^{-3}}$ -->
      <g transform="translate(174.554462 339.399086) scale(0.2 -0.2)">
       <defs>
        <path id="CMR17-33" d="M 1414 2157 
C 1984 2157 2234 1662 2234 1090 
C 2234 320 1824 25 1453 25 
C 1114 25 563 194 390 693 
C 422 680 454 680 486 680 
C 640 680 755 782 755 948 
C 755 1133 614 1216 486 1216 
C 378 1216 211 1165 211 926 
C 211 335 787 -128 1466 -128 
C 2176 -128 2720 430 2720 1085 
C 2720 1707 2208 2157 1600 2227 
C 2086 2328 2554 2756 2554 3329 
C 2554 3820 2048 4179 1472 4179 
C 890 4179 378 3829 378 3329 
C 378 3110 544 3072 627 3072 
C 762 3072 877 3155 877 3321 
C 877 3486 762 3569 627 3569 
C 602 3569 570 3569 544 3557 
C 730 3959 1235 4032 1459 4032 
C 1683 4032 2106 3925 2106 3320 
C 2106 3143 2080 2828 1862 2550 
C 1670 2304 1453 2304 1242 2284 
C 1210 2284 1062 2269 1037 2269 
C 992 2263 966 2257 966 2208 
C 966 2163 973 2157 1101 2157 
L 1414 2157 
z
" transform="scale(0.015625)"/>
       </defs>
       <use xlink:href="#CMR17-31" transform="scale(0.996264)"/>
       <use xlink:href="#CMR17-30" transform="translate(45.690477 0) scale(0.996264)"/>
       <use xlink:href="#CMSY10-0" transform="translate(91.380954 36.153639) scale(0.697382)"/>
       <use xlink:href="#CMR17-33" transform="translate(145.621947 36.153639) scale(0.697382)"/>
      </g>
     </g>
    </g>
    <g id="xtick_3">
     <g id="line2d_3">
      <g>
       <use xlink:href="#m352f62b430" x="289.789801" y="318.562089" style="stroke: #000000; stroke-width: 0.8"/>
      </g>
     </g>
     <g id="text_3">
      <!-- $\mathdefault{10^{-2}}$ -->
      <g transform="translate(271.813381 339.399086) scale(0.2 -0.2)">
       <defs>
        <path id="CMR17-32" d="M 2669 989 
L 2554 989 
C 2490 536 2438 459 2413 420 
C 2381 369 1920 369 1830 369 
L 602 369 
C 832 619 1280 1072 1824 1597 
C 2214 1967 2669 2402 2669 3035 
C 2669 3790 2067 4224 1395 4224 
C 691 4224 262 3604 262 3030 
C 262 2780 448 2748 525 2748 
C 589 2748 781 2787 781 3010 
C 781 3207 614 3264 525 3264 
C 486 3264 448 3258 422 3245 
C 544 3790 915 4058 1306 4058 
C 1862 4058 2227 3617 2227 3035 
C 2227 2479 1901 2000 1536 1584 
L 262 146 
L 262 0 
L 2515 0 
L 2669 989 
z
" transform="scale(0.015625)"/>
       </defs>
       <use xlink:href="#CMR17-31" transform="scale(0.996264)"/>
       <use xlink:href="#CMR17-30" transform="translate(45.690477 0) scale(0.996264)"/>
       <use xlink:href="#CMSY10-0" transform="translate(91.380954 36.153639) scale(0.697382)"/>
       <use xlink:href="#CMR17-32" transform="translate(145.621947 36.153639) scale(0.697382)"/>
      </g>
     </g>
    </g>
    <g id="xtick_4">
     <g id="line2d_4">
      <g>
       <use xlink:href="#m352f62b430" x="387.04872" y="318.562089" style="stroke: #000000; stroke-width: 0.8"/>
      </g>
     </g>
     <g id="text_4">
      <!-- $\mathdefault{10^{-1}}$ -->
      <g transform="translate(369.072301 339.399086) scale(0.2 -0.2)">
       <use xlink:href="#CMR17-31" transform="scale(0.996264)"/>
       <use xlink:href="#CMR17-30" transform="translate(45.690477 0) scale(0.996264)"/>
       <use xlink:href="#CMSY10-0" transform="translate(91.380954 36.153639) scale(0.697382)"/>
       <use xlink:href="#CMR17-31" transform="translate(145.621947 36.153639) scale(0.697382)"/>
      </g>
     </g>
    </g>
    <g id="xtick_5">
     <g id="line2d_5">
      <g>
       <use xlink:href="#m352f62b430" x="484.307639" y="318.562089" style="stroke: #000000; stroke-width: 0.8"/>
      </g>
     </g>
     <g id="text_5">
      <!-- $\mathdefault{10^{0}}$ -->
      <g transform="translate(471.755314 339.399086) scale(0.2 -0.2)">
       <use xlink:href="#CMR17-31" transform="scale(0.996264)"/>
       <use xlink:href="#CMR17-30" transform="translate(45.690477 0) scale(0.996264)"/>
       <use xlink:href="#CMR17-30" transform="translate(91.380954 36.153639) scale(0.697382)"/>
      </g>
     </g>
    </g>
    <g id="xtick_6">
     <g id="line2d_6">
      <defs>
       <path id="m83aa00c6c7" d="M 0 0 
L 0 2 
" style="stroke: #000000; stroke-width: 0.6"/>
      </defs>
      <g>
       <use xlink:href="#m83aa00c6c7" x="124.549815" y="318.562089" style="stroke: #000000; stroke-width: 0.6"/>
      </g>
     </g>
    </g>
    <g id="xtick_7">
     <g id="line2d_7">
      <g>
       <use xlink:href="#m83aa00c6c7" x="141.67626" y="318.562089" style="stroke: #000000; stroke-width: 0.6"/>
      </g>
     </g>
    </g>
    <g id="xtick_8">
     <g id="line2d_8">
      <g>
       <use xlink:href="#m83aa00c6c7" x="153.827667" y="318.562089" style="stroke: #000000; stroke-width: 0.6"/>
      </g>
     </g>
    </g>
    <g id="xtick_9">
     <g id="line2d_9">
      <g>
       <use xlink:href="#m83aa00c6c7" x="163.25303" y="318.562089" style="stroke: #000000; stroke-width: 0.6"/>
      </g>
     </g>
    </g>
    <g id="xtick_10">
     <g id="line2d_10">
      <g>
       <use xlink:href="#m83aa00c6c7" x="170.954112" y="318.562089" style="stroke: #000000; stroke-width: 0.6"/>
      </g>
     </g>
    </g>
    <g id="xtick_11">
     <g id="line2d_11">
      <g>
       <use xlink:href="#m83aa00c6c7" x="177.465284" y="318.562089" style="stroke: #000000; stroke-width: 0.6"/>
      </g>
     </g>
    </g>
    <g id="xtick_12">
     <g id="line2d_12">
      <g>
       <use xlink:href="#m83aa00c6c7" x="183.105519" y="318.562089" style="stroke: #000000; stroke-width: 0.6"/>
      </g>
     </g>
    </g>
    <g id="xtick_13">
     <g id="line2d_13">
      <g>
       <use xlink:href="#m83aa00c6c7" x="188.080558" y="318.562089" style="stroke: #000000; stroke-width: 0.6"/>
      </g>
     </g>
    </g>
    <g id="xtick_14">
     <g id="line2d_14">
      <g>
       <use xlink:href="#m83aa00c6c7" x="221.808734" y="318.562089" style="stroke: #000000; stroke-width: 0.6"/>
      </g>
     </g>
    </g>
    <g id="xtick_15">
     <g id="line2d_15">
      <g>
       <use xlink:href="#m83aa00c6c7" x="238.935179" y="318.562089" style="stroke: #000000; stroke-width: 0.6"/>
      </g>
     </g>
    </g>
    <g id="xtick_16">
     <g id="line2d_16">
      <g>
       <use xlink:href="#m83aa00c6c7" x="251.086586" y="318.562089" style="stroke: #000000; stroke-width: 0.6"/>
      </g>
     </g>
    </g>
    <g id="xtick_17">
     <g id="line2d_17">
      <g>
       <use xlink:href="#m83aa00c6c7" x="260.511949" y="318.562089" style="stroke: #000000; stroke-width: 0.6"/>
      </g>
     </g>
    </g>
    <g id="xtick_18">
     <g id="line2d_18">
      <g>
       <use xlink:href="#m83aa00c6c7" x="268.213031" y="318.562089" style="stroke: #000000; stroke-width: 0.6"/>
      </g>
     </g>
    </g>
    <g id="xtick_19">
     <g id="line2d_19">
      <g>
       <use xlink:href="#m83aa00c6c7" x="274.724204" y="318.562089" style="stroke: #000000; stroke-width: 0.6"/>
      </g>
     </g>
    </g>
    <g id="xtick_20">
     <g id="line2d_20">
      <g>
       <use xlink:href="#m83aa00c6c7" x="280.364438" y="318.562089" style="stroke: #000000; stroke-width: 0.6"/>
      </g>
     </g>
    </g>
    <g id="xtick_21">
     <g id="line2d_21">
      <g>
       <use xlink:href="#m83aa00c6c7" x="285.339477" y="318.562089" style="stroke: #000000; stroke-width: 0.6"/>
      </g>
     </g>
    </g>
    <g id="xtick_22">
     <g id="line2d_22">
      <g>
       <use xlink:href="#m83aa00c6c7" x="319.067653" y="318.562089" style="stroke: #000000; stroke-width: 0.6"/>
      </g>
     </g>
    </g>
    <g id="xtick_23">
     <g id="line2d_23">
      <g>
       <use xlink:href="#m83aa00c6c7" x="336.194098" y="318.562089" style="stroke: #000000; stroke-width: 0.6"/>
      </g>
     </g>
    </g>
    <g id="xtick_24">
     <g id="line2d_24">
      <g>
       <use xlink:href="#m83aa00c6c7" x="348.345505" y="318.562089" style="stroke: #000000; stroke-width: 0.6"/>
      </g>
     </g>
    </g>
    <g id="xtick_25">
     <g id="line2d_25">
      <g>
       <use xlink:href="#m83aa00c6c7" x="357.770868" y="318.562089" style="stroke: #000000; stroke-width: 0.6"/>
      </g>
     </g>
    </g>
    <g id="xtick_26">
     <g id="line2d_26">
      <g>
       <use xlink:href="#m83aa00c6c7" x="365.47195" y="318.562089" style="stroke: #000000; stroke-width: 0.6"/>
      </g>
     </g>
    </g>
    <g id="xtick_27">
     <g id="line2d_27">
      <g>
       <use xlink:href="#m83aa00c6c7" x="371.983123" y="318.562089" style="stroke: #000000; stroke-width: 0.6"/>
      </g>
     </g>
    </g>
    <g id="xtick_28">
     <g id="line2d_28">
      <g>
       <use xlink:href="#m83aa00c6c7" x="377.623357" y="318.562089" style="stroke: #000000; stroke-width: 0.6"/>
      </g>
     </g>
    </g>
    <g id="xtick_29">
     <g id="line2d_29">
      <g>
       <use xlink:href="#m83aa00c6c7" x="382.598396" y="318.562089" style="stroke: #000000; stroke-width: 0.6"/>
      </g>
     </g>
    </g>
    <g id="xtick_30">
     <g id="line2d_30">
      <g>
       <use xlink:href="#m83aa00c6c7" x="416.326572" y="318.562089" style="stroke: #000000; stroke-width: 0.6"/>
      </g>
     </g>
    </g>
    <g id="xtick_31">
     <g id="line2d_31">
      <g>
       <use xlink:href="#m83aa00c6c7" x="433.453017" y="318.562089" style="stroke: #000000; stroke-width: 0.6"/>
      </g>
     </g>
    </g>
    <g id="xtick_32">
     <g id="line2d_32">
      <g>
       <use xlink:href="#m83aa00c6c7" x="445.604424" y="318.562089" style="stroke: #000000; stroke-width: 0.6"/>
      </g>
     </g>
    </g>
    <g id="xtick_33">
     <g id="line2d_33">
      <g>
       <use xlink:href="#m83aa00c6c7" x="455.029787" y="318.562089" style="stroke: #000000; stroke-width: 0.6"/>
      </g>
     </g>
    </g>
    <g id="xtick_34">
     <g id="line2d_34">
      <g>
       <use xlink:href="#m83aa00c6c7" x="462.730869" y="318.562089" style="stroke: #000000; stroke-width: 0.6"/>
      </g>
     </g>
    </g>
    <g id="xtick_35">
     <g id="line2d_35">
      <g>
       <use xlink:href="#m83aa00c6c7" x="469.242042" y="318.562089" style="stroke: #000000; stroke-width: 0.6"/>
      </g>
     </g>
    </g>
    <g id="xtick_36">
     <g id="line2d_36">
      <g>
       <use xlink:href="#m83aa00c6c7" x="474.882276" y="318.562089" style="stroke: #000000; stroke-width: 0.6"/>
      </g>
     </g>
    </g>
    <g id="xtick_37">
     <g id="line2d_37">
      <g>
       <use xlink:href="#m83aa00c6c7" x="479.857315" y="318.562089" style="stroke: #000000; stroke-width: 0.6"/>
      </g>
     </g>
    </g>
    <g id="text_6">
     <!-- Temperature, $T/T_F$ -->
     <g transform="translate(216.391443 362.21868) scale(0.2 -0.2)">
      <defs>
       <path id="CMR17-54" d="M 3981 4326 
L 288 4326 
L 179 2918 
L 294 2918 
C 378 3976 467 4160 1453 4160 
C 1568 4160 1754 4160 1805 4154 
C 1926 4135 1926 4058 1926 3912 
L 1926 459 
C 1926 230 1907 160 1376 160 
L 1197 160 
L 1197 0 
C 1504 0 1824 0 2138 0 
C 2451 0 2771 0 3078 0 
L 3078 160 
L 2899 160 
C 2368 160 2349 230 2349 459 
L 2349 3912 
C 2349 4052 2349 4129 2464 4154 
C 2515 4160 2701 4160 2816 4160 
C 3795 4160 3891 3976 3974 2918 
L 4090 2918 
L 3981 4326 
z
" transform="scale(0.015625)"/>
       <path id="CMR17-65" d="M 2438 1472 
C 2464 1498 2464 1511 2464 1576 
C 2464 2238 2118 2816 1389 2816 
C 710 2816 173 2169 173 1383 
C 173 551 781 -64 1459 -64 
C 2176 -64 2458 607 2458 740 
C 2458 784 2419 784 2406 784 
C 2362 784 2355 771 2330 696 
C 2189 265 1837 51 1504 51 
C 1229 51 954 203 781 480 
C 582 803 582 1176 582 1472 
L 2438 1472 
z
M 589 1568 
C 634 2505 1126 2714 1382 2714 
C 1818 2714 2112 2297 2118 1568 
L 589 1568 
z
" transform="scale(0.015625)"/>
       <path id="CMR17-6d" d="M 4326 1933 
C 4326 2252 4269 2790 3507 2790 
C 3072 2790 2771 2496 2656 2151 
L 2650 2151 
C 2573 2676 2195 2790 1837 2790 
C 1331 2790 1069 2400 973 2144 
L 966 2144 
L 966 2790 
L 211 2720 
L 211 2554 
C 589 2554 646 2515 646 2208 
L 646 428 
C 646 184 621 153 211 153 
L 211 -13 
C 365 0 646 0 813 0 
C 979 0 1267 0 1421 -13 
L 1421 153 
C 1011 153 986 178 986 428 
L 986 1658 
C 986 2247 1344 2688 1792 2688 
C 2266 2688 2317 2266 2317 1958 
L 2317 428 
C 2317 184 2291 153 1882 153 
L 1882 -13 
C 2035 0 2317 0 2483 0 
C 2650 0 2938 0 3091 -13 
L 3091 153 
C 2682 153 2656 178 2656 428 
L 2656 1658 
C 2656 2247 3014 2688 3462 2688 
C 3936 2688 3987 2266 3987 1958 
L 3987 428 
C 3987 184 3962 153 3552 153 
L 3552 -13 
C 3706 0 3987 0 4154 0 
C 4320 0 4608 0 4762 -13 
L 4762 153 
C 4352 153 4326 178 4326 428 
L 4326 1933 
z
" transform="scale(0.015625)"/>
       <path id="CMR17-70" d="M 1408 -1063 
C 998 -1063 973 -1037 973 -789 
L 973 402 
C 1158 134 1427 -38 1766 -38 
C 2406 -38 3053 523 3053 1388 
C 3053 2191 2496 2802 1837 2802 
C 1453 2802 1139 2592 960 2338 
L 960 2802 
L 198 2732 
L 198 2567 
C 576 2567 634 2528 634 2223 
L 634 -789 
C 634 -1031 608 -1063 198 -1063 
L 198 -1228 
C 352 -1216 634 -1216 800 -1216 
C 966 -1216 1254 -1216 1408 -1228 
L 1408 -1063 
z
M 973 2012 
C 973 2102 973 2235 1222 2471 
C 1254 2497 1472 2688 1792 2688 
C 2259 2688 2643 2108 2643 1382 
C 2643 656 2234 64 1728 64 
C 1498 64 1248 172 1056 472 
C 973 612 973 650 973 752 
L 973 2012 
z
" transform="scale(0.015625)"/>
       <path id="CMR17-72" d="M 960 1497 
C 960 2112 1222 2688 1702 2688 
C 1747 2688 1792 2682 1837 2662 
C 1837 2662 1696 2617 1696 2452 
C 1696 2298 1818 2234 1914 2234 
C 1990 2234 2131 2279 2131 2458 
C 2131 2663 1926 2790 1709 2790 
C 1222 2790 1011 2317 947 2093 
L 941 2093 
L 941 2790 
L 198 2720 
L 198 2554 
C 576 2554 634 2515 634 2208 
L 634 428 
C 634 184 608 153 198 153 
L 198 -13 
C 352 0 646 0 813 0 
C 998 0 1325 0 1498 -13 
L 1498 153 
C 1037 153 960 153 960 440 
L 960 1497 
z
" transform="scale(0.015625)"/>
       <path id="CMR17-61" d="M 2304 1653 
C 2304 2072 2304 2294 2035 2543 
C 1798 2752 1523 2816 1306 2816 
C 800 2816 435 2407 435 1971 
C 435 1728 627 1728 666 1728 
C 749 1728 896 1778 896 1954 
C 896 2112 774 2181 666 2181 
C 640 2181 608 2174 589 2168 
C 723 2592 1069 2714 1293 2714 
C 1613 2714 1965 2429 1965 1885 
L 1965 1600 
C 1587 1600 1133 1549 774 1357 
C 371 1133 256 813 256 570 
C 256 77 832 -64 1171 -64 
C 1523 -64 1850 139 1990 511 
C 2003 233 2182 -18 2464 -18 
C 2598 -18 2938 70 2938 567 
L 2938 920 
L 2822 920 
L 2822 562 
C 2822 178 2650 128 2566 128 
C 2304 128 2304 458 2304 738 
L 2304 1653 
z
M 1965 870 
C 1965 317 1568 38 1216 38 
C 896 38 646 275 646 570 
C 646 761 730 1100 1101 1305 
C 1408 1478 1760 1504 1965 1504 
L 1965 870 
z
" transform="scale(0.015625)"/>
       <path id="CMR17-74" d="M 966 2560 
L 1862 2560 
L 1862 2725 
L 966 2725 
L 966 3904 
L 851 3904 
C 838 3245 614 2668 70 2668 
L 70 2560 
L 627 2560 
L 627 771 
C 627 650 627 -64 1370 -64 
C 1747 -64 1965 306 1965 777 
L 1965 1140 
L 1850 1140 
L 1850 783 
C 1850 344 1677 51 1408 51 
C 1222 51 966 178 966 758 
L 966 2560 
z
" transform="scale(0.015625)"/>
       <path id="CMR17-75" d="M 1882 2693 
L 1882 2528 
C 2259 2528 2317 2489 2317 2186 
L 2317 1032 
C 2317 500 2029 38 1555 38 
C 1030 38 986 348 986 678 
L 986 2763 
L 211 2693 
L 211 2528 
C 467 2528 640 2528 646 2274 
L 646 1058 
C 646 633 646 361 813 183 
C 896 101 1056 -64 1517 -64 
C 2061 -64 2272 377 2323 506 
L 2330 506 
L 2330 -63 
L 3091 -63 
L 3091 128 
C 2714 128 2656 166 2656 473 
L 2656 2763 
L 1882 2693 
z
" transform="scale(0.015625)"/>
       <path id="CMR17-2c" d="M 1011 102 
C 1024 45 1024 25 1024 -77 
C 1024 -463 896 -817 627 -1139 
C 595 -1170 595 -1183 595 -1197 
C 595 -1222 621 -1248 646 -1248 
C 685 -1248 1126 -799 1126 -87 
C 1126 124 1101 522 800 522 
C 659 522 538 427 538 261 
C 538 96 659 0 800 0 
C 877 0 960 32 1011 102 
z
" transform="scale(0.015625)"/>
       <path id="CMMI12-54" d="M 2669 3910 
C 2707 4064 2720 4121 2816 4147 
C 2867 4160 3078 4160 3213 4160 
C 3853 4160 4154 4134 4154 3634 
C 4154 3537 4128 3295 4090 3057 
L 4083 2980 
C 4083 2954 4109 2916 4147 2916 
C 4211 2916 4211 2948 4230 3050 
L 4416 4184 
C 4429 4243 4429 4256 4429 4275 
C 4429 4345 4390 4345 4262 4345 
L 762 4345 
C 614 4345 608 4339 570 4224 
L 179 3070 
C 173 3056 154 2986 154 2980 
C 154 2948 179 2916 218 2916 
C 269 2916 282 2941 307 3024 
C 576 3801 710 4160 1562 4160 
L 1990 4160 
C 2144 4160 2208 4160 2208 4089 
C 2208 4069 2208 4057 2176 3941 
L 1318 499 
C 1254 249 1242 185 563 185 
C 403 185 358 185 358 64 
C 358 0 429 0 461 0 
C 621 0 787 0 947 0 
L 1946 0 
C 2106 0 2278 0 2438 0 
C 2509 0 2573 0 2573 121 
C 2573 185 2528 185 2362 185 
C 1786 185 1786 243 1786 339 
C 1786 346 1786 391 1811 494 
L 2669 3910 
z
" transform="scale(0.015625)"/>
       <path id="CMMI12-3d" d="M 2746 4562 
C 2746 4569 2784 4666 2784 4678 
C 2784 4755 2720 4800 2669 4800 
C 2637 4800 2579 4800 2528 4659 
L 384 -1363 
C 384 -1370 346 -1465 346 -1478 
C 346 -1555 410 -1600 461 -1600 
C 499 -1600 557 -1593 602 -1459 
L 2746 4562 
z
" transform="scale(0.015625)"/>
       <path id="CMMI12-46" d="M 1901 2055 
L 2515 2055 
C 3002 2055 3040 1946 3040 1761 
C 3040 1678 3027 1589 2995 1448 
C 2982 1423 2976 1391 2976 1378 
C 2976 1333 3002 1308 3046 1308 
C 3098 1308 3104 1333 3130 1435 
L 3501 2935 
C 3501 2961 3482 2999 3437 2999 
C 3379 2999 3373 2974 3347 2863 
C 3213 2376 3085 2240 2528 2240 
L 1946 2240 
L 2362 3926 
C 2419 4154 2432 4154 2694 4154 
L 3552 4154 
C 4352 4154 4467 3918 4467 3464 
C 4467 3426 4467 3285 4448 3119 
C 4442 3094 4429 3011 4429 2985 
C 4429 2934 4461 2915 4499 2915 
C 4544 2915 4570 2941 4582 3055 
L 4717 4174 
C 4717 4195 4730 4263 4730 4277 
C 4730 4352 4672 4352 4557 4352 
L 1523 4352 
C 1402 4352 1338 4352 1338 4229 
C 1338 4154 1382 4154 1491 4154 
C 1888 4154 1888 4113 1888 4050 
C 1888 4018 1882 3992 1862 3922 
L 998 473 
C 941 249 928 185 480 185 
C 358 185 294 185 294 70 
C 294 0 352 0 390 0 
C 512 0 640 0 762 0 
L 1594 0 
C 1734 0 1888 0 2029 0 
C 2086 0 2163 0 2163 115 
C 2163 185 2125 185 1984 185 
C 1478 185 1466 229 1466 324 
C 1466 356 1478 406 1491 449 
L 1901 2055 
z
" transform="scale(0.015625)"/>
      </defs>
      <use xlink:href="#CMR17-54" transform="scale(0.996264)"/>
      <use xlink:href="#CMR17-65" transform="translate(58.702625 0) scale(0.996264)"/>
      <use xlink:href="#CMR17-6d" transform="translate(99.188286 0) scale(0.996264)"/>
      <use xlink:href="#CMR17-70" transform="translate(176.107875 0) scale(0.996264)"/>
      <use xlink:href="#CMR17-65" transform="translate(229.605684 0) scale(0.996264)"/>
      <use xlink:href="#CMR17-72" transform="translate(270.091344 0) scale(0.996264)"/>
      <use xlink:href="#CMR17-61" transform="translate(305.372112 0) scale(0.996264)"/>
      <use xlink:href="#CMR17-74" transform="translate(351.062589 0) scale(0.996264)"/>
      <use xlink:href="#CMR17-75" transform="translate(386.343357 0) scale(0.996264)"/>
      <use xlink:href="#CMR17-72" transform="translate(437.238727 0) scale(0.996264)"/>
      <use xlink:href="#CMR17-65" transform="translate(472.519495 0) scale(0.996264)"/>
      <use xlink:href="#CMR17-2c" transform="translate(513.005155 0) scale(0.996264)"/>
      <use xlink:href="#CMMI12-54" transform="translate(567.95218 0) scale(0.996264)"/>
      <use xlink:href="#CMMI12-3d" transform="translate(635.966095 0) scale(0.996264)"/>
      <use xlink:href="#CMMI12-54" transform="translate(684.741013 0) scale(0.996264)"/>
      <use xlink:href="#CMMI12-46" transform="translate(741.916057 -14.943915) scale(0.697382)"/>
     </g>
    </g>
   </g>
   <g id="matplotlib.axis_2">
    <g id="ytick_1">
     <g id="line2d_38">
      <defs>
       <path id="m9c999af510" d="M 0 0 
L -3.5 0 
" style="stroke: #000000; stroke-width: 0.8"/>
      </defs>
      <g>
       <use xlink:href="#m9c999af510" x="95.271963" y="288.923675" style="stroke: #000000; stroke-width: 0.8"/>
      </g>
     </g>
     <g id="text_7">
      <!-- $\mathdefault{10^{-13}}$ -->
      <g transform="translate(45.490666 295.842173) scale(0.2 -0.2)">
       <use xlink:href="#CMR17-31" transform="scale(0.996264)"/>
       <use xlink:href="#CMR17-30" transform="translate(45.690477 0) scale(0.996264)"/>
       <use xlink:href="#CMSY10-0" transform="translate(91.380954 36.153639) scale(0.697382)"/>
       <use xlink:href="#CMR17-31" transform="translate(145.621947 36.153639) scale(0.697382)"/>
       <use xlink:href="#CMR17-33" transform="translate(177.605129 36.153639) scale(0.697382)"/>
      </g>
     </g>
    </g>
    <g id="ytick_2">
     <g id="line2d_39">
      <g>
       <use xlink:href="#m9c999af510" x="95.271963" y="245.546552" style="stroke: #000000; stroke-width: 0.8"/>
      </g>
     </g>
     <g id="text_8">
      <!-- $\mathdefault{10^{-11}}$ -->
      <g transform="translate(45.490666 252.46505) scale(0.2 -0.2)">
       <use xlink:href="#CMR17-31" transform="scale(0.996264)"/>
       <use xlink:href="#CMR17-30" transform="translate(45.690477 0) scale(0.996264)"/>
       <use xlink:href="#CMSY10-0" transform="translate(91.380954 36.153639) scale(0.697382)"/>
       <use xlink:href="#CMR17-31" transform="translate(145.621947 36.153639) scale(0.697382)"/>
       <use xlink:href="#CMR17-31" transform="translate(177.605129 36.153639) scale(0.697382)"/>
      </g>
     </g>
    </g>
    <g id="ytick_3">
     <g id="line2d_40">
      <g>
       <use xlink:href="#m9c999af510" x="95.271963" y="202.169429" style="stroke: #000000; stroke-width: 0.8"/>
      </g>
     </g>
     <g id="text_9">
      <!-- $\mathdefault{10^{-9}}$ -->
      <g transform="translate(52.319124 209.087927) scale(0.2 -0.2)">
       <defs>
        <path id="CMR17-39" d="M 2253 1864 
C 2253 464 1670 31 1190 31 
C 1043 31 685 31 538 294 
C 704 268 826 357 826 518 
C 826 692 685 749 595 749 
C 538 749 365 723 365 506 
C 365 71 742 -128 1203 -128 
C 1939 -128 2688 674 2688 2073 
C 2688 3817 1971 4179 1485 4179 
C 851 4179 243 3628 243 2778 
C 243 1991 762 1408 1414 1408 
C 1952 1408 2189 1903 2253 2112 
L 2253 1864 
z
M 1427 1510 
C 1254 1510 1011 1542 813 1922 
C 678 2169 678 2461 678 2771 
C 678 3146 678 3405 858 3684 
C 947 3817 1114 4032 1485 4032 
C 2240 4032 2240 2885 2240 2632 
C 2240 2182 2035 1510 1427 1510 
z
" transform="scale(0.015625)"/>
       </defs>
       <use xlink:href="#CMR17-31" transform="scale(0.996264)"/>
       <use xlink:href="#CMR17-30" transform="translate(45.690477 0) scale(0.996264)"/>
       <use xlink:href="#CMSY10-0" transform="translate(91.380954 36.153639) scale(0.697382)"/>
       <use xlink:href="#CMR17-39" transform="translate(145.621947 36.153639) scale(0.697382)"/>
      </g>
     </g>
    </g>
    <g id="ytick_4">
     <g id="line2d_41">
      <g>
       <use xlink:href="#m9c999af510" x="95.271963" y="158.792306" style="stroke: #000000; stroke-width: 0.8"/>
      </g>
     </g>
     <g id="text_10">
      <!-- $\mathdefault{10^{-7}}$ -->
      <g transform="translate(52.319124 165.710804) scale(0.2 -0.2)">
       <defs>
        <path id="CMR17-37" d="M 2886 3941 
L 2886 4081 
L 1382 4081 
C 634 4081 621 4165 595 4288 
L 480 4288 
L 294 3094 
L 410 3094 
C 429 3215 474 3540 550 3661 
C 589 3712 1062 3712 1171 3712 
L 2579 3712 
L 1869 2661 
C 1395 1954 1069 999 1069 165 
C 1069 89 1069 -128 1299 -128 
C 1530 -128 1530 89 1530 171 
L 1530 465 
C 1530 1508 1709 2196 2003 2636 
L 2886 3941 
z
" transform="scale(0.015625)"/>
       </defs>
       <use xlink:href="#CMR17-31" transform="scale(0.996264)"/>
       <use xlink:href="#CMR17-30" transform="translate(45.690477 0) scale(0.996264)"/>
       <use xlink:href="#CMSY10-0" transform="translate(91.380954 36.153639) scale(0.697382)"/>
       <use xlink:href="#CMR17-37" transform="translate(145.621947 36.153639) scale(0.697382)"/>
      </g>
     </g>
    </g>
    <g id="ytick_5">
     <g id="line2d_42">
      <g>
       <use xlink:href="#m9c999af510" x="95.271963" y="115.415183" style="stroke: #000000; stroke-width: 0.8"/>
      </g>
     </g>
     <g id="text_11">
      <!-- $\mathdefault{10^{-5}}$ -->
      <g transform="translate(52.319124 122.333681) scale(0.2 -0.2)">
       <defs>
        <path id="CMR17-35" d="M 730 3692 
C 794 3666 1056 3584 1325 3584 
C 1920 3584 2246 3911 2432 4100 
C 2432 4157 2432 4192 2394 4192 
C 2387 4192 2374 4192 2323 4163 
C 2099 4058 1837 3973 1517 3973 
C 1325 3973 1037 3999 723 4139 
C 653 4171 640 4171 634 4171 
C 602 4171 595 4164 595 4037 
L 595 2203 
C 595 2089 595 2057 659 2057 
C 691 2057 704 2070 736 2114 
C 941 2401 1222 2522 1542 2522 
C 1766 2522 2246 2382 2246 1289 
C 2246 1085 2246 715 2054 421 
C 1894 159 1645 25 1370 25 
C 947 25 518 320 403 814 
C 429 807 480 795 506 795 
C 589 795 749 840 749 1038 
C 749 1210 627 1280 506 1280 
C 358 1280 262 1190 262 1011 
C 262 454 704 -128 1382 -128 
C 2042 -128 2669 440 2669 1264 
C 2669 2030 2170 2624 1549 2624 
C 1222 2624 947 2503 730 2274 
L 730 3692 
z
" transform="scale(0.015625)"/>
       </defs>
       <use xlink:href="#CMR17-31" transform="scale(0.996264)"/>
       <use xlink:href="#CMR17-30" transform="translate(45.690477 0) scale(0.996264)"/>
       <use xlink:href="#CMSY10-0" transform="translate(91.380954 36.153639) scale(0.697382)"/>
       <use xlink:href="#CMR17-35" transform="translate(145.621947 36.153639) scale(0.697382)"/>
      </g>
     </g>
    </g>
    <g id="ytick_6">
     <g id="line2d_43">
      <g>
       <use xlink:href="#m9c999af510" x="95.271963" y="72.03806" style="stroke: #000000; stroke-width: 0.8"/>
      </g>
     </g>
     <g id="text_12">
      <!-- $\mathdefault{10^{-3}}$ -->
      <g transform="translate(52.319124 78.956558) scale(0.2 -0.2)">
       <use xlink:href="#CMR17-31" transform="scale(0.996264)"/>
       <use xlink:href="#CMR17-30" transform="translate(45.690477 0) scale(0.996264)"/>
       <use xlink:href="#CMSY10-0" transform="translate(91.380954 36.153639) scale(0.697382)"/>
       <use xlink:href="#CMR17-33" transform="translate(145.621947 36.153639) scale(0.697382)"/>
      </g>
     </g>
    </g>
    <g id="ytick_7">
     <g id="line2d_44">
      <g>
       <use xlink:href="#m9c999af510" x="95.271963" y="28.660937" style="stroke: #000000; stroke-width: 0.8"/>
      </g>
     </g>
     <g id="text_13">
      <!-- $\mathdefault{10^{-1}}$ -->
      <g transform="translate(52.319124 35.579435) scale(0.2 -0.2)">
       <use xlink:href="#CMR17-31" transform="scale(0.996264)"/>
       <use xlink:href="#CMR17-30" transform="translate(45.690477 0) scale(0.996264)"/>
       <use xlink:href="#CMSY10-0" transform="translate(91.380954 36.153639) scale(0.697382)"/>
       <use xlink:href="#CMR17-31" transform="translate(145.621947 36.153639) scale(0.697382)"/>
      </g>
     </g>
    </g>
    <g id="text_14">
     <!-- Decay rate (eigenvalue), $\gamma_m$ -->
     <g transform="translate(36.526022 280.113811) rotate(-90) scale(0.2 -0.2)">
      <defs>
       <path id="CMR17-44" d="M 333 4352 
L 333 4186 
C 774 4186 845 4186 845 3900 
L 845 452 
C 845 166 774 166 333 166 
L 333 0 
L 2368 0 
C 3398 0 4224 943 4224 2141 
C 4224 3346 3411 4352 2368 4352 
L 333 4352 
z
M 1523 166 
C 1267 166 1254 197 1254 414 
L 1254 3938 
C 1254 4155 1267 4186 1523 4186 
L 2240 4186 
C 2771 4186 3750 3874 3750 2141 
C 3750 1242 3488 879 3366 707 
C 3213 510 2848 166 2240 166 
L 1523 166 
z
" transform="scale(0.015625)"/>
       <path id="CMR17-63" d="M 2234 2240 
C 2112 2240 1933 2240 1933 2017 
C 1933 1838 2080 1787 2163 1787 
C 2208 1787 2394 1807 2394 2024 
C 2394 2467 1958 2803 1466 2803 
C 787 2803 211 2178 211 1363 
C 211 516 813 -64 1466 -64 
C 2259 -64 2458 677 2458 748 
C 2458 774 2451 793 2406 793 
C 2362 793 2355 787 2330 703 
C 2163 180 1798 51 1523 51 
C 1114 51 621 427 621 1369 
C 621 2338 1094 2688 1472 2688 
C 1722 2688 2093 2573 2234 2240 
z
" transform="scale(0.015625)"/>
       <path id="CMR17-79" d="M 2496 2197 
C 2656 2586 2944 2586 3034 2586 
L 3034 2752 
C 2912 2752 2752 2752 2630 2752 
C 2496 2752 2285 2752 2157 2758 
L 2157 2592 
C 2400 2573 2406 2394 2406 2343 
C 2406 2280 2394 2248 2362 2171 
L 1664 449 
L 902 2306 
C 870 2382 870 2426 870 2433 
C 870 2573 1018 2586 1171 2586 
L 1171 2758 
C 1018 2752 742 2752 582 2752 
C 410 2752 205 2752 64 2758 
L 64 2586 
C 410 2586 448 2554 531 2350 
L 1485 15 
C 1197 -738 1030 -1178 627 -1178 
C 557 -1178 397 -1159 282 -1044 
C 429 -1031 493 -942 493 -833 
C 493 -725 416 -629 288 -629 
C 147 -629 77 -725 77 -840 
C 77 -1095 339 -1280 627 -1280 
C 998 -1280 1229 -922 1357 -604 
L 2496 2197 
z
" transform="scale(0.015625)"/>
       <path id="CMR17-28" d="M 1958 -1561 
C 1958 -1555 1958 -1542 1939 -1523 
C 1645 -1224 858 -407 858 1581 
C 858 3569 1632 4379 1946 4697 
C 1946 4704 1958 4717 1958 4736 
C 1958 4755 1939 4768 1914 4768 
C 1843 4768 1299 4296 986 3594 
C 666 2887 576 2199 576 1588 
C 576 1128 621 351 1005 -471 
C 1312 -1135 1837 -1600 1914 -1600 
C 1946 -1600 1958 -1587 1958 -1561 
z
" transform="scale(0.015625)"/>
       <path id="CMR17-69" d="M 992 3909 
C 992 4049 877 4170 730 4170 
C 589 4170 467 4056 467 3909 
C 467 3769 582 3648 730 3648 
C 870 3648 992 3763 992 3909 
z
M 243 2706 
L 243 2541 
C 602 2541 653 2502 653 2197 
L 653 427 
C 653 184 627 153 218 153 
L 218 -13 
C 371 0 646 0 806 0 
C 960 0 1222 0 1370 -13 
L 1370 153 
C 992 153 979 191 979 420 
L 979 2776 
L 243 2706 
z
" transform="scale(0.015625)"/>
       <path id="CMR17-67" d="M 710 1164 
C 832 1068 1043 960 1299 960 
C 1805 960 2240 1357 2240 1888 
C 2240 2054 2189 2310 1997 2509 
C 2176 2692 2438 2752 2586 2752 
C 2611 2752 2650 2752 2682 2734 
C 2656 2728 2598 2703 2598 2605 
C 2598 2527 2656 2471 2739 2471 
C 2835 2471 2886 2533 2886 2614 
C 2886 2731 2790 2854 2586 2854 
C 2330 2854 2106 2738 1926 2580 
C 1734 2753 1504 2816 1299 2816 
C 794 2816 358 2419 358 1888 
C 358 1522 570 1292 634 1228 
C 442 1004 442 743 442 711 
C 442 545 506 302 723 168 
C 390 85 128 -169 128 -486 
C 128 -943 736 -1280 1466 -1280 
C 2170 -1280 2803 -956 2803 -479 
C 2803 384 1856 384 1363 384 
C 1216 384 954 384 922 391 
C 723 423 589 602 589 826 
C 589 883 589 1024 710 1164 
z
M 1299 1068 
C 736 1068 736 1760 736 1889 
C 736 2016 736 2708 1299 2708 
C 1862 2708 1862 2016 1862 1889 
C 1862 1760 1862 1068 1299 1068 
z
M 1466 -1171 
C 826 -1171 384 -835 384 -486 
C 384 -289 493 -105 634 -4 
C 794 104 858 104 1293 104 
C 1818 104 2547 104 2547 -486 
C 2547 -835 2106 -1171 1466 -1171 
z
" transform="scale(0.015625)"/>
       <path id="CMR17-6e" d="M 2656 1933 
C 2656 2259 2592 2790 1837 2790 
C 1331 2790 1069 2400 973 2144 
L 966 2144 
L 966 2790 
L 211 2720 
L 211 2554 
C 589 2554 646 2515 646 2208 
L 646 428 
C 646 184 621 153 211 153 
L 211 -13 
C 365 0 646 0 813 0 
C 979 0 1267 0 1421 -13 
L 1421 153 
C 1011 153 986 178 986 428 
L 986 1658 
C 986 2247 1344 2688 1792 2688 
C 2266 2688 2317 2266 2317 1958 
L 2317 428 
C 2317 184 2291 153 1882 153 
L 1882 -13 
C 2035 0 2317 0 2483 0 
C 2650 0 2938 0 3091 -13 
L 3091 153 
C 2682 153 2656 178 2656 428 
L 2656 1933 
z
" transform="scale(0.015625)"/>
       <path id="CMR17-76" d="M 2502 2163 
C 2560 2304 2662 2560 3034 2560 
L 3034 2726 
C 2912 2726 2752 2726 2630 2726 
C 2496 2726 2285 2726 2157 2732 
L 2157 2566 
C 2317 2553 2406 2477 2406 2311 
C 2406 2253 2406 2240 2368 2151 
L 1664 377 
L 902 2286 
C 864 2369 864 2381 864 2407 
C 864 2560 1075 2560 1171 2560 
L 1171 2732 
C 1018 2726 736 2726 576 2726 
C 403 2726 205 2726 64 2732 
L 64 2560 
C 307 2560 442 2560 518 2362 
L 1446 44 
C 1485 -51 1491 -64 1549 -64 
C 1606 -64 1613 -51 1651 44 
L 2502 2163 
z
" transform="scale(0.015625)"/>
       <path id="CMR17-6c" d="M 979 4396 
L 218 4326 
L 218 4160 
C 595 4160 653 4122 653 3817 
L 653 426 
C 653 184 627 153 218 153 
L 218 -13 
C 371 0 653 0 813 0 
C 979 0 1261 0 1414 -13 
L 1414 153 
C 1005 153 979 178 979 426 
L 979 4396 
z
" transform="scale(0.015625)"/>
       <path id="CMR17-29" d="M 1683 1581 
C 1683 2040 1638 2817 1254 3639 
C 947 4303 422 4768 346 4768 
C 326 4768 301 4761 301 4729 
C 301 4717 307 4710 314 4697 
C 621 4378 1402 3568 1402 1584 
C 1402 -407 627 -1217 314 -1537 
C 307 -1549 301 -1556 301 -1568 
C 301 -1600 326 -1600 346 -1600 
C 416 -1600 960 -1128 1274 -426 
C 1594 281 1683 969 1683 1581 
z
" transform="scale(0.015625)"/>
       <path id="CMMI12-d" d="M 2419 760 
C 2406 1071 2394 1561 2150 2133 
C 2022 2452 1805 2788 1338 2788 
C 550 2788 122 1790 122 1625 
C 122 1567 166 1567 186 1567 
C 243 1567 243 1580 275 1663 
C 410 2057 819 2368 1261 2368 
C 2150 2368 2278 1383 2278 754 
C 2278 352 2234 220 2195 92 
C 2074 -302 1862 -1090 1862 -1268 
C 1862 -1319 1882 -1376 1933 -1376 
C 2029 -1376 2086 -1166 2157 -912 
C 2310 -353 2349 -73 2381 181 
C 2400 334 2765 1384 3270 2382 
C 3315 2483 3405 2655 3405 2674 
C 3405 2680 3398 2725 3341 2725 
C 3328 2725 3296 2725 3283 2699 
C 3270 2687 3046 2254 2854 1822 
C 2758 1606 2630 1320 2419 760 
z
" transform="scale(0.015625)"/>
       <path id="CMMI12-6d" d="M 1318 1871 
C 1331 1910 1491 2229 1728 2433 
C 1894 2586 2112 2689 2362 2689 
C 2618 2689 2707 2497 2707 2242 
C 2707 2203 2707 2076 2630 1775 
L 2470 1118 
C 2419 926 2298 453 2285 383 
C 2259 287 2221 121 2221 96 
C 2221 6 2291 -64 2387 -64 
C 2579 -64 2611 83 2669 313 
L 3053 1839 
C 3066 1890 3398 2689 4102 2689 
C 4358 2689 4448 2497 4448 2242 
C 4448 1884 4198 1188 4058 805 
C 4000 651 3968 568 3968 453 
C 3968 166 4166 -64 4474 -64 
C 5069 -64 5293 875 5293 913 
C 5293 945 5267 971 5229 971 
C 5171 971 5165 952 5133 843 
C 4986 332 4749 64 4493 64 
C 4429 64 4326 64 4326 269 
C 4326 436 4403 640 4429 710 
C 4544 1018 4832 1773 4832 2145 
C 4832 2528 4608 2816 4122 2816 
C 3693 2816 3347 2574 3091 2197 
C 3072 2542 2861 2816 2381 2816 
C 1811 2816 1510 2415 1395 2255 
C 1376 2618 1114 2816 832 2816 
C 646 2816 499 2727 378 2484 
C 262 2254 173 1865 173 1839 
C 173 1814 198 1782 243 1782 
C 294 1782 301 1788 339 1935 
C 435 2312 557 2689 813 2689 
C 960 2689 1011 2586 1011 2395 
C 1011 2254 947 2005 902 1807 
L 723 1118 
C 698 996 627 709 595 594 
C 550 428 480 128 480 96 
C 480 6 550 -64 646 -64 
C 723 -64 813 -26 864 70 
C 877 102 934 326 966 453 
L 1107 1028 
L 1318 1871 
z
" transform="scale(0.015625)"/>
      </defs>
      <use xlink:href="#CMR17-44" transform="scale(0.996264)"/>
      <use xlink:href="#CMR17-65" transform="translate(70.393556 0) scale(0.996264)"/>
      <use xlink:href="#CMR17-63" transform="translate(110.879216 0) scale(0.996264)"/>
      <use xlink:href="#CMR17-61" transform="translate(151.364877 0) scale(0.996264)"/>
      <use xlink:href="#CMR17-79" transform="translate(194.4529 0) scale(0.996264)"/>
      <use xlink:href="#CMR17-72" transform="translate(272.821782 0) scale(0.996264)"/>
      <use xlink:href="#CMR17-61" transform="translate(308.10255 0) scale(0.996264)"/>
      <use xlink:href="#CMR17-74" transform="translate(353.793027 0) scale(0.996264)"/>
      <use xlink:href="#CMR17-65" transform="translate(389.073795 0) scale(0.996264)"/>
      <use xlink:href="#CMR17-28" transform="translate(459.635422 0) scale(0.996264)"/>
      <use xlink:href="#CMR17-65" transform="translate(494.91619 0) scale(0.996264)"/>
      <use xlink:href="#CMR17-69" transform="translate(535.40185 0) scale(0.996264)"/>
      <use xlink:href="#CMR17-67" transform="translate(560.272908 0) scale(0.996264)"/>
      <use xlink:href="#CMR17-65" transform="translate(605.963386 0) scale(0.996264)"/>
      <use xlink:href="#CMR17-6e" transform="translate(646.449046 0) scale(0.996264)"/>
      <use xlink:href="#CMR17-76" transform="translate(694.741962 0) scale(0.996264)"/>
      <use xlink:href="#CMR17-61" transform="translate(737.830061 0) scale(0.996264)"/>
      <use xlink:href="#CMR17-6c" transform="translate(783.520538 0) scale(0.996264)"/>
      <use xlink:href="#CMR17-75" transform="translate(808.391597 0) scale(0.996264)"/>
      <use xlink:href="#CMR17-65" transform="translate(859.286966 0) scale(0.996264)"/>
      <use xlink:href="#CMR17-29" transform="translate(899.772627 0) scale(0.996264)"/>
      <use xlink:href="#CMR17-2c" transform="translate(935.053395 0) scale(0.996264)"/>
      <use xlink:href="#CMMI12-d" transform="translate(990.00042 0) scale(0.996264)"/>
      <use xlink:href="#CMMI12-6d" transform="translate(1040.599552 -14.943915) scale(0.697382)"/>
     </g>
    </g>
   </g>
   <g id="line2d_45">
    <path d="M 121.797122 307.801961 
L 130.638842 318.562089 
L 157.164002 286.537586 
L 166.005722 289.58377 
L 192.530882 281.346483 
L 200.231964 252.756464 
L 212.383371 248.486574 
L 221.808734 234.061339 
L 231.234097 242.697924 
L 260.511949 230.490022 
L 319.067653 179.986827 
L 333.279908 174.623476 
" clip-path="url(#p281a166aec)" style="fill: none; stroke: #ee82ee; stroke-width: 3.5; stroke-linecap: square"/>
   </g>
   <g id="line2d_46">
    <path d="M 95.271963 186.15089 
L 104.113682 184.495856 
L 112.955402 182.933304 
L 121.797122 182.210764 
L 130.638842 177.791229 
L 139.480562 174.922119 
L 148.322282 171.330432 
L 157.164002 166.563915 
L 166.005722 161.393817 
L 174.847442 157.002752 
L 183.689162 152.825258 
L 192.530882 148.18865 
L 200.231964 143.722667 
L 212.383371 137.498757 
L 221.808734 132.796355 
L 231.234097 128.201947 
L 245.446352 121.324095 
L 260.511949 114.060897 
L 274.724204 107.119192 
L 289.789801 100.769345 
L 304.002056 94.260143 
L 319.067653 87.496944 
L 333.279908 81.656843 
L 348.345505 75.371768 
L 362.55776 69.743794 
L 377.623357 64.219838 
L 391.835612 59.05434 
L 406.901209 53.771379 
L 421.113464 49.604251 
L 436.179061 45.332966 
L 450.391316 40.950732 
L 465.456913 35.849956 
L 479.669167 30.419406 
L 494.734765 24.174878 
" clip-path="url(#p281a166aec)" style="fill: none; stroke: #ff6600; stroke-width: 1.3; stroke-linecap: square"/>
   </g>
   <g id="line2d_47">
    <path d="M 104.113682 303.155901 
L 112.955402 290.997202 
L 121.797122 284.82986 
L 130.638842 275.103702 
L 139.480562 268.009776 
L 148.322282 259.646656 
L 157.164002 249.569449 
L 166.005722 240.78514 
L 174.847442 233.277492 
L 183.689162 225.49431 
L 192.530882 216.585221 
L 200.231964 208.350902 
L 212.383371 197.160598 
L 221.808734 188.287133 
L 231.234097 180.145579 
L 245.446352 167.647561 
L 260.511949 154.399497 
L 274.724204 141.716701 
L 289.789801 130.201924 
L 304.002056 118.488533 
L 319.067653 106.43065 
L 333.279908 96.324263 
L 348.345505 85.836518 
L 362.55776 76.867168 
L 377.623357 68.630288 
L 391.835612 61.49742 
L 406.901209 54.832323 
L 421.113464 49.920449 
L 436.179061 45.071123 
L 450.391316 40.276764 
L 465.456913 34.823181 
L 479.669167 29.056455 
L 494.734765 22.29062 
" clip-path="url(#p281a166aec)" style="fill: none; stroke: #3380ff; stroke-width: 2; stroke-linecap: square"/>
   </g>
   <g id="line2d_48">
    <path d="M 95.271963 185.365019 
L 104.113682 184.317068 
L 112.955402 182.320079 
L 121.797122 181.423788 
L 130.638842 176.570928 
L 139.480562 173.556429 
L 148.322282 169.480596 
L 157.164002 164.475702 
L 166.005722 159.498129 
L 174.847442 155.07438 
L 183.689162 150.935354 
L 192.530882 146.213286 
L 200.231964 141.80452 
L 212.383371 135.567436 
L 221.808734 130.914555 
L 231.234097 126.304523 
L 245.446352 119.386736 
L 260.511949 112.212616 
L 274.724204 105.28209 
L 289.789801 98.925853 
L 304.002056 92.493332 
L 319.067653 85.792401 
L 333.279908 80.063581 
L 348.345505 74.00082 
L 362.55776 68.625902 
L 377.623357 63.484379 
L 391.835612 58.584165 
L 406.901209 53.45302 
L 421.113464 49.106253 
L 436.179061 44.456575 
L 450.391316 39.723021 
L 465.456913 34.291573 
L 479.669167 28.528898 
L 494.734765 21.728466 
" clip-path="url(#p281a166aec)" style="fill: none; stroke: #ff5500; stroke-width: 1.3; stroke-linecap: square"/>
   </g>
   <g id="line2d_49">
    <path d="M 95.271963 277.688494 
L 104.113682 273.44417 
L 112.955402 268.365068 
L 121.797122 264.674947 
L 130.638842 255.229925 
L 139.480562 248.07161 
L 148.322282 239.829922 
L 157.164002 230.15975 
L 166.005722 221.08116 
L 174.847442 213.438453 
L 183.689162 205.77458 
L 192.530882 197.296297 
L 200.231964 189.231091 
L 212.383371 178.166859 
L 221.808734 169.607959 
L 231.234097 161.633788 
L 245.446352 149.584296 
L 260.511949 137.029887 
L 274.724204 125.162048 
L 289.789801 114.690859 
L 304.002056 104.349198 
L 319.067653 94.100822 
L 333.279908 85.816358 
L 348.345505 77.524063 
L 362.55776 70.609775 
L 377.623357 64.336377 
L 391.835612 58.822045 
L 406.901209 53.363163 
L 421.113464 48.885971 
L 436.179061 44.200507 
L 450.391316 39.48507 
L 465.456913 34.085627 
L 479.669167 28.394153 
L 494.734765 21.646236 
" clip-path="url(#p281a166aec)" style="fill: none; stroke: #2d76f2; stroke-width: 2; stroke-linecap: square"/>
   </g>
   <g id="line2d_50">
    <path d="M 95.271963 184.718216 
L 104.113682 183.560231 
L 112.955402 181.658946 
L 121.797122 180.594675 
L 130.638842 175.880461 
L 139.480562 172.400402 
L 148.322282 168.499726 
L 157.164002 163.820519 
L 166.005722 158.695371 
L 174.847442 154.289747 
L 183.689162 150.11025 
L 192.530882 145.452132 
L 200.231964 140.960064 
L 212.383371 134.652012 
L 221.808734 130.089026 
L 231.234097 125.418893 
L 245.446352 118.553281 
L 260.511949 111.344483 
L 274.724204 104.434394 
L 289.789801 98.123336 
L 304.002056 91.751516 
L 319.067653 85.184892 
L 333.279908 79.587844 
L 348.345505 73.684907 
L 362.55776 68.42318 
L 377.623357 63.296291 
L 391.835612 58.327717 
L 406.901209 53.106688 
L 421.113464 48.694936 
L 436.179061 44.049514 
L 450.391316 39.380431 
L 465.456913 33.996144 
L 479.669167 28.368726 
L 494.734765 21.619705 
" clip-path="url(#p281a166aec)" style="fill: none; stroke: #ff4400; stroke-width: 1.3; stroke-linecap: square"/>
   </g>
   <g id="line2d_51">
    <path d="M 95.271963 261.859549 
L 104.113682 259.929611 
L 112.955402 255.151521 
L 121.797122 251.788281 
L 130.638842 242.618357 
L 139.480562 235.47282 
L 148.322282 227.359845 
L 157.164002 217.919086 
L 166.005722 208.915033 
L 174.847442 201.296723 
L 183.689162 193.72881 
L 192.530882 185.441682 
L 200.231964 177.562295 
L 212.383371 166.766514 
L 221.808734 158.502514 
L 231.234097 150.827006 
L 245.446352 139.367062 
L 260.511949 127.633908 
L 274.724204 116.777434 
L 289.789801 107.41341 
L 304.002056 98.375928 
L 319.067653 89.566129 
L 333.279908 82.452265 
L 348.345505 75.285106 
L 362.55776 69.206362 
L 377.623357 63.541069 
L 391.835612 58.353676 
L 406.901209 53.038583 
L 421.113464 48.604681 
L 436.179061 43.962375 
L 450.391316 39.312031 
L 465.456913 33.955425 
L 479.669167 28.340019 
L 494.734765 21.608826 
" clip-path="url(#p281a166aec)" style="fill: none; stroke: #266ce6; stroke-width: 2; stroke-linecap: square"/>
   </g>
   <g id="line2d_52">
    <path d="M 95.271963 184.492715 
L 104.113682 183.183788 
L 112.955402 181.212276 
L 121.797122 180.153788 
L 130.638842 175.536456 
L 139.480562 172.116595 
L 148.322282 168.079293 
L 157.164002 163.198163 
L 166.005722 157.991664 
L 174.847442 153.721321 
L 183.689162 149.525544 
L 192.530882 144.807042 
L 200.231964 140.440874 
L 212.383371 134.207843 
L 221.808734 129.558012 
L 231.234097 124.867621 
L 245.446352 118.054929 
L 260.511949 110.869087 
L 274.724204 103.963975 
L 289.789801 97.734781 
L 304.002056 91.449427 
L 319.067653 84.966883 
L 333.279908 79.443454 
L 348.345505 73.550627 
L 362.55776 68.273139 
L 377.623357 63.164502 
L 391.835612 58.213757 
L 406.901209 52.957024 
L 421.113464 48.538783 
L 436.179061 43.916732 
L 450.391316 39.287934 
L 465.456913 33.934718 
L 479.669167 28.341086 
L 494.734765 21.605461 
" clip-path="url(#p281a166aec)" style="fill: none; stroke: #fe3300; stroke-width: 1.3; stroke-linecap: square"/>
   </g>
   <g id="line2d_53">
    <path d="M 95.271963 251.915695 
L 104.113682 250.353205 
L 112.955402 245.689856 
L 121.797122 242.527553 
L 130.638842 233.454494 
L 139.480562 226.415948 
L 148.322282 218.427269 
L 157.164002 209.128847 
L 166.005722 200.190626 
L 174.847442 192.658366 
L 183.689162 185.235288 
L 192.530882 177.145566 
L 200.231964 169.461858 
L 212.383371 159.009058 
L 221.808734 151.073533 
L 231.234097 143.750877 
L 245.446352 132.96161 
L 260.511949 122.092897 
L 274.724204 112.210094 
L 289.789801 103.774409 
L 304.002056 95.670355 
L 319.067653 87.712949 
L 333.279908 81.17648 
L 348.345505 74.4589 
L 362.55776 68.673152 
L 377.623357 63.256259 
L 391.835612 58.195495 
L 406.901209 52.916786 
L 421.113464 48.500003 
L 436.179061 43.886972 
L 450.391316 39.264536 
L 465.456913 33.923933 
L 479.669167 28.329998 
L 494.734765 21.60206 
" clip-path="url(#p281a166aec)" style="fill: none; stroke: #2063d9; stroke-width: 2; stroke-linecap: square"/>
   </g>
   <g id="line2d_54">
    <path d="M 95.271963 184.434184 
L 104.113682 182.954142 
L 112.955402 181.153801 
L 121.797122 180.146554 
L 130.638842 175.245267 
L 139.480562 171.7093 
L 148.322282 167.680044 
L 157.164002 162.768094 
L 166.005722 157.800464 
L 174.847442 153.380227 
L 183.689162 149.181084 
L 192.530882 144.543031 
L 200.231964 140.11003 
L 212.383371 133.867008 
L 221.808734 129.263794 
L 231.234097 124.558532 
L 245.446352 117.68356 
L 260.511949 110.531881 
L 274.724204 103.706071 
L 289.789801 97.528632 
L 304.002056 91.294687 
L 319.067653 84.871293 
L 333.279908 79.324031 
L 348.345505 73.416957 
L 362.55776 68.205179 
L 377.623357 63.135502 
L 391.835612 58.141403 
L 406.901209 52.878183 
L 421.113464 48.472367 
L 436.179061 43.872325 
L 450.391316 39.256366 
L 465.456913 33.918407 
L 479.669167 28.330579 
L 494.734765 21.604416 
" clip-path="url(#p281a166aec)" style="fill: none; stroke: #ee2600; stroke-width: 1.3; stroke-linecap: square"/>
   </g>
   <g id="line2d_55">
    <path d="M 95.271963 244.452433 
L 104.113682 242.963162 
L 112.955402 238.382483 
L 121.797122 235.33577 
L 130.638842 226.390326 
L 139.480562 219.386008 
L 148.322282 211.496129 
L 157.164002 202.37197 
L 166.005722 193.544489 
L 174.847442 186.114497 
L 183.689162 178.839758 
L 192.530882 170.9658 
L 200.231964 163.512955 
L 212.383371 153.43841 
L 221.808734 145.863072 
L 231.234097 138.916843 
L 245.446352 128.806325 
L 260.511949 118.734357 
L 274.724204 109.647337 
L 289.789801 101.874699 
L 304.002056 94.345238 
L 319.067653 86.817992 
L 333.279908 80.507366 
L 348.345505 73.986663 
L 362.55776 68.419027 
L 377.623357 63.158128 
L 391.835612 58.120994 
L 406.901209 52.856066 
L 421.113464 48.455002 
L 436.179061 43.85922 
L 450.391316 39.249114 
L 465.456913 33.914578 
L 479.669167 28.32762 
L 494.734765 21.600463 
" clip-path="url(#p281a166aec)" style="fill: none; stroke: #1a59cc; stroke-width: 2; stroke-linecap: square"/>
   </g>
   <g id="line2d_56">
    <path d="M 95.271963 183.985931 
L 104.113682 182.683206 
L 112.955402 180.914927 
L 121.797122 179.810218 
L 130.638842 175.094181 
L 139.480562 171.536446 
L 148.322282 167.446951 
L 157.164002 162.620564 
L 166.005722 157.408742 
L 174.847442 153.080717 
L 183.689162 148.892835 
L 192.530882 144.246821 
L 200.231964 139.81921 
L 212.383371 133.579375 
L 221.808734 128.981285 
L 231.234097 124.26322 
L 245.446352 117.452948 
L 260.511949 110.332979 
L 274.724204 103.561 
L 289.789801 97.444635 
L 304.002056 91.23394 
L 319.067653 84.774534 
L 333.279908 79.199257 
L 348.345505 73.34814 
L 362.55776 68.215794 
L 377.623357 63.111888 
L 391.835612 58.093441 
L 406.901209 52.836392 
L 421.113464 48.442513 
L 436.179061 43.857828 
L 450.391316 39.251597 
L 465.456913 33.913866 
L 479.669167 28.33346 
L 494.734765 21.715619 
" clip-path="url(#p281a166aec)" style="fill: none; stroke: #dd1a00; stroke-width: 1.3; stroke-linecap: square"/>
   </g>
   <g id="line2d_57">
    <path d="M 95.271963 238.468469 
L 104.113682 237.003698 
L 112.955402 232.478913 
L 121.797122 229.494915 
L 130.638842 220.645718 
L 139.480562 213.694149 
L 148.322282 205.92689 
L 157.164002 196.96728 
L 166.005722 188.26278 
L 174.847442 180.957784 
L 183.689162 173.858718 
L 192.530882 166.212809 
L 200.231964 159.013786 
L 212.383371 149.339106 
L 221.808734 142.131876 
L 231.234097 135.555845 
L 245.446352 126.069189 
L 260.511949 116.661486 
L 274.724204 108.162779 
L 289.789801 100.820426 
L 304.002056 93.595149 
L 319.067653 86.238344 
L 333.279908 80.045179 
L 348.345505 73.714345 
L 362.55776 68.322847 
L 377.623357 63.112004 
L 391.835612 58.081057 
L 406.901209 52.824988 
L 421.113464 48.4348 
L 436.179061 43.84862 
L 450.391316 39.243902 
L 465.456913 33.911524 
L 479.669167 28.326973 
L 494.734765 21.600056 
" clip-path="url(#p281a166aec)" style="fill: none; stroke: #1350bf; stroke-width: 2; stroke-linecap: square"/>
   </g>
   <g id="line2d_58">
    <path d="M 95.271963 184.021812 
L 104.113682 182.822561 
L 112.955402 180.78221 
L 121.797122 179.499998 
L 130.638842 174.938919 
L 139.480562 171.225351 
L 148.322282 167.233129 
L 157.164002 162.467761 
L 166.005722 157.235501 
L 174.847442 152.850386 
L 183.689162 148.67296 
L 192.530882 144.006158 
L 200.231964 139.593644 
L 212.383371 133.363555 
L 221.808734 128.741337 
L 231.234097 124.056792 
L 245.446352 117.280194 
L 260.511949 110.22511 
L 274.724204 103.492865 
L 289.789801 97.394683 
L 304.002056 91.158603 
L 319.067653 84.651538 
L 333.279908 79.11057 
L 348.345505 73.346436 
L 362.55776 68.238719 
L 377.623357 63.087704 
L 391.835612 58.065113 
L 406.901209 52.814964 
L 421.113464 48.430348 
L 436.179061 43.857167 
L 450.391316 39.253322 
L 465.456913 33.913749 
L 479.669167 28.341261 
L 494.734765 21.604965 
" clip-path="url(#p281a166aec)" style="fill: none; stroke: #cc0d00; stroke-width: 1.3; stroke-linecap: square"/>
   </g>
   <g id="line2d_59">
    <path d="M 95.271963 233.450308 
L 104.113682 232.003031 
L 112.955402 227.517874 
L 121.797122 224.601192 
L 130.638842 215.84182 
L 139.480562 208.977574 
L 148.322282 201.3305 
L 157.164002 192.530327 
L 166.005722 183.968649 
L 174.847442 176.808926 
L 183.689162 169.902234 
L 192.530882 162.489902 
L 200.231964 155.5582 
L 212.383371 146.28379 
L 221.808734 139.43274 
L 231.234097 133.196575 
L 245.446352 124.243702 
L 260.511949 115.354184 
L 274.724204 107.260878 
L 289.789801 100.160647 
L 304.002056 93.060025 
L 319.067653 85.797525 
L 333.279908 79.731588 
L 348.345505 73.574636 
L 362.55776 68.291493 
L 377.623357 63.081833 
L 391.835612 58.057721 
L 406.901209 52.809295 
L 421.113464 48.425684 
L 436.179061 43.844561 
L 450.391316 39.241998 
L 465.456913 33.910426 
L 479.669167 28.326674 
L 494.734765 21.6 
" clip-path="url(#p281a166aec)" style="fill: none; stroke: #0d46b2; stroke-width: 2; stroke-linecap: square"/>
   </g>
   <g id="line2d_60">
    <path d="M 95.271963 183.683684 
L 104.113682 182.476129 
L 112.955402 180.751634 
L 121.797122 179.512958 
L 130.638842 174.788562 
L 139.480562 171.074881 
L 148.322282 166.938849 
L 157.164002 162.100617 
L 166.005722 157.007302 
L 174.847442 152.590895 
L 183.689162 148.436053 
L 192.530882 143.785562 
L 200.231964 139.431713 
L 212.383371 133.167326 
L 221.808734 128.621139 
L 231.234097 123.893099 
L 245.446352 117.207223 
L 260.511949 110.169907 
L 274.724204 103.452644 
L 289.789801 97.338461 
L 304.002056 91.063435 
L 319.067653 84.560229 
L 333.279908 79.08768 
L 348.345505 73.365727 
L 362.55776 68.258663 
L 377.623357 63.068255 
L 391.835612 58.046278 
L 406.901209 52.803864 
L 421.113464 48.423078 
L 436.179061 43.847956 
L 450.391316 39.24273 
L 465.456913 33.910948 
L 479.669167 28.33086 
L 494.734765 21.60246 
" clip-path="url(#p281a166aec)" style="fill: none; stroke: #b30908; stroke-width: 1.3; stroke-linecap: square"/>
   </g>
   <g id="line2d_61">
    <path d="M 95.271963 183.867955 
L 104.113682 182.562887 
L 112.955402 180.560006 
L 121.797122 179.385067 
L 130.638842 174.562237 
L 139.480562 170.973807 
L 148.322282 166.752174 
L 157.164002 162.003261 
L 166.005722 156.934688 
L 174.847442 152.520241 
L 183.689162 148.351846 
L 192.530882 143.731812 
L 200.231964 139.288501 
L 212.383371 133.017917 
L 221.808734 128.489748 
L 231.234097 123.826967 
L 245.446352 117.114339 
L 260.511949 110.15121 
L 274.724204 103.427928 
L 289.789801 97.248246 
L 304.002056 90.954851 
L 319.067653 84.507459 
L 333.279908 79.075204 
L 348.345505 73.396332 
L 362.55776 68.267928 
L 377.623357 63.056189 
L 391.835612 58.03598 
L 406.901209 52.798418 
L 421.113464 48.421139 
L 436.179061 43.843155 
L 450.391316 39.247186 
L 465.456913 33.910798 
L 479.669167 28.337546 
L 494.734765 21.601072 
" clip-path="url(#p281a166aec)" style="fill: none; stroke: #990411; stroke-width: 1.3; stroke-linecap: square"/>
   </g>
   <g id="line2d_62">
    <path d="M 95.271963 225.453142 
L 104.113682 224.02436 
L 112.955402 219.627812 
L 121.797122 216.840176 
L 130.638842 208.263129 
L 139.480562 201.581467 
L 148.322282 194.183006 
L 157.164002 185.707599 
L 166.005722 177.470861 
L 174.847442 170.63915 
L 183.689162 164.146672 
L 192.530882 157.200197 
L 200.231964 150.796164 
L 212.383371 142.259774 
L 221.808734 136.02713 
L 231.234097 130.335362 
L 245.446352 122.157448 
L 260.511949 113.914619 
L 274.724204 106.201127 
L 289.789801 99.253643 
L 304.002056 92.279447 
L 319.067653 85.228264 
L 333.279908 79.399588 
L 348.345505 73.485217 
L 362.55776 68.275078 
L 377.623357 63.055314 
L 391.835612 58.033874 
L 406.901209 52.797069 
L 421.113464 48.419755 
L 436.179061 43.842249 
L 450.391316 39.241134 
L 465.456913 33.909771 
L 479.669167 28.326726 
L 494.734765 21.600887 
" clip-path="url(#p281a166aec)" style="fill: none; stroke: #003399; stroke-width: 2; stroke-linecap: square"/>
   </g>
   <g id="line2d_63">
    <path d="M 95.271963 183.590972 
L 104.113682 182.230305 
L 112.955402 180.58593 
L 121.797122 179.306503 
L 130.638842 174.64584 
L 139.480562 170.862229 
L 148.322282 166.620083 
L 157.164002 161.988293 
L 166.005722 156.648344 
L 174.847442 152.277946 
L 183.689162 148.135348 
L 192.530882 143.435905 
L 200.231964 139.135043 
L 212.383371 132.953284 
L 221.808734 128.412621 
L 231.234097 123.78797 
L 245.446352 117.097932 
L 260.511949 110.113206 
L 274.724204 103.368935 
L 289.789801 97.167457 
L 304.002056 90.887278 
L 319.067653 84.476077 
L 333.279908 79.084984 
L 348.345505 73.431274 
L 362.55776 68.268407 
L 377.623357 63.048284 
L 391.835612 58.030673 
L 406.901209 52.795467 
L 421.113464 48.419216 
L 436.179061 43.84943 
L 450.391316 39.250162 
L 465.456913 33.911205 
L 479.669167 28.336386 
L 494.734765 21.630163 
" clip-path="url(#p281a166aec)" style="fill: none; stroke: #800019; stroke-width: 1.3; stroke-linecap: square"/>
   </g>
   <g id="line2d_64">
    <path d="M 95.271963 275.02976 
L 104.113682 273.058072 
L 112.955402 271.086385 
L 121.797122 269.114698 
L 130.638842 267.14301 
L 139.480562 265.171323 
L 148.322282 263.199635 
L 157.164002 261.227948 
L 166.005722 259.256261 
L 174.847442 257.284573 
L 183.689162 255.312886 
L 192.530882 253.341198 
L 200.231964 251.623871 
L 212.383371 248.91413 
L 221.808734 246.812291 
L 231.234097 244.710452 
L 245.446352 241.541145 
L 260.511949 238.181544 
L 274.724204 235.012238 
L 289.789801 231.652637 
L 304.002056 228.48333 
L 319.067653 225.123729 
L 333.279908 221.954422 
L 348.345505 218.594822 
L 362.55776 215.425515 
L 377.623357 212.065914 
L 391.835612 208.896607 
L 406.901209 205.537007 
L 421.113464 202.3677 
L 436.179061 199.008099 
L 450.391316 195.838792 
L 465.456913 192.479191 
L 479.669167 189.309885 
L 494.734765 185.950284 
" clip-path="url(#p281a166aec)" style="fill: none; stroke-dasharray: 3.5,5.775; stroke-dashoffset: 0; stroke: #006400; stroke-opacity: 0.8; stroke-width: 3.5"/>
   </g>
   <g id="line2d_65">
    <path d="M 95.271963 319.569498 
L 104.113682 315.626123 
L 112.955402 311.682748 
L 121.797122 307.739373 
L 130.638842 303.795999 
L 139.480562 299.852624 
L 148.322282 295.909249 
L 157.164002 291.965874 
L 166.005722 288.022499 
L 174.847442 284.079124 
L 183.689162 280.13575 
L 192.530882 276.192375 
L 200.231964 272.75772 
L 212.383371 267.338237 
L 221.808734 263.13456 
L 231.234097 258.930882 
L 245.446352 252.592268 
L 260.511949 245.873067 
L 274.724204 239.534453 
L 289.789801 232.815252 
L 304.002056 226.476638 
L 319.067653 219.757437 
L 333.279908 213.418823 
L 348.345505 206.699622 
L 362.55776 200.361008 
L 377.623357 193.641806 
L 391.835612 187.303193 
L 406.901209 180.583991 
L 421.113464 174.245378 
L 436.179061 167.526176 
L 450.391316 161.187562 
L 465.456913 154.468361 
L 479.669167 148.129747 
L 494.734765 141.410546 
" clip-path="url(#p281a166aec)" style="fill: none; stroke-dasharray: 12.95,5.6; stroke-dashoffset: 0; stroke: #00008b; stroke-opacity: 0.8; stroke-width: 3.5"/>
   </g>
   <g id="line2d_66">
    <path d="M 116.403272 389.8 
L 121.797122 384.988725 
L 130.638842 377.101975 
L 139.480562 369.215226 
L 148.322282 361.328476 
L 157.164002 353.441726 
L 166.005722 345.554977 
L 174.847442 337.668227 
L 183.689162 329.781477 
L 192.530882 321.894728 
L 200.231964 315.025419 
L 212.383371 304.186453 
L 221.808734 295.779098 
L 231.234097 287.371742 
L 245.446352 274.694515 
L 260.511949 261.256112 
L 274.724204 248.578885 
L 289.789801 235.140482 
L 304.002056 222.463254 
L 319.067653 209.024852 
L 333.279908 196.347624 
L 348.345505 182.909221 
L 362.55776 170.231994 
L 377.623357 156.793591 
L 391.835612 144.116364 
L 406.901209 130.677961 
L 421.113464 118.000733 
L 436.179061 104.562331 
L 450.391316 91.885103 
L 465.456913 78.4467 
L 479.669167 65.769473 
L 494.734765 52.33107 
" clip-path="url(#p281a166aec)" style="fill: none; stroke-dasharray: 22.4,5.6,3.5,5.6; stroke-dashoffset: 0; stroke: #8b0000; stroke-opacity: 0.8; stroke-width: 3.5"/>
   </g>
   <g id="patch_3">
    <path d="M 95.271963 318.562089 
L 95.271963 21.6 
" style="fill: none; stroke: #000000; stroke-width: 0.8; stroke-linejoin: miter; stroke-linecap: square"/>
   </g>
   <g id="patch_4">
    <path d="M 494.734765 318.562089 
L 494.734765 21.6 
" style="fill: none; stroke: #000000; stroke-width: 0.8; stroke-linejoin: miter; stroke-linecap: square"/>
   </g>
   <g id="patch_5">
    <path d="M 95.271963 318.562089 
L 494.734765 318.562089 
" style="fill: none; stroke: #000000; stroke-width: 0.8; stroke-linejoin: miter; stroke-linecap: square"/>
   </g>
   <g id="patch_6">
    <path d="M 95.271963 21.6 
L 494.734765 21.6 
" style="fill: none; stroke: #000000; stroke-width: 0.8; stroke-linejoin: miter; stroke-linecap: square"/>
   </g>
   <g id="legend_1">
    <g id="line2d_67">
     <path d="M 342.357325 227.678605 
L 358.357325 227.678605 
L 374.357325 227.678605 
" style="fill: none; stroke: #ee82ee; stroke-width: 3.5; stroke-linecap: square"/>
    </g>
    <g id="text_15">
     <!-- $m=1$ (relax) -->
     <g transform="translate(387.157325 233.278605) scale(0.16 -0.16)">
      <defs>
       <path id="CMR17-3d" d="M 4115 2017 
C 4211 2017 4307 2017 4307 2125 
C 4307 2240 4198 2240 4090 2240 
L 512 2240 
C 403 2240 294 2240 294 2125 
C 294 2017 390 2017 486 2017 
L 4115 2017 
z
M 4090 896 
C 4198 896 4307 896 4307 1011 
C 4307 1119 4211 1119 4115 1119 
L 486 1119 
C 390 1119 294 1119 294 1011 
C 294 896 403 896 512 896 
L 4090 896 
z
" transform="scale(0.015625)"/>
       <path id="CMR17-78" d="M 1664 1477 
C 1856 1726 2074 2006 2253 2216 
C 2464 2458 2707 2560 2989 2560 
L 2989 2726 
C 2880 2726 2656 2726 2541 2726 
C 2368 2726 2170 2726 2022 2732 
L 2022 2566 
C 2112 2553 2163 2489 2163 2400 
C 2163 2285 2099 2215 2067 2171 
L 1594 1573 
L 1030 2306 
C 973 2376 973 2388 973 2420 
C 973 2497 1037 2560 1146 2560 
L 1146 2732 
C 992 2726 717 2726 557 2726 
C 384 2726 179 2726 38 2732 
L 38 2560 
C 384 2560 461 2534 614 2343 
L 1350 1395 
C 1363 1382 1395 1344 1395 1325 
C 1395 1299 838 619 768 530 
C 480 185 179 160 6 160 
L 6 0 
C 115 0 339 0 454 0 
C 582 0 864 0 979 -6 
L 979 160 
C 941 166 838 179 838 325 
C 838 440 890 510 947 586 
L 1478 1236 
L 2035 512 
C 2086 442 2163 346 2163 301 
C 2163 211 2086 160 1984 160 
L 1984 -6 
C 2138 0 2413 0 2573 0 
C 2746 0 2950 0 3091 -6 
L 3091 160 
C 2771 160 2675 172 2522 370 
L 1664 1477 
z
" transform="scale(0.015625)"/>
      </defs>
      <use xlink:href="#CMMI12-6d" transform="scale(0.996264)"/>
      <use xlink:href="#CMR17-3d" transform="translate(113.001233 0) scale(0.996264)"/>
      <use xlink:href="#CMR17-31" transform="translate(212.39003 0) scale(0.996264)"/>
      <use xlink:href="#CMR17-28" transform="translate(288.156474 0) scale(0.996264)"/>
      <use xlink:href="#CMR17-72" transform="translate(323.437242 0) scale(0.996264)"/>
      <use xlink:href="#CMR17-65" transform="translate(358.718009 0) scale(0.996264)"/>
      <use xlink:href="#CMR17-6c" transform="translate(399.20367 0) scale(0.996264)"/>
      <use xlink:href="#CMR17-61" transform="translate(424.074728 0) scale(0.996264)"/>
      <use xlink:href="#CMR17-78" transform="translate(469.765205 0) scale(0.996264)"/>
      <use xlink:href="#CMR17-29" transform="translate(518.058121 0) scale(0.996264)"/>
     </g>
    </g>
    <g id="line2d_68">
     <path d="M 342.357325 250.863661 
L 358.357325 250.863661 
L 374.357325 250.863661 
" style="fill: none; stroke-dasharray: 3.5,5.775; stroke-dashoffset: 0; stroke: #006400; stroke-opacity: 0.8; stroke-width: 3.5"/>
    </g>
    <g id="text_16">
     <!-- $\propto T^1$ -->
     <g transform="translate(387.157325 256.463661) scale(0.16 -0.16)">
      <defs>
       <path id="CMSY10-2f" d="M 4621 205 
C 4595 205 4493 192 4474 192 
C 3968 192 3629 691 3411 1024 
C 3347 1133 3174 1395 3104 1504 
C 3258 1850 3686 2643 4448 2643 
C 4493 2643 4550 2643 4621 2624 
C 4621 2790 4614 2797 4602 2810 
C 4557 2822 4461 2829 4403 2829 
C 3590 2829 3117 2048 2963 1728 
C 2707 2118 2618 2259 2381 2458 
C 1990 2797 1638 2829 1478 2829 
C 768 2829 358 2112 358 1376 
C 358 659 755 -70 1459 -70 
C 2272 -70 2746 710 2899 1030 
C 3155 640 3245 499 3482 301 
C 3872 -38 4224 -70 4384 -70 
C 4461 -70 4563 -58 4621 -44 
L 4621 205 
z
M 2758 1254 
C 2605 909 2176 115 1414 115 
C 794 115 499 794 499 1376 
C 499 2010 858 2566 1389 2566 
C 1894 2566 2234 2067 2451 1734 
C 2515 1626 2688 1363 2758 1254 
z
" transform="scale(0.015625)"/>
      </defs>
      <use xlink:href="#CMSY10-2f" transform="scale(0.996264)"/>
      <use xlink:href="#CMMI12-54" transform="translate(105.161476 0) scale(0.996264)"/>
      <use xlink:href="#CMR17-31" transform="translate(175.885109 36.153639) scale(0.697382)"/>
     </g>
    </g>
    <g id="line2d_69">
     <path d="M 342.357325 273.163137 
L 358.357325 273.163137 
L 374.357325 273.163137 
" style="fill: none; stroke-dasharray: 12.95,5.6; stroke-dashoffset: 0; stroke: #00008b; stroke-opacity: 0.8; stroke-width: 3.5"/>
    </g>
    <g id="text_17">
     <!-- $\propto T^2$ -->
     <g transform="translate(387.157325 278.763137) scale(0.16 -0.16)">
      <use xlink:href="#CMSY10-2f" transform="scale(0.996264)"/>
      <use xlink:href="#CMMI12-54" transform="translate(105.161476 0) scale(0.996264)"/>
      <use xlink:href="#CMR17-32" transform="translate(175.885109 36.153639) scale(0.697382)"/>
     </g>
    </g>
    <g id="line2d_70">
     <path d="M 342.357325 295.462613 
L 358.357325 295.462613 
L 374.357325 295.462613 
" style="fill: none; stroke-dasharray: 22.4,5.6,3.5,5.6; stroke-dashoffset: 0; stroke: #8b0000; stroke-opacity: 0.8; stroke-width: 3.5"/>
    </g>
    <g id="text_18">
     <!-- $\propto T^4$ -->
     <g transform="translate(387.157325 301.062613) scale(0.16 -0.16)">
      <use xlink:href="#CMSY10-2f" transform="scale(0.996264)"/>
      <use xlink:href="#CMMI12-54" transform="translate(105.161476 0) scale(0.996264)"/>
      <use xlink:href="#CMR17-34" transform="translate(175.885109 36.153639) scale(0.697382)"/>
     </g>
    </g>
   </g>
  </g>
 </g>
 <defs>
  <clipPath id="p281a166aec">
   <rect x="95.271963" y="21.6" width="399.462802" height="296.962089"/>
  </clipPath>
 </defs>
</svg>
