<?xml version="1.0" encoding="utf-8" standalone="no"?>
<!DOCTYPE svg PUBLIC "-//W3C//DTD SVG 1.1//EN"
  "http://www.w3.org/Graphics/SVG/1.1/DTD/svg11.dtd">
<svg xmlns:xlink="http://www.w3.org/1999/xlink" width="432pt" height="432pt" viewBox="0 0 432 432" xmlns="http://www.w3.org/2000/svg" version="1.1">
 <metadata>
  <rdf:RDF xmlns:dc="http://purl.org/dc/elements/1.1/" xmlns:cc="http://creativecommons.org/ns#" xmlns:rdf="http://www.w3.org/1999/02/22-rdf-syntax-ns#">
   <cc:Work>
    <dc:type rdf:resource="http://purl.org/dc/dcmitype/StillImage"/>
    <dc:date>2026-01-27T05:01:49.866868</dc:date>
    <dc:format>image/svg+xml</dc:format>
    <dc:creator>
     <cc:Agent>
      <dc:title>Matplotlib v3.8.4, https://matplotlib.org/</dc:title>
     </cc:Agent>
    </dc:creator>
   </cc:Work>
  </rdf:RDF>
 </metadata>
 <defs>
  <style type="text/css">*{stroke-linejoin: round; stroke-linecap: butt}</style>
 </defs>
 <g id="figure_1">
  <g id="patch_1">
   <path d="M 0 432 
L 432 432 
L 432 0 
L 0 0 
z
" style="fill: #ffffff"/>
  </g>
  <g id="axes_1">
   <g id="patch_2">
    <path d="M 72.220481 361.762089 
L 410.4 361.762089 
L 410.4 28.518498 
L 72.220481 28.518498 
z
" style="fill: #ffffff"/>
   </g>
   <g id="matplotlib.axis_1">
    <g id="xtick_1">
     <g id="line2d_1">
      <path d="M 144.917787 361.762089 
L 144.917787 28.518498 
" clip-path="url(#pb1fc343dfb)" style="fill: none; stroke-dasharray: 2.96,1.28; stroke-dashoffset: 0; stroke: #b0b0b0; stroke-opacity: 0.3; stroke-width: 0.8"/>
     </g>
     <g id="line2d_2">
      <defs>
       <path id="m6f07528765" d="M 0 0 
L 0 3.5 
" style="stroke: #000000; stroke-width: 0.8"/>
      </defs>
      <g>
       <use xlink:href="#m6f07528765" x="144.917787" y="361.762089" style="stroke: #000000; stroke-width: 0.8"/>
      </g>
     </g>
     <g id="text_1">
      <!-- $\mathdefault{10^{-3}}$ -->
      <g transform="translate(126.941367 382.599086) scale(0.2 -0.2)">
       <defs>
        <path id="CMR17-31" d="M 1702 4058 
C 1702 4192 1696 4192 1606 4192 
C 1357 3916 979 3827 621 3827 
C 602 3827 570 3827 563 3808 
C 557 3795 557 3782 557 3648 
C 755 3648 1088 3686 1344 3839 
L 1344 461 
C 1344 236 1331 160 781 160 
L 589 160 
L 589 0 
C 896 0 1216 0 1523 0 
C 1830 0 2150 0 2458 0 
L 2458 160 
L 2266 160 
C 1715 160 1702 230 1702 458 
L 1702 4058 
z
" transform="scale(0.015625)"/>
        <path id="CMR17-30" d="M 2688 2025 
C 2688 2416 2682 3080 2413 3591 
C 2176 4039 1798 4198 1466 4198 
C 1158 4198 768 4058 525 3597 
C 269 3118 243 2524 243 2025 
C 243 1661 250 1106 448 619 
C 723 -39 1216 -128 1466 -128 
C 1760 -128 2208 -7 2470 600 
C 2662 1042 2688 1559 2688 2025 
z
M 1466 -26 
C 1056 -26 813 325 723 812 
C 653 1188 653 1738 653 2096 
C 653 2588 653 2997 736 3387 
C 858 3929 1216 4096 1466 4096 
C 1728 4096 2067 3923 2189 3400 
C 2272 3036 2278 2607 2278 2096 
C 2278 1680 2278 1169 2202 792 
C 2067 95 1690 -26 1466 -26 
z
" transform="scale(0.015625)"/>
        <path id="CMSY10-0" d="M 4218 1472 
C 4326 1472 4442 1472 4442 1600 
C 4442 1728 4326 1728 4218 1728 
L 755 1728 
C 646 1728 531 1728 531 1600 
C 531 1472 646 1472 755 1472 
L 4218 1472 
z
" transform="scale(0.015625)"/>
        <path id="CMR17-33" d="M 1414 2157 
C 1984 2157 2234 1662 2234 1090 
C 2234 320 1824 25 1453 25 
C 1114 25 563 194 390 693 
C 422 680 454 680 486 680 
C 640 680 755 782 755 948 
C 755 1133 614 1216 486 1216 
C 378 1216 211 1165 211 926 
C 211 335 787 -128 1466 -128 
C 2176 -128 2720 430 2720 1085 
C 2720 1707 2208 2157 1600 2227 
C 2086 2328 2554 2756 2554 3329 
C 2554 3820 2048 4179 1472 4179 
C 890 4179 378 3829 378 3329 
C 378 3110 544 3072 627 3072 
C 762 3072 877 3155 877 3321 
C 877 3486 762 3569 627 3569 
C 602 3569 570 3569 544 3557 
C 730 3959 1235 4032 1459 4032 
C 1683 4032 2106 3925 2106 3320 
C 2106 3143 2080 2828 1862 2550 
C 1670 2304 1453 2304 1242 2284 
C 1210 2284 1062 2269 1037 2269 
C 992 2263 966 2257 966 2208 
C 966 2163 973 2157 1101 2157 
L 1414 2157 
z
" transform="scale(0.015625)"/>
       </defs>
       <use xlink:href="#CMR17-31" transform="scale(0.996264)"/>
       <use xlink:href="#CMR17-30" transform="translate(45.690477 0) scale(0.996264)"/>
       <use xlink:href="#CMSY10-0" transform="translate(91.380954 36.153639) scale(0.697382)"/>
       <use xlink:href="#CMR17-33" transform="translate(145.621947 36.153639) scale(0.697382)"/>
      </g>
     </g>
    </g>
    <g id="xtick_2">
     <g id="line2d_3">
      <path d="M 265.028449 361.762089 
L 265.028449 28.518498 
" clip-path="url(#pb1fc343dfb)" style="fill: none; stroke-dasharray: 2.96,1.28; stroke-dashoffset: 0; stroke: #b0b0b0; stroke-opacity: 0.3; stroke-width: 0.8"/>
     </g>
     <g id="line2d_4">
      <g>
       <use xlink:href="#m6f07528765" x="265.028449" y="361.762089" style="stroke: #000000; stroke-width: 0.8"/>
      </g>
     </g>
     <g id="text_2">
      <!-- $\mathdefault{10^{-1}}$ -->
      <g transform="translate(247.052029 382.599086) scale(0.2 -0.2)">
       <use xlink:href="#CMR17-31" transform="scale(0.996264)"/>
       <use xlink:href="#CMR17-30" transform="translate(45.690477 0) scale(0.996264)"/>
       <use xlink:href="#CMSY10-0" transform="translate(91.380954 36.153639) scale(0.697382)"/>
       <use xlink:href="#CMR17-31" transform="translate(145.621947 36.153639) scale(0.697382)"/>
      </g>
     </g>
    </g>
    <g id="xtick_3">
     <g id="line2d_5">
      <path d="M 385.139111 361.762089 
L 385.139111 28.518498 
" clip-path="url(#pb1fc343dfb)" style="fill: none; stroke-dasharray: 2.96,1.28; stroke-dashoffset: 0; stroke: #b0b0b0; stroke-opacity: 0.3; stroke-width: 0.8"/>
     </g>
     <g id="line2d_6">
      <g>
       <use xlink:href="#m6f07528765" x="385.139111" y="361.762089" style="stroke: #000000; stroke-width: 0.8"/>
      </g>
     </g>
     <g id="text_3">
      <!-- $\mathdefault{10^{1}}$ -->
      <g transform="translate(372.586786 382.599086) scale(0.2 -0.2)">
       <use xlink:href="#CMR17-31" transform="scale(0.996264)"/>
       <use xlink:href="#CMR17-30" transform="translate(45.690477 0) scale(0.996264)"/>
       <use xlink:href="#CMR17-31" transform="translate(91.380954 36.153639) scale(0.697382)"/>
      </g>
     </g>
    </g>
    <g id="text_4">
     <!-- Temperature, $T/T_F$ -->
     <g transform="translate(162.69832 405.41868) scale(0.2 -0.2)">
      <defs>
       <path id="CMR17-54" d="M 3981 4326 
L 288 4326 
L 179 2918 
L 294 2918 
C 378 3976 467 4160 1453 4160 
C 1568 4160 1754 4160 1805 4154 
C 1926 4135 1926 4058 1926 3912 
L 1926 459 
C 1926 230 1907 160 1376 160 
L 1197 160 
L 1197 0 
C 1504 0 1824 0 2138 0 
C 2451 0 2771 0 3078 0 
L 3078 160 
L 2899 160 
C 2368 160 2349 230 2349 459 
L 2349 3912 
C 2349 4052 2349 4129 2464 4154 
C 2515 4160 2701 4160 2816 4160 
C 3795 4160 3891 3976 3974 2918 
L 4090 2918 
L 3981 4326 
z
" transform="scale(0.015625)"/>
       <path id="CMR17-65" d="M 2438 1472 
C 2464 1498 2464 1511 2464 1576 
C 2464 2238 2118 2816 1389 2816 
C 710 2816 173 2169 173 1383 
C 173 551 781 -64 1459 -64 
C 2176 -64 2458 607 2458 740 
C 2458 784 2419 784 2406 784 
C 2362 784 2355 771 2330 696 
C 2189 265 1837 51 1504 51 
C 1229 51 954 203 781 480 
C 582 803 582 1176 582 1472 
L 2438 1472 
z
M 589 1568 
C 634 2505 1126 2714 1382 2714 
C 1818 2714 2112 2297 2118 1568 
L 589 1568 
z
" transform="scale(0.015625)"/>
       <path id="CMR17-6d" d="M 4326 1933 
C 4326 2252 4269 2790 3507 2790 
C 3072 2790 2771 2496 2656 2151 
L 2650 2151 
C 2573 2676 2195 2790 1837 2790 
C 1331 2790 1069 2400 973 2144 
L 966 2144 
L 966 2790 
L 211 2720 
L 211 2554 
C 589 2554 646 2515 646 2208 
L 646 428 
C 646 184 621 153 211 153 
L 211 -13 
C 365 0 646 0 813 0 
C 979 0 1267 0 1421 -13 
L 1421 153 
C 1011 153 986 178 986 428 
L 986 1658 
C 986 2247 1344 2688 1792 2688 
C 2266 2688 2317 2266 2317 1958 
L 2317 428 
C 2317 184 2291 153 1882 153 
L 1882 -13 
C 2035 0 2317 0 2483 0 
C 2650 0 2938 0 3091 -13 
L 3091 153 
C 2682 153 2656 178 2656 428 
L 2656 1658 
C 2656 2247 3014 2688 3462 2688 
C 3936 2688 3987 2266 3987 1958 
L 3987 428 
C 3987 184 3962 153 3552 153 
L 3552 -13 
C 3706 0 3987 0 4154 0 
C 4320 0 4608 0 4762 -13 
L 4762 153 
C 4352 153 4326 178 4326 428 
L 4326 1933 
z
" transform="scale(0.015625)"/>
       <path id="CMR17-70" d="M 1408 -1063 
C 998 -1063 973 -1037 973 -789 
L 973 402 
C 1158 134 1427 -38 1766 -38 
C 2406 -38 3053 523 3053 1388 
C 3053 2191 2496 2802 1837 2802 
C 1453 2802 1139 2592 960 2338 
L 960 2802 
L 198 2732 
L 198 2567 
C 576 2567 634 2528 634 2223 
L 634 -789 
C 634 -1031 608 -1063 198 -1063 
L 198 -1228 
C 352 -1216 634 -1216 800 -1216 
C 966 -1216 1254 -1216 1408 -1228 
L 1408 -1063 
z
M 973 2012 
C 973 2102 973 2235 1222 2471 
C 1254 2497 1472 2688 1792 2688 
C 2259 2688 2643 2108 2643 1382 
C 2643 656 2234 64 1728 64 
C 1498 64 1248 172 1056 472 
C 973 612 973 650 973 752 
L 973 2012 
z
" transform="scale(0.015625)"/>
       <path id="CMR17-72" d="M 960 1497 
C 960 2112 1222 2688 1702 2688 
C 1747 2688 1792 2682 1837 2662 
C 1837 2662 1696 2617 1696 2452 
C 1696 2298 1818 2234 1914 2234 
C 1990 2234 2131 2279 2131 2458 
C 2131 2663 1926 2790 1709 2790 
C 1222 2790 1011 2317 947 2093 
L 941 2093 
L 941 2790 
L 198 2720 
L 198 2554 
C 576 2554 634 2515 634 2208 
L 634 428 
C 634 184 608 153 198 153 
L 198 -13 
C 352 0 646 0 813 0 
C 998 0 1325 0 1498 -13 
L 1498 153 
C 1037 153 960 153 960 440 
L 960 1497 
z
" transform="scale(0.015625)"/>
       <path id="CMR17-61" d="M 2304 1653 
C 2304 2072 2304 2294 2035 2543 
C 1798 2752 1523 2816 1306 2816 
C 800 2816 435 2407 435 1971 
C 435 1728 627 1728 666 1728 
C 749 1728 896 1778 896 1954 
C 896 2112 774 2181 666 2181 
C 640 2181 608 2174 589 2168 
C 723 2592 1069 2714 1293 2714 
C 1613 2714 1965 2429 1965 1885 
L 1965 1600 
C 1587 1600 1133 1549 774 1357 
C 371 1133 256 813 256 570 
C 256 77 832 -64 1171 -64 
C 1523 -64 1850 139 1990 511 
C 2003 233 2182 -18 2464 -18 
C 2598 -18 2938 70 2938 567 
L 2938 920 
L 2822 920 
L 2822 562 
C 2822 178 2650 128 2566 128 
C 2304 128 2304 458 2304 738 
L 2304 1653 
z
M 1965 870 
C 1965 317 1568 38 1216 38 
C 896 38 646 275 646 570 
C 646 761 730 1100 1101 1305 
C 1408 1478 1760 1504 1965 1504 
L 1965 870 
z
" transform="scale(0.015625)"/>
       <path id="CMR17-74" d="M 966 2560 
L 1862 2560 
L 1862 2725 
L 966 2725 
L 966 3904 
L 851 3904 
C 838 3245 614 2668 70 2668 
L 70 2560 
L 627 2560 
L 627 771 
C 627 650 627 -64 1370 -64 
C 1747 -64 1965 306 1965 777 
L 1965 1140 
L 1850 1140 
L 1850 783 
C 1850 344 1677 51 1408 51 
C 1222 51 966 178 966 758 
L 966 2560 
z
" transform="scale(0.015625)"/>
       <path id="CMR17-75" d="M 1882 2693 
L 1882 2528 
C 2259 2528 2317 2489 2317 2186 
L 2317 1032 
C 2317 500 2029 38 1555 38 
C 1030 38 986 348 986 678 
L 986 2763 
L 211 2693 
L 211 2528 
C 467 2528 640 2528 646 2274 
L 646 1058 
C 646 633 646 361 813 183 
C 896 101 1056 -64 1517 -64 
C 2061 -64 2272 377 2323 506 
L 2330 506 
L 2330 -63 
L 3091 -63 
L 3091 128 
C 2714 128 2656 166 2656 473 
L 2656 2763 
L 1882 2693 
z
" transform="scale(0.015625)"/>
       <path id="CMR17-2c" d="M 1011 102 
C 1024 45 1024 25 1024 -77 
C 1024 -463 896 -817 627 -1139 
C 595 -1170 595 -1183 595 -1197 
C 595 -1222 621 -1248 646 -1248 
C 685 -1248 1126 -799 1126 -87 
C 1126 124 1101 522 800 522 
C 659 522 538 427 538 261 
C 538 96 659 0 800 0 
C 877 0 960 32 1011 102 
z
" transform="scale(0.015625)"/>
       <path id="CMMI12-54" d="M 2669 3910 
C 2707 4064 2720 4121 2816 4147 
C 2867 4160 3078 4160 3213 4160 
C 3853 4160 4154 4134 4154 3634 
C 4154 3537 4128 3295 4090 3057 
L 4083 2980 
C 4083 2954 4109 2916 4147 2916 
C 4211 2916 4211 2948 4230 3050 
L 4416 4184 
C 4429 4243 4429 4256 4429 4275 
C 4429 4345 4390 4345 4262 4345 
L 762 4345 
C 614 4345 608 4339 570 4224 
L 179 3070 
C 173 3056 154 2986 154 2980 
C 154 2948 179 2916 218 2916 
C 269 2916 282 2941 307 3024 
C 576 3801 710 4160 1562 4160 
L 1990 4160 
C 2144 4160 2208 4160 2208 4089 
C 2208 4069 2208 4057 2176 3941 
L 1318 499 
C 1254 249 1242 185 563 185 
C 403 185 358 185 358 64 
C 358 0 429 0 461 0 
C 621 0 787 0 947 0 
L 1946 0 
C 2106 0 2278 0 2438 0 
C 2509 0 2573 0 2573 121 
C 2573 185 2528 185 2362 185 
C 1786 185 1786 243 1786 339 
C 1786 346 1786 391 1811 494 
L 2669 3910 
z
" transform="scale(0.015625)"/>
       <path id="CMMI12-3d" d="M 2746 4562 
C 2746 4569 2784 4666 2784 4678 
C 2784 4755 2720 4800 2669 4800 
C 2637 4800 2579 4800 2528 4659 
L 384 -1363 
C 384 -1370 346 -1465 346 -1478 
C 346 -1555 410 -1600 461 -1600 
C 499 -1600 557 -1593 602 -1459 
L 2746 4562 
z
" transform="scale(0.015625)"/>
       <path id="CMMI12-46" d="M 1901 2055 
L 2515 2055 
C 3002 2055 3040 1946 3040 1761 
C 3040 1678 3027 1589 2995 1448 
C 2982 1423 2976 1391 2976 1378 
C 2976 1333 3002 1308 3046 1308 
C 3098 1308 3104 1333 3130 1435 
L 3501 2935 
C 3501 2961 3482 2999 3437 2999 
C 3379 2999 3373 2974 3347 2863 
C 3213 2376 3085 2240 2528 2240 
L 1946 2240 
L 2362 3926 
C 2419 4154 2432 4154 2694 4154 
L 3552 4154 
C 4352 4154 4467 3918 4467 3464 
C 4467 3426 4467 3285 4448 3119 
C 4442 3094 4429 3011 4429 2985 
C 4429 2934 4461 2915 4499 2915 
C 4544 2915 4570 2941 4582 3055 
L 4717 4174 
C 4717 4195 4730 4263 4730 4277 
C 4730 4352 4672 4352 4557 4352 
L 1523 4352 
C 1402 4352 1338 4352 1338 4229 
C 1338 4154 1382 4154 1491 4154 
C 1888 4154 1888 4113 1888 4050 
C 1888 4018 1882 3992 1862 3922 
L 998 473 
C 941 249 928 185 480 185 
C 358 185 294 185 294 70 
C 294 0 352 0 390 0 
C 512 0 640 0 762 0 
L 1594 0 
C 1734 0 1888 0 2029 0 
C 2086 0 2163 0 2163 115 
C 2163 185 2125 185 1984 185 
C 1478 185 1466 229 1466 324 
C 1466 356 1478 406 1491 449 
L 1901 2055 
z
" transform="scale(0.015625)"/>
      </defs>
      <use xlink:href="#CMR17-54" transform="scale(0.996264)"/>
      <use xlink:href="#CMR17-65" transform="translate(58.702625 0) scale(0.996264)"/>
      <use xlink:href="#CMR17-6d" transform="translate(99.188286 0) scale(0.996264)"/>
      <use xlink:href="#CMR17-70" transform="translate(176.107875 0) scale(0.996264)"/>
      <use xlink:href="#CMR17-65" transform="translate(229.605684 0) scale(0.996264)"/>
      <use xlink:href="#CMR17-72" transform="translate(270.091344 0) scale(0.996264)"/>
      <use xlink:href="#CMR17-61" transform="translate(305.372112 0) scale(0.996264)"/>
      <use xlink:href="#CMR17-74" transform="translate(351.062589 0) scale(0.996264)"/>
      <use xlink:href="#CMR17-75" transform="translate(386.343357 0) scale(0.996264)"/>
      <use xlink:href="#CMR17-72" transform="translate(437.238727 0) scale(0.996264)"/>
      <use xlink:href="#CMR17-65" transform="translate(472.519495 0) scale(0.996264)"/>
      <use xlink:href="#CMR17-2c" transform="translate(513.005155 0) scale(0.996264)"/>
      <use xlink:href="#CMMI12-54" transform="translate(567.95218 0) scale(0.996264)"/>
      <use xlink:href="#CMMI12-3d" transform="translate(635.966095 0) scale(0.996264)"/>
      <use xlink:href="#CMMI12-54" transform="translate(684.741013 0) scale(0.996264)"/>
      <use xlink:href="#CMMI12-46" transform="translate(741.916057 -14.943915) scale(0.697382)"/>
     </g>
    </g>
   </g>
   <g id="matplotlib.axis_2">
    <g id="ytick_1">
     <g id="line2d_7">
      <path d="M 72.220481 361.762089 
L 410.4 361.762089 
" clip-path="url(#pb1fc343dfb)" style="fill: none; stroke-dasharray: 2.96,1.28; stroke-dashoffset: 0; stroke: #b0b0b0; stroke-opacity: 0.3; stroke-width: 0.8"/>
     </g>
     <g id="line2d_8">
      <defs>
       <path id="m4351ea63a5" d="M 0 0 
L -3.5 0 
" style="stroke: #000000; stroke-width: 0.8"/>
      </defs>
      <g>
       <use xlink:href="#m4351ea63a5" x="72.220481" y="361.762089" style="stroke: #000000; stroke-width: 0.8"/>
      </g>
     </g>
     <g id="text_5">
      <!-- $\mathdefault{0}$ -->
      <g transform="translate(56.082386 368.680588) scale(0.2 -0.2)">
       <use xlink:href="#CMR17-30" transform="scale(0.996264)"/>
      </g>
     </g>
    </g>
    <g id="ytick_2">
     <g id="line2d_9">
      <path d="M 72.220481 306.221491 
L 410.4 306.221491 
" clip-path="url(#pb1fc343dfb)" style="fill: none; stroke-dasharray: 2.96,1.28; stroke-dashoffset: 0; stroke: #b0b0b0; stroke-opacity: 0.3; stroke-width: 0.8"/>
     </g>
     <g id="line2d_10">
      <g>
       <use xlink:href="#m4351ea63a5" x="72.220481" y="306.221491" style="stroke: #000000; stroke-width: 0.8"/>
      </g>
     </g>
     <g id="text_6">
      <!-- $\mathdefault{1}$ -->
      <g transform="translate(56.082386 313.139989) scale(0.2 -0.2)">
       <use xlink:href="#CMR17-31" transform="scale(0.996264)"/>
      </g>
     </g>
    </g>
    <g id="ytick_3">
     <g id="line2d_11">
      <path d="M 72.220481 250.680892 
L 410.4 250.680892 
" clip-path="url(#pb1fc343dfb)" style="fill: none; stroke-dasharray: 2.96,1.28; stroke-dashoffset: 0; stroke: #b0b0b0; stroke-opacity: 0.3; stroke-width: 0.8"/>
     </g>
     <g id="line2d_12">
      <g>
       <use xlink:href="#m4351ea63a5" x="72.220481" y="250.680892" style="stroke: #000000; stroke-width: 0.8"/>
      </g>
     </g>
     <g id="text_7">
      <!-- $\mathdefault{2}$ -->
      <g transform="translate(56.082386 257.599391) scale(0.2 -0.2)">
       <defs>
        <path id="CMR17-32" d="M 2669 989 
L 2554 989 
C 2490 536 2438 459 2413 420 
C 2381 369 1920 369 1830 369 
L 602 369 
C 832 619 1280 1072 1824 1597 
C 2214 1967 2669 2402 2669 3035 
C 2669 3790 2067 4224 1395 4224 
C 691 4224 262 3604 262 3030 
C 262 2780 448 2748 525 2748 
C 589 2748 781 2787 781 3010 
C 781 3207 614 3264 525 3264 
C 486 3264 448 3258 422 3245 
C 544 3790 915 4058 1306 4058 
C 1862 4058 2227 3617 2227 3035 
C 2227 2479 1901 2000 1536 1584 
L 262 146 
L 262 0 
L 2515 0 
L 2669 989 
z
" transform="scale(0.015625)"/>
       </defs>
       <use xlink:href="#CMR17-32" transform="scale(0.996264)"/>
      </g>
     </g>
    </g>
    <g id="ytick_4">
     <g id="line2d_13">
      <path d="M 72.220481 195.140294 
L 410.4 195.140294 
" clip-path="url(#pb1fc343dfb)" style="fill: none; stroke-dasharray: 2.96,1.28; stroke-dashoffset: 0; stroke: #b0b0b0; stroke-opacity: 0.3; stroke-width: 0.8"/>
     </g>
     <g id="line2d_14">
      <g>
       <use xlink:href="#m4351ea63a5" x="72.220481" y="195.140294" style="stroke: #000000; stroke-width: 0.8"/>
      </g>
     </g>
     <g id="text_8">
      <!-- $\mathdefault{3}$ -->
      <g transform="translate(56.082386 202.058792) scale(0.2 -0.2)">
       <use xlink:href="#CMR17-33" transform="scale(0.996264)"/>
      </g>
     </g>
    </g>
    <g id="ytick_5">
     <g id="line2d_15">
      <path d="M 72.220481 139.599695 
L 410.4 139.599695 
" clip-path="url(#pb1fc343dfb)" style="fill: none; stroke-dasharray: 2.96,1.28; stroke-dashoffset: 0; stroke: #b0b0b0; stroke-opacity: 0.3; stroke-width: 0.8"/>
     </g>
     <g id="line2d_16">
      <g>
       <use xlink:href="#m4351ea63a5" x="72.220481" y="139.599695" style="stroke: #000000; stroke-width: 0.8"/>
      </g>
     </g>
     <g id="text_9">
      <!-- $\mathdefault{4}$ -->
      <g transform="translate(56.082386 146.518194) scale(0.2 -0.2)">
       <defs>
        <path id="CMR17-34" d="M 2150 4122 
C 2150 4256 2144 4256 2029 4256 
L 128 1254 
L 128 1088 
L 1779 1088 
L 1779 457 
C 1779 224 1766 160 1318 160 
L 1197 160 
L 1197 0 
C 1402 0 1747 0 1965 0 
C 2182 0 2528 0 2733 0 
L 2733 160 
L 2611 160 
C 2163 160 2150 224 2150 457 
L 2150 1088 
L 2803 1088 
L 2803 1254 
L 2150 1254 
L 2150 4122 
z
M 1798 3703 
L 1798 1254 
L 256 1254 
L 1798 3703 
z
" transform="scale(0.015625)"/>
       </defs>
       <use xlink:href="#CMR17-34" transform="scale(0.996264)"/>
      </g>
     </g>
    </g>
    <g id="ytick_6">
     <g id="line2d_17">
      <path d="M 72.220481 84.059097 
L 410.4 84.059097 
" clip-path="url(#pb1fc343dfb)" style="fill: none; stroke-dasharray: 2.96,1.28; stroke-dashoffset: 0; stroke: #b0b0b0; stroke-opacity: 0.3; stroke-width: 0.8"/>
     </g>
     <g id="line2d_18">
      <g>
       <use xlink:href="#m4351ea63a5" x="72.220481" y="84.059097" style="stroke: #000000; stroke-width: 0.8"/>
      </g>
     </g>
     <g id="text_10">
      <!-- $\mathdefault{5}$ -->
      <g transform="translate(56.082386 90.977595) scale(0.2 -0.2)">
       <defs>
        <path id="CMR17-35" d="M 730 3692 
C 794 3666 1056 3584 1325 3584 
C 1920 3584 2246 3911 2432 4100 
C 2432 4157 2432 4192 2394 4192 
C 2387 4192 2374 4192 2323 4163 
C 2099 4058 1837 3973 1517 3973 
C 1325 3973 1037 3999 723 4139 
C 653 4171 640 4171 634 4171 
C 602 4171 595 4164 595 4037 
L 595 2203 
C 595 2089 595 2057 659 2057 
C 691 2057 704 2070 736 2114 
C 941 2401 1222 2522 1542 2522 
C 1766 2522 2246 2382 2246 1289 
C 2246 1085 2246 715 2054 421 
C 1894 159 1645 25 1370 25 
C 947 25 518 320 403 814 
C 429 807 480 795 506 795 
C 589 795 749 840 749 1038 
C 749 1210 627 1280 506 1280 
C 358 1280 262 1190 262 1011 
C 262 454 704 -128 1382 -128 
C 2042 -128 2669 440 2669 1264 
C 2669 2030 2170 2624 1549 2624 
C 1222 2624 947 2503 730 2274 
L 730 3692 
z
" transform="scale(0.015625)"/>
       </defs>
       <use xlink:href="#CMR17-35" transform="scale(0.996264)"/>
      </g>
     </g>
    </g>
    <g id="ytick_7">
     <g id="line2d_19">
      <path d="M 72.220481 28.518498 
L 410.4 28.518498 
" clip-path="url(#pb1fc343dfb)" style="fill: none; stroke-dasharray: 2.96,1.28; stroke-dashoffset: 0; stroke: #b0b0b0; stroke-opacity: 0.3; stroke-width: 0.8"/>
     </g>
     <g id="line2d_20">
      <g>
       <use xlink:href="#m4351ea63a5" x="72.220481" y="28.518498" style="stroke: #000000; stroke-width: 0.8"/>
      </g>
     </g>
     <g id="text_11">
      <!-- $\mathdefault{6}$ -->
      <g transform="translate(56.082386 35.436997) scale(0.2 -0.2)">
       <defs>
        <path id="CMR17-36" d="M 678 2176 
C 678 3690 1395 4032 1811 4032 
C 1946 4032 2272 4009 2400 3776 
C 2298 3776 2106 3776 2106 3553 
C 2106 3381 2246 3323 2336 3323 
C 2394 3323 2566 3348 2566 3560 
C 2566 3954 2246 4179 1805 4179 
C 1043 4179 243 3390 243 1984 
C 243 253 966 -128 1478 -128 
C 2099 -128 2688 427 2688 1283 
C 2688 2081 2170 2662 1517 2662 
C 1126 2662 838 2407 678 1960 
L 678 2176 
z
M 1478 25 
C 691 25 691 1200 691 1436 
C 691 1896 909 2560 1504 2560 
C 1613 2560 1926 2560 2138 2120 
C 2253 1870 2253 1609 2253 1289 
C 2253 944 2253 690 2118 434 
C 1978 171 1773 25 1478 25 
z
" transform="scale(0.015625)"/>
       </defs>
       <use xlink:href="#CMR17-36" transform="scale(0.996264)"/>
      </g>
     </g>
    </g>
    <g id="text_12">
     <!-- Local scaling exponent, $\frac{d\log(\gamma_m)}{d\log(T)}$ -->
     <g transform="translate(41.724439 319.049004) rotate(-90) scale(0.2 -0.2)">
      <defs>
       <path id="CMR17-4c" d="M 3469 1615 
L 3354 1615 
C 3302 983 3219 166 2125 166 
L 1530 166 
C 1274 166 1261 197 1261 414 
L 1261 3898 
C 1261 4129 1274 4192 1760 4192 
L 1901 4192 
L 1901 4352 
C 1638 4352 1331 4352 1069 4352 
C 870 4352 512 4352 326 4352 
L 326 4192 
C 768 4192 838 4192 838 3905 
L 838 452 
C 838 166 768 166 326 166 
L 326 0 
L 3315 0 
L 3469 1615 
z
" transform="scale(0.015625)"/>
       <path id="CMR17-6f" d="M 2758 1356 
C 2758 2176 2163 2816 1466 2816 
C 768 2816 173 2176 173 1356 
C 173 551 768 -64 1466 -64 
C 2163 -64 2758 551 2758 1356 
z
M 1466 51 
C 1165 51 909 230 762 480 
C 602 767 582 1126 582 1408 
C 582 1677 595 2010 762 2298 
C 890 2509 1139 2714 1466 2714 
C 1754 2714 1997 2554 2150 2330 
C 2349 2029 2349 1607 2349 1408 
C 2349 1158 2336 775 2163 467 
C 1984 173 1709 51 1466 51 
z
" transform="scale(0.015625)"/>
       <path id="CMR17-63" d="M 2234 2240 
C 2112 2240 1933 2240 1933 2017 
C 1933 1838 2080 1787 2163 1787 
C 2208 1787 2394 1807 2394 2024 
C 2394 2467 1958 2803 1466 2803 
C 787 2803 211 2178 211 1363 
C 211 516 813 -64 1466 -64 
C 2259 -64 2458 677 2458 748 
C 2458 774 2451 793 2406 793 
C 2362 793 2355 787 2330 703 
C 2163 180 1798 51 1523 51 
C 1114 51 621 427 621 1369 
C 621 2338 1094 2688 1472 2688 
C 1722 2688 2093 2573 2234 2240 
z
" transform="scale(0.015625)"/>
       <path id="CMR17-6c" d="M 979 4396 
L 218 4326 
L 218 4160 
C 595 4160 653 4122 653 3817 
L 653 426 
C 653 184 627 153 218 153 
L 218 -13 
C 371 0 653 0 813 0 
C 979 0 1261 0 1414 -13 
L 1414 153 
C 1005 153 979 178 979 426 
L 979 4396 
z
" transform="scale(0.015625)"/>
       <path id="CMR17-73" d="M 1978 2697 
C 1978 2813 1971 2819 1933 2819 
C 1907 2819 1901 2813 1824 2717 
C 1805 2691 1747 2626 1728 2601 
C 1523 2819 1235 2819 1126 2819 
C 416 2819 160 2447 160 2076 
C 160 1498 813 1365 998 1325 
C 1402 1243 1542 1217 1677 1101 
C 1760 1025 1901 884 1901 654 
C 1901 384 1747 38 1158 38 
C 602 38 403 460 288 1021 
C 269 1110 269 1117 218 1117 
C 166 1117 160 1110 160 983 
L 160 63 
C 160 -51 166 -58 205 -58 
C 237 -58 243 -51 275 0 
C 314 57 410 211 448 276 
C 576 103 800 -64 1158 -64 
C 1792 -64 2131 283 2131 784 
C 2131 1112 1958 1285 1875 1362 
C 1683 1561 1459 1606 1190 1657 
C 838 1735 390 1825 390 2217 
C 390 2383 480 2737 1126 2737 
C 1811 2737 1850 2094 1862 1888 
C 1869 1856 1901 1849 1920 1849 
C 1978 1849 1978 1869 1978 1978 
L 1978 2697 
z
" transform="scale(0.015625)"/>
       <path id="CMR17-69" d="M 992 3909 
C 992 4049 877 4170 730 4170 
C 589 4170 467 4056 467 3909 
C 467 3769 582 3648 730 3648 
C 870 3648 992 3763 992 3909 
z
M 243 2706 
L 243 2541 
C 602 2541 653 2502 653 2197 
L 653 427 
C 653 184 627 153 218 153 
L 218 -13 
C 371 0 646 0 806 0 
C 960 0 1222 0 1370 -13 
L 1370 153 
C 992 153 979 191 979 420 
L 979 2776 
L 243 2706 
z
" transform="scale(0.015625)"/>
       <path id="CMR17-6e" d="M 2656 1933 
C 2656 2259 2592 2790 1837 2790 
C 1331 2790 1069 2400 973 2144 
L 966 2144 
L 966 2790 
L 211 2720 
L 211 2554 
C 589 2554 646 2515 646 2208 
L 646 428 
C 646 184 621 153 211 153 
L 211 -13 
C 365 0 646 0 813 0 
C 979 0 1267 0 1421 -13 
L 1421 153 
C 1011 153 986 178 986 428 
L 986 1658 
C 986 2247 1344 2688 1792 2688 
C 2266 2688 2317 2266 2317 1958 
L 2317 428 
C 2317 184 2291 153 1882 153 
L 1882 -13 
C 2035 0 2317 0 2483 0 
C 2650 0 2938 0 3091 -13 
L 3091 153 
C 2682 153 2656 178 2656 428 
L 2656 1933 
z
" transform="scale(0.015625)"/>
       <path id="CMR17-67" d="M 710 1164 
C 832 1068 1043 960 1299 960 
C 1805 960 2240 1357 2240 1888 
C 2240 2054 2189 2310 1997 2509 
C 2176 2692 2438 2752 2586 2752 
C 2611 2752 2650 2752 2682 2734 
C 2656 2728 2598 2703 2598 2605 
C 2598 2527 2656 2471 2739 2471 
C 2835 2471 2886 2533 2886 2614 
C 2886 2731 2790 2854 2586 2854 
C 2330 2854 2106 2738 1926 2580 
C 1734 2753 1504 2816 1299 2816 
C 794 2816 358 2419 358 1888 
C 358 1522 570 1292 634 1228 
C 442 1004 442 743 442 711 
C 442 545 506 302 723 168 
C 390 85 128 -169 128 -486 
C 128 -943 736 -1280 1466 -1280 
C 2170 -1280 2803 -956 2803 -479 
C 2803 384 1856 384 1363 384 
C 1216 384 954 384 922 391 
C 723 423 589 602 589 826 
C 589 883 589 1024 710 1164 
z
M 1299 1068 
C 736 1068 736 1760 736 1889 
C 736 2016 736 2708 1299 2708 
C 1862 2708 1862 2016 1862 1889 
C 1862 1760 1862 1068 1299 1068 
z
M 1466 -1171 
C 826 -1171 384 -835 384 -486 
C 384 -289 493 -105 634 -4 
C 794 104 858 104 1293 104 
C 1818 104 2547 104 2547 -486 
C 2547 -835 2106 -1171 1466 -1171 
z
" transform="scale(0.015625)"/>
       <path id="CMR17-78" d="M 1664 1477 
C 1856 1726 2074 2006 2253 2216 
C 2464 2458 2707 2560 2989 2560 
L 2989 2726 
C 2880 2726 2656 2726 2541 2726 
C 2368 2726 2170 2726 2022 2732 
L 2022 2566 
C 2112 2553 2163 2489 2163 2400 
C 2163 2285 2099 2215 2067 2171 
L 1594 1573 
L 1030 2306 
C 973 2376 973 2388 973 2420 
C 973 2497 1037 2560 1146 2560 
L 1146 2732 
C 992 2726 717 2726 557 2726 
C 384 2726 179 2726 38 2732 
L 38 2560 
C 384 2560 461 2534 614 2343 
L 1350 1395 
C 1363 1382 1395 1344 1395 1325 
C 1395 1299 838 619 768 530 
C 480 185 179 160 6 160 
L 6 0 
C 115 0 339 0 454 0 
C 582 0 864 0 979 -6 
L 979 160 
C 941 166 838 179 838 325 
C 838 440 890 510 947 586 
L 1478 1236 
L 2035 512 
C 2086 442 2163 346 2163 301 
C 2163 211 2086 160 1984 160 
L 1984 -6 
C 2138 0 2413 0 2573 0 
C 2746 0 2950 0 3091 -6 
L 3091 160 
C 2771 160 2675 172 2522 370 
L 1664 1477 
z
" transform="scale(0.015625)"/>
       <path id="CMMI12-64" d="M 3219 4257 
C 3226 4282 3238 4320 3238 4352 
C 3238 4416 3174 4416 3162 4416 
C 3155 4416 2842 4388 2810 4380 
C 2701 4373 2605 4358 2490 4358 
C 2330 4345 2285 4339 2285 4224 
C 2285 4160 2336 4160 2426 4160 
C 2739 4160 2746 4103 2746 4040 
C 2746 4002 2733 3952 2726 3933 
L 2336 2395 
C 2266 2561 2093 2816 1760 2816 
C 1037 2816 256 1884 256 939 
C 256 307 627 -64 1062 -64 
C 1414 -64 1715 211 1894 422 
C 1958 45 2259 -64 2451 -64 
C 2643 -64 2797 51 2912 281 
C 3014 498 3104 888 3104 913 
C 3104 945 3078 971 3040 971 
C 2982 971 2976 939 2950 843 
C 2854 466 2733 64 2470 64 
C 2285 64 2272 229 2272 357 
C 2272 382 2272 515 2317 694 
L 3219 4257 
z
M 1926 760 
C 1894 651 1894 639 1805 517 
C 1664 338 1382 64 1082 64 
C 819 64 672 300 672 677 
C 672 1028 870 1743 992 2012 
C 1210 2459 1510 2689 1760 2689 
C 2182 2689 2266 2165 2266 2114 
C 2266 2108 2246 2024 2240 2012 
L 1926 760 
z
" transform="scale(0.015625)"/>
       <path id="CMR17-28" d="M 1958 -1561 
C 1958 -1555 1958 -1542 1939 -1523 
C 1645 -1224 858 -407 858 1581 
C 858 3569 1632 4379 1946 4697 
C 1946 4704 1958 4717 1958 4736 
C 1958 4755 1939 4768 1914 4768 
C 1843 4768 1299 4296 986 3594 
C 666 2887 576 2199 576 1588 
C 576 1128 621 351 1005 -471 
C 1312 -1135 1837 -1600 1914 -1600 
C 1946 -1600 1958 -1587 1958 -1561 
z
" transform="scale(0.015625)"/>
       <path id="CMMI12-d" d="M 2419 760 
C 2406 1071 2394 1561 2150 2133 
C 2022 2452 1805 2788 1338 2788 
C 550 2788 122 1790 122 1625 
C 122 1567 166 1567 186 1567 
C 243 1567 243 1580 275 1663 
C 410 2057 819 2368 1261 2368 
C 2150 2368 2278 1383 2278 754 
C 2278 352 2234 220 2195 92 
C 2074 -302 1862 -1090 1862 -1268 
C 1862 -1319 1882 -1376 1933 -1376 
C 2029 -1376 2086 -1166 2157 -912 
C 2310 -353 2349 -73 2381 181 
C 2400 334 2765 1384 3270 2382 
C 3315 2483 3405 2655 3405 2674 
C 3405 2680 3398 2725 3341 2725 
C 3328 2725 3296 2725 3283 2699 
C 3270 2687 3046 2254 2854 1822 
C 2758 1606 2630 1320 2419 760 
z
" transform="scale(0.015625)"/>
       <path id="CMMI12-6d" d="M 1318 1871 
C 1331 1910 1491 2229 1728 2433 
C 1894 2586 2112 2689 2362 2689 
C 2618 2689 2707 2497 2707 2242 
C 2707 2203 2707 2076 2630 1775 
L 2470 1118 
C 2419 926 2298 453 2285 383 
C 2259 287 2221 121 2221 96 
C 2221 6 2291 -64 2387 -64 
C 2579 -64 2611 83 2669 313 
L 3053 1839 
C 3066 1890 3398 2689 4102 2689 
C 4358 2689 4448 2497 4448 2242 
C 4448 1884 4198 1188 4058 805 
C 4000 651 3968 568 3968 453 
C 3968 166 4166 -64 4474 -64 
C 5069 -64 5293 875 5293 913 
C 5293 945 5267 971 5229 971 
C 5171 971 5165 952 5133 843 
C 4986 332 4749 64 4493 64 
C 4429 64 4326 64 4326 269 
C 4326 436 4403 640 4429 710 
C 4544 1018 4832 1773 4832 2145 
C 4832 2528 4608 2816 4122 2816 
C 3693 2816 3347 2574 3091 2197 
C 3072 2542 2861 2816 2381 2816 
C 1811 2816 1510 2415 1395 2255 
C 1376 2618 1114 2816 832 2816 
C 646 2816 499 2727 378 2484 
C 262 2254 173 1865 173 1839 
C 173 1814 198 1782 243 1782 
C 294 1782 301 1788 339 1935 
C 435 2312 557 2689 813 2689 
C 960 2689 1011 2586 1011 2395 
C 1011 2254 947 2005 902 1807 
L 723 1118 
C 698 996 627 709 595 594 
C 550 428 480 128 480 96 
C 480 6 550 -64 646 -64 
C 723 -64 813 -26 864 70 
C 877 102 934 326 966 453 
L 1107 1028 
L 1318 1871 
z
" transform="scale(0.015625)"/>
       <path id="CMR17-29" d="M 1683 1581 
C 1683 2040 1638 2817 1254 3639 
C 947 4303 422 4768 346 4768 
C 326 4768 301 4761 301 4729 
C 301 4717 307 4710 314 4697 
C 621 4378 1402 3568 1402 1584 
C 1402 -407 627 -1217 314 -1537 
C 307 -1549 301 -1556 301 -1568 
C 301 -1600 326 -1600 346 -1600 
C 416 -1600 960 -1128 1274 -426 
C 1594 281 1683 969 1683 1581 
z
" transform="scale(0.015625)"/>
      </defs>
      <use xlink:href="#CMR17-4c" transform="scale(0.996264)"/>
      <use xlink:href="#CMR17-6f" transform="translate(57.381408 0) scale(0.996264)"/>
      <use xlink:href="#CMR17-63" transform="translate(105.674324 0) scale(0.996264)"/>
      <use xlink:href="#CMR17-61" transform="translate(146.159984 0) scale(0.996264)"/>
      <use xlink:href="#CMR17-6c" transform="translate(191.850461 0) scale(0.996264)"/>
      <use xlink:href="#CMR17-73" transform="translate(246.797486 0) scale(0.996264)"/>
      <use xlink:href="#CMR17-63" transform="translate(282.598824 0) scale(0.996264)"/>
      <use xlink:href="#CMR17-61" transform="translate(323.084484 0) scale(0.996264)"/>
      <use xlink:href="#CMR17-6c" transform="translate(368.774961 0) scale(0.996264)"/>
      <use xlink:href="#CMR17-69" transform="translate(393.64602 0) scale(0.996264)"/>
      <use xlink:href="#CMR17-6e" transform="translate(418.517078 0) scale(0.996264)"/>
      <use xlink:href="#CMR17-67" transform="translate(469.412448 0) scale(0.996264)"/>
      <use xlink:href="#CMR17-65" transform="translate(545.178892 0) scale(0.996264)"/>
      <use xlink:href="#CMR17-78" transform="translate(585.664552 0) scale(0.996264)"/>
      <use xlink:href="#CMR17-70" transform="translate(633.957468 0) scale(0.996264)"/>
      <use xlink:href="#CMR17-6f" transform="translate(687.455276 0) scale(0.996264)"/>
      <use xlink:href="#CMR17-6e" transform="translate(733.145753 0) scale(0.996264)"/>
      <use xlink:href="#CMR17-65" transform="translate(784.041123 0) scale(0.996264)"/>
      <use xlink:href="#CMR17-6e" transform="translate(824.526784 0) scale(0.996264)"/>
      <use xlink:href="#CMR17-74" transform="translate(872.8197 0) scale(0.996264)"/>
      <use xlink:href="#CMR17-2c" transform="translate(908.100467 0) scale(0.996264)"/>
      <use xlink:href="#CMMI12-64" transform="translate(964.243006 48.260247) scale(0.697382)"/>
      <use xlink:href="#CMR17-6c" transform="translate(1011.348237 48.260247) scale(0.697382)"/>
      <use xlink:href="#CMR17-6f" transform="translate(1028.757896 48.260247) scale(0.697382)"/>
      <use xlink:href="#CMR17-67" transform="translate(1060.741078 48.260247) scale(0.697382)"/>
      <use xlink:href="#CMR17-28" transform="translate(1093.635075 48.260247) scale(0.697382)"/>
      <use xlink:href="#CMMI12-d" transform="translate(1118.331495 48.260247) scale(0.697382)"/>
      <use xlink:href="#CMMI12-6d" transform="translate(1153.750721 37.799551) scale(0.498132)"/>
      <use xlink:href="#CMR17-29" transform="translate(1196.912457 48.260247) scale(0.697382)"/>
      <use xlink:href="#CMMI12-64" transform="translate(978.780334 -34.355253) scale(0.697382)"/>
      <use xlink:href="#CMR17-6c" transform="translate(1025.885565 -34.355253) scale(0.697382)"/>
      <use xlink:href="#CMR17-6f" transform="translate(1043.295223 -34.355253) scale(0.697382)"/>
      <use xlink:href="#CMR17-67" transform="translate(1075.278405 -34.355253) scale(0.697382)"/>
      <use xlink:href="#CMR17-28" transform="translate(1108.172402 -34.355253) scale(0.697382)"/>
      <use xlink:href="#CMMI12-54" transform="translate(1132.868823 -34.355253) scale(0.697382)"/>
      <use xlink:href="#CMR17-29" transform="translate(1182.375145 -34.355253) scale(0.697382)"/>
      <path d="M 964.243006 22.914133 
L 1221.608878 22.914133 
L 1221.608878 26.899083 
L 964.243006 26.899083 
L 964.243006 22.914133 
z
"/>
     </g>
    </g>
   </g>
   <g id="line2d_21">
    <path d="M 72.220481 250.680892 
L 410.4 250.680892 
" clip-path="url(#pb1fc343dfb)" style="fill: none; stroke-dasharray: 3.7,1.6; stroke-dashoffset: 0; stroke: #0000ff; stroke-opacity: 0.5"/>
   </g>
   <g id="line2d_22">
    <path d="M 72.220481 139.599695 
L 410.4 139.599695 
" clip-path="url(#pb1fc343dfb)" style="fill: none; stroke-dasharray: 6.4,1.6,1,1.6; stroke-dashoffset: 0; stroke: #ff0000; stroke-opacity: 0.5"/>
   </g>
   <g id="line2d_23">
    <path d="M 87.592278 305.772125 
L 93.051844 341.821443 
L 98.511403 344.338232 
L 103.97099 293.709666 
L 109.430566 312.662929 
L 114.890133 292.760598 
L 120.349686 295.949225 
L 125.80927 281.652429 
L 131.268845 255.792448 
L 136.728421 290.329935 
L 142.188002 274.138734 
L 147.295415 250.265634 
L 153.424661 276.631639 
L 160.086261 267.881604 
L 165.906224 260.388559 
L 173.204089 271.545539 
L 182.243317 264.423939 
L 191.282545 268.658696 
L 200.321773 263.876601 
L 209.361001 264.42445 
L 218.400229 265.707721 
L 227.439458 264.456466 
L 236.478686 264.653073 
L 245.517914 263.33044 
L 254.557142 273.839315 
L 263.59637 267.713197 
L 272.635598 272.200423 
L 281.674826 280.537572 
L 290.714054 294.697628 
L 299.753282 304.610624 
L 308.79251 310.411375 
L 317.831738 309.953835 
L 326.870966 305.594887 
L 337.342273 296.335129 
L 345.892024 287.313005 
L 351.351599 280.579685 
L 356.811175 274.296643 
L 362.27075 267.04877 
L 367.730326 260.861875 
L 373.189901 254.00982 
L 378.649477 248.463609 
L 384.109053 243.249634 
L 389.568628 239.069928 
L 395.028204 237.316032 
" clip-path="url(#pb1fc343dfb)" style="fill: none; stroke: #ff6600; stroke-width: 1.3; stroke-linecap: square"/>
   </g>
   <g id="line2d_24">
    <path d="M 109.430566 64.592624 
L 114.890133 123.837887 
L 120.349686 94.919938 
L 125.80927 146.597835 
L 131.268845 127.155472 
L 136.728421 183.026661 
L 142.188002 162.91886 
L 147.295415 144.986796 
L 153.424661 176.864885 
L 160.086261 156.547602 
L 165.906224 157.802629 
L 173.204089 178.101862 
L 182.243317 165.020606 
L 191.282545 176.986916 
L 200.321773 168.005599 
L 209.361001 175.993503 
L 218.400229 181.954599 
L 227.439458 185.926833 
L 236.478686 193.97576 
L 245.517914 196.320885 
L 254.557142 226.447029 
L 263.59637 217.206137 
L 272.635598 227.006112 
L 281.674826 241.89825 
L 290.714054 269.025734 
L 299.753282 287.118792 
L 308.79251 299.179589 
L 317.831738 303.095356 
L 326.870966 301.332682 
L 337.342273 293.721123 
L 345.892024 285.46071 
L 351.351599 278.997881 
L 356.811175 272.970374 
L 362.27075 265.797862 
L 367.730326 259.706416 
L 373.189901 252.568451 
L 378.649477 246.659749 
L 384.109053 240.836752 
L 389.568628 235.304638 
L 395.028204 231.936012 
" clip-path="url(#pb1fc343dfb)" style="fill: none; stroke: #3380ff; stroke-width: 2; stroke-linecap: square"/>
   </g>
   <g id="line2d_25">
    <path d="M 87.592278 320.861694 
L 93.051844 335.326807 
L 98.511403 345.139029 
L 103.97099 290.582987 
L 109.430566 307.028962 
L 114.890133 278.666886 
L 120.349686 283.969388 
L 125.80927 269.689062 
L 131.268845 260.259358 
L 136.728421 281.940161 
L 142.188002 273.043581 
L 147.295415 260.793391 
L 153.424661 277.261371 
L 160.086261 265.883753 
L 165.906224 258.284921 
L 173.204089 270.597055 
L 182.243317 265.719435 
L 191.282545 268.268659 
L 200.321773 263.542944 
L 209.361001 266.505816 
L 218.400229 266.941056 
L 227.439458 266.745063 
L 236.478686 268.577087 
L 245.517914 268.950382 
L 254.557142 281.974702 
L 263.59637 276.854546 
L 272.635598 277.201459 
L 281.674826 273.003894 
L 290.714054 282.443999 
L 299.753282 292.787334 
L 308.79251 301.386435 
L 317.831738 304.08307 
L 326.870966 301.820363 
L 337.342273 293.801117 
L 345.892024 285.301758 
L 351.351599 278.778328 
L 356.811175 272.777465 
L 362.27075 265.573292 
L 367.730326 259.558047 
L 373.189901 252.310951 
L 378.649477 246.25354 
L 384.109053 240.39192 
L 389.568628 234.485792 
L 395.028204 230.78461 
" clip-path="url(#pb1fc343dfb)" style="fill: none; stroke: #ff5500; stroke-width: 1.3; stroke-linecap: square"/>
   </g>
   <g id="line2d_26">
    <path d="M 94.372362 -1 
L 98.511403 288.098593 
L 103.97099 142.518079 
L 109.430566 200.616937 
L 114.890133 142.704551 
L 120.349686 147.719493 
L 125.80927 154.200939 
L 131.268845 131.998682 
L 136.728421 192.676089 
L 142.188002 173.312976 
L 147.295415 143.380605 
L 153.424661 186.196856 
L 160.086261 161.15313 
L 165.906224 161.780736 
L 173.204089 185.697134 
L 182.243317 173.687882 
L 191.282545 189.796527 
L 200.321773 184.332014 
L 209.361001 197.218016 
L 218.400229 206.273486 
L 227.439458 214.617264 
L 236.478686 223.626238 
L 245.517914 228.380678 
L 254.557142 251.058281 
L 263.59637 247.178322 
L 272.635598 254.359781 
L 281.674826 260.227207 
L 290.714054 277.00657 
L 299.753282 290.940318 
L 308.79251 300.950141 
L 317.831738 304.19677 
L 326.870966 301.936945 
L 337.342273 293.704184 
L 345.892024 285.122338 
L 351.351599 278.636377 
L 356.811175 272.780679 
L 362.27075 265.519037 
L 367.730326 259.513477 
L 373.189901 252.032222 
L 378.649477 245.705487 
L 384.109053 239.879621 
L 389.568628 233.675767 
L 395.028204 229.848341 
" clip-path="url(#pb1fc343dfb)" style="fill: none; stroke: #2d76f2; stroke-width: 2; stroke-linecap: square"/>
   </g>
   <g id="line2d_27">
    <path d="M 87.592278 319.27052 
L 93.051844 341.165418 
L 98.511403 338.583798 
L 103.97099 282.920483 
L 109.430566 305.267697 
L 114.890133 274.308439 
L 120.349686 287.070127 
L 125.80927 272.438888 
L 131.268845 261.318877 
L 136.728421 280.650545 
L 142.188002 277.266444 
L 147.295415 250.351385 
L 153.424661 274.975684 
L 160.086261 269.082412 
L 165.906224 261.664331 
L 173.204089 271.430509 
L 182.243317 264.314738 
L 191.282545 269.581165 
L 200.321773 264.792051 
L 209.361001 267.177994 
L 218.400229 268.889325 
L 227.439458 270.126322 
L 236.478686 272.353197 
L 245.517914 272.526492 
L 254.557142 283.148425 
L 263.59637 272.256256 
L 272.635598 269.149831 
L 281.674826 268.070144 
L 290.714054 280.250845 
L 299.753282 292.592033 
L 308.79251 302.181766 
L 317.831738 304.911197 
L 326.870966 302.006432 
L 337.342273 293.566704 
L 345.892024 285.308128 
L 351.351599 279.067915 
L 356.811175 273.298104 
L 362.27075 265.593242 
L 367.730326 259.429273 
L 373.189901 251.594285 
L 378.649477 245.065073 
L 384.109053 239.276274 
L 389.568628 232.830286 
L 395.028204 228.92159 
" clip-path="url(#pb1fc343dfb)" style="fill: none; stroke: #ff4400; stroke-width: 1.3; stroke-linecap: square"/>
   </g>
   <g id="line2d_28">
    <path d="M 87.592278 190.541532 
L 93.051844 202.257119 
L 98.511403 321.041286 
L 103.97099 161.466159 
L 109.430566 210.159618 
L 114.890133 148.084232 
L 120.349686 156.152253 
L 125.80927 158.889009 
L 131.268845 136.034046 
L 136.728421 195.62541 
L 142.188002 176.806099 
L 147.295415 147.636707 
L 153.424661 192.118183 
L 160.086261 166.245443 
L 165.906224 169.033139 
L 173.204089 194.018488 
L 182.243317 185.983901 
L 191.282545 204.088691 
L 200.321773 202.198167 
L 209.361001 216.311251 
L 218.400229 225.760501 
L 227.439458 233.113778 
L 236.478686 240.120411 
L 245.517914 244.581142 
L 254.557142 262.900707 
L 263.59637 256.316331 
L 272.635598 259.345483 
L 281.674826 263.798214 
L 290.714054 279.043472 
L 299.753282 292.551021 
L 308.79251 302.341 
L 317.831738 305.269513 
L 326.870966 302.432366 
L 337.342273 293.773071 
L 345.892024 285.300246 
L 351.351599 279.167061 
L 356.811175 273.489365 
L 362.27075 265.852841 
L 367.730326 259.563507 
L 373.189901 251.740751 
L 378.649477 244.757217 
L 384.109053 239.167899 
L 389.568628 232.519022 
L 395.028204 227.886129 
" clip-path="url(#pb1fc343dfb)" style="fill: none; stroke: #266ce6; stroke-width: 2; stroke-linecap: square"/>
   </g>
   <g id="line2d_29">
    <path d="M 87.592278 309.764916 
L 93.051844 342.259315 
L 98.511403 339.722188 
L 103.97099 289.792466 
L 109.430566 302.262602 
L 114.890133 273.827024 
L 120.349686 289.669864 
L 125.80927 261.105776 
L 131.268845 263.856036 
L 136.728421 275.754894 
L 142.188002 276.271576 
L 147.295415 257.703042 
L 153.424661 277.284082 
L 160.086261 268.244316 
L 165.906224 256.189032 
L 173.204089 272.028899 
L 182.243317 266.314134 
L 191.282545 269.433559 
L 200.321773 266.60805 
L 209.361001 268.53763 
L 218.400229 271.303536 
L 227.439458 272.396533 
L 236.478686 272.910312 
L 245.517914 270.627416 
L 254.557142 280.16462 
L 263.59637 269.353121 
L 272.635598 266.650806 
L 281.674826 267.423279 
L 290.714054 280.551888 
L 299.753282 293.347293 
L 308.79251 302.895413 
L 317.831738 305.729023 
L 326.870966 302.687866 
L 337.342273 293.86994 
L 345.892024 285.448273 
L 351.351599 279.495539 
L 356.811175 273.740738 
L 362.27075 265.975234 
L 367.730326 259.534001 
L 373.189901 251.72764 
L 378.649477 244.52294 
L 384.109053 239.263221 
L 389.568628 232.769375 
L 395.028204 226.615308 
" clip-path="url(#pb1fc343dfb)" style="fill: none; stroke: #fe3300; stroke-width: 1.3; stroke-linecap: square"/>
   </g>
   <g id="line2d_30">
    <path d="M 87.592278 266.442628 
L 93.051844 229.106284 
L 98.511403 329.065009 
L 103.97099 165.941822 
L 109.430566 216.715915 
L 114.890133 151.849679 
L 120.349686 162.236838 
L 125.80927 161.674516 
L 131.268845 139.404197 
L 136.728421 197.868623 
L 142.188002 181.618223 
L 147.295415 152.552149 
L 153.424661 197.30015 
L 160.086261 174.397694 
L 165.906224 178.277567 
L 173.204089 203.064444 
L 182.243317 198.836777 
L 191.282545 216.768292 
L 200.321773 218.412527 
L 209.361001 229.954497 
L 218.400229 238.98533 
L 227.439458 243.636548 
L 236.478686 249.406284 
L 245.517914 251.743769 
L 254.557142 266.851085 
L 263.59637 259.352486 
L 272.635598 261.420478 
L 281.674826 266.052861 
L 290.714054 280.690334 
L 299.753282 293.858572 
L 308.79251 303.42333 
L 317.831738 305.947822 
L 326.870966 302.681601 
L 337.342273 293.953961 
L 345.892024 285.865771 
L 351.351599 279.917625 
L 356.811175 273.91617 
L 362.27075 265.983507 
L 367.730326 259.519699 
L 373.189901 252.056892 
L 378.649477 244.772453 
L 384.109053 239.957889 
L 389.568628 233.270879 
L 395.028204 225.532428 
" clip-path="url(#pb1fc343dfb)" style="fill: none; stroke: #2063d9; stroke-width: 2; stroke-linecap: square"/>
   </g>
   <g id="line2d_31">
    <path d="M 87.592278 302.831089 
L 93.051844 345.741027 
L 98.511403 343.732871 
L 103.97099 282.781009 
L 109.430566 295.881218 
L 114.890133 273.770134 
L 120.349686 286.237744 
L 125.80927 267.428526 
L 131.268845 266.489014 
L 136.728421 276.325147 
L 142.188002 276.194398 
L 147.295415 251.949098 
L 153.424661 273.106012 
L 160.086261 269.790251 
L 165.906224 260.841518 
L 173.204089 272.219179 
L 182.243317 266.448111 
L 191.282545 270.052734 
L 200.321773 267.665815 
L 209.361001 270.222142 
L 218.400229 272.826698 
L 227.439458 271.744615 
L 236.478686 271.081573 
L 245.517914 269.210676 
L 254.557142 279.394472 
L 263.59637 267.656086 
L 272.635598 265.536619 
L 281.674826 267.676376 
L 290.714054 281.561741 
L 299.753282 294.42826 
L 308.79251 303.935031 
L 317.831738 306.224733 
L 326.870966 302.659767 
L 337.342273 294.023903 
L 345.892024 286.219255 
L 351.351599 280.155129 
L 356.811175 273.928866 
L 362.27075 265.872278 
L 367.730326 259.570398 
L 373.189901 253.281257 
L 378.649477 245.069879 
L 384.109053 240.146557 
L 389.568628 233.275557 
L 395.028204 225.027976 
" clip-path="url(#pb1fc343dfb)" style="fill: none; stroke: #ee2600; stroke-width: 1.3; stroke-linecap: square"/>
   </g>
   <g id="line2d_32">
    <path d="M 87.592278 281.253689 
L 93.051844 239.396038 
L 98.511403 330.365756 
L 103.97099 169.559904 
L 109.430566 219.831428 
L 114.890133 156.482405 
L 120.349686 165.955463 
L 125.80927 165.423472 
L 131.268845 142.201666 
L 136.728421 201.626122 
L 142.188002 186.272572 
L 147.295415 158.069427 
L 153.424661 202.910889 
L 160.086261 182.992083 
L 165.906224 187.04426 
L 173.204089 213.433981 
L 182.243317 210.426204 
L 191.282545 228.898329 
L 200.321773 229.487153 
L 209.361001 239.841728 
L 218.400229 246.320891 
L 227.439458 250.285047 
L 236.478686 253.624137 
L 245.517914 254.924693 
L 254.557142 268.984262 
L 263.59637 261.076627 
L 272.635598 263.111702 
L 281.674826 267.560598 
L 290.714054 281.93303 
L 299.753282 294.862276 
L 308.79251 304.198311 
L 317.831738 306.344997 
L 326.870966 302.802485 
L 337.342273 294.222523 
L 345.892024 286.47227 
L 351.351599 280.36601 
L 356.811175 274.010689 
L 362.27075 265.898307 
L 367.730326 260.922496 
L 373.189901 254.20441 
L 378.649477 245.012308 
L 384.109053 240.048093 
L 389.568628 233.167425 
L 395.028204 224.630141 
" clip-path="url(#pb1fc343dfb)" style="fill: none; stroke: #1a59cc; stroke-width: 2; stroke-linecap: square"/>
   </g>
   <g id="line2d_33">
    <path d="M 87.592278 310.091154 
L 93.051844 339.769093 
L 98.511403 340.524511 
L 103.97099 287.059265 
L 109.430566 300.741637 
L 114.890133 270.426752 
L 120.349686 287.608553 
L 125.80927 261.228996 
L 131.268845 263.879363 
L 136.728421 274.713025 
L 142.188002 276.435987 
L 147.295415 257.454686 
L 153.424661 277.114682 
L 160.086261 267.040311 
L 165.906224 258.686519 
L 173.204089 272.396533 
L 182.243317 267.992727 
L 191.282545 271.211732 
L 200.321773 268.503599 
L 209.361001 271.596057 
L 218.400229 272.167714 
L 227.439458 270.283412 
L 236.478686 270.286974 
L 245.517914 269.414148 
L 254.557142 278.482872 
L 263.59637 266.292367 
L 272.635598 265.189218 
L 281.674826 268.496783 
L 290.714054 282.472613 
L 299.753282 295.212939 
L 308.79251 304.491133 
L 317.831738 306.493419 
L 326.870966 302.812803 
L 337.342273 300.057773 
L 345.892024 290.291494 
L 351.351599 283.224186 
L 356.811175 275.104356 
L 362.27075 267.327274 
L 367.730326 259.250331 
L 373.189901 252.067327 
L 378.649477 242.795883 
L 384.109053 237.835621 
L 389.568628 231.027475 
L 395.028204 222.307202 
" clip-path="url(#pb1fc343dfb)" style="fill: none; stroke: #dd1a00; stroke-width: 1.3; stroke-linecap: square"/>
   </g>
   <g id="line2d_34">
    <path d="M 87.592278 286.504191 
L 93.051844 243.647463 
L 98.511403 331.545361 
L 103.97099 171.475825 
L 109.430566 223.540575 
L 114.890133 159.363018 
L 120.349686 169.269454 
L 125.80927 168.954647 
L 131.268845 146.273112 
L 136.728421 205.086555 
L 142.188002 191.33258 
L 147.295415 166.158224 
L 153.424661 208.27547 
L 160.086261 192.907985 
L 165.906224 195.721266 
L 173.204089 222.246957 
L 182.243317 221.053048 
L 191.282545 237.140894 
L 200.321773 238.037687 
L 209.361001 246.098942 
L 218.400229 251.335275 
L 227.439458 253.122922 
L 236.478686 255.839563 
L 245.517914 257.248685 
L 254.557142 270.560869 
L 263.59637 262.35624 
L 272.635598 264.266568 
L 281.674826 268.744988 
L 290.714054 282.888006 
L 299.753282 295.624444 
L 308.79251 304.716921 
L 317.831738 306.5841 
L 326.870966 302.895236 
L 337.342273 294.47301 
L 345.892024 286.806688 
L 351.351599 280.541377 
L 356.811175 274.023295 
L 362.27075 267.717225 
L 367.730326 261.127484 
L 373.189901 254.158793 
L 378.649477 244.955262 
L 384.109053 239.979507 
L 389.568628 233.109403 
L 395.028204 224.513271 
" clip-path="url(#pb1fc343dfb)" style="fill: none; stroke: #1350bf; stroke-width: 2; stroke-linecap: square"/>
   </g>
   <g id="line2d_35">
    <path d="M 87.592278 318.048015 
L 93.051844 331.132836 
L 98.511403 337.018257 
L 103.97099 288.400484 
L 109.430566 299.404245 
L 114.890133 268.161592 
L 120.349686 284.85758 
L 125.80927 267.699152 
L 131.268845 262.344172 
L 136.728421 275.26425 
L 142.188002 280.734873 
L 147.295415 248.834716 
L 153.424661 275.173086 
L 160.086261 270.867109 
L 165.906224 260.841518 
L 173.204089 272.480767 
L 182.243317 268.310144 
L 191.282545 272.221241 
L 200.321773 268.913582 
L 209.361001 271.445133 
L 218.400229 270.580892 
L 227.439458 269.871511 
L 236.478686 270.393114 
L 245.517914 269.412539 
L 254.557142 277.392394 
L 263.59637 265.539386 
L 272.635598 265.387595 
L 281.674826 269.278034 
L 290.714054 283.292881 
L 299.753282 296.058447 
L 308.79251 305.179052 
L 317.831738 306.441143 
L 326.870966 302.564025 
L 337.342273 294.915594 
L 345.892024 286.921208 
L 351.351599 280.155357 
L 356.811175 273.723258 
L 362.27075 268.079124 
L 367.730326 260.877125 
L 373.189901 253.887115 
L 378.649477 244.819438 
L 384.109053 239.911197 
L 389.568628 233.133432 
L 395.028204 224.92663 
" clip-path="url(#pb1fc343dfb)" style="fill: none; stroke: #cc0d00; stroke-width: 1.3; stroke-linecap: square"/>
   </g>
   <g id="line2d_36">
    <path d="M 87.592278 288.634514 
L 93.051844 245.286694 
L 98.511403 333.204652 
L 103.97099 174.262121 
L 109.430566 224.981616 
L 114.890133 161.85526 
L 120.349686 174.120657 
L 125.80927 172.353125 
L 131.268845 151.134889 
L 136.728421 208.520671 
L 142.188002 196.922569 
L 147.295415 173.184234 
L 153.424661 214.836834 
L 160.086261 201.186763 
L 165.906224 205.029045 
L 173.204089 229.594481 
L 182.243317 229.822823 
L 191.282545 243.914206 
L 200.321773 243.297152 
L 209.361001 250.551377 
L 218.400229 253.826811 
L 227.439458 254.793997 
L 236.478686 257.454235 
L 245.517914 259.265687 
L 254.557142 271.672448 
L 263.59637 263.293603 
L 272.635598 265.101386 
L 281.674826 269.681558 
L 290.714054 283.677384 
L 299.753282 296.194672 
L 308.79251 305.068942 
L 317.831738 306.744815 
L 326.870966 302.956785 
L 337.342273 294.629461 
L 345.892024 286.969514 
L 351.351599 280.631139 
L 356.811175 274.076708 
L 362.27075 267.194325 
L 367.730326 261.184799 
L 373.189901 254.314938 
L 378.649477 245.162547 
L 384.109053 240.173549 
L 389.568628 233.292617 
L 395.028204 224.706846 
" clip-path="url(#pb1fc343dfb)" style="fill: none; stroke: #0d46b2; stroke-width: 2; stroke-linecap: square"/>
   </g>
   <g id="line2d_37">
    <path d="M 87.592278 310.624444 
L 93.051844 342.400856 
L 98.511403 340.071346 
L 103.97099 284.526712 
L 109.430566 297.726446 
L 114.890133 268.938456 
L 120.349686 284.309361 
L 125.80927 267.966449 
L 131.268845 261.485693 
L 136.728421 275.193373 
L 142.188002 276.120304 
L 147.295415 256.848067 
L 153.424661 277.761226 
L 160.086261 269.676727 
L 165.906224 257.379699 
L 173.204089 274.011803 
L 182.243317 269.225422 
L 191.282545 272.200755 
L 200.321773 269.155672 
L 209.361001 270.202914 
L 218.400229 270.347554 
L 227.439458 269.8644 
L 236.478686 271.014855 
L 245.517914 269.04159 
L 254.557142 276.378682 
L 263.59637 265.17548 
L 272.635598 265.704768 
L 281.674826 269.956502 
L 290.714054 283.844914 
L 299.753282 296.328239 
L 308.79251 305.145564 
L 317.831738 306.769629 
L 326.870966 302.98235 
L 337.342273 295.315045 
L 345.892024 288.032111 
L 351.351599 281.683518 
L 356.811175 274.987212 
L 362.27075 267.974606 
L 367.730326 260.568299 
L 373.189901 253.725478 
L 378.649477 244.613395 
L 384.109053 239.667321 
L 389.568628 232.818617 
L 395.028204 224.086552 
" clip-path="url(#pb1fc343dfb)" style="fill: none; stroke: #b30908; stroke-width: 1.3; stroke-linecap: square"/>
   </g>
   <g id="line2d_38">
    <path d="M 87.592278 312.089742 
L 93.051844 336.081037 
L 98.511403 337.454503 
L 103.97099 291.530603 
L 109.430566 289.577528 
L 114.890133 271.070913 
L 120.349686 284.412723 
L 125.80927 266.57154 
L 131.268845 265.387694 
L 136.728421 272.293562 
L 142.188002 278.317261 
L 147.295415 252.544627 
L 153.424661 274.98799 
L 160.086261 271.230537 
L 165.906224 260.841518 
L 173.204089 274.757348 
L 182.243317 269.676177 
L 191.282545 272.276305 
L 200.321773 268.749164 
L 209.361001 268.984012 
L 218.400229 270.120632 
L 227.439458 270.199958 
L 236.478686 270.675017 
L 245.517914 268.615086 
L 254.557142 275.739498 
L 263.59637 265.064536 
L 272.635598 266.114933 
L 281.674826 270.660435 
L 290.714054 284.630455 
L 299.753282 296.830604 
L 308.79251 305.662854 
L 317.831738 306.819935 
L 326.870966 302.893508 
L 337.342273 295.052375 
L 345.892024 287.095807 
L 351.351599 280.52977 
L 356.811175 274.420391 
L 362.27075 268.448772 
L 367.730326 261.216855 
L 373.189901 254.280813 
L 378.649477 245.098705 
L 384.109053 240.087774 
L 389.568628 233.179878 
L 395.028204 224.518883 
" clip-path="url(#pb1fc343dfb)" style="fill: none; stroke: #990411; stroke-width: 1.3; stroke-linecap: square"/>
   </g>
   <g id="line2d_39">
    <path d="M 87.592278 291.492102 
L 93.051844 249.835279 
L 98.511403 333.204652 
L 103.97099 178.234812 
L 109.430566 231.309046 
L 114.890133 167.395022 
L 120.349686 181.864905 
L 125.80927 179.589105 
L 131.268845 161.489124 
L 136.728421 217.612837 
L 142.188002 207.220115 
L 147.295415 187.381747 
L 153.424661 226.128608 
L 160.086261 217.537892 
L 165.906224 219.696391 
L 173.204089 241.587335 
L 182.243317 242.048728 
L 191.282545 252.058656 
L 200.321773 250.415841 
L 209.361001 253.65516 
L 218.400229 255.862366 
L 227.439458 257.42112 
L 236.478686 260.709021 
L 245.517914 262.146755 
L 254.557142 272.962394 
L 263.59637 264.491778 
L 272.635598 266.359701 
L 281.674826 271.083658 
L 290.714054 284.813366 
L 299.753282 296.942321 
L 308.79251 305.486782 
L 317.831738 306.929183 
L 326.870966 303.040033 
L 337.342273 294.911542 
L 345.892024 287.259629 
L 351.351599 280.935323 
L 356.811175 274.587961 
L 362.27075 268.186731 
L 367.730326 261.167842 
L 373.189901 254.289658 
L 378.649477 245.135894 
L 384.109053 240.151792 
L 389.568628 233.253145 
L 395.028204 224.640735 
" clip-path="url(#pb1fc343dfb)" style="fill: none; stroke: #003399; stroke-width: 2; stroke-linecap: square"/>
   </g>
   <g id="line2d_40">
    <path d="M 87.592278 314.44217 
L 93.051844 341.419949 
L 98.511403 335.673771 
L 103.97099 293.997864 
L 109.430566 288.369248 
L 114.890133 268.273696 
L 120.349686 293.335511 
L 125.80927 253.33181 
L 131.268845 262.46181 
L 136.728421 276.209891 
L 142.188002 275.991016 
L 147.295415 257.819101 
L 153.424661 277.491528 
L 160.086261 270.077674 
L 165.906224 261.516961 
L 173.204089 274.067154 
L 182.243317 270.620734 
L 191.282545 271.669254 
L 200.321773 268.107436 
L 209.361001 269.254592 
L 218.400229 269.954493 
L 227.439458 270.785751 
L 236.478686 270.704025 
L 245.517914 268.172374 
L 254.557142 275.170814 
L 263.59637 265.048235 
L 272.635598 266.428707 
L 281.674826 271.242863 
L 290.714054 284.974024 
L 299.753282 297.062822 
L 308.79251 305.790441 
L 317.831738 306.755011 
L 326.870966 303.124114 
L 337.342273 294.973092 
L 345.892024 287.49406 
L 351.351599 282.179633 
L 356.811175 275.895681 
L 362.27075 268.932964 
L 367.730326 261.211977 
L 373.189901 254.270362 
L 378.649477 244.996589 
L 384.109053 239.957025 
L 389.568628 232.973931 
L 395.028204 224.079592 
" clip-path="url(#pb1fc343dfb)" style="fill: none; stroke: #800019; stroke-width: 1.3; stroke-linecap: square"/>
   </g>
   <g id="patch_3">
    <path d="M 72.220481 361.762089 
L 72.220481 28.518498 
" style="fill: none; stroke: #000000; stroke-width: 0.8; stroke-linejoin: miter; stroke-linecap: square"/>
   </g>
   <g id="patch_4">
    <path d="M 410.4 361.762089 
L 410.4 28.518498 
" style="fill: none; stroke: #000000; stroke-width: 0.8; stroke-linejoin: miter; stroke-linecap: square"/>
   </g>
   <g id="patch_5">
    <path d="M 72.220481 361.762089 
L 410.4 361.762089 
" style="fill: none; stroke: #000000; stroke-width: 0.8; stroke-linejoin: miter; stroke-linecap: square"/>
   </g>
   <g id="patch_6">
    <path d="M 72.220481 28.518498 
L 410.4 28.518498 
" style="fill: none; stroke: #000000; stroke-width: 0.8; stroke-linejoin: miter; stroke-linecap: square"/>
   </g>
   <g id="legend_1">
    <g id="line2d_41">
     <path d="M 314.346213 44.593237 
L 326.346213 44.593237 
L 338.346213 44.593237 
" style="fill: none; stroke-dasharray: 3.7,1.6; stroke-dashoffset: 0; stroke: #0000ff; stroke-opacity: 0.5"/>
    </g>
    <g id="text_13">
     <!-- $T^2$ scaling -->
     <g transform="translate(347.946213 48.793237) scale(0.12 -0.12)">
      <use xlink:href="#CMMI12-54" transform="scale(0.996264)"/>
      <use xlink:href="#CMR17-32" transform="translate(70.723632 36.153639) scale(0.697382)"/>
      <use xlink:href="#CMR17-73" transform="translate(133.280913 0) scale(0.996264)"/>
      <use xlink:href="#CMR17-63" transform="translate(169.08225 0) scale(0.996264)"/>
      <use xlink:href="#CMR17-61" transform="translate(209.567911 0) scale(0.996264)"/>
      <use xlink:href="#CMR17-6c" transform="translate(255.258388 0) scale(0.996264)"/>
      <use xlink:href="#CMR17-69" transform="translate(280.129446 0) scale(0.996264)"/>
      <use xlink:href="#CMR17-6e" transform="translate(305.000505 0) scale(0.996264)"/>
      <use xlink:href="#CMR17-67" transform="translate(355.895874 0) scale(0.996264)"/>
     </g>
    </g>
    <g id="line2d_42">
     <path d="M 314.346213 62.392572 
L 326.346213 62.392572 
L 338.346213 62.392572 
" style="fill: none; stroke-dasharray: 6.4,1.6,1,1.6; stroke-dashoffset: 0; stroke: #ff0000; stroke-opacity: 0.5"/>
    </g>
    <g id="text_14">
     <!-- $T^4$ scaling -->
     <g transform="translate(347.946213 66.592572) scale(0.12 -0.12)">
      <use xlink:href="#CMMI12-54" transform="scale(0.996264)"/>
      <use xlink:href="#CMR17-34" transform="translate(70.723632 36.153639) scale(0.697382)"/>
      <use xlink:href="#CMR17-73" transform="translate(133.280913 0) scale(0.996264)"/>
      <use xlink:href="#CMR17-63" transform="translate(169.08225 0) scale(0.996264)"/>
      <use xlink:href="#CMR17-61" transform="translate(209.567911 0) scale(0.996264)"/>
      <use xlink:href="#CMR17-6c" transform="translate(255.258388 0) scale(0.996264)"/>
      <use xlink:href="#CMR17-69" transform="translate(280.129446 0) scale(0.996264)"/>
      <use xlink:href="#CMR17-6e" transform="translate(305.000505 0) scale(0.996264)"/>
      <use xlink:href="#CMR17-67" transform="translate(355.895874 0) scale(0.996264)"/>
     </g>
    </g>
   </g>
  </g>
 </g>
 <defs>
  <clipPath id="pb1fc343dfb">
   <rect x="72.220481" y="28.518498" width="338.179519" height="333.243591"/>
  </clipPath>
 </defs>
</svg>
