<?xml version="1.0" encoding="utf-8" standalone="no"?>
<!DOCTYPE svg PUBLIC "-//W3C//DTD SVG 1.1//EN"
  "http://www.w3.org/Graphics/SVG/1.1/DTD/svg11.dtd">
<svg xmlns:xlink="http://www.w3.org/1999/xlink" width="518.4pt" height="388.8pt" viewBox="0 0 518.4 388.8" xmlns="http://www.w3.org/2000/svg" version="1.1">
 <metadata>
  <rdf:RDF xmlns:dc="http://purl.org/dc/elements/1.1/" xmlns:cc="http://creativecommons.org/ns#" xmlns:rdf="http://www.w3.org/1999/02/22-rdf-syntax-ns#">
   <cc:Work>
    <dc:type rdf:resource="http://purl.org/dc/dcmitype/StillImage"/>
    <dc:date>2026-01-27T02:35:21.735139</dc:date>
    <dc:format>image/svg+xml</dc:format>
    <dc:creator>
     <cc:Agent>
      <dc:title>Matplotlib v3.8.4, https://matplotlib.org/</dc:title>
     </cc:Agent>
    </dc:creator>
   </cc:Work>
  </rdf:RDF>
 </metadata>
 <defs>
  <style type="text/css">*{stroke-linejoin: round; stroke-linecap: butt}</style>
 </defs>
 <g id="figure_1">
  <g id="patch_1">
   <path d="M 0 388.8 
L 518.4 388.8 
L 518.4 0 
L 0 0 
z
" style="fill: #ffffff"/>
  </g>
  <g id="axes_1">
   <g id="patch_2">
    <path d="M 96.581809 318.562089 
L 496.8 318.562089 
L 496.8 21.6 
L 96.581809 21.6 
z
" style="fill: #ffffff"/>
   </g>
   <g id="matplotlib.axis_1">
    <g id="xtick_1">
     <g id="line2d_1">
      <defs>
       <path id="mee1e7793cc" d="M 0 0 
L 0 3.5 
" style="stroke: #000000; stroke-width: 0.8"/>
      </defs>
      <g>
       <use xlink:href="#mee1e7793cc" x="96.581809" y="318.562089" style="stroke: #000000; stroke-width: 0.8"/>
      </g>
     </g>
     <g id="text_1">
      <!-- $\mathdefault{10^{-4}}$ -->
      <g transform="translate(78.60539 339.399086) scale(0.2 -0.2)">
       <defs>
        <path id="CMR17-31" d="M 1702 4058 
C 1702 4192 1696 4192 1606 4192 
C 1357 3916 979 3827 621 3827 
C 602 3827 570 3827 563 3808 
C 557 3795 557 3782 557 3648 
C 755 3648 1088 3686 1344 3839 
L 1344 461 
C 1344 236 1331 160 781 160 
L 589 160 
L 589 0 
C 896 0 1216 0 1523 0 
C 1830 0 2150 0 2458 0 
L 2458 160 
L 2266 160 
C 1715 160 1702 230 1702 458 
L 1702 4058 
z
" transform="scale(0.015625)"/>
        <path id="CMR17-30" d="M 2688 2025 
C 2688 2416 2682 3080 2413 3591 
C 2176 4039 1798 4198 1466 4198 
C 1158 4198 768 4058 525 3597 
C 269 3118 243 2524 243 2025 
C 243 1661 250 1106 448 619 
C 723 -39 1216 -128 1466 -128 
C 1760 -128 2208 -7 2470 600 
C 2662 1042 2688 1559 2688 2025 
z
M 1466 -26 
C 1056 -26 813 325 723 812 
C 653 1188 653 1738 653 2096 
C 653 2588 653 2997 736 3387 
C 858 3929 1216 4096 1466 4096 
C 1728 4096 2067 3923 2189 3400 
C 2272 3036 2278 2607 2278 2096 
C 2278 1680 2278 1169 2202 792 
C 2067 95 1690 -26 1466 -26 
z
" transform="scale(0.015625)"/>
        <path id="CMSY10-0" d="M 4218 1472 
C 4326 1472 4442 1472 4442 1600 
C 4442 1728 4326 1728 4218 1728 
L 755 1728 
C 646 1728 531 1728 531 1600 
C 531 1472 646 1472 755 1472 
L 4218 1472 
z
" transform="scale(0.015625)"/>
        <path id="CMR17-34" d="M 2150 4122 
C 2150 4256 2144 4256 2029 4256 
L 128 1254 
L 128 1088 
L 1779 1088 
L 1779 457 
C 1779 224 1766 160 1318 160 
L 1197 160 
L 1197 0 
C 1402 0 1747 0 1965 0 
C 2182 0 2528 0 2733 0 
L 2733 160 
L 2611 160 
C 2163 160 2150 224 2150 457 
L 2150 1088 
L 2803 1088 
L 2803 1254 
L 2150 1254 
L 2150 4122 
z
M 1798 3703 
L 1798 1254 
L 256 1254 
L 1798 3703 
z
" transform="scale(0.015625)"/>
       </defs>
       <use xlink:href="#CMR17-31" transform="scale(0.996264)"/>
       <use xlink:href="#CMR17-30" transform="translate(45.690477 0) scale(0.996264)"/>
       <use xlink:href="#CMSY10-0" transform="translate(91.380954 36.153639) scale(0.697382)"/>
       <use xlink:href="#CMR17-34" transform="translate(145.621947 36.153639) scale(0.697382)"/>
      </g>
     </g>
    </g>
    <g id="xtick_2">
     <g id="line2d_2">
      <g>
       <use xlink:href="#mee1e7793cc" x="201.73138" y="318.562089" style="stroke: #000000; stroke-width: 0.8"/>
      </g>
     </g>
     <g id="text_2">
      <!-- $\mathdefault{10^{-3}}$ -->
      <g transform="translate(183.754961 339.399086) scale(0.2 -0.2)">
       <defs>
        <path id="CMR17-33" d="M 1414 2157 
C 1984 2157 2234 1662 2234 1090 
C 2234 320 1824 25 1453 25 
C 1114 25 563 194 390 693 
C 422 680 454 680 486 680 
C 640 680 755 782 755 948 
C 755 1133 614 1216 486 1216 
C 378 1216 211 1165 211 926 
C 211 335 787 -128 1466 -128 
C 2176 -128 2720 430 2720 1085 
C 2720 1707 2208 2157 1600 2227 
C 2086 2328 2554 2756 2554 3329 
C 2554 3820 2048 4179 1472 4179 
C 890 4179 378 3829 378 3329 
C 378 3110 544 3072 627 3072 
C 762 3072 877 3155 877 3321 
C 877 3486 762 3569 627 3569 
C 602 3569 570 3569 544 3557 
C 730 3959 1235 4032 1459 4032 
C 1683 4032 2106 3925 2106 3320 
C 2106 3143 2080 2828 1862 2550 
C 1670 2304 1453 2304 1242 2284 
C 1210 2284 1062 2269 1037 2269 
C 992 2263 966 2257 966 2208 
C 966 2163 973 2157 1101 2157 
L 1414 2157 
z
" transform="scale(0.015625)"/>
       </defs>
       <use xlink:href="#CMR17-31" transform="scale(0.996264)"/>
       <use xlink:href="#CMR17-30" transform="translate(45.690477 0) scale(0.996264)"/>
       <use xlink:href="#CMSY10-0" transform="translate(91.380954 36.153639) scale(0.697382)"/>
       <use xlink:href="#CMR17-33" transform="translate(145.621947 36.153639) scale(0.697382)"/>
      </g>
     </g>
    </g>
    <g id="xtick_3">
     <g id="line2d_3">
      <g>
       <use xlink:href="#mee1e7793cc" x="306.880951" y="318.562089" style="stroke: #000000; stroke-width: 0.8"/>
      </g>
     </g>
     <g id="text_3">
      <!-- $\mathdefault{10^{-2}}$ -->
      <g transform="translate(288.904531 339.399086) scale(0.2 -0.2)">
       <defs>
        <path id="CMR17-32" d="M 2669 989 
L 2554 989 
C 2490 536 2438 459 2413 420 
C 2381 369 1920 369 1830 369 
L 602 369 
C 832 619 1280 1072 1824 1597 
C 2214 1967 2669 2402 2669 3035 
C 2669 3790 2067 4224 1395 4224 
C 691 4224 262 3604 262 3030 
C 262 2780 448 2748 525 2748 
C 589 2748 781 2787 781 3010 
C 781 3207 614 3264 525 3264 
C 486 3264 448 3258 422 3245 
C 544 3790 915 4058 1306 4058 
C 1862 4058 2227 3617 2227 3035 
C 2227 2479 1901 2000 1536 1584 
L 262 146 
L 262 0 
L 2515 0 
L 2669 989 
z
" transform="scale(0.015625)"/>
       </defs>
       <use xlink:href="#CMR17-31" transform="scale(0.996264)"/>
       <use xlink:href="#CMR17-30" transform="translate(45.690477 0) scale(0.996264)"/>
       <use xlink:href="#CMSY10-0" transform="translate(91.380954 36.153639) scale(0.697382)"/>
       <use xlink:href="#CMR17-32" transform="translate(145.621947 36.153639) scale(0.697382)"/>
      </g>
     </g>
    </g>
    <g id="xtick_4">
     <g id="line2d_4">
      <g>
       <use xlink:href="#mee1e7793cc" x="412.030522" y="318.562089" style="stroke: #000000; stroke-width: 0.8"/>
      </g>
     </g>
     <g id="text_4">
      <!-- $\mathdefault{10^{-1}}$ -->
      <g transform="translate(394.054102 339.399086) scale(0.2 -0.2)">
       <use xlink:href="#CMR17-31" transform="scale(0.996264)"/>
       <use xlink:href="#CMR17-30" transform="translate(45.690477 0) scale(0.996264)"/>
       <use xlink:href="#CMSY10-0" transform="translate(91.380954 36.153639) scale(0.697382)"/>
       <use xlink:href="#CMR17-31" transform="translate(145.621947 36.153639) scale(0.697382)"/>
      </g>
     </g>
    </g>
    <g id="xtick_5">
     <g id="line2d_5">
      <defs>
       <path id="ma37bde7ec6" d="M 0 0 
L 0 2 
" style="stroke: #000000; stroke-width: 0.6"/>
      </defs>
      <g>
       <use xlink:href="#ma37bde7ec6" x="128.234984" y="318.562089" style="stroke: #000000; stroke-width: 0.6"/>
      </g>
     </g>
    </g>
    <g id="xtick_6">
     <g id="line2d_6">
      <g>
       <use xlink:href="#ma37bde7ec6" x="146.750904" y="318.562089" style="stroke: #000000; stroke-width: 0.6"/>
      </g>
     </g>
    </g>
    <g id="xtick_7">
     <g id="line2d_7">
      <g>
       <use xlink:href="#ma37bde7ec6" x="159.888159" y="318.562089" style="stroke: #000000; stroke-width: 0.6"/>
      </g>
     </g>
    </g>
    <g id="xtick_8">
     <g id="line2d_8">
      <g>
       <use xlink:href="#ma37bde7ec6" x="170.078205" y="318.562089" style="stroke: #000000; stroke-width: 0.6"/>
      </g>
     </g>
    </g>
    <g id="xtick_9">
     <g id="line2d_9">
      <g>
       <use xlink:href="#ma37bde7ec6" x="178.404079" y="318.562089" style="stroke: #000000; stroke-width: 0.6"/>
      </g>
     </g>
    </g>
    <g id="xtick_10">
     <g id="line2d_10">
      <g>
       <use xlink:href="#ma37bde7ec6" x="185.443505" y="318.562089" style="stroke: #000000; stroke-width: 0.6"/>
      </g>
     </g>
    </g>
    <g id="xtick_11">
     <g id="line2d_11">
      <g>
       <use xlink:href="#ma37bde7ec6" x="191.541334" y="318.562089" style="stroke: #000000; stroke-width: 0.6"/>
      </g>
     </g>
    </g>
    <g id="xtick_12">
     <g id="line2d_12">
      <g>
       <use xlink:href="#ma37bde7ec6" x="196.919999" y="318.562089" style="stroke: #000000; stroke-width: 0.6"/>
      </g>
     </g>
    </g>
    <g id="xtick_13">
     <g id="line2d_13">
      <g>
       <use xlink:href="#ma37bde7ec6" x="233.384555" y="318.562089" style="stroke: #000000; stroke-width: 0.6"/>
      </g>
     </g>
    </g>
    <g id="xtick_14">
     <g id="line2d_14">
      <g>
       <use xlink:href="#ma37bde7ec6" x="251.900475" y="318.562089" style="stroke: #000000; stroke-width: 0.6"/>
      </g>
     </g>
    </g>
    <g id="xtick_15">
     <g id="line2d_15">
      <g>
       <use xlink:href="#ma37bde7ec6" x="265.03773" y="318.562089" style="stroke: #000000; stroke-width: 0.6"/>
      </g>
     </g>
    </g>
    <g id="xtick_16">
     <g id="line2d_16">
      <g>
       <use xlink:href="#ma37bde7ec6" x="275.227776" y="318.562089" style="stroke: #000000; stroke-width: 0.6"/>
      </g>
     </g>
    </g>
    <g id="xtick_17">
     <g id="line2d_17">
      <g>
       <use xlink:href="#ma37bde7ec6" x="283.55365" y="318.562089" style="stroke: #000000; stroke-width: 0.6"/>
      </g>
     </g>
    </g>
    <g id="xtick_18">
     <g id="line2d_18">
      <g>
       <use xlink:href="#ma37bde7ec6" x="290.593076" y="318.562089" style="stroke: #000000; stroke-width: 0.6"/>
      </g>
     </g>
    </g>
    <g id="xtick_19">
     <g id="line2d_19">
      <g>
       <use xlink:href="#ma37bde7ec6" x="296.690904" y="318.562089" style="stroke: #000000; stroke-width: 0.6"/>
      </g>
     </g>
    </g>
    <g id="xtick_20">
     <g id="line2d_20">
      <g>
       <use xlink:href="#ma37bde7ec6" x="302.06957" y="318.562089" style="stroke: #000000; stroke-width: 0.6"/>
      </g>
     </g>
    </g>
    <g id="xtick_21">
     <g id="line2d_21">
      <g>
       <use xlink:href="#ma37bde7ec6" x="338.534126" y="318.562089" style="stroke: #000000; stroke-width: 0.6"/>
      </g>
     </g>
    </g>
    <g id="xtick_22">
     <g id="line2d_22">
      <g>
       <use xlink:href="#ma37bde7ec6" x="357.050046" y="318.562089" style="stroke: #000000; stroke-width: 0.6"/>
      </g>
     </g>
    </g>
    <g id="xtick_23">
     <g id="line2d_23">
      <g>
       <use xlink:href="#ma37bde7ec6" x="370.187301" y="318.562089" style="stroke: #000000; stroke-width: 0.6"/>
      </g>
     </g>
    </g>
    <g id="xtick_24">
     <g id="line2d_24">
      <g>
       <use xlink:href="#ma37bde7ec6" x="380.377347" y="318.562089" style="stroke: #000000; stroke-width: 0.6"/>
      </g>
     </g>
    </g>
    <g id="xtick_25">
     <g id="line2d_25">
      <g>
       <use xlink:href="#ma37bde7ec6" x="388.703221" y="318.562089" style="stroke: #000000; stroke-width: 0.6"/>
      </g>
     </g>
    </g>
    <g id="xtick_26">
     <g id="line2d_26">
      <g>
       <use xlink:href="#ma37bde7ec6" x="395.742647" y="318.562089" style="stroke: #000000; stroke-width: 0.6"/>
      </g>
     </g>
    </g>
    <g id="xtick_27">
     <g id="line2d_27">
      <g>
       <use xlink:href="#ma37bde7ec6" x="401.840475" y="318.562089" style="stroke: #000000; stroke-width: 0.6"/>
      </g>
     </g>
    </g>
    <g id="xtick_28">
     <g id="line2d_28">
      <g>
       <use xlink:href="#ma37bde7ec6" x="407.219141" y="318.562089" style="stroke: #000000; stroke-width: 0.6"/>
      </g>
     </g>
    </g>
    <g id="xtick_29">
     <g id="line2d_29">
      <g>
       <use xlink:href="#ma37bde7ec6" x="443.683697" y="318.562089" style="stroke: #000000; stroke-width: 0.6"/>
      </g>
     </g>
    </g>
    <g id="xtick_30">
     <g id="line2d_30">
      <g>
       <use xlink:href="#ma37bde7ec6" x="462.199617" y="318.562089" style="stroke: #000000; stroke-width: 0.6"/>
      </g>
     </g>
    </g>
    <g id="xtick_31">
     <g id="line2d_31">
      <g>
       <use xlink:href="#ma37bde7ec6" x="475.336871" y="318.562089" style="stroke: #000000; stroke-width: 0.6"/>
      </g>
     </g>
    </g>
    <g id="xtick_32">
     <g id="line2d_32">
      <g>
       <use xlink:href="#ma37bde7ec6" x="485.526918" y="318.562089" style="stroke: #000000; stroke-width: 0.6"/>
      </g>
     </g>
    </g>
    <g id="xtick_33">
     <g id="line2d_33">
      <g>
       <use xlink:href="#ma37bde7ec6" x="493.852792" y="318.562089" style="stroke: #000000; stroke-width: 0.6"/>
      </g>
     </g>
    </g>
    <g id="text_5">
     <!-- Temperature, $T/T_F$ -->
     <g transform="translate(218.078984 362.21868) scale(0.2 -0.2)">
      <defs>
       <path id="CMR17-54" d="M 3981 4326 
L 288 4326 
L 179 2918 
L 294 2918 
C 378 3976 467 4160 1453 4160 
C 1568 4160 1754 4160 1805 4154 
C 1926 4135 1926 4058 1926 3912 
L 1926 459 
C 1926 230 1907 160 1376 160 
L 1197 160 
L 1197 0 
C 1504 0 1824 0 2138 0 
C 2451 0 2771 0 3078 0 
L 3078 160 
L 2899 160 
C 2368 160 2349 230 2349 459 
L 2349 3912 
C 2349 4052 2349 4129 2464 4154 
C 2515 4160 2701 4160 2816 4160 
C 3795 4160 3891 3976 3974 2918 
L 4090 2918 
L 3981 4326 
z
" transform="scale(0.015625)"/>
       <path id="CMR17-65" d="M 2438 1472 
C 2464 1498 2464 1511 2464 1576 
C 2464 2238 2118 2816 1389 2816 
C 710 2816 173 2169 173 1383 
C 173 551 781 -64 1459 -64 
C 2176 -64 2458 607 2458 740 
C 2458 784 2419 784 2406 784 
C 2362 784 2355 771 2330 696 
C 2189 265 1837 51 1504 51 
C 1229 51 954 203 781 480 
C 582 803 582 1176 582 1472 
L 2438 1472 
z
M 589 1568 
C 634 2505 1126 2714 1382 2714 
C 1818 2714 2112 2297 2118 1568 
L 589 1568 
z
" transform="scale(0.015625)"/>
       <path id="CMR17-6d" d="M 4326 1933 
C 4326 2252 4269 2790 3507 2790 
C 3072 2790 2771 2496 2656 2151 
L 2650 2151 
C 2573 2676 2195 2790 1837 2790 
C 1331 2790 1069 2400 973 2144 
L 966 2144 
L 966 2790 
L 211 2720 
L 211 2554 
C 589 2554 646 2515 646 2208 
L 646 428 
C 646 184 621 153 211 153 
L 211 -13 
C 365 0 646 0 813 0 
C 979 0 1267 0 1421 -13 
L 1421 153 
C 1011 153 986 178 986 428 
L 986 1658 
C 986 2247 1344 2688 1792 2688 
C 2266 2688 2317 2266 2317 1958 
L 2317 428 
C 2317 184 2291 153 1882 153 
L 1882 -13 
C 2035 0 2317 0 2483 0 
C 2650 0 2938 0 3091 -13 
L 3091 153 
C 2682 153 2656 178 2656 428 
L 2656 1658 
C 2656 2247 3014 2688 3462 2688 
C 3936 2688 3987 2266 3987 1958 
L 3987 428 
C 3987 184 3962 153 3552 153 
L 3552 -13 
C 3706 0 3987 0 4154 0 
C 4320 0 4608 0 4762 -13 
L 4762 153 
C 4352 153 4326 178 4326 428 
L 4326 1933 
z
" transform="scale(0.015625)"/>
       <path id="CMR17-70" d="M 1408 -1063 
C 998 -1063 973 -1037 973 -789 
L 973 402 
C 1158 134 1427 -38 1766 -38 
C 2406 -38 3053 523 3053 1388 
C 3053 2191 2496 2802 1837 2802 
C 1453 2802 1139 2592 960 2338 
L 960 2802 
L 198 2732 
L 198 2567 
C 576 2567 634 2528 634 2223 
L 634 -789 
C 634 -1031 608 -1063 198 -1063 
L 198 -1228 
C 352 -1216 634 -1216 800 -1216 
C 966 -1216 1254 -1216 1408 -1228 
L 1408 -1063 
z
M 973 2012 
C 973 2102 973 2235 1222 2471 
C 1254 2497 1472 2688 1792 2688 
C 2259 2688 2643 2108 2643 1382 
C 2643 656 2234 64 1728 64 
C 1498 64 1248 172 1056 472 
C 973 612 973 650 973 752 
L 973 2012 
z
" transform="scale(0.015625)"/>
       <path id="CMR17-72" d="M 960 1497 
C 960 2112 1222 2688 1702 2688 
C 1747 2688 1792 2682 1837 2662 
C 1837 2662 1696 2617 1696 2452 
C 1696 2298 1818 2234 1914 2234 
C 1990 2234 2131 2279 2131 2458 
C 2131 2663 1926 2790 1709 2790 
C 1222 2790 1011 2317 947 2093 
L 941 2093 
L 941 2790 
L 198 2720 
L 198 2554 
C 576 2554 634 2515 634 2208 
L 634 428 
C 634 184 608 153 198 153 
L 198 -13 
C 352 0 646 0 813 0 
C 998 0 1325 0 1498 -13 
L 1498 153 
C 1037 153 960 153 960 440 
L 960 1497 
z
" transform="scale(0.015625)"/>
       <path id="CMR17-61" d="M 2304 1653 
C 2304 2072 2304 2294 2035 2543 
C 1798 2752 1523 2816 1306 2816 
C 800 2816 435 2407 435 1971 
C 435 1728 627 1728 666 1728 
C 749 1728 896 1778 896 1954 
C 896 2112 774 2181 666 2181 
C 640 2181 608 2174 589 2168 
C 723 2592 1069 2714 1293 2714 
C 1613 2714 1965 2429 1965 1885 
L 1965 1600 
C 1587 1600 1133 1549 774 1357 
C 371 1133 256 813 256 570 
C 256 77 832 -64 1171 -64 
C 1523 -64 1850 139 1990 511 
C 2003 233 2182 -18 2464 -18 
C 2598 -18 2938 70 2938 567 
L 2938 920 
L 2822 920 
L 2822 562 
C 2822 178 2650 128 2566 128 
C 2304 128 2304 458 2304 738 
L 2304 1653 
z
M 1965 870 
C 1965 317 1568 38 1216 38 
C 896 38 646 275 646 570 
C 646 761 730 1100 1101 1305 
C 1408 1478 1760 1504 1965 1504 
L 1965 870 
z
" transform="scale(0.015625)"/>
       <path id="CMR17-74" d="M 966 2560 
L 1862 2560 
L 1862 2725 
L 966 2725 
L 966 3904 
L 851 3904 
C 838 3245 614 2668 70 2668 
L 70 2560 
L 627 2560 
L 627 771 
C 627 650 627 -64 1370 -64 
C 1747 -64 1965 306 1965 777 
L 1965 1140 
L 1850 1140 
L 1850 783 
C 1850 344 1677 51 1408 51 
C 1222 51 966 178 966 758 
L 966 2560 
z
" transform="scale(0.015625)"/>
       <path id="CMR17-75" d="M 1882 2693 
L 1882 2528 
C 2259 2528 2317 2489 2317 2186 
L 2317 1032 
C 2317 500 2029 38 1555 38 
C 1030 38 986 348 986 678 
L 986 2763 
L 211 2693 
L 211 2528 
C 467 2528 640 2528 646 2274 
L 646 1058 
C 646 633 646 361 813 183 
C 896 101 1056 -64 1517 -64 
C 2061 -64 2272 377 2323 506 
L 2330 506 
L 2330 -63 
L 3091 -63 
L 3091 128 
C 2714 128 2656 166 2656 473 
L 2656 2763 
L 1882 2693 
z
" transform="scale(0.015625)"/>
       <path id="CMR17-2c" d="M 1011 102 
C 1024 45 1024 25 1024 -77 
C 1024 -463 896 -817 627 -1139 
C 595 -1170 595 -1183 595 -1197 
C 595 -1222 621 -1248 646 -1248 
C 685 -1248 1126 -799 1126 -87 
C 1126 124 1101 522 800 522 
C 659 522 538 427 538 261 
C 538 96 659 0 800 0 
C 877 0 960 32 1011 102 
z
" transform="scale(0.015625)"/>
       <path id="CMMI12-54" d="M 2669 3910 
C 2707 4064 2720 4121 2816 4147 
C 2867 4160 3078 4160 3213 4160 
C 3853 4160 4154 4134 4154 3634 
C 4154 3537 4128 3295 4090 3057 
L 4083 2980 
C 4083 2954 4109 2916 4147 2916 
C 4211 2916 4211 2948 4230 3050 
L 4416 4184 
C 4429 4243 4429 4256 4429 4275 
C 4429 4345 4390 4345 4262 4345 
L 762 4345 
C 614 4345 608 4339 570 4224 
L 179 3070 
C 173 3056 154 2986 154 2980 
C 154 2948 179 2916 218 2916 
C 269 2916 282 2941 307 3024 
C 576 3801 710 4160 1562 4160 
L 1990 4160 
C 2144 4160 2208 4160 2208 4089 
C 2208 4069 2208 4057 2176 3941 
L 1318 499 
C 1254 249 1242 185 563 185 
C 403 185 358 185 358 64 
C 358 0 429 0 461 0 
C 621 0 787 0 947 0 
L 1946 0 
C 2106 0 2278 0 2438 0 
C 2509 0 2573 0 2573 121 
C 2573 185 2528 185 2362 185 
C 1786 185 1786 243 1786 339 
C 1786 346 1786 391 1811 494 
L 2669 3910 
z
" transform="scale(0.015625)"/>
       <path id="CMMI12-3d" d="M 2746 4562 
C 2746 4569 2784 4666 2784 4678 
C 2784 4755 2720 4800 2669 4800 
C 2637 4800 2579 4800 2528 4659 
L 384 -1363 
C 384 -1370 346 -1465 346 -1478 
C 346 -1555 410 -1600 461 -1600 
C 499 -1600 557 -1593 602 -1459 
L 2746 4562 
z
" transform="scale(0.015625)"/>
       <path id="CMMI12-46" d="M 1901 2055 
L 2515 2055 
C 3002 2055 3040 1946 3040 1761 
C 3040 1678 3027 1589 2995 1448 
C 2982 1423 2976 1391 2976 1378 
C 2976 1333 3002 1308 3046 1308 
C 3098 1308 3104 1333 3130 1435 
L 3501 2935 
C 3501 2961 3482 2999 3437 2999 
C 3379 2999 3373 2974 3347 2863 
C 3213 2376 3085 2240 2528 2240 
L 1946 2240 
L 2362 3926 
C 2419 4154 2432 4154 2694 4154 
L 3552 4154 
C 4352 4154 4467 3918 4467 3464 
C 4467 3426 4467 3285 4448 3119 
C 4442 3094 4429 3011 4429 2985 
C 4429 2934 4461 2915 4499 2915 
C 4544 2915 4570 2941 4582 3055 
L 4717 4174 
C 4717 4195 4730 4263 4730 4277 
C 4730 4352 4672 4352 4557 4352 
L 1523 4352 
C 1402 4352 1338 4352 1338 4229 
C 1338 4154 1382 4154 1491 4154 
C 1888 4154 1888 4113 1888 4050 
C 1888 4018 1882 3992 1862 3922 
L 998 473 
C 941 249 928 185 480 185 
C 358 185 294 185 294 70 
C 294 0 352 0 390 0 
C 512 0 640 0 762 0 
L 1594 0 
C 1734 0 1888 0 2029 0 
C 2086 0 2163 0 2163 115 
C 2163 185 2125 185 1984 185 
C 1478 185 1466 229 1466 324 
C 1466 356 1478 406 1491 449 
L 1901 2055 
z
" transform="scale(0.015625)"/>
      </defs>
      <use xlink:href="#CMR17-54" transform="scale(0.996264)"/>
      <use xlink:href="#CMR17-65" transform="translate(58.702625 0) scale(0.996264)"/>
      <use xlink:href="#CMR17-6d" transform="translate(99.188286 0) scale(0.996264)"/>
      <use xlink:href="#CMR17-70" transform="translate(176.107875 0) scale(0.996264)"/>
      <use xlink:href="#CMR17-65" transform="translate(229.605684 0) scale(0.996264)"/>
      <use xlink:href="#CMR17-72" transform="translate(270.091344 0) scale(0.996264)"/>
      <use xlink:href="#CMR17-61" transform="translate(305.372112 0) scale(0.996264)"/>
      <use xlink:href="#CMR17-74" transform="translate(351.062589 0) scale(0.996264)"/>
      <use xlink:href="#CMR17-75" transform="translate(386.343357 0) scale(0.996264)"/>
      <use xlink:href="#CMR17-72" transform="translate(437.238727 0) scale(0.996264)"/>
      <use xlink:href="#CMR17-65" transform="translate(472.519495 0) scale(0.996264)"/>
      <use xlink:href="#CMR17-2c" transform="translate(513.005155 0) scale(0.996264)"/>
      <use xlink:href="#CMMI12-54" transform="translate(567.95218 0) scale(0.996264)"/>
      <use xlink:href="#CMMI12-3d" transform="translate(635.966095 0) scale(0.996264)"/>
      <use xlink:href="#CMMI12-54" transform="translate(684.741013 0) scale(0.996264)"/>
      <use xlink:href="#CMMI12-46" transform="translate(741.916057 -14.943915) scale(0.697382)"/>
     </g>
    </g>
   </g>
   <g id="matplotlib.axis_2">
    <g id="ytick_1">
     <g id="line2d_34">
      <defs>
       <path id="m011ac69fd7" d="M 0 0 
L -3.5 0 
" style="stroke: #000000; stroke-width: 0.8"/>
      </defs>
      <g>
       <use xlink:href="#m011ac69fd7" x="96.581809" y="269.094663" style="stroke: #000000; stroke-width: 0.8"/>
      </g>
     </g>
     <g id="text_6">
      <!-- $\mathdefault{10^{-12}}$ -->
      <g transform="translate(46.800512 276.013162) scale(0.2 -0.2)">
       <use xlink:href="#CMR17-31" transform="scale(0.996264)"/>
       <use xlink:href="#CMR17-30" transform="translate(45.690477 0) scale(0.996264)"/>
       <use xlink:href="#CMSY10-0" transform="translate(91.380954 36.153639) scale(0.697382)"/>
       <use xlink:href="#CMR17-31" transform="translate(145.621947 36.153639) scale(0.697382)"/>
       <use xlink:href="#CMR17-32" transform="translate(177.605129 36.153639) scale(0.697382)"/>
      </g>
     </g>
    </g>
    <g id="ytick_2">
     <g id="line2d_35">
      <g>
       <use xlink:href="#m011ac69fd7" x="96.581809" y="213.495836" style="stroke: #000000; stroke-width: 0.8"/>
      </g>
     </g>
     <g id="text_7">
      <!-- $\mathdefault{10^{-9}}$ -->
      <g transform="translate(53.62897 220.414335) scale(0.2 -0.2)">
       <defs>
        <path id="CMR17-39" d="M 2253 1864 
C 2253 464 1670 31 1190 31 
C 1043 31 685 31 538 294 
C 704 268 826 357 826 518 
C 826 692 685 749 595 749 
C 538 749 365 723 365 506 
C 365 71 742 -128 1203 -128 
C 1939 -128 2688 674 2688 2073 
C 2688 3817 1971 4179 1485 4179 
C 851 4179 243 3628 243 2778 
C 243 1991 762 1408 1414 1408 
C 1952 1408 2189 1903 2253 2112 
L 2253 1864 
z
M 1427 1510 
C 1254 1510 1011 1542 813 1922 
C 678 2169 678 2461 678 2771 
C 678 3146 678 3405 858 3684 
C 947 3817 1114 4032 1485 4032 
C 2240 4032 2240 2885 2240 2632 
C 2240 2182 2035 1510 1427 1510 
z
" transform="scale(0.015625)"/>
       </defs>
       <use xlink:href="#CMR17-31" transform="scale(0.996264)"/>
       <use xlink:href="#CMR17-30" transform="translate(45.690477 0) scale(0.996264)"/>
       <use xlink:href="#CMSY10-0" transform="translate(91.380954 36.153639) scale(0.697382)"/>
       <use xlink:href="#CMR17-39" transform="translate(145.621947 36.153639) scale(0.697382)"/>
      </g>
     </g>
    </g>
    <g id="ytick_3">
     <g id="line2d_36">
      <g>
       <use xlink:href="#m011ac69fd7" x="96.581809" y="157.89701" style="stroke: #000000; stroke-width: 0.8"/>
      </g>
     </g>
     <g id="text_8">
      <!-- $\mathdefault{10^{-6}}$ -->
      <g transform="translate(53.62897 164.815508) scale(0.2 -0.2)">
       <defs>
        <path id="CMR17-36" d="M 678 2176 
C 678 3690 1395 4032 1811 4032 
C 1946 4032 2272 4009 2400 3776 
C 2298 3776 2106 3776 2106 3553 
C 2106 3381 2246 3323 2336 3323 
C 2394 3323 2566 3348 2566 3560 
C 2566 3954 2246 4179 1805 4179 
C 1043 4179 243 3390 243 1984 
C 243 253 966 -128 1478 -128 
C 2099 -128 2688 427 2688 1283 
C 2688 2081 2170 2662 1517 2662 
C 1126 2662 838 2407 678 1960 
L 678 2176 
z
M 1478 25 
C 691 25 691 1200 691 1436 
C 691 1896 909 2560 1504 2560 
C 1613 2560 1926 2560 2138 2120 
C 2253 1870 2253 1609 2253 1289 
C 2253 944 2253 690 2118 434 
C 1978 171 1773 25 1478 25 
z
" transform="scale(0.015625)"/>
       </defs>
       <use xlink:href="#CMR17-31" transform="scale(0.996264)"/>
       <use xlink:href="#CMR17-30" transform="translate(45.690477 0) scale(0.996264)"/>
       <use xlink:href="#CMSY10-0" transform="translate(91.380954 36.153639) scale(0.697382)"/>
       <use xlink:href="#CMR17-36" transform="translate(145.621947 36.153639) scale(0.697382)"/>
      </g>
     </g>
    </g>
    <g id="ytick_4">
     <g id="line2d_37">
      <g>
       <use xlink:href="#m011ac69fd7" x="96.581809" y="102.298183" style="stroke: #000000; stroke-width: 0.8"/>
      </g>
     </g>
     <g id="text_9">
      <!-- $\mathdefault{10^{-3}}$ -->
      <g transform="translate(53.62897 109.216681) scale(0.2 -0.2)">
       <use xlink:href="#CMR17-31" transform="scale(0.996264)"/>
       <use xlink:href="#CMR17-30" transform="translate(45.690477 0) scale(0.996264)"/>
       <use xlink:href="#CMSY10-0" transform="translate(91.380954 36.153639) scale(0.697382)"/>
       <use xlink:href="#CMR17-33" transform="translate(145.621947 36.153639) scale(0.697382)"/>
      </g>
     </g>
    </g>
    <g id="ytick_5">
     <g id="line2d_38">
      <g>
       <use xlink:href="#m011ac69fd7" x="96.581809" y="46.699356" style="stroke: #000000; stroke-width: 0.8"/>
      </g>
     </g>
     <g id="text_10">
      <!-- $\mathdefault{10^{0}}$ -->
      <g transform="translate(64.47716 53.617854) scale(0.2 -0.2)">
       <use xlink:href="#CMR17-31" transform="scale(0.996264)"/>
       <use xlink:href="#CMR17-30" transform="translate(45.690477 0) scale(0.996264)"/>
       <use xlink:href="#CMR17-30" transform="translate(91.380954 36.153639) scale(0.697382)"/>
      </g>
     </g>
    </g>
    <g id="text_11">
     <!-- Decay rate (eigenvalue), $\gamma_m / T^2$ -->
     <g transform="translate(37.819192 295.726961) rotate(-90) scale(0.2 -0.2)">
      <defs>
       <path id="CMR17-44" d="M 333 4352 
L 333 4186 
C 774 4186 845 4186 845 3900 
L 845 452 
C 845 166 774 166 333 166 
L 333 0 
L 2368 0 
C 3398 0 4224 943 4224 2141 
C 4224 3346 3411 4352 2368 4352 
L 333 4352 
z
M 1523 166 
C 1267 166 1254 197 1254 414 
L 1254 3938 
C 1254 4155 1267 4186 1523 4186 
L 2240 4186 
C 2771 4186 3750 3874 3750 2141 
C 3750 1242 3488 879 3366 707 
C 3213 510 2848 166 2240 166 
L 1523 166 
z
" transform="scale(0.015625)"/>
       <path id="CMR17-63" d="M 2234 2240 
C 2112 2240 1933 2240 1933 2017 
C 1933 1838 2080 1787 2163 1787 
C 2208 1787 2394 1807 2394 2024 
C 2394 2467 1958 2803 1466 2803 
C 787 2803 211 2178 211 1363 
C 211 516 813 -64 1466 -64 
C 2259 -64 2458 677 2458 748 
C 2458 774 2451 793 2406 793 
C 2362 793 2355 787 2330 703 
C 2163 180 1798 51 1523 51 
C 1114 51 621 427 621 1369 
C 621 2338 1094 2688 1472 2688 
C 1722 2688 2093 2573 2234 2240 
z
" transform="scale(0.015625)"/>
       <path id="CMR17-79" d="M 2496 2197 
C 2656 2586 2944 2586 3034 2586 
L 3034 2752 
C 2912 2752 2752 2752 2630 2752 
C 2496 2752 2285 2752 2157 2758 
L 2157 2592 
C 2400 2573 2406 2394 2406 2343 
C 2406 2280 2394 2248 2362 2171 
L 1664 449 
L 902 2306 
C 870 2382 870 2426 870 2433 
C 870 2573 1018 2586 1171 2586 
L 1171 2758 
C 1018 2752 742 2752 582 2752 
C 410 2752 205 2752 64 2758 
L 64 2586 
C 410 2586 448 2554 531 2350 
L 1485 15 
C 1197 -738 1030 -1178 627 -1178 
C 557 -1178 397 -1159 282 -1044 
C 429 -1031 493 -942 493 -833 
C 493 -725 416 -629 288 -629 
C 147 -629 77 -725 77 -840 
C 77 -1095 339 -1280 627 -1280 
C 998 -1280 1229 -922 1357 -604 
L 2496 2197 
z
" transform="scale(0.015625)"/>
       <path id="CMR17-28" d="M 1958 -1561 
C 1958 -1555 1958 -1542 1939 -1523 
C 1645 -1224 858 -407 858 1581 
C 858 3569 1632 4379 1946 4697 
C 1946 4704 1958 4717 1958 4736 
C 1958 4755 1939 4768 1914 4768 
C 1843 4768 1299 4296 986 3594 
C 666 2887 576 2199 576 1588 
C 576 1128 621 351 1005 -471 
C 1312 -1135 1837 -1600 1914 -1600 
C 1946 -1600 1958 -1587 1958 -1561 
z
" transform="scale(0.015625)"/>
       <path id="CMR17-69" d="M 992 3909 
C 992 4049 877 4170 730 4170 
C 589 4170 467 4056 467 3909 
C 467 3769 582 3648 730 3648 
C 870 3648 992 3763 992 3909 
z
M 243 2706 
L 243 2541 
C 602 2541 653 2502 653 2197 
L 653 427 
C 653 184 627 153 218 153 
L 218 -13 
C 371 0 646 0 806 0 
C 960 0 1222 0 1370 -13 
L 1370 153 
C 992 153 979 191 979 420 
L 979 2776 
L 243 2706 
z
" transform="scale(0.015625)"/>
       <path id="CMR17-67" d="M 710 1164 
C 832 1068 1043 960 1299 960 
C 1805 960 2240 1357 2240 1888 
C 2240 2054 2189 2310 1997 2509 
C 2176 2692 2438 2752 2586 2752 
C 2611 2752 2650 2752 2682 2734 
C 2656 2728 2598 2703 2598 2605 
C 2598 2527 2656 2471 2739 2471 
C 2835 2471 2886 2533 2886 2614 
C 2886 2731 2790 2854 2586 2854 
C 2330 2854 2106 2738 1926 2580 
C 1734 2753 1504 2816 1299 2816 
C 794 2816 358 2419 358 1888 
C 358 1522 570 1292 634 1228 
C 442 1004 442 743 442 711 
C 442 545 506 302 723 168 
C 390 85 128 -169 128 -486 
C 128 -943 736 -1280 1466 -1280 
C 2170 -1280 2803 -956 2803 -479 
C 2803 384 1856 384 1363 384 
C 1216 384 954 384 922 391 
C 723 423 589 602 589 826 
C 589 883 589 1024 710 1164 
z
M 1299 1068 
C 736 1068 736 1760 736 1889 
C 736 2016 736 2708 1299 2708 
C 1862 2708 1862 2016 1862 1889 
C 1862 1760 1862 1068 1299 1068 
z
M 1466 -1171 
C 826 -1171 384 -835 384 -486 
C 384 -289 493 -105 634 -4 
C 794 104 858 104 1293 104 
C 1818 104 2547 104 2547 -486 
C 2547 -835 2106 -1171 1466 -1171 
z
" transform="scale(0.015625)"/>
       <path id="CMR17-6e" d="M 2656 1933 
C 2656 2259 2592 2790 1837 2790 
C 1331 2790 1069 2400 973 2144 
L 966 2144 
L 966 2790 
L 211 2720 
L 211 2554 
C 589 2554 646 2515 646 2208 
L 646 428 
C 646 184 621 153 211 153 
L 211 -13 
C 365 0 646 0 813 0 
C 979 0 1267 0 1421 -13 
L 1421 153 
C 1011 153 986 178 986 428 
L 986 1658 
C 986 2247 1344 2688 1792 2688 
C 2266 2688 2317 2266 2317 1958 
L 2317 428 
C 2317 184 2291 153 1882 153 
L 1882 -13 
C 2035 0 2317 0 2483 0 
C 2650 0 2938 0 3091 -13 
L 3091 153 
C 2682 153 2656 178 2656 428 
L 2656 1933 
z
" transform="scale(0.015625)"/>
       <path id="CMR17-76" d="M 2502 2163 
C 2560 2304 2662 2560 3034 2560 
L 3034 2726 
C 2912 2726 2752 2726 2630 2726 
C 2496 2726 2285 2726 2157 2732 
L 2157 2566 
C 2317 2553 2406 2477 2406 2311 
C 2406 2253 2406 2240 2368 2151 
L 1664 377 
L 902 2286 
C 864 2369 864 2381 864 2407 
C 864 2560 1075 2560 1171 2560 
L 1171 2732 
C 1018 2726 736 2726 576 2726 
C 403 2726 205 2726 64 2732 
L 64 2560 
C 307 2560 442 2560 518 2362 
L 1446 44 
C 1485 -51 1491 -64 1549 -64 
C 1606 -64 1613 -51 1651 44 
L 2502 2163 
z
" transform="scale(0.015625)"/>
       <path id="CMR17-6c" d="M 979 4396 
L 218 4326 
L 218 4160 
C 595 4160 653 4122 653 3817 
L 653 426 
C 653 184 627 153 218 153 
L 218 -13 
C 371 0 653 0 813 0 
C 979 0 1261 0 1414 -13 
L 1414 153 
C 1005 153 979 178 979 426 
L 979 4396 
z
" transform="scale(0.015625)"/>
       <path id="CMR17-29" d="M 1683 1581 
C 1683 2040 1638 2817 1254 3639 
C 947 4303 422 4768 346 4768 
C 326 4768 301 4761 301 4729 
C 301 4717 307 4710 314 4697 
C 621 4378 1402 3568 1402 1584 
C 1402 -407 627 -1217 314 -1537 
C 307 -1549 301 -1556 301 -1568 
C 301 -1600 326 -1600 346 -1600 
C 416 -1600 960 -1128 1274 -426 
C 1594 281 1683 969 1683 1581 
z
" transform="scale(0.015625)"/>
       <path id="CMMI12-d" d="M 2419 760 
C 2406 1071 2394 1561 2150 2133 
C 2022 2452 1805 2788 1338 2788 
C 550 2788 122 1790 122 1625 
C 122 1567 166 1567 186 1567 
C 243 1567 243 1580 275 1663 
C 410 2057 819 2368 1261 2368 
C 2150 2368 2278 1383 2278 754 
C 2278 352 2234 220 2195 92 
C 2074 -302 1862 -1090 1862 -1268 
C 1862 -1319 1882 -1376 1933 -1376 
C 2029 -1376 2086 -1166 2157 -912 
C 2310 -353 2349 -73 2381 181 
C 2400 334 2765 1384 3270 2382 
C 3315 2483 3405 2655 3405 2674 
C 3405 2680 3398 2725 3341 2725 
C 3328 2725 3296 2725 3283 2699 
C 3270 2687 3046 2254 2854 1822 
C 2758 1606 2630 1320 2419 760 
z
" transform="scale(0.015625)"/>
       <path id="CMMI12-6d" d="M 1318 1871 
C 1331 1910 1491 2229 1728 2433 
C 1894 2586 2112 2689 2362 2689 
C 2618 2689 2707 2497 2707 2242 
C 2707 2203 2707 2076 2630 1775 
L 2470 1118 
C 2419 926 2298 453 2285 383 
C 2259 287 2221 121 2221 96 
C 2221 6 2291 -64 2387 -64 
C 2579 -64 2611 83 2669 313 
L 3053 1839 
C 3066 1890 3398 2689 4102 2689 
C 4358 2689 4448 2497 4448 2242 
C 4448 1884 4198 1188 4058 805 
C 4000 651 3968 568 3968 453 
C 3968 166 4166 -64 4474 -64 
C 5069 -64 5293 875 5293 913 
C 5293 945 5267 971 5229 971 
C 5171 971 5165 952 5133 843 
C 4986 332 4749 64 4493 64 
C 4429 64 4326 64 4326 269 
C 4326 436 4403 640 4429 710 
C 4544 1018 4832 1773 4832 2145 
C 4832 2528 4608 2816 4122 2816 
C 3693 2816 3347 2574 3091 2197 
C 3072 2542 2861 2816 2381 2816 
C 1811 2816 1510 2415 1395 2255 
C 1376 2618 1114 2816 832 2816 
C 646 2816 499 2727 378 2484 
C 262 2254 173 1865 173 1839 
C 173 1814 198 1782 243 1782 
C 294 1782 301 1788 339 1935 
C 435 2312 557 2689 813 2689 
C 960 2689 1011 2586 1011 2395 
C 1011 2254 947 2005 902 1807 
L 723 1118 
C 698 996 627 709 595 594 
C 550 428 480 128 480 96 
C 480 6 550 -64 646 -64 
C 723 -64 813 -26 864 70 
C 877 102 934 326 966 453 
L 1107 1028 
L 1318 1871 
z
" transform="scale(0.015625)"/>
      </defs>
      <use xlink:href="#CMR17-44" transform="scale(0.996264)"/>
      <use xlink:href="#CMR17-65" transform="translate(70.393556 0) scale(0.996264)"/>
      <use xlink:href="#CMR17-63" transform="translate(110.879216 0) scale(0.996264)"/>
      <use xlink:href="#CMR17-61" transform="translate(151.364877 0) scale(0.996264)"/>
      <use xlink:href="#CMR17-79" transform="translate(194.4529 0) scale(0.996264)"/>
      <use xlink:href="#CMR17-72" transform="translate(272.821782 0) scale(0.996264)"/>
      <use xlink:href="#CMR17-61" transform="translate(308.10255 0) scale(0.996264)"/>
      <use xlink:href="#CMR17-74" transform="translate(353.793027 0) scale(0.996264)"/>
      <use xlink:href="#CMR17-65" transform="translate(389.073795 0) scale(0.996264)"/>
      <use xlink:href="#CMR17-28" transform="translate(459.635422 0) scale(0.996264)"/>
      <use xlink:href="#CMR17-65" transform="translate(494.91619 0) scale(0.996264)"/>
      <use xlink:href="#CMR17-69" transform="translate(535.40185 0) scale(0.996264)"/>
      <use xlink:href="#CMR17-67" transform="translate(560.272908 0) scale(0.996264)"/>
      <use xlink:href="#CMR17-65" transform="translate(605.963386 0) scale(0.996264)"/>
      <use xlink:href="#CMR17-6e" transform="translate(646.449046 0) scale(0.996264)"/>
      <use xlink:href="#CMR17-76" transform="translate(694.741962 0) scale(0.996264)"/>
      <use xlink:href="#CMR17-61" transform="translate(737.830061 0) scale(0.996264)"/>
      <use xlink:href="#CMR17-6c" transform="translate(783.520538 0) scale(0.996264)"/>
      <use xlink:href="#CMR17-75" transform="translate(808.391597 0) scale(0.996264)"/>
      <use xlink:href="#CMR17-65" transform="translate(859.286966 0) scale(0.996264)"/>
      <use xlink:href="#CMR17-29" transform="translate(899.772627 0) scale(0.996264)"/>
      <use xlink:href="#CMR17-2c" transform="translate(935.053395 0) scale(0.996264)"/>
      <use xlink:href="#CMMI12-d" transform="translate(990.00042 0) scale(0.996264)"/>
      <use xlink:href="#CMMI12-6d" transform="translate(1040.599552 -14.943915) scale(0.697382)"/>
      <use xlink:href="#CMMI12-3d" transform="translate(1100.826475 0) scale(0.996264)"/>
      <use xlink:href="#CMMI12-54" transform="translate(1149.601394 0) scale(0.996264)"/>
      <use xlink:href="#CMR17-32" transform="translate(1220.325026 36.153639) scale(0.697382)"/>
     </g>
    </g>
   </g>
   <g id="line2d_39">
    <path d="M 243.574601 317.38704 
L 275.227776 309.840109 
L 306.880951 318.562089 
L 322.246251 302.838438 
L 338.534126 311.710864 
L 353.899426 307.227199 
L 385.552601 310.209339 
L 401.840475 314.999432 
L 433.49365 312.42632 
L 465.146825 310.048603 
L 480.512125 314.136688 
" clip-path="url(#p232f5c2dc8)" style="fill: none; stroke: #34495e; stroke-opacity: 0.4; stroke-width: 1.8; stroke-linecap: square"/>
   </g>
   <g id="line2d_40">
    <path d="M 96.581809 26.25386 
L 106.140861 25.704421 
L 115.699913 24.978798 
L 125.258965 25.596578 
L 134.818017 24.69474 
L 144.377068 24.796341 
L 153.93612 25.016908 
L 163.495172 24.839272 
L 173.054224 24.92775 
L 182.613276 25.028002 
L 192.172328 25.375449 
L 201.73138 25.416749 
L 210.057254 25.939215 
L 223.194508 26.83648 
L 233.384555 29.42024 
L 243.574601 31.900978 
L 258.939901 35.615956 
L 275.227776 39.360653 
L 290.593076 42.036816 
L 306.880951 42.78972 
L 322.246251 43.581116 
L 338.534126 44.687608 
L 353.899426 45.758231 
L 370.187301 47.056124 
L 385.552601 48.423973 
L 401.840475 50.654324 
L 417.205776 52.507989 
L 433.49365 54.773877 
L 448.858951 56.934673 
L 465.146825 59.042843 
L 480.512125 60.599481 
L 496.8 61.553087 
" clip-path="url(#p232f5c2dc8)" style="fill: none; stroke: #ff6600; stroke-width: 1.3; stroke-linecap: square"/>
   </g>
   <g id="line2d_41">
    <path d="M 96.581809 97.77012 
L 106.140861 93.84297 
L 115.699913 89.898848 
L 125.258965 87.076046 
L 134.818017 83.190956 
L 144.377068 80.010058 
L 153.93612 77.206404 
L 163.495172 73.827843 
L 173.054224 70.815013 
L 182.613276 67.7693 
L 192.172328 64.986983 
L 201.73138 61.944232 
L 210.057254 59.815178 
L 223.194508 56.918722 
L 233.384555 57.993829 
L 243.574601 59.042429 
L 258.939901 60.724588 
L 275.227776 62.372393 
L 290.593076 62.568887 
L 306.880951 58.904328 
L 322.246251 55.85243 
L 338.534126 53.500655 
L 353.899426 51.751252 
L 370.187301 50.813364 
L 385.552601 50.745323 
L 401.840475 52.092964 
L 417.205776 53.498279 
L 433.49365 55.362593 
L 448.858951 57.135036 
L 465.146825 58.868412 
L 480.512125 60.169505 
L 496.8 60.962329 
" clip-path="url(#p232f5c2dc8)" style="fill: none; stroke: #3380ff; stroke-width: 2; stroke-linecap: square"/>
   </g>
   <g id="line2d_42">
    <path d="M 96.581809 24.965945 
L 106.140861 24.271545 
L 115.699913 23.954573 
L 125.258965 24.023927 
L 134.818017 23.566485 
L 144.377068 23.538972 
L 153.93612 23.895672 
L 163.495172 23.641181 
L 173.054224 23.631122 
L 182.613276 23.716378 
L 192.172328 24.091266 
L 201.73138 24.199027 
L 210.057254 24.723456 
L 223.194508 25.638256 
L 233.384555 28.192663 
L 243.574601 30.642449 
L 258.939901 34.342032 
L 275.227776 38.030446 
L 290.593076 40.705763 
L 306.880951 41.471612 
L 322.246251 42.317523 
L 338.534126 43.523697 
L 353.899426 44.73756 
L 370.187301 46.266466 
L 385.552601 47.907219 
L 401.840475 50.457597 
L 417.205776 52.490618 
L 433.49365 54.719125 
L 448.858951 56.659935 
L 465.146825 58.47072 
L 480.512125 59.817808 
L 496.8 60.648201 
" clip-path="url(#p232f5c2dc8)" style="fill: none; stroke: #ff5500; stroke-width: 1.3; stroke-linecap: square"/>
   </g>
   <g id="line2d_43">
    <path d="M 96.581809 80.758028 
L 106.140861 76.915415 
L 115.699913 73.094558 
L 125.258965 70.354486 
L 134.818017 66.570141 
L 144.377068 63.524705 
L 153.93612 60.857805 
L 163.495172 57.652454 
L 173.054224 54.830415 
L 182.613276 52.009728 
L 192.172328 49.502682 
L 201.73138 46.8 
L 210.057254 45.010407 
L 223.194508 42.733362 
L 233.384555 44.09561 
L 243.574601 45.443281 
L 258.939901 47.597823 
L 275.227776 49.783056 
L 290.593076 50.708694 
L 306.880951 48.662937 
L 322.246251 47.380035 
L 338.534126 46.917523 
L 353.899426 46.933371 
L 370.187301 47.569991 
L 385.552601 48.648052 
L 401.840475 50.805216 
L 417.205776 52.591954 
L 433.49365 54.647744 
L 448.858951 56.507195 
L 465.146825 58.292335 
L 480.512125 59.654646 
L 496.8 60.512888 
" clip-path="url(#p232f5c2dc8)" style="fill: none; stroke: #2d76f2; stroke-width: 2; stroke-linecap: square"/>
   </g>
   <g id="line2d_44">
    <path d="M 96.581809 24.592184 
L 106.140861 23.905414 
L 115.699913 23.164456 
L 125.258965 23.783366 
L 134.818017 22.888754 
L 144.377068 22.975756 
L 153.93612 23.194309 
L 163.495172 23.038166 
L 173.054224 23.107536 
L 182.613276 23.187432 
L 192.172328 23.514669 
L 201.73138 23.621965 
L 210.057254 24.129334 
L 223.194508 25.046228 
L 233.384555 27.613966 
L 243.574601 30.051468 
L 258.939901 33.728486 
L 275.227776 37.415342 
L 290.593076 40.078291 
L 306.880951 40.901639 
L 322.246251 41.842255 
L 338.534126 43.173128 
L 353.899426 44.533034 
L 370.187301 46.202597 
L 385.552601 47.932963 
L 401.840475 50.4611 
L 417.205776 52.379328 
L 433.49365 54.486988 
L 448.858951 56.374684 
L 465.146825 58.187183 
L 480.512125 59.584255 
L 496.8 60.450549 
" clip-path="url(#p232f5c2dc8)" style="fill: none; stroke: #ff4400; stroke-width: 1.3; stroke-linecap: square"/>
   </g>
   <g id="line2d_45">
    <path d="M 96.581809 70.16936 
L 106.140861 66.399998 
L 115.699913 62.69136 
L 125.258965 60.063266 
L 134.818017 56.397282 
L 144.377068 53.507135 
L 153.93612 51.009901 
L 163.495172 48.024164 
L 173.054224 45.452116 
L 182.613276 42.936014 
L 192.172328 40.796951 
L 201.73138 38.540608 
L 210.057254 37.188118 
L 223.194508 35.656706 
L 233.384555 37.339218 
L 243.574601 39.002367 
L 258.939901 41.620815 
L 275.227776 44.296448 
L 290.593076 45.836023 
L 306.880951 44.953571 
L 322.246251 44.657578 
L 338.534126 45.016566 
L 353.899426 45.661906 
L 370.187301 46.80988 
L 385.552601 48.242119 
L 401.840475 50.560006 
L 417.205776 52.377929 
L 433.49365 54.437641 
L 448.858951 56.310823 
L 465.146825 58.123775 
L 480.512125 59.530008 
L 496.8 60.419859 
" clip-path="url(#p232f5c2dc8)" style="fill: none; stroke: #266ce6; stroke-width: 2; stroke-linecap: square"/>
   </g>
   <g id="line2d_46">
    <path d="M 96.581809 23.985728 
L 106.140861 23.385654 
L 115.699913 23.0867 
L 125.258965 23.205207 
L 134.818017 22.715383 
L 144.377068 22.615265 
L 153.93612 22.962916 
L 163.495172 22.720562 
L 173.054224 22.758342 
L 182.613276 22.78889 
L 192.172328 23.162044 
L 201.73138 23.257463 
L 210.057254 23.772866 
L 223.194508 24.701417 
L 233.384555 27.263951 
L 243.574601 29.682711 
L 258.939901 33.358747 
L 275.227776 37.061691 
L 290.593076 39.770243 
L 306.880951 40.660897 
L 322.246251 41.682713 
L 338.534126 43.094111 
L 353.899426 44.484152 
L 370.187301 46.180018 
L 385.552601 47.958266 
L 401.840475 50.435408 
L 417.205776 52.296034 
L 433.49365 54.381514 
L 448.858951 56.265315 
L 465.146825 58.091212 
L 480.512125 59.514151 
L 496.8 60.404281 
" clip-path="url(#p232f5c2dc8)" style="fill: none; stroke: #fe3300; stroke-width: 1.3; stroke-linecap: square"/>
   </g>
   <g id="line2d_47">
    <path d="M 96.581809 62.56565 
L 106.140861 58.895591 
L 115.699913 55.297243 
L 125.258965 52.796412 
L 134.818017 49.280827 
L 144.377068 46.578789 
L 153.93612 44.29043 
L 163.495172 41.569837 
L 173.054224 39.302233 
L 182.613276 37.147509 
L 192.172328 35.424651 
L 201.73138 33.643276 
L 210.057254 32.725566 
L 223.194508 31.863977 
L 233.384555 33.808112 
L 243.574601 35.714861 
L 258.939901 38.671441 
L 275.227776 41.683343 
L 290.593076 43.613982 
L 306.880951 43.374601 
L 322.246251 43.545462 
L 338.534126 44.256164 
L 353.899426 45.163159 
L 370.187301 46.541463 
L 385.552601 48.11398 
L 401.840475 50.459397 
L 417.205776 52.280726 
L 433.49365 54.353068 
L 448.858951 56.237703 
L 465.146825 58.069337 
L 480.512125 59.494792 
L 496.8 60.395599 
" clip-path="url(#p232f5c2dc8)" style="fill: none; stroke: #2063d9; stroke-width: 2; stroke-linecap: square"/>
   </g>
   <g id="line2d_48">
    <path d="M 96.581809 23.947358 
L 106.140861 23.224965 
L 115.699913 22.529282 
L 125.258965 23.162112 
L 134.818017 22.18945 
L 144.377068 22.40013 
L 153.93612 22.595608 
L 163.495172 22.408816 
L 173.054224 22.49245 
L 182.613276 22.543579 
L 192.172328 22.916648 
L 201.73138 22.993511 
L 210.057254 23.527412 
L 223.194508 24.43938 
L 233.384555 27.003688 
L 243.574601 29.456811 
L 258.939901 33.137191 
L 275.227776 36.88518 
L 290.593076 39.608759 
L 306.880951 40.582823 
L 322.246251 41.638161 
L 338.534126 43.032728 
L 353.899426 44.438817 
L 370.187301 46.216697 
L 385.552601 48.000655 
L 401.840475 50.403581 
L 417.205776 52.245554 
L 433.49365 54.328539 
L 448.858951 56.218631 
L 465.146825 58.059152 
L 480.512125 59.489487 
L 496.8 60.391474 
" clip-path="url(#p232f5c2dc8)" style="fill: none; stroke: #ee2600; stroke-width: 1.3; stroke-linecap: square"/>
   </g>
   <g id="line2d_49">
    <path d="M 96.581809 56.725984 
L 106.140861 53.161146 
L 115.699913 49.691448 
L 125.258965 47.338428 
L 134.818017 43.99794 
L 144.377068 41.519508 
L 153.93612 39.469419 
L 163.495172 37.044794 
L 173.054224 35.106012 
L 182.613276 33.322828 
L 192.172328 32.000905 
L 201.73138 30.643394 
L 210.057254 30.085825 
L 223.194508 29.729415 
L 233.384555 31.856484 
L 243.574601 33.926829 
L 258.939901 37.102196 
L 275.227776 40.32372 
L 290.593076 42.48481 
L 306.880951 42.581215 
L 322.246251 42.965726 
L 338.534126 43.842722 
L 353.899426 44.909247 
L 370.187301 46.432528 
L 385.552601 48.061688 
L 401.840475 50.407387 
L 417.205776 52.232959 
L 433.49365 54.313157 
L 448.858951 56.206076 
L 465.146825 58.049284 
L 480.512125 59.483324 
L 496.8 60.388121 
" clip-path="url(#p232f5c2dc8)" style="fill: none; stroke: #1a59cc; stroke-width: 2; stroke-linecap: square"/>
   </g>
   <g id="line2d_50">
    <path d="M 96.581809 23.53025 
L 106.140861 22.968524 
L 115.699913 22.61803 
L 125.258965 22.7313 
L 134.818017 22.242559 
L 144.377068 22.206552 
L 153.93612 22.521556 
L 163.495172 22.27623 
L 173.054224 22.297573 
L 182.613276 22.301088 
L 192.172328 22.683585 
L 201.73138 22.788369 
L 210.057254 23.322105 
L 223.194508 24.29387 
L 233.384555 26.86226 
L 243.574601 29.308343 
L 258.939901 33.025635 
L 275.227776 36.794139 
L 290.593076 39.572823 
L 306.880951 40.547347 
L 322.246251 41.574972 
L 338.534126 42.970117 
L 353.899426 44.453217 
L 370.187301 46.276706 
L 385.552601 48.008876 
L 401.840475 50.377502 
L 417.205776 52.216357 
L 433.49365 54.300808 
L 448.858951 56.1975 
L 465.146825 58.048616 
L 480.512125 59.48748 
L 496.8 60.386567 
" clip-path="url(#p232f5c2dc8)" style="fill: none; stroke: #dd1a00; stroke-width: 1.3; stroke-linecap: square"/>
   </g>
   <g id="line2d_51">
    <path d="M 96.581809 52.058197 
L 106.140861 48.614105 
L 115.699913 45.288334 
L 125.258965 43.102226 
L 134.818017 39.959259 
L 144.377068 37.727511 
L 153.93612 35.931055 
L 163.495172 33.808391 
L 173.054224 32.189842 
L 182.613276 30.747782 
L 192.172328 29.77048 
L 201.73138 28.752651 
L 210.057254 28.465728 
L 223.194508 28.462712 
L 233.384555 30.7113 
L 243.574601 32.887138 
L 258.939901 36.199594 
L 275.227776 39.547016 
L 290.593076 41.835296 
L 306.880951 42.091287 
L 322.246251 42.585084 
L 338.534126 43.583518 
L 353.899426 44.778352 
L 370.187301 46.391575 
L 385.552601 48.035776 
L 401.840475 50.376203 
L 417.205776 52.207716 
L 433.49365 54.292715 
L 448.858951 56.191775 
L 465.146825 58.041587 
L 480.512125 59.479421 
L 496.8 60.385631 
" clip-path="url(#p232f5c2dc8)" style="fill: none; stroke: #1350bf; stroke-width: 2; stroke-linecap: square"/>
   </g>
   <g id="line2d_52">
    <path d="M 96.581809 23.762831 
L 106.140861 22.981894 
L 115.699913 22.224106 
L 125.258965 22.848489 
L 134.818017 21.937351 
L 144.377068 22.038726 
L 153.93612 22.213613 
L 163.495172 22.072413 
L 173.054224 22.141694 
L 182.613276 22.184155 
L 192.172328 22.537216 
L 201.73138 22.642735 
L 210.057254 23.191352 
L 223.194508 24.176234 
L 233.384555 26.764846 
L 243.574601 29.242687 
L 258.939901 32.986529 
L 275.227776 36.775809 
L 290.593076 39.54447 
L 306.880951 40.48584 
L 322.246251 41.496107 
L 338.534126 42.954291 
L 353.899426 44.504805 
L 370.187301 46.312979 
L 385.552601 48.007127 
L 401.840475 50.360802 
L 417.205776 52.1987 
L 433.49365 54.286361 
L 448.858951 56.188539 
L 465.146825 58.048413 
L 480.512125 59.490086 
L 496.8 60.38598 
" clip-path="url(#p232f5c2dc8)" style="fill: none; stroke: #cc0d00; stroke-width: 1.3; stroke-linecap: square"/>
   </g>
   <g id="line2d_53">
    <path d="M 96.581809 48.237262 
L 106.140861 44.926215 
L 115.699913 41.759857 
L 125.258965 39.754538 
L 134.818017 36.822384 
L 144.377068 34.847119 
L 153.93612 33.30216 
L 163.495172 31.465775 
L 173.054224 30.135662 
L 182.613276 28.984132 
L 192.172328 28.283806 
L 201.73138 27.523901 
L 210.057254 27.431916 
L 223.194508 27.669124 
L 233.384555 29.996334 
L 243.574601 32.23761 
L 258.939901 35.630386 
L 275.227776 39.044929 
L 290.593076 41.393446 
L 306.880951 41.733137 
L 322.246251 42.313914 
L 338.534126 43.421115 
L 353.899426 44.719854 
L 370.187301 46.372204 
L 385.552601 48.021433 
L 401.840475 50.358819 
L 417.205776 52.19323 
L 433.49365 54.282191 
L 448.858951 56.185328 
L 465.146825 58.038625 
L 480.512125 59.478071 
L 496.8 60.384742 
" clip-path="url(#p232f5c2dc8)" style="fill: none; stroke: #0d46b2; stroke-width: 2; stroke-linecap: square"/>
   </g>
   <g id="line2d_54">
    <path d="M 96.581809 23.249392 
L 106.140861 22.692738 
L 115.699913 22.324491 
L 125.258965 22.47835 
L 134.818017 21.873667 
L 144.377068 21.864449 
L 153.93612 22.220852 
L 163.495172 21.997707 
L 173.054224 22.001962 
L 182.613276 22.033524 
L 192.172328 22.411868 
L 201.73138 22.542599 
L 210.057254 23.114484 
L 223.194508 24.144828 
L 233.384555 26.754184 
L 243.574601 29.221946 
L 258.939901 32.985322 
L 275.227776 36.756106 
L 290.593076 39.497308 
L 306.880951 40.407414 
L 322.246251 41.452875 
L 338.534126 42.97771 
L 353.899426 44.557644 
L 370.187301 46.330167 
L 385.552601 48.001981 
L 401.840475 50.351064 
L 417.205776 52.187951 
L 433.49365 54.278889 
L 448.858951 56.183707 
L 465.146825 58.041698 
L 480.512125 59.479513 
L 496.8 60.385266 
" clip-path="url(#p232f5c2dc8)" style="fill: none; stroke: #b30908; stroke-width: 1.3; stroke-linecap: square"/>
   </g>
   <g id="line2d_55">
    <path d="M 96.581809 23.428232 
L 106.140861 22.703907 
L 115.699913 21.948476 
L 125.258965 22.599449 
L 134.818017 21.6 
L 144.377068 21.790938 
L 153.93612 21.958307 
L 163.495172 21.824613 
L 173.054224 21.910194 
L 182.613276 21.944532 
L 192.172328 22.364608 
L 201.73138 22.487941 
L 210.057254 23.077317 
L 223.194508 24.111773 
L 233.384555 26.734454 
L 243.574601 29.220785 
L 258.939901 32.962398 
L 275.227776 36.715132 
L 290.593076 39.426023 
L 306.880951 40.344084 
L 322.246251 41.442428 
L 338.534126 43.015116 
L 353.899426 44.601757 
L 370.187301 46.336964 
L 385.552601 47.997105 
L 401.840475 50.344342 
L 417.205776 52.1817 
L 433.49365 54.275068 
L 448.858951 56.182324 
L 465.146825 58.037633 
L 480.512125 59.483586 
L 496.8 60.384395 
" clip-path="url(#p232f5c2dc8)" style="fill: none; stroke: #990411; stroke-width: 1.3; stroke-linecap: square"/>
   </g>
   <g id="line2d_56">
    <path d="M 96.581809 42.391883 
L 106.140861 39.378822 
L 115.699913 36.559914 
L 125.258965 34.932144 
L 134.818017 32.424175 
L 144.377068 30.938751 
L 153.93612 29.842581 
L 163.495172 28.485546 
L 173.054224 27.606733 
L 182.613276 26.880095 
L 192.172328 26.55815 
L 201.73138 26.127196 
L 210.057254 26.264567 
L 223.194508 26.754312 
L 233.384555 29.154022 
L 243.574601 31.449572 
L 258.939901 34.903255 
L 275.227776 38.367849 
L 290.593076 40.773193 
L 306.880951 41.244653 
L 322.246251 41.981148 
L 338.534126 43.275761 
L 353.899426 44.688977 
L 370.187301 46.355942 
L 385.552601 48.002429 
L 401.840475 50.342637 
L 417.205776 52.179862 
L 433.49365 54.274027 
L 448.858951 56.181131 
L 465.146825 58.037016 
L 480.512125 59.477408 
L 496.8 60.384242 
" clip-path="url(#p232f5c2dc8)" style="fill: none; stroke: #003399; stroke-width: 2; stroke-linecap: square"/>
   </g>
   <g id="line2d_57">
    <path d="M 96.581809 23.167561 
L 106.140861 22.479171 
L 115.699913 22.150336 
L 125.258965 22.295868 
L 134.818017 21.728496 
L 144.377068 21.648395 
L 153.93612 21.966914 
L 163.495172 21.821185 
L 173.054224 21.844704 
L 182.613276 21.878358 
L 192.172328 22.275514 
L 201.73138 22.461524 
L 210.057254 23.044076 
L 223.194508 24.123347 
L 233.384555 26.751464 
L 243.574601 29.210175 
L 258.939901 32.92525 
L 275.227776 36.653498 
L 290.593076 39.361779 
L 306.880951 40.31318 
L 322.246251 41.451102 
L 338.534126 43.058146 
L 353.899426 44.635519 
L 370.187301 46.338279 
L 385.552601 47.995423 
L 401.840475 50.339818 
L 417.205776 52.178077 
L 433.49365 54.27313 
L 448.858951 56.180839 
L 465.146825 58.042695 
L 480.512125 59.486916 
L 496.8 60.384943 
" clip-path="url(#p232f5c2dc8)" style="fill: none; stroke: #800019; stroke-width: 1.3; stroke-linecap: square"/>
   </g>
   <g id="line2d_58">
    <path d="M 96.581809 314.970034 
L 106.140861 314.970034 
L 115.699913 314.970034 
L 125.258965 314.970034 
L 134.818017 314.970034 
L 144.377068 314.970034 
L 153.93612 314.970034 
L 163.495172 314.970034 
L 173.054224 314.970034 
L 182.613276 314.970034 
L 192.172328 314.970034 
L 201.73138 314.970034 
L 210.057254 314.970034 
L 223.194508 314.970034 
L 233.384555 314.970034 
L 243.574601 314.970034 
L 258.939901 314.970034 
L 275.227776 314.970034 
L 290.593076 314.970034 
L 306.880951 314.970034 
L 322.246251 314.970034 
L 338.534126 314.970034 
L 353.899426 314.970034 
L 370.187301 314.970034 
L 385.552601 314.970034 
L 401.840475 314.970034 
L 417.205776 314.970034 
L 433.49365 314.970034 
L 448.858951 314.970034 
L 465.146825 314.970034 
L 480.512125 314.970034 
L 496.8 314.970034 
" clip-path="url(#p232f5c2dc8)" style="fill: none; stroke-dasharray: 3.7,1.6; stroke-dashoffset: 0; stroke: #0000ff"/>
   </g>
   <g id="line2d_59">
    <path d="M 136.985884 389.8 
L 144.377068 387.194561 
L 153.93612 383.824935 
L 163.495172 380.455309 
L 173.054224 377.085683 
L 182.613276 373.716057 
L 192.172328 370.346432 
L 201.73138 366.976806 
L 210.057254 364.041883 
L 223.194508 359.410918 
L 233.384555 355.818863 
L 243.574601 352.226807 
L 258.939901 346.810442 
L 275.227776 341.068864 
L 290.593076 335.652499 
L 306.880951 329.910921 
L 322.246251 324.494556 
L 338.534126 318.752978 
L 353.899426 313.336613 
L 370.187301 307.595035 
L 385.552601 302.17867 
L 401.840475 296.437092 
L 417.205776 291.020727 
L 433.49365 285.279149 
L 448.858951 279.862784 
L 465.146825 274.121206 
L 480.512125 268.704841 
L 496.8 262.963263 
" clip-path="url(#p232f5c2dc8)" style="fill: none; stroke-dasharray: 6.4,1.6,1,1.6; stroke-dashoffset: 0; stroke: #ff0000"/>
   </g>
   <g id="patch_3">
    <path d="M 96.581809 318.562089 
L 96.581809 21.6 
" style="fill: none; stroke: #000000; stroke-width: 0.8; stroke-linejoin: miter; stroke-linecap: square"/>
   </g>
   <g id="patch_4">
    <path d="M 496.8 318.562089 
L 496.8 21.6 
" style="fill: none; stroke: #000000; stroke-width: 0.8; stroke-linejoin: miter; stroke-linecap: square"/>
   </g>
   <g id="patch_5">
    <path d="M 96.581809 318.562089 
L 496.8 318.562089 
" style="fill: none; stroke: #000000; stroke-width: 0.8; stroke-linejoin: miter; stroke-linecap: square"/>
   </g>
   <g id="patch_6">
    <path d="M 96.581809 21.6 
L 496.8 21.6 
" style="fill: none; stroke: #000000; stroke-width: 0.8; stroke-linejoin: miter; stroke-linecap: square"/>
   </g>
   <g id="legend_1">
    <g id="line2d_60">
     <path d="M 110.981809 273.163137 
L 126.981809 273.163137 
L 142.981809 273.163137 
" style="fill: none; stroke-dasharray: 3.7,1.6; stroke-dashoffset: 0; stroke: #0000ff"/>
    </g>
    <g id="text_12">
     <!-- $\propto T^2$ -->
     <g transform="translate(155.781809 278.763137) scale(0.16 -0.16)">
      <defs>
       <path id="CMSY10-2f" d="M 4621 205 
C 4595 205 4493 192 4474 192 
C 3968 192 3629 691 3411 1024 
C 3347 1133 3174 1395 3104 1504 
C 3258 1850 3686 2643 4448 2643 
C 4493 2643 4550 2643 4621 2624 
C 4621 2790 4614 2797 4602 2810 
C 4557 2822 4461 2829 4403 2829 
C 3590 2829 3117 2048 2963 1728 
C 2707 2118 2618 2259 2381 2458 
C 1990 2797 1638 2829 1478 2829 
C 768 2829 358 2112 358 1376 
C 358 659 755 -70 1459 -70 
C 2272 -70 2746 710 2899 1030 
C 3155 640 3245 499 3482 301 
C 3872 -38 4224 -70 4384 -70 
C 4461 -70 4563 -58 4621 -44 
L 4621 205 
z
M 2758 1254 
C 2605 909 2176 115 1414 115 
C 794 115 499 794 499 1376 
C 499 2010 858 2566 1389 2566 
C 1894 2566 2234 2067 2451 1734 
C 2515 1626 2688 1363 2758 1254 
z
" transform="scale(0.015625)"/>
      </defs>
      <use xlink:href="#CMSY10-2f" transform="scale(0.996264)"/>
      <use xlink:href="#CMMI12-54" transform="translate(105.161476 0) scale(0.996264)"/>
      <use xlink:href="#CMR17-32" transform="translate(175.885109 36.153639) scale(0.697382)"/>
     </g>
    </g>
    <g id="line2d_61">
     <path d="M 110.981809 295.462613 
L 126.981809 295.462613 
L 142.981809 295.462613 
" style="fill: none; stroke-dasharray: 6.4,1.6,1,1.6; stroke-dashoffset: 0; stroke: #ff0000"/>
    </g>
    <g id="text_13">
     <!-- $\propto T^4$ -->
     <g transform="translate(155.781809 301.062613) scale(0.16 -0.16)">
      <use xlink:href="#CMSY10-2f" transform="scale(0.996264)"/>
      <use xlink:href="#CMMI12-54" transform="translate(105.161476 0) scale(0.996264)"/>
      <use xlink:href="#CMR17-34" transform="translate(175.885109 36.153639) scale(0.697382)"/>
     </g>
    </g>
   </g>
  </g>
 </g>
 <defs>
  <clipPath id="p232f5c2dc8">
   <rect x="96.581809" y="21.6" width="400.218191" height="296.962089"/>
  </clipPath>
 </defs>
</svg>
