<?xml version="1.0" encoding="utf-8" standalone="no"?>
<!DOCTYPE svg PUBLIC "-//W3C//DTD SVG 1.1//EN"
  "http://www.w3.org/Graphics/SVG/1.1/DTD/svg11.dtd">
<svg xmlns:xlink="http://www.w3.org/1999/xlink" width="432pt" height="432pt" viewBox="0 0 432 432" xmlns="http://www.w3.org/2000/svg" version="1.1">
 <metadata>
  <rdf:RDF xmlns:dc="http://purl.org/dc/elements/1.1/" xmlns:cc="http://creativecommons.org/ns#" xmlns:rdf="http://www.w3.org/1999/02/22-rdf-syntax-ns#">
   <cc:Work>
    <dc:type rdf:resource="http://purl.org/dc/dcmitype/StillImage"/>
    <dc:date>2026-01-26T22:02:02.731441</dc:date>
    <dc:format>image/svg+xml</dc:format>
    <dc:creator>
     <cc:Agent>
      <dc:title>Matplotlib v3.8.4, https://matplotlib.org/</dc:title>
     </cc:Agent>
    </dc:creator>
   </cc:Work>
  </rdf:RDF>
 </metadata>
 <defs>
  <style type="text/css">*{stroke-linejoin: round; stroke-linecap: butt}</style>
 </defs>
 <g id="figure_1">
  <g id="patch_1">
   <path d="M 0 432 
L 432 432 
L 432 0 
L 0 0 
z
" style="fill: #ffffff"/>
  </g>
  <g id="axes_1">
   <g id="patch_2">
    <path d="M 87.717969 361.762089 
L 410.4 361.762089 
L 410.4 28.518498 
L 87.717969 28.518498 
z
" style="fill: #ffffff"/>
   </g>
   <g id="matplotlib.axis_1">
    <g id="xtick_1">
     <g id="line2d_1">
      <path d="M 159.492657 361.762089 
L 159.492657 28.518498 
" clip-path="url(#pf9a94d687a)" style="fill: none; stroke-dasharray: 2.96,1.28; stroke-dashoffset: 0; stroke: #b0b0b0; stroke-opacity: 0.3; stroke-width: 0.8"/>
     </g>
     <g id="line2d_2">
      <defs>
       <path id="m9c2d8db076" d="M 0 0 
L 0 3.5 
" style="stroke: #000000; stroke-width: 0.8"/>
      </defs>
      <g>
       <use xlink:href="#m9c2d8db076" x="159.492657" y="361.762089" style="stroke: #000000; stroke-width: 0.8"/>
      </g>
     </g>
     <g id="text_1">
      <!-- $\mathdefault{10^{-2}}$ -->
      <g transform="translate(141.516238 382.599086) scale(0.2 -0.2)">
       <defs>
        <path id="CMR17-31" d="M 1702 4058 
C 1702 4192 1696 4192 1606 4192 
C 1357 3916 979 3827 621 3827 
C 602 3827 570 3827 563 3808 
C 557 3795 557 3782 557 3648 
C 755 3648 1088 3686 1344 3839 
L 1344 461 
C 1344 236 1331 160 781 160 
L 589 160 
L 589 0 
C 896 0 1216 0 1523 0 
C 1830 0 2150 0 2458 0 
L 2458 160 
L 2266 160 
C 1715 160 1702 230 1702 458 
L 1702 4058 
z
" transform="scale(0.015625)"/>
        <path id="CMR17-30" d="M 2688 2025 
C 2688 2416 2682 3080 2413 3591 
C 2176 4039 1798 4198 1466 4198 
C 1158 4198 768 4058 525 3597 
C 269 3118 243 2524 243 2025 
C 243 1661 250 1106 448 619 
C 723 -39 1216 -128 1466 -128 
C 1760 -128 2208 -7 2470 600 
C 2662 1042 2688 1559 2688 2025 
z
M 1466 -26 
C 1056 -26 813 325 723 812 
C 653 1188 653 1738 653 2096 
C 653 2588 653 2997 736 3387 
C 858 3929 1216 4096 1466 4096 
C 1728 4096 2067 3923 2189 3400 
C 2272 3036 2278 2607 2278 2096 
C 2278 1680 2278 1169 2202 792 
C 2067 95 1690 -26 1466 -26 
z
" transform="scale(0.015625)"/>
        <path id="CMSY10-0" d="M 4218 1472 
C 4326 1472 4442 1472 4442 1600 
C 4442 1728 4326 1728 4218 1728 
L 755 1728 
C 646 1728 531 1728 531 1600 
C 531 1472 646 1472 755 1472 
L 4218 1472 
z
" transform="scale(0.015625)"/>
        <path id="CMR17-32" d="M 2669 989 
L 2554 989 
C 2490 536 2438 459 2413 420 
C 2381 369 1920 369 1830 369 
L 602 369 
C 832 619 1280 1072 1824 1597 
C 2214 1967 2669 2402 2669 3035 
C 2669 3790 2067 4224 1395 4224 
C 691 4224 262 3604 262 3030 
C 262 2780 448 2748 525 2748 
C 589 2748 781 2787 781 3010 
C 781 3207 614 3264 525 3264 
C 486 3264 448 3258 422 3245 
C 544 3790 915 4058 1306 4058 
C 1862 4058 2227 3617 2227 3035 
C 2227 2479 1901 2000 1536 1584 
L 262 146 
L 262 0 
L 2515 0 
L 2669 989 
z
" transform="scale(0.015625)"/>
       </defs>
       <use xlink:href="#CMR17-31" transform="scale(0.996264)"/>
       <use xlink:href="#CMR17-30" transform="translate(45.690477 0) scale(0.996264)"/>
       <use xlink:href="#CMSY10-0" transform="translate(91.380954 36.153639) scale(0.697382)"/>
       <use xlink:href="#CMR17-32" transform="translate(145.621947 36.153639) scale(0.697382)"/>
      </g>
     </g>
    </g>
    <g id="xtick_2">
     <g id="line2d_3">
      <path d="M 245.563878 361.762089 
L 245.563878 28.518498 
" clip-path="url(#pf9a94d687a)" style="fill: none; stroke-dasharray: 2.96,1.28; stroke-dashoffset: 0; stroke: #b0b0b0; stroke-opacity: 0.3; stroke-width: 0.8"/>
     </g>
     <g id="line2d_4">
      <g>
       <use xlink:href="#m9c2d8db076" x="245.563878" y="361.762089" style="stroke: #000000; stroke-width: 0.8"/>
      </g>
     </g>
     <g id="text_2">
      <!-- $\mathdefault{10^{-1}}$ -->
      <g transform="translate(227.587458 382.599086) scale(0.2 -0.2)">
       <use xlink:href="#CMR17-31" transform="scale(0.996264)"/>
       <use xlink:href="#CMR17-30" transform="translate(45.690477 0) scale(0.996264)"/>
       <use xlink:href="#CMSY10-0" transform="translate(91.380954 36.153639) scale(0.697382)"/>
       <use xlink:href="#CMR17-31" transform="translate(145.621947 36.153639) scale(0.697382)"/>
      </g>
     </g>
    </g>
    <g id="xtick_3">
     <g id="line2d_5">
      <path d="M 331.635098 361.762089 
L 331.635098 28.518498 
" clip-path="url(#pf9a94d687a)" style="fill: none; stroke-dasharray: 2.96,1.28; stroke-dashoffset: 0; stroke: #b0b0b0; stroke-opacity: 0.3; stroke-width: 0.8"/>
     </g>
     <g id="line2d_6">
      <g>
       <use xlink:href="#m9c2d8db076" x="331.635098" y="361.762089" style="stroke: #000000; stroke-width: 0.8"/>
      </g>
     </g>
     <g id="text_3">
      <!-- $\mathdefault{10^{0}}$ -->
      <g transform="translate(319.082774 382.599086) scale(0.2 -0.2)">
       <use xlink:href="#CMR17-31" transform="scale(0.996264)"/>
       <use xlink:href="#CMR17-30" transform="translate(45.690477 0) scale(0.996264)"/>
       <use xlink:href="#CMR17-30" transform="translate(91.380954 36.153639) scale(0.697382)"/>
      </g>
     </g>
    </g>
    <g id="xtick_4">
     <g id="line2d_7">
      <defs>
       <path id="m7b45be9516" d="M 0 0 
L 0 2 
" style="stroke: #000000; stroke-width: 0.6"/>
      </defs>
      <g>
       <use xlink:href="#m7b45be9516" x="99.331456" y="361.762089" style="stroke: #000000; stroke-width: 0.6"/>
      </g>
     </g>
    </g>
    <g id="xtick_5">
     <g id="line2d_8">
      <g>
       <use xlink:href="#m7b45be9516" x="114.487845" y="361.762089" style="stroke: #000000; stroke-width: 0.6"/>
      </g>
     </g>
    </g>
    <g id="xtick_6">
     <g id="line2d_9">
      <g>
       <use xlink:href="#m7b45be9516" x="125.241475" y="361.762089" style="stroke: #000000; stroke-width: 0.6"/>
      </g>
     </g>
    </g>
    <g id="xtick_7">
     <g id="line2d_10">
      <g>
       <use xlink:href="#m7b45be9516" x="133.582638" y="361.762089" style="stroke: #000000; stroke-width: 0.6"/>
      </g>
     </g>
    </g>
    <g id="xtick_8">
     <g id="line2d_11">
      <g>
       <use xlink:href="#m7b45be9516" x="140.397865" y="361.762089" style="stroke: #000000; stroke-width: 0.6"/>
      </g>
     </g>
    </g>
    <g id="xtick_9">
     <g id="line2d_12">
      <g>
       <use xlink:href="#m7b45be9516" x="146.160056" y="361.762089" style="stroke: #000000; stroke-width: 0.6"/>
      </g>
     </g>
    </g>
    <g id="xtick_10">
     <g id="line2d_13">
      <g>
       <use xlink:href="#m7b45be9516" x="151.151494" y="361.762089" style="stroke: #000000; stroke-width: 0.6"/>
      </g>
     </g>
    </g>
    <g id="xtick_11">
     <g id="line2d_14">
      <g>
       <use xlink:href="#m7b45be9516" x="155.554254" y="361.762089" style="stroke: #000000; stroke-width: 0.6"/>
      </g>
     </g>
    </g>
    <g id="xtick_12">
     <g id="line2d_15">
      <g>
       <use xlink:href="#m7b45be9516" x="185.402676" y="361.762089" style="stroke: #000000; stroke-width: 0.6"/>
      </g>
     </g>
    </g>
    <g id="xtick_13">
     <g id="line2d_16">
      <g>
       <use xlink:href="#m7b45be9516" x="200.559066" y="361.762089" style="stroke: #000000; stroke-width: 0.6"/>
      </g>
     </g>
    </g>
    <g id="xtick_14">
     <g id="line2d_17">
      <g>
       <use xlink:href="#m7b45be9516" x="211.312695" y="361.762089" style="stroke: #000000; stroke-width: 0.6"/>
      </g>
     </g>
    </g>
    <g id="xtick_15">
     <g id="line2d_18">
      <g>
       <use xlink:href="#m7b45be9516" x="219.653859" y="361.762089" style="stroke: #000000; stroke-width: 0.6"/>
      </g>
     </g>
    </g>
    <g id="xtick_16">
     <g id="line2d_19">
      <g>
       <use xlink:href="#m7b45be9516" x="226.469085" y="361.762089" style="stroke: #000000; stroke-width: 0.6"/>
      </g>
     </g>
    </g>
    <g id="xtick_17">
     <g id="line2d_20">
      <g>
       <use xlink:href="#m7b45be9516" x="232.231277" y="361.762089" style="stroke: #000000; stroke-width: 0.6"/>
      </g>
     </g>
    </g>
    <g id="xtick_18">
     <g id="line2d_21">
      <g>
       <use xlink:href="#m7b45be9516" x="237.222715" y="361.762089" style="stroke: #000000; stroke-width: 0.6"/>
      </g>
     </g>
    </g>
    <g id="xtick_19">
     <g id="line2d_22">
      <g>
       <use xlink:href="#m7b45be9516" x="241.625475" y="361.762089" style="stroke: #000000; stroke-width: 0.6"/>
      </g>
     </g>
    </g>
    <g id="xtick_20">
     <g id="line2d_23">
      <g>
       <use xlink:href="#m7b45be9516" x="271.473897" y="361.762089" style="stroke: #000000; stroke-width: 0.6"/>
      </g>
     </g>
    </g>
    <g id="xtick_21">
     <g id="line2d_24">
      <g>
       <use xlink:href="#m7b45be9516" x="286.630286" y="361.762089" style="stroke: #000000; stroke-width: 0.6"/>
      </g>
     </g>
    </g>
    <g id="xtick_22">
     <g id="line2d_25">
      <g>
       <use xlink:href="#m7b45be9516" x="297.383916" y="361.762089" style="stroke: #000000; stroke-width: 0.6"/>
      </g>
     </g>
    </g>
    <g id="xtick_23">
     <g id="line2d_26">
      <g>
       <use xlink:href="#m7b45be9516" x="305.725079" y="361.762089" style="stroke: #000000; stroke-width: 0.6"/>
      </g>
     </g>
    </g>
    <g id="xtick_24">
     <g id="line2d_27">
      <g>
       <use xlink:href="#m7b45be9516" x="312.540305" y="361.762089" style="stroke: #000000; stroke-width: 0.6"/>
      </g>
     </g>
    </g>
    <g id="xtick_25">
     <g id="line2d_28">
      <g>
       <use xlink:href="#m7b45be9516" x="318.302497" y="361.762089" style="stroke: #000000; stroke-width: 0.6"/>
      </g>
     </g>
    </g>
    <g id="xtick_26">
     <g id="line2d_29">
      <g>
       <use xlink:href="#m7b45be9516" x="323.293935" y="361.762089" style="stroke: #000000; stroke-width: 0.6"/>
      </g>
     </g>
    </g>
    <g id="xtick_27">
     <g id="line2d_30">
      <g>
       <use xlink:href="#m7b45be9516" x="327.696695" y="361.762089" style="stroke: #000000; stroke-width: 0.6"/>
      </g>
     </g>
    </g>
    <g id="xtick_28">
     <g id="line2d_31">
      <g>
       <use xlink:href="#m7b45be9516" x="357.545117" y="361.762089" style="stroke: #000000; stroke-width: 0.6"/>
      </g>
     </g>
    </g>
    <g id="xtick_29">
     <g id="line2d_32">
      <g>
       <use xlink:href="#m7b45be9516" x="372.701507" y="361.762089" style="stroke: #000000; stroke-width: 0.6"/>
      </g>
     </g>
    </g>
    <g id="xtick_30">
     <g id="line2d_33">
      <g>
       <use xlink:href="#m7b45be9516" x="383.455136" y="361.762089" style="stroke: #000000; stroke-width: 0.6"/>
      </g>
     </g>
    </g>
    <g id="xtick_31">
     <g id="line2d_34">
      <g>
       <use xlink:href="#m7b45be9516" x="391.796299" y="361.762089" style="stroke: #000000; stroke-width: 0.6"/>
      </g>
     </g>
    </g>
    <g id="xtick_32">
     <g id="line2d_35">
      <g>
       <use xlink:href="#m7b45be9516" x="398.611526" y="361.762089" style="stroke: #000000; stroke-width: 0.6"/>
      </g>
     </g>
    </g>
    <g id="xtick_33">
     <g id="line2d_36">
      <g>
       <use xlink:href="#m7b45be9516" x="404.373718" y="361.762089" style="stroke: #000000; stroke-width: 0.6"/>
      </g>
     </g>
    </g>
    <g id="xtick_34">
     <g id="line2d_37">
      <g>
       <use xlink:href="#m7b45be9516" x="409.365156" y="361.762089" style="stroke: #000000; stroke-width: 0.6"/>
      </g>
     </g>
    </g>
    <g id="text_4">
     <!-- Temperature, $T/T_F$ -->
     <g transform="translate(170.447064 405.41868) scale(0.2 -0.2)">
      <defs>
       <path id="CMR17-54" d="M 3981 4326 
L 288 4326 
L 179 2918 
L 294 2918 
C 378 3976 467 4160 1453 4160 
C 1568 4160 1754 4160 1805 4154 
C 1926 4135 1926 4058 1926 3912 
L 1926 459 
C 1926 230 1907 160 1376 160 
L 1197 160 
L 1197 0 
C 1504 0 1824 0 2138 0 
C 2451 0 2771 0 3078 0 
L 3078 160 
L 2899 160 
C 2368 160 2349 230 2349 459 
L 2349 3912 
C 2349 4052 2349 4129 2464 4154 
C 2515 4160 2701 4160 2816 4160 
C 3795 4160 3891 3976 3974 2918 
L 4090 2918 
L 3981 4326 
z
" transform="scale(0.015625)"/>
       <path id="CMR17-65" d="M 2438 1472 
C 2464 1498 2464 1511 2464 1576 
C 2464 2238 2118 2816 1389 2816 
C 710 2816 173 2169 173 1383 
C 173 551 781 -64 1459 -64 
C 2176 -64 2458 607 2458 740 
C 2458 784 2419 784 2406 784 
C 2362 784 2355 771 2330 696 
C 2189 265 1837 51 1504 51 
C 1229 51 954 203 781 480 
C 582 803 582 1176 582 1472 
L 2438 1472 
z
M 589 1568 
C 634 2505 1126 2714 1382 2714 
C 1818 2714 2112 2297 2118 1568 
L 589 1568 
z
" transform="scale(0.015625)"/>
       <path id="CMR17-6d" d="M 4326 1933 
C 4326 2252 4269 2790 3507 2790 
C 3072 2790 2771 2496 2656 2151 
L 2650 2151 
C 2573 2676 2195 2790 1837 2790 
C 1331 2790 1069 2400 973 2144 
L 966 2144 
L 966 2790 
L 211 2720 
L 211 2554 
C 589 2554 646 2515 646 2208 
L 646 428 
C 646 184 621 153 211 153 
L 211 -13 
C 365 0 646 0 813 0 
C 979 0 1267 0 1421 -13 
L 1421 153 
C 1011 153 986 178 986 428 
L 986 1658 
C 986 2247 1344 2688 1792 2688 
C 2266 2688 2317 2266 2317 1958 
L 2317 428 
C 2317 184 2291 153 1882 153 
L 1882 -13 
C 2035 0 2317 0 2483 0 
C 2650 0 2938 0 3091 -13 
L 3091 153 
C 2682 153 2656 178 2656 428 
L 2656 1658 
C 2656 2247 3014 2688 3462 2688 
C 3936 2688 3987 2266 3987 1958 
L 3987 428 
C 3987 184 3962 153 3552 153 
L 3552 -13 
C 3706 0 3987 0 4154 0 
C 4320 0 4608 0 4762 -13 
L 4762 153 
C 4352 153 4326 178 4326 428 
L 4326 1933 
z
" transform="scale(0.015625)"/>
       <path id="CMR17-70" d="M 1408 -1063 
C 998 -1063 973 -1037 973 -789 
L 973 402 
C 1158 134 1427 -38 1766 -38 
C 2406 -38 3053 523 3053 1388 
C 3053 2191 2496 2802 1837 2802 
C 1453 2802 1139 2592 960 2338 
L 960 2802 
L 198 2732 
L 198 2567 
C 576 2567 634 2528 634 2223 
L 634 -789 
C 634 -1031 608 -1063 198 -1063 
L 198 -1228 
C 352 -1216 634 -1216 800 -1216 
C 966 -1216 1254 -1216 1408 -1228 
L 1408 -1063 
z
M 973 2012 
C 973 2102 973 2235 1222 2471 
C 1254 2497 1472 2688 1792 2688 
C 2259 2688 2643 2108 2643 1382 
C 2643 656 2234 64 1728 64 
C 1498 64 1248 172 1056 472 
C 973 612 973 650 973 752 
L 973 2012 
z
" transform="scale(0.015625)"/>
       <path id="CMR17-72" d="M 960 1497 
C 960 2112 1222 2688 1702 2688 
C 1747 2688 1792 2682 1837 2662 
C 1837 2662 1696 2617 1696 2452 
C 1696 2298 1818 2234 1914 2234 
C 1990 2234 2131 2279 2131 2458 
C 2131 2663 1926 2790 1709 2790 
C 1222 2790 1011 2317 947 2093 
L 941 2093 
L 941 2790 
L 198 2720 
L 198 2554 
C 576 2554 634 2515 634 2208 
L 634 428 
C 634 184 608 153 198 153 
L 198 -13 
C 352 0 646 0 813 0 
C 998 0 1325 0 1498 -13 
L 1498 153 
C 1037 153 960 153 960 440 
L 960 1497 
z
" transform="scale(0.015625)"/>
       <path id="CMR17-61" d="M 2304 1653 
C 2304 2072 2304 2294 2035 2543 
C 1798 2752 1523 2816 1306 2816 
C 800 2816 435 2407 435 1971 
C 435 1728 627 1728 666 1728 
C 749 1728 896 1778 896 1954 
C 896 2112 774 2181 666 2181 
C 640 2181 608 2174 589 2168 
C 723 2592 1069 2714 1293 2714 
C 1613 2714 1965 2429 1965 1885 
L 1965 1600 
C 1587 1600 1133 1549 774 1357 
C 371 1133 256 813 256 570 
C 256 77 832 -64 1171 -64 
C 1523 -64 1850 139 1990 511 
C 2003 233 2182 -18 2464 -18 
C 2598 -18 2938 70 2938 567 
L 2938 920 
L 2822 920 
L 2822 562 
C 2822 178 2650 128 2566 128 
C 2304 128 2304 458 2304 738 
L 2304 1653 
z
M 1965 870 
C 1965 317 1568 38 1216 38 
C 896 38 646 275 646 570 
C 646 761 730 1100 1101 1305 
C 1408 1478 1760 1504 1965 1504 
L 1965 870 
z
" transform="scale(0.015625)"/>
       <path id="CMR17-74" d="M 966 2560 
L 1862 2560 
L 1862 2725 
L 966 2725 
L 966 3904 
L 851 3904 
C 838 3245 614 2668 70 2668 
L 70 2560 
L 627 2560 
L 627 771 
C 627 650 627 -64 1370 -64 
C 1747 -64 1965 306 1965 777 
L 1965 1140 
L 1850 1140 
L 1850 783 
C 1850 344 1677 51 1408 51 
C 1222 51 966 178 966 758 
L 966 2560 
z
" transform="scale(0.015625)"/>
       <path id="CMR17-75" d="M 1882 2693 
L 1882 2528 
C 2259 2528 2317 2489 2317 2186 
L 2317 1032 
C 2317 500 2029 38 1555 38 
C 1030 38 986 348 986 678 
L 986 2763 
L 211 2693 
L 211 2528 
C 467 2528 640 2528 646 2274 
L 646 1058 
C 646 633 646 361 813 183 
C 896 101 1056 -64 1517 -64 
C 2061 -64 2272 377 2323 506 
L 2330 506 
L 2330 -63 
L 3091 -63 
L 3091 128 
C 2714 128 2656 166 2656 473 
L 2656 2763 
L 1882 2693 
z
" transform="scale(0.015625)"/>
       <path id="CMR17-2c" d="M 1011 102 
C 1024 45 1024 25 1024 -77 
C 1024 -463 896 -817 627 -1139 
C 595 -1170 595 -1183 595 -1197 
C 595 -1222 621 -1248 646 -1248 
C 685 -1248 1126 -799 1126 -87 
C 1126 124 1101 522 800 522 
C 659 522 538 427 538 261 
C 538 96 659 0 800 0 
C 877 0 960 32 1011 102 
z
" transform="scale(0.015625)"/>
       <path id="CMMI12-54" d="M 2669 3910 
C 2707 4064 2720 4121 2816 4147 
C 2867 4160 3078 4160 3213 4160 
C 3853 4160 4154 4134 4154 3634 
C 4154 3537 4128 3295 4090 3057 
L 4083 2980 
C 4083 2954 4109 2916 4147 2916 
C 4211 2916 4211 2948 4230 3050 
L 4416 4184 
C 4429 4243 4429 4256 4429 4275 
C 4429 4345 4390 4345 4262 4345 
L 762 4345 
C 614 4345 608 4339 570 4224 
L 179 3070 
C 173 3056 154 2986 154 2980 
C 154 2948 179 2916 218 2916 
C 269 2916 282 2941 307 3024 
C 576 3801 710 4160 1562 4160 
L 1990 4160 
C 2144 4160 2208 4160 2208 4089 
C 2208 4069 2208 4057 2176 3941 
L 1318 499 
C 1254 249 1242 185 563 185 
C 403 185 358 185 358 64 
C 358 0 429 0 461 0 
C 621 0 787 0 947 0 
L 1946 0 
C 2106 0 2278 0 2438 0 
C 2509 0 2573 0 2573 121 
C 2573 185 2528 185 2362 185 
C 1786 185 1786 243 1786 339 
C 1786 346 1786 391 1811 494 
L 2669 3910 
z
" transform="scale(0.015625)"/>
       <path id="CMMI12-3d" d="M 2746 4562 
C 2746 4569 2784 4666 2784 4678 
C 2784 4755 2720 4800 2669 4800 
C 2637 4800 2579 4800 2528 4659 
L 384 -1363 
C 384 -1370 346 -1465 346 -1478 
C 346 -1555 410 -1600 461 -1600 
C 499 -1600 557 -1593 602 -1459 
L 2746 4562 
z
" transform="scale(0.015625)"/>
       <path id="CMMI12-46" d="M 1901 2055 
L 2515 2055 
C 3002 2055 3040 1946 3040 1761 
C 3040 1678 3027 1589 2995 1448 
C 2982 1423 2976 1391 2976 1378 
C 2976 1333 3002 1308 3046 1308 
C 3098 1308 3104 1333 3130 1435 
L 3501 2935 
C 3501 2961 3482 2999 3437 2999 
C 3379 2999 3373 2974 3347 2863 
C 3213 2376 3085 2240 2528 2240 
L 1946 2240 
L 2362 3926 
C 2419 4154 2432 4154 2694 4154 
L 3552 4154 
C 4352 4154 4467 3918 4467 3464 
C 4467 3426 4467 3285 4448 3119 
C 4442 3094 4429 3011 4429 2985 
C 4429 2934 4461 2915 4499 2915 
C 4544 2915 4570 2941 4582 3055 
L 4717 4174 
C 4717 4195 4730 4263 4730 4277 
C 4730 4352 4672 4352 4557 4352 
L 1523 4352 
C 1402 4352 1338 4352 1338 4229 
C 1338 4154 1382 4154 1491 4154 
C 1888 4154 1888 4113 1888 4050 
C 1888 4018 1882 3992 1862 3922 
L 998 473 
C 941 249 928 185 480 185 
C 358 185 294 185 294 70 
C 294 0 352 0 390 0 
C 512 0 640 0 762 0 
L 1594 0 
C 1734 0 1888 0 2029 0 
C 2086 0 2163 0 2163 115 
C 2163 185 2125 185 1984 185 
C 1478 185 1466 229 1466 324 
C 1466 356 1478 406 1491 449 
L 1901 2055 
z
" transform="scale(0.015625)"/>
      </defs>
      <use xlink:href="#CMR17-54" transform="scale(0.996264)"/>
      <use xlink:href="#CMR17-65" transform="translate(58.702625 0) scale(0.996264)"/>
      <use xlink:href="#CMR17-6d" transform="translate(99.188286 0) scale(0.996264)"/>
      <use xlink:href="#CMR17-70" transform="translate(176.107875 0) scale(0.996264)"/>
      <use xlink:href="#CMR17-65" transform="translate(229.605684 0) scale(0.996264)"/>
      <use xlink:href="#CMR17-72" transform="translate(270.091344 0) scale(0.996264)"/>
      <use xlink:href="#CMR17-61" transform="translate(305.372112 0) scale(0.996264)"/>
      <use xlink:href="#CMR17-74" transform="translate(351.062589 0) scale(0.996264)"/>
      <use xlink:href="#CMR17-75" transform="translate(386.343357 0) scale(0.996264)"/>
      <use xlink:href="#CMR17-72" transform="translate(437.238727 0) scale(0.996264)"/>
      <use xlink:href="#CMR17-65" transform="translate(472.519495 0) scale(0.996264)"/>
      <use xlink:href="#CMR17-2c" transform="translate(513.005155 0) scale(0.996264)"/>
      <use xlink:href="#CMMI12-54" transform="translate(567.95218 0) scale(0.996264)"/>
      <use xlink:href="#CMMI12-3d" transform="translate(635.966095 0) scale(0.996264)"/>
      <use xlink:href="#CMMI12-54" transform="translate(684.741013 0) scale(0.996264)"/>
      <use xlink:href="#CMMI12-46" transform="translate(741.916057 -14.943915) scale(0.697382)"/>
     </g>
    </g>
   </g>
   <g id="matplotlib.axis_2">
    <g id="ytick_1">
     <g id="line2d_38">
      <path d="M 87.717969 361.762089 
L 410.4 361.762089 
" clip-path="url(#pf9a94d687a)" style="fill: none; stroke-dasharray: 2.96,1.28; stroke-dashoffset: 0; stroke: #b0b0b0; stroke-opacity: 0.3; stroke-width: 0.8"/>
     </g>
     <g id="line2d_39">
      <defs>
       <path id="m358bb7bbd1" d="M 0 0 
L -3.5 0 
" style="stroke: #000000; stroke-width: 0.8"/>
      </defs>
      <g>
       <use xlink:href="#m358bb7bbd1" x="87.717969" y="361.762089" style="stroke: #000000; stroke-width: 0.8"/>
      </g>
     </g>
     <g id="text_5">
      <!-- $\mathdefault{−1}$ -->
      <g transform="translate(56.082386 368.680588) scale(0.2 -0.2)">
       <use xlink:href="#CMSY10-0" transform="scale(0.996264)"/>
       <use xlink:href="#CMR17-31" transform="translate(77.487468 0) scale(0.996264)"/>
      </g>
     </g>
    </g>
    <g id="ytick_2">
     <g id="line2d_40">
      <path d="M 87.717969 306.221491 
L 410.4 306.221491 
" clip-path="url(#pf9a94d687a)" style="fill: none; stroke-dasharray: 2.96,1.28; stroke-dashoffset: 0; stroke: #b0b0b0; stroke-opacity: 0.3; stroke-width: 0.8"/>
     </g>
     <g id="line2d_41">
      <g>
       <use xlink:href="#m358bb7bbd1" x="87.717969" y="306.221491" style="stroke: #000000; stroke-width: 0.8"/>
      </g>
     </g>
     <g id="text_6">
      <!-- $\mathdefault{0}$ -->
      <g transform="translate(71.579873 313.139989) scale(0.2 -0.2)">
       <use xlink:href="#CMR17-30" transform="scale(0.996264)"/>
      </g>
     </g>
    </g>
    <g id="ytick_3">
     <g id="line2d_42">
      <path d="M 87.717969 250.680892 
L 410.4 250.680892 
" clip-path="url(#pf9a94d687a)" style="fill: none; stroke-dasharray: 2.96,1.28; stroke-dashoffset: 0; stroke: #b0b0b0; stroke-opacity: 0.3; stroke-width: 0.8"/>
     </g>
     <g id="line2d_43">
      <g>
       <use xlink:href="#m358bb7bbd1" x="87.717969" y="250.680892" style="stroke: #000000; stroke-width: 0.8"/>
      </g>
     </g>
     <g id="text_7">
      <!-- $\mathdefault{1}$ -->
      <g transform="translate(71.579873 257.599391) scale(0.2 -0.2)">
       <use xlink:href="#CMR17-31" transform="scale(0.996264)"/>
      </g>
     </g>
    </g>
    <g id="ytick_4">
     <g id="line2d_44">
      <path d="M 87.717969 195.140294 
L 410.4 195.140294 
" clip-path="url(#pf9a94d687a)" style="fill: none; stroke-dasharray: 2.96,1.28; stroke-dashoffset: 0; stroke: #b0b0b0; stroke-opacity: 0.3; stroke-width: 0.8"/>
     </g>
     <g id="line2d_45">
      <g>
       <use xlink:href="#m358bb7bbd1" x="87.717969" y="195.140294" style="stroke: #000000; stroke-width: 0.8"/>
      </g>
     </g>
     <g id="text_8">
      <!-- $\mathdefault{2}$ -->
      <g transform="translate(71.579873 202.058792) scale(0.2 -0.2)">
       <use xlink:href="#CMR17-32" transform="scale(0.996264)"/>
      </g>
     </g>
    </g>
    <g id="ytick_5">
     <g id="line2d_46">
      <path d="M 87.717969 139.599695 
L 410.4 139.599695 
" clip-path="url(#pf9a94d687a)" style="fill: none; stroke-dasharray: 2.96,1.28; stroke-dashoffset: 0; stroke: #b0b0b0; stroke-opacity: 0.3; stroke-width: 0.8"/>
     </g>
     <g id="line2d_47">
      <g>
       <use xlink:href="#m358bb7bbd1" x="87.717969" y="139.599695" style="stroke: #000000; stroke-width: 0.8"/>
      </g>
     </g>
     <g id="text_9">
      <!-- $\mathdefault{3}$ -->
      <g transform="translate(71.579873 146.518194) scale(0.2 -0.2)">
       <defs>
        <path id="CMR17-33" d="M 1414 2157 
C 1984 2157 2234 1662 2234 1090 
C 2234 320 1824 25 1453 25 
C 1114 25 563 194 390 693 
C 422 680 454 680 486 680 
C 640 680 755 782 755 948 
C 755 1133 614 1216 486 1216 
C 378 1216 211 1165 211 926 
C 211 335 787 -128 1466 -128 
C 2176 -128 2720 430 2720 1085 
C 2720 1707 2208 2157 1600 2227 
C 2086 2328 2554 2756 2554 3329 
C 2554 3820 2048 4179 1472 4179 
C 890 4179 378 3829 378 3329 
C 378 3110 544 3072 627 3072 
C 762 3072 877 3155 877 3321 
C 877 3486 762 3569 627 3569 
C 602 3569 570 3569 544 3557 
C 730 3959 1235 4032 1459 4032 
C 1683 4032 2106 3925 2106 3320 
C 2106 3143 2080 2828 1862 2550 
C 1670 2304 1453 2304 1242 2284 
C 1210 2284 1062 2269 1037 2269 
C 992 2263 966 2257 966 2208 
C 966 2163 973 2157 1101 2157 
L 1414 2157 
z
" transform="scale(0.015625)"/>
       </defs>
       <use xlink:href="#CMR17-33" transform="scale(0.996264)"/>
      </g>
     </g>
    </g>
    <g id="ytick_6">
     <g id="line2d_48">
      <path d="M 87.717969 84.059097 
L 410.4 84.059097 
" clip-path="url(#pf9a94d687a)" style="fill: none; stroke-dasharray: 2.96,1.28; stroke-dashoffset: 0; stroke: #b0b0b0; stroke-opacity: 0.3; stroke-width: 0.8"/>
     </g>
     <g id="line2d_49">
      <g>
       <use xlink:href="#m358bb7bbd1" x="87.717969" y="84.059097" style="stroke: #000000; stroke-width: 0.8"/>
      </g>
     </g>
     <g id="text_10">
      <!-- $\mathdefault{4}$ -->
      <g transform="translate(71.579873 90.977595) scale(0.2 -0.2)">
       <defs>
        <path id="CMR17-34" d="M 2150 4122 
C 2150 4256 2144 4256 2029 4256 
L 128 1254 
L 128 1088 
L 1779 1088 
L 1779 457 
C 1779 224 1766 160 1318 160 
L 1197 160 
L 1197 0 
C 1402 0 1747 0 1965 0 
C 2182 0 2528 0 2733 0 
L 2733 160 
L 2611 160 
C 2163 160 2150 224 2150 457 
L 2150 1088 
L 2803 1088 
L 2803 1254 
L 2150 1254 
L 2150 4122 
z
M 1798 3703 
L 1798 1254 
L 256 1254 
L 1798 3703 
z
" transform="scale(0.015625)"/>
       </defs>
       <use xlink:href="#CMR17-34" transform="scale(0.996264)"/>
      </g>
     </g>
    </g>
    <g id="ytick_7">
     <g id="line2d_50">
      <path d="M 87.717969 28.518498 
L 410.4 28.518498 
" clip-path="url(#pf9a94d687a)" style="fill: none; stroke-dasharray: 2.96,1.28; stroke-dashoffset: 0; stroke: #b0b0b0; stroke-opacity: 0.3; stroke-width: 0.8"/>
     </g>
     <g id="line2d_51">
      <g>
       <use xlink:href="#m358bb7bbd1" x="87.717969" y="28.518498" style="stroke: #000000; stroke-width: 0.8"/>
      </g>
     </g>
     <g id="text_11">
      <!-- $\mathdefault{5}$ -->
      <g transform="translate(71.579873 35.436997) scale(0.2 -0.2)">
       <defs>
        <path id="CMR17-35" d="M 730 3692 
C 794 3666 1056 3584 1325 3584 
C 1920 3584 2246 3911 2432 4100 
C 2432 4157 2432 4192 2394 4192 
C 2387 4192 2374 4192 2323 4163 
C 2099 4058 1837 3973 1517 3973 
C 1325 3973 1037 3999 723 4139 
C 653 4171 640 4171 634 4171 
C 602 4171 595 4164 595 4037 
L 595 2203 
C 595 2089 595 2057 659 2057 
C 691 2057 704 2070 736 2114 
C 941 2401 1222 2522 1542 2522 
C 1766 2522 2246 2382 2246 1289 
C 2246 1085 2246 715 2054 421 
C 1894 159 1645 25 1370 25 
C 947 25 518 320 403 814 
C 429 807 480 795 506 795 
C 589 795 749 840 749 1038 
C 749 1210 627 1280 506 1280 
C 358 1280 262 1190 262 1011 
C 262 454 704 -128 1382 -128 
C 2042 -128 2669 440 2669 1264 
C 2669 2030 2170 2624 1549 2624 
C 1222 2624 947 2503 730 2274 
L 730 3692 
z
" transform="scale(0.015625)"/>
       </defs>
       <use xlink:href="#CMR17-35" transform="scale(0.996264)"/>
      </g>
     </g>
    </g>
    <g id="text_12">
     <!-- Local scaling exponent, $\frac{d\log(\gamma_m)}{d\log(T)}$ -->
     <g transform="translate(41.724439 319.049004) rotate(-90) scale(0.2 -0.2)">
      <defs>
       <path id="CMR17-4c" d="M 3469 1615 
L 3354 1615 
C 3302 983 3219 166 2125 166 
L 1530 166 
C 1274 166 1261 197 1261 414 
L 1261 3898 
C 1261 4129 1274 4192 1760 4192 
L 1901 4192 
L 1901 4352 
C 1638 4352 1331 4352 1069 4352 
C 870 4352 512 4352 326 4352 
L 326 4192 
C 768 4192 838 4192 838 3905 
L 838 452 
C 838 166 768 166 326 166 
L 326 0 
L 3315 0 
L 3469 1615 
z
" transform="scale(0.015625)"/>
       <path id="CMR17-6f" d="M 2758 1356 
C 2758 2176 2163 2816 1466 2816 
C 768 2816 173 2176 173 1356 
C 173 551 768 -64 1466 -64 
C 2163 -64 2758 551 2758 1356 
z
M 1466 51 
C 1165 51 909 230 762 480 
C 602 767 582 1126 582 1408 
C 582 1677 595 2010 762 2298 
C 890 2509 1139 2714 1466 2714 
C 1754 2714 1997 2554 2150 2330 
C 2349 2029 2349 1607 2349 1408 
C 2349 1158 2336 775 2163 467 
C 1984 173 1709 51 1466 51 
z
" transform="scale(0.015625)"/>
       <path id="CMR17-63" d="M 2234 2240 
C 2112 2240 1933 2240 1933 2017 
C 1933 1838 2080 1787 2163 1787 
C 2208 1787 2394 1807 2394 2024 
C 2394 2467 1958 2803 1466 2803 
C 787 2803 211 2178 211 1363 
C 211 516 813 -64 1466 -64 
C 2259 -64 2458 677 2458 748 
C 2458 774 2451 793 2406 793 
C 2362 793 2355 787 2330 703 
C 2163 180 1798 51 1523 51 
C 1114 51 621 427 621 1369 
C 621 2338 1094 2688 1472 2688 
C 1722 2688 2093 2573 2234 2240 
z
" transform="scale(0.015625)"/>
       <path id="CMR17-6c" d="M 979 4396 
L 218 4326 
L 218 4160 
C 595 4160 653 4122 653 3817 
L 653 426 
C 653 184 627 153 218 153 
L 218 -13 
C 371 0 653 0 813 0 
C 979 0 1261 0 1414 -13 
L 1414 153 
C 1005 153 979 178 979 426 
L 979 4396 
z
" transform="scale(0.015625)"/>
       <path id="CMR17-73" d="M 1978 2697 
C 1978 2813 1971 2819 1933 2819 
C 1907 2819 1901 2813 1824 2717 
C 1805 2691 1747 2626 1728 2601 
C 1523 2819 1235 2819 1126 2819 
C 416 2819 160 2447 160 2076 
C 160 1498 813 1365 998 1325 
C 1402 1243 1542 1217 1677 1101 
C 1760 1025 1901 884 1901 654 
C 1901 384 1747 38 1158 38 
C 602 38 403 460 288 1021 
C 269 1110 269 1117 218 1117 
C 166 1117 160 1110 160 983 
L 160 63 
C 160 -51 166 -58 205 -58 
C 237 -58 243 -51 275 0 
C 314 57 410 211 448 276 
C 576 103 800 -64 1158 -64 
C 1792 -64 2131 283 2131 784 
C 2131 1112 1958 1285 1875 1362 
C 1683 1561 1459 1606 1190 1657 
C 838 1735 390 1825 390 2217 
C 390 2383 480 2737 1126 2737 
C 1811 2737 1850 2094 1862 1888 
C 1869 1856 1901 1849 1920 1849 
C 1978 1849 1978 1869 1978 1978 
L 1978 2697 
z
" transform="scale(0.015625)"/>
       <path id="CMR17-69" d="M 992 3909 
C 992 4049 877 4170 730 4170 
C 589 4170 467 4056 467 3909 
C 467 3769 582 3648 730 3648 
C 870 3648 992 3763 992 3909 
z
M 243 2706 
L 243 2541 
C 602 2541 653 2502 653 2197 
L 653 427 
C 653 184 627 153 218 153 
L 218 -13 
C 371 0 646 0 806 0 
C 960 0 1222 0 1370 -13 
L 1370 153 
C 992 153 979 191 979 420 
L 979 2776 
L 243 2706 
z
" transform="scale(0.015625)"/>
       <path id="CMR17-6e" d="M 2656 1933 
C 2656 2259 2592 2790 1837 2790 
C 1331 2790 1069 2400 973 2144 
L 966 2144 
L 966 2790 
L 211 2720 
L 211 2554 
C 589 2554 646 2515 646 2208 
L 646 428 
C 646 184 621 153 211 153 
L 211 -13 
C 365 0 646 0 813 0 
C 979 0 1267 0 1421 -13 
L 1421 153 
C 1011 153 986 178 986 428 
L 986 1658 
C 986 2247 1344 2688 1792 2688 
C 2266 2688 2317 2266 2317 1958 
L 2317 428 
C 2317 184 2291 153 1882 153 
L 1882 -13 
C 2035 0 2317 0 2483 0 
C 2650 0 2938 0 3091 -13 
L 3091 153 
C 2682 153 2656 178 2656 428 
L 2656 1933 
z
" transform="scale(0.015625)"/>
       <path id="CMR17-67" d="M 710 1164 
C 832 1068 1043 960 1299 960 
C 1805 960 2240 1357 2240 1888 
C 2240 2054 2189 2310 1997 2509 
C 2176 2692 2438 2752 2586 2752 
C 2611 2752 2650 2752 2682 2734 
C 2656 2728 2598 2703 2598 2605 
C 2598 2527 2656 2471 2739 2471 
C 2835 2471 2886 2533 2886 2614 
C 2886 2731 2790 2854 2586 2854 
C 2330 2854 2106 2738 1926 2580 
C 1734 2753 1504 2816 1299 2816 
C 794 2816 358 2419 358 1888 
C 358 1522 570 1292 634 1228 
C 442 1004 442 743 442 711 
C 442 545 506 302 723 168 
C 390 85 128 -169 128 -486 
C 128 -943 736 -1280 1466 -1280 
C 2170 -1280 2803 -956 2803 -479 
C 2803 384 1856 384 1363 384 
C 1216 384 954 384 922 391 
C 723 423 589 602 589 826 
C 589 883 589 1024 710 1164 
z
M 1299 1068 
C 736 1068 736 1760 736 1889 
C 736 2016 736 2708 1299 2708 
C 1862 2708 1862 2016 1862 1889 
C 1862 1760 1862 1068 1299 1068 
z
M 1466 -1171 
C 826 -1171 384 -835 384 -486 
C 384 -289 493 -105 634 -4 
C 794 104 858 104 1293 104 
C 1818 104 2547 104 2547 -486 
C 2547 -835 2106 -1171 1466 -1171 
z
" transform="scale(0.015625)"/>
       <path id="CMR17-78" d="M 1664 1477 
C 1856 1726 2074 2006 2253 2216 
C 2464 2458 2707 2560 2989 2560 
L 2989 2726 
C 2880 2726 2656 2726 2541 2726 
C 2368 2726 2170 2726 2022 2732 
L 2022 2566 
C 2112 2553 2163 2489 2163 2400 
C 2163 2285 2099 2215 2067 2171 
L 1594 1573 
L 1030 2306 
C 973 2376 973 2388 973 2420 
C 973 2497 1037 2560 1146 2560 
L 1146 2732 
C 992 2726 717 2726 557 2726 
C 384 2726 179 2726 38 2732 
L 38 2560 
C 384 2560 461 2534 614 2343 
L 1350 1395 
C 1363 1382 1395 1344 1395 1325 
C 1395 1299 838 619 768 530 
C 480 185 179 160 6 160 
L 6 0 
C 115 0 339 0 454 0 
C 582 0 864 0 979 -6 
L 979 160 
C 941 166 838 179 838 325 
C 838 440 890 510 947 586 
L 1478 1236 
L 2035 512 
C 2086 442 2163 346 2163 301 
C 2163 211 2086 160 1984 160 
L 1984 -6 
C 2138 0 2413 0 2573 0 
C 2746 0 2950 0 3091 -6 
L 3091 160 
C 2771 160 2675 172 2522 370 
L 1664 1477 
z
" transform="scale(0.015625)"/>
       <path id="CMMI12-64" d="M 3219 4257 
C 3226 4282 3238 4320 3238 4352 
C 3238 4416 3174 4416 3162 4416 
C 3155 4416 2842 4388 2810 4380 
C 2701 4373 2605 4358 2490 4358 
C 2330 4345 2285 4339 2285 4224 
C 2285 4160 2336 4160 2426 4160 
C 2739 4160 2746 4103 2746 4040 
C 2746 4002 2733 3952 2726 3933 
L 2336 2395 
C 2266 2561 2093 2816 1760 2816 
C 1037 2816 256 1884 256 939 
C 256 307 627 -64 1062 -64 
C 1414 -64 1715 211 1894 422 
C 1958 45 2259 -64 2451 -64 
C 2643 -64 2797 51 2912 281 
C 3014 498 3104 888 3104 913 
C 3104 945 3078 971 3040 971 
C 2982 971 2976 939 2950 843 
C 2854 466 2733 64 2470 64 
C 2285 64 2272 229 2272 357 
C 2272 382 2272 515 2317 694 
L 3219 4257 
z
M 1926 760 
C 1894 651 1894 639 1805 517 
C 1664 338 1382 64 1082 64 
C 819 64 672 300 672 677 
C 672 1028 870 1743 992 2012 
C 1210 2459 1510 2689 1760 2689 
C 2182 2689 2266 2165 2266 2114 
C 2266 2108 2246 2024 2240 2012 
L 1926 760 
z
" transform="scale(0.015625)"/>
       <path id="CMR17-28" d="M 1958 -1561 
C 1958 -1555 1958 -1542 1939 -1523 
C 1645 -1224 858 -407 858 1581 
C 858 3569 1632 4379 1946 4697 
C 1946 4704 1958 4717 1958 4736 
C 1958 4755 1939 4768 1914 4768 
C 1843 4768 1299 4296 986 3594 
C 666 2887 576 2199 576 1588 
C 576 1128 621 351 1005 -471 
C 1312 -1135 1837 -1600 1914 -1600 
C 1946 -1600 1958 -1587 1958 -1561 
z
" transform="scale(0.015625)"/>
       <path id="CMMI12-d" d="M 2419 760 
C 2406 1071 2394 1561 2150 2133 
C 2022 2452 1805 2788 1338 2788 
C 550 2788 122 1790 122 1625 
C 122 1567 166 1567 186 1567 
C 243 1567 243 1580 275 1663 
C 410 2057 819 2368 1261 2368 
C 2150 2368 2278 1383 2278 754 
C 2278 352 2234 220 2195 92 
C 2074 -302 1862 -1090 1862 -1268 
C 1862 -1319 1882 -1376 1933 -1376 
C 2029 -1376 2086 -1166 2157 -912 
C 2310 -353 2349 -73 2381 181 
C 2400 334 2765 1384 3270 2382 
C 3315 2483 3405 2655 3405 2674 
C 3405 2680 3398 2725 3341 2725 
C 3328 2725 3296 2725 3283 2699 
C 3270 2687 3046 2254 2854 1822 
C 2758 1606 2630 1320 2419 760 
z
" transform="scale(0.015625)"/>
       <path id="CMMI12-6d" d="M 1318 1871 
C 1331 1910 1491 2229 1728 2433 
C 1894 2586 2112 2689 2362 2689 
C 2618 2689 2707 2497 2707 2242 
C 2707 2203 2707 2076 2630 1775 
L 2470 1118 
C 2419 926 2298 453 2285 383 
C 2259 287 2221 121 2221 96 
C 2221 6 2291 -64 2387 -64 
C 2579 -64 2611 83 2669 313 
L 3053 1839 
C 3066 1890 3398 2689 4102 2689 
C 4358 2689 4448 2497 4448 2242 
C 4448 1884 4198 1188 4058 805 
C 4000 651 3968 568 3968 453 
C 3968 166 4166 -64 4474 -64 
C 5069 -64 5293 875 5293 913 
C 5293 945 5267 971 5229 971 
C 5171 971 5165 952 5133 843 
C 4986 332 4749 64 4493 64 
C 4429 64 4326 64 4326 269 
C 4326 436 4403 640 4429 710 
C 4544 1018 4832 1773 4832 2145 
C 4832 2528 4608 2816 4122 2816 
C 3693 2816 3347 2574 3091 2197 
C 3072 2542 2861 2816 2381 2816 
C 1811 2816 1510 2415 1395 2255 
C 1376 2618 1114 2816 832 2816 
C 646 2816 499 2727 378 2484 
C 262 2254 173 1865 173 1839 
C 173 1814 198 1782 243 1782 
C 294 1782 301 1788 339 1935 
C 435 2312 557 2689 813 2689 
C 960 2689 1011 2586 1011 2395 
C 1011 2254 947 2005 902 1807 
L 723 1118 
C 698 996 627 709 595 594 
C 550 428 480 128 480 96 
C 480 6 550 -64 646 -64 
C 723 -64 813 -26 864 70 
C 877 102 934 326 966 453 
L 1107 1028 
L 1318 1871 
z
" transform="scale(0.015625)"/>
       <path id="CMR17-29" d="M 1683 1581 
C 1683 2040 1638 2817 1254 3639 
C 947 4303 422 4768 346 4768 
C 326 4768 301 4761 301 4729 
C 301 4717 307 4710 314 4697 
C 621 4378 1402 3568 1402 1584 
C 1402 -407 627 -1217 314 -1537 
C 307 -1549 301 -1556 301 -1568 
C 301 -1600 326 -1600 346 -1600 
C 416 -1600 960 -1128 1274 -426 
C 1594 281 1683 969 1683 1581 
z
" transform="scale(0.015625)"/>
      </defs>
      <use xlink:href="#CMR17-4c" transform="scale(0.996264)"/>
      <use xlink:href="#CMR17-6f" transform="translate(57.381408 0) scale(0.996264)"/>
      <use xlink:href="#CMR17-63" transform="translate(105.674324 0) scale(0.996264)"/>
      <use xlink:href="#CMR17-61" transform="translate(146.159984 0) scale(0.996264)"/>
      <use xlink:href="#CMR17-6c" transform="translate(191.850461 0) scale(0.996264)"/>
      <use xlink:href="#CMR17-73" transform="translate(246.797486 0) scale(0.996264)"/>
      <use xlink:href="#CMR17-63" transform="translate(282.598824 0) scale(0.996264)"/>
      <use xlink:href="#CMR17-61" transform="translate(323.084484 0) scale(0.996264)"/>
      <use xlink:href="#CMR17-6c" transform="translate(368.774961 0) scale(0.996264)"/>
      <use xlink:href="#CMR17-69" transform="translate(393.64602 0) scale(0.996264)"/>
      <use xlink:href="#CMR17-6e" transform="translate(418.517078 0) scale(0.996264)"/>
      <use xlink:href="#CMR17-67" transform="translate(469.412448 0) scale(0.996264)"/>
      <use xlink:href="#CMR17-65" transform="translate(545.178892 0) scale(0.996264)"/>
      <use xlink:href="#CMR17-78" transform="translate(585.664552 0) scale(0.996264)"/>
      <use xlink:href="#CMR17-70" transform="translate(633.957468 0) scale(0.996264)"/>
      <use xlink:href="#CMR17-6f" transform="translate(687.455276 0) scale(0.996264)"/>
      <use xlink:href="#CMR17-6e" transform="translate(733.145753 0) scale(0.996264)"/>
      <use xlink:href="#CMR17-65" transform="translate(784.041123 0) scale(0.996264)"/>
      <use xlink:href="#CMR17-6e" transform="translate(824.526784 0) scale(0.996264)"/>
      <use xlink:href="#CMR17-74" transform="translate(872.8197 0) scale(0.996264)"/>
      <use xlink:href="#CMR17-2c" transform="translate(908.100467 0) scale(0.996264)"/>
      <use xlink:href="#CMMI12-64" transform="translate(964.243006 48.260247) scale(0.697382)"/>
      <use xlink:href="#CMR17-6c" transform="translate(1011.348237 48.260247) scale(0.697382)"/>
      <use xlink:href="#CMR17-6f" transform="translate(1028.757896 48.260247) scale(0.697382)"/>
      <use xlink:href="#CMR17-67" transform="translate(1060.741078 48.260247) scale(0.697382)"/>
      <use xlink:href="#CMR17-28" transform="translate(1093.635075 48.260247) scale(0.697382)"/>
      <use xlink:href="#CMMI12-d" transform="translate(1118.331495 48.260247) scale(0.697382)"/>
      <use xlink:href="#CMMI12-6d" transform="translate(1153.750721 37.799551) scale(0.498132)"/>
      <use xlink:href="#CMR17-29" transform="translate(1196.912457 48.260247) scale(0.697382)"/>
      <use xlink:href="#CMMI12-64" transform="translate(978.780334 -34.355253) scale(0.697382)"/>
      <use xlink:href="#CMR17-6c" transform="translate(1025.885565 -34.355253) scale(0.697382)"/>
      <use xlink:href="#CMR17-6f" transform="translate(1043.295223 -34.355253) scale(0.697382)"/>
      <use xlink:href="#CMR17-67" transform="translate(1075.278405 -34.355253) scale(0.697382)"/>
      <use xlink:href="#CMR17-28" transform="translate(1108.172402 -34.355253) scale(0.697382)"/>
      <use xlink:href="#CMMI12-54" transform="translate(1132.868823 -34.355253) scale(0.697382)"/>
      <use xlink:href="#CMR17-29" transform="translate(1182.375145 -34.355253) scale(0.697382)"/>
      <path d="M 964.243006 22.914133 
L 1221.608878 22.914133 
L 1221.608878 26.899083 
L 964.243006 26.899083 
L 964.243006 22.914133 
z
"/>
     </g>
    </g>
   </g>
   <g id="line2d_52">
    <path d="M 87.717969 195.140294 
L 410.4 195.140294 
" clip-path="url(#pf9a94d687a)" style="fill: none; stroke-dasharray: 3.7,1.6; stroke-dashoffset: 0; stroke: #ff0000; stroke-opacity: 0.5"/>
   </g>
   <g id="line2d_53">
    <path d="M 87.717969 84.059097 
L 410.4 84.059097 
" clip-path="url(#pf9a94d687a)" style="fill: none; stroke-dasharray: 6.4,1.6,1,1.6; stroke-dashoffset: 0; stroke: #0000ff; stroke-opacity: 0.5"/>
   </g>
   <g id="line2d_54">
    <path d="M 102.385334 203.624681 
L 108.493091 192.221644 
L 112.123789 191.617523 
L 115.177667 196.023988 
L 120.708602 198.340629 
L 124.916125 198.945619 
L 127.970006 197.170145 
L 132.924119 201.744464 
L 137.708459 193.018252 
L 140.762336 194.642471 
L 145.139629 193.732476 
L 150.500792 194.54446 
L 153.55467 194.59918 
L 157.355142 197.444793 
L 163.293128 198.040599 
L 166.347007 157.759491 
L 169.570656 194.700562 
L 175.678413 196.176821 
L 179.13934 189.397643 
L 182.193219 194.861463 
L 187.893925 196.242482 
L 191.931675 196.345386 
L 194.985553 194.687666 
L 200.109439 249.437193 
L 204.724009 326.327653 
L 207.777888 326.059899 
L 212.324952 311.631402 
L 217.516344 306.221491 
L 220.570222 306.221491 
L 224.540465 306.221491 
L 230.648221 306.221491 
L 233.741181 306.221491 
L 236.795059 306.221491 
L 246.912139 191.129555 
L 249.966017 189.729211 
L 255.079247 189.152527 
L 260.083097 191.383059 
L 263.136975 189.260847 
L 267.294761 192.408566 
L 273.254055 192.963846 
L 276.307933 194.042245 
L 279.510274 193.934351 
L 285.61803 194.774294 
L 289.478892 195.773995 
L 292.53277 196.585812 
L 297.833543 194.692835 
L 302.64985 199.407231 
L 305.703728 194.90124 
L 310.049056 198.196664 
L 315.820808 204.530488 
L 318.874686 207.228541 
L 322.264569 209.938341 
L 328.372326 213.253944 
L 332.045644 210.330378 
L 335.099523 217.167043 
L 340.587839 219.553265 
L 345.216602 221.732731 
L 348.270481 225.084275 
L 351.149372 224.582979 
L 354.20325 227.552598 
L 357.082141 228.185798 
L 360.136019 228.154605 
L 363.01491 228.062996 
L 366.068789 227.906334 
L 368.94768 227.724919 
L 372.001558 227.499895 
L 374.880449 227.272338 
L 377.934327 227.01738 
L 380.813218 226.7729 
L 383.867096 226.512978 
L 386.745987 226.27037 
L 389.799866 226.020994 
L 392.678757 225.791741 
L 395.732635 225.561779 
" clip-path="url(#pf9a94d687a)" style="fill: none; stroke: #ff6600; stroke-width: 1.3; stroke-linecap: square"/>
   </g>
   <g id="line2d_55">
    <path d="M 102.385334 62.650972 
L 108.493091 83.693375 
L 112.123789 81.644375 
L 115.177667 81.5165 
L 120.708602 87.111006 
L 124.916125 86.799854 
L 127.970006 97.601404 
L 132.924119 89.855567 
L 137.708459 86.753612 
L 140.762336 84.540972 
L 145.139629 79.791417 
L 150.500792 86.48217 
L 153.55467 90.302567 
L 157.355142 90.999047 
L 163.293128 88.892224 
L 166.347007 102.984542 
L 169.570656 85.987331 
L 175.678413 89.596706 
L 179.13934 85.455038 
L 182.193219 89.763441 
L 187.893925 91.276885 
L 191.931675 90.497396 
L 194.985553 88.06309 
L 200.109439 189.562875 
L 204.724009 321.253277 
L 207.777888 322.296169 
L 212.324952 308.215136 
L 217.516344 306.221491 
L 220.570222 306.221491 
L 224.540465 306.221491 
L 230.648221 306.221491 
L 233.741181 306.221491 
L 236.795059 306.221491 
L 246.912139 89.973526 
L 249.966017 92.86323 
L 255.079247 94.776558 
L 260.083097 94.122386 
L 263.136975 98.383861 
L 267.294761 99.224897 
L 273.254055 101.684652 
L 276.307933 109.18868 
L 279.510274 105.434684 
L 285.61803 110.749977 
L 289.478892 107.946103 
L 292.53277 114.321997 
L 297.833543 115.951804 
L 302.64985 124.704797 
L 305.703728 121.45395 
L 310.049056 129.650886 
L 315.820808 133.43143 
L 318.874686 139.706859 
L 322.264569 143.922903 
L 328.372326 151.018662 
L 332.045644 154.612529 
L 335.099523 165.279578 
L 340.587839 180.274533 
L 345.216602 194.802938 
L 348.270481 201.220228 
L 351.149372 208.37338 
L 354.20325 220.567247 
L 357.082141 228.779061 
L 360.136019 228.875809 
L 363.01491 228.888011 
L 366.068789 228.821888 
L 368.94768 228.712163 
L 372.001558 228.546129 
L 374.880449 228.363326 
L 377.934327 228.141334 
L 380.813218 227.919515 
L 383.867096 227.671653 
L 386.745987 227.434085 
L 389.799866 227.180364 
L 392.678757 226.942435 
L 395.732635 226.695741 
" clip-path="url(#pf9a94d687a)" style="fill: none; stroke: #3380ff; stroke-width: 2; stroke-linecap: square"/>
   </g>
   <g id="line2d_56">
    <path d="M 102.385334 199.192863 
L 108.493091 194.089316 
L 112.123789 201.49938 
L 115.177667 194.954987 
L 120.708602 197.55855 
L 124.916125 196.880465 
L 127.970006 197.076747 
L 132.924119 199.192859 
L 137.708459 196.277015 
L 140.762336 194.476609 
L 145.139629 195.292009 
L 150.500792 194.652902 
L 153.55467 193.931058 
L 157.355142 197.974119 
L 163.293128 196.24778 
L 166.347007 187.354249 
L 169.570656 196.333262 
L 175.678413 193.445167 
L 179.13934 203.317292 
L 182.193219 195.060683 
L 187.893925 197.054875 
L 191.931675 195.05792 
L 194.985553 197.674522 
L 200.109439 248.969553 
L 204.724009 325.354015 
L 207.777888 326.811313 
L 212.324952 311.023607 
L 217.516344 307.209567 
L 220.570222 306.221491 
L 224.540465 306.221491 
L 230.648221 306.221491 
L 233.741181 306.221491 
L 236.795059 306.923473 
L 246.912139 193.704981 
L 249.966017 192.137382 
L 255.079247 193.664043 
L 260.083097 194.997939 
L 263.136975 195.824455 
L 267.294761 196.055382 
L 273.254055 195.988034 
L 276.307933 204.863331 
L 279.510274 199.481883 
L 285.61803 205.151211 
L 289.478892 211.603984 
L 292.53277 208.388782 
L 297.833543 211.618605 
L 302.64985 209.360237 
L 305.703728 211.937478 
L 310.049056 211.460507 
L 315.820808 209.842716 
L 318.874686 208.505513 
L 322.264569 207.661301 
L 328.372326 205.384145 
L 332.045644 195.474779 
L 335.099523 202.589839 
L 340.587839 203.331124 
L 345.216602 207.57299 
L 348.270481 209.505289 
L 351.149372 211.796818 
L 354.20325 222.164106 
L 357.082141 227.710457 
L 360.136019 227.777826 
L 363.01491 227.771716 
L 366.068789 227.696677 
L 368.94768 227.585557 
L 372.001558 227.426393 
L 374.880449 227.255142 
L 377.934327 227.051844 
L 380.813218 226.851162 
L 383.867096 226.630423 
L 386.745987 226.420736 
L 389.799866 226.199799 
L 392.678757 225.994152 
L 395.732635 225.783639 
" clip-path="url(#pf9a94d687a)" style="fill: none; stroke: #fe3300; stroke-width: 1.3; stroke-linecap: square"/>
   </g>
   <g id="line2d_57">
    <path d="M 102.385334 71.574228 
L 108.493091 89.982205 
L 112.123789 89.750997 
L 115.177667 87.150937 
L 120.708602 87.127139 
L 124.916125 88.422239 
L 127.970006 95.506044 
L 132.924119 91.170126 
L 137.708459 89.444761 
L 140.762336 91.087308 
L 145.139629 87.432742 
L 150.500792 91.371451 
L 153.55467 90.882786 
L 157.355142 93.534333 
L 163.293128 92.807395 
L 166.347007 105.221808 
L 169.570656 91.984371 
L 175.678413 93.900927 
L 179.13934 97.925517 
L 182.193219 96.759439 
L 187.893925 96.301681 
L 191.931675 99.066113 
L 194.985553 98.088534 
L 200.109439 191.522836 
L 204.724009 322.379247 
L 207.777888 323.53024 
L 212.324952 309.089994 
L 217.516344 306.221491 
L 220.570222 306.221491 
L 224.540465 306.221491 
L 230.648221 306.221491 
L 233.741181 306.221491 
L 236.795059 306.221491 
L 246.912139 107.092037 
L 249.966017 110.759891 
L 255.079247 112.891922 
L 260.083097 117.11486 
L 263.136975 118.865987 
L 267.294761 123.408817 
L 273.254055 127.829479 
L 276.307933 136.543163 
L 279.510274 134.262182 
L 285.61803 141.095414 
L 289.478892 144.543871 
L 292.53277 148.428446 
L 297.833543 153.207066 
L 302.64985 162.498314 
L 305.703728 163.107462 
L 310.049056 172.146977 
L 315.820808 180.912598 
L 318.874686 187.865198 
L 322.264569 192.102438 
L 328.372326 197.566767 
L 332.045644 197.087547 
L 335.099523 199.742382 
L 340.587839 201.027332 
L 345.216602 203.955768 
L 348.270481 205.823701 
L 351.149372 208.813861 
L 354.20325 219.379423 
L 357.082141 227.746224 
L 360.136019 227.834818 
L 363.01491 227.845941 
L 366.068789 227.785973 
L 368.94768 227.686879 
L 372.001558 227.537795 
L 374.880449 227.374366 
L 377.934327 227.17716 
L 380.813218 226.980951 
L 383.867096 226.763189 
L 386.745987 226.555348 
L 389.799866 226.335006 
L 392.678757 226.129229 
L 395.732635 225.917515 
" clip-path="url(#pf9a94d687a)" style="fill: none; stroke: #1a59cc; stroke-width: 2; stroke-linecap: square"/>
   </g>
   <g id="line2d_58">
    <path d="M 102.385334 196.910189 
L 108.493091 195.510941 
L 112.123789 202.094707 
L 115.177667 196.877042 
L 120.708602 197.244838 
L 124.916125 193.598697 
L 127.970006 198.270882 
L 132.924119 198.614027 
L 137.708459 191.350147 
L 140.762336 199.856475 
L 145.139629 196.633163 
L 150.500792 195.785519 
L 153.55467 193.832612 
L 157.355142 196.106447 
L 163.293128 200.220838 
L 166.347007 121.851396 
L 169.570656 197.668288 
L 175.678413 196.421453 
L 179.13934 189.397643 
L 182.193219 197.810277 
L 187.893925 197.391552 
L 191.931675 196.504224 
L 194.985553 197.549885 
L 200.109439 250.269937 
L 204.724009 324.414166 
L 207.777888 325.771429 
L 212.324952 311.718898 
L 217.516344 307.10207 
L 220.570222 306.221491 
L 224.540465 306.838958 
L 230.648221 306.221491 
L 233.741181 306.221491 
L 236.795059 306.848101 
L 246.912139 195.622332 
L 249.966017 197.314005 
L 255.079247 197.040001 
L 260.083097 200.428437 
L 263.136975 202.873585 
L 267.294761 203.553002 
L 273.254055 204.825737 
L 276.307933 209.746744 
L 279.510274 204.593842 
L 285.61803 204.564058 
L 289.478892 200.505553 
L 292.53277 201.737626 
L 297.833543 200.748792 
L 302.64985 200.263661 
L 305.703728 199.260612 
L 310.049056 201.194055 
L 315.820808 203.538654 
L 318.874686 202.233193 
L 322.264569 207.136107 
L 328.372326 210.153589 
L 332.045644 204.310926 
L 335.099523 209.843991 
L 340.587839 208.845233 
L 345.216602 208.035263 
L 348.270481 211.378435 
L 351.149372 208.637858 
L 354.20325 220.630119 
L 357.082141 227.305038 
L 360.136019 227.377481 
L 363.01491 227.37719 
L 366.068789 227.309491 
L 368.94768 227.206114 
L 372.001558 227.056197 
L 374.880449 226.894287 
L 377.934327 226.701688 
L 380.813218 226.511533 
L 383.867096 226.302544 
L 386.745987 226.104183 
L 389.799866 225.895629 
L 392.678757 225.701778 
L 395.732635 225.503887 
" clip-path="url(#pf9a94d687a)" style="fill: none; stroke: #cc0d00; stroke-width: 1.3; stroke-linecap: square"/>
   </g>
   <g id="line2d_59">
    <path d="M 102.385334 74.352156 
L 108.493091 95.318341 
L 112.123789 87.918974 
L 115.177667 89.214139 
L 120.708602 90.772404 
L 124.916125 89.579087 
L 127.970006 98.411763 
L 132.924119 93.699485 
L 137.708459 92.452765 
L 140.762336 95.181494 
L 145.139629 91.58047 
L 150.500792 94.764213 
L 153.55467 94.14966 
L 157.355142 98.232538 
L 163.293128 97.530619 
L 166.347007 83.852323 
L 169.570656 98.425261 
L 175.678413 101.626776 
L 179.13934 98.350216 
L 182.193219 102.974864 
L 187.893925 103.007366 
L 191.931675 109.358739 
L 194.985553 106.459341 
L 200.109439 197.974084 
L 204.724009 321.954561 
L 207.777888 321.17258 
L 212.324952 309.936452 
L 217.516344 306.221491 
L 220.570222 306.221491 
L 224.540465 306.221491 
L 230.648221 305.288937 
L 233.741181 306.221491 
L 236.795059 306.221491 
L 246.912139 124.395882 
L 249.966017 129.141669 
L 255.079247 133.382579 
L 260.083097 138.347017 
L 263.136975 141.359821 
L 267.294761 146.352199 
L 273.254055 152.053899 
L 276.307933 157.164342 
L 279.510274 159.196786 
L 285.61803 166.073961 
L 289.478892 169.189981 
L 292.53277 172.978835 
L 297.833543 177.038162 
L 302.64985 183.04657 
L 305.703728 183.069169 
L 310.049056 187.522409 
L 315.820808 191.435701 
L 318.874686 193.807524 
L 322.264569 198.998394 
L 328.372326 204.777129 
L 332.045644 204.798243 
L 335.099523 209.075247 
L 340.587839 209.717772 
L 345.216602 209.245415 
L 348.270481 209.183382 
L 351.149372 209.273918 
L 354.20325 218.938666 
L 357.082141 227.314484 
L 360.136019 227.395677 
L 363.01491 227.402398 
L 366.068789 227.340715 
L 368.94768 227.242084 
L 372.001558 227.096062 
L 374.880449 226.937124 
L 377.934327 226.746778 
L 380.813218 226.558248 
L 383.867096 226.350269 
L 386.745987 226.152511 
L 389.799866 225.944048 
L 392.678757 225.750031 
L 395.732635 225.551592 
" clip-path="url(#pf9a94d687a)" style="fill: none; stroke: #003399; stroke-width: 2; stroke-linecap: square"/>
   </g>
   <g id="line2d_60">
    <path d="M 102.385334 200.510057 
L 108.493091 193.86931 
L 112.123789 207.666445 
L 115.177667 194.457491 
L 120.708602 199.572918 
L 124.916125 194.992668 
L 127.970006 195.445313 
L 132.924119 201.512857 
L 137.708459 189.916283 
L 140.762336 196.987107 
L 145.139629 195.920178 
L 150.500792 197.876224 
L 153.55467 190.077214 
L 157.355142 198.512898 
L 163.293128 199.494489 
L 166.347007 135.573814 
L 169.570656 197.690724 
L 175.678413 196.740273 
L 179.13934 209.519552 
L 182.193219 197.060687 
L 187.893925 200.157251 
L 191.931675 192.884741 
L 194.985553 199.923302 
L 200.109439 252.190358 
L 204.724009 324.53387 
L 207.777888 325.903706 
L 212.324952 311.42881 
L 217.516344 307.055207 
L 220.570222 306.221491 
L 224.540465 306.806041 
L 230.648221 306.807048 
L 233.741181 306.221491 
L 236.795059 306.221491 
L 246.912139 199.731282 
L 249.966017 200.411187 
L 255.079247 200.780231 
L 260.083097 201.219121 
L 263.136975 201.447145 
L 267.294761 198.730841 
L 273.254055 198.4174 
L 276.307933 214.929256 
L 279.510274 196.789302 
L 285.61803 197.368928 
L 289.478892 200.455574 
L 292.53277 200.178985 
L 297.833543 203.041693 
L 302.64985 202.396947 
L 305.703728 206.493251 
L 310.049056 206.227375 
L 315.820808 205.760453 
L 318.874686 196.960431 
L 322.264569 205.25479 
L 328.372326 207.568375 
L 332.045644 207.282523 
L 335.099523 210.817045 
L 340.587839 211.782896 
L 345.216602 212.857404 
L 348.270481 209.563982 
L 351.149372 208.790375 
L 354.20325 219.215996 
L 357.082141 227.147794 
L 360.136019 227.219271 
L 363.01491 227.218578 
L 366.068789 227.151107 
L 368.94768 227.048449 
L 372.001558 226.899913 
L 374.880449 226.73974 
L 377.934327 226.549566 
L 380.813218 226.36206 
L 383.867096 226.15637 
L 386.745987 225.961408 
L 389.799866 225.756848 
L 392.678757 225.566962 
L 395.732635 225.373584 
" clip-path="url(#pf9a94d687a)" style="fill: none; stroke: #800019; stroke-width: 1.3; stroke-linecap: square"/>
   </g>
   <g id="patch_3">
    <path d="M 87.717969 361.762089 
L 87.717969 28.518498 
" style="fill: none; stroke: #000000; stroke-width: 0.8; stroke-linejoin: miter; stroke-linecap: square"/>
   </g>
   <g id="patch_4">
    <path d="M 410.4 361.762089 
L 410.4 28.518498 
" style="fill: none; stroke: #000000; stroke-width: 0.8; stroke-linejoin: miter; stroke-linecap: square"/>
   </g>
   <g id="patch_5">
    <path d="M 87.717969 361.762089 
L 410.4 361.762089 
" style="fill: none; stroke: #000000; stroke-width: 0.8; stroke-linejoin: miter; stroke-linecap: square"/>
   </g>
   <g id="patch_6">
    <path d="M 87.717969 28.518498 
L 410.4 28.518498 
" style="fill: none; stroke: #000000; stroke-width: 0.8; stroke-linejoin: miter; stroke-linecap: square"/>
   </g>
   <g id="legend_1">
    <g id="line2d_61">
     <path d="M 353.278981 43.518498 
L 365.278981 43.518498 
L 377.278981 43.518498 
" style="fill: none; stroke-dasharray: 3.7,1.6; stroke-dashoffset: 0; stroke: #ff0000; stroke-opacity: 0.5"/>
    </g>
    <g id="text_13">
     <!-- $T^2$ -->
     <g transform="translate(386.878981 47.718498) scale(0.12 -0.12)">
      <use xlink:href="#CMMI12-54" transform="scale(0.996264)"/>
      <use xlink:href="#CMR17-32" transform="translate(70.723632 36.153639) scale(0.697382)"/>
     </g>
    </g>
    <g id="line2d_62">
     <path d="M 353.278981 60.243094 
L 365.278981 60.243094 
L 377.278981 60.243094 
" style="fill: none; stroke-dasharray: 6.4,1.6,1,1.6; stroke-dashoffset: 0; stroke: #0000ff; stroke-opacity: 0.5"/>
    </g>
    <g id="text_14">
     <!-- $T^4$ -->
     <g transform="translate(386.878981 64.443094) scale(0.12 -0.12)">
      <use xlink:href="#CMMI12-54" transform="scale(0.996264)"/>
      <use xlink:href="#CMR17-34" transform="translate(70.723632 36.153639) scale(0.697382)"/>
     </g>
    </g>
   </g>
  </g>
 </g>
 <defs>
  <clipPath id="pf9a94d687a">
   <rect x="87.717969" y="28.518498" width="322.682031" height="333.243591"/>
  </clipPath>
 </defs>
</svg>
