<?xml version="1.0" encoding="utf-8" standalone="no"?>
<!DOCTYPE svg PUBLIC "-//W3C//DTD SVG 1.1//EN"
  "http://www.w3.org/Graphics/SVG/1.1/DTD/svg11.dtd">
<svg xmlns:xlink="http://www.w3.org/1999/xlink" width="518.4pt" height="388.8pt" viewBox="0 0 518.4 388.8" xmlns="http://www.w3.org/2000/svg" version="1.1">
 <metadata>
  <rdf:RDF xmlns:dc="http://purl.org/dc/elements/1.1/" xmlns:cc="http://creativecommons.org/ns#" xmlns:rdf="http://www.w3.org/1999/02/22-rdf-syntax-ns#">
   <cc:Work>
    <dc:type rdf:resource="http://purl.org/dc/dcmitype/StillImage"/>
    <dc:date>2026-01-26T14:03:11.507510</dc:date>
    <dc:format>image/svg+xml</dc:format>
    <dc:creator>
     <cc:Agent>
      <dc:title>Matplotlib v3.8.4, https://matplotlib.org/</dc:title>
     </cc:Agent>
    </dc:creator>
   </cc:Work>
  </rdf:RDF>
 </metadata>
 <defs>
  <style type="text/css">*{stroke-linejoin: round; stroke-linecap: butt}</style>
 </defs>
 <g id="figure_1">
  <g id="patch_1">
   <path d="M 0 388.8 
L 518.4 388.8 
L 518.4 0 
L 0 0 
z
" style="fill: #ffffff"/>
  </g>
  <g id="axes_1">
   <g id="patch_2">
    <path d="M 95.271963 318.562089 
L 496.8 318.562089 
L 496.8 21.6 
L 95.271963 21.6 
z
" style="fill: #ffffff"/>
   </g>
   <g id="matplotlib.axis_1">
    <g id="xtick_1">
     <g id="line2d_1">
      <defs>
       <path id="m11ee2d2c64" d="M 0 0 
L 0 3.5 
" style="stroke: #000000; stroke-width: 0.8"/>
      </defs>
      <g>
       <use xlink:href="#m11ee2d2c64" x="270.100728" y="318.562089" style="stroke: #000000; stroke-width: 0.8"/>
      </g>
     </g>
     <g id="text_1">
      <!-- $\mathdefault{10^{-1}}$ -->
      <g transform="translate(252.124309 339.399086) scale(0.2 -0.2)">
       <defs>
        <path id="CMR17-31" d="M 1702 4058 
C 1702 4192 1696 4192 1606 4192 
C 1357 3916 979 3827 621 3827 
C 602 3827 570 3827 563 3808 
C 557 3795 557 3782 557 3648 
C 755 3648 1088 3686 1344 3839 
L 1344 461 
C 1344 236 1331 160 781 160 
L 589 160 
L 589 0 
C 896 0 1216 0 1523 0 
C 1830 0 2150 0 2458 0 
L 2458 160 
L 2266 160 
C 1715 160 1702 230 1702 458 
L 1702 4058 
z
" transform="scale(0.015625)"/>
        <path id="CMR17-30" d="M 2688 2025 
C 2688 2416 2682 3080 2413 3591 
C 2176 4039 1798 4198 1466 4198 
C 1158 4198 768 4058 525 3597 
C 269 3118 243 2524 243 2025 
C 243 1661 250 1106 448 619 
C 723 -39 1216 -128 1466 -128 
C 1760 -128 2208 -7 2470 600 
C 2662 1042 2688 1559 2688 2025 
z
M 1466 -26 
C 1056 -26 813 325 723 812 
C 653 1188 653 1738 653 2096 
C 653 2588 653 2997 736 3387 
C 858 3929 1216 4096 1466 4096 
C 1728 4096 2067 3923 2189 3400 
C 2272 3036 2278 2607 2278 2096 
C 2278 1680 2278 1169 2202 792 
C 2067 95 1690 -26 1466 -26 
z
" transform="scale(0.015625)"/>
        <path id="CMSY10-0" d="M 4218 1472 
C 4326 1472 4442 1472 4442 1600 
C 4442 1728 4326 1728 4218 1728 
L 755 1728 
C 646 1728 531 1728 531 1600 
C 531 1472 646 1472 755 1472 
L 4218 1472 
z
" transform="scale(0.015625)"/>
       </defs>
       <use xlink:href="#CMR17-31" transform="scale(0.996264)"/>
       <use xlink:href="#CMR17-30" transform="translate(45.690477 0) scale(0.996264)"/>
       <use xlink:href="#CMSY10-0" transform="translate(91.380954 36.153639) scale(0.697382)"/>
       <use xlink:href="#CMR17-31" transform="translate(145.621947 36.153639) scale(0.697382)"/>
      </g>
     </g>
    </g>
    <g id="xtick_2">
     <g id="line2d_2">
      <g>
       <use xlink:href="#m11ee2d2c64" x="474.848949" y="318.562089" style="stroke: #000000; stroke-width: 0.8"/>
      </g>
     </g>
     <g id="text_2">
      <!-- $\mathdefault{10^{0}}$ -->
      <g transform="translate(462.296625 339.399086) scale(0.2 -0.2)">
       <use xlink:href="#CMR17-31" transform="scale(0.996264)"/>
       <use xlink:href="#CMR17-30" transform="translate(45.690477 0) scale(0.996264)"/>
       <use xlink:href="#CMR17-30" transform="translate(91.380954 36.153639) scale(0.697382)"/>
      </g>
     </g>
    </g>
    <g id="xtick_3">
     <g id="line2d_3">
      <defs>
       <path id="m9053d3298f" d="M 0 0 
L 0 2 
" style="stroke: #000000; stroke-width: 0.6"/>
      </defs>
      <g>
       <use xlink:href="#m9053d3298f" x="126.987863" y="318.562089" style="stroke: #000000; stroke-width: 0.6"/>
      </g>
     </g>
    </g>
    <g id="xtick_4">
     <g id="line2d_4">
      <g>
       <use xlink:href="#m9053d3298f" x="163.042235" y="318.562089" style="stroke: #000000; stroke-width: 0.6"/>
      </g>
     </g>
    </g>
    <g id="xtick_5">
     <g id="line2d_5">
      <g>
       <use xlink:href="#m9053d3298f" x="188.623219" y="318.562089" style="stroke: #000000; stroke-width: 0.6"/>
      </g>
     </g>
    </g>
    <g id="xtick_6">
     <g id="line2d_6">
      <g>
       <use xlink:href="#m9053d3298f" x="208.465372" y="318.562089" style="stroke: #000000; stroke-width: 0.6"/>
      </g>
     </g>
    </g>
    <g id="xtick_7">
     <g id="line2d_7">
      <g>
       <use xlink:href="#m9053d3298f" x="224.677591" y="318.562089" style="stroke: #000000; stroke-width: 0.6"/>
      </g>
     </g>
    </g>
    <g id="xtick_8">
     <g id="line2d_8">
      <g>
       <use xlink:href="#m9053d3298f" x="238.384828" y="318.562089" style="stroke: #000000; stroke-width: 0.6"/>
      </g>
     </g>
    </g>
    <g id="xtick_9">
     <g id="line2d_9">
      <g>
       <use xlink:href="#m9053d3298f" x="250.258576" y="318.562089" style="stroke: #000000; stroke-width: 0.6"/>
      </g>
     </g>
    </g>
    <g id="xtick_10">
     <g id="line2d_10">
      <g>
       <use xlink:href="#m9053d3298f" x="260.731964" y="318.562089" style="stroke: #000000; stroke-width: 0.6"/>
      </g>
     </g>
    </g>
    <g id="xtick_11">
     <g id="line2d_11">
      <g>
       <use xlink:href="#m9053d3298f" x="331.736084" y="318.562089" style="stroke: #000000; stroke-width: 0.6"/>
      </g>
     </g>
    </g>
    <g id="xtick_12">
     <g id="line2d_12">
      <g>
       <use xlink:href="#m9053d3298f" x="367.790456" y="318.562089" style="stroke: #000000; stroke-width: 0.6"/>
      </g>
     </g>
    </g>
    <g id="xtick_13">
     <g id="line2d_13">
      <g>
       <use xlink:href="#m9053d3298f" x="393.371441" y="318.562089" style="stroke: #000000; stroke-width: 0.6"/>
      </g>
     </g>
    </g>
    <g id="xtick_14">
     <g id="line2d_14">
      <g>
       <use xlink:href="#m9053d3298f" x="413.213593" y="318.562089" style="stroke: #000000; stroke-width: 0.6"/>
      </g>
     </g>
    </g>
    <g id="xtick_15">
     <g id="line2d_15">
      <g>
       <use xlink:href="#m9053d3298f" x="429.425813" y="318.562089" style="stroke: #000000; stroke-width: 0.6"/>
      </g>
     </g>
    </g>
    <g id="xtick_16">
     <g id="line2d_16">
      <g>
       <use xlink:href="#m9053d3298f" x="443.133049" y="318.562089" style="stroke: #000000; stroke-width: 0.6"/>
      </g>
     </g>
    </g>
    <g id="xtick_17">
     <g id="line2d_17">
      <g>
       <use xlink:href="#m9053d3298f" x="455.006797" y="318.562089" style="stroke: #000000; stroke-width: 0.6"/>
      </g>
     </g>
    </g>
    <g id="xtick_18">
     <g id="line2d_18">
      <g>
       <use xlink:href="#m9053d3298f" x="465.480185" y="318.562089" style="stroke: #000000; stroke-width: 0.6"/>
      </g>
     </g>
    </g>
    <g id="text_3">
     <!-- Temperature, $T/T_F$ -->
     <g transform="translate(217.424061 362.21868) scale(0.2 -0.2)">
      <defs>
       <path id="CMR17-54" d="M 3981 4326 
L 288 4326 
L 179 2918 
L 294 2918 
C 378 3976 467 4160 1453 4160 
C 1568 4160 1754 4160 1805 4154 
C 1926 4135 1926 4058 1926 3912 
L 1926 459 
C 1926 230 1907 160 1376 160 
L 1197 160 
L 1197 0 
C 1504 0 1824 0 2138 0 
C 2451 0 2771 0 3078 0 
L 3078 160 
L 2899 160 
C 2368 160 2349 230 2349 459 
L 2349 3912 
C 2349 4052 2349 4129 2464 4154 
C 2515 4160 2701 4160 2816 4160 
C 3795 4160 3891 3976 3974 2918 
L 4090 2918 
L 3981 4326 
z
" transform="scale(0.015625)"/>
       <path id="CMR17-65" d="M 2438 1472 
C 2464 1498 2464 1511 2464 1576 
C 2464 2238 2118 2816 1389 2816 
C 710 2816 173 2169 173 1383 
C 173 551 781 -64 1459 -64 
C 2176 -64 2458 607 2458 740 
C 2458 784 2419 784 2406 784 
C 2362 784 2355 771 2330 696 
C 2189 265 1837 51 1504 51 
C 1229 51 954 203 781 480 
C 582 803 582 1176 582 1472 
L 2438 1472 
z
M 589 1568 
C 634 2505 1126 2714 1382 2714 
C 1818 2714 2112 2297 2118 1568 
L 589 1568 
z
" transform="scale(0.015625)"/>
       <path id="CMR17-6d" d="M 4326 1933 
C 4326 2252 4269 2790 3507 2790 
C 3072 2790 2771 2496 2656 2151 
L 2650 2151 
C 2573 2676 2195 2790 1837 2790 
C 1331 2790 1069 2400 973 2144 
L 966 2144 
L 966 2790 
L 211 2720 
L 211 2554 
C 589 2554 646 2515 646 2208 
L 646 428 
C 646 184 621 153 211 153 
L 211 -13 
C 365 0 646 0 813 0 
C 979 0 1267 0 1421 -13 
L 1421 153 
C 1011 153 986 178 986 428 
L 986 1658 
C 986 2247 1344 2688 1792 2688 
C 2266 2688 2317 2266 2317 1958 
L 2317 428 
C 2317 184 2291 153 1882 153 
L 1882 -13 
C 2035 0 2317 0 2483 0 
C 2650 0 2938 0 3091 -13 
L 3091 153 
C 2682 153 2656 178 2656 428 
L 2656 1658 
C 2656 2247 3014 2688 3462 2688 
C 3936 2688 3987 2266 3987 1958 
L 3987 428 
C 3987 184 3962 153 3552 153 
L 3552 -13 
C 3706 0 3987 0 4154 0 
C 4320 0 4608 0 4762 -13 
L 4762 153 
C 4352 153 4326 178 4326 428 
L 4326 1933 
z
" transform="scale(0.015625)"/>
       <path id="CMR17-70" d="M 1408 -1063 
C 998 -1063 973 -1037 973 -789 
L 973 402 
C 1158 134 1427 -38 1766 -38 
C 2406 -38 3053 523 3053 1388 
C 3053 2191 2496 2802 1837 2802 
C 1453 2802 1139 2592 960 2338 
L 960 2802 
L 198 2732 
L 198 2567 
C 576 2567 634 2528 634 2223 
L 634 -789 
C 634 -1031 608 -1063 198 -1063 
L 198 -1228 
C 352 -1216 634 -1216 800 -1216 
C 966 -1216 1254 -1216 1408 -1228 
L 1408 -1063 
z
M 973 2012 
C 973 2102 973 2235 1222 2471 
C 1254 2497 1472 2688 1792 2688 
C 2259 2688 2643 2108 2643 1382 
C 2643 656 2234 64 1728 64 
C 1498 64 1248 172 1056 472 
C 973 612 973 650 973 752 
L 973 2012 
z
" transform="scale(0.015625)"/>
       <path id="CMR17-72" d="M 960 1497 
C 960 2112 1222 2688 1702 2688 
C 1747 2688 1792 2682 1837 2662 
C 1837 2662 1696 2617 1696 2452 
C 1696 2298 1818 2234 1914 2234 
C 1990 2234 2131 2279 2131 2458 
C 2131 2663 1926 2790 1709 2790 
C 1222 2790 1011 2317 947 2093 
L 941 2093 
L 941 2790 
L 198 2720 
L 198 2554 
C 576 2554 634 2515 634 2208 
L 634 428 
C 634 184 608 153 198 153 
L 198 -13 
C 352 0 646 0 813 0 
C 998 0 1325 0 1498 -13 
L 1498 153 
C 1037 153 960 153 960 440 
L 960 1497 
z
" transform="scale(0.015625)"/>
       <path id="CMR17-61" d="M 2304 1653 
C 2304 2072 2304 2294 2035 2543 
C 1798 2752 1523 2816 1306 2816 
C 800 2816 435 2407 435 1971 
C 435 1728 627 1728 666 1728 
C 749 1728 896 1778 896 1954 
C 896 2112 774 2181 666 2181 
C 640 2181 608 2174 589 2168 
C 723 2592 1069 2714 1293 2714 
C 1613 2714 1965 2429 1965 1885 
L 1965 1600 
C 1587 1600 1133 1549 774 1357 
C 371 1133 256 813 256 570 
C 256 77 832 -64 1171 -64 
C 1523 -64 1850 139 1990 511 
C 2003 233 2182 -18 2464 -18 
C 2598 -18 2938 70 2938 567 
L 2938 920 
L 2822 920 
L 2822 562 
C 2822 178 2650 128 2566 128 
C 2304 128 2304 458 2304 738 
L 2304 1653 
z
M 1965 870 
C 1965 317 1568 38 1216 38 
C 896 38 646 275 646 570 
C 646 761 730 1100 1101 1305 
C 1408 1478 1760 1504 1965 1504 
L 1965 870 
z
" transform="scale(0.015625)"/>
       <path id="CMR17-74" d="M 966 2560 
L 1862 2560 
L 1862 2725 
L 966 2725 
L 966 3904 
L 851 3904 
C 838 3245 614 2668 70 2668 
L 70 2560 
L 627 2560 
L 627 771 
C 627 650 627 -64 1370 -64 
C 1747 -64 1965 306 1965 777 
L 1965 1140 
L 1850 1140 
L 1850 783 
C 1850 344 1677 51 1408 51 
C 1222 51 966 178 966 758 
L 966 2560 
z
" transform="scale(0.015625)"/>
       <path id="CMR17-75" d="M 1882 2693 
L 1882 2528 
C 2259 2528 2317 2489 2317 2186 
L 2317 1032 
C 2317 500 2029 38 1555 38 
C 1030 38 986 348 986 678 
L 986 2763 
L 211 2693 
L 211 2528 
C 467 2528 640 2528 646 2274 
L 646 1058 
C 646 633 646 361 813 183 
C 896 101 1056 -64 1517 -64 
C 2061 -64 2272 377 2323 506 
L 2330 506 
L 2330 -63 
L 3091 -63 
L 3091 128 
C 2714 128 2656 166 2656 473 
L 2656 2763 
L 1882 2693 
z
" transform="scale(0.015625)"/>
       <path id="CMR17-2c" d="M 1011 102 
C 1024 45 1024 25 1024 -77 
C 1024 -463 896 -817 627 -1139 
C 595 -1170 595 -1183 595 -1197 
C 595 -1222 621 -1248 646 -1248 
C 685 -1248 1126 -799 1126 -87 
C 1126 124 1101 522 800 522 
C 659 522 538 427 538 261 
C 538 96 659 0 800 0 
C 877 0 960 32 1011 102 
z
" transform="scale(0.015625)"/>
       <path id="CMMI12-54" d="M 2669 3910 
C 2707 4064 2720 4121 2816 4147 
C 2867 4160 3078 4160 3213 4160 
C 3853 4160 4154 4134 4154 3634 
C 4154 3537 4128 3295 4090 3057 
L 4083 2980 
C 4083 2954 4109 2916 4147 2916 
C 4211 2916 4211 2948 4230 3050 
L 4416 4184 
C 4429 4243 4429 4256 4429 4275 
C 4429 4345 4390 4345 4262 4345 
L 762 4345 
C 614 4345 608 4339 570 4224 
L 179 3070 
C 173 3056 154 2986 154 2980 
C 154 2948 179 2916 218 2916 
C 269 2916 282 2941 307 3024 
C 576 3801 710 4160 1562 4160 
L 1990 4160 
C 2144 4160 2208 4160 2208 4089 
C 2208 4069 2208 4057 2176 3941 
L 1318 499 
C 1254 249 1242 185 563 185 
C 403 185 358 185 358 64 
C 358 0 429 0 461 0 
C 621 0 787 0 947 0 
L 1946 0 
C 2106 0 2278 0 2438 0 
C 2509 0 2573 0 2573 121 
C 2573 185 2528 185 2362 185 
C 1786 185 1786 243 1786 339 
C 1786 346 1786 391 1811 494 
L 2669 3910 
z
" transform="scale(0.015625)"/>
       <path id="CMMI12-3d" d="M 2746 4562 
C 2746 4569 2784 4666 2784 4678 
C 2784 4755 2720 4800 2669 4800 
C 2637 4800 2579 4800 2528 4659 
L 384 -1363 
C 384 -1370 346 -1465 346 -1478 
C 346 -1555 410 -1600 461 -1600 
C 499 -1600 557 -1593 602 -1459 
L 2746 4562 
z
" transform="scale(0.015625)"/>
       <path id="CMMI12-46" d="M 1901 2055 
L 2515 2055 
C 3002 2055 3040 1946 3040 1761 
C 3040 1678 3027 1589 2995 1448 
C 2982 1423 2976 1391 2976 1378 
C 2976 1333 3002 1308 3046 1308 
C 3098 1308 3104 1333 3130 1435 
L 3501 2935 
C 3501 2961 3482 2999 3437 2999 
C 3379 2999 3373 2974 3347 2863 
C 3213 2376 3085 2240 2528 2240 
L 1946 2240 
L 2362 3926 
C 2419 4154 2432 4154 2694 4154 
L 3552 4154 
C 4352 4154 4467 3918 4467 3464 
C 4467 3426 4467 3285 4448 3119 
C 4442 3094 4429 3011 4429 2985 
C 4429 2934 4461 2915 4499 2915 
C 4544 2915 4570 2941 4582 3055 
L 4717 4174 
C 4717 4195 4730 4263 4730 4277 
C 4730 4352 4672 4352 4557 4352 
L 1523 4352 
C 1402 4352 1338 4352 1338 4229 
C 1338 4154 1382 4154 1491 4154 
C 1888 4154 1888 4113 1888 4050 
C 1888 4018 1882 3992 1862 3922 
L 998 473 
C 941 249 928 185 480 185 
C 358 185 294 185 294 70 
C 294 0 352 0 390 0 
C 512 0 640 0 762 0 
L 1594 0 
C 1734 0 1888 0 2029 0 
C 2086 0 2163 0 2163 115 
C 2163 185 2125 185 1984 185 
C 1478 185 1466 229 1466 324 
C 1466 356 1478 406 1491 449 
L 1901 2055 
z
" transform="scale(0.015625)"/>
      </defs>
      <use xlink:href="#CMR17-54" transform="scale(0.996264)"/>
      <use xlink:href="#CMR17-65" transform="translate(58.702625 0) scale(0.996264)"/>
      <use xlink:href="#CMR17-6d" transform="translate(99.188286 0) scale(0.996264)"/>
      <use xlink:href="#CMR17-70" transform="translate(176.107875 0) scale(0.996264)"/>
      <use xlink:href="#CMR17-65" transform="translate(229.605684 0) scale(0.996264)"/>
      <use xlink:href="#CMR17-72" transform="translate(270.091344 0) scale(0.996264)"/>
      <use xlink:href="#CMR17-61" transform="translate(305.372112 0) scale(0.996264)"/>
      <use xlink:href="#CMR17-74" transform="translate(351.062589 0) scale(0.996264)"/>
      <use xlink:href="#CMR17-75" transform="translate(386.343357 0) scale(0.996264)"/>
      <use xlink:href="#CMR17-72" transform="translate(437.238727 0) scale(0.996264)"/>
      <use xlink:href="#CMR17-65" transform="translate(472.519495 0) scale(0.996264)"/>
      <use xlink:href="#CMR17-2c" transform="translate(513.005155 0) scale(0.996264)"/>
      <use xlink:href="#CMMI12-54" transform="translate(567.95218 0) scale(0.996264)"/>
      <use xlink:href="#CMMI12-3d" transform="translate(635.966095 0) scale(0.996264)"/>
      <use xlink:href="#CMMI12-54" transform="translate(684.741013 0) scale(0.996264)"/>
      <use xlink:href="#CMMI12-46" transform="translate(741.916057 -14.943915) scale(0.697382)"/>
     </g>
    </g>
   </g>
   <g id="matplotlib.axis_2">
    <g id="ytick_1">
     <g id="line2d_19">
      <defs>
       <path id="m1710e88b1a" d="M 0 0 
L -3.5 0 
" style="stroke: #000000; stroke-width: 0.8"/>
      </defs>
      <g>
       <use xlink:href="#m1710e88b1a" x="95.271963" y="273.29557" style="stroke: #000000; stroke-width: 0.8"/>
      </g>
     </g>
     <g id="text_4">
      <!-- $\mathdefault{10^{-14}}$ -->
      <g transform="translate(45.490666 280.214068) scale(0.2 -0.2)">
       <defs>
        <path id="CMR17-34" d="M 2150 4122 
C 2150 4256 2144 4256 2029 4256 
L 128 1254 
L 128 1088 
L 1779 1088 
L 1779 457 
C 1779 224 1766 160 1318 160 
L 1197 160 
L 1197 0 
C 1402 0 1747 0 1965 0 
C 2182 0 2528 0 2733 0 
L 2733 160 
L 2611 160 
C 2163 160 2150 224 2150 457 
L 2150 1088 
L 2803 1088 
L 2803 1254 
L 2150 1254 
L 2150 4122 
z
M 1798 3703 
L 1798 1254 
L 256 1254 
L 1798 3703 
z
" transform="scale(0.015625)"/>
       </defs>
       <use xlink:href="#CMR17-31" transform="scale(0.996264)"/>
       <use xlink:href="#CMR17-30" transform="translate(45.690477 0) scale(0.996264)"/>
       <use xlink:href="#CMSY10-0" transform="translate(91.380954 36.153639) scale(0.697382)"/>
       <use xlink:href="#CMR17-31" transform="translate(145.621947 36.153639) scale(0.697382)"/>
       <use xlink:href="#CMR17-34" transform="translate(177.605129 36.153639) scale(0.697382)"/>
      </g>
     </g>
    </g>
    <g id="ytick_2">
     <g id="line2d_20">
      <g>
       <use xlink:href="#m1710e88b1a" x="95.271963" y="216.600092" style="stroke: #000000; stroke-width: 0.8"/>
      </g>
     </g>
     <g id="text_5">
      <!-- $\mathdefault{10^{-11}}$ -->
      <g transform="translate(45.490666 223.51859) scale(0.2 -0.2)">
       <use xlink:href="#CMR17-31" transform="scale(0.996264)"/>
       <use xlink:href="#CMR17-30" transform="translate(45.690477 0) scale(0.996264)"/>
       <use xlink:href="#CMSY10-0" transform="translate(91.380954 36.153639) scale(0.697382)"/>
       <use xlink:href="#CMR17-31" transform="translate(145.621947 36.153639) scale(0.697382)"/>
       <use xlink:href="#CMR17-31" transform="translate(177.605129 36.153639) scale(0.697382)"/>
      </g>
     </g>
    </g>
    <g id="ytick_3">
     <g id="line2d_21">
      <g>
       <use xlink:href="#m1710e88b1a" x="95.271963" y="159.904614" style="stroke: #000000; stroke-width: 0.8"/>
      </g>
     </g>
     <g id="text_6">
      <!-- $\mathdefault{10^{-8}}$ -->
      <g transform="translate(52.319124 166.823113) scale(0.2 -0.2)">
       <defs>
        <path id="CMR17-38" d="M 1741 2264 
C 2144 2467 2554 2773 2554 3263 
C 2554 3841 1990 4179 1472 4179 
C 890 4179 378 3759 378 3180 
C 378 3021 416 2747 666 2505 
C 730 2442 998 2251 1171 2130 
C 883 1983 211 1634 211 934 
C 211 279 838 -128 1459 -128 
C 2144 -128 2720 362 2720 1010 
C 2720 1590 2330 1857 2074 2029 
L 1741 2264 
z
M 902 2822 
C 851 2854 595 3051 595 3351 
C 595 3739 998 4032 1459 4032 
C 1965 4032 2336 3676 2336 3262 
C 2336 2669 1670 2331 1638 2331 
C 1632 2331 1626 2331 1574 2370 
L 902 2822 
z
M 2080 1519 
C 2176 1449 2483 1240 2483 851 
C 2483 381 2010 25 1472 25 
C 890 25 448 438 448 940 
C 448 1443 838 1862 1280 2060 
L 2080 1519 
z
" transform="scale(0.015625)"/>
       </defs>
       <use xlink:href="#CMR17-31" transform="scale(0.996264)"/>
       <use xlink:href="#CMR17-30" transform="translate(45.690477 0) scale(0.996264)"/>
       <use xlink:href="#CMSY10-0" transform="translate(91.380954 36.153639) scale(0.697382)"/>
       <use xlink:href="#CMR17-38" transform="translate(145.621947 36.153639) scale(0.697382)"/>
      </g>
     </g>
    </g>
    <g id="ytick_4">
     <g id="line2d_22">
      <g>
       <use xlink:href="#m1710e88b1a" x="95.271963" y="103.209137" style="stroke: #000000; stroke-width: 0.8"/>
      </g>
     </g>
     <g id="text_7">
      <!-- $\mathdefault{10^{-5}}$ -->
      <g transform="translate(52.319124 110.127635) scale(0.2 -0.2)">
       <defs>
        <path id="CMR17-35" d="M 730 3692 
C 794 3666 1056 3584 1325 3584 
C 1920 3584 2246 3911 2432 4100 
C 2432 4157 2432 4192 2394 4192 
C 2387 4192 2374 4192 2323 4163 
C 2099 4058 1837 3973 1517 3973 
C 1325 3973 1037 3999 723 4139 
C 653 4171 640 4171 634 4171 
C 602 4171 595 4164 595 4037 
L 595 2203 
C 595 2089 595 2057 659 2057 
C 691 2057 704 2070 736 2114 
C 941 2401 1222 2522 1542 2522 
C 1766 2522 2246 2382 2246 1289 
C 2246 1085 2246 715 2054 421 
C 1894 159 1645 25 1370 25 
C 947 25 518 320 403 814 
C 429 807 480 795 506 795 
C 589 795 749 840 749 1038 
C 749 1210 627 1280 506 1280 
C 358 1280 262 1190 262 1011 
C 262 454 704 -128 1382 -128 
C 2042 -128 2669 440 2669 1264 
C 2669 2030 2170 2624 1549 2624 
C 1222 2624 947 2503 730 2274 
L 730 3692 
z
" transform="scale(0.015625)"/>
       </defs>
       <use xlink:href="#CMR17-31" transform="scale(0.996264)"/>
       <use xlink:href="#CMR17-30" transform="translate(45.690477 0) scale(0.996264)"/>
       <use xlink:href="#CMSY10-0" transform="translate(91.380954 36.153639) scale(0.697382)"/>
       <use xlink:href="#CMR17-35" transform="translate(145.621947 36.153639) scale(0.697382)"/>
      </g>
     </g>
    </g>
    <g id="ytick_5">
     <g id="line2d_23">
      <g>
       <use xlink:href="#m1710e88b1a" x="95.271963" y="46.513659" style="stroke: #000000; stroke-width: 0.8"/>
      </g>
     </g>
     <g id="text_8">
      <!-- $\mathdefault{10^{-2}}$ -->
      <g transform="translate(52.319124 53.432158) scale(0.2 -0.2)">
       <defs>
        <path id="CMR17-32" d="M 2669 989 
L 2554 989 
C 2490 536 2438 459 2413 420 
C 2381 369 1920 369 1830 369 
L 602 369 
C 832 619 1280 1072 1824 1597 
C 2214 1967 2669 2402 2669 3035 
C 2669 3790 2067 4224 1395 4224 
C 691 4224 262 3604 262 3030 
C 262 2780 448 2748 525 2748 
C 589 2748 781 2787 781 3010 
C 781 3207 614 3264 525 3264 
C 486 3264 448 3258 422 3245 
C 544 3790 915 4058 1306 4058 
C 1862 4058 2227 3617 2227 3035 
C 2227 2479 1901 2000 1536 1584 
L 262 146 
L 262 0 
L 2515 0 
L 2669 989 
z
" transform="scale(0.015625)"/>
       </defs>
       <use xlink:href="#CMR17-31" transform="scale(0.996264)"/>
       <use xlink:href="#CMR17-30" transform="translate(45.690477 0) scale(0.996264)"/>
       <use xlink:href="#CMSY10-0" transform="translate(91.380954 36.153639) scale(0.697382)"/>
       <use xlink:href="#CMR17-32" transform="translate(145.621947 36.153639) scale(0.697382)"/>
      </g>
     </g>
    </g>
    <g id="text_9">
     <!-- Decay rate (eigenvalue), $\gamma_m$ -->
     <g transform="translate(36.526022 280.113811) rotate(-90) scale(0.2 -0.2)">
      <defs>
       <path id="CMR17-44" d="M 333 4352 
L 333 4186 
C 774 4186 845 4186 845 3900 
L 845 452 
C 845 166 774 166 333 166 
L 333 0 
L 2368 0 
C 3398 0 4224 943 4224 2141 
C 4224 3346 3411 4352 2368 4352 
L 333 4352 
z
M 1523 166 
C 1267 166 1254 197 1254 414 
L 1254 3938 
C 1254 4155 1267 4186 1523 4186 
L 2240 4186 
C 2771 4186 3750 3874 3750 2141 
C 3750 1242 3488 879 3366 707 
C 3213 510 2848 166 2240 166 
L 1523 166 
z
" transform="scale(0.015625)"/>
       <path id="CMR17-63" d="M 2234 2240 
C 2112 2240 1933 2240 1933 2017 
C 1933 1838 2080 1787 2163 1787 
C 2208 1787 2394 1807 2394 2024 
C 2394 2467 1958 2803 1466 2803 
C 787 2803 211 2178 211 1363 
C 211 516 813 -64 1466 -64 
C 2259 -64 2458 677 2458 748 
C 2458 774 2451 793 2406 793 
C 2362 793 2355 787 2330 703 
C 2163 180 1798 51 1523 51 
C 1114 51 621 427 621 1369 
C 621 2338 1094 2688 1472 2688 
C 1722 2688 2093 2573 2234 2240 
z
" transform="scale(0.015625)"/>
       <path id="CMR17-79" d="M 2496 2197 
C 2656 2586 2944 2586 3034 2586 
L 3034 2752 
C 2912 2752 2752 2752 2630 2752 
C 2496 2752 2285 2752 2157 2758 
L 2157 2592 
C 2400 2573 2406 2394 2406 2343 
C 2406 2280 2394 2248 2362 2171 
L 1664 449 
L 902 2306 
C 870 2382 870 2426 870 2433 
C 870 2573 1018 2586 1171 2586 
L 1171 2758 
C 1018 2752 742 2752 582 2752 
C 410 2752 205 2752 64 2758 
L 64 2586 
C 410 2586 448 2554 531 2350 
L 1485 15 
C 1197 -738 1030 -1178 627 -1178 
C 557 -1178 397 -1159 282 -1044 
C 429 -1031 493 -942 493 -833 
C 493 -725 416 -629 288 -629 
C 147 -629 77 -725 77 -840 
C 77 -1095 339 -1280 627 -1280 
C 998 -1280 1229 -922 1357 -604 
L 2496 2197 
z
" transform="scale(0.015625)"/>
       <path id="CMR17-28" d="M 1958 -1561 
C 1958 -1555 1958 -1542 1939 -1523 
C 1645 -1224 858 -407 858 1581 
C 858 3569 1632 4379 1946 4697 
C 1946 4704 1958 4717 1958 4736 
C 1958 4755 1939 4768 1914 4768 
C 1843 4768 1299 4296 986 3594 
C 666 2887 576 2199 576 1588 
C 576 1128 621 351 1005 -471 
C 1312 -1135 1837 -1600 1914 -1600 
C 1946 -1600 1958 -1587 1958 -1561 
z
" transform="scale(0.015625)"/>
       <path id="CMR17-69" d="M 992 3909 
C 992 4049 877 4170 730 4170 
C 589 4170 467 4056 467 3909 
C 467 3769 582 3648 730 3648 
C 870 3648 992 3763 992 3909 
z
M 243 2706 
L 243 2541 
C 602 2541 653 2502 653 2197 
L 653 427 
C 653 184 627 153 218 153 
L 218 -13 
C 371 0 646 0 806 0 
C 960 0 1222 0 1370 -13 
L 1370 153 
C 992 153 979 191 979 420 
L 979 2776 
L 243 2706 
z
" transform="scale(0.015625)"/>
       <path id="CMR17-67" d="M 710 1164 
C 832 1068 1043 960 1299 960 
C 1805 960 2240 1357 2240 1888 
C 2240 2054 2189 2310 1997 2509 
C 2176 2692 2438 2752 2586 2752 
C 2611 2752 2650 2752 2682 2734 
C 2656 2728 2598 2703 2598 2605 
C 2598 2527 2656 2471 2739 2471 
C 2835 2471 2886 2533 2886 2614 
C 2886 2731 2790 2854 2586 2854 
C 2330 2854 2106 2738 1926 2580 
C 1734 2753 1504 2816 1299 2816 
C 794 2816 358 2419 358 1888 
C 358 1522 570 1292 634 1228 
C 442 1004 442 743 442 711 
C 442 545 506 302 723 168 
C 390 85 128 -169 128 -486 
C 128 -943 736 -1280 1466 -1280 
C 2170 -1280 2803 -956 2803 -479 
C 2803 384 1856 384 1363 384 
C 1216 384 954 384 922 391 
C 723 423 589 602 589 826 
C 589 883 589 1024 710 1164 
z
M 1299 1068 
C 736 1068 736 1760 736 1889 
C 736 2016 736 2708 1299 2708 
C 1862 2708 1862 2016 1862 1889 
C 1862 1760 1862 1068 1299 1068 
z
M 1466 -1171 
C 826 -1171 384 -835 384 -486 
C 384 -289 493 -105 634 -4 
C 794 104 858 104 1293 104 
C 1818 104 2547 104 2547 -486 
C 2547 -835 2106 -1171 1466 -1171 
z
" transform="scale(0.015625)"/>
       <path id="CMR17-6e" d="M 2656 1933 
C 2656 2259 2592 2790 1837 2790 
C 1331 2790 1069 2400 973 2144 
L 966 2144 
L 966 2790 
L 211 2720 
L 211 2554 
C 589 2554 646 2515 646 2208 
L 646 428 
C 646 184 621 153 211 153 
L 211 -13 
C 365 0 646 0 813 0 
C 979 0 1267 0 1421 -13 
L 1421 153 
C 1011 153 986 178 986 428 
L 986 1658 
C 986 2247 1344 2688 1792 2688 
C 2266 2688 2317 2266 2317 1958 
L 2317 428 
C 2317 184 2291 153 1882 153 
L 1882 -13 
C 2035 0 2317 0 2483 0 
C 2650 0 2938 0 3091 -13 
L 3091 153 
C 2682 153 2656 178 2656 428 
L 2656 1933 
z
" transform="scale(0.015625)"/>
       <path id="CMR17-76" d="M 2502 2163 
C 2560 2304 2662 2560 3034 2560 
L 3034 2726 
C 2912 2726 2752 2726 2630 2726 
C 2496 2726 2285 2726 2157 2732 
L 2157 2566 
C 2317 2553 2406 2477 2406 2311 
C 2406 2253 2406 2240 2368 2151 
L 1664 377 
L 902 2286 
C 864 2369 864 2381 864 2407 
C 864 2560 1075 2560 1171 2560 
L 1171 2732 
C 1018 2726 736 2726 576 2726 
C 403 2726 205 2726 64 2732 
L 64 2560 
C 307 2560 442 2560 518 2362 
L 1446 44 
C 1485 -51 1491 -64 1549 -64 
C 1606 -64 1613 -51 1651 44 
L 2502 2163 
z
" transform="scale(0.015625)"/>
       <path id="CMR17-6c" d="M 979 4396 
L 218 4326 
L 218 4160 
C 595 4160 653 4122 653 3817 
L 653 426 
C 653 184 627 153 218 153 
L 218 -13 
C 371 0 653 0 813 0 
C 979 0 1261 0 1414 -13 
L 1414 153 
C 1005 153 979 178 979 426 
L 979 4396 
z
" transform="scale(0.015625)"/>
       <path id="CMR17-29" d="M 1683 1581 
C 1683 2040 1638 2817 1254 3639 
C 947 4303 422 4768 346 4768 
C 326 4768 301 4761 301 4729 
C 301 4717 307 4710 314 4697 
C 621 4378 1402 3568 1402 1584 
C 1402 -407 627 -1217 314 -1537 
C 307 -1549 301 -1556 301 -1568 
C 301 -1600 326 -1600 346 -1600 
C 416 -1600 960 -1128 1274 -426 
C 1594 281 1683 969 1683 1581 
z
" transform="scale(0.015625)"/>
       <path id="CMMI12-d" d="M 2419 760 
C 2406 1071 2394 1561 2150 2133 
C 2022 2452 1805 2788 1338 2788 
C 550 2788 122 1790 122 1625 
C 122 1567 166 1567 186 1567 
C 243 1567 243 1580 275 1663 
C 410 2057 819 2368 1261 2368 
C 2150 2368 2278 1383 2278 754 
C 2278 352 2234 220 2195 92 
C 2074 -302 1862 -1090 1862 -1268 
C 1862 -1319 1882 -1376 1933 -1376 
C 2029 -1376 2086 -1166 2157 -912 
C 2310 -353 2349 -73 2381 181 
C 2400 334 2765 1384 3270 2382 
C 3315 2483 3405 2655 3405 2674 
C 3405 2680 3398 2725 3341 2725 
C 3328 2725 3296 2725 3283 2699 
C 3270 2687 3046 2254 2854 1822 
C 2758 1606 2630 1320 2419 760 
z
" transform="scale(0.015625)"/>
       <path id="CMMI12-6d" d="M 1318 1871 
C 1331 1910 1491 2229 1728 2433 
C 1894 2586 2112 2689 2362 2689 
C 2618 2689 2707 2497 2707 2242 
C 2707 2203 2707 2076 2630 1775 
L 2470 1118 
C 2419 926 2298 453 2285 383 
C 2259 287 2221 121 2221 96 
C 2221 6 2291 -64 2387 -64 
C 2579 -64 2611 83 2669 313 
L 3053 1839 
C 3066 1890 3398 2689 4102 2689 
C 4358 2689 4448 2497 4448 2242 
C 4448 1884 4198 1188 4058 805 
C 4000 651 3968 568 3968 453 
C 3968 166 4166 -64 4474 -64 
C 5069 -64 5293 875 5293 913 
C 5293 945 5267 971 5229 971 
C 5171 971 5165 952 5133 843 
C 4986 332 4749 64 4493 64 
C 4429 64 4326 64 4326 269 
C 4326 436 4403 640 4429 710 
C 4544 1018 4832 1773 4832 2145 
C 4832 2528 4608 2816 4122 2816 
C 3693 2816 3347 2574 3091 2197 
C 3072 2542 2861 2816 2381 2816 
C 1811 2816 1510 2415 1395 2255 
C 1376 2618 1114 2816 832 2816 
C 646 2816 499 2727 378 2484 
C 262 2254 173 1865 173 1839 
C 173 1814 198 1782 243 1782 
C 294 1782 301 1788 339 1935 
C 435 2312 557 2689 813 2689 
C 960 2689 1011 2586 1011 2395 
C 1011 2254 947 2005 902 1807 
L 723 1118 
C 698 996 627 709 595 594 
C 550 428 480 128 480 96 
C 480 6 550 -64 646 -64 
C 723 -64 813 -26 864 70 
C 877 102 934 326 966 453 
L 1107 1028 
L 1318 1871 
z
" transform="scale(0.015625)"/>
      </defs>
      <use xlink:href="#CMR17-44" transform="scale(0.996264)"/>
      <use xlink:href="#CMR17-65" transform="translate(70.393556 0) scale(0.996264)"/>
      <use xlink:href="#CMR17-63" transform="translate(110.879216 0) scale(0.996264)"/>
      <use xlink:href="#CMR17-61" transform="translate(151.364877 0) scale(0.996264)"/>
      <use xlink:href="#CMR17-79" transform="translate(194.4529 0) scale(0.996264)"/>
      <use xlink:href="#CMR17-72" transform="translate(272.821782 0) scale(0.996264)"/>
      <use xlink:href="#CMR17-61" transform="translate(308.10255 0) scale(0.996264)"/>
      <use xlink:href="#CMR17-74" transform="translate(353.793027 0) scale(0.996264)"/>
      <use xlink:href="#CMR17-65" transform="translate(389.073795 0) scale(0.996264)"/>
      <use xlink:href="#CMR17-28" transform="translate(459.635422 0) scale(0.996264)"/>
      <use xlink:href="#CMR17-65" transform="translate(494.91619 0) scale(0.996264)"/>
      <use xlink:href="#CMR17-69" transform="translate(535.40185 0) scale(0.996264)"/>
      <use xlink:href="#CMR17-67" transform="translate(560.272908 0) scale(0.996264)"/>
      <use xlink:href="#CMR17-65" transform="translate(605.963386 0) scale(0.996264)"/>
      <use xlink:href="#CMR17-6e" transform="translate(646.449046 0) scale(0.996264)"/>
      <use xlink:href="#CMR17-76" transform="translate(694.741962 0) scale(0.996264)"/>
      <use xlink:href="#CMR17-61" transform="translate(737.830061 0) scale(0.996264)"/>
      <use xlink:href="#CMR17-6c" transform="translate(783.520538 0) scale(0.996264)"/>
      <use xlink:href="#CMR17-75" transform="translate(808.391597 0) scale(0.996264)"/>
      <use xlink:href="#CMR17-65" transform="translate(859.286966 0) scale(0.996264)"/>
      <use xlink:href="#CMR17-29" transform="translate(899.772627 0) scale(0.996264)"/>
      <use xlink:href="#CMR17-2c" transform="translate(935.053395 0) scale(0.996264)"/>
      <use xlink:href="#CMMI12-d" transform="translate(990.00042 0) scale(0.996264)"/>
      <use xlink:href="#CMMI12-6d" transform="translate(1040.599552 -14.943915) scale(0.697382)"/>
     </g>
    </g>
   </g>
   <g id="line2d_24">
    <path d="M 95.271963 59.637139 
L 126.987863 59.738722 
L 156.907319 59.157427 
L 188.623219 60.42481 
L 218.542675 60.590098 
L 250.258576 57.342955 
L 280.178031 51.742055 
L 311.893932 48.653111 
L 341.813387 51.259962 
L 373.529288 39.435295 
L 403.448743 42.793244 
L 435.164644 40.610016 
L 465.084099 31.672048 
L 496.8 37.239606 
" clip-path="url(#pe937923436)" style="fill: none; stroke: #000000; stroke-opacity: 0.4; stroke-width: 1.8; stroke-linecap: square"/>
   </g>
   <g id="line2d_25">
    <path d="M 280.178031 318.562089 
L 465.084099 288.722894 
" clip-path="url(#pe937923436)" style="fill: none; stroke: #34495e; stroke-opacity: 0.4; stroke-width: 1.8; stroke-linecap: square"/>
   </g>
   <g id="line2d_26">
    <path d="M 95.271963 71.881184 
L 126.987863 69.241711 
L 156.907319 66.483852 
L 188.623219 64.985651 
L 218.542675 63.239352 
L 250.258576 58.931311 
L 280.178031 53.820092 
L 311.893932 49.2296 
L 341.813387 45.214731 
L 373.529288 41.214669 
L 403.448743 37.250135 
L 435.164644 32.842911 
L 465.084099 28.420924 
L 496.8 23.470643 
" clip-path="url(#pe937923436)" style="fill: none; stroke: #ff6600; stroke-width: 1.3; stroke-linecap: square"/>
   </g>
   <g id="line2d_27">
    <path d="M 95.271963 80.367243 
L 126.987863 76.712293 
L 156.907319 73.036871 
L 188.623219 71.960972 
L 218.542675 70.601501 
L 250.258576 64.137779 
L 280.178031 56.521681 
L 311.893932 50.358842 
L 341.813387 45.437688 
L 373.529288 40.771545 
L 403.448743 36.361056 
L 435.164644 31.621893 
L 465.084099 26.98063 
L 496.8 21.893711 
" clip-path="url(#pe937923436)" style="fill: none; stroke: #3380ff; stroke-width: 2; stroke-linecap: square"/>
   </g>
   <g id="line2d_28">
    <path d="M 95.271963 70.633868 
L 126.987863 68.046841 
L 156.907319 65.385205 
L 188.623219 64.020847 
L 218.542675 62.459999 
L 250.258576 58.531559 
L 280.178031 53.510855 
L 311.893932 48.84916 
L 341.813387 44.487053 
L 373.529288 40.000594 
L 403.448743 35.647752 
L 435.164644 30.944738 
L 465.084099 26.408976 
L 496.8 21.704219 
" clip-path="url(#pe937923436)" style="fill: none; stroke: #ff5500; stroke-width: 1.3; stroke-linecap: square"/>
   </g>
   <g id="line2d_29">
    <path d="M 95.271963 74.378864 
L 126.987863 71.244863 
L 156.907319 68.009613 
L 188.623219 66.38578 
L 218.542675 64.496837 
L 250.258576 59.429334 
L 280.178031 53.580403 
L 311.893932 48.572239 
L 341.813387 44.100203 
L 373.529288 39.59067 
L 403.448743 35.269806 
L 435.164644 30.643155 
L 465.084099 26.286641 
L 496.8 21.604232 
" clip-path="url(#pe937923436)" style="fill: none; stroke: #2d76f2; stroke-width: 2; stroke-linecap: square"/>
   </g>
   <g id="line2d_30">
    <path d="M 95.271963 70.249629 
L 126.987863 67.756321 
L 156.907319 65.192673 
L 188.623219 63.86521 
L 218.542675 62.259429 
L 250.258576 58.123775 
L 280.178031 52.952329 
L 311.893932 48.189996 
L 341.813387 43.79623 
L 373.529288 39.332185 
L 403.448743 35.075947 
L 435.164644 30.538528 
L 465.084099 26.253521 
L 496.8 21.60802 
" clip-path="url(#pe937923436)" style="fill: none; stroke: #ff4400; stroke-width: 1.3; stroke-linecap: square"/>
   </g>
   <g id="line2d_31">
    <path d="M 95.271963 72.502093 
L 126.987863 69.557283 
L 156.907319 66.525993 
L 188.623219 64.859578 
L 218.542675 62.918492 
L 250.258576 58.253559 
L 280.178031 52.855361 
L 311.893932 48.022483 
L 341.813387 43.619741 
L 373.529288 39.169296 
L 403.448743 34.957131 
L 435.164644 30.471215 
L 465.084099 26.228117 
L 496.8 21.6 
" clip-path="url(#pe937923436)" style="fill: none; stroke: #266ce6; stroke-width: 2; stroke-linecap: square"/>
   </g>
   <g id="line2d_32">
    <path d="M 95.271963 70.160561 
L 126.987863 67.687441 
L 156.907319 65.107058 
L 188.623219 63.684413 
L 218.542675 61.936491 
L 250.258576 57.732457 
L 280.178031 52.637726 
L 311.893932 47.87333 
L 341.813387 43.49601 
L 373.529288 39.075532 
L 403.448743 34.899387 
L 435.164644 30.462926 
L 465.084099 26.221013 
L 496.8 21.626175 
" clip-path="url(#pe937923436)" style="fill: none; stroke: #fe3300; stroke-width: 1.3; stroke-linecap: square"/>
   </g>
   <g id="line2d_33">
    <path d="M 95.271963 71.643109 
L 126.987863 68.808353 
L 156.907319 65.894768 
L 188.623219 64.211737 
L 218.542675 62.20163 
L 250.258576 57.694679 
L 280.178031 52.551805 
L 311.893932 47.778389 
L 341.813387 43.41126 
L 373.529288 39.008452 
L 403.448743 34.85566 
L 435.164644 30.435393 
L 465.084099 26.214984 
L 496.8 21.600349 
" clip-path="url(#pe937923436)" style="fill: none; stroke: #2063d9; stroke-width: 2; stroke-linecap: square"/>
   </g>
   <g id="line2d_34">
    <path d="M 95.271963 70.096018 
L 126.987863 67.606916 
L 156.907319 65.024867 
L 188.623219 63.5512 
L 218.542675 61.73731 
L 250.258576 57.484234 
L 280.178031 52.446695 
L 311.893932 47.703152 
L 341.813387 43.351421 
L 373.529288 38.96812 
L 403.448743 34.835344 
L 435.164644 30.442012 
L 465.084099 26.215163 
L 496.8 21.624866 
" clip-path="url(#pe937923436)" style="fill: none; stroke: #ee2600; stroke-width: 1.3; stroke-linecap: square"/>
   </g>
   <g id="line2d_35">
    <path d="M 95.271963 71.163278 
L 126.987863 68.403952 
L 156.907319 65.55921 
L 188.623219 63.855225 
L 218.542675 61.823892 
L 250.258576 57.426086 
L 280.178031 52.384105 
L 311.893932 47.648237 
L 341.813387 43.307269 
L 373.529288 38.939304 
L 403.448743 34.816075 
L 435.164644 30.42512 
L 465.084099 26.216287 
L 496.8 21.630653 
" clip-path="url(#pe937923436)" style="fill: none; stroke: #1a59cc; stroke-width: 2; stroke-linecap: square"/>
   </g>
   <g id="line2d_36">
    <path d="M 95.271963 70.032219 
L 126.987863 67.564664 
L 156.907319 65.01105 
L 188.623219 63.495235 
L 218.542675 61.60667 
L 250.258576 57.314037 
L 280.178031 52.325431 
L 311.893932 47.605217 
L 341.813387 43.275038 
L 373.529288 38.926621 
L 403.448743 34.807602 
L 435.164644 30.428958 
L 465.084099 26.549038 
L 496.8 22.064215 
" clip-path="url(#pe937923436)" style="fill: none; stroke: #dd1a00; stroke-width: 1.3; stroke-linecap: square"/>
   </g>
   <g id="line2d_37">
    <path d="M 95.271963 70.86909 
L 126.987863 68.160498 
L 156.907319 65.363643 
L 188.623219 63.654464 
L 218.542675 61.621962 
L 250.258576 57.262251 
L 280.178031 52.283447 
L 311.893932 47.572292 
L 341.813387 43.251145 
L 373.529288 38.907328 
L 403.448743 34.799307 
L 435.164644 30.421717 
L 465.084099 26.216122 
L 496.8 21.631877 
" clip-path="url(#pe937923436)" style="fill: none; stroke: #1350bf; stroke-width: 2; stroke-linecap: square"/>
   </g>
   <g id="line2d_38">
    <path d="M 95.271963 70.012975 
L 126.987863 67.575851 
L 156.907319 65.023802 
L 188.623219 63.45578 
L 218.542675 61.507971 
L 250.258576 57.192264 
L 280.178031 52.246894 
L 311.893932 47.545722 
L 341.813387 43.235232 
L 373.529288 38.911216 
L 403.448743 34.798272 
L 435.164644 30.454964 
L 465.084099 26.232948 
L 496.8 21.611062 
" clip-path="url(#pe937923436)" style="fill: none; stroke: #cc0d00; stroke-width: 1.3; stroke-linecap: square"/>
   </g>
   <g id="line2d_39">
    <path d="M 95.271963 70.675719 
L 126.987863 68.00768 
L 156.907319 65.247523 
L 188.623219 63.535235 
L 218.542675 61.499011 
L 250.258576 57.149022 
L 280.178031 52.219361 
L 311.893932 47.525728 
L 341.813387 43.21993 
L 373.529288 38.892041 
L 403.448743 34.791933 
L 435.164644 30.42103 
L 465.084099 26.212916 
L 496.8 21.608289 
" clip-path="url(#pe937923436)" style="fill: none; stroke: #0d46b2; stroke-width: 2; stroke-linecap: square"/>
   </g>
   <g id="line2d_40">
    <path d="M 95.271963 70.02783 
L 126.987863 67.599671 
L 156.907319 65.032347 
L 188.623219 63.421224 
L 218.542675 61.430132 
L 250.258576 57.104495 
L 280.178031 52.194545 
L 311.893932 47.509182 
L 341.813387 43.21054 
L 373.529288 38.888679 
L 403.448743 34.792461 
L 435.164644 30.431737 
L 465.084099 26.219715 
L 496.8 21.721434 
" clip-path="url(#pe937923436)" style="fill: none; stroke: #b30908; stroke-width: 1.3; stroke-linecap: square"/>
   </g>
   <g id="line2d_41">
    <path d="M 95.271963 70.053761 
L 126.987863 67.625543 
L 156.907319 65.036043 
L 188.623219 63.386749 
L 218.542675 61.367234 
L 250.258576 57.037394 
L 280.178031 52.157814 
L 311.893932 47.485983 
L 341.813387 43.197069 
L 373.529288 38.888998 
L 403.448743 34.790629 
L 435.164644 30.432258 
L 465.084099 26.226849 
L 496.8 21.621911 
" clip-path="url(#pe937923436)" style="fill: none; stroke: #990411; stroke-width: 1.3; stroke-linecap: square"/>
   </g>
   <g id="line2d_42">
    <path d="M 95.271963 70.462335 
L 126.987863 67.846092 
L 156.907319 65.116699 
L 188.623219 63.396153 
L 218.542675 61.347142 
L 250.258576 57.010903 
L 280.178031 52.144214 
L 311.893932 47.478144 
L 341.813387 43.192919 
L 373.529288 38.88115 
L 403.448743 34.787119 
L 435.164644 30.423168 
L 465.084099 26.226948 
L 496.8 21.619417 
" clip-path="url(#pe937923436)" style="fill: none; stroke: #003399; stroke-width: 2; stroke-linecap: square"/>
   </g>
   <g id="line2d_43">
    <path d="M 95.271963 70.082248 
L 126.987863 67.644858 
L 156.907319 65.026728 
L 188.623219 63.352595 
L 218.542675 61.315431 
L 250.258576 56.985894 
L 280.178031 52.13289 
L 311.893932 47.471974 
L 341.813387 43.19078 
L 373.529288 38.891307 
L 403.448743 34.791593 
L 435.164644 30.459141 
L 465.084099 26.291499 
L 496.8 21.711447 
" clip-path="url(#pe937923436)" style="fill: none; stroke: #800019; stroke-width: 1.3; stroke-linecap: square"/>
   </g>
   <g id="line2d_44">
    <path d="M 95.271963 88.803547 
L 126.987863 82.94872 
L 156.907319 77.425521 
L 188.623219 71.570694 
L 218.542675 66.047495 
L 250.258576 60.192667 
L 280.178031 54.669468 
L 311.893932 48.814641 
L 341.813387 43.291442 
L 373.529288 37.436615 
L 403.448743 31.913416 
L 435.164644 26.058589 
L 465.084099 20.53539 
L 496.8 14.680563 
" clip-path="url(#pe937923436)" style="fill: none; stroke-dasharray: 3.7,1.6; stroke-dashoffset: 0; stroke: #0000ff; stroke-opacity: 0.5"/>
   </g>
   <g id="line2d_45">
    <path d="M 95.271963 125.865039 
L 126.987863 114.155385 
L 156.907319 103.108987 
L 188.623219 91.399333 
L 218.542675 80.352934 
L 250.258576 68.64328 
L 280.178031 57.596882 
L 311.893932 45.887228 
L 341.813387 34.840829 
L 373.529288 23.131175 
L 403.448743 12.084777 
L 435.164644 0.375123 
L 438.889199 -1 
" clip-path="url(#pe937923436)" style="fill: none; stroke-dasharray: 6.4,1.6,1,1.6; stroke-dashoffset: 0; stroke: #ff0000; stroke-opacity: 0.5"/>
   </g>
   <g id="patch_3">
    <path d="M 95.271963 318.562089 
L 95.271963 21.6 
" style="fill: none; stroke: #000000; stroke-width: 0.8; stroke-linejoin: miter; stroke-linecap: square"/>
   </g>
   <g id="patch_4">
    <path d="M 496.8 318.562089 
L 496.8 21.6 
" style="fill: none; stroke: #000000; stroke-width: 0.8; stroke-linejoin: miter; stroke-linecap: square"/>
   </g>
   <g id="patch_5">
    <path d="M 95.271963 318.562089 
L 496.8 318.562089 
" style="fill: none; stroke: #000000; stroke-width: 0.8; stroke-linejoin: miter; stroke-linecap: square"/>
   </g>
   <g id="patch_6">
    <path d="M 95.271963 21.6 
L 496.8 21.6 
" style="fill: none; stroke: #000000; stroke-width: 0.8; stroke-linejoin: miter; stroke-linecap: square"/>
   </g>
   <g id="legend_1">
    <g id="line2d_46">
     <path d="M 109.671963 273.163137 
L 125.671963 273.163137 
L 141.671963 273.163137 
" style="fill: none; stroke-dasharray: 3.7,1.6; stroke-dashoffset: 0; stroke: #0000ff; stroke-opacity: 0.5"/>
    </g>
    <g id="text_10">
     <!-- $\propto T^2$ -->
     <g transform="translate(154.471963 278.763137) scale(0.16 -0.16)">
      <defs>
       <path id="CMSY10-2f" d="M 4621 205 
C 4595 205 4493 192 4474 192 
C 3968 192 3629 691 3411 1024 
C 3347 1133 3174 1395 3104 1504 
C 3258 1850 3686 2643 4448 2643 
C 4493 2643 4550 2643 4621 2624 
C 4621 2790 4614 2797 4602 2810 
C 4557 2822 4461 2829 4403 2829 
C 3590 2829 3117 2048 2963 1728 
C 2707 2118 2618 2259 2381 2458 
C 1990 2797 1638 2829 1478 2829 
C 768 2829 358 2112 358 1376 
C 358 659 755 -70 1459 -70 
C 2272 -70 2746 710 2899 1030 
C 3155 640 3245 499 3482 301 
C 3872 -38 4224 -70 4384 -70 
C 4461 -70 4563 -58 4621 -44 
L 4621 205 
z
M 2758 1254 
C 2605 909 2176 115 1414 115 
C 794 115 499 794 499 1376 
C 499 2010 858 2566 1389 2566 
C 1894 2566 2234 2067 2451 1734 
C 2515 1626 2688 1363 2758 1254 
z
" transform="scale(0.015625)"/>
      </defs>
      <use xlink:href="#CMSY10-2f" transform="scale(0.996264)"/>
      <use xlink:href="#CMMI12-54" transform="translate(105.161476 0) scale(0.996264)"/>
      <use xlink:href="#CMR17-32" transform="translate(175.885109 36.153639) scale(0.697382)"/>
     </g>
    </g>
    <g id="line2d_47">
     <path d="M 109.671963 295.462613 
L 125.671963 295.462613 
L 141.671963 295.462613 
" style="fill: none; stroke-dasharray: 6.4,1.6,1,1.6; stroke-dashoffset: 0; stroke: #ff0000; stroke-opacity: 0.5"/>
    </g>
    <g id="text_11">
     <!-- $\propto T^4$ -->
     <g transform="translate(154.471963 301.062613) scale(0.16 -0.16)">
      <use xlink:href="#CMSY10-2f" transform="scale(0.996264)"/>
      <use xlink:href="#CMMI12-54" transform="translate(105.161476 0) scale(0.996264)"/>
      <use xlink:href="#CMR17-34" transform="translate(175.885109 36.153639) scale(0.697382)"/>
     </g>
    </g>
   </g>
  </g>
 </g>
 <defs>
  <clipPath id="pe937923436">
   <rect x="95.271963" y="21.6" width="401.528037" height="296.962089"/>
  </clipPath>
 </defs>
</svg>
