<?xml version="1.0" encoding="utf-8" standalone="no"?>
<!DOCTYPE svg PUBLIC "-//W3C//DTD SVG 1.1//EN"
  "http://www.w3.org/Graphics/SVG/1.1/DTD/svg11.dtd">
<svg xmlns:xlink="http://www.w3.org/1999/xlink" width="432pt" height="432pt" viewBox="0 0 432 432" xmlns="http://www.w3.org/2000/svg" version="1.1">
 <metadata>
  <rdf:RDF xmlns:dc="http://purl.org/dc/elements/1.1/" xmlns:cc="http://creativecommons.org/ns#" xmlns:rdf="http://www.w3.org/1999/02/22-rdf-syntax-ns#">
   <cc:Work>
    <dc:type rdf:resource="http://purl.org/dc/dcmitype/StillImage"/>
    <dc:date>2026-01-25T13:57:35.270591</dc:date>
    <dc:format>image/svg+xml</dc:format>
    <dc:creator>
     <cc:Agent>
      <dc:title>Matplotlib v3.8.4, https://matplotlib.org/</dc:title>
     </cc:Agent>
    </dc:creator>
   </cc:Work>
  </rdf:RDF>
 </metadata>
 <defs>
  <style type="text/css">*{stroke-linejoin: round; stroke-linecap: butt}</style>
 </defs>
 <g id="figure_1">
  <g id="patch_1">
   <path d="M 0 432 
L 432 432 
L 432 0 
L 0 0 
z
" style="fill: #ffffff"/>
  </g>
  <g id="axes_1">
   <g id="patch_2">
    <path d="M 72.220481 361.762089 
L 410.4 361.762089 
L 410.4 28.518498 
L 72.220481 28.518498 
z
" style="fill: #ffffff"/>
   </g>
   <g id="matplotlib.axis_1">
    <g id="xtick_1">
     <g id="line2d_1">
      <path d="M 84.084925 361.762089 
L 84.084925 28.518498 
" clip-path="url(#pade950b1bf)" style="fill: none; stroke-dasharray: 2.96,1.28; stroke-dashoffset: 0; stroke: #b0b0b0; stroke-opacity: 0.3; stroke-width: 0.8"/>
     </g>
     <g id="line2d_2">
      <defs>
       <path id="m0891ab9627" d="M 0 0 
L 0 3.5 
" style="stroke: #000000; stroke-width: 0.8"/>
      </defs>
      <g>
       <use xlink:href="#m0891ab9627" x="84.084925" y="361.762089" style="stroke: #000000; stroke-width: 0.8"/>
      </g>
     </g>
     <g id="text_1">
      <!-- $\mathdefault{10^{-4}}$ -->
      <g transform="translate(66.108506 382.599086) scale(0.2 -0.2)">
       <defs>
        <path id="CMR17-31" d="M 1702 4058 
C 1702 4192 1696 4192 1606 4192 
C 1357 3916 979 3827 621 3827 
C 602 3827 570 3827 563 3808 
C 557 3795 557 3782 557 3648 
C 755 3648 1088 3686 1344 3839 
L 1344 461 
C 1344 236 1331 160 781 160 
L 589 160 
L 589 0 
C 896 0 1216 0 1523 0 
C 1830 0 2150 0 2458 0 
L 2458 160 
L 2266 160 
C 1715 160 1702 230 1702 458 
L 1702 4058 
z
" transform="scale(0.015625)"/>
        <path id="CMR17-30" d="M 2688 2025 
C 2688 2416 2682 3080 2413 3591 
C 2176 4039 1798 4198 1466 4198 
C 1158 4198 768 4058 525 3597 
C 269 3118 243 2524 243 2025 
C 243 1661 250 1106 448 619 
C 723 -39 1216 -128 1466 -128 
C 1760 -128 2208 -7 2470 600 
C 2662 1042 2688 1559 2688 2025 
z
M 1466 -26 
C 1056 -26 813 325 723 812 
C 653 1188 653 1738 653 2096 
C 653 2588 653 2997 736 3387 
C 858 3929 1216 4096 1466 4096 
C 1728 4096 2067 3923 2189 3400 
C 2272 3036 2278 2607 2278 2096 
C 2278 1680 2278 1169 2202 792 
C 2067 95 1690 -26 1466 -26 
z
" transform="scale(0.015625)"/>
        <path id="CMSY10-0" d="M 4218 1472 
C 4326 1472 4442 1472 4442 1600 
C 4442 1728 4326 1728 4218 1728 
L 755 1728 
C 646 1728 531 1728 531 1600 
C 531 1472 646 1472 755 1472 
L 4218 1472 
z
" transform="scale(0.015625)"/>
        <path id="CMR17-34" d="M 2150 4122 
C 2150 4256 2144 4256 2029 4256 
L 128 1254 
L 128 1088 
L 1779 1088 
L 1779 457 
C 1779 224 1766 160 1318 160 
L 1197 160 
L 1197 0 
C 1402 0 1747 0 1965 0 
C 2182 0 2528 0 2733 0 
L 2733 160 
L 2611 160 
C 2163 160 2150 224 2150 457 
L 2150 1088 
L 2803 1088 
L 2803 1254 
L 2150 1254 
L 2150 4122 
z
M 1798 3703 
L 1798 1254 
L 256 1254 
L 1798 3703 
z
" transform="scale(0.015625)"/>
       </defs>
       <use xlink:href="#CMR17-31" transform="scale(0.996264)"/>
       <use xlink:href="#CMR17-30" transform="translate(45.690477 0) scale(0.996264)"/>
       <use xlink:href="#CMSY10-0" transform="translate(91.380954 36.153639) scale(0.697382)"/>
       <use xlink:href="#CMR17-34" transform="translate(145.621947 36.153639) scale(0.697382)"/>
      </g>
     </g>
    </g>
    <g id="xtick_2">
     <g id="line2d_3">
      <path d="M 161.246681 361.762089 
L 161.246681 28.518498 
" clip-path="url(#pade950b1bf)" style="fill: none; stroke-dasharray: 2.96,1.28; stroke-dashoffset: 0; stroke: #b0b0b0; stroke-opacity: 0.3; stroke-width: 0.8"/>
     </g>
     <g id="line2d_4">
      <g>
       <use xlink:href="#m0891ab9627" x="161.246681" y="361.762089" style="stroke: #000000; stroke-width: 0.8"/>
      </g>
     </g>
     <g id="text_2">
      <!-- $\mathdefault{10^{-3}}$ -->
      <g transform="translate(143.270262 382.599086) scale(0.2 -0.2)">
       <defs>
        <path id="CMR17-33" d="M 1414 2157 
C 1984 2157 2234 1662 2234 1090 
C 2234 320 1824 25 1453 25 
C 1114 25 563 194 390 693 
C 422 680 454 680 486 680 
C 640 680 755 782 755 948 
C 755 1133 614 1216 486 1216 
C 378 1216 211 1165 211 926 
C 211 335 787 -128 1466 -128 
C 2176 -128 2720 430 2720 1085 
C 2720 1707 2208 2157 1600 2227 
C 2086 2328 2554 2756 2554 3329 
C 2554 3820 2048 4179 1472 4179 
C 890 4179 378 3829 378 3329 
C 378 3110 544 3072 627 3072 
C 762 3072 877 3155 877 3321 
C 877 3486 762 3569 627 3569 
C 602 3569 570 3569 544 3557 
C 730 3959 1235 4032 1459 4032 
C 1683 4032 2106 3925 2106 3320 
C 2106 3143 2080 2828 1862 2550 
C 1670 2304 1453 2304 1242 2284 
C 1210 2284 1062 2269 1037 2269 
C 992 2263 966 2257 966 2208 
C 966 2163 973 2157 1101 2157 
L 1414 2157 
z
" transform="scale(0.015625)"/>
       </defs>
       <use xlink:href="#CMR17-31" transform="scale(0.996264)"/>
       <use xlink:href="#CMR17-30" transform="translate(45.690477 0) scale(0.996264)"/>
       <use xlink:href="#CMSY10-0" transform="translate(91.380954 36.153639) scale(0.697382)"/>
       <use xlink:href="#CMR17-33" transform="translate(145.621947 36.153639) scale(0.697382)"/>
      </g>
     </g>
    </g>
    <g id="xtick_3">
     <g id="line2d_5">
      <path d="M 238.408437 361.762089 
L 238.408437 28.518498 
" clip-path="url(#pade950b1bf)" style="fill: none; stroke-dasharray: 2.96,1.28; stroke-dashoffset: 0; stroke: #b0b0b0; stroke-opacity: 0.3; stroke-width: 0.8"/>
     </g>
     <g id="line2d_6">
      <g>
       <use xlink:href="#m0891ab9627" x="238.408437" y="361.762089" style="stroke: #000000; stroke-width: 0.8"/>
      </g>
     </g>
     <g id="text_3">
      <!-- $\mathdefault{10^{-2}}$ -->
      <g transform="translate(220.432017 382.599086) scale(0.2 -0.2)">
       <defs>
        <path id="CMR17-32" d="M 2669 989 
L 2554 989 
C 2490 536 2438 459 2413 420 
C 2381 369 1920 369 1830 369 
L 602 369 
C 832 619 1280 1072 1824 1597 
C 2214 1967 2669 2402 2669 3035 
C 2669 3790 2067 4224 1395 4224 
C 691 4224 262 3604 262 3030 
C 262 2780 448 2748 525 2748 
C 589 2748 781 2787 781 3010 
C 781 3207 614 3264 525 3264 
C 486 3264 448 3258 422 3245 
C 544 3790 915 4058 1306 4058 
C 1862 4058 2227 3617 2227 3035 
C 2227 2479 1901 2000 1536 1584 
L 262 146 
L 262 0 
L 2515 0 
L 2669 989 
z
" transform="scale(0.015625)"/>
       </defs>
       <use xlink:href="#CMR17-31" transform="scale(0.996264)"/>
       <use xlink:href="#CMR17-30" transform="translate(45.690477 0) scale(0.996264)"/>
       <use xlink:href="#CMSY10-0" transform="translate(91.380954 36.153639) scale(0.697382)"/>
       <use xlink:href="#CMR17-32" transform="translate(145.621947 36.153639) scale(0.697382)"/>
      </g>
     </g>
    </g>
    <g id="xtick_4">
     <g id="line2d_7">
      <path d="M 315.570192 361.762089 
L 315.570192 28.518498 
" clip-path="url(#pade950b1bf)" style="fill: none; stroke-dasharray: 2.96,1.28; stroke-dashoffset: 0; stroke: #b0b0b0; stroke-opacity: 0.3; stroke-width: 0.8"/>
     </g>
     <g id="line2d_8">
      <g>
       <use xlink:href="#m0891ab9627" x="315.570192" y="361.762089" style="stroke: #000000; stroke-width: 0.8"/>
      </g>
     </g>
     <g id="text_4">
      <!-- $\mathdefault{10^{-1}}$ -->
      <g transform="translate(297.593773 382.599086) scale(0.2 -0.2)">
       <use xlink:href="#CMR17-31" transform="scale(0.996264)"/>
       <use xlink:href="#CMR17-30" transform="translate(45.690477 0) scale(0.996264)"/>
       <use xlink:href="#CMSY10-0" transform="translate(91.380954 36.153639) scale(0.697382)"/>
       <use xlink:href="#CMR17-31" transform="translate(145.621947 36.153639) scale(0.697382)"/>
      </g>
     </g>
    </g>
    <g id="xtick_5">
     <g id="line2d_9">
      <path d="M 392.731948 361.762089 
L 392.731948 28.518498 
" clip-path="url(#pade950b1bf)" style="fill: none; stroke-dasharray: 2.96,1.28; stroke-dashoffset: 0; stroke: #b0b0b0; stroke-opacity: 0.3; stroke-width: 0.8"/>
     </g>
     <g id="line2d_10">
      <g>
       <use xlink:href="#m0891ab9627" x="392.731948" y="361.762089" style="stroke: #000000; stroke-width: 0.8"/>
      </g>
     </g>
     <g id="text_5">
      <!-- $\mathdefault{10^{0}}$ -->
      <g transform="translate(380.179623 382.599086) scale(0.2 -0.2)">
       <use xlink:href="#CMR17-31" transform="scale(0.996264)"/>
       <use xlink:href="#CMR17-30" transform="translate(45.690477 0) scale(0.996264)"/>
       <use xlink:href="#CMR17-30" transform="translate(91.380954 36.153639) scale(0.697382)"/>
      </g>
     </g>
    </g>
    <g id="xtick_6">
     <g id="line2d_11">
      <defs>
       <path id="m9130405c89" d="M 0 0 
L 0 2 
" style="stroke: #000000; stroke-width: 0.6"/>
      </defs>
      <g>
       <use xlink:href="#m9130405c89" x="76.607178" y="361.762089" style="stroke: #000000; stroke-width: 0.6"/>
      </g>
     </g>
    </g>
    <g id="xtick_7">
     <g id="line2d_12">
      <g>
       <use xlink:href="#m9130405c89" x="80.554197" y="361.762089" style="stroke: #000000; stroke-width: 0.6"/>
      </g>
     </g>
    </g>
    <g id="xtick_8">
     <g id="line2d_13">
      <g>
       <use xlink:href="#m9130405c89" x="107.312928" y="361.762089" style="stroke: #000000; stroke-width: 0.6"/>
      </g>
     </g>
    </g>
    <g id="xtick_9">
     <g id="line2d_14">
      <g>
       <use xlink:href="#m9130405c89" x="120.900439" y="361.762089" style="stroke: #000000; stroke-width: 0.6"/>
      </g>
     </g>
    </g>
    <g id="xtick_10">
     <g id="line2d_15">
      <g>
       <use xlink:href="#m9130405c89" x="130.540931" y="361.762089" style="stroke: #000000; stroke-width: 0.6"/>
      </g>
     </g>
    </g>
    <g id="xtick_11">
     <g id="line2d_16">
      <g>
       <use xlink:href="#m9130405c89" x="138.018678" y="361.762089" style="stroke: #000000; stroke-width: 0.6"/>
      </g>
     </g>
    </g>
    <g id="xtick_12">
     <g id="line2d_17">
      <g>
       <use xlink:href="#m9130405c89" x="144.128442" y="361.762089" style="stroke: #000000; stroke-width: 0.6"/>
      </g>
     </g>
    </g>
    <g id="xtick_13">
     <g id="line2d_18">
      <g>
       <use xlink:href="#m9130405c89" x="149.294174" y="361.762089" style="stroke: #000000; stroke-width: 0.6"/>
      </g>
     </g>
    </g>
    <g id="xtick_14">
     <g id="line2d_19">
      <g>
       <use xlink:href="#m9130405c89" x="153.768934" y="361.762089" style="stroke: #000000; stroke-width: 0.6"/>
      </g>
     </g>
    </g>
    <g id="xtick_15">
     <g id="line2d_20">
      <g>
       <use xlink:href="#m9130405c89" x="157.715953" y="361.762089" style="stroke: #000000; stroke-width: 0.6"/>
      </g>
     </g>
    </g>
    <g id="xtick_16">
     <g id="line2d_21">
      <g>
       <use xlink:href="#m9130405c89" x="184.474684" y="361.762089" style="stroke: #000000; stroke-width: 0.6"/>
      </g>
     </g>
    </g>
    <g id="xtick_17">
     <g id="line2d_22">
      <g>
       <use xlink:href="#m9130405c89" x="198.062195" y="361.762089" style="stroke: #000000; stroke-width: 0.6"/>
      </g>
     </g>
    </g>
    <g id="xtick_18">
     <g id="line2d_23">
      <g>
       <use xlink:href="#m9130405c89" x="207.702687" y="361.762089" style="stroke: #000000; stroke-width: 0.6"/>
      </g>
     </g>
    </g>
    <g id="xtick_19">
     <g id="line2d_24">
      <g>
       <use xlink:href="#m9130405c89" x="215.180434" y="361.762089" style="stroke: #000000; stroke-width: 0.6"/>
      </g>
     </g>
    </g>
    <g id="xtick_20">
     <g id="line2d_25">
      <g>
       <use xlink:href="#m9130405c89" x="221.290197" y="361.762089" style="stroke: #000000; stroke-width: 0.6"/>
      </g>
     </g>
    </g>
    <g id="xtick_21">
     <g id="line2d_26">
      <g>
       <use xlink:href="#m9130405c89" x="226.455929" y="361.762089" style="stroke: #000000; stroke-width: 0.6"/>
      </g>
     </g>
    </g>
    <g id="xtick_22">
     <g id="line2d_27">
      <g>
       <use xlink:href="#m9130405c89" x="230.93069" y="361.762089" style="stroke: #000000; stroke-width: 0.6"/>
      </g>
     </g>
    </g>
    <g id="xtick_23">
     <g id="line2d_28">
      <g>
       <use xlink:href="#m9130405c89" x="234.877708" y="361.762089" style="stroke: #000000; stroke-width: 0.6"/>
      </g>
     </g>
    </g>
    <g id="xtick_24">
     <g id="line2d_29">
      <g>
       <use xlink:href="#m9130405c89" x="261.636439" y="361.762089" style="stroke: #000000; stroke-width: 0.6"/>
      </g>
     </g>
    </g>
    <g id="xtick_25">
     <g id="line2d_30">
      <g>
       <use xlink:href="#m9130405c89" x="275.22395" y="361.762089" style="stroke: #000000; stroke-width: 0.6"/>
      </g>
     </g>
    </g>
    <g id="xtick_26">
     <g id="line2d_31">
      <g>
       <use xlink:href="#m9130405c89" x="284.864442" y="361.762089" style="stroke: #000000; stroke-width: 0.6"/>
      </g>
     </g>
    </g>
    <g id="xtick_27">
     <g id="line2d_32">
      <g>
       <use xlink:href="#m9130405c89" x="292.342189" y="361.762089" style="stroke: #000000; stroke-width: 0.6"/>
      </g>
     </g>
    </g>
    <g id="xtick_28">
     <g id="line2d_33">
      <g>
       <use xlink:href="#m9130405c89" x="298.451953" y="361.762089" style="stroke: #000000; stroke-width: 0.6"/>
      </g>
     </g>
    </g>
    <g id="xtick_29">
     <g id="line2d_34">
      <g>
       <use xlink:href="#m9130405c89" x="303.617685" y="361.762089" style="stroke: #000000; stroke-width: 0.6"/>
      </g>
     </g>
    </g>
    <g id="xtick_30">
     <g id="line2d_35">
      <g>
       <use xlink:href="#m9130405c89" x="308.092445" y="361.762089" style="stroke: #000000; stroke-width: 0.6"/>
      </g>
     </g>
    </g>
    <g id="xtick_31">
     <g id="line2d_36">
      <g>
       <use xlink:href="#m9130405c89" x="312.039464" y="361.762089" style="stroke: #000000; stroke-width: 0.6"/>
      </g>
     </g>
    </g>
    <g id="xtick_32">
     <g id="line2d_37">
      <g>
       <use xlink:href="#m9130405c89" x="338.798195" y="361.762089" style="stroke: #000000; stroke-width: 0.6"/>
      </g>
     </g>
    </g>
    <g id="xtick_33">
     <g id="line2d_38">
      <g>
       <use xlink:href="#m9130405c89" x="352.385706" y="361.762089" style="stroke: #000000; stroke-width: 0.6"/>
      </g>
     </g>
    </g>
    <g id="xtick_34">
     <g id="line2d_39">
      <g>
       <use xlink:href="#m9130405c89" x="362.026198" y="361.762089" style="stroke: #000000; stroke-width: 0.6"/>
      </g>
     </g>
    </g>
    <g id="xtick_35">
     <g id="line2d_40">
      <g>
       <use xlink:href="#m9130405c89" x="369.503945" y="361.762089" style="stroke: #000000; stroke-width: 0.6"/>
      </g>
     </g>
    </g>
    <g id="xtick_36">
     <g id="line2d_41">
      <g>
       <use xlink:href="#m9130405c89" x="375.613709" y="361.762089" style="stroke: #000000; stroke-width: 0.6"/>
      </g>
     </g>
    </g>
    <g id="xtick_37">
     <g id="line2d_42">
      <g>
       <use xlink:href="#m9130405c89" x="380.779441" y="361.762089" style="stroke: #000000; stroke-width: 0.6"/>
      </g>
     </g>
    </g>
    <g id="xtick_38">
     <g id="line2d_43">
      <g>
       <use xlink:href="#m9130405c89" x="385.254201" y="361.762089" style="stroke: #000000; stroke-width: 0.6"/>
      </g>
     </g>
    </g>
    <g id="xtick_39">
     <g id="line2d_44">
      <g>
       <use xlink:href="#m9130405c89" x="389.20122" y="361.762089" style="stroke: #000000; stroke-width: 0.6"/>
      </g>
     </g>
    </g>
    <g id="text_6">
     <!-- Temperature, $T/T_F$ -->
     <g transform="translate(162.69832 405.41868) scale(0.2 -0.2)">
      <defs>
       <path id="CMR17-54" d="M 3981 4326 
L 288 4326 
L 179 2918 
L 294 2918 
C 378 3976 467 4160 1453 4160 
C 1568 4160 1754 4160 1805 4154 
C 1926 4135 1926 4058 1926 3912 
L 1926 459 
C 1926 230 1907 160 1376 160 
L 1197 160 
L 1197 0 
C 1504 0 1824 0 2138 0 
C 2451 0 2771 0 3078 0 
L 3078 160 
L 2899 160 
C 2368 160 2349 230 2349 459 
L 2349 3912 
C 2349 4052 2349 4129 2464 4154 
C 2515 4160 2701 4160 2816 4160 
C 3795 4160 3891 3976 3974 2918 
L 4090 2918 
L 3981 4326 
z
" transform="scale(0.015625)"/>
       <path id="CMR17-65" d="M 2438 1472 
C 2464 1498 2464 1511 2464 1576 
C 2464 2238 2118 2816 1389 2816 
C 710 2816 173 2169 173 1383 
C 173 551 781 -64 1459 -64 
C 2176 -64 2458 607 2458 740 
C 2458 784 2419 784 2406 784 
C 2362 784 2355 771 2330 696 
C 2189 265 1837 51 1504 51 
C 1229 51 954 203 781 480 
C 582 803 582 1176 582 1472 
L 2438 1472 
z
M 589 1568 
C 634 2505 1126 2714 1382 2714 
C 1818 2714 2112 2297 2118 1568 
L 589 1568 
z
" transform="scale(0.015625)"/>
       <path id="CMR17-6d" d="M 4326 1933 
C 4326 2252 4269 2790 3507 2790 
C 3072 2790 2771 2496 2656 2151 
L 2650 2151 
C 2573 2676 2195 2790 1837 2790 
C 1331 2790 1069 2400 973 2144 
L 966 2144 
L 966 2790 
L 211 2720 
L 211 2554 
C 589 2554 646 2515 646 2208 
L 646 428 
C 646 184 621 153 211 153 
L 211 -13 
C 365 0 646 0 813 0 
C 979 0 1267 0 1421 -13 
L 1421 153 
C 1011 153 986 178 986 428 
L 986 1658 
C 986 2247 1344 2688 1792 2688 
C 2266 2688 2317 2266 2317 1958 
L 2317 428 
C 2317 184 2291 153 1882 153 
L 1882 -13 
C 2035 0 2317 0 2483 0 
C 2650 0 2938 0 3091 -13 
L 3091 153 
C 2682 153 2656 178 2656 428 
L 2656 1658 
C 2656 2247 3014 2688 3462 2688 
C 3936 2688 3987 2266 3987 1958 
L 3987 428 
C 3987 184 3962 153 3552 153 
L 3552 -13 
C 3706 0 3987 0 4154 0 
C 4320 0 4608 0 4762 -13 
L 4762 153 
C 4352 153 4326 178 4326 428 
L 4326 1933 
z
" transform="scale(0.015625)"/>
       <path id="CMR17-70" d="M 1408 -1063 
C 998 -1063 973 -1037 973 -789 
L 973 402 
C 1158 134 1427 -38 1766 -38 
C 2406 -38 3053 523 3053 1388 
C 3053 2191 2496 2802 1837 2802 
C 1453 2802 1139 2592 960 2338 
L 960 2802 
L 198 2732 
L 198 2567 
C 576 2567 634 2528 634 2223 
L 634 -789 
C 634 -1031 608 -1063 198 -1063 
L 198 -1228 
C 352 -1216 634 -1216 800 -1216 
C 966 -1216 1254 -1216 1408 -1228 
L 1408 -1063 
z
M 973 2012 
C 973 2102 973 2235 1222 2471 
C 1254 2497 1472 2688 1792 2688 
C 2259 2688 2643 2108 2643 1382 
C 2643 656 2234 64 1728 64 
C 1498 64 1248 172 1056 472 
C 973 612 973 650 973 752 
L 973 2012 
z
" transform="scale(0.015625)"/>
       <path id="CMR17-72" d="M 960 1497 
C 960 2112 1222 2688 1702 2688 
C 1747 2688 1792 2682 1837 2662 
C 1837 2662 1696 2617 1696 2452 
C 1696 2298 1818 2234 1914 2234 
C 1990 2234 2131 2279 2131 2458 
C 2131 2663 1926 2790 1709 2790 
C 1222 2790 1011 2317 947 2093 
L 941 2093 
L 941 2790 
L 198 2720 
L 198 2554 
C 576 2554 634 2515 634 2208 
L 634 428 
C 634 184 608 153 198 153 
L 198 -13 
C 352 0 646 0 813 0 
C 998 0 1325 0 1498 -13 
L 1498 153 
C 1037 153 960 153 960 440 
L 960 1497 
z
" transform="scale(0.015625)"/>
       <path id="CMR17-61" d="M 2304 1653 
C 2304 2072 2304 2294 2035 2543 
C 1798 2752 1523 2816 1306 2816 
C 800 2816 435 2407 435 1971 
C 435 1728 627 1728 666 1728 
C 749 1728 896 1778 896 1954 
C 896 2112 774 2181 666 2181 
C 640 2181 608 2174 589 2168 
C 723 2592 1069 2714 1293 2714 
C 1613 2714 1965 2429 1965 1885 
L 1965 1600 
C 1587 1600 1133 1549 774 1357 
C 371 1133 256 813 256 570 
C 256 77 832 -64 1171 -64 
C 1523 -64 1850 139 1990 511 
C 2003 233 2182 -18 2464 -18 
C 2598 -18 2938 70 2938 567 
L 2938 920 
L 2822 920 
L 2822 562 
C 2822 178 2650 128 2566 128 
C 2304 128 2304 458 2304 738 
L 2304 1653 
z
M 1965 870 
C 1965 317 1568 38 1216 38 
C 896 38 646 275 646 570 
C 646 761 730 1100 1101 1305 
C 1408 1478 1760 1504 1965 1504 
L 1965 870 
z
" transform="scale(0.015625)"/>
       <path id="CMR17-74" d="M 966 2560 
L 1862 2560 
L 1862 2725 
L 966 2725 
L 966 3904 
L 851 3904 
C 838 3245 614 2668 70 2668 
L 70 2560 
L 627 2560 
L 627 771 
C 627 650 627 -64 1370 -64 
C 1747 -64 1965 306 1965 777 
L 1965 1140 
L 1850 1140 
L 1850 783 
C 1850 344 1677 51 1408 51 
C 1222 51 966 178 966 758 
L 966 2560 
z
" transform="scale(0.015625)"/>
       <path id="CMR17-75" d="M 1882 2693 
L 1882 2528 
C 2259 2528 2317 2489 2317 2186 
L 2317 1032 
C 2317 500 2029 38 1555 38 
C 1030 38 986 348 986 678 
L 986 2763 
L 211 2693 
L 211 2528 
C 467 2528 640 2528 646 2274 
L 646 1058 
C 646 633 646 361 813 183 
C 896 101 1056 -64 1517 -64 
C 2061 -64 2272 377 2323 506 
L 2330 506 
L 2330 -63 
L 3091 -63 
L 3091 128 
C 2714 128 2656 166 2656 473 
L 2656 2763 
L 1882 2693 
z
" transform="scale(0.015625)"/>
       <path id="CMR17-2c" d="M 1011 102 
C 1024 45 1024 25 1024 -77 
C 1024 -463 896 -817 627 -1139 
C 595 -1170 595 -1183 595 -1197 
C 595 -1222 621 -1248 646 -1248 
C 685 -1248 1126 -799 1126 -87 
C 1126 124 1101 522 800 522 
C 659 522 538 427 538 261 
C 538 96 659 0 800 0 
C 877 0 960 32 1011 102 
z
" transform="scale(0.015625)"/>
       <path id="CMMI12-54" d="M 2669 3910 
C 2707 4064 2720 4121 2816 4147 
C 2867 4160 3078 4160 3213 4160 
C 3853 4160 4154 4134 4154 3634 
C 4154 3537 4128 3295 4090 3057 
L 4083 2980 
C 4083 2954 4109 2916 4147 2916 
C 4211 2916 4211 2948 4230 3050 
L 4416 4184 
C 4429 4243 4429 4256 4429 4275 
C 4429 4345 4390 4345 4262 4345 
L 762 4345 
C 614 4345 608 4339 570 4224 
L 179 3070 
C 173 3056 154 2986 154 2980 
C 154 2948 179 2916 218 2916 
C 269 2916 282 2941 307 3024 
C 576 3801 710 4160 1562 4160 
L 1990 4160 
C 2144 4160 2208 4160 2208 4089 
C 2208 4069 2208 4057 2176 3941 
L 1318 499 
C 1254 249 1242 185 563 185 
C 403 185 358 185 358 64 
C 358 0 429 0 461 0 
C 621 0 787 0 947 0 
L 1946 0 
C 2106 0 2278 0 2438 0 
C 2509 0 2573 0 2573 121 
C 2573 185 2528 185 2362 185 
C 1786 185 1786 243 1786 339 
C 1786 346 1786 391 1811 494 
L 2669 3910 
z
" transform="scale(0.015625)"/>
       <path id="CMMI12-3d" d="M 2746 4562 
C 2746 4569 2784 4666 2784 4678 
C 2784 4755 2720 4800 2669 4800 
C 2637 4800 2579 4800 2528 4659 
L 384 -1363 
C 384 -1370 346 -1465 346 -1478 
C 346 -1555 410 -1600 461 -1600 
C 499 -1600 557 -1593 602 -1459 
L 2746 4562 
z
" transform="scale(0.015625)"/>
       <path id="CMMI12-46" d="M 1901 2055 
L 2515 2055 
C 3002 2055 3040 1946 3040 1761 
C 3040 1678 3027 1589 2995 1448 
C 2982 1423 2976 1391 2976 1378 
C 2976 1333 3002 1308 3046 1308 
C 3098 1308 3104 1333 3130 1435 
L 3501 2935 
C 3501 2961 3482 2999 3437 2999 
C 3379 2999 3373 2974 3347 2863 
C 3213 2376 3085 2240 2528 2240 
L 1946 2240 
L 2362 3926 
C 2419 4154 2432 4154 2694 4154 
L 3552 4154 
C 4352 4154 4467 3918 4467 3464 
C 4467 3426 4467 3285 4448 3119 
C 4442 3094 4429 3011 4429 2985 
C 4429 2934 4461 2915 4499 2915 
C 4544 2915 4570 2941 4582 3055 
L 4717 4174 
C 4717 4195 4730 4263 4730 4277 
C 4730 4352 4672 4352 4557 4352 
L 1523 4352 
C 1402 4352 1338 4352 1338 4229 
C 1338 4154 1382 4154 1491 4154 
C 1888 4154 1888 4113 1888 4050 
C 1888 4018 1882 3992 1862 3922 
L 998 473 
C 941 249 928 185 480 185 
C 358 185 294 185 294 70 
C 294 0 352 0 390 0 
C 512 0 640 0 762 0 
L 1594 0 
C 1734 0 1888 0 2029 0 
C 2086 0 2163 0 2163 115 
C 2163 185 2125 185 1984 185 
C 1478 185 1466 229 1466 324 
C 1466 356 1478 406 1491 449 
L 1901 2055 
z
" transform="scale(0.015625)"/>
      </defs>
      <use xlink:href="#CMR17-54" transform="scale(0.996264)"/>
      <use xlink:href="#CMR17-65" transform="translate(58.702625 0) scale(0.996264)"/>
      <use xlink:href="#CMR17-6d" transform="translate(99.188286 0) scale(0.996264)"/>
      <use xlink:href="#CMR17-70" transform="translate(176.107875 0) scale(0.996264)"/>
      <use xlink:href="#CMR17-65" transform="translate(229.605684 0) scale(0.996264)"/>
      <use xlink:href="#CMR17-72" transform="translate(270.091344 0) scale(0.996264)"/>
      <use xlink:href="#CMR17-61" transform="translate(305.372112 0) scale(0.996264)"/>
      <use xlink:href="#CMR17-74" transform="translate(351.062589 0) scale(0.996264)"/>
      <use xlink:href="#CMR17-75" transform="translate(386.343357 0) scale(0.996264)"/>
      <use xlink:href="#CMR17-72" transform="translate(437.238727 0) scale(0.996264)"/>
      <use xlink:href="#CMR17-65" transform="translate(472.519495 0) scale(0.996264)"/>
      <use xlink:href="#CMR17-2c" transform="translate(513.005155 0) scale(0.996264)"/>
      <use xlink:href="#CMMI12-54" transform="translate(567.95218 0) scale(0.996264)"/>
      <use xlink:href="#CMMI12-3d" transform="translate(635.966095 0) scale(0.996264)"/>
      <use xlink:href="#CMMI12-54" transform="translate(684.741013 0) scale(0.996264)"/>
      <use xlink:href="#CMMI12-46" transform="translate(741.916057 -14.943915) scale(0.697382)"/>
     </g>
    </g>
   </g>
   <g id="matplotlib.axis_2">
    <g id="ytick_1">
     <g id="line2d_45">
      <path d="M 72.220481 361.762089 
L 410.4 361.762089 
" clip-path="url(#pade950b1bf)" style="fill: none; stroke-dasharray: 2.96,1.28; stroke-dashoffset: 0; stroke: #b0b0b0; stroke-opacity: 0.3; stroke-width: 0.8"/>
     </g>
     <g id="line2d_46">
      <defs>
       <path id="m8150f4ebee" d="M 0 0 
L -3.5 0 
" style="stroke: #000000; stroke-width: 0.8"/>
      </defs>
      <g>
       <use xlink:href="#m8150f4ebee" x="72.220481" y="361.762089" style="stroke: #000000; stroke-width: 0.8"/>
      </g>
     </g>
     <g id="text_7">
      <!-- $\mathdefault{0}$ -->
      <g transform="translate(56.082386 368.680588) scale(0.2 -0.2)">
       <use xlink:href="#CMR17-30" transform="scale(0.996264)"/>
      </g>
     </g>
    </g>
    <g id="ytick_2">
     <g id="line2d_47">
      <path d="M 72.220481 306.221491 
L 410.4 306.221491 
" clip-path="url(#pade950b1bf)" style="fill: none; stroke-dasharray: 2.96,1.28; stroke-dashoffset: 0; stroke: #b0b0b0; stroke-opacity: 0.3; stroke-width: 0.8"/>
     </g>
     <g id="line2d_48">
      <g>
       <use xlink:href="#m8150f4ebee" x="72.220481" y="306.221491" style="stroke: #000000; stroke-width: 0.8"/>
      </g>
     </g>
     <g id="text_8">
      <!-- $\mathdefault{1}$ -->
      <g transform="translate(56.082386 313.139989) scale(0.2 -0.2)">
       <use xlink:href="#CMR17-31" transform="scale(0.996264)"/>
      </g>
     </g>
    </g>
    <g id="ytick_3">
     <g id="line2d_49">
      <path d="M 72.220481 250.680892 
L 410.4 250.680892 
" clip-path="url(#pade950b1bf)" style="fill: none; stroke-dasharray: 2.96,1.28; stroke-dashoffset: 0; stroke: #b0b0b0; stroke-opacity: 0.3; stroke-width: 0.8"/>
     </g>
     <g id="line2d_50">
      <g>
       <use xlink:href="#m8150f4ebee" x="72.220481" y="250.680892" style="stroke: #000000; stroke-width: 0.8"/>
      </g>
     </g>
     <g id="text_9">
      <!-- $\mathdefault{2}$ -->
      <g transform="translate(56.082386 257.599391) scale(0.2 -0.2)">
       <use xlink:href="#CMR17-32" transform="scale(0.996264)"/>
      </g>
     </g>
    </g>
    <g id="ytick_4">
     <g id="line2d_51">
      <path d="M 72.220481 195.140294 
L 410.4 195.140294 
" clip-path="url(#pade950b1bf)" style="fill: none; stroke-dasharray: 2.96,1.28; stroke-dashoffset: 0; stroke: #b0b0b0; stroke-opacity: 0.3; stroke-width: 0.8"/>
     </g>
     <g id="line2d_52">
      <g>
       <use xlink:href="#m8150f4ebee" x="72.220481" y="195.140294" style="stroke: #000000; stroke-width: 0.8"/>
      </g>
     </g>
     <g id="text_10">
      <!-- $\mathdefault{3}$ -->
      <g transform="translate(56.082386 202.058792) scale(0.2 -0.2)">
       <use xlink:href="#CMR17-33" transform="scale(0.996264)"/>
      </g>
     </g>
    </g>
    <g id="ytick_5">
     <g id="line2d_53">
      <path d="M 72.220481 139.599695 
L 410.4 139.599695 
" clip-path="url(#pade950b1bf)" style="fill: none; stroke-dasharray: 2.96,1.28; stroke-dashoffset: 0; stroke: #b0b0b0; stroke-opacity: 0.3; stroke-width: 0.8"/>
     </g>
     <g id="line2d_54">
      <g>
       <use xlink:href="#m8150f4ebee" x="72.220481" y="139.599695" style="stroke: #000000; stroke-width: 0.8"/>
      </g>
     </g>
     <g id="text_11">
      <!-- $\mathdefault{4}$ -->
      <g transform="translate(56.082386 146.518194) scale(0.2 -0.2)">
       <use xlink:href="#CMR17-34" transform="scale(0.996264)"/>
      </g>
     </g>
    </g>
    <g id="ytick_6">
     <g id="line2d_55">
      <path d="M 72.220481 84.059097 
L 410.4 84.059097 
" clip-path="url(#pade950b1bf)" style="fill: none; stroke-dasharray: 2.96,1.28; stroke-dashoffset: 0; stroke: #b0b0b0; stroke-opacity: 0.3; stroke-width: 0.8"/>
     </g>
     <g id="line2d_56">
      <g>
       <use xlink:href="#m8150f4ebee" x="72.220481" y="84.059097" style="stroke: #000000; stroke-width: 0.8"/>
      </g>
     </g>
     <g id="text_12">
      <!-- $\mathdefault{5}$ -->
      <g transform="translate(56.082386 90.977595) scale(0.2 -0.2)">
       <defs>
        <path id="CMR17-35" d="M 730 3692 
C 794 3666 1056 3584 1325 3584 
C 1920 3584 2246 3911 2432 4100 
C 2432 4157 2432 4192 2394 4192 
C 2387 4192 2374 4192 2323 4163 
C 2099 4058 1837 3973 1517 3973 
C 1325 3973 1037 3999 723 4139 
C 653 4171 640 4171 634 4171 
C 602 4171 595 4164 595 4037 
L 595 2203 
C 595 2089 595 2057 659 2057 
C 691 2057 704 2070 736 2114 
C 941 2401 1222 2522 1542 2522 
C 1766 2522 2246 2382 2246 1289 
C 2246 1085 2246 715 2054 421 
C 1894 159 1645 25 1370 25 
C 947 25 518 320 403 814 
C 429 807 480 795 506 795 
C 589 795 749 840 749 1038 
C 749 1210 627 1280 506 1280 
C 358 1280 262 1190 262 1011 
C 262 454 704 -128 1382 -128 
C 2042 -128 2669 440 2669 1264 
C 2669 2030 2170 2624 1549 2624 
C 1222 2624 947 2503 730 2274 
L 730 3692 
z
" transform="scale(0.015625)"/>
       </defs>
       <use xlink:href="#CMR17-35" transform="scale(0.996264)"/>
      </g>
     </g>
    </g>
    <g id="ytick_7">
     <g id="line2d_57">
      <path d="M 72.220481 28.518498 
L 410.4 28.518498 
" clip-path="url(#pade950b1bf)" style="fill: none; stroke-dasharray: 2.96,1.28; stroke-dashoffset: 0; stroke: #b0b0b0; stroke-opacity: 0.3; stroke-width: 0.8"/>
     </g>
     <g id="line2d_58">
      <g>
       <use xlink:href="#m8150f4ebee" x="72.220481" y="28.518498" style="stroke: #000000; stroke-width: 0.8"/>
      </g>
     </g>
     <g id="text_13">
      <!-- $\mathdefault{6}$ -->
      <g transform="translate(56.082386 35.436997) scale(0.2 -0.2)">
       <defs>
        <path id="CMR17-36" d="M 678 2176 
C 678 3690 1395 4032 1811 4032 
C 1946 4032 2272 4009 2400 3776 
C 2298 3776 2106 3776 2106 3553 
C 2106 3381 2246 3323 2336 3323 
C 2394 3323 2566 3348 2566 3560 
C 2566 3954 2246 4179 1805 4179 
C 1043 4179 243 3390 243 1984 
C 243 253 966 -128 1478 -128 
C 2099 -128 2688 427 2688 1283 
C 2688 2081 2170 2662 1517 2662 
C 1126 2662 838 2407 678 1960 
L 678 2176 
z
M 1478 25 
C 691 25 691 1200 691 1436 
C 691 1896 909 2560 1504 2560 
C 1613 2560 1926 2560 2138 2120 
C 2253 1870 2253 1609 2253 1289 
C 2253 944 2253 690 2118 434 
C 1978 171 1773 25 1478 25 
z
" transform="scale(0.015625)"/>
       </defs>
       <use xlink:href="#CMR17-36" transform="scale(0.996264)"/>
      </g>
     </g>
    </g>
    <g id="text_14">
     <!-- Local scaling exponent, $\frac{d\log(\gamma_m)}{d\log(T)}$ -->
     <g transform="translate(41.724439 319.049004) rotate(-90) scale(0.2 -0.2)">
      <defs>
       <path id="CMR17-4c" d="M 3469 1615 
L 3354 1615 
C 3302 983 3219 166 2125 166 
L 1530 166 
C 1274 166 1261 197 1261 414 
L 1261 3898 
C 1261 4129 1274 4192 1760 4192 
L 1901 4192 
L 1901 4352 
C 1638 4352 1331 4352 1069 4352 
C 870 4352 512 4352 326 4352 
L 326 4192 
C 768 4192 838 4192 838 3905 
L 838 452 
C 838 166 768 166 326 166 
L 326 0 
L 3315 0 
L 3469 1615 
z
" transform="scale(0.015625)"/>
       <path id="CMR17-6f" d="M 2758 1356 
C 2758 2176 2163 2816 1466 2816 
C 768 2816 173 2176 173 1356 
C 173 551 768 -64 1466 -64 
C 2163 -64 2758 551 2758 1356 
z
M 1466 51 
C 1165 51 909 230 762 480 
C 602 767 582 1126 582 1408 
C 582 1677 595 2010 762 2298 
C 890 2509 1139 2714 1466 2714 
C 1754 2714 1997 2554 2150 2330 
C 2349 2029 2349 1607 2349 1408 
C 2349 1158 2336 775 2163 467 
C 1984 173 1709 51 1466 51 
z
" transform="scale(0.015625)"/>
       <path id="CMR17-63" d="M 2234 2240 
C 2112 2240 1933 2240 1933 2017 
C 1933 1838 2080 1787 2163 1787 
C 2208 1787 2394 1807 2394 2024 
C 2394 2467 1958 2803 1466 2803 
C 787 2803 211 2178 211 1363 
C 211 516 813 -64 1466 -64 
C 2259 -64 2458 677 2458 748 
C 2458 774 2451 793 2406 793 
C 2362 793 2355 787 2330 703 
C 2163 180 1798 51 1523 51 
C 1114 51 621 427 621 1369 
C 621 2338 1094 2688 1472 2688 
C 1722 2688 2093 2573 2234 2240 
z
" transform="scale(0.015625)"/>
       <path id="CMR17-6c" d="M 979 4396 
L 218 4326 
L 218 4160 
C 595 4160 653 4122 653 3817 
L 653 426 
C 653 184 627 153 218 153 
L 218 -13 
C 371 0 653 0 813 0 
C 979 0 1261 0 1414 -13 
L 1414 153 
C 1005 153 979 178 979 426 
L 979 4396 
z
" transform="scale(0.015625)"/>
       <path id="CMR17-73" d="M 1978 2697 
C 1978 2813 1971 2819 1933 2819 
C 1907 2819 1901 2813 1824 2717 
C 1805 2691 1747 2626 1728 2601 
C 1523 2819 1235 2819 1126 2819 
C 416 2819 160 2447 160 2076 
C 160 1498 813 1365 998 1325 
C 1402 1243 1542 1217 1677 1101 
C 1760 1025 1901 884 1901 654 
C 1901 384 1747 38 1158 38 
C 602 38 403 460 288 1021 
C 269 1110 269 1117 218 1117 
C 166 1117 160 1110 160 983 
L 160 63 
C 160 -51 166 -58 205 -58 
C 237 -58 243 -51 275 0 
C 314 57 410 211 448 276 
C 576 103 800 -64 1158 -64 
C 1792 -64 2131 283 2131 784 
C 2131 1112 1958 1285 1875 1362 
C 1683 1561 1459 1606 1190 1657 
C 838 1735 390 1825 390 2217 
C 390 2383 480 2737 1126 2737 
C 1811 2737 1850 2094 1862 1888 
C 1869 1856 1901 1849 1920 1849 
C 1978 1849 1978 1869 1978 1978 
L 1978 2697 
z
" transform="scale(0.015625)"/>
       <path id="CMR17-69" d="M 992 3909 
C 992 4049 877 4170 730 4170 
C 589 4170 467 4056 467 3909 
C 467 3769 582 3648 730 3648 
C 870 3648 992 3763 992 3909 
z
M 243 2706 
L 243 2541 
C 602 2541 653 2502 653 2197 
L 653 427 
C 653 184 627 153 218 153 
L 218 -13 
C 371 0 646 0 806 0 
C 960 0 1222 0 1370 -13 
L 1370 153 
C 992 153 979 191 979 420 
L 979 2776 
L 243 2706 
z
" transform="scale(0.015625)"/>
       <path id="CMR17-6e" d="M 2656 1933 
C 2656 2259 2592 2790 1837 2790 
C 1331 2790 1069 2400 973 2144 
L 966 2144 
L 966 2790 
L 211 2720 
L 211 2554 
C 589 2554 646 2515 646 2208 
L 646 428 
C 646 184 621 153 211 153 
L 211 -13 
C 365 0 646 0 813 0 
C 979 0 1267 0 1421 -13 
L 1421 153 
C 1011 153 986 178 986 428 
L 986 1658 
C 986 2247 1344 2688 1792 2688 
C 2266 2688 2317 2266 2317 1958 
L 2317 428 
C 2317 184 2291 153 1882 153 
L 1882 -13 
C 2035 0 2317 0 2483 0 
C 2650 0 2938 0 3091 -13 
L 3091 153 
C 2682 153 2656 178 2656 428 
L 2656 1933 
z
" transform="scale(0.015625)"/>
       <path id="CMR17-67" d="M 710 1164 
C 832 1068 1043 960 1299 960 
C 1805 960 2240 1357 2240 1888 
C 2240 2054 2189 2310 1997 2509 
C 2176 2692 2438 2752 2586 2752 
C 2611 2752 2650 2752 2682 2734 
C 2656 2728 2598 2703 2598 2605 
C 2598 2527 2656 2471 2739 2471 
C 2835 2471 2886 2533 2886 2614 
C 2886 2731 2790 2854 2586 2854 
C 2330 2854 2106 2738 1926 2580 
C 1734 2753 1504 2816 1299 2816 
C 794 2816 358 2419 358 1888 
C 358 1522 570 1292 634 1228 
C 442 1004 442 743 442 711 
C 442 545 506 302 723 168 
C 390 85 128 -169 128 -486 
C 128 -943 736 -1280 1466 -1280 
C 2170 -1280 2803 -956 2803 -479 
C 2803 384 1856 384 1363 384 
C 1216 384 954 384 922 391 
C 723 423 589 602 589 826 
C 589 883 589 1024 710 1164 
z
M 1299 1068 
C 736 1068 736 1760 736 1889 
C 736 2016 736 2708 1299 2708 
C 1862 2708 1862 2016 1862 1889 
C 1862 1760 1862 1068 1299 1068 
z
M 1466 -1171 
C 826 -1171 384 -835 384 -486 
C 384 -289 493 -105 634 -4 
C 794 104 858 104 1293 104 
C 1818 104 2547 104 2547 -486 
C 2547 -835 2106 -1171 1466 -1171 
z
" transform="scale(0.015625)"/>
       <path id="CMR17-78" d="M 1664 1477 
C 1856 1726 2074 2006 2253 2216 
C 2464 2458 2707 2560 2989 2560 
L 2989 2726 
C 2880 2726 2656 2726 2541 2726 
C 2368 2726 2170 2726 2022 2732 
L 2022 2566 
C 2112 2553 2163 2489 2163 2400 
C 2163 2285 2099 2215 2067 2171 
L 1594 1573 
L 1030 2306 
C 973 2376 973 2388 973 2420 
C 973 2497 1037 2560 1146 2560 
L 1146 2732 
C 992 2726 717 2726 557 2726 
C 384 2726 179 2726 38 2732 
L 38 2560 
C 384 2560 461 2534 614 2343 
L 1350 1395 
C 1363 1382 1395 1344 1395 1325 
C 1395 1299 838 619 768 530 
C 480 185 179 160 6 160 
L 6 0 
C 115 0 339 0 454 0 
C 582 0 864 0 979 -6 
L 979 160 
C 941 166 838 179 838 325 
C 838 440 890 510 947 586 
L 1478 1236 
L 2035 512 
C 2086 442 2163 346 2163 301 
C 2163 211 2086 160 1984 160 
L 1984 -6 
C 2138 0 2413 0 2573 0 
C 2746 0 2950 0 3091 -6 
L 3091 160 
C 2771 160 2675 172 2522 370 
L 1664 1477 
z
" transform="scale(0.015625)"/>
       <path id="CMMI12-64" d="M 3219 4257 
C 3226 4282 3238 4320 3238 4352 
C 3238 4416 3174 4416 3162 4416 
C 3155 4416 2842 4388 2810 4380 
C 2701 4373 2605 4358 2490 4358 
C 2330 4345 2285 4339 2285 4224 
C 2285 4160 2336 4160 2426 4160 
C 2739 4160 2746 4103 2746 4040 
C 2746 4002 2733 3952 2726 3933 
L 2336 2395 
C 2266 2561 2093 2816 1760 2816 
C 1037 2816 256 1884 256 939 
C 256 307 627 -64 1062 -64 
C 1414 -64 1715 211 1894 422 
C 1958 45 2259 -64 2451 -64 
C 2643 -64 2797 51 2912 281 
C 3014 498 3104 888 3104 913 
C 3104 945 3078 971 3040 971 
C 2982 971 2976 939 2950 843 
C 2854 466 2733 64 2470 64 
C 2285 64 2272 229 2272 357 
C 2272 382 2272 515 2317 694 
L 3219 4257 
z
M 1926 760 
C 1894 651 1894 639 1805 517 
C 1664 338 1382 64 1082 64 
C 819 64 672 300 672 677 
C 672 1028 870 1743 992 2012 
C 1210 2459 1510 2689 1760 2689 
C 2182 2689 2266 2165 2266 2114 
C 2266 2108 2246 2024 2240 2012 
L 1926 760 
z
" transform="scale(0.015625)"/>
       <path id="CMR17-28" d="M 1958 -1561 
C 1958 -1555 1958 -1542 1939 -1523 
C 1645 -1224 858 -407 858 1581 
C 858 3569 1632 4379 1946 4697 
C 1946 4704 1958 4717 1958 4736 
C 1958 4755 1939 4768 1914 4768 
C 1843 4768 1299 4296 986 3594 
C 666 2887 576 2199 576 1588 
C 576 1128 621 351 1005 -471 
C 1312 -1135 1837 -1600 1914 -1600 
C 1946 -1600 1958 -1587 1958 -1561 
z
" transform="scale(0.015625)"/>
       <path id="CMMI12-d" d="M 2419 760 
C 2406 1071 2394 1561 2150 2133 
C 2022 2452 1805 2788 1338 2788 
C 550 2788 122 1790 122 1625 
C 122 1567 166 1567 186 1567 
C 243 1567 243 1580 275 1663 
C 410 2057 819 2368 1261 2368 
C 2150 2368 2278 1383 2278 754 
C 2278 352 2234 220 2195 92 
C 2074 -302 1862 -1090 1862 -1268 
C 1862 -1319 1882 -1376 1933 -1376 
C 2029 -1376 2086 -1166 2157 -912 
C 2310 -353 2349 -73 2381 181 
C 2400 334 2765 1384 3270 2382 
C 3315 2483 3405 2655 3405 2674 
C 3405 2680 3398 2725 3341 2725 
C 3328 2725 3296 2725 3283 2699 
C 3270 2687 3046 2254 2854 1822 
C 2758 1606 2630 1320 2419 760 
z
" transform="scale(0.015625)"/>
       <path id="CMMI12-6d" d="M 1318 1871 
C 1331 1910 1491 2229 1728 2433 
C 1894 2586 2112 2689 2362 2689 
C 2618 2689 2707 2497 2707 2242 
C 2707 2203 2707 2076 2630 1775 
L 2470 1118 
C 2419 926 2298 453 2285 383 
C 2259 287 2221 121 2221 96 
C 2221 6 2291 -64 2387 -64 
C 2579 -64 2611 83 2669 313 
L 3053 1839 
C 3066 1890 3398 2689 4102 2689 
C 4358 2689 4448 2497 4448 2242 
C 4448 1884 4198 1188 4058 805 
C 4000 651 3968 568 3968 453 
C 3968 166 4166 -64 4474 -64 
C 5069 -64 5293 875 5293 913 
C 5293 945 5267 971 5229 971 
C 5171 971 5165 952 5133 843 
C 4986 332 4749 64 4493 64 
C 4429 64 4326 64 4326 269 
C 4326 436 4403 640 4429 710 
C 4544 1018 4832 1773 4832 2145 
C 4832 2528 4608 2816 4122 2816 
C 3693 2816 3347 2574 3091 2197 
C 3072 2542 2861 2816 2381 2816 
C 1811 2816 1510 2415 1395 2255 
C 1376 2618 1114 2816 832 2816 
C 646 2816 499 2727 378 2484 
C 262 2254 173 1865 173 1839 
C 173 1814 198 1782 243 1782 
C 294 1782 301 1788 339 1935 
C 435 2312 557 2689 813 2689 
C 960 2689 1011 2586 1011 2395 
C 1011 2254 947 2005 902 1807 
L 723 1118 
C 698 996 627 709 595 594 
C 550 428 480 128 480 96 
C 480 6 550 -64 646 -64 
C 723 -64 813 -26 864 70 
C 877 102 934 326 966 453 
L 1107 1028 
L 1318 1871 
z
" transform="scale(0.015625)"/>
       <path id="CMR17-29" d="M 1683 1581 
C 1683 2040 1638 2817 1254 3639 
C 947 4303 422 4768 346 4768 
C 326 4768 301 4761 301 4729 
C 301 4717 307 4710 314 4697 
C 621 4378 1402 3568 1402 1584 
C 1402 -407 627 -1217 314 -1537 
C 307 -1549 301 -1556 301 -1568 
C 301 -1600 326 -1600 346 -1600 
C 416 -1600 960 -1128 1274 -426 
C 1594 281 1683 969 1683 1581 
z
" transform="scale(0.015625)"/>
      </defs>
      <use xlink:href="#CMR17-4c" transform="scale(0.996264)"/>
      <use xlink:href="#CMR17-6f" transform="translate(57.381408 0) scale(0.996264)"/>
      <use xlink:href="#CMR17-63" transform="translate(105.674324 0) scale(0.996264)"/>
      <use xlink:href="#CMR17-61" transform="translate(146.159984 0) scale(0.996264)"/>
      <use xlink:href="#CMR17-6c" transform="translate(191.850461 0) scale(0.996264)"/>
      <use xlink:href="#CMR17-73" transform="translate(246.797486 0) scale(0.996264)"/>
      <use xlink:href="#CMR17-63" transform="translate(282.598824 0) scale(0.996264)"/>
      <use xlink:href="#CMR17-61" transform="translate(323.084484 0) scale(0.996264)"/>
      <use xlink:href="#CMR17-6c" transform="translate(368.774961 0) scale(0.996264)"/>
      <use xlink:href="#CMR17-69" transform="translate(393.64602 0) scale(0.996264)"/>
      <use xlink:href="#CMR17-6e" transform="translate(418.517078 0) scale(0.996264)"/>
      <use xlink:href="#CMR17-67" transform="translate(469.412448 0) scale(0.996264)"/>
      <use xlink:href="#CMR17-65" transform="translate(545.178892 0) scale(0.996264)"/>
      <use xlink:href="#CMR17-78" transform="translate(585.664552 0) scale(0.996264)"/>
      <use xlink:href="#CMR17-70" transform="translate(633.957468 0) scale(0.996264)"/>
      <use xlink:href="#CMR17-6f" transform="translate(687.455276 0) scale(0.996264)"/>
      <use xlink:href="#CMR17-6e" transform="translate(733.145753 0) scale(0.996264)"/>
      <use xlink:href="#CMR17-65" transform="translate(784.041123 0) scale(0.996264)"/>
      <use xlink:href="#CMR17-6e" transform="translate(824.526784 0) scale(0.996264)"/>
      <use xlink:href="#CMR17-74" transform="translate(872.8197 0) scale(0.996264)"/>
      <use xlink:href="#CMR17-2c" transform="translate(908.100467 0) scale(0.996264)"/>
      <use xlink:href="#CMMI12-64" transform="translate(964.243006 48.260247) scale(0.697382)"/>
      <use xlink:href="#CMR17-6c" transform="translate(1011.348237 48.260247) scale(0.697382)"/>
      <use xlink:href="#CMR17-6f" transform="translate(1028.757896 48.260247) scale(0.697382)"/>
      <use xlink:href="#CMR17-67" transform="translate(1060.741078 48.260247) scale(0.697382)"/>
      <use xlink:href="#CMR17-28" transform="translate(1093.635075 48.260247) scale(0.697382)"/>
      <use xlink:href="#CMMI12-d" transform="translate(1118.331495 48.260247) scale(0.697382)"/>
      <use xlink:href="#CMMI12-6d" transform="translate(1153.750721 37.799551) scale(0.498132)"/>
      <use xlink:href="#CMR17-29" transform="translate(1196.912457 48.260247) scale(0.697382)"/>
      <use xlink:href="#CMMI12-64" transform="translate(978.780334 -34.355253) scale(0.697382)"/>
      <use xlink:href="#CMR17-6c" transform="translate(1025.885565 -34.355253) scale(0.697382)"/>
      <use xlink:href="#CMR17-6f" transform="translate(1043.295223 -34.355253) scale(0.697382)"/>
      <use xlink:href="#CMR17-67" transform="translate(1075.278405 -34.355253) scale(0.697382)"/>
      <use xlink:href="#CMR17-28" transform="translate(1108.172402 -34.355253) scale(0.697382)"/>
      <use xlink:href="#CMMI12-54" transform="translate(1132.868823 -34.355253) scale(0.697382)"/>
      <use xlink:href="#CMR17-29" transform="translate(1182.375145 -34.355253) scale(0.697382)"/>
      <path d="M 964.243006 22.914133 
L 1221.608878 22.914133 
L 1221.608878 26.899083 
L 964.243006 26.899083 
L 964.243006 22.914133 
z
"/>
     </g>
    </g>
   </g>
   <g id="line2d_59">
    <path d="M 72.220481 250.680892 
L 410.4 250.680892 
" clip-path="url(#pade950b1bf)" style="fill: none; stroke-dasharray: 3.7,1.6; stroke-dashoffset: 0; stroke: #0000ff; stroke-opacity: 0.5"/>
   </g>
   <g id="line2d_60">
    <path d="M 72.220481 139.599695 
L 410.4 139.599695 
" clip-path="url(#pade950b1bf)" style="fill: none; stroke-dasharray: 6.4,1.6,1,1.6; stroke-dashoffset: 0; stroke: #ff0000; stroke-opacity: 0.5"/>
   </g>
   <g id="line2d_61">
    <path d="M 87.592278 318.13937 
L 94.606983 293.832429 
L 101.621688 244.75037 
L 108.636393 339.676684 
L 115.651098 264.457814 
L 122.665803 292.05723 
L 129.680508 256.554236 
L 136.695213 318.956352 
L 143.709918 274.619152 
L 150.724623 282.152468 
L 157.739328 278.3625 
L 164.301563 262.255579 
L 172.176691 263.03004 
L 180.73581 255.862969 
L 188.213557 255.233542 
L 197.590178 253.725101 
L 209.20418 257.785556 
L 220.818181 254.281671 
L 232.432183 254.041096 
L 244.046184 254.890473 
L 255.660186 253.411831 
L 267.274187 253.671422 
L 278.888189 255.753032 
L 290.50219 257.679883 
L 302.116192 260.235452 
L 313.730193 261.376567 
L 325.344195 266.47159 
L 336.958196 277.039071 
L 348.572198 292.421788 
L 360.186199 306.949312 
L 371.800201 319.937979 
L 383.414202 330.639004 
L 395.028204 338.999756 
" clip-path="url(#pade950b1bf)" style="fill: none; stroke: #ff6600; stroke-width: 1.3; stroke-linecap: square"/>
   </g>
   <g id="line2d_62">
    <path d="M 87.592278 60.508768 
L 94.606983 17.509896 
L 101.621688 88.442627 
L 108.636393 23.999407 
L 115.651098 124.618837 
L 122.665803 118.631664 
L 129.680508 78.860845 
L 136.695213 107.737619 
L 143.709918 124.628145 
L 150.724623 124.802311 
L 157.739328 118.982409 
L 164.301563 134.286682 
L 172.176691 129.795872 
L 180.73581 146.144944 
L 188.213557 134.006447 
L 197.590178 145.467302 
L 209.20418 147.085442 
L 220.818181 146.160251 
L 232.432183 153.625753 
L 244.046184 153.662373 
L 255.660186 155.349543 
L 267.274187 163.778504 
L 278.888189 168.85405 
L 290.50219 178.440971 
L 302.116192 190.831064 
L 313.730193 195.185649 
L 325.344195 207.27183 
L 336.958196 229.648756 
L 348.572198 261.679051 
L 360.186199 286.389444 
L 371.800201 306.581328 
L 383.414202 322.109389 
L 395.028204 333.572239 
" clip-path="url(#pade950b1bf)" style="fill: none; stroke: #3380ff; stroke-width: 2; stroke-linecap: square"/>
   </g>
   <g id="line2d_63">
    <path d="M 87.592278 329.906548 
L 94.606983 305.843696 
L 101.621688 240.368891 
L 108.636393 345.257253 
L 115.651098 242.469797 
L 122.665803 298.617347 
L 129.680508 251.165519 
L 136.695213 307.891477 
L 143.709918 251.531445 
L 150.724623 281.027037 
L 157.739328 269.256066 
L 164.301563 257.218739 
L 172.176691 264.813964 
L 180.73581 245.01752 
L 188.213557 256.621137 
L 197.590178 254.803323 
L 209.20418 254.76072 
L 220.818181 256.185794 
L 232.432183 255.203049 
L 244.046184 256.780375 
L 255.660186 255.584967 
L 267.274187 257.251585 
L 278.888189 260.138532 
L 290.50219 264.81675 
L 302.116192 270.526898 
L 313.730193 271.552835 
L 325.344195 269.014987 
L 336.958196 264.82174 
L 348.572198 277.22137 
L 360.186199 292.4512 
L 371.800201 308.647869 
L 383.414202 322.79685 
L 395.028204 333.968332 
" clip-path="url(#pade950b1bf)" style="fill: none; stroke: #ff5500; stroke-width: 1.3; stroke-linecap: square"/>
   </g>
   <g id="line2d_64">
    <path d="M 87.592278 73.775207 
L 94.606983 80.777992 
L 101.621688 121.574902 
L 108.636393 72.995765 
L 115.651098 145.27596 
L 122.665803 130.744932 
L 129.680508 107.574732 
L 136.695213 120.490011 
L 143.709918 138.95784 
L 150.724623 134.656138 
L 157.739328 132.995116 
L 164.301563 144.377145 
L 172.176691 137.70893 
L 180.73581 152.616918 
L 188.213557 141.390692 
L 197.590178 151.988337 
L 209.20418 155.761162 
L 220.818181 156.031223 
L 232.432183 166.317106 
L 244.046184 170.172354 
L 255.660186 176.973037 
L 267.274187 188.034634 
L 278.888189 197.416356 
L 290.50219 209.003872 
L 302.116192 222.674043 
L 313.730193 229.927434 
L 325.344195 238.85656 
L 336.958196 250.078235 
L 348.572198 271.64549 
L 360.186199 291.151571 
L 371.800201 308.82768 
L 383.414202 323.477328 
L 395.028204 334.675604 
" clip-path="url(#pade950b1bf)" style="fill: none; stroke: #2d76f2; stroke-width: 2; stroke-linecap: square"/>
   </g>
   <g id="line2d_65">
    <path d="M 87.592278 313.664282 
L 94.606983 300.481823 
L 101.621688 242.601014 
L 108.636393 323.864142 
L 115.651098 258.034918 
L 122.665803 283.291705 
L 129.680508 268.429715 
L 136.695213 283.333975 
L 143.709918 266.18131 
L 150.724623 282.521548 
L 157.739328 270.174397 
L 164.301563 265.419674 
L 172.176691 264.562338 
L 180.73581 241.069889 
L 188.213557 261.531089 
L 197.590178 257.641741 
L 209.20418 257.296911 
L 220.818181 252.616115 
L 232.432183 260.335475 
L 244.046184 257.993638 
L 255.660186 259.25821 
L 267.274187 260.378136 
L 278.888189 267.446829 
L 290.50219 269.273687 
L 302.116192 270.468037 
L 313.730193 264.59084 
L 325.344195 259.126942 
L 336.958196 260.270769 
L 348.572198 275.596932 
L 360.186199 292.97906 
L 371.800201 310.061815 
L 383.414202 324.501348 
L 395.028204 335.161556 
" clip-path="url(#pade950b1bf)" style="fill: none; stroke: #ff4400; stroke-width: 1.3; stroke-linecap: square"/>
   </g>
   <g id="line2d_66">
    <path d="M 87.592278 93.475837 
L 94.606983 110.627974 
L 101.621688 133.707174 
L 108.636393 88.939455 
L 115.651098 154.185313 
L 122.665803 139.272975 
L 129.680508 122.902332 
L 136.695213 129.172231 
L 143.709918 143.84348 
L 150.724623 141.251378 
L 157.739328 139.698139 
L 164.301563 149.838122 
L 172.176691 143.196072 
L 180.73581 157.732048 
L 188.213557 147.983116 
L 197.590178 159.097204 
L 209.20418 165.958594 
L 220.818181 167.603484 
L 232.432183 180.540545 
L 244.046184 187.018522 
L 255.660186 196.526274 
L 267.274187 207.574818 
L 278.888189 217.831655 
L 290.50219 228.420166 
L 302.116192 238.870557 
L 313.730193 240.886486 
L 325.344195 245.252589 
L 336.958196 254.574531 
L 348.572198 274.161982 
L 360.186199 293.131014 
L 371.800201 310.475979 
L 383.414202 324.884424 
L 395.028204 335.639724 
" clip-path="url(#pade950b1bf)" style="fill: none; stroke: #266ce6; stroke-width: 2; stroke-linecap: square"/>
   </g>
   <g id="line2d_67">
    <path d="M 87.592278 330.296497 
L 94.606983 314.912576 
L 101.621688 225.749348 
L 108.636393 349.261392 
L 115.651098 235.908278 
L 122.665803 275.362923 
L 129.680508 266.314938 
L 136.695213 287.568302 
L 143.709918 266.164673 
L 150.724623 259.146585 
L 157.739328 302.682678 
L 164.301563 216.494391 
L 172.176691 270.404577 
L 180.73581 245.877869 
L 188.213557 250.805031 
L 197.590178 254.113644 
L 209.20418 262.821936 
L 220.818181 253.547687 
L 232.432183 262.308513 
L 244.046184 259.773969 
L 255.660186 261.208816 
L 267.274187 264.287353 
L 278.888189 267.726975 
L 290.50219 266.022291 
L 302.116192 265.137117 
L 313.730193 258.14447 
L 325.344195 253.686478 
L 336.958196 257.647428 
L 348.572198 274.880744 
L 360.186199 293.463208 
L 371.800201 310.811293 
L 383.414202 325.414935 
L 395.028204 336.105392 
" clip-path="url(#pade950b1bf)" style="fill: none; stroke: #fe3300; stroke-width: 1.3; stroke-linecap: square"/>
   </g>
   <g id="line2d_68">
    <path d="M 87.592278 105.922475 
L 94.606983 124.866115 
L 101.621688 143.493998 
L 108.636393 99.916212 
L 115.651098 157.655804 
L 122.665803 144.325929 
L 129.680508 131.904019 
L 136.695213 135.331519 
L 143.709918 147.865092 
L 150.724623 144.539523 
L 157.739328 145.630096 
L 164.301563 155.184178 
L 172.176691 148.673215 
L 180.73581 163.954557 
L 188.213557 155.028513 
L 197.590178 166.6863 
L 209.20418 176.761065 
L 220.818181 179.409097 
L 232.432183 193.560492 
L 244.046184 201.450518 
L 255.660186 211.598497 
L 267.274187 221.685603 
L 278.888189 230.383615 
L 290.50219 237.637084 
L 302.116192 244.028808 
L 313.730193 244.198617 
L 325.344195 248.113927 
L 336.958196 257.452326 
L 348.572198 276.103253 
L 360.186199 294.668152 
L 371.800201 311.700156 
L 383.414202 325.807949 
L 395.028204 336.208147 
" clip-path="url(#pade950b1bf)" style="fill: none; stroke: #2063d9; stroke-width: 2; stroke-linecap: square"/>
   </g>
   <g id="line2d_69">
    <path d="M 87.592278 316.759004 
L 94.606983 297.251006 
L 101.621688 251.347346 
L 108.636393 312.113986 
L 115.651098 252.236814 
L 122.665803 291.997135 
L 129.680508 274.19871 
L 136.695213 283.036527 
L 143.709918 264.602404 
L 150.724623 259.978454 
L 157.739328 274.248492 
L 164.301563 259.656143 
L 172.176691 266.819388 
L 180.73581 244.134132 
L 188.213557 263.679405 
L 197.590178 256.524782 
L 209.20418 262.248 
L 220.818181 257.437203 
L 232.432183 261.935685 
L 244.046184 263.588286 
L 255.660186 264.014274 
L 267.274187 264.540614 
L 278.888189 265.524416 
L 290.50219 264.378214 
L 302.116192 263.819485 
L 313.730193 257.271434 
L 325.344195 254.538829 
L 336.958196 259.75044 
L 348.572198 276.989057 
L 360.186199 295.227244 
L 371.800201 312.166686 
L 383.414202 326.195979 
L 395.028204 336.316429 
" clip-path="url(#pade950b1bf)" style="fill: none; stroke: #ee2600; stroke-width: 1.3; stroke-linecap: square"/>
   </g>
   <g id="line2d_70">
    <path d="M 87.592278 114.699928 
L 94.606983 135.0161 
L 101.621688 148.687966 
L 108.636393 108.739512 
L 115.651098 158.89167 
L 122.665803 147.442381 
L 129.680508 138.472688 
L 136.695213 140.818024 
L 143.709918 151.447195 
L 150.724623 146.007953 
L 157.739328 151.712089 
L 164.301563 161.231121 
L 172.176691 154.099495 
L 180.73581 170.259873 
L 188.213557 162.502172 
L 197.590178 174.842963 
L 209.20418 187.110517 
L 220.818181 190.342219 
L 232.432183 204.84705 
L 244.046184 213.290653 
L 255.660186 222.953794 
L 267.274187 230.622621 
L 278.888189 236.338748 
L 290.50219 240.60423 
L 302.116192 246.055205 
L 313.730193 246.286204 
L 325.344195 250.552217 
L 336.958196 259.489368 
L 348.572198 277.680743 
L 360.186199 296.0068 
L 371.800201 312.751694 
L 383.414202 326.503577 
L 395.028204 336.581882 
" clip-path="url(#pade950b1bf)" style="fill: none; stroke: #1a59cc; stroke-width: 2; stroke-linecap: square"/>
   </g>
   <g id="line2d_71">
    <path d="M 87.592278 312.12435 
L 94.606983 316.139245 
L 101.621688 232.840705 
L 108.636393 339.600483 
L 115.651098 224.424428 
L 122.665803 286.351563 
L 129.680508 270.947006 
L 136.695213 293.481334 
L 143.709918 254.422453 
L 150.724623 249.29011 
L 157.739328 275.168555 
L 164.301563 256.976804 
L 172.176691 260.730892 
L 180.73581 249.304647 
L 188.213557 263.039083 
L 197.590178 250.999795 
L 209.20418 268.238259 
L 220.818181 256.306051 
L 232.432183 261.652681 
L 244.046184 265.282987 
L 255.660186 263.986592 
L 267.274187 262.627145 
L 278.888189 263.387935 
L 290.50219 262.673307 
L 302.116192 259.542798 
L 313.730193 252.376738 
L 325.344195 251.554667 
L 336.958196 258.914644 
L 348.572198 277.208622 
L 360.186199 295.84349 
L 371.800201 312.684013 
L 383.414202 326.455519 
L 395.028204 346.597911 
" clip-path="url(#pade950b1bf)" style="fill: none; stroke: #dd1a00; stroke-width: 1.3; stroke-linecap: square"/>
   </g>
   <g id="line2d_72">
    <path d="M 87.592278 121.652727 
L 94.606983 141.219458 
L 101.621688 151.491953 
L 108.636393 116.433795 
L 115.651098 158.629638 
L 122.665803 149.919749 
L 129.680508 144.802736 
L 136.695213 145.938066 
L 143.709918 154.888949 
L 150.724623 147.190618 
L 157.739328 158.310747 
L 164.301563 167.349534 
L 172.176691 159.763917 
L 180.73581 176.810607 
L 188.213557 169.976594 
L 197.590178 182.704234 
L 209.20418 196.617474 
L 220.818181 199.906604 
L 232.432183 214.2252 
L 244.046184 222.703658 
L 255.660186 230.57449 
L 267.274187 235.2174 
L 278.888189 238.818558 
L 290.50219 242.460766 
L 302.116192 248.085155 
L 313.730193 248.157633 
L 325.344195 251.972192 
L 336.958196 260.710465 
L 348.572198 278.728944 
L 360.186199 296.880539 
L 371.800201 313.360646 
L 383.414202 326.875067 
L 395.028204 336.818474 
" clip-path="url(#pade950b1bf)" style="fill: none; stroke: #1350bf; stroke-width: 2; stroke-linecap: square"/>
   </g>
   <g id="line2d_73">
    <path d="M 87.592278 319.333674 
L 94.606983 305.684127 
L 101.621688 234.065442 
L 108.636393 327.805593 
L 115.651098 244.342128 
L 122.665803 285.67186 
L 129.680508 271.269951 
L 136.695213 286.010561 
L 143.709918 258.520733 
L 150.724623 261.867644 
L 157.739328 274.661691 
L 164.301563 269.232107 
L 172.176691 262.344463 
L 180.73581 241.947159 
L 188.213557 266.451393 
L 197.590178 258.511944 
L 209.20418 268.582662 
L 220.818181 259.214935 
L 232.432183 259.253037 
L 244.046184 268.551184 
L 255.660186 263.776296 
L 267.274187 261.217986 
L 278.888189 262.021692 
L 290.50219 262.056173 
L 302.116192 259.477254 
L 313.730193 253.155419 
L 325.344195 253.14578 
L 336.958196 260.735387 
L 348.572198 278.636772 
L 360.186199 296.852223 
L 371.800201 313.611842 
L 383.414202 327.110784 
L 395.028204 336.806913 
" clip-path="url(#pade950b1bf)" style="fill: none; stroke: #cc0d00; stroke-width: 1.3; stroke-linecap: square"/>
   </g>
   <g id="line2d_74">
    <path d="M 87.592278 127.52256 
L 94.606983 145.437408 
L 101.621688 153.267265 
L 108.636393 122.87914 
L 115.651098 157.210233 
L 122.665803 152.94396 
L 129.680508 150.65967 
L 136.695213 150.985019 
L 143.709918 158.509133 
L 150.724623 148.479744 
L 157.739328 164.418121 
L 164.301563 173.345949 
L 172.176691 165.395176 
L 180.73581 183.417625 
L 188.213557 177.195906 
L 197.590178 190.073278 
L 209.20418 205.006567 
L 220.818181 208.148218 
L 232.432183 222.143547 
L 244.046184 229.365723 
L 255.660186 234.604357 
L 267.274187 236.731602 
L 278.888189 239.97702 
L 290.50219 243.795694 
L 302.116192 249.864982 
L 313.730193 249.806936 
L 325.344195 253.426588 
L 336.958196 262.093119 
L 348.572198 279.916389 
L 360.186199 297.735761 
L 371.800201 313.888598 
L 383.414202 327.201606 
L 395.028204 337.059558 
" clip-path="url(#pade950b1bf)" style="fill: none; stroke: #0d46b2; stroke-width: 2; stroke-linecap: square"/>
   </g>
   <g id="line2d_75">
    <path d="M 87.592278 313.429066 
L 94.606983 295.935029 
L 101.621688 227.100299 
L 108.636393 331.93376 
L 115.651098 257.355004 
L 122.665803 270.454698 
L 129.680508 289.163932 
L 136.695213 265.642487 
L 143.709918 266.637339 
L 150.724623 261.583937 
L 157.739328 263.887966 
L 164.301563 265.773602 
L 172.176691 263.578502 
L 180.73581 241.147846 
L 188.213557 254.193748 
L 197.590178 258.362157 
L 209.20418 266.765339 
L 220.818181 261.877047 
L 232.432183 267.006001 
L 244.046184 263.390133 
L 255.660186 261.454804 
L 267.274187 262.380485 
L 278.888189 261.928775 
L 290.50219 259.676142 
L 302.116192 255.620809 
L 313.730193 250.600726 
L 325.344195 252.015023 
L 336.958196 260.651978 
L 348.572198 279.063549 
L 360.186199 297.286235 
L 371.800201 313.821727 
L 383.414202 327.404424 
L 395.028204 338.544691 
" clip-path="url(#pade950b1bf)" style="fill: none; stroke: #b30908; stroke-width: 1.3; stroke-linecap: square"/>
   </g>
   <g id="line2d_76">
    <path d="M 87.592278 316.53698 
L 94.606983 307.350499 
L 101.621688 230.245902 
L 108.636393 331.673668 
L 115.651098 247.718645 
L 122.665803 291.898562 
L 129.680508 267.195015 
L 136.695213 296.636734 
L 143.709918 247.561707 
L 150.724623 257.066463 
L 157.739328 275.263872 
L 164.301563 265.236431 
L 172.176691 266.587895 
L 180.73581 245.455673 
L 188.213557 267.323524 
L 197.590178 259.144886 
L 209.20418 267.348572 
L 220.818181 260.179068 
L 232.432183 265.394257 
L 244.046184 262.855926 
L 255.660186 260.560121 
L 267.274187 261.254326 
L 278.888189 261.021823 
L 290.50219 258.359404 
L 302.116192 257.843877 
L 313.730193 252.777029 
L 325.344195 254.455027 
L 336.958196 263.441311 
L 348.572198 281.377653 
L 360.186199 298.61807 
L 371.800201 315.103513 
L 383.414202 327.840811 
L 395.028204 337.130536 
" clip-path="url(#pade950b1bf)" style="fill: none; stroke: #990411; stroke-width: 1.3; stroke-linecap: square"/>
   </g>
   <g id="line2d_77">
    <path d="M 87.592278 137.283134 
L 94.606983 151.23648 
L 101.621688 155.908421 
L 108.636393 133.31353 
L 115.651098 154.469752 
L 122.665803 158.973988 
L 129.680508 160.643964 
L 136.695213 161.566482 
L 143.709918 165.463096 
L 150.724623 152.048004 
L 157.739328 176.990792 
L 164.301563 184.131422 
L 172.176691 176.973088 
L 180.73581 195.814724 
L 188.213557 190.184353 
L 197.590178 203.222683 
L 209.20418 218.71071 
L 220.818181 221.391411 
L 232.432183 232.688193 
L 244.046184 235.81286 
L 255.660186 237.230106 
L 267.274187 238.586776 
L 278.888189 242.497617 
L 290.50219 246.272498 
L 302.116192 252.388831 
L 313.730193 251.784839 
L 325.344195 255.216127 
L 336.958196 264.007726 
L 348.572198 281.604724 
L 360.186199 298.938474 
L 371.800201 314.653831 
L 383.414202 327.679272 
L 395.028204 337.36419 
" clip-path="url(#pade950b1bf)" style="fill: none; stroke: #003399; stroke-width: 2; stroke-linecap: square"/>
   </g>
   <g id="line2d_78">
    <path d="M 87.592278 329.208241 
L 94.606983 302.467054 
L 101.621688 227.491073 
L 108.636393 333.313242 
L 115.651098 239.600128 
L 122.665803 264.434994 
L 129.680508 284.448358 
L 136.695213 285.754065 
L 143.709918 248.978827 
L 150.724623 253.796232 
L 157.739328 268.114269 
L 164.301563 266.318604 
L 172.176691 269.700802 
L 180.73581 236.501414 
L 188.213557 261.782325 
L 197.590178 259.263659 
L 209.20418 268.770679 
L 220.818181 259.183133 
L 232.432183 265.336121 
L 244.046184 263.824201 
L 255.660186 263.140166 
L 267.274187 260.819303 
L 278.888189 258.861321 
L 290.50219 253.899331 
L 302.116192 251.991397 
L 313.730193 248.38166 
L 325.344195 251.896186 
L 336.958196 261.963077 
L 348.572198 280.738776 
L 360.186199 298.552471 
L 371.800201 314.328155 
L 383.414202 327.502059 
L 395.028204 337.341247 
" clip-path="url(#pade950b1bf)" style="fill: none; stroke: #800019; stroke-width: 1.3; stroke-linecap: square"/>
   </g>
   <g id="patch_3">
    <path d="M 72.220481 361.762089 
L 72.220481 28.518498 
" style="fill: none; stroke: #000000; stroke-width: 0.8; stroke-linejoin: miter; stroke-linecap: square"/>
   </g>
   <g id="patch_4">
    <path d="M 410.4 361.762089 
L 410.4 28.518498 
" style="fill: none; stroke: #000000; stroke-width: 0.8; stroke-linejoin: miter; stroke-linecap: square"/>
   </g>
   <g id="patch_5">
    <path d="M 72.220481 361.762089 
L 410.4 361.762089 
" style="fill: none; stroke: #000000; stroke-width: 0.8; stroke-linejoin: miter; stroke-linecap: square"/>
   </g>
   <g id="patch_6">
    <path d="M 72.220481 28.518498 
L 410.4 28.518498 
" style="fill: none; stroke: #000000; stroke-width: 0.8; stroke-linejoin: miter; stroke-linecap: square"/>
   </g>
   <g id="legend_1">
    <g id="line2d_79">
     <path d="M 314.346213 44.593237 
L 326.346213 44.593237 
L 338.346213 44.593237 
" style="fill: none; stroke-dasharray: 3.7,1.6; stroke-dashoffset: 0; stroke: #0000ff; stroke-opacity: 0.5"/>
    </g>
    <g id="text_15">
     <!-- $T^2$ scaling -->
     <g transform="translate(347.946213 48.793237) scale(0.12 -0.12)">
      <use xlink:href="#CMMI12-54" transform="scale(0.996264)"/>
      <use xlink:href="#CMR17-32" transform="translate(70.723632 36.153639) scale(0.697382)"/>
      <use xlink:href="#CMR17-73" transform="translate(133.280913 0) scale(0.996264)"/>
      <use xlink:href="#CMR17-63" transform="translate(169.08225 0) scale(0.996264)"/>
      <use xlink:href="#CMR17-61" transform="translate(209.567911 0) scale(0.996264)"/>
      <use xlink:href="#CMR17-6c" transform="translate(255.258388 0) scale(0.996264)"/>
      <use xlink:href="#CMR17-69" transform="translate(280.129446 0) scale(0.996264)"/>
      <use xlink:href="#CMR17-6e" transform="translate(305.000505 0) scale(0.996264)"/>
      <use xlink:href="#CMR17-67" transform="translate(355.895874 0) scale(0.996264)"/>
     </g>
    </g>
    <g id="line2d_80">
     <path d="M 314.346213 62.392572 
L 326.346213 62.392572 
L 338.346213 62.392572 
" style="fill: none; stroke-dasharray: 6.4,1.6,1,1.6; stroke-dashoffset: 0; stroke: #ff0000; stroke-opacity: 0.5"/>
    </g>
    <g id="text_16">
     <!-- $T^4$ scaling -->
     <g transform="translate(347.946213 66.592572) scale(0.12 -0.12)">
      <use xlink:href="#CMMI12-54" transform="scale(0.996264)"/>
      <use xlink:href="#CMR17-34" transform="translate(70.723632 36.153639) scale(0.697382)"/>
      <use xlink:href="#CMR17-73" transform="translate(133.280913 0) scale(0.996264)"/>
      <use xlink:href="#CMR17-63" transform="translate(169.08225 0) scale(0.996264)"/>
      <use xlink:href="#CMR17-61" transform="translate(209.567911 0) scale(0.996264)"/>
      <use xlink:href="#CMR17-6c" transform="translate(255.258388 0) scale(0.996264)"/>
      <use xlink:href="#CMR17-69" transform="translate(280.129446 0) scale(0.996264)"/>
      <use xlink:href="#CMR17-6e" transform="translate(305.000505 0) scale(0.996264)"/>
      <use xlink:href="#CMR17-67" transform="translate(355.895874 0) scale(0.996264)"/>
     </g>
    </g>
   </g>
  </g>
 </g>
 <defs>
  <clipPath id="pade950b1bf">
   <rect x="72.220481" y="28.518498" width="338.179519" height="333.243591"/>
  </clipPath>
 </defs>
</svg>
