<?xml version="1.0" encoding="utf-8" standalone="no"?>
<!DOCTYPE svg PUBLIC "-//W3C//DTD SVG 1.1//EN"
  "http://www.w3.org/Graphics/SVG/1.1/DTD/svg11.dtd">
<svg xmlns:xlink="http://www.w3.org/1999/xlink" width="432pt" height="432pt" viewBox="0 0 432 432" xmlns="http://www.w3.org/2000/svg" version="1.1">
 <metadata>
  <rdf:RDF xmlns:dc="http://purl.org/dc/elements/1.1/" xmlns:cc="http://creativecommons.org/ns#" xmlns:rdf="http://www.w3.org/1999/02/22-rdf-syntax-ns#">
   <cc:Work>
    <dc:type rdf:resource="http://purl.org/dc/dcmitype/StillImage"/>
    <dc:date>2026-01-27T06:18:53.185544</dc:date>
    <dc:format>image/svg+xml</dc:format>
    <dc:creator>
     <cc:Agent>
      <dc:title>Matplotlib v3.8.4, https://matplotlib.org/</dc:title>
     </cc:Agent>
    </dc:creator>
   </cc:Work>
  </rdf:RDF>
 </metadata>
 <defs>
  <style type="text/css">*{stroke-linejoin: round; stroke-linecap: butt}</style>
 </defs>
 <g id="figure_1">
  <g id="patch_1">
   <path d="M 0 432 
L 432 432 
L 432 0 
L 0 0 
z
" style="fill: #ffffff"/>
  </g>
  <g id="axes_1">
   <g id="patch_2">
    <path d="M 72.220481 361.762089 
L 410.4 361.762089 
L 410.4 28.518498 
L 72.220481 28.518498 
z
" style="fill: #ffffff"/>
   </g>
   <g id="matplotlib.axis_1">
    <g id="xtick_1">
     <g id="line2d_1">
      <path d="M 84.084925 361.762089 
L 84.084925 28.518498 
" clip-path="url(#p9bf3f2e997)" style="fill: none; stroke-dasharray: 2.96,1.28; stroke-dashoffset: 0; stroke: #b0b0b0; stroke-opacity: 0.3; stroke-width: 0.8"/>
     </g>
     <g id="line2d_2">
      <defs>
       <path id="m8bd38d5a3e" d="M 0 0 
L 0 3.5 
" style="stroke: #000000; stroke-width: 0.8"/>
      </defs>
      <g>
       <use xlink:href="#m8bd38d5a3e" x="84.084925" y="361.762089" style="stroke: #000000; stroke-width: 0.8"/>
      </g>
     </g>
     <g id="text_1">
      <!-- $\mathdefault{10^{-4}}$ -->
      <g transform="translate(66.108506 382.599086) scale(0.2 -0.2)">
       <defs>
        <path id="CMR17-31" d="M 1702 4058 
C 1702 4192 1696 4192 1606 4192 
C 1357 3916 979 3827 621 3827 
C 602 3827 570 3827 563 3808 
C 557 3795 557 3782 557 3648 
C 755 3648 1088 3686 1344 3839 
L 1344 461 
C 1344 236 1331 160 781 160 
L 589 160 
L 589 0 
C 896 0 1216 0 1523 0 
C 1830 0 2150 0 2458 0 
L 2458 160 
L 2266 160 
C 1715 160 1702 230 1702 458 
L 1702 4058 
z
" transform="scale(0.015625)"/>
        <path id="CMR17-30" d="M 2688 2025 
C 2688 2416 2682 3080 2413 3591 
C 2176 4039 1798 4198 1466 4198 
C 1158 4198 768 4058 525 3597 
C 269 3118 243 2524 243 2025 
C 243 1661 250 1106 448 619 
C 723 -39 1216 -128 1466 -128 
C 1760 -128 2208 -7 2470 600 
C 2662 1042 2688 1559 2688 2025 
z
M 1466 -26 
C 1056 -26 813 325 723 812 
C 653 1188 653 1738 653 2096 
C 653 2588 653 2997 736 3387 
C 858 3929 1216 4096 1466 4096 
C 1728 4096 2067 3923 2189 3400 
C 2272 3036 2278 2607 2278 2096 
C 2278 1680 2278 1169 2202 792 
C 2067 95 1690 -26 1466 -26 
z
" transform="scale(0.015625)"/>
        <path id="CMSY10-0" d="M 4218 1472 
C 4326 1472 4442 1472 4442 1600 
C 4442 1728 4326 1728 4218 1728 
L 755 1728 
C 646 1728 531 1728 531 1600 
C 531 1472 646 1472 755 1472 
L 4218 1472 
z
" transform="scale(0.015625)"/>
        <path id="CMR17-34" d="M 2150 4122 
C 2150 4256 2144 4256 2029 4256 
L 128 1254 
L 128 1088 
L 1779 1088 
L 1779 457 
C 1779 224 1766 160 1318 160 
L 1197 160 
L 1197 0 
C 1402 0 1747 0 1965 0 
C 2182 0 2528 0 2733 0 
L 2733 160 
L 2611 160 
C 2163 160 2150 224 2150 457 
L 2150 1088 
L 2803 1088 
L 2803 1254 
L 2150 1254 
L 2150 4122 
z
M 1798 3703 
L 1798 1254 
L 256 1254 
L 1798 3703 
z
" transform="scale(0.015625)"/>
       </defs>
       <use xlink:href="#CMR17-31" transform="scale(0.996264)"/>
       <use xlink:href="#CMR17-30" transform="translate(45.690477 0) scale(0.996264)"/>
       <use xlink:href="#CMSY10-0" transform="translate(91.380954 36.153639) scale(0.697382)"/>
       <use xlink:href="#CMR17-34" transform="translate(145.621947 36.153639) scale(0.697382)"/>
      </g>
     </g>
    </g>
    <g id="xtick_2">
     <g id="line2d_3">
      <path d="M 161.246681 361.762089 
L 161.246681 28.518498 
" clip-path="url(#p9bf3f2e997)" style="fill: none; stroke-dasharray: 2.96,1.28; stroke-dashoffset: 0; stroke: #b0b0b0; stroke-opacity: 0.3; stroke-width: 0.8"/>
     </g>
     <g id="line2d_4">
      <g>
       <use xlink:href="#m8bd38d5a3e" x="161.246681" y="361.762089" style="stroke: #000000; stroke-width: 0.8"/>
      </g>
     </g>
     <g id="text_2">
      <!-- $\mathdefault{10^{-3}}$ -->
      <g transform="translate(143.270262 382.599086) scale(0.2 -0.2)">
       <defs>
        <path id="CMR17-33" d="M 1414 2157 
C 1984 2157 2234 1662 2234 1090 
C 2234 320 1824 25 1453 25 
C 1114 25 563 194 390 693 
C 422 680 454 680 486 680 
C 640 680 755 782 755 948 
C 755 1133 614 1216 486 1216 
C 378 1216 211 1165 211 926 
C 211 335 787 -128 1466 -128 
C 2176 -128 2720 430 2720 1085 
C 2720 1707 2208 2157 1600 2227 
C 2086 2328 2554 2756 2554 3329 
C 2554 3820 2048 4179 1472 4179 
C 890 4179 378 3829 378 3329 
C 378 3110 544 3072 627 3072 
C 762 3072 877 3155 877 3321 
C 877 3486 762 3569 627 3569 
C 602 3569 570 3569 544 3557 
C 730 3959 1235 4032 1459 4032 
C 1683 4032 2106 3925 2106 3320 
C 2106 3143 2080 2828 1862 2550 
C 1670 2304 1453 2304 1242 2284 
C 1210 2284 1062 2269 1037 2269 
C 992 2263 966 2257 966 2208 
C 966 2163 973 2157 1101 2157 
L 1414 2157 
z
" transform="scale(0.015625)"/>
       </defs>
       <use xlink:href="#CMR17-31" transform="scale(0.996264)"/>
       <use xlink:href="#CMR17-30" transform="translate(45.690477 0) scale(0.996264)"/>
       <use xlink:href="#CMSY10-0" transform="translate(91.380954 36.153639) scale(0.697382)"/>
       <use xlink:href="#CMR17-33" transform="translate(145.621947 36.153639) scale(0.697382)"/>
      </g>
     </g>
    </g>
    <g id="xtick_3">
     <g id="line2d_5">
      <path d="M 238.408437 361.762089 
L 238.408437 28.518498 
" clip-path="url(#p9bf3f2e997)" style="fill: none; stroke-dasharray: 2.96,1.28; stroke-dashoffset: 0; stroke: #b0b0b0; stroke-opacity: 0.3; stroke-width: 0.8"/>
     </g>
     <g id="line2d_6">
      <g>
       <use xlink:href="#m8bd38d5a3e" x="238.408437" y="361.762089" style="stroke: #000000; stroke-width: 0.8"/>
      </g>
     </g>
     <g id="text_3">
      <!-- $\mathdefault{10^{-2}}$ -->
      <g transform="translate(220.432017 382.599086) scale(0.2 -0.2)">
       <defs>
        <path id="CMR17-32" d="M 2669 989 
L 2554 989 
C 2490 536 2438 459 2413 420 
C 2381 369 1920 369 1830 369 
L 602 369 
C 832 619 1280 1072 1824 1597 
C 2214 1967 2669 2402 2669 3035 
C 2669 3790 2067 4224 1395 4224 
C 691 4224 262 3604 262 3030 
C 262 2780 448 2748 525 2748 
C 589 2748 781 2787 781 3010 
C 781 3207 614 3264 525 3264 
C 486 3264 448 3258 422 3245 
C 544 3790 915 4058 1306 4058 
C 1862 4058 2227 3617 2227 3035 
C 2227 2479 1901 2000 1536 1584 
L 262 146 
L 262 0 
L 2515 0 
L 2669 989 
z
" transform="scale(0.015625)"/>
       </defs>
       <use xlink:href="#CMR17-31" transform="scale(0.996264)"/>
       <use xlink:href="#CMR17-30" transform="translate(45.690477 0) scale(0.996264)"/>
       <use xlink:href="#CMSY10-0" transform="translate(91.380954 36.153639) scale(0.697382)"/>
       <use xlink:href="#CMR17-32" transform="translate(145.621947 36.153639) scale(0.697382)"/>
      </g>
     </g>
    </g>
    <g id="xtick_4">
     <g id="line2d_7">
      <path d="M 315.570192 361.762089 
L 315.570192 28.518498 
" clip-path="url(#p9bf3f2e997)" style="fill: none; stroke-dasharray: 2.96,1.28; stroke-dashoffset: 0; stroke: #b0b0b0; stroke-opacity: 0.3; stroke-width: 0.8"/>
     </g>
     <g id="line2d_8">
      <g>
       <use xlink:href="#m8bd38d5a3e" x="315.570192" y="361.762089" style="stroke: #000000; stroke-width: 0.8"/>
      </g>
     </g>
     <g id="text_4">
      <!-- $\mathdefault{10^{-1}}$ -->
      <g transform="translate(297.593773 382.599086) scale(0.2 -0.2)">
       <use xlink:href="#CMR17-31" transform="scale(0.996264)"/>
       <use xlink:href="#CMR17-30" transform="translate(45.690477 0) scale(0.996264)"/>
       <use xlink:href="#CMSY10-0" transform="translate(91.380954 36.153639) scale(0.697382)"/>
       <use xlink:href="#CMR17-31" transform="translate(145.621947 36.153639) scale(0.697382)"/>
      </g>
     </g>
    </g>
    <g id="xtick_5">
     <g id="line2d_9">
      <path d="M 392.731948 361.762089 
L 392.731948 28.518498 
" clip-path="url(#p9bf3f2e997)" style="fill: none; stroke-dasharray: 2.96,1.28; stroke-dashoffset: 0; stroke: #b0b0b0; stroke-opacity: 0.3; stroke-width: 0.8"/>
     </g>
     <g id="line2d_10">
      <g>
       <use xlink:href="#m8bd38d5a3e" x="392.731948" y="361.762089" style="stroke: #000000; stroke-width: 0.8"/>
      </g>
     </g>
     <g id="text_5">
      <!-- $\mathdefault{10^{0}}$ -->
      <g transform="translate(380.179623 382.599086) scale(0.2 -0.2)">
       <use xlink:href="#CMR17-31" transform="scale(0.996264)"/>
       <use xlink:href="#CMR17-30" transform="translate(45.690477 0) scale(0.996264)"/>
       <use xlink:href="#CMR17-30" transform="translate(91.380954 36.153639) scale(0.697382)"/>
      </g>
     </g>
    </g>
    <g id="xtick_6">
     <g id="line2d_11">
      <defs>
       <path id="mae24e77f1b" d="M 0 0 
L 0 2 
" style="stroke: #000000; stroke-width: 0.6"/>
      </defs>
      <g>
       <use xlink:href="#mae24e77f1b" x="76.607178" y="361.762089" style="stroke: #000000; stroke-width: 0.6"/>
      </g>
     </g>
    </g>
    <g id="xtick_7">
     <g id="line2d_12">
      <g>
       <use xlink:href="#mae24e77f1b" x="80.554197" y="361.762089" style="stroke: #000000; stroke-width: 0.6"/>
      </g>
     </g>
    </g>
    <g id="xtick_8">
     <g id="line2d_13">
      <g>
       <use xlink:href="#mae24e77f1b" x="107.312928" y="361.762089" style="stroke: #000000; stroke-width: 0.6"/>
      </g>
     </g>
    </g>
    <g id="xtick_9">
     <g id="line2d_14">
      <g>
       <use xlink:href="#mae24e77f1b" x="120.900439" y="361.762089" style="stroke: #000000; stroke-width: 0.6"/>
      </g>
     </g>
    </g>
    <g id="xtick_10">
     <g id="line2d_15">
      <g>
       <use xlink:href="#mae24e77f1b" x="130.540931" y="361.762089" style="stroke: #000000; stroke-width: 0.6"/>
      </g>
     </g>
    </g>
    <g id="xtick_11">
     <g id="line2d_16">
      <g>
       <use xlink:href="#mae24e77f1b" x="138.018678" y="361.762089" style="stroke: #000000; stroke-width: 0.6"/>
      </g>
     </g>
    </g>
    <g id="xtick_12">
     <g id="line2d_17">
      <g>
       <use xlink:href="#mae24e77f1b" x="144.128442" y="361.762089" style="stroke: #000000; stroke-width: 0.6"/>
      </g>
     </g>
    </g>
    <g id="xtick_13">
     <g id="line2d_18">
      <g>
       <use xlink:href="#mae24e77f1b" x="149.294174" y="361.762089" style="stroke: #000000; stroke-width: 0.6"/>
      </g>
     </g>
    </g>
    <g id="xtick_14">
     <g id="line2d_19">
      <g>
       <use xlink:href="#mae24e77f1b" x="153.768934" y="361.762089" style="stroke: #000000; stroke-width: 0.6"/>
      </g>
     </g>
    </g>
    <g id="xtick_15">
     <g id="line2d_20">
      <g>
       <use xlink:href="#mae24e77f1b" x="157.715953" y="361.762089" style="stroke: #000000; stroke-width: 0.6"/>
      </g>
     </g>
    </g>
    <g id="xtick_16">
     <g id="line2d_21">
      <g>
       <use xlink:href="#mae24e77f1b" x="184.474684" y="361.762089" style="stroke: #000000; stroke-width: 0.6"/>
      </g>
     </g>
    </g>
    <g id="xtick_17">
     <g id="line2d_22">
      <g>
       <use xlink:href="#mae24e77f1b" x="198.062195" y="361.762089" style="stroke: #000000; stroke-width: 0.6"/>
      </g>
     </g>
    </g>
    <g id="xtick_18">
     <g id="line2d_23">
      <g>
       <use xlink:href="#mae24e77f1b" x="207.702687" y="361.762089" style="stroke: #000000; stroke-width: 0.6"/>
      </g>
     </g>
    </g>
    <g id="xtick_19">
     <g id="line2d_24">
      <g>
       <use xlink:href="#mae24e77f1b" x="215.180434" y="361.762089" style="stroke: #000000; stroke-width: 0.6"/>
      </g>
     </g>
    </g>
    <g id="xtick_20">
     <g id="line2d_25">
      <g>
       <use xlink:href="#mae24e77f1b" x="221.290197" y="361.762089" style="stroke: #000000; stroke-width: 0.6"/>
      </g>
     </g>
    </g>
    <g id="xtick_21">
     <g id="line2d_26">
      <g>
       <use xlink:href="#mae24e77f1b" x="226.455929" y="361.762089" style="stroke: #000000; stroke-width: 0.6"/>
      </g>
     </g>
    </g>
    <g id="xtick_22">
     <g id="line2d_27">
      <g>
       <use xlink:href="#mae24e77f1b" x="230.93069" y="361.762089" style="stroke: #000000; stroke-width: 0.6"/>
      </g>
     </g>
    </g>
    <g id="xtick_23">
     <g id="line2d_28">
      <g>
       <use xlink:href="#mae24e77f1b" x="234.877708" y="361.762089" style="stroke: #000000; stroke-width: 0.6"/>
      </g>
     </g>
    </g>
    <g id="xtick_24">
     <g id="line2d_29">
      <g>
       <use xlink:href="#mae24e77f1b" x="261.636439" y="361.762089" style="stroke: #000000; stroke-width: 0.6"/>
      </g>
     </g>
    </g>
    <g id="xtick_25">
     <g id="line2d_30">
      <g>
       <use xlink:href="#mae24e77f1b" x="275.22395" y="361.762089" style="stroke: #000000; stroke-width: 0.6"/>
      </g>
     </g>
    </g>
    <g id="xtick_26">
     <g id="line2d_31">
      <g>
       <use xlink:href="#mae24e77f1b" x="284.864442" y="361.762089" style="stroke: #000000; stroke-width: 0.6"/>
      </g>
     </g>
    </g>
    <g id="xtick_27">
     <g id="line2d_32">
      <g>
       <use xlink:href="#mae24e77f1b" x="292.342189" y="361.762089" style="stroke: #000000; stroke-width: 0.6"/>
      </g>
     </g>
    </g>
    <g id="xtick_28">
     <g id="line2d_33">
      <g>
       <use xlink:href="#mae24e77f1b" x="298.451953" y="361.762089" style="stroke: #000000; stroke-width: 0.6"/>
      </g>
     </g>
    </g>
    <g id="xtick_29">
     <g id="line2d_34">
      <g>
       <use xlink:href="#mae24e77f1b" x="303.617685" y="361.762089" style="stroke: #000000; stroke-width: 0.6"/>
      </g>
     </g>
    </g>
    <g id="xtick_30">
     <g id="line2d_35">
      <g>
       <use xlink:href="#mae24e77f1b" x="308.092445" y="361.762089" style="stroke: #000000; stroke-width: 0.6"/>
      </g>
     </g>
    </g>
    <g id="xtick_31">
     <g id="line2d_36">
      <g>
       <use xlink:href="#mae24e77f1b" x="312.039464" y="361.762089" style="stroke: #000000; stroke-width: 0.6"/>
      </g>
     </g>
    </g>
    <g id="xtick_32">
     <g id="line2d_37">
      <g>
       <use xlink:href="#mae24e77f1b" x="338.798195" y="361.762089" style="stroke: #000000; stroke-width: 0.6"/>
      </g>
     </g>
    </g>
    <g id="xtick_33">
     <g id="line2d_38">
      <g>
       <use xlink:href="#mae24e77f1b" x="352.385706" y="361.762089" style="stroke: #000000; stroke-width: 0.6"/>
      </g>
     </g>
    </g>
    <g id="xtick_34">
     <g id="line2d_39">
      <g>
       <use xlink:href="#mae24e77f1b" x="362.026198" y="361.762089" style="stroke: #000000; stroke-width: 0.6"/>
      </g>
     </g>
    </g>
    <g id="xtick_35">
     <g id="line2d_40">
      <g>
       <use xlink:href="#mae24e77f1b" x="369.503945" y="361.762089" style="stroke: #000000; stroke-width: 0.6"/>
      </g>
     </g>
    </g>
    <g id="xtick_36">
     <g id="line2d_41">
      <g>
       <use xlink:href="#mae24e77f1b" x="375.613709" y="361.762089" style="stroke: #000000; stroke-width: 0.6"/>
      </g>
     </g>
    </g>
    <g id="xtick_37">
     <g id="line2d_42">
      <g>
       <use xlink:href="#mae24e77f1b" x="380.779441" y="361.762089" style="stroke: #000000; stroke-width: 0.6"/>
      </g>
     </g>
    </g>
    <g id="xtick_38">
     <g id="line2d_43">
      <g>
       <use xlink:href="#mae24e77f1b" x="385.254201" y="361.762089" style="stroke: #000000; stroke-width: 0.6"/>
      </g>
     </g>
    </g>
    <g id="xtick_39">
     <g id="line2d_44">
      <g>
       <use xlink:href="#mae24e77f1b" x="389.20122" y="361.762089" style="stroke: #000000; stroke-width: 0.6"/>
      </g>
     </g>
    </g>
    <g id="text_6">
     <!-- Temperature, $T/T_F$ -->
     <g transform="translate(162.69832 405.41868) scale(0.2 -0.2)">
      <defs>
       <path id="CMR17-54" d="M 3981 4326 
L 288 4326 
L 179 2918 
L 294 2918 
C 378 3976 467 4160 1453 4160 
C 1568 4160 1754 4160 1805 4154 
C 1926 4135 1926 4058 1926 3912 
L 1926 459 
C 1926 230 1907 160 1376 160 
L 1197 160 
L 1197 0 
C 1504 0 1824 0 2138 0 
C 2451 0 2771 0 3078 0 
L 3078 160 
L 2899 160 
C 2368 160 2349 230 2349 459 
L 2349 3912 
C 2349 4052 2349 4129 2464 4154 
C 2515 4160 2701 4160 2816 4160 
C 3795 4160 3891 3976 3974 2918 
L 4090 2918 
L 3981 4326 
z
" transform="scale(0.015625)"/>
       <path id="CMR17-65" d="M 2438 1472 
C 2464 1498 2464 1511 2464 1576 
C 2464 2238 2118 2816 1389 2816 
C 710 2816 173 2169 173 1383 
C 173 551 781 -64 1459 -64 
C 2176 -64 2458 607 2458 740 
C 2458 784 2419 784 2406 784 
C 2362 784 2355 771 2330 696 
C 2189 265 1837 51 1504 51 
C 1229 51 954 203 781 480 
C 582 803 582 1176 582 1472 
L 2438 1472 
z
M 589 1568 
C 634 2505 1126 2714 1382 2714 
C 1818 2714 2112 2297 2118 1568 
L 589 1568 
z
" transform="scale(0.015625)"/>
       <path id="CMR17-6d" d="M 4326 1933 
C 4326 2252 4269 2790 3507 2790 
C 3072 2790 2771 2496 2656 2151 
L 2650 2151 
C 2573 2676 2195 2790 1837 2790 
C 1331 2790 1069 2400 973 2144 
L 966 2144 
L 966 2790 
L 211 2720 
L 211 2554 
C 589 2554 646 2515 646 2208 
L 646 428 
C 646 184 621 153 211 153 
L 211 -13 
C 365 0 646 0 813 0 
C 979 0 1267 0 1421 -13 
L 1421 153 
C 1011 153 986 178 986 428 
L 986 1658 
C 986 2247 1344 2688 1792 2688 
C 2266 2688 2317 2266 2317 1958 
L 2317 428 
C 2317 184 2291 153 1882 153 
L 1882 -13 
C 2035 0 2317 0 2483 0 
C 2650 0 2938 0 3091 -13 
L 3091 153 
C 2682 153 2656 178 2656 428 
L 2656 1658 
C 2656 2247 3014 2688 3462 2688 
C 3936 2688 3987 2266 3987 1958 
L 3987 428 
C 3987 184 3962 153 3552 153 
L 3552 -13 
C 3706 0 3987 0 4154 0 
C 4320 0 4608 0 4762 -13 
L 4762 153 
C 4352 153 4326 178 4326 428 
L 4326 1933 
z
" transform="scale(0.015625)"/>
       <path id="CMR17-70" d="M 1408 -1063 
C 998 -1063 973 -1037 973 -789 
L 973 402 
C 1158 134 1427 -38 1766 -38 
C 2406 -38 3053 523 3053 1388 
C 3053 2191 2496 2802 1837 2802 
C 1453 2802 1139 2592 960 2338 
L 960 2802 
L 198 2732 
L 198 2567 
C 576 2567 634 2528 634 2223 
L 634 -789 
C 634 -1031 608 -1063 198 -1063 
L 198 -1228 
C 352 -1216 634 -1216 800 -1216 
C 966 -1216 1254 -1216 1408 -1228 
L 1408 -1063 
z
M 973 2012 
C 973 2102 973 2235 1222 2471 
C 1254 2497 1472 2688 1792 2688 
C 2259 2688 2643 2108 2643 1382 
C 2643 656 2234 64 1728 64 
C 1498 64 1248 172 1056 472 
C 973 612 973 650 973 752 
L 973 2012 
z
" transform="scale(0.015625)"/>
       <path id="CMR17-72" d="M 960 1497 
C 960 2112 1222 2688 1702 2688 
C 1747 2688 1792 2682 1837 2662 
C 1837 2662 1696 2617 1696 2452 
C 1696 2298 1818 2234 1914 2234 
C 1990 2234 2131 2279 2131 2458 
C 2131 2663 1926 2790 1709 2790 
C 1222 2790 1011 2317 947 2093 
L 941 2093 
L 941 2790 
L 198 2720 
L 198 2554 
C 576 2554 634 2515 634 2208 
L 634 428 
C 634 184 608 153 198 153 
L 198 -13 
C 352 0 646 0 813 0 
C 998 0 1325 0 1498 -13 
L 1498 153 
C 1037 153 960 153 960 440 
L 960 1497 
z
" transform="scale(0.015625)"/>
       <path id="CMR17-61" d="M 2304 1653 
C 2304 2072 2304 2294 2035 2543 
C 1798 2752 1523 2816 1306 2816 
C 800 2816 435 2407 435 1971 
C 435 1728 627 1728 666 1728 
C 749 1728 896 1778 896 1954 
C 896 2112 774 2181 666 2181 
C 640 2181 608 2174 589 2168 
C 723 2592 1069 2714 1293 2714 
C 1613 2714 1965 2429 1965 1885 
L 1965 1600 
C 1587 1600 1133 1549 774 1357 
C 371 1133 256 813 256 570 
C 256 77 832 -64 1171 -64 
C 1523 -64 1850 139 1990 511 
C 2003 233 2182 -18 2464 -18 
C 2598 -18 2938 70 2938 567 
L 2938 920 
L 2822 920 
L 2822 562 
C 2822 178 2650 128 2566 128 
C 2304 128 2304 458 2304 738 
L 2304 1653 
z
M 1965 870 
C 1965 317 1568 38 1216 38 
C 896 38 646 275 646 570 
C 646 761 730 1100 1101 1305 
C 1408 1478 1760 1504 1965 1504 
L 1965 870 
z
" transform="scale(0.015625)"/>
       <path id="CMR17-74" d="M 966 2560 
L 1862 2560 
L 1862 2725 
L 966 2725 
L 966 3904 
L 851 3904 
C 838 3245 614 2668 70 2668 
L 70 2560 
L 627 2560 
L 627 771 
C 627 650 627 -64 1370 -64 
C 1747 -64 1965 306 1965 777 
L 1965 1140 
L 1850 1140 
L 1850 783 
C 1850 344 1677 51 1408 51 
C 1222 51 966 178 966 758 
L 966 2560 
z
" transform="scale(0.015625)"/>
       <path id="CMR17-75" d="M 1882 2693 
L 1882 2528 
C 2259 2528 2317 2489 2317 2186 
L 2317 1032 
C 2317 500 2029 38 1555 38 
C 1030 38 986 348 986 678 
L 986 2763 
L 211 2693 
L 211 2528 
C 467 2528 640 2528 646 2274 
L 646 1058 
C 646 633 646 361 813 183 
C 896 101 1056 -64 1517 -64 
C 2061 -64 2272 377 2323 506 
L 2330 506 
L 2330 -63 
L 3091 -63 
L 3091 128 
C 2714 128 2656 166 2656 473 
L 2656 2763 
L 1882 2693 
z
" transform="scale(0.015625)"/>
       <path id="CMR17-2c" d="M 1011 102 
C 1024 45 1024 25 1024 -77 
C 1024 -463 896 -817 627 -1139 
C 595 -1170 595 -1183 595 -1197 
C 595 -1222 621 -1248 646 -1248 
C 685 -1248 1126 -799 1126 -87 
C 1126 124 1101 522 800 522 
C 659 522 538 427 538 261 
C 538 96 659 0 800 0 
C 877 0 960 32 1011 102 
z
" transform="scale(0.015625)"/>
       <path id="CMMI12-54" d="M 2669 3910 
C 2707 4064 2720 4121 2816 4147 
C 2867 4160 3078 4160 3213 4160 
C 3853 4160 4154 4134 4154 3634 
C 4154 3537 4128 3295 4090 3057 
L 4083 2980 
C 4083 2954 4109 2916 4147 2916 
C 4211 2916 4211 2948 4230 3050 
L 4416 4184 
C 4429 4243 4429 4256 4429 4275 
C 4429 4345 4390 4345 4262 4345 
L 762 4345 
C 614 4345 608 4339 570 4224 
L 179 3070 
C 173 3056 154 2986 154 2980 
C 154 2948 179 2916 218 2916 
C 269 2916 282 2941 307 3024 
C 576 3801 710 4160 1562 4160 
L 1990 4160 
C 2144 4160 2208 4160 2208 4089 
C 2208 4069 2208 4057 2176 3941 
L 1318 499 
C 1254 249 1242 185 563 185 
C 403 185 358 185 358 64 
C 358 0 429 0 461 0 
C 621 0 787 0 947 0 
L 1946 0 
C 2106 0 2278 0 2438 0 
C 2509 0 2573 0 2573 121 
C 2573 185 2528 185 2362 185 
C 1786 185 1786 243 1786 339 
C 1786 346 1786 391 1811 494 
L 2669 3910 
z
" transform="scale(0.015625)"/>
       <path id="CMMI12-3d" d="M 2746 4562 
C 2746 4569 2784 4666 2784 4678 
C 2784 4755 2720 4800 2669 4800 
C 2637 4800 2579 4800 2528 4659 
L 384 -1363 
C 384 -1370 346 -1465 346 -1478 
C 346 -1555 410 -1600 461 -1600 
C 499 -1600 557 -1593 602 -1459 
L 2746 4562 
z
" transform="scale(0.015625)"/>
       <path id="CMMI12-46" d="M 1901 2055 
L 2515 2055 
C 3002 2055 3040 1946 3040 1761 
C 3040 1678 3027 1589 2995 1448 
C 2982 1423 2976 1391 2976 1378 
C 2976 1333 3002 1308 3046 1308 
C 3098 1308 3104 1333 3130 1435 
L 3501 2935 
C 3501 2961 3482 2999 3437 2999 
C 3379 2999 3373 2974 3347 2863 
C 3213 2376 3085 2240 2528 2240 
L 1946 2240 
L 2362 3926 
C 2419 4154 2432 4154 2694 4154 
L 3552 4154 
C 4352 4154 4467 3918 4467 3464 
C 4467 3426 4467 3285 4448 3119 
C 4442 3094 4429 3011 4429 2985 
C 4429 2934 4461 2915 4499 2915 
C 4544 2915 4570 2941 4582 3055 
L 4717 4174 
C 4717 4195 4730 4263 4730 4277 
C 4730 4352 4672 4352 4557 4352 
L 1523 4352 
C 1402 4352 1338 4352 1338 4229 
C 1338 4154 1382 4154 1491 4154 
C 1888 4154 1888 4113 1888 4050 
C 1888 4018 1882 3992 1862 3922 
L 998 473 
C 941 249 928 185 480 185 
C 358 185 294 185 294 70 
C 294 0 352 0 390 0 
C 512 0 640 0 762 0 
L 1594 0 
C 1734 0 1888 0 2029 0 
C 2086 0 2163 0 2163 115 
C 2163 185 2125 185 1984 185 
C 1478 185 1466 229 1466 324 
C 1466 356 1478 406 1491 449 
L 1901 2055 
z
" transform="scale(0.015625)"/>
      </defs>
      <use xlink:href="#CMR17-54" transform="scale(0.996264)"/>
      <use xlink:href="#CMR17-65" transform="translate(58.702625 0) scale(0.996264)"/>
      <use xlink:href="#CMR17-6d" transform="translate(99.188286 0) scale(0.996264)"/>
      <use xlink:href="#CMR17-70" transform="translate(176.107875 0) scale(0.996264)"/>
      <use xlink:href="#CMR17-65" transform="translate(229.605684 0) scale(0.996264)"/>
      <use xlink:href="#CMR17-72" transform="translate(270.091344 0) scale(0.996264)"/>
      <use xlink:href="#CMR17-61" transform="translate(305.372112 0) scale(0.996264)"/>
      <use xlink:href="#CMR17-74" transform="translate(351.062589 0) scale(0.996264)"/>
      <use xlink:href="#CMR17-75" transform="translate(386.343357 0) scale(0.996264)"/>
      <use xlink:href="#CMR17-72" transform="translate(437.238727 0) scale(0.996264)"/>
      <use xlink:href="#CMR17-65" transform="translate(472.519495 0) scale(0.996264)"/>
      <use xlink:href="#CMR17-2c" transform="translate(513.005155 0) scale(0.996264)"/>
      <use xlink:href="#CMMI12-54" transform="translate(567.95218 0) scale(0.996264)"/>
      <use xlink:href="#CMMI12-3d" transform="translate(635.966095 0) scale(0.996264)"/>
      <use xlink:href="#CMMI12-54" transform="translate(684.741013 0) scale(0.996264)"/>
      <use xlink:href="#CMMI12-46" transform="translate(741.916057 -14.943915) scale(0.697382)"/>
     </g>
    </g>
   </g>
   <g id="matplotlib.axis_2">
    <g id="ytick_1">
     <g id="line2d_45">
      <path d="M 72.220481 361.762089 
L 410.4 361.762089 
" clip-path="url(#p9bf3f2e997)" style="fill: none; stroke-dasharray: 2.96,1.28; stroke-dashoffset: 0; stroke: #b0b0b0; stroke-opacity: 0.3; stroke-width: 0.8"/>
     </g>
     <g id="line2d_46">
      <defs>
       <path id="m51c970c91a" d="M 0 0 
L -3.5 0 
" style="stroke: #000000; stroke-width: 0.8"/>
      </defs>
      <g>
       <use xlink:href="#m51c970c91a" x="72.220481" y="361.762089" style="stroke: #000000; stroke-width: 0.8"/>
      </g>
     </g>
     <g id="text_7">
      <!-- $\mathdefault{0}$ -->
      <g transform="translate(56.082386 368.680588) scale(0.2 -0.2)">
       <use xlink:href="#CMR17-30" transform="scale(0.996264)"/>
      </g>
     </g>
    </g>
    <g id="ytick_2">
     <g id="line2d_47">
      <path d="M 72.220481 306.221491 
L 410.4 306.221491 
" clip-path="url(#p9bf3f2e997)" style="fill: none; stroke-dasharray: 2.96,1.28; stroke-dashoffset: 0; stroke: #b0b0b0; stroke-opacity: 0.3; stroke-width: 0.8"/>
     </g>
     <g id="line2d_48">
      <g>
       <use xlink:href="#m51c970c91a" x="72.220481" y="306.221491" style="stroke: #000000; stroke-width: 0.8"/>
      </g>
     </g>
     <g id="text_8">
      <!-- $\mathdefault{1}$ -->
      <g transform="translate(56.082386 313.139989) scale(0.2 -0.2)">
       <use xlink:href="#CMR17-31" transform="scale(0.996264)"/>
      </g>
     </g>
    </g>
    <g id="ytick_3">
     <g id="line2d_49">
      <path d="M 72.220481 250.680892 
L 410.4 250.680892 
" clip-path="url(#p9bf3f2e997)" style="fill: none; stroke-dasharray: 2.96,1.28; stroke-dashoffset: 0; stroke: #b0b0b0; stroke-opacity: 0.3; stroke-width: 0.8"/>
     </g>
     <g id="line2d_50">
      <g>
       <use xlink:href="#m51c970c91a" x="72.220481" y="250.680892" style="stroke: #000000; stroke-width: 0.8"/>
      </g>
     </g>
     <g id="text_9">
      <!-- $\mathdefault{2}$ -->
      <g transform="translate(56.082386 257.599391) scale(0.2 -0.2)">
       <use xlink:href="#CMR17-32" transform="scale(0.996264)"/>
      </g>
     </g>
    </g>
    <g id="ytick_4">
     <g id="line2d_51">
      <path d="M 72.220481 195.140294 
L 410.4 195.140294 
" clip-path="url(#p9bf3f2e997)" style="fill: none; stroke-dasharray: 2.96,1.28; stroke-dashoffset: 0; stroke: #b0b0b0; stroke-opacity: 0.3; stroke-width: 0.8"/>
     </g>
     <g id="line2d_52">
      <g>
       <use xlink:href="#m51c970c91a" x="72.220481" y="195.140294" style="stroke: #000000; stroke-width: 0.8"/>
      </g>
     </g>
     <g id="text_10">
      <!-- $\mathdefault{3}$ -->
      <g transform="translate(56.082386 202.058792) scale(0.2 -0.2)">
       <use xlink:href="#CMR17-33" transform="scale(0.996264)"/>
      </g>
     </g>
    </g>
    <g id="ytick_5">
     <g id="line2d_53">
      <path d="M 72.220481 139.599695 
L 410.4 139.599695 
" clip-path="url(#p9bf3f2e997)" style="fill: none; stroke-dasharray: 2.96,1.28; stroke-dashoffset: 0; stroke: #b0b0b0; stroke-opacity: 0.3; stroke-width: 0.8"/>
     </g>
     <g id="line2d_54">
      <g>
       <use xlink:href="#m51c970c91a" x="72.220481" y="139.599695" style="stroke: #000000; stroke-width: 0.8"/>
      </g>
     </g>
     <g id="text_11">
      <!-- $\mathdefault{4}$ -->
      <g transform="translate(56.082386 146.518194) scale(0.2 -0.2)">
       <use xlink:href="#CMR17-34" transform="scale(0.996264)"/>
      </g>
     </g>
    </g>
    <g id="ytick_6">
     <g id="line2d_55">
      <path d="M 72.220481 84.059097 
L 410.4 84.059097 
" clip-path="url(#p9bf3f2e997)" style="fill: none; stroke-dasharray: 2.96,1.28; stroke-dashoffset: 0; stroke: #b0b0b0; stroke-opacity: 0.3; stroke-width: 0.8"/>
     </g>
     <g id="line2d_56">
      <g>
       <use xlink:href="#m51c970c91a" x="72.220481" y="84.059097" style="stroke: #000000; stroke-width: 0.8"/>
      </g>
     </g>
     <g id="text_12">
      <!-- $\mathdefault{5}$ -->
      <g transform="translate(56.082386 90.977595) scale(0.2 -0.2)">
       <defs>
        <path id="CMR17-35" d="M 730 3692 
C 794 3666 1056 3584 1325 3584 
C 1920 3584 2246 3911 2432 4100 
C 2432 4157 2432 4192 2394 4192 
C 2387 4192 2374 4192 2323 4163 
C 2099 4058 1837 3973 1517 3973 
C 1325 3973 1037 3999 723 4139 
C 653 4171 640 4171 634 4171 
C 602 4171 595 4164 595 4037 
L 595 2203 
C 595 2089 595 2057 659 2057 
C 691 2057 704 2070 736 2114 
C 941 2401 1222 2522 1542 2522 
C 1766 2522 2246 2382 2246 1289 
C 2246 1085 2246 715 2054 421 
C 1894 159 1645 25 1370 25 
C 947 25 518 320 403 814 
C 429 807 480 795 506 795 
C 589 795 749 840 749 1038 
C 749 1210 627 1280 506 1280 
C 358 1280 262 1190 262 1011 
C 262 454 704 -128 1382 -128 
C 2042 -128 2669 440 2669 1264 
C 2669 2030 2170 2624 1549 2624 
C 1222 2624 947 2503 730 2274 
L 730 3692 
z
" transform="scale(0.015625)"/>
       </defs>
       <use xlink:href="#CMR17-35" transform="scale(0.996264)"/>
      </g>
     </g>
    </g>
    <g id="ytick_7">
     <g id="line2d_57">
      <path d="M 72.220481 28.518498 
L 410.4 28.518498 
" clip-path="url(#p9bf3f2e997)" style="fill: none; stroke-dasharray: 2.96,1.28; stroke-dashoffset: 0; stroke: #b0b0b0; stroke-opacity: 0.3; stroke-width: 0.8"/>
     </g>
     <g id="line2d_58">
      <g>
       <use xlink:href="#m51c970c91a" x="72.220481" y="28.518498" style="stroke: #000000; stroke-width: 0.8"/>
      </g>
     </g>
     <g id="text_13">
      <!-- $\mathdefault{6}$ -->
      <g transform="translate(56.082386 35.436997) scale(0.2 -0.2)">
       <defs>
        <path id="CMR17-36" d="M 678 2176 
C 678 3690 1395 4032 1811 4032 
C 1946 4032 2272 4009 2400 3776 
C 2298 3776 2106 3776 2106 3553 
C 2106 3381 2246 3323 2336 3323 
C 2394 3323 2566 3348 2566 3560 
C 2566 3954 2246 4179 1805 4179 
C 1043 4179 243 3390 243 1984 
C 243 253 966 -128 1478 -128 
C 2099 -128 2688 427 2688 1283 
C 2688 2081 2170 2662 1517 2662 
C 1126 2662 838 2407 678 1960 
L 678 2176 
z
M 1478 25 
C 691 25 691 1200 691 1436 
C 691 1896 909 2560 1504 2560 
C 1613 2560 1926 2560 2138 2120 
C 2253 1870 2253 1609 2253 1289 
C 2253 944 2253 690 2118 434 
C 1978 171 1773 25 1478 25 
z
" transform="scale(0.015625)"/>
       </defs>
       <use xlink:href="#CMR17-36" transform="scale(0.996264)"/>
      </g>
     </g>
    </g>
    <g id="text_14">
     <!-- Local scaling exponent, $\frac{d\log(\gamma_m)}{d\log(T)}$ -->
     <g transform="translate(41.724439 319.049004) rotate(-90) scale(0.2 -0.2)">
      <defs>
       <path id="CMR17-4c" d="M 3469 1615 
L 3354 1615 
C 3302 983 3219 166 2125 166 
L 1530 166 
C 1274 166 1261 197 1261 414 
L 1261 3898 
C 1261 4129 1274 4192 1760 4192 
L 1901 4192 
L 1901 4352 
C 1638 4352 1331 4352 1069 4352 
C 870 4352 512 4352 326 4352 
L 326 4192 
C 768 4192 838 4192 838 3905 
L 838 452 
C 838 166 768 166 326 166 
L 326 0 
L 3315 0 
L 3469 1615 
z
" transform="scale(0.015625)"/>
       <path id="CMR17-6f" d="M 2758 1356 
C 2758 2176 2163 2816 1466 2816 
C 768 2816 173 2176 173 1356 
C 173 551 768 -64 1466 -64 
C 2163 -64 2758 551 2758 1356 
z
M 1466 51 
C 1165 51 909 230 762 480 
C 602 767 582 1126 582 1408 
C 582 1677 595 2010 762 2298 
C 890 2509 1139 2714 1466 2714 
C 1754 2714 1997 2554 2150 2330 
C 2349 2029 2349 1607 2349 1408 
C 2349 1158 2336 775 2163 467 
C 1984 173 1709 51 1466 51 
z
" transform="scale(0.015625)"/>
       <path id="CMR17-63" d="M 2234 2240 
C 2112 2240 1933 2240 1933 2017 
C 1933 1838 2080 1787 2163 1787 
C 2208 1787 2394 1807 2394 2024 
C 2394 2467 1958 2803 1466 2803 
C 787 2803 211 2178 211 1363 
C 211 516 813 -64 1466 -64 
C 2259 -64 2458 677 2458 748 
C 2458 774 2451 793 2406 793 
C 2362 793 2355 787 2330 703 
C 2163 180 1798 51 1523 51 
C 1114 51 621 427 621 1369 
C 621 2338 1094 2688 1472 2688 
C 1722 2688 2093 2573 2234 2240 
z
" transform="scale(0.015625)"/>
       <path id="CMR17-6c" d="M 979 4396 
L 218 4326 
L 218 4160 
C 595 4160 653 4122 653 3817 
L 653 426 
C 653 184 627 153 218 153 
L 218 -13 
C 371 0 653 0 813 0 
C 979 0 1261 0 1414 -13 
L 1414 153 
C 1005 153 979 178 979 426 
L 979 4396 
z
" transform="scale(0.015625)"/>
       <path id="CMR17-73" d="M 1978 2697 
C 1978 2813 1971 2819 1933 2819 
C 1907 2819 1901 2813 1824 2717 
C 1805 2691 1747 2626 1728 2601 
C 1523 2819 1235 2819 1126 2819 
C 416 2819 160 2447 160 2076 
C 160 1498 813 1365 998 1325 
C 1402 1243 1542 1217 1677 1101 
C 1760 1025 1901 884 1901 654 
C 1901 384 1747 38 1158 38 
C 602 38 403 460 288 1021 
C 269 1110 269 1117 218 1117 
C 166 1117 160 1110 160 983 
L 160 63 
C 160 -51 166 -58 205 -58 
C 237 -58 243 -51 275 0 
C 314 57 410 211 448 276 
C 576 103 800 -64 1158 -64 
C 1792 -64 2131 283 2131 784 
C 2131 1112 1958 1285 1875 1362 
C 1683 1561 1459 1606 1190 1657 
C 838 1735 390 1825 390 2217 
C 390 2383 480 2737 1126 2737 
C 1811 2737 1850 2094 1862 1888 
C 1869 1856 1901 1849 1920 1849 
C 1978 1849 1978 1869 1978 1978 
L 1978 2697 
z
" transform="scale(0.015625)"/>
       <path id="CMR17-69" d="M 992 3909 
C 992 4049 877 4170 730 4170 
C 589 4170 467 4056 467 3909 
C 467 3769 582 3648 730 3648 
C 870 3648 992 3763 992 3909 
z
M 243 2706 
L 243 2541 
C 602 2541 653 2502 653 2197 
L 653 427 
C 653 184 627 153 218 153 
L 218 -13 
C 371 0 646 0 806 0 
C 960 0 1222 0 1370 -13 
L 1370 153 
C 992 153 979 191 979 420 
L 979 2776 
L 243 2706 
z
" transform="scale(0.015625)"/>
       <path id="CMR17-6e" d="M 2656 1933 
C 2656 2259 2592 2790 1837 2790 
C 1331 2790 1069 2400 973 2144 
L 966 2144 
L 966 2790 
L 211 2720 
L 211 2554 
C 589 2554 646 2515 646 2208 
L 646 428 
C 646 184 621 153 211 153 
L 211 -13 
C 365 0 646 0 813 0 
C 979 0 1267 0 1421 -13 
L 1421 153 
C 1011 153 986 178 986 428 
L 986 1658 
C 986 2247 1344 2688 1792 2688 
C 2266 2688 2317 2266 2317 1958 
L 2317 428 
C 2317 184 2291 153 1882 153 
L 1882 -13 
C 2035 0 2317 0 2483 0 
C 2650 0 2938 0 3091 -13 
L 3091 153 
C 2682 153 2656 178 2656 428 
L 2656 1933 
z
" transform="scale(0.015625)"/>
       <path id="CMR17-67" d="M 710 1164 
C 832 1068 1043 960 1299 960 
C 1805 960 2240 1357 2240 1888 
C 2240 2054 2189 2310 1997 2509 
C 2176 2692 2438 2752 2586 2752 
C 2611 2752 2650 2752 2682 2734 
C 2656 2728 2598 2703 2598 2605 
C 2598 2527 2656 2471 2739 2471 
C 2835 2471 2886 2533 2886 2614 
C 2886 2731 2790 2854 2586 2854 
C 2330 2854 2106 2738 1926 2580 
C 1734 2753 1504 2816 1299 2816 
C 794 2816 358 2419 358 1888 
C 358 1522 570 1292 634 1228 
C 442 1004 442 743 442 711 
C 442 545 506 302 723 168 
C 390 85 128 -169 128 -486 
C 128 -943 736 -1280 1466 -1280 
C 2170 -1280 2803 -956 2803 -479 
C 2803 384 1856 384 1363 384 
C 1216 384 954 384 922 391 
C 723 423 589 602 589 826 
C 589 883 589 1024 710 1164 
z
M 1299 1068 
C 736 1068 736 1760 736 1889 
C 736 2016 736 2708 1299 2708 
C 1862 2708 1862 2016 1862 1889 
C 1862 1760 1862 1068 1299 1068 
z
M 1466 -1171 
C 826 -1171 384 -835 384 -486 
C 384 -289 493 -105 634 -4 
C 794 104 858 104 1293 104 
C 1818 104 2547 104 2547 -486 
C 2547 -835 2106 -1171 1466 -1171 
z
" transform="scale(0.015625)"/>
       <path id="CMR17-78" d="M 1664 1477 
C 1856 1726 2074 2006 2253 2216 
C 2464 2458 2707 2560 2989 2560 
L 2989 2726 
C 2880 2726 2656 2726 2541 2726 
C 2368 2726 2170 2726 2022 2732 
L 2022 2566 
C 2112 2553 2163 2489 2163 2400 
C 2163 2285 2099 2215 2067 2171 
L 1594 1573 
L 1030 2306 
C 973 2376 973 2388 973 2420 
C 973 2497 1037 2560 1146 2560 
L 1146 2732 
C 992 2726 717 2726 557 2726 
C 384 2726 179 2726 38 2732 
L 38 2560 
C 384 2560 461 2534 614 2343 
L 1350 1395 
C 1363 1382 1395 1344 1395 1325 
C 1395 1299 838 619 768 530 
C 480 185 179 160 6 160 
L 6 0 
C 115 0 339 0 454 0 
C 582 0 864 0 979 -6 
L 979 160 
C 941 166 838 179 838 325 
C 838 440 890 510 947 586 
L 1478 1236 
L 2035 512 
C 2086 442 2163 346 2163 301 
C 2163 211 2086 160 1984 160 
L 1984 -6 
C 2138 0 2413 0 2573 0 
C 2746 0 2950 0 3091 -6 
L 3091 160 
C 2771 160 2675 172 2522 370 
L 1664 1477 
z
" transform="scale(0.015625)"/>
       <path id="CMMI12-64" d="M 3219 4257 
C 3226 4282 3238 4320 3238 4352 
C 3238 4416 3174 4416 3162 4416 
C 3155 4416 2842 4388 2810 4380 
C 2701 4373 2605 4358 2490 4358 
C 2330 4345 2285 4339 2285 4224 
C 2285 4160 2336 4160 2426 4160 
C 2739 4160 2746 4103 2746 4040 
C 2746 4002 2733 3952 2726 3933 
L 2336 2395 
C 2266 2561 2093 2816 1760 2816 
C 1037 2816 256 1884 256 939 
C 256 307 627 -64 1062 -64 
C 1414 -64 1715 211 1894 422 
C 1958 45 2259 -64 2451 -64 
C 2643 -64 2797 51 2912 281 
C 3014 498 3104 888 3104 913 
C 3104 945 3078 971 3040 971 
C 2982 971 2976 939 2950 843 
C 2854 466 2733 64 2470 64 
C 2285 64 2272 229 2272 357 
C 2272 382 2272 515 2317 694 
L 3219 4257 
z
M 1926 760 
C 1894 651 1894 639 1805 517 
C 1664 338 1382 64 1082 64 
C 819 64 672 300 672 677 
C 672 1028 870 1743 992 2012 
C 1210 2459 1510 2689 1760 2689 
C 2182 2689 2266 2165 2266 2114 
C 2266 2108 2246 2024 2240 2012 
L 1926 760 
z
" transform="scale(0.015625)"/>
       <path id="CMR17-28" d="M 1958 -1561 
C 1958 -1555 1958 -1542 1939 -1523 
C 1645 -1224 858 -407 858 1581 
C 858 3569 1632 4379 1946 4697 
C 1946 4704 1958 4717 1958 4736 
C 1958 4755 1939 4768 1914 4768 
C 1843 4768 1299 4296 986 3594 
C 666 2887 576 2199 576 1588 
C 576 1128 621 351 1005 -471 
C 1312 -1135 1837 -1600 1914 -1600 
C 1946 -1600 1958 -1587 1958 -1561 
z
" transform="scale(0.015625)"/>
       <path id="CMMI12-d" d="M 2419 760 
C 2406 1071 2394 1561 2150 2133 
C 2022 2452 1805 2788 1338 2788 
C 550 2788 122 1790 122 1625 
C 122 1567 166 1567 186 1567 
C 243 1567 243 1580 275 1663 
C 410 2057 819 2368 1261 2368 
C 2150 2368 2278 1383 2278 754 
C 2278 352 2234 220 2195 92 
C 2074 -302 1862 -1090 1862 -1268 
C 1862 -1319 1882 -1376 1933 -1376 
C 2029 -1376 2086 -1166 2157 -912 
C 2310 -353 2349 -73 2381 181 
C 2400 334 2765 1384 3270 2382 
C 3315 2483 3405 2655 3405 2674 
C 3405 2680 3398 2725 3341 2725 
C 3328 2725 3296 2725 3283 2699 
C 3270 2687 3046 2254 2854 1822 
C 2758 1606 2630 1320 2419 760 
z
" transform="scale(0.015625)"/>
       <path id="CMMI12-6d" d="M 1318 1871 
C 1331 1910 1491 2229 1728 2433 
C 1894 2586 2112 2689 2362 2689 
C 2618 2689 2707 2497 2707 2242 
C 2707 2203 2707 2076 2630 1775 
L 2470 1118 
C 2419 926 2298 453 2285 383 
C 2259 287 2221 121 2221 96 
C 2221 6 2291 -64 2387 -64 
C 2579 -64 2611 83 2669 313 
L 3053 1839 
C 3066 1890 3398 2689 4102 2689 
C 4358 2689 4448 2497 4448 2242 
C 4448 1884 4198 1188 4058 805 
C 4000 651 3968 568 3968 453 
C 3968 166 4166 -64 4474 -64 
C 5069 -64 5293 875 5293 913 
C 5293 945 5267 971 5229 971 
C 5171 971 5165 952 5133 843 
C 4986 332 4749 64 4493 64 
C 4429 64 4326 64 4326 269 
C 4326 436 4403 640 4429 710 
C 4544 1018 4832 1773 4832 2145 
C 4832 2528 4608 2816 4122 2816 
C 3693 2816 3347 2574 3091 2197 
C 3072 2542 2861 2816 2381 2816 
C 1811 2816 1510 2415 1395 2255 
C 1376 2618 1114 2816 832 2816 
C 646 2816 499 2727 378 2484 
C 262 2254 173 1865 173 1839 
C 173 1814 198 1782 243 1782 
C 294 1782 301 1788 339 1935 
C 435 2312 557 2689 813 2689 
C 960 2689 1011 2586 1011 2395 
C 1011 2254 947 2005 902 1807 
L 723 1118 
C 698 996 627 709 595 594 
C 550 428 480 128 480 96 
C 480 6 550 -64 646 -64 
C 723 -64 813 -26 864 70 
C 877 102 934 326 966 453 
L 1107 1028 
L 1318 1871 
z
" transform="scale(0.015625)"/>
       <path id="CMR17-29" d="M 1683 1581 
C 1683 2040 1638 2817 1254 3639 
C 947 4303 422 4768 346 4768 
C 326 4768 301 4761 301 4729 
C 301 4717 307 4710 314 4697 
C 621 4378 1402 3568 1402 1584 
C 1402 -407 627 -1217 314 -1537 
C 307 -1549 301 -1556 301 -1568 
C 301 -1600 326 -1600 346 -1600 
C 416 -1600 960 -1128 1274 -426 
C 1594 281 1683 969 1683 1581 
z
" transform="scale(0.015625)"/>
      </defs>
      <use xlink:href="#CMR17-4c" transform="scale(0.996264)"/>
      <use xlink:href="#CMR17-6f" transform="translate(57.381408 0) scale(0.996264)"/>
      <use xlink:href="#CMR17-63" transform="translate(105.674324 0) scale(0.996264)"/>
      <use xlink:href="#CMR17-61" transform="translate(146.159984 0) scale(0.996264)"/>
      <use xlink:href="#CMR17-6c" transform="translate(191.850461 0) scale(0.996264)"/>
      <use xlink:href="#CMR17-73" transform="translate(246.797486 0) scale(0.996264)"/>
      <use xlink:href="#CMR17-63" transform="translate(282.598824 0) scale(0.996264)"/>
      <use xlink:href="#CMR17-61" transform="translate(323.084484 0) scale(0.996264)"/>
      <use xlink:href="#CMR17-6c" transform="translate(368.774961 0) scale(0.996264)"/>
      <use xlink:href="#CMR17-69" transform="translate(393.64602 0) scale(0.996264)"/>
      <use xlink:href="#CMR17-6e" transform="translate(418.517078 0) scale(0.996264)"/>
      <use xlink:href="#CMR17-67" transform="translate(469.412448 0) scale(0.996264)"/>
      <use xlink:href="#CMR17-65" transform="translate(545.178892 0) scale(0.996264)"/>
      <use xlink:href="#CMR17-78" transform="translate(585.664552 0) scale(0.996264)"/>
      <use xlink:href="#CMR17-70" transform="translate(633.957468 0) scale(0.996264)"/>
      <use xlink:href="#CMR17-6f" transform="translate(687.455276 0) scale(0.996264)"/>
      <use xlink:href="#CMR17-6e" transform="translate(733.145753 0) scale(0.996264)"/>
      <use xlink:href="#CMR17-65" transform="translate(784.041123 0) scale(0.996264)"/>
      <use xlink:href="#CMR17-6e" transform="translate(824.526784 0) scale(0.996264)"/>
      <use xlink:href="#CMR17-74" transform="translate(872.8197 0) scale(0.996264)"/>
      <use xlink:href="#CMR17-2c" transform="translate(908.100467 0) scale(0.996264)"/>
      <use xlink:href="#CMMI12-64" transform="translate(964.243006 48.260247) scale(0.697382)"/>
      <use xlink:href="#CMR17-6c" transform="translate(1011.348237 48.260247) scale(0.697382)"/>
      <use xlink:href="#CMR17-6f" transform="translate(1028.757896 48.260247) scale(0.697382)"/>
      <use xlink:href="#CMR17-67" transform="translate(1060.741078 48.260247) scale(0.697382)"/>
      <use xlink:href="#CMR17-28" transform="translate(1093.635075 48.260247) scale(0.697382)"/>
      <use xlink:href="#CMMI12-d" transform="translate(1118.331495 48.260247) scale(0.697382)"/>
      <use xlink:href="#CMMI12-6d" transform="translate(1153.750721 37.799551) scale(0.498132)"/>
      <use xlink:href="#CMR17-29" transform="translate(1196.912457 48.260247) scale(0.697382)"/>
      <use xlink:href="#CMMI12-64" transform="translate(978.780334 -34.355253) scale(0.697382)"/>
      <use xlink:href="#CMR17-6c" transform="translate(1025.885565 -34.355253) scale(0.697382)"/>
      <use xlink:href="#CMR17-6f" transform="translate(1043.295223 -34.355253) scale(0.697382)"/>
      <use xlink:href="#CMR17-67" transform="translate(1075.278405 -34.355253) scale(0.697382)"/>
      <use xlink:href="#CMR17-28" transform="translate(1108.172402 -34.355253) scale(0.697382)"/>
      <use xlink:href="#CMMI12-54" transform="translate(1132.868823 -34.355253) scale(0.697382)"/>
      <use xlink:href="#CMR17-29" transform="translate(1182.375145 -34.355253) scale(0.697382)"/>
      <path d="M 964.243006 22.914133 
L 1221.608878 22.914133 
L 1221.608878 26.899083 
L 964.243006 26.899083 
L 964.243006 22.914133 
z
"/>
     </g>
    </g>
   </g>
   <g id="line2d_59">
    <path d="M 72.220481 250.680892 
L 410.4 250.680892 
" clip-path="url(#p9bf3f2e997)" style="fill: none; stroke-dasharray: 3.7,1.6; stroke-dashoffset: 0; stroke: #0000ff; stroke-opacity: 0.5"/>
   </g>
   <g id="line2d_60">
    <path d="M 72.220481 139.599695 
L 410.4 139.599695 
" clip-path="url(#p9bf3f2e997)" style="fill: none; stroke-dasharray: 6.4,1.6,1,1.6; stroke-dashoffset: 0; stroke: #ff0000; stroke-opacity: 0.5"/>
   </g>
   <g id="line2d_61">
    <path d="M 87.592278 315.14132 
L 94.606983 317.746459 
L 101.621688 341.40881 
L 108.636393 237.267925 
L 115.651098 280.941924 
L 122.665803 260.587612 
L 129.680508 227.493751 
L 136.695213 216.125234 
L 143.709918 238.069875 
L 150.724623 244.085983 
L 157.739328 231.153157 
L 164.301563 217.326382 
L 172.176691 234.192834 
L 180.73581 237.502209 
L 188.213557 240.355943 
L 197.590178 241.231 
L 209.20418 241.687587 
L 220.818181 240.112002 
L 232.432183 256.787029 
L 244.046184 247.691418 
L 255.660186 249.953518 
L 267.274187 259.417105 
L 278.888189 257.857826 
L 290.50219 263.13451 
L 302.116192 270.440581 
L 313.730193 271.239192 
L 325.344195 274.424669 
L 336.958196 288.735152 
L 348.572198 291.149618 
L 360.186199 284.965525 
L 371.800201 277.436548 
L 383.414202 266.594277 
L 395.028204 258.528137 
" clip-path="url(#p9bf3f2e997)" style="fill: none; stroke: #ff6600; stroke-width: 1.3; stroke-linecap: square"/>
   </g>
   <g id="line2d_62">
    <path d="M 94.606983 19.262841 
L 101.621688 188.033822 
L 108.636393 87.785262 
L 115.651098 161.932814 
L 122.665803 126.180784 
L 129.680508 77.896532 
L 136.695213 114.316292 
L 143.709918 150.27865 
L 150.724623 142.517086 
L 157.739328 110.801352 
L 164.301563 95.453496 
L 172.176691 132.398457 
L 180.73581 127.282834 
L 188.213557 146.623442 
L 197.590178 142.740252 
L 209.20418 142.746363 
L 220.818181 139.502106 
L 232.432183 171.400888 
L 244.046184 156.490467 
L 255.660186 162.422321 
L 267.274187 184.652456 
L 278.888189 188.379693 
L 290.50219 204.578492 
L 302.116192 225.590769 
L 313.730193 236.761957 
L 325.344195 251.575348 
L 336.958196 275.683832 
L 348.572198 281.593484 
L 360.186199 277.743237 
L 371.800201 271.603975 
L 383.414202 260.702943 
L 395.028204 249.909958 
" clip-path="url(#p9bf3f2e997)" style="fill: none; stroke: #3380ff; stroke-width: 2; stroke-linecap: square"/>
   </g>
   <g id="line2d_63">
    <path d="M 87.592278 332.242281 
L 94.606983 305.508777 
L 101.621688 336.514406 
L 108.636393 225.061529 
L 115.651098 276.846461 
L 122.665803 246.949676 
L 129.680508 220.778893 
L 136.695213 221.548483 
L 143.709918 237.149192 
L 150.724623 245.169592 
L 157.739328 228.74583 
L 164.301563 219.176871 
L 172.176691 233.922813 
L 180.73581 238.810803 
L 188.213557 239.943069 
L 197.590178 240.531159 
L 209.20418 243.160218 
L 220.818181 240.307914 
L 232.432183 256.681386 
L 244.046184 249.035215 
L 255.660186 250.982932 
L 267.274187 261.367236 
L 278.888189 261.533102 
L 290.50219 267.569202 
L 302.116192 276.762928 
L 313.730193 275.88816 
L 325.344195 276.934492 
L 336.958196 285.58705 
L 348.572198 284.894057 
L 360.186199 278.808814 
L 371.800201 271.96991 
L 383.414202 260.773935 
L 395.028204 249.337996 
" clip-path="url(#p9bf3f2e997)" style="fill: none; stroke: #ff5500; stroke-width: 1.3; stroke-linecap: square"/>
   </g>
   <g id="line2d_64">
    <path d="M 87.592278 242.20344 
L 94.606983 218.688513 
L 101.621688 257.814823 
L 108.636393 95.704612 
L 115.651098 160.11901 
L 122.665803 129.601424 
L 129.680508 89.362333 
L 136.695213 106.026653 
L 143.709918 146.474167 
L 150.724623 145.877911 
L 157.739328 122.93676 
L 164.301563 100.922831 
L 172.176691 134.982509 
L 180.73581 135.595139 
L 188.213557 151.04649 
L 197.590178 150.600465 
L 209.20418 154.213786 
L 220.818181 153.783852 
L 232.432183 188.653385 
L 244.046184 180.529399 
L 255.660186 192.336906 
L 267.274187 216.580794 
L 278.888189 224.674661 
L 290.50219 240.592471 
L 302.116192 258.050873 
L 313.730193 265.126032 
L 325.344195 271.516381 
L 336.958196 283.30143 
L 348.572198 284.30244 
L 360.186199 279.12629 
L 371.800201 272.499024 
L 383.414202 262.02171 
L 395.028204 250.206164 
" clip-path="url(#p9bf3f2e997)" style="fill: none; stroke: #2d76f2; stroke-width: 2; stroke-linecap: square"/>
   </g>
   <g id="line2d_65">
    <path d="M 87.592278 329.142722 
L 94.606983 308.204674 
L 101.621688 331.782561 
L 108.636393 228.96708 
L 115.651098 263.73205 
L 122.665803 251.883693 
L 129.680508 229.953177 
L 136.695213 217.391459 
L 143.709918 237.659753 
L 150.724623 244.029557 
L 157.739328 230.547228 
L 164.301563 216.482786 
L 172.176691 232.468197 
L 180.73581 241.18626 
L 188.213557 238.354929 
L 197.590178 241.445494 
L 209.20418 242.586933 
L 220.818181 240.666056 
L 232.432183 257.428273 
L 244.046184 250.098971 
L 255.660186 253.20329 
L 267.274187 263.676479 
L 278.888189 264.175301 
L 290.50219 269.552823 
L 302.116192 277.00484 
L 313.730193 274.690199 
L 325.344195 275.448534 
L 336.958196 284.448231 
L 348.572198 284.964402 
L 360.186199 279.938631 
L 371.800201 272.749571 
L 383.414202 263.144255 
L 395.028204 250.187927 
" clip-path="url(#p9bf3f2e997)" style="fill: none; stroke: #ff4400; stroke-width: 1.3; stroke-linecap: square"/>
   </g>
   <g id="line2d_66">
    <path d="M 87.592278 307.39752 
L 94.606983 227.167758 
L 101.621688 267.022742 
L 108.636393 103.453875 
L 115.651098 160.478953 
L 122.665803 133.227144 
L 129.680508 95.824699 
L 136.695213 108.126295 
L 143.709918 147.161401 
L 150.724623 148.58102 
L 157.739328 128.321399 
L 164.301563 106.932479 
L 172.176691 140.484844 
L 180.73581 143.387821 
L 188.213557 158.938583 
L 197.590178 160.932011 
L 209.20418 167.790699 
L 220.818181 171.507534 
L 232.432183 206.956937 
L 244.046184 203.384519 
L 255.660186 216.119335 
L 267.274187 237.09499 
L 278.888189 243.275294 
L 290.50219 255.234987 
L 302.116192 268.104011 
L 313.730193 270.855485 
L 325.344195 273.893491 
L 336.958196 284.060058 
L 348.572198 285.015932 
L 360.186199 280.267009 
L 371.800201 273.207187 
L 383.414202 263.35478 
L 395.028204 250.482635 
" clip-path="url(#p9bf3f2e997)" style="fill: none; stroke: #266ce6; stroke-width: 2; stroke-linecap: square"/>
   </g>
   <g id="line2d_67">
    <path d="M 87.592278 324.890835 
L 94.606983 306.226414 
L 101.621688 331.945476 
L 108.636393 231.696149 
L 115.651098 265.427781 
L 122.665803 248.035068 
L 129.680508 224.265206 
L 136.695213 215.099849 
L 143.709918 241.470487 
L 150.724623 243.57097 
L 157.739328 228.846272 
L 164.301563 220.554549 
L 172.176691 234.005889 
L 180.73581 238.891404 
L 188.213557 237.819594 
L 197.590178 242.372902 
L 209.20418 242.966422 
L 220.818181 240.753293 
L 232.432183 258.781637 
L 244.046184 251.614255 
L 255.660186 254.593289 
L 267.274187 264.966616 
L 278.888189 264.342441 
L 290.50219 269.276612 
L 302.116192 277.306582 
L 313.730193 275.002648 
L 325.344195 274.858274 
L 336.958196 284.334518 
L 348.572198 285.350785 
L 360.186199 280.644603 
L 371.800201 273.26323 
L 383.414202 263.736334 
L 395.028204 250.40938 
" clip-path="url(#p9bf3f2e997)" style="fill: none; stroke: #fe3300; stroke-width: 1.3; stroke-linecap: square"/>
   </g>
   <g id="line2d_68">
    <path d="M 87.592278 317.748203 
L 94.606983 230.399898 
L 101.621688 272.682949 
L 108.636393 106.182473 
L 115.651098 163.492806 
L 122.665803 136.728423 
L 129.680508 99.834212 
L 136.695213 109.980724 
L 143.709918 149.585344 
L 150.724623 152.660881 
L 157.739328 133.882156 
L 164.301563 113.260984 
L 172.176691 147.51479 
L 180.73581 152.067716 
L 188.213557 168.262607 
L 197.590178 172.685311 
L 209.20418 182.081552 
L 220.818181 188.570665 
L 232.432183 222.304141 
L 244.046184 219.742392 
L 255.660186 230.211011 
L 267.274187 247.213585 
L 278.888189 250.707694 
L 290.50219 260.3696 
L 302.116192 272.210531 
L 313.730193 273.074598 
L 325.344195 274.494972 
L 336.958196 284.360068 
L 348.572198 285.49991 
L 360.186199 280.756082 
L 371.800201 273.471749 
L 383.414202 263.731032 
L 395.028204 250.536471 
" clip-path="url(#p9bf3f2e997)" style="fill: none; stroke: #2063d9; stroke-width: 2; stroke-linecap: square"/>
   </g>
   <g id="line2d_69">
    <path d="M 87.592278 320.070694 
L 94.606983 311.048158 
L 101.621688 333.388867 
L 108.636393 223.697408 
L 115.651098 262.157195 
L 122.665803 248.261707 
L 129.680508 223.397018 
L 136.695213 221.828568 
L 143.709918 237.248145 
L 150.724623 243.476145 
L 157.739328 231.112436 
L 164.301563 218.393084 
L 172.176691 233.801099 
L 180.73581 240.123238 
L 188.213557 237.426657 
L 197.590178 241.281457 
L 209.20418 243.531225 
L 220.818181 242.142995 
L 232.432183 259.637259 
L 244.046184 252.515169 
L 255.660186 255.571145 
L 267.274187 264.548954 
L 278.888189 264.106913 
L 290.50219 270.428147 
L 302.116192 277.950678 
L 313.730193 274.242881 
L 325.344195 274.751029 
L 336.958196 284.552261 
L 348.572198 285.714636 
L 360.186199 280.869586 
L 371.800201 273.515474 
L 383.414202 263.838048 
L 395.028204 250.565798 
" clip-path="url(#p9bf3f2e997)" style="fill: none; stroke: #ee2600; stroke-width: 1.3; stroke-linecap: square"/>
   </g>
   <g id="line2d_70">
    <path d="M 87.592278 319.810705 
L 94.606983 232.728638 
L 101.621688 275.93902 
L 108.636393 109.777259 
L 115.651098 164.456979 
L 122.665803 139.51154 
L 129.680508 104.743031 
L 136.695213 113.100178 
L 143.709918 152.46612 
L 150.724623 156.839477 
L 157.739328 139.960011 
L 164.301563 120.727389 
L 172.176691 155.267767 
L 180.73581 161.585531 
L 188.213557 178.209631 
L 197.590178 184.580063 
L 209.20418 195.253261 
L 220.818181 202.516384 
L 232.432183 233.265574 
L 244.046184 229.811869 
L 255.660186 237.322376 
L 267.274187 251.171367 
L 278.888189 253.962445 
L 290.50219 264.1919 
L 302.116192 274.789414 
L 313.730193 273.488715 
L 325.344195 274.722792 
L 336.958196 284.635538 
L 348.572198 285.785056 
L 360.186199 280.972178 
L 371.800201 273.572043 
L 383.414202 263.853301 
L 395.028204 250.549372 
" clip-path="url(#p9bf3f2e997)" style="fill: none; stroke: #1a59cc; stroke-width: 2; stroke-linecap: square"/>
   </g>
   <g id="line2d_71">
    <path d="M 87.592278 325.065537 
L 94.606983 311.951323 
L 101.621688 330.643457 
L 108.636393 228.915724 
L 115.651098 261.544004 
L 122.665803 246.564828 
L 129.680508 225.807243 
L 136.695213 214.949915 
L 143.709918 239.84565 
L 150.724623 243.793354 
L 157.739328 230.888216 
L 164.301563 218.567388 
L 172.176691 233.86642 
L 180.73581 240.258647 
L 188.213557 237.088328 
L 197.590178 242.415309 
L 209.20418 244.055445 
L 220.818181 243.086361 
L 232.432183 260.646936 
L 244.046184 252.922596 
L 255.660186 254.975812 
L 267.274187 264.057997 
L 278.888189 265.031993 
L 290.50219 271.820162 
L 302.116192 277.3848 
L 313.730193 273.816189 
L 325.344195 274.853049 
L 336.958196 284.761455 
L 348.572198 285.968509 
L 360.186199 281.040076 
L 371.800201 273.519229 
L 383.414202 263.968129 
L 395.028204 252.356572 
" clip-path="url(#p9bf3f2e997)" style="fill: none; stroke: #dd1a00; stroke-width: 1.3; stroke-linecap: square"/>
   </g>
   <g id="line2d_72">
    <path d="M 87.592278 320.500854 
L 94.606983 234.303106 
L 101.621688 277.705651 
L 108.636393 112.488438 
L 115.651098 165.942869 
L 122.665803 142.965637 
L 129.680508 109.378227 
L 136.695213 116.564409 
L 143.709918 155.987173 
L 150.724623 161.787998 
L 157.739328 146.38395 
L 164.301563 128.936333 
L 172.176691 163.463651 
L 180.73581 171.312706 
L 188.213557 187.992018 
L 197.590178 195.512951 
L 209.20418 206.234835 
L 220.818181 212.826284 
L 232.432183 240.379013 
L 244.046184 235.142527 
L 255.660186 240.140088 
L 267.274187 253.229818 
L 278.888189 257.101347 
L 290.50219 267.278649 
L 302.116192 275.616922 
L 313.730193 273.597139 
L 325.344195 274.869253 
L 336.958196 284.826132 
L 348.572198 285.943796 
L 360.186199 281.066599 
L 371.800201 273.607724 
L 383.414202 263.895472 
L 395.028204 250.553354 
" clip-path="url(#p9bf3f2e997)" style="fill: none; stroke: #1350bf; stroke-width: 2; stroke-linecap: square"/>
   </g>
   <g id="line2d_73">
    <path d="M 87.592278 327.980306 
L 94.606983 304.287302 
L 101.621688 325.643373 
L 108.636393 233.280748 
L 115.651098 257.154339 
L 122.665803 249.304908 
L 129.680508 227.526119 
L 136.695213 214.374189 
L 143.709918 238.237483 
L 150.724623 244.087876 
L 157.739328 230.302645 
L 164.301563 219.05564 
L 172.176691 234.066179 
L 180.73581 239.621077 
L 188.213557 237.974083 
L 197.590178 243.005425 
L 209.20418 245.128111 
L 220.818181 243.782695 
L 232.432183 260.947521 
L 244.046184 252.477748 
L 255.660186 254.18792 
L 267.274187 264.659244 
L 278.888189 266.469974 
L 290.50219 272.251769 
L 302.116192 276.606004 
L 313.730193 273.743569 
L 325.344195 274.967133 
L 336.958196 284.923769 
L 348.572198 286.158695 
L 360.186199 281.081897 
L 371.800201 273.48878 
L 383.414202 264.106872 
L 395.028204 250.398288 
" clip-path="url(#p9bf3f2e997)" style="fill: none; stroke: #cc0d00; stroke-width: 1.3; stroke-linecap: square"/>
   </g>
   <g id="line2d_74">
    <path d="M 87.592278 320.99364 
L 94.606983 235.419418 
L 101.621688 279.601864 
L 108.636393 115.01874 
L 115.651098 168.402672 
L 122.665803 146.351119 
L 129.680508 113.869415 
L 136.695213 120.587596 
L 143.709918 160.079347 
L 150.724623 167.207022 
L 157.739328 152.963578 
L 164.301563 137.581838 
L 172.176691 171.667849 
L 180.73581 180.724673 
L 188.213557 196.972887 
L 197.590178 204.867251 
L 209.20418 214.801427 
L 220.818181 219.930735 
L 232.432183 244.381755 
L 244.046184 237.327054 
L 255.660186 241.699127 
L 267.274187 255.459423 
L 278.888189 259.975954 
L 290.50219 269.17752 
L 302.116192 275.636474 
L 313.730193 273.716916 
L 325.344195 274.995618 
L 336.958196 284.94138 
L 348.572198 286.027395 
L 360.186199 281.104363 
L 371.800201 273.621055 
L 383.414202 263.909482 
L 395.028204 250.557356 
" clip-path="url(#p9bf3f2e997)" style="fill: none; stroke: #0d46b2; stroke-width: 2; stroke-linecap: square"/>
   </g>
   <g id="line2d_75">
    <path d="M 87.592278 327.746389 
L 94.606983 313.184658 
L 101.621688 326.869758 
L 108.636393 228.68026 
L 115.651098 257.151142 
L 122.665803 245.253928 
L 129.680508 225.473576 
L 136.695213 218.288169 
L 143.709918 237.356013 
L 150.724623 244.724057 
L 157.739328 230.762071 
L 164.301563 220.952971 
L 172.176691 233.363191 
L 180.73581 241.630177 
L 188.213557 236.824735 
L 197.590178 244.595287 
L 209.20418 245.421851 
L 220.818181 244.045244 
L 232.432183 260.682998 
L 244.046184 251.795226 
L 255.660186 254.251712 
L 267.274187 265.85826 
L 278.888189 267.167309 
L 290.50219 272.263228 
L 302.116192 275.954753 
L 313.730193 273.754335 
L 325.344195 275.094989 
L 336.958196 284.990904 
L 348.572198 286.126602 
L 360.186199 281.057689 
L 371.800201 273.617576 
L 383.414202 263.973698 
L 395.028204 250.528833 
" clip-path="url(#p9bf3f2e997)" style="fill: none; stroke: #b30908; stroke-width: 1.3; stroke-linecap: square"/>
   </g>
   <g id="line2d_76">
    <path d="M 87.592278 324.999553 
L 94.606983 305.342779 
L 101.621688 328.665163 
L 108.636393 225.907473 
L 115.651098 260.679351 
L 122.665803 242.842603 
L 129.680508 227.989634 
L 136.695213 218.985109 
L 143.709918 237.411229 
L 150.724623 244.342276 
L 157.739328 231.620035 
L 164.301563 218.059631 
L 172.176691 233.236189 
L 180.73581 242.10627 
L 188.213557 238.549207 
L 197.590178 244.126475 
L 209.20418 246.648301 
L 220.818181 243.939751 
L 232.432183 259.600181 
L 244.046184 251.473326 
L 255.660186 255.174424 
L 267.274187 266.564404 
L 278.888189 267.87951 
L 290.50219 271.889242 
L 302.116192 275.602129 
L 313.730193 273.785296 
L 325.344195 275.175215 
L 336.958196 285.052352 
L 348.572198 286.079292 
L 360.186199 281.219915 
L 371.800201 273.541445 
L 383.414202 264.093493 
L 395.028204 250.39533 
" clip-path="url(#p9bf3f2e997)" style="fill: none; stroke: #990411; stroke-width: 1.3; stroke-linecap: square"/>
   </g>
   <g id="line2d_77">
    <path d="M 87.592278 321.51465 
L 94.606983 237.91542 
L 101.621688 283.236968 
L 108.636393 120.154658 
L 115.651098 173.545895 
L 122.665803 153.354354 
L 129.680508 123.017763 
L 136.695213 129.740847 
L 143.709918 169.31915 
L 150.724623 178.875017 
L 157.739328 166.086359 
L 164.301563 154.647326 
L 172.176691 186.79478 
L 180.73581 197.065925 
L 188.213557 211.358438 
L 197.590178 218.448032 
L 209.20418 225.492425 
L 220.818181 226.586797 
L 232.432183 246.906954 
L 244.046184 239.542607 
L 255.660186 245.192616 
L 267.274187 259.61731 
L 278.888189 263.986272 
L 290.50219 270.45687 
L 302.116192 275.469442 
L 313.730193 273.763748 
L 325.344195 275.187723 
L 336.958196 285.051736 
L 348.572198 286.087195 
L 360.186199 281.129735 
L 371.800201 273.624503 
L 383.414202 263.921882 
L 395.028204 250.571155 
" clip-path="url(#p9bf3f2e997)" style="fill: none; stroke: #003399; stroke-width: 2; stroke-linecap: square"/>
   </g>
   <g id="line2d_78">
    <path d="M 87.592278 323.433365 
L 94.606983 315.441597 
L 101.621688 325.721801 
L 108.636393 230.475561 
L 115.651098 255.1813 
L 122.665803 242.264792 
L 129.680508 231.288874 
L 136.695213 211.340677 
L 143.709918 238.652067 
L 150.724623 245.06894 
L 157.739328 229.383158 
L 164.301563 222.666631 
L 172.176691 235.056798 
L 180.73581 241.776135 
L 188.213557 239.556763 
L 197.590178 244.52235 
L 209.20418 246.29127 
L 220.818181 243.571938 
L 232.432183 259.239835 
L 244.046184 251.704944 
L 255.660186 255.772728 
L 267.274187 267.285734 
L 278.888189 268.295506 
L 290.50219 271.285295 
L 302.116192 275.463511 
L 313.730193 273.830833 
L 325.344195 275.214169 
L 336.958196 285.070364 
L 348.572198 286.21483 
L 360.186199 281.162095 
L 371.800201 273.498966 
L 383.414202 264.066021 
L 395.028204 250.895457 
" clip-path="url(#p9bf3f2e997)" style="fill: none; stroke: #800019; stroke-width: 1.3; stroke-linecap: square"/>
   </g>
   <g id="patch_3">
    <path d="M 72.220481 361.762089 
L 72.220481 28.518498 
" style="fill: none; stroke: #000000; stroke-width: 0.8; stroke-linejoin: miter; stroke-linecap: square"/>
   </g>
   <g id="patch_4">
    <path d="M 410.4 361.762089 
L 410.4 28.518498 
" style="fill: none; stroke: #000000; stroke-width: 0.8; stroke-linejoin: miter; stroke-linecap: square"/>
   </g>
   <g id="patch_5">
    <path d="M 72.220481 361.762089 
L 410.4 361.762089 
" style="fill: none; stroke: #000000; stroke-width: 0.8; stroke-linejoin: miter; stroke-linecap: square"/>
   </g>
   <g id="patch_6">
    <path d="M 72.220481 28.518498 
L 410.4 28.518498 
" style="fill: none; stroke: #000000; stroke-width: 0.8; stroke-linejoin: miter; stroke-linecap: square"/>
   </g>
   <g id="legend_1">
    <g id="line2d_79">
     <path d="M 314.346213 44.593237 
L 326.346213 44.593237 
L 338.346213 44.593237 
" style="fill: none; stroke-dasharray: 3.7,1.6; stroke-dashoffset: 0; stroke: #0000ff; stroke-opacity: 0.5"/>
    </g>
    <g id="text_15">
     <!-- $T^2$ scaling -->
     <g transform="translate(347.946213 48.793237) scale(0.12 -0.12)">
      <use xlink:href="#CMMI12-54" transform="scale(0.996264)"/>
      <use xlink:href="#CMR17-32" transform="translate(70.723632 36.153639) scale(0.697382)"/>
      <use xlink:href="#CMR17-73" transform="translate(133.280913 0) scale(0.996264)"/>
      <use xlink:href="#CMR17-63" transform="translate(169.08225 0) scale(0.996264)"/>
      <use xlink:href="#CMR17-61" transform="translate(209.567911 0) scale(0.996264)"/>
      <use xlink:href="#CMR17-6c" transform="translate(255.258388 0) scale(0.996264)"/>
      <use xlink:href="#CMR17-69" transform="translate(280.129446 0) scale(0.996264)"/>
      <use xlink:href="#CMR17-6e" transform="translate(305.000505 0) scale(0.996264)"/>
      <use xlink:href="#CMR17-67" transform="translate(355.895874 0) scale(0.996264)"/>
     </g>
    </g>
    <g id="line2d_80">
     <path d="M 314.346213 62.392572 
L 326.346213 62.392572 
L 338.346213 62.392572 
" style="fill: none; stroke-dasharray: 6.4,1.6,1,1.6; stroke-dashoffset: 0; stroke: #ff0000; stroke-opacity: 0.5"/>
    </g>
    <g id="text_16">
     <!-- $T^4$ scaling -->
     <g transform="translate(347.946213 66.592572) scale(0.12 -0.12)">
      <use xlink:href="#CMMI12-54" transform="scale(0.996264)"/>
      <use xlink:href="#CMR17-34" transform="translate(70.723632 36.153639) scale(0.697382)"/>
      <use xlink:href="#CMR17-73" transform="translate(133.280913 0) scale(0.996264)"/>
      <use xlink:href="#CMR17-63" transform="translate(169.08225 0) scale(0.996264)"/>
      <use xlink:href="#CMR17-61" transform="translate(209.567911 0) scale(0.996264)"/>
      <use xlink:href="#CMR17-6c" transform="translate(255.258388 0) scale(0.996264)"/>
      <use xlink:href="#CMR17-69" transform="translate(280.129446 0) scale(0.996264)"/>
      <use xlink:href="#CMR17-6e" transform="translate(305.000505 0) scale(0.996264)"/>
      <use xlink:href="#CMR17-67" transform="translate(355.895874 0) scale(0.996264)"/>
     </g>
    </g>
   </g>
  </g>
 </g>
 <defs>
  <clipPath id="p9bf3f2e997">
   <rect x="72.220481" y="28.518498" width="338.179519" height="333.243591"/>
  </clipPath>
 </defs>
</svg>
