<?xml version="1.0" encoding="utf-8" standalone="no"?>
<!DOCTYPE svg PUBLIC "-//W3C//DTD SVG 1.1//EN"
  "http://www.w3.org/Graphics/SVG/1.1/DTD/svg11.dtd">
<svg xmlns:xlink="http://www.w3.org/1999/xlink" width="518.4pt" height="388.8pt" viewBox="0 0 518.4 388.8" xmlns="http://www.w3.org/2000/svg" version="1.1">
 <metadata>
  <rdf:RDF xmlns:dc="http://purl.org/dc/elements/1.1/" xmlns:cc="http://creativecommons.org/ns#" xmlns:rdf="http://www.w3.org/1999/02/22-rdf-syntax-ns#">
   <cc:Work>
    <dc:type rdf:resource="http://purl.org/dc/dcmitype/StillImage"/>
    <dc:date>2026-01-28T21:44:04.201446</dc:date>
    <dc:format>image/svg+xml</dc:format>
    <dc:creator>
     <cc:Agent>
      <dc:title>Matplotlib v3.8.4, https://matplotlib.org/</dc:title>
     </cc:Agent>
    </dc:creator>
   </cc:Work>
  </rdf:RDF>
 </metadata>
 <defs>
  <style type="text/css">*{stroke-linejoin: round; stroke-linecap: butt}</style>
 </defs>
 <g id="figure_1">
  <g id="patch_1">
   <path d="M 0 388.8 
L 518.4 388.8 
L 518.4 0 
L 0 0 
z
" style="fill: #ffffff"/>
  </g>
  <g id="axes_1">
   <g id="patch_2">
    <path d="M 88.443504 320.774739 
L 484.247675 320.774739 
L 484.247675 21.6 
L 88.443504 21.6 
z
" style="fill: #ffffff"/>
   </g>
   <g id="matplotlib.axis_1">
    <g id="xtick_1">
     <g id="line2d_1">
      <defs>
       <path id="m862650ac65" d="M 0 0 
L 0 3.5 
" style="stroke: #000000; stroke-width: 0.8"/>
      </defs>
      <g>
       <use xlink:href="#m862650ac65" x="88.443504" y="320.774739" style="stroke: #000000; stroke-width: 0.8"/>
      </g>
     </g>
     <g id="text_1">
      <!-- $\mathdefault{10^{-2}}$ -->
      <g transform="translate(70.467085 341.611736) scale(0.2 -0.2)">
       <defs>
        <path id="CMR17-31" d="M 1702 4058 
C 1702 4192 1696 4192 1606 4192 
C 1357 3916 979 3827 621 3827 
C 602 3827 570 3827 563 3808 
C 557 3795 557 3782 557 3648 
C 755 3648 1088 3686 1344 3839 
L 1344 461 
C 1344 236 1331 160 781 160 
L 589 160 
L 589 0 
C 896 0 1216 0 1523 0 
C 1830 0 2150 0 2458 0 
L 2458 160 
L 2266 160 
C 1715 160 1702 230 1702 458 
L 1702 4058 
z
" transform="scale(0.015625)"/>
        <path id="CMR17-30" d="M 2688 2025 
C 2688 2416 2682 3080 2413 3591 
C 2176 4039 1798 4198 1466 4198 
C 1158 4198 768 4058 525 3597 
C 269 3118 243 2524 243 2025 
C 243 1661 250 1106 448 619 
C 723 -39 1216 -128 1466 -128 
C 1760 -128 2208 -7 2470 600 
C 2662 1042 2688 1559 2688 2025 
z
M 1466 -26 
C 1056 -26 813 325 723 812 
C 653 1188 653 1738 653 2096 
C 653 2588 653 2997 736 3387 
C 858 3929 1216 4096 1466 4096 
C 1728 4096 2067 3923 2189 3400 
C 2272 3036 2278 2607 2278 2096 
C 2278 1680 2278 1169 2202 792 
C 2067 95 1690 -26 1466 -26 
z
" transform="scale(0.015625)"/>
        <path id="CMSY10-0" d="M 4218 1472 
C 4326 1472 4442 1472 4442 1600 
C 4442 1728 4326 1728 4218 1728 
L 755 1728 
C 646 1728 531 1728 531 1600 
C 531 1472 646 1472 755 1472 
L 4218 1472 
z
" transform="scale(0.015625)"/>
        <path id="CMR17-32" d="M 2669 989 
L 2554 989 
C 2490 536 2438 459 2413 420 
C 2381 369 1920 369 1830 369 
L 602 369 
C 832 619 1280 1072 1824 1597 
C 2214 1967 2669 2402 2669 3035 
C 2669 3790 2067 4224 1395 4224 
C 691 4224 262 3604 262 3030 
C 262 2780 448 2748 525 2748 
C 589 2748 781 2787 781 3010 
C 781 3207 614 3264 525 3264 
C 486 3264 448 3258 422 3245 
C 544 3790 915 4058 1306 4058 
C 1862 4058 2227 3617 2227 3035 
C 2227 2479 1901 2000 1536 1584 
L 262 146 
L 262 0 
L 2515 0 
L 2669 989 
z
" transform="scale(0.015625)"/>
       </defs>
       <use xlink:href="#CMR17-31" transform="scale(0.996264)"/>
       <use xlink:href="#CMR17-30" transform="translate(45.690477 0) scale(0.996264)"/>
       <use xlink:href="#CMSY10-0" transform="translate(91.380954 36.153639) scale(0.697382)"/>
       <use xlink:href="#CMR17-32" transform="translate(145.621947 36.153639) scale(0.697382)"/>
      </g>
     </g>
    </g>
    <g id="xtick_2">
     <g id="line2d_2">
      <g>
       <use xlink:href="#m862650ac65" x="187.394547" y="320.774739" style="stroke: #000000; stroke-width: 0.8"/>
      </g>
     </g>
     <g id="text_2">
      <!-- $\mathdefault{10^{-1}}$ -->
      <g transform="translate(169.418128 341.611736) scale(0.2 -0.2)">
       <use xlink:href="#CMR17-31" transform="scale(0.996264)"/>
       <use xlink:href="#CMR17-30" transform="translate(45.690477 0) scale(0.996264)"/>
       <use xlink:href="#CMSY10-0" transform="translate(91.380954 36.153639) scale(0.697382)"/>
       <use xlink:href="#CMR17-31" transform="translate(145.621947 36.153639) scale(0.697382)"/>
      </g>
     </g>
    </g>
    <g id="xtick_3">
     <g id="line2d_3">
      <g>
       <use xlink:href="#m862650ac65" x="286.34559" y="320.774739" style="stroke: #000000; stroke-width: 0.8"/>
      </g>
     </g>
     <g id="text_3">
      <!-- $\mathdefault{10^{0}}$ -->
      <g transform="translate(273.793265 341.611736) scale(0.2 -0.2)">
       <use xlink:href="#CMR17-31" transform="scale(0.996264)"/>
       <use xlink:href="#CMR17-30" transform="translate(45.690477 0) scale(0.996264)"/>
       <use xlink:href="#CMR17-30" transform="translate(91.380954 36.153639) scale(0.697382)"/>
      </g>
     </g>
    </g>
    <g id="xtick_4">
     <g id="line2d_4">
      <g>
       <use xlink:href="#m862650ac65" x="385.296633" y="320.774739" style="stroke: #000000; stroke-width: 0.8"/>
      </g>
     </g>
     <g id="text_4">
      <!-- $\mathdefault{10^{1}}$ -->
      <g transform="translate(372.744308 341.611736) scale(0.2 -0.2)">
       <use xlink:href="#CMR17-31" transform="scale(0.996264)"/>
       <use xlink:href="#CMR17-30" transform="translate(45.690477 0) scale(0.996264)"/>
       <use xlink:href="#CMR17-31" transform="translate(91.380954 36.153639) scale(0.697382)"/>
      </g>
     </g>
    </g>
    <g id="xtick_5">
     <g id="line2d_5">
      <g>
       <use xlink:href="#m862650ac65" x="484.247675" y="320.774739" style="stroke: #000000; stroke-width: 0.8"/>
      </g>
     </g>
     <g id="text_5">
      <!-- $\mathdefault{10^{2}}$ -->
      <g transform="translate(471.695351 341.611736) scale(0.2 -0.2)">
       <use xlink:href="#CMR17-31" transform="scale(0.996264)"/>
       <use xlink:href="#CMR17-30" transform="translate(45.690477 0) scale(0.996264)"/>
       <use xlink:href="#CMR17-32" transform="translate(91.380954 36.153639) scale(0.697382)"/>
      </g>
     </g>
    </g>
    <g id="xtick_6">
     <g id="line2d_6">
      <defs>
       <path id="m42cc2870cf" d="M 0 0 
L 0 2 
" style="stroke: #000000; stroke-width: 0.6"/>
      </defs>
      <g>
       <use xlink:href="#m42cc2870cf" x="118.230736" y="320.774739" style="stroke: #000000; stroke-width: 0.6"/>
      </g>
     </g>
    </g>
    <g id="xtick_7">
     <g id="line2d_7">
      <g>
       <use xlink:href="#m42cc2870cf" x="135.65515" y="320.774739" style="stroke: #000000; stroke-width: 0.6"/>
      </g>
     </g>
    </g>
    <g id="xtick_8">
     <g id="line2d_8">
      <g>
       <use xlink:href="#m42cc2870cf" x="148.017968" y="320.774739" style="stroke: #000000; stroke-width: 0.6"/>
      </g>
     </g>
    </g>
    <g id="xtick_9">
     <g id="line2d_9">
      <g>
       <use xlink:href="#m42cc2870cf" x="157.607315" y="320.774739" style="stroke: #000000; stroke-width: 0.6"/>
      </g>
     </g>
    </g>
    <g id="xtick_10">
     <g id="line2d_10">
      <g>
       <use xlink:href="#m42cc2870cf" x="165.442382" y="320.774739" style="stroke: #000000; stroke-width: 0.6"/>
      </g>
     </g>
    </g>
    <g id="xtick_11">
     <g id="line2d_11">
      <g>
       <use xlink:href="#m42cc2870cf" x="172.066837" y="320.774739" style="stroke: #000000; stroke-width: 0.6"/>
      </g>
     </g>
    </g>
    <g id="xtick_12">
     <g id="line2d_12">
      <g>
       <use xlink:href="#m42cc2870cf" x="177.8052" y="320.774739" style="stroke: #000000; stroke-width: 0.6"/>
      </g>
     </g>
    </g>
    <g id="xtick_13">
     <g id="line2d_13">
      <g>
       <use xlink:href="#m42cc2870cf" x="182.866796" y="320.774739" style="stroke: #000000; stroke-width: 0.6"/>
      </g>
     </g>
    </g>
    <g id="xtick_14">
     <g id="line2d_14">
      <g>
       <use xlink:href="#m42cc2870cf" x="217.181779" y="320.774739" style="stroke: #000000; stroke-width: 0.6"/>
      </g>
     </g>
    </g>
    <g id="xtick_15">
     <g id="line2d_15">
      <g>
       <use xlink:href="#m42cc2870cf" x="234.606193" y="320.774739" style="stroke: #000000; stroke-width: 0.6"/>
      </g>
     </g>
    </g>
    <g id="xtick_16">
     <g id="line2d_16">
      <g>
       <use xlink:href="#m42cc2870cf" x="246.969011" y="320.774739" style="stroke: #000000; stroke-width: 0.6"/>
      </g>
     </g>
    </g>
    <g id="xtick_17">
     <g id="line2d_17">
      <g>
       <use xlink:href="#m42cc2870cf" x="256.558358" y="320.774739" style="stroke: #000000; stroke-width: 0.6"/>
      </g>
     </g>
    </g>
    <g id="xtick_18">
     <g id="line2d_18">
      <g>
       <use xlink:href="#m42cc2870cf" x="264.393425" y="320.774739" style="stroke: #000000; stroke-width: 0.6"/>
      </g>
     </g>
    </g>
    <g id="xtick_19">
     <g id="line2d_19">
      <g>
       <use xlink:href="#m42cc2870cf" x="271.017879" y="320.774739" style="stroke: #000000; stroke-width: 0.6"/>
      </g>
     </g>
    </g>
    <g id="xtick_20">
     <g id="line2d_20">
      <g>
       <use xlink:href="#m42cc2870cf" x="276.756243" y="320.774739" style="stroke: #000000; stroke-width: 0.6"/>
      </g>
     </g>
    </g>
    <g id="xtick_21">
     <g id="line2d_21">
      <g>
       <use xlink:href="#m42cc2870cf" x="281.817838" y="320.774739" style="stroke: #000000; stroke-width: 0.6"/>
      </g>
     </g>
    </g>
    <g id="xtick_22">
     <g id="line2d_22">
      <g>
       <use xlink:href="#m42cc2870cf" x="316.132822" y="320.774739" style="stroke: #000000; stroke-width: 0.6"/>
      </g>
     </g>
    </g>
    <g id="xtick_23">
     <g id="line2d_23">
      <g>
       <use xlink:href="#m42cc2870cf" x="333.557236" y="320.774739" style="stroke: #000000; stroke-width: 0.6"/>
      </g>
     </g>
    </g>
    <g id="xtick_24">
     <g id="line2d_24">
      <g>
       <use xlink:href="#m42cc2870cf" x="345.920054" y="320.774739" style="stroke: #000000; stroke-width: 0.6"/>
      </g>
     </g>
    </g>
    <g id="xtick_25">
     <g id="line2d_25">
      <g>
       <use xlink:href="#m42cc2870cf" x="355.509401" y="320.774739" style="stroke: #000000; stroke-width: 0.6"/>
      </g>
     </g>
    </g>
    <g id="xtick_26">
     <g id="line2d_26">
      <g>
       <use xlink:href="#m42cc2870cf" x="363.344468" y="320.774739" style="stroke: #000000; stroke-width: 0.6"/>
      </g>
     </g>
    </g>
    <g id="xtick_27">
     <g id="line2d_27">
      <g>
       <use xlink:href="#m42cc2870cf" x="369.968922" y="320.774739" style="stroke: #000000; stroke-width: 0.6"/>
      </g>
     </g>
    </g>
    <g id="xtick_28">
     <g id="line2d_28">
      <g>
       <use xlink:href="#m42cc2870cf" x="375.707286" y="320.774739" style="stroke: #000000; stroke-width: 0.6"/>
      </g>
     </g>
    </g>
    <g id="xtick_29">
     <g id="line2d_29">
      <g>
       <use xlink:href="#m42cc2870cf" x="380.768881" y="320.774739" style="stroke: #000000; stroke-width: 0.6"/>
      </g>
     </g>
    </g>
    <g id="xtick_30">
     <g id="line2d_30">
      <g>
       <use xlink:href="#m42cc2870cf" x="415.083865" y="320.774739" style="stroke: #000000; stroke-width: 0.6"/>
      </g>
     </g>
    </g>
    <g id="xtick_31">
     <g id="line2d_31">
      <g>
       <use xlink:href="#m42cc2870cf" x="432.508278" y="320.774739" style="stroke: #000000; stroke-width: 0.6"/>
      </g>
     </g>
    </g>
    <g id="xtick_32">
     <g id="line2d_32">
      <g>
       <use xlink:href="#m42cc2870cf" x="444.871097" y="320.774739" style="stroke: #000000; stroke-width: 0.6"/>
      </g>
     </g>
    </g>
    <g id="xtick_33">
     <g id="line2d_33">
      <g>
       <use xlink:href="#m42cc2870cf" x="454.460443" y="320.774739" style="stroke: #000000; stroke-width: 0.6"/>
      </g>
     </g>
    </g>
    <g id="xtick_34">
     <g id="line2d_34">
      <g>
       <use xlink:href="#m42cc2870cf" x="462.29551" y="320.774739" style="stroke: #000000; stroke-width: 0.6"/>
      </g>
     </g>
    </g>
    <g id="xtick_35">
     <g id="line2d_35">
      <g>
       <use xlink:href="#m42cc2870cf" x="468.919965" y="320.774739" style="stroke: #000000; stroke-width: 0.6"/>
      </g>
     </g>
    </g>
    <g id="xtick_36">
     <g id="line2d_36">
      <g>
       <use xlink:href="#m42cc2870cf" x="474.658329" y="320.774739" style="stroke: #000000; stroke-width: 0.6"/>
      </g>
     </g>
    </g>
    <g id="xtick_37">
     <g id="line2d_37">
      <g>
       <use xlink:href="#m42cc2870cf" x="479.719924" y="320.774739" style="stroke: #000000; stroke-width: 0.6"/>
      </g>
     </g>
    </g>
    <g id="text_6">
     <!-- Chemical potential, $\mu$ -->
     <g transform="translate(199.505226 363.324366) scale(0.2 -0.2)">
      <defs>
       <path id="CMR17-43" d="M 3974 4289 
C 3974 4403 3968 4410 3930 4410 
C 3904 4410 3898 4403 3853 4327 
L 3571 3792 
C 3258 4187 2874 4416 2381 4416 
C 1286 4416 294 3456 294 2148 
C 294 826 1286 -128 2387 -128 
C 3366 -128 3974 730 3974 1461 
C 3974 1524 3974 1550 3917 1550 
C 3866 1550 3866 1531 3859 1474 
C 3808 585 3168 38 2477 38 
C 1824 38 781 495 781 2147 
C 781 3805 1843 4250 2464 4250 
C 3187 4250 3712 3628 3834 2745 
C 3846 2668 3846 2655 3904 2655 
C 3974 2655 3974 2668 3974 2783 
L 3974 4289 
z
" transform="scale(0.015625)"/>
       <path id="CMR17-68" d="M 2656 1933 
C 2656 2259 2592 2790 1837 2790 
C 1312 2790 1056 2368 979 2157 
L 973 2157 
L 973 4396 
L 211 4326 
L 211 4160 
C 589 4160 646 4122 646 3817 
L 646 426 
C 646 184 621 153 211 153 
L 211 -13 
C 365 0 646 0 813 0 
C 979 0 1267 0 1421 -13 
L 1421 153 
C 1011 153 986 178 986 428 
L 986 1658 
C 986 2247 1344 2688 1792 2688 
C 2266 2688 2317 2266 2317 1958 
L 2317 428 
C 2317 184 2291 153 1882 153 
L 1882 -13 
C 2035 0 2317 0 2483 0 
C 2650 0 2938 0 3091 -13 
L 3091 153 
C 2682 153 2656 178 2656 428 
L 2656 1933 
z
" transform="scale(0.015625)"/>
       <path id="CMR17-65" d="M 2438 1472 
C 2464 1498 2464 1511 2464 1576 
C 2464 2238 2118 2816 1389 2816 
C 710 2816 173 2169 173 1383 
C 173 551 781 -64 1459 -64 
C 2176 -64 2458 607 2458 740 
C 2458 784 2419 784 2406 784 
C 2362 784 2355 771 2330 696 
C 2189 265 1837 51 1504 51 
C 1229 51 954 203 781 480 
C 582 803 582 1176 582 1472 
L 2438 1472 
z
M 589 1568 
C 634 2505 1126 2714 1382 2714 
C 1818 2714 2112 2297 2118 1568 
L 589 1568 
z
" transform="scale(0.015625)"/>
       <path id="CMR17-6d" d="M 4326 1933 
C 4326 2252 4269 2790 3507 2790 
C 3072 2790 2771 2496 2656 2151 
L 2650 2151 
C 2573 2676 2195 2790 1837 2790 
C 1331 2790 1069 2400 973 2144 
L 966 2144 
L 966 2790 
L 211 2720 
L 211 2554 
C 589 2554 646 2515 646 2208 
L 646 428 
C 646 184 621 153 211 153 
L 211 -13 
C 365 0 646 0 813 0 
C 979 0 1267 0 1421 -13 
L 1421 153 
C 1011 153 986 178 986 428 
L 986 1658 
C 986 2247 1344 2688 1792 2688 
C 2266 2688 2317 2266 2317 1958 
L 2317 428 
C 2317 184 2291 153 1882 153 
L 1882 -13 
C 2035 0 2317 0 2483 0 
C 2650 0 2938 0 3091 -13 
L 3091 153 
C 2682 153 2656 178 2656 428 
L 2656 1658 
C 2656 2247 3014 2688 3462 2688 
C 3936 2688 3987 2266 3987 1958 
L 3987 428 
C 3987 184 3962 153 3552 153 
L 3552 -13 
C 3706 0 3987 0 4154 0 
C 4320 0 4608 0 4762 -13 
L 4762 153 
C 4352 153 4326 178 4326 428 
L 4326 1933 
z
" transform="scale(0.015625)"/>
       <path id="CMR17-69" d="M 992 3909 
C 992 4049 877 4170 730 4170 
C 589 4170 467 4056 467 3909 
C 467 3769 582 3648 730 3648 
C 870 3648 992 3763 992 3909 
z
M 243 2706 
L 243 2541 
C 602 2541 653 2502 653 2197 
L 653 427 
C 653 184 627 153 218 153 
L 218 -13 
C 371 0 646 0 806 0 
C 960 0 1222 0 1370 -13 
L 1370 153 
C 992 153 979 191 979 420 
L 979 2776 
L 243 2706 
z
" transform="scale(0.015625)"/>
       <path id="CMR17-63" d="M 2234 2240 
C 2112 2240 1933 2240 1933 2017 
C 1933 1838 2080 1787 2163 1787 
C 2208 1787 2394 1807 2394 2024 
C 2394 2467 1958 2803 1466 2803 
C 787 2803 211 2178 211 1363 
C 211 516 813 -64 1466 -64 
C 2259 -64 2458 677 2458 748 
C 2458 774 2451 793 2406 793 
C 2362 793 2355 787 2330 703 
C 2163 180 1798 51 1523 51 
C 1114 51 621 427 621 1369 
C 621 2338 1094 2688 1472 2688 
C 1722 2688 2093 2573 2234 2240 
z
" transform="scale(0.015625)"/>
       <path id="CMR17-61" d="M 2304 1653 
C 2304 2072 2304 2294 2035 2543 
C 1798 2752 1523 2816 1306 2816 
C 800 2816 435 2407 435 1971 
C 435 1728 627 1728 666 1728 
C 749 1728 896 1778 896 1954 
C 896 2112 774 2181 666 2181 
C 640 2181 608 2174 589 2168 
C 723 2592 1069 2714 1293 2714 
C 1613 2714 1965 2429 1965 1885 
L 1965 1600 
C 1587 1600 1133 1549 774 1357 
C 371 1133 256 813 256 570 
C 256 77 832 -64 1171 -64 
C 1523 -64 1850 139 1990 511 
C 2003 233 2182 -18 2464 -18 
C 2598 -18 2938 70 2938 567 
L 2938 920 
L 2822 920 
L 2822 562 
C 2822 178 2650 128 2566 128 
C 2304 128 2304 458 2304 738 
L 2304 1653 
z
M 1965 870 
C 1965 317 1568 38 1216 38 
C 896 38 646 275 646 570 
C 646 761 730 1100 1101 1305 
C 1408 1478 1760 1504 1965 1504 
L 1965 870 
z
" transform="scale(0.015625)"/>
       <path id="CMR17-6c" d="M 979 4396 
L 218 4326 
L 218 4160 
C 595 4160 653 4122 653 3817 
L 653 426 
C 653 184 627 153 218 153 
L 218 -13 
C 371 0 653 0 813 0 
C 979 0 1261 0 1414 -13 
L 1414 153 
C 1005 153 979 178 979 426 
L 979 4396 
z
" transform="scale(0.015625)"/>
       <path id="CMR17-70" d="M 1408 -1063 
C 998 -1063 973 -1037 973 -789 
L 973 402 
C 1158 134 1427 -38 1766 -38 
C 2406 -38 3053 523 3053 1388 
C 3053 2191 2496 2802 1837 2802 
C 1453 2802 1139 2592 960 2338 
L 960 2802 
L 198 2732 
L 198 2567 
C 576 2567 634 2528 634 2223 
L 634 -789 
C 634 -1031 608 -1063 198 -1063 
L 198 -1228 
C 352 -1216 634 -1216 800 -1216 
C 966 -1216 1254 -1216 1408 -1228 
L 1408 -1063 
z
M 973 2012 
C 973 2102 973 2235 1222 2471 
C 1254 2497 1472 2688 1792 2688 
C 2259 2688 2643 2108 2643 1382 
C 2643 656 2234 64 1728 64 
C 1498 64 1248 172 1056 472 
C 973 612 973 650 973 752 
L 973 2012 
z
" transform="scale(0.015625)"/>
       <path id="CMR17-6f" d="M 2758 1356 
C 2758 2176 2163 2816 1466 2816 
C 768 2816 173 2176 173 1356 
C 173 551 768 -64 1466 -64 
C 2163 -64 2758 551 2758 1356 
z
M 1466 51 
C 1165 51 909 230 762 480 
C 602 767 582 1126 582 1408 
C 582 1677 595 2010 762 2298 
C 890 2509 1139 2714 1466 2714 
C 1754 2714 1997 2554 2150 2330 
C 2349 2029 2349 1607 2349 1408 
C 2349 1158 2336 775 2163 467 
C 1984 173 1709 51 1466 51 
z
" transform="scale(0.015625)"/>
       <path id="CMR17-74" d="M 966 2560 
L 1862 2560 
L 1862 2725 
L 966 2725 
L 966 3904 
L 851 3904 
C 838 3245 614 2668 70 2668 
L 70 2560 
L 627 2560 
L 627 771 
C 627 650 627 -64 1370 -64 
C 1747 -64 1965 306 1965 777 
L 1965 1140 
L 1850 1140 
L 1850 783 
C 1850 344 1677 51 1408 51 
C 1222 51 966 178 966 758 
L 966 2560 
z
" transform="scale(0.015625)"/>
       <path id="CMR17-6e" d="M 2656 1933 
C 2656 2259 2592 2790 1837 2790 
C 1331 2790 1069 2400 973 2144 
L 966 2144 
L 966 2790 
L 211 2720 
L 211 2554 
C 589 2554 646 2515 646 2208 
L 646 428 
C 646 184 621 153 211 153 
L 211 -13 
C 365 0 646 0 813 0 
C 979 0 1267 0 1421 -13 
L 1421 153 
C 1011 153 986 178 986 428 
L 986 1658 
C 986 2247 1344 2688 1792 2688 
C 2266 2688 2317 2266 2317 1958 
L 2317 428 
C 2317 184 2291 153 1882 153 
L 1882 -13 
C 2035 0 2317 0 2483 0 
C 2650 0 2938 0 3091 -13 
L 3091 153 
C 2682 153 2656 178 2656 428 
L 2656 1933 
z
" transform="scale(0.015625)"/>
       <path id="CMR17-2c" d="M 1011 102 
C 1024 45 1024 25 1024 -77 
C 1024 -463 896 -817 627 -1139 
C 595 -1170 595 -1183 595 -1197 
C 595 -1222 621 -1248 646 -1248 
C 685 -1248 1126 -799 1126 -87 
C 1126 124 1101 522 800 522 
C 659 522 538 427 538 261 
C 538 96 659 0 800 0 
C 877 0 960 32 1011 102 
z
" transform="scale(0.015625)"/>
       <path id="CMMI12-16" d="M 922 140 
C 1082 -6 1318 -64 1536 -64 
C 1946 -64 2227 208 2374 405 
C 2438 69 2707 -64 2931 -64 
C 3123 -64 3277 50 3392 277 
C 3494 493 3584 879 3584 903 
C 3584 935 3558 960 3520 960 
C 3462 960 3456 928 3430 834 
C 3334 461 3213 64 2950 64 
C 2765 64 2752 229 2752 358 
C 2752 504 2810 735 2854 926 
L 3034 1615 
C 3059 1737 3130 2023 3162 2139 
C 3200 2292 3270 2567 3270 2592 
C 3270 2688 3194 2752 3098 2752 
C 3040 2752 2906 2726 2854 2535 
L 2406 760 
C 2374 632 2374 619 2291 517 
C 2214 409 1965 64 1562 64 
C 1203 64 1088 326 1088 625 
C 1088 811 1146 1034 1171 1143 
L 1459 2293 
C 1491 2414 1542 2618 1542 2657 
C 1542 2759 1459 2816 1376 2816 
C 1318 2816 1178 2797 1126 2592 
L 198 -1107 
C 192 -1139 179 -1177 179 -1216 
C 179 -1312 256 -1376 352 -1376 
C 538 -1376 576 -1228 621 -1050 
L 922 140 
z
" transform="scale(0.015625)"/>
      </defs>
      <use xlink:href="#CMR17-43" transform="scale(0.996264)"/>
      <use xlink:href="#CMR17-68" transform="translate(66.509881 0) scale(0.996264)"/>
      <use xlink:href="#CMR17-65" transform="translate(117.40525 0) scale(0.996264)"/>
      <use xlink:href="#CMR17-6d" transform="translate(157.890911 0) scale(0.996264)"/>
      <use xlink:href="#CMR17-69" transform="translate(234.810501 0) scale(0.996264)"/>
      <use xlink:href="#CMR17-63" transform="translate(259.681559 0) scale(0.996264)"/>
      <use xlink:href="#CMR17-61" transform="translate(300.16722 0) scale(0.996264)"/>
      <use xlink:href="#CMR17-6c" transform="translate(345.857697 0) scale(0.996264)"/>
      <use xlink:href="#CMR17-70" transform="translate(400.804722 0) scale(0.996264)"/>
      <use xlink:href="#CMR17-6f" transform="translate(454.30253 0) scale(0.996264)"/>
      <use xlink:href="#CMR17-74" transform="translate(499.993007 0) scale(0.996264)"/>
      <use xlink:href="#CMR17-65" transform="translate(535.273775 0) scale(0.996264)"/>
      <use xlink:href="#CMR17-6e" transform="translate(575.759435 0) scale(0.996264)"/>
      <use xlink:href="#CMR17-74" transform="translate(624.052351 0) scale(0.996264)"/>
      <use xlink:href="#CMR17-69" transform="translate(659.333119 0) scale(0.996264)"/>
      <use xlink:href="#CMR17-61" transform="translate(684.204178 0) scale(0.996264)"/>
      <use xlink:href="#CMR17-6c" transform="translate(729.894655 0) scale(0.996264)"/>
      <use xlink:href="#CMR17-2c" transform="translate(754.765713 0) scale(0.996264)"/>
      <use xlink:href="#CMMI12-16" transform="translate(809.712738 0) scale(0.996264)"/>
     </g>
    </g>
   </g>
   <g id="matplotlib.axis_2">
    <g id="ytick_1">
     <g id="line2d_38">
      <defs>
       <path id="m928eef7bfd" d="M 0 0 
L -3.5 0 
" style="stroke: #000000; stroke-width: 0.8"/>
      </defs>
      <g>
       <use xlink:href="#m928eef7bfd" x="88.443504" y="276.267277" style="stroke: #000000; stroke-width: 0.8"/>
      </g>
     </g>
     <g id="text_7">
      <!-- $\mathdefault{10^{-6}}$ -->
      <g transform="translate(45.490666 283.185775) scale(0.2 -0.2)">
       <defs>
        <path id="CMR17-36" d="M 678 2176 
C 678 3690 1395 4032 1811 4032 
C 1946 4032 2272 4009 2400 3776 
C 2298 3776 2106 3776 2106 3553 
C 2106 3381 2246 3323 2336 3323 
C 2394 3323 2566 3348 2566 3560 
C 2566 3954 2246 4179 1805 4179 
C 1043 4179 243 3390 243 1984 
C 243 253 966 -128 1478 -128 
C 2099 -128 2688 427 2688 1283 
C 2688 2081 2170 2662 1517 2662 
C 1126 2662 838 2407 678 1960 
L 678 2176 
z
M 1478 25 
C 691 25 691 1200 691 1436 
C 691 1896 909 2560 1504 2560 
C 1613 2560 1926 2560 2138 2120 
C 2253 1870 2253 1609 2253 1289 
C 2253 944 2253 690 2118 434 
C 1978 171 1773 25 1478 25 
z
" transform="scale(0.015625)"/>
       </defs>
       <use xlink:href="#CMR17-31" transform="scale(0.996264)"/>
       <use xlink:href="#CMR17-30" transform="translate(45.690477 0) scale(0.996264)"/>
       <use xlink:href="#CMSY10-0" transform="translate(91.380954 36.153639) scale(0.697382)"/>
       <use xlink:href="#CMR17-36" transform="translate(145.621947 36.153639) scale(0.697382)"/>
      </g>
     </g>
    </g>
    <g id="ytick_2">
     <g id="line2d_39">
      <g>
       <use xlink:href="#m928eef7bfd" x="88.443504" y="204.45658" style="stroke: #000000; stroke-width: 0.8"/>
      </g>
     </g>
     <g id="text_8">
      <!-- $\mathdefault{10^{-5}}$ -->
      <g transform="translate(45.490666 211.375078) scale(0.2 -0.2)">
       <defs>
        <path id="CMR17-35" d="M 730 3692 
C 794 3666 1056 3584 1325 3584 
C 1920 3584 2246 3911 2432 4100 
C 2432 4157 2432 4192 2394 4192 
C 2387 4192 2374 4192 2323 4163 
C 2099 4058 1837 3973 1517 3973 
C 1325 3973 1037 3999 723 4139 
C 653 4171 640 4171 634 4171 
C 602 4171 595 4164 595 4037 
L 595 2203 
C 595 2089 595 2057 659 2057 
C 691 2057 704 2070 736 2114 
C 941 2401 1222 2522 1542 2522 
C 1766 2522 2246 2382 2246 1289 
C 2246 1085 2246 715 2054 421 
C 1894 159 1645 25 1370 25 
C 947 25 518 320 403 814 
C 429 807 480 795 506 795 
C 589 795 749 840 749 1038 
C 749 1210 627 1280 506 1280 
C 358 1280 262 1190 262 1011 
C 262 454 704 -128 1382 -128 
C 2042 -128 2669 440 2669 1264 
C 2669 2030 2170 2624 1549 2624 
C 1222 2624 947 2503 730 2274 
L 730 3692 
z
" transform="scale(0.015625)"/>
       </defs>
       <use xlink:href="#CMR17-31" transform="scale(0.996264)"/>
       <use xlink:href="#CMR17-30" transform="translate(45.690477 0) scale(0.996264)"/>
       <use xlink:href="#CMSY10-0" transform="translate(91.380954 36.153639) scale(0.697382)"/>
       <use xlink:href="#CMR17-35" transform="translate(145.621947 36.153639) scale(0.697382)"/>
      </g>
     </g>
    </g>
    <g id="ytick_3">
     <g id="line2d_40">
      <g>
       <use xlink:href="#m928eef7bfd" x="88.443504" y="132.645883" style="stroke: #000000; stroke-width: 0.8"/>
      </g>
     </g>
     <g id="text_9">
      <!-- $\mathdefault{10^{-4}}$ -->
      <g transform="translate(45.490666 139.564381) scale(0.2 -0.2)">
       <defs>
        <path id="CMR17-34" d="M 2150 4122 
C 2150 4256 2144 4256 2029 4256 
L 128 1254 
L 128 1088 
L 1779 1088 
L 1779 457 
C 1779 224 1766 160 1318 160 
L 1197 160 
L 1197 0 
C 1402 0 1747 0 1965 0 
C 2182 0 2528 0 2733 0 
L 2733 160 
L 2611 160 
C 2163 160 2150 224 2150 457 
L 2150 1088 
L 2803 1088 
L 2803 1254 
L 2150 1254 
L 2150 4122 
z
M 1798 3703 
L 1798 1254 
L 256 1254 
L 1798 3703 
z
" transform="scale(0.015625)"/>
       </defs>
       <use xlink:href="#CMR17-31" transform="scale(0.996264)"/>
       <use xlink:href="#CMR17-30" transform="translate(45.690477 0) scale(0.996264)"/>
       <use xlink:href="#CMSY10-0" transform="translate(91.380954 36.153639) scale(0.697382)"/>
       <use xlink:href="#CMR17-34" transform="translate(145.621947 36.153639) scale(0.697382)"/>
      </g>
     </g>
    </g>
    <g id="ytick_4">
     <g id="line2d_41">
      <g>
       <use xlink:href="#m928eef7bfd" x="88.443504" y="60.835185" style="stroke: #000000; stroke-width: 0.8"/>
      </g>
     </g>
     <g id="text_10">
      <!-- $\mathdefault{10^{-3}}$ -->
      <g transform="translate(45.490666 67.753684) scale(0.2 -0.2)">
       <defs>
        <path id="CMR17-33" d="M 1414 2157 
C 1984 2157 2234 1662 2234 1090 
C 2234 320 1824 25 1453 25 
C 1114 25 563 194 390 693 
C 422 680 454 680 486 680 
C 640 680 755 782 755 948 
C 755 1133 614 1216 486 1216 
C 378 1216 211 1165 211 926 
C 211 335 787 -128 1466 -128 
C 2176 -128 2720 430 2720 1085 
C 2720 1707 2208 2157 1600 2227 
C 2086 2328 2554 2756 2554 3329 
C 2554 3820 2048 4179 1472 4179 
C 890 4179 378 3829 378 3329 
C 378 3110 544 3072 627 3072 
C 762 3072 877 3155 877 3321 
C 877 3486 762 3569 627 3569 
C 602 3569 570 3569 544 3557 
C 730 3959 1235 4032 1459 4032 
C 1683 4032 2106 3925 2106 3320 
C 2106 3143 2080 2828 1862 2550 
C 1670 2304 1453 2304 1242 2284 
C 1210 2284 1062 2269 1037 2269 
C 992 2263 966 2257 966 2208 
C 966 2163 973 2157 1101 2157 
L 1414 2157 
z
" transform="scale(0.015625)"/>
       </defs>
       <use xlink:href="#CMR17-31" transform="scale(0.996264)"/>
       <use xlink:href="#CMR17-30" transform="translate(45.690477 0) scale(0.996264)"/>
       <use xlink:href="#CMSY10-0" transform="translate(91.380954 36.153639) scale(0.697382)"/>
       <use xlink:href="#CMR17-33" transform="translate(145.621947 36.153639) scale(0.697382)"/>
      </g>
     </g>
    </g>
    <g id="ytick_5">
     <g id="line2d_42">
      <defs>
       <path id="m6089b19047" d="M 0 0 
L -2 0 
" style="stroke: #000000; stroke-width: 0.6"/>
      </defs>
      <g>
       <use xlink:href="#m6089b19047" x="88.443504" y="313.815564" style="stroke: #000000; stroke-width: 0.6"/>
      </g>
     </g>
    </g>
    <g id="ytick_6">
     <g id="line2d_43">
      <g>
       <use xlink:href="#m6089b19047" x="88.443504" y="304.843626" style="stroke: #000000; stroke-width: 0.6"/>
      </g>
     </g>
    </g>
    <g id="ytick_7">
     <g id="line2d_44">
      <g>
       <use xlink:href="#m6089b19047" x="88.443504" y="297.88445" style="stroke: #000000; stroke-width: 0.6"/>
      </g>
     </g>
    </g>
    <g id="ytick_8">
     <g id="line2d_45">
      <g>
       <use xlink:href="#m6089b19047" x="88.443504" y="292.19839" style="stroke: #000000; stroke-width: 0.6"/>
      </g>
     </g>
    </g>
    <g id="ytick_9">
     <g id="line2d_46">
      <g>
       <use xlink:href="#m6089b19047" x="88.443504" y="287.390894" style="stroke: #000000; stroke-width: 0.6"/>
      </g>
     </g>
    </g>
    <g id="ytick_10">
     <g id="line2d_47">
      <g>
       <use xlink:href="#m6089b19047" x="88.443504" y="283.226452" style="stroke: #000000; stroke-width: 0.6"/>
      </g>
     </g>
    </g>
    <g id="ytick_11">
     <g id="line2d_48">
      <g>
       <use xlink:href="#m6089b19047" x="88.443504" y="279.553154" style="stroke: #000000; stroke-width: 0.6"/>
      </g>
     </g>
    </g>
    <g id="ytick_12">
     <g id="line2d_49">
      <g>
       <use xlink:href="#m6089b19047" x="88.443504" y="254.650103" style="stroke: #000000; stroke-width: 0.6"/>
      </g>
     </g>
    </g>
    <g id="ytick_13">
     <g id="line2d_50">
      <g>
       <use xlink:href="#m6089b19047" x="88.443504" y="242.004867" style="stroke: #000000; stroke-width: 0.6"/>
      </g>
     </g>
    </g>
    <g id="ytick_14">
     <g id="line2d_51">
      <g>
       <use xlink:href="#m6089b19047" x="88.443504" y="233.032929" style="stroke: #000000; stroke-width: 0.6"/>
      </g>
     </g>
    </g>
    <g id="ytick_15">
     <g id="line2d_52">
      <g>
       <use xlink:href="#m6089b19047" x="88.443504" y="226.073753" style="stroke: #000000; stroke-width: 0.6"/>
      </g>
     </g>
    </g>
    <g id="ytick_16">
     <g id="line2d_53">
      <g>
       <use xlink:href="#m6089b19047" x="88.443504" y="220.387693" style="stroke: #000000; stroke-width: 0.6"/>
      </g>
     </g>
    </g>
    <g id="ytick_17">
     <g id="line2d_54">
      <g>
       <use xlink:href="#m6089b19047" x="88.443504" y="215.580197" style="stroke: #000000; stroke-width: 0.6"/>
      </g>
     </g>
    </g>
    <g id="ytick_18">
     <g id="line2d_55">
      <g>
       <use xlink:href="#m6089b19047" x="88.443504" y="211.415755" style="stroke: #000000; stroke-width: 0.6"/>
      </g>
     </g>
    </g>
    <g id="ytick_19">
     <g id="line2d_56">
      <g>
       <use xlink:href="#m6089b19047" x="88.443504" y="207.742457" style="stroke: #000000; stroke-width: 0.6"/>
      </g>
     </g>
    </g>
    <g id="ytick_20">
     <g id="line2d_57">
      <g>
       <use xlink:href="#m6089b19047" x="88.443504" y="182.839406" style="stroke: #000000; stroke-width: 0.6"/>
      </g>
     </g>
    </g>
    <g id="ytick_21">
     <g id="line2d_58">
      <g>
       <use xlink:href="#m6089b19047" x="88.443504" y="170.19417" style="stroke: #000000; stroke-width: 0.6"/>
      </g>
     </g>
    </g>
    <g id="ytick_22">
     <g id="line2d_59">
      <g>
       <use xlink:href="#m6089b19047" x="88.443504" y="161.222232" style="stroke: #000000; stroke-width: 0.6"/>
      </g>
     </g>
    </g>
    <g id="ytick_23">
     <g id="line2d_60">
      <g>
       <use xlink:href="#m6089b19047" x="88.443504" y="154.263056" style="stroke: #000000; stroke-width: 0.6"/>
      </g>
     </g>
    </g>
    <g id="ytick_24">
     <g id="line2d_61">
      <g>
       <use xlink:href="#m6089b19047" x="88.443504" y="148.576996" style="stroke: #000000; stroke-width: 0.6"/>
      </g>
     </g>
    </g>
    <g id="ytick_25">
     <g id="line2d_62">
      <g>
       <use xlink:href="#m6089b19047" x="88.443504" y="143.7695" style="stroke: #000000; stroke-width: 0.6"/>
      </g>
     </g>
    </g>
    <g id="ytick_26">
     <g id="line2d_63">
      <g>
       <use xlink:href="#m6089b19047" x="88.443504" y="139.605058" style="stroke: #000000; stroke-width: 0.6"/>
      </g>
     </g>
    </g>
    <g id="ytick_27">
     <g id="line2d_64">
      <g>
       <use xlink:href="#m6089b19047" x="88.443504" y="135.93176" style="stroke: #000000; stroke-width: 0.6"/>
      </g>
     </g>
    </g>
    <g id="ytick_28">
     <g id="line2d_65">
      <g>
       <use xlink:href="#m6089b19047" x="88.443504" y="111.028709" style="stroke: #000000; stroke-width: 0.6"/>
      </g>
     </g>
    </g>
    <g id="ytick_29">
     <g id="line2d_66">
      <g>
       <use xlink:href="#m6089b19047" x="88.443504" y="98.383473" style="stroke: #000000; stroke-width: 0.6"/>
      </g>
     </g>
    </g>
    <g id="ytick_30">
     <g id="line2d_67">
      <g>
       <use xlink:href="#m6089b19047" x="88.443504" y="89.411535" style="stroke: #000000; stroke-width: 0.6"/>
      </g>
     </g>
    </g>
    <g id="ytick_31">
     <g id="line2d_68">
      <g>
       <use xlink:href="#m6089b19047" x="88.443504" y="82.452359" style="stroke: #000000; stroke-width: 0.6"/>
      </g>
     </g>
    </g>
    <g id="ytick_32">
     <g id="line2d_69">
      <g>
       <use xlink:href="#m6089b19047" x="88.443504" y="76.766299" style="stroke: #000000; stroke-width: 0.6"/>
      </g>
     </g>
    </g>
    <g id="ytick_33">
     <g id="line2d_70">
      <g>
       <use xlink:href="#m6089b19047" x="88.443504" y="71.958803" style="stroke: #000000; stroke-width: 0.6"/>
      </g>
     </g>
    </g>
    <g id="ytick_34">
     <g id="line2d_71">
      <g>
       <use xlink:href="#m6089b19047" x="88.443504" y="67.794361" style="stroke: #000000; stroke-width: 0.6"/>
      </g>
     </g>
    </g>
    <g id="ytick_35">
     <g id="line2d_72">
      <g>
       <use xlink:href="#m6089b19047" x="88.443504" y="64.121063" style="stroke: #000000; stroke-width: 0.6"/>
      </g>
     </g>
    </g>
    <g id="ytick_36">
     <g id="line2d_73">
      <g>
       <use xlink:href="#m6089b19047" x="88.443504" y="39.218012" style="stroke: #000000; stroke-width: 0.6"/>
      </g>
     </g>
    </g>
    <g id="ytick_37">
     <g id="line2d_74">
      <g>
       <use xlink:href="#m6089b19047" x="88.443504" y="26.572776" style="stroke: #000000; stroke-width: 0.6"/>
      </g>
     </g>
    </g>
    <g id="text_11">
     <!-- Decay rate (eigenvalue), $\gamma_m$ -->
     <g transform="translate(36.526022 281.220136) rotate(-90) scale(0.2 -0.2)">
      <defs>
       <path id="CMR17-44" d="M 333 4352 
L 333 4186 
C 774 4186 845 4186 845 3900 
L 845 452 
C 845 166 774 166 333 166 
L 333 0 
L 2368 0 
C 3398 0 4224 943 4224 2141 
C 4224 3346 3411 4352 2368 4352 
L 333 4352 
z
M 1523 166 
C 1267 166 1254 197 1254 414 
L 1254 3938 
C 1254 4155 1267 4186 1523 4186 
L 2240 4186 
C 2771 4186 3750 3874 3750 2141 
C 3750 1242 3488 879 3366 707 
C 3213 510 2848 166 2240 166 
L 1523 166 
z
" transform="scale(0.015625)"/>
       <path id="CMR17-79" d="M 2496 2197 
C 2656 2586 2944 2586 3034 2586 
L 3034 2752 
C 2912 2752 2752 2752 2630 2752 
C 2496 2752 2285 2752 2157 2758 
L 2157 2592 
C 2400 2573 2406 2394 2406 2343 
C 2406 2280 2394 2248 2362 2171 
L 1664 449 
L 902 2306 
C 870 2382 870 2426 870 2433 
C 870 2573 1018 2586 1171 2586 
L 1171 2758 
C 1018 2752 742 2752 582 2752 
C 410 2752 205 2752 64 2758 
L 64 2586 
C 410 2586 448 2554 531 2350 
L 1485 15 
C 1197 -738 1030 -1178 627 -1178 
C 557 -1178 397 -1159 282 -1044 
C 429 -1031 493 -942 493 -833 
C 493 -725 416 -629 288 -629 
C 147 -629 77 -725 77 -840 
C 77 -1095 339 -1280 627 -1280 
C 998 -1280 1229 -922 1357 -604 
L 2496 2197 
z
" transform="scale(0.015625)"/>
       <path id="CMR17-72" d="M 960 1497 
C 960 2112 1222 2688 1702 2688 
C 1747 2688 1792 2682 1837 2662 
C 1837 2662 1696 2617 1696 2452 
C 1696 2298 1818 2234 1914 2234 
C 1990 2234 2131 2279 2131 2458 
C 2131 2663 1926 2790 1709 2790 
C 1222 2790 1011 2317 947 2093 
L 941 2093 
L 941 2790 
L 198 2720 
L 198 2554 
C 576 2554 634 2515 634 2208 
L 634 428 
C 634 184 608 153 198 153 
L 198 -13 
C 352 0 646 0 813 0 
C 998 0 1325 0 1498 -13 
L 1498 153 
C 1037 153 960 153 960 440 
L 960 1497 
z
" transform="scale(0.015625)"/>
       <path id="CMR17-28" d="M 1958 -1561 
C 1958 -1555 1958 -1542 1939 -1523 
C 1645 -1224 858 -407 858 1581 
C 858 3569 1632 4379 1946 4697 
C 1946 4704 1958 4717 1958 4736 
C 1958 4755 1939 4768 1914 4768 
C 1843 4768 1299 4296 986 3594 
C 666 2887 576 2199 576 1588 
C 576 1128 621 351 1005 -471 
C 1312 -1135 1837 -1600 1914 -1600 
C 1946 -1600 1958 -1587 1958 -1561 
z
" transform="scale(0.015625)"/>
       <path id="CMR17-67" d="M 710 1164 
C 832 1068 1043 960 1299 960 
C 1805 960 2240 1357 2240 1888 
C 2240 2054 2189 2310 1997 2509 
C 2176 2692 2438 2752 2586 2752 
C 2611 2752 2650 2752 2682 2734 
C 2656 2728 2598 2703 2598 2605 
C 2598 2527 2656 2471 2739 2471 
C 2835 2471 2886 2533 2886 2614 
C 2886 2731 2790 2854 2586 2854 
C 2330 2854 2106 2738 1926 2580 
C 1734 2753 1504 2816 1299 2816 
C 794 2816 358 2419 358 1888 
C 358 1522 570 1292 634 1228 
C 442 1004 442 743 442 711 
C 442 545 506 302 723 168 
C 390 85 128 -169 128 -486 
C 128 -943 736 -1280 1466 -1280 
C 2170 -1280 2803 -956 2803 -479 
C 2803 384 1856 384 1363 384 
C 1216 384 954 384 922 391 
C 723 423 589 602 589 826 
C 589 883 589 1024 710 1164 
z
M 1299 1068 
C 736 1068 736 1760 736 1889 
C 736 2016 736 2708 1299 2708 
C 1862 2708 1862 2016 1862 1889 
C 1862 1760 1862 1068 1299 1068 
z
M 1466 -1171 
C 826 -1171 384 -835 384 -486 
C 384 -289 493 -105 634 -4 
C 794 104 858 104 1293 104 
C 1818 104 2547 104 2547 -486 
C 2547 -835 2106 -1171 1466 -1171 
z
" transform="scale(0.015625)"/>
       <path id="CMR17-76" d="M 2502 2163 
C 2560 2304 2662 2560 3034 2560 
L 3034 2726 
C 2912 2726 2752 2726 2630 2726 
C 2496 2726 2285 2726 2157 2732 
L 2157 2566 
C 2317 2553 2406 2477 2406 2311 
C 2406 2253 2406 2240 2368 2151 
L 1664 377 
L 902 2286 
C 864 2369 864 2381 864 2407 
C 864 2560 1075 2560 1171 2560 
L 1171 2732 
C 1018 2726 736 2726 576 2726 
C 403 2726 205 2726 64 2732 
L 64 2560 
C 307 2560 442 2560 518 2362 
L 1446 44 
C 1485 -51 1491 -64 1549 -64 
C 1606 -64 1613 -51 1651 44 
L 2502 2163 
z
" transform="scale(0.015625)"/>
       <path id="CMR17-75" d="M 1882 2693 
L 1882 2528 
C 2259 2528 2317 2489 2317 2186 
L 2317 1032 
C 2317 500 2029 38 1555 38 
C 1030 38 986 348 986 678 
L 986 2763 
L 211 2693 
L 211 2528 
C 467 2528 640 2528 646 2274 
L 646 1058 
C 646 633 646 361 813 183 
C 896 101 1056 -64 1517 -64 
C 2061 -64 2272 377 2323 506 
L 2330 506 
L 2330 -63 
L 3091 -63 
L 3091 128 
C 2714 128 2656 166 2656 473 
L 2656 2763 
L 1882 2693 
z
" transform="scale(0.015625)"/>
       <path id="CMR17-29" d="M 1683 1581 
C 1683 2040 1638 2817 1254 3639 
C 947 4303 422 4768 346 4768 
C 326 4768 301 4761 301 4729 
C 301 4717 307 4710 314 4697 
C 621 4378 1402 3568 1402 1584 
C 1402 -407 627 -1217 314 -1537 
C 307 -1549 301 -1556 301 -1568 
C 301 -1600 326 -1600 346 -1600 
C 416 -1600 960 -1128 1274 -426 
C 1594 281 1683 969 1683 1581 
z
" transform="scale(0.015625)"/>
       <path id="CMMI12-d" d="M 2419 760 
C 2406 1071 2394 1561 2150 2133 
C 2022 2452 1805 2788 1338 2788 
C 550 2788 122 1790 122 1625 
C 122 1567 166 1567 186 1567 
C 243 1567 243 1580 275 1663 
C 410 2057 819 2368 1261 2368 
C 2150 2368 2278 1383 2278 754 
C 2278 352 2234 220 2195 92 
C 2074 -302 1862 -1090 1862 -1268 
C 1862 -1319 1882 -1376 1933 -1376 
C 2029 -1376 2086 -1166 2157 -912 
C 2310 -353 2349 -73 2381 181 
C 2400 334 2765 1384 3270 2382 
C 3315 2483 3405 2655 3405 2674 
C 3405 2680 3398 2725 3341 2725 
C 3328 2725 3296 2725 3283 2699 
C 3270 2687 3046 2254 2854 1822 
C 2758 1606 2630 1320 2419 760 
z
" transform="scale(0.015625)"/>
       <path id="CMMI12-6d" d="M 1318 1871 
C 1331 1910 1491 2229 1728 2433 
C 1894 2586 2112 2689 2362 2689 
C 2618 2689 2707 2497 2707 2242 
C 2707 2203 2707 2076 2630 1775 
L 2470 1118 
C 2419 926 2298 453 2285 383 
C 2259 287 2221 121 2221 96 
C 2221 6 2291 -64 2387 -64 
C 2579 -64 2611 83 2669 313 
L 3053 1839 
C 3066 1890 3398 2689 4102 2689 
C 4358 2689 4448 2497 4448 2242 
C 4448 1884 4198 1188 4058 805 
C 4000 651 3968 568 3968 453 
C 3968 166 4166 -64 4474 -64 
C 5069 -64 5293 875 5293 913 
C 5293 945 5267 971 5229 971 
C 5171 971 5165 952 5133 843 
C 4986 332 4749 64 4493 64 
C 4429 64 4326 64 4326 269 
C 4326 436 4403 640 4429 710 
C 4544 1018 4832 1773 4832 2145 
C 4832 2528 4608 2816 4122 2816 
C 3693 2816 3347 2574 3091 2197 
C 3072 2542 2861 2816 2381 2816 
C 1811 2816 1510 2415 1395 2255 
C 1376 2618 1114 2816 832 2816 
C 646 2816 499 2727 378 2484 
C 262 2254 173 1865 173 1839 
C 173 1814 198 1782 243 1782 
C 294 1782 301 1788 339 1935 
C 435 2312 557 2689 813 2689 
C 960 2689 1011 2586 1011 2395 
C 1011 2254 947 2005 902 1807 
L 723 1118 
C 698 996 627 709 595 594 
C 550 428 480 128 480 96 
C 480 6 550 -64 646 -64 
C 723 -64 813 -26 864 70 
C 877 102 934 326 966 453 
L 1107 1028 
L 1318 1871 
z
" transform="scale(0.015625)"/>
      </defs>
      <use xlink:href="#CMR17-44" transform="scale(0.996264)"/>
      <use xlink:href="#CMR17-65" transform="translate(70.393556 0) scale(0.996264)"/>
      <use xlink:href="#CMR17-63" transform="translate(110.879216 0) scale(0.996264)"/>
      <use xlink:href="#CMR17-61" transform="translate(151.364877 0) scale(0.996264)"/>
      <use xlink:href="#CMR17-79" transform="translate(194.4529 0) scale(0.996264)"/>
      <use xlink:href="#CMR17-72" transform="translate(272.821782 0) scale(0.996264)"/>
      <use xlink:href="#CMR17-61" transform="translate(308.10255 0) scale(0.996264)"/>
      <use xlink:href="#CMR17-74" transform="translate(353.793027 0) scale(0.996264)"/>
      <use xlink:href="#CMR17-65" transform="translate(389.073795 0) scale(0.996264)"/>
      <use xlink:href="#CMR17-28" transform="translate(459.635422 0) scale(0.996264)"/>
      <use xlink:href="#CMR17-65" transform="translate(494.91619 0) scale(0.996264)"/>
      <use xlink:href="#CMR17-69" transform="translate(535.40185 0) scale(0.996264)"/>
      <use xlink:href="#CMR17-67" transform="translate(560.272908 0) scale(0.996264)"/>
      <use xlink:href="#CMR17-65" transform="translate(605.963386 0) scale(0.996264)"/>
      <use xlink:href="#CMR17-6e" transform="translate(646.449046 0) scale(0.996264)"/>
      <use xlink:href="#CMR17-76" transform="translate(694.741962 0) scale(0.996264)"/>
      <use xlink:href="#CMR17-61" transform="translate(737.830061 0) scale(0.996264)"/>
      <use xlink:href="#CMR17-6c" transform="translate(783.520538 0) scale(0.996264)"/>
      <use xlink:href="#CMR17-75" transform="translate(808.391597 0) scale(0.996264)"/>
      <use xlink:href="#CMR17-65" transform="translate(859.286966 0) scale(0.996264)"/>
      <use xlink:href="#CMR17-29" transform="translate(899.772627 0) scale(0.996264)"/>
      <use xlink:href="#CMR17-2c" transform="translate(935.053395 0) scale(0.996264)"/>
      <use xlink:href="#CMMI12-d" transform="translate(990.00042 0) scale(0.996264)"/>
      <use xlink:href="#CMMI12-6d" transform="translate(1040.599552 -14.943915) scale(0.697382)"/>
     </g>
    </g>
   </g>
   <g id="line2d_75">
    <path d="M 88.443504 320.774739 
L 132.421746 318.039466 
L 176.399987 309.276537 
L 220.378228 281.928397 
L 264.356469 230.850078 
L 308.334711 173.364753 
L 352.312952 133.117231 
L 396.291193 132.157901 
L 440.269434 122.292313 
L 484.247675 118.194989 
" clip-path="url(#p5d39343023)" style="fill: none; stroke: #ee82ee; stroke-width: 3.5; stroke-linecap: square"/>
   </g>
   <g id="line2d_76">
    <path d="M 88.443504 81.599075 
L 132.421746 80.933355 
L 176.399987 79.217808 
L 220.378228 74.717011 
L 264.356469 65.117577 
L 308.334711 50.791004 
L 352.312952 37.563316 
L 396.291193 28.267379 
L 440.269434 24.750062 
L 484.247675 23.344738 
" clip-path="url(#p5d39343023)" style="fill: none; stroke: #ff6600; stroke-width: 1.3; stroke-linecap: square"/>
   </g>
   <g id="line2d_77">
    <path d="M 88.443504 112.710571 
L 132.421746 111.870317 
L 176.399987 109.729158 
L 220.378228 103.35487 
L 264.356469 90.039926 
L 308.334711 71.00885 
L 352.312952 54.000507 
L 396.291193 41.772822 
L 440.269434 37.417319 
L 484.247675 35.67983 
" clip-path="url(#p5d39343023)" style="fill: none; stroke: #3380ff; stroke-width: 2; stroke-linecap: square"/>
   </g>
   <g id="line2d_78">
    <path d="M 88.443504 82.584623 
L 132.421746 81.899295 
L 176.399987 80.114613 
L 220.378228 75.477968 
L 264.356469 65.890052 
L 308.334711 51.845624 
L 352.312952 38.8441 
L 396.291193 29.338246 
L 440.269434 25.812233 
L 484.247675 24.404661 
" clip-path="url(#p5d39343023)" style="fill: none; stroke: #e62000; stroke-width: 1.3; stroke-linecap: square"/>
   </g>
   <g id="line2d_79">
    <path d="M 88.443504 92.162917 
L 132.421746 91.409331 
L 176.399987 89.47905 
L 220.378228 84.182908 
L 264.356469 72.881371 
L 308.334711 56.393963 
L 352.312952 41.427313 
L 396.291193 30.786502 
L 440.269434 26.882026 
L 484.247675 25.330583 
" clip-path="url(#p5d39343023)" style="fill: none; stroke: #1a59cc; stroke-width: 2; stroke-linecap: square"/>
   </g>
   <g id="line2d_80">
    <path d="M 88.443504 82.251663 
L 132.421746 81.570078 
L 176.399987 79.787463 
L 220.378228 75.124175 
L 264.356469 65.362574 
L 308.334711 50.774849 
L 352.312952 37.099724 
L 396.291193 27.220557 
L 440.269434 23.527785 
L 484.247675 22.056496 
" clip-path="url(#p5d39343023)" style="fill: none; stroke: #800019; stroke-width: 1.3; stroke-linecap: square"/>
   </g>
   <g id="line2d_81">
    <path d="M 88.443504 85.902225 
L 132.421746 85.176485 
L 176.399987 83.307203 
L 220.378228 78.292533 
L 264.356469 67.63928 
L 308.334711 51.861782 
L 352.312952 37.320518 
L 396.291193 26.962765 
L 440.269434 23.124734 
L 484.247675 21.6 
" clip-path="url(#p5d39343023)" style="fill: none; stroke: #003399; stroke-width: 2; stroke-linecap: square"/>
   </g>
   <g id="line2d_82">
    <path d="M 88.443504 374.471472 
L 132.421746 342.555606 
L 176.399987 310.639741 
L 220.378228 278.723876 
L 264.356469 246.80801 
L 308.334711 214.892145 
L 352.312952 182.97628 
L 396.291193 151.060414 
L 440.269434 119.144549 
L 484.247675 87.228684 
" clip-path="url(#p5d39343023)" style="fill: none; stroke-dasharray: 3.5,5.775; stroke-dashoffset: 0; stroke: #006400; stroke-opacity: 0.8; stroke-width: 3.5"/>
   </g>
   <g id="line2d_83">
    <path d="M 176.833628 389.8 
L 220.378228 326.597674 
L 264.356469 262.765943 
L 308.334711 198.934212 
L 352.312952 135.102482 
L 396.291193 71.270751 
L 440.269434 7.43902 
L 446.083678 -1 
" clip-path="url(#p5d39343023)" style="fill: none; stroke-dasharray: 12.95,5.6; stroke-dashoffset: 0; stroke: #00008b; stroke-opacity: 0.8; stroke-width: 3.5"/>
   </g>
   <g id="line2d_84">
    <path d="M 231.589609 389.8 
L 264.356469 294.681808 
L 308.334711 167.018347 
L 352.312952 39.354886 
L 366.214634 -1 
" clip-path="url(#p5d39343023)" style="fill: none; stroke-dasharray: 22.4,5.6,3.5,5.6; stroke-dashoffset: 0; stroke: #8b0000; stroke-opacity: 0.8; stroke-width: 3.5"/>
   </g>
   <g id="patch_3">
    <path d="M 88.443504 320.774739 
L 88.443504 21.6 
" style="fill: none; stroke: #000000; stroke-width: 0.8; stroke-linejoin: miter; stroke-linecap: square"/>
   </g>
   <g id="patch_4">
    <path d="M 484.247675 320.774739 
L 484.247675 21.6 
" style="fill: none; stroke: #000000; stroke-width: 0.8; stroke-linejoin: miter; stroke-linecap: square"/>
   </g>
   <g id="patch_5">
    <path d="M 88.443504 320.774739 
L 484.247675 320.774739 
" style="fill: none; stroke: #000000; stroke-width: 0.8; stroke-linejoin: miter; stroke-linecap: square"/>
   </g>
   <g id="patch_6">
    <path d="M 88.443504 21.6 
L 484.247675 21.6 
" style="fill: none; stroke: #000000; stroke-width: 0.8; stroke-linejoin: miter; stroke-linecap: square"/>
   </g>
   <g id="legend_1">
    <g id="line2d_85">
     <path d="M 382.596151 225.450755 
L 398.596151 225.450755 
L 414.596151 225.450755 
" style="fill: none; stroke: #ee82ee; stroke-width: 3.5; stroke-linecap: square"/>
    </g>
    <g id="text_12">
     <!-- $m=1$ -->
     <g transform="translate(427.396151 231.050755) scale(0.16 -0.16)">
      <defs>
       <path id="CMR17-3d" d="M 4115 2017 
C 4211 2017 4307 2017 4307 2125 
C 4307 2240 4198 2240 4090 2240 
L 512 2240 
C 403 2240 294 2240 294 2125 
C 294 2017 390 2017 486 2017 
L 4115 2017 
z
M 4090 896 
C 4198 896 4307 896 4307 1011 
C 4307 1119 4211 1119 4115 1119 
L 486 1119 
C 390 1119 294 1119 294 1011 
C 294 896 403 896 512 896 
L 4090 896 
z
" transform="scale(0.015625)"/>
      </defs>
      <use xlink:href="#CMMI12-6d" transform="scale(0.996264)"/>
      <use xlink:href="#CMR17-3d" transform="translate(113.001233 0) scale(0.996264)"/>
      <use xlink:href="#CMR17-31" transform="translate(212.39003 0) scale(0.996264)"/>
     </g>
    </g>
    <g id="line2d_86">
     <path d="M 382.596151 249.525591 
L 398.596151 249.525591 
L 414.596151 249.525591 
" style="fill: none; stroke-dasharray: 3.5,5.775; stroke-dashoffset: 0; stroke: #006400; stroke-opacity: 0.8; stroke-width: 3.5"/>
    </g>
    <g id="text_13">
     <!-- $\propto \mu^1$ -->
     <g transform="translate(427.396151 255.125591) scale(0.16 -0.16)">
      <defs>
       <path id="CMSY10-2f" d="M 4621 205 
C 4595 205 4493 192 4474 192 
C 3968 192 3629 691 3411 1024 
C 3347 1133 3174 1395 3104 1504 
C 3258 1850 3686 2643 4448 2643 
C 4493 2643 4550 2643 4621 2624 
C 4621 2790 4614 2797 4602 2810 
C 4557 2822 4461 2829 4403 2829 
C 3590 2829 3117 2048 2963 1728 
C 2707 2118 2618 2259 2381 2458 
C 1990 2797 1638 2829 1478 2829 
C 768 2829 358 2112 358 1376 
C 358 659 755 -70 1459 -70 
C 2272 -70 2746 710 2899 1030 
C 3155 640 3245 499 3482 301 
C 3872 -38 4224 -70 4384 -70 
C 4461 -70 4563 -58 4621 -44 
L 4621 205 
z
M 2758 1254 
C 2605 909 2176 115 1414 115 
C 794 115 499 794 499 1376 
C 499 2010 858 2566 1389 2566 
C 1894 2566 2234 2067 2451 1734 
C 2515 1626 2688 1363 2758 1254 
z
" transform="scale(0.015625)"/>
      </defs>
      <use xlink:href="#CMSY10-2f" transform="scale(0.996264)"/>
      <use xlink:href="#CMMI12-16" transform="translate(105.161476 0) scale(0.996264)"/>
      <use xlink:href="#CMR17-31" transform="translate(163.852898 36.153639) scale(0.697382)"/>
     </g>
    </g>
    <g id="line2d_87">
     <path d="M 382.596151 273.600427 
L 398.596151 273.600427 
L 414.596151 273.600427 
" style="fill: none; stroke-dasharray: 12.95,5.6; stroke-dashoffset: 0; stroke: #00008b; stroke-opacity: 0.8; stroke-width: 3.5"/>
    </g>
    <g id="text_14">
     <!-- $\propto \mu^2$ -->
     <g transform="translate(427.396151 279.200427) scale(0.16 -0.16)">
      <use xlink:href="#CMSY10-2f" transform="scale(0.996264)"/>
      <use xlink:href="#CMMI12-16" transform="translate(105.161476 0) scale(0.996264)"/>
      <use xlink:href="#CMR17-32" transform="translate(163.852898 36.153639) scale(0.697382)"/>
     </g>
    </g>
    <g id="line2d_88">
     <path d="M 382.596151 297.675263 
L 398.596151 297.675263 
L 414.596151 297.675263 
" style="fill: none; stroke-dasharray: 22.4,5.6,3.5,5.6; stroke-dashoffset: 0; stroke: #8b0000; stroke-opacity: 0.8; stroke-width: 3.5"/>
    </g>
    <g id="text_15">
     <!-- $\propto \mu^4$ -->
     <g transform="translate(427.396151 303.275263) scale(0.16 -0.16)">
      <use xlink:href="#CMSY10-2f" transform="scale(0.996264)"/>
      <use xlink:href="#CMMI12-16" transform="translate(105.161476 0) scale(0.996264)"/>
      <use xlink:href="#CMR17-34" transform="translate(163.852898 36.153639) scale(0.697382)"/>
     </g>
    </g>
   </g>
  </g>
 </g>
 <defs>
  <clipPath id="p5d39343023">
   <rect x="88.443504" y="21.6" width="395.804171" height="299.174739"/>
  </clipPath>
 </defs>
</svg>
