<?xml version="1.0" encoding="utf-8" standalone="no"?>
<!DOCTYPE svg PUBLIC "-//W3C//DTD SVG 1.1//EN"
  "http://www.w3.org/Graphics/SVG/1.1/DTD/svg11.dtd">
<svg xmlns:xlink="http://www.w3.org/1999/xlink" width="243.36pt" height="318.24pt" viewBox="0 0 243.36 318.24" xmlns="http://www.w3.org/2000/svg" version="1.1">
 <metadata>
  <rdf:RDF xmlns:dc="http://purl.org/dc/elements/1.1/" xmlns:cc="http://creativecommons.org/ns#" xmlns:rdf="http://www.w3.org/1999/02/22-rdf-syntax-ns#">
   <cc:Work>
    <dc:type rdf:resource="http://purl.org/dc/dcmitype/StillImage"/>
    <dc:date>2025-12-10T19:58:24.335282</dc:date>
    <dc:format>image/svg+xml</dc:format>
    <dc:creator>
     <cc:Agent>
      <dc:title>Matplotlib v3.8.4, https://matplotlib.org/</dc:title>
     </cc:Agent>
    </dc:creator>
   </cc:Work>
  </rdf:RDF>
 </metadata>
 <defs>
  <style type="text/css">*{stroke-linejoin: round; stroke-linecap: butt}</style>
 </defs>
 <g id="figure_1">
  <g id="patch_1">
   <path d="M 0 318.24 
L 243.36 318.24 
L 243.36 0 
L 0 0 
z
" style="fill: #ffffff"/>
  </g>
  <g id="axes_1">
   <g id="patch_2">
    <path d="M 38.29738 284.676 
L 231.31756 284.676 
L 231.31756 4.8 
L 38.29738 4.8 
z
" style="fill: #fafafa"/>
   </g>
   <g id="matplotlib.axis_1">
    <g id="xtick_1">
     <g id="line2d_1">
      <path d="M 38.29738 284.676 
L 38.29738 4.8 
" clip-path="url(#p0ec53324b9)" style="fill: none; stroke: #b0b0b0; stroke-opacity: 0.15; stroke-width: 0.6; stroke-linecap: square"/>
     </g>
     <g id="line2d_2">
      <defs>
       <path id="m624a417cbf" d="M 0 0 
L 0 -3.5 
" style="stroke: #2c3e50; stroke-width: 0.7"/>
      </defs>
      <g>
       <use xlink:href="#m624a417cbf" x="38.29738" y="284.676" style="fill: #2c3e50; stroke: #2c3e50; stroke-width: 0.7"/>
      </g>
     </g>
     <g id="text_1">
      <!-- $10^{9}$ -->
      <g style="fill: #2c3e50" transform="translate(32.65738 293.63975) scale(0.08 -0.08)">
       <defs>
        <path id="STIXGeneral-Regular-31" d="M 2522 0 
L 755 0 
L 755 96 
Q 1107 115 1235 227 
Q 1363 339 1363 608 
L 1363 3482 
Q 1363 3795 1171 3795 
Q 1082 3795 883 3718 
L 710 3654 
L 710 3744 
L 1856 4326 
L 1914 4307 
L 1914 486 
Q 1914 275 2042 185 
Q 2170 96 2522 96 
L 2522 0 
z
" transform="scale(0.015625)"/>
        <path id="STIXGeneral-Regular-30" d="M 3046 2112 
Q 3046 1683 2963 1302 
Q 2880 922 2717 602 
Q 2554 282 2266 96 
Q 1978 -90 1600 -90 
Q 1210 -90 915 108 
Q 621 307 461 640 
Q 301 973 227 1350 
Q 154 1728 154 2150 
Q 154 2746 301 3222 
Q 448 3699 790 4012 
Q 1133 4326 1626 4326 
Q 2253 4326 2649 3712 
Q 3046 3098 3046 2112 
z
M 2432 2080 
Q 2432 3091 2217 3625 
Q 2003 4160 1587 4160 
Q 1190 4160 979 3622 
Q 768 3085 768 2106 
Q 768 1120 979 598 
Q 1190 77 1600 77 
Q 2003 77 2217 598 
Q 2432 1120 2432 2080 
z
" transform="scale(0.015625)"/>
        <path id="STIXGeneral-Regular-39" d="M 378 -141 
L 358 -13 
Q 1094 115 1603 608 
Q 2112 1101 2304 1882 
Q 1933 1517 1344 1517 
Q 826 1517 509 1875 
Q 192 2234 192 2816 
Q 192 3462 573 3894 
Q 954 4326 1523 4326 
Q 2131 4326 2528 3840 
Q 2938 3328 2938 2522 
Q 2938 1958 2742 1462 
Q 2547 966 2170 621 
Q 1773 262 1395 105 
Q 1018 -51 378 -141 
z
M 2317 2272 
L 2317 2522 
Q 2317 4147 1472 4147 
Q 1171 4147 1005 3930 
Q 909 3802 845 3546 
Q 781 3290 781 3034 
Q 781 2464 995 2128 
Q 1210 1792 1568 1792 
Q 1824 1792 2070 1917 
Q 2317 2042 2317 2272 
z
" transform="scale(0.015625)"/>
       </defs>
       <use xlink:href="#STIXGeneral-Regular-31" transform="translate(0 0.409375)"/>
       <use xlink:href="#STIXGeneral-Regular-30" transform="translate(49.999985 0.409375)"/>
       <use xlink:href="#STIXGeneral-Regular-39" transform="translate(101.543251 35.684375) scale(0.7)"/>
      </g>
     </g>
    </g>
    <g id="xtick_2">
     <g id="line2d_3">
      <path d="M 76.901416 284.676 
L 76.901416 4.8 
" clip-path="url(#p0ec53324b9)" style="fill: none; stroke: #b0b0b0; stroke-opacity: 0.15; stroke-width: 0.6; stroke-linecap: square"/>
     </g>
     <g id="line2d_4">
      <g>
       <use xlink:href="#m624a417cbf" x="76.901416" y="284.676" style="fill: #2c3e50; stroke: #2c3e50; stroke-width: 0.7"/>
      </g>
     </g>
     <g id="text_2">
      <!-- $10^{10}$ -->
      <g style="fill: #2c3e50" transform="translate(69.861416 293.63975) scale(0.08 -0.08)">
       <use xlink:href="#STIXGeneral-Regular-31" transform="translate(0 0.409375)"/>
       <use xlink:href="#STIXGeneral-Regular-30" transform="translate(49.999985 0.409375)"/>
       <use xlink:href="#STIXGeneral-Regular-31" transform="translate(101.543251 35.684375) scale(0.7)"/>
       <use xlink:href="#STIXGeneral-Regular-30" transform="translate(136.54324 35.684375) scale(0.7)"/>
      </g>
     </g>
    </g>
    <g id="xtick_3">
     <g id="line2d_5">
      <path d="M 115.505452 284.676 
L 115.505452 4.8 
" clip-path="url(#p0ec53324b9)" style="fill: none; stroke: #b0b0b0; stroke-opacity: 0.15; stroke-width: 0.6; stroke-linecap: square"/>
     </g>
     <g id="line2d_6">
      <g>
       <use xlink:href="#m624a417cbf" x="115.505452" y="284.676" style="fill: #2c3e50; stroke: #2c3e50; stroke-width: 0.7"/>
      </g>
     </g>
     <g id="text_3">
      <!-- $10^{11}$ -->
      <g style="fill: #2c3e50" transform="translate(108.465452 293.63975) scale(0.08 -0.08)">
       <use xlink:href="#STIXGeneral-Regular-31" transform="translate(0 0.409375)"/>
       <use xlink:href="#STIXGeneral-Regular-30" transform="translate(49.999985 0.409375)"/>
       <use xlink:href="#STIXGeneral-Regular-31" transform="translate(101.543251 35.684375) scale(0.7)"/>
       <use xlink:href="#STIXGeneral-Regular-31" transform="translate(136.54324 35.684375) scale(0.7)"/>
      </g>
     </g>
    </g>
    <g id="xtick_4">
     <g id="line2d_7">
      <path d="M 154.109488 284.676 
L 154.109488 4.8 
" clip-path="url(#p0ec53324b9)" style="fill: none; stroke: #b0b0b0; stroke-opacity: 0.15; stroke-width: 0.6; stroke-linecap: square"/>
     </g>
     <g id="line2d_8">
      <g>
       <use xlink:href="#m624a417cbf" x="154.109488" y="284.676" style="fill: #2c3e50; stroke: #2c3e50; stroke-width: 0.7"/>
      </g>
     </g>
     <g id="text_4">
      <!-- $10^{12}$ -->
      <g style="fill: #2c3e50" transform="translate(147.069488 293.63975) scale(0.08 -0.08)">
       <defs>
        <path id="STIXGeneral-Regular-32" d="M 3034 877 
L 2688 0 
L 186 0 
L 186 77 
L 1325 1286 
Q 1773 1754 1965 2144 
Q 2157 2534 2157 2950 
Q 2157 3379 1920 3616 
Q 1683 3853 1267 3853 
Q 922 3853 720 3673 
Q 518 3494 326 3021 
L 192 3053 
Q 301 3648 630 3987 
Q 960 4326 1523 4326 
Q 2054 4326 2380 4006 
Q 2707 3686 2707 3200 
Q 2707 2477 1888 1613 
L 832 486 
L 2330 486 
Q 2541 486 2665 569 
Q 2790 653 2944 915 
L 3034 877 
z
" transform="scale(0.015625)"/>
       </defs>
       <use xlink:href="#STIXGeneral-Regular-31" transform="translate(0 0.409375)"/>
       <use xlink:href="#STIXGeneral-Regular-30" transform="translate(49.999985 0.409375)"/>
       <use xlink:href="#STIXGeneral-Regular-31" transform="translate(101.543251 35.684375) scale(0.7)"/>
       <use xlink:href="#STIXGeneral-Regular-32" transform="translate(136.54324 35.684375) scale(0.7)"/>
      </g>
     </g>
    </g>
    <g id="xtick_5">
     <g id="line2d_9">
      <path d="M 192.713524 284.676 
L 192.713524 4.8 
" clip-path="url(#p0ec53324b9)" style="fill: none; stroke: #b0b0b0; stroke-opacity: 0.15; stroke-width: 0.6; stroke-linecap: square"/>
     </g>
     <g id="line2d_10">
      <g>
       <use xlink:href="#m624a417cbf" x="192.713524" y="284.676" style="fill: #2c3e50; stroke: #2c3e50; stroke-width: 0.7"/>
      </g>
     </g>
     <g id="text_5">
      <!-- $10^{13}$ -->
      <g style="fill: #2c3e50" transform="translate(185.673524 293.63975) scale(0.08 -0.08)">
       <defs>
        <path id="STIXGeneral-Regular-33" d="M 390 3264 
L 288 3290 
Q 435 3770 748 4048 
Q 1062 4326 1542 4326 
Q 1990 4326 2265 4083 
Q 2541 3840 2541 3450 
Q 2541 2925 1946 2566 
Q 2298 2413 2477 2227 
Q 2758 1914 2758 1402 
Q 2758 890 2464 506 
Q 2246 211 1840 60 
Q 1434 -90 979 -90 
Q 262 -90 262 275 
Q 262 378 339 442 
Q 416 506 525 506 
Q 685 506 915 339 
Q 1197 141 1466 141 
Q 1818 141 2058 425 
Q 2298 710 2298 1120 
Q 2298 1856 1632 2048 
Q 1434 2112 979 2112 
L 979 2202 
Q 1338 2323 1517 2432 
Q 2035 2726 2035 3290 
Q 2035 3610 1852 3776 
Q 1670 3942 1344 3942 
Q 768 3942 390 3264 
z
" transform="scale(0.015625)"/>
       </defs>
       <use xlink:href="#STIXGeneral-Regular-31" transform="translate(0 0.409375)"/>
       <use xlink:href="#STIXGeneral-Regular-30" transform="translate(49.999985 0.409375)"/>
       <use xlink:href="#STIXGeneral-Regular-31" transform="translate(101.543251 35.684375) scale(0.7)"/>
       <use xlink:href="#STIXGeneral-Regular-33" transform="translate(136.54324 35.684375) scale(0.7)"/>
      </g>
     </g>
    </g>
    <g id="xtick_6">
     <g id="line2d_11">
      <path d="M 231.31756 284.676 
L 231.31756 4.8 
" clip-path="url(#p0ec53324b9)" style="fill: none; stroke: #b0b0b0; stroke-opacity: 0.15; stroke-width: 0.6; stroke-linecap: square"/>
     </g>
     <g id="line2d_12">
      <g>
       <use xlink:href="#m624a417cbf" x="231.31756" y="284.676" style="fill: #2c3e50; stroke: #2c3e50; stroke-width: 0.7"/>
      </g>
     </g>
     <g id="text_6">
      <!-- $10^{14}$ -->
      <g style="fill: #2c3e50" transform="translate(224.27756 293.63975) scale(0.08 -0.08)">
       <defs>
        <path id="STIXGeneral-Regular-34" d="M 3027 1069 
L 2368 1069 
L 2368 0 
L 1869 0 
L 1869 1069 
L 77 1069 
L 77 1478 
L 2086 4326 
L 2368 4326 
L 2368 1478 
L 3027 1478 
L 3027 1069 
z
M 1869 1478 
L 1869 3674 
L 333 1478 
L 1869 1478 
z
" transform="scale(0.015625)"/>
       </defs>
       <use xlink:href="#STIXGeneral-Regular-31" transform="translate(0 0.409375)"/>
       <use xlink:href="#STIXGeneral-Regular-30" transform="translate(49.999985 0.409375)"/>
       <use xlink:href="#STIXGeneral-Regular-31" transform="translate(101.543251 35.684375) scale(0.7)"/>
       <use xlink:href="#STIXGeneral-Regular-34" transform="translate(136.54324 35.684375) scale(0.7)"/>
      </g>
     </g>
    </g>
    <g id="xtick_7">
     <g id="line2d_13">
      <defs>
       <path id="m31c7960afa" d="M 0 0 
L 0 -2 
" style="stroke: #000000; stroke-width: 0.6"/>
      </defs>
      <g>
       <use xlink:href="#m31c7960afa" x="49.918353" y="284.676" style="stroke: #000000; stroke-width: 0.6"/>
      </g>
     </g>
    </g>
    <g id="xtick_8">
     <g id="line2d_14">
      <g>
       <use xlink:href="#m31c7960afa" x="56.716186" y="284.676" style="stroke: #000000; stroke-width: 0.6"/>
      </g>
     </g>
    </g>
    <g id="xtick_9">
     <g id="line2d_15">
      <g>
       <use xlink:href="#m31c7960afa" x="61.539326" y="284.676" style="stroke: #000000; stroke-width: 0.6"/>
      </g>
     </g>
    </g>
    <g id="xtick_10">
     <g id="line2d_16">
      <g>
       <use xlink:href="#m31c7960afa" x="65.280443" y="284.676" style="stroke: #000000; stroke-width: 0.6"/>
      </g>
     </g>
    </g>
    <g id="xtick_11">
     <g id="line2d_17">
      <g>
       <use xlink:href="#m31c7960afa" x="68.337159" y="284.676" style="stroke: #000000; stroke-width: 0.6"/>
      </g>
     </g>
    </g>
    <g id="xtick_12">
     <g id="line2d_18">
      <g>
       <use xlink:href="#m31c7960afa" x="70.921575" y="284.676" style="stroke: #000000; stroke-width: 0.6"/>
      </g>
     </g>
    </g>
    <g id="xtick_13">
     <g id="line2d_19">
      <g>
       <use xlink:href="#m31c7960afa" x="73.160299" y="284.676" style="stroke: #000000; stroke-width: 0.6"/>
      </g>
     </g>
    </g>
    <g id="xtick_14">
     <g id="line2d_20">
      <g>
       <use xlink:href="#m31c7960afa" x="75.134992" y="284.676" style="stroke: #000000; stroke-width: 0.6"/>
      </g>
     </g>
    </g>
    <g id="xtick_15">
     <g id="line2d_21">
      <g>
       <use xlink:href="#m31c7960afa" x="88.522389" y="284.676" style="stroke: #000000; stroke-width: 0.6"/>
      </g>
     </g>
    </g>
    <g id="xtick_16">
     <g id="line2d_22">
      <g>
       <use xlink:href="#m31c7960afa" x="95.320222" y="284.676" style="stroke: #000000; stroke-width: 0.6"/>
      </g>
     </g>
    </g>
    <g id="xtick_17">
     <g id="line2d_23">
      <g>
       <use xlink:href="#m31c7960afa" x="100.143362" y="284.676" style="stroke: #000000; stroke-width: 0.6"/>
      </g>
     </g>
    </g>
    <g id="xtick_18">
     <g id="line2d_24">
      <g>
       <use xlink:href="#m31c7960afa" x="103.884479" y="284.676" style="stroke: #000000; stroke-width: 0.6"/>
      </g>
     </g>
    </g>
    <g id="xtick_19">
     <g id="line2d_25">
      <g>
       <use xlink:href="#m31c7960afa" x="106.941195" y="284.676" style="stroke: #000000; stroke-width: 0.6"/>
      </g>
     </g>
    </g>
    <g id="xtick_20">
     <g id="line2d_26">
      <g>
       <use xlink:href="#m31c7960afa" x="109.525611" y="284.676" style="stroke: #000000; stroke-width: 0.6"/>
      </g>
     </g>
    </g>
    <g id="xtick_21">
     <g id="line2d_27">
      <g>
       <use xlink:href="#m31c7960afa" x="111.764334" y="284.676" style="stroke: #000000; stroke-width: 0.6"/>
      </g>
     </g>
    </g>
    <g id="xtick_22">
     <g id="line2d_28">
      <g>
       <use xlink:href="#m31c7960afa" x="113.739028" y="284.676" style="stroke: #000000; stroke-width: 0.6"/>
      </g>
     </g>
    </g>
    <g id="xtick_23">
     <g id="line2d_29">
      <g>
       <use xlink:href="#m31c7960afa" x="127.126425" y="284.676" style="stroke: #000000; stroke-width: 0.6"/>
      </g>
     </g>
    </g>
    <g id="xtick_24">
     <g id="line2d_30">
      <g>
       <use xlink:href="#m31c7960afa" x="133.924258" y="284.676" style="stroke: #000000; stroke-width: 0.6"/>
      </g>
     </g>
    </g>
    <g id="xtick_25">
     <g id="line2d_31">
      <g>
       <use xlink:href="#m31c7960afa" x="138.747398" y="284.676" style="stroke: #000000; stroke-width: 0.6"/>
      </g>
     </g>
    </g>
    <g id="xtick_26">
     <g id="line2d_32">
      <g>
       <use xlink:href="#m31c7960afa" x="142.488515" y="284.676" style="stroke: #000000; stroke-width: 0.6"/>
      </g>
     </g>
    </g>
    <g id="xtick_27">
     <g id="line2d_33">
      <g>
       <use xlink:href="#m31c7960afa" x="145.545231" y="284.676" style="stroke: #000000; stroke-width: 0.6"/>
      </g>
     </g>
    </g>
    <g id="xtick_28">
     <g id="line2d_34">
      <g>
       <use xlink:href="#m31c7960afa" x="148.129647" y="284.676" style="stroke: #000000; stroke-width: 0.6"/>
      </g>
     </g>
    </g>
    <g id="xtick_29">
     <g id="line2d_35">
      <g>
       <use xlink:href="#m31c7960afa" x="150.36837" y="284.676" style="stroke: #000000; stroke-width: 0.6"/>
      </g>
     </g>
    </g>
    <g id="xtick_30">
     <g id="line2d_36">
      <g>
       <use xlink:href="#m31c7960afa" x="152.343064" y="284.676" style="stroke: #000000; stroke-width: 0.6"/>
      </g>
     </g>
    </g>
    <g id="xtick_31">
     <g id="line2d_37">
      <g>
       <use xlink:href="#m31c7960afa" x="165.730461" y="284.676" style="stroke: #000000; stroke-width: 0.6"/>
      </g>
     </g>
    </g>
    <g id="xtick_32">
     <g id="line2d_38">
      <g>
       <use xlink:href="#m31c7960afa" x="172.528294" y="284.676" style="stroke: #000000; stroke-width: 0.6"/>
      </g>
     </g>
    </g>
    <g id="xtick_33">
     <g id="line2d_39">
      <g>
       <use xlink:href="#m31c7960afa" x="177.351434" y="284.676" style="stroke: #000000; stroke-width: 0.6"/>
      </g>
     </g>
    </g>
    <g id="xtick_34">
     <g id="line2d_40">
      <g>
       <use xlink:href="#m31c7960afa" x="181.092551" y="284.676" style="stroke: #000000; stroke-width: 0.6"/>
      </g>
     </g>
    </g>
    <g id="xtick_35">
     <g id="line2d_41">
      <g>
       <use xlink:href="#m31c7960afa" x="184.149267" y="284.676" style="stroke: #000000; stroke-width: 0.6"/>
      </g>
     </g>
    </g>
    <g id="xtick_36">
     <g id="line2d_42">
      <g>
       <use xlink:href="#m31c7960afa" x="186.733683" y="284.676" style="stroke: #000000; stroke-width: 0.6"/>
      </g>
     </g>
    </g>
    <g id="xtick_37">
     <g id="line2d_43">
      <g>
       <use xlink:href="#m31c7960afa" x="188.972406" y="284.676" style="stroke: #000000; stroke-width: 0.6"/>
      </g>
     </g>
    </g>
    <g id="xtick_38">
     <g id="line2d_44">
      <g>
       <use xlink:href="#m31c7960afa" x="190.9471" y="284.676" style="stroke: #000000; stroke-width: 0.6"/>
      </g>
     </g>
    </g>
    <g id="xtick_39">
     <g id="line2d_45">
      <g>
       <use xlink:href="#m31c7960afa" x="204.334497" y="284.676" style="stroke: #000000; stroke-width: 0.6"/>
      </g>
     </g>
    </g>
    <g id="xtick_40">
     <g id="line2d_46">
      <g>
       <use xlink:href="#m31c7960afa" x="211.13233" y="284.676" style="stroke: #000000; stroke-width: 0.6"/>
      </g>
     </g>
    </g>
    <g id="xtick_41">
     <g id="line2d_47">
      <g>
       <use xlink:href="#m31c7960afa" x="215.955469" y="284.676" style="stroke: #000000; stroke-width: 0.6"/>
      </g>
     </g>
    </g>
    <g id="xtick_42">
     <g id="line2d_48">
      <g>
       <use xlink:href="#m31c7960afa" x="219.696587" y="284.676" style="stroke: #000000; stroke-width: 0.6"/>
      </g>
     </g>
    </g>
    <g id="xtick_43">
     <g id="line2d_49">
      <g>
       <use xlink:href="#m31c7960afa" x="222.753303" y="284.676" style="stroke: #000000; stroke-width: 0.6"/>
      </g>
     </g>
    </g>
    <g id="xtick_44">
     <g id="line2d_50">
      <g>
       <use xlink:href="#m31c7960afa" x="225.337719" y="284.676" style="stroke: #000000; stroke-width: 0.6"/>
      </g>
     </g>
    </g>
    <g id="xtick_45">
     <g id="line2d_51">
      <g>
       <use xlink:href="#m31c7960afa" x="227.576442" y="284.676" style="stroke: #000000; stroke-width: 0.6"/>
      </g>
     </g>
    </g>
    <g id="xtick_46">
     <g id="line2d_52">
      <g>
       <use xlink:href="#m31c7960afa" x="229.551136" y="284.676" style="stroke: #000000; stroke-width: 0.6"/>
      </g>
     </g>
    </g>
    <g id="text_7">
     <!-- density $n$ (cm$^{-2}$) -->
     <g style="fill: #2c3e50" transform="translate(104.79247 306.846) scale(0.09 -0.09)">
      <defs>
       <path id="STIXGeneral-Regular-64" d="M 3142 269 
L 2202 -64 
L 2176 -45 
L 2176 365 
Q 1869 -64 1357 -64 
Q 826 -64 499 317 
Q 173 698 173 1312 
Q 173 1990 563 2467 
Q 954 2944 1504 2944 
Q 1850 2944 2176 2669 
L 2176 3667 
Q 2176 3866 2118 3930 
Q 2061 3994 1882 3994 
Q 1792 3994 1741 3987 
L 1741 4090 
Q 2323 4243 2682 4371 
L 2714 4358 
L 2714 730 
Q 2714 506 2768 435 
Q 2822 365 2995 365 
Q 3034 365 3142 371 
L 3142 269 
z
M 2176 653 
L 2176 2125 
Q 2176 2381 1981 2573 
Q 1786 2765 1523 2765 
Q 1158 2765 940 2438 
Q 723 2112 723 1568 
Q 723 979 963 624 
Q 1203 269 1606 269 
Q 1907 269 2080 474 
Q 2176 582 2176 653 
z
" transform="scale(0.015625)"/>
       <path id="STIXGeneral-Regular-65" d="M 2611 1050 
L 2714 1005 
Q 2330 -64 1376 -64 
Q 813 -64 486 329 
Q 160 723 160 1389 
Q 160 2074 525 2509 
Q 890 2944 1485 2944 
Q 2061 2944 2374 2502 
Q 2560 2246 2592 1773 
L 621 1773 
Q 646 1370 700 1158 
Q 755 947 915 730 
Q 1184 378 1626 378 
Q 1939 378 2153 531 
Q 2368 685 2611 1050 
z
M 634 1978 
L 1939 1978 
Q 1882 2381 1750 2547 
Q 1619 2714 1312 2714 
Q 1043 2714 864 2525 
Q 685 2336 634 1978 
z
" transform="scale(0.015625)"/>
       <path id="STIXGeneral-Regular-6e" d="M 3104 0 
L 1773 0 
L 1779 96 
Q 2016 115 2096 233 
Q 2176 352 2176 672 
L 2176 1946 
Q 2176 2592 1709 2592 
Q 1549 2592 1408 2515 
Q 1267 2438 1050 2227 
L 1050 461 
Q 1050 269 1136 192 
Q 1222 115 1466 96 
L 1466 0 
L 115 0 
L 115 96 
Q 358 115 435 214 
Q 512 314 512 602 
L 512 2157 
Q 512 2394 467 2483 
Q 422 2573 288 2573 
Q 160 2573 102 2547 
L 102 2656 
Q 550 2784 979 2944 
L 1030 2925 
L 1030 2426 
L 1037 2426 
Q 1491 2944 1958 2944 
Q 2323 2944 2518 2688 
Q 2714 2432 2714 1958 
L 2714 544 
Q 2714 288 2790 205 
Q 2867 122 3104 96 
L 3104 0 
z
" transform="scale(0.015625)"/>
       <path id="STIXGeneral-Regular-73" d="M 998 1926 
L 1664 1523 
Q 1984 1331 2105 1164 
Q 2227 998 2227 736 
Q 2227 416 1961 176 
Q 1696 -64 1331 -64 
Q 1030 -64 864 -6 
Q 691 51 570 51 
Q 461 51 416 -26 
L 333 -26 
L 333 979 
L 435 979 
Q 538 512 730 294 
Q 922 77 1248 77 
Q 1485 77 1632 211 
Q 1779 346 1779 550 
Q 1779 845 1440 1030 
L 1094 1222 
Q 326 1651 326 2150 
Q 326 2522 566 2730 
Q 806 2938 1210 2938 
Q 1491 2938 1638 2867 
Q 1754 2816 1818 2816 
Q 1862 2816 1920 2880 
L 1990 2880 
L 2022 2010 
L 1926 2010 
Q 1818 2445 1654 2621 
Q 1491 2797 1203 2797 
Q 986 2797 854 2688 
Q 723 2579 723 2362 
Q 723 2253 796 2128 
Q 870 2003 998 1926 
z
" transform="scale(0.015625)"/>
       <path id="STIXGeneral-Regular-69" d="M 1152 4045 
Q 1152 3904 1056 3811 
Q 960 3718 819 3718 
Q 685 3718 592 3811 
Q 499 3904 499 4045 
Q 499 4179 595 4275 
Q 691 4371 826 4371 
Q 966 4371 1059 4275 
Q 1152 4179 1152 4045 
z
M 1619 0 
L 102 0 
L 102 96 
Q 435 115 521 211 
Q 608 307 608 666 
L 608 2118 
Q 608 2342 563 2432 
Q 518 2522 397 2522 
Q 243 2522 128 2490 
L 128 2592 
L 1120 2944 
L 1146 2918 
L 1146 672 
Q 1146 314 1226 218 
Q 1306 122 1619 96 
L 1619 0 
z
" transform="scale(0.015625)"/>
       <path id="STIXGeneral-Regular-74" d="M 1702 493 
L 1786 422 
Q 1478 -64 1011 -64 
Q 448 -64 448 749 
L 448 2675 
L 109 2675 
Q 83 2694 83 2720 
Q 83 2771 192 2842 
Q 435 2982 813 3526 
Q 826 3546 874 3606 
Q 922 3667 941 3706 
Q 986 3706 986 3622 
L 986 2880 
L 1632 2880 
L 1632 2675 
L 986 2675 
L 986 845 
Q 986 538 1062 403 
Q 1139 269 1318 269 
Q 1510 269 1702 493 
z
" transform="scale(0.015625)"/>
       <path id="STIXGeneral-Regular-79" d="M 3040 2880 
L 3040 2784 
Q 2925 2771 2854 2700 
Q 2784 2630 2720 2458 
L 1760 -160 
Q 1510 -838 1257 -1116 
Q 1005 -1395 640 -1395 
Q 435 -1395 313 -1289 
Q 192 -1184 192 -1024 
Q 192 -902 272 -816 
Q 352 -730 467 -730 
Q 653 -730 800 -813 
Q 883 -858 966 -858 
Q 1101 -858 1286 -576 
Q 1376 -448 1459 -211 
Q 1542 26 1542 115 
Q 1542 198 1274 762 
L 429 2566 
Q 346 2752 90 2790 
L 90 2880 
L 1402 2880 
L 1402 2784 
Q 1197 2778 1117 2739 
Q 1037 2701 1037 2611 
Q 1037 2541 1120 2349 
L 1837 749 
L 2458 2515 
Q 2483 2573 2483 2630 
Q 2483 2784 2189 2784 
L 2189 2880 
L 3040 2880 
z
" transform="scale(0.015625)"/>
       <path id="STIXGeneral-Regular-20" transform="scale(0.015625)"/>
       <path id="STIXGeneral-Italic-6e" d="M 2944 749 
L 3034 666 
Q 2707 218 2534 80 
Q 2362 -58 2138 -58 
Q 2010 -58 1923 28 
Q 1837 115 1837 288 
Q 1837 390 1939 768 
L 2221 1805 
Q 2310 2150 2310 2310 
Q 2310 2496 2157 2496 
Q 1971 2496 1750 2275 
Q 1530 2054 1210 1587 
Q 998 1274 899 1024 
Q 800 774 570 0 
L 90 0 
L 704 2240 
Q 717 2304 717 2349 
Q 717 2445 630 2480 
Q 544 2515 301 2522 
L 301 2624 
Q 550 2675 857 2729 
Q 1165 2784 1338 2822 
L 1363 2810 
L 934 1414 
Q 1408 2170 1753 2496 
Q 2099 2822 2413 2822 
Q 2611 2822 2720 2716 
Q 2829 2611 2829 2432 
Q 2829 2272 2765 2048 
L 2406 749 
Q 2317 429 2317 358 
Q 2317 243 2419 243 
Q 2541 243 2810 582 
Q 2854 634 2944 749 
z
" transform="scale(0.015625)"/>
       <path id="STIXGeneral-Regular-28" d="M 1946 -1030 
L 1869 -1133 
Q 1126 -710 716 32 
Q 307 774 307 1613 
Q 307 3386 1888 4326 
L 1946 4224 
Q 1293 3667 1075 3126 
Q 858 2586 858 1632 
Q 858 685 1082 96 
Q 1306 -493 1946 -1030 
z
" transform="scale(0.015625)"/>
       <path id="STIXGeneral-Regular-63" d="M 2547 998 
L 2637 941 
Q 2362 403 2112 205 
Q 1786 -64 1376 -64 
Q 845 -64 502 336 
Q 160 736 160 1357 
Q 160 2170 698 2618 
Q 1094 2944 1562 2944 
Q 1965 2944 2256 2749 
Q 2547 2554 2547 2285 
Q 2547 2176 2457 2096 
Q 2368 2016 2246 2016 
Q 2022 2016 1939 2310 
L 1901 2451 
Q 1850 2630 1773 2694 
Q 1696 2758 1523 2758 
Q 1133 2758 893 2451 
Q 653 2144 653 1645 
Q 653 1094 928 745 
Q 1203 397 1645 397 
Q 1920 397 2118 528 
Q 2317 659 2547 998 
z
" transform="scale(0.015625)"/>
       <path id="STIXGeneral-Regular-6d" d="M 4960 0 
L 3565 0 
L 3565 96 
Q 3834 122 3907 208 
Q 3981 294 3981 576 
L 3981 1894 
Q 3981 2278 3869 2444 
Q 3757 2611 3488 2611 
Q 3264 2611 3107 2521 
Q 2950 2432 2803 2221 
L 2803 608 
Q 2803 301 2896 201 
Q 2989 102 3264 96 
L 3264 0 
L 1830 0 
L 1830 96 
Q 2112 115 2189 188 
Q 2266 262 2266 550 
L 2266 1901 
Q 2266 2611 1850 2611 
Q 1670 2611 1468 2531 
Q 1267 2451 1171 2336 
Q 1088 2240 1088 2227 
L 1088 448 
Q 1088 243 1177 176 
Q 1267 109 1523 96 
L 1523 0 
L 102 0 
L 102 96 
Q 371 102 460 195 
Q 550 288 550 563 
L 550 2150 
Q 550 2387 499 2480 
Q 448 2573 326 2573 
Q 230 2573 122 2547 
L 122 2656 
Q 557 2778 1011 2944 
L 1062 2925 
L 1062 2451 
L 1075 2451 
Q 1363 2752 1584 2848 
Q 1805 2944 2054 2944 
Q 2560 2944 2733 2406 
Q 3232 2944 3776 2944 
Q 4518 2944 4518 1792 
L 4518 493 
Q 4518 282 4582 202 
Q 4646 122 4794 109 
L 4960 96 
L 4960 0 
z
" transform="scale(0.015625)"/>
       <path id="STIXGeneral-Regular-2212" d="M 3974 1408 
L 410 1408 
L 410 1830 
L 3974 1830 
L 3974 1408 
z
" transform="scale(0.015625)"/>
       <path id="STIXGeneral-Regular-29" d="M 186 4224 
L 262 4326 
Q 992 3891 1408 3148 
Q 1824 2406 1824 1581 
Q 1824 -166 243 -1133 
L 186 -1030 
Q 845 -486 1059 54 
Q 1274 595 1274 1562 
Q 1274 2534 1059 3120 
Q 845 3706 186 4224 
z
" transform="scale(0.015625)"/>
      </defs>
      <use xlink:href="#STIXGeneral-Regular-64" transform="translate(0 0.409375)"/>
      <use xlink:href="#STIXGeneral-Regular-65" transform="translate(49.999985 0.409375)"/>
      <use xlink:href="#STIXGeneral-Regular-6e" transform="translate(94.399979 0.409375)"/>
      <use xlink:href="#STIXGeneral-Regular-73" transform="translate(144.399963 0.409375)"/>
      <use xlink:href="#STIXGeneral-Regular-69" transform="translate(183.299957 0.409375)"/>
      <use xlink:href="#STIXGeneral-Regular-74" transform="translate(211.099945 0.409375)"/>
      <use xlink:href="#STIXGeneral-Regular-79" transform="translate(238.899933 0.409375)"/>
      <use xlink:href="#STIXGeneral-Regular-20" transform="translate(288.899918 0.409375)"/>
      <use xlink:href="#STIXGeneral-Italic-6e" transform="translate(313.899902 0.409375)"/>
      <use xlink:href="#STIXGeneral-Regular-20" transform="translate(363.899887 0.409375)"/>
      <use xlink:href="#STIXGeneral-Regular-28" transform="translate(388.899872 0.409375)"/>
      <use xlink:href="#STIXGeneral-Regular-63" transform="translate(422.19986 0.409375)"/>
      <use xlink:href="#STIXGeneral-Regular-6d" transform="translate(466.599854 0.409375)"/>
      <use xlink:href="#STIXGeneral-Regular-2212" transform="translate(545.943123 35.684375) scale(0.7)"/>
      <use xlink:href="#STIXGeneral-Regular-32" transform="translate(593.893112 35.684375) scale(0.7)"/>
      <use xlink:href="#STIXGeneral-Regular-29" transform="translate(633.302476 0.409375)"/>
     </g>
    </g>
   </g>
   <g id="matplotlib.axis_2">
    <g id="ytick_1">
     <g id="line2d_53">
      <path d="M 38.29738 284.676 
L 231.31756 284.676 
" clip-path="url(#p0ec53324b9)" style="fill: none; stroke: #b0b0b0; stroke-opacity: 0.15; stroke-width: 0.6; stroke-linecap: square"/>
     </g>
     <g id="line2d_54">
      <defs>
       <path id="m737894edc7" d="M 0 0 
L 3.5 0 
" style="stroke: #2c3e50; stroke-width: 0.7"/>
      </defs>
      <g>
       <use xlink:href="#m737894edc7" x="38.29738" y="284.676" style="fill: #2c3e50; stroke: #2c3e50; stroke-width: 0.7"/>
      </g>
     </g>
     <g id="text_8">
      <!-- $10^{2}$ -->
      <g style="fill: #2c3e50" transform="translate(23.51738 287.407875) scale(0.08 -0.08)">
       <use xlink:href="#STIXGeneral-Regular-31" transform="translate(0 0.409375)"/>
       <use xlink:href="#STIXGeneral-Regular-30" transform="translate(49.999985 0.409375)"/>
       <use xlink:href="#STIXGeneral-Regular-32" transform="translate(101.543251 35.684375) scale(0.7)"/>
      </g>
     </g>
    </g>
    <g id="ytick_2">
     <g id="line2d_55">
      <path d="M 38.29738 222.481333 
L 231.31756 222.481333 
" clip-path="url(#p0ec53324b9)" style="fill: none; stroke: #b0b0b0; stroke-opacity: 0.15; stroke-width: 0.6; stroke-linecap: square"/>
     </g>
     <g id="line2d_56">
      <g>
       <use xlink:href="#m737894edc7" x="38.29738" y="222.481333" style="fill: #2c3e50; stroke: #2c3e50; stroke-width: 0.7"/>
      </g>
     </g>
     <g id="text_9">
      <!-- $10^{4}$ -->
      <g style="fill: #2c3e50" transform="translate(23.51738 225.213208) scale(0.08 -0.08)">
       <use xlink:href="#STIXGeneral-Regular-31" transform="translate(0 0.409375)"/>
       <use xlink:href="#STIXGeneral-Regular-30" transform="translate(49.999985 0.409375)"/>
       <use xlink:href="#STIXGeneral-Regular-34" transform="translate(101.543251 35.684375) scale(0.7)"/>
      </g>
     </g>
    </g>
    <g id="ytick_3">
     <g id="line2d_57">
      <path d="M 38.29738 160.286667 
L 231.31756 160.286667 
" clip-path="url(#p0ec53324b9)" style="fill: none; stroke: #b0b0b0; stroke-opacity: 0.15; stroke-width: 0.6; stroke-linecap: square"/>
     </g>
     <g id="line2d_58">
      <g>
       <use xlink:href="#m737894edc7" x="38.29738" y="160.286667" style="fill: #2c3e50; stroke: #2c3e50; stroke-width: 0.7"/>
      </g>
     </g>
     <g id="text_10">
      <!-- $10^{6}$ -->
      <g style="fill: #2c3e50" transform="translate(23.51738 163.018542) scale(0.08 -0.08)">
       <defs>
        <path id="STIXGeneral-Regular-36" d="M 2854 4378 
L 2867 4275 
Q 2112 4154 1606 3664 
Q 1101 3174 973 2451 
Q 1344 2739 1786 2739 
Q 2349 2739 2672 2380 
Q 2995 2022 2995 1402 
Q 2995 774 2669 378 
Q 2291 -90 1651 -90 
Q 870 -90 518 557 
Q 218 1107 218 1786 
Q 218 2835 915 3552 
Q 1312 3962 1731 4131 
Q 2150 4301 2854 4378 
z
M 2419 1203 
Q 2419 2445 1555 2445 
Q 1235 2445 1024 2275 
Q 813 2106 813 1702 
Q 813 954 1046 522 
Q 1280 90 1722 90 
Q 2061 90 2240 394 
Q 2419 698 2419 1203 
z
" transform="scale(0.015625)"/>
       </defs>
       <use xlink:href="#STIXGeneral-Regular-31" transform="translate(0 0.840625)"/>
       <use xlink:href="#STIXGeneral-Regular-30" transform="translate(49.999985 0.840625)"/>
       <use xlink:href="#STIXGeneral-Regular-36" transform="translate(101.543251 36.115625) scale(0.7)"/>
      </g>
     </g>
    </g>
    <g id="ytick_4">
     <g id="line2d_59">
      <path d="M 38.29738 98.092 
L 231.31756 98.092 
" clip-path="url(#p0ec53324b9)" style="fill: none; stroke: #b0b0b0; stroke-opacity: 0.15; stroke-width: 0.6; stroke-linecap: square"/>
     </g>
     <g id="line2d_60">
      <g>
       <use xlink:href="#m737894edc7" x="38.29738" y="98.092" style="fill: #2c3e50; stroke: #2c3e50; stroke-width: 0.7"/>
      </g>
     </g>
     <g id="text_11">
      <!-- $10^{8}$ -->
      <g style="fill: #2c3e50" transform="translate(23.51738 100.823875) scale(0.08 -0.08)">
       <defs>
        <path id="STIXGeneral-Regular-38" d="M 2848 992 
Q 2848 499 2505 204 
Q 2163 -90 1587 -90 
Q 1050 -90 704 204 
Q 358 499 358 954 
Q 358 1293 524 1533 
Q 691 1773 1190 2125 
Q 710 2522 553 2765 
Q 397 3008 397 3328 
Q 397 3782 745 4054 
Q 1094 4326 1638 4326 
Q 2106 4326 2410 4060 
Q 2714 3795 2714 3411 
Q 2714 3059 2531 2848 
Q 2349 2637 1856 2374 
Q 2432 1990 2640 1689 
Q 2848 1389 2848 992 
z
M 2272 3411 
Q 2272 3744 2086 3945 
Q 1901 4147 1574 4147 
Q 1248 4147 1059 3977 
Q 870 3808 870 3513 
Q 870 3219 1059 2979 
Q 1248 2739 1670 2490 
Q 1997 2682 2134 2896 
Q 2272 3110 2272 3411 
z
M 1734 1741 
L 1357 1997 
Q 1075 1766 960 1545 
Q 845 1325 845 1011 
Q 845 576 1065 333 
Q 1286 90 1658 90 
Q 1971 90 2166 285 
Q 2362 480 2362 794 
Q 2362 1082 2214 1299 
Q 2067 1517 1734 1741 
z
" transform="scale(0.015625)"/>
       </defs>
       <use xlink:href="#STIXGeneral-Regular-31" transform="translate(0 0.409375)"/>
       <use xlink:href="#STIXGeneral-Regular-30" transform="translate(49.999985 0.409375)"/>
       <use xlink:href="#STIXGeneral-Regular-38" transform="translate(101.543251 35.684375) scale(0.7)"/>
      </g>
     </g>
    </g>
    <g id="ytick_5">
     <g id="line2d_61">
      <path d="M 38.29738 35.897333 
L 231.31756 35.897333 
" clip-path="url(#p0ec53324b9)" style="fill: none; stroke: #b0b0b0; stroke-opacity: 0.15; stroke-width: 0.6; stroke-linecap: square"/>
     </g>
     <g id="line2d_62">
      <g>
       <use xlink:href="#m737894edc7" x="38.29738" y="35.897333" style="fill: #2c3e50; stroke: #2c3e50; stroke-width: 0.7"/>
      </g>
     </g>
     <g id="text_12">
      <!-- $10^{10}$ -->
      <g style="fill: #2c3e50" transform="translate(20.71738 38.629208) scale(0.08 -0.08)">
       <use xlink:href="#STIXGeneral-Regular-31" transform="translate(0 0.409375)"/>
       <use xlink:href="#STIXGeneral-Regular-30" transform="translate(49.999985 0.409375)"/>
       <use xlink:href="#STIXGeneral-Regular-31" transform="translate(101.543251 35.684375) scale(0.7)"/>
       <use xlink:href="#STIXGeneral-Regular-30" transform="translate(136.54324 35.684375) scale(0.7)"/>
      </g>
     </g>
    </g>
    <g id="text_13">
     <!-- current relaxation rate $\Gamma_J$ (s$^{-1}$) -->
     <g style="fill: #2c3e50" transform="translate(14.764099 199.818) rotate(-90) scale(0.09 -0.09)">
      <defs>
       <path id="STIXGeneral-Regular-75" d="M 3072 320 
L 3072 230 
Q 2573 96 2195 -58 
L 2163 -38 
L 2163 486 
L 2150 486 
Q 1747 -64 1235 -64 
Q 870 -64 662 160 
Q 454 384 454 755 
L 454 2362 
Q 454 2598 371 2688 
Q 288 2778 58 2790 
L 58 2880 
L 992 2880 
L 992 813 
Q 992 595 1123 451 
Q 1254 307 1446 307 
Q 1760 307 1984 506 
Q 2067 582 2099 649 
Q 2131 717 2131 877 
L 2131 2355 
Q 2131 2605 2041 2678 
Q 1952 2752 1658 2771 
L 1658 2880 
L 2669 2880 
L 2669 685 
Q 2669 461 2742 390 
Q 2816 320 3034 320 
L 3072 320 
z
" transform="scale(0.015625)"/>
       <path id="STIXGeneral-Regular-72" d="M 1024 2931 
L 1024 2342 
Q 1267 2688 1430 2816 
Q 1594 2944 1792 2944 
Q 1958 2944 2051 2854 
Q 2144 2765 2144 2605 
Q 2144 2470 2077 2393 
Q 2010 2317 1894 2317 
Q 1773 2317 1638 2445 
Q 1536 2541 1472 2541 
Q 1338 2541 1181 2355 
Q 1024 2170 1024 2016 
L 1024 576 
Q 1024 301 1133 205 
Q 1242 109 1568 96 
L 1568 0 
L 32 0 
L 32 96 
Q 339 154 412 224 
Q 486 294 486 538 
L 486 2138 
Q 486 2349 438 2435 
Q 390 2522 269 2522 
Q 166 2522 45 2496 
L 45 2598 
Q 448 2726 992 2944 
L 1024 2931 
z
" transform="scale(0.015625)"/>
       <path id="STIXGeneral-Regular-6c" d="M 1645 0 
L 134 0 
L 134 96 
Q 435 122 531 221 
Q 627 320 627 589 
L 627 3590 
Q 627 3821 569 3910 
Q 512 4000 358 4000 
Q 224 4000 122 3987 
L 122 4090 
Q 730 4237 1133 4371 
L 1165 4346 
L 1165 557 
Q 1165 288 1254 201 
Q 1344 115 1645 96 
L 1645 0 
z
" transform="scale(0.015625)"/>
       <path id="STIXGeneral-Regular-61" d="M 2829 422 
L 2829 243 
Q 2586 -64 2253 -64 
Q 1888 -64 1843 403 
L 1837 403 
Q 1427 -64 909 -64 
Q 608 -64 422 112 
Q 237 288 237 602 
Q 237 1050 685 1350 
Q 992 1555 1837 1869 
L 1837 2214 
Q 1837 2502 1699 2646 
Q 1562 2790 1338 2790 
Q 1146 2790 1018 2697 
Q 890 2605 890 2477 
Q 890 2419 909 2348 
Q 928 2278 928 2208 
Q 928 2112 841 2029 
Q 755 1946 634 1946 
Q 525 1946 441 2029 
Q 358 2112 358 2240 
Q 358 2547 685 2752 
Q 986 2944 1421 2944 
Q 1939 2944 2176 2656 
Q 2291 2522 2323 2384 
Q 2355 2246 2355 1946 
L 2355 723 
Q 2355 301 2554 301 
Q 2682 301 2829 422 
z
M 1837 813 
L 1837 1715 
Q 1248 1510 1018 1293 
Q 800 1094 800 800 
Q 800 557 921 432 
Q 1043 307 1242 307 
Q 1453 307 1613 410 
Q 1747 506 1792 589 
Q 1837 672 1837 813 
z
" transform="scale(0.015625)"/>
       <path id="STIXGeneral-Regular-78" d="M 3066 0 
L 1779 0 
L 1779 96 
Q 1939 109 1987 137 
Q 2035 166 2035 250 
Q 2035 307 1997 365 
L 1414 1261 
L 909 474 
Q 781 275 781 211 
Q 781 96 1037 96 
L 1037 0 
L 109 0 
L 109 96 
Q 269 109 355 169 
Q 442 230 576 422 
L 1306 1478 
L 704 2400 
Q 557 2624 454 2704 
Q 352 2784 211 2784 
L 154 2784 
L 154 2880 
L 1478 2880 
L 1478 2784 
Q 1203 2778 1203 2643 
Q 1203 2509 1498 2074 
Q 1581 1958 1587 1946 
Q 1619 1990 1779 2227 
Q 1811 2285 1856 2349 
Q 1901 2413 1923 2451 
Q 1946 2490 1971 2528 
Q 1997 2566 2006 2595 
Q 2016 2624 2016 2643 
Q 2016 2765 1760 2784 
L 1760 2880 
L 2771 2880 
L 2771 2784 
Q 2445 2771 2253 2502 
L 1722 1734 
L 2541 480 
Q 2790 96 3066 96 
L 3066 0 
z
" transform="scale(0.015625)"/>
       <path id="STIXGeneral-Regular-6f" d="M 3008 1478 
Q 3008 806 2608 371 
Q 2208 -64 1568 -64 
Q 979 -64 582 368 
Q 186 800 186 1459 
Q 186 2125 582 2534 
Q 979 2944 1626 2944 
Q 2221 2944 2614 2537 
Q 3008 2131 3008 1478 
z
M 2432 1306 
Q 2432 2035 2112 2445 
Q 1856 2765 1504 2765 
Q 1171 2765 966 2493 
Q 762 2221 762 1747 
Q 762 928 1101 435 
Q 1318 115 1677 115 
Q 2029 115 2230 432 
Q 2432 749 2432 1306 
z
" transform="scale(0.015625)"/>
       <path id="STIXGeneral-Regular-393" d="M 3693 3162 
L 3533 3162 
Q 3482 3642 3299 3818 
Q 3117 3994 2637 3994 
L 1517 3994 
Q 1382 3994 1334 3942 
Q 1286 3891 1286 3738 
L 1286 723 
Q 1286 352 1388 246 
Q 1491 141 1869 122 
L 1869 0 
L 70 0 
L 70 122 
Q 435 147 534 262 
Q 634 378 634 794 
L 634 3526 
Q 634 3878 538 3984 
Q 442 4090 77 4115 
L 77 4237 
L 3661 4237 
L 3693 3162 
z
" transform="scale(0.015625)"/>
       <path id="STIXGeneral-Italic-4a" d="M 3142 4179 
L 3142 4077 
Q 2867 4038 2784 3964 
Q 2701 3891 2618 3603 
L 1958 1254 
Q 1773 589 1504 237 
Q 1235 -115 710 -115 
Q 371 -115 166 38 
Q -38 192 -38 448 
Q -38 602 42 704 
Q 122 806 250 806 
Q 378 806 477 720 
Q 576 634 576 512 
Q 576 474 566 419 
Q 557 365 557 339 
Q 557 90 781 90 
Q 1005 90 1120 499 
L 1933 3405 
Q 2010 3686 2010 3814 
Q 2010 3942 1914 3996 
Q 1818 4051 1517 4077 
L 1517 4179 
L 3142 4179 
z
" transform="scale(0.015625)"/>
      </defs>
      <use xlink:href="#STIXGeneral-Regular-63" transform="translate(0 0.409375)"/>
      <use xlink:href="#STIXGeneral-Regular-75" transform="translate(44.399994 0.409375)"/>
      <use xlink:href="#STIXGeneral-Regular-72" transform="translate(94.399979 0.409375)"/>
      <use xlink:href="#STIXGeneral-Regular-72" transform="translate(127.699966 0.409375)"/>
      <use xlink:href="#STIXGeneral-Regular-65" transform="translate(160.999954 0.409375)"/>
      <use xlink:href="#STIXGeneral-Regular-6e" transform="translate(205.399948 0.409375)"/>
      <use xlink:href="#STIXGeneral-Regular-74" transform="translate(255.399933 0.409375)"/>
      <use xlink:href="#STIXGeneral-Regular-20" transform="translate(283.199921 0.409375)"/>
      <use xlink:href="#STIXGeneral-Regular-72" transform="translate(308.199905 0.409375)"/>
      <use xlink:href="#STIXGeneral-Regular-65" transform="translate(341.499893 0.409375)"/>
      <use xlink:href="#STIXGeneral-Regular-6c" transform="translate(385.899887 0.409375)"/>
      <use xlink:href="#STIXGeneral-Regular-61" transform="translate(413.699875 0.409375)"/>
      <use xlink:href="#STIXGeneral-Regular-78" transform="translate(458.099869 0.409375)"/>
      <use xlink:href="#STIXGeneral-Regular-61" transform="translate(508.099854 0.409375)"/>
      <use xlink:href="#STIXGeneral-Regular-74" transform="translate(552.499847 0.409375)"/>
      <use xlink:href="#STIXGeneral-Regular-69" transform="translate(580.299835 0.409375)"/>
      <use xlink:href="#STIXGeneral-Regular-6f" transform="translate(608.099823 0.409375)"/>
      <use xlink:href="#STIXGeneral-Regular-6e" transform="translate(658.099808 0.409375)"/>
      <use xlink:href="#STIXGeneral-Regular-20" transform="translate(708.099792 0.409375)"/>
      <use xlink:href="#STIXGeneral-Regular-72" transform="translate(733.099777 0.409375)"/>
      <use xlink:href="#STIXGeneral-Regular-61" transform="translate(766.399765 0.409375)"/>
      <use xlink:href="#STIXGeneral-Regular-74" transform="translate(810.799759 0.409375)"/>
      <use xlink:href="#STIXGeneral-Regular-65" transform="translate(838.599747 0.409375)"/>
      <use xlink:href="#STIXGeneral-Regular-20" transform="translate(882.999741 0.409375)"/>
      <use xlink:href="#STIXGeneral-Regular-393" transform="translate(907.999725 0.409375)"/>
      <use xlink:href="#STIXGeneral-Italic-4a" transform="translate(968.243004 -12.81875) scale(0.7)"/>
      <use xlink:href="#STIXGeneral-Regular-20" transform="translate(1003.732374 0.409375)"/>
      <use xlink:href="#STIXGeneral-Regular-28" transform="translate(1028.732359 0.409375)"/>
      <use xlink:href="#STIXGeneral-Regular-73" transform="translate(1062.032347 0.409375)"/>
      <use xlink:href="#STIXGeneral-Regular-2212" transform="translate(1102.475622 35.684375) scale(0.7)"/>
      <use xlink:href="#STIXGeneral-Regular-31" transform="translate(1150.425611 35.684375) scale(0.7)"/>
      <use xlink:href="#STIXGeneral-Regular-29" transform="translate(1189.834976 0.409375)"/>
     </g>
    </g>
   </g>
   <g id="line2d_63">
    <path d="M 38.29738 160.650615 
L 47.333877 161.107613 
L 55.038144 161.722493 
L 61.539218 162.474024 
L 67.094582 163.339162 
L 72.237068 164.365699 
L 77.139099 165.580326 
L 81.664439 166.930294 
L 86.21496 168.525696 
L 90.655861 170.320809 
L 95.159647 172.381395 
L 99.841132 174.770221 
L 104.770622 177.53801 
L 110.097268 180.787716 
L 116.000878 184.655824 
L 122.744366 189.348392 
L 130.732736 195.188514 
L 140.716625 202.776344 
L 154.261933 213.369139 
L 175.562897 230.340238 
L 223.768773 269.102482 
L 231.31756 275.181861 
L 231.31756 275.181861 
" clip-path="url(#p0ec53324b9)" style="fill: none; stroke: #41049d; stroke-opacity: 0.9; stroke-width: 1.4; stroke-linecap: square"/>
   </g>
   <g id="line2d_64">
    <path d="M 38.29738 132.237566 
L 51.074978 132.613324 
L 60.296762 133.113492 
L 67.519048 133.724399 
L 73.748496 134.471311 
L 79.348278 135.369263 
L 84.479047 136.422487 
L 89.225804 137.625089 
L 93.817689 139.020661 
L 98.310136 140.622404 
L 102.795929 142.462381 
L 107.335555 144.567993 
L 112.031496 146.993465 
L 117.015914 149.821995 
L 122.414542 153.146678 
L 128.405482 157.103773 
L 135.266072 161.909732 
L 143.447195 167.922618 
L 153.755965 175.789051 
L 167.928125 186.903157 
L 190.825969 205.176009 
L 231.31756 237.739607 
L 231.31756 237.739607 
" clip-path="url(#p0ec53324b9)" style="fill: none; stroke: #7e03a8; stroke-opacity: 0.9; stroke-width: 1.4; stroke-linecap: square"/>
   </g>
   <g id="line2d_65">
    <path d="M 38.29738 103.986135 
L 55.038144 104.272426 
L 65.752627 104.667889 
L 74.035093 105.185138 
L 80.927375 105.831344 
L 86.888364 106.607841 
L 92.263369 107.528883 
L 97.205835 108.598322 
L 101.903656 109.841668 
L 106.41392 111.264439 
L 110.87269 112.904905 
L 115.336811 114.785773 
L 119.903983 116.953905 
L 124.653265 119.457543 
L 129.707276 122.37714 
L 135.207013 125.816326 
L 141.348769 129.925867 
L 148.434648 134.943014 
L 156.965273 141.266423 
L 167.873414 149.643726 
L 183.240352 161.74741 
L 209.40519 182.6773 
L 231.31756 200.300019 
L 231.31756 200.300019 
" clip-path="url(#p0ec53324b9)" style="fill: none; stroke: #b12a90; stroke-opacity: 0.9; stroke-width: 1.4; stroke-linecap: square"/>
   </g>
   <g id="line2d_66">
    <path d="M 38.29738 75.817786 
L 60.296762 76.046348 
L 73.160173 76.399539 
L 82.370459 76.867766 
L 89.790352 77.46068 
L 96.100015 78.182277 
L 101.686624 79.040388 
L 106.82087 80.052702 
L 111.613828 81.223975 
L 116.185879 82.569283 
L 120.66045 84.118052 
L 125.105119 85.892535 
L 129.61462 87.933891 
L 134.279581 90.292592 
L 139.196252 93.031617 
L 144.490719 96.240404 
L 150.338262 100.050437 
L 156.987478 104.65574 
L 164.84134 110.375583 
L 174.60684 117.775607 
L 187.738185 128.023383 
L 208.031151 144.171481 
L 231.31756 162.865757 
L 231.31756 162.865757 
" clip-path="url(#p0ec53324b9)" style="fill: none; stroke: #d6556d; stroke-opacity: 0.9; stroke-width: 1.4; stroke-linecap: square"/>
   </g>
   <g id="line2d_67">
    <path d="M 38.29738 47.691567 
L 66.659091 47.878899 
L 81.114701 48.187415 
L 91.174959 48.61465 
L 99.093104 49.165872 
L 105.741529 49.846758 
L 111.553303 50.662032 
L 116.795602 51.618718 
L 121.668564 52.731739 
L 126.304098 54.017638 
L 130.800203 55.495536 
L 135.24395 57.190765 
L 139.724163 59.139283 
L 144.324109 61.384613 
L 149.141881 63.98698 
L 154.292758 67.0263 
L 159.930844 70.616716 
L 166.276965 74.928574 
L 173.669197 80.228903 
L 182.685106 86.978667 
L 194.444895 96.076461 
L 211.604175 109.6571 
L 231.31756 125.442129 
L 231.31756 125.442129 
" clip-path="url(#p0ec53324b9)" style="fill: none; stroke: #f2844b; stroke-opacity: 0.9; stroke-width: 1.4; stroke-linecap: square"/>
   </g>
   <g id="patch_3">
    <path d="M 38.29738 284.676 
L 38.29738 4.8 
" style="fill: none; stroke: #2c3e50; stroke-width: 0.8; stroke-linejoin: miter; stroke-linecap: square"/>
   </g>
   <g id="patch_4">
    <path d="M 231.31756 284.676 
L 231.31756 4.8 
" style="fill: none; stroke: #2c3e50; stroke-width: 0.8; stroke-linejoin: miter; stroke-linecap: square"/>
   </g>
   <g id="patch_5">
    <path d="M 38.29738 284.676 
L 231.31756 284.676 
" style="fill: none; stroke: #2c3e50; stroke-width: 0.8; stroke-linejoin: miter; stroke-linecap: square"/>
   </g>
   <g id="patch_6">
    <path d="M 38.29738 4.8 
L 231.31756 4.8 
" style="fill: none; stroke: #2c3e50; stroke-width: 0.8; stroke-linejoin: miter; stroke-linecap: square"/>
   </g>
   <g id="text_14">
    <!-- 2 K -->
    <g style="fill: #41049d; opacity: 0.9" transform="translate(198.291094 272.501517) scale(0.12 -0.12)">
     <defs>
      <path id="STIXGeneral-Regular-4b" d="M 4627 0 
L 2688 0 
L 2688 122 
L 2861 128 
Q 3130 134 3130 282 
Q 3130 397 2922 643 
Q 2714 890 2253 1370 
L 1613 2029 
L 1446 1894 
L 1446 710 
Q 1446 352 1548 253 
Q 1651 154 2016 122 
L 2016 0 
L 211 0 
L 211 122 
Q 589 141 691 262 
Q 794 384 794 800 
L 794 3514 
Q 794 3872 691 3981 
Q 589 4090 218 4115 
L 218 4237 
L 2022 4237 
L 2022 4115 
Q 1632 4090 1539 3987 
Q 1446 3885 1446 3507 
L 1446 2227 
L 2586 3277 
Q 2861 3533 2973 3667 
Q 3085 3802 3085 3910 
Q 3085 4013 3030 4057 
Q 2976 4102 2822 4109 
L 2662 4115 
L 2662 4237 
L 4320 4237 
L 4320 4115 
Q 3994 4090 3824 4003 
Q 3654 3917 3322 3597 
L 2131 2458 
L 3629 819 
Q 4026 384 4214 253 
Q 4403 122 4627 122 
L 4627 0 
z
" transform="scale(0.015625)"/>
     </defs>
     <use xlink:href="#STIXGeneral-Regular-32"/>
     <use xlink:href="#STIXGeneral-Regular-20" x="49.999985"/>
     <use xlink:href="#STIXGeneral-Regular-4b" x="74.999969"/>
    </g>
   </g>
   <g id="text_15">
    <!-- 4 K -->
    <g style="fill: #7e03a8; opacity: 0.9" transform="translate(198.291094 235.059264) scale(0.12 -0.12)">
     <use xlink:href="#STIXGeneral-Regular-34"/>
     <use xlink:href="#STIXGeneral-Regular-20" x="49.999985"/>
     <use xlink:href="#STIXGeneral-Regular-4b" x="74.999969"/>
    </g>
   </g>
   <g id="text_16">
    <!-- 8 K -->
    <g style="fill: #b12a90; opacity: 0.9" transform="translate(198.291094 197.619676) scale(0.12 -0.12)">
     <use xlink:href="#STIXGeneral-Regular-38"/>
     <use xlink:href="#STIXGeneral-Regular-20" x="49.999985"/>
     <use xlink:href="#STIXGeneral-Regular-4b" x="74.999969"/>
    </g>
   </g>
   <g id="text_17">
    <!-- 16 K -->
    <g style="fill: #d6556d; opacity: 0.9" transform="translate(192.291094 160.185414) scale(0.12 -0.12)">
     <use xlink:href="#STIXGeneral-Regular-31"/>
     <use xlink:href="#STIXGeneral-Regular-36" x="49.999985"/>
     <use xlink:href="#STIXGeneral-Regular-20" x="99.999969"/>
     <use xlink:href="#STIXGeneral-Regular-4b" x="124.999954"/>
    </g>
   </g>
   <g id="text_18">
    <!-- 32 K -->
    <g style="fill: #f2844b; opacity: 0.9" transform="translate(192.291094 122.761785) scale(0.12 -0.12)">
     <use xlink:href="#STIXGeneral-Regular-33"/>
     <use xlink:href="#STIXGeneral-Regular-32" x="49.999985"/>
     <use xlink:href="#STIXGeneral-Regular-20" x="99.999969"/>
     <use xlink:href="#STIXGeneral-Regular-4b" x="124.999954"/>
    </g>
   </g>
  </g>
 </g>
 <defs>
  <clipPath id="p0ec53324b9">
   <rect x="38.29738" y="4.8" width="193.02018" height="279.876"/>
  </clipPath>
 </defs>
</svg>
