<?xml version="1.0" encoding="utf-8" standalone="no"?>
<!DOCTYPE svg PUBLIC "-//W3C//DTD SVG 1.1//EN"
  "http://www.w3.org/Graphics/SVG/1.1/DTD/svg11.dtd">
<svg xmlns:xlink="http://www.w3.org/1999/xlink" width="518.4pt" height="388.8pt" viewBox="0 0 518.4 388.8" xmlns="http://www.w3.org/2000/svg" version="1.1">
 <metadata>
  <rdf:RDF xmlns:dc="http://purl.org/dc/elements/1.1/" xmlns:cc="http://creativecommons.org/ns#" xmlns:rdf="http://www.w3.org/1999/02/22-rdf-syntax-ns#">
   <cc:Work>
    <dc:type rdf:resource="http://purl.org/dc/dcmitype/StillImage"/>
    <dc:date>2026-01-23T02:15:44.191370</dc:date>
    <dc:format>image/svg+xml</dc:format>
    <dc:creator>
     <cc:Agent>
      <dc:title>Matplotlib v3.8.4, https://matplotlib.org/</dc:title>
     </cc:Agent>
    </dc:creator>
   </cc:Work>
  </rdf:RDF>
 </metadata>
 <defs>
  <style type="text/css">*{stroke-linejoin: round; stroke-linecap: butt}</style>
 </defs>
 <g id="figure_1">
  <g id="patch_1">
   <path d="M 0 388.8 
L 518.4 388.8 
L 518.4 0 
L 0 0 
z
" style="fill: #ffffff"/>
  </g>
  <g id="axes_1">
   <g id="patch_2">
    <path d="M 75.106005 330.410711 
L 501.12 330.410711 
L 501.12 17.28 
L 75.106005 17.28 
z
" style="fill: #ffffff"/>
   </g>
   <g id="matplotlib.axis_1">
    <g id="xtick_1">
     <g id="line2d_1">
      <defs>
       <path id="ma2f7c5332d" d="M 0 0 
L 0 3.5 
" style="stroke: #000000; stroke-width: 0.8"/>
      </defs>
      <g>
       <use xlink:href="#ma2f7c5332d" x="75.106005" y="330.410711" style="stroke: #000000; stroke-width: 0.8"/>
      </g>
     </g>
     <g id="text_1">
      <!-- $\mathdefault{10^{-4}}$ -->
      <g transform="translate(60.17321 348.4803) scale(0.16 -0.16)">
       <defs>
        <path id="CMR17-31" d="M 1702 4058 
C 1702 4192 1696 4192 1606 4192 
C 1357 3916 979 3827 621 3827 
C 602 3827 570 3827 563 3808 
C 557 3795 557 3782 557 3648 
C 755 3648 1088 3686 1344 3839 
L 1344 461 
C 1344 236 1331 160 781 160 
L 589 160 
L 589 0 
C 896 0 1216 0 1523 0 
C 1830 0 2150 0 2458 0 
L 2458 160 
L 2266 160 
C 1715 160 1702 230 1702 458 
L 1702 4058 
z
" transform="scale(0.015625)"/>
        <path id="CMR17-30" d="M 2688 2025 
C 2688 2416 2682 3080 2413 3591 
C 2176 4039 1798 4198 1466 4198 
C 1158 4198 768 4058 525 3597 
C 269 3118 243 2524 243 2025 
C 243 1661 250 1106 448 619 
C 723 -39 1216 -128 1466 -128 
C 1760 -128 2208 -7 2470 600 
C 2662 1042 2688 1559 2688 2025 
z
M 1466 -26 
C 1056 -26 813 325 723 812 
C 653 1188 653 1738 653 2096 
C 653 2588 653 2997 736 3387 
C 858 3929 1216 4096 1466 4096 
C 1728 4096 2067 3923 2189 3400 
C 2272 3036 2278 2607 2278 2096 
C 2278 1680 2278 1169 2202 792 
C 2067 95 1690 -26 1466 -26 
z
" transform="scale(0.015625)"/>
        <path id="CMSY10-0" d="M 4218 1472 
C 4326 1472 4442 1472 4442 1600 
C 4442 1728 4326 1728 4218 1728 
L 755 1728 
C 646 1728 531 1728 531 1600 
C 531 1472 646 1472 755 1472 
L 4218 1472 
z
" transform="scale(0.015625)"/>
        <path id="CMR17-34" d="M 2150 4122 
C 2150 4256 2144 4256 2029 4256 
L 128 1254 
L 128 1088 
L 1779 1088 
L 1779 457 
C 1779 224 1766 160 1318 160 
L 1197 160 
L 1197 0 
C 1402 0 1747 0 1965 0 
C 2182 0 2528 0 2733 0 
L 2733 160 
L 2611 160 
C 2163 160 2150 224 2150 457 
L 2150 1088 
L 2803 1088 
L 2803 1254 
L 2150 1254 
L 2150 4122 
z
M 1798 3703 
L 1798 1254 
L 256 1254 
L 1798 3703 
z
" transform="scale(0.015625)"/>
       </defs>
       <use xlink:href="#CMR17-31" transform="scale(0.996264)"/>
       <use xlink:href="#CMR17-30" transform="translate(45.690477 0) scale(0.996264)"/>
       <use xlink:href="#CMSY10-0" transform="translate(91.380954 36.153639) scale(0.697382)"/>
       <use xlink:href="#CMR17-34" transform="translate(145.621947 36.153639) scale(0.697382)"/>
      </g>
     </g>
    </g>
    <g id="xtick_2">
     <g id="line2d_2">
      <g>
       <use xlink:href="#ma2f7c5332d" x="181.684965" y="330.410711" style="stroke: #000000; stroke-width: 0.8"/>
      </g>
     </g>
     <g id="text_2">
      <!-- $\mathdefault{10^{-3}}$ -->
      <g transform="translate(166.75217 348.4803) scale(0.16 -0.16)">
       <defs>
        <path id="CMR17-33" d="M 1414 2157 
C 1984 2157 2234 1662 2234 1090 
C 2234 320 1824 25 1453 25 
C 1114 25 563 194 390 693 
C 422 680 454 680 486 680 
C 640 680 755 782 755 948 
C 755 1133 614 1216 486 1216 
C 378 1216 211 1165 211 926 
C 211 335 787 -128 1466 -128 
C 2176 -128 2720 430 2720 1085 
C 2720 1707 2208 2157 1600 2227 
C 2086 2328 2554 2756 2554 3329 
C 2554 3820 2048 4179 1472 4179 
C 890 4179 378 3829 378 3329 
C 378 3110 544 3072 627 3072 
C 762 3072 877 3155 877 3321 
C 877 3486 762 3569 627 3569 
C 602 3569 570 3569 544 3557 
C 730 3959 1235 4032 1459 4032 
C 1683 4032 2106 3925 2106 3320 
C 2106 3143 2080 2828 1862 2550 
C 1670 2304 1453 2304 1242 2284 
C 1210 2284 1062 2269 1037 2269 
C 992 2263 966 2257 966 2208 
C 966 2163 973 2157 1101 2157 
L 1414 2157 
z
" transform="scale(0.015625)"/>
       </defs>
       <use xlink:href="#CMR17-31" transform="scale(0.996264)"/>
       <use xlink:href="#CMR17-30" transform="translate(45.690477 0) scale(0.996264)"/>
       <use xlink:href="#CMSY10-0" transform="translate(91.380954 36.153639) scale(0.697382)"/>
       <use xlink:href="#CMR17-33" transform="translate(145.621947 36.153639) scale(0.697382)"/>
      </g>
     </g>
    </g>
    <g id="xtick_3">
     <g id="line2d_3">
      <g>
       <use xlink:href="#ma2f7c5332d" x="288.263925" y="330.410711" style="stroke: #000000; stroke-width: 0.8"/>
      </g>
     </g>
     <g id="text_3">
      <!-- $\mathdefault{10^{-2}}$ -->
      <g transform="translate(273.331131 348.4803) scale(0.16 -0.16)">
       <defs>
        <path id="CMR17-32" d="M 2669 989 
L 2554 989 
C 2490 536 2438 459 2413 420 
C 2381 369 1920 369 1830 369 
L 602 369 
C 832 619 1280 1072 1824 1597 
C 2214 1967 2669 2402 2669 3035 
C 2669 3790 2067 4224 1395 4224 
C 691 4224 262 3604 262 3030 
C 262 2780 448 2748 525 2748 
C 589 2748 781 2787 781 3010 
C 781 3207 614 3264 525 3264 
C 486 3264 448 3258 422 3245 
C 544 3790 915 4058 1306 4058 
C 1862 4058 2227 3617 2227 3035 
C 2227 2479 1901 2000 1536 1584 
L 262 146 
L 262 0 
L 2515 0 
L 2669 989 
z
" transform="scale(0.015625)"/>
       </defs>
       <use xlink:href="#CMR17-31" transform="scale(0.996264)"/>
       <use xlink:href="#CMR17-30" transform="translate(45.690477 0) scale(0.996264)"/>
       <use xlink:href="#CMSY10-0" transform="translate(91.380954 36.153639) scale(0.697382)"/>
       <use xlink:href="#CMR17-32" transform="translate(145.621947 36.153639) scale(0.697382)"/>
      </g>
     </g>
    </g>
    <g id="xtick_4">
     <g id="line2d_4">
      <g>
       <use xlink:href="#ma2f7c5332d" x="394.842885" y="330.410711" style="stroke: #000000; stroke-width: 0.8"/>
      </g>
     </g>
     <g id="text_4">
      <!-- $\mathdefault{10^{-1}}$ -->
      <g transform="translate(379.910091 348.4803) scale(0.16 -0.16)">
       <use xlink:href="#CMR17-31" transform="scale(0.996264)"/>
       <use xlink:href="#CMR17-30" transform="translate(45.690477 0) scale(0.996264)"/>
       <use xlink:href="#CMSY10-0" transform="translate(91.380954 36.153639) scale(0.697382)"/>
       <use xlink:href="#CMR17-31" transform="translate(145.621947 36.153639) scale(0.697382)"/>
      </g>
     </g>
    </g>
    <g id="xtick_5">
     <g id="line2d_5">
      <defs>
       <path id="m27ce9d062a" d="M 0 0 
L 0 2 
" style="stroke: #000000; stroke-width: 0.6"/>
      </defs>
      <g>
       <use xlink:href="#m27ce9d062a" x="107.189469" y="330.410711" style="stroke: #000000; stroke-width: 0.6"/>
      </g>
     </g>
    </g>
    <g id="xtick_6">
     <g id="line2d_6">
      <g>
       <use xlink:href="#m27ce9d062a" x="125.957092" y="330.410711" style="stroke: #000000; stroke-width: 0.6"/>
      </g>
     </g>
    </g>
    <g id="xtick_7">
     <g id="line2d_7">
      <g>
       <use xlink:href="#m27ce9d062a" x="139.272932" y="330.410711" style="stroke: #000000; stroke-width: 0.6"/>
      </g>
     </g>
    </g>
    <g id="xtick_8">
     <g id="line2d_8">
      <g>
       <use xlink:href="#m27ce9d062a" x="149.601501" y="330.410711" style="stroke: #000000; stroke-width: 0.6"/>
      </g>
     </g>
    </g>
    <g id="xtick_9">
     <g id="line2d_9">
      <g>
       <use xlink:href="#m27ce9d062a" x="158.040556" y="330.410711" style="stroke: #000000; stroke-width: 0.6"/>
      </g>
     </g>
    </g>
    <g id="xtick_10">
     <g id="line2d_10">
      <g>
       <use xlink:href="#m27ce9d062a" x="165.175675" y="330.410711" style="stroke: #000000; stroke-width: 0.6"/>
      </g>
     </g>
    </g>
    <g id="xtick_11">
     <g id="line2d_11">
      <g>
       <use xlink:href="#m27ce9d062a" x="171.356396" y="330.410711" style="stroke: #000000; stroke-width: 0.6"/>
      </g>
     </g>
    </g>
    <g id="xtick_12">
     <g id="line2d_12">
      <g>
       <use xlink:href="#m27ce9d062a" x="176.808179" y="330.410711" style="stroke: #000000; stroke-width: 0.6"/>
      </g>
     </g>
    </g>
    <g id="xtick_13">
     <g id="line2d_13">
      <g>
       <use xlink:href="#m27ce9d062a" x="213.768429" y="330.410711" style="stroke: #000000; stroke-width: 0.6"/>
      </g>
     </g>
    </g>
    <g id="xtick_14">
     <g id="line2d_14">
      <g>
       <use xlink:href="#m27ce9d062a" x="232.536052" y="330.410711" style="stroke: #000000; stroke-width: 0.6"/>
      </g>
     </g>
    </g>
    <g id="xtick_15">
     <g id="line2d_15">
      <g>
       <use xlink:href="#m27ce9d062a" x="245.851893" y="330.410711" style="stroke: #000000; stroke-width: 0.6"/>
      </g>
     </g>
    </g>
    <g id="xtick_16">
     <g id="line2d_16">
      <g>
       <use xlink:href="#m27ce9d062a" x="256.180461" y="330.410711" style="stroke: #000000; stroke-width: 0.6"/>
      </g>
     </g>
    </g>
    <g id="xtick_17">
     <g id="line2d_17">
      <g>
       <use xlink:href="#m27ce9d062a" x="264.619516" y="330.410711" style="stroke: #000000; stroke-width: 0.6"/>
      </g>
     </g>
    </g>
    <g id="xtick_18">
     <g id="line2d_18">
      <g>
       <use xlink:href="#m27ce9d062a" x="271.754635" y="330.410711" style="stroke: #000000; stroke-width: 0.6"/>
      </g>
     </g>
    </g>
    <g id="xtick_19">
     <g id="line2d_19">
      <g>
       <use xlink:href="#m27ce9d062a" x="277.935357" y="330.410711" style="stroke: #000000; stroke-width: 0.6"/>
      </g>
     </g>
    </g>
    <g id="xtick_20">
     <g id="line2d_20">
      <g>
       <use xlink:href="#m27ce9d062a" x="283.387139" y="330.410711" style="stroke: #000000; stroke-width: 0.6"/>
      </g>
     </g>
    </g>
    <g id="xtick_21">
     <g id="line2d_21">
      <g>
       <use xlink:href="#m27ce9d062a" x="320.347389" y="330.410711" style="stroke: #000000; stroke-width: 0.6"/>
      </g>
     </g>
    </g>
    <g id="xtick_22">
     <g id="line2d_22">
      <g>
       <use xlink:href="#m27ce9d062a" x="339.115012" y="330.410711" style="stroke: #000000; stroke-width: 0.6"/>
      </g>
     </g>
    </g>
    <g id="xtick_23">
     <g id="line2d_23">
      <g>
       <use xlink:href="#m27ce9d062a" x="352.430853" y="330.410711" style="stroke: #000000; stroke-width: 0.6"/>
      </g>
     </g>
    </g>
    <g id="xtick_24">
     <g id="line2d_24">
      <g>
       <use xlink:href="#m27ce9d062a" x="362.759421" y="330.410711" style="stroke: #000000; stroke-width: 0.6"/>
      </g>
     </g>
    </g>
    <g id="xtick_25">
     <g id="line2d_25">
      <g>
       <use xlink:href="#m27ce9d062a" x="371.198476" y="330.410711" style="stroke: #000000; stroke-width: 0.6"/>
      </g>
     </g>
    </g>
    <g id="xtick_26">
     <g id="line2d_26">
      <g>
       <use xlink:href="#m27ce9d062a" x="378.333595" y="330.410711" style="stroke: #000000; stroke-width: 0.6"/>
      </g>
     </g>
    </g>
    <g id="xtick_27">
     <g id="line2d_27">
      <g>
       <use xlink:href="#m27ce9d062a" x="384.514317" y="330.410711" style="stroke: #000000; stroke-width: 0.6"/>
      </g>
     </g>
    </g>
    <g id="xtick_28">
     <g id="line2d_28">
      <g>
       <use xlink:href="#m27ce9d062a" x="389.966099" y="330.410711" style="stroke: #000000; stroke-width: 0.6"/>
      </g>
     </g>
    </g>
    <g id="xtick_29">
     <g id="line2d_29">
      <g>
       <use xlink:href="#m27ce9d062a" x="426.926349" y="330.410711" style="stroke: #000000; stroke-width: 0.6"/>
      </g>
     </g>
    </g>
    <g id="xtick_30">
     <g id="line2d_30">
      <g>
       <use xlink:href="#m27ce9d062a" x="445.693972" y="330.410711" style="stroke: #000000; stroke-width: 0.6"/>
      </g>
     </g>
    </g>
    <g id="xtick_31">
     <g id="line2d_31">
      <g>
       <use xlink:href="#m27ce9d062a" x="459.009813" y="330.410711" style="stroke: #000000; stroke-width: 0.6"/>
      </g>
     </g>
    </g>
    <g id="xtick_32">
     <g id="line2d_32">
      <g>
       <use xlink:href="#m27ce9d062a" x="469.338381" y="330.410711" style="stroke: #000000; stroke-width: 0.6"/>
      </g>
     </g>
    </g>
    <g id="xtick_33">
     <g id="line2d_33">
      <g>
       <use xlink:href="#m27ce9d062a" x="477.777436" y="330.410711" style="stroke: #000000; stroke-width: 0.6"/>
      </g>
     </g>
    </g>
    <g id="xtick_34">
     <g id="line2d_34">
      <g>
       <use xlink:href="#m27ce9d062a" x="484.912555" y="330.410711" style="stroke: #000000; stroke-width: 0.6"/>
      </g>
     </g>
    </g>
    <g id="xtick_35">
     <g id="line2d_35">
      <g>
       <use xlink:href="#m27ce9d062a" x="491.093277" y="330.410711" style="stroke: #000000; stroke-width: 0.6"/>
      </g>
     </g>
    </g>
    <g id="xtick_36">
     <g id="line2d_36">
      <g>
       <use xlink:href="#m27ce9d062a" x="496.54506" y="330.410711" style="stroke: #000000; stroke-width: 0.6"/>
      </g>
     </g>
    </g>
    <g id="text_5">
     <!-- Temperature, $T/T_F$ -->
     <g transform="translate(222.050107 367.534944) scale(0.16 -0.16)">
      <defs>
       <path id="CMR17-54" d="M 3981 4326 
L 288 4326 
L 179 2918 
L 294 2918 
C 378 3976 467 4160 1453 4160 
C 1568 4160 1754 4160 1805 4154 
C 1926 4135 1926 4058 1926 3912 
L 1926 459 
C 1926 230 1907 160 1376 160 
L 1197 160 
L 1197 0 
C 1504 0 1824 0 2138 0 
C 2451 0 2771 0 3078 0 
L 3078 160 
L 2899 160 
C 2368 160 2349 230 2349 459 
L 2349 3912 
C 2349 4052 2349 4129 2464 4154 
C 2515 4160 2701 4160 2816 4160 
C 3795 4160 3891 3976 3974 2918 
L 4090 2918 
L 3981 4326 
z
" transform="scale(0.015625)"/>
       <path id="CMR17-65" d="M 2438 1472 
C 2464 1498 2464 1511 2464 1576 
C 2464 2238 2118 2816 1389 2816 
C 710 2816 173 2169 173 1383 
C 173 551 781 -64 1459 -64 
C 2176 -64 2458 607 2458 740 
C 2458 784 2419 784 2406 784 
C 2362 784 2355 771 2330 696 
C 2189 265 1837 51 1504 51 
C 1229 51 954 203 781 480 
C 582 803 582 1176 582 1472 
L 2438 1472 
z
M 589 1568 
C 634 2505 1126 2714 1382 2714 
C 1818 2714 2112 2297 2118 1568 
L 589 1568 
z
" transform="scale(0.015625)"/>
       <path id="CMR17-6d" d="M 4326 1933 
C 4326 2252 4269 2790 3507 2790 
C 3072 2790 2771 2496 2656 2151 
L 2650 2151 
C 2573 2676 2195 2790 1837 2790 
C 1331 2790 1069 2400 973 2144 
L 966 2144 
L 966 2790 
L 211 2720 
L 211 2554 
C 589 2554 646 2515 646 2208 
L 646 428 
C 646 184 621 153 211 153 
L 211 -13 
C 365 0 646 0 813 0 
C 979 0 1267 0 1421 -13 
L 1421 153 
C 1011 153 986 178 986 428 
L 986 1658 
C 986 2247 1344 2688 1792 2688 
C 2266 2688 2317 2266 2317 1958 
L 2317 428 
C 2317 184 2291 153 1882 153 
L 1882 -13 
C 2035 0 2317 0 2483 0 
C 2650 0 2938 0 3091 -13 
L 3091 153 
C 2682 153 2656 178 2656 428 
L 2656 1658 
C 2656 2247 3014 2688 3462 2688 
C 3936 2688 3987 2266 3987 1958 
L 3987 428 
C 3987 184 3962 153 3552 153 
L 3552 -13 
C 3706 0 3987 0 4154 0 
C 4320 0 4608 0 4762 -13 
L 4762 153 
C 4352 153 4326 178 4326 428 
L 4326 1933 
z
" transform="scale(0.015625)"/>
       <path id="CMR17-70" d="M 1408 -1063 
C 998 -1063 973 -1037 973 -789 
L 973 402 
C 1158 134 1427 -38 1766 -38 
C 2406 -38 3053 523 3053 1388 
C 3053 2191 2496 2802 1837 2802 
C 1453 2802 1139 2592 960 2338 
L 960 2802 
L 198 2732 
L 198 2567 
C 576 2567 634 2528 634 2223 
L 634 -789 
C 634 -1031 608 -1063 198 -1063 
L 198 -1228 
C 352 -1216 634 -1216 800 -1216 
C 966 -1216 1254 -1216 1408 -1228 
L 1408 -1063 
z
M 973 2012 
C 973 2102 973 2235 1222 2471 
C 1254 2497 1472 2688 1792 2688 
C 2259 2688 2643 2108 2643 1382 
C 2643 656 2234 64 1728 64 
C 1498 64 1248 172 1056 472 
C 973 612 973 650 973 752 
L 973 2012 
z
" transform="scale(0.015625)"/>
       <path id="CMR17-72" d="M 960 1497 
C 960 2112 1222 2688 1702 2688 
C 1747 2688 1792 2682 1837 2662 
C 1837 2662 1696 2617 1696 2452 
C 1696 2298 1818 2234 1914 2234 
C 1990 2234 2131 2279 2131 2458 
C 2131 2663 1926 2790 1709 2790 
C 1222 2790 1011 2317 947 2093 
L 941 2093 
L 941 2790 
L 198 2720 
L 198 2554 
C 576 2554 634 2515 634 2208 
L 634 428 
C 634 184 608 153 198 153 
L 198 -13 
C 352 0 646 0 813 0 
C 998 0 1325 0 1498 -13 
L 1498 153 
C 1037 153 960 153 960 440 
L 960 1497 
z
" transform="scale(0.015625)"/>
       <path id="CMR17-61" d="M 2304 1653 
C 2304 2072 2304 2294 2035 2543 
C 1798 2752 1523 2816 1306 2816 
C 800 2816 435 2407 435 1971 
C 435 1728 627 1728 666 1728 
C 749 1728 896 1778 896 1954 
C 896 2112 774 2181 666 2181 
C 640 2181 608 2174 589 2168 
C 723 2592 1069 2714 1293 2714 
C 1613 2714 1965 2429 1965 1885 
L 1965 1600 
C 1587 1600 1133 1549 774 1357 
C 371 1133 256 813 256 570 
C 256 77 832 -64 1171 -64 
C 1523 -64 1850 139 1990 511 
C 2003 233 2182 -18 2464 -18 
C 2598 -18 2938 70 2938 567 
L 2938 920 
L 2822 920 
L 2822 562 
C 2822 178 2650 128 2566 128 
C 2304 128 2304 458 2304 738 
L 2304 1653 
z
M 1965 870 
C 1965 317 1568 38 1216 38 
C 896 38 646 275 646 570 
C 646 761 730 1100 1101 1305 
C 1408 1478 1760 1504 1965 1504 
L 1965 870 
z
" transform="scale(0.015625)"/>
       <path id="CMR17-74" d="M 966 2560 
L 1862 2560 
L 1862 2725 
L 966 2725 
L 966 3904 
L 851 3904 
C 838 3245 614 2668 70 2668 
L 70 2560 
L 627 2560 
L 627 771 
C 627 650 627 -64 1370 -64 
C 1747 -64 1965 306 1965 777 
L 1965 1140 
L 1850 1140 
L 1850 783 
C 1850 344 1677 51 1408 51 
C 1222 51 966 178 966 758 
L 966 2560 
z
" transform="scale(0.015625)"/>
       <path id="CMR17-75" d="M 1882 2693 
L 1882 2528 
C 2259 2528 2317 2489 2317 2186 
L 2317 1032 
C 2317 500 2029 38 1555 38 
C 1030 38 986 348 986 678 
L 986 2763 
L 211 2693 
L 211 2528 
C 467 2528 640 2528 646 2274 
L 646 1058 
C 646 633 646 361 813 183 
C 896 101 1056 -64 1517 -64 
C 2061 -64 2272 377 2323 506 
L 2330 506 
L 2330 -63 
L 3091 -63 
L 3091 128 
C 2714 128 2656 166 2656 473 
L 2656 2763 
L 1882 2693 
z
" transform="scale(0.015625)"/>
       <path id="CMR17-2c" d="M 1011 102 
C 1024 45 1024 25 1024 -77 
C 1024 -463 896 -817 627 -1139 
C 595 -1170 595 -1183 595 -1197 
C 595 -1222 621 -1248 646 -1248 
C 685 -1248 1126 -799 1126 -87 
C 1126 124 1101 522 800 522 
C 659 522 538 427 538 261 
C 538 96 659 0 800 0 
C 877 0 960 32 1011 102 
z
" transform="scale(0.015625)"/>
       <path id="CMMI12-54" d="M 2669 3910 
C 2707 4064 2720 4121 2816 4147 
C 2867 4160 3078 4160 3213 4160 
C 3853 4160 4154 4134 4154 3634 
C 4154 3537 4128 3295 4090 3057 
L 4083 2980 
C 4083 2954 4109 2916 4147 2916 
C 4211 2916 4211 2948 4230 3050 
L 4416 4184 
C 4429 4243 4429 4256 4429 4275 
C 4429 4345 4390 4345 4262 4345 
L 762 4345 
C 614 4345 608 4339 570 4224 
L 179 3070 
C 173 3056 154 2986 154 2980 
C 154 2948 179 2916 218 2916 
C 269 2916 282 2941 307 3024 
C 576 3801 710 4160 1562 4160 
L 1990 4160 
C 2144 4160 2208 4160 2208 4089 
C 2208 4069 2208 4057 2176 3941 
L 1318 499 
C 1254 249 1242 185 563 185 
C 403 185 358 185 358 64 
C 358 0 429 0 461 0 
C 621 0 787 0 947 0 
L 1946 0 
C 2106 0 2278 0 2438 0 
C 2509 0 2573 0 2573 121 
C 2573 185 2528 185 2362 185 
C 1786 185 1786 243 1786 339 
C 1786 346 1786 391 1811 494 
L 2669 3910 
z
" transform="scale(0.015625)"/>
       <path id="CMMI12-3d" d="M 2746 4562 
C 2746 4569 2784 4666 2784 4678 
C 2784 4755 2720 4800 2669 4800 
C 2637 4800 2579 4800 2528 4659 
L 384 -1363 
C 384 -1370 346 -1465 346 -1478 
C 346 -1555 410 -1600 461 -1600 
C 499 -1600 557 -1593 602 -1459 
L 2746 4562 
z
" transform="scale(0.015625)"/>
       <path id="CMMI12-46" d="M 1901 2055 
L 2515 2055 
C 3002 2055 3040 1946 3040 1761 
C 3040 1678 3027 1589 2995 1448 
C 2982 1423 2976 1391 2976 1378 
C 2976 1333 3002 1308 3046 1308 
C 3098 1308 3104 1333 3130 1435 
L 3501 2935 
C 3501 2961 3482 2999 3437 2999 
C 3379 2999 3373 2974 3347 2863 
C 3213 2376 3085 2240 2528 2240 
L 1946 2240 
L 2362 3926 
C 2419 4154 2432 4154 2694 4154 
L 3552 4154 
C 4352 4154 4467 3918 4467 3464 
C 4467 3426 4467 3285 4448 3119 
C 4442 3094 4429 3011 4429 2985 
C 4429 2934 4461 2915 4499 2915 
C 4544 2915 4570 2941 4582 3055 
L 4717 4174 
C 4717 4195 4730 4263 4730 4277 
C 4730 4352 4672 4352 4557 4352 
L 1523 4352 
C 1402 4352 1338 4352 1338 4229 
C 1338 4154 1382 4154 1491 4154 
C 1888 4154 1888 4113 1888 4050 
C 1888 4018 1882 3992 1862 3922 
L 998 473 
C 941 249 928 185 480 185 
C 358 185 294 185 294 70 
C 294 0 352 0 390 0 
C 512 0 640 0 762 0 
L 1594 0 
C 1734 0 1888 0 2029 0 
C 2086 0 2163 0 2163 115 
C 2163 185 2125 185 1984 185 
C 1478 185 1466 229 1466 324 
C 1466 356 1478 406 1491 449 
L 1901 2055 
z
" transform="scale(0.015625)"/>
      </defs>
      <use xlink:href="#CMR17-54" transform="scale(0.996264)"/>
      <use xlink:href="#CMR17-65" transform="translate(58.702625 0) scale(0.996264)"/>
      <use xlink:href="#CMR17-6d" transform="translate(99.188286 0) scale(0.996264)"/>
      <use xlink:href="#CMR17-70" transform="translate(176.107875 0) scale(0.996264)"/>
      <use xlink:href="#CMR17-65" transform="translate(229.605684 0) scale(0.996264)"/>
      <use xlink:href="#CMR17-72" transform="translate(270.091344 0) scale(0.996264)"/>
      <use xlink:href="#CMR17-61" transform="translate(305.372112 0) scale(0.996264)"/>
      <use xlink:href="#CMR17-74" transform="translate(351.062589 0) scale(0.996264)"/>
      <use xlink:href="#CMR17-75" transform="translate(386.343357 0) scale(0.996264)"/>
      <use xlink:href="#CMR17-72" transform="translate(437.238727 0) scale(0.996264)"/>
      <use xlink:href="#CMR17-65" transform="translate(472.519495 0) scale(0.996264)"/>
      <use xlink:href="#CMR17-2c" transform="translate(513.005155 0) scale(0.996264)"/>
      <use xlink:href="#CMMI12-54" transform="translate(567.95218 0) scale(0.996264)"/>
      <use xlink:href="#CMMI12-3d" transform="translate(635.966095 0) scale(0.996264)"/>
      <use xlink:href="#CMMI12-54" transform="translate(684.741013 0) scale(0.996264)"/>
      <use xlink:href="#CMMI12-46" transform="translate(741.916057 -14.943915) scale(0.697382)"/>
     </g>
    </g>
   </g>
   <g id="matplotlib.axis_2">
    <g id="ytick_1">
     <g id="line2d_37">
      <defs>
       <path id="md0f28ae1a0" d="M 0 0 
L -3.5 0 
" style="stroke: #000000; stroke-width: 0.8"/>
      </defs>
      <g>
       <use xlink:href="#md0f28ae1a0" x="75.106005" y="311.978174" style="stroke: #000000; stroke-width: 0.8"/>
      </g>
     </g>
     <g id="text_6">
      <!-- $\mathdefault{10^{-5}}$ -->
      <g transform="translate(38.240416 317.512968) scale(0.16 -0.16)">
       <defs>
        <path id="CMR17-35" d="M 730 3692 
C 794 3666 1056 3584 1325 3584 
C 1920 3584 2246 3911 2432 4100 
C 2432 4157 2432 4192 2394 4192 
C 2387 4192 2374 4192 2323 4163 
C 2099 4058 1837 3973 1517 3973 
C 1325 3973 1037 3999 723 4139 
C 653 4171 640 4171 634 4171 
C 602 4171 595 4164 595 4037 
L 595 2203 
C 595 2089 595 2057 659 2057 
C 691 2057 704 2070 736 2114 
C 941 2401 1222 2522 1542 2522 
C 1766 2522 2246 2382 2246 1289 
C 2246 1085 2246 715 2054 421 
C 1894 159 1645 25 1370 25 
C 947 25 518 320 403 814 
C 429 807 480 795 506 795 
C 589 795 749 840 749 1038 
C 749 1210 627 1280 506 1280 
C 358 1280 262 1190 262 1011 
C 262 454 704 -128 1382 -128 
C 2042 -128 2669 440 2669 1264 
C 2669 2030 2170 2624 1549 2624 
C 1222 2624 947 2503 730 2274 
L 730 3692 
z
" transform="scale(0.015625)"/>
       </defs>
       <use xlink:href="#CMR17-31" transform="scale(0.996264)"/>
       <use xlink:href="#CMR17-30" transform="translate(45.690477 0) scale(0.996264)"/>
       <use xlink:href="#CMSY10-0" transform="translate(91.380954 36.153639) scale(0.697382)"/>
       <use xlink:href="#CMR17-35" transform="translate(145.621947 36.153639) scale(0.697382)"/>
      </g>
     </g>
    </g>
    <g id="ytick_2">
     <g id="line2d_38">
      <g>
       <use xlink:href="#md0f28ae1a0" x="75.106005" y="262.415036" style="stroke: #000000; stroke-width: 0.8"/>
      </g>
     </g>
     <g id="text_7">
      <!-- $\mathdefault{10^{-4}}$ -->
      <g transform="translate(38.240416 267.949831) scale(0.16 -0.16)">
       <use xlink:href="#CMR17-31" transform="scale(0.996264)"/>
       <use xlink:href="#CMR17-30" transform="translate(45.690477 0) scale(0.996264)"/>
       <use xlink:href="#CMSY10-0" transform="translate(91.380954 36.153639) scale(0.697382)"/>
       <use xlink:href="#CMR17-34" transform="translate(145.621947 36.153639) scale(0.697382)"/>
      </g>
     </g>
    </g>
    <g id="ytick_3">
     <g id="line2d_39">
      <g>
       <use xlink:href="#md0f28ae1a0" x="75.106005" y="212.851899" style="stroke: #000000; stroke-width: 0.8"/>
      </g>
     </g>
     <g id="text_8">
      <!-- $\mathdefault{10^{-3}}$ -->
      <g transform="translate(38.240416 218.386693) scale(0.16 -0.16)">
       <use xlink:href="#CMR17-31" transform="scale(0.996264)"/>
       <use xlink:href="#CMR17-30" transform="translate(45.690477 0) scale(0.996264)"/>
       <use xlink:href="#CMSY10-0" transform="translate(91.380954 36.153639) scale(0.697382)"/>
       <use xlink:href="#CMR17-33" transform="translate(145.621947 36.153639) scale(0.697382)"/>
      </g>
     </g>
    </g>
    <g id="ytick_4">
     <g id="line2d_40">
      <g>
       <use xlink:href="#md0f28ae1a0" x="75.106005" y="163.288762" style="stroke: #000000; stroke-width: 0.8"/>
      </g>
     </g>
     <g id="text_9">
      <!-- $\mathdefault{10^{-2}}$ -->
      <g transform="translate(38.240416 168.823556) scale(0.16 -0.16)">
       <use xlink:href="#CMR17-31" transform="scale(0.996264)"/>
       <use xlink:href="#CMR17-30" transform="translate(45.690477 0) scale(0.996264)"/>
       <use xlink:href="#CMSY10-0" transform="translate(91.380954 36.153639) scale(0.697382)"/>
       <use xlink:href="#CMR17-32" transform="translate(145.621947 36.153639) scale(0.697382)"/>
      </g>
     </g>
    </g>
    <g id="ytick_5">
     <g id="line2d_41">
      <g>
       <use xlink:href="#md0f28ae1a0" x="75.106005" y="113.725624" style="stroke: #000000; stroke-width: 0.8"/>
      </g>
     </g>
     <g id="text_10">
      <!-- $\mathdefault{10^{-1}}$ -->
      <g transform="translate(38.240416 119.260418) scale(0.16 -0.16)">
       <use xlink:href="#CMR17-31" transform="scale(0.996264)"/>
       <use xlink:href="#CMR17-30" transform="translate(45.690477 0) scale(0.996264)"/>
       <use xlink:href="#CMSY10-0" transform="translate(91.380954 36.153639) scale(0.697382)"/>
       <use xlink:href="#CMR17-31" transform="translate(145.621947 36.153639) scale(0.697382)"/>
      </g>
     </g>
    </g>
    <g id="ytick_6">
     <g id="line2d_42">
      <g>
       <use xlink:href="#md0f28ae1a0" x="75.106005" y="64.162487" style="stroke: #000000; stroke-width: 0.8"/>
      </g>
     </g>
     <g id="text_11">
      <!-- $\mathdefault{10^{0}}$ -->
      <g transform="translate(46.918961 69.697281) scale(0.16 -0.16)">
       <use xlink:href="#CMR17-31" transform="scale(0.996264)"/>
       <use xlink:href="#CMR17-30" transform="translate(45.690477 0) scale(0.996264)"/>
       <use xlink:href="#CMR17-30" transform="translate(91.380954 36.153639) scale(0.697382)"/>
      </g>
     </g>
    </g>
    <g id="ytick_7">
     <g id="line2d_43">
      <defs>
       <path id="m6511fdcd3b" d="M 0 0 
L -2 0 
" style="stroke: #000000; stroke-width: 0.6"/>
      </defs>
      <g>
       <use xlink:href="#m6511fdcd3b" x="75.106005" y="326.898165" style="stroke: #000000; stroke-width: 0.6"/>
      </g>
     </g>
    </g>
    <g id="ytick_8">
     <g id="line2d_44">
      <g>
       <use xlink:href="#m6511fdcd3b" x="75.106005" y="322.973694" style="stroke: #000000; stroke-width: 0.6"/>
      </g>
     </g>
    </g>
    <g id="ytick_9">
     <g id="line2d_45">
      <g>
       <use xlink:href="#m6511fdcd3b" x="75.106005" y="319.655601" style="stroke: #000000; stroke-width: 0.6"/>
      </g>
     </g>
    </g>
    <g id="ytick_10">
     <g id="line2d_46">
      <g>
       <use xlink:href="#m6511fdcd3b" x="75.106005" y="316.781338" style="stroke: #000000; stroke-width: 0.6"/>
      </g>
     </g>
    </g>
    <g id="ytick_11">
     <g id="line2d_47">
      <g>
       <use xlink:href="#m6511fdcd3b" x="75.106005" y="314.246059" style="stroke: #000000; stroke-width: 0.6"/>
      </g>
     </g>
    </g>
    <g id="ytick_12">
     <g id="line2d_48">
      <g>
       <use xlink:href="#m6511fdcd3b" x="75.106005" y="297.058183" style="stroke: #000000; stroke-width: 0.6"/>
      </g>
     </g>
    </g>
    <g id="ytick_13">
     <g id="line2d_49">
      <g>
       <use xlink:href="#m6511fdcd3b" x="75.106005" y="288.330548" style="stroke: #000000; stroke-width: 0.6"/>
      </g>
     </g>
    </g>
    <g id="ytick_14">
     <g id="line2d_50">
      <g>
       <use xlink:href="#m6511fdcd3b" x="75.106005" y="282.138192" style="stroke: #000000; stroke-width: 0.6"/>
      </g>
     </g>
    </g>
    <g id="ytick_15">
     <g id="line2d_51">
      <g>
       <use xlink:href="#m6511fdcd3b" x="75.106005" y="277.335028" style="stroke: #000000; stroke-width: 0.6"/>
      </g>
     </g>
    </g>
    <g id="ytick_16">
     <g id="line2d_52">
      <g>
       <use xlink:href="#m6511fdcd3b" x="75.106005" y="273.410557" style="stroke: #000000; stroke-width: 0.6"/>
      </g>
     </g>
    </g>
    <g id="ytick_17">
     <g id="line2d_53">
      <g>
       <use xlink:href="#m6511fdcd3b" x="75.106005" y="270.092464" style="stroke: #000000; stroke-width: 0.6"/>
      </g>
     </g>
    </g>
    <g id="ytick_18">
     <g id="line2d_54">
      <g>
       <use xlink:href="#m6511fdcd3b" x="75.106005" y="267.218201" style="stroke: #000000; stroke-width: 0.6"/>
      </g>
     </g>
    </g>
    <g id="ytick_19">
     <g id="line2d_55">
      <g>
       <use xlink:href="#m6511fdcd3b" x="75.106005" y="264.682921" style="stroke: #000000; stroke-width: 0.6"/>
      </g>
     </g>
    </g>
    <g id="ytick_20">
     <g id="line2d_56">
      <g>
       <use xlink:href="#m6511fdcd3b" x="75.106005" y="247.495045" style="stroke: #000000; stroke-width: 0.6"/>
      </g>
     </g>
    </g>
    <g id="ytick_21">
     <g id="line2d_57">
      <g>
       <use xlink:href="#m6511fdcd3b" x="75.106005" y="238.76741" style="stroke: #000000; stroke-width: 0.6"/>
      </g>
     </g>
    </g>
    <g id="ytick_22">
     <g id="line2d_58">
      <g>
       <use xlink:href="#m6511fdcd3b" x="75.106005" y="232.575054" style="stroke: #000000; stroke-width: 0.6"/>
      </g>
     </g>
    </g>
    <g id="ytick_23">
     <g id="line2d_59">
      <g>
       <use xlink:href="#m6511fdcd3b" x="75.106005" y="227.77189" style="stroke: #000000; stroke-width: 0.6"/>
      </g>
     </g>
    </g>
    <g id="ytick_24">
     <g id="line2d_60">
      <g>
       <use xlink:href="#m6511fdcd3b" x="75.106005" y="223.847419" style="stroke: #000000; stroke-width: 0.6"/>
      </g>
     </g>
    </g>
    <g id="ytick_25">
     <g id="line2d_61">
      <g>
       <use xlink:href="#m6511fdcd3b" x="75.106005" y="220.529326" style="stroke: #000000; stroke-width: 0.6"/>
      </g>
     </g>
    </g>
    <g id="ytick_26">
     <g id="line2d_62">
      <g>
       <use xlink:href="#m6511fdcd3b" x="75.106005" y="217.655063" style="stroke: #000000; stroke-width: 0.6"/>
      </g>
     </g>
    </g>
    <g id="ytick_27">
     <g id="line2d_63">
      <g>
       <use xlink:href="#m6511fdcd3b" x="75.106005" y="215.119784" style="stroke: #000000; stroke-width: 0.6"/>
      </g>
     </g>
    </g>
    <g id="ytick_28">
     <g id="line2d_64">
      <g>
       <use xlink:href="#m6511fdcd3b" x="75.106005" y="197.931908" style="stroke: #000000; stroke-width: 0.6"/>
      </g>
     </g>
    </g>
    <g id="ytick_29">
     <g id="line2d_65">
      <g>
       <use xlink:href="#m6511fdcd3b" x="75.106005" y="189.204273" style="stroke: #000000; stroke-width: 0.6"/>
      </g>
     </g>
    </g>
    <g id="ytick_30">
     <g id="line2d_66">
      <g>
       <use xlink:href="#m6511fdcd3b" x="75.106005" y="183.011917" style="stroke: #000000; stroke-width: 0.6"/>
      </g>
     </g>
    </g>
    <g id="ytick_31">
     <g id="line2d_67">
      <g>
       <use xlink:href="#m6511fdcd3b" x="75.106005" y="178.208753" style="stroke: #000000; stroke-width: 0.6"/>
      </g>
     </g>
    </g>
    <g id="ytick_32">
     <g id="line2d_68">
      <g>
       <use xlink:href="#m6511fdcd3b" x="75.106005" y="174.284282" style="stroke: #000000; stroke-width: 0.6"/>
      </g>
     </g>
    </g>
    <g id="ytick_33">
     <g id="line2d_69">
      <g>
       <use xlink:href="#m6511fdcd3b" x="75.106005" y="170.966189" style="stroke: #000000; stroke-width: 0.6"/>
      </g>
     </g>
    </g>
    <g id="ytick_34">
     <g id="line2d_70">
      <g>
       <use xlink:href="#m6511fdcd3b" x="75.106005" y="168.091926" style="stroke: #000000; stroke-width: 0.6"/>
      </g>
     </g>
    </g>
    <g id="ytick_35">
     <g id="line2d_71">
      <g>
       <use xlink:href="#m6511fdcd3b" x="75.106005" y="165.556646" style="stroke: #000000; stroke-width: 0.6"/>
      </g>
     </g>
    </g>
    <g id="ytick_36">
     <g id="line2d_72">
      <g>
       <use xlink:href="#m6511fdcd3b" x="75.106005" y="148.368771" style="stroke: #000000; stroke-width: 0.6"/>
      </g>
     </g>
    </g>
    <g id="ytick_37">
     <g id="line2d_73">
      <g>
       <use xlink:href="#m6511fdcd3b" x="75.106005" y="139.641135" style="stroke: #000000; stroke-width: 0.6"/>
      </g>
     </g>
    </g>
    <g id="ytick_38">
     <g id="line2d_74">
      <g>
       <use xlink:href="#m6511fdcd3b" x="75.106005" y="133.44878" style="stroke: #000000; stroke-width: 0.6"/>
      </g>
     </g>
    </g>
    <g id="ytick_39">
     <g id="line2d_75">
      <g>
       <use xlink:href="#m6511fdcd3b" x="75.106005" y="128.645615" style="stroke: #000000; stroke-width: 0.6"/>
      </g>
     </g>
    </g>
    <g id="ytick_40">
     <g id="line2d_76">
      <g>
       <use xlink:href="#m6511fdcd3b" x="75.106005" y="124.721144" style="stroke: #000000; stroke-width: 0.6"/>
      </g>
     </g>
    </g>
    <g id="ytick_41">
     <g id="line2d_77">
      <g>
       <use xlink:href="#m6511fdcd3b" x="75.106005" y="121.403051" style="stroke: #000000; stroke-width: 0.6"/>
      </g>
     </g>
    </g>
    <g id="ytick_42">
     <g id="line2d_78">
      <g>
       <use xlink:href="#m6511fdcd3b" x="75.106005" y="118.528789" style="stroke: #000000; stroke-width: 0.6"/>
      </g>
     </g>
    </g>
    <g id="ytick_43">
     <g id="line2d_79">
      <g>
       <use xlink:href="#m6511fdcd3b" x="75.106005" y="115.993509" style="stroke: #000000; stroke-width: 0.6"/>
      </g>
     </g>
    </g>
    <g id="ytick_44">
     <g id="line2d_80">
      <g>
       <use xlink:href="#m6511fdcd3b" x="75.106005" y="98.805633" style="stroke: #000000; stroke-width: 0.6"/>
      </g>
     </g>
    </g>
    <g id="ytick_45">
     <g id="line2d_81">
      <g>
       <use xlink:href="#m6511fdcd3b" x="75.106005" y="90.077998" style="stroke: #000000; stroke-width: 0.6"/>
      </g>
     </g>
    </g>
    <g id="ytick_46">
     <g id="line2d_82">
      <g>
       <use xlink:href="#m6511fdcd3b" x="75.106005" y="83.885642" style="stroke: #000000; stroke-width: 0.6"/>
      </g>
     </g>
    </g>
    <g id="ytick_47">
     <g id="line2d_83">
      <g>
       <use xlink:href="#m6511fdcd3b" x="75.106005" y="79.082478" style="stroke: #000000; stroke-width: 0.6"/>
      </g>
     </g>
    </g>
    <g id="ytick_48">
     <g id="line2d_84">
      <g>
       <use xlink:href="#m6511fdcd3b" x="75.106005" y="75.158007" style="stroke: #000000; stroke-width: 0.6"/>
      </g>
     </g>
    </g>
    <g id="ytick_49">
     <g id="line2d_85">
      <g>
       <use xlink:href="#m6511fdcd3b" x="75.106005" y="71.839914" style="stroke: #000000; stroke-width: 0.6"/>
      </g>
     </g>
    </g>
    <g id="ytick_50">
     <g id="line2d_86">
      <g>
       <use xlink:href="#m6511fdcd3b" x="75.106005" y="68.965651" style="stroke: #000000; stroke-width: 0.6"/>
      </g>
     </g>
    </g>
    <g id="ytick_51">
     <g id="line2d_87">
      <g>
       <use xlink:href="#m6511fdcd3b" x="75.106005" y="66.430372" style="stroke: #000000; stroke-width: 0.6"/>
      </g>
     </g>
    </g>
    <g id="ytick_52">
     <g id="line2d_88">
      <g>
       <use xlink:href="#m6511fdcd3b" x="75.106005" y="49.242496" style="stroke: #000000; stroke-width: 0.6"/>
      </g>
     </g>
    </g>
    <g id="ytick_53">
     <g id="line2d_89">
      <g>
       <use xlink:href="#m6511fdcd3b" x="75.106005" y="40.514861" style="stroke: #000000; stroke-width: 0.6"/>
      </g>
     </g>
    </g>
    <g id="ytick_54">
     <g id="line2d_90">
      <g>
       <use xlink:href="#m6511fdcd3b" x="75.106005" y="34.322505" style="stroke: #000000; stroke-width: 0.6"/>
      </g>
     </g>
    </g>
    <g id="ytick_55">
     <g id="line2d_91">
      <g>
       <use xlink:href="#m6511fdcd3b" x="75.106005" y="29.519341" style="stroke: #000000; stroke-width: 0.6"/>
      </g>
     </g>
    </g>
    <g id="ytick_56">
     <g id="line2d_92">
      <g>
       <use xlink:href="#m6511fdcd3b" x="75.106005" y="25.59487" style="stroke: #000000; stroke-width: 0.6"/>
      </g>
     </g>
    </g>
    <g id="ytick_57">
     <g id="line2d_93">
      <g>
       <use xlink:href="#m6511fdcd3b" x="75.106005" y="22.276777" style="stroke: #000000; stroke-width: 0.6"/>
      </g>
     </g>
    </g>
    <g id="ytick_58">
     <g id="line2d_94">
      <g>
       <use xlink:href="#m6511fdcd3b" x="75.106005" y="19.402514" style="stroke: #000000; stroke-width: 0.6"/>
      </g>
     </g>
    </g>
    <g id="text_12">
     <!-- Decay rate (eigenvalue), $\gamma_m / T^2$ -->
     <g transform="translate(30.25536 280.257232) rotate(-90) scale(0.16 -0.16)">
      <defs>
       <path id="CMR17-44" d="M 333 4352 
L 333 4186 
C 774 4186 845 4186 845 3900 
L 845 452 
C 845 166 774 166 333 166 
L 333 0 
L 2368 0 
C 3398 0 4224 943 4224 2141 
C 4224 3346 3411 4352 2368 4352 
L 333 4352 
z
M 1523 166 
C 1267 166 1254 197 1254 414 
L 1254 3938 
C 1254 4155 1267 4186 1523 4186 
L 2240 4186 
C 2771 4186 3750 3874 3750 2141 
C 3750 1242 3488 879 3366 707 
C 3213 510 2848 166 2240 166 
L 1523 166 
z
" transform="scale(0.015625)"/>
       <path id="CMR17-63" d="M 2234 2240 
C 2112 2240 1933 2240 1933 2017 
C 1933 1838 2080 1787 2163 1787 
C 2208 1787 2394 1807 2394 2024 
C 2394 2467 1958 2803 1466 2803 
C 787 2803 211 2178 211 1363 
C 211 516 813 -64 1466 -64 
C 2259 -64 2458 677 2458 748 
C 2458 774 2451 793 2406 793 
C 2362 793 2355 787 2330 703 
C 2163 180 1798 51 1523 51 
C 1114 51 621 427 621 1369 
C 621 2338 1094 2688 1472 2688 
C 1722 2688 2093 2573 2234 2240 
z
" transform="scale(0.015625)"/>
       <path id="CMR17-79" d="M 2496 2197 
C 2656 2586 2944 2586 3034 2586 
L 3034 2752 
C 2912 2752 2752 2752 2630 2752 
C 2496 2752 2285 2752 2157 2758 
L 2157 2592 
C 2400 2573 2406 2394 2406 2343 
C 2406 2280 2394 2248 2362 2171 
L 1664 449 
L 902 2306 
C 870 2382 870 2426 870 2433 
C 870 2573 1018 2586 1171 2586 
L 1171 2758 
C 1018 2752 742 2752 582 2752 
C 410 2752 205 2752 64 2758 
L 64 2586 
C 410 2586 448 2554 531 2350 
L 1485 15 
C 1197 -738 1030 -1178 627 -1178 
C 557 -1178 397 -1159 282 -1044 
C 429 -1031 493 -942 493 -833 
C 493 -725 416 -629 288 -629 
C 147 -629 77 -725 77 -840 
C 77 -1095 339 -1280 627 -1280 
C 998 -1280 1229 -922 1357 -604 
L 2496 2197 
z
" transform="scale(0.015625)"/>
       <path id="CMR17-28" d="M 1958 -1561 
C 1958 -1555 1958 -1542 1939 -1523 
C 1645 -1224 858 -407 858 1581 
C 858 3569 1632 4379 1946 4697 
C 1946 4704 1958 4717 1958 4736 
C 1958 4755 1939 4768 1914 4768 
C 1843 4768 1299 4296 986 3594 
C 666 2887 576 2199 576 1588 
C 576 1128 621 351 1005 -471 
C 1312 -1135 1837 -1600 1914 -1600 
C 1946 -1600 1958 -1587 1958 -1561 
z
" transform="scale(0.015625)"/>
       <path id="CMR17-69" d="M 992 3909 
C 992 4049 877 4170 730 4170 
C 589 4170 467 4056 467 3909 
C 467 3769 582 3648 730 3648 
C 870 3648 992 3763 992 3909 
z
M 243 2706 
L 243 2541 
C 602 2541 653 2502 653 2197 
L 653 427 
C 653 184 627 153 218 153 
L 218 -13 
C 371 0 646 0 806 0 
C 960 0 1222 0 1370 -13 
L 1370 153 
C 992 153 979 191 979 420 
L 979 2776 
L 243 2706 
z
" transform="scale(0.015625)"/>
       <path id="CMR17-67" d="M 710 1164 
C 832 1068 1043 960 1299 960 
C 1805 960 2240 1357 2240 1888 
C 2240 2054 2189 2310 1997 2509 
C 2176 2692 2438 2752 2586 2752 
C 2611 2752 2650 2752 2682 2734 
C 2656 2728 2598 2703 2598 2605 
C 2598 2527 2656 2471 2739 2471 
C 2835 2471 2886 2533 2886 2614 
C 2886 2731 2790 2854 2586 2854 
C 2330 2854 2106 2738 1926 2580 
C 1734 2753 1504 2816 1299 2816 
C 794 2816 358 2419 358 1888 
C 358 1522 570 1292 634 1228 
C 442 1004 442 743 442 711 
C 442 545 506 302 723 168 
C 390 85 128 -169 128 -486 
C 128 -943 736 -1280 1466 -1280 
C 2170 -1280 2803 -956 2803 -479 
C 2803 384 1856 384 1363 384 
C 1216 384 954 384 922 391 
C 723 423 589 602 589 826 
C 589 883 589 1024 710 1164 
z
M 1299 1068 
C 736 1068 736 1760 736 1889 
C 736 2016 736 2708 1299 2708 
C 1862 2708 1862 2016 1862 1889 
C 1862 1760 1862 1068 1299 1068 
z
M 1466 -1171 
C 826 -1171 384 -835 384 -486 
C 384 -289 493 -105 634 -4 
C 794 104 858 104 1293 104 
C 1818 104 2547 104 2547 -486 
C 2547 -835 2106 -1171 1466 -1171 
z
" transform="scale(0.015625)"/>
       <path id="CMR17-6e" d="M 2656 1933 
C 2656 2259 2592 2790 1837 2790 
C 1331 2790 1069 2400 973 2144 
L 966 2144 
L 966 2790 
L 211 2720 
L 211 2554 
C 589 2554 646 2515 646 2208 
L 646 428 
C 646 184 621 153 211 153 
L 211 -13 
C 365 0 646 0 813 0 
C 979 0 1267 0 1421 -13 
L 1421 153 
C 1011 153 986 178 986 428 
L 986 1658 
C 986 2247 1344 2688 1792 2688 
C 2266 2688 2317 2266 2317 1958 
L 2317 428 
C 2317 184 2291 153 1882 153 
L 1882 -13 
C 2035 0 2317 0 2483 0 
C 2650 0 2938 0 3091 -13 
L 3091 153 
C 2682 153 2656 178 2656 428 
L 2656 1933 
z
" transform="scale(0.015625)"/>
       <path id="CMR17-76" d="M 2502 2163 
C 2560 2304 2662 2560 3034 2560 
L 3034 2726 
C 2912 2726 2752 2726 2630 2726 
C 2496 2726 2285 2726 2157 2732 
L 2157 2566 
C 2317 2553 2406 2477 2406 2311 
C 2406 2253 2406 2240 2368 2151 
L 1664 377 
L 902 2286 
C 864 2369 864 2381 864 2407 
C 864 2560 1075 2560 1171 2560 
L 1171 2732 
C 1018 2726 736 2726 576 2726 
C 403 2726 205 2726 64 2732 
L 64 2560 
C 307 2560 442 2560 518 2362 
L 1446 44 
C 1485 -51 1491 -64 1549 -64 
C 1606 -64 1613 -51 1651 44 
L 2502 2163 
z
" transform="scale(0.015625)"/>
       <path id="CMR17-6c" d="M 979 4396 
L 218 4326 
L 218 4160 
C 595 4160 653 4122 653 3817 
L 653 426 
C 653 184 627 153 218 153 
L 218 -13 
C 371 0 653 0 813 0 
C 979 0 1261 0 1414 -13 
L 1414 153 
C 1005 153 979 178 979 426 
L 979 4396 
z
" transform="scale(0.015625)"/>
       <path id="CMR17-29" d="M 1683 1581 
C 1683 2040 1638 2817 1254 3639 
C 947 4303 422 4768 346 4768 
C 326 4768 301 4761 301 4729 
C 301 4717 307 4710 314 4697 
C 621 4378 1402 3568 1402 1584 
C 1402 -407 627 -1217 314 -1537 
C 307 -1549 301 -1556 301 -1568 
C 301 -1600 326 -1600 346 -1600 
C 416 -1600 960 -1128 1274 -426 
C 1594 281 1683 969 1683 1581 
z
" transform="scale(0.015625)"/>
       <path id="CMMI12-d" d="M 2419 760 
C 2406 1071 2394 1561 2150 2133 
C 2022 2452 1805 2788 1338 2788 
C 550 2788 122 1790 122 1625 
C 122 1567 166 1567 186 1567 
C 243 1567 243 1580 275 1663 
C 410 2057 819 2368 1261 2368 
C 2150 2368 2278 1383 2278 754 
C 2278 352 2234 220 2195 92 
C 2074 -302 1862 -1090 1862 -1268 
C 1862 -1319 1882 -1376 1933 -1376 
C 2029 -1376 2086 -1166 2157 -912 
C 2310 -353 2349 -73 2381 181 
C 2400 334 2765 1384 3270 2382 
C 3315 2483 3405 2655 3405 2674 
C 3405 2680 3398 2725 3341 2725 
C 3328 2725 3296 2725 3283 2699 
C 3270 2687 3046 2254 2854 1822 
C 2758 1606 2630 1320 2419 760 
z
" transform="scale(0.015625)"/>
       <path id="CMMI12-6d" d="M 1318 1871 
C 1331 1910 1491 2229 1728 2433 
C 1894 2586 2112 2689 2362 2689 
C 2618 2689 2707 2497 2707 2242 
C 2707 2203 2707 2076 2630 1775 
L 2470 1118 
C 2419 926 2298 453 2285 383 
C 2259 287 2221 121 2221 96 
C 2221 6 2291 -64 2387 -64 
C 2579 -64 2611 83 2669 313 
L 3053 1839 
C 3066 1890 3398 2689 4102 2689 
C 4358 2689 4448 2497 4448 2242 
C 4448 1884 4198 1188 4058 805 
C 4000 651 3968 568 3968 453 
C 3968 166 4166 -64 4474 -64 
C 5069 -64 5293 875 5293 913 
C 5293 945 5267 971 5229 971 
C 5171 971 5165 952 5133 843 
C 4986 332 4749 64 4493 64 
C 4429 64 4326 64 4326 269 
C 4326 436 4403 640 4429 710 
C 4544 1018 4832 1773 4832 2145 
C 4832 2528 4608 2816 4122 2816 
C 3693 2816 3347 2574 3091 2197 
C 3072 2542 2861 2816 2381 2816 
C 1811 2816 1510 2415 1395 2255 
C 1376 2618 1114 2816 832 2816 
C 646 2816 499 2727 378 2484 
C 262 2254 173 1865 173 1839 
C 173 1814 198 1782 243 1782 
C 294 1782 301 1788 339 1935 
C 435 2312 557 2689 813 2689 
C 960 2689 1011 2586 1011 2395 
C 1011 2254 947 2005 902 1807 
L 723 1118 
C 698 996 627 709 595 594 
C 550 428 480 128 480 96 
C 480 6 550 -64 646 -64 
C 723 -64 813 -26 864 70 
C 877 102 934 326 966 453 
L 1107 1028 
L 1318 1871 
z
" transform="scale(0.015625)"/>
      </defs>
      <use xlink:href="#CMR17-44" transform="scale(0.996264)"/>
      <use xlink:href="#CMR17-65" transform="translate(70.393556 0) scale(0.996264)"/>
      <use xlink:href="#CMR17-63" transform="translate(110.879216 0) scale(0.996264)"/>
      <use xlink:href="#CMR17-61" transform="translate(151.364877 0) scale(0.996264)"/>
      <use xlink:href="#CMR17-79" transform="translate(194.4529 0) scale(0.996264)"/>
      <use xlink:href="#CMR17-72" transform="translate(272.821782 0) scale(0.996264)"/>
      <use xlink:href="#CMR17-61" transform="translate(308.10255 0) scale(0.996264)"/>
      <use xlink:href="#CMR17-74" transform="translate(353.793027 0) scale(0.996264)"/>
      <use xlink:href="#CMR17-65" transform="translate(389.073795 0) scale(0.996264)"/>
      <use xlink:href="#CMR17-28" transform="translate(459.635422 0) scale(0.996264)"/>
      <use xlink:href="#CMR17-65" transform="translate(494.91619 0) scale(0.996264)"/>
      <use xlink:href="#CMR17-69" transform="translate(535.40185 0) scale(0.996264)"/>
      <use xlink:href="#CMR17-67" transform="translate(560.272908 0) scale(0.996264)"/>
      <use xlink:href="#CMR17-65" transform="translate(605.963386 0) scale(0.996264)"/>
      <use xlink:href="#CMR17-6e" transform="translate(646.449046 0) scale(0.996264)"/>
      <use xlink:href="#CMR17-76" transform="translate(694.741962 0) scale(0.996264)"/>
      <use xlink:href="#CMR17-61" transform="translate(737.830061 0) scale(0.996264)"/>
      <use xlink:href="#CMR17-6c" transform="translate(783.520538 0) scale(0.996264)"/>
      <use xlink:href="#CMR17-75" transform="translate(808.391597 0) scale(0.996264)"/>
      <use xlink:href="#CMR17-65" transform="translate(859.286966 0) scale(0.996264)"/>
      <use xlink:href="#CMR17-29" transform="translate(899.772627 0) scale(0.996264)"/>
      <use xlink:href="#CMR17-2c" transform="translate(935.053395 0) scale(0.996264)"/>
      <use xlink:href="#CMMI12-d" transform="translate(990.00042 0) scale(0.996264)"/>
      <use xlink:href="#CMMI12-6d" transform="translate(1040.599552 -14.943915) scale(0.697382)"/>
      <use xlink:href="#CMMI12-3d" transform="translate(1100.826475 0) scale(0.996264)"/>
      <use xlink:href="#CMMI12-54" transform="translate(1149.601394 0) scale(0.996264)"/>
      <use xlink:href="#CMR17-32" transform="translate(1220.325026 36.153639) scale(0.697382)"/>
     </g>
    </g>
   </g>
   <g id="line2d_95">
    <path d="M 125.957092 152.678226 
L 245.63267 157.283589 
L 250.960917 157.813836 
L 261.619185 159.869651 
L 266.948328 160.876414 
L 274.948084 161.45353 
L 282.934928 162.792872 
L 284.152225 162.69208 
L 288.263925 164.144905 
L 294.49091 164.978907 
L 298.920887 165.480431 
L 304.298667 165.98196 
L 314.909201 168.279126 
L 315.160992 167.755082 
L 320.347389 168.657499 
L 325.489561 170.255887 
L 330.675957 171.275735 
L 335.822271 172.893216 
L 341.553732 174.094301 
L 346.157465 175.146248 
L 352.430853 176.779773 
L 356.483383 177.08803 
L 362.869453 180.874739 
L 366.816192 181.173839 
L 371.198476 184.346411 
L 377.148153 186.274921 
L 383.02088 191.015657 
L 387.478078 192.059497 
L 389.513888 192.0819 
L 394.842885 197.601659 
L 397.801219 198.216235 
L 418.468776 218.190727 
L 428.808456 230.591012 
L 439.141469 242.264033 
L 457.516376 265.17103 
L 459.801449 264.841998 
L 469.338381 288.414228 
L 480.459951 295.046156 
L 490.764052 302.169957 
L 501.12 330.410711 
" clip-path="url(#p33fa1d3274)" style="fill: none; stroke-dasharray: 7.4,3.2; stroke-dashoffset: 0; stroke: #2c3e50; stroke-opacity: 0.3; stroke-width: 2"/>
   </g>
   <g id="line2d_96">
    <path d="M 96.424916 172.92765 
L 117.739681 176.65997 
L 125.957092 195.311991 
L 139.052547 174.124379 
L 160.372302 170.191486 
L 181.684965 172.449278 
L 203.000956 175.012629 
L 208.329705 177.613565 
L 224.316799 180.071876 
L 232.536052 180.55768 
L 234.974445 178.33245 
L 242.86462 180.144907 
L 245.63267 179.099998 
L 248.330116 178.756009 
L 250.960917 178.945122 
L 253.217868 180.638459 
L 261.619185 181.793919 
L 266.948328 183.280674 
L 274.948084 183.500743 
L 282.934928 185.047239 
L 284.152225 185.042058 
L 288.263925 186.1472 
L 294.49091 186.684699 
L 298.920887 186.842063 
L 304.298667 188.262372 
L 314.909201 191.319599 
L 315.160992 190.268168 
L 320.347389 190.050289 
L 325.489561 192.274522 
L 330.675957 191.707818 
L 335.822271 193.137745 
L 341.553732 193.843116 
L 346.157465 194.069669 
L 352.430853 196.974645 
L 356.483383 195.147709 
L 362.869453 198.526121 
L 366.816192 197.673962 
L 371.198476 199.464965 
L 377.148153 199.727945 
L 383.02088 204.256485 
L 387.478078 204.004268 
L 389.513888 201.60878 
L 394.842885 202.740248 
L 397.801219 205.803746 
L 410.884173 215.628079 
L 416.158876 219.608606 
L 418.468776 221.359577 
L 426.926349 228.982956 
L 428.808456 230.42244 
L 439.141469 240.524319 
L 442.803698 242.525957 
L 445.693972 245.114567 
L 449.470037 249.680314 
L 457.516376 259.714769 
L 459.801449 261.240121 
L 469.338381 268.757554 
L 480.459951 279.498276 
L 490.764052 289.516255 
L 501.12 305.363706 
" clip-path="url(#p33fa1d3274)" style="fill: none; stroke-dasharray: 7.4,3.2; stroke-dashoffset: 0; stroke: #34495e; stroke-opacity: 0.3; stroke-width: 2"/>
   </g>
   <g id="line2d_97">
    <path d="M 75.106005 17.28 
L 125.957092 18.98198 
L 181.684965 107.653864 
L 224.316799 112.844945 
L 232.536052 112.883873 
L 234.974445 115.251768 
L 242.86462 115.459528 
L 245.63267 116.422415 
L 248.330116 117.495098 
L 250.960917 117.012114 
L 253.217868 117.654323 
L 261.619185 115.80916 
L 266.948328 118.540532 
L 274.948084 119.297077 
L 282.934928 118.629014 
L 284.152225 118.774892 
L 288.263925 118.14653 
L 294.49091 120.031176 
L 298.920887 119.601945 
L 304.298667 119.579607 
L 314.909201 120.456826 
L 315.160992 120.711045 
L 320.347389 120.076384 
L 325.489561 120.099624 
L 330.675957 121.507966 
L 335.822271 121.499013 
L 341.553732 122.022122 
L 346.157465 121.632722 
L 352.430853 122.436919 
L 356.483383 122.619043 
L 362.869453 122.791124 
L 366.816192 121.511491 
L 371.198476 121.616111 
L 377.148153 123.827076 
L 383.02088 124.234454 
L 387.478078 124.443807 
L 389.513888 124.523205 
L 394.842885 125.151172 
L 397.801219 127.38648 
L 410.884173 129.333381 
L 416.158876 130.479746 
L 418.468776 130.92633 
L 426.926349 132.9091 
L 428.808456 133.407028 
L 439.141469 136.626636 
L 442.803698 137.95576 
L 445.693972 137.458732 
L 449.470037 140.640798 
L 457.516376 144.316871 
L 459.801449 145.450425 
L 469.338381 150.552593 
L 480.459951 157.226924 
L 490.764052 164.017903 
L 501.12 171.347135 
" clip-path="url(#p33fa1d3274)" style="fill: none; stroke: #99fca6; stroke-width: 2; stroke-linecap: square"/>
   </g>
   <g id="line2d_98">
    <path d="M 96.424916 177.682505 
L 117.739681 176.841262 
L 125.957092 181.836024 
L 139.052547 175.962762 
L 160.372302 169.004929 
L 181.684965 170.559908 
L 203.000956 172.63167 
L 208.329705 174.188587 
L 224.316799 175.971054 
L 232.536052 176.16486 
L 234.974445 173.728062 
L 242.86462 174.382067 
L 245.63267 173.120461 
L 248.330116 172.339628 
L 250.960917 173.334733 
L 253.217868 173.79348 
L 261.619185 173.250555 
L 266.948328 173.211034 
L 274.948084 172.200029 
L 282.934928 172.403523 
L 284.152225 171.171581 
L 288.263925 171.205939 
L 294.49091 170.958151 
L 298.920887 170.385523 
L 304.298667 169.15434 
L 314.909201 167.707491 
L 315.160992 167.076727 
L 320.347389 166.158046 
L 325.489561 165.567119 
L 330.675957 164.316556 
L 335.822271 163.329165 
L 341.553732 161.273623 
L 346.157465 159.871875 
L 352.430853 158.634622 
L 356.483383 157.034631 
L 362.869453 155.184158 
L 366.816192 153.646675 
L 371.198476 152.353412 
L 377.148153 150.518182 
L 383.02088 148.255136 
L 387.478078 146.805484 
L 389.513888 146.024496 
L 394.842885 144.230242 
L 397.801219 144.953734 
L 410.884173 141.935049 
L 416.158876 140.982439 
L 418.468776 140.635121 
L 426.926349 139.824429 
L 428.808456 139.736094 
L 439.141469 140.130089 
L 442.803698 140.591544 
L 445.693972 139.48887 
L 449.470037 141.884299 
L 457.516376 144.308251 
L 459.801449 145.431935 
L 469.338381 148.718317 
L 480.459951 154.318349 
L 490.764052 160.437227 
L 501.12 168.159275 
" clip-path="url(#p33fa1d3274)" style="fill: none; stroke: #8000ff; stroke-width: 2; stroke-linecap: square"/>
   </g>
   <g id="line2d_99">
    <path d="M 75.106005 25.732115 
L 125.957092 18.982666 
L 139.052547 152.174186 
L 160.372302 123.619133 
L 181.684965 124.175804 
L 203.000956 117.232839 
L 208.329705 155.544151 
L 224.316799 112.114991 
L 234.974445 114.150456 
L 242.86462 122.867883 
L 245.63267 113.483841 
L 248.330116 123.380872 
L 250.960917 122.134133 
L 253.217868 117.542618 
L 261.619185 115.090376 
L 266.948328 114.080652 
L 274.948084 114.956497 
L 282.934928 116.301826 
L 284.152225 118.650359 
L 288.263925 113.472449 
L 294.49091 117.423551 
L 298.920887 114.81309 
L 304.298667 117.705356 
L 314.909201 117.580672 
L 315.160992 118.053675 
L 320.347389 119.006213 
L 325.489561 116.898191 
L 330.675957 120.039281 
L 335.822271 119.361563 
L 341.553732 119.798176 
L 346.157465 120.378579 
L 352.430853 120.632243 
L 356.483383 121.989261 
L 362.869453 122.147552 
L 366.816192 122.599445 
L 371.198476 123.150495 
L 377.148153 124.27443 
L 383.02088 121.65501 
L 387.478078 125.828357 
L 389.513888 125.998954 
L 394.842885 123.600277 
L 397.801219 128.546601 
L 410.884173 130.93215 
L 416.158876 131.808077 
L 418.468776 137.37797 
L 426.926349 133.607151 
L 428.808456 133.937118 
L 439.141469 136.025189 
L 442.803698 136.90491 
L 445.693972 136.829939 
L 449.470037 138.771333 
L 457.516376 141.50846 
L 459.801449 142.390252 
L 469.338381 146.771966 
L 480.459951 152.26966 
L 490.764052 158.446776 
L 501.12 205.501426 
" clip-path="url(#p33fa1d3274)" style="fill: none; stroke: #bbee91; stroke-width: 2; stroke-linecap: square"/>
   </g>
   <g id="line2d_100">
    <path d="M 96.424916 176.660497 
L 117.739681 175.643879 
L 125.957092 197.417982 
L 139.052547 168.552842 
L 160.372302 168.235591 
L 181.684965 169.530582 
L 203.000956 169.313362 
L 208.329705 169.821916 
L 224.316799 169.558935 
L 232.536052 168.864787 
L 234.974445 167.362058 
L 242.86462 166.92196 
L 245.63267 165.290114 
L 248.330116 164.600211 
L 250.960917 164.715497 
L 253.217868 165.195166 
L 261.619185 164.05875 
L 266.948328 163.232654 
L 274.948084 161.247844 
L 282.934928 159.947278 
L 284.152225 158.995225 
L 288.263925 158.786233 
L 294.49091 157.499817 
L 298.920887 156.266422 
L 304.298667 154.432429 
L 314.909201 151.741139 
L 315.160992 151.46062 
L 320.347389 149.834101 
L 325.489561 148.628973 
L 330.675957 147.446527 
L 335.822271 145.560698 
L 341.553732 144.389458 
L 346.157465 142.713497 
L 352.430853 140.985842 
L 356.483383 139.958142 
L 362.869453 138.204795 
L 366.816192 137.396935 
L 371.198476 136.416567 
L 377.148153 135.429542 
L 383.02088 134.467446 
L 387.478078 133.411092 
L 389.513888 133.391073 
L 394.842885 132.640353 
L 397.801219 133.711431 
L 410.884173 133.012312 
L 416.158876 132.91683 
L 418.468776 132.939546 
L 426.926349 133.309115 
L 428.808456 133.454246 
L 439.141469 134.872433 
L 442.803698 135.647372 
L 445.693972 135.429795 
L 449.470037 137.311189 
L 457.516376 139.963967 
L 459.801449 140.836495 
L 469.338381 145.018495 
L 480.459951 151.025217 
L 490.764052 156.830821 
L 501.12 163.652319 
" clip-path="url(#p33fa1d3274)" style="fill: none; stroke: #4062fa; stroke-width: 2; stroke-linecap: square"/>
   </g>
   <g id="line2d_101">
    <path d="M 75.106005 21.92918 
L 125.957092 18.980374 
L 242.86462 113.746707 
L 248.330116 114.077054 
L 250.960917 113.779646 
L 266.948328 114.05305 
L 274.948084 114.148529 
L 288.263925 113.964167 
L 294.49091 115.630622 
L 304.298667 114.254538 
L 314.909201 114.665987 
L 315.160992 116.432419 
L 320.347389 116.271211 
L 325.489561 116.485307 
L 330.675957 117.780467 
L 335.822271 117.324652 
L 341.553732 118.460185 
L 346.157465 118.878387 
L 352.430853 119.126063 
L 356.483383 120.761312 
L 362.869453 118.92481 
L 366.816192 122.454993 
L 371.198476 122.587635 
L 377.148153 124.388417 
L 383.02088 125.033982 
L 387.478078 125.35135 
L 389.513888 125.720269 
L 394.842885 126.580673 
L 397.801219 128.155005 
L 410.884173 129.689432 
L 416.158876 130.03503 
L 418.468776 130.304351 
L 426.926349 131.359869 
L 428.808456 131.628433 
L 439.141469 133.51388 
L 442.803698 134.371625 
L 445.693972 134.206276 
L 449.470037 136.241794 
L 457.516376 139.020356 
L 459.801449 140.953376 
L 469.338381 146.279808 
L 480.459951 150.183631 
L 490.764052 156.262701 
L 501.12 163.38205 
" clip-path="url(#p33fa1d3274)" style="fill: none; stroke: #dcd67a; stroke-width: 2; stroke-linecap: square"/>
   </g>
   <g id="line2d_102">
    <path d="M 96.424916 172.298259 
L 117.739681 168.276543 
L 125.957092 184.990752 
L 139.052547 168.211746 
L 160.372302 166.3467 
L 181.684965 167.031884 
L 203.000956 165.798008 
L 208.329705 165.365333 
L 224.316799 164.212613 
L 232.536052 163.032864 
L 234.974445 161.470261 
L 242.86462 160.314406 
L 245.63267 158.73636 
L 248.330116 157.699309 
L 250.960917 157.567148 
L 253.217868 157.591847 
L 261.619185 155.795351 
L 266.948328 155.047353 
L 274.948084 152.503054 
L 282.934928 150.31465 
L 284.152225 149.591086 
L 288.263925 149.409549 
L 294.49091 147.827167 
L 298.920887 146.215562 
L 304.298667 144.336175 
L 314.909201 141.879472 
L 315.160992 141.762788 
L 320.347389 140.021085 
L 325.489561 138.867684 
L 330.675957 137.920612 
L 335.822271 136.452982 
L 341.553732 135.729717 
L 346.157465 134.515228 
L 352.430853 133.377432 
L 356.483383 133.11238 
L 362.869453 131.848702 
L 366.816192 131.647009 
L 371.198476 131.096597 
L 377.148153 130.501598 
L 383.02088 130.198717 
L 387.478078 129.701393 
L 389.513888 129.653237 
L 394.842885 129.373346 
L 397.801219 130.145471 
L 410.884173 129.993938 
L 416.158876 130.099843 
L 418.468776 130.192877 
L 426.926349 130.834331 
L 428.808456 131.039443 
L 439.141469 132.725305 
L 442.803698 133.558705 
L 445.693972 133.538816 
L 449.470037 135.419581 
L 457.516376 138.283212 
L 459.801449 139.310403 
L 469.338381 143.431007 
L 480.459951 149.554941 
L 490.764052 155.667414 
L 501.12 162.468544 
" clip-path="url(#p33fa1d3274)" style="fill: none; stroke: #00b5eb; stroke-width: 2; stroke-linecap: square"/>
   </g>
   <g id="line2d_103">
    <path d="M 75.106005 21.914152 
L 125.957092 53.758971 
L 160.372302 116.728041 
L 203.000956 121.495082 
L 208.329705 124.609286 
L 224.316799 122.708991 
L 232.536052 121.331452 
L 234.974445 120.781069 
L 242.86462 123.665483 
L 245.63267 120.387875 
L 248.330116 122.074464 
L 250.960917 121.563376 
L 253.217868 121.785172 
L 261.619185 118.002609 
L 266.948328 115.978121 
L 274.948084 116.056015 
L 282.934928 117.663626 
L 284.152225 113.560189 
L 288.263925 120.574873 
L 294.49091 115.898138 
L 304.298667 114.917987 
L 314.909201 118.349829 
L 315.160992 118.341328 
L 320.347389 117.768041 
L 325.489561 118.763705 
L 330.675957 119.685157 
L 335.822271 120.249908 
L 341.553732 122.315979 
L 346.157465 121.896287 
L 352.430853 122.457491 
L 356.483383 124.170404 
L 362.869453 124.063649 
L 366.816192 125.259484 
L 371.198476 126.225426 
L 377.148153 126.598648 
L 383.02088 127.451894 
L 387.478078 127.785058 
L 389.513888 127.774028 
L 394.842885 128.0985 
L 397.801219 129.546896 
L 410.884173 129.150685 
L 416.158876 129.497931 
L 418.468776 129.675978 
L 426.926349 130.517811 
L 428.808456 130.756607 
L 439.141469 152.929806 
L 442.803698 133.39582 
L 445.693972 158.031002 
L 449.470037 135.27726 
L 457.516376 138.092985 
L 459.801449 139.018236 
L 469.338381 143.319478 
L 480.459951 149.234853 
L 490.764052 155.558957 
L 501.12 162.742241 
" clip-path="url(#p33fa1d3274)" style="fill: none; stroke: #ffb360; stroke-width: 2; stroke-linecap: square"/>
   </g>
   <g id="line2d_104">
    <path d="M 75.106005 164.004536 
L 96.424916 164.004536 
L 117.739681 164.004536 
L 125.957092 164.004536 
L 139.052547 164.004536 
L 160.372302 164.004536 
L 181.684965 164.004536 
L 203.000956 164.004536 
L 208.329705 164.004536 
L 224.316799 164.004536 
L 232.536052 164.004536 
L 234.974445 164.004536 
L 242.86462 164.004536 
L 245.63267 164.004536 
L 248.330116 164.004536 
L 250.960917 164.004536 
L 253.217868 164.004536 
L 261.619185 164.004536 
L 266.948328 164.004536 
L 274.948084 164.004536 
L 282.934928 164.004536 
L 284.152225 164.004536 
L 288.263925 164.004536 
L 294.49091 164.004536 
L 298.920887 164.004536 
L 304.298667 164.004536 
L 314.909201 164.004536 
L 315.160992 164.004536 
L 320.347389 164.004536 
L 325.489561 164.004536 
L 330.675957 164.004536 
L 335.822271 164.004536 
L 341.553732 164.004536 
L 346.157465 164.004536 
L 352.430853 164.004536 
L 356.483383 164.004536 
L 362.869453 164.004536 
L 366.816192 164.004536 
L 371.198476 164.004536 
L 377.148153 164.004536 
L 383.02088 164.004536 
L 387.478078 164.004536 
L 389.513888 164.004536 
L 394.842885 164.004536 
L 397.801219 164.004536 
L 410.884173 164.004536 
L 416.158876 164.004536 
L 418.468776 164.004536 
L 426.926349 164.004536 
L 428.808456 164.004536 
L 439.141469 164.004536 
L 442.803698 164.004536 
L 445.693972 164.004536 
L 449.470037 164.004536 
L 457.516376 164.004536 
L 459.801449 164.004536 
L 469.338381 164.004536 
L 480.459951 164.004536 
L 490.764052 164.004536 
L 501.12 164.004536 
" clip-path="url(#p33fa1d3274)" style="fill: none; stroke-dasharray: 3.7,1.6; stroke-dashoffset: 0; stroke: #0000ff"/>
   </g>
   <g id="line2d_105">
    <path d="M 75.106005 362.116716 
L 96.424916 342.28856 
L 117.739681 322.46426 
L 125.957092 314.821464 
L 139.052547 302.641727 
L 160.372302 282.812786 
L 181.684965 262.990441 
L 203.000956 243.165002 
L 208.329705 238.208873 
L 224.316799 223.339699 
L 232.536052 215.695189 
L 234.974445 213.427304 
L 242.86462 206.08886 
L 245.63267 203.514371 
L 248.330116 201.005548 
L 250.960917 198.558709 
L 253.217868 196.459578 
L 261.619185 188.645735 
L 266.948328 183.68924 
L 274.948084 176.248878 
L 282.934928 168.820526 
L 284.152225 167.68835 
L 288.263925 163.864167 
L 294.49091 158.072612 
L 298.920887 153.952408 
L 304.298667 148.950677 
L 314.909201 139.082099 
L 315.160992 138.847915 
L 320.347389 134.024185 
L 325.489561 129.241586 
L 330.675957 124.417856 
L 335.822271 119.631406 
L 341.553732 114.300725 
L 346.157465 110.018914 
L 352.430853 104.184202 
L 356.483383 100.415051 
L 362.869453 94.475537 
L 366.816192 90.804778 
L 371.198476 86.728932 
L 377.148153 81.195295 
L 383.02088 75.733227 
L 387.478078 71.587704 
L 389.513888 69.694251 
L 394.842885 64.737892 
L 397.801219 61.986423 
L 410.884173 49.818314 
L 416.158876 44.912452 
L 418.468776 42.764075 
L 426.926349 34.89791 
L 428.808456 33.147412 
L 439.141469 23.53695 
L 442.803698 20.130807 
L 445.693972 17.442639 
L 449.470037 13.930621 
L 457.516376 6.446934 
L 459.801449 4.321648 
L 465.523198 -1 
" clip-path="url(#p33fa1d3274)" style="fill: none; stroke-dasharray: 6.4,1.6,1,1.6; stroke-dashoffset: 0; stroke: #ff0000"/>
   </g>
   <g id="patch_3">
    <path d="M 75.106005 330.410711 
L 75.106005 17.28 
" style="fill: none; stroke: #000000; stroke-width: 0.8; stroke-linejoin: miter; stroke-linecap: square"/>
   </g>
   <g id="patch_4">
    <path d="M 501.12 330.410711 
L 501.12 17.28 
" style="fill: none; stroke: #000000; stroke-width: 0.8; stroke-linejoin: miter; stroke-linecap: square"/>
   </g>
   <g id="patch_5">
    <path d="M 75.106005 330.410711 
L 501.12 330.410711 
" style="fill: none; stroke: #000000; stroke-width: 0.8; stroke-linejoin: miter; stroke-linecap: square"/>
   </g>
   <g id="patch_6">
    <path d="M 75.106005 17.28 
L 501.12 17.28 
" style="fill: none; stroke: #000000; stroke-width: 0.8; stroke-linejoin: miter; stroke-linecap: square"/>
   </g>
   <g id="legend_1">
    <g id="line2d_106">
     <path d="M 89.506005 37.28 
L 105.506005 37.28 
L 121.506005 37.28 
" style="fill: none; stroke-dasharray: 7.4,3.2; stroke-dashoffset: 0; stroke: #2c3e50; stroke-opacity: 0.3; stroke-width: 2"/>
    </g>
    <g id="text_13">
     <!-- $m=0$ -->
     <g transform="translate(134.306005 42.88) scale(0.16 -0.16)">
      <defs>
       <path id="CMR17-3d" d="M 4115 2017 
C 4211 2017 4307 2017 4307 2125 
C 4307 2240 4198 2240 4090 2240 
L 512 2240 
C 403 2240 294 2240 294 2125 
C 294 2017 390 2017 486 2017 
L 4115 2017 
z
M 4090 896 
C 4198 896 4307 896 4307 1011 
C 4307 1119 4211 1119 4115 1119 
L 486 1119 
C 390 1119 294 1119 294 1011 
C 294 896 403 896 512 896 
L 4090 896 
z
" transform="scale(0.015625)"/>
      </defs>
      <use xlink:href="#CMMI12-6d" transform="scale(0.996264)"/>
      <use xlink:href="#CMR17-3d" transform="translate(113.001233 0) scale(0.996264)"/>
      <use xlink:href="#CMR17-30" transform="translate(212.39003 0) scale(0.996264)"/>
     </g>
    </g>
    <g id="line2d_107">
     <path d="M 89.506005 59.579476 
L 105.506005 59.579476 
L 121.506005 59.579476 
" style="fill: none; stroke-dasharray: 7.4,3.2; stroke-dashoffset: 0; stroke: #34495e; stroke-opacity: 0.3; stroke-width: 2"/>
    </g>
    <g id="text_14">
     <!-- $m=1$ -->
     <g transform="translate(134.306005 65.179476) scale(0.16 -0.16)">
      <use xlink:href="#CMMI12-6d" transform="scale(0.996264)"/>
      <use xlink:href="#CMR17-3d" transform="translate(113.001233 0) scale(0.996264)"/>
      <use xlink:href="#CMR17-31" transform="translate(212.39003 0) scale(0.996264)"/>
     </g>
    </g>
    <g id="line2d_108">
     <path d="M 89.506005 81.878952 
L 105.506005 81.878952 
L 121.506005 81.878952 
" style="fill: none; stroke: #99fca6; stroke-width: 2; stroke-linecap: square"/>
    </g>
    <g id="text_15">
     <!-- $m=2$ -->
     <g transform="translate(134.306005 87.478952) scale(0.16 -0.16)">
      <use xlink:href="#CMMI12-6d" transform="scale(0.996264)"/>
      <use xlink:href="#CMR17-3d" transform="translate(113.001233 0) scale(0.996264)"/>
      <use xlink:href="#CMR17-32" transform="translate(212.39003 0) scale(0.996264)"/>
     </g>
    </g>
    <g id="line2d_109">
     <path d="M 89.506005 104.178429 
L 105.506005 104.178429 
L 121.506005 104.178429 
" style="fill: none; stroke: #8000ff; stroke-width: 2; stroke-linecap: square"/>
    </g>
    <g id="text_16">
     <!-- $m=3$ -->
     <g transform="translate(134.306005 109.778429) scale(0.16 -0.16)">
      <use xlink:href="#CMMI12-6d" transform="scale(0.996264)"/>
      <use xlink:href="#CMR17-3d" transform="translate(113.001233 0) scale(0.996264)"/>
      <use xlink:href="#CMR17-33" transform="translate(212.39003 0) scale(0.996264)"/>
     </g>
    </g>
    <g id="line2d_110">
     <path d="M 89.506005 126.477905 
L 105.506005 126.477905 
L 121.506005 126.477905 
" style="fill: none; stroke: #bbee91; stroke-width: 2; stroke-linecap: square"/>
    </g>
    <g id="text_17">
     <!-- $m=4$ -->
     <g transform="translate(134.306005 132.077905) scale(0.16 -0.16)">
      <use xlink:href="#CMMI12-6d" transform="scale(0.996264)"/>
      <use xlink:href="#CMR17-3d" transform="translate(113.001233 0) scale(0.996264)"/>
      <use xlink:href="#CMR17-34" transform="translate(212.39003 0) scale(0.996264)"/>
     </g>
    </g>
    <g id="line2d_111">
     <path d="M 89.506005 148.777381 
L 105.506005 148.777381 
L 121.506005 148.777381 
" style="fill: none; stroke: #4062fa; stroke-width: 2; stroke-linecap: square"/>
    </g>
    <g id="text_18">
     <!-- $m=5$ -->
     <g transform="translate(134.306005 154.377381) scale(0.16 -0.16)">
      <use xlink:href="#CMMI12-6d" transform="scale(0.996264)"/>
      <use xlink:href="#CMR17-3d" transform="translate(113.001233 0) scale(0.996264)"/>
      <use xlink:href="#CMR17-35" transform="translate(212.39003 0) scale(0.996264)"/>
     </g>
    </g>
    <g id="line2d_112">
     <path d="M 89.506005 171.076857 
L 105.506005 171.076857 
L 121.506005 171.076857 
" style="fill: none; stroke: #dcd67a; stroke-width: 2; stroke-linecap: square"/>
    </g>
    <g id="text_19">
     <!-- $m=6$ -->
     <g transform="translate(134.306005 176.676857) scale(0.16 -0.16)">
      <defs>
       <path id="CMR17-36" d="M 678 2176 
C 678 3690 1395 4032 1811 4032 
C 1946 4032 2272 4009 2400 3776 
C 2298 3776 2106 3776 2106 3553 
C 2106 3381 2246 3323 2336 3323 
C 2394 3323 2566 3348 2566 3560 
C 2566 3954 2246 4179 1805 4179 
C 1043 4179 243 3390 243 1984 
C 243 253 966 -128 1478 -128 
C 2099 -128 2688 427 2688 1283 
C 2688 2081 2170 2662 1517 2662 
C 1126 2662 838 2407 678 1960 
L 678 2176 
z
M 1478 25 
C 691 25 691 1200 691 1436 
C 691 1896 909 2560 1504 2560 
C 1613 2560 1926 2560 2138 2120 
C 2253 1870 2253 1609 2253 1289 
C 2253 944 2253 690 2118 434 
C 1978 171 1773 25 1478 25 
z
" transform="scale(0.015625)"/>
      </defs>
      <use xlink:href="#CMMI12-6d" transform="scale(0.996264)"/>
      <use xlink:href="#CMR17-3d" transform="translate(113.001233 0) scale(0.996264)"/>
      <use xlink:href="#CMR17-36" transform="translate(212.39003 0) scale(0.996264)"/>
     </g>
    </g>
    <g id="line2d_113">
     <path d="M 89.506005 193.376333 
L 105.506005 193.376333 
L 121.506005 193.376333 
" style="fill: none; stroke: #00b5eb; stroke-width: 2; stroke-linecap: square"/>
    </g>
    <g id="text_20">
     <!-- $m=7$ -->
     <g transform="translate(134.306005 198.976333) scale(0.16 -0.16)">
      <defs>
       <path id="CMR17-37" d="M 2886 3941 
L 2886 4081 
L 1382 4081 
C 634 4081 621 4165 595 4288 
L 480 4288 
L 294 3094 
L 410 3094 
C 429 3215 474 3540 550 3661 
C 589 3712 1062 3712 1171 3712 
L 2579 3712 
L 1869 2661 
C 1395 1954 1069 999 1069 165 
C 1069 89 1069 -128 1299 -128 
C 1530 -128 1530 89 1530 171 
L 1530 465 
C 1530 1508 1709 2196 2003 2636 
L 2886 3941 
z
" transform="scale(0.015625)"/>
      </defs>
      <use xlink:href="#CMMI12-6d" transform="scale(0.996264)"/>
      <use xlink:href="#CMR17-3d" transform="translate(113.001233 0) scale(0.996264)"/>
      <use xlink:href="#CMR17-37" transform="translate(212.39003 0) scale(0.996264)"/>
     </g>
    </g>
    <g id="line2d_114">
     <path d="M 89.506005 215.67581 
L 105.506005 215.67581 
L 121.506005 215.67581 
" style="fill: none; stroke: #ffb360; stroke-width: 2; stroke-linecap: square"/>
    </g>
    <g id="text_21">
     <!-- $m=8$ -->
     <g transform="translate(134.306005 221.27581) scale(0.16 -0.16)">
      <defs>
       <path id="CMR17-38" d="M 1741 2264 
C 2144 2467 2554 2773 2554 3263 
C 2554 3841 1990 4179 1472 4179 
C 890 4179 378 3759 378 3180 
C 378 3021 416 2747 666 2505 
C 730 2442 998 2251 1171 2130 
C 883 1983 211 1634 211 934 
C 211 279 838 -128 1459 -128 
C 2144 -128 2720 362 2720 1010 
C 2720 1590 2330 1857 2074 2029 
L 1741 2264 
z
M 902 2822 
C 851 2854 595 3051 595 3351 
C 595 3739 998 4032 1459 4032 
C 1965 4032 2336 3676 2336 3262 
C 2336 2669 1670 2331 1638 2331 
C 1632 2331 1626 2331 1574 2370 
L 902 2822 
z
M 2080 1519 
C 2176 1449 2483 1240 2483 851 
C 2483 381 2010 25 1472 25 
C 890 25 448 438 448 940 
C 448 1443 838 1862 1280 2060 
L 2080 1519 
z
" transform="scale(0.015625)"/>
      </defs>
      <use xlink:href="#CMMI12-6d" transform="scale(0.996264)"/>
      <use xlink:href="#CMR17-3d" transform="translate(113.001233 0) scale(0.996264)"/>
      <use xlink:href="#CMR17-38" transform="translate(212.39003 0) scale(0.996264)"/>
     </g>
    </g>
    <g id="line2d_115">
     <path d="M 89.506005 237.975286 
L 105.506005 237.975286 
L 121.506005 237.975286 
" style="fill: none; stroke-dasharray: 3.7,1.6; stroke-dashoffset: 0; stroke: #0000ff"/>
    </g>
    <g id="text_22">
     <!-- $\propto T^2$ -->
     <g transform="translate(134.306005 243.575286) scale(0.16 -0.16)">
      <defs>
       <path id="CMSY10-2f" d="M 4621 205 
C 4595 205 4493 192 4474 192 
C 3968 192 3629 691 3411 1024 
C 3347 1133 3174 1395 3104 1504 
C 3258 1850 3686 2643 4448 2643 
C 4493 2643 4550 2643 4621 2624 
C 4621 2790 4614 2797 4602 2810 
C 4557 2822 4461 2829 4403 2829 
C 3590 2829 3117 2048 2963 1728 
C 2707 2118 2618 2259 2381 2458 
C 1990 2797 1638 2829 1478 2829 
C 768 2829 358 2112 358 1376 
C 358 659 755 -70 1459 -70 
C 2272 -70 2746 710 2899 1030 
C 3155 640 3245 499 3482 301 
C 3872 -38 4224 -70 4384 -70 
C 4461 -70 4563 -58 4621 -44 
L 4621 205 
z
M 2758 1254 
C 2605 909 2176 115 1414 115 
C 794 115 499 794 499 1376 
C 499 2010 858 2566 1389 2566 
C 1894 2566 2234 2067 2451 1734 
C 2515 1626 2688 1363 2758 1254 
z
" transform="scale(0.015625)"/>
      </defs>
      <use xlink:href="#CMSY10-2f" transform="scale(0.996264)"/>
      <use xlink:href="#CMMI12-54" transform="translate(105.161476 0) scale(0.996264)"/>
      <use xlink:href="#CMR17-32" transform="translate(175.885109 36.153639) scale(0.697382)"/>
     </g>
    </g>
    <g id="line2d_116">
     <path d="M 89.506005 260.274762 
L 105.506005 260.274762 
L 121.506005 260.274762 
" style="fill: none; stroke-dasharray: 6.4,1.6,1,1.6; stroke-dashoffset: 0; stroke: #ff0000"/>
    </g>
    <g id="text_23">
     <!-- $\propto T^4$ -->
     <g transform="translate(134.306005 265.874762) scale(0.16 -0.16)">
      <use xlink:href="#CMSY10-2f" transform="scale(0.996264)"/>
      <use xlink:href="#CMMI12-54" transform="translate(105.161476 0) scale(0.996264)"/>
      <use xlink:href="#CMR17-34" transform="translate(175.885109 36.153639) scale(0.697382)"/>
     </g>
    </g>
   </g>
  </g>
 </g>
 <defs>
  <clipPath id="p33fa1d3274">
   <rect x="75.106005" y="17.28" width="426.013995" height="313.130711"/>
  </clipPath>
 </defs>
</svg>
