<?xml version="1.0" encoding="utf-8" standalone="no"?>
<!DOCTYPE svg PUBLIC "-//W3C//DTD SVG 1.1//EN"
  "http://www.w3.org/Graphics/SVG/1.1/DTD/svg11.dtd">
<svg xmlns:xlink="http://www.w3.org/1999/xlink" width="518.4pt" height="388.8pt" viewBox="0 0 518.4 388.8" xmlns="http://www.w3.org/2000/svg" version="1.1">
 <metadata>
  <rdf:RDF xmlns:dc="http://purl.org/dc/elements/1.1/" xmlns:cc="http://creativecommons.org/ns#" xmlns:rdf="http://www.w3.org/1999/02/22-rdf-syntax-ns#">
   <cc:Work>
    <dc:type rdf:resource="http://purl.org/dc/dcmitype/StillImage"/>
    <dc:date>2026-01-24T02:03:00.332968</dc:date>
    <dc:format>image/svg+xml</dc:format>
    <dc:creator>
     <cc:Agent>
      <dc:title>Matplotlib v3.8.4, https://matplotlib.org/</dc:title>
     </cc:Agent>
    </dc:creator>
   </cc:Work>
  </rdf:RDF>
 </metadata>
 <defs>
  <style type="text/css">*{stroke-linejoin: round; stroke-linecap: butt}</style>
 </defs>
 <g id="figure_1">
  <g id="patch_1">
   <path d="M 0 388.8 
L 518.4 388.8 
L 518.4 0 
L 0 0 
z
" style="fill: #ffffff"/>
  </g>
  <g id="axes_1">
   <g id="patch_2">
    <path d="M 111.319827 312.856 
L 496.8 312.856 
L 496.8 21.6 
L 111.319827 21.6 
z
" style="fill: #ffffff"/>
   </g>
   <g id="matplotlib.axis_1">
    <g id="xtick_1">
     <g id="line2d_1">
      <defs>
       <path id="m1c4a95fcb4" d="M 0 0 
L 0 3.5 
" style="stroke: #000000; stroke-width: 0.8"/>
      </defs>
      <g>
       <use xlink:href="#m1c4a95fcb4" x="148.741919" y="312.856" style="stroke: #000000; stroke-width: 0.8"/>
      </g>
     </g>
     <g id="text_1">
      <!-- $\mathdefault{10^{-4}}$ -->
      <g transform="translate(125.341919 335.052875) scale(0.2 -0.2)">
       <defs>
        <path id="DejaVuSerif-31" d="M 909 0 
L 909 331 
L 1722 331 
L 1722 4213 
L 781 3603 
L 781 4013 
L 1919 4750 
L 2350 4750 
L 2350 331 
L 3163 331 
L 3163 0 
L 909 0 
z
" transform="scale(0.015625)"/>
        <path id="DejaVuSerif-30" d="M 2034 219 
Q 2513 219 2750 744 
Q 2988 1269 2988 2328 
Q 2988 3391 2750 3916 
Q 2513 4441 2034 4441 
Q 1556 4441 1318 3916 
Q 1081 3391 1081 2328 
Q 1081 1269 1318 744 
Q 1556 219 2034 219 
z
M 2034 -91 
Q 1275 -91 848 546 
Q 422 1184 422 2328 
Q 422 3475 848 4112 
Q 1275 4750 2034 4750 
Q 2797 4750 3222 4112 
Q 3647 3475 3647 2328 
Q 3647 1184 3222 546 
Q 2797 -91 2034 -91 
z
" transform="scale(0.015625)"/>
        <path id="DejaVuSerif-2212" d="M 678 2259 
L 4684 2259 
L 4684 1753 
L 678 1753 
L 678 2259 
z
" transform="scale(0.015625)"/>
        <path id="DejaVuSerif-34" d="M 2234 1581 
L 2234 4063 
L 641 1581 
L 2234 1581 
z
M 3609 0 
L 1484 0 
L 1484 331 
L 2234 331 
L 2234 1247 
L 197 1247 
L 197 1588 
L 2241 4750 
L 2859 4750 
L 2859 1581 
L 3750 1581 
L 3750 1247 
L 2859 1247 
L 2859 331 
L 3609 331 
L 3609 0 
z
" transform="scale(0.015625)"/>
       </defs>
       <use xlink:href="#DejaVuSerif-31" transform="translate(0 0.7125)"/>
       <use xlink:href="#DejaVuSerif-30" transform="translate(63.623047 0.7125)"/>
       <use xlink:href="#DejaVuSerif-2212" transform="translate(128.154453 37.046875) scale(0.7)"/>
       <use xlink:href="#DejaVuSerif-34" transform="translate(186.806797 37.046875) scale(0.7)"/>
      </g>
     </g>
    </g>
    <g id="xtick_2">
     <g id="line2d_2">
      <g>
       <use xlink:href="#m1c4a95fcb4" x="214.84917" y="312.856" style="stroke: #000000; stroke-width: 0.8"/>
      </g>
     </g>
     <g id="text_2">
      <!-- $\mathdefault{10^{-3}}$ -->
      <g transform="translate(191.44917 335.052875) scale(0.2 -0.2)">
       <defs>
        <path id="DejaVuSerif-33" d="M 622 4469 
Q 988 4606 1323 4678 
Q 1659 4750 1953 4750 
Q 2638 4750 3022 4454 
Q 3406 4159 3406 3634 
Q 3406 3213 3140 2930 
Q 2875 2647 2388 2547 
Q 2963 2466 3280 2130 
Q 3597 1794 3597 1259 
Q 3597 606 3158 257 
Q 2719 -91 1894 -91 
Q 1528 -91 1179 -12 
Q 831 66 488 225 
L 488 1131 
L 838 1131 
Q 869 681 1141 450 
Q 1413 219 1906 219 
Q 2384 219 2661 495 
Q 2938 772 2938 1253 
Q 2938 1803 2653 2086 
Q 2369 2369 1819 2369 
L 1522 2369 
L 1522 2688 
L 1678 2688 
Q 2225 2688 2498 2914 
Q 2772 3141 2772 3597 
Q 2772 4006 2547 4223 
Q 2322 4441 1900 4441 
Q 1478 4441 1245 4241 
Q 1013 4041 972 3647 
L 622 3647 
L 622 4469 
z
" transform="scale(0.015625)"/>
       </defs>
       <use xlink:href="#DejaVuSerif-31" transform="translate(0 0.7125)"/>
       <use xlink:href="#DejaVuSerif-30" transform="translate(63.623047 0.7125)"/>
       <use xlink:href="#DejaVuSerif-2212" transform="translate(128.154453 37.046875) scale(0.7)"/>
       <use xlink:href="#DejaVuSerif-33" transform="translate(186.806797 37.046875) scale(0.7)"/>
      </g>
     </g>
    </g>
    <g id="xtick_3">
     <g id="line2d_3">
      <g>
       <use xlink:href="#m1c4a95fcb4" x="280.956421" y="312.856" style="stroke: #000000; stroke-width: 0.8"/>
      </g>
     </g>
     <g id="text_3">
      <!-- $\mathdefault{10^{-2}}$ -->
      <g transform="translate(257.556421 335.052875) scale(0.2 -0.2)">
       <defs>
        <path id="DejaVuSerif-32" d="M 819 3553 
L 469 3553 
L 469 4384 
Q 803 4563 1142 4656 
Q 1481 4750 1806 4750 
Q 2534 4750 2956 4397 
Q 3378 4044 3378 3438 
Q 3378 2753 2422 1800 
Q 2347 1728 2309 1691 
L 1131 513 
L 3078 513 
L 3078 1088 
L 3444 1088 
L 3444 0 
L 434 0 
L 434 341 
L 1850 1753 
Q 2319 2222 2519 2614 
Q 2719 3006 2719 3438 
Q 2719 3909 2473 4175 
Q 2228 4441 1797 4441 
Q 1350 4441 1106 4219 
Q 863 3997 819 3553 
z
" transform="scale(0.015625)"/>
       </defs>
       <use xlink:href="#DejaVuSerif-31" transform="translate(0 0.7125)"/>
       <use xlink:href="#DejaVuSerif-30" transform="translate(63.623047 0.7125)"/>
       <use xlink:href="#DejaVuSerif-2212" transform="translate(128.154453 37.046875) scale(0.7)"/>
       <use xlink:href="#DejaVuSerif-32" transform="translate(186.806797 37.046875) scale(0.7)"/>
      </g>
     </g>
    </g>
    <g id="xtick_4">
     <g id="line2d_4">
      <g>
       <use xlink:href="#m1c4a95fcb4" x="347.063672" y="312.856" style="stroke: #000000; stroke-width: 0.8"/>
      </g>
     </g>
     <g id="text_4">
      <!-- $\mathdefault{10^{-1}}$ -->
      <g transform="translate(323.663672 335.052875) scale(0.2 -0.2)">
       <use xlink:href="#DejaVuSerif-31" transform="translate(0 0.7125)"/>
       <use xlink:href="#DejaVuSerif-30" transform="translate(63.623047 0.7125)"/>
       <use xlink:href="#DejaVuSerif-2212" transform="translate(128.154453 37.046875) scale(0.7)"/>
       <use xlink:href="#DejaVuSerif-31" transform="translate(186.806797 37.046875) scale(0.7)"/>
      </g>
     </g>
    </g>
    <g id="xtick_5">
     <g id="line2d_5">
      <g>
       <use xlink:href="#m1c4a95fcb4" x="413.170923" y="312.856" style="stroke: #000000; stroke-width: 0.8"/>
      </g>
     </g>
     <g id="text_5">
      <!-- $\mathdefault{10^{0}}$ -->
      <g transform="translate(395.570923 335.052875) scale(0.2 -0.2)">
       <use xlink:href="#DejaVuSerif-31" transform="translate(0 0.7125)"/>
       <use xlink:href="#DejaVuSerif-30" transform="translate(63.623047 0.7125)"/>
       <use xlink:href="#DejaVuSerif-30" transform="translate(128.154453 37.046875) scale(0.7)"/>
      </g>
     </g>
    </g>
    <g id="xtick_6">
     <g id="line2d_6">
      <g>
       <use xlink:href="#m1c4a95fcb4" x="479.278174" y="312.856" style="stroke: #000000; stroke-width: 0.8"/>
      </g>
     </g>
     <g id="text_6">
      <!-- $\mathdefault{10^{1}}$ -->
      <g transform="translate(461.678174 335.052875) scale(0.2 -0.2)">
       <use xlink:href="#DejaVuSerif-31" transform="translate(0 0.7125)"/>
       <use xlink:href="#DejaVuSerif-30" transform="translate(63.623047 0.7125)"/>
       <use xlink:href="#DejaVuSerif-31" transform="translate(128.154453 37.046875) scale(0.7)"/>
      </g>
     </g>
    </g>
    <g id="xtick_7">
     <g id="line2d_7">
      <defs>
       <path id="mcf6c59b16c" d="M 0 0 
L 0 2 
" style="stroke: #000000; stroke-width: 0.6"/>
      </defs>
      <g>
       <use xlink:href="#mcf6c59b16c" x="114.175842" y="312.856" style="stroke: #000000; stroke-width: 0.6"/>
      </g>
     </g>
    </g>
    <g id="xtick_8">
     <g id="line2d_8">
      <g>
       <use xlink:href="#mcf6c59b16c" x="122.435199" y="312.856" style="stroke: #000000; stroke-width: 0.6"/>
      </g>
     </g>
    </g>
    <g id="xtick_9">
     <g id="line2d_9">
      <g>
       <use xlink:href="#mcf6c59b16c" x="128.841653" y="312.856" style="stroke: #000000; stroke-width: 0.6"/>
      </g>
     </g>
    </g>
    <g id="xtick_10">
     <g id="line2d_10">
      <g>
       <use xlink:href="#mcf6c59b16c" x="134.076108" y="312.856" style="stroke: #000000; stroke-width: 0.6"/>
      </g>
     </g>
    </g>
    <g id="xtick_11">
     <g id="line2d_11">
      <g>
       <use xlink:href="#mcf6c59b16c" x="138.501776" y="312.856" style="stroke: #000000; stroke-width: 0.6"/>
      </g>
     </g>
    </g>
    <g id="xtick_12">
     <g id="line2d_12">
      <g>
       <use xlink:href="#mcf6c59b16c" x="142.335464" y="312.856" style="stroke: #000000; stroke-width: 0.6"/>
      </g>
     </g>
    </g>
    <g id="xtick_13">
     <g id="line2d_13">
      <g>
       <use xlink:href="#mcf6c59b16c" x="145.717017" y="312.856" style="stroke: #000000; stroke-width: 0.6"/>
      </g>
     </g>
    </g>
    <g id="xtick_14">
     <g id="line2d_14">
      <g>
       <use xlink:href="#mcf6c59b16c" x="168.642184" y="312.856" style="stroke: #000000; stroke-width: 0.6"/>
      </g>
     </g>
    </g>
    <g id="xtick_15">
     <g id="line2d_15">
      <g>
       <use xlink:href="#mcf6c59b16c" x="180.283093" y="312.856" style="stroke: #000000; stroke-width: 0.6"/>
      </g>
     </g>
    </g>
    <g id="xtick_16">
     <g id="line2d_16">
      <g>
       <use xlink:href="#mcf6c59b16c" x="188.54245" y="312.856" style="stroke: #000000; stroke-width: 0.6"/>
      </g>
     </g>
    </g>
    <g id="xtick_17">
     <g id="line2d_17">
      <g>
       <use xlink:href="#mcf6c59b16c" x="194.948904" y="312.856" style="stroke: #000000; stroke-width: 0.6"/>
      </g>
     </g>
    </g>
    <g id="xtick_18">
     <g id="line2d_18">
      <g>
       <use xlink:href="#mcf6c59b16c" x="200.183359" y="312.856" style="stroke: #000000; stroke-width: 0.6"/>
      </g>
     </g>
    </g>
    <g id="xtick_19">
     <g id="line2d_19">
      <g>
       <use xlink:href="#mcf6c59b16c" x="204.609027" y="312.856" style="stroke: #000000; stroke-width: 0.6"/>
      </g>
     </g>
    </g>
    <g id="xtick_20">
     <g id="line2d_20">
      <g>
       <use xlink:href="#mcf6c59b16c" x="208.442715" y="312.856" style="stroke: #000000; stroke-width: 0.6"/>
      </g>
     </g>
    </g>
    <g id="xtick_21">
     <g id="line2d_21">
      <g>
       <use xlink:href="#mcf6c59b16c" x="211.824268" y="312.856" style="stroke: #000000; stroke-width: 0.6"/>
      </g>
     </g>
    </g>
    <g id="xtick_22">
     <g id="line2d_22">
      <g>
       <use xlink:href="#mcf6c59b16c" x="234.749435" y="312.856" style="stroke: #000000; stroke-width: 0.6"/>
      </g>
     </g>
    </g>
    <g id="xtick_23">
     <g id="line2d_23">
      <g>
       <use xlink:href="#mcf6c59b16c" x="246.390344" y="312.856" style="stroke: #000000; stroke-width: 0.6"/>
      </g>
     </g>
    </g>
    <g id="xtick_24">
     <g id="line2d_24">
      <g>
       <use xlink:href="#mcf6c59b16c" x="254.649701" y="312.856" style="stroke: #000000; stroke-width: 0.6"/>
      </g>
     </g>
    </g>
    <g id="xtick_25">
     <g id="line2d_25">
      <g>
       <use xlink:href="#mcf6c59b16c" x="261.056155" y="312.856" style="stroke: #000000; stroke-width: 0.6"/>
      </g>
     </g>
    </g>
    <g id="xtick_26">
     <g id="line2d_26">
      <g>
       <use xlink:href="#mcf6c59b16c" x="266.29061" y="312.856" style="stroke: #000000; stroke-width: 0.6"/>
      </g>
     </g>
    </g>
    <g id="xtick_27">
     <g id="line2d_27">
      <g>
       <use xlink:href="#mcf6c59b16c" x="270.716278" y="312.856" style="stroke: #000000; stroke-width: 0.6"/>
      </g>
     </g>
    </g>
    <g id="xtick_28">
     <g id="line2d_28">
      <g>
       <use xlink:href="#mcf6c59b16c" x="274.549966" y="312.856" style="stroke: #000000; stroke-width: 0.6"/>
      </g>
     </g>
    </g>
    <g id="xtick_29">
     <g id="line2d_29">
      <g>
       <use xlink:href="#mcf6c59b16c" x="277.931519" y="312.856" style="stroke: #000000; stroke-width: 0.6"/>
      </g>
     </g>
    </g>
    <g id="xtick_30">
     <g id="line2d_30">
      <g>
       <use xlink:href="#mcf6c59b16c" x="300.856686" y="312.856" style="stroke: #000000; stroke-width: 0.6"/>
      </g>
     </g>
    </g>
    <g id="xtick_31">
     <g id="line2d_31">
      <g>
       <use xlink:href="#mcf6c59b16c" x="312.497595" y="312.856" style="stroke: #000000; stroke-width: 0.6"/>
      </g>
     </g>
    </g>
    <g id="xtick_32">
     <g id="line2d_32">
      <g>
       <use xlink:href="#mcf6c59b16c" x="320.756952" y="312.856" style="stroke: #000000; stroke-width: 0.6"/>
      </g>
     </g>
    </g>
    <g id="xtick_33">
     <g id="line2d_33">
      <g>
       <use xlink:href="#mcf6c59b16c" x="327.163406" y="312.856" style="stroke: #000000; stroke-width: 0.6"/>
      </g>
     </g>
    </g>
    <g id="xtick_34">
     <g id="line2d_34">
      <g>
       <use xlink:href="#mcf6c59b16c" x="332.397861" y="312.856" style="stroke: #000000; stroke-width: 0.6"/>
      </g>
     </g>
    </g>
    <g id="xtick_35">
     <g id="line2d_35">
      <g>
       <use xlink:href="#mcf6c59b16c" x="336.823529" y="312.856" style="stroke: #000000; stroke-width: 0.6"/>
      </g>
     </g>
    </g>
    <g id="xtick_36">
     <g id="line2d_36">
      <g>
       <use xlink:href="#mcf6c59b16c" x="340.657217" y="312.856" style="stroke: #000000; stroke-width: 0.6"/>
      </g>
     </g>
    </g>
    <g id="xtick_37">
     <g id="line2d_37">
      <g>
       <use xlink:href="#mcf6c59b16c" x="344.03877" y="312.856" style="stroke: #000000; stroke-width: 0.6"/>
      </g>
     </g>
    </g>
    <g id="xtick_38">
     <g id="line2d_38">
      <g>
       <use xlink:href="#mcf6c59b16c" x="366.963937" y="312.856" style="stroke: #000000; stroke-width: 0.6"/>
      </g>
     </g>
    </g>
    <g id="xtick_39">
     <g id="line2d_39">
      <g>
       <use xlink:href="#mcf6c59b16c" x="378.604846" y="312.856" style="stroke: #000000; stroke-width: 0.6"/>
      </g>
     </g>
    </g>
    <g id="xtick_40">
     <g id="line2d_40">
      <g>
       <use xlink:href="#mcf6c59b16c" x="386.864203" y="312.856" style="stroke: #000000; stroke-width: 0.6"/>
      </g>
     </g>
    </g>
    <g id="xtick_41">
     <g id="line2d_41">
      <g>
       <use xlink:href="#mcf6c59b16c" x="393.270657" y="312.856" style="stroke: #000000; stroke-width: 0.6"/>
      </g>
     </g>
    </g>
    <g id="xtick_42">
     <g id="line2d_42">
      <g>
       <use xlink:href="#mcf6c59b16c" x="398.505112" y="312.856" style="stroke: #000000; stroke-width: 0.6"/>
      </g>
     </g>
    </g>
    <g id="xtick_43">
     <g id="line2d_43">
      <g>
       <use xlink:href="#mcf6c59b16c" x="402.93078" y="312.856" style="stroke: #000000; stroke-width: 0.6"/>
      </g>
     </g>
    </g>
    <g id="xtick_44">
     <g id="line2d_44">
      <g>
       <use xlink:href="#mcf6c59b16c" x="406.764468" y="312.856" style="stroke: #000000; stroke-width: 0.6"/>
      </g>
     </g>
    </g>
    <g id="xtick_45">
     <g id="line2d_45">
      <g>
       <use xlink:href="#mcf6c59b16c" x="410.146021" y="312.856" style="stroke: #000000; stroke-width: 0.6"/>
      </g>
     </g>
    </g>
    <g id="xtick_46">
     <g id="line2d_46">
      <g>
       <use xlink:href="#mcf6c59b16c" x="433.071188" y="312.856" style="stroke: #000000; stroke-width: 0.6"/>
      </g>
     </g>
    </g>
    <g id="xtick_47">
     <g id="line2d_47">
      <g>
       <use xlink:href="#mcf6c59b16c" x="444.712097" y="312.856" style="stroke: #000000; stroke-width: 0.6"/>
      </g>
     </g>
    </g>
    <g id="xtick_48">
     <g id="line2d_48">
      <g>
       <use xlink:href="#mcf6c59b16c" x="452.971454" y="312.856" style="stroke: #000000; stroke-width: 0.6"/>
      </g>
     </g>
    </g>
    <g id="xtick_49">
     <g id="line2d_49">
      <g>
       <use xlink:href="#mcf6c59b16c" x="459.377908" y="312.856" style="stroke: #000000; stroke-width: 0.6"/>
      </g>
     </g>
    </g>
    <g id="xtick_50">
     <g id="line2d_50">
      <g>
       <use xlink:href="#mcf6c59b16c" x="464.612363" y="312.856" style="stroke: #000000; stroke-width: 0.6"/>
      </g>
     </g>
    </g>
    <g id="xtick_51">
     <g id="line2d_51">
      <g>
       <use xlink:href="#mcf6c59b16c" x="469.038031" y="312.856" style="stroke: #000000; stroke-width: 0.6"/>
      </g>
     </g>
    </g>
    <g id="xtick_52">
     <g id="line2d_52">
      <g>
       <use xlink:href="#mcf6c59b16c" x="472.871719" y="312.856" style="stroke: #000000; stroke-width: 0.6"/>
      </g>
     </g>
    </g>
    <g id="xtick_53">
     <g id="line2d_53">
      <g>
       <use xlink:href="#mcf6c59b16c" x="476.253272" y="312.856" style="stroke: #000000; stroke-width: 0.6"/>
      </g>
     </g>
    </g>
    <g id="text_7">
     <!-- Temperature, $T/T_F$ -->
     <g transform="translate(211.459914 358.3685) scale(0.2 -0.2)">
      <defs>
       <path id="DejaVuSerif-54" d="M 1222 0 
L 1222 331 
L 1819 331 
L 1819 4294 
L 447 4294 
L 447 3566 
L 63 3566 
L 63 4666 
L 4206 4666 
L 4206 3566 
L 3822 3566 
L 3822 4294 
L 2450 4294 
L 2450 331 
L 3047 331 
L 3047 0 
L 1222 0 
z
" transform="scale(0.015625)"/>
       <path id="DejaVuSerif-65" d="M 3469 1600 
L 991 1600 
L 991 1575 
Q 991 903 1244 561 
Q 1497 219 1991 219 
Q 2369 219 2611 417 
Q 2853 616 2950 1006 
L 3413 1006 
Q 3275 459 2904 184 
Q 2534 -91 1931 -91 
Q 1203 -91 761 389 
Q 319 869 319 1663 
Q 319 2450 753 2931 
Q 1188 3413 1894 3413 
Q 2647 3413 3050 2948 
Q 3453 2484 3469 1600 
z
M 2791 1931 
Q 2772 2513 2545 2808 
Q 2319 3103 1894 3103 
Q 1497 3103 1269 2806 
Q 1041 2509 991 1931 
L 2791 1931 
z
" transform="scale(0.015625)"/>
       <path id="DejaVuSerif-6d" d="M 3316 2675 
Q 3481 3041 3739 3227 
Q 3997 3413 4341 3413 
Q 4863 3413 5119 3089 
Q 5375 2766 5375 2113 
L 5375 331 
L 5894 331 
L 5894 0 
L 4300 0 
L 4300 331 
L 4800 331 
L 4800 2047 
Q 4800 2556 4650 2772 
Q 4500 2988 4153 2988 
Q 3769 2988 3567 2697 
Q 3366 2406 3366 1850 
L 3366 331 
L 3866 331 
L 3866 0 
L 2291 0 
L 2291 331 
L 2791 331 
L 2791 2069 
Q 2791 2566 2641 2777 
Q 2491 2988 2144 2988 
Q 1759 2988 1557 2697 
Q 1356 2406 1356 1850 
L 1356 331 
L 1856 331 
L 1856 0 
L 263 0 
L 263 331 
L 781 331 
L 781 2994 
L 231 2994 
L 231 3322 
L 1356 3322 
L 1356 2731 
Q 1516 3063 1762 3238 
Q 2009 3413 2322 3413 
Q 2709 3413 2968 3220 
Q 3228 3028 3316 2675 
z
" transform="scale(0.015625)"/>
       <path id="DejaVuSerif-70" d="M 1313 1825 
L 1313 1497 
Q 1313 897 1542 583 
Q 1772 269 2209 269 
Q 2650 269 2876 622 
Q 3103 975 3103 1663 
Q 3103 2353 2876 2703 
Q 2650 3053 2209 3053 
Q 1772 3053 1542 2737 
Q 1313 2422 1313 1825 
z
M 738 2988 
L 184 2988 
L 184 3322 
L 1313 3322 
L 1313 2803 
Q 1481 3116 1742 3264 
Q 2003 3413 2388 3413 
Q 3000 3413 3387 2928 
Q 3775 2444 3775 1663 
Q 3775 881 3387 395 
Q 3000 -91 2388 -91 
Q 2003 -91 1742 57 
Q 1481 206 1313 519 
L 1313 -997 
L 1856 -997 
L 1856 -1331 
L 184 -1331 
L 184 -997 
L 738 -997 
L 738 2988 
z
" transform="scale(0.015625)"/>
       <path id="DejaVuSerif-72" d="M 3059 3328 
L 3059 2497 
L 2728 2497 
Q 2713 2744 2591 2866 
Q 2469 2988 2234 2988 
Q 1809 2988 1582 2694 
Q 1356 2400 1356 1850 
L 1356 331 
L 2022 331 
L 2022 0 
L 263 0 
L 263 331 
L 781 331 
L 781 2994 
L 231 2994 
L 231 3322 
L 1356 3322 
L 1356 2731 
Q 1525 3078 1790 3245 
Q 2056 3413 2438 3413 
Q 2578 3413 2733 3391 
Q 2888 3369 3059 3328 
z
" transform="scale(0.015625)"/>
       <path id="DejaVuSerif-61" d="M 2547 1044 
L 2547 1747 
L 1806 1747 
Q 1378 1747 1168 1562 
Q 959 1378 959 997 
Q 959 650 1171 447 
Q 1384 244 1747 244 
Q 2106 244 2326 466 
Q 2547 688 2547 1044 
z
M 3122 2075 
L 3122 331 
L 3634 331 
L 3634 0 
L 2547 0 
L 2547 359 
Q 2356 128 2106 18 
Q 1856 -91 1522 -91 
Q 969 -91 644 203 
Q 319 497 319 997 
Q 319 1513 691 1797 
Q 1063 2081 1741 2081 
L 2547 2081 
L 2547 2309 
Q 2547 2688 2317 2895 
Q 2088 3103 1672 3103 
Q 1328 3103 1125 2947 
Q 922 2791 872 2484 
L 575 2484 
L 575 3156 
Q 875 3284 1158 3348 
Q 1441 3413 1709 3413 
Q 2400 3413 2761 3070 
Q 3122 2728 3122 2075 
z
" transform="scale(0.015625)"/>
       <path id="DejaVuSerif-74" d="M 691 2988 
L 184 2988 
L 184 3322 
L 691 3322 
L 691 4353 
L 1269 4353 
L 1269 3322 
L 2350 3322 
L 2350 2988 
L 1269 2988 
L 1269 878 
Q 1269 456 1350 337 
Q 1431 219 1650 219 
Q 1875 219 1978 351 
Q 2081 484 2088 781 
L 2522 781 
Q 2497 328 2275 118 
Q 2053 -91 1600 -91 
Q 1103 -91 897 129 
Q 691 350 691 878 
L 691 2988 
z
" transform="scale(0.015625)"/>
       <path id="DejaVuSerif-75" d="M 2266 3322 
L 3341 3322 
L 3341 331 
L 3884 331 
L 3884 0 
L 2766 0 
L 2766 588 
Q 2606 256 2353 82 
Q 2100 -91 1766 -91 
Q 1213 -91 952 223 
Q 691 538 691 1209 
L 691 2988 
L 172 2988 
L 172 3322 
L 1269 3322 
L 1269 1388 
Q 1269 781 1417 556 
Q 1566 331 1947 331 
Q 2347 331 2556 625 
Q 2766 919 2766 1478 
L 2766 2988 
L 2266 2988 
L 2266 3322 
z
" transform="scale(0.015625)"/>
       <path id="DejaVuSerif-2c" d="M 231 -622 
Q 525 -406 662 -114 
Q 800 178 800 594 
L 800 709 
L 1416 709 
Q 1391 175 1164 -208 
Q 938 -591 481 -872 
L 231 -622 
z
" transform="scale(0.015625)"/>
       <path id="DejaVuSerif-20" transform="scale(0.015625)"/>
       <path id="DejaVuSans-Oblique-54" d="M 378 4666 
L 4325 4666 
L 4225 4134 
L 2559 4134 
L 1759 0 
L 1125 0 
L 1925 4134 
L 275 4134 
L 378 4666 
z
" transform="scale(0.015625)"/>
       <path id="DejaVuSans-2f" d="M 1625 4666 
L 2156 4666 
L 531 -594 
L 0 -594 
L 1625 4666 
z
" transform="scale(0.015625)"/>
       <path id="DejaVuSans-Oblique-46" d="M 1081 4666 
L 3756 4666 
L 3653 4134 
L 1606 4134 
L 1338 2759 
L 3188 2759 
L 3084 2228 
L 1234 2228 
L 800 0 
L 172 0 
L 1081 4666 
z
" transform="scale(0.015625)"/>
      </defs>
      <use xlink:href="#DejaVuSerif-54" transform="translate(0 0.09375)"/>
      <use xlink:href="#DejaVuSerif-65" transform="translate(66.699219 0.09375)"/>
      <use xlink:href="#DejaVuSerif-6d" transform="translate(125.878906 0.09375)"/>
      <use xlink:href="#DejaVuSerif-70" transform="translate(220.703125 0.09375)"/>
      <use xlink:href="#DejaVuSerif-65" transform="translate(284.716797 0.09375)"/>
      <use xlink:href="#DejaVuSerif-72" transform="translate(343.896484 0.09375)"/>
      <use xlink:href="#DejaVuSerif-61" transform="translate(391.699219 0.09375)"/>
      <use xlink:href="#DejaVuSerif-74" transform="translate(451.318359 0.09375)"/>
      <use xlink:href="#DejaVuSerif-75" transform="translate(491.503906 0.09375)"/>
      <use xlink:href="#DejaVuSerif-72" transform="translate(555.908203 0.09375)"/>
      <use xlink:href="#DejaVuSerif-65" transform="translate(603.710938 0.09375)"/>
      <use xlink:href="#DejaVuSerif-2c" transform="translate(662.890625 0.09375)"/>
      <use xlink:href="#DejaVuSerif-20" transform="translate(694.677734 0.09375)"/>
      <use xlink:href="#DejaVuSans-Oblique-54" transform="translate(726.464844 0.09375)"/>
      <use xlink:href="#DejaVuSans-2f" transform="translate(787.548828 0.09375)"/>
      <use xlink:href="#DejaVuSans-Oblique-54" transform="translate(821.240234 0.09375)"/>
      <use xlink:href="#DejaVuSans-Oblique-46" transform="translate(882.324219 -16.3125) scale(0.7)"/>
     </g>
    </g>
   </g>
   <g id="matplotlib.axis_2">
    <g id="ytick_1">
     <g id="line2d_54">
      <defs>
       <path id="m58f4b0b495" d="M 0 0 
L -3.5 0 
" style="stroke: #000000; stroke-width: 0.8"/>
      </defs>
      <g>
       <use xlink:href="#m58f4b0b495" x="111.319827" y="279.976124" style="stroke: #000000; stroke-width: 0.8"/>
      </g>
     </g>
     <g id="text_8">
      <!-- $\mathdefault{10^{-12}}$ -->
      <g transform="translate(48.519827 287.574562) scale(0.2 -0.2)">
       <use xlink:href="#DejaVuSerif-31" transform="translate(0 0.7125)"/>
       <use xlink:href="#DejaVuSerif-30" transform="translate(63.623047 0.7125)"/>
       <use xlink:href="#DejaVuSerif-2212" transform="translate(128.154453 37.046875) scale(0.7)"/>
       <use xlink:href="#DejaVuSerif-31" transform="translate(186.806797 37.046875) scale(0.7)"/>
       <use xlink:href="#DejaVuSerif-32" transform="translate(231.34293 37.046875) scale(0.7)"/>
      </g>
     </g>
    </g>
    <g id="ytick_2">
     <g id="line2d_55">
      <g>
       <use xlink:href="#m58f4b0b495" x="111.319827" y="232.018921" style="stroke: #000000; stroke-width: 0.8"/>
      </g>
     </g>
     <g id="text_9">
      <!-- $\mathdefault{10^{-10}}$ -->
      <g transform="translate(48.519827 239.617359) scale(0.2 -0.2)">
       <use xlink:href="#DejaVuSerif-31" transform="translate(0 0.7125)"/>
       <use xlink:href="#DejaVuSerif-30" transform="translate(63.623047 0.7125)"/>
       <use xlink:href="#DejaVuSerif-2212" transform="translate(128.154453 37.046875) scale(0.7)"/>
       <use xlink:href="#DejaVuSerif-31" transform="translate(186.806797 37.046875) scale(0.7)"/>
       <use xlink:href="#DejaVuSerif-30" transform="translate(231.34293 37.046875) scale(0.7)"/>
      </g>
     </g>
    </g>
    <g id="ytick_3">
     <g id="line2d_56">
      <g>
       <use xlink:href="#m58f4b0b495" x="111.319827" y="184.061718" style="stroke: #000000; stroke-width: 0.8"/>
      </g>
     </g>
     <g id="text_10">
      <!-- $\mathdefault{10^{-8}}$ -->
      <g transform="translate(57.519827 191.660156) scale(0.2 -0.2)">
       <defs>
        <path id="DejaVuSerif-38" d="M 2981 1275 
Q 2981 1775 2732 2051 
Q 2484 2328 2034 2328 
Q 1584 2328 1336 2051 
Q 1088 1775 1088 1275 
Q 1088 772 1336 495 
Q 1584 219 2034 219 
Q 2484 219 2732 495 
Q 2981 772 2981 1275 
z
M 2853 3541 
Q 2853 3966 2637 4203 
Q 2422 4441 2034 4441 
Q 1650 4441 1433 4203 
Q 1216 3966 1216 3541 
Q 1216 3113 1433 2875 
Q 1650 2638 2034 2638 
Q 2422 2638 2637 2875 
Q 2853 3113 2853 3541 
z
M 2516 2484 
Q 3047 2413 3344 2092 
Q 3641 1772 3641 1275 
Q 3641 619 3225 264 
Q 2809 -91 2034 -91 
Q 1263 -91 845 264 
Q 428 619 428 1275 
Q 428 1772 725 2092 
Q 1022 2413 1556 2484 
Q 1084 2569 832 2842 
Q 581 3116 581 3541 
Q 581 4103 968 4426 
Q 1356 4750 2034 4750 
Q 2713 4750 3100 4426 
Q 3488 4103 3488 3541 
Q 3488 3116 3236 2842 
Q 2984 2569 2516 2484 
z
" transform="scale(0.015625)"/>
       </defs>
       <use xlink:href="#DejaVuSerif-31" transform="translate(0 0.7125)"/>
       <use xlink:href="#DejaVuSerif-30" transform="translate(63.623047 0.7125)"/>
       <use xlink:href="#DejaVuSerif-2212" transform="translate(128.154453 37.046875) scale(0.7)"/>
       <use xlink:href="#DejaVuSerif-38" transform="translate(186.806797 37.046875) scale(0.7)"/>
      </g>
     </g>
    </g>
    <g id="ytick_4">
     <g id="line2d_57">
      <g>
       <use xlink:href="#m58f4b0b495" x="111.319827" y="136.104515" style="stroke: #000000; stroke-width: 0.8"/>
      </g>
     </g>
     <g id="text_11">
      <!-- $\mathdefault{10^{-6}}$ -->
      <g transform="translate(57.519827 143.702953) scale(0.2 -0.2)">
       <defs>
        <path id="DejaVuSerif-36" d="M 2094 219 
Q 2534 219 2771 542 
Q 3009 866 3009 1472 
Q 3009 2078 2771 2401 
Q 2534 2725 2094 2725 
Q 1647 2725 1412 2412 
Q 1178 2100 1178 1509 
Q 1178 888 1415 553 
Q 1653 219 2094 219 
z
M 1075 2569 
Q 1288 2803 1556 2918 
Q 1825 3034 2163 3034 
Q 2859 3034 3264 2615 
Q 3669 2197 3669 1472 
Q 3669 763 3233 336 
Q 2797 -91 2069 -91 
Q 1278 -91 853 498 
Q 428 1088 428 2181 
Q 428 3406 931 4078 
Q 1434 4750 2350 4750 
Q 2597 4750 2869 4703 
Q 3141 4656 3425 4563 
L 3425 3794 
L 3072 3794 
Q 3034 4109 2831 4275 
Q 2628 4441 2284 4441 
Q 1678 4441 1381 3981 
Q 1084 3522 1075 2569 
z
" transform="scale(0.015625)"/>
       </defs>
       <use xlink:href="#DejaVuSerif-31" transform="translate(0 0.7125)"/>
       <use xlink:href="#DejaVuSerif-30" transform="translate(63.623047 0.7125)"/>
       <use xlink:href="#DejaVuSerif-2212" transform="translate(128.154453 37.046875) scale(0.7)"/>
       <use xlink:href="#DejaVuSerif-36" transform="translate(186.806797 37.046875) scale(0.7)"/>
      </g>
     </g>
    </g>
    <g id="ytick_5">
     <g id="line2d_58">
      <g>
       <use xlink:href="#m58f4b0b495" x="111.319827" y="88.147312" style="stroke: #000000; stroke-width: 0.8"/>
      </g>
     </g>
     <g id="text_12">
      <!-- $\mathdefault{10^{-4}}$ -->
      <g transform="translate(57.519827 95.74575) scale(0.2 -0.2)">
       <use xlink:href="#DejaVuSerif-31" transform="translate(0 0.7125)"/>
       <use xlink:href="#DejaVuSerif-30" transform="translate(63.623047 0.7125)"/>
       <use xlink:href="#DejaVuSerif-2212" transform="translate(128.154453 37.046875) scale(0.7)"/>
       <use xlink:href="#DejaVuSerif-34" transform="translate(186.806797 37.046875) scale(0.7)"/>
      </g>
     </g>
    </g>
    <g id="ytick_6">
     <g id="line2d_59">
      <g>
       <use xlink:href="#m58f4b0b495" x="111.319827" y="40.190109" style="stroke: #000000; stroke-width: 0.8"/>
      </g>
     </g>
     <g id="text_13">
      <!-- $\mathdefault{10^{-2}}$ -->
      <g transform="translate(57.519827 47.788547) scale(0.2 -0.2)">
       <use xlink:href="#DejaVuSerif-31" transform="translate(0 0.7125)"/>
       <use xlink:href="#DejaVuSerif-30" transform="translate(63.623047 0.7125)"/>
       <use xlink:href="#DejaVuSerif-2212" transform="translate(128.154453 37.046875) scale(0.7)"/>
       <use xlink:href="#DejaVuSerif-32" transform="translate(186.806797 37.046875) scale(0.7)"/>
      </g>
     </g>
    </g>
    <g id="text_14">
     <!-- Decay rate (eigenvalue), $\gamma_m$ -->
     <g transform="translate(39.919827 307.628) rotate(-90) scale(0.2 -0.2)">
      <defs>
       <path id="DejaVuSerif-44" d="M 1581 331 
L 2163 331 
Q 3072 331 3558 850 
Q 4044 1369 4044 2338 
Q 4044 3306 3559 3818 
Q 3075 4331 2163 4331 
L 1581 4331 
L 1581 331 
z
M 353 0 
L 353 331 
L 947 331 
L 947 4331 
L 353 4331 
L 353 4666 
L 2209 4666 
Q 3416 4666 4089 4050 
Q 4763 3434 4763 2338 
Q 4763 1238 4088 619 
Q 3413 0 2209 0 
L 353 0 
z
" transform="scale(0.015625)"/>
       <path id="DejaVuSerif-63" d="M 3291 997 
Q 3169 466 2822 187 
Q 2475 -91 1925 -91 
Q 1200 -91 759 389 
Q 319 869 319 1663 
Q 319 2459 759 2936 
Q 1200 3413 1925 3413 
Q 2241 3413 2553 3339 
Q 2866 3266 3181 3116 
L 3181 2266 
L 2847 2266 
Q 2781 2703 2561 2903 
Q 2341 3103 1931 3103 
Q 1466 3103 1228 2742 
Q 991 2381 991 1663 
Q 991 944 1227 581 
Q 1463 219 1931 219 
Q 2303 219 2525 412 
Q 2747 606 2828 997 
L 3291 997 
z
" transform="scale(0.015625)"/>
       <path id="DejaVuSerif-79" d="M 1381 -609 
L 1600 -56 
L 359 2988 
L -19 2988 
L -19 3322 
L 1509 3322 
L 1509 2988 
L 978 2988 
L 1913 703 
L 2847 2988 
L 2350 2988 
L 2350 3322 
L 3597 3322 
L 3597 2988 
L 3225 2988 
L 1703 -750 
Q 1547 -1138 1356 -1280 
Q 1166 -1422 819 -1422 
Q 672 -1422 517 -1397 
Q 363 -1372 206 -1325 
L 206 -691 
L 500 -691 
Q 519 -903 608 -995 
Q 697 -1088 884 -1088 
Q 1056 -1088 1161 -992 
Q 1266 -897 1381 -609 
z
" transform="scale(0.015625)"/>
       <path id="DejaVuSerif-28" d="M 2041 -997 
Q 1281 -656 893 83 
Q 506 822 506 1931 
Q 506 3044 893 3783 
Q 1281 4522 2041 4863 
L 2041 4556 
Q 1559 4225 1350 3623 
Q 1141 3022 1141 1931 
Q 1141 844 1350 242 
Q 1559 -359 2041 -691 
L 2041 -997 
z
" transform="scale(0.015625)"/>
       <path id="DejaVuSerif-69" d="M 622 4353 
Q 622 4497 726 4603 
Q 831 4709 978 4709 
Q 1122 4709 1226 4603 
Q 1331 4497 1331 4353 
Q 1331 4206 1228 4103 
Q 1125 4000 978 4000 
Q 831 4000 726 4103 
Q 622 4206 622 4353 
z
M 1356 331 
L 1900 331 
L 1900 0 
L 231 0 
L 231 331 
L 781 331 
L 781 2988 
L 231 2988 
L 231 3322 
L 1356 3322 
L 1356 331 
z
" transform="scale(0.015625)"/>
       <path id="DejaVuSerif-67" d="M 3359 2988 
L 3359 72 
Q 3359 -644 2965 -1033 
Q 2572 -1422 1844 -1422 
Q 1516 -1422 1216 -1362 
Q 916 -1303 641 -1184 
L 641 -488 
L 941 -488 
Q 997 -813 1206 -963 
Q 1416 -1113 1806 -1113 
Q 2313 -1113 2548 -827 
Q 2784 -541 2784 72 
L 2784 519 
Q 2616 206 2355 57 
Q 2094 -91 1709 -91 
Q 1097 -91 708 395 
Q 319 881 319 1663 
Q 319 2444 706 2928 
Q 1094 3413 1709 3413 
Q 2094 3413 2355 3264 
Q 2616 3116 2784 2803 
L 2784 3322 
L 3909 3322 
L 3909 2988 
L 3359 2988 
z
M 2784 1825 
Q 2784 2422 2554 2737 
Q 2325 3053 1888 3053 
Q 1444 3053 1217 2703 
Q 991 2353 991 1663 
Q 991 975 1217 622 
Q 1444 269 1888 269 
Q 2325 269 2554 583 
Q 2784 897 2784 1497 
L 2784 1825 
z
" transform="scale(0.015625)"/>
       <path id="DejaVuSerif-6e" d="M 263 0 
L 263 331 
L 781 331 
L 781 2988 
L 231 2988 
L 231 3322 
L 1356 3322 
L 1356 2731 
Q 1516 3069 1770 3241 
Q 2025 3413 2363 3413 
Q 2913 3413 3172 3097 
Q 3431 2781 3431 2113 
L 3431 331 
L 3944 331 
L 3944 0 
L 2356 0 
L 2356 331 
L 2853 331 
L 2853 1931 
Q 2853 2541 2703 2767 
Q 2553 2994 2175 2994 
Q 1775 2994 1565 2701 
Q 1356 2409 1356 1850 
L 1356 331 
L 1856 331 
L 1856 0 
L 263 0 
z
" transform="scale(0.015625)"/>
       <path id="DejaVuSerif-76" d="M 1581 0 
L 359 2988 
L -19 2988 
L -19 3322 
L 1509 3322 
L 1509 2988 
L 978 2988 
L 1913 703 
L 2847 2988 
L 2350 2988 
L 2350 3322 
L 3597 3322 
L 3597 2988 
L 3225 2988 
L 2003 0 
L 1581 0 
z
" transform="scale(0.015625)"/>
       <path id="DejaVuSerif-6c" d="M 1313 331 
L 1856 331 
L 1856 0 
L 184 0 
L 184 331 
L 738 331 
L 738 4531 
L 184 4531 
L 184 4863 
L 1313 4863 
L 1313 331 
z
" transform="scale(0.015625)"/>
       <path id="DejaVuSerif-29" d="M 453 -997 
L 453 -691 
Q 934 -359 1145 242 
Q 1356 844 1356 1931 
Q 1356 3022 1145 3623 
Q 934 4225 453 4556 
L 453 4863 
Q 1216 4522 1603 3783 
Q 1991 3044 1991 1931 
Q 1991 822 1603 83 
Q 1216 -656 453 -997 
z
" transform="scale(0.015625)"/>
       <path id="DejaVuSans-Oblique-3b3" d="M 1491 2950 
L 1838 788 
L 3456 3500 
L 4066 3500 
L 1972 0 
L 1713 -1331 
L 1138 -1331 
L 1397 0 
L 988 2613 
Q 925 3006 628 3006 
L 475 3006 
L 569 3500 
L 788 3500 
Q 1403 3500 1491 2950 
z
" transform="scale(0.015625)"/>
       <path id="DejaVuSans-Oblique-6d" d="M 5747 2113 
L 5338 0 
L 4763 0 
L 5166 2094 
Q 5191 2228 5203 2325 
Q 5216 2422 5216 2491 
Q 5216 2772 5059 2928 
Q 4903 3084 4622 3084 
Q 4203 3084 3875 2770 
Q 3547 2456 3450 1953 
L 3066 0 
L 2491 0 
L 2900 2094 
Q 2925 2209 2937 2307 
Q 2950 2406 2950 2484 
Q 2950 2769 2794 2926 
Q 2638 3084 2363 3084 
Q 1938 3084 1609 2770 
Q 1281 2456 1184 1953 
L 800 0 
L 225 0 
L 909 3500 
L 1484 3500 
L 1375 2956 
Q 1609 3263 1923 3423 
Q 2238 3584 2597 3584 
Q 2978 3584 3223 3384 
Q 3469 3184 3519 2828 
Q 3781 3197 4126 3390 
Q 4472 3584 4856 3584 
Q 5306 3584 5551 3325 
Q 5797 3066 5797 2591 
Q 5797 2488 5784 2364 
Q 5772 2241 5747 2113 
z
" transform="scale(0.015625)"/>
      </defs>
      <use xlink:href="#DejaVuSerif-44" transform="translate(0 0.015625)"/>
      <use xlink:href="#DejaVuSerif-65" transform="translate(80.175781 0.015625)"/>
      <use xlink:href="#DejaVuSerif-63" transform="translate(139.355469 0.015625)"/>
      <use xlink:href="#DejaVuSerif-61" transform="translate(195.361328 0.015625)"/>
      <use xlink:href="#DejaVuSerif-79" transform="translate(254.980469 0.015625)"/>
      <use xlink:href="#DejaVuSerif-20" transform="translate(311.474609 0.015625)"/>
      <use xlink:href="#DejaVuSerif-72" transform="translate(343.261719 0.015625)"/>
      <use xlink:href="#DejaVuSerif-61" transform="translate(391.064453 0.015625)"/>
      <use xlink:href="#DejaVuSerif-74" transform="translate(450.683594 0.015625)"/>
      <use xlink:href="#DejaVuSerif-65" transform="translate(490.869141 0.015625)"/>
      <use xlink:href="#DejaVuSerif-20" transform="translate(550.048828 0.015625)"/>
      <use xlink:href="#DejaVuSerif-28" transform="translate(581.835938 0.015625)"/>
      <use xlink:href="#DejaVuSerif-65" transform="translate(620.849609 0.015625)"/>
      <use xlink:href="#DejaVuSerif-69" transform="translate(680.029297 0.015625)"/>
      <use xlink:href="#DejaVuSerif-67" transform="translate(712.011719 0.015625)"/>
      <use xlink:href="#DejaVuSerif-65" transform="translate(776.025391 0.015625)"/>
      <use xlink:href="#DejaVuSerif-6e" transform="translate(835.205078 0.015625)"/>
      <use xlink:href="#DejaVuSerif-76" transform="translate(899.609375 0.015625)"/>
      <use xlink:href="#DejaVuSerif-61" transform="translate(956.103516 0.015625)"/>
      <use xlink:href="#DejaVuSerif-6c" transform="translate(1015.722656 0.015625)"/>
      <use xlink:href="#DejaVuSerif-75" transform="translate(1047.705078 0.015625)"/>
      <use xlink:href="#DejaVuSerif-65" transform="translate(1112.109375 0.015625)"/>
      <use xlink:href="#DejaVuSerif-29" transform="translate(1171.289062 0.015625)"/>
      <use xlink:href="#DejaVuSerif-2c" transform="translate(1210.302734 0.015625)"/>
      <use xlink:href="#DejaVuSerif-20" transform="translate(1242.089844 0.015625)"/>
      <use xlink:href="#DejaVuSans-Oblique-3b3" transform="translate(1273.876953 0.015625)"/>
      <use xlink:href="#DejaVuSans-Oblique-6d" transform="translate(1333.056641 -16.390625) scale(0.7)"/>
     </g>
    </g>
   </g>
   <g id="line2d_60">
    <path d="M 128.841653 172.837557 
L 130.602641 169.403989 
L 132.363628 169.902534 
L 134.124616 167.614348 
L 135.885603 174.46306 
L 137.646591 164.00061 
L 139.407578 164.748906 
L 141.168566 169.8433 
L 142.929554 159.562951 
L 144.690541 161.510879 
L 146.451529 169.616345 
L 148.212516 157.113787 
L 149.973504 154.437333 
L 151.734491 155.26125 
L 153.495479 163.54462 
L 155.256466 153.792915 
L 157.017454 160.475132 
L 158.778441 149.372318 
L 160.539429 150.475709 
L 162.300416 159.439316 
L 164.061404 146.141584 
L 165.822392 149.013564 
L 167.583379 155.310579 
L 169.344367 153.581054 
L 171.105354 143.731538 
L 172.866342 152.029856 
L 174.627329 149.364729 
L 176.388317 141.931669 
L 178.149304 146.059222 
L 179.910292 147.000392 
L 181.671279 136.556321 
L 183.432267 136.238581 
L 185.193255 134.620147 
L 186.954242 134.622168 
L 188.71523 133.746969 
L 190.476217 132.017799 
L 192.237205 131.195679 
L 193.998192 131.48849 
L 195.75918 129.328897 
L 197.520167 128.683816 
L 199.281155 136.761197 
L 201.042142 127.29315 
L 202.80313 125.873773 
L 204.564117 125.428071 
L 206.325105 131.439438 
L 208.086093 122.979047 
L 209.84708 121.464105 
L 211.608068 121.385429 
L 213.369055 121.127282 
L 215.130043 119.360734 
L 216.450783 123.852668 
L 216.89103 118.925154 
L 218.652018 116.983929 
L 220.413005 117.95977 
L 222.173993 125.013175 
L 223.93498 116.220443 
L 225.695968 113.852639 
L 227.456956 113.675281 
L 229.217943 113.776572 
L 230.978931 112.044398 
L 232.739918 111.433239 
L 234.500906 111.534806 
L 236.261893 110.194459 
L 238.022881 109.218494 
L 239.783868 108.063613 
L 241.544856 107.50128 
L 243.305843 114.242467 
L 245.066831 106.618152 
L 246.827818 112.451097 
L 248.588806 105.084554 
L 250.349794 105.090477 
L 252.110781 103.7891 
L 253.871769 103.00333 
L 255.632756 103.258347 
L 257.393744 101.981246 
L 259.154731 101.472264 
L 260.915719 106.202428 
L 262.676706 100.554771 
L 264.437694 104.871666 
L 266.198681 98.763059 
L 267.959669 98.174694 
L 269.720657 102.408212 
L 271.481644 97.213278 
L 273.242632 96.403291 
L 275.003619 100.349252 
L 276.764607 98.936655 
L 278.525594 98.685579 
L 280.286582 97.531344 
L 283.808557 96.104808 
L 285.569544 95.071339 
L 287.330532 94.649231 
L 292.613495 91.781175 
L 294.374482 91.253292 
L 301.418432 88.042216 
L 303.17942 87.503037 
L 304.059914 92.52444 
L 304.940407 86.749091 
L 311.984358 83.876717 
L 313.745345 83.062766 
L 317.26732 81.696946 
L 326.072258 77.62916 
L 327.833245 76.823095 
L 331.35522 75.008189 
L 334.877196 73.284765 
L 345.443121 67.097335 
L 347.204108 66.791405 
L 357.770034 60.823081 
L 368.335959 55.527405 
L 373.618921 53.257824 
L 378.901884 51.360328 
L 382.423859 50.285494 
L 387.706822 48.903383 
L 389.467809 48.639976 
L 391.228797 48.684143 
L 391.669044 48.127854 
L 392.989784 48.432238 
L 398.272747 47.790866 
L 410.59966 46.654105 
L 422.926573 45.838563 
L 435.253485 45.239702 
L 438.775461 45.112812 
L 440.536448 44.366409 
L 452.863361 44.631848 
L 465.190274 44.623509 
L 479.278174 44.45739 
L 479.278174 44.45739 
" clip-path="url(#pd3080d5328)" style="fill: none; stroke: #1f77b4; stroke-width: 1.5; stroke-linecap: square"/>
   </g>
   <g id="line2d_61">
    <path d="M 128.841653 168.43673 
L 130.602641 166.987586 
L 132.363628 169.778212 
L 134.124616 162.136174 
L 135.885603 159.711306 
L 137.646591 157.911812 
L 139.407578 159.980839 
L 141.168566 157.5342 
L 142.929554 158.287269 
L 144.690541 158.638937 
L 146.451529 157.842745 
L 148.212516 156.151519 
L 149.973504 155.941599 
L 151.734491 156.023729 
L 153.495479 154.472249 
L 155.256466 156.660546 
L 157.017454 153.70889 
L 158.778441 155.153396 
L 160.539429 153.432146 
L 162.300416 153.715582 
L 164.061404 153.641323 
L 167.583379 151.814955 
L 174.627329 148.131236 
L 176.388317 149.478432 
L 178.149304 147.414597 
L 179.910292 146.924006 
L 181.671279 147.109443 
L 183.432267 146.482502 
L 185.193255 144.694431 
L 186.954242 145.137549 
L 188.71523 145.930607 
L 190.476217 141.567079 
L 192.237205 145.20085 
L 193.998192 141.77286 
L 195.75918 140.496207 
L 197.520167 140.236074 
L 199.281155 139.033803 
L 201.042142 138.970047 
L 202.80313 138.703818 
L 204.564117 136.476251 
L 206.325105 134.878484 
L 208.086093 135.848255 
L 209.84708 134.0589 
L 211.608068 133.284913 
L 213.369055 132.269391 
L 215.130043 129.972927 
L 216.450783 134.083324 
L 216.89103 129.042982 
L 218.652018 129.459475 
L 220.413005 127.881643 
L 222.173993 127.797639 
L 225.695968 124.664245 
L 227.456956 124.016386 
L 229.217943 124.662104 
L 230.978931 122.717488 
L 232.739918 122.307744 
L 234.500906 119.885876 
L 236.261893 119.890637 
L 238.022881 117.75084 
L 239.783868 117.190519 
L 243.305843 115.34497 
L 245.066831 115.410269 
L 246.827818 113.292956 
L 248.588806 112.901305 
L 250.349794 111.552576 
L 252.110781 110.934696 
L 253.871769 109.357971 
L 255.632756 109.069614 
L 257.393744 108.297846 
L 259.154731 106.763205 
L 260.915719 105.441164 
L 264.437694 103.700379 
L 266.198681 102.816939 
L 267.959669 102.058876 
L 271.481644 99.334666 
L 273.242632 98.27626 
L 275.003619 97.686438 
L 276.764607 96.26042 
L 278.525594 95.653689 
L 283.808557 92.405737 
L 287.330532 90.649777 
L 289.091519 89.460145 
L 290.852507 88.424535 
L 292.613495 87.16803 
L 294.374482 86.33262 
L 296.13547 85.163708 
L 299.657445 83.27691 
L 303.17942 82.297694 
L 304.059914 92.470035 
L 304.940407 81.741004 
L 306.701395 81.293867 
L 311.984358 79.551036 
L 315.506333 78.324638 
L 319.028308 77.309732 
L 320.789295 76.71922 
L 324.31127 75.159993 
L 326.072258 74.736416 
L 329.594233 73.074191 
L 331.35522 72.610026 
L 333.116208 71.705528 
L 334.877196 71.042365 
L 338.399171 68.540119 
L 343.682133 65.139663 
L 345.443121 63.796796 
L 347.204108 64.440399 
L 348.965096 63.602422 
L 352.487071 62.100897 
L 366.574971 56.04401 
L 371.857934 53.911723 
L 378.901884 51.344559 
L 385.945834 49.102279 
L 392.989784 47.188232 
L 398.272747 45.951221 
L 405.316697 44.534744 
L 412.360647 43.357589 
L 419.404598 42.387399 
L 428.209535 41.470263 
L 437.014473 40.779249 
L 447.580398 40.176868 
L 459.907311 39.699878 
L 475.756199 39.3172 
L 479.278174 39.256856 
L 479.278174 39.256856 
" clip-path="url(#pd3080d5328)" style="fill: none; stroke: #ff7f0e; stroke-width: 1.5; stroke-linecap: square"/>
   </g>
   <g id="line2d_62">
    <path d="M 128.841653 291.844895 
L 130.602641 290.453341 
L 132.363628 299.617091 
L 134.124616 291.268366 
L 135.885603 289.49403 
L 137.646591 286.229565 
L 139.407578 287.756493 
L 141.168566 280.778398 
L 142.929554 280.813682 
L 144.690541 281.076405 
L 146.451529 278.335689 
L 148.212516 274.118611 
L 149.973504 271.518812 
L 151.734491 271.117483 
L 153.495479 267.066187 
L 155.256466 267.572535 
L 157.017454 263.781662 
L 158.778441 261.437512 
L 160.539429 260.098345 
L 162.300416 258.191154 
L 164.061404 254.026743 
L 165.822392 255.328899 
L 167.583379 250.333965 
L 169.344367 248.03911 
L 171.105354 246.916665 
L 174.627329 240.533325 
L 176.388317 241.813559 
L 178.149304 235.928243 
L 179.910292 234.46341 
L 181.671279 233.520795 
L 183.432267 231.307944 
L 185.193255 228.11863 
L 186.954242 226.636383 
L 188.71523 225.967367 
L 190.476217 220.814598 
L 192.237205 222.529175 
L 193.998192 218.500194 
L 195.75918 216.068152 
L 197.520167 214.070433 
L 199.281155 211.860253 
L 201.042142 210.200247 
L 202.80313 208.842697 
L 204.564117 206.091421 
L 206.325105 202.296346 
L 208.086093 202.242577 
L 209.84708 199.00365 
L 211.608068 197.040429 
L 213.369055 196.033594 
L 215.130043 191.911977 
L 216.450783 195.207131 
L 216.89103 190.372561 
L 218.652018 189.058956 
L 220.413005 187.073098 
L 222.173993 185.29463 
L 223.93498 182.903843 
L 227.456956 177.28236 
L 229.217943 178.054229 
L 230.978931 174.1127 
L 232.739918 172.842742 
L 234.500906 169.614989 
L 236.261893 168.063857 
L 238.022881 164.99957 
L 239.783868 163.880498 
L 241.544856 161.753672 
L 243.305843 159.919285 
L 245.066831 158.625599 
L 246.827818 155.901436 
L 248.588806 154.27129 
L 250.349794 151.809834 
L 252.110781 150.640015 
L 253.871769 147.383665 
L 255.632756 146.442291 
L 259.154731 142.442457 
L 260.915719 140.203726 
L 266.198681 134.682472 
L 267.959669 132.606329 
L 269.720657 130.780347 
L 271.481644 127.910272 
L 273.242632 126.054471 
L 275.003619 124.731229 
L 276.764607 122.210203 
L 278.525594 120.834093 
L 280.286582 119.104829 
L 282.047569 116.998992 
L 283.808557 115.118273 
L 285.569544 113.576039 
L 290.852507 107.730499 
L 292.613495 105.598615 
L 294.374482 104.187669 
L 296.13547 102.112115 
L 299.657445 98.867641 
L 303.17942 97.313079 
L 304.059914 115.359525 
L 304.940407 96.454487 
L 306.701395 95.746131 
L 308.462382 94.847778 
L 310.22337 94.147867 
L 313.745345 92.16914 
L 315.506333 91.350375 
L 319.028308 89.972671 
L 320.789295 89.124053 
L 322.550283 87.905151 
L 324.31127 86.834429 
L 326.072258 86.356289 
L 329.594233 83.960984 
L 331.35522 83.317844 
L 333.116208 82.05785 
L 334.877196 81.16134 
L 336.638183 79.115328 
L 338.399171 77.239953 
L 340.160158 75.622223 
L 341.921146 73.807956 
L 343.682133 72.194021 
L 345.443121 70.260417 
L 347.204108 70.985719 
L 348.965096 69.871693 
L 352.487071 67.798718 
L 361.292009 62.170314 
L 366.574971 58.79564 
L 371.857934 55.619118 
L 377.140897 52.766185 
L 380.662872 51.042448 
L 385.945834 48.739265 
L 391.669044 46.606997 
L 396.51176 45.059436 
L 401.794722 43.609925 
L 407.077685 42.364682 
L 414.121635 40.980228 
L 419.404598 40.126712 
L 426.448548 39.248794 
L 435.253485 38.41013 
L 444.058423 37.790745 
L 454.624348 37.25757 
L 468.712249 36.793102 
L 479.278174 36.566567 
L 479.278174 36.566567 
" clip-path="url(#pd3080d5328)" style="fill: none; stroke: #2ca02c; stroke-width: 1.5; stroke-linecap: square"/>
   </g>
   <g id="line2d_63">
    <path d="M 128.841653 167.86526 
L 130.602641 166.184508 
L 132.363628 170.488628 
L 134.124616 162.838615 
L 135.885603 160.328425 
L 137.646591 157.548665 
L 139.407578 159.188099 
L 141.168566 156.245644 
L 142.929554 158.165133 
L 144.690541 157.964759 
L 146.451529 157.95146 
L 148.212516 155.235996 
L 149.973504 155.190119 
L 151.734491 155.363804 
L 153.495479 153.815527 
L 155.256466 155.664212 
L 157.017454 153.870702 
L 158.778441 154.177311 
L 160.539429 152.410528 
L 162.300416 152.592504 
L 164.061404 152.232417 
L 165.822392 152.4563 
L 167.583379 150.69761 
L 169.344367 149.121343 
L 172.866342 148.476443 
L 174.627329 146.307628 
L 176.388317 147.534481 
L 178.149304 145.319862 
L 179.910292 144.446234 
L 181.671279 146.134249 
L 183.432267 144.544789 
L 185.193255 142.253738 
L 186.954242 141.640003 
L 188.71523 143.011801 
L 190.476217 139.521125 
L 192.237205 141.508448 
L 193.998192 139.394996 
L 195.75918 137.850549 
L 197.520167 137.628141 
L 199.281155 137.180353 
L 201.042142 135.446359 
L 202.80313 135.196728 
L 204.564117 134.356169 
L 206.325105 131.48017 
L 208.086093 132.423895 
L 209.84708 130.727978 
L 211.608068 129.748818 
L 213.369055 129.510353 
L 215.130043 127.22839 
L 216.450783 131.354983 
L 216.89103 126.512766 
L 218.652018 126.550504 
L 220.413005 125.173182 
L 222.173993 124.322244 
L 223.93498 123.80516 
L 225.695968 122.305796 
L 227.456956 120.585089 
L 229.217943 122.275409 
L 230.978931 119.145375 
L 232.739918 119.079136 
L 234.500906 116.998067 
L 236.261893 116.206316 
L 238.022881 114.840223 
L 239.783868 114.656189 
L 243.305843 112.415634 
L 245.066831 111.896792 
L 246.827818 110.437637 
L 248.588806 109.406288 
L 250.349794 108.200027 
L 252.110781 107.901164 
L 253.871769 106.281258 
L 257.393744 104.85003 
L 259.154731 103.460331 
L 260.915719 102.367417 
L 264.437694 100.414883 
L 266.198681 99.733193 
L 267.959669 98.550181 
L 269.720657 97.562223 
L 271.481644 96.055379 
L 273.242632 94.984523 
L 275.003619 94.330695 
L 276.764607 92.913493 
L 278.525594 92.162995 
L 280.286582 91.200552 
L 283.808557 88.971152 
L 287.330532 87.115619 
L 292.613495 83.679557 
L 294.374482 82.860408 
L 296.13547 81.732586 
L 299.657445 79.9481 
L 303.17942 78.978759 
L 304.059914 89.45808 
L 304.940407 78.507566 
L 310.22337 77.153777 
L 313.745345 75.99962 
L 320.789295 74.189212 
L 322.550283 73.421154 
L 324.31127 72.805693 
L 326.072258 72.544127 
L 329.594233 71.10864 
L 331.35522 70.748333 
L 333.116208 69.994627 
L 334.877196 69.503423 
L 338.399171 67.468317 
L 343.682133 64.838568 
L 345.443121 63.819155 
L 347.204108 64.72341 
L 350.726083 63.279681 
L 357.770034 60.124915 
L 361.292009 58.494719 
L 371.857934 53.321942 
L 378.901884 50.107144 
L 384.184847 47.955801 
L 389.467809 46.035986 
L 394.750772 44.358511 
L 400.033735 42.9076 
L 405.316697 41.649989 
L 412.360647 40.266792 
L 419.404598 39.152572 
L 426.448548 38.302758 
L 435.253485 37.492711 
L 444.058423 36.896451 
L 454.624348 36.384757 
L 468.712249 35.940675 
L 479.278174 35.724754 
L 479.278174 35.724754 
" clip-path="url(#pd3080d5328)" style="fill: none; stroke: #d62728; stroke-width: 1.5; stroke-linecap: square"/>
   </g>
   <g id="line2d_64">
    <path d="M 128.841653 271.274527 
L 130.602641 270.332604 
L 132.363628 279.449293 
L 134.124616 271.582298 
L 135.885603 269.666038 
L 137.646591 266.496828 
L 139.407578 267.852134 
L 141.168566 261.088971 
L 142.929554 261.111561 
L 144.690541 261.355905 
L 146.451529 258.67885 
L 148.212516 254.552354 
L 149.973504 252.034303 
L 151.734491 251.633673 
L 153.495479 247.638591 
L 155.256466 248.095393 
L 157.017454 244.362334 
L 158.778441 242.090296 
L 160.539429 240.786228 
L 162.300416 238.882856 
L 164.061404 234.779357 
L 165.822392 236.046355 
L 167.583379 231.15888 
L 169.344367 228.827389 
L 171.105354 227.715912 
L 172.866342 224.699676 
L 174.627329 221.440225 
L 176.388317 222.674555 
L 178.149304 216.924597 
L 179.910292 215.470575 
L 181.671279 214.554083 
L 183.432267 212.367456 
L 185.193255 209.222004 
L 186.954242 207.755594 
L 188.71523 207.13857 
L 190.476217 202.023605 
L 192.237205 203.76565 
L 193.998192 199.780042 
L 195.75918 197.392699 
L 197.520167 195.435012 
L 199.281155 193.267444 
L 201.042142 191.649715 
L 202.80313 190.321753 
L 204.564117 187.625353 
L 206.325105 183.910389 
L 208.086093 183.871204 
L 209.84708 180.699977 
L 211.608068 178.778748 
L 213.369055 177.82013 
L 215.130043 173.770647 
L 216.450783 177.099188 
L 216.89103 172.279047 
L 218.652018 171.034713 
L 220.413005 169.086236 
L 222.173993 167.364855 
L 223.93498 165.055554 
L 227.456956 159.608261 
L 229.217943 160.395154 
L 230.978931 156.562549 
L 232.739918 155.373006 
L 234.500906 152.234268 
L 236.261893 150.754374 
L 238.022881 147.81145 
L 239.783868 146.748483 
L 241.544856 144.72267 
L 243.305843 142.993283 
L 245.066831 141.791163 
L 246.827818 139.189042 
L 248.588806 137.662347 
L 250.349794 135.334561 
L 252.110781 134.259834 
L 253.871769 131.176641 
L 255.632756 130.324283 
L 259.154731 126.608287 
L 260.915719 124.524117 
L 269.720657 115.954978 
L 271.481644 113.332028 
L 273.242632 111.709965 
L 275.003619 110.541907 
L 276.764607 108.274618 
L 278.525594 107.103952 
L 280.286582 105.561929 
L 282.047569 103.762189 
L 283.808557 102.129491 
L 285.569544 100.802065 
L 290.852507 95.87872 
L 292.613495 94.107684 
L 294.374482 92.965346 
L 296.13547 91.279504 
L 299.657445 88.666082 
L 303.17942 87.417696 
L 304.059914 102.555426 
L 304.940407 86.726157 
L 306.701395 86.147013 
L 308.462382 85.425579 
L 310.22337 84.849614 
L 313.745345 83.24279 
L 317.26732 81.996162 
L 320.789295 80.683359 
L 324.31127 78.822517 
L 326.072258 78.358155 
L 329.594233 76.390843 
L 331.35522 75.790469 
L 333.116208 74.759537 
L 334.877196 73.991117 
L 338.399171 71.052339 
L 340.160158 69.840004 
L 341.921146 68.490436 
L 343.682133 67.310806 
L 345.443121 65.961615 
L 347.204108 66.743314 
L 350.726083 64.807068 
L 371.857934 53.004528 
L 377.140897 50.425663 
L 382.423859 48.111228 
L 387.706822 46.082341 
L 392.989784 44.320556 
L 398.272747 42.803326 
L 403.55571 41.499246 
L 408.838672 40.379565 
L 415.882622 39.126637 
L 421.165585 38.375217 
L 428.209535 37.585165 
L 437.014473 36.829389 
L 447.580398 36.180805 
L 459.907311 35.672917 
L 475.756199 35.269649 
L 479.278174 35.206363 
L 479.278174 35.206363 
" clip-path="url(#pd3080d5328)" style="fill: none; stroke: #9467bd; stroke-width: 1.5; stroke-linecap: square"/>
   </g>
   <g id="line2d_65">
    <path d="M 128.841653 168.285449 
L 130.602641 166.797046 
L 132.363628 170.976932 
L 134.124616 162.649556 
L 135.885603 159.289302 
L 137.646591 157.99762 
L 139.407578 160.260666 
L 141.168566 156.394633 
L 142.929554 157.530944 
L 144.690541 157.830787 
L 146.451529 158.379751 
L 148.212516 155.090739 
L 149.973504 155.25727 
L 151.734491 154.852239 
L 153.495479 152.975573 
L 155.256466 154.727611 
L 157.017454 151.840213 
L 158.778441 154.208174 
L 160.539429 152.146425 
L 162.300416 151.653086 
L 164.061404 152.075089 
L 167.583379 149.398311 
L 169.344367 148.776961 
L 171.105354 148.914472 
L 172.866342 148.035304 
L 174.627329 145.140809 
L 176.388317 146.555695 
L 178.149304 144.476119 
L 179.910292 143.327692 
L 181.671279 144.256985 
L 183.432267 143.624602 
L 186.954242 140.646615 
L 188.71523 141.643642 
L 190.476217 138.154035 
L 192.237205 141.422597 
L 193.998192 137.948786 
L 195.75918 137.2901 
L 197.520167 136.916233 
L 199.281155 135.244783 
L 201.042142 134.903284 
L 202.80313 134.146595 
L 204.564117 132.981325 
L 206.325105 130.361781 
L 208.086093 131.394688 
L 209.84708 130.241127 
L 211.608068 129.483455 
L 213.369055 128.59312 
L 215.130043 125.574365 
L 216.450783 129.573218 
L 216.89103 125.060417 
L 218.652018 124.995591 
L 220.413005 123.55301 
L 222.173993 123.374814 
L 225.695968 120.347976 
L 227.456956 119.772881 
L 229.217943 120.001339 
L 230.978931 118.383503 
L 232.739918 117.758654 
L 234.500906 115.235217 
L 236.261893 115.327599 
L 238.022881 113.273188 
L 241.544856 111.629747 
L 243.305843 110.45961 
L 245.066831 110.694543 
L 246.827818 108.599605 
L 248.588806 107.999297 
L 250.349794 106.569994 
L 252.110781 105.980602 
L 253.871769 104.426269 
L 255.632756 104.121179 
L 257.393744 103.391887 
L 260.915719 100.488077 
L 262.676706 99.511657 
L 267.959669 97.001964 
L 269.720657 95.729111 
L 271.481644 94.277679 
L 273.242632 93.293701 
L 275.003619 92.573339 
L 276.764607 91.183206 
L 278.525594 90.709369 
L 280.286582 89.562034 
L 282.047569 88.599238 
L 283.808557 87.501188 
L 285.569544 86.751476 
L 287.330532 85.877051 
L 292.613495 82.717843 
L 294.374482 82.000249 
L 296.13547 80.976879 
L 299.657445 79.395942 
L 303.17942 78.634427 
L 304.059914 88.578488 
L 304.940407 78.198617 
L 310.22337 76.985894 
L 315.506333 75.526253 
L 319.028308 74.728981 
L 320.789295 74.264592 
L 324.31127 73.035375 
L 326.072258 72.737295 
L 329.594233 71.368327 
L 331.35522 70.981688 
L 333.116208 70.216362 
L 334.877196 69.711708 
L 338.399171 67.570809 
L 340.160158 66.663183 
L 341.921146 65.628701 
L 343.682133 64.757115 
L 345.443121 63.719796 
L 347.204108 64.513379 
L 361.292009 57.570168 
L 368.335959 53.915882 
L 375.379909 50.513184 
L 380.662872 48.213617 
L 385.945834 46.173707 
L 391.669044 44.254861 
L 396.51176 42.849813 
L 401.794722 41.527096 
L 407.077685 40.387603 
L 414.121635 39.121222 
L 419.404598 38.340467 
L 426.448548 37.530904 
L 435.253485 36.758239 
L 445.819411 36.094338 
L 458.146323 35.574207 
L 473.995211 35.161647 
L 479.278174 35.06747 
L 479.278174 35.06747 
" clip-path="url(#pd3080d5328)" style="fill: none; stroke: #8c564b; stroke-width: 1.5; stroke-linecap: square"/>
   </g>
   <g id="line2d_66">
    <path d="M 128.841653 266.047948 
L 130.602641 262.996365 
L 132.363628 267.653028 
L 134.124616 259.347846 
L 135.885603 256.933098 
L 137.646591 253.823168 
L 139.407578 255.216597 
L 141.168566 248.573284 
L 142.929554 248.520678 
L 144.690541 248.719729 
L 146.451529 245.949798 
L 148.212516 241.934136 
L 149.973504 239.439882 
L 151.734491 239.033537 
L 153.495479 235.065666 
L 155.256466 235.608253 
L 157.017454 231.633302 
L 158.778441 229.561073 
L 160.539429 228.320974 
L 162.300416 226.450943 
L 164.061404 222.52061 
L 165.822392 223.519916 
L 167.583379 218.921739 
L 169.344367 216.45972 
L 171.105354 215.303386 
L 172.866342 212.462855 
L 174.627329 209.232598 
L 176.388317 210.422057 
L 178.149304 204.787335 
L 179.910292 203.377902 
L 181.671279 202.123089 
L 183.432267 200.272073 
L 185.193255 197.169715 
L 186.954242 195.806299 
L 188.71523 195.179267 
L 190.476217 190.072514 
L 192.237205 191.997513 
L 193.998192 187.945134 
L 195.75918 185.604383 
L 197.520167 183.719929 
L 199.281155 181.374616 
L 202.80313 178.771955 
L 204.564117 175.9631 
L 206.325105 172.431214 
L 208.086093 172.466295 
L 209.84708 169.359524 
L 211.608068 167.504689 
L 213.369055 166.475402 
L 215.130043 162.525416 
L 216.450783 165.857948 
L 216.89103 161.061985 
L 218.652018 159.900722 
L 220.413005 157.987816 
L 222.173993 156.408961 
L 223.93498 154.063605 
L 227.456956 148.933728 
L 229.217943 149.543433 
L 230.978931 146.032718 
L 232.739918 144.887459 
L 234.500906 141.824302 
L 236.261893 140.506292 
L 238.022881 137.609649 
L 239.783868 136.568072 
L 241.544856 134.696173 
L 243.305843 133.103282 
L 245.066831 132.069486 
L 246.827818 129.555495 
L 248.588806 128.17661 
L 250.349794 125.997401 
L 252.110781 125.021974 
L 253.871769 122.139732 
L 255.632756 121.413361 
L 257.393744 119.800896 
L 262.676706 114.580814 
L 266.198681 111.643711 
L 267.959669 109.983055 
L 269.720657 108.514727 
L 271.481644 106.161552 
L 273.242632 104.797667 
L 275.003619 103.793245 
L 276.764607 101.794733 
L 278.525594 100.835196 
L 280.286582 99.477238 
L 283.808557 96.573169 
L 285.569544 95.436073 
L 290.852507 91.269832 
L 292.613495 89.762198 
L 294.374482 88.796212 
L 296.13547 87.354903 
L 299.657445 85.082956 
L 303.17942 83.962801 
L 304.059914 97.026217 
L 304.940407 83.337454 
L 306.701395 82.805177 
L 308.462382 82.148489 
L 310.22337 81.612874 
L 313.745345 80.139621 
L 320.789295 77.754945 
L 324.31127 76.065949 
L 326.072258 75.624302 
L 329.594233 73.849176 
L 331.35522 73.292753 
L 333.116208 72.367673 
L 334.877196 71.674378 
L 338.399171 69.118021 
L 340.160158 68.062204 
L 345.443121 64.577406 
L 347.204108 65.244145 
L 354.248059 61.423957 
L 359.531021 58.482784 
L 368.335959 53.665941 
L 373.618921 51.029971 
L 378.901884 48.629307 
L 384.184847 46.517276 
L 389.467809 44.664386 
L 394.750772 43.061618 
L 400.033735 41.686761 
L 405.316697 40.495674 
L 412.360647 39.165824 
L 419.404598 38.090131 
L 426.448548 37.28677 
L 435.253485 36.520396 
L 445.819411 35.861143 
L 458.146323 35.343725 
L 473.995211 34.9328 
L 479.278174 34.838909 
L 479.278174 34.838909 
" clip-path="url(#pd3080d5328)" style="fill: none; stroke: #e377c2; stroke-width: 1.5; stroke-linecap: square"/>
   </g>
   <g id="line2d_67">
    <path d="M 128.841653 168.592983 
L 130.602641 167.255798 
L 132.363628 168.514224 
L 134.124616 161.79292 
L 135.885603 159.530079 
L 137.646591 158.686366 
L 139.407578 158.694726 
L 141.168566 156.079715 
L 142.929554 157.360834 
L 144.690541 156.972946 
L 146.451529 157.057511 
L 148.212516 154.976083 
L 149.973504 154.733198 
L 151.734491 154.796962 
L 153.495479 152.689502 
L 155.256466 154.109805 
L 157.017454 151.889335 
L 158.778441 153.659534 
L 160.539429 151.968835 
L 164.061404 150.958293 
L 165.822392 151.19898 
L 167.583379 148.859138 
L 169.344367 147.666692 
L 171.105354 147.079158 
L 172.866342 146.310846 
L 174.627329 144.766095 
L 176.388317 145.813643 
L 178.149304 143.479588 
L 179.910292 142.779151 
L 181.671279 143.402225 
L 183.432267 142.5586 
L 185.193255 140.957896 
L 186.954242 139.784417 
L 188.71523 140.853885 
L 190.476217 137.211825 
L 192.237205 140.149079 
L 193.998192 137.563095 
L 195.75918 135.600373 
L 199.281155 134.413837 
L 201.042142 133.819941 
L 202.80313 133.432771 
L 204.564117 131.42257 
L 206.325105 129.681233 
L 208.086093 130.157529 
L 209.84708 128.154438 
L 211.608068 127.213601 
L 213.369055 127.586883 
L 215.130043 125.011692 
L 216.450783 128.795673 
L 216.89103 124.322058 
L 218.652018 123.858529 
L 220.413005 122.592315 
L 222.173993 121.803244 
L 223.93498 120.881989 
L 225.695968 119.697079 
L 227.456956 118.292316 
L 229.217943 119.311426 
L 230.978931 116.629341 
L 232.739918 116.58334 
L 234.500906 114.256187 
L 236.261893 113.559384 
L 238.022881 112.341864 
L 239.783868 111.876586 
L 243.305843 109.516799 
L 245.066831 109.21201 
L 246.827818 107.653938 
L 248.588806 106.756888 
L 250.349794 105.530037 
L 252.110781 105.219186 
L 253.871769 103.474723 
L 255.632756 102.681943 
L 257.393744 102.128672 
L 260.915719 99.52647 
L 262.676706 98.578779 
L 266.198681 97.127487 
L 273.242632 92.693155 
L 275.003619 92.039938 
L 276.764607 90.761142 
L 278.525594 90.157003 
L 283.808557 87.327289 
L 285.569544 86.676836 
L 289.091519 84.834797 
L 292.613495 82.814703 
L 294.374482 82.108827 
L 296.13547 81.116615 
L 299.657445 79.502739 
L 303.17942 78.699118 
L 304.059914 88.612238 
L 304.940407 78.247291 
L 310.22337 76.961137 
L 313.745345 75.867932 
L 320.789295 74.120331 
L 322.550283 73.428943 
L 324.31127 72.862552 
L 326.072258 72.539399 
L 329.594233 71.126568 
L 331.35522 70.726753 
L 333.116208 69.957712 
L 334.877196 69.452355 
L 338.399171 67.396026 
L 340.160158 66.539422 
L 341.921146 65.50457 
L 343.682133 64.614178 
L 345.443121 63.519734 
L 347.204108 64.101775 
L 373.618921 50.688362 
L 378.901884 48.355042 
L 384.184847 46.290279 
L 389.467809 44.468717 
L 394.750772 42.884592 
L 400.033735 41.554534 
L 405.316697 40.417376 
L 412.360647 39.16609 
L 419.404598 38.167893 
L 426.448548 37.415559 
L 435.253485 36.702334 
L 445.819411 36.092913 
L 458.146323 35.617985 
L 473.995211 35.24278 
L 479.278174 35.157274 
L 479.278174 35.157274 
" clip-path="url(#pd3080d5328)" style="fill: none; stroke: #7f7f7f; stroke-width: 1.5; stroke-linecap: square"/>
   </g>
   <g id="patch_3">
    <path d="M 111.319827 312.856 
L 111.319827 21.6 
" style="fill: none; stroke: #000000; stroke-width: 0.8; stroke-linejoin: miter; stroke-linecap: square"/>
   </g>
   <g id="patch_4">
    <path d="M 496.8 312.856 
L 496.8 21.6 
" style="fill: none; stroke: #000000; stroke-width: 0.8; stroke-linejoin: miter; stroke-linecap: square"/>
   </g>
   <g id="patch_5">
    <path d="M 111.319827 312.856 
L 496.8 312.856 
" style="fill: none; stroke: #000000; stroke-width: 0.8; stroke-linejoin: miter; stroke-linecap: square"/>
   </g>
   <g id="patch_6">
    <path d="M 111.319827 21.6 
L 496.8 21.6 
" style="fill: none; stroke: #000000; stroke-width: 0.8; stroke-linejoin: miter; stroke-linecap: square"/>
   </g>
   <g id="legend_1">
    <g id="line2d_68">
     <path d="M 366 78.202875 
L 386 78.202875 
L 406 78.202875 
" style="fill: none; stroke: #1f77b4; stroke-width: 1.5; stroke-linecap: square"/>
    </g>
    <g id="text_15">
     <!-- $m=1$ -->
     <g transform="translate(422 85.202875) scale(0.2 -0.2)">
      <defs>
       <path id="DejaVuSans-3d" d="M 678 2906 
L 4684 2906 
L 4684 2381 
L 678 2381 
L 678 2906 
z
M 678 1631 
L 4684 1631 
L 4684 1100 
L 678 1100 
L 678 1631 
z
" transform="scale(0.015625)"/>
       <path id="DejaVuSans-31" d="M 794 531 
L 1825 531 
L 1825 4091 
L 703 3866 
L 703 4441 
L 1819 4666 
L 2450 4666 
L 2450 531 
L 3481 531 
L 3481 0 
L 794 0 
L 794 531 
z
" transform="scale(0.015625)"/>
      </defs>
      <use xlink:href="#DejaVuSans-Oblique-6d" transform="translate(0 0.09375)"/>
      <use xlink:href="#DejaVuSans-3d" transform="translate(116.894531 0.09375)"/>
      <use xlink:href="#DejaVuSans-31" transform="translate(220.166016 0.09375)"/>
     </g>
    </g>
    <g id="line2d_69">
     <path d="M 366 107.559125 
L 386 107.559125 
L 406 107.559125 
" style="fill: none; stroke: #ff7f0e; stroke-width: 1.5; stroke-linecap: square"/>
    </g>
    <g id="text_16">
     <!-- $m=2$ -->
     <g transform="translate(422 114.559125) scale(0.2 -0.2)">
      <defs>
       <path id="DejaVuSans-32" d="M 1228 531 
L 3431 531 
L 3431 0 
L 469 0 
L 469 531 
Q 828 903 1448 1529 
Q 2069 2156 2228 2338 
Q 2531 2678 2651 2914 
Q 2772 3150 2772 3378 
Q 2772 3750 2511 3984 
Q 2250 4219 1831 4219 
Q 1534 4219 1204 4116 
Q 875 4013 500 3803 
L 500 4441 
Q 881 4594 1212 4672 
Q 1544 4750 1819 4750 
Q 2544 4750 2975 4387 
Q 3406 4025 3406 3419 
Q 3406 3131 3298 2873 
Q 3191 2616 2906 2266 
Q 2828 2175 2409 1742 
Q 1991 1309 1228 531 
z
" transform="scale(0.015625)"/>
      </defs>
      <use xlink:href="#DejaVuSans-Oblique-6d" transform="translate(0 0.78125)"/>
      <use xlink:href="#DejaVuSans-3d" transform="translate(116.894531 0.78125)"/>
      <use xlink:href="#DejaVuSans-32" transform="translate(220.166016 0.78125)"/>
     </g>
    </g>
    <g id="line2d_70">
     <path d="M 366 136.915375 
L 386 136.915375 
L 406 136.915375 
" style="fill: none; stroke: #2ca02c; stroke-width: 1.5; stroke-linecap: square"/>
    </g>
    <g id="text_17">
     <!-- $m=3$ -->
     <g transform="translate(422 143.915375) scale(0.2 -0.2)">
      <defs>
       <path id="DejaVuSans-33" d="M 2597 2516 
Q 3050 2419 3304 2112 
Q 3559 1806 3559 1356 
Q 3559 666 3084 287 
Q 2609 -91 1734 -91 
Q 1441 -91 1130 -33 
Q 819 25 488 141 
L 488 750 
Q 750 597 1062 519 
Q 1375 441 1716 441 
Q 2309 441 2620 675 
Q 2931 909 2931 1356 
Q 2931 1769 2642 2001 
Q 2353 2234 1838 2234 
L 1294 2234 
L 1294 2753 
L 1863 2753 
Q 2328 2753 2575 2939 
Q 2822 3125 2822 3475 
Q 2822 3834 2567 4026 
Q 2313 4219 1838 4219 
Q 1578 4219 1281 4162 
Q 984 4106 628 3988 
L 628 4550 
Q 988 4650 1302 4700 
Q 1616 4750 1894 4750 
Q 2613 4750 3031 4423 
Q 3450 4097 3450 3541 
Q 3450 3153 3228 2886 
Q 3006 2619 2597 2516 
z
" transform="scale(0.015625)"/>
      </defs>
      <use xlink:href="#DejaVuSans-Oblique-6d" transform="translate(0 0.78125)"/>
      <use xlink:href="#DejaVuSans-3d" transform="translate(116.894531 0.78125)"/>
      <use xlink:href="#DejaVuSans-33" transform="translate(220.166016 0.78125)"/>
     </g>
    </g>
    <g id="line2d_71">
     <path d="M 366 166.271625 
L 386 166.271625 
L 406 166.271625 
" style="fill: none; stroke: #d62728; stroke-width: 1.5; stroke-linecap: square"/>
    </g>
    <g id="text_18">
     <!-- $m=4$ -->
     <g transform="translate(422 173.271625) scale(0.2 -0.2)">
      <defs>
       <path id="DejaVuSans-34" d="M 2419 4116 
L 825 1625 
L 2419 1625 
L 2419 4116 
z
M 2253 4666 
L 3047 4666 
L 3047 1625 
L 3713 1625 
L 3713 1100 
L 3047 1100 
L 3047 0 
L 2419 0 
L 2419 1100 
L 313 1100 
L 313 1709 
L 2253 4666 
z
" transform="scale(0.015625)"/>
      </defs>
      <use xlink:href="#DejaVuSans-Oblique-6d" transform="translate(0 0.09375)"/>
      <use xlink:href="#DejaVuSans-3d" transform="translate(116.894531 0.09375)"/>
      <use xlink:href="#DejaVuSans-34" transform="translate(220.166016 0.09375)"/>
     </g>
    </g>
    <g id="line2d_72">
     <path d="M 366 195.627875 
L 386 195.627875 
L 406 195.627875 
" style="fill: none; stroke: #9467bd; stroke-width: 1.5; stroke-linecap: square"/>
    </g>
    <g id="text_19">
     <!-- $m=5$ -->
     <g transform="translate(422 202.627875) scale(0.2 -0.2)">
      <defs>
       <path id="DejaVuSans-35" d="M 691 4666 
L 3169 4666 
L 3169 4134 
L 1269 4134 
L 1269 2991 
Q 1406 3038 1543 3061 
Q 1681 3084 1819 3084 
Q 2600 3084 3056 2656 
Q 3513 2228 3513 1497 
Q 3513 744 3044 326 
Q 2575 -91 1722 -91 
Q 1428 -91 1123 -41 
Q 819 9 494 109 
L 494 744 
Q 775 591 1075 516 
Q 1375 441 1709 441 
Q 2250 441 2565 725 
Q 2881 1009 2881 1497 
Q 2881 1984 2565 2268 
Q 2250 2553 1709 2553 
Q 1456 2553 1204 2497 
Q 953 2441 691 2322 
L 691 4666 
z
" transform="scale(0.015625)"/>
      </defs>
      <use xlink:href="#DejaVuSans-Oblique-6d" transform="translate(0 0.09375)"/>
      <use xlink:href="#DejaVuSans-3d" transform="translate(116.894531 0.09375)"/>
      <use xlink:href="#DejaVuSans-35" transform="translate(220.166016 0.09375)"/>
     </g>
    </g>
    <g id="line2d_73">
     <path d="M 366 224.984125 
L 386 224.984125 
L 406 224.984125 
" style="fill: none; stroke: #8c564b; stroke-width: 1.5; stroke-linecap: square"/>
    </g>
    <g id="text_20">
     <!-- $m=6$ -->
     <g transform="translate(422 231.984125) scale(0.2 -0.2)">
      <defs>
       <path id="DejaVuSans-36" d="M 2113 2584 
Q 1688 2584 1439 2293 
Q 1191 2003 1191 1497 
Q 1191 994 1439 701 
Q 1688 409 2113 409 
Q 2538 409 2786 701 
Q 3034 994 3034 1497 
Q 3034 2003 2786 2293 
Q 2538 2584 2113 2584 
z
M 3366 4563 
L 3366 3988 
Q 3128 4100 2886 4159 
Q 2644 4219 2406 4219 
Q 1781 4219 1451 3797 
Q 1122 3375 1075 2522 
Q 1259 2794 1537 2939 
Q 1816 3084 2150 3084 
Q 2853 3084 3261 2657 
Q 3669 2231 3669 1497 
Q 3669 778 3244 343 
Q 2819 -91 2113 -91 
Q 1303 -91 875 529 
Q 447 1150 447 2328 
Q 447 3434 972 4092 
Q 1497 4750 2381 4750 
Q 2619 4750 2861 4703 
Q 3103 4656 3366 4563 
z
" transform="scale(0.015625)"/>
      </defs>
      <use xlink:href="#DejaVuSans-Oblique-6d" transform="translate(0 0.78125)"/>
      <use xlink:href="#DejaVuSans-3d" transform="translate(116.894531 0.78125)"/>
      <use xlink:href="#DejaVuSans-36" transform="translate(220.166016 0.78125)"/>
     </g>
    </g>
    <g id="line2d_74">
     <path d="M 366 254.340375 
L 386 254.340375 
L 406 254.340375 
" style="fill: none; stroke: #e377c2; stroke-width: 1.5; stroke-linecap: square"/>
    </g>
    <g id="text_21">
     <!-- $m=7$ -->
     <g transform="translate(422 261.340375) scale(0.2 -0.2)">
      <defs>
       <path id="DejaVuSans-37" d="M 525 4666 
L 3525 4666 
L 3525 4397 
L 1831 0 
L 1172 0 
L 2766 4134 
L 525 4134 
L 525 4666 
z
" transform="scale(0.015625)"/>
      </defs>
      <use xlink:href="#DejaVuSans-Oblique-6d" transform="translate(0 0.09375)"/>
      <use xlink:href="#DejaVuSans-3d" transform="translate(116.894531 0.09375)"/>
      <use xlink:href="#DejaVuSans-37" transform="translate(220.166016 0.09375)"/>
     </g>
    </g>
    <g id="line2d_75">
     <path d="M 366 283.696625 
L 386 283.696625 
L 406 283.696625 
" style="fill: none; stroke: #7f7f7f; stroke-width: 1.5; stroke-linecap: square"/>
    </g>
    <g id="text_22">
     <!-- $m=8$ -->
     <g transform="translate(422 290.696625) scale(0.2 -0.2)">
      <defs>
       <path id="DejaVuSans-38" d="M 2034 2216 
Q 1584 2216 1326 1975 
Q 1069 1734 1069 1313 
Q 1069 891 1326 650 
Q 1584 409 2034 409 
Q 2484 409 2743 651 
Q 3003 894 3003 1313 
Q 3003 1734 2745 1975 
Q 2488 2216 2034 2216 
z
M 1403 2484 
Q 997 2584 770 2862 
Q 544 3141 544 3541 
Q 544 4100 942 4425 
Q 1341 4750 2034 4750 
Q 2731 4750 3128 4425 
Q 3525 4100 3525 3541 
Q 3525 3141 3298 2862 
Q 3072 2584 2669 2484 
Q 3125 2378 3379 2068 
Q 3634 1759 3634 1313 
Q 3634 634 3220 271 
Q 2806 -91 2034 -91 
Q 1263 -91 848 271 
Q 434 634 434 1313 
Q 434 1759 690 2068 
Q 947 2378 1403 2484 
z
M 1172 3481 
Q 1172 3119 1398 2916 
Q 1625 2713 2034 2713 
Q 2441 2713 2670 2916 
Q 2900 3119 2900 3481 
Q 2900 3844 2670 4047 
Q 2441 4250 2034 4250 
Q 1625 4250 1398 4047 
Q 1172 3844 1172 3481 
z
" transform="scale(0.015625)"/>
      </defs>
      <use xlink:href="#DejaVuSans-Oblique-6d" transform="translate(0 0.78125)"/>
      <use xlink:href="#DejaVuSans-3d" transform="translate(116.894531 0.78125)"/>
      <use xlink:href="#DejaVuSans-38" transform="translate(220.166016 0.78125)"/>
     </g>
    </g>
   </g>
  </g>
 </g>
 <defs>
  <clipPath id="pd3080d5328">
   <rect x="111.319827" y="21.6" width="385.480173" height="291.256"/>
  </clipPath>
 </defs>
</svg>
