<?xml version="1.0" encoding="UTF-8" standalone="no"?>
<svg
   width="518.4pt"
   height="388.8pt"
   viewBox="0 0 518.4 388.8"
   version="1.1"
   id="svg171"
   sodipodi:docname="Eigenvals_bruteforce_generalized_from_csv.svg"
   inkscape:export-filename="Eigenvals_bruteforce_generalized_from_csv.svg"
   inkscape:export-xdpi="300"
   inkscape:export-ydpi="300"
   inkscape:version="1.4.2 (f4327f4, 2025-05-13)"
   xmlns:inkscape="http://www.inkscape.org/namespaces/inkscape"
   xmlns:sodipodi="http://sodipodi.sourceforge.net/DTD/sodipodi-0.dtd"
   xmlns:xlink="http://www.w3.org/1999/xlink"
   xmlns="http://www.w3.org/2000/svg"
   xmlns:svg="http://www.w3.org/2000/svg"
   xmlns:rdf="http://www.w3.org/1999/02/22-rdf-syntax-ns#"
   xmlns:cc="http://creativecommons.org/ns#"
   xmlns:dc="http://purl.org/dc/elements/1.1/">
  <sodipodi:namedview
     id="namedview171"
     pagecolor="#ffffff"
     bordercolor="#000000"
     borderopacity="0.25"
     inkscape:showpageshadow="2"
     inkscape:pageopacity="0.0"
     inkscape:pagecheckerboard="0"
     inkscape:deskcolor="#d1d1d1"
     inkscape:document-units="pt"
     inkscape:zoom="1.0843941"
     inkscape:cx="262.35849"
     inkscape:cy="281.72414"
     inkscape:window-width="1920"
     inkscape:window-height="991"
     inkscape:window-x="-9"
     inkscape:window-y="-9"
     inkscape:window-maximized="1"
     inkscape:current-layer="axes_1" />
  <metadata
     id="metadata1">
    <rdf:RDF>
      <cc:Work>
        <dc:type
           rdf:resource="http://purl.org/dc/dcmitype/StillImage" />
        <dc:date>2026-01-23T02:38:12.982192</dc:date>
        <dc:format>image/svg+xml</dc:format>
        <dc:creator>
          <cc:Agent>
            <dc:title>Matplotlib v3.8.4, https://matplotlib.org/</dc:title>
          </cc:Agent>
        </dc:creator>
      </cc:Work>
    </rdf:RDF>
  </metadata>
  <defs
     id="defs1">
    <style
       type="text/css"
       id="style1">*{stroke-linejoin: round; stroke-linecap: butt}</style>
  </defs>
  <g
     id="figure_1">
    <g
       id="patch_1">
      <path
         d="M 0 388.8  L 518.4 388.8  L 518.4 0  L 0 0  z "
         style="fill: #ffffff"
         id="path1" />
    </g>
    <g
       id="axes_1">
      <g
         id="patch_2">
        <path
           d="M 89.753351 318.562089  L 496.8 318.562089  L 496.8 21.6  L 89.753351 21.6  z "
           style="fill: #ffffff"
           id="path2" />
      </g>
      <g
         id="matplotlib.axis_1">
        <g
           id="xtick_1">
          <g
             id="line2d_1">
            <defs
               id="defs2">
              <path
                 id="mcfbc17b2ae"
                 d="M 0 0  L 0 3.5  "
                 style="stroke: #000000; stroke-width: 0.8" />
            </defs>
            <g
               id="g2">
              <use
                 xlink:href="#mcfbc17b2ae"
                 x="175.508821"
                 y="318.562089"
                 style="stroke: #000000; stroke-width: 0.8"
                 id="use2" />
            </g>
          </g>
          <g
             id="text_1">
            <!-- $\mathdefault{10^{-3}}$ -->
            <g
               transform="translate(157.532402 339.399086) scale(0.2 -0.2)"
               id="g6">
              <defs
                 id="defs3">
                <path
                   id="CMR17-31"
                   d="M 1702 4058  C 1702 4192 1696 4192 1606 4192  C 1357 3916 979 3827 621 3827  C 602 3827 570 3827 563 3808  C 557 3795 557 3782 557 3648  C 755 3648 1088 3686 1344 3839  L 1344 461  C 1344 236 1331 160 781 160  L 589 160  L 589 0  C 896 0 1216 0 1523 0  C 1830 0 2150 0 2458 0  L 2458 160  L 2266 160  C 1715 160 1702 230 1702 458  L 1702 4058  z "
                   transform="scale(0.015625)" />
                <path
                   id="CMR17-30"
                   d="M 2688 2025  C 2688 2416 2682 3080 2413 3591  C 2176 4039 1798 4198 1466 4198  C 1158 4198 768 4058 525 3597  C 269 3118 243 2524 243 2025  C 243 1661 250 1106 448 619  C 723 -39 1216 -128 1466 -128  C 1760 -128 2208 -7 2470 600  C 2662 1042 2688 1559 2688 2025  z M 1466 -26  C 1056 -26 813 325 723 812  C 653 1188 653 1738 653 2096  C 653 2588 653 2997 736 3387  C 858 3929 1216 4096 1466 4096  C 1728 4096 2067 3923 2189 3400  C 2272 3036 2278 2607 2278 2096  C 2278 1680 2278 1169 2202 792  C 2067 95 1690 -26 1466 -26  z "
                   transform="scale(0.015625)" />
                <path
                   id="CMSY10-0"
                   d="M 4218 1472  C 4326 1472 4442 1472 4442 1600  C 4442 1728 4326 1728 4218 1728  L 755 1728  C 646 1728 531 1728 531 1600  C 531 1472 646 1472 755 1472  L 4218 1472  z "
                   transform="scale(0.015625)" />
                <path
                   id="CMR17-33"
                   d="M 1414 2157  C 1984 2157 2234 1662 2234 1090  C 2234 320 1824 25 1453 25  C 1114 25 563 194 390 693  C 422 680 454 680 486 680  C 640 680 755 782 755 948  C 755 1133 614 1216 486 1216  C 378 1216 211 1165 211 926  C 211 335 787 -128 1466 -128  C 2176 -128 2720 430 2720 1085  C 2720 1707 2208 2157 1600 2227  C 2086 2328 2554 2756 2554 3329  C 2554 3820 2048 4179 1472 4179  C 890 4179 378 3829 378 3329  C 378 3110 544 3072 627 3072  C 762 3072 877 3155 877 3321  C 877 3486 762 3569 627 3569  C 602 3569 570 3569 544 3557  C 730 3959 1235 4032 1459 4032  C 1683 4032 2106 3925 2106 3320  C 2106 3143 2080 2828 1862 2550  C 1670 2304 1453 2304 1242 2284  C 1210 2284 1062 2269 1037 2269  C 992 2263 966 2257 966 2208  C 966 2163 973 2157 1101 2157  L 1414 2157  z "
                   transform="scale(0.015625)" />
              </defs>
              <use
                 xlink:href="#CMR17-31"
                 transform="scale(0.996264)"
                 id="use3" />
              <use
                 xlink:href="#CMR17-30"
                 transform="translate(45.690477 0) scale(0.996264)"
                 id="use4" />
              <use
                 xlink:href="#CMSY10-0"
                 transform="translate(91.380954 36.153639) scale(0.697382)"
                 id="use5" />
              <use
                 xlink:href="#CMR17-33"
                 transform="translate(145.621947 36.153639) scale(0.697382)"
                 id="use6" />
            </g>
          </g>
        </g>
        <g
           id="xtick_2">
          <g
             id="line2d_2">
            <g
               id="g7">
              <use
                 xlink:href="#mcfbc17b2ae"
                 x="282.70708"
                 y="318.562089"
                 style="stroke: #000000; stroke-width: 0.8"
                 id="use7" />
            </g>
          </g>
          <g
             id="text_2">
            <!-- $\mathdefault{10^{-2}}$ -->
            <g
               transform="translate(264.730661 339.399086) scale(0.2 -0.2)"
               id="g11">
              <defs
                 id="defs7">
                <path
                   id="CMR17-32"
                   d="M 2669 989  L 2554 989  C 2490 536 2438 459 2413 420  C 2381 369 1920 369 1830 369  L 602 369  C 832 619 1280 1072 1824 1597  C 2214 1967 2669 2402 2669 3035  C 2669 3790 2067 4224 1395 4224  C 691 4224 262 3604 262 3030  C 262 2780 448 2748 525 2748  C 589 2748 781 2787 781 3010  C 781 3207 614 3264 525 3264  C 486 3264 448 3258 422 3245  C 544 3790 915 4058 1306 4058  C 1862 4058 2227 3617 2227 3035  C 2227 2479 1901 2000 1536 1584  L 262 146  L 262 0  L 2515 0  L 2669 989  z "
                   transform="scale(0.015625)" />
              </defs>
              <use
                 xlink:href="#CMR17-31"
                 transform="scale(0.996264)"
                 id="use8" />
              <use
                 xlink:href="#CMR17-30"
                 transform="translate(45.690477 0) scale(0.996264)"
                 id="use9" />
              <use
                 xlink:href="#CMSY10-0"
                 transform="translate(91.380954 36.153639) scale(0.697382)"
                 id="use10" />
              <use
                 xlink:href="#CMR17-32"
                 transform="translate(145.621947 36.153639) scale(0.697382)"
                 id="use11" />
            </g>
          </g>
        </g>
        <g
           id="xtick_3">
          <g
             id="line2d_3">
            <g
               id="g12">
              <use
                 xlink:href="#mcfbc17b2ae"
                 x="389.90534"
                 y="318.562089"
                 style="stroke: #000000; stroke-width: 0.8"
                 id="use12" />
            </g>
          </g>
          <g
             id="text_3">
            <!-- $\mathdefault{10^{-1}}$ -->
            <g
               transform="translate(371.928921 339.399086) scale(0.2 -0.2)"
               id="g16">
              <use
                 xlink:href="#CMR17-31"
                 transform="scale(0.996264)"
                 id="use13" />
              <use
                 xlink:href="#CMR17-30"
                 transform="translate(45.690477 0) scale(0.996264)"
                 id="use14" />
              <use
                 xlink:href="#CMSY10-0"
                 transform="translate(91.380954 36.153639) scale(0.697382)"
                 id="use15" />
              <use
                 xlink:href="#CMR17-31"
                 transform="translate(145.621947 36.153639) scale(0.697382)"
                 id="use16" />
            </g>
          </g>
        </g>
        <g
           id="xtick_4">
          <g
             id="line2d_4">
            <defs
               id="defs16">
              <path
                 id="m36cfeda222"
                 d="M 0 0  L 0 2  "
                 style="stroke: #000000; stroke-width: 0.6" />
            </defs>
            <g
               id="g17">
              <use
                 xlink:href="#m36cfeda222"
                 x="100.580453"
                 y="318.562089"
                 style="stroke: #000000; stroke-width: 0.6"
                 id="use17" />
            </g>
          </g>
        </g>
        <g
           id="xtick_5">
          <g
             id="line2d_5">
            <g
               id="g18">
              <use
                 xlink:href="#m36cfeda222"
                 x="119.45713"
                 y="318.562089"
                 style="stroke: #000000; stroke-width: 0.6"
                 id="use18" />
            </g>
          </g>
        </g>
        <g
           id="xtick_6">
          <g
             id="line2d_6">
            <g
               id="g19">
              <use
                 xlink:href="#m36cfeda222"
                 x="132.850345"
                 y="318.562089"
                 style="stroke: #000000; stroke-width: 0.6"
                 id="use19" />
            </g>
          </g>
        </g>
        <g
           id="xtick_7">
          <g
             id="line2d_7">
            <g
               id="g20">
              <use
                 xlink:href="#m36cfeda222"
                 x="143.238929"
                 y="318.562089"
                 style="stroke: #000000; stroke-width: 0.6"
                 id="use20" />
            </g>
          </g>
        </g>
        <g
           id="xtick_8">
          <g
             id="line2d_8">
            <g
               id="g21">
              <use
                 xlink:href="#m36cfeda222"
                 x="151.727021"
                 y="318.562089"
                 style="stroke: #000000; stroke-width: 0.6"
                 id="use21" />
            </g>
          </g>
        </g>
        <g
           id="xtick_9">
          <g
             id="line2d_9">
            <g
               id="g22">
              <use
                 xlink:href="#m36cfeda222"
                 x="158.9036"
                 y="318.562089"
                 style="stroke: #000000; stroke-width: 0.6"
                 id="use22" />
            </g>
          </g>
        </g>
        <g
           id="xtick_10">
          <g
             id="line2d_10">
            <g
               id="g23">
              <use
                 xlink:href="#m36cfeda222"
                 x="165.120236"
                 y="318.562089"
                 style="stroke: #000000; stroke-width: 0.6"
                 id="use23" />
            </g>
          </g>
        </g>
        <g
           id="xtick_11">
          <g
             id="line2d_11">
            <g
               id="g24">
              <use
                 xlink:href="#m36cfeda222"
                 x="170.603698"
                 y="318.562089"
                 style="stroke: #000000; stroke-width: 0.6"
                 id="use24" />
            </g>
          </g>
        </g>
        <g
           id="xtick_12">
          <g
             id="line2d_12">
            <g
               id="g25">
              <use
                 xlink:href="#m36cfeda222"
                 x="207.778713"
                 y="318.562089"
                 style="stroke: #000000; stroke-width: 0.6"
                 id="use25" />
            </g>
          </g>
        </g>
        <g
           id="xtick_13">
          <g
             id="line2d_13">
            <g
               id="g26">
              <use
                 xlink:href="#m36cfeda222"
                 x="226.655389"
                 y="318.562089"
                 style="stroke: #000000; stroke-width: 0.6"
                 id="use26" />
            </g>
          </g>
        </g>
        <g
           id="xtick_14">
          <g
             id="line2d_14">
            <g
               id="g27">
              <use
                 xlink:href="#m36cfeda222"
                 x="240.048604"
                 y="318.562089"
                 style="stroke: #000000; stroke-width: 0.6"
                 id="use27" />
            </g>
          </g>
        </g>
        <g
           id="xtick_15">
          <g
             id="line2d_15">
            <g
               id="g28">
              <use
                 xlink:href="#m36cfeda222"
                 x="250.437189"
                 y="318.562089"
                 style="stroke: #000000; stroke-width: 0.6"
                 id="use28" />
            </g>
          </g>
        </g>
        <g
           id="xtick_16">
          <g
             id="line2d_16">
            <g
               id="g29">
              <use
                 xlink:href="#m36cfeda222"
                 x="258.925281"
                 y="318.562089"
                 style="stroke: #000000; stroke-width: 0.6"
                 id="use29" />
            </g>
          </g>
        </g>
        <g
           id="xtick_17">
          <g
             id="line2d_17">
            <g
               id="g30">
              <use
                 xlink:href="#m36cfeda222"
                 x="266.10186"
                 y="318.562089"
                 style="stroke: #000000; stroke-width: 0.6"
                 id="use30" />
            </g>
          </g>
        </g>
        <g
           id="xtick_18">
          <g
             id="line2d_18">
            <g
               id="g31">
              <use
                 xlink:href="#m36cfeda222"
                 x="272.318496"
                 y="318.562089"
                 style="stroke: #000000; stroke-width: 0.6"
                 id="use31" />
            </g>
          </g>
        </g>
        <g
           id="xtick_19">
          <g
             id="line2d_19">
            <g
               id="g32">
              <use
                 xlink:href="#m36cfeda222"
                 x="277.801957"
                 y="318.562089"
                 style="stroke: #000000; stroke-width: 0.6"
                 id="use32" />
            </g>
          </g>
        </g>
        <g
           id="xtick_20">
          <g
             id="line2d_20">
            <g
               id="g33">
              <use
                 xlink:href="#m36cfeda222"
                 x="314.976972"
                 y="318.562089"
                 style="stroke: #000000; stroke-width: 0.6"
                 id="use33" />
            </g>
          </g>
        </g>
        <g
           id="xtick_21">
          <g
             id="line2d_21">
            <g
               id="g34">
              <use
                 xlink:href="#m36cfeda222"
                 x="333.853648"
                 y="318.562089"
                 style="stroke: #000000; stroke-width: 0.6"
                 id="use34" />
            </g>
          </g>
        </g>
        <g
           id="xtick_22">
          <g
             id="line2d_22">
            <g
               id="g35">
              <use
                 xlink:href="#m36cfeda222"
                 x="347.246864"
                 y="318.562089"
                 style="stroke: #000000; stroke-width: 0.6"
                 id="use35" />
            </g>
          </g>
        </g>
        <g
           id="xtick_23">
          <g
             id="line2d_23">
            <g
               id="g36">
              <use
                 xlink:href="#m36cfeda222"
                 x="357.635448"
                 y="318.562089"
                 style="stroke: #000000; stroke-width: 0.6"
                 id="use36" />
            </g>
          </g>
        </g>
        <g
           id="xtick_24">
          <g
             id="line2d_24">
            <g
               id="g37">
              <use
                 xlink:href="#m36cfeda222"
                 x="366.12354"
                 y="318.562089"
                 style="stroke: #000000; stroke-width: 0.6"
                 id="use37" />
            </g>
          </g>
        </g>
        <g
           id="xtick_25">
          <g
             id="line2d_25">
            <g
               id="g38">
              <use
                 xlink:href="#m36cfeda222"
                 x="373.300119"
                 y="318.562089"
                 style="stroke: #000000; stroke-width: 0.6"
                 id="use38" />
            </g>
          </g>
        </g>
        <g
           id="xtick_26">
          <g
             id="line2d_26">
            <g
               id="g39">
              <use
                 xlink:href="#m36cfeda222"
                 x="379.516755"
                 y="318.562089"
                 style="stroke: #000000; stroke-width: 0.6"
                 id="use39" />
            </g>
          </g>
        </g>
        <g
           id="xtick_27">
          <g
             id="line2d_27">
            <g
               id="g40">
              <use
                 xlink:href="#m36cfeda222"
                 x="385.000216"
                 y="318.562089"
                 style="stroke: #000000; stroke-width: 0.6"
                 id="use40" />
            </g>
          </g>
        </g>
        <g
           id="xtick_28">
          <g
             id="line2d_28">
            <g
               id="g41">
              <use
                 xlink:href="#m36cfeda222"
                 x="422.175231"
                 y="318.562089"
                 style="stroke: #000000; stroke-width: 0.6"
                 id="use41" />
            </g>
          </g>
        </g>
        <g
           id="xtick_29">
          <g
             id="line2d_29">
            <g
               id="g42">
              <use
                 xlink:href="#m36cfeda222"
                 x="441.051908"
                 y="318.562089"
                 style="stroke: #000000; stroke-width: 0.6"
                 id="use42" />
            </g>
          </g>
        </g>
        <g
           id="xtick_30">
          <g
             id="line2d_30">
            <g
               id="g43">
              <use
                 xlink:href="#m36cfeda222"
                 x="454.445123"
                 y="318.562089"
                 style="stroke: #000000; stroke-width: 0.6"
                 id="use43" />
            </g>
          </g>
        </g>
        <g
           id="xtick_31">
          <g
             id="line2d_31">
            <g
               id="g44">
              <use
                 xlink:href="#m36cfeda222"
                 x="464.833708"
                 y="318.562089"
                 style="stroke: #000000; stroke-width: 0.6"
                 id="use44" />
            </g>
          </g>
        </g>
        <g
           id="xtick_32">
          <g
             id="line2d_32">
            <g
               id="g45">
              <use
                 xlink:href="#m36cfeda222"
                 x="473.321799"
                 y="318.562089"
                 style="stroke: #000000; stroke-width: 0.6"
                 id="use45" />
            </g>
          </g>
        </g>
        <g
           id="xtick_33">
          <g
             id="line2d_33">
            <g
               id="g46">
              <use
                 xlink:href="#m36cfeda222"
                 x="480.498379"
                 y="318.562089"
                 style="stroke: #000000; stroke-width: 0.6"
                 id="use46" />
            </g>
          </g>
        </g>
        <g
           id="xtick_34">
          <g
             id="line2d_34">
            <g
               id="g47">
              <use
                 xlink:href="#m36cfeda222"
                 x="486.715015"
                 y="318.562089"
                 style="stroke: #000000; stroke-width: 0.6"
                 id="use47" />
            </g>
          </g>
        </g>
        <g
           id="xtick_35">
          <g
             id="line2d_35">
            <g
               id="g48">
              <use
                 xlink:href="#m36cfeda222"
                 x="492.198476"
                 y="318.562089"
                 style="stroke: #000000; stroke-width: 0.6"
                 id="use48" />
            </g>
          </g>
        </g>
        <g
           id="text_4">
          <!-- Temperature, $T/T_F$ -->
          <g
             transform="translate(214.664755 362.21868) scale(0.2 -0.2)"
             id="g64">
            <defs
               id="defs48">
              <path
                 id="CMR17-54"
                 d="M 3981 4326  L 288 4326  L 179 2918  L 294 2918  C 378 3976 467 4160 1453 4160  C 1568 4160 1754 4160 1805 4154  C 1926 4135 1926 4058 1926 3912  L 1926 459  C 1926 230 1907 160 1376 160  L 1197 160  L 1197 0  C 1504 0 1824 0 2138 0  C 2451 0 2771 0 3078 0  L 3078 160  L 2899 160  C 2368 160 2349 230 2349 459  L 2349 3912  C 2349 4052 2349 4129 2464 4154  C 2515 4160 2701 4160 2816 4160  C 3795 4160 3891 3976 3974 2918  L 4090 2918  L 3981 4326  z "
                 transform="scale(0.015625)" />
              <path
                 id="CMR17-65"
                 d="M 2438 1472  C 2464 1498 2464 1511 2464 1576  C 2464 2238 2118 2816 1389 2816  C 710 2816 173 2169 173 1383  C 173 551 781 -64 1459 -64  C 2176 -64 2458 607 2458 740  C 2458 784 2419 784 2406 784  C 2362 784 2355 771 2330 696  C 2189 265 1837 51 1504 51  C 1229 51 954 203 781 480  C 582 803 582 1176 582 1472  L 2438 1472  z M 589 1568  C 634 2505 1126 2714 1382 2714  C 1818 2714 2112 2297 2118 1568  L 589 1568  z "
                 transform="scale(0.015625)" />
              <path
                 id="CMR17-6d"
                 d="M 4326 1933  C 4326 2252 4269 2790 3507 2790  C 3072 2790 2771 2496 2656 2151  L 2650 2151  C 2573 2676 2195 2790 1837 2790  C 1331 2790 1069 2400 973 2144  L 966 2144  L 966 2790  L 211 2720  L 211 2554  C 589 2554 646 2515 646 2208  L 646 428  C 646 184 621 153 211 153  L 211 -13  C 365 0 646 0 813 0  C 979 0 1267 0 1421 -13  L 1421 153  C 1011 153 986 178 986 428  L 986 1658  C 986 2247 1344 2688 1792 2688  C 2266 2688 2317 2266 2317 1958  L 2317 428  C 2317 184 2291 153 1882 153  L 1882 -13  C 2035 0 2317 0 2483 0  C 2650 0 2938 0 3091 -13  L 3091 153  C 2682 153 2656 178 2656 428  L 2656 1658  C 2656 2247 3014 2688 3462 2688  C 3936 2688 3987 2266 3987 1958  L 3987 428  C 3987 184 3962 153 3552 153  L 3552 -13  C 3706 0 3987 0 4154 0  C 4320 0 4608 0 4762 -13  L 4762 153  C 4352 153 4326 178 4326 428  L 4326 1933  z "
                 transform="scale(0.015625)" />
              <path
                 id="CMR17-70"
                 d="M 1408 -1063  C 998 -1063 973 -1037 973 -789  L 973 402  C 1158 134 1427 -38 1766 -38  C 2406 -38 3053 523 3053 1388  C 3053 2191 2496 2802 1837 2802  C 1453 2802 1139 2592 960 2338  L 960 2802  L 198 2732  L 198 2567  C 576 2567 634 2528 634 2223  L 634 -789  C 634 -1031 608 -1063 198 -1063  L 198 -1228  C 352 -1216 634 -1216 800 -1216  C 966 -1216 1254 -1216 1408 -1228  L 1408 -1063  z M 973 2012  C 973 2102 973 2235 1222 2471  C 1254 2497 1472 2688 1792 2688  C 2259 2688 2643 2108 2643 1382  C 2643 656 2234 64 1728 64  C 1498 64 1248 172 1056 472  C 973 612 973 650 973 752  L 973 2012  z "
                 transform="scale(0.015625)" />
              <path
                 id="CMR17-72"
                 d="M 960 1497  C 960 2112 1222 2688 1702 2688  C 1747 2688 1792 2682 1837 2662  C 1837 2662 1696 2617 1696 2452  C 1696 2298 1818 2234 1914 2234  C 1990 2234 2131 2279 2131 2458  C 2131 2663 1926 2790 1709 2790  C 1222 2790 1011 2317 947 2093  L 941 2093  L 941 2790  L 198 2720  L 198 2554  C 576 2554 634 2515 634 2208  L 634 428  C 634 184 608 153 198 153  L 198 -13  C 352 0 646 0 813 0  C 998 0 1325 0 1498 -13  L 1498 153  C 1037 153 960 153 960 440  L 960 1497  z "
                 transform="scale(0.015625)" />
              <path
                 id="CMR17-61"
                 d="M 2304 1653  C 2304 2072 2304 2294 2035 2543  C 1798 2752 1523 2816 1306 2816  C 800 2816 435 2407 435 1971  C 435 1728 627 1728 666 1728  C 749 1728 896 1778 896 1954  C 896 2112 774 2181 666 2181  C 640 2181 608 2174 589 2168  C 723 2592 1069 2714 1293 2714  C 1613 2714 1965 2429 1965 1885  L 1965 1600  C 1587 1600 1133 1549 774 1357  C 371 1133 256 813 256 570  C 256 77 832 -64 1171 -64  C 1523 -64 1850 139 1990 511  C 2003 233 2182 -18 2464 -18  C 2598 -18 2938 70 2938 567  L 2938 920  L 2822 920  L 2822 562  C 2822 178 2650 128 2566 128  C 2304 128 2304 458 2304 738  L 2304 1653  z M 1965 870  C 1965 317 1568 38 1216 38  C 896 38 646 275 646 570  C 646 761 730 1100 1101 1305  C 1408 1478 1760 1504 1965 1504  L 1965 870  z "
                 transform="scale(0.015625)" />
              <path
                 id="CMR17-74"
                 d="M 966 2560  L 1862 2560  L 1862 2725  L 966 2725  L 966 3904  L 851 3904  C 838 3245 614 2668 70 2668  L 70 2560  L 627 2560  L 627 771  C 627 650 627 -64 1370 -64  C 1747 -64 1965 306 1965 777  L 1965 1140  L 1850 1140  L 1850 783  C 1850 344 1677 51 1408 51  C 1222 51 966 178 966 758  L 966 2560  z "
                 transform="scale(0.015625)" />
              <path
                 id="CMR17-75"
                 d="M 1882 2693  L 1882 2528  C 2259 2528 2317 2489 2317 2186  L 2317 1032  C 2317 500 2029 38 1555 38  C 1030 38 986 348 986 678  L 986 2763  L 211 2693  L 211 2528  C 467 2528 640 2528 646 2274  L 646 1058  C 646 633 646 361 813 183  C 896 101 1056 -64 1517 -64  C 2061 -64 2272 377 2323 506  L 2330 506  L 2330 -63  L 3091 -63  L 3091 128  C 2714 128 2656 166 2656 473  L 2656 2763  L 1882 2693  z "
                 transform="scale(0.015625)" />
              <path
                 id="CMR17-2c"
                 d="M 1011 102  C 1024 45 1024 25 1024 -77  C 1024 -463 896 -817 627 -1139  C 595 -1170 595 -1183 595 -1197  C 595 -1222 621 -1248 646 -1248  C 685 -1248 1126 -799 1126 -87  C 1126 124 1101 522 800 522  C 659 522 538 427 538 261  C 538 96 659 0 800 0  C 877 0 960 32 1011 102  z "
                 transform="scale(0.015625)" />
              <path
                 id="CMMI12-54"
                 d="M 2669 3910  C 2707 4064 2720 4121 2816 4147  C 2867 4160 3078 4160 3213 4160  C 3853 4160 4154 4134 4154 3634  C 4154 3537 4128 3295 4090 3057  L 4083 2980  C 4083 2954 4109 2916 4147 2916  C 4211 2916 4211 2948 4230 3050  L 4416 4184  C 4429 4243 4429 4256 4429 4275  C 4429 4345 4390 4345 4262 4345  L 762 4345  C 614 4345 608 4339 570 4224  L 179 3070  C 173 3056 154 2986 154 2980  C 154 2948 179 2916 218 2916  C 269 2916 282 2941 307 3024  C 576 3801 710 4160 1562 4160  L 1990 4160  C 2144 4160 2208 4160 2208 4089  C 2208 4069 2208 4057 2176 3941  L 1318 499  C 1254 249 1242 185 563 185  C 403 185 358 185 358 64  C 358 0 429 0 461 0  C 621 0 787 0 947 0  L 1946 0  C 2106 0 2278 0 2438 0  C 2509 0 2573 0 2573 121  C 2573 185 2528 185 2362 185  C 1786 185 1786 243 1786 339  C 1786 346 1786 391 1811 494  L 2669 3910  z "
                 transform="scale(0.015625)" />
              <path
                 id="CMMI12-3d"
                 d="M 2746 4562  C 2746 4569 2784 4666 2784 4678  C 2784 4755 2720 4800 2669 4800  C 2637 4800 2579 4800 2528 4659  L 384 -1363  C 384 -1370 346 -1465 346 -1478  C 346 -1555 410 -1600 461 -1600  C 499 -1600 557 -1593 602 -1459  L 2746 4562  z "
                 transform="scale(0.015625)" />
              <path
                 id="CMMI12-46"
                 d="M 1901 2055  L 2515 2055  C 3002 2055 3040 1946 3040 1761  C 3040 1678 3027 1589 2995 1448  C 2982 1423 2976 1391 2976 1378  C 2976 1333 3002 1308 3046 1308  C 3098 1308 3104 1333 3130 1435  L 3501 2935  C 3501 2961 3482 2999 3437 2999  C 3379 2999 3373 2974 3347 2863  C 3213 2376 3085 2240 2528 2240  L 1946 2240  L 2362 3926  C 2419 4154 2432 4154 2694 4154  L 3552 4154  C 4352 4154 4467 3918 4467 3464  C 4467 3426 4467 3285 4448 3119  C 4442 3094 4429 3011 4429 2985  C 4429 2934 4461 2915 4499 2915  C 4544 2915 4570 2941 4582 3055  L 4717 4174  C 4717 4195 4730 4263 4730 4277  C 4730 4352 4672 4352 4557 4352  L 1523 4352  C 1402 4352 1338 4352 1338 4229  C 1338 4154 1382 4154 1491 4154  C 1888 4154 1888 4113 1888 4050  C 1888 4018 1882 3992 1862 3922  L 998 473  C 941 249 928 185 480 185  C 358 185 294 185 294 70  C 294 0 352 0 390 0  C 512 0 640 0 762 0  L 1594 0  C 1734 0 1888 0 2029 0  C 2086 0 2163 0 2163 115  C 2163 185 2125 185 1984 185  C 1478 185 1466 229 1466 324  C 1466 356 1478 406 1491 449  L 1901 2055  z "
                 transform="scale(0.015625)" />
            </defs>
            <use
               xlink:href="#CMR17-54"
               transform="scale(0.996264)"
               id="use49" />
            <use
               xlink:href="#CMR17-65"
               transform="translate(58.702625 0) scale(0.996264)"
               id="use50" />
            <use
               xlink:href="#CMR17-6d"
               transform="translate(99.188286 0) scale(0.996264)"
               id="use51" />
            <use
               xlink:href="#CMR17-70"
               transform="translate(176.107875 0) scale(0.996264)"
               id="use52" />
            <use
               xlink:href="#CMR17-65"
               transform="translate(229.605684 0) scale(0.996264)"
               id="use53" />
            <use
               xlink:href="#CMR17-72"
               transform="translate(270.091344 0) scale(0.996264)"
               id="use54" />
            <use
               xlink:href="#CMR17-61"
               transform="translate(305.372112 0) scale(0.996264)"
               id="use55" />
            <use
               xlink:href="#CMR17-74"
               transform="translate(351.062589 0) scale(0.996264)"
               id="use56" />
            <use
               xlink:href="#CMR17-75"
               transform="translate(386.343357 0) scale(0.996264)"
               id="use57" />
            <use
               xlink:href="#CMR17-72"
               transform="translate(437.238727 0) scale(0.996264)"
               id="use58" />
            <use
               xlink:href="#CMR17-65"
               transform="translate(472.519495 0) scale(0.996264)"
               id="use59" />
            <use
               xlink:href="#CMR17-2c"
               transform="translate(513.005155 0) scale(0.996264)"
               id="use60" />
            <use
               xlink:href="#CMMI12-54"
               transform="translate(567.95218 0) scale(0.996264)"
               id="use61" />
            <use
               xlink:href="#CMMI12-3d"
               transform="translate(635.966095 0) scale(0.996264)"
               id="use62" />
            <use
               xlink:href="#CMMI12-54"
               transform="translate(684.741013 0) scale(0.996264)"
               id="use63" />
            <use
               xlink:href="#CMMI12-46"
               transform="translate(741.916057 -14.943915) scale(0.697382)"
               id="use64" />
          </g>
        </g>
      </g>
      <g
         id="matplotlib.axis_2">
        <g
           id="ytick_1">
          <g
             id="line2d_36">
            <defs
               id="defs64">
              <path
                 id="m21275b4f16"
                 d="M 0 0  L -3.5 0  "
                 style="stroke: #000000; stroke-width: 0.8" />
            </defs>
            <g
               id="g65">
              <use
                 xlink:href="#m21275b4f16"
                 x="89.753351"
                 y="318.562089"
                 style="stroke: #000000; stroke-width: 0.8"
                 id="use65" />
            </g>
          </g>
          <g
             id="text_5">
            <!-- $\mathdefault{10^{-3}}$ -->
            <g
               transform="translate(46.800512 325.480588) scale(0.2 -0.2)"
               id="g69">
              <use
                 xlink:href="#CMR17-31"
                 transform="scale(0.996264)"
                 id="use66" />
              <use
                 xlink:href="#CMR17-30"
                 transform="translate(45.690477 0) scale(0.996264)"
                 id="use67" />
              <use
                 xlink:href="#CMSY10-0"
                 transform="translate(91.380954 36.153639) scale(0.697382)"
                 id="use68" />
              <use
                 xlink:href="#CMR17-33"
                 transform="translate(145.621947 36.153639) scale(0.697382)"
                 id="use69" />
            </g>
          </g>
        </g>
        <g
           id="ytick_2">
          <g
             id="line2d_37">
            <g
               id="g70">
              <use
                 xlink:href="#m21275b4f16"
                 x="89.753351"
                 y="198.680154"
                 style="stroke: #000000; stroke-width: 0.8"
                 id="use70" />
            </g>
          </g>
          <g
             id="text_6">
            <!-- $\mathdefault{10^{-2}}$ -->
            <g
               transform="translate(46.800512 205.598653) scale(0.2 -0.2)"
               id="g74">
              <use
                 xlink:href="#CMR17-31"
                 transform="scale(0.996264)"
                 id="use71" />
              <use
                 xlink:href="#CMR17-30"
                 transform="translate(45.690477 0) scale(0.996264)"
                 id="use72" />
              <use
                 xlink:href="#CMSY10-0"
                 transform="translate(91.380954 36.153639) scale(0.697382)"
                 id="use73" />
              <use
                 xlink:href="#CMR17-32"
                 transform="translate(145.621947 36.153639) scale(0.697382)"
                 id="use74" />
            </g>
          </g>
        </g>
        <g
           id="ytick_3">
          <g
             id="line2d_38">
            <g
               id="g75">
              <use
                 xlink:href="#m21275b4f16"
                 x="89.753351"
                 y="78.798219"
                 style="stroke: #000000; stroke-width: 0.8"
                 id="use75" />
            </g>
          </g>
          <g
             id="text_7">
            <!-- $\mathdefault{10^{-1}}$ -->
            <g
               transform="translate(46.800512 85.716718) scale(0.2 -0.2)"
               id="g79">
              <use
                 xlink:href="#CMR17-31"
                 transform="scale(0.996264)"
                 id="use76" />
              <use
                 xlink:href="#CMR17-30"
                 transform="translate(45.690477 0) scale(0.996264)"
                 id="use77" />
              <use
                 xlink:href="#CMSY10-0"
                 transform="translate(91.380954 36.153639) scale(0.697382)"
                 id="use78" />
              <use
                 xlink:href="#CMR17-31"
                 transform="translate(145.621947 36.153639) scale(0.697382)"
                 id="use79" />
            </g>
          </g>
        </g>
        <g
           id="ytick_4">
          <g
             id="line2d_39">
            <defs
               id="defs79">
              <path
                 id="m4d435cfd3b"
                 d="M 0 0  L -2 0  "
                 style="stroke: #000000; stroke-width: 0.6" />
            </defs>
            <g
               id="g80">
              <use
                 xlink:href="#m4d435cfd3b"
                 x="89.753351"
                 y="282.474031"
                 style="stroke: #000000; stroke-width: 0.6"
                 id="use80" />
            </g>
          </g>
        </g>
        <g
           id="ytick_5">
          <g
             id="line2d_40">
            <g
               id="g81">
              <use
                 xlink:href="#m4d435cfd3b"
                 x="89.753351"
                 y="261.36387"
                 style="stroke: #000000; stroke-width: 0.6"
                 id="use81" />
            </g>
          </g>
        </g>
        <g
           id="ytick_6">
          <g
             id="line2d_41">
            <g
               id="g82">
              <use
                 xlink:href="#m4d435cfd3b"
                 x="89.753351"
                 y="246.385973"
                 style="stroke: #000000; stroke-width: 0.6"
                 id="use82" />
            </g>
          </g>
        </g>
        <g
           id="ytick_7">
          <g
             id="line2d_42">
            <g
               id="g83">
              <use
                 xlink:href="#m4d435cfd3b"
                 x="89.753351"
                 y="234.768213"
                 style="stroke: #000000; stroke-width: 0.6"
                 id="use83" />
            </g>
          </g>
        </g>
        <g
           id="ytick_8">
          <g
             id="line2d_43">
            <g
               id="g84">
              <use
                 xlink:href="#m4d435cfd3b"
                 x="89.753351"
                 y="225.275812"
                 style="stroke: #000000; stroke-width: 0.6"
                 id="use84" />
            </g>
          </g>
        </g>
        <g
           id="ytick_9">
          <g
             id="line2d_44">
            <g
               id="g85">
              <use
                 xlink:href="#m4d435cfd3b"
                 x="89.753351"
                 y="217.250101"
                 style="stroke: #000000; stroke-width: 0.6"
                 id="use85" />
            </g>
          </g>
        </g>
        <g
           id="ytick_10">
          <g
             id="line2d_45">
            <g
               id="g86">
              <use
                 xlink:href="#m4d435cfd3b"
                 x="89.753351"
                 y="210.297914"
                 style="stroke: #000000; stroke-width: 0.6"
                 id="use86" />
            </g>
          </g>
        </g>
        <g
           id="ytick_11">
          <g
             id="line2d_46">
            <g
               id="g87">
              <use
                 xlink:href="#m4d435cfd3b"
                 x="89.753351"
                 y="204.165651"
                 style="stroke: #000000; stroke-width: 0.6"
                 id="use87" />
            </g>
          </g>
        </g>
        <g
           id="ytick_12">
          <g
             id="line2d_47">
            <g
               id="g88">
              <use
                 xlink:href="#m4d435cfd3b"
                 x="89.753351"
                 y="162.592096"
                 style="stroke: #000000; stroke-width: 0.6"
                 id="use88" />
            </g>
          </g>
        </g>
        <g
           id="ytick_13">
          <g
             id="line2d_48">
            <g
               id="g89">
              <use
                 xlink:href="#m4d435cfd3b"
                 x="89.753351"
                 y="141.481935"
                 style="stroke: #000000; stroke-width: 0.6"
                 id="use89" />
            </g>
          </g>
        </g>
        <g
           id="ytick_14">
          <g
             id="line2d_49">
            <g
               id="g90">
              <use
                 xlink:href="#m4d435cfd3b"
                 x="89.753351"
                 y="126.504038"
                 style="stroke: #000000; stroke-width: 0.6"
                 id="use90" />
            </g>
          </g>
        </g>
        <g
           id="ytick_15">
          <g
             id="line2d_50">
            <g
               id="g91">
              <use
                 xlink:href="#m4d435cfd3b"
                 x="89.753351"
                 y="114.886278"
                 style="stroke: #000000; stroke-width: 0.6"
                 id="use91" />
            </g>
          </g>
        </g>
        <g
           id="ytick_16">
          <g
             id="line2d_51">
            <g
               id="g92">
              <use
                 xlink:href="#m4d435cfd3b"
                 x="89.753351"
                 y="105.393877"
                 style="stroke: #000000; stroke-width: 0.6"
                 id="use92" />
            </g>
          </g>
        </g>
        <g
           id="ytick_17">
          <g
             id="line2d_52">
            <g
               id="g93">
              <use
                 xlink:href="#m4d435cfd3b"
                 x="89.753351"
                 y="97.368166"
                 style="stroke: #000000; stroke-width: 0.6"
                 id="use93" />
            </g>
          </g>
        </g>
        <g
           id="ytick_18">
          <g
             id="line2d_53">
            <g
               id="g94">
              <use
                 xlink:href="#m4d435cfd3b"
                 x="89.753351"
                 y="90.415979"
                 style="stroke: #000000; stroke-width: 0.6"
                 id="use94" />
            </g>
          </g>
        </g>
        <g
           id="ytick_19">
          <g
             id="line2d_54">
            <g
               id="g95">
              <use
                 xlink:href="#m4d435cfd3b"
                 x="89.753351"
                 y="84.283716"
                 style="stroke: #000000; stroke-width: 0.6"
                 id="use95" />
            </g>
          </g>
        </g>
        <g
           id="ytick_20">
          <g
             id="line2d_55">
            <g
               id="g96">
              <use
                 xlink:href="#m4d435cfd3b"
                 x="89.753351"
                 y="42.710161"
                 style="stroke: #000000; stroke-width: 0.6"
                 id="use96" />
            </g>
          </g>
        </g>
        <g
           id="ytick_21">
          <g
             id="line2d_56">
            <g
               id="g97">
              <use
                 xlink:href="#m4d435cfd3b"
                 x="89.753351"
                 y="21.6"
                 style="stroke: #000000; stroke-width: 0.6"
                 id="use97" />
            </g>
          </g>
        </g>
        <g
           id="text_8">
          <!-- Decay rate (eigenvalue), $\gamma_m / T^2$ -->
          <g
             transform="translate(37.819192 295.726961) rotate(-90) scale(0.2 -0.2)"
             id="g124">
            <defs
               id="defs97">
              <path
                 id="CMR17-44"
                 d="M 333 4352  L 333 4186  C 774 4186 845 4186 845 3900  L 845 452  C 845 166 774 166 333 166  L 333 0  L 2368 0  C 3398 0 4224 943 4224 2141  C 4224 3346 3411 4352 2368 4352  L 333 4352  z M 1523 166  C 1267 166 1254 197 1254 414  L 1254 3938  C 1254 4155 1267 4186 1523 4186  L 2240 4186  C 2771 4186 3750 3874 3750 2141  C 3750 1242 3488 879 3366 707  C 3213 510 2848 166 2240 166  L 1523 166  z "
                 transform="scale(0.015625)" />
              <path
                 id="CMR17-63"
                 d="M 2234 2240  C 2112 2240 1933 2240 1933 2017  C 1933 1838 2080 1787 2163 1787  C 2208 1787 2394 1807 2394 2024  C 2394 2467 1958 2803 1466 2803  C 787 2803 211 2178 211 1363  C 211 516 813 -64 1466 -64  C 2259 -64 2458 677 2458 748  C 2458 774 2451 793 2406 793  C 2362 793 2355 787 2330 703  C 2163 180 1798 51 1523 51  C 1114 51 621 427 621 1369  C 621 2338 1094 2688 1472 2688  C 1722 2688 2093 2573 2234 2240  z "
                 transform="scale(0.015625)" />
              <path
                 id="CMR17-79"
                 d="M 2496 2197  C 2656 2586 2944 2586 3034 2586  L 3034 2752  C 2912 2752 2752 2752 2630 2752  C 2496 2752 2285 2752 2157 2758  L 2157 2592  C 2400 2573 2406 2394 2406 2343  C 2406 2280 2394 2248 2362 2171  L 1664 449  L 902 2306  C 870 2382 870 2426 870 2433  C 870 2573 1018 2586 1171 2586  L 1171 2758  C 1018 2752 742 2752 582 2752  C 410 2752 205 2752 64 2758  L 64 2586  C 410 2586 448 2554 531 2350  L 1485 15  C 1197 -738 1030 -1178 627 -1178  C 557 -1178 397 -1159 282 -1044  C 429 -1031 493 -942 493 -833  C 493 -725 416 -629 288 -629  C 147 -629 77 -725 77 -840  C 77 -1095 339 -1280 627 -1280  C 998 -1280 1229 -922 1357 -604  L 2496 2197  z "
                 transform="scale(0.015625)" />
              <path
                 id="CMR17-28"
                 d="M 1958 -1561  C 1958 -1555 1958 -1542 1939 -1523  C 1645 -1224 858 -407 858 1581  C 858 3569 1632 4379 1946 4697  C 1946 4704 1958 4717 1958 4736  C 1958 4755 1939 4768 1914 4768  C 1843 4768 1299 4296 986 3594  C 666 2887 576 2199 576 1588  C 576 1128 621 351 1005 -471  C 1312 -1135 1837 -1600 1914 -1600  C 1946 -1600 1958 -1587 1958 -1561  z "
                 transform="scale(0.015625)" />
              <path
                 id="CMR17-69"
                 d="M 992 3909  C 992 4049 877 4170 730 4170  C 589 4170 467 4056 467 3909  C 467 3769 582 3648 730 3648  C 870 3648 992 3763 992 3909  z M 243 2706  L 243 2541  C 602 2541 653 2502 653 2197  L 653 427  C 653 184 627 153 218 153  L 218 -13  C 371 0 646 0 806 0  C 960 0 1222 0 1370 -13  L 1370 153  C 992 153 979 191 979 420  L 979 2776  L 243 2706  z "
                 transform="scale(0.015625)" />
              <path
                 id="CMR17-67"
                 d="M 710 1164  C 832 1068 1043 960 1299 960  C 1805 960 2240 1357 2240 1888  C 2240 2054 2189 2310 1997 2509  C 2176 2692 2438 2752 2586 2752  C 2611 2752 2650 2752 2682 2734  C 2656 2728 2598 2703 2598 2605  C 2598 2527 2656 2471 2739 2471  C 2835 2471 2886 2533 2886 2614  C 2886 2731 2790 2854 2586 2854  C 2330 2854 2106 2738 1926 2580  C 1734 2753 1504 2816 1299 2816  C 794 2816 358 2419 358 1888  C 358 1522 570 1292 634 1228  C 442 1004 442 743 442 711  C 442 545 506 302 723 168  C 390 85 128 -169 128 -486  C 128 -943 736 -1280 1466 -1280  C 2170 -1280 2803 -956 2803 -479  C 2803 384 1856 384 1363 384  C 1216 384 954 384 922 391  C 723 423 589 602 589 826  C 589 883 589 1024 710 1164  z M 1299 1068  C 736 1068 736 1760 736 1889  C 736 2016 736 2708 1299 2708  C 1862 2708 1862 2016 1862 1889  C 1862 1760 1862 1068 1299 1068  z M 1466 -1171  C 826 -1171 384 -835 384 -486  C 384 -289 493 -105 634 -4  C 794 104 858 104 1293 104  C 1818 104 2547 104 2547 -486  C 2547 -835 2106 -1171 1466 -1171  z "
                 transform="scale(0.015625)" />
              <path
                 id="CMR17-6e"
                 d="M 2656 1933  C 2656 2259 2592 2790 1837 2790  C 1331 2790 1069 2400 973 2144  L 966 2144  L 966 2790  L 211 2720  L 211 2554  C 589 2554 646 2515 646 2208  L 646 428  C 646 184 621 153 211 153  L 211 -13  C 365 0 646 0 813 0  C 979 0 1267 0 1421 -13  L 1421 153  C 1011 153 986 178 986 428  L 986 1658  C 986 2247 1344 2688 1792 2688  C 2266 2688 2317 2266 2317 1958  L 2317 428  C 2317 184 2291 153 1882 153  L 1882 -13  C 2035 0 2317 0 2483 0  C 2650 0 2938 0 3091 -13  L 3091 153  C 2682 153 2656 178 2656 428  L 2656 1933  z "
                 transform="scale(0.015625)" />
              <path
                 id="CMR17-76"
                 d="M 2502 2163  C 2560 2304 2662 2560 3034 2560  L 3034 2726  C 2912 2726 2752 2726 2630 2726  C 2496 2726 2285 2726 2157 2732  L 2157 2566  C 2317 2553 2406 2477 2406 2311  C 2406 2253 2406 2240 2368 2151  L 1664 377  L 902 2286  C 864 2369 864 2381 864 2407  C 864 2560 1075 2560 1171 2560  L 1171 2732  C 1018 2726 736 2726 576 2726  C 403 2726 205 2726 64 2732  L 64 2560  C 307 2560 442 2560 518 2362  L 1446 44  C 1485 -51 1491 -64 1549 -64  C 1606 -64 1613 -51 1651 44  L 2502 2163  z "
                 transform="scale(0.015625)" />
              <path
                 id="CMR17-6c"
                 d="M 979 4396  L 218 4326  L 218 4160  C 595 4160 653 4122 653 3817  L 653 426  C 653 184 627 153 218 153  L 218 -13  C 371 0 653 0 813 0  C 979 0 1261 0 1414 -13  L 1414 153  C 1005 153 979 178 979 426  L 979 4396  z "
                 transform="scale(0.015625)" />
              <path
                 id="CMR17-29"
                 d="M 1683 1581  C 1683 2040 1638 2817 1254 3639  C 947 4303 422 4768 346 4768  C 326 4768 301 4761 301 4729  C 301 4717 307 4710 314 4697  C 621 4378 1402 3568 1402 1584  C 1402 -407 627 -1217 314 -1537  C 307 -1549 301 -1556 301 -1568  C 301 -1600 326 -1600 346 -1600  C 416 -1600 960 -1128 1274 -426  C 1594 281 1683 969 1683 1581  z "
                 transform="scale(0.015625)" />
              <path
                 id="CMMI12-d"
                 d="M 2419 760  C 2406 1071 2394 1561 2150 2133  C 2022 2452 1805 2788 1338 2788  C 550 2788 122 1790 122 1625  C 122 1567 166 1567 186 1567  C 243 1567 243 1580 275 1663  C 410 2057 819 2368 1261 2368  C 2150 2368 2278 1383 2278 754  C 2278 352 2234 220 2195 92  C 2074 -302 1862 -1090 1862 -1268  C 1862 -1319 1882 -1376 1933 -1376  C 2029 -1376 2086 -1166 2157 -912  C 2310 -353 2349 -73 2381 181  C 2400 334 2765 1384 3270 2382  C 3315 2483 3405 2655 3405 2674  C 3405 2680 3398 2725 3341 2725  C 3328 2725 3296 2725 3283 2699  C 3270 2687 3046 2254 2854 1822  C 2758 1606 2630 1320 2419 760  z "
                 transform="scale(0.015625)" />
              <path
                 id="CMMI12-6d"
                 d="M 1318 1871  C 1331 1910 1491 2229 1728 2433  C 1894 2586 2112 2689 2362 2689  C 2618 2689 2707 2497 2707 2242  C 2707 2203 2707 2076 2630 1775  L 2470 1118  C 2419 926 2298 453 2285 383  C 2259 287 2221 121 2221 96  C 2221 6 2291 -64 2387 -64  C 2579 -64 2611 83 2669 313  L 3053 1839  C 3066 1890 3398 2689 4102 2689  C 4358 2689 4448 2497 4448 2242  C 4448 1884 4198 1188 4058 805  C 4000 651 3968 568 3968 453  C 3968 166 4166 -64 4474 -64  C 5069 -64 5293 875 5293 913  C 5293 945 5267 971 5229 971  C 5171 971 5165 952 5133 843  C 4986 332 4749 64 4493 64  C 4429 64 4326 64 4326 269  C 4326 436 4403 640 4429 710  C 4544 1018 4832 1773 4832 2145  C 4832 2528 4608 2816 4122 2816  C 3693 2816 3347 2574 3091 2197  C 3072 2542 2861 2816 2381 2816  C 1811 2816 1510 2415 1395 2255  C 1376 2618 1114 2816 832 2816  C 646 2816 499 2727 378 2484  C 262 2254 173 1865 173 1839  C 173 1814 198 1782 243 1782  C 294 1782 301 1788 339 1935  C 435 2312 557 2689 813 2689  C 960 2689 1011 2586 1011 2395  C 1011 2254 947 2005 902 1807  L 723 1118  C 698 996 627 709 595 594  C 550 428 480 128 480 96  C 480 6 550 -64 646 -64  C 723 -64 813 -26 864 70  C 877 102 934 326 966 453  L 1107 1028  L 1318 1871  z "
                 transform="scale(0.015625)" />
            </defs>
            <use
               xlink:href="#CMR17-44"
               transform="scale(0.996264)"
               id="use98" />
            <use
               xlink:href="#CMR17-65"
               transform="translate(70.393556 0) scale(0.996264)"
               id="use99" />
            <use
               xlink:href="#CMR17-63"
               transform="translate(110.879216 0) scale(0.996264)"
               id="use100" />
            <use
               xlink:href="#CMR17-61"
               transform="translate(151.364877 0) scale(0.996264)"
               id="use101" />
            <use
               xlink:href="#CMR17-79"
               transform="translate(194.4529 0) scale(0.996264)"
               id="use102" />
            <use
               xlink:href="#CMR17-72"
               transform="translate(272.821782 0) scale(0.996264)"
               id="use103" />
            <use
               xlink:href="#CMR17-61"
               transform="translate(308.10255 0) scale(0.996264)"
               id="use104" />
            <use
               xlink:href="#CMR17-74"
               transform="translate(353.793027 0) scale(0.996264)"
               id="use105" />
            <use
               xlink:href="#CMR17-65"
               transform="translate(389.073795 0) scale(0.996264)"
               id="use106" />
            <use
               xlink:href="#CMR17-28"
               transform="translate(459.635422 0) scale(0.996264)"
               id="use107" />
            <use
               xlink:href="#CMR17-65"
               transform="translate(494.91619 0) scale(0.996264)"
               id="use108" />
            <use
               xlink:href="#CMR17-69"
               transform="translate(535.40185 0) scale(0.996264)"
               id="use109" />
            <use
               xlink:href="#CMR17-67"
               transform="translate(560.272908 0) scale(0.996264)"
               id="use110" />
            <use
               xlink:href="#CMR17-65"
               transform="translate(605.963386 0) scale(0.996264)"
               id="use111" />
            <use
               xlink:href="#CMR17-6e"
               transform="translate(646.449046 0) scale(0.996264)"
               id="use112" />
            <use
               xlink:href="#CMR17-76"
               transform="translate(694.741962 0) scale(0.996264)"
               id="use113" />
            <use
               xlink:href="#CMR17-61"
               transform="translate(737.830061 0) scale(0.996264)"
               id="use114" />
            <use
               xlink:href="#CMR17-6c"
               transform="translate(783.520538 0) scale(0.996264)"
               id="use115" />
            <use
               xlink:href="#CMR17-75"
               transform="translate(808.391597 0) scale(0.996264)"
               id="use116" />
            <use
               xlink:href="#CMR17-65"
               transform="translate(859.286966 0) scale(0.996264)"
               id="use117" />
            <use
               xlink:href="#CMR17-29"
               transform="translate(899.772627 0) scale(0.996264)"
               id="use118" />
            <use
               xlink:href="#CMR17-2c"
               transform="translate(935.053395 0) scale(0.996264)"
               id="use119" />
            <use
               xlink:href="#CMMI12-d"
               transform="translate(990.00042 0) scale(0.996264)"
               id="use120" />
            <use
               xlink:href="#CMMI12-6d"
               transform="translate(1040.599552 -14.943915) scale(0.697382)"
               id="use121" />
            <use
               xlink:href="#CMMI12-3d"
               transform="translate(1100.826475 0) scale(0.996264)"
               id="use122" />
            <use
               xlink:href="#CMMI12-54"
               transform="translate(1149.601394 0) scale(0.996264)"
               id="use123" />
            <use
               xlink:href="#CMR17-32"
               transform="translate(1220.325026 36.153639) scale(0.697382)"
               id="use124" />
          </g>
        </g>
      </g>
      <g
         id="line2d_66"
         transform="matrix(0.61321026,0,0,1.1319331,95.15961,-14.857252)">
        <path
           d="m 68.310562,80.529852 h 21.442789 21.438619 8.26516 13.17155 21.44364 21.4365 21.43985 5.3597 16.08001 8.26701 2.45257 7.93601 2.78414 2.71312 2.64608 2.27007 8.45013 5.36011 8.04625 8.03325 1.22437 4.13559 6.26317 4.45572 5.40902 10.67219 0.25326 5.21653 5.17205 5.21654 5.17621 5.76477 4.63048 6.30984 4.07608 6.42318 3.96967 4.40775 5.98425 5.90685 4.4831 2.04764 5.35996 2.97552 13.15898 5.30535 2.32332 8.50672 1.89305 10.39305 3.68351 2.90707 3.798 8.0931 2.29835 9.59235 11.18619 10.36398 H 496.8"
           clip-path="url(#pf109f2a57d)"
           style="fill:none;stroke:#0000ff;stroke-dasharray:3.7, 1.6;stroke-dashoffset:0"
           id="path133" />
      </g>
      <g
         id="line2d_57">
        <path
           d="M 119.45713 173.136332  L 239.828107 184.277525  L 245.187315 185.500321  L 255.907513 190.363471  L 261.267624 192.883101  L 269.313865 194.204009  L 277.347118 197.470371  L 278.571489 197.222275  L 282.70708 200.751308  L 288.970249 202.764134  L 293.425967 204.032455  L 298.834995 205.319953  L 309.507184 210.708668  L 309.760439 209.440958  L 314.976972 211.616062  L 320.149023 215.589244  L 325.365557 218.029428  L 330.541774 221.875247  L 336.306539 224.844478  L 340.937023 227.384906  L 347.246864 231.306487  L 351.322942 232.267172  L 357.746119 241.200097  L 361.715792 241.852482  L 366.12354 249.74611  L 372.107789 254.285083  L 378.01464 265.894484  L 382.497738 268.30313  L 384.545378 268.443738  L 389.90534 281.698869  L 392.880864 283.228854  L 413.668514 331.376301  L 424.068275 361.554741  L 434.461329 389.680352  L 434.50123 389.8  "
           clip-path="url(#pf109f2a57d)"
           style="fill: none; stroke-dasharray: 7.4,3.2; stroke-dashoffset: 0; stroke: #000000; stroke-opacity: 0.4; stroke-width: 2"
           id="path124" />
      </g>
      <g
         id="line2d_58">
        <path
           d="M 89.753351 221.845259  L 111.19197 231.029044  L 119.45713 276.213373  L 132.628679 224.888605  L 154.072316 215.363029  L 175.508821 220.86872  L 196.948673 226.930437  L 202.308375 233.183637  L 218.388376 239.33294  L 226.655389 240.511453  L 229.107956 235.081549  L 237.043974 239.422217  L 239.828107 236.945579  L 242.541227 236.095927  L 245.187315 236.552773  L 247.457381 240.666908  L 255.907513 243.383548  L 261.267624 247.124924  L 269.313865 247.556001  L 277.347118 251.320461  L 278.571489 251.25346  L 282.70708 253.936604  L 288.970249 255.313994  L 293.425967 255.61064  L 298.834995 259.056447  L 309.507184 266.47478  L 309.760439 263.927606  L 314.976972 263.579697  L 320.149023 268.764537  L 325.365557 267.392109  L 330.541774 270.899213  L 336.306539 272.550296  L 340.937023 273.128553  L 347.246864 280.089  L 351.322942 275.725605  L 357.746119 283.879758  L 361.715792 281.848217  L 366.12354 286.143614  L 372.107789 286.789771  L 378.01464 297.800632  L 382.497738 297.031719  L 384.545378 291.336217  L 389.90534 294.091791  L 392.880864 301.401868  L 406.039839 325.216616  L 411.345192 334.768438  L 413.668514 339.122847  L 422.175231 357.59543  L 424.068275 361.009563  L 434.461329 385.628882  L 437.703081 389.8  "
           clip-path="url(#pf109f2a57d)"
           style="fill: none; stroke-dasharray: 7.4,3.2; stroke-dashoffset: 0; stroke: #34495e; stroke-opacity: 0.4; stroke-width: 2"
           id="path125" />
      </g>
      <g
         id="line2d_67"
         transform="translate(-145.5)">
        <path
           d="m 197.87994,389.8 4.42843,-9.90481 16.08001,-35.96516 8.26701,-18.49033 2.45257,-5.48551 7.93601,-17.75001 2.78414,-6.22711 2.71312,-6.06827 2.64608,-5.91834 2.27007,-5.07732 8.45013,-18.8999 5.36011,-11.98864 8.04625,-17.99654 8.03325,-17.96749 1.22437,-2.73848 4.13559,-9.24982 6.26317,-14.00845 4.45572,-9.96584 5.40902,-12.09805 10.67219,-23.86984 0.25326,-0.56644 5.21653,-11.6675 5.17205,-11.56802 5.21654,-11.6675 5.17621,-11.577333 5.76477,-12.893702 4.63048,-10.356724 6.30984,-14.112839 4.07608,-9.116719 6.42318,-14.366331 3.96967,-8.878728 4.40775,-9.858543 L 372.10779,0.115103 372.60635,-1"
           clip-path="url(#pf109f2a57d)"
           style="fill:none;stroke:#ff0000;stroke-dasharray:6.4, 1.6, 1, 1.6;stroke-dashoffset:0"
           id="path134" />
      </g>
      <g
         id="line2d_59">
        <path
           d="M 175.508821 63.950645  L 218.388376 76.693011  L 226.655389 76.75623  L 229.107956 82.46471  L 237.043974 82.888493  L 239.828107 85.257235  L 242.541227 88.081713  L 245.187315 86.829938  L 247.457381 88.376138  L 255.907513 83.847414  L 261.267624 90.495883  L 269.313865 92.300857  L 277.347118 90.618024  L 278.571489 91.024282  L 282.70708 89.512739  L 288.970249 94.071445  L 293.425967 92.848034  L 298.834995 93.070791  L 309.507184 95.149885  L 309.760439 95.716323  L 314.976972 94.124373  L 320.149023 94.284705  L 325.365557 97.666528  L 330.541774 97.602169  L 336.306539 98.878111  L 340.937023 97.924239  L 347.246864 99.745934  L 351.322942 100.352622  L 357.746119 100.679172  L 361.715792 97.75116  L 366.12354 97.783021  L 372.107789 103.261058  L 378.01464 104.250013  L 382.497738 104.737548  L 384.545378 104.914979  L 389.90534 106.445712  L 392.880864 111.875793  L 406.039839 116.524811  L 411.345192 119.474866  L 413.668514 120.330115  L 422.175231 125.21844  L 424.068275 126.370883  L 434.461329 134.191598  L 438.144839 137.346825  L 441.051908 136.170275  L 444.849914 143.973155  L 452.943008 152.811698  L 455.241359 155.562958  L 464.833708 167.846709  L 476.019902 183.991771  L 486.383877 200.439074  L 496.8 218.156889  "
           clip-path="url(#pf109f2a57d)"
           style="fill: none; stroke: #99fca6; stroke-width: 2; stroke-linecap: square"
           id="path126" />
      </g>
      <g
         id="line2d_60">
        <path
           d="M 89.753351 233.382237  L 111.19197 231.491839  L 119.45713 243.571013  L 132.628679 229.310191  L 154.072316 212.557553  L 175.508821 216.292066  L 196.948673 221.195915  L 202.308375 224.930274  L 218.388376 229.362335  L 226.655389 229.805978  L 229.107956 223.905637  L 237.043974 225.507723  L 239.828107 222.657281  L 242.541227 220.5513  L 245.187315 223.026138  L 247.457381 224.096553  L 255.907513 222.794032  L 261.267624 222.696095  L 269.313865 220.208503  L 277.347118 220.73792  L 278.571489 217.791036  L 282.70708 217.848545  L 288.970249 217.256648  L 293.425967 215.832576  L 298.834995 212.952726  L 309.507184 209.276561  L 309.760439 207.863139  L 314.976972 205.632341  L 320.149023 204.231733  L 325.365557 201.153769  L 330.541774 198.789888  L 336.306539 193.718655  L 340.937023 190.41563  L 347.246864 187.323368  L 351.322942 183.530348  L 357.746119 179.0823  L 361.715792 175.384834  L 366.12354 172.258334  L 372.107789 167.765381  L 378.01464 162.160474  L 382.497738 158.959868  L 384.545378 156.964336  L 389.90534 152.667626  L 392.880864 154.399696  L 406.039839 147.062937  L 411.345192 144.729744  L 413.668514 143.892056  L 422.175231 141.91762  L 424.068275 141.548642  L 434.461329 142.626824  L 438.144839 143.782669  L 441.051908 141.097697  L 444.849914 146.979386  L 452.943008 152.811698  L 455.241359 155.425767  L 464.833708 163.431857  L 476.019902 177.003172  L 486.383877 191.807255  L 496.8 210.471863  "
           clip-path="url(#pf109f2a57d)"
           style="fill: none; stroke: #8000ff; stroke-width: 2; stroke-linecap: square"
           id="path127" />
      </g>
      <g
         id="line2d_61">
        <path
           d="M 132.628679 171.719033  L 154.072316 102.82076  L 175.508821 104.108279  L 196.948673 87.384658  L 202.308375 179.966776  L 218.388376 74.90155  L 229.107956 79.850065  L 237.043974 100.889428  L 239.828107 78.305048  L 242.541227 102.021754  L 245.187315 99.137298  L 247.457381 88.092409  L 255.907513 82.064224  L 261.267624 79.603537  L 269.313865 81.798625  L 277.347118 85.009299  L 278.571489 90.710642  L 282.70708 78.280165  L 288.970249 87.844434  L 293.425967 81.316402  L 298.834995 88.483568  L 309.507184 88.197698  L 309.760439 89.359161  L 314.976972 91.567522  L 320.149023 86.479988  L 325.365557 94.082459  L 330.541774 92.414209  L 336.306539 93.499915  L 340.937023 94.873087  L 347.246864 95.541169  L 351.322942 98.725487  L 357.746119 99.124905  L 361.715792 100.329115  L 366.12354 101.673433  L 372.107789 104.345765  L 378.01464 97.992143  L 382.497738 108.019217  L 384.545378 108.499298  L 389.90534 102.688642  L 392.880864 114.628328  L 406.039839 120.428657  L 411.345192 122.744536  L 413.668514 136.006869  L 422.175231 126.830459  L 424.068275 127.581729  L 434.461329 132.656967  L 438.144839 134.787395  L 441.051908 134.626253  L 444.849914 139.371443  L 452.943008 145.949479  L 455.241359 148.149193  L 464.833708 158.681696  L 476.019902 172.064105  L 486.383877 186.976661  "
           clip-path="url(#pf109f2a57d)"
           style="fill: none; stroke: #bbee91; stroke-width: 2; stroke-linecap: square"
           id="path128" />
      </g>
      <g
         id="line2d_62">
        <path
           d="M 89.753351 231.015281  L 111.19197 228.62797  L 119.45713 281.32972  L 132.628679 211.455093  L 154.072316 210.7129  L 175.508821 213.797075  L 196.948673 213.215855  L 202.308375 214.581759  L 218.388376 213.792794  L 226.655389 212.137825  L 229.107956 208.506847  L 237.043974 207.373462  L 239.828107 203.672479  L 242.541227 201.71504  L 245.187315 202.055  L 247.457381 203.373488  L 255.907513 200.562315  L 261.267624 198.56396  L 269.313865 193.781065  L 277.347118 190.582263  L 278.571489 188.399321  L 282.70708 187.902156  L 288.970249 184.75658  L 293.425967 181.604146  L 298.834995 177.208326  L 309.507184 170.725221  L 309.760439 170.055377  L 314.976972 166.160907  L 320.149023 163.223622  L 325.365557 160.550106  L 330.541774 155.766354  L 336.306539 152.883948  L 340.937023 148.96966  L 347.246864 144.726503  L 351.322942 142.294773  L 357.746119 137.980304  L 361.715792 136.048484  L 366.12354 133.87108  L 372.107789 131.246784  L 378.01464 128.947171  L 382.497738 126.49963  L 384.545378 126.296449  L 389.90534 124.587353  L 392.880864 127.142776  L 406.039839 125.472034  L 411.345192 125.212489  L 413.668514 125.126011  L 422.175231 126.17965  L 424.068275 126.370883  L 434.461329 129.92166  L 438.144839 131.800824  L 441.051908 131.350703  L 444.849914 135.873856  L 452.943008 142.298633  L 455.241359 144.358955  L 464.833708 154.506917  L 476.019902 168.989596  L 486.383877 183.043035  L 496.8 199.533296  "
           clip-path="url(#pf109f2a57d)"
           style="fill: none; stroke: #4062fa; stroke-width: 2; stroke-linecap: square"
           id="path129" />
      </g>
      <g
         id="line2d_63">
        <path
           d="M 237.043974 79.030131  L 242.541227 79.707746  L 245.187315 78.934877  L 261.267624 79.603537  L 269.313865 79.779267  L 282.70708 79.374097  L 288.970249 83.314268  L 298.834995 80.100642  L 309.507184 81.024119  L 309.760439 85.330097  L 314.976972 85.011896  L 320.149023 85.522461  L 325.365557 88.574622  L 330.541774 87.538675  L 336.306539 90.22184  L 340.937023 91.281038  L 347.246864 92.068945  L 351.322942 95.994911  L 357.746119 91.450387  L 361.715792 99.803211  L 366.12354 100.125767  L 372.107789 104.528767  L 378.01464 106.122505  L 382.497738 106.902186  L 384.545378 107.808172  L 389.90534 109.924042  L 392.880864 113.724416  L 406.039839 117.391663  L 411.345192 118.134086  L 413.668514 119.095336  L 422.175231 121.541802  L 424.068275 122.065616  L 434.461329 126.741186  L 438.144839 128.804772  L 441.051908 128.26909  L 444.849914 133.291637  L 452.943008 139.999626  L 455.241359 144.692344  L 464.833708 157.535285  L 476.019902 166.989633  L 486.383877 181.656186  L 496.8 198.893811  "
           clip-path="url(#pf109f2a57d)"
           style="fill: none; stroke: #dcd67a; stroke-width: 2; stroke-linecap: square"
           id="path130" />
      </g>
      <g
         id="line2d_64">
        <path
           d="M 89.753351 220.567549  L 111.19197 210.692509  L 119.45713 251.232638  L 132.628679 210.622051  L 154.072316 206.141561  L 175.508821 207.7577  L 196.948673 204.644965  L 202.308375 203.72933  L 218.388376 200.954045  L 226.655389 198.047673  L 229.107956 194.193405  L 237.043974 191.635491  L 239.828107 187.621058  L 242.541227 185.135045  L 245.187315 184.89609  L 247.457381 184.82945  L 255.907513 180.544649  L 261.267624 178.730698  L 269.313865 172.614771  L 277.347118 167.346743  L 278.571489 165.614931  L 282.70708 164.98933  L 288.970249 161.362977  L 293.425967 157.43051  L 298.834995 152.867486  L 309.507184 146.896426  L 309.760439 146.617258  L 314.976972 142.356982  L 320.149023 139.725019  L 325.365557 137.346636  L 330.541774 133.690227  L 336.306539 131.99027  L 340.937023 129.134149  L 347.246864 126.341591  L 351.322942 125.723186  L 357.746119 122.744664  L 361.715792 121.970547  L 366.12354 120.694153  L 372.107789 119.262804  L 378.01464 118.665051  L 382.497738 117.486533  L 384.545378 117.323463  L 389.90534 116.687249  L 392.880864 118.507736  L 406.039839 118.162181  L 411.345192 118.577188  L 413.668514 118.690166  L 422.175231 120.08333  L 424.068275 120.706164  L 434.461329 124.662127  L 438.144839 126.789137  L 441.051908 126.794089  L 444.849914 131.233501  L 452.943008 138.230825  L 455.241359 140.722615  L 464.833708 150.642188  L 476.019902 165.470414  L 486.383877 180.247376  L 496.8 196.462161  "
           clip-path="url(#pf109f2a57d)"
           style="fill: none; stroke: #00b5eb; stroke-width: 2; stroke-linecap: square"
           id="path131" />
      </g>
      <g
         id="line2d_65">
        <path
           d="M 154.072316 86.108934  L 196.948673 97.615569  L 202.308375 105.048339  L 218.388376 100.486223  L 226.655389 97.203145  L 229.107956 95.829226  L 237.043974 102.84999  L 239.828107 95.047998  L 242.541227 98.919147  L 245.187315 97.617071  L 247.457381 98.38318  L 255.907513 89.192007  L 261.267624 84.182022  L 269.313865 84.412428  L 277.347118 88.285807  L 278.571489 78.378602  L 282.70708 95.397742  L 288.970249 84.189315  L 298.834995 81.727776  L 309.507184 90.003569  L 309.760439 89.961064  L 314.976972 88.499294  L 320.149023 91.021137  L 325.365557 93.196241  L 330.541774 94.535959  L 336.306539 99.571794  L 340.937023 98.544056  L 347.246864 99.745934  L 351.322942 104.210984  L 357.746119 103.934236  L 361.715792 106.792787  L 366.12354 109.141109  L 372.107789 109.93285  L 378.01464 112.016991  L 382.497738 112.743631  L 384.545378 112.724656  L 389.90534 113.54991  L 392.880864 117.054692  L 406.039839 116.096738  L 411.345192 116.82697  L 413.668514 117.493238  L 422.175231 119.511192  L 424.068275 119.907211  L 438.144839 126.29719  L 444.849914 130.965129  L 452.943008 137.690176  L 455.241359 140.004478  L 464.833708 150.39446  L 476.019902 164.660062  L 486.383877 179.958612  L 496.8 197.483058  "
           clip-path="url(#pf109f2a57d)"
           style="fill: none; stroke: #ffb360; stroke-width: 2; stroke-linecap: square"
           id="path132" />
      </g>
      <g
         id="patch_3">
        <path
           d="M 89.753351 318.562089  L 89.753351 21.6  "
           style="fill: none; stroke: #000000; stroke-width: 0.8; stroke-linejoin: miter; stroke-linecap: square"
           id="path135" />
      </g>
      <g
         id="patch_4">
        <path
           d="M 496.8 318.562089  L 496.8 21.6  "
           style="fill: none; stroke: #000000; stroke-width: 0.8; stroke-linejoin: miter; stroke-linecap: square"
           id="path136" />
      </g>
      <g
         id="patch_5">
        <path
           d="M 89.753351 318.562089  L 496.8 318.562089  "
           style="fill: none; stroke: #000000; stroke-width: 0.8; stroke-linejoin: miter; stroke-linecap: square"
           id="path137" />
      </g>
      <g
         id="patch_6">
        <path
           d="M 89.753351 21.6  L 496.8 21.6  "
           style="fill: none; stroke: #000000; stroke-width: 0.8; stroke-linejoin: miter; stroke-linecap: square"
           id="path138" />
      </g>
      <g
         id="legend_1"
         transform="translate(405.91697,11.737358)">
        <g
           id="text_9"
           transform="rotate(-7.9885553,-145.95179,578.03907)">
          <!-- $m=0$ -->
          <g
             transform="matrix(0.16192476,0.1399609,0.1399609,-0.16192476,-52.406864,220.89946)"
             id="g141">
            <defs
               id="defs139">
              <path
                 id="CMR17-3d"
                 d="m 4115,2017 c 96,0 192,0 192,108 0,115 -109,115 -217,115 H 512 c -109,0 -218,0 -218,-115 0,-108 96,-108 192,-108 z M 4090,896 c 108,0 217,0 217,115 0,108 -96,108 -192,108 H 486 c -96,0 -192,0 -192,-108 0,-115 109,-115 218,-115 z"
                 transform="scale(0.015625)" />
            </defs>
            <use
               xlink:href="#CMMI12-6d"
               transform="scale(0.996264)"
               id="use139" />
            <use
               xlink:href="#CMR17-3d"
               transform="matrix(0.996264,0,0,0.996264,113.00123,0)"
               id="use140" />
            <use
               xlink:href="#CMR17-30"
               transform="matrix(0.996264,0,0,0.996264,212.39003,0)"
               id="use141" />
          </g>
        </g>
        <g
           id="text_10"
           transform="matrix(1.4259656,0.60961478,-0.60961478,1.4259656,-283.16164,76.787189)">
          <!-- $m=1$ -->
          <g
             transform="matrix(0.16,0,0,-0.16,148.95335,69.499476)"
             id="g144">
            <use
               xlink:href="#CMMI12-6d"
               transform="scale(0.996264)"
               id="use142" />
            <use
               xlink:href="#CMR17-3d"
               transform="matrix(0.996264,0,0,0.996264,113.00123,0)"
               id="use143" />
            <use
               xlink:href="#CMR17-31"
               transform="matrix(0.996264,0,0,0.996264,212.39003,0)"
               id="use144" />
          </g>
        </g>
        <g
           id="line2d_70"
           transform="translate(-129.11094,73.847545)">
          <path
             d="m 104.15335,86.198952 h 16 16"
             style="fill:none;stroke:#99fca6;stroke-width:2;stroke-linecap:square"
             id="path144" />
        </g>
        <g
           id="text_11"
           transform="translate(-129.11094,73.847545)">
          <!-- $m=2$ -->
          <g
             transform="matrix(0.16,0,0,-0.16,148.95335,91.798952)"
             id="g147">
            <use
               xlink:href="#CMMI12-6d"
               transform="scale(0.996264)"
               id="use145" />
            <use
               xlink:href="#CMR17-3d"
               transform="matrix(0.996264,0,0,0.996264,113.00123,0)"
               id="use146" />
            <use
               xlink:href="#CMR17-32"
               transform="matrix(0.996264,0,0,0.996264,212.39003,0)"
               id="use147" />
          </g>
        </g>
        <g
           id="line2d_71"
           transform="translate(-129.11094,73.847545)">
          <path
             d="m 104.15335,108.49843 h 16 16"
             style="fill:none;stroke:#8000ff;stroke-width:2;stroke-linecap:square"
             id="path147" />
        </g>
        <g
           id="text_12"
           transform="translate(-129.11094,73.847545)">
          <!-- $m=3$ -->
          <g
             transform="matrix(0.16,0,0,-0.16,148.95335,114.09843)"
             id="g150">
            <use
               xlink:href="#CMMI12-6d"
               transform="scale(0.996264)"
               id="use148" />
            <use
               xlink:href="#CMR17-3d"
               transform="matrix(0.996264,0,0,0.996264,113.00123,0)"
               id="use149" />
            <use
               xlink:href="#CMR17-33"
               transform="matrix(0.996264,0,0,0.996264,212.39003,0)"
               id="use150" />
          </g>
        </g>
        <g
           id="line2d_72"
           transform="translate(-129.11094,73.847545)">
          <path
             d="m 104.15335,130.7979 h 16 16"
             style="fill:none;stroke:#bbee91;stroke-width:2;stroke-linecap:square"
             id="path150" />
        </g>
        <g
           id="text_13"
           transform="translate(-129.11094,73.847545)">
          <!-- $m=4$ -->
          <g
             transform="matrix(0.16,0,0,-0.16,148.95335,136.3979)"
             id="g153">
            <defs
               id="defs150">
              <path
                 id="CMR17-34"
                 d="m 2150,4122 c 0,134 -6,134 -121,134 L 128,1254 V 1088 H 1779 V 457 c 0,-233 -13,-297 -461,-297 H 1197 V 0 c 205,0 550,0 768,0 217,0 563,0 768,0 v 160 h -122 c -448,0 -461,64 -461,297 v 631 h 653 v 166 H 2150 Z M 1798,3703 V 1254 H 256 Z"
                 transform="scale(0.015625)" />
            </defs>
            <use
               xlink:href="#CMMI12-6d"
               transform="scale(0.996264)"
               id="use151" />
            <use
               xlink:href="#CMR17-3d"
               transform="matrix(0.996264,0,0,0.996264,113.00123,0)"
               id="use152" />
            <use
               xlink:href="#CMR17-34"
               transform="matrix(0.996264,0,0,0.996264,212.39003,0)"
               id="use153" />
          </g>
        </g>
        <g
           id="line2d_73"
           transform="translate(-129.11094,73.847545)">
          <path
             d="m 104.15335,153.09738 h 16 16"
             style="fill:none;stroke:#4062fa;stroke-width:2;stroke-linecap:square"
             id="path153" />
        </g>
        <g
           id="text_14"
           transform="translate(-129.11094,73.847545)">
          <!-- $m=5$ -->
          <g
             transform="matrix(0.16,0,0,-0.16,148.95335,158.69738)"
             id="g156">
            <defs
               id="defs153">
              <path
                 id="CMR17-35"
                 d="m 730,3692 c 64,-26 326,-108 595,-108 595,0 921,327 1107,516 0,57 0,92 -38,92 -7,0 -20,0 -71,-29 -224,-105 -486,-190 -806,-190 -192,0 -480,26 -794,166 -70,32 -83,32 -89,32 -32,0 -39,-7 -39,-134 V 2203 c 0,-114 0,-146 64,-146 32,0 45,13 77,57 205,287 486,408 806,408 224,0 704,-140 704,-1233 0,-204 0,-574 -192,-868 C 1894,159 1645,25 1370,25 947,25 518,320 403,814 c 26,-7 77,-19 103,-19 83,0 243,45 243,243 0,172 -122,242 -243,242 -148,0 -244,-90 -244,-269 0,-557 442,-1139 1120,-1139 660,0 1287,568 1287,1392 0,766 -499,1360 -1120,1360 -327,0 -602,-121 -819,-350 z"
                 transform="scale(0.015625)" />
            </defs>
            <use
               xlink:href="#CMMI12-6d"
               transform="scale(0.996264)"
               id="use154" />
            <use
               xlink:href="#CMR17-3d"
               transform="matrix(0.996264,0,0,0.996264,113.00123,0)"
               id="use155" />
            <use
               xlink:href="#CMR17-35"
               transform="matrix(0.996264,0,0,0.996264,212.39003,0)"
               id="use156" />
          </g>
        </g>
        <g
           id="line2d_74"
           transform="translate(-120.79698,73.847545)">
          <path
             d="m 104.15335,175.39686 h 16 16"
             style="fill:none;stroke:#dcd67a;stroke-width:2;stroke-linecap:square"
             id="path156" />
        </g>
        <g
           id="text_15"
           transform="translate(-101.72377,73.847545)">
          <!-- $m=6$ -->
          <g
             transform="matrix(0.16,0,0,-0.16,129.88014,180.99686)"
             id="g159">
            <defs
               id="defs156">
              <path
                 id="CMR17-36"
                 d="m 678,2176 c 0,1514 717,1856 1133,1856 135,0 461,-23 589,-256 -102,0 -294,0 -294,-223 0,-172 140,-230 230,-230 58,0 230,25 230,237 0,394 -320,619 -761,619 -762,0 -1562,-789 -1562,-2195 0,-1731 723,-2112 1235,-2112 621,0 1210,555 1210,1411 0,798 -518,1379 -1171,1379 -391,0 -679,-255 -839,-702 z M 1478,25 c -787,0 -787,1175 -787,1411 0,460 218,1124 813,1124 109,0 422,0 634,-440 115,-250 115,-511 115,-831 0,-345 0,-599 -135,-855 C 1978,171 1773,25 1478,25 Z"
                 transform="scale(0.015625)" />
            </defs>
            <use
               xlink:href="#CMMI12-6d"
               transform="scale(0.996264)"
               id="use157" />
            <use
               xlink:href="#CMR17-3d"
               transform="matrix(0.996264,0,0,0.996264,113.00123,0)"
               id="use158" />
            <use
               xlink:href="#CMR17-36"
               transform="matrix(0.996264,0,0,0.996264,212.39003,0)"
               id="use159" />
          </g>
        </g>
        <g
           id="line2d_75"
           transform="translate(-110.72377,70.847545)">
          <path
             d="m 104.15335,197.69633 h 16 16"
             style="fill:none;stroke:#00b5eb;stroke-width:2;stroke-linecap:square"
             id="path159" />
        </g>
        <g
           id="text_16"
           transform="translate(-110.72377,70.847545)">
          <!-- $m=7$ -->
          <g
             transform="matrix(0.16,0,0,-0.16,148.95335,203.29633)"
             id="g162">
            <defs
               id="defs159">
              <path
                 id="CMR17-37"
                 d="m 2886,3941 v 140 H 1382 c -748,0 -761,84 -787,207 H 480 L 294,3094 h 116 c 19,121 64,446 140,567 39,51 512,51 621,51 H 2579 L 1869,2661 C 1395,1954 1069,999 1069,165 c 0,-76 0,-293 230,-293 231,0 231,217 231,299 v 294 c 0,1043 179,1731 473,2171 z"
                 transform="scale(0.015625)" />
            </defs>
            <use
               xlink:href="#CMMI12-6d"
               transform="scale(0.996264)"
               id="use160" />
            <use
               xlink:href="#CMR17-3d"
               transform="matrix(0.996264,0,0,0.996264,113.00123,0)"
               id="use161" />
            <use
               xlink:href="#CMR17-37"
               transform="matrix(0.996264,0,0,0.996264,212.39003,0)"
               id="use162" />
          </g>
        </g>
        <g
           id="line2d_76"
           transform="translate(-101.72377,66.347545)">
          <path
             d="m 104.15335,219.99581 h 16 16"
             style="fill:none;stroke:#ffb360;stroke-width:2;stroke-linecap:square"
             id="path162" />
        </g>
        <g
           id="text_17"
           transform="translate(-101.72377,66.347545)">
          <!-- $m=8$ -->
          <g
             transform="matrix(0.16,0,0,-0.16,148.95335,225.59581)"
             id="g165">
            <defs
               id="defs162">
              <path
                 id="CMR17-38"
                 d="m 1741,2264 c 403,203 813,509 813,999 0,578 -564,916 -1082,916 -582,0 -1094,-420 -1094,-999 0,-159 38,-433 288,-675 64,-63 332,-254 505,-375 C 883,1983 211,1634 211,934 211,279 838,-128 1459,-128 c 685,0 1261,490 1261,1138 0,580 -390,847 -646,1019 z m -839,558 c -51,32 -307,229 -307,529 0,388 403,681 864,681 506,0 877,-356 877,-770 0,-593 -666,-931 -698,-931 -6,0 -12,0 -64,39 z M 2080,1519 c 96,-70 403,-279 403,-668 C 2483,381 2010,25 1472,25 890,25 448,438 448,940 c 0,503 390,922 832,1120 z"
                 transform="scale(0.015625)" />
            </defs>
            <use
               xlink:href="#CMMI12-6d"
               transform="scale(0.996264)"
               id="use163" />
            <use
               xlink:href="#CMR17-3d"
               transform="matrix(0.996264,0,0,0.996264,113.00123,0)"
               id="use164" />
            <use
               xlink:href="#CMR17-38"
               transform="matrix(0.996264,0,0,0.996264,212.39003,0)"
               id="use165" />
          </g>
        </g>
        <g
           id="text_18"
           transform="matrix(1.5961726,0,0,1.5961726,-307.67667,-337.39598)">
          <!-- $\propto T^2$ -->
          <g
             transform="matrix(0.16,0,0,-0.16,148.95335,247.89529)"
             id="g168">
            <defs
               id="defs165">
              <path
                 id="CMSY10-2f"
                 d="m 4621,205 c -26,0 -128,-13 -147,-13 -506,0 -845,499 -1063,832 -64,109 -237,371 -307,480 154,346 582,1139 1344,1139 45,0 102,0 173,-19 0,166 -7,173 -19,186 -45,12 -141,19 -199,19 -813,0 -1286,-781 -1440,-1101 -256,390 -345,531 -582,730 -391,339 -743,371 -903,371 C 768,2829 358,2112 358,1376 358,659 755,-70 1459,-70 c 813,0 1287,780 1440,1100 256,-390 346,-531 583,-729 390,-339 742,-371 902,-371 77,0 179,12 237,26 z M 2758,1254 C 2605,909 2176,115 1414,115 794,115 499,794 499,1376 c 0,634 359,1190 890,1190 505,0 845,-499 1062,-832 64,-108 237,-371 307,-480 z"
                 transform="scale(0.015625)" />
            </defs>
            <use
               xlink:href="#CMSY10-2f"
               transform="scale(0.996264)"
               id="use166" />
            <use
               xlink:href="#CMMI12-54"
               transform="matrix(0.996264,0,0,0.996264,105.16148,0)"
               id="use167" />
            <use
               xlink:href="#CMR17-32"
               transform="matrix(0.697382,0,0,0.697382,175.88511,36.153639)"
               id="use168" />
          </g>
        </g>
        <g
           id="text_19"
           transform="matrix(0.51751555,-1.1533385,1.1533385,0.51751555,-600.54712,87.797262)"
           inkscape:transform-center-x="10.287742"
           inkscape:transform-center-y="8.4078297">
          <!-- $\propto T^4$ -->
          <g
             transform="matrix(0.16,0,0,-0.16,148.95335,270.19476)"
             id="g171">
            <use
               xlink:href="#CMSY10-2f"
               transform="scale(0.996264)"
               id="use169" />
            <use
               xlink:href="#CMMI12-54"
               transform="matrix(0.996264,0,0,0.996264,105.16148,0)"
               id="use170" />
            <use
               xlink:href="#CMR17-34"
               transform="matrix(0.697382,0,0,0.697382,175.88511,36.153639)"
               id="use171" />
          </g>
        </g>
      </g>
    </g>
  </g>
  <defs
     id="defs171">
    <clipPath
       id="pf109f2a57d">
      <rect
         x="89.753351"
         y="21.6"
         width="407.046649"
         height="296.962089"
         id="rect171" />
    </clipPath>
  </defs>
</svg>
