<?xml version="1.0" encoding="utf-8" standalone="no"?>
<!DOCTYPE svg PUBLIC "-//W3C//DTD SVG 1.1//EN"
  "http://www.w3.org/Graphics/SVG/1.1/DTD/svg11.dtd">
<svg xmlns:xlink="http://www.w3.org/1999/xlink" width="518.4pt" height="388.8pt" viewBox="0 0 518.4 388.8" xmlns="http://www.w3.org/2000/svg" version="1.1">
 <metadata>
  <rdf:RDF xmlns:dc="http://purl.org/dc/elements/1.1/" xmlns:cc="http://creativecommons.org/ns#" xmlns:rdf="http://www.w3.org/1999/02/22-rdf-syntax-ns#">
   <cc:Work>
    <dc:type rdf:resource="http://purl.org/dc/dcmitype/StillImage"/>
    <dc:date>2026-01-24T04:04:03.304119</dc:date>
    <dc:format>image/svg+xml</dc:format>
    <dc:creator>
     <cc:Agent>
      <dc:title>Matplotlib v3.8.4, https://matplotlib.org/</dc:title>
     </cc:Agent>
    </dc:creator>
   </cc:Work>
  </rdf:RDF>
 </metadata>
 <defs>
  <style type="text/css">*{stroke-linejoin: round; stroke-linecap: butt}</style>
 </defs>
 <g id="figure_1">
  <g id="patch_1">
   <path d="M 0 388.8 
L 518.4 388.8 
L 518.4 0 
L 0 0 
z
" style="fill: #ffffff"/>
  </g>
  <g id="axes_1">
   <g id="patch_2">
    <path d="M 52.832 343.96 
L 507.6 343.96 
L 507.6 10.8 
L 52.832 10.8 
z
" style="fill: #ffffff"/>
   </g>
   <g id="matplotlib.axis_1">
    <g id="xtick_1">
     <g id="line2d_1">
      <defs>
       <path id="mf550cba46e" d="M 0 0 
L 0 3.5 
" style="stroke: #000000; stroke-width: 0.8"/>
      </defs>
      <g>
       <use xlink:href="#mf550cba46e" x="114.050769" y="343.96" style="stroke: #000000; stroke-width: 0.8"/>
      </g>
     </g>
     <g id="text_1">
      <!-- −4 -->
      <g transform="translate(106.679675 358.558437) scale(0.1 -0.1)">
       <defs>
        <path id="DejaVuSerif-2212" d="M 678 2259 
L 4684 2259 
L 4684 1753 
L 678 1753 
L 678 2259 
z
" transform="scale(0.015625)"/>
        <path id="DejaVuSerif-34" d="M 2234 1581 
L 2234 4063 
L 641 1581 
L 2234 1581 
z
M 3609 0 
L 1484 0 
L 1484 331 
L 2234 331 
L 2234 1247 
L 197 1247 
L 197 1588 
L 2241 4750 
L 2859 4750 
L 2859 1581 
L 3750 1581 
L 3750 1247 
L 2859 1247 
L 2859 331 
L 3609 331 
L 3609 0 
z
" transform="scale(0.015625)"/>
       </defs>
       <use xlink:href="#DejaVuSerif-2212"/>
       <use xlink:href="#DejaVuSerif-34" x="83.789062"/>
      </g>
     </g>
    </g>
    <g id="xtick_2">
     <g id="line2d_2">
      <g>
       <use xlink:href="#mf550cba46e" x="201.506154" y="343.96" style="stroke: #000000; stroke-width: 0.8"/>
      </g>
     </g>
     <g id="text_2">
      <!-- −3 -->
      <g transform="translate(194.13506 358.558437) scale(0.1 -0.1)">
       <defs>
        <path id="DejaVuSerif-33" d="M 622 4469 
Q 988 4606 1323 4678 
Q 1659 4750 1953 4750 
Q 2638 4750 3022 4454 
Q 3406 4159 3406 3634 
Q 3406 3213 3140 2930 
Q 2875 2647 2388 2547 
Q 2963 2466 3280 2130 
Q 3597 1794 3597 1259 
Q 3597 606 3158 257 
Q 2719 -91 1894 -91 
Q 1528 -91 1179 -12 
Q 831 66 488 225 
L 488 1131 
L 838 1131 
Q 869 681 1141 450 
Q 1413 219 1906 219 
Q 2384 219 2661 495 
Q 2938 772 2938 1253 
Q 2938 1803 2653 2086 
Q 2369 2369 1819 2369 
L 1522 2369 
L 1522 2688 
L 1678 2688 
Q 2225 2688 2498 2914 
Q 2772 3141 2772 3597 
Q 2772 4006 2547 4223 
Q 2322 4441 1900 4441 
Q 1478 4441 1245 4241 
Q 1013 4041 972 3647 
L 622 3647 
L 622 4469 
z
" transform="scale(0.015625)"/>
       </defs>
       <use xlink:href="#DejaVuSerif-2212"/>
       <use xlink:href="#DejaVuSerif-33" x="83.789062"/>
      </g>
     </g>
    </g>
    <g id="xtick_3">
     <g id="line2d_3">
      <g>
       <use xlink:href="#mf550cba46e" x="288.961538" y="343.96" style="stroke: #000000; stroke-width: 0.8"/>
      </g>
     </g>
     <g id="text_3">
      <!-- −2 -->
      <g transform="translate(281.590445 358.558437) scale(0.1 -0.1)">
       <defs>
        <path id="DejaVuSerif-32" d="M 819 3553 
L 469 3553 
L 469 4384 
Q 803 4563 1142 4656 
Q 1481 4750 1806 4750 
Q 2534 4750 2956 4397 
Q 3378 4044 3378 3438 
Q 3378 2753 2422 1800 
Q 2347 1728 2309 1691 
L 1131 513 
L 3078 513 
L 3078 1088 
L 3444 1088 
L 3444 0 
L 434 0 
L 434 341 
L 1850 1753 
Q 2319 2222 2519 2614 
Q 2719 3006 2719 3438 
Q 2719 3909 2473 4175 
Q 2228 4441 1797 4441 
Q 1350 4441 1106 4219 
Q 863 3997 819 3553 
z
" transform="scale(0.015625)"/>
       </defs>
       <use xlink:href="#DejaVuSerif-2212"/>
       <use xlink:href="#DejaVuSerif-32" x="83.789062"/>
      </g>
     </g>
    </g>
    <g id="xtick_4">
     <g id="line2d_4">
      <g>
       <use xlink:href="#mf550cba46e" x="376.416923" y="343.96" style="stroke: #000000; stroke-width: 0.8"/>
      </g>
     </g>
     <g id="text_4">
      <!-- −1 -->
      <g transform="translate(369.045829 358.558437) scale(0.1 -0.1)">
       <defs>
        <path id="DejaVuSerif-31" d="M 909 0 
L 909 331 
L 1722 331 
L 1722 4213 
L 781 3603 
L 781 4013 
L 1919 4750 
L 2350 4750 
L 2350 331 
L 3163 331 
L 3163 0 
L 909 0 
z
" transform="scale(0.015625)"/>
       </defs>
       <use xlink:href="#DejaVuSerif-2212"/>
       <use xlink:href="#DejaVuSerif-31" x="83.789062"/>
      </g>
     </g>
    </g>
    <g id="xtick_5">
     <g id="line2d_5">
      <g>
       <use xlink:href="#mf550cba46e" x="463.872308" y="343.96" style="stroke: #000000; stroke-width: 0.8"/>
      </g>
     </g>
     <g id="text_5">
      <!-- 0 -->
      <g transform="translate(460.691058 358.558437) scale(0.1 -0.1)">
       <defs>
        <path id="DejaVuSerif-30" d="M 2034 219 
Q 2513 219 2750 744 
Q 2988 1269 2988 2328 
Q 2988 3391 2750 3916 
Q 2513 4441 2034 4441 
Q 1556 4441 1318 3916 
Q 1081 3391 1081 2328 
Q 1081 1269 1318 744 
Q 1556 219 2034 219 
z
M 2034 -91 
Q 1275 -91 848 546 
Q 422 1184 422 2328 
Q 422 3475 848 4112 
Q 1275 4750 2034 4750 
Q 2797 4750 3222 4112 
Q 3647 3475 3647 2328 
Q 3647 1184 3222 546 
Q 2797 -91 2034 -91 
z
" transform="scale(0.015625)"/>
       </defs>
       <use xlink:href="#DejaVuSerif-30"/>
      </g>
     </g>
    </g>
    <g id="text_6">
     <!-- Temperature, $\ln (T/T_F)$ -->
     <g transform="translate(225.466 372.238125) scale(0.1 -0.1)">
      <defs>
       <path id="DejaVuSerif-54" d="M 1222 0 
L 1222 331 
L 1819 331 
L 1819 4294 
L 447 4294 
L 447 3566 
L 63 3566 
L 63 4666 
L 4206 4666 
L 4206 3566 
L 3822 3566 
L 3822 4294 
L 2450 4294 
L 2450 331 
L 3047 331 
L 3047 0 
L 1222 0 
z
" transform="scale(0.015625)"/>
       <path id="DejaVuSerif-65" d="M 3469 1600 
L 991 1600 
L 991 1575 
Q 991 903 1244 561 
Q 1497 219 1991 219 
Q 2369 219 2611 417 
Q 2853 616 2950 1006 
L 3413 1006 
Q 3275 459 2904 184 
Q 2534 -91 1931 -91 
Q 1203 -91 761 389 
Q 319 869 319 1663 
Q 319 2450 753 2931 
Q 1188 3413 1894 3413 
Q 2647 3413 3050 2948 
Q 3453 2484 3469 1600 
z
M 2791 1931 
Q 2772 2513 2545 2808 
Q 2319 3103 1894 3103 
Q 1497 3103 1269 2806 
Q 1041 2509 991 1931 
L 2791 1931 
z
" transform="scale(0.015625)"/>
       <path id="DejaVuSerif-6d" d="M 3316 2675 
Q 3481 3041 3739 3227 
Q 3997 3413 4341 3413 
Q 4863 3413 5119 3089 
Q 5375 2766 5375 2113 
L 5375 331 
L 5894 331 
L 5894 0 
L 4300 0 
L 4300 331 
L 4800 331 
L 4800 2047 
Q 4800 2556 4650 2772 
Q 4500 2988 4153 2988 
Q 3769 2988 3567 2697 
Q 3366 2406 3366 1850 
L 3366 331 
L 3866 331 
L 3866 0 
L 2291 0 
L 2291 331 
L 2791 331 
L 2791 2069 
Q 2791 2566 2641 2777 
Q 2491 2988 2144 2988 
Q 1759 2988 1557 2697 
Q 1356 2406 1356 1850 
L 1356 331 
L 1856 331 
L 1856 0 
L 263 0 
L 263 331 
L 781 331 
L 781 2994 
L 231 2994 
L 231 3322 
L 1356 3322 
L 1356 2731 
Q 1516 3063 1762 3238 
Q 2009 3413 2322 3413 
Q 2709 3413 2968 3220 
Q 3228 3028 3316 2675 
z
" transform="scale(0.015625)"/>
       <path id="DejaVuSerif-70" d="M 1313 1825 
L 1313 1497 
Q 1313 897 1542 583 
Q 1772 269 2209 269 
Q 2650 269 2876 622 
Q 3103 975 3103 1663 
Q 3103 2353 2876 2703 
Q 2650 3053 2209 3053 
Q 1772 3053 1542 2737 
Q 1313 2422 1313 1825 
z
M 738 2988 
L 184 2988 
L 184 3322 
L 1313 3322 
L 1313 2803 
Q 1481 3116 1742 3264 
Q 2003 3413 2388 3413 
Q 3000 3413 3387 2928 
Q 3775 2444 3775 1663 
Q 3775 881 3387 395 
Q 3000 -91 2388 -91 
Q 2003 -91 1742 57 
Q 1481 206 1313 519 
L 1313 -997 
L 1856 -997 
L 1856 -1331 
L 184 -1331 
L 184 -997 
L 738 -997 
L 738 2988 
z
" transform="scale(0.015625)"/>
       <path id="DejaVuSerif-72" d="M 3059 3328 
L 3059 2497 
L 2728 2497 
Q 2713 2744 2591 2866 
Q 2469 2988 2234 2988 
Q 1809 2988 1582 2694 
Q 1356 2400 1356 1850 
L 1356 331 
L 2022 331 
L 2022 0 
L 263 0 
L 263 331 
L 781 331 
L 781 2994 
L 231 2994 
L 231 3322 
L 1356 3322 
L 1356 2731 
Q 1525 3078 1790 3245 
Q 2056 3413 2438 3413 
Q 2578 3413 2733 3391 
Q 2888 3369 3059 3328 
z
" transform="scale(0.015625)"/>
       <path id="DejaVuSerif-61" d="M 2547 1044 
L 2547 1747 
L 1806 1747 
Q 1378 1747 1168 1562 
Q 959 1378 959 997 
Q 959 650 1171 447 
Q 1384 244 1747 244 
Q 2106 244 2326 466 
Q 2547 688 2547 1044 
z
M 3122 2075 
L 3122 331 
L 3634 331 
L 3634 0 
L 2547 0 
L 2547 359 
Q 2356 128 2106 18 
Q 1856 -91 1522 -91 
Q 969 -91 644 203 
Q 319 497 319 997 
Q 319 1513 691 1797 
Q 1063 2081 1741 2081 
L 2547 2081 
L 2547 2309 
Q 2547 2688 2317 2895 
Q 2088 3103 1672 3103 
Q 1328 3103 1125 2947 
Q 922 2791 872 2484 
L 575 2484 
L 575 3156 
Q 875 3284 1158 3348 
Q 1441 3413 1709 3413 
Q 2400 3413 2761 3070 
Q 3122 2728 3122 2075 
z
" transform="scale(0.015625)"/>
       <path id="DejaVuSerif-74" d="M 691 2988 
L 184 2988 
L 184 3322 
L 691 3322 
L 691 4353 
L 1269 4353 
L 1269 3322 
L 2350 3322 
L 2350 2988 
L 1269 2988 
L 1269 878 
Q 1269 456 1350 337 
Q 1431 219 1650 219 
Q 1875 219 1978 351 
Q 2081 484 2088 781 
L 2522 781 
Q 2497 328 2275 118 
Q 2053 -91 1600 -91 
Q 1103 -91 897 129 
Q 691 350 691 878 
L 691 2988 
z
" transform="scale(0.015625)"/>
       <path id="DejaVuSerif-75" d="M 2266 3322 
L 3341 3322 
L 3341 331 
L 3884 331 
L 3884 0 
L 2766 0 
L 2766 588 
Q 2606 256 2353 82 
Q 2100 -91 1766 -91 
Q 1213 -91 952 223 
Q 691 538 691 1209 
L 691 2988 
L 172 2988 
L 172 3322 
L 1269 3322 
L 1269 1388 
Q 1269 781 1417 556 
Q 1566 331 1947 331 
Q 2347 331 2556 625 
Q 2766 919 2766 1478 
L 2766 2988 
L 2266 2988 
L 2266 3322 
z
" transform="scale(0.015625)"/>
       <path id="DejaVuSerif-2c" d="M 231 -622 
Q 525 -406 662 -114 
Q 800 178 800 594 
L 800 709 
L 1416 709 
Q 1391 175 1164 -208 
Q 938 -591 481 -872 
L 231 -622 
z
" transform="scale(0.015625)"/>
       <path id="DejaVuSerif-20" transform="scale(0.015625)"/>
       <path id="DejaVuSans-6c" d="M 603 4863 
L 1178 4863 
L 1178 0 
L 603 0 
L 603 4863 
z
" transform="scale(0.015625)"/>
       <path id="DejaVuSans-6e" d="M 3513 2113 
L 3513 0 
L 2938 0 
L 2938 2094 
Q 2938 2591 2744 2837 
Q 2550 3084 2163 3084 
Q 1697 3084 1428 2787 
Q 1159 2491 1159 1978 
L 1159 0 
L 581 0 
L 581 3500 
L 1159 3500 
L 1159 2956 
Q 1366 3272 1645 3428 
Q 1925 3584 2291 3584 
Q 2894 3584 3203 3211 
Q 3513 2838 3513 2113 
z
" transform="scale(0.015625)"/>
       <path id="DejaVuSans-28" d="M 1984 4856 
Q 1566 4138 1362 3434 
Q 1159 2731 1159 2009 
Q 1159 1288 1364 580 
Q 1569 -128 1984 -844 
L 1484 -844 
Q 1016 -109 783 600 
Q 550 1309 550 2009 
Q 550 2706 781 3412 
Q 1013 4119 1484 4856 
L 1984 4856 
z
" transform="scale(0.015625)"/>
       <path id="DejaVuSans-Oblique-54" d="M 378 4666 
L 4325 4666 
L 4225 4134 
L 2559 4134 
L 1759 0 
L 1125 0 
L 1925 4134 
L 275 4134 
L 378 4666 
z
" transform="scale(0.015625)"/>
       <path id="DejaVuSans-2f" d="M 1625 4666 
L 2156 4666 
L 531 -594 
L 0 -594 
L 1625 4666 
z
" transform="scale(0.015625)"/>
       <path id="DejaVuSans-Oblique-46" d="M 1081 4666 
L 3756 4666 
L 3653 4134 
L 1606 4134 
L 1338 2759 
L 3188 2759 
L 3084 2228 
L 1234 2228 
L 800 0 
L 172 0 
L 1081 4666 
z
" transform="scale(0.015625)"/>
       <path id="DejaVuSans-29" d="M 513 4856 
L 1013 4856 
Q 1481 4119 1714 3412 
Q 1947 2706 1947 2009 
Q 1947 1309 1714 600 
Q 1481 -109 1013 -844 
L 513 -844 
Q 928 -128 1133 580 
Q 1338 1288 1338 2009 
Q 1338 2731 1133 3434 
Q 928 4138 513 4856 
z
" transform="scale(0.015625)"/>
      </defs>
      <use xlink:href="#DejaVuSerif-54" transform="translate(0 0.015625)"/>
      <use xlink:href="#DejaVuSerif-65" transform="translate(66.699219 0.015625)"/>
      <use xlink:href="#DejaVuSerif-6d" transform="translate(125.878906 0.015625)"/>
      <use xlink:href="#DejaVuSerif-70" transform="translate(220.703125 0.015625)"/>
      <use xlink:href="#DejaVuSerif-65" transform="translate(284.716797 0.015625)"/>
      <use xlink:href="#DejaVuSerif-72" transform="translate(343.896484 0.015625)"/>
      <use xlink:href="#DejaVuSerif-61" transform="translate(391.699219 0.015625)"/>
      <use xlink:href="#DejaVuSerif-74" transform="translate(451.318359 0.015625)"/>
      <use xlink:href="#DejaVuSerif-75" transform="translate(491.503906 0.015625)"/>
      <use xlink:href="#DejaVuSerif-72" transform="translate(555.908203 0.015625)"/>
      <use xlink:href="#DejaVuSerif-65" transform="translate(603.710938 0.015625)"/>
      <use xlink:href="#DejaVuSerif-2c" transform="translate(662.890625 0.015625)"/>
      <use xlink:href="#DejaVuSerif-20" transform="translate(694.677734 0.015625)"/>
      <use xlink:href="#DejaVuSans-6c" transform="translate(726.464844 0.015625)"/>
      <use xlink:href="#DejaVuSans-6e" transform="translate(754.248047 0.015625)"/>
      <use xlink:href="#DejaVuSans-28" transform="translate(817.626953 0.015625)"/>
      <use xlink:href="#DejaVuSans-Oblique-54" transform="translate(856.640625 0.015625)"/>
      <use xlink:href="#DejaVuSans-2f" transform="translate(917.724609 0.015625)"/>
      <use xlink:href="#DejaVuSans-Oblique-54" transform="translate(951.416016 0.015625)"/>
      <use xlink:href="#DejaVuSans-Oblique-46" transform="translate(1012.5 -16.390625) scale(0.7)"/>
      <use xlink:href="#DejaVuSans-29" transform="translate(1055.498047 0.015625)"/>
     </g>
    </g>
   </g>
   <g id="matplotlib.axis_2">
    <g id="ytick_1">
     <g id="line2d_6">
      <defs>
       <path id="m7a5b4dde8a" d="M 0 0 
L -3.5 0 
" style="stroke: #000000; stroke-width: 0.8"/>
      </defs>
      <g>
       <use xlink:href="#m7a5b4dde8a" x="52.832" y="343.96" style="stroke: #000000; stroke-width: 0.8"/>
      </g>
     </g>
     <g id="text_7">
      <!-- −3 -->
      <g transform="translate(31.089813 347.759219) scale(0.1 -0.1)">
       <use xlink:href="#DejaVuSerif-2212"/>
       <use xlink:href="#DejaVuSerif-33" x="83.789062"/>
      </g>
     </g>
    </g>
    <g id="ytick_2">
     <g id="line2d_7">
      <g>
       <use xlink:href="#m7a5b4dde8a" x="52.832" y="279.890769" style="stroke: #000000; stroke-width: 0.8"/>
      </g>
     </g>
     <g id="text_8">
      <!-- −2 -->
      <g transform="translate(31.089813 283.689988) scale(0.1 -0.1)">
       <use xlink:href="#DejaVuSerif-2212"/>
       <use xlink:href="#DejaVuSerif-32" x="83.789062"/>
      </g>
     </g>
    </g>
    <g id="ytick_3">
     <g id="line2d_8">
      <g>
       <use xlink:href="#m7a5b4dde8a" x="52.832" y="215.821538" style="stroke: #000000; stroke-width: 0.8"/>
      </g>
     </g>
     <g id="text_9">
      <!-- −1 -->
      <g transform="translate(31.089813 219.620757) scale(0.1 -0.1)">
       <use xlink:href="#DejaVuSerif-2212"/>
       <use xlink:href="#DejaVuSerif-31" x="83.789062"/>
      </g>
     </g>
    </g>
    <g id="ytick_4">
     <g id="line2d_9">
      <g>
       <use xlink:href="#m7a5b4dde8a" x="52.832" y="151.752308" style="stroke: #000000; stroke-width: 0.8"/>
      </g>
     </g>
     <g id="text_10">
      <!-- 0 -->
      <g transform="translate(39.4695 155.551526) scale(0.1 -0.1)">
       <use xlink:href="#DejaVuSerif-30"/>
      </g>
     </g>
    </g>
    <g id="ytick_5">
     <g id="line2d_10">
      <g>
       <use xlink:href="#m7a5b4dde8a" x="52.832" y="87.683077" style="stroke: #000000; stroke-width: 0.8"/>
      </g>
     </g>
     <g id="text_11">
      <!-- 1 -->
      <g transform="translate(39.4695 91.482296) scale(0.1 -0.1)">
       <use xlink:href="#DejaVuSerif-31"/>
      </g>
     </g>
    </g>
    <g id="ytick_6">
     <g id="line2d_11">
      <g>
       <use xlink:href="#m7a5b4dde8a" x="52.832" y="23.613846" style="stroke: #000000; stroke-width: 0.8"/>
      </g>
     </g>
     <g id="text_12">
      <!-- 2 -->
      <g transform="translate(39.4695 27.413065) scale(0.1 -0.1)">
       <use xlink:href="#DejaVuSerif-32"/>
      </g>
     </g>
    </g>
    <g id="text_13">
     <!-- Eigenvalues, $\ln(\lambda_m T_F^2/T^2)$ -->
     <g transform="translate(24.289813 239.53) rotate(-90) scale(0.1 -0.1)">
      <defs>
       <path id="DejaVuSerif-45" d="M 353 0 
L 353 331 
L 947 331 
L 947 4331 
L 353 4331 
L 353 4666 
L 4109 4666 
L 4109 3628 
L 3725 3628 
L 3725 4281 
L 1581 4281 
L 1581 2719 
L 3109 2719 
L 3109 3303 
L 3494 3303 
L 3494 1753 
L 3109 1753 
L 3109 2338 
L 1581 2338 
L 1581 384 
L 3775 384 
L 3775 1038 
L 4159 1038 
L 4159 0 
L 353 0 
z
" transform="scale(0.015625)"/>
       <path id="DejaVuSerif-69" d="M 622 4353 
Q 622 4497 726 4603 
Q 831 4709 978 4709 
Q 1122 4709 1226 4603 
Q 1331 4497 1331 4353 
Q 1331 4206 1228 4103 
Q 1125 4000 978 4000 
Q 831 4000 726 4103 
Q 622 4206 622 4353 
z
M 1356 331 
L 1900 331 
L 1900 0 
L 231 0 
L 231 331 
L 781 331 
L 781 2988 
L 231 2988 
L 231 3322 
L 1356 3322 
L 1356 331 
z
" transform="scale(0.015625)"/>
       <path id="DejaVuSerif-67" d="M 3359 2988 
L 3359 72 
Q 3359 -644 2965 -1033 
Q 2572 -1422 1844 -1422 
Q 1516 -1422 1216 -1362 
Q 916 -1303 641 -1184 
L 641 -488 
L 941 -488 
Q 997 -813 1206 -963 
Q 1416 -1113 1806 -1113 
Q 2313 -1113 2548 -827 
Q 2784 -541 2784 72 
L 2784 519 
Q 2616 206 2355 57 
Q 2094 -91 1709 -91 
Q 1097 -91 708 395 
Q 319 881 319 1663 
Q 319 2444 706 2928 
Q 1094 3413 1709 3413 
Q 2094 3413 2355 3264 
Q 2616 3116 2784 2803 
L 2784 3322 
L 3909 3322 
L 3909 2988 
L 3359 2988 
z
M 2784 1825 
Q 2784 2422 2554 2737 
Q 2325 3053 1888 3053 
Q 1444 3053 1217 2703 
Q 991 2353 991 1663 
Q 991 975 1217 622 
Q 1444 269 1888 269 
Q 2325 269 2554 583 
Q 2784 897 2784 1497 
L 2784 1825 
z
" transform="scale(0.015625)"/>
       <path id="DejaVuSerif-6e" d="M 263 0 
L 263 331 
L 781 331 
L 781 2988 
L 231 2988 
L 231 3322 
L 1356 3322 
L 1356 2731 
Q 1516 3069 1770 3241 
Q 2025 3413 2363 3413 
Q 2913 3413 3172 3097 
Q 3431 2781 3431 2113 
L 3431 331 
L 3944 331 
L 3944 0 
L 2356 0 
L 2356 331 
L 2853 331 
L 2853 1931 
Q 2853 2541 2703 2767 
Q 2553 2994 2175 2994 
Q 1775 2994 1565 2701 
Q 1356 2409 1356 1850 
L 1356 331 
L 1856 331 
L 1856 0 
L 263 0 
z
" transform="scale(0.015625)"/>
       <path id="DejaVuSerif-76" d="M 1581 0 
L 359 2988 
L -19 2988 
L -19 3322 
L 1509 3322 
L 1509 2988 
L 978 2988 
L 1913 703 
L 2847 2988 
L 2350 2988 
L 2350 3322 
L 3597 3322 
L 3597 2988 
L 3225 2988 
L 2003 0 
L 1581 0 
z
" transform="scale(0.015625)"/>
       <path id="DejaVuSerif-6c" d="M 1313 331 
L 1856 331 
L 1856 0 
L 184 0 
L 184 331 
L 738 331 
L 738 4531 
L 184 4531 
L 184 4863 
L 1313 4863 
L 1313 331 
z
" transform="scale(0.015625)"/>
       <path id="DejaVuSerif-73" d="M 359 184 
L 359 959 
L 691 959 
Q 703 588 923 403 
Q 1144 219 1575 219 
Q 1963 219 2166 364 
Q 2369 509 2369 788 
Q 2369 1006 2220 1140 
Q 2072 1275 1594 1428 
L 1178 1569 
Q 750 1706 558 1912 
Q 366 2119 366 2438 
Q 366 2894 700 3153 
Q 1034 3413 1625 3413 
Q 1888 3413 2178 3344 
Q 2469 3275 2778 3144 
L 2778 2419 
L 2447 2419 
Q 2434 2741 2221 2922 
Q 2009 3103 1644 3103 
Q 1281 3103 1095 2975 
Q 909 2847 909 2591 
Q 909 2381 1050 2254 
Q 1191 2128 1613 1997 
L 2069 1856 
Q 2541 1709 2748 1489 
Q 2956 1269 2956 922 
Q 2956 450 2595 179 
Q 2234 -91 1600 -91 
Q 1278 -91 972 -22 
Q 666 47 359 184 
z
" transform="scale(0.015625)"/>
       <path id="DejaVuSans-Oblique-3bb" d="M 2350 4316 
L 3125 0 
L 2516 0 
L 2038 2588 
L 328 0 
L -281 0 
L 1903 3356 
L 1794 3975 
Q 1725 4369 1391 4369 
L 1091 4369 
L 1184 4863 
L 1550 4856 
Q 2253 4847 2350 4316 
z
" transform="scale(0.015625)"/>
       <path id="DejaVuSans-Oblique-6d" d="M 5747 2113 
L 5338 0 
L 4763 0 
L 5166 2094 
Q 5191 2228 5203 2325 
Q 5216 2422 5216 2491 
Q 5216 2772 5059 2928 
Q 4903 3084 4622 3084 
Q 4203 3084 3875 2770 
Q 3547 2456 3450 1953 
L 3066 0 
L 2491 0 
L 2900 2094 
Q 2925 2209 2937 2307 
Q 2950 2406 2950 2484 
Q 2950 2769 2794 2926 
Q 2638 3084 2363 3084 
Q 1938 3084 1609 2770 
Q 1281 2456 1184 1953 
L 800 0 
L 225 0 
L 909 3500 
L 1484 3500 
L 1375 2956 
Q 1609 3263 1923 3423 
Q 2238 3584 2597 3584 
Q 2978 3584 3223 3384 
Q 3469 3184 3519 2828 
Q 3781 3197 4126 3390 
Q 4472 3584 4856 3584 
Q 5306 3584 5551 3325 
Q 5797 3066 5797 2591 
Q 5797 2488 5784 2364 
Q 5772 2241 5747 2113 
z
" transform="scale(0.015625)"/>
       <path id="DejaVuSans-32" d="M 1228 531 
L 3431 531 
L 3431 0 
L 469 0 
L 469 531 
Q 828 903 1448 1529 
Q 2069 2156 2228 2338 
Q 2531 2678 2651 2914 
Q 2772 3150 2772 3378 
Q 2772 3750 2511 3984 
Q 2250 4219 1831 4219 
Q 1534 4219 1204 4116 
Q 875 4013 500 3803 
L 500 4441 
Q 881 4594 1212 4672 
Q 1544 4750 1819 4750 
Q 2544 4750 2975 4387 
Q 3406 4025 3406 3419 
Q 3406 3131 3298 2873 
Q 3191 2616 2906 2266 
Q 2828 2175 2409 1742 
Q 1991 1309 1228 531 
z
" transform="scale(0.015625)"/>
      </defs>
      <use xlink:href="#DejaVuSerif-45" transform="translate(0 0.765625)"/>
      <use xlink:href="#DejaVuSerif-69" transform="translate(72.998047 0.765625)"/>
      <use xlink:href="#DejaVuSerif-67" transform="translate(104.980469 0.765625)"/>
      <use xlink:href="#DejaVuSerif-65" transform="translate(168.994141 0.765625)"/>
      <use xlink:href="#DejaVuSerif-6e" transform="translate(228.173828 0.765625)"/>
      <use xlink:href="#DejaVuSerif-76" transform="translate(292.578125 0.765625)"/>
      <use xlink:href="#DejaVuSerif-61" transform="translate(349.072266 0.765625)"/>
      <use xlink:href="#DejaVuSerif-6c" transform="translate(408.691406 0.765625)"/>
      <use xlink:href="#DejaVuSerif-75" transform="translate(440.673828 0.765625)"/>
      <use xlink:href="#DejaVuSerif-65" transform="translate(505.078125 0.765625)"/>
      <use xlink:href="#DejaVuSerif-73" transform="translate(564.257812 0.765625)"/>
      <use xlink:href="#DejaVuSerif-2c" transform="translate(615.576172 0.765625)"/>
      <use xlink:href="#DejaVuSerif-20" transform="translate(647.363281 0.765625)"/>
      <use xlink:href="#DejaVuSans-6c" transform="translate(679.150391 0.765625)"/>
      <use xlink:href="#DejaVuSans-6e" transform="translate(706.933594 0.765625)"/>
      <use xlink:href="#DejaVuSans-28" transform="translate(770.3125 0.765625)"/>
      <use xlink:href="#DejaVuSans-Oblique-3bb" transform="translate(809.326172 0.765625)"/>
      <use xlink:href="#DejaVuSans-Oblique-6d" transform="translate(868.505859 -15.640625) scale(0.7)"/>
      <use xlink:href="#DejaVuSans-Oblique-54" transform="translate(939.428711 0.765625)"/>
      <use xlink:href="#DejaVuSans-32" transform="translate(1007.529466 39.046875) scale(0.7)"/>
      <use xlink:href="#DejaVuSans-Oblique-46" transform="translate(1000.512695 -26.578125) scale(0.7)"/>
      <use xlink:href="#DejaVuSans-2f" transform="translate(1054.799974 0.765625)"/>
      <use xlink:href="#DejaVuSans-Oblique-54" transform="translate(1088.49138 0.765625)"/>
      <use xlink:href="#DejaVuSans-32" transform="translate(1156.592135 39.046875) scale(0.7)"/>
      <use xlink:href="#DejaVuSans-29" transform="translate(1203.862643 0.765625)"/>
     </g>
    </g>
   </g>
   <g id="line2d_12">
    <path d="M 121.744831 352.588143 
L 151.17114 335.270123 
L 182.364284 331.306509 
L 211.790593 317.551014 
L 242.983738 268.14566 
L 272.410047 238.413328 
L 303.603191 238.596241 
L 333.0295 242.762186 
L 364.222644 250.051358 
L 393.648953 258.627181 
L 424.842097 271.855535 
L 454.268406 290.251208 
L 485.461551 313.030665 
" clip-path="url(#p4af669872c)" style="fill: none; stroke: #1f77b4; stroke-width: 1.5; stroke-linecap: square"/>
   </g>
   <g id="line2d_13">
    <path d="M 121.744831 355.713097 
L 151.17114 336.24084 
L 182.364284 330.073075 
L 211.790593 319.110702 
L 242.983738 271.721088 
L 272.410047 239.983758 
L 303.603191 240.328671 
L 333.0295 243.994815 
L 364.222644 250.613803 
L 393.648953 258.744466 
L 424.842097 271.677918 
L 454.268406 289.951575 
L 485.461551 312.664282 
" clip-path="url(#p4af669872c)" style="fill: none; stroke: #ff7f0e; stroke-width: 1.5; stroke-linecap: square"/>
   </g>
   <g id="line2d_14">
    <path d="M 121.744831 354.912489 
L 151.17114 334.225103 
L 182.364284 328.731229 
L 211.790593 322.701119 
L 242.983738 270.291407 
L 272.410047 236.65262 
L 303.603191 236.958417 
L 333.0295 241.856672 
L 364.222644 248.889294 
L 393.648953 256.761899 
L 424.842097 269.762459 
L 454.268406 287.88026 
L 485.461551 310.502848 
" clip-path="url(#p4af669872c)" style="fill: none; stroke: #2ca02c; stroke-width: 1.5; stroke-linecap: square"/>
   </g>
   <g id="line2d_15">
    <path d="M 121.744831 355.786633 
L 151.17114 336.371919 
L 182.364284 330.567407 
L 211.790593 319.184894 
L 242.983738 271.452262 
L 272.410047 240.149642 
L 303.603191 240.578486 
L 333.0295 244.449579 
L 364.222644 251.380566 
L 393.648953 259.773885 
L 424.842097 272.908918 
L 454.268406 291.276766 
L 485.461551 314.017827 
" clip-path="url(#p4af669872c)" style="fill: none; stroke: #d62728; stroke-width: 1.5; stroke-linecap: square"/>
   </g>
   <g id="line2d_16">
    <path d="M 97.29012 389.8 
L 121.744831 355.762737 
L 151.17114 336.310551 
L 182.364284 330.316129 
L 211.790593 319.154232 
L 242.983738 271.600412 
L 272.410047 240.073413 
L 303.603191 240.461096 
L 333.0295 244.227846 
L 364.222644 251.000049 
L 393.648953 259.259883 
L 424.842097 272.292465 
L 454.268406 290.61246 
L 485.461551 313.338988 
" clip-path="url(#p4af669872c)" style="fill: none; stroke-dasharray: 5.55,2.4; stroke-dashoffset: 0; stroke: #808080; stroke-width: 1.5"/>
   </g>
   <g id="line2d_17">
    <path d="M 52.832 30.020769 
L 54.333759 30.020769 
L 55.835518 30.020769 
L 57.337277 30.020769 
L 58.839037 30.020769 
L 60.340796 30.020769 
L 61.842555 30.020769 
L 63.344314 30.020769 
L 64.846073 30.020769 
L 66.347832 30.020769 
L 67.849591 30.020769 
L 69.35135 30.020769 
L 70.85311 30.020769 
L 72.354869 30.020769 
L 73.856628 30.020769 
L 75.358387 30.020769 
L 76.860146 30.020769 
L 78.361905 30.020769 
L 79.863664 30.020769 
L 81.365423 30.020769 
L 82.867183 30.020769 
L 84.368942 30.020769 
L 85.870701 30.020769 
L 87.37246 30.020769 
L 88.874219 30.020769 
L 90.375978 30.020769 
L 91.877737 30.020769 
L 93.379497 30.020769 
L 94.881256 30.020769 
L 96.383015 30.020769 
L 97.884774 30.020769 
L 99.386533 30.020769 
L 100.888292 30.020769 
L 102.390051 30.020769 
L 103.89181 30.020769 
L 105.39357 30.020769 
L 106.895329 30.020769 
L 108.397088 30.020769 
L 109.898847 30.020769 
L 111.400606 30.020769 
L 112.902365 30.020769 
L 114.404124 30.020769 
L 115.905883 30.020769 
L 117.407643 30.020769 
L 118.909402 30.020769 
L 120.411161 30.020769 
L 121.91292 30.020769 
L 123.414679 30.020769 
L 124.916438 30.020769 
L 126.418197 30.020769 
L 127.919956 30.020769 
L 129.421716 30.020769 
L 130.923475 30.020769 
L 132.425234 30.020769 
L 133.926993 30.020769 
L 135.428752 30.020769 
L 136.930511 30.020769 
L 138.43227 30.020769 
L 139.93403 30.020769 
L 141.435789 30.020769 
L 142.937548 30.020769 
L 144.439307 30.020769 
L 145.941066 30.020769 
L 147.442825 30.020769 
L 148.944584 30.020769 
L 150.446343 30.020769 
L 151.948103 30.020769 
L 153.449862 30.020769 
L 154.951621 30.020769 
L 156.45338 30.020769 
L 157.955139 30.020769 
L 159.456898 30.020769 
L 160.958657 30.020769 
L 162.460416 30.020769 
L 163.962176 30.020769 
L 165.463935 30.020769 
L 166.965694 30.020769 
L 168.467453 30.020769 
L 169.969212 30.020769 
L 171.470971 30.020769 
L 172.97273 30.020769 
L 174.47449 30.020769 
L 175.976249 30.020769 
L 177.478008 30.020769 
L 178.979767 30.020769 
L 180.481526 30.020769 
L 181.983285 30.020769 
L 183.485044 30.020769 
L 184.986803 30.020769 
L 186.488563 30.020769 
L 187.990322 30.020769 
L 189.492081 30.020769 
L 190.99384 30.020769 
L 192.495599 30.020769 
L 193.997358 30.020769 
L 195.499117 30.020769 
L 197.000876 30.020769 
L 198.502636 30.020769 
L 200.004395 30.020769 
L 201.506154 30.020769 
" clip-path="url(#p4af669872c)" style="fill: none; stroke-dasharray: 5.55,2.4; stroke-dashoffset: 0; stroke: #ff0000; stroke-opacity: 0.6; stroke-width: 1.5"/>
   </g>
   <g id="line2d_18">
    <path d="M 52.832 249.778231 
L 54.333759 248.347998 
L 55.835518 246.917766 
L 57.337277 245.487534 
L 58.839037 244.057301 
L 60.340796 242.627069 
L 61.842555 241.196837 
L 63.344314 239.766605 
L 64.846073 238.336372 
L 66.347832 236.90614 
L 67.849591 235.475908 
L 69.35135 234.045675 
L 70.85311 232.615443 
L 72.354869 231.185211 
L 73.856628 229.754978 
L 75.358387 228.324746 
L 76.860146 226.894514 
L 78.361905 225.464281 
L 79.863664 224.034049 
L 81.365423 222.603817 
L 82.867183 221.173584 
L 84.368942 219.743352 
L 85.870701 218.31312 
L 87.37246 216.882887 
L 88.874219 215.452655 
L 90.375978 214.022423 
L 91.877737 212.59219 
L 93.379497 211.161958 
L 94.881256 209.731726 
L 96.383015 208.301493 
L 97.884774 206.871261 
L 99.386533 205.441029 
L 100.888292 204.010796 
L 102.390051 202.580564 
L 103.89181 201.150332 
L 105.39357 199.720099 
L 106.895329 198.289867 
L 108.397088 196.859635 
L 109.898847 195.429402 
L 111.400606 193.99917 
L 112.902365 192.568938 
L 114.404124 191.138706 
L 115.905883 189.708473 
L 117.407643 188.278241 
L 118.909402 186.848009 
L 120.411161 185.417776 
L 121.91292 183.987544 
L 123.414679 182.557312 
L 124.916438 181.127079 
L 126.418197 179.696847 
L 127.919956 178.266615 
L 129.421716 176.836382 
L 130.923475 175.40615 
L 132.425234 173.975918 
L 133.926993 172.545685 
L 135.428752 171.115453 
L 136.930511 169.685221 
L 138.43227 168.254988 
L 139.93403 166.824756 
L 141.435789 165.394524 
L 142.937548 163.964291 
L 144.439307 162.534059 
L 145.941066 161.103827 
L 147.442825 159.673594 
L 148.944584 158.243362 
L 150.446343 156.81313 
L 151.948103 155.382897 
L 153.449862 153.952665 
L 154.951621 152.522433 
L 156.45338 151.0922 
L 157.955139 149.661968 
L 159.456898 148.231736 
L 160.958657 146.801503 
L 162.460416 145.371271 
L 163.962176 143.941039 
L 165.463935 142.510807 
L 166.965694 141.080574 
L 168.467453 139.650342 
L 169.969212 138.22011 
L 171.470971 136.789877 
L 172.97273 135.359645 
L 174.47449 133.929413 
L 175.976249 132.49918 
L 177.478008 131.068948 
L 178.979767 129.638716 
L 180.481526 128.208483 
L 181.983285 126.778251 
L 183.485044 125.348019 
L 184.986803 123.917786 
L 186.488563 122.487554 
L 187.990322 121.057322 
L 189.492081 119.627089 
L 190.99384 118.196857 
L 192.495599 116.766625 
L 193.997358 115.336392 
L 195.499117 113.90616 
L 197.000876 112.475928 
L 198.502636 111.045695 
L 200.004395 109.615463 
L 201.506154 108.185231 
" clip-path="url(#p4af669872c)" style="fill: none; stroke-dasharray: 9.6,2.4,1.5,2.4; stroke-dashoffset: 0; stroke: #0000ff; stroke-opacity: 0.6; stroke-width: 1.5"/>
   </g>
   <g id="line2d_19">
    <path d="M 70.323077 359.977308 
L 71.648159 358.13289 
L 72.97324 356.288473 
L 74.298322 354.444056 
L 75.623403 352.599639 
L 76.948485 350.755221 
L 78.273566 348.910804 
L 79.598648 347.066387 
L 80.92373 345.22197 
L 82.248811 343.377552 
L 83.573893 341.533135 
L 84.898974 339.688718 
L 86.224056 337.844301 
L 87.549138 335.999883 
L 88.874219 334.155466 
L 90.199301 332.311049 
L 91.524382 330.466632 
L 92.849464 328.622214 
L 94.174545 326.777797 
L 95.499627 324.93338 
L 96.824709 323.088963 
L 98.14979 321.244545 
L 99.474872 319.400128 
L 100.799953 317.555711 
L 102.125035 315.711294 
L 103.450117 313.866876 
L 104.775198 312.022459 
L 106.10028 310.178042 
L 107.425361 308.333625 
L 108.750443 306.489207 
L 110.075524 304.64479 
L 111.400606 302.800373 
L 112.725688 300.955956 
L 114.050769 299.111538 
L 115.375851 297.267121 
L 116.700932 295.422704 
L 118.026014 293.578287 
L 119.351096 291.733869 
L 120.676177 289.889452 
L 122.001259 288.045035 
L 123.32634 286.200618 
L 124.651422 284.3562 
L 125.976503 282.511783 
L 127.301585 280.667366 
L 128.626667 278.822949 
L 129.951748 276.978531 
L 131.27683 275.134114 
L 132.601911 273.289697 
L 133.926993 271.44528 
L 135.252075 269.600862 
L 136.577156 267.756445 
L 137.902238 265.912028 
L 139.227319 264.067611 
L 140.552401 262.223193 
L 141.877483 260.378776 
L 143.202564 258.534359 
L 144.527646 256.689942 
L 145.852727 254.845524 
L 147.177809 253.001107 
L 148.50289 251.15669 
L 149.827972 249.312273 
L 151.153054 247.467855 
L 152.478135 245.623438 
L 153.803217 243.779021 
L 155.128298 241.934604 
L 156.45338 240.090186 
L 157.778462 238.245769 
L 159.103543 236.401352 
L 160.428625 234.556935 
L 161.753706 232.712517 
L 163.078788 230.8681 
L 164.403869 229.023683 
L 165.728951 227.179266 
L 167.054033 225.334848 
L 168.379114 223.490431 
L 169.704196 221.646014 
L 171.029277 219.801597 
L 172.354359 217.957179 
L 173.679441 216.112762 
L 175.004522 214.268345 
L 176.329604 212.423928 
L 177.654685 210.57951 
L 178.979767 208.735093 
L 180.304848 206.890676 
L 181.62993 205.046259 
L 182.955012 203.201841 
L 184.280093 201.357424 
L 185.605175 199.513007 
L 186.930256 197.66859 
L 188.255338 195.824172 
L 189.58042 193.979755 
L 190.905501 192.135338 
L 192.230583 190.290921 
L 193.555664 188.446503 
L 194.880746 186.602086 
L 196.205828 184.757669 
L 197.530909 182.913252 
L 198.855991 181.068834 
L 200.181072 179.224417 
L 201.506154 177.38 
" clip-path="url(#p4af669872c)" style="fill: none; stroke-dasharray: 1.5,2.475; stroke-dashoffset: 0; stroke: #bf00bf; stroke-opacity: 0.6; stroke-width: 1.5"/>
   </g>
   <g id="line2d_20">
    <path d="M 170.220037 389.8 
L 172.089343 387.061119 
L 174.47449 383.566434 
L 176.859636 380.071748 
L 179.244783 376.577063 
L 181.62993 373.082378 
L 184.015077 369.587692 
L 186.400224 366.093007 
L 188.785371 362.598322 
L 191.170517 359.103636 
L 193.555664 355.608951 
L 195.940811 352.114266 
L 198.325958 348.61958 
L 200.711105 345.124895 
L 203.096252 341.63021 
L 205.481399 338.135524 
L 207.866545 334.640839 
L 210.251692 331.146154 
L 212.636839 327.651469 
L 215.021986 324.156783 
L 217.407133 320.662098 
L 219.79228 317.167413 
L 222.177427 313.672727 
L 224.562573 310.178042 
L 226.94772 306.683357 
L 229.332867 303.188671 
L 231.718014 299.693986 
L 234.103161 296.199301 
L 236.488308 292.704615 
L 238.873455 289.20993 
L 241.258601 285.715245 
L 243.643748 282.220559 
L 246.028895 278.725874 
L 248.414042 275.231189 
L 250.799189 271.736503 
L 253.184336 268.241818 
L 255.569483 264.747133 
L 257.954629 261.252448 
L 260.339776 257.757762 
L 262.724923 254.263077 
L 265.11007 250.768392 
L 267.495217 247.273706 
L 269.880364 243.779021 
L 272.26551 240.284336 
L 274.650657 236.78965 
L 277.035804 233.294965 
L 279.420951 229.80028 
L 281.806098 226.305594 
L 284.191245 222.810909 
L 286.576392 219.316224 
L 288.961538 215.821538 
" clip-path="url(#p4af669872c)" style="fill: none; stroke-dasharray: 2,3.3; stroke-dashoffset: 0; stroke: #008000; stroke-opacity: 0.6; stroke-width: 2"/>
   </g>
   <g id="patch_3">
    <path d="M 52.832 343.96 
L 52.832 10.8 
" style="fill: none; stroke: #000000; stroke-width: 0.8; stroke-linejoin: miter; stroke-linecap: square"/>
   </g>
   <g id="patch_4">
    <path d="M 507.6 343.96 
L 507.6 10.8 
" style="fill: none; stroke: #000000; stroke-width: 0.8; stroke-linejoin: miter; stroke-linecap: square"/>
   </g>
   <g id="patch_5">
    <path d="M 52.832 343.96 
L 507.6 343.96 
" style="fill: none; stroke: #000000; stroke-width: 0.8; stroke-linejoin: miter; stroke-linecap: square"/>
   </g>
   <g id="patch_6">
    <path d="M 52.832 10.8 
L 507.6 10.8 
" style="fill: none; stroke: #000000; stroke-width: 0.8; stroke-linejoin: miter; stroke-linecap: square"/>
   </g>
   <g id="legend_1">
    <g id="line2d_21">
     <path d="M 440.01875 23.898438 
L 450.01875 23.898438 
L 460.01875 23.898438 
" style="fill: none; stroke: #1f77b4; stroke-width: 1.5; stroke-linecap: square"/>
    </g>
    <g id="text_14">
     <!-- m = 2 -->
     <g transform="translate(468.01875 27.398438) scale(0.1 -0.1)">
      <defs>
       <path id="DejaVuSerif-3d" d="M 678 2894 
L 4684 2894 
L 4684 2394 
L 678 2394 
L 678 2894 
z
M 678 1619 
L 4684 1619 
L 4684 1119 
L 678 1119 
L 678 1619 
z
" transform="scale(0.015625)"/>
      </defs>
      <use xlink:href="#DejaVuSerif-6d"/>
      <use xlink:href="#DejaVuSerif-20" x="94.824219"/>
      <use xlink:href="#DejaVuSerif-3d" x="126.611328"/>
      <use xlink:href="#DejaVuSerif-20" x="210.400391"/>
      <use xlink:href="#DejaVuSerif-32" x="242.1875"/>
     </g>
    </g>
    <g id="line2d_22">
     <path d="M 440.01875 38.576563 
L 450.01875 38.576563 
L 460.01875 38.576563 
" style="fill: none; stroke: #ff7f0e; stroke-width: 1.5; stroke-linecap: square"/>
    </g>
    <g id="text_15">
     <!-- m = 3 -->
     <g transform="translate(468.01875 42.076563) scale(0.1 -0.1)">
      <use xlink:href="#DejaVuSerif-6d"/>
      <use xlink:href="#DejaVuSerif-20" x="94.824219"/>
      <use xlink:href="#DejaVuSerif-3d" x="126.611328"/>
      <use xlink:href="#DejaVuSerif-20" x="210.400391"/>
      <use xlink:href="#DejaVuSerif-33" x="242.1875"/>
     </g>
    </g>
    <g id="line2d_23">
     <path d="M 440.01875 53.254687 
L 450.01875 53.254687 
L 460.01875 53.254687 
" style="fill: none; stroke: #2ca02c; stroke-width: 1.5; stroke-linecap: square"/>
    </g>
    <g id="text_16">
     <!-- m = 4 -->
     <g transform="translate(468.01875 56.754687) scale(0.1 -0.1)">
      <use xlink:href="#DejaVuSerif-6d"/>
      <use xlink:href="#DejaVuSerif-20" x="94.824219"/>
      <use xlink:href="#DejaVuSerif-3d" x="126.611328"/>
      <use xlink:href="#DejaVuSerif-20" x="210.400391"/>
      <use xlink:href="#DejaVuSerif-34" x="242.1875"/>
     </g>
    </g>
    <g id="line2d_24">
     <path d="M 440.01875 67.932813 
L 450.01875 67.932813 
L 460.01875 67.932813 
" style="fill: none; stroke: #d62728; stroke-width: 1.5; stroke-linecap: square"/>
    </g>
    <g id="text_17">
     <!-- m = 5 -->
     <g transform="translate(468.01875 71.432813) scale(0.1 -0.1)">
      <defs>
       <path id="DejaVuSerif-35" d="M 3219 4666 
L 3219 4153 
L 1081 4153 
L 1081 2816 
Q 1244 2928 1461 2984 
Q 1678 3041 1947 3041 
Q 2703 3041 3140 2622 
Q 3578 2203 3578 1478 
Q 3578 738 3136 323 
Q 2694 -91 1894 -91 
Q 1572 -91 1234 -12 
Q 897 66 544 225 
L 544 1131 
L 897 1131 
Q 925 688 1179 453 
Q 1434 219 1894 219 
Q 2388 219 2653 544 
Q 2919 869 2919 1478 
Q 2919 2084 2655 2407 
Q 2391 2731 1894 2731 
Q 1613 2731 1398 2631 
Q 1184 2531 1019 2322 
L 750 2322 
L 750 4666 
L 3219 4666 
z
" transform="scale(0.015625)"/>
      </defs>
      <use xlink:href="#DejaVuSerif-6d"/>
      <use xlink:href="#DejaVuSerif-20" x="94.824219"/>
      <use xlink:href="#DejaVuSerif-3d" x="126.611328"/>
      <use xlink:href="#DejaVuSerif-20" x="210.400391"/>
      <use xlink:href="#DejaVuSerif-35" x="242.1875"/>
     </g>
    </g>
    <g id="line2d_25">
     <path d="M 440.01875 82.610938 
L 450.01875 82.610938 
L 460.01875 82.610938 
" style="fill: none; stroke-dasharray: 5.55,2.4; stroke-dashoffset: 0; stroke: #808080; stroke-width: 1.5"/>
    </g>
    <g id="text_18">
     <!-- m = 1 -->
     <g transform="translate(468.01875 86.110938) scale(0.1 -0.1)">
      <use xlink:href="#DejaVuSerif-6d"/>
      <use xlink:href="#DejaVuSerif-20" x="94.824219"/>
      <use xlink:href="#DejaVuSerif-3d" x="126.611328"/>
      <use xlink:href="#DejaVuSerif-20" x="210.400391"/>
      <use xlink:href="#DejaVuSerif-31" x="242.1875"/>
     </g>
    </g>
    <g id="line2d_26">
     <path d="M 440.01875 97.289062 
L 450.01875 97.289062 
L 460.01875 97.289062 
" style="fill: none; stroke-dasharray: 5.55,2.4; stroke-dashoffset: 0; stroke: #ff0000; stroke-opacity: 0.6; stroke-width: 1.5"/>
    </g>
    <g id="text_19">
     <!-- $T^2$ -->
     <g transform="translate(468.01875 100.789062) scale(0.1 -0.1)">
      <use xlink:href="#DejaVuSans-Oblique-54" transform="translate(0 0.765625)"/>
      <use xlink:href="#DejaVuSans-32" transform="translate(68.100755 39.046875) scale(0.7)"/>
     </g>
    </g>
    <g id="line2d_27">
     <path d="M 440.01875 111.967187 
L 450.01875 111.967187 
L 460.01875 111.967187 
" style="fill: none; stroke-dasharray: 9.6,2.4,1.5,2.4; stroke-dashoffset: 0; stroke: #0000ff; stroke-opacity: 0.6; stroke-width: 1.5"/>
    </g>
    <g id="text_20">
     <!-- $T^{3.3}$ -->
     <g transform="translate(468.01875 115.467187) scale(0.1 -0.1)">
      <defs>
       <path id="DejaVuSans-33" d="M 2597 2516 
Q 3050 2419 3304 2112 
Q 3559 1806 3559 1356 
Q 3559 666 3084 287 
Q 2609 -91 1734 -91 
Q 1441 -91 1130 -33 
Q 819 25 488 141 
L 488 750 
Q 750 597 1062 519 
Q 1375 441 1716 441 
Q 2309 441 2620 675 
Q 2931 909 2931 1356 
Q 2931 1769 2642 2001 
Q 2353 2234 1838 2234 
L 1294 2234 
L 1294 2753 
L 1863 2753 
Q 2328 2753 2575 2939 
Q 2822 3125 2822 3475 
Q 2822 3834 2567 4026 
Q 2313 4219 1838 4219 
Q 1578 4219 1281 4162 
Q 984 4106 628 3988 
L 628 4550 
Q 988 4650 1302 4700 
Q 1616 4750 1894 4750 
Q 2613 4750 3031 4423 
Q 3450 4097 3450 3541 
Q 3450 3153 3228 2886 
Q 3006 2619 2597 2516 
z
" transform="scale(0.015625)"/>
       <path id="DejaVuSans-2e" d="M 684 794 
L 1344 794 
L 1344 0 
L 684 0 
L 684 794 
z
" transform="scale(0.015625)"/>
      </defs>
      <use xlink:href="#DejaVuSans-Oblique-54" transform="translate(0 0.765625)"/>
      <use xlink:href="#DejaVuSans-33" transform="translate(68.100755 39.046875) scale(0.7)"/>
      <use xlink:href="#DejaVuSans-2e" transform="translate(112.636888 39.046875) scale(0.7)"/>
      <use xlink:href="#DejaVuSans-33" transform="translate(134.887865 39.046875) scale(0.7)"/>
     </g>
    </g>
    <g id="line2d_28">
     <path d="M 440.01875 126.645312 
L 450.01875 126.645312 
L 460.01875 126.645312 
" style="fill: none; stroke-dasharray: 1.5,2.475; stroke-dashoffset: 0; stroke: #bf00bf; stroke-opacity: 0.6; stroke-width: 1.5"/>
    </g>
    <g id="text_21">
     <!-- $T^{3.9}$ -->
     <g transform="translate(468.01875 130.145312) scale(0.1 -0.1)">
      <defs>
       <path id="DejaVuSans-39" d="M 703 97 
L 703 672 
Q 941 559 1184 500 
Q 1428 441 1663 441 
Q 2288 441 2617 861 
Q 2947 1281 2994 2138 
Q 2813 1869 2534 1725 
Q 2256 1581 1919 1581 
Q 1219 1581 811 2004 
Q 403 2428 403 3163 
Q 403 3881 828 4315 
Q 1253 4750 1959 4750 
Q 2769 4750 3195 4129 
Q 3622 3509 3622 2328 
Q 3622 1225 3098 567 
Q 2575 -91 1691 -91 
Q 1453 -91 1209 -44 
Q 966 3 703 97 
z
M 1959 2075 
Q 2384 2075 2632 2365 
Q 2881 2656 2881 3163 
Q 2881 3666 2632 3958 
Q 2384 4250 1959 4250 
Q 1534 4250 1286 3958 
Q 1038 3666 1038 3163 
Q 1038 2656 1286 2365 
Q 1534 2075 1959 2075 
z
" transform="scale(0.015625)"/>
      </defs>
      <use xlink:href="#DejaVuSans-Oblique-54" transform="translate(0 0.765625)"/>
      <use xlink:href="#DejaVuSans-33" transform="translate(68.100755 39.046875) scale(0.7)"/>
      <use xlink:href="#DejaVuSans-2e" transform="translate(112.636888 39.046875) scale(0.7)"/>
      <use xlink:href="#DejaVuSans-39" transform="translate(134.887865 39.046875) scale(0.7)"/>
     </g>
    </g>
    <g id="line2d_29">
     <path d="M 440.01875 141.323437 
L 450.01875 141.323437 
L 460.01875 141.323437 
" style="fill: none; stroke-dasharray: 2,3.3; stroke-dashoffset: 0; stroke: #008000; stroke-opacity: 0.6; stroke-width: 2"/>
    </g>
    <g id="text_22">
     <!-- $T^4$ -->
     <g transform="translate(468.01875 144.823437) scale(0.1 -0.1)">
      <defs>
       <path id="DejaVuSans-34" d="M 2419 4116 
L 825 1625 
L 2419 1625 
L 2419 4116 
z
M 2253 4666 
L 3047 4666 
L 3047 1625 
L 3713 1625 
L 3713 1100 
L 3047 1100 
L 3047 0 
L 2419 0 
L 2419 1100 
L 313 1100 
L 313 1709 
L 2253 4666 
z
" transform="scale(0.015625)"/>
      </defs>
      <use xlink:href="#DejaVuSans-Oblique-54" transform="translate(0 0.684375)"/>
      <use xlink:href="#DejaVuSans-34" transform="translate(68.100755 38.965625) scale(0.7)"/>
     </g>
    </g>
   </g>
  </g>
 </g>
 <defs>
  <clipPath id="p4af669872c">
   <rect x="52.832" y="10.8" width="454.768" height="333.16"/>
  </clipPath>
 </defs>
</svg>
