<?xml version="1.0" encoding="utf-8" standalone="no"?>
<!DOCTYPE svg PUBLIC "-//W3C//DTD SVG 1.1//EN"
  "http://www.w3.org/Graphics/SVG/1.1/DTD/svg11.dtd">
<svg xmlns:xlink="http://www.w3.org/1999/xlink" width="548.879375pt" height="413.891875pt" viewBox="0 0 548.879375 413.891875" xmlns="http://www.w3.org/2000/svg" version="1.1">
 <metadata>
  <rdf:RDF xmlns:dc="http://purl.org/dc/elements/1.1/" xmlns:cc="http://creativecommons.org/ns#" xmlns:rdf="http://www.w3.org/1999/02/22-rdf-syntax-ns#">
   <cc:Work>
    <dc:type rdf:resource="http://purl.org/dc/dcmitype/StillImage"/>
    <dc:date>2025-10-07T02:34:07.225044</dc:date>
    <dc:format>image/svg+xml</dc:format>
    <dc:creator>
     <cc:Agent>
      <dc:title>Matplotlib v3.8.4, https://matplotlib.org/</dc:title>
     </cc:Agent>
    </dc:creator>
   </cc:Work>
  </rdf:RDF>
 </metadata>
 <defs>
  <style type="text/css">*{stroke-linejoin: round; stroke-linecap: butt}</style>
 </defs>
 <g id="figure_1">
  <g id="patch_1">
   <path d="M 0 413.891875 
L 548.879375 413.891875 
L 548.879375 0 
L 0 0 
z
" style="fill: #ffffff"/>
  </g>
  <g id="axes_1">
   <g id="patch_2">
    <path d="M 52.079375 374.4 
L 541.679375 374.4 
L 541.679375 7.2 
L 52.079375 7.2 
z
" style="fill: #ffffff"/>
   </g>
   <g id="PathCollection_1">
    <defs>
     <path id="m956bd04318" d="M 0 2.44949 
C 0.649612 2.44949 1.272706 2.191396 1.732051 1.732051 
C 2.191396 1.272706 2.44949 0.649612 2.44949 0 
C 2.44949 -0.649612 2.191396 -1.272706 1.732051 -1.732051 
C 1.272706 -2.191396 0.649612 -2.44949 0 -2.44949 
C -0.649612 -2.44949 -1.272706 -2.191396 -1.732051 -1.732051 
C -2.191396 -1.272706 -2.44949 -0.649612 -2.44949 0 
C -2.44949 0.649612 -2.191396 1.272706 -1.732051 1.732051 
C -1.272706 2.191396 -0.649612 2.44949 0 2.44949 
z
" style="stroke: #1f77b4; stroke-opacity: 0.8"/>
    </defs>
    <g clip-path="url(#ped03f9fba2)">
     <use xlink:href="#m956bd04318" x="126.206087" y="355.071706" style="fill: #1f77b4; fill-opacity: 0.8; stroke: #1f77b4; stroke-opacity: 0.8"/>
     <use xlink:href="#m956bd04318" x="132.144871" y="354.924084" style="fill: #1f77b4; fill-opacity: 0.8; stroke: #1f77b4; stroke-opacity: 0.8"/>
     <use xlink:href="#m956bd04318" x="137.155323" y="355.228728" style="fill: #1f77b4; fill-opacity: 0.8; stroke: #1f77b4; stroke-opacity: 0.8"/>
     <use xlink:href="#m956bd04318" x="141.568081" y="355.682084" style="fill: #1f77b4; fill-opacity: 0.8; stroke: #1f77b4; stroke-opacity: 0.8"/>
     <use xlink:href="#m956bd04318" x="149.223645" y="354.561441" style="fill: #1f77b4; fill-opacity: 0.8; stroke: #1f77b4; stroke-opacity: 0.8"/>
     <use xlink:href="#m956bd04318" x="152.638128" y="354.280489" style="fill: #1f77b4; fill-opacity: 0.8; stroke: #1f77b4; stroke-opacity: 0.8"/>
     <use xlink:href="#m956bd04318" x="155.849141" y="354.427387" style="fill: #1f77b4; fill-opacity: 0.8; stroke: #1f77b4; stroke-opacity: 0.8"/>
     <use xlink:href="#m956bd04318" x="158.882118" y="355.37769" style="fill: #1f77b4; fill-opacity: 0.8; stroke: #1f77b4; stroke-opacity: 0.8"/>
     <use xlink:href="#m956bd04318" x="161.762492" y="354.943355" style="fill: #1f77b4; fill-opacity: 0.8; stroke: #1f77b4; stroke-opacity: 0.8"/>
     <use xlink:href="#m956bd04318" x="164.522056" y="354.468843" style="fill: #1f77b4; fill-opacity: 0.8; stroke: #1f77b4; stroke-opacity: 0.8"/>
     <use xlink:href="#m956bd04318" x="167.167167" y="355.064005" style="fill: #1f77b4; fill-opacity: 0.8; stroke: #1f77b4; stroke-opacity: 0.8"/>
     <use xlink:href="#m956bd04318" x="169.710544" y="355.104715" style="fill: #1f77b4; fill-opacity: 0.8; stroke: #1f77b4; stroke-opacity: 0.8"/>
     <use xlink:href="#m956bd04318" x="176.844715" y="354.110069" style="fill: #1f77b4; fill-opacity: 0.8; stroke: #1f77b4; stroke-opacity: 0.8"/>
     <use xlink:href="#m956bd04318" x="185.771967" y="323.545114" style="fill: #1f77b4; fill-opacity: 0.8; stroke: #1f77b4; stroke-opacity: 0.8"/>
     <use xlink:href="#m956bd04318" x="198.259946" y="261.057732" style="fill: #1f77b4; fill-opacity: 0.8; stroke: #1f77b4; stroke-opacity: 0.8"/>
     <use xlink:href="#m956bd04318" x="214.315011" y="209.816491" style="fill: #1f77b4; fill-opacity: 0.8; stroke: #1f77b4; stroke-opacity: 0.8"/>
     <use xlink:href="#m956bd04318" x="233.94352" y="175.183177" style="fill: #1f77b4; fill-opacity: 0.8; stroke: #1f77b4; stroke-opacity: 0.8"/>
     <use xlink:href="#m956bd04318" x="257.139115" y="154.620612" style="fill: #1f77b4; fill-opacity: 0.8; stroke: #1f77b4; stroke-opacity: 0.8"/>
     <use xlink:href="#m956bd04318" x="283.901796" y="125.925116" style="fill: #1f77b4; fill-opacity: 0.8; stroke: #1f77b4; stroke-opacity: 0.8"/>
     <use xlink:href="#m956bd04318" x="314.23792" y="112.992398" style="fill: #1f77b4; fill-opacity: 0.8; stroke: #1f77b4; stroke-opacity: 0.8"/>
     <use xlink:href="#m956bd04318" x="348.134772" y="77.540165" style="fill: #1f77b4; fill-opacity: 0.8; stroke: #1f77b4; stroke-opacity: 0.8"/>
     <use xlink:href="#m956bd04318" x="385.605069" y="52.961501" style="fill: #1f77b4; fill-opacity: 0.8; stroke: #1f77b4; stroke-opacity: 0.8"/>
     <use xlink:href="#m956bd04318" x="426.64245" y="29.606082" style="fill: #1f77b4; fill-opacity: 0.8; stroke: #1f77b4; stroke-opacity: 0.8"/>
     <use xlink:href="#m956bd04318" x="471.246918" y="32.146947" style="fill: #1f77b4; fill-opacity: 0.8; stroke: #1f77b4; stroke-opacity: 0.8"/>
     <use xlink:href="#m956bd04318" x="519.42483" y="29.756961" style="fill: #1f77b4; fill-opacity: 0.8; stroke: #1f77b4; stroke-opacity: 0.8"/>
    </g>
   </g>
   <g id="PathCollection_2">
    <defs>
     <path id="m83c77df195" d="M -2.44949 2.44949 
L 2.44949 2.44949 
L 2.44949 -2.44949 
L -2.44949 -2.44949 
z
" style="stroke: #ff7f0e; stroke-opacity: 0.8"/>
    </defs>
    <g clip-path="url(#ped03f9fba2)">
     <use xlink:href="#m83c77df195" x="99.767687" y="357.709045" style="fill: #ff7f0e; fill-opacity: 0.8; stroke: #ff7f0e; stroke-opacity: 0.8"/>
     <use xlink:href="#m83c77df195" x="100.403531" y="357.708978" style="fill: #ff7f0e; fill-opacity: 0.8; stroke: #ff7f0e; stroke-opacity: 0.8"/>
     <use xlink:href="#m83c77df195" x="100.721453" y="357.708936" style="fill: #ff7f0e; fill-opacity: 0.8; stroke: #ff7f0e; stroke-opacity: 0.8"/>
     <use xlink:href="#m83c77df195" x="101.039375" y="357.709008" style="fill: #ff7f0e; fill-opacity: 0.8; stroke: #ff7f0e; stroke-opacity: 0.8"/>
     <use xlink:href="#m83c77df195" x="102.946907" y="357.708941" style="fill: #ff7f0e; fill-opacity: 0.8; stroke: #ff7f0e; stroke-opacity: 0.8"/>
     <use xlink:href="#m83c77df195" x="106.126128" y="357.709026" style="fill: #ff7f0e; fill-opacity: 0.8; stroke: #ff7f0e; stroke-opacity: 0.8"/>
     <use xlink:href="#m83c77df195" x="122.022232" y="355.891318" style="fill: #ff7f0e; fill-opacity: 0.8; stroke: #ff7f0e; stroke-opacity: 0.8"/>
     <use xlink:href="#m83c77df195" x="131.559894" y="355.469188" style="fill: #ff7f0e; fill-opacity: 0.8; stroke: #ff7f0e; stroke-opacity: 0.8"/>
     <use xlink:href="#m83c77df195" x="137.918336" y="355.180913" style="fill: #ff7f0e; fill-opacity: 0.8; stroke: #ff7f0e; stroke-opacity: 0.8"/>
     <use xlink:href="#m83c77df195" x="156.993661" y="354.660453" style="fill: #ff7f0e; fill-opacity: 0.8; stroke: #ff7f0e; stroke-opacity: 0.8"/>
     <use xlink:href="#m83c77df195" x="169.0747" y="353.640145" style="fill: #ff7f0e; fill-opacity: 0.8; stroke: #ff7f0e; stroke-opacity: 0.8"/>
     <use xlink:href="#m83c77df195" x="169.710544" y="353.63208" style="fill: #ff7f0e; fill-opacity: 0.8; stroke: #ff7f0e; stroke-opacity: 0.8"/>
     <use xlink:href="#m83c77df195" x="176.068985" y="353.371183" style="fill: #ff7f0e; fill-opacity: 0.8; stroke: #ff7f0e; stroke-opacity: 0.8"/>
     <use xlink:href="#m83c77df195" x="179.248206" y="351.108228" style="fill: #ff7f0e; fill-opacity: 0.8; stroke: #ff7f0e; stroke-opacity: 0.8"/>
     <use xlink:href="#m83c77df195" x="182.427427" y="333.188069" style="fill: #ff7f0e; fill-opacity: 0.8; stroke: #ff7f0e; stroke-opacity: 0.8"/>
     <use xlink:href="#m83c77df195" x="185.606648" y="317.476367" style="fill: #ff7f0e; fill-opacity: 0.8; stroke: #ff7f0e; stroke-opacity: 0.8"/>
     <use xlink:href="#m83c77df195" x="201.502752" y="238.256678" style="fill: #ff7f0e; fill-opacity: 0.8; stroke: #ff7f0e; stroke-opacity: 0.8"/>
     <use xlink:href="#m83c77df195" x="233.294959" y="175.670366" style="fill: #ff7f0e; fill-opacity: 0.8; stroke: #ff7f0e; stroke-opacity: 0.8"/>
     <use xlink:href="#m83c77df195" x="239.653401" y="166.2344" style="fill: #ff7f0e; fill-opacity: 0.8; stroke: #ff7f0e; stroke-opacity: 0.8"/>
     <use xlink:href="#m83c77df195" x="249.191063" y="161.147378" style="fill: #ff7f0e; fill-opacity: 0.8; stroke: #ff7f0e; stroke-opacity: 0.8"/>
     <use xlink:href="#m83c77df195" x="265.087167" y="145.604767" style="fill: #ff7f0e; fill-opacity: 0.8; stroke: #ff7f0e; stroke-opacity: 0.8"/>
     <use xlink:href="#m83c77df195" x="328.671583" y="92.74792" style="fill: #ff7f0e; fill-opacity: 0.8; stroke: #ff7f0e; stroke-opacity: 0.8"/>
     <use xlink:href="#m83c77df195" x="392.255998" y="49.537348" style="fill: #ff7f0e; fill-opacity: 0.8; stroke: #ff7f0e; stroke-opacity: 0.8"/>
     <use xlink:href="#m83c77df195" x="408.152102" y="52.392538" style="fill: #ff7f0e; fill-opacity: 0.8; stroke: #ff7f0e; stroke-opacity: 0.8"/>
     <use xlink:href="#m83c77df195" x="424.048206" y="44.761551" style="fill: #ff7f0e; fill-opacity: 0.8; stroke: #ff7f0e; stroke-opacity: 0.8"/>
     <use xlink:href="#m83c77df195" x="439.94431" y="37.1064" style="fill: #ff7f0e; fill-opacity: 0.8; stroke: #ff7f0e; stroke-opacity: 0.8"/>
     <use xlink:href="#m83c77df195" x="487.632622" y="57.892977" style="fill: #ff7f0e; fill-opacity: 0.8; stroke: #ff7f0e; stroke-opacity: 0.8"/>
     <use xlink:href="#m83c77df195" x="519.42483" y="44.640855" style="fill: #ff7f0e; fill-opacity: 0.8; stroke: #ff7f0e; stroke-opacity: 0.8"/>
    </g>
   </g>
   <g id="PathCollection_3">
    <defs>
     <path id="m63fd8671cb" d="M 0 -2.44949 
L -2.44949 2.44949 
L 2.44949 2.44949 
z
" style="stroke: #2ca02c; stroke-opacity: 0.8"/>
    </defs>
    <g clip-path="url(#ped03f9fba2)">
     <use xlink:href="#m63fd8671cb" x="99.767687" y="357.709045" style="fill: #2ca02c; fill-opacity: 0.8; stroke: #2ca02c; stroke-opacity: 0.8"/>
     <use xlink:href="#m63fd8671cb" x="118.461505" y="356.21246" style="fill: #2ca02c; fill-opacity: 0.8; stroke: #2ca02c; stroke-opacity: 0.8"/>
     <use xlink:href="#m63fd8671cb" x="126.206087" y="355.224836" style="fill: #2ca02c; fill-opacity: 0.8; stroke: #2ca02c; stroke-opacity: 0.8"/>
     <use xlink:href="#m63fd8671cb" x="132.144871" y="355.479227" style="fill: #2ca02c; fill-opacity: 0.8; stroke: #2ca02c; stroke-opacity: 0.8"/>
     <use xlink:href="#m63fd8671cb" x="137.155323" y="354.983927" style="fill: #2ca02c; fill-opacity: 0.8; stroke: #2ca02c; stroke-opacity: 0.8"/>
     <use xlink:href="#m63fd8671cb" x="141.568081" y="355.300464" style="fill: #2ca02c; fill-opacity: 0.8; stroke: #2ca02c; stroke-opacity: 0.8"/>
     <use xlink:href="#m63fd8671cb" x="145.554824" y="355.356591" style="fill: #2ca02c; fill-opacity: 0.8; stroke: #2ca02c; stroke-opacity: 0.8"/>
     <use xlink:href="#m63fd8671cb" x="152.638128" y="354.090952" style="fill: #2ca02c; fill-opacity: 0.8; stroke: #2ca02c; stroke-opacity: 0.8"/>
     <use xlink:href="#m63fd8671cb" x="155.849141" y="354.75268" style="fill: #2ca02c; fill-opacity: 0.8; stroke: #2ca02c; stroke-opacity: 0.8"/>
     <use xlink:href="#m63fd8671cb" x="158.882118" y="354.269393" style="fill: #2ca02c; fill-opacity: 0.8; stroke: #2ca02c; stroke-opacity: 0.8"/>
     <use xlink:href="#m63fd8671cb" x="161.762492" y="354.625354" style="fill: #2ca02c; fill-opacity: 0.8; stroke: #2ca02c; stroke-opacity: 0.8"/>
     <use xlink:href="#m63fd8671cb" x="164.522056" y="354.833032" style="fill: #2ca02c; fill-opacity: 0.8; stroke: #2ca02c; stroke-opacity: 0.8"/>
     <use xlink:href="#m63fd8671cb" x="167.167167" y="354.385214" style="fill: #2ca02c; fill-opacity: 0.8; stroke: #2ca02c; stroke-opacity: 0.8"/>
     <use xlink:href="#m63fd8671cb" x="169.710544" y="353.63208" style="fill: #2ca02c; fill-opacity: 0.8; stroke: #2ca02c; stroke-opacity: 0.8"/>
     <use xlink:href="#m63fd8671cb" x="171.497266" y="353.589006" style="fill: #2ca02c; fill-opacity: 0.8; stroke: #2ca02c; stroke-opacity: 0.8"/>
     <use xlink:href="#m63fd8671cb" x="176.844715" y="352.740279" style="fill: #2ca02c; fill-opacity: 0.8; stroke: #2ca02c; stroke-opacity: 0.8"/>
     <use xlink:href="#m63fd8671cb" x="185.771967" y="316.498808" style="fill: #2ca02c; fill-opacity: 0.8; stroke: #2ca02c; stroke-opacity: 0.8"/>
     <use xlink:href="#m63fd8671cb" x="198.259946" y="250.255283" style="fill: #2ca02c; fill-opacity: 0.8; stroke: #2ca02c; stroke-opacity: 0.8"/>
     <use xlink:href="#m63fd8671cb" x="214.315011" y="208.689893" style="fill: #2ca02c; fill-opacity: 0.8; stroke: #2ca02c; stroke-opacity: 0.8"/>
     <use xlink:href="#m63fd8671cb" x="233.94352" y="174.331788" style="fill: #2ca02c; fill-opacity: 0.8; stroke: #2ca02c; stroke-opacity: 0.8"/>
     <use xlink:href="#m63fd8671cb" x="257.139115" y="154.255972" style="fill: #2ca02c; fill-opacity: 0.8; stroke: #2ca02c; stroke-opacity: 0.8"/>
     <use xlink:href="#m63fd8671cb" x="283.901796" y="125.958628" style="fill: #2ca02c; fill-opacity: 0.8; stroke: #2ca02c; stroke-opacity: 0.8"/>
     <use xlink:href="#m63fd8671cb" x="314.23792" y="113.252419" style="fill: #2ca02c; fill-opacity: 0.8; stroke: #2ca02c; stroke-opacity: 0.8"/>
     <use xlink:href="#m63fd8671cb" x="348.134772" y="78.256777" style="fill: #2ca02c; fill-opacity: 0.8; stroke: #2ca02c; stroke-opacity: 0.8"/>
     <use xlink:href="#m63fd8671cb" x="385.605069" y="53.738004" style="fill: #2ca02c; fill-opacity: 0.8; stroke: #2ca02c; stroke-opacity: 0.8"/>
     <use xlink:href="#m63fd8671cb" x="426.64245" y="43.408774" style="fill: #2ca02c; fill-opacity: 0.8; stroke: #2ca02c; stroke-opacity: 0.8"/>
     <use xlink:href="#m63fd8671cb" x="471.246918" y="62.892027" style="fill: #2ca02c; fill-opacity: 0.8; stroke: #2ca02c; stroke-opacity: 0.8"/>
     <use xlink:href="#m63fd8671cb" x="519.42483" y="44.640855" style="fill: #2ca02c; fill-opacity: 0.8; stroke: #2ca02c; stroke-opacity: 0.8"/>
    </g>
   </g>
   <g id="PathCollection_4">
    <defs>
     <path id="m626273af81" d="M 0 -2.44949 
L -0.549945 -0.756934 
L -2.329603 -0.756934 
L -0.889829 0.289123 
L -1.439774 1.981679 
L -0 0.935622 
L 1.439774 1.981679 
L 0.889829 0.289123 
L 2.329603 -0.756934 
L 0.549945 -0.756934 
z
" style="stroke: #d62728; stroke-opacity: 0.8"/>
    </defs>
    <g clip-path="url(#ped03f9fba2)">
     <use xlink:href="#m626273af81" x="74.33392" y="357.707652" style="fill: #d62728; fill-opacity: 0.8; stroke: #d62728; stroke-opacity: 0.8"/>
     <use xlink:href="#m626273af81" x="87.050804" y="357.706827" style="fill: #d62728; fill-opacity: 0.8; stroke: #d62728; stroke-opacity: 0.8"/>
     <use xlink:href="#m626273af81" x="99.767687" y="357.709091" style="fill: #d62728; fill-opacity: 0.8; stroke: #d62728; stroke-opacity: 0.8"/>
     <use xlink:href="#m626273af81" x="112.48457" y="357.707601" style="fill: #d62728; fill-opacity: 0.8; stroke: #d62728; stroke-opacity: 0.8"/>
     <use xlink:href="#m626273af81" x="125.201453" y="357.707465" style="fill: #d62728; fill-opacity: 0.8; stroke: #d62728; stroke-opacity: 0.8"/>
     <use xlink:href="#m626273af81" x="137.918336" y="357.707679" style="fill: #d62728; fill-opacity: 0.8; stroke: #d62728; stroke-opacity: 0.8"/>
     <use xlink:href="#m626273af81" x="150.635219" y="357.70659" style="fill: #d62728; fill-opacity: 0.8; stroke: #d62728; stroke-opacity: 0.8"/>
     <use xlink:href="#m626273af81" x="163.352102" y="357.706972" style="fill: #d62728; fill-opacity: 0.8; stroke: #d62728; stroke-opacity: 0.8"/>
     <use xlink:href="#m626273af81" x="176.068985" y="357.697225" style="fill: #d62728; fill-opacity: 0.8; stroke: #d62728; stroke-opacity: 0.8"/>
     <use xlink:href="#m626273af81" x="188.785869" y="325.789673" style="fill: #d62728; fill-opacity: 0.8; stroke: #d62728; stroke-opacity: 0.8"/>
     <use xlink:href="#m626273af81" x="201.502752" y="244.405215" style="fill: #d62728; fill-opacity: 0.8; stroke: #d62728; stroke-opacity: 0.8"/>
     <use xlink:href="#m626273af81" x="214.219635" y="204.371595" style="fill: #d62728; fill-opacity: 0.8; stroke: #d62728; stroke-opacity: 0.8"/>
     <use xlink:href="#m626273af81" x="226.936518" y="165.702403" style="fill: #d62728; fill-opacity: 0.8; stroke: #d62728; stroke-opacity: 0.8"/>
     <use xlink:href="#m626273af81" x="239.653401" y="150.165413" style="fill: #d62728; fill-opacity: 0.8; stroke: #d62728; stroke-opacity: 0.8"/>
     <use xlink:href="#m626273af81" x="252.370284" y="126.140002" style="fill: #d62728; fill-opacity: 0.8; stroke: #d62728; stroke-opacity: 0.8"/>
     <use xlink:href="#m626273af81" x="265.087167" y="124.926913" style="fill: #d62728; fill-opacity: 0.8; stroke: #d62728; stroke-opacity: 0.8"/>
     <use xlink:href="#m626273af81" x="277.80405" y="110.587331" style="fill: #d62728; fill-opacity: 0.8; stroke: #d62728; stroke-opacity: 0.8"/>
     <use xlink:href="#m626273af81" x="290.520933" y="100.930458" style="fill: #d62728; fill-opacity: 0.8; stroke: #d62728; stroke-opacity: 0.8"/>
     <use xlink:href="#m626273af81" x="303.237817" y="91.611524" style="fill: #d62728; fill-opacity: 0.8; stroke: #d62728; stroke-opacity: 0.8"/>
     <use xlink:href="#m626273af81" x="315.9547" y="81.337499" style="fill: #d62728; fill-opacity: 0.8; stroke: #d62728; stroke-opacity: 0.8"/>
     <use xlink:href="#m626273af81" x="328.671583" y="71.573425" style="fill: #d62728; fill-opacity: 0.8; stroke: #d62728; stroke-opacity: 0.8"/>
     <use xlink:href="#m626273af81" x="341.388466" y="78.89246" style="fill: #d62728; fill-opacity: 0.8; stroke: #d62728; stroke-opacity: 0.8"/>
     <use xlink:href="#m626273af81" x="354.105349" y="71.70165" style="fill: #d62728; fill-opacity: 0.8; stroke: #d62728; stroke-opacity: 0.8"/>
     <use xlink:href="#m626273af81" x="366.822232" y="63.229737" style="fill: #d62728; fill-opacity: 0.8; stroke: #d62728; stroke-opacity: 0.8"/>
     <use xlink:href="#m626273af81" x="379.539115" y="55.44303" style="fill: #d62728; fill-opacity: 0.8; stroke: #d62728; stroke-opacity: 0.8"/>
     <use xlink:href="#m626273af81" x="392.255998" y="47.85575" style="fill: #d62728; fill-opacity: 0.8; stroke: #d62728; stroke-opacity: 0.8"/>
     <use xlink:href="#m626273af81" x="404.972881" y="40.285175" style="fill: #d62728; fill-opacity: 0.8; stroke: #d62728; stroke-opacity: 0.8"/>
     <use xlink:href="#m626273af81" x="417.689765" y="33.397605" style="fill: #d62728; fill-opacity: 0.8; stroke: #d62728; stroke-opacity: 0.8"/>
     <use xlink:href="#m626273af81" x="430.406648" y="34.227037" style="fill: #d62728; fill-opacity: 0.8; stroke: #d62728; stroke-opacity: 0.8"/>
     <use xlink:href="#m626273af81" x="443.123531" y="31.946935" style="fill: #d62728; fill-opacity: 0.8; stroke: #d62728; stroke-opacity: 0.8"/>
     <use xlink:href="#m626273af81" x="455.840414" y="37.612761" style="fill: #d62728; fill-opacity: 0.8; stroke: #d62728; stroke-opacity: 0.8"/>
     <use xlink:href="#m626273af81" x="468.557297" y="33.449675" style="fill: #d62728; fill-opacity: 0.8; stroke: #d62728; stroke-opacity: 0.8"/>
     <use xlink:href="#m626273af81" x="481.27418" y="28.632695" style="fill: #d62728; fill-opacity: 0.8; stroke: #d62728; stroke-opacity: 0.8"/>
     <use xlink:href="#m626273af81" x="493.991063" y="23.890909" style="fill: #d62728; fill-opacity: 0.8; stroke: #d62728; stroke-opacity: 0.8"/>
     <use xlink:href="#m626273af81" x="506.707946" y="36.477405" style="fill: #d62728; fill-opacity: 0.8; stroke: #d62728; stroke-opacity: 0.8"/>
    </g>
   </g>
   <g id="matplotlib.axis_1">
    <g id="xtick_1">
     <g id="line2d_1">
      <path d="M 74.33392 374.4 
L 74.33392 7.2 
" clip-path="url(#ped03f9fba2)" style="fill: none; stroke: #b0b0b0; stroke-opacity: 0.3; stroke-width: 0.8; stroke-linecap: square"/>
     </g>
     <g id="line2d_2">
      <defs>
       <path id="m434e986266" d="M 0 0 
L 0 3.5 
" style="stroke: #000000; stroke-width: 0.8"/>
      </defs>
      <g>
       <use xlink:href="#m434e986266" x="74.33392" y="374.4" style="stroke: #000000; stroke-width: 0.8"/>
      </g>
     </g>
     <g id="text_1">
      <!-- 1 -->
      <g transform="translate(71.15267 388.998437) scale(0.1 -0.1)">
       <defs>
        <path id="DejaVuSans-31" d="M 794 531 
L 1825 531 
L 1825 4091 
L 703 3866 
L 703 4441 
L 1819 4666 
L 2450 4666 
L 2450 531 
L 3481 531 
L 3481 0 
L 794 0 
L 794 531 
z
" transform="scale(0.015625)"/>
       </defs>
       <use xlink:href="#DejaVuSans-31"/>
      </g>
     </g>
    </g>
    <g id="xtick_2">
     <g id="line2d_3">
      <path d="M 137.918336 374.4 
L 137.918336 7.2 
" clip-path="url(#ped03f9fba2)" style="fill: none; stroke: #b0b0b0; stroke-opacity: 0.3; stroke-width: 0.8; stroke-linecap: square"/>
     </g>
     <g id="line2d_4">
      <g>
       <use xlink:href="#m434e986266" x="137.918336" y="374.4" style="stroke: #000000; stroke-width: 0.8"/>
      </g>
     </g>
     <g id="text_2">
      <!-- 2 -->
      <g transform="translate(134.737086 388.998437) scale(0.1 -0.1)">
       <defs>
        <path id="DejaVuSans-32" d="M 1228 531 
L 3431 531 
L 3431 0 
L 469 0 
L 469 531 
Q 828 903 1448 1529 
Q 2069 2156 2228 2338 
Q 2531 2678 2651 2914 
Q 2772 3150 2772 3378 
Q 2772 3750 2511 3984 
Q 2250 4219 1831 4219 
Q 1534 4219 1204 4116 
Q 875 4013 500 3803 
L 500 4441 
Q 881 4594 1212 4672 
Q 1544 4750 1819 4750 
Q 2544 4750 2975 4387 
Q 3406 4025 3406 3419 
Q 3406 3131 3298 2873 
Q 3191 2616 2906 2266 
Q 2828 2175 2409 1742 
Q 1991 1309 1228 531 
z
" transform="scale(0.015625)"/>
       </defs>
       <use xlink:href="#DejaVuSans-32"/>
      </g>
     </g>
    </g>
    <g id="xtick_3">
     <g id="line2d_5">
      <path d="M 201.502752 374.4 
L 201.502752 7.2 
" clip-path="url(#ped03f9fba2)" style="fill: none; stroke: #b0b0b0; stroke-opacity: 0.3; stroke-width: 0.8; stroke-linecap: square"/>
     </g>
     <g id="line2d_6">
      <g>
       <use xlink:href="#m434e986266" x="201.502752" y="374.4" style="stroke: #000000; stroke-width: 0.8"/>
      </g>
     </g>
     <g id="text_3">
      <!-- 3 -->
      <g transform="translate(198.321502 388.998437) scale(0.1 -0.1)">
       <defs>
        <path id="DejaVuSans-33" d="M 2597 2516 
Q 3050 2419 3304 2112 
Q 3559 1806 3559 1356 
Q 3559 666 3084 287 
Q 2609 -91 1734 -91 
Q 1441 -91 1130 -33 
Q 819 25 488 141 
L 488 750 
Q 750 597 1062 519 
Q 1375 441 1716 441 
Q 2309 441 2620 675 
Q 2931 909 2931 1356 
Q 2931 1769 2642 2001 
Q 2353 2234 1838 2234 
L 1294 2234 
L 1294 2753 
L 1863 2753 
Q 2328 2753 2575 2939 
Q 2822 3125 2822 3475 
Q 2822 3834 2567 4026 
Q 2313 4219 1838 4219 
Q 1578 4219 1281 4162 
Q 984 4106 628 3988 
L 628 4550 
Q 988 4650 1302 4700 
Q 1616 4750 1894 4750 
Q 2613 4750 3031 4423 
Q 3450 4097 3450 3541 
Q 3450 3153 3228 2886 
Q 3006 2619 2597 2516 
z
" transform="scale(0.015625)"/>
       </defs>
       <use xlink:href="#DejaVuSans-33"/>
      </g>
     </g>
    </g>
    <g id="xtick_4">
     <g id="line2d_7">
      <path d="M 265.087167 374.4 
L 265.087167 7.2 
" clip-path="url(#ped03f9fba2)" style="fill: none; stroke: #b0b0b0; stroke-opacity: 0.3; stroke-width: 0.8; stroke-linecap: square"/>
     </g>
     <g id="line2d_8">
      <g>
       <use xlink:href="#m434e986266" x="265.087167" y="374.4" style="stroke: #000000; stroke-width: 0.8"/>
      </g>
     </g>
     <g id="text_4">
      <!-- 4 -->
      <g transform="translate(261.905917 388.998437) scale(0.1 -0.1)">
       <defs>
        <path id="DejaVuSans-34" d="M 2419 4116 
L 825 1625 
L 2419 1625 
L 2419 4116 
z
M 2253 4666 
L 3047 4666 
L 3047 1625 
L 3713 1625 
L 3713 1100 
L 3047 1100 
L 3047 0 
L 2419 0 
L 2419 1100 
L 313 1100 
L 313 1709 
L 2253 4666 
z
" transform="scale(0.015625)"/>
       </defs>
       <use xlink:href="#DejaVuSans-34"/>
      </g>
     </g>
    </g>
    <g id="xtick_5">
     <g id="line2d_9">
      <path d="M 328.671583 374.4 
L 328.671583 7.2 
" clip-path="url(#ped03f9fba2)" style="fill: none; stroke: #b0b0b0; stroke-opacity: 0.3; stroke-width: 0.8; stroke-linecap: square"/>
     </g>
     <g id="line2d_10">
      <g>
       <use xlink:href="#m434e986266" x="328.671583" y="374.4" style="stroke: #000000; stroke-width: 0.8"/>
      </g>
     </g>
     <g id="text_5">
      <!-- 5 -->
      <g transform="translate(325.490333 388.998437) scale(0.1 -0.1)">
       <defs>
        <path id="DejaVuSans-35" d="M 691 4666 
L 3169 4666 
L 3169 4134 
L 1269 4134 
L 1269 2991 
Q 1406 3038 1543 3061 
Q 1681 3084 1819 3084 
Q 2600 3084 3056 2656 
Q 3513 2228 3513 1497 
Q 3513 744 3044 326 
Q 2575 -91 1722 -91 
Q 1428 -91 1123 -41 
Q 819 9 494 109 
L 494 744 
Q 775 591 1075 516 
Q 1375 441 1709 441 
Q 2250 441 2565 725 
Q 2881 1009 2881 1497 
Q 2881 1984 2565 2268 
Q 2250 2553 1709 2553 
Q 1456 2553 1204 2497 
Q 953 2441 691 2322 
L 691 4666 
z
" transform="scale(0.015625)"/>
       </defs>
       <use xlink:href="#DejaVuSans-35"/>
      </g>
     </g>
    </g>
    <g id="xtick_6">
     <g id="line2d_11">
      <path d="M 392.255998 374.4 
L 392.255998 7.2 
" clip-path="url(#ped03f9fba2)" style="fill: none; stroke: #b0b0b0; stroke-opacity: 0.3; stroke-width: 0.8; stroke-linecap: square"/>
     </g>
     <g id="line2d_12">
      <g>
       <use xlink:href="#m434e986266" x="392.255998" y="374.4" style="stroke: #000000; stroke-width: 0.8"/>
      </g>
     </g>
     <g id="text_6">
      <!-- 6 -->
      <g transform="translate(389.074748 388.998437) scale(0.1 -0.1)">
       <defs>
        <path id="DejaVuSans-36" d="M 2113 2584 
Q 1688 2584 1439 2293 
Q 1191 2003 1191 1497 
Q 1191 994 1439 701 
Q 1688 409 2113 409 
Q 2538 409 2786 701 
Q 3034 994 3034 1497 
Q 3034 2003 2786 2293 
Q 2538 2584 2113 2584 
z
M 3366 4563 
L 3366 3988 
Q 3128 4100 2886 4159 
Q 2644 4219 2406 4219 
Q 1781 4219 1451 3797 
Q 1122 3375 1075 2522 
Q 1259 2794 1537 2939 
Q 1816 3084 2150 3084 
Q 2853 3084 3261 2657 
Q 3669 2231 3669 1497 
Q 3669 778 3244 343 
Q 2819 -91 2113 -91 
Q 1303 -91 875 529 
Q 447 1150 447 2328 
Q 447 3434 972 4092 
Q 1497 4750 2381 4750 
Q 2619 4750 2861 4703 
Q 3103 4656 3366 4563 
z
" transform="scale(0.015625)"/>
       </defs>
       <use xlink:href="#DejaVuSans-36"/>
      </g>
     </g>
    </g>
    <g id="xtick_7">
     <g id="line2d_13">
      <path d="M 455.840414 374.4 
L 455.840414 7.2 
" clip-path="url(#ped03f9fba2)" style="fill: none; stroke: #b0b0b0; stroke-opacity: 0.3; stroke-width: 0.8; stroke-linecap: square"/>
     </g>
     <g id="line2d_14">
      <g>
       <use xlink:href="#m434e986266" x="455.840414" y="374.4" style="stroke: #000000; stroke-width: 0.8"/>
      </g>
     </g>
     <g id="text_7">
      <!-- 7 -->
      <g transform="translate(452.659164 388.998437) scale(0.1 -0.1)">
       <defs>
        <path id="DejaVuSans-37" d="M 525 4666 
L 3525 4666 
L 3525 4397 
L 1831 0 
L 1172 0 
L 2766 4134 
L 525 4134 
L 525 4666 
z
" transform="scale(0.015625)"/>
       </defs>
       <use xlink:href="#DejaVuSans-37"/>
      </g>
     </g>
    </g>
    <g id="xtick_8">
     <g id="line2d_15">
      <path d="M 519.42483 374.4 
L 519.42483 7.2 
" clip-path="url(#ped03f9fba2)" style="fill: none; stroke: #b0b0b0; stroke-opacity: 0.3; stroke-width: 0.8; stroke-linecap: square"/>
     </g>
     <g id="line2d_16">
      <g>
       <use xlink:href="#m434e986266" x="519.42483" y="374.4" style="stroke: #000000; stroke-width: 0.8"/>
      </g>
     </g>
     <g id="text_8">
      <!-- 8 -->
      <g transform="translate(516.24358 388.998437) scale(0.1 -0.1)">
       <defs>
        <path id="DejaVuSans-38" d="M 2034 2216 
Q 1584 2216 1326 1975 
Q 1069 1734 1069 1313 
Q 1069 891 1326 650 
Q 1584 409 2034 409 
Q 2484 409 2743 651 
Q 3003 894 3003 1313 
Q 3003 1734 2745 1975 
Q 2488 2216 2034 2216 
z
M 1403 2484 
Q 997 2584 770 2862 
Q 544 3141 544 3541 
Q 544 4100 942 4425 
Q 1341 4750 2034 4750 
Q 2731 4750 3128 4425 
Q 3525 4100 3525 3541 
Q 3525 3141 3298 2862 
Q 3072 2584 2669 2484 
Q 3125 2378 3379 2068 
Q 3634 1759 3634 1313 
Q 3634 634 3220 271 
Q 2806 -91 2034 -91 
Q 1263 -91 848 271 
Q 434 634 434 1313 
Q 434 1759 690 2068 
Q 947 2378 1403 2484 
z
M 1172 3481 
Q 1172 3119 1398 2916 
Q 1625 2713 2034 2713 
Q 2441 2713 2670 2916 
Q 2900 3119 2900 3481 
Q 2900 3844 2670 4047 
Q 2441 4250 2034 4250 
Q 1625 4250 1398 4047 
Q 1172 3844 1172 3481 
z
" transform="scale(0.015625)"/>
       </defs>
       <use xlink:href="#DejaVuSans-38"/>
      </g>
     </g>
    </g>
    <g id="text_9">
     <!-- $u_d$ -->
     <g transform="translate(290.219375 404.19625) scale(0.12 -0.12)">
      <defs>
       <path id="DejaVuSans-Oblique-75" d="M 428 1388 
L 838 3500 
L 1416 3500 
L 1006 1409 
Q 975 1256 961 1147 
Q 947 1038 947 966 
Q 947 700 1109 554 
Q 1272 409 1569 409 
Q 2031 409 2368 721 
Q 2706 1034 2809 1563 
L 3194 3500 
L 3769 3500 
L 3091 0 
L 2516 0 
L 2631 550 
Q 2388 244 2052 76 
Q 1716 -91 1338 -91 
Q 878 -91 622 161 
Q 366 413 366 863 
Q 366 956 381 1097 
Q 397 1238 428 1388 
z
" transform="scale(0.015625)"/>
       <path id="DejaVuSans-Oblique-64" d="M 2675 525 
Q 2444 222 2128 65 
Q 1813 -91 1428 -91 
Q 903 -91 598 267 
Q 294 625 294 1247 
Q 294 1766 478 2236 
Q 663 2706 1013 3078 
Q 1244 3325 1534 3454 
Q 1825 3584 2144 3584 
Q 2481 3584 2739 3421 
Q 2997 3259 3138 2956 
L 3513 4863 
L 4091 4863 
L 3144 0 
L 2566 0 
L 2675 525 
z
M 891 1350 
Q 891 897 1095 644 
Q 1300 391 1663 391 
Q 1931 391 2161 520 
Q 2391 650 2566 903 
Q 2750 1166 2856 1509 
Q 2963 1853 2963 2188 
Q 2963 2622 2758 2865 
Q 2553 3109 2194 3109 
Q 1922 3109 1687 2981 
Q 1453 2853 1288 2613 
Q 1106 2353 998 2009 
Q 891 1666 891 1350 
z
" transform="scale(0.015625)"/>
      </defs>
      <use xlink:href="#DejaVuSans-Oblique-75" transform="translate(0 0.3125)"/>
      <use xlink:href="#DejaVuSans-Oblique-64" transform="translate(63.378906 -16.09375) scale(0.7)"/>
     </g>
    </g>
   </g>
   <g id="matplotlib.axis_2">
    <g id="ytick_1">
     <g id="line2d_17">
      <path d="M 52.079375 357.709091 
L 541.679375 357.709091 
" clip-path="url(#ped03f9fba2)" style="fill: none; stroke: #b0b0b0; stroke-opacity: 0.3; stroke-width: 0.8; stroke-linecap: square"/>
     </g>
     <g id="line2d_18">
      <defs>
       <path id="mb885b96939" d="M 0 0 
L -3.5 0 
" style="stroke: #000000; stroke-width: 0.8"/>
      </defs>
      <g>
       <use xlink:href="#mb885b96939" x="52.079375" y="357.709091" style="stroke: #000000; stroke-width: 0.8"/>
      </g>
     </g>
     <g id="text_10">
      <!-- 0.00 -->
      <g transform="translate(22.81375 361.50831) scale(0.1 -0.1)">
       <defs>
        <path id="DejaVuSans-30" d="M 2034 4250 
Q 1547 4250 1301 3770 
Q 1056 3291 1056 2328 
Q 1056 1369 1301 889 
Q 1547 409 2034 409 
Q 2525 409 2770 889 
Q 3016 1369 3016 2328 
Q 3016 3291 2770 3770 
Q 2525 4250 2034 4250 
z
M 2034 4750 
Q 2819 4750 3233 4129 
Q 3647 3509 3647 2328 
Q 3647 1150 3233 529 
Q 2819 -91 2034 -91 
Q 1250 -91 836 529 
Q 422 1150 422 2328 
Q 422 3509 836 4129 
Q 1250 4750 2034 4750 
z
" transform="scale(0.015625)"/>
        <path id="DejaVuSans-2e" d="M 684 794 
L 1344 794 
L 1344 0 
L 684 0 
L 684 794 
z
" transform="scale(0.015625)"/>
       </defs>
       <use xlink:href="#DejaVuSans-30"/>
       <use xlink:href="#DejaVuSans-2e" x="63.623047"/>
       <use xlink:href="#DejaVuSans-30" x="95.410156"/>
       <use xlink:href="#DejaVuSans-30" x="159.033203"/>
      </g>
     </g>
    </g>
    <g id="ytick_2">
     <g id="line2d_19">
      <path d="M 52.079375 285.882769 
L 541.679375 285.882769 
" clip-path="url(#ped03f9fba2)" style="fill: none; stroke: #b0b0b0; stroke-opacity: 0.3; stroke-width: 0.8; stroke-linecap: square"/>
     </g>
     <g id="line2d_20">
      <g>
       <use xlink:href="#mb885b96939" x="52.079375" y="285.882769" style="stroke: #000000; stroke-width: 0.8"/>
      </g>
     </g>
     <g id="text_11">
      <!-- 0.05 -->
      <g transform="translate(22.81375 289.681987) scale(0.1 -0.1)">
       <use xlink:href="#DejaVuSans-30"/>
       <use xlink:href="#DejaVuSans-2e" x="63.623047"/>
       <use xlink:href="#DejaVuSans-30" x="95.410156"/>
       <use xlink:href="#DejaVuSans-35" x="159.033203"/>
      </g>
     </g>
    </g>
    <g id="ytick_3">
     <g id="line2d_21">
      <path d="M 52.079375 214.056446 
L 541.679375 214.056446 
" clip-path="url(#ped03f9fba2)" style="fill: none; stroke: #b0b0b0; stroke-opacity: 0.3; stroke-width: 0.8; stroke-linecap: square"/>
     </g>
     <g id="line2d_22">
      <g>
       <use xlink:href="#mb885b96939" x="52.079375" y="214.056446" style="stroke: #000000; stroke-width: 0.8"/>
      </g>
     </g>
     <g id="text_12">
      <!-- 0.10 -->
      <g transform="translate(22.81375 217.855665) scale(0.1 -0.1)">
       <use xlink:href="#DejaVuSans-30"/>
       <use xlink:href="#DejaVuSans-2e" x="63.623047"/>
       <use xlink:href="#DejaVuSans-31" x="95.410156"/>
       <use xlink:href="#DejaVuSans-30" x="159.033203"/>
      </g>
     </g>
    </g>
    <g id="ytick_4">
     <g id="line2d_23">
      <path d="M 52.079375 142.230124 
L 541.679375 142.230124 
" clip-path="url(#ped03f9fba2)" style="fill: none; stroke: #b0b0b0; stroke-opacity: 0.3; stroke-width: 0.8; stroke-linecap: square"/>
     </g>
     <g id="line2d_24">
      <g>
       <use xlink:href="#mb885b96939" x="52.079375" y="142.230124" style="stroke: #000000; stroke-width: 0.8"/>
      </g>
     </g>
     <g id="text_13">
      <!-- 0.15 -->
      <g transform="translate(22.81375 146.029343) scale(0.1 -0.1)">
       <use xlink:href="#DejaVuSans-30"/>
       <use xlink:href="#DejaVuSans-2e" x="63.623047"/>
       <use xlink:href="#DejaVuSans-31" x="95.410156"/>
       <use xlink:href="#DejaVuSans-35" x="159.033203"/>
      </g>
     </g>
    </g>
    <g id="ytick_5">
     <g id="line2d_25">
      <path d="M 52.079375 70.403802 
L 541.679375 70.403802 
" clip-path="url(#ped03f9fba2)" style="fill: none; stroke: #b0b0b0; stroke-opacity: 0.3; stroke-width: 0.8; stroke-linecap: square"/>
     </g>
     <g id="line2d_26">
      <g>
       <use xlink:href="#mb885b96939" x="52.079375" y="70.403802" style="stroke: #000000; stroke-width: 0.8"/>
      </g>
     </g>
     <g id="text_14">
      <!-- 0.20 -->
      <g transform="translate(22.81375 74.20302) scale(0.1 -0.1)">
       <use xlink:href="#DejaVuSans-30"/>
       <use xlink:href="#DejaVuSans-2e" x="63.623047"/>
       <use xlink:href="#DejaVuSans-32" x="95.410156"/>
       <use xlink:href="#DejaVuSans-30" x="159.033203"/>
      </g>
     </g>
    </g>
    <g id="text_15">
     <!-- $n_{\rm max} - n_{\rm min}$ -->
     <g transform="translate(16.318125 223.2) rotate(-90) scale(0.12 -0.12)">
      <defs>
       <path id="DejaVuSans-Oblique-6e" d="M 3566 2113 
L 3156 0 
L 2578 0 
L 2988 2091 
Q 3016 2238 3031 2350 
Q 3047 2463 3047 2528 
Q 3047 2791 2881 2937 
Q 2716 3084 2419 3084 
Q 1956 3084 1622 2776 
Q 1288 2469 1184 1941 
L 800 0 
L 225 0 
L 903 3500 
L 1478 3500 
L 1363 2950 
Q 1603 3253 1940 3418 
Q 2278 3584 2650 3584 
Q 3113 3584 3367 3334 
Q 3622 3084 3622 2631 
Q 3622 2519 3608 2391 
Q 3594 2263 3566 2113 
z
" transform="scale(0.015625)"/>
       <path id="DejaVuSans-6d" d="M 3328 2828 
Q 3544 3216 3844 3400 
Q 4144 3584 4550 3584 
Q 5097 3584 5394 3201 
Q 5691 2819 5691 2113 
L 5691 0 
L 5113 0 
L 5113 2094 
Q 5113 2597 4934 2840 
Q 4756 3084 4391 3084 
Q 3944 3084 3684 2787 
Q 3425 2491 3425 1978 
L 3425 0 
L 2847 0 
L 2847 2094 
Q 2847 2600 2669 2842 
Q 2491 3084 2119 3084 
Q 1678 3084 1418 2786 
Q 1159 2488 1159 1978 
L 1159 0 
L 581 0 
L 581 3500 
L 1159 3500 
L 1159 2956 
Q 1356 3278 1631 3431 
Q 1906 3584 2284 3584 
Q 2666 3584 2933 3390 
Q 3200 3197 3328 2828 
z
" transform="scale(0.015625)"/>
       <path id="DejaVuSans-61" d="M 2194 1759 
Q 1497 1759 1228 1600 
Q 959 1441 959 1056 
Q 959 750 1161 570 
Q 1363 391 1709 391 
Q 2188 391 2477 730 
Q 2766 1069 2766 1631 
L 2766 1759 
L 2194 1759 
z
M 3341 1997 
L 3341 0 
L 2766 0 
L 2766 531 
Q 2569 213 2275 61 
Q 1981 -91 1556 -91 
Q 1019 -91 701 211 
Q 384 513 384 1019 
Q 384 1609 779 1909 
Q 1175 2209 1959 2209 
L 2766 2209 
L 2766 2266 
Q 2766 2663 2505 2880 
Q 2244 3097 1772 3097 
Q 1472 3097 1187 3025 
Q 903 2953 641 2809 
L 641 3341 
Q 956 3463 1253 3523 
Q 1550 3584 1831 3584 
Q 2591 3584 2966 3190 
Q 3341 2797 3341 1997 
z
" transform="scale(0.015625)"/>
       <path id="DejaVuSans-78" d="M 3513 3500 
L 2247 1797 
L 3578 0 
L 2900 0 
L 1881 1375 
L 863 0 
L 184 0 
L 1544 1831 
L 300 3500 
L 978 3500 
L 1906 2253 
L 2834 3500 
L 3513 3500 
z
" transform="scale(0.015625)"/>
       <path id="DejaVuSans-2212" d="M 678 2272 
L 4684 2272 
L 4684 1741 
L 678 1741 
L 678 2272 
z
" transform="scale(0.015625)"/>
       <path id="DejaVuSans-69" d="M 603 3500 
L 1178 3500 
L 1178 0 
L 603 0 
L 603 3500 
z
M 603 4863 
L 1178 4863 
L 1178 4134 
L 603 4134 
L 603 4863 
z
" transform="scale(0.015625)"/>
       <path id="DejaVuSans-6e" d="M 3513 2113 
L 3513 0 
L 2938 0 
L 2938 2094 
Q 2938 2591 2744 2837 
Q 2550 3084 2163 3084 
Q 1697 3084 1428 2787 
Q 1159 2491 1159 1978 
L 1159 0 
L 581 0 
L 581 3500 
L 1159 3500 
L 1159 2956 
Q 1366 3272 1645 3428 
Q 1925 3584 2291 3584 
Q 2894 3584 3203 3211 
Q 3513 2838 3513 2113 
z
" transform="scale(0.015625)"/>
      </defs>
      <use xlink:href="#DejaVuSans-Oblique-6e"/>
      <use xlink:href="#DejaVuSans-6d" transform="translate(63.378906 -16.40625) scale(0.7)"/>
      <use xlink:href="#DejaVuSans-61" transform="translate(131.567383 -16.40625) scale(0.7)"/>
      <use xlink:href="#DejaVuSans-78" transform="translate(174.462891 -16.40625) scale(0.7)"/>
      <use xlink:href="#DejaVuSans-2212" transform="translate(238.105469 0)"/>
      <use xlink:href="#DejaVuSans-Oblique-6e" transform="translate(341.376953 0)"/>
      <use xlink:href="#DejaVuSans-6d" transform="translate(404.755859 -16.40625) scale(0.7)"/>
      <use xlink:href="#DejaVuSans-69" transform="translate(472.944336 -16.40625) scale(0.7)"/>
      <use xlink:href="#DejaVuSans-6e" transform="translate(492.392578 -16.40625) scale(0.7)"/>
     </g>
    </g>
   </g>
   <g id="line2d_27">
    <path d="M 184.970804 357.709091 
L 185.501206 339.070444 
L 186.031609 331.350064 
L 187.092414 320.431797 
L 188.15322 312.053917 
L 189.744428 301.79315 
L 191.335636 293.142924 
L 193.457246 283.154503 
L 195.578857 274.354528 
L 197.700467 266.398742 
L 200.352481 257.336906 
L 203.004494 249.028038 
L 206.18691 239.827938 
L 209.369326 231.295637 
L 213.082145 222.017693 
L 216.794963 213.334753 
L 221.038185 204.010871 
L 225.281406 195.221135 
L 230.05503 185.869257 
L 234.828654 177.000705 
L 240.13268 167.631443 
L 245.436707 158.7028 
L 251.271136 149.322684 
L 257.105566 140.346984 
L 263.470398 130.960165 
L 270.365632 121.211175 
L 277.260867 111.848453 
L 284.686504 102.148841 
L 290.520933 94.77862 
L 290.520933 94.77862 
" clip-path="url(#ped03f9fba2)" style="fill: none; stroke: #ff0000; stroke-opacity: 0.9; stroke-width: 1.5; stroke-linecap: square"/>
   </g>
   <g id="line2d_28">
    <path d="M 184.970804 374.4 
L 184.970804 7.2 
" clip-path="url(#ped03f9fba2)" style="fill: none; stroke-dasharray: 7.4,3.2; stroke-dashoffset: 0; stroke: #0000ff; stroke-opacity: 0.8; stroke-width: 2"/>
   </g>
   <g id="line2d_29">
    <path d="M 52.079375 357.709091 
L 541.679375 357.709091 
" clip-path="url(#ped03f9fba2)" style="fill: none; stroke-dasharray: 3.7,1.6; stroke-dashoffset: 0; stroke: #000000; stroke-opacity: 0.8"/>
   </g>
   <g id="patch_3">
    <path d="M 52.079375 374.4 
L 52.079375 7.2 
" style="fill: none; stroke: #000000; stroke-width: 0.8; stroke-linejoin: miter; stroke-linecap: square"/>
   </g>
   <g id="patch_4">
    <path d="M 541.679375 374.4 
L 541.679375 7.2 
" style="fill: none; stroke: #000000; stroke-width: 0.8; stroke-linejoin: miter; stroke-linecap: square"/>
   </g>
   <g id="patch_5">
    <path d="M 52.079375 374.4 
L 541.679375 374.4 
" style="fill: none; stroke: #000000; stroke-width: 0.8; stroke-linejoin: miter; stroke-linecap: square"/>
   </g>
   <g id="patch_6">
    <path d="M 52.079375 7.2 
L 541.679375 7.2 
" style="fill: none; stroke: #000000; stroke-width: 0.8; stroke-linejoin: miter; stroke-linecap: square"/>
   </g>
   <g id="legend_1">
    <g id="patch_7">
     <path d="M 59.079375 106.775 
L 203.479375 106.775 
Q 205.479375 106.775 205.479375 104.775 
L 205.479375 14.2 
Q 205.479375 12.2 203.479375 12.2 
L 59.079375 12.2 
Q 57.079375 12.2 57.079375 14.2 
L 57.079375 104.775 
Q 57.079375 106.775 59.079375 106.775 
z
" style="fill: #ffffff; opacity: 0.9; stroke: #cccccc; stroke-linejoin: miter"/>
    </g>
    <g id="line2d_30">
     <path d="M 61.079375 23.720312 
L 71.079375 23.720312 
L 81.079375 23.720312 
" style="fill: none; stroke: #ff0000; stroke-opacity: 0.9; stroke-width: 1.5; stroke-linecap: square"/>
    </g>
    <g id="text_16">
     <!-- $\Delta n = 0.142 \sqrt{u_d - 2.74}$ -->
     <g transform="translate(89.079375 27.220312) scale(0.1 -0.1)">
      <defs>
       <path id="DejaVuSans-394" d="M 2188 4044 
L 906 525 
L 3472 525 
L 2188 4044 
z
M 50 0 
L 1831 4666 
L 2547 4666 
L 4325 0 
L 50 0 
z
" transform="scale(0.015625)"/>
       <path id="DejaVuSans-3d" d="M 678 2906 
L 4684 2906 
L 4684 2381 
L 678 2381 
L 678 2906 
z
M 678 1631 
L 4684 1631 
L 4684 1100 
L 678 1100 
L 678 1631 
z
" transform="scale(0.015625)"/>
       <path id="STIXSizeOneSym-Regular-221a" d="M 6970 9933 
L 3373 -1888 
L 3104 -1888 
L 1626 2918 
Q 1555 3149 1465 3251 
Q 1376 3354 1229 3354 
Q 1011 3354 794 3181 
L 717 3309 
L 1766 4115 
L 1926 4115 
L 3379 -602 
L 3405 -602 
L 6605 9933 
L 6970 9933 
z
" transform="scale(0.015625)"/>
      </defs>
      <use xlink:href="#DejaVuSans-394" transform="translate(0 0.651562)"/>
      <use xlink:href="#DejaVuSans-Oblique-6e" transform="translate(68.408203 0.651562)"/>
      <use xlink:href="#DejaVuSans-3d" transform="translate(151.269531 0.651562)"/>
      <use xlink:href="#DejaVuSans-30" transform="translate(254.541016 0.651562)"/>
      <use xlink:href="#DejaVuSans-2e" transform="translate(318.164062 0.651562)"/>
      <use xlink:href="#DejaVuSans-31" transform="translate(349.951172 0.651562)"/>
      <use xlink:href="#DejaVuSans-34" transform="translate(413.574219 0.651562)"/>
      <use xlink:href="#DejaVuSans-32" transform="translate(477.197266 0.651562)"/>
      <use xlink:href="#STIXSizeOneSym-Regular-221a" transform="translate(540.820312 3.015625) scale(0.665231)"/>
      <use xlink:href="#DejaVuSans-Oblique-75" transform="translate(623.610809 0.53125)"/>
      <use xlink:href="#DejaVuSans-Oblique-64" transform="translate(686.989716 -15.875) scale(0.7)"/>
      <use xlink:href="#DejaVuSans-2212" transform="translate(753.640106 0.53125)"/>
      <use xlink:href="#DejaVuSans-32" transform="translate(856.911591 0.53125)"/>
      <use xlink:href="#DejaVuSans-2e" transform="translate(920.534637 0.53125)"/>
      <use xlink:href="#DejaVuSans-37" transform="translate(944.571747 0.53125)"/>
      <use xlink:href="#DejaVuSans-34" transform="translate(1008.194794 0.53125)"/>
      <path d="M 611.110809 100.5 
L 611.110809 106.75 
L 1084.317841 106.75 
L 1084.317841 100.5 
L 611.110809 100.5 
z
"/>
     </g>
    </g>
    <g id="PathCollection_5">
     <g>
      <use xlink:href="#m956bd04318" x="71.079375" y="39.273438" style="fill: #1f77b4; fill-opacity: 0.8; stroke: #1f77b4; stroke-opacity: 0.8"/>
     </g>
    </g>
    <g id="text_17">
     <!-- $\delta n,\delta p = 0.03$ -->
     <g transform="translate(89.079375 41.898438) scale(0.1 -0.1)">
      <defs>
       <path id="DejaVuSans-Oblique-3b4" d="M 3472 4053 
Q 3197 4272 2450 4272 
Q 1659 4272 1588 3906 
Q 1531 3619 2328 3469 
Q 2953 3353 3253 3003 
Q 3616 2581 3447 1716 
Q 3284 888 2763 400 
Q 2238 -91 1488 -91 
Q 741 -91 406 400 
Q 72 888 241 1747 
Q 363 2384 891 2900 
Q 1097 3100 1353 3213 
Q 913 3459 1000 3900 
Q 1166 4750 2544 4750 
Q 3234 4750 3566 4531 
L 3472 4053 
z
M 1753 3056 
Q 1525 2966 1306 2738 
Q 969 2384 847 1747 
Q 722 1113 919 756 
Q 1119 397 1584 397 
Q 2044 397 2381 759 
Q 2722 1122 2838 1716 
Q 2956 2338 2731 2638 
Q 2491 2959 2103 2994 
Q 1906 3013 1753 3056 
z
" transform="scale(0.015625)"/>
       <path id="DejaVuSans-2c" d="M 750 794 
L 1409 794 
L 1409 256 
L 897 -744 
L 494 -744 
L 750 256 
L 750 794 
z
" transform="scale(0.015625)"/>
       <path id="DejaVuSans-Oblique-70" d="M 3175 2156 
Q 3175 2616 2975 2859 
Q 2775 3103 2400 3103 
Q 2144 3103 1911 2972 
Q 1678 2841 1497 2591 
Q 1319 2344 1212 1994 
Q 1106 1644 1106 1300 
Q 1106 863 1306 627 
Q 1506 391 1875 391 
Q 2147 391 2380 519 
Q 2613 647 2778 891 
Q 2956 1147 3065 1494 
Q 3175 1841 3175 2156 
z
M 1394 2969 
Q 1625 3272 1939 3428 
Q 2253 3584 2638 3584 
Q 3175 3584 3472 3232 
Q 3769 2881 3769 2247 
Q 3769 1728 3584 1258 
Q 3400 788 3053 416 
Q 2822 169 2531 39 
Q 2241 -91 1919 -91 
Q 1547 -91 1294 64 
Q 1041 219 916 525 
L 556 -1331 
L -19 -1331 
L 922 3500 
L 1497 3500 
L 1394 2969 
z
" transform="scale(0.015625)"/>
      </defs>
      <use xlink:href="#DejaVuSans-Oblique-3b4" transform="translate(0 0.78125)"/>
      <use xlink:href="#DejaVuSans-Oblique-6e" transform="translate(61.181641 0.78125)"/>
      <use xlink:href="#DejaVuSans-2c" transform="translate(124.560547 0.78125)"/>
      <use xlink:href="#DejaVuSans-Oblique-3b4" transform="translate(175.830078 0.78125)"/>
      <use xlink:href="#DejaVuSans-Oblique-70" transform="translate(237.011719 0.78125)"/>
      <use xlink:href="#DejaVuSans-3d" transform="translate(319.970703 0.78125)"/>
      <use xlink:href="#DejaVuSans-30" transform="translate(423.242188 0.78125)"/>
      <use xlink:href="#DejaVuSans-2e" transform="translate(486.865234 0.78125)"/>
      <use xlink:href="#DejaVuSans-30" transform="translate(518.652344 0.78125)"/>
      <use xlink:href="#DejaVuSans-33" transform="translate(582.275391 0.78125)"/>
     </g>
    </g>
    <g id="PathCollection_6">
     <g>
      <use xlink:href="#m83c77df195" x="71.079375" y="53.973437" style="fill: #ff7f0e; fill-opacity: 0.8; stroke: #ff7f0e; stroke-opacity: 0.8"/>
     </g>
    </g>
    <g id="text_18">
     <!-- $\delta n,\delta p = 0.05$ non-unif. -->
     <g transform="translate(89.079375 56.598437) scale(0.1 -0.1)">
      <defs>
       <path id="DejaVuSans-20" transform="scale(0.015625)"/>
       <path id="DejaVuSans-6f" d="M 1959 3097 
Q 1497 3097 1228 2736 
Q 959 2375 959 1747 
Q 959 1119 1226 758 
Q 1494 397 1959 397 
Q 2419 397 2687 759 
Q 2956 1122 2956 1747 
Q 2956 2369 2687 2733 
Q 2419 3097 1959 3097 
z
M 1959 3584 
Q 2709 3584 3137 3096 
Q 3566 2609 3566 1747 
Q 3566 888 3137 398 
Q 2709 -91 1959 -91 
Q 1206 -91 779 398 
Q 353 888 353 1747 
Q 353 2609 779 3096 
Q 1206 3584 1959 3584 
z
" transform="scale(0.015625)"/>
       <path id="DejaVuSans-2d" d="M 313 2009 
L 1997 2009 
L 1997 1497 
L 313 1497 
L 313 2009 
z
" transform="scale(0.015625)"/>
       <path id="DejaVuSans-75" d="M 544 1381 
L 544 3500 
L 1119 3500 
L 1119 1403 
Q 1119 906 1312 657 
Q 1506 409 1894 409 
Q 2359 409 2629 706 
Q 2900 1003 2900 1516 
L 2900 3500 
L 3475 3500 
L 3475 0 
L 2900 0 
L 2900 538 
Q 2691 219 2414 64 
Q 2138 -91 1772 -91 
Q 1169 -91 856 284 
Q 544 659 544 1381 
z
M 1991 3584 
L 1991 3584 
z
" transform="scale(0.015625)"/>
       <path id="DejaVuSans-66" d="M 2375 4863 
L 2375 4384 
L 1825 4384 
Q 1516 4384 1395 4259 
Q 1275 4134 1275 3809 
L 1275 3500 
L 2222 3500 
L 2222 3053 
L 1275 3053 
L 1275 0 
L 697 0 
L 697 3053 
L 147 3053 
L 147 3500 
L 697 3500 
L 697 3744 
Q 697 4328 969 4595 
Q 1241 4863 1831 4863 
L 2375 4863 
z
" transform="scale(0.015625)"/>
      </defs>
      <use xlink:href="#DejaVuSans-Oblique-3b4" transform="translate(0 0.015625)"/>
      <use xlink:href="#DejaVuSans-Oblique-6e" transform="translate(61.181641 0.015625)"/>
      <use xlink:href="#DejaVuSans-2c" transform="translate(124.560547 0.015625)"/>
      <use xlink:href="#DejaVuSans-Oblique-3b4" transform="translate(175.830078 0.015625)"/>
      <use xlink:href="#DejaVuSans-Oblique-70" transform="translate(237.011719 0.015625)"/>
      <use xlink:href="#DejaVuSans-3d" transform="translate(319.970703 0.015625)"/>
      <use xlink:href="#DejaVuSans-30" transform="translate(423.242188 0.015625)"/>
      <use xlink:href="#DejaVuSans-2e" transform="translate(486.865234 0.015625)"/>
      <use xlink:href="#DejaVuSans-30" transform="translate(518.652344 0.015625)"/>
      <use xlink:href="#DejaVuSans-35" transform="translate(582.275391 0.015625)"/>
      <use xlink:href="#DejaVuSans-20" transform="translate(645.898438 0.015625)"/>
      <use xlink:href="#DejaVuSans-6e" transform="translate(677.685547 0.015625)"/>
      <use xlink:href="#DejaVuSans-6f" transform="translate(741.064453 0.015625)"/>
      <use xlink:href="#DejaVuSans-6e" transform="translate(802.246094 0.015625)"/>
      <use xlink:href="#DejaVuSans-2d" transform="translate(865.625 0.015625)"/>
      <use xlink:href="#DejaVuSans-75" transform="translate(901.708984 0.015625)"/>
      <use xlink:href="#DejaVuSans-6e" transform="translate(965.087891 0.015625)"/>
      <use xlink:href="#DejaVuSans-69" transform="translate(1028.466797 0.015625)"/>
      <use xlink:href="#DejaVuSans-66" transform="translate(1056.25 0.015625)"/>
      <use xlink:href="#DejaVuSans-2e" transform="translate(1091.455078 0.015625)"/>
     </g>
    </g>
    <g id="PathCollection_7">
     <g>
      <use xlink:href="#m63fd8671cb" x="71.079375" y="68.673437" style="fill: #2ca02c; fill-opacity: 0.8; stroke: #2ca02c; stroke-opacity: 0.8"/>
     </g>
    </g>
    <g id="text_19">
     <!-- $\delta n,\delta p = 0.05$ quad. -->
     <g transform="translate(89.079375 71.298437) scale(0.1 -0.1)">
      <defs>
       <path id="DejaVuSans-71" d="M 947 1747 
Q 947 1113 1208 752 
Q 1469 391 1925 391 
Q 2381 391 2643 752 
Q 2906 1113 2906 1747 
Q 2906 2381 2643 2742 
Q 2381 3103 1925 3103 
Q 1469 3103 1208 2742 
Q 947 2381 947 1747 
z
M 2906 525 
Q 2725 213 2448 61 
Q 2172 -91 1784 -91 
Q 1150 -91 751 415 
Q 353 922 353 1747 
Q 353 2572 751 3078 
Q 1150 3584 1784 3584 
Q 2172 3584 2448 3432 
Q 2725 3281 2906 2969 
L 2906 3500 
L 3481 3500 
L 3481 -1331 
L 2906 -1331 
L 2906 525 
z
" transform="scale(0.015625)"/>
       <path id="DejaVuSans-64" d="M 2906 2969 
L 2906 4863 
L 3481 4863 
L 3481 0 
L 2906 0 
L 2906 525 
Q 2725 213 2448 61 
Q 2172 -91 1784 -91 
Q 1150 -91 751 415 
Q 353 922 353 1747 
Q 353 2572 751 3078 
Q 1150 3584 1784 3584 
Q 2172 3584 2448 3432 
Q 2725 3281 2906 2969 
z
M 947 1747 
Q 947 1113 1208 752 
Q 1469 391 1925 391 
Q 2381 391 2643 752 
Q 2906 1113 2906 1747 
Q 2906 2381 2643 2742 
Q 2381 3103 1925 3103 
Q 1469 3103 1208 2742 
Q 947 2381 947 1747 
z
" transform="scale(0.015625)"/>
      </defs>
      <use xlink:href="#DejaVuSans-Oblique-3b4" transform="translate(0 0.015625)"/>
      <use xlink:href="#DejaVuSans-Oblique-6e" transform="translate(61.181641 0.015625)"/>
      <use xlink:href="#DejaVuSans-2c" transform="translate(124.560547 0.015625)"/>
      <use xlink:href="#DejaVuSans-Oblique-3b4" transform="translate(175.830078 0.015625)"/>
      <use xlink:href="#DejaVuSans-Oblique-70" transform="translate(237.011719 0.015625)"/>
      <use xlink:href="#DejaVuSans-3d" transform="translate(319.970703 0.015625)"/>
      <use xlink:href="#DejaVuSans-30" transform="translate(423.242188 0.015625)"/>
      <use xlink:href="#DejaVuSans-2e" transform="translate(486.865234 0.015625)"/>
      <use xlink:href="#DejaVuSans-30" transform="translate(518.652344 0.015625)"/>
      <use xlink:href="#DejaVuSans-35" transform="translate(582.275391 0.015625)"/>
      <use xlink:href="#DejaVuSans-20" transform="translate(645.898438 0.015625)"/>
      <use xlink:href="#DejaVuSans-71" transform="translate(677.685547 0.015625)"/>
      <use xlink:href="#DejaVuSans-75" transform="translate(741.162109 0.015625)"/>
      <use xlink:href="#DejaVuSans-61" transform="translate(804.541016 0.015625)"/>
      <use xlink:href="#DejaVuSans-64" transform="translate(865.820312 0.015625)"/>
      <use xlink:href="#DejaVuSans-2e" transform="translate(929.296875 0.015625)"/>
     </g>
    </g>
    <g id="PathCollection_8">
     <g>
      <use xlink:href="#m626273af81" x="71.079375" y="83.371875" style="fill: #d62728; fill-opacity: 0.8; stroke: #d62728; stroke-opacity: 0.8"/>
     </g>
    </g>
    <g id="text_20">
     <!-- $\delta n, \delta p = 0.03$ -->
     <g transform="translate(89.079375 85.996875) scale(0.1 -0.1)">
      <use xlink:href="#DejaVuSans-Oblique-3b4" transform="translate(0 0.78125)"/>
      <use xlink:href="#DejaVuSans-Oblique-6e" transform="translate(61.181641 0.78125)"/>
      <use xlink:href="#DejaVuSans-2c" transform="translate(124.560547 0.78125)"/>
      <use xlink:href="#DejaVuSans-Oblique-3b4" transform="translate(175.830078 0.78125)"/>
      <use xlink:href="#DejaVuSans-Oblique-70" transform="translate(237.011719 0.78125)"/>
      <use xlink:href="#DejaVuSans-3d" transform="translate(319.970703 0.78125)"/>
      <use xlink:href="#DejaVuSans-30" transform="translate(423.242188 0.78125)"/>
      <use xlink:href="#DejaVuSans-2e" transform="translate(486.865234 0.78125)"/>
      <use xlink:href="#DejaVuSans-30" transform="translate(518.652344 0.78125)"/>
      <use xlink:href="#DejaVuSans-33" transform="translate(582.275391 0.78125)"/>
     </g>
    </g>
    <g id="line2d_31">
     <path d="M 61.079375 97.195312 
L 71.079375 97.195312 
L 81.079375 97.195312 
" style="fill: none; stroke-dasharray: 7.4,3.2; stroke-dashoffset: 0; stroke: #0000ff; stroke-opacity: 0.8; stroke-width: 2"/>
    </g>
    <g id="text_21">
     <!-- $u^{\bigstar} = 2.74$ -->
     <g transform="translate(89.079375 100.695312) scale(0.1 -0.1)">
      <defs>
       <path id="DejaVuSans-2605" d="M 416 2850 
L 2288 2850 
L 2869 4628 
L 3453 2850 
L 5322 2850 
L 3809 1747 
L 4391 -28 
L 2869 1072 
L 1350 -28 
L 1928 1747 
L 416 2850 
z
" transform="scale(0.015625)"/>
      </defs>
      <use xlink:href="#DejaVuSans-Oblique-75" transform="translate(0 0.1)"/>
      <use xlink:href="#DejaVuSans-2605" transform="translate(67.845052 38.38125) scale(0.7)"/>
      <use xlink:href="#DejaVuSans-3d" transform="translate(152.815755 0.1)"/>
      <use xlink:href="#DejaVuSans-32" transform="translate(256.08724 0.1)"/>
      <use xlink:href="#DejaVuSans-2e" transform="translate(319.710286 0.1)"/>
      <use xlink:href="#DejaVuSans-37" transform="translate(343.747396 0.1)"/>
      <use xlink:href="#DejaVuSans-34" transform="translate(407.370443 0.1)"/>
     </g>
    </g>
   </g>
  </g>
  <g id="axes_2">
   <g id="patch_8">
    <path d="M 242.159375 288 
L 530.159375 288 
L 530.159375 201.6 
L 242.159375 201.6 
z
" style="fill: #ffffff"/>
   </g>
   <g id="matplotlib.axis_3">
    <g id="text_22">
     <!-- x -->
     <g transform="translate(382.01625 302.637812) scale(0.14 -0.14)">
      <use xlink:href="#DejaVuSans-78"/>
     </g>
    </g>
   </g>
   <g id="matplotlib.axis_4"/>
   <g id="line2d_32">
    <path d="M 255.250284 269.547319 
L 257.412284 259.191995 
L 267.573683 209.03073 
L 268.222283 206.594527 
L 268.654683 205.780497 
L 268.870883 205.942099 
L 269.087083 206.751487 
L 269.303283 208.476589 
L 269.735683 215.619413 
L 270.384283 234.435159 
L 271.249083 258.960099 
L 271.897683 270.79721 
L 272.546283 277.90358 
L 272.978683 280.769606 
L 273.411083 282.551709 
L 273.843483 283.508265 
L 274.275883 283.831225 
L 274.708283 283.662839 
L 275.140683 283.109143 
L 275.789283 281.725078 
L 276.654083 279.128183 
L 277.735083 275.068176 
L 279.248482 268.447584 
L 281.626682 256.896096 
L 290.923282 210.699391 
L 291.788082 207.123958 
L 292.220482 205.95234 
L 292.436682 205.774645 
L 292.652881 206.078034 
L 292.869081 207.095334 
L 293.085281 209.101237 
L 293.517681 216.925459 
L 294.166281 236.228651 
L 295.031081 260.201495 
L 295.679681 271.561782 
L 296.328281 278.32838 
L 296.760681 281.032374 
L 297.193081 282.690412 
L 297.625481 283.551215 
L 298.057881 283.799423 
L 298.490281 283.571932 
L 298.922681 282.970831 
L 299.571281 281.531604 
L 300.436081 278.88145 
L 301.517081 274.775282 
L 303.030481 268.112218 
L 305.408681 256.522062 
L 314.48908 211.294789 
L 315.57008 206.831395 
L 316.00248 205.824314 
L 316.21868 205.806164 
L 316.43488 206.351297 
L 316.65108 207.713311 
L 316.86728 210.168021 
L 317.29968 218.996951 
L 319.02928 266.107714 
L 319.67788 275.1487 
L 320.32648 280.317333 
L 320.75888 282.267298 
L 321.19128 283.350882 
L 321.623679 283.770638 
L 321.839879 283.780098 
L 322.272279 283.473085 
L 322.704679 282.808862 
L 323.353279 281.297328 
L 324.218079 278.579287 
L 325.299079 274.416982 
L 327.028679 266.691044 
L 329.623079 253.893596 
L 337.406278 214.896225 
L 339.135878 207.256752 
L 339.568278 205.994953 
L 339.784478 205.730796 
L 340.000678 205.902519 
L 340.216878 206.729172 
L 340.433078 208.480131 
L 340.865478 215.6945 
L 341.514078 234.581647 
L 342.378878 259.06935 
L 343.027478 270.859516 
L 343.676078 277.928294 
L 344.108478 280.774699 
L 344.540878 282.540626 
L 344.973278 283.483672 
L 345.405678 283.795146 
L 345.838078 283.616832 
L 346.270478 283.054393 
L 346.919078 281.658865 
L 347.783878 279.048868 
L 348.864878 274.974837 
L 350.378277 268.33752 
L 352.756477 256.764614 
L 361.836877 211.513498 
L 362.917877 206.974179 
L 363.350277 205.834028 
L 363.566477 205.68742 
L 363.782677 206.038708 
L 363.998877 207.125788 
L 364.215077 209.225185 
L 364.647476 217.272974 
L 365.512276 243.52499 
L 366.160876 260.571357 
L 366.809476 271.802376 
L 367.458076 278.476668 
L 367.890476 281.136899 
L 368.322876 282.761754 
L 368.755276 283.597314 
L 369.187676 283.826227 
L 369.620076 283.583906 
L 370.052476 282.971329 
L 370.701076 281.519528 
L 371.565876 278.858585 
L 372.646876 274.745045 
L 374.160276 268.078497 
L 376.538476 256.491831 
L 385.402675 212.309378 
L 386.699875 206.814874 
L 387.132275 205.719826 
L 387.348475 205.614608 
L 387.564675 206.027613 
L 387.780875 207.202345 
L 387.997075 209.416492 
L 388.429475 217.728493 
L 390.375275 268.9921 
L 391.023875 276.88634 
L 391.456275 280.126031 
L 391.888675 282.192173 
L 392.321075 283.366021 
L 392.753475 283.856866 
L 392.969675 283.896324 
L 393.402074 283.640613 
L 393.834474 283.018599 
L 394.483074 281.558053 
L 395.347874 278.892398 
L 396.428874 274.780017 
L 397.942274 268.122736 
L 400.320474 256.559926 
L 409.184673 212.49151 
L 410.481873 206.951933 
L 410.914273 205.74936 
L 411.130473 205.535704 
L 411.346673 205.781139 
L 411.562873 206.712474 
L 411.779073 208.603185 
L 412.211473 216.162548 
L 412.860073 235.348372 
L 413.724873 259.673842 
L 414.373473 271.295876 
L 415.022073 278.249998 
L 415.454473 281.046173 
L 415.886873 282.777435 
L 416.319273 283.697498 
L 416.751673 283.994704 
L 417.184073 283.808647 
L 417.616473 283.243404 
L 418.265073 281.850459 
L 419.129873 279.252653 
L 420.210873 275.202765 
L 421.724273 268.608781 
L 424.102472 257.114864 
L 433.182872 212.162935 
L 434.480072 206.719485 
L 434.912472 205.633165 
L 435.128672 205.527273 
L 435.344872 205.934091 
L 435.561072 207.095578 
L 435.777272 209.289104 
L 436.209672 217.550972 
L 438.155471 268.96279 
L 438.804071 276.925704 
L 439.236471 280.202784 
L 439.668871 282.301127 
L 440.101271 283.503192 
L 440.533671 284.019283 
L 440.749871 284.070495 
L 441.182271 283.836923 
L 441.614671 283.235625 
L 442.263271 281.804193 
L 443.128071 279.174851 
L 444.209071 275.105252 
L 445.722471 268.504503 
L 448.100671 257.024143 
L 457.18107 212.184502 
L 458.47827 206.758109 
L 458.91067 205.680406 
L 459.12687 205.580351 
L 459.34307 205.99441 
L 459.55927 207.164549 
L 459.77547 209.367538 
L 460.20787 217.644067 
L 462.15367 268.991954 
L 462.80227 276.941036 
L 463.23467 280.212577 
L 463.66707 282.307322 
L 464.09947 283.50714 
L 464.53187 284.021918 
L 464.74807 284.072727 
L 465.18047 283.838734 
L 465.612869 283.237383 
L 466.261469 281.806335 
L 467.126269 279.177996 
L 468.207269 275.109963 
L 469.720669 268.511368 
L 472.098869 257.033194 
L 481.179268 212.17618 
L 482.476468 206.771348 
L 482.908868 205.742011 
L 483.125068 205.690028 
L 483.341268 206.177311 
L 483.557468 207.451746 
L 483.773668 209.789624 
L 484.206068 218.360619 
L 485.935668 265.750451 
L 486.584268 274.999085 
L 487.232868 280.319062 
L 487.665268 282.346328 
L 488.097668 283.493599 
L 488.530068 283.966865 
L 488.746268 284.000111 
L 489.178668 283.735993 
L 489.611068 283.10974 
L 490.259668 281.648418 
L 491.124468 278.988649 
L 492.205468 274.890196 
L 493.718868 268.258456 
L 496.097067 256.739786 
L 505.177467 211.786967 
L 506.258467 207.221167 
L 506.690867 205.983783 
L 506.907067 205.734872 
L 507.123267 205.924968 
L 507.339467 206.773754 
L 507.555667 208.55042 
L 507.988067 215.817583 
L 508.636666 234.733426 
L 509.501466 259.186277 
L 510.150066 270.957416 
L 510.798666 278.020435 
L 511.231066 280.868081 
L 511.663466 282.637914 
L 512.095866 283.586708 
L 512.528266 283.905234 
L 512.960666 283.734879 
L 513.393066 283.18104 
L 514.041666 281.799251 
L 514.906466 279.208513 
L 515.987466 275.159227 
L 517.068466 270.5245 
L 517.068466 270.5245 
" clip-path="url(#pe6e21be271)" style="fill: none; stroke: #0000ff; stroke-opacity: 0.8; stroke-width: 1.5; stroke-linecap: square"/>
   </g>
   <g id="line2d_33">
    <path d="M 242.159375 284.072727 
L 530.159375 284.072727 
" clip-path="url(#pe6e21be271)" style="fill: none; stroke-dasharray: 3.7,1.6; stroke-dashoffset: 0; stroke: #000000; stroke-opacity: 0.7"/>
   </g>
   <g id="line2d_34">
    <path d="M 242.159375 205.527273 
L 530.159375 205.527273 
" clip-path="url(#pe6e21be271)" style="fill: none; stroke-dasharray: 3.7,1.6; stroke-dashoffset: 0; stroke: #000000; stroke-opacity: 0.7"/>
   </g>
   <g id="patch_9">
    <path d="M 242.159375 288 
L 242.159375 201.6 
" style="fill: none; stroke: #000000; stroke-width: 0.8; stroke-linejoin: miter; stroke-linecap: square"/>
   </g>
   <g id="patch_10">
    <path d="M 530.159375 288 
L 530.159375 201.6 
" style="fill: none; stroke: #000000; stroke-width: 0.8; stroke-linejoin: miter; stroke-linecap: square"/>
   </g>
   <g id="patch_11">
    <path d="M 242.159375 288 
L 530.159375 288 
" style="fill: none; stroke: #000000; stroke-width: 0.8; stroke-linejoin: miter; stroke-linecap: square"/>
   </g>
   <g id="patch_12">
    <path d="M 242.159375 201.6 
L 530.159375 201.6 
" style="fill: none; stroke: #000000; stroke-width: 0.8; stroke-linejoin: miter; stroke-linecap: square"/>
   </g>
   <g id="text_23">
    <!-- $n_{\rm max}$ -->
    <g style="opacity: 0.8" transform="translate(314.159375 194.957812) scale(0.14 -0.14)">
     <use xlink:href="#DejaVuSans-Oblique-6e"/>
     <use xlink:href="#DejaVuSans-6d" transform="translate(63.378906 -16.40625) scale(0.7)"/>
     <use xlink:href="#DejaVuSans-61" transform="translate(131.567383 -16.40625) scale(0.7)"/>
     <use xlink:href="#DejaVuSans-78" transform="translate(174.462891 -16.40625) scale(0.7)"/>
    </g>
   </g>
   <g id="text_24">
    <!-- $n_{\rm min}$ -->
    <g style="opacity: 0.8" transform="translate(285.359375 302.368437) scale(0.14 -0.14)">
     <use xlink:href="#DejaVuSans-Oblique-6e"/>
     <use xlink:href="#DejaVuSans-6d" transform="translate(63.378906 -16.40625) scale(0.7)"/>
     <use xlink:href="#DejaVuSans-69" transform="translate(131.567383 -16.40625) scale(0.7)"/>
     <use xlink:href="#DejaVuSans-6e" transform="translate(151.015625 -16.40625) scale(0.7)"/>
    </g>
   </g>
  </g>
 </g>
 <defs>
  <clipPath id="ped03f9fba2">
   <rect x="52.079375" y="7.2" width="489.6" height="367.2"/>
  </clipPath>
  <clipPath id="pe6e21be271">
   <rect x="242.159375" y="201.6" width="288" height="86.4"/>
  </clipPath>
 </defs>
</svg>
